M48
;Layer_Color=9474304
;FILE_FORMAT=4:2
METRIC,TZ
;TYPE=PLATED
T02F00S00C0.30
T03F00S00C0.40
%
T02
X3797Y2032
X3950Y2095
X4102Y2197
X4216Y2146
X4458Y2159
X8674Y5982
Y6312
X8670Y6642
X8667Y6828
X7023Y5499
X6680Y5156
X5626Y5321
X5613Y4623
X5118
X4826Y7099
X5436Y7226
X5626
X6071Y7429
Y7582
Y7734
X5575Y7925
X3823Y7468
Y7303
X2976Y7827
X1854Y7861
X1803Y4940
Y4839
X1918
Y4940
X1745Y4198
Y4096
X1630
Y4198
X5677Y8268
X6058Y8471
T03
X3111Y2553
X3509Y2394
X3150Y3645
X4039
X4318Y2845
X8357Y2692
X8471
X8496Y3035
X8407Y3238
X8420Y1829
X8382Y1524
X8509
X8446Y1410
X8268Y4204
Y4356
X8090
Y4204
X7942Y4800
X8658Y4918
X8826Y4915
X8052Y7569
X6147Y6629
X4445Y6871
X5347Y5397
X5828Y4616
X2743Y7455
X2159Y7493
X2984Y8153
M30
