M48
;Layer_Color=9474304
;FILE_FORMAT=2:4
INCH,LZ
;TYPE=PLATED
T01F00S00C0.0079
T02F00S00C0.0118
T03F00S00C0.0157
%
T01
X0142Y0056
X0157Y00735
Y00765
X0166
Y00735
X017559Y00735
Y00765
X0185Y00765
Y00735
X01935Y00545
X0344Y02045
X01275Y0231
X01255Y02375
X01315
X01105Y02351
X0092Y0218
X00925Y02125
Y02095
Y02065
Y02035
Y02005
Y01975
Y0194
X00665Y02215
X0068Y0235
X0065Y02375
T02
X0047Y0021
X0077Y0042
X0078Y00475
Y0051
X00905Y00795
X00945
X00985
Y0084
X00945
X00905
X00825Y01065
Y011
X00805Y0116
X008855Y012688
Y013038
X008368Y013567
X0079Y01355
X0126Y01065
X01235Y00895
Y00845
X01245Y008
X012Y0082
X0147Y0089
X01535Y00945
Y0101
X015Y0112
Y0115
Y01185
X01465
Y0115
Y0112
X0143
Y0115
Y01185
X0151Y0057
X01695Y00475
X01735
Y0043
X01695
X01885Y0042
Y0046
Y005
X01975Y00675
Y00715
Y0076
X0193Y00795
X01965Y00835
X019449Y01
X01905
X0186
X018151
Y01055
X0186
X01905
X019449
X01975Y01245
X02005
X02035
X0243Y0125
Y01215
Y01325
Y0136
X02375Y014
Y0144
X0239Y01485
Y0152
X0241Y00805
X02355Y0082
X02315
X02265
X02225
X02165Y008
X02335Y0058
X02355Y00545
X023542Y005076
X02245Y0042
X0262Y0047
X026143Y006008
Y006457
Y006907
Y007306
X025593
Y006907
Y006457
Y006008
X02825Y0058
X01765Y0092
X0172Y01015
X03165Y01025
Y0107
Y01115
Y0115
X032Y0105
X03235
X0315Y00975
X0319Y00915
Y0088
X03195Y0082
Y0078
X0318Y0068
Y00635
X0317Y0058
Y00545
X03215
Y0058
X03235Y0031
Y00235
X03325Y0085
X03235Y01265
X032
X03185Y0131
Y01345
X0318Y01435
X03135
Y0148
X031796Y014807
X03165Y01535
X03325Y01405
X03165Y01575
X03145Y0196
Y02
X03355Y0185
X03475Y0208
X03515Y02045
X03415Y02755
X0341Y0289
X03055Y03085
X027678Y030648
X02695Y0304
X02615Y0306
X02535Y0304
X02365Y0271
X023
X0242Y02555
X02235Y0216
X01975
X0176Y022
Y0225
Y02315
X0169Y022
X01625
X0163Y0251
X01745Y02655
X0185Y02935
X0182Y01985
Y01935
X02395Y0193
X02505Y01975
X0249Y02035
X0256
X02585Y01965
X0277Y01985
Y0193
X0283
X02895
X02955
X0301
Y01995
Y02045
X0299Y0186
X0277Y0205
Y0211
X02825Y02165
X0263Y02125
X0239Y01605
Y0157
X01305Y01785
Y0182
Y0186
X0126
Y0182
Y01785
X00995Y0174
Y01705
X00945
Y0174
X00925Y0189
X0097
X0088
X0065Y01985
X00615
X0056Y01975
X01545Y022
Y0225
Y02325
Y02395
Y0245
Y0251
X01445Y0252
X0136Y02855
X013605Y028993
Y029393
X01392Y029971
X0096Y02945
X0093
X0143Y03235
X0159
X01815Y03215
X019954Y032209
X01995Y03265
X020382Y031931
X02255Y03135
X0236Y0317
X023857Y032743
T03
X0317Y0304
X0312Y03085
X01025Y03095
X012188Y026362
X00625Y02635
X00985Y03135
X0094Y03235
Y0328
X0128Y0325
X03295Y0316
M30
