M48
;Layer_Color=9474304
;FILE_FORMAT=2:4
INCH,LZ
;TYPE=PLATED
T02F00S00C0.0118
T03F00S00C0.0157
%
T02
X01495Y008
X01555Y00825
X01615Y00865
X0166Y00845
X01755Y0085
X03415Y02355
Y02485
X034135Y02615
X034123Y026883
X02765Y02165
X0263Y0203
X02215Y02095
X0221Y0182
X02015
X0214Y02845
X02215
X0239Y02925
Y02985
Y03045
X02195Y0312
X01505Y0294
Y02875
X01175Y03065
X0073Y03095
X0071Y01945
Y01905
X00755
Y01945
X006869Y016527
Y016127
X006419
Y016527
X02235Y03255
X02385Y03335
T03
X01225Y01005
X013813Y009427
X0124Y01435
X0159
X017Y0112
X0329Y0106
X03335
X03345Y01195
X0331Y01275
X03315Y0072
X033Y006
X0335
X03325Y00555
X03255Y01655
Y01715
X03185
Y01655
X031268Y018897
X034085Y019364
X03475Y01935
X0317Y0298
X0242Y0261
X02295Y022
X02105Y02125
X022943Y018172
X0175Y02705
X0108Y02935
X0085Y0295
X0119Y0325
M30
