G04*
G04 #@! TF.GenerationSoftware,Altium Limited,Altium Designer,25.7.1 (20)*
G04*
G04 Layer_Color=2752767*
%FSTAX44Y44*%
%MOMM*%
G71*
G04*
G04 #@! TF.SameCoordinates,567EF581-4316-4FAF-80C0-128919799B06*
G04*
G04*
G04 #@! TF.FilePolarity,Positive*
G04*
G01*
G75*
%ADD15C,0.1270*%
%ADD158C,0.1693*%
D15*
X00030366Y0008292D02*
Y0009308D01*
X00040526D01*
Y0008292D01*
X00030366D01*
X00032398Y00084952D02*
Y00091048D01*
X00038494D01*
Y00084952D01*
X00032398D01*
X0005602Y0048932D02*
Y0049948D01*
X0006618D01*
Y0048932D01*
X0005602D01*
X0003062D02*
Y0049948D01*
X0004078D01*
Y0048932D01*
X0003062D01*
X0005602Y0051472D02*
Y0052488D01*
X0006618D01*
Y0051472D01*
X0005602D01*
X0003062D02*
Y0052488D01*
X0004078D01*
Y0051472D01*
X0003062D01*
Y0074332D02*
Y0075348D01*
X0004078D01*
Y0074332D01*
X0003062D01*
X0003048Y0082169D02*
Y0083185D01*
X0004064D01*
Y0082169D01*
X0003048D01*
X00032512Y00823722D02*
Y00829818D01*
X00038608D01*
Y00823722D01*
X00032512D01*
X0005602Y0074332D02*
Y0075348D01*
X0006618D01*
Y0074332D01*
X0005602D01*
X0088792Y0004492D02*
Y0005508D01*
X0089808D01*
Y0004492D01*
X0088792D01*
X00889952Y00046952D02*
Y00053048D01*
X00896048D01*
Y00046952D01*
X00889952D01*
X0067881Y0084709D02*
X0068389Y0085217D01*
X0068897Y0084709D01*
X0068389Y0084201D01*
X0067881Y0084709D01*
X00887666Y0084492D02*
Y0085508D01*
X00897826D01*
Y0084492D01*
X00887666D01*
X00889698Y00846952D02*
Y00853048D01*
X00895794D01*
Y00846952D01*
X00889698D01*
X0044831Y0007366D02*
X0045085Y0007874D01*
X0044831Y0008382D01*
X0045339Y0008128D01*
X0045847Y0008382D01*
X0045593Y0007874D01*
X0045847Y0007366D01*
X0045339Y000762D01*
X0044831Y0007366D01*
X0067564D02*
X0067818Y0007874D01*
X0067564Y0008382D01*
X0068072Y0008128D01*
X006858Y0008382D01*
X0068326Y0007874D01*
X006858Y0007366D01*
X0068072Y000762D01*
X0067564Y0007366D01*
X0055753D02*
X0056007Y0007874D01*
X0055753Y0008382D01*
X0056261Y0008128D01*
X0056769Y0008382D01*
X0056515Y0007874D01*
X0056769Y0007366D01*
X0056261Y000762D01*
X0055753Y0007366D01*
X0032766D02*
X003302Y0007874D01*
X0032766Y0008382D01*
X0033274Y0008128D01*
X0033782Y0008382D01*
X0033528Y0007874D01*
X0033782Y0007366D01*
X0033274Y000762D01*
X0032766Y0007366D01*
X0018542D02*
X0018796Y0007874D01*
X0018542Y0008382D01*
X001905Y0008128D01*
X0019558Y0008382D01*
X0019304Y0007874D01*
X0019558Y0007366D01*
X001905Y000762D01*
X0018542Y0007366D01*
X0008142Y0046392D02*
Y0047408D01*
X0009158D01*
Y0046392D01*
X0008142D01*
X0003062Y0043852D02*
Y0044868D01*
X0004078D01*
Y0043852D01*
X0003062D01*
Y0046392D02*
Y0047408D01*
X0004078D01*
Y0046392D01*
X0003062D01*
X0005602Y0043852D02*
Y0044868D01*
X0006618D01*
Y0043852D01*
X0005602D01*
Y0046392D02*
Y0047408D01*
X0006618D01*
Y0046392D01*
X0005602D01*
X0065881Y0084709D02*
X0066389Y0085217D01*
X0066897Y0084709D01*
X0066389Y0084201D01*
X0065881Y0084709D01*
X0042291Y0007366D02*
X0042545Y0007874D01*
X0042291Y0008382D01*
X0042799Y0008128D01*
X0043307Y0008382D01*
X0043053Y0007874D01*
X0043307Y0007366D01*
X0042799Y000762D01*
X0042291Y0007366D01*
X0016002D02*
X0016256Y0007874D01*
X0016002Y0008382D01*
X001651Y0008128D01*
X0017018Y0008382D01*
X0016764Y0007874D01*
X0017018Y0007366D01*
X001651Y000762D01*
X0016002Y0007366D01*
X0030226D02*
X003048Y0007874D01*
X0030226Y0008382D01*
X0030734Y0008128D01*
X0031242Y0008382D01*
X0030988Y0007874D01*
X0031242Y0007366D01*
X0030734Y000762D01*
X0030226Y0007366D01*
X0053213D02*
X0053467Y0007874D01*
X0053213Y0008382D01*
X0053721Y0008128D01*
X0054229Y0008382D01*
X0053975Y0007874D01*
X0054229Y0007366D01*
X0053721Y000762D01*
X0053213Y0007366D01*
X0065024D02*
X0065278Y0007874D01*
X0065024Y0008382D01*
X0065532Y0008128D01*
X006604Y0008382D01*
X0065786Y0007874D01*
X006604Y0007366D01*
X0065532Y000762D01*
X0065024Y0007366D01*
X0067754Y0082042D02*
X0068262Y008255D01*
X006877Y0082042D01*
X0068262Y0081534D01*
X0067754Y0082042D01*
X0069754D02*
X0070262Y008255D01*
X007077Y0082042D01*
X0070262Y0081534D01*
X0069754Y0082042D01*
X0065754D02*
X0066262Y008255D01*
X006677Y0082042D01*
X0066262Y0081534D01*
X0065754Y0082042D01*
X0063754D02*
X0064262Y008255D01*
X006477Y0082042D01*
X0064262Y0081534D01*
X0063754Y0082042D01*
X0010682Y0069252D02*
Y0070268D01*
X0011698D01*
Y0069252D01*
X0010682D01*
Y0066712D02*
Y0067728D01*
X0011698D01*
Y0066712D01*
X0010682D01*
Y0051472D02*
Y0052488D01*
X0011698D01*
Y0051472D01*
X0010682D01*
X0008142D02*
Y0052488D01*
X0009158D01*
Y0051472D01*
X0008142D01*
X0010682Y0054012D02*
Y0055028D01*
X0011698D01*
Y0054012D01*
X0010682D01*
X0008142D02*
Y0055028D01*
X0009158D01*
Y0054012D01*
X0008142D01*
X0010682Y0074332D02*
Y0075348D01*
X0011698D01*
Y0074332D01*
X0010682D01*
X0008142D02*
Y0075348D01*
X0009158D01*
Y0074332D01*
X0008142D01*
X0010682Y0046392D02*
Y0047408D01*
X0011698D01*
Y0046392D01*
X0010682D01*
Y0043852D02*
Y0044868D01*
X0011698D01*
Y0043852D01*
X0010682D01*
X0008142D02*
Y0044868D01*
X0009158D01*
Y0043852D01*
X0008142D01*
Y0028612D02*
Y0029628D01*
X0009158D01*
Y0028612D01*
X0008142D01*
X0010682Y0031152D02*
Y0032168D01*
X0011698D01*
Y0031152D01*
X0010682D01*
Y0028612D02*
Y0029628D01*
X0011698D01*
Y0028612D01*
X0010682D01*
Y0026072D02*
Y0027088D01*
X0011698D01*
Y0026072D01*
X0010682D01*
Y0023532D02*
Y0024548D01*
X0011698D01*
Y0023532D01*
X0010682D01*
X0008142Y0018452D02*
Y0019468D01*
X0009158D01*
Y0018452D01*
X0008142D01*
X0010682Y0038772D02*
Y0039788D01*
X0011698D01*
Y0038772D01*
X0010682D01*
Y0041312D02*
Y0042328D01*
X0011698D01*
Y0041312D01*
X0010682D01*
X0008142Y0031152D02*
Y0032168D01*
X0009158D01*
Y0031152D01*
X0008142D01*
X0010682Y0036232D02*
Y0037248D01*
X0011698D01*
Y0036232D01*
X0010682D01*
X0008142D02*
Y0037248D01*
X0009158D01*
Y0036232D01*
X0008142D01*
Y0038772D02*
Y0039788D01*
X0009158D01*
Y0038772D01*
X0008142D01*
Y0041312D02*
Y0042328D01*
X0009158D01*
Y0041312D01*
X0008142D01*
X0010682Y0048932D02*
Y0049948D01*
X0011698D01*
Y0048932D01*
X0010682D01*
X0008142D02*
Y0049948D01*
X0009158D01*
Y0048932D01*
X0008142D01*
X0010682Y0056552D02*
Y0057568D01*
X0011698D01*
Y0056552D01*
X0010682D01*
X0008142D02*
Y0057568D01*
X0009158D01*
Y0056552D01*
X0008142D01*
Y0061632D02*
Y0062648D01*
X0009158D01*
Y0061632D01*
X0008142D01*
Y0064172D02*
Y0065188D01*
X0009158D01*
Y0064172D01*
X0008142D01*
X0010682Y0071792D02*
Y0072808D01*
X0011698D01*
Y0071792D01*
X0010682D01*
X0008142D02*
Y0072808D01*
X0009158D01*
Y0071792D01*
X0008142D01*
X0010682Y0076872D02*
Y0077888D01*
X0011698D01*
Y0076872D01*
X0010682D01*
X0008142D02*
Y0077888D01*
X0009158D01*
Y0076872D01*
X0008142D01*
Y0013372D02*
Y0014388D01*
X0009158D01*
Y0013372D01*
X0008142D01*
Y0015912D02*
Y0016928D01*
X0009158D01*
Y0015912D01*
X0008142D01*
X0010682Y0018452D02*
Y0019468D01*
X0011698D01*
Y0018452D01*
X0010682D01*
Y0020992D02*
Y0022008D01*
X0011698D01*
Y0020992D01*
X0010682D01*
X0008142D02*
Y0022008D01*
X0009158D01*
Y0020992D01*
X0008142D01*
Y0026072D02*
Y0027088D01*
X0009158D01*
Y0026072D01*
X0008142D01*
Y0023532D02*
Y0024548D01*
X0009158D01*
Y0023532D01*
X0008142D01*
Y0066712D02*
Y0067728D01*
X0009158D01*
Y0066712D01*
X0008142D01*
Y0069252D02*
Y0070268D01*
X0009158D01*
Y0069252D01*
X0008142D01*
X0010682Y0061632D02*
Y0062648D01*
X0011698D01*
Y0061632D01*
X0010682D01*
Y0064172D02*
Y0065188D01*
X0011698D01*
Y0064172D01*
X0010682D01*
Y0013372D02*
Y0014388D01*
X0011698D01*
Y0013372D01*
X0010682D01*
Y0015912D02*
Y0016928D01*
X0011698D01*
Y0015912D01*
X0010682D01*
Y0033692D02*
Y0034708D01*
X0011698D01*
Y0033692D01*
X0010682D01*
X0008142D02*
Y0034708D01*
X0009158D01*
Y0033692D01*
X0008142D01*
Y0059092D02*
Y0060108D01*
X0009158D01*
Y0059092D01*
X0008142D01*
X0010682D02*
Y0060108D01*
X0011698D01*
Y0059092D01*
X0010682D01*
X0003062Y0054012D02*
Y0055028D01*
X0004078D01*
Y0054012D01*
X0003062D01*
X0005602D02*
Y0055028D01*
X0006618D01*
Y0054012D01*
X0005602D01*
X0003062Y0066712D02*
Y0067728D01*
X0004078D01*
Y0066712D01*
X0003062D01*
X0005602Y0064172D02*
Y0065188D01*
X0006618D01*
Y0064172D01*
X0005602D01*
Y0066712D02*
Y0067728D01*
X0006618D01*
Y0066712D01*
X0005602D01*
Y0069252D02*
Y0070268D01*
X0006618D01*
Y0069252D01*
X0005602D01*
Y0061632D02*
Y0062648D01*
X0006618D01*
Y0061632D01*
X0005602D01*
X0003062Y0069252D02*
Y0070268D01*
X0004078D01*
Y0069252D01*
X0003062D01*
X0005602Y0015912D02*
Y0016928D01*
X0006618D01*
Y0015912D01*
X0005602D01*
Y0013372D02*
Y0014388D01*
X0006618D01*
Y0013372D01*
X0005602D01*
X0003062Y0028612D02*
Y0029628D01*
X0004078D01*
Y0028612D01*
X0003062D01*
X0005602Y0031152D02*
Y0032168D01*
X0006618D01*
Y0031152D01*
X0005602D01*
Y0028612D02*
Y0029628D01*
X0006618D01*
Y0028612D01*
X0005602D01*
Y0026072D02*
Y0027088D01*
X0006618D01*
Y0026072D01*
X0005602D01*
Y0023532D02*
Y0024548D01*
X0006618D01*
Y0023532D01*
X0005602D01*
X0003062Y0018452D02*
Y0019468D01*
X0004078D01*
Y0018452D01*
X0003062D01*
Y0031152D02*
Y0032168D01*
X0004078D01*
Y0031152D01*
X0003062D01*
X0005602Y0056552D02*
Y0057568D01*
X0006618D01*
Y0056552D01*
X0005602D01*
X0003062D02*
Y0057568D01*
X0004078D01*
Y0056552D01*
X0003062D01*
Y0061632D02*
Y0062648D01*
X0004078D01*
Y0061632D01*
X0003062D01*
Y0064172D02*
Y0065188D01*
X0004078D01*
Y0064172D01*
X0003062D01*
X0005602Y0071792D02*
Y0072808D01*
X0006618D01*
Y0071792D01*
X0005602D01*
X0003062D02*
Y0072808D01*
X0004078D01*
Y0071792D01*
X0003062D01*
X0005602Y0076872D02*
Y0077888D01*
X0006618D01*
Y0076872D01*
X0005602D01*
X0003062D02*
Y0077888D01*
X0004078D01*
Y0076872D01*
X0003062D01*
Y0013372D02*
Y0014388D01*
X0004078D01*
Y0013372D01*
X0003062D01*
Y0015912D02*
Y0016928D01*
X0004078D01*
Y0015912D01*
X0003062D01*
X0005602Y0018452D02*
Y0019468D01*
X0006618D01*
Y0018452D01*
X0005602D01*
Y0020992D02*
Y0022008D01*
X0006618D01*
Y0020992D01*
X0005602D01*
X0003062D02*
Y0022008D01*
X0004078D01*
Y0020992D01*
X0003062D01*
Y0026072D02*
Y0027088D01*
X0004078D01*
Y0026072D01*
X0003062D01*
Y0023532D02*
Y0024548D01*
X0004078D01*
Y0023532D01*
X0003062D01*
X0005602Y0059092D02*
Y0060108D01*
X0006618D01*
Y0059092D01*
X0005602D01*
X0003062D02*
Y0060108D01*
X0004078D01*
Y0059092D01*
X0003062D01*
Y0033692D02*
Y0034708D01*
X0004078D01*
Y0033692D01*
X0003062D01*
X0005602D02*
Y0034708D01*
X0006618D01*
Y0033692D01*
X0005602D01*
X0003062Y0036232D02*
Y0037248D01*
X0004078D01*
Y0036232D01*
X0003062D01*
Y0038772D02*
Y0039788D01*
X0004078D01*
Y0038772D01*
X0003062D01*
Y0041312D02*
Y0042328D01*
X0004078D01*
Y0041312D01*
X0003062D01*
X0005602Y0038772D02*
Y0039788D01*
X0006618D01*
Y0038772D01*
X0005602D01*
Y0041312D02*
Y0042328D01*
X0006618D01*
Y0041312D01*
X0005602D01*
Y0036232D02*
Y0037248D01*
X0006618D01*
Y0036232D01*
X0005602D01*
X0069881Y0084709D02*
X0070389Y0085217D01*
X0070897Y0084709D01*
X0070389Y0084201D01*
X0069881Y0084709D01*
X0063881D02*
X0064389Y0085217D01*
X0064897Y0084709D01*
X0064389Y0084201D01*
X0063881Y0084709D01*
X00052431Y00005091D02*
X00054971Y00007631D01*
X00057511D01*
X00054971Y00010171D01*
X00057511Y0001271D01*
X00054971D01*
X00052431Y00015251D01*
X00049891Y0001271D01*
X00047351D01*
X00049891Y00010171D01*
X00047351Y00007631D01*
X00049891D01*
X00052431Y00005091D01*
X00043431D02*
X00045971Y00007631D01*
X00048511D01*
X00045971Y00010171D01*
X00048511Y0001271D01*
X00045971D01*
X00043431Y00015251D01*
X00040891Y0001271D01*
X00038351D01*
X00040891Y00010171D01*
X00038351Y00007631D01*
X00040891D01*
X00043431Y00005091D01*
X00079431D02*
X00081971Y00007631D01*
X00084511D01*
X00081971Y00010171D01*
X00084511Y0001271D01*
X00081971D01*
X00079431Y00015251D01*
X00076891Y0001271D01*
X00074351D01*
X00076891Y00010171D01*
X00074351Y00007631D01*
X00076891D01*
X00079431Y00005091D01*
X00061431D02*
X00063971Y00007631D01*
X00066511D01*
X00063971Y00010171D01*
X00066511Y0001271D01*
X00063971D01*
X00061431Y00015251D01*
X00058891Y0001271D01*
X00056351D01*
X00058891Y00010171D01*
X00056351Y00007631D01*
X00058891D01*
X00061431Y00005091D01*
X00070431D02*
X00072971Y00007631D01*
X00075511D01*
X00072971Y00010171D01*
X00075511Y0001271D01*
X00072971D01*
X00070431Y00015251D01*
X00067891Y0001271D01*
X00065351D01*
X00067891Y00010171D01*
X00065351Y00007631D01*
X00067891D01*
X00070431Y00005091D01*
X00012229Y00017684D02*
X00014769Y00020224D01*
X00017309D01*
X00014769Y00022764D01*
X00017309Y00025304D01*
X00014769D01*
X00012229Y00027844D01*
X00009689Y00025304D01*
X00007149D01*
X00009689Y00022764D01*
X00007149Y00020224D01*
X00009689D01*
X00012229Y00017684D01*
X0001017Y00026445D02*
X00012709Y00028985D01*
X0001525D01*
X00012709Y00031525D01*
X0001525Y00034065D01*
X00012709D01*
X0001017Y00036605D01*
X0000763Y00034065D01*
X00005089D01*
X0000763Y00031525D01*
X00005089Y00028985D01*
X0000763D01*
X0001017Y00026445D01*
X00034431Y00005091D02*
X00036971Y00007631D01*
X00039511D01*
X00036971Y00010171D01*
X00039511Y0001271D01*
X00036971D01*
X00034431Y00015251D01*
X00031891Y0001271D01*
X00029351D01*
X00031891Y00010171D01*
X00029351Y00007631D01*
X00031891D01*
X00034431Y00005091D01*
X00017654Y00010503D02*
X00020194Y00013043D01*
X00022734D01*
X00020194Y00015583D01*
X00022734Y00018123D01*
X00020194D01*
X00017654Y00020663D01*
X00015114Y00018123D01*
X00012574D01*
X00015114Y00015583D01*
X00012574Y00013043D01*
X00015114D01*
X00017654Y00010503D01*
X00025484Y00006065D02*
X00028024Y00008605D01*
X00030564D01*
X00028024Y00011144D01*
X00030564Y00013685D01*
X00028024D01*
X00025484Y00016224D01*
X00022944Y00013685D01*
X00020404D01*
X00022944Y00011144D01*
X00020404Y00008605D01*
X00022944D01*
X00025484Y00006065D01*
X00142431Y00005091D02*
X00144971Y00007631D01*
X00147511D01*
X00144971Y00010171D01*
X00147511Y0001271D01*
X00144971D01*
X00142431Y00015251D01*
X00139891Y0001271D01*
X00137351D01*
X00139891Y00010171D01*
X00137351Y00007631D01*
X00139891D01*
X00142431Y00005091D01*
X00133431D02*
X00135971Y00007631D01*
X00138511D01*
X00135971Y00010171D01*
X00138511Y0001271D01*
X00135971D01*
X00133431Y00015251D01*
X00130891Y0001271D01*
X00128351D01*
X00130891Y00010171D01*
X00128351Y00007631D01*
X00130891D01*
X00133431Y00005091D01*
X00169431D02*
X00171971Y00007631D01*
X0017451D01*
X00171971Y00010171D01*
X0017451Y0001271D01*
X00171971D01*
X00169431Y00015251D01*
X00166891Y0001271D01*
X0016435D01*
X00166891Y00010171D01*
X0016435Y00007631D01*
X00166891D01*
X00169431Y00005091D01*
X00151431D02*
X0015397Y00007631D01*
X0015651D01*
X0015397Y00010171D01*
X0015651Y0001271D01*
X0015397D01*
X00151431Y00015251D01*
X0014889Y0001271D01*
X0014635D01*
X0014889Y00010171D01*
X0014635Y00007631D01*
X0014889D01*
X00151431Y00005091D01*
X00160431D02*
X00162971Y00007631D01*
X00165511D01*
X00162971Y00010171D01*
X00165511Y0001271D01*
X00162971D01*
X00160431Y00015251D01*
X00157891Y0001271D01*
X00155351D01*
X00157891Y00010171D01*
X00155351Y00007631D01*
X00157891D01*
X00160431Y00005091D01*
X00097431D02*
X00099971Y00007631D01*
X00102511D01*
X00099971Y00010171D01*
X00102511Y0001271D01*
X00099971D01*
X00097431Y00015251D01*
X00094891Y0001271D01*
X00092351D01*
X00094891Y00010171D01*
X00092351Y00007631D01*
X00094891D01*
X00097431Y00005091D01*
X00088431D02*
X00090971Y00007631D01*
X00093511D01*
X00090971Y00010171D01*
X00093511Y0001271D01*
X00090971D01*
X00088431Y00015251D01*
X00085891Y0001271D01*
X00083351D01*
X00085891Y00010171D01*
X00083351Y00007631D01*
X00085891D01*
X00088431Y00005091D01*
X00124431D02*
X00126971Y00007631D01*
X00129511D01*
X00126971Y00010171D01*
X00129511Y0001271D01*
X00126971D01*
X00124431Y00015251D01*
X00121891Y0001271D01*
X00119351D01*
X00121891Y00010171D01*
X00119351Y00007631D01*
X00121891D01*
X00124431Y00005091D01*
X00106431D02*
X00108971Y00007631D01*
X00111511D01*
X00108971Y00010171D01*
X00111511Y0001271D01*
X00108971D01*
X00106431Y00015251D01*
X00103891Y0001271D01*
X00101351D01*
X00103891Y00010171D01*
X00101351Y00007631D01*
X00103891D01*
X00106431Y00005091D01*
X00115431D02*
X00117971Y00007631D01*
X00120511D01*
X00117971Y00010171D01*
X00120511Y0001271D01*
X00117971D01*
X00115431Y00015251D01*
X00112891Y0001271D01*
X00110351D01*
X00112891Y00010171D01*
X00110351Y00007631D01*
X00112891D01*
X00115431Y00005091D01*
X00178431D02*
X0018097Y00007631D01*
X0018351D01*
X0018097Y00010171D01*
X0018351Y0001271D01*
X0018097D01*
X00178431Y00015251D01*
X00175891Y0001271D01*
X00173351D01*
X00175891Y00010171D01*
X00173351Y00007631D01*
X00175891D01*
X00178431Y00005091D01*
X0019643D02*
X0019897Y00007631D01*
X0020151D01*
X0019897Y00010171D01*
X0020151Y0001271D01*
X0019897D01*
X0019643Y00015251D01*
X0019389Y0001271D01*
X0019135D01*
X0019389Y00010171D01*
X0019135Y00007631D01*
X0019389D01*
X0019643Y00005091D01*
X0018743D02*
X0018997Y00007631D01*
X00192511D01*
X0018997Y00010171D01*
X00192511Y0001271D01*
X0018997D01*
X0018743Y00015251D01*
X0018489Y0001271D01*
X00182351D01*
X0018489Y00010171D01*
X00182351Y00007631D01*
X0018489D01*
X0018743Y00005091D01*
X00201502Y00012526D02*
X00204042Y00015065D01*
X00206582D01*
X00204042Y00017606D01*
X00206582Y00020145D01*
X00204042D01*
X00201502Y00022685D01*
X00198962Y00020145D01*
X00196422D01*
X00198962Y00017606D01*
X00196422Y00015065D01*
X00198962D01*
X00201502Y00012526D01*
X00208221Y00018513D02*
X00210761Y00021054D01*
X00213301D01*
X00210761Y00023593D01*
X00213301Y00026133D01*
X00210761D01*
X00208221Y00028674D01*
X00205681Y00026133D01*
X00203141D01*
X00205681Y00023593D01*
X00203141Y00021054D01*
X00205681D01*
X00208221Y00018513D01*
X00216873Y00020991D02*
X00219413Y00023531D01*
X00221953D01*
X00219413Y00026071D01*
X00221953Y00028611D01*
X00219413D01*
X00216873Y00031151D01*
X00214333Y00028611D01*
X00211793D01*
X00214333Y00026071D01*
X00211793Y00023531D01*
X00214333D01*
X00216873Y00020991D01*
X00270873Y00021091D02*
X00273413Y0002363D01*
X00275953D01*
X00273413Y0002617D01*
X00275953Y0002871D01*
X00273413D01*
X00270873Y00031251D01*
X00268333Y0002871D01*
X00265793D01*
X00268333Y0002617D01*
X00265793Y0002363D01*
X00268333D01*
X00270873Y00021091D01*
X00252873D02*
X00255413Y0002363D01*
X00257953D01*
X00255413Y0002617D01*
X00257953Y0002871D01*
X00255413D01*
X00252873Y00031251D01*
X00250333Y0002871D01*
X00247793D01*
X00250333Y0002617D01*
X00247793Y0002363D01*
X00250333D01*
X00252873Y00021091D01*
X00261873D02*
X00264413Y0002363D01*
X00266953D01*
X00264413Y0002617D01*
X00266953Y0002871D01*
X00264413D01*
X00261873Y00031251D01*
X00259333Y0002871D01*
X00256793D01*
X00259333Y0002617D01*
X00256793Y0002363D01*
X00259333D01*
X00261873Y00021091D01*
X00234873D02*
X00237413Y0002363D01*
X00239953D01*
X00237413Y0002617D01*
X00239953Y0002871D01*
X00237413D01*
X00234873Y00031251D01*
X00232333Y0002871D01*
X00229793D01*
X00232333Y0002617D01*
X00229793Y0002363D01*
X00232333D01*
X00234873Y00021091D01*
X00225873D02*
X00228413Y0002363D01*
X00230953D01*
X00228413Y0002617D01*
X00230953Y0002871D01*
X00228413D01*
X00225873Y00031251D01*
X00223333Y0002871D01*
X00220793D01*
X00223333Y0002617D01*
X00220793Y0002363D01*
X00223333D01*
X00225873Y00021091D01*
X00243873D02*
X00246413Y0002363D01*
X00248953D01*
X00246413Y0002617D01*
X00248953Y0002871D01*
X00246413D01*
X00243873Y00031251D01*
X00241333Y0002871D01*
X00238793D01*
X00241333Y0002617D01*
X00238793Y0002363D01*
X00241333D01*
X00243873Y00021091D01*
X00324873D02*
X00327412Y0002363D01*
X00329953D01*
X00327412Y0002617D01*
X00329953Y0002871D01*
X00327412D01*
X00324873Y00031251D01*
X00322332Y0002871D01*
X00319792D01*
X00322332Y0002617D01*
X00319792Y0002363D01*
X00322332D01*
X00324873Y00021091D01*
X00315872D02*
X00318412Y0002363D01*
X00320952D01*
X00318412Y0002617D01*
X00320952Y0002871D01*
X00318412D01*
X00315872Y00031251D01*
X00313333Y0002871D01*
X00310793D01*
X00313333Y0002617D01*
X00310793Y0002363D01*
X00313333D01*
X00315872Y00021091D01*
X00351872D02*
X00354412Y0002363D01*
X00356952D01*
X00354412Y0002617D01*
X00356952Y0002871D01*
X00354412D01*
X00351872Y00031251D01*
X00349332Y0002871D01*
X00346792D01*
X00349332Y0002617D01*
X00346792Y0002363D01*
X00349332D01*
X00351872Y00021091D01*
X00333872D02*
X00336413Y0002363D01*
X00338952D01*
X00336413Y0002617D01*
X00338952Y0002871D01*
X00336413D01*
X00333872Y00031251D01*
X00331333Y0002871D01*
X00328792D01*
X00331333Y0002617D01*
X00328792Y0002363D01*
X00331333D01*
X00333872Y00021091D01*
X00342872D02*
X00345412Y0002363D01*
X00347952D01*
X00345412Y0002617D01*
X00347952Y0002871D01*
X00345412D01*
X00342872Y00031251D01*
X00340332Y0002871D01*
X00337792D01*
X00340332Y0002617D01*
X00337792Y0002363D01*
X00340332D01*
X00342872Y00021091D01*
X00279873D02*
X00282413Y0002363D01*
X00284953D01*
X00282413Y0002617D01*
X00284953Y0002871D01*
X00282413D01*
X00279873Y00031251D01*
X00277333Y0002871D01*
X00274793D01*
X00277333Y0002617D01*
X00274793Y0002363D01*
X00277333D01*
X00279873Y00021091D01*
X00306873D02*
X00309412Y0002363D01*
X00311952D01*
X00309412Y0002617D01*
X00311952Y0002871D01*
X00309412D01*
X00306873Y00031251D01*
X00304333Y0002871D01*
X00301793D01*
X00304333Y0002617D01*
X00301793Y0002363D01*
X00304333D01*
X00306873Y00021091D01*
X00288873D02*
X00291413Y0002363D01*
X00293953D01*
X00291413Y0002617D01*
X00293953Y0002871D01*
X00291413D01*
X00288873Y00031251D01*
X00286332Y0002871D01*
X00283792D01*
X00286332Y0002617D01*
X00283792Y0002363D01*
X00286332D01*
X00288873Y00021091D01*
X00297873D02*
X00300413Y0002363D01*
X00302952D01*
X00300413Y0002617D01*
X00302952Y0002871D01*
X00300413D01*
X00297873Y00031251D01*
X00295333Y0002871D01*
X00292792D01*
X00295333Y0002617D01*
X00292792Y0002363D01*
X00295333D01*
X00297873Y00021091D01*
X0001017Y00053445D02*
X0001271Y00055985D01*
X0001525D01*
X0001271Y00058525D01*
X0001525Y00061065D01*
X0001271D01*
X0001017Y00063605D01*
X0000763Y00061065D01*
X0000509D01*
X0000763Y00058525D01*
X0000509Y00055985D01*
X0000763D01*
X0001017Y00053445D01*
Y00062445D02*
X0001271Y00064985D01*
X0001525D01*
X0001271Y00067525D01*
X0001525Y00070065D01*
X0001271D01*
X0001017Y00072605D01*
X0000763Y00070065D01*
X0000509D01*
X0000763Y00067525D01*
X0000509Y00064985D01*
X0000763D01*
X0001017Y00062445D01*
Y00035445D02*
X0001271Y00037985D01*
X0001525D01*
X0001271Y00040525D01*
X0001525Y00043065D01*
X0001271D01*
X0001017Y00045605D01*
X0000763Y00043065D01*
X0000509D01*
X0000763Y00040525D01*
X0000509Y00037985D01*
X0000763D01*
X0001017Y00035445D01*
Y00044445D02*
X0001271Y00046985D01*
X0001525D01*
X0001271Y00049525D01*
X0001525Y00052065D01*
X0001271D01*
X0001017Y00054605D01*
X0000763Y00052065D01*
X0000509D01*
X0000763Y00049525D01*
X0000509Y00046985D01*
X0000763D01*
X0001017Y00044445D01*
Y00080445D02*
X0001271Y00082985D01*
X0001525D01*
X0001271Y00085525D01*
X0001525Y00088065D01*
X0001271D01*
X0001017Y00090605D01*
X0000763Y00088065D01*
X0000509D01*
X0000763Y00085525D01*
X0000509Y00082985D01*
X0000763D01*
X0001017Y00080445D01*
Y00071445D02*
X0001271Y00073985D01*
X0001525D01*
X0001271Y00076525D01*
X0001525Y00079065D01*
X0001271D01*
X0001017Y00081605D01*
X0000763Y00079065D01*
X0000509D01*
X0000763Y00076525D01*
X0000509Y00073985D01*
X0000763D01*
X0001017Y00071445D01*
Y00089445D02*
X0001271Y00091985D01*
X0001525D01*
X0001271Y00094525D01*
X0001525Y00097065D01*
X0001271D01*
X0001017Y00099605D01*
X0000763Y00097065D01*
X0000509D01*
X0000763Y00094525D01*
X0000509Y00091985D01*
X0000763D01*
X0001017Y00089445D01*
X00414872Y00021091D02*
X00417412Y0002363D01*
X00419952D01*
X00417412Y0002617D01*
X00419952Y0002871D01*
X00417412D01*
X00414872Y00031251D01*
X00412332Y0002871D01*
X00409792D01*
X00412332Y0002617D01*
X00409792Y0002363D01*
X00412332D01*
X00414872Y00021091D01*
X00405872D02*
X00408412Y0002363D01*
X00410952D01*
X00408412Y0002617D01*
X00410952Y0002871D01*
X00408412D01*
X00405872Y00031251D01*
X00403332Y0002871D01*
X00400792D01*
X00403332Y0002617D01*
X00400792Y0002363D01*
X00403332D01*
X00405872Y00021091D01*
X00432872D02*
X00435412Y0002363D01*
X00437952D01*
X00435412Y0002617D01*
X00437952Y0002871D01*
X00435412D01*
X00432872Y00031251D01*
X00430332Y0002871D01*
X00427792D01*
X00430332Y0002617D01*
X00427792Y0002363D01*
X00430332D01*
X00432872Y00021091D01*
X00423872D02*
X00426412Y0002363D01*
X00428952D01*
X00426412Y0002617D01*
X00428952Y0002871D01*
X00426412D01*
X00423872Y00031251D01*
X00421332Y0002871D01*
X00418792D01*
X00421332Y0002617D01*
X00418792Y0002363D01*
X00421332D01*
X00423872Y00021091D01*
X00441872D02*
X00444412Y0002363D01*
X00446952D01*
X00444412Y0002617D01*
X00446952Y0002871D01*
X00444412D01*
X00441872Y00031251D01*
X00439332Y0002871D01*
X00436792D01*
X00439332Y0002617D01*
X00436792Y0002363D01*
X00439332D01*
X00441872Y00021091D01*
X00360872D02*
X00363412Y0002363D01*
X00365952D01*
X00363412Y0002617D01*
X00365952Y0002871D01*
X00363412D01*
X00360872Y00031251D01*
X00358332Y0002871D01*
X00355792D01*
X00358332Y0002617D01*
X00355792Y0002363D01*
X00358332D01*
X00360872Y00021091D01*
X00378872D02*
X00381412Y0002363D01*
X00383952D01*
X00381412Y0002617D01*
X00383952Y0002871D01*
X00381412D01*
X00378872Y00031251D01*
X00376332Y0002871D01*
X00373792D01*
X00376332Y0002617D01*
X00373792Y0002363D01*
X00376332D01*
X00378872Y00021091D01*
X00369872D02*
X00372412Y0002363D01*
X00374952D01*
X00372412Y0002617D01*
X00374952Y0002871D01*
X00372412D01*
X00369872Y00031251D01*
X00367332Y0002871D01*
X00364792D01*
X00367332Y0002617D01*
X00364792Y0002363D01*
X00367332D01*
X00369872Y00021091D01*
X00396872D02*
X00399412Y0002363D01*
X00401952D01*
X00399412Y0002617D01*
X00401952Y0002871D01*
X00399412D01*
X00396872Y00031251D01*
X00394332Y0002871D01*
X00391792D01*
X00394332Y0002617D01*
X00391792Y0002363D01*
X00394332D01*
X00396872Y00021091D01*
X00387872D02*
X00390412Y0002363D01*
X00392952D01*
X00390412Y0002617D01*
X00392952Y0002871D01*
X00390412D01*
X00387872Y00031251D01*
X00385332Y0002871D01*
X00382792D01*
X00385332Y0002617D01*
X00382792Y0002363D01*
X00385332D01*
X00387872Y00021091D01*
X00450872D02*
X00453412Y0002363D01*
X00455952D01*
X00453412Y0002617D01*
X00455952Y0002871D01*
X00453412D01*
X00450872Y00031251D01*
X00448332Y0002871D01*
X00445792D01*
X00448332Y0002617D01*
X00445792Y0002363D01*
X00448332D01*
X00450872Y00021091D01*
X00477872D02*
X00480412Y0002363D01*
X00482952D01*
X00480412Y0002617D01*
X00482952Y0002871D01*
X00480412D01*
X00477872Y00031251D01*
X00475332Y0002871D01*
X00472792D01*
X00475332Y0002617D01*
X00472792Y0002363D01*
X00475332D01*
X00477872Y00021091D01*
X00468872D02*
X00471412Y0002363D01*
X00473952D01*
X00471412Y0002617D01*
X00473952Y0002871D01*
X00471412D01*
X00468872Y00031251D01*
X00466332Y0002871D01*
X00463792D01*
X00466332Y0002617D01*
X00463792Y0002363D01*
X00466332D01*
X00468872Y00021091D01*
X00504872D02*
X00507412Y0002363D01*
X00509952D01*
X00507412Y0002617D01*
X00509952Y0002871D01*
X00507412D01*
X00504872Y00031251D01*
X00502332Y0002871D01*
X00499792D01*
X00502332Y0002617D01*
X00499792Y0002363D01*
X00502332D01*
X00504872Y00021091D01*
X00486872D02*
X00489412Y0002363D01*
X00491952D01*
X00489412Y0002617D01*
X00491952Y0002871D01*
X00489412D01*
X00486872Y00031251D01*
X00484332Y0002871D01*
X00481792D01*
X00484332Y0002617D01*
X00481792Y0002363D01*
X00484332D01*
X00486872Y00021091D01*
X00495872D02*
X00498412Y0002363D01*
X00500952D01*
X00498412Y0002617D01*
X00500952Y0002871D01*
X00498412D01*
X00495872Y00031251D01*
X00493332Y0002871D01*
X00490792D01*
X00493332Y0002617D01*
X00490792Y0002363D01*
X00493332D01*
X00495872Y00021091D01*
X00459872D02*
X00462412Y0002363D01*
X00464952D01*
X00462412Y0002617D01*
X00464952Y0002871D01*
X00462412D01*
X00459872Y00031251D01*
X00457332Y0002871D01*
X00454792D01*
X00457332Y0002617D01*
X00454792Y0002363D01*
X00457332D01*
X00459872Y00021091D01*
X00513872Y00021091D02*
X00516412Y00023631D01*
X00518952D01*
X00516412Y00026171D01*
X00518952Y00028711D01*
X00516412D01*
X00513872Y00031251D01*
X00511332Y00028711D01*
X00508792D01*
X00511332Y00026171D01*
X00508792Y00023631D01*
X00511332D01*
X00513872Y00021091D01*
X00522872Y00021091D02*
X00525412Y00023631D01*
X00527952D01*
X00525412Y00026171D01*
X00527952Y00028711D01*
X00525412D01*
X00522872Y00031251D01*
X00520332Y00028711D01*
X00517792D01*
X00520332Y00026171D01*
X00517792Y00023631D01*
X00520332D01*
X00522872Y00021091D01*
X00531872Y00021091D02*
X00534412Y00023631D01*
X00536952D01*
X00534412Y00026171D01*
X00536952Y00028711D01*
X00534412D01*
X00531872Y00031251D01*
X00529332Y00028711D01*
X00526792D01*
X00529332Y00026171D01*
X00526792Y00023631D01*
X00529332D01*
X00531872Y00021091D01*
X00540872Y00021091D02*
X00543412Y00023631D01*
X00545952D01*
X00543412Y00026171D01*
X00545952Y00028711D01*
X00543412D01*
X00540872Y00031251D01*
X00538332Y00028711D01*
X00535792D01*
X00538332Y00026171D01*
X00535792Y00023631D01*
X00538332D01*
X00540872Y00021091D01*
X00549872Y00021091D02*
X00552412Y00023631D01*
X00554952D01*
X00552412Y00026171D01*
X00554952Y00028711D01*
X00552412D01*
X00549872Y00031251D01*
X00547332Y00028711D01*
X00544792D01*
X00547332Y00026171D01*
X00544792Y00023631D01*
X00547332D01*
X00549872Y00021091D01*
X00558872Y00021091D02*
X00561412Y00023631D01*
X00563952D01*
X00561412Y00026171D01*
X00563952Y00028711D01*
X00561412D01*
X00558872Y00031251D01*
X00556332Y00028711D01*
X00553792D01*
X00556332Y00026171D01*
X00553792Y00023631D01*
X00556332D01*
X00558872Y00021091D01*
X00567872Y00021091D02*
X00570412Y00023631D01*
X00572952D01*
X00570412Y00026171D01*
X00572952Y00028711D01*
X00570412D01*
X00567872Y00031251D01*
X00565332Y00028711D01*
X00562792D01*
X00565332Y00026171D01*
X00562792Y00023631D01*
X00565332D01*
X00567872Y00021091D01*
X00010171Y00830007D02*
X0001271Y00832547D01*
X00015251D01*
X0001271Y00835087D01*
X00015251Y00837627D01*
X0001271D01*
X00010171Y00840167D01*
X00007631Y00837627D01*
X00005091D01*
X00007631Y00835087D01*
X00005091Y00832547D01*
X00007631D01*
X00010171Y00830007D01*
Y00821007D02*
X0001271Y00823547D01*
X00015251D01*
X0001271Y00826087D01*
X00015251Y00828627D01*
X0001271D01*
X00010171Y00831167D01*
X00007631Y00828627D01*
X00005091D01*
X00007631Y00826087D01*
X00005091Y00823547D01*
X00007631D01*
X00010171Y00821007D01*
Y00812007D02*
X0001271Y00814547D01*
X00015251D01*
X0001271Y00817087D01*
X00015251Y00819627D01*
X0001271D01*
X00010171Y00822167D01*
X00007631Y00819627D01*
X00005091D01*
X00007631Y00817087D01*
X00005091Y00814547D01*
X00007631D01*
X00010171Y00812007D01*
Y00848007D02*
X0001271Y00850547D01*
X00015251D01*
X0001271Y00853087D01*
X00015251Y00855627D01*
X0001271D01*
X00010171Y00858167D01*
X00007631Y00855627D01*
X00005091D01*
X00007631Y00853087D01*
X00005091Y00850547D01*
X00007631D01*
X00010171Y00848007D01*
Y00839007D02*
X0001271Y00841547D01*
X00015251D01*
X0001271Y00844087D01*
X00015251Y00846627D01*
X0001271D01*
X00010171Y00849167D01*
X00007631Y00846627D01*
X00005091D01*
X00007631Y00844087D01*
X00005091Y00841547D01*
X00007631D01*
X00010171Y00839007D01*
Y00857007D02*
X0001271Y00859547D01*
X00015251D01*
X0001271Y00862087D01*
X00015251Y00864627D01*
X0001271D01*
X00010171Y00867167D01*
X00007631Y00864627D01*
X00005091D01*
X00007631Y00862087D01*
X00005091Y00859547D01*
X00007631D01*
X00010171Y00857007D01*
X00010375Y00866005D02*
X00012915Y00868545D01*
X00015455D01*
X00012915Y00871085D01*
X00015455Y00873625D01*
X00012915D01*
X00010375Y00876165D01*
X00007835Y00873625D01*
X00005295D01*
X00007835Y00871085D01*
X00005295Y00868545D01*
X00007835D01*
X00010375Y00866005D01*
X00013495Y00874446D02*
X00016035Y00876986D01*
X00018575D01*
X00016035Y00879527D01*
X00018575Y00882066D01*
X00016035D01*
X00013495Y00884606D01*
X00010955Y00882066D01*
X00008415D01*
X00010955Y00879527D01*
X00008415Y00876986D01*
X00010955D01*
X00013495Y00874446D01*
X0001971Y00880957D02*
X0002225Y00883497D01*
X0002479D01*
X0002225Y00886037D01*
X0002479Y00888577D01*
X0002225D01*
X0001971Y00891117D01*
X0001717Y00888577D01*
X0001463D01*
X0001717Y00886037D01*
X0001463Y00883497D01*
X0001717D01*
X0001971Y00880957D01*
X0002803Y00884387D02*
X0003057Y00886927D01*
X0003311D01*
X0003057Y00889467D01*
X0003311Y00892007D01*
X0003057D01*
X0002803Y00894547D01*
X0002549Y00892007D01*
X0002295D01*
X0002549Y00889467D01*
X0002295Y00886927D01*
X0002549D01*
X0002803Y00884387D01*
X00046023Y00884746D02*
X00048563Y00887286D01*
X00051103D01*
X00048563Y00889826D01*
X00051103Y00892366D01*
X00048563D01*
X00046023Y00894906D01*
X00043483Y00892366D01*
X00040943D01*
X00043483Y00889826D01*
X00040943Y00887286D01*
X00043483D01*
X00046023Y00884746D01*
X00073023D02*
X00075563Y00887286D01*
X00078103D01*
X00075563Y00889826D01*
X00078103Y00892366D01*
X00075563D01*
X00073023Y00894906D01*
X00070483Y00892366D01*
X00067943D01*
X00070483Y00889826D01*
X00067943Y00887286D01*
X00070483D01*
X00073023Y00884746D01*
X00055023D02*
X00057563Y00887286D01*
X00060103D01*
X00057563Y00889826D01*
X00060103Y00892366D01*
X00057563D01*
X00055023Y00894906D01*
X00052483Y00892366D01*
X00049943D01*
X00052483Y00889826D01*
X00049943Y00887286D01*
X00052483D01*
X00055023Y00884746D01*
X00064023D02*
X00066563Y00887286D01*
X00069103D01*
X00066563Y00889826D01*
X00069103Y00892366D01*
X00066563D01*
X00064023Y00894906D01*
X00061483Y00892366D01*
X00058943D01*
X00061483Y00889826D01*
X00058943Y00887286D01*
X00061483D01*
X00064023Y00884746D01*
X00037023D02*
X00039563Y00887286D01*
X00042103D01*
X00039563Y00889826D01*
X00042103Y00892366D01*
X00039563D01*
X00037023Y00894906D01*
X00034483Y00892366D01*
X00031943D01*
X00034483Y00889826D01*
X00031943Y00887286D01*
X00034483D01*
X00037023Y00884746D01*
X00118023D02*
X00120563Y00887286D01*
X00123103D01*
X00120563Y00889826D01*
X00123103Y00892366D01*
X00120563D01*
X00118023Y00894906D01*
X00115483Y00892366D01*
X00112943D01*
X00115483Y00889826D01*
X00112943Y00887286D01*
X00115483D01*
X00118023Y00884746D01*
X00109023D02*
X00111563Y00887286D01*
X00114103D01*
X00111563Y00889826D01*
X00114103Y00892366D01*
X00111563D01*
X00109023Y00894906D01*
X00106483Y00892366D01*
X00103943D01*
X00106483Y00889826D01*
X00103943Y00887286D01*
X00106483D01*
X00109023Y00884746D01*
X00145023D02*
X00147563Y00887286D01*
X00150103D01*
X00147563Y00889826D01*
X00150103Y00892366D01*
X00147563D01*
X00145023Y00894906D01*
X00142483Y00892366D01*
X00139943D01*
X00142483Y00889826D01*
X00139943Y00887286D01*
X00142483D01*
X00145023Y00884746D01*
X00127023D02*
X00129563Y00887286D01*
X00132103D01*
X00129563Y00889826D01*
X00132103Y00892366D01*
X00129563D01*
X00127023Y00894906D01*
X00124483Y00892366D01*
X00121943D01*
X00124483Y00889826D01*
X00121943Y00887286D01*
X00124483D01*
X00127023Y00884746D01*
X00136023D02*
X00138563Y00887286D01*
X00141103D01*
X00138563Y00889826D01*
X00141103Y00892366D01*
X00138563D01*
X00136023Y00894906D01*
X00133483Y00892366D01*
X00130943D01*
X00133483Y00889826D01*
X00130943Y00887286D01*
X00133483D01*
X00136023Y00884746D01*
X00100023D02*
X00102563Y00887286D01*
X00105103D01*
X00102563Y00889826D01*
X00105103Y00892366D01*
X00102563D01*
X00100023Y00894906D01*
X00097483Y00892366D01*
X00094943D01*
X00097483Y00889826D01*
X00094943Y00887286D01*
X00097483D01*
X00100023Y00884746D01*
X00082023D02*
X00084563Y00887286D01*
X00087103D01*
X00084563Y00889826D01*
X00087103Y00892366D01*
X00084563D01*
X00082023Y00894906D01*
X00079483Y00892366D01*
X00076943D01*
X00079483Y00889826D01*
X00076943Y00887286D01*
X00079483D01*
X00082023Y00884746D01*
X00091023D02*
X00093563Y00887286D01*
X00096103D01*
X00093563Y00889826D01*
X00096103Y00892366D01*
X00093563D01*
X00091023Y00894906D01*
X00088483Y00892366D01*
X00085943D01*
X00088483Y00889826D01*
X00085943Y00887286D01*
X00088483D01*
X00091023Y00884746D01*
X00219902Y00868744D02*
X00222442Y00871284D01*
X00224982D01*
X00222442Y00873824D01*
X00224982Y00876364D01*
X00222442D01*
X00219902Y00878904D01*
X00217362Y00876364D01*
X00214822D01*
X00217362Y00873824D01*
X00214822Y00871284D01*
X00217362D01*
X00219902Y00868744D01*
X00228902Y00868744D02*
X00231442Y00871284D01*
X00233982D01*
X00231442Y00873824D01*
X00233982Y00876364D01*
X00231442D01*
X00228902Y00878904D01*
X00226362Y00876364D01*
X00223822D01*
X00226362Y00873824D01*
X00223822Y00871284D01*
X00226362D01*
X00228902Y00868744D01*
X00237902Y00868744D02*
X00240442Y00871284D01*
X00242982D01*
X00240442Y00873824D01*
X00242982Y00876364D01*
X00240442D01*
X00237902Y00878904D01*
X00235362Y00876364D01*
X00232822D01*
X00235362Y00873824D01*
X00232822Y00871284D01*
X00235362D01*
X00237902Y00868744D01*
X00246902Y00868744D02*
X00249442Y00871284D01*
X00251982D01*
X00249442Y00873824D01*
X00251982Y00876364D01*
X00249442D01*
X00246902Y00878904D01*
X00244362Y00876364D01*
X00241822D01*
X00244362Y00873824D01*
X00241822Y00871284D01*
X00244362D01*
X00246902Y00868744D01*
X00255902Y00868744D02*
X00258442Y00871284D01*
X00260982D01*
X00258442Y00873824D01*
X00260982Y00876364D01*
X00258442D01*
X00255902Y00878904D01*
X00253362Y00876364D01*
X00250822D01*
X00253362Y00873824D01*
X00250822Y00871284D01*
X00253362D01*
X00255902Y00868744D01*
X00172023Y00884746D02*
X00174563Y00887286D01*
X00177103D01*
X00174563Y00889826D01*
X00177103Y00892366D01*
X00174563D01*
X00172023Y00894906D01*
X00169483Y00892366D01*
X00166943D01*
X00169483Y00889826D01*
X00166943Y00887286D01*
X00169483D01*
X00172023Y00884746D01*
X00163023D02*
X00165563Y00887286D01*
X00168103D01*
X00165563Y00889826D01*
X00168103Y00892366D01*
X00165563D01*
X00163023Y00894906D01*
X00160483Y00892366D01*
X00157943D01*
X00160483Y00889826D01*
X00157943Y00887286D01*
X00160483D01*
X00163023Y00884746D01*
X00198744Y00882523D02*
X00201284Y00885063D01*
X00203824D01*
X00201284Y00887603D01*
X00203824Y00890143D01*
X00201284D01*
X00198744Y00892683D01*
X00196204Y00890143D01*
X00193664D01*
X00196204Y00887603D01*
X00193664Y00885063D01*
X00196204D01*
X00198744Y00882523D01*
X00181023Y00884746D02*
X00183563Y00887286D01*
X00186103D01*
X00183563Y00889826D01*
X00186103Y00892366D01*
X00183563D01*
X00181023Y00894906D01*
X00178483Y00892366D01*
X00175943D01*
X00178483Y00889826D01*
X00175943Y00887286D01*
X00178483D01*
X00181023Y00884746D01*
X00190023D02*
X00192563Y00887286D01*
X00195103D01*
X00192563Y00889826D01*
X00195103Y00892366D01*
X00192563D01*
X00190023Y00894906D01*
X00187483Y00892366D01*
X00184943D01*
X00187483Y00889826D01*
X00184943Y00887286D01*
X00187483D01*
X00190023Y00884746D01*
X00154023D02*
X00156563Y00887286D01*
X00159103D01*
X00156563Y00889826D01*
X00159103Y00892366D01*
X00156563D01*
X00154023Y00894906D01*
X00151483Y00892366D01*
X00148943D01*
X00151483Y00889826D01*
X00148943Y00887286D01*
X00151483D01*
X00154023Y00884746D01*
X00264902Y00868744D02*
X00267442Y00871284D01*
X00269982D01*
X00267442Y00873824D01*
X00269982Y00876364D01*
X00267442D01*
X00264902Y00878904D01*
X00262362Y00876364D01*
X00259822D01*
X00262362Y00873824D01*
X00259822Y00871284D01*
X00262362D01*
X00264902Y00868744D01*
X00273902Y00868744D02*
X00276442Y00871284D01*
X00278982D01*
X00276442Y00873824D01*
X00278982Y00876364D01*
X00276442D01*
X00273902Y00878904D01*
X00271362Y00876364D01*
X00268822D01*
X00271362Y00873824D01*
X00268822Y00871284D01*
X00271362D01*
X00273902Y00868744D01*
X00282902Y00868744D02*
X00285442Y00871284D01*
X00287982D01*
X00285442Y00873824D01*
X00287982Y00876364D01*
X00285442D01*
X00282902Y00878904D01*
X00280362Y00876364D01*
X00277822D01*
X00280362Y00873824D01*
X00277822Y00871284D01*
X00280362D01*
X00282902Y00868744D01*
X00291902Y00868744D02*
X00294442Y00871284D01*
X00296982D01*
X00294442Y00873824D01*
X00296982Y00876364D01*
X00294442D01*
X00291902Y00878904D01*
X00289362Y00876364D01*
X00286822D01*
X00289362Y00873824D01*
X00286822Y00871284D01*
X00289362D01*
X00291902Y00868744D01*
X00300902Y00868745D02*
X00303442Y00871284D01*
X00305982D01*
X00303442Y00873824D01*
X00305982Y00876365D01*
X00303442D01*
X00300902Y00878904D01*
X00298362Y00876365D01*
X00295822D01*
X00298362Y00873824D01*
X00295822Y00871284D01*
X00298362D01*
X00300902Y00868745D01*
X00203387Y00874813D02*
X00205927Y00877353D01*
X00208467D01*
X00205927Y00879893D01*
X00208467Y00882433D01*
X00205927D01*
X00203387Y00884973D01*
X00200847Y00882433D01*
X00198307D01*
X00200847Y00879893D01*
X00198307Y00877353D01*
X00200847D01*
X00203387Y00874813D01*
X00309902Y00868745D02*
X00312442Y00871285D01*
X00314982D01*
X00312442Y00873825D01*
X00314982Y00876365D01*
X00312442D01*
X00309902Y00878905D01*
X00307362Y00876365D01*
X00304822D01*
X00307362Y00873825D01*
X00304822Y00871285D01*
X00307362D01*
X00309902Y00868745D01*
X0021099Y00869998D02*
X0021353Y00872538D01*
X0021607D01*
X0021353Y00875078D01*
X0021607Y00877618D01*
X0021353D01*
X0021099Y00880158D01*
X0020845Y00877618D01*
X0020591D01*
X0020845Y00875078D01*
X0020591Y00872538D01*
X0020845D01*
X0021099Y00869998D01*
X00318902Y00868745D02*
X00321442Y00871285D01*
X00323982D01*
X00321442Y00873825D01*
X00323982Y00876365D01*
X00321442D01*
X00318902Y00878905D01*
X00316362Y00876365D01*
X00313822D01*
X00316362Y00873825D01*
X00313822Y00871285D01*
X00316362D01*
X00318902Y00868745D01*
X00327902Y00868745D02*
X00330442Y00871285D01*
X00332982D01*
X00330442Y00873825D01*
X00332982Y00876365D01*
X00330442D01*
X00327902Y00878905D01*
X00325362Y00876365D01*
X00322822D01*
X00325362Y00873825D01*
X00322822Y00871285D01*
X00325362D01*
X00327902Y00868745D01*
X00336902Y00868745D02*
X00339442Y00871285D01*
X00341982D01*
X00339442Y00873825D01*
X00341982Y00876365D01*
X00339442D01*
X00336902Y00878905D01*
X00334362Y00876365D01*
X00331822D01*
X00334362Y00873825D01*
X00331822Y00871285D01*
X00334362D01*
X00336902Y00868745D01*
X00345902Y00868745D02*
X00348442Y00871285D01*
X00350982D01*
X00348442Y00873825D01*
X00350982Y00876365D01*
X00348442D01*
X00345902Y00878905D01*
X00343362Y00876365D01*
X00340822D01*
X00343362Y00873825D01*
X00340822Y00871285D01*
X00343362D01*
X00345902Y00868745D01*
X00354902Y00868745D02*
X00357442Y00871285D01*
X00359982D01*
X00357442Y00873825D01*
X00359982Y00876365D01*
X00357442D01*
X00354902Y00878905D01*
X00352362Y00876365D01*
X00349822D01*
X00352362Y00873825D01*
X00349822Y00871285D01*
X00352362D01*
X00354902Y00868745D01*
X00363902Y00868745D02*
X00366442Y00871285D01*
X00368982D01*
X00366442Y00873825D01*
X00368982Y00876365D01*
X00366442D01*
X00363902Y00878905D01*
X00361362Y00876365D01*
X00358822D01*
X00361362Y00873825D01*
X00358822Y00871285D01*
X00361362D01*
X00363902Y00868745D01*
X00372902Y00868745D02*
X00375442Y00871285D01*
X00377982D01*
X00375442Y00873825D01*
X00377982Y00876365D01*
X00375442D01*
X00372902Y00878905D01*
X00370362Y00876365D01*
X00367822D01*
X00370362Y00873825D01*
X00367822Y00871285D01*
X00370362D01*
X00372902Y00868745D01*
X00381902Y00868745D02*
X00384442Y00871285D01*
X00386982D01*
X00384442Y00873825D01*
X00386982Y00876365D01*
X00384442D01*
X00381902Y00878905D01*
X00379362Y00876365D01*
X00376822D01*
X00379362Y00873825D01*
X00376822Y00871285D01*
X00379362D01*
X00381902Y00868745D01*
X00390902Y00868745D02*
X00393442Y00871285D01*
X00395982D01*
X00393442Y00873825D01*
X00395982Y00876365D01*
X00393442D01*
X00390902Y00878905D01*
X00388362Y00876365D01*
X00385822D01*
X00388362Y00873825D01*
X00385822Y00871285D01*
X00388362D01*
X00390902Y00868745D01*
X00399902Y00868745D02*
X00402442Y00871285D01*
X00404982D01*
X00402442Y00873825D01*
X00404982Y00876365D01*
X00402442D01*
X00399902Y00878905D01*
X00397362Y00876365D01*
X00394822D01*
X00397362Y00873825D01*
X00394822Y00871285D01*
X00397362D01*
X00399902Y00868745D01*
X00408902Y00868745D02*
X00411442Y00871285D01*
X00413982D01*
X00411442Y00873826D01*
X00413982Y00876366D01*
X00411442D01*
X00408902Y00878905D01*
X00406362Y00876366D01*
X00403822D01*
X00406362Y00873826D01*
X00403822Y00871285D01*
X00406362D01*
X00408902Y00868745D01*
X00435902Y00868746D02*
X00438442Y00871286D01*
X00440982D01*
X00438442Y00873826D01*
X00440982Y00876366D01*
X00438442D01*
X00435902Y00878906D01*
X00433362Y00876366D01*
X00430822D01*
X00433362Y00873826D01*
X00430822Y00871286D01*
X00433362D01*
X00435902Y00868746D01*
X00417902D02*
X00420442Y00871286D01*
X00422982D01*
X00420442Y00873826D01*
X00422982Y00876366D01*
X00420442D01*
X00417902Y00878906D01*
X00415362Y00876366D01*
X00412822D01*
X00415362Y00873826D01*
X00412822Y00871286D01*
X00415362D01*
X00417902Y00868746D01*
X00426902D02*
X00429442Y00871286D01*
X00431982D01*
X00429442Y00873826D01*
X00431982Y00876366D01*
X00429442D01*
X00426902Y00878906D01*
X00424362Y00876366D01*
X00421822D01*
X00424362Y00873826D01*
X00421822Y00871286D01*
X00424362D01*
X00426902Y00868746D01*
X00498902D02*
X00501442Y00871286D01*
X00503982D01*
X00501442Y00873826D01*
X00503982Y00876366D01*
X00501442D01*
X00498902Y00878906D01*
X00496362Y00876366D01*
X00493822D01*
X00496362Y00873826D01*
X00493822Y00871286D01*
X00496362D01*
X00498902Y00868746D01*
X00507902D02*
X00510442Y00871286D01*
X00512982D01*
X00510442Y00873826D01*
X00512982Y00876366D01*
X00510442D01*
X00507902Y00878906D01*
X00505362Y00876366D01*
X00502822D01*
X00505362Y00873826D01*
X00502822Y00871286D01*
X00505362D01*
X00507902Y00868746D01*
X00453902D02*
X00456442Y00871286D01*
X00458982D01*
X00456442Y00873826D01*
X00458982Y00876366D01*
X00456442D01*
X00453902Y00878906D01*
X00451362Y00876366D01*
X00448822D01*
X00451362Y00873826D01*
X00448822Y00871286D01*
X00451362D01*
X00453902Y00868746D01*
X00444902D02*
X00447442Y00871286D01*
X00449982D01*
X00447442Y00873826D01*
X00449982Y00876366D01*
X00447442D01*
X00444902Y00878906D01*
X00442362Y00876366D01*
X00439822D01*
X00442362Y00873826D01*
X00439822Y00871286D01*
X00442362D01*
X00444902Y00868746D01*
X00480902D02*
X00483442Y00871286D01*
X00485982D01*
X00483442Y00873826D01*
X00485982Y00876366D01*
X00483442D01*
X00480902Y00878906D01*
X00478362Y00876366D01*
X00475822D01*
X00478362Y00873826D01*
X00475822Y00871286D01*
X00478362D01*
X00480902Y00868746D01*
X00462902D02*
X00465442Y00871286D01*
X00467982D01*
X00465442Y00873826D01*
X00467982Y00876366D01*
X00465442D01*
X00462902Y00878906D01*
X00460362Y00876366D01*
X00457822D01*
X00460362Y00873826D01*
X00457822Y00871286D01*
X00460362D01*
X00462902Y00868746D01*
X00471902D02*
X00474442Y00871286D01*
X00476982D01*
X00474442Y00873826D01*
X00476982Y00876366D01*
X00474442D01*
X00471902Y00878906D01*
X00469362Y00876366D01*
X00466822D01*
X00469362Y00873826D01*
X00466822Y00871286D01*
X00469362D01*
X00471902Y00868746D01*
X00543902D02*
X00546442Y00871286D01*
X00548982D01*
X00546442Y00873826D01*
X00548982Y00876366D01*
X00546442D01*
X00543902Y00878906D01*
X00541362Y00876366D01*
X00538822D01*
X00541362Y00873826D01*
X00538822Y00871286D01*
X00541362D01*
X00543902Y00868746D01*
X00534902D02*
X00537442Y00871286D01*
X00539982D01*
X00537442Y00873826D01*
X00539982Y00876366D01*
X00537442D01*
X00534902Y00878906D01*
X00532362Y00876366D01*
X00529822D01*
X00532362Y00873826D01*
X00529822Y00871286D01*
X00532362D01*
X00534902Y00868746D01*
X00570902D02*
X00573442Y00871286D01*
X00575982D01*
X00573442Y00873826D01*
X00575982Y00876366D01*
X00573442D01*
X00570902Y00878906D01*
X00568362Y00876366D01*
X00565822D01*
X00568362Y00873826D01*
X00565822Y00871286D01*
X00568362D01*
X00570902Y00868746D01*
X00552902D02*
X00555442Y00871286D01*
X00557982D01*
X00555442Y00873826D01*
X00557982Y00876366D01*
X00555442D01*
X00552902Y00878906D01*
X00550362Y00876366D01*
X00547822D01*
X00550362Y00873826D01*
X00547822Y00871286D01*
X00550362D01*
X00552902Y00868746D01*
X00561902D02*
X00564442Y00871286D01*
X00566982D01*
X00564442Y00873826D01*
X00566982Y00876366D01*
X00564442D01*
X00561902Y00878906D01*
X00559362Y00876366D01*
X00556822D01*
X00559362Y00873826D01*
X00556822Y00871286D01*
X00559362D01*
X00561902Y00868746D01*
X00525902D02*
X00528442Y00871286D01*
X00530982D01*
X00528442Y00873826D01*
X00530982Y00876366D01*
X00528442D01*
X00525902Y00878906D01*
X00523362Y00876366D01*
X00520822D01*
X00523362Y00873826D01*
X00520822Y00871286D01*
X00523362D01*
X00525902Y00868746D01*
X00489902D02*
X00492442Y00871286D01*
X00494982D01*
X00492442Y00873826D01*
X00494982Y00876366D01*
X00492442D01*
X00489902Y00878906D01*
X00487362Y00876366D01*
X00484822D01*
X00487362Y00873826D01*
X00484822Y00871286D01*
X00487362D01*
X00489902Y00868746D01*
X00516902D02*
X00519442Y00871286D01*
X00521982D01*
X00519442Y00873826D01*
X00521982Y00876366D01*
X00519442D01*
X00516902Y00878906D01*
X00514362Y00876366D01*
X00511822D01*
X00514362Y00873826D01*
X00511822Y00871286D01*
X00514362D01*
X00516902Y00868746D01*
X00576872Y00021091D02*
X00579412Y00023631D01*
X00581952D01*
X00579412Y00026171D01*
X00581952Y00028711D01*
X00579412D01*
X00576872Y00031251D01*
X00574332Y00028711D01*
X00571792D01*
X00574332Y00026171D01*
X00571792Y00023631D01*
X00574332D01*
X00576872Y00021091D01*
X00585872Y00021091D02*
X00588412Y00023631D01*
X00590952D01*
X00588412Y00026171D01*
X00590952Y00028711D01*
X00588412D01*
X00585872Y00031251D01*
X00583332Y00028711D01*
X00580792D01*
X00583332Y00026171D01*
X00580792Y00023631D01*
X00583332D01*
X00585872Y00021091D01*
X00594872Y00021091D02*
X00597412Y00023631D01*
X00599952D01*
X00597412Y00026171D01*
X00599952Y00028711D01*
X00597412D01*
X00594872Y00031251D01*
X00592332Y00028711D01*
X00589792D01*
X00592332Y00026171D01*
X00589792Y00023631D01*
X00592332D01*
X00594872Y00021091D01*
X00603872Y00021091D02*
X00606412Y00023631D01*
X00608952D01*
X00606412Y00026171D01*
X00608952Y00028711D01*
X00606412D01*
X00603872Y00031251D01*
X00601332Y00028711D01*
X00598792D01*
X00601332Y00026171D01*
X00598792Y00023631D01*
X00601332D01*
X00603872Y00021091D01*
X00612872Y00021091D02*
X00615412Y00023631D01*
X00617952D01*
X00615412Y00026172D01*
X00617952Y00028712D01*
X00615412D01*
X00612872Y00031251D01*
X00610332Y00028712D01*
X00607792D01*
X00610332Y00026172D01*
X00607792Y00023631D01*
X00610332D01*
X00612872Y00021091D01*
X00621872Y00021092D02*
X00624412Y00023632D01*
X00626952D01*
X00624412Y00026172D01*
X00626952Y00028712D01*
X00624412D01*
X00621872Y00031252D01*
X00619332Y00028712D01*
X00616792D01*
X00619332Y00026172D01*
X00616792Y00023632D01*
X00619332D01*
X00621872Y00021092D01*
X00630872Y00021092D02*
X00633412Y00023632D01*
X00635952D01*
X00633412Y00026172D01*
X00635952Y00028712D01*
X00633412D01*
X00630872Y00031252D01*
X00628332Y00028712D01*
X00625792D01*
X00628332Y00026172D01*
X00625792Y00023632D01*
X00628332D01*
X00630872Y00021092D01*
X00639872Y00021092D02*
X00642412Y00023632D01*
X00644952D01*
X00642412Y00026172D01*
X00644952Y00028712D01*
X00642412D01*
X00639872Y00031252D01*
X00637332Y00028712D01*
X00634792D01*
X00637332Y00026172D01*
X00634792Y00023632D01*
X00637332D01*
X00639872Y00021092D01*
X00648872Y00021092D02*
X00651412Y00023632D01*
X00653952D01*
X00651412Y00026172D01*
X00653952Y00028712D01*
X00651412D01*
X00648872Y00031252D01*
X00646332Y00028712D01*
X00643792D01*
X00646332Y00026172D01*
X00643792Y00023632D01*
X00646332D01*
X00648872Y00021092D01*
X00657872Y00021092D02*
X00660412Y00023632D01*
X00662952D01*
X00660412Y00026172D01*
X00662952Y00028712D01*
X00660412D01*
X00657872Y00031252D01*
X00655332Y00028712D01*
X00652792D01*
X00655332Y00026172D01*
X00652792Y00023632D01*
X00655332D01*
X00657872Y00021092D01*
X00666872Y00021092D02*
X00669412Y00023632D01*
X00671952D01*
X00669412Y00026172D01*
X00671952Y00028712D01*
X00669412D01*
X00666872Y00031252D01*
X00664332Y00028712D01*
X00661792D01*
X00664332Y00026172D01*
X00661792Y00023632D01*
X00664332D01*
X00666872Y00021092D01*
X00675872Y00021092D02*
X00678412Y00023632D01*
X00680952D01*
X00678412Y00026172D01*
X00680952Y00028712D01*
X00678412D01*
X00675872Y00031252D01*
X00673332Y00028712D01*
X00670792D01*
X00673332Y00026172D01*
X00670792Y00023632D01*
X00673332D01*
X00675872Y00021092D01*
X00684872Y00021092D02*
X00687412Y00023632D01*
X00689952D01*
X00687412Y00026172D01*
X00689952Y00028712D01*
X00687412D01*
X00684872Y00031252D01*
X00682332Y00028712D01*
X00679792D01*
X00682332Y00026172D01*
X00679792Y00023632D01*
X00682332D01*
X00684872Y00021092D01*
X00693872Y00021092D02*
X00696412Y00023632D01*
X00698952D01*
X00696412Y00026172D01*
X00698952Y00028712D01*
X00696412D01*
X00693872Y00031252D01*
X00691332Y00028712D01*
X00688792D01*
X00691332Y00026172D01*
X00688792Y00023632D01*
X00691332D01*
X00693872Y00021092D01*
X00749685Y00005091D02*
X00752225Y00007631D01*
X00754765D01*
X00752225Y00010171D01*
X00754765Y0001271D01*
X00752225D01*
X00749685Y00015251D01*
X00747145Y0001271D01*
X00744605D01*
X00747145Y00010171D01*
X00744605Y00007631D01*
X00747145D01*
X00749685Y00005091D01*
X00767685D02*
X00770225Y00007631D01*
X00772765D01*
X00770225Y00010171D01*
X00772765Y0001271D01*
X00770225D01*
X00767685Y00015251D01*
X00765145Y0001271D01*
X00762605D01*
X00765145Y00010171D01*
X00762605Y00007631D01*
X00765145D01*
X00767685Y00005091D01*
X00758685D02*
X00761225Y00007631D01*
X00763765D01*
X00761225Y00010171D01*
X00763765Y0001271D01*
X00761225D01*
X00758685Y00015251D01*
X00756145Y0001271D01*
X00753605D01*
X00756145Y00010171D01*
X00753605Y00007631D01*
X00756145D01*
X00758685Y00005091D01*
X00785685D02*
X00788225Y00007631D01*
X00790765D01*
X00788225Y00010171D01*
X00790765Y0001271D01*
X00788225D01*
X00785685Y00015251D01*
X00783145Y0001271D01*
X00780605D01*
X00783145Y00010171D01*
X00780605Y00007631D01*
X00783145D01*
X00785685Y00005091D01*
X00776685D02*
X00779225Y00007631D01*
X00781765D01*
X00779225Y00010171D01*
X00781765Y0001271D01*
X00779225D01*
X00776685Y00015251D01*
X00774145Y0001271D01*
X00771605D01*
X00774145Y00010171D01*
X00771605Y00007631D01*
X00774145D01*
X00776685Y00005091D01*
X00812685D02*
X00815225Y00007631D01*
X00817765D01*
X00815225Y00010171D01*
X00817765Y0001271D01*
X00815225D01*
X00812685Y00015251D01*
X00810145Y0001271D01*
X00807605D01*
X00810145Y00010171D01*
X00807605Y00007631D01*
X00810145D01*
X00812685Y00005091D01*
X00794685D02*
X00797225Y00007631D01*
X00799765D01*
X00797225Y00010171D01*
X00799765Y0001271D01*
X00797225D01*
X00794685Y00015251D01*
X00792145Y0001271D01*
X00789605D01*
X00792145Y00010171D01*
X00789605Y00007631D01*
X00792145D01*
X00794685Y00005091D01*
X00803685D02*
X00806225Y00007631D01*
X00808765D01*
X00806225Y00010171D01*
X00808765Y0001271D01*
X00806225D01*
X00803685Y00015251D01*
X00801145Y0001271D01*
X00798605D01*
X00801145Y00010171D01*
X00798605Y00007631D01*
X00801145D01*
X00803685Y00005091D01*
X00702872Y00021092D02*
X00705412Y00023632D01*
X00707952D01*
X00705412Y00026172D01*
X00707952Y00028712D01*
X00705412D01*
X00702872Y00031252D01*
X00700332Y00028712D01*
X00697792D01*
X00700332Y00026172D01*
X00697792Y00023632D01*
X00700332D01*
X00702872Y00021092D01*
X00711872Y00021093D02*
X00714412Y00023633D01*
X00716952D01*
X00714412Y00026172D01*
X00716952Y00028712D01*
X00714412D01*
X00711872Y00031253D01*
X00709332Y00028712D01*
X00706792D01*
X00709332Y00026172D01*
X00706792Y00023633D01*
X00709332D01*
X00711872Y00021093D01*
X00731693Y0000547D02*
X00734233Y0000801D01*
X00736773D01*
X00734233Y0001055D01*
X00736773Y0001309D01*
X00734233D01*
X00731693Y0001563D01*
X00729153Y0001309D01*
X00726613D01*
X00729153Y0001055D01*
X00726613Y0000801D01*
X00729153D01*
X00731693Y0000547D01*
X00720652Y00019118D02*
X00723192Y00021658D01*
X00725732D01*
X00723192Y00024198D01*
X00725732Y00026738D01*
X00723192D01*
X00720652Y00029278D01*
X00718112Y00026738D01*
X00715572D01*
X00718112Y00024198D01*
X00715572Y00021658D01*
X00718112D01*
X00720652Y00019118D01*
X0072772Y00013545D02*
X0073026Y00016085D01*
X007328D01*
X0073026Y00018625D01*
X007328Y00021165D01*
X0073026D01*
X0072772Y00023705D01*
X0072518Y00021165D01*
X0072264D01*
X0072518Y00018625D01*
X0072264Y00016085D01*
X0072518D01*
X0072772Y00013545D01*
X00740685Y00005091D02*
X00743225Y00007631D01*
X00745765D01*
X00743225Y00010171D01*
X00745765Y0001271D01*
X00743225D01*
X00740685Y00015251D01*
X00738145Y0001271D01*
X00735605D01*
X00738145Y00010171D01*
X00735605Y00007631D01*
X00738145D01*
X00740685Y00005091D01*
X00830685D02*
X00833225Y00007631D01*
X00835765D01*
X00833225Y00010171D01*
X00835765Y0001271D01*
X00833225D01*
X00830685Y00015251D01*
X00828145Y0001271D01*
X00825605D01*
X00828145Y00010171D01*
X00825605Y00007631D01*
X00828145D01*
X00830685Y00005091D01*
X00821685D02*
X00824225Y00007631D01*
X00826765D01*
X00824225Y00010171D01*
X00826765Y0001271D01*
X00824225D01*
X00821685Y00015251D01*
X00819145Y0001271D01*
X00816605D01*
X00819145Y00010171D01*
X00816605Y00007631D01*
X00819145D01*
X00821685Y00005091D01*
X00866685D02*
X00869225Y00007631D01*
X00871765D01*
X00869225Y00010171D01*
X00871765Y0001271D01*
X00869225D01*
X00866685Y00015251D01*
X00864145Y0001271D01*
X00861605D01*
X00864145Y00010171D01*
X00861605Y00007631D01*
X00864145D01*
X00866685Y00005091D01*
X00839685D02*
X00842225Y00007631D01*
X00844765D01*
X00842225Y00010171D01*
X00844765Y0001271D01*
X00842225D01*
X00839685Y00015251D01*
X00837145Y0001271D01*
X00834605D01*
X00837145Y00010171D01*
X00834605Y00007631D01*
X00837145D01*
X00839685Y00005091D01*
X00875685D02*
X00878225Y00007631D01*
X00880765D01*
X00878225Y00010171D01*
X00880765Y0001271D01*
X00878225D01*
X00875685Y00015251D01*
X00873145Y0001271D01*
X00870605D01*
X00873145Y00010171D01*
X00870605Y00007631D01*
X00873145D01*
X00875685Y00005091D01*
X00884685D02*
X00887225Y00007631D01*
X00889765D01*
X00887225Y00010171D01*
X00889765Y0001271D01*
X00887225D01*
X00884685Y00015251D01*
X00882145Y0001271D01*
X00879605D01*
X00882145Y00010171D01*
X00879605Y00007631D01*
X00882145D01*
X00884685Y00005091D01*
X00893685D02*
X00896225Y00007631D01*
X00898765D01*
X00896225Y00010171D01*
X00898765Y0001271D01*
X00896225D01*
X00893685Y00015251D01*
X00891145Y0001271D01*
X00888605D01*
X00891145Y00010171D01*
X00888605Y00007631D01*
X00891145D01*
X00893685Y00005091D01*
X00857685D02*
X00860225Y00007631D01*
X00862765D01*
X00860225Y00010171D01*
X00862765Y0001271D01*
X00860225D01*
X00857685Y00015251D01*
X00855145Y0001271D01*
X00852605D01*
X00855145Y00010171D01*
X00852605Y00007631D01*
X00855145D01*
X00857685Y00005091D01*
X00848685D02*
X00851225Y00007631D01*
X00853765D01*
X00851225Y00010171D01*
X00853765Y0001271D01*
X00851225D01*
X00848685Y00015251D01*
X00846145Y0001271D01*
X00843605D01*
X00846145Y00010171D01*
X00843605Y00007631D01*
X00846145D01*
X00848685Y00005091D01*
X00902669Y00005621D02*
X00905209Y00008161D01*
X00907749D01*
X00905209Y00010701D01*
X00907749Y00013241D01*
X00905209D01*
X00902669Y00015781D01*
X00900129Y00013241D01*
X00897589D01*
X00900129Y00010701D01*
X00897589Y00008161D01*
X00900129D01*
X00902669Y00005621D01*
X00910898Y00009266D02*
X00913438Y00011806D01*
X00915978D01*
X00913438Y00014346D01*
X00915978Y00016887D01*
X00913438D01*
X00910898Y00019426D01*
X00908358Y00016887D01*
X00905818D01*
X00908358Y00014346D01*
X00905818Y00011806D01*
X00908358D01*
X00910898Y00009266D01*
X00916874Y00015996D02*
X00919414Y00018536D01*
X00921954D01*
X00919414Y00021076D01*
X00921954Y00023616D01*
X00919414D01*
X00916874Y00026156D01*
X00914334Y00023616D01*
X00911794D01*
X00914334Y00021076D01*
X00911794Y00018536D01*
X00914334D01*
X00916874Y00015996D01*
X00919681Y00024547D02*
X00922221Y00027087D01*
X00924761D01*
X00922221Y00029627D01*
X00924761Y00032167D01*
X00922221D01*
X00919681Y00034707D01*
X00917141Y00032167D01*
X00914601D01*
X00917141Y00029627D01*
X00914601Y00027087D01*
X00917141D01*
X00919681Y00024547D01*
X00919829Y00042546D02*
X0092237Y00045086D01*
X0092491D01*
X0092237Y00047626D01*
X0092491Y00050166D01*
X0092237D01*
X00919829Y00052706D01*
X0091729Y00050166D01*
X0091475D01*
X0091729Y00047626D01*
X0091475Y00045086D01*
X0091729D01*
X00919829Y00042546D01*
Y00078546D02*
X0092237Y00081086D01*
X0092491D01*
X0092237Y00083626D01*
X0092491Y00086166D01*
X0092237D01*
X00919829Y00088706D01*
X0091729Y00086166D01*
X0091475D01*
X0091729Y00083626D01*
X0091475Y00081086D01*
X0091729D01*
X00919829Y00078546D01*
Y00087546D02*
X0092237Y00090086D01*
X0092491D01*
X0092237Y00092626D01*
X0092491Y00095166D01*
X0092237D01*
X00919829Y00097706D01*
X0091729Y00095166D01*
X0091475D01*
X0091729Y00092626D01*
X0091475Y00090086D01*
X0091729D01*
X00919829Y00087546D01*
Y00051546D02*
X0092237Y00054086D01*
X0092491D01*
X0092237Y00056626D01*
X0092491Y00059166D01*
X0092237D01*
X00919829Y00061706D01*
X0091729Y00059166D01*
X0091475D01*
X0091729Y00056626D01*
X0091475Y00054086D01*
X0091729D01*
X00919829Y00051546D01*
Y00069546D02*
X0092237Y00072086D01*
X0092491D01*
X0092237Y00074626D01*
X0092491Y00077166D01*
X0092237D01*
X00919829Y00079706D01*
X0091729Y00077166D01*
X0091475D01*
X0091729Y00074626D01*
X0091475Y00072086D01*
X0091729D01*
X00919829Y00069546D01*
Y00060546D02*
X0092237Y00063086D01*
X0092491D01*
X0092237Y00065626D01*
X0092491Y00068166D01*
X0092237D01*
X00919829Y00070706D01*
X0091729Y00068166D01*
X0091475D01*
X0091729Y00065626D01*
X0091475Y00063086D01*
X0091729D01*
X00919829Y00060546D01*
Y00033546D02*
X0092237Y00036086D01*
X0092491D01*
X0092237Y00038626D01*
X0092491Y00041166D01*
X0092237D01*
X00919829Y00043706D01*
X0091729Y00041166D01*
X0091475D01*
X0091729Y00038626D01*
X0091475Y00036086D01*
X0091729D01*
X00919829Y00033546D01*
X00903829Y00161899D02*
X00906369Y00164439D01*
X00908909D01*
X00906369Y00166979D01*
X00908909Y00169519D01*
X00906369D01*
X00903829Y00172059D01*
X00901289Y00169519D01*
X00898749D01*
X00901289Y00166979D01*
X00898749Y00164439D01*
X00901289D01*
X00903829Y00161899D01*
Y00170899D02*
X00906369Y00173439D01*
X00908909D01*
X00906369Y00175979D01*
X00908909Y00178519D01*
X00906369D01*
X00903829Y00181059D01*
X00901289Y00178519D01*
X00898749D01*
X00901289Y00175979D01*
X00898749Y00173439D01*
X00901289D01*
X00903829Y00170899D01*
X00906356Y00135236D02*
X00908896Y00137776D01*
X00911436D01*
X00908896Y00140316D01*
X00911436Y00142856D01*
X00908896D01*
X00906356Y00145396D01*
X00903816Y00142856D01*
X00901276D01*
X00903816Y00140316D01*
X00901276Y00137776D01*
X00903816D01*
X00906356Y00135236D01*
X00903829Y00152899D02*
X00906369Y00155439D01*
X00908909D01*
X00906369Y00157979D01*
X00908909Y00160519D01*
X00906369D01*
X00903829Y00163059D01*
X00901289Y00160519D01*
X00898749D01*
X00901289Y00157979D01*
X00898749Y00155439D01*
X00901289D01*
X00903829Y00152899D01*
X00903919Y001439D02*
X00906459Y0014644D01*
X00908999D01*
X00906459Y0014898D01*
X00908999Y0015152D01*
X00906459D01*
X00903919Y0015406D01*
X00901379Y0015152D01*
X00898839D01*
X00901379Y0014898D01*
X00898839Y0014644D01*
X00901379D01*
X00903919Y001439D01*
X00903829Y00206899D02*
X00906369Y00209439D01*
X00908909D01*
X00906369Y00211979D01*
X00908909Y00214519D01*
X00906369D01*
X00903829Y00217059D01*
X00901289Y00214519D01*
X00898749D01*
X00901289Y00211979D01*
X00898749Y00209439D01*
X00901289D01*
X00903829Y00206899D01*
Y00215899D02*
X00906369Y00218439D01*
X00908909D01*
X00906369Y00220979D01*
X00908909Y00223519D01*
X00906369D01*
X00903829Y00226059D01*
X00901289Y00223519D01*
X00898749D01*
X00901289Y00220979D01*
X00898749Y00218439D01*
X00901289D01*
X00903829Y00215899D01*
Y00179899D02*
X00906369Y00182439D01*
X00908909D01*
X00906369Y00184979D01*
X00908909Y00187519D01*
X00906369D01*
X00903829Y00190059D01*
X00901289Y00187519D01*
X00898749D01*
X00901289Y00184979D01*
X00898749Y00182439D01*
X00901289D01*
X00903829Y00179899D01*
Y00197899D02*
X00906369Y00200439D01*
X00908909D01*
X00906369Y00202979D01*
X00908909Y00205519D01*
X00906369D01*
X00903829Y00208059D01*
X00901289Y00205519D01*
X00898749D01*
X00901289Y00202979D01*
X00898749Y00200439D01*
X00901289D01*
X00903829Y00197899D01*
Y00188899D02*
X00906369Y00191439D01*
X00908909D01*
X00906369Y00193979D01*
X00908909Y00196519D01*
X00906369D01*
X00903829Y00199059D01*
X00901289Y00196519D01*
X00898749D01*
X00901289Y00193979D01*
X00898749Y00191439D01*
X00901289D01*
X00903829Y00188899D01*
X00919829Y00096546D02*
X0092237Y00099086D01*
X0092491D01*
X0092237Y00101626D01*
X0092491Y00104166D01*
X0092237D01*
X00919829Y00106706D01*
X0091729Y00104166D01*
X0091475D01*
X0091729Y00101626D01*
X0091475Y00099086D01*
X0091729D01*
X00919829Y00096546D01*
Y00114546D02*
X0092237Y00117086D01*
X0092491D01*
X0092237Y00119626D01*
X0092491Y00122166D01*
X0092237D01*
X00919829Y00124706D01*
X0091729Y00122166D01*
X0091475D01*
X0091729Y00119626D01*
X0091475Y00117086D01*
X0091729D01*
X00919829Y00114546D01*
Y00105546D02*
X0092237Y00108086D01*
X0092491D01*
X0092237Y00110626D01*
X0092491Y00113166D01*
X0092237D01*
X00919829Y00115706D01*
X0091729Y00113166D01*
X0091475D01*
X0091729Y00110626D01*
X0091475Y00108086D01*
X0091729D01*
X00919829Y00105546D01*
X00912304Y00128482D02*
X00914844Y00131022D01*
X00917384D01*
X00914844Y00133562D01*
X00917384Y00136102D01*
X00914844D01*
X00912304Y00138642D01*
X00909764Y00136102D01*
X00907224D01*
X00909764Y00133562D01*
X00907224Y00131022D01*
X00909764D01*
X00912304Y00128482D01*
X00919829Y00123546D02*
X0092237Y00126086D01*
X0092491D01*
X0092237Y00128626D01*
X0092491Y00131166D01*
X0092237D01*
X00919829Y00133706D01*
X0091729Y00131166D01*
X0091475D01*
X0091729Y00128626D01*
X0091475Y00126086D01*
X0091729D01*
X00919829Y00123546D01*
X00903829Y00251899D02*
X00906369Y00254439D01*
X00908909D01*
X00906369Y00256979D01*
X00908909Y00259519D01*
X00906369D01*
X00903829Y00262059D01*
X00901289Y00259519D01*
X00898749D01*
X00901289Y00256979D01*
X00898749Y00254439D01*
X00901289D01*
X00903829Y00251899D01*
Y00260899D02*
X00906369Y00263439D01*
X00908909D01*
X00906369Y00265979D01*
X00908909Y00268519D01*
X00906369D01*
X00903829Y00271059D01*
X00901289Y00268519D01*
X00898749D01*
X00901289Y00265979D01*
X00898749Y00263439D01*
X00901289D01*
X00903829Y00260899D01*
Y00224899D02*
X00906369Y00227439D01*
X00908909D01*
X00906369Y00229979D01*
X00908909Y00232519D01*
X00906369D01*
X00903829Y00235059D01*
X00901289Y00232519D01*
X00898749D01*
X00901289Y00229979D01*
X00898749Y00227439D01*
X00901289D01*
X00903829Y00224899D01*
Y00242899D02*
X00906369Y00245439D01*
X00908909D01*
X00906369Y00247979D01*
X00908909Y00250519D01*
X00906369D01*
X00903829Y00253059D01*
X00901289Y00250519D01*
X00898749D01*
X00901289Y00247979D01*
X00898749Y00245439D01*
X00901289D01*
X00903829Y00242899D01*
Y00233899D02*
X00906369Y00236439D01*
X00908909D01*
X00906369Y00238979D01*
X00908909Y00241519D01*
X00906369D01*
X00903829Y00244059D01*
X00901289Y00241519D01*
X00898749D01*
X00901289Y00238979D01*
X00898749Y00236439D01*
X00901289D01*
X00903829Y00233899D01*
X00903829Y00305899D02*
X00906369Y00308439D01*
X0090891D01*
X00906369Y00310979D01*
X0090891Y00313519D01*
X00906369D01*
X00903829Y00316059D01*
X0090129Y00313519D01*
X00898749D01*
X0090129Y00310979D01*
X00898749Y00308439D01*
X0090129D01*
X00903829Y00305899D01*
Y00314899D02*
X00906369Y00317439D01*
X0090891D01*
X00906369Y00319979D01*
X0090891Y00322519D01*
X00906369D01*
X00903829Y00325059D01*
X0090129Y00322519D01*
X00898749D01*
X0090129Y00319979D01*
X00898749Y00317439D01*
X0090129D01*
X00903829Y00314899D01*
Y00278899D02*
X00906369Y00281439D01*
X0090891D01*
X00906369Y00283979D01*
X0090891Y00286519D01*
X00906369D01*
X00903829Y00289059D01*
X0090129Y00286519D01*
X00898749D01*
X0090129Y00283979D01*
X00898749Y00281439D01*
X0090129D01*
X00903829Y00278899D01*
Y00296899D02*
X00906369Y00299439D01*
X0090891D01*
X00906369Y00301979D01*
X0090891Y00304519D01*
X00906369D01*
X00903829Y00307059D01*
X0090129Y00304519D01*
X00898749D01*
X0090129Y00301979D01*
X00898749Y00299439D01*
X0090129D01*
X00903829Y00296899D01*
Y00287899D02*
X00906369Y00290439D01*
X0090891D01*
X00906369Y00292979D01*
X0090891Y00295519D01*
X00906369D01*
X00903829Y00298059D01*
X0090129Y00295519D01*
X00898749D01*
X0090129Y00292979D01*
X00898749Y00290439D01*
X0090129D01*
X00903829Y00287899D01*
Y00269899D02*
X00906369Y00272439D01*
X0090891D01*
X00906369Y00274979D01*
X0090891Y00277519D01*
X00906369D01*
X00903829Y00280059D01*
X0090129Y00277519D01*
X00898749D01*
X0090129Y00274979D01*
X00898749Y00272439D01*
X0090129D01*
X00903829Y00269899D01*
Y00350899D02*
X00906369Y00353439D01*
X0090891D01*
X00906369Y00355979D01*
X0090891Y00358519D01*
X00906369D01*
X00903829Y00361059D01*
X0090129Y00358519D01*
X00898749D01*
X0090129Y00355979D01*
X00898749Y00353439D01*
X0090129D01*
X00903829Y00350899D01*
Y00359899D02*
X00906369Y00362439D01*
X0090891D01*
X00906369Y00364979D01*
X0090891Y00367519D01*
X00906369D01*
X00903829Y00370059D01*
X0090129Y00367519D01*
X00898749D01*
X0090129Y00364979D01*
X00898749Y00362439D01*
X0090129D01*
X00903829Y00359899D01*
Y00323899D02*
X00906369Y00326439D01*
X0090891D01*
X00906369Y00328979D01*
X0090891Y00331519D01*
X00906369D01*
X00903829Y00334059D01*
X0090129Y00331519D01*
X00898749D01*
X0090129Y00328979D01*
X00898749Y00326439D01*
X0090129D01*
X00903829Y00323899D01*
Y00341899D02*
X00906369Y00344439D01*
X0090891D01*
X00906369Y00346979D01*
X0090891Y00349519D01*
X00906369D01*
X00903829Y00352059D01*
X0090129Y00349519D01*
X00898749D01*
X0090129Y00346979D01*
X00898749Y00344439D01*
X0090129D01*
X00903829Y00341899D01*
Y00332899D02*
X00906369Y00335439D01*
X0090891D01*
X00906369Y00337979D01*
X0090891Y00340519D01*
X00906369D01*
X00903829Y00343059D01*
X0090129Y00340519D01*
X00898749D01*
X0090129Y00337979D01*
X00898749Y00335439D01*
X0090129D01*
X00903829Y00332899D01*
Y00377899D02*
X00906369Y00380439D01*
X0090891D01*
X00906369Y00382979D01*
X0090891Y00385519D01*
X00906369D01*
X00903829Y00388059D01*
X0090129Y00385519D01*
X00898749D01*
X0090129Y00382979D01*
X00898749Y00380439D01*
X0090129D01*
X00903829Y00377899D01*
Y00386899D02*
X00906369Y00389439D01*
X0090891D01*
X00906369Y00391979D01*
X0090891Y00394519D01*
X00906369D01*
X00903829Y00397059D01*
X0090129Y00394519D01*
X00898749D01*
X0090129Y00391979D01*
X00898749Y00389439D01*
X0090129D01*
X00903829Y00386899D01*
Y00368899D02*
X00906369Y00371439D01*
X0090891D01*
X00906369Y00373979D01*
X0090891Y00376519D01*
X00906369D01*
X00903829Y00379059D01*
X0090129Y00376519D01*
X00898749D01*
X0090129Y00373979D01*
X00898749Y00371439D01*
X0090129D01*
X00903829Y00368899D01*
X00903829Y00485899D02*
X00906369Y00488439D01*
X0090891D01*
X00906369Y00490979D01*
X0090891Y00493519D01*
X00906369D01*
X00903829Y00496059D01*
X0090129Y00493519D01*
X00898749D01*
X0090129Y00490979D01*
X00898749Y00488439D01*
X0090129D01*
X00903829Y00485899D01*
Y00476899D02*
X00906369Y00479439D01*
X0090891D01*
X00906369Y00481979D01*
X0090891Y00484519D01*
X00906369D01*
X00903829Y00487059D01*
X0090129Y00484519D01*
X00898749D01*
X0090129Y00481979D01*
X00898749Y00479439D01*
X0090129D01*
X00903829Y00476899D01*
Y00422899D02*
X00906369Y00425439D01*
X0090891D01*
X00906369Y00427979D01*
X0090891Y00430519D01*
X00906369D01*
X00903829Y00433059D01*
X0090129Y00430519D01*
X00898749D01*
X0090129Y00427979D01*
X00898749Y00425439D01*
X0090129D01*
X00903829Y00422899D01*
Y00431899D02*
X00906369Y00434439D01*
X0090891D01*
X00906369Y00436979D01*
X0090891Y00439519D01*
X00906369D01*
X00903829Y00442059D01*
X0090129Y00439519D01*
X00898749D01*
X0090129Y00436979D01*
X00898749Y00434439D01*
X0090129D01*
X00903829Y00431899D01*
Y00395899D02*
X00906369Y00398439D01*
X0090891D01*
X00906369Y00400979D01*
X0090891Y00403519D01*
X00906369D01*
X00903829Y00406059D01*
X0090129Y00403519D01*
X00898749D01*
X0090129Y00400979D01*
X00898749Y00398439D01*
X0090129D01*
X00903829Y00395899D01*
Y00413899D02*
X00906369Y00416439D01*
X0090891D01*
X00906369Y00418979D01*
X0090891Y00421519D01*
X00906369D01*
X00903829Y00424059D01*
X0090129Y00421519D01*
X00898749D01*
X0090129Y00418979D01*
X00898749Y00416439D01*
X0090129D01*
X00903829Y00413899D01*
Y00404899D02*
X00906369Y00407439D01*
X0090891D01*
X00906369Y00409979D01*
X0090891Y00412519D01*
X00906369D01*
X00903829Y00415059D01*
X0090129Y00412519D01*
X00898749D01*
X0090129Y00409979D01*
X00898749Y00407439D01*
X0090129D01*
X00903829Y00404899D01*
Y00467899D02*
X00906369Y00470439D01*
X0090891D01*
X00906369Y00472979D01*
X0090891Y00475519D01*
X00906369D01*
X00903829Y00478059D01*
X0090129Y00475519D01*
X00898749D01*
X0090129Y00472979D01*
X00898749Y00470439D01*
X0090129D01*
X00903829Y00467899D01*
Y00440899D02*
X00906369Y00443439D01*
X0090891D01*
X00906369Y00445979D01*
X0090891Y00448519D01*
X00906369D01*
X00903829Y00451059D01*
X0090129Y00448519D01*
X00898749D01*
X0090129Y00445979D01*
X00898749Y00443439D01*
X0090129D01*
X00903829Y00440899D01*
Y00458899D02*
X00906369Y00461439D01*
X0090891D01*
X00906369Y00463979D01*
X0090891Y00466519D01*
X00906369D01*
X00903829Y00469059D01*
X0090129Y00466519D01*
X00898749D01*
X0090129Y00463979D01*
X00898749Y00461439D01*
X0090129D01*
X00903829Y00458899D01*
Y00449899D02*
X00906369Y00452439D01*
X0090891D01*
X00906369Y00454979D01*
X0090891Y00457519D01*
X00906369D01*
X00903829Y00460059D01*
X0090129Y00457519D01*
X00898749D01*
X0090129Y00454979D01*
X00898749Y00452439D01*
X0090129D01*
X00903829Y00449899D01*
X00597901Y00868746D02*
X00600442Y00871286D01*
X00602981D01*
X00600442Y00873826D01*
X00602981Y00876366D01*
X00600442D01*
X00597901Y00878906D01*
X00595362Y00876366D01*
X00592822D01*
X00595362Y00873826D01*
X00592822Y00871286D01*
X00595362D01*
X00597901Y00868746D01*
X00588901D02*
X00591441Y00871286D01*
X00593982D01*
X00591441Y00873826D01*
X00593982Y00876366D01*
X00591441D01*
X00588901Y00878906D01*
X00586362Y00876366D01*
X00583821D01*
X00586362Y00873826D01*
X00583821Y00871286D01*
X00586362D01*
X00588901Y00868746D01*
X00624902D02*
X00627441Y00871286D01*
X00629981D01*
X00627441Y00873826D01*
X00629981Y00876366D01*
X00627441D01*
X00624902Y00878906D01*
X00622361Y00876366D01*
X00619822D01*
X00622361Y00873826D01*
X00619822Y00871286D01*
X00622361D01*
X00624902Y00868746D01*
X00606902D02*
X00609441Y00871286D01*
X00611982D01*
X00609441Y00873826D01*
X00611982Y00876366D01*
X00609441D01*
X00606902Y00878906D01*
X00604361Y00876366D01*
X00601822D01*
X00604361Y00873826D01*
X00601822Y00871286D01*
X00604361D01*
X00606902Y00868746D01*
X00615901D02*
X00618442Y00871286D01*
X00620981D01*
X00618442Y00873826D01*
X00620981Y00876366D01*
X00618442D01*
X00615901Y00878906D01*
X00613362Y00876366D01*
X00610821D01*
X00613362Y00873826D01*
X00610821Y00871286D01*
X00613362D01*
X00615901Y00868746D01*
X00579902D02*
X00582442Y00871286D01*
X00584982D01*
X00582442Y00873826D01*
X00584982Y00876366D01*
X00582442D01*
X00579902Y00878906D01*
X00577362Y00876366D01*
X00574822D01*
X00577362Y00873826D01*
X00574822Y00871286D01*
X00577362D01*
X00579902Y00868746D01*
X00642901D02*
X00645441Y00871286D01*
X00647981D01*
X00645441Y00873826D01*
X00647981Y00876366D01*
X00645441D01*
X00642901Y00878906D01*
X00640361Y00876366D01*
X00637821D01*
X00640361Y00873826D01*
X00637821Y00871286D01*
X00640361D01*
X00642901Y00868746D01*
X00633901D02*
X00636441Y00871286D01*
X00638981D01*
X00636441Y00873826D01*
X00638981Y00876366D01*
X00636441D01*
X00633901Y00878906D01*
X00631361Y00876366D01*
X00628821D01*
X00631361Y00873826D01*
X00628821Y00871286D01*
X00631361D01*
X00633901Y00868746D01*
X00669901D02*
X00672441Y00871286D01*
X00674981D01*
X00672441Y00873826D01*
X00674981Y00876366D01*
X00672441D01*
X00669901Y00878906D01*
X00667361Y00876366D01*
X00664821D01*
X00667361Y00873826D01*
X00664821Y00871286D01*
X00667361D01*
X00669901Y00868746D01*
X00651901D02*
X00654441Y00871286D01*
X00656981D01*
X00654441Y00873826D01*
X00656981Y00876366D01*
X00654441D01*
X00651901Y00878906D01*
X00649361Y00876366D01*
X00646821D01*
X00649361Y00873826D01*
X00646821Y00871286D01*
X00649361D01*
X00651901Y00868746D01*
X00660901D02*
X00663441Y00871286D01*
X00665981D01*
X00663441Y00873826D01*
X00665981Y00876366D01*
X00663441D01*
X00660901Y00878906D01*
X00658361Y00876366D01*
X00655821D01*
X00658361Y00873826D01*
X00655821Y00871286D01*
X00658361D01*
X00660901Y00868746D01*
X00687901D02*
X00690441Y00871286D01*
X00692981D01*
X00690441Y00873826D01*
X00692981Y00876366D01*
X00690441D01*
X00687901Y00878906D01*
X00685361Y00876366D01*
X00682821D01*
X00685361Y00873826D01*
X00682821Y00871286D01*
X00685361D01*
X00687901Y00868746D01*
X00678901D02*
X00681441Y00871286D01*
X00683981D01*
X00681441Y00873826D01*
X00683981Y00876366D01*
X00681441D01*
X00678901Y00878906D01*
X00676361Y00876366D01*
X00673821D01*
X00676361Y00873826D01*
X00673821Y00871286D01*
X00676361D01*
X00678901Y00868746D01*
X00705901Y00868746D02*
X00708441Y00871286D01*
X00710981D01*
X00708441Y00873826D01*
X00710981Y00876366D01*
X00708441D01*
X00705901Y00878906D01*
X00703361Y00876366D01*
X00700821D01*
X00703361Y00873826D01*
X00700821Y00871286D01*
X00703361D01*
X00705901Y00868746D01*
X00696901Y00868746D02*
X00699441Y00871286D01*
X00701981D01*
X00699441Y00873826D01*
X00701981Y00876366D01*
X00699441D01*
X00696901Y00878906D01*
X00694361Y00876366D01*
X00691821D01*
X00694361Y00873826D01*
X00691821Y00871286D01*
X00694361D01*
X00696901Y00868746D01*
X00714897Y0086903D02*
X00717437Y0087157D01*
X00719977D01*
X00717437Y0087411D01*
X00719977Y0087665D01*
X00717437D01*
X00714897Y0087919D01*
X00712357Y0087665D01*
X00709817D01*
X00712357Y0087411D01*
X00709817Y0087157D01*
X00712357D01*
X00714897Y0086903D01*
X00723279Y00872308D02*
X00725819Y00874848D01*
X00728359D01*
X00725819Y00877388D01*
X00728359Y00879928D01*
X00725819D01*
X00723279Y00882468D01*
X00720739Y00879928D01*
X00718199D01*
X00720739Y00877388D01*
X00718199Y00874848D01*
X00720739D01*
X00723279Y00872308D01*
X0072941Y00878896D02*
X0073195Y00881436D01*
X0073449D01*
X0073195Y00883977D01*
X0073449Y00886516D01*
X0073195D01*
X0072941Y00889056D01*
X0072687Y00886516D01*
X0072433D01*
X0072687Y00883977D01*
X0072433Y00881436D01*
X0072687D01*
X0072941Y00878896D01*
X0073625Y00884746D02*
X0073879Y00887286D01*
X0074133D01*
X0073879Y00889826D01*
X0074133Y00892366D01*
X0073879D01*
X0073625Y00894906D01*
X0073371Y00892366D01*
X0073117D01*
X0073371Y00889826D01*
X0073117Y00887286D01*
X0073371D01*
X0073625Y00884746D01*
X0074525D02*
X0074779Y00887286D01*
X0075033D01*
X0074779Y00889826D01*
X0075033Y00892366D01*
X0074779D01*
X0074525Y00894906D01*
X0074271Y00892366D01*
X0074017D01*
X0074271Y00889826D01*
X0074017Y00887286D01*
X0074271D01*
X0074525Y00884746D01*
X0076325D02*
X0076579Y00887286D01*
X0076833D01*
X0076579Y00889826D01*
X0076833Y00892366D01*
X0076579D01*
X0076325Y00894906D01*
X0076071Y00892366D01*
X0075817D01*
X0076071Y00889826D01*
X0075817Y00887286D01*
X0076071D01*
X0076325Y00884746D01*
X0075425D02*
X0075679Y00887286D01*
X0075933D01*
X0075679Y00889826D01*
X0075933Y00892366D01*
X0075679D01*
X0075425Y00894906D01*
X0075171Y00892366D01*
X0074917D01*
X0075171Y00889826D01*
X0074917Y00887286D01*
X0075171D01*
X0075425Y00884746D01*
X0079025D02*
X0079279Y00887286D01*
X0079533D01*
X0079279Y00889826D01*
X0079533Y00892366D01*
X0079279D01*
X0079025Y00894906D01*
X0078771Y00892366D01*
X0078517D01*
X0078771Y00889826D01*
X0078517Y00887286D01*
X0078771D01*
X0079025Y00884746D01*
X0077225D02*
X0077479Y00887286D01*
X0077733D01*
X0077479Y00889826D01*
X0077733Y00892366D01*
X0077479D01*
X0077225Y00894906D01*
X0076971Y00892366D01*
X0076717D01*
X0076971Y00889826D01*
X0076717Y00887286D01*
X0076971D01*
X0077225Y00884746D01*
X0078125D02*
X0078379Y00887286D01*
X0078633D01*
X0078379Y00889826D01*
X0078633Y00892366D01*
X0078379D01*
X0078125Y00894906D01*
X0077871Y00892366D01*
X0077617D01*
X0077871Y00889826D01*
X0077617Y00887286D01*
X0077871D01*
X0078125Y00884746D01*
X00903829Y00494899D02*
X00906369Y00497439D01*
X0090891D01*
X00906369Y00499979D01*
X0090891Y00502519D01*
X00906369D01*
X00903829Y00505059D01*
X0090129Y00502519D01*
X00898749D01*
X0090129Y00499979D01*
X00898749Y00497439D01*
X0090129D01*
X00903829Y00494899D01*
Y00503899D02*
X00906369Y00506439D01*
X0090891D01*
X00906369Y00508979D01*
X0090891Y00511519D01*
X00906369D01*
X00903829Y00514059D01*
X0090129Y00511519D01*
X00898749D01*
X0090129Y00508979D01*
X00898749Y00506439D01*
X0090129D01*
X00903829Y00503899D01*
X00903829Y00521899D02*
X00906369Y00524439D01*
X0090891D01*
X00906369Y00526979D01*
X0090891Y00529519D01*
X00906369D01*
X00903829Y00532059D01*
X0090129Y00529519D01*
X00898749D01*
X0090129Y00526979D01*
X00898749Y00524439D01*
X0090129D01*
X00903829Y00521899D01*
Y00539899D02*
X00906369Y00542439D01*
X0090891D01*
X00906369Y00544979D01*
X0090891Y00547519D01*
X00906369D01*
X00903829Y00550059D01*
X0090129Y00547519D01*
X00898749D01*
X0090129Y00544979D01*
X00898749Y00542439D01*
X0090129D01*
X00903829Y00539899D01*
Y00530899D02*
X00906369Y00533439D01*
X0090891D01*
X00906369Y00535979D01*
X0090891Y00538519D01*
X00906369D01*
X00903829Y00541059D01*
X0090129Y00538519D01*
X00898749D01*
X0090129Y00535979D01*
X00898749Y00533439D01*
X0090129D01*
X00903829Y00530899D01*
Y00575899D02*
X00906369Y00578439D01*
X0090891D01*
X00906369Y00580979D01*
X0090891Y00583519D01*
X00906369D01*
X00903829Y00586059D01*
X0090129Y00583519D01*
X00898749D01*
X0090129Y00580979D01*
X00898749Y00578439D01*
X0090129D01*
X00903829Y00575899D01*
Y00584899D02*
X00906369Y00587439D01*
X0090891D01*
X00906369Y00589979D01*
X0090891Y00592519D01*
X00906369D01*
X00903829Y00595059D01*
X0090129Y00592519D01*
X00898749D01*
X0090129Y00589979D01*
X00898749Y00587439D01*
X0090129D01*
X00903829Y00584899D01*
Y00548899D02*
X00906369Y00551439D01*
X0090891D01*
X00906369Y00553979D01*
X0090891Y00556519D01*
X00906369D01*
X00903829Y00559059D01*
X0090129Y00556519D01*
X00898749D01*
X0090129Y00553979D01*
X00898749Y00551439D01*
X0090129D01*
X00903829Y00548899D01*
Y00566899D02*
X00906369Y00569439D01*
X0090891D01*
X00906369Y00571979D01*
X0090891Y00574519D01*
X00906369D01*
X00903829Y00577059D01*
X0090129Y00574519D01*
X00898749D01*
X0090129Y00571979D01*
X00898749Y00569439D01*
X0090129D01*
X00903829Y00566899D01*
Y00557899D02*
X00906369Y00560439D01*
X0090891D01*
X00906369Y00562979D01*
X0090891Y00565519D01*
X00906369D01*
X00903829Y00568059D01*
X0090129Y00565519D01*
X00898749D01*
X0090129Y00562979D01*
X00898749Y00560439D01*
X0090129D01*
X00903829Y00557899D01*
Y00512899D02*
X00906369Y00515439D01*
X0090891D01*
X00906369Y00517979D01*
X0090891Y00520519D01*
X00906369D01*
X00903829Y00523059D01*
X0090129Y00520519D01*
X00898749D01*
X0090129Y00517979D01*
X00898749Y00515439D01*
X0090129D01*
X00903829Y00512899D01*
Y00611898D02*
X00906369Y00614439D01*
X0090891D01*
X00906369Y00616978D01*
X0090891Y00619519D01*
X00906369D01*
X00903829Y00622058D01*
X0090129Y00619519D01*
X00898749D01*
X0090129Y00616978D01*
X00898749Y00614439D01*
X0090129D01*
X00903829Y00611898D01*
Y00620899D02*
X00906369Y00623438D01*
X0090891D01*
X00906369Y00625979D01*
X0090891Y00628518D01*
X00906369D01*
X00903829Y00631059D01*
X0090129Y00628518D01*
X00898749D01*
X0090129Y00625979D01*
X00898749Y00623438D01*
X0090129D01*
X00903829Y00620899D01*
Y00593899D02*
X00906369Y00596439D01*
X0090891D01*
X00906369Y00598979D01*
X0090891Y00601519D01*
X00906369D01*
X00903829Y00604059D01*
X0090129Y00601519D01*
X00898749D01*
X0090129Y00598979D01*
X00898749Y00596439D01*
X0090129D01*
X00903829Y00593899D01*
Y00602898D02*
X00906369Y00605438D01*
X0090891D01*
X00906369Y00607979D01*
X0090891Y00610518D01*
X00906369D01*
X00903829Y00613059D01*
X0090129Y00610518D01*
X00898749D01*
X0090129Y00607979D01*
X00898749Y00605438D01*
X0090129D01*
X00903829Y00602898D01*
X00903829Y00683898D02*
X00906369Y00686438D01*
X0090891D01*
X00906369Y00688978D01*
X0090891Y00691518D01*
X00906369D01*
X00903829Y00694058D01*
X0090129Y00691518D01*
X00898749D01*
X0090129Y00688978D01*
X00898749Y00686438D01*
X0090129D01*
X00903829Y00683898D01*
Y00719898D02*
X00906369Y00722438D01*
X0090891D01*
X00906369Y00724978D01*
X0090891Y00727518D01*
X00906369D01*
X00903829Y00730058D01*
X0090129Y00727518D01*
X00898749D01*
X0090129Y00724978D01*
X00898749Y00722438D01*
X0090129D01*
X00903829Y00719898D01*
Y00728898D02*
X00906369Y00731438D01*
X0090891D01*
X00906369Y00733978D01*
X0090891Y00736518D01*
X00906369D01*
X00903829Y00739058D01*
X0090129Y00736518D01*
X00898749D01*
X0090129Y00733978D01*
X00898749Y00731438D01*
X0090129D01*
X00903829Y00728898D01*
Y00692898D02*
X00906369Y00695438D01*
X0090891D01*
X00906369Y00697978D01*
X0090891Y00700518D01*
X00906369D01*
X00903829Y00703058D01*
X0090129Y00700518D01*
X00898749D01*
X0090129Y00697978D01*
X00898749Y00695438D01*
X0090129D01*
X00903829Y00692898D01*
Y00710898D02*
X00906369Y00713438D01*
X0090891D01*
X00906369Y00715978D01*
X0090891Y00718518D01*
X00906369D01*
X00903829Y00721058D01*
X0090129Y00718518D01*
X00898749D01*
X0090129Y00715978D01*
X00898749Y00713438D01*
X0090129D01*
X00903829Y00710898D01*
Y00701898D02*
X00906369Y00704438D01*
X0090891D01*
X00906369Y00706978D01*
X0090891Y00709518D01*
X00906369D01*
X00903829Y00712058D01*
X0090129Y00709518D01*
X00898749D01*
X0090129Y00706978D01*
X00898749Y00704438D01*
X0090129D01*
X00903829Y00701898D01*
Y00656898D02*
X00906369Y00659438D01*
X0090891D01*
X00906369Y00661978D01*
X0090891Y00664518D01*
X00906369D01*
X00903829Y00667058D01*
X0090129Y00664518D01*
X00898749D01*
X0090129Y00661978D01*
X00898749Y00659438D01*
X0090129D01*
X00903829Y00656898D01*
Y00665898D02*
X00906369Y00668438D01*
X0090891D01*
X00906369Y00670978D01*
X0090891Y00673518D01*
X00906369D01*
X00903829Y00676058D01*
X0090129Y00673518D01*
X00898749D01*
X0090129Y00670978D01*
X00898749Y00668438D01*
X0090129D01*
X00903829Y00665898D01*
Y00629898D02*
X00906369Y00632439D01*
X0090891D01*
X00906369Y00634978D01*
X0090891Y00637519D01*
X00906369D01*
X00903829Y00640059D01*
X0090129Y00637519D01*
X00898749D01*
X0090129Y00634978D01*
X00898749Y00632439D01*
X0090129D01*
X00903829Y00629898D01*
Y00647898D02*
X00906369Y00650439D01*
X0090891D01*
X00906369Y00652979D01*
X0090891Y00655518D01*
X00906369D01*
X00903829Y00658058D01*
X0090129Y00655518D01*
X00898749D01*
X0090129Y00652979D01*
X00898749Y00650439D01*
X0090129D01*
X00903829Y00647898D01*
Y00638899D02*
X00906369Y00641439D01*
X0090891D01*
X00906369Y00643979D01*
X0090891Y00646518D01*
X00906369D01*
X00903829Y00649059D01*
X0090129Y00646518D01*
X00898749D01*
X0090129Y00643979D01*
X00898749Y00641439D01*
X0090129D01*
X00903829Y00638899D01*
Y00674898D02*
X00906369Y00677438D01*
X0090891D01*
X00906369Y00679978D01*
X0090891Y00682518D01*
X00906369D01*
X00903829Y00685058D01*
X0090129Y00682518D01*
X00898749D01*
X0090129Y00679978D01*
X00898749Y00677438D01*
X0090129D01*
X00903829Y00674898D01*
X0080825Y00884746D02*
X0081079Y00887286D01*
X0081333D01*
X0081079Y00889826D01*
X0081333Y00892366D01*
X0081079D01*
X0080825Y00894906D01*
X0080571Y00892366D01*
X0080317D01*
X0080571Y00889826D01*
X0080317Y00887286D01*
X0080571D01*
X0080825Y00884746D01*
X0079925D02*
X0080179Y00887286D01*
X0080433D01*
X0080179Y00889826D01*
X0080433Y00892366D01*
X0080179D01*
X0079925Y00894906D01*
X0079671Y00892366D01*
X0079417D01*
X0079671Y00889826D01*
X0079417Y00887286D01*
X0079671D01*
X0079925Y00884746D01*
X0083525D02*
X0083779Y00887286D01*
X0084033D01*
X0083779Y00889826D01*
X0084033Y00892366D01*
X0083779D01*
X0083525Y00894906D01*
X0083271Y00892366D01*
X0083017D01*
X0083271Y00889826D01*
X0083017Y00887286D01*
X0083271D01*
X0083525Y00884746D01*
X0081725D02*
X0081979Y00887286D01*
X0082233D01*
X0081979Y00889826D01*
X0082233Y00892366D01*
X0081979D01*
X0081725Y00894906D01*
X0081471Y00892366D01*
X0081217D01*
X0081471Y00889826D01*
X0081217Y00887286D01*
X0081471D01*
X0081725Y00884746D01*
X0082625D02*
X0082879Y00887286D01*
X0083133D01*
X0082879Y00889826D01*
X0083133Y00892366D01*
X0082879D01*
X0082625Y00894906D01*
X0082371Y00892366D01*
X0082117D01*
X0082371Y00889826D01*
X0082117Y00887286D01*
X0082371D01*
X0082625Y00884746D01*
X0084425D02*
X0084679Y00887286D01*
X0084933D01*
X0084679Y00889826D01*
X0084933Y00892366D01*
X0084679D01*
X0084425Y00894906D01*
X0084171Y00892366D01*
X0083917D01*
X0084171Y00889826D01*
X0083917Y00887286D01*
X0084171D01*
X0084425Y00884746D01*
X0087125D02*
X0087379Y00887286D01*
X0087633D01*
X0087379Y00889826D01*
X0087633Y00892366D01*
X0087379D01*
X0087125Y00894906D01*
X0086871Y00892366D01*
X0086617D01*
X0086871Y00889826D01*
X0086617Y00887286D01*
X0086871D01*
X0087125Y00884746D01*
X0085325D02*
X0085579Y00887286D01*
X0085833D01*
X0085579Y00889826D01*
X0085833Y00892366D01*
X0085579D01*
X0085325Y00894906D01*
X0085071Y00892366D01*
X0084817D01*
X0085071Y00889826D01*
X0084817Y00887286D01*
X0085071D01*
X0085325Y00884746D01*
X0086225D02*
X0086479Y00887286D01*
X0086733D01*
X0086479Y00889826D01*
X0086733Y00892366D01*
X0086479D01*
X0086225Y00894906D01*
X0085971Y00892366D01*
X0085717D01*
X0085971Y00889826D01*
X0085717Y00887286D01*
X0085971D01*
X0086225Y00884746D01*
X00903829Y00737898D02*
X00906369Y00740438D01*
X0090891D01*
X00906369Y00742978D01*
X0090891Y00745518D01*
X00906369D01*
X00903829Y00748058D01*
X0090129Y00745518D01*
X00898749D01*
X0090129Y00742978D01*
X00898749Y00740438D01*
X0090129D01*
X00903829Y00737898D01*
Y00746898D02*
X00906369Y00749438D01*
X0090891D01*
X00906369Y00751978D01*
X0090891Y00754518D01*
X00906369D01*
X00903829Y00757058D01*
X0090129Y00754518D01*
X00898749D01*
X0090129Y00751978D01*
X00898749Y00749438D01*
X0090129D01*
X00903829Y00746898D01*
X00904767Y00755849D02*
X00907307Y00758389D01*
X00909847D01*
X00907307Y00760929D01*
X00909847Y00763469D01*
X00907307D01*
X00904767Y00766009D01*
X00902227Y00763469D01*
X00899687D01*
X00902227Y00760929D01*
X00899687Y00758389D01*
X00902227D01*
X00904767Y00755849D01*
X00909184Y00763691D02*
X00911724Y00766231D01*
X00914264D01*
X00911724Y00768771D01*
X00914264Y00771311D01*
X00911724D01*
X00909184Y00773851D01*
X00906644Y00771311D01*
X00904104D01*
X00906644Y00768771D01*
X00904104Y00766231D01*
X00906644D01*
X00909184Y00763691D01*
X00916575Y00768827D02*
X00919115Y00771367D01*
X00921655D01*
X00919115Y00773906D01*
X00921655Y00776447D01*
X00919115D01*
X00916575Y00778987D01*
X00914035Y00776447D01*
X00911495D01*
X00914035Y00773906D01*
X00911495Y00771367D01*
X00914035D01*
X00916575Y00768827D01*
X00919829Y00804217D02*
X00922369Y00806757D01*
X00924909D01*
X00922369Y00809297D01*
X00924909Y00811837D01*
X00922369D01*
X00919829Y00814377D01*
X00917289Y00811837D01*
X00914749D01*
X00917289Y00809297D01*
X00914749Y00806757D01*
X00917289D01*
X00919829Y00804217D01*
Y00795217D02*
X00922369Y00797757D01*
X00924909D01*
X00922369Y00800297D01*
X00924909Y00802837D01*
X00922369D01*
X00919829Y00805377D01*
X00917289Y00802837D01*
X00914749D01*
X00917289Y00800297D01*
X00914749Y00797757D01*
X00917289D01*
X00919829Y00795217D01*
Y00786217D02*
X00922369Y00788757D01*
X00924909D01*
X00922369Y00791297D01*
X00924909Y00793837D01*
X00922369D01*
X00919829Y00796377D01*
X00917289Y00793837D01*
X00914749D01*
X00917289Y00791297D01*
X00914749Y00788757D01*
X00917289D01*
X00919829Y00786217D01*
Y00777217D02*
X00922369Y00779757D01*
X00924909D01*
X00922369Y00782297D01*
X00924909Y00784837D01*
X00922369D01*
X00919829Y00787377D01*
X00917289Y00784837D01*
X00914749D01*
X00917289Y00782297D01*
X00914749Y00779757D01*
X00917289D01*
X00919829Y00777217D01*
X00919391Y00867206D02*
X00921931Y00869746D01*
X00924471D01*
X00921931Y00872287D01*
X00924471Y00874827D01*
X00921931D01*
X00919391Y00877366D01*
X00916851Y00874827D01*
X00914311D01*
X00916851Y00872287D01*
X00914311Y00869746D01*
X00916851D01*
X00919391Y00867206D01*
X00915867Y00875488D02*
X00918407Y00878028D01*
X00920947D01*
X00918407Y00880568D01*
X00920947Y00883108D01*
X00918407D01*
X00915867Y00885648D01*
X00913327Y00883108D01*
X00910787D01*
X00913327Y00880568D01*
X00910787Y00878028D01*
X00913327D01*
X00915867Y00875488D01*
X00919829Y00840217D02*
X00922369Y00842757D01*
X00924909D01*
X00922369Y00845297D01*
X00924909Y00847837D01*
X00922369D01*
X00919829Y00850377D01*
X00917289Y00847837D01*
X00914749D01*
X00917289Y00845297D01*
X00914749Y00842757D01*
X00917289D01*
X00919829Y00840217D01*
Y00858217D02*
X00922369Y00860757D01*
X00924909D01*
X00922369Y00863297D01*
X00924909Y00865837D01*
X00922369D01*
X00919829Y00868377D01*
X00917289Y00865837D01*
X00914749D01*
X00917289Y00863297D01*
X00914749Y00860757D01*
X00917289D01*
X00919829Y00858217D01*
Y00849217D02*
X00922369Y00851757D01*
X00924909D01*
X00922369Y00854297D01*
X00924909Y00856837D01*
X00922369D01*
X00919829Y00859377D01*
X00917289Y00856837D01*
X00914749D01*
X00917289Y00854297D01*
X00914749Y00851757D01*
X00917289D01*
X00919829Y00849217D01*
X0088025Y00884746D02*
X0088279Y00887286D01*
X0088533D01*
X0088279Y00889826D01*
X0088533Y00892366D01*
X0088279D01*
X0088025Y00894906D01*
X0087771Y00892366D01*
X0087517D01*
X0087771Y00889826D01*
X0087517Y00887286D01*
X0087771D01*
X0088025Y00884746D01*
X00909253Y00881592D02*
X00911793Y00884132D01*
X00914333D01*
X00911793Y00886672D01*
X00914333Y00889212D01*
X00911793D01*
X00909253Y00891752D01*
X00906713Y00889212D01*
X00904173D01*
X00906713Y00886672D01*
X00904173Y00884132D01*
X00906713D01*
X00909253Y00881592D01*
X0088925Y00884746D02*
X0089179Y00887286D01*
X0089433D01*
X0089179Y00889826D01*
X0089433Y00892366D01*
X0089179D01*
X0088925Y00894906D01*
X0088671Y00892366D01*
X0088417D01*
X0088671Y00889826D01*
X0088417Y00887286D01*
X0088671D01*
X0088925Y00884746D01*
X0089825Y00884768D02*
X0090079Y00887308D01*
X0090333D01*
X0090079Y00889848D01*
X0090333Y00892388D01*
X0090079D01*
X0089825Y00894928D01*
X0089571Y00892388D01*
X0089317D01*
X0089571Y00889848D01*
X0089317Y00887308D01*
X0089571D01*
X0089825Y00884768D01*
X00919829Y00813217D02*
X00922369Y00815757D01*
X00924909D01*
X00922369Y00818297D01*
X00924909Y00820837D01*
X00922369D01*
X00919829Y00823377D01*
X00917289Y00820837D01*
X00914749D01*
X00917289Y00818297D01*
X00914749Y00815757D01*
X00917289D01*
X00919829Y00813217D01*
Y00831217D02*
X00922369Y00833757D01*
X00924909D01*
X00922369Y00836297D01*
X00924909Y00838837D01*
X00922369D01*
X00919829Y00841377D01*
X00917289Y00838837D01*
X00914749D01*
X00917289Y00836297D01*
X00914749Y00833757D01*
X00917289D01*
X00919829Y00831217D01*
Y00822217D02*
X00922369Y00824757D01*
X00924909D01*
X00922369Y00827297D01*
X00924909Y00829837D01*
X00922369D01*
X00919829Y00832377D01*
X00917289Y00829837D01*
X00914749D01*
X00917289Y00827297D01*
X00914749Y00824757D01*
X00917289D01*
X00919829Y00822217D01*
X00360172Y00159004D02*
X00362712Y00161544D01*
X00365252D01*
X00362712Y00164084D01*
X00365252Y00166624D01*
X00362712D01*
X00360172Y00169164D01*
X00357632Y00166624D01*
X00355092D01*
X00357632Y00164084D01*
X00355092Y00161544D01*
X00357632D01*
X00360172Y00159004D01*
X002032Y0058166D02*
X0020574Y005842D01*
X0020828D01*
X0020574Y0058674D01*
X0020828Y0058928D01*
X0020574D01*
X002032Y0059182D01*
X0020066Y0058928D01*
X0019812D01*
X0020066Y0058674D01*
X0019812Y005842D01*
X0020066D01*
X002032Y0058166D01*
X0019939Y0056769D02*
X0020193Y0057023D01*
X0020447D01*
X0020193Y0057277D01*
X0020447Y0057531D01*
X0020193D01*
X0019939Y0057785D01*
X0019685Y0057531D01*
X0019431D01*
X0019685Y0057277D01*
X0019431Y0057023D01*
X0019685D01*
X0019939Y0056769D01*
X00203262Y00562758D02*
X00205802Y00565298D01*
X00208342D01*
X00205802Y00567838D01*
X00208342Y00570378D01*
X00205802D01*
X00203262Y00572918D01*
X00200722Y00570378D01*
X00198182D01*
X00200722Y00567838D01*
X00198182Y00565298D01*
X00200722D01*
X00203262Y00562758D01*
D158*
X0031115Y0077724D02*
G03*
X0031115Y0077724I-0000508J0D01*
G01*
X0030607Y0076327D02*
G03*
X0030607Y0076327I-0000508J0D01*
G01*
X0032258Y0078359D02*
G03*
X0032258Y0078359I-0000508J0D01*
G01*
X00648047Y00614741D02*
G03*
X00648047Y00614741I-0000508J0D01*
G01*
X0052451Y0073787D02*
G03*
X0052451Y0073787I-0000508J0D01*
G01*
X007493Y005588D02*
G03*
X007493Y005588I-0000508J0D01*
G01*
X0075946D02*
G03*
X0075946Y005588I-0000508J0D01*
G01*
X0058166Y0052832D02*
G03*
X0058166Y0052832I-0000508J0D01*
G01*
X00641922Y00596727D02*
G03*
X00641922Y00596727I-0000508J0D01*
G01*
X00189865Y00753745D02*
G03*
X00189865Y00753745I-0000508J0D01*
G01*
X0055499Y00747395D02*
G03*
X0055499Y00747395I-0000508J0D01*
G01*
X0032258Y0079883D02*
G03*
X0032258Y0079883I-0000508J0D01*
G01*
X0078994Y0074803D02*
G03*
X0078994Y0074803I-0000508J0D01*
G01*
X0084582Y0058801D02*
G03*
X0084582Y0058801I-0000508J0D01*
G01*
X0055499Y0013589D02*
G03*
X0055499Y0013589I-0000508J0D01*
G01*
X0056642Y0051689D02*
G03*
X0056642Y0051689I-0000508J0D01*
G01*
X006477Y0065405D02*
G03*
X006477Y0065405I-0000508J0D01*
G01*
Y0066294D02*
G03*
X006477Y0066294I-0000508J0D01*
G01*
X003048Y0075438D02*
G03*
X003048Y0075438I-0000508J0D01*
G01*
X0036322Y0078613D02*
G03*
X0036322Y0078613I-0000508J0D01*
G01*
X006477Y0071501D02*
G03*
X006477Y0071501I-0000508J0D01*
G01*
Y0070231D02*
G03*
X006477Y0070231I-0000508J0D01*
G01*
X0048768Y00457962D02*
G03*
X0048768Y00457962I-0000508J0D01*
G01*
X0064262Y0067437D02*
G03*
X0064262Y0067437I-0000508J0D01*
G01*
X0047879Y0045212D02*
G03*
X0047879Y0045212I-0000508J0D01*
G01*
X003429Y0011938D02*
G03*
X003429Y0011938I-0000508J0D01*
G01*
X0072263Y0016256D02*
G03*
X0072263Y0016256I-0000508J0D01*
G01*
X0065024Y0012065D02*
G03*
X0065024Y0012065I-0000508J0D01*
G01*
X0039497Y002667D02*
G03*
X0039497Y002667I-0000508J0D01*
G01*
X0036195Y0026416D02*
G03*
X0036195Y0026416I-0000508J0D01*
G01*
X0040132Y0027432D02*
G03*
X0040132Y0027432I-0000508J0D01*
G01*
X0015113Y0058039D02*
G03*
X0015113Y0058039I-0000508J0D01*
G01*
X0083185Y0062738D02*
G03*
X0083185Y0062738I-0000508J0D01*
G01*
Y0064643D02*
G03*
X0083185Y0064643I-0000508J0D01*
G01*
X00831541Y00662631D02*
G03*
X00831541Y00662631I-0000508J0D01*
G01*
X0053721Y0078359D02*
G03*
X0053721Y0078359I-0000508J0D01*
G01*
X00547747Y00810563D02*
G03*
X00547747Y00810563I-0000508J0D01*
G01*
X0054737Y0062357D02*
G03*
X0054737Y0062357I-0000508J0D01*
G01*
Y0059817D02*
G03*
X0054737Y0059817I-0000508J0D01*
G01*
X005842Y0062357D02*
G03*
X005842Y0062357I-0000508J0D01*
G01*
Y0059817D02*
G03*
X005842Y0059817I-0000508J0D01*
G01*
X0080899Y0074422D02*
G03*
X0080899Y0074422I-0000508J0D01*
G01*
X0076962Y0080264D02*
G03*
X0076962Y0080264I-0000508J0D01*
G01*
X0060325Y0046228D02*
G03*
X0060325Y0046228I-0000508J0D01*
G01*
X0068853Y0053956D02*
G03*
X0068853Y0053956I-0000508J0D01*
G01*
X005334Y0046228D02*
G03*
X005334Y0046228I-0000508J0D01*
G01*
X0055099Y0046247D02*
G03*
X0055099Y0046247I-0000508J0D01*
G01*
X0049403Y0032004D02*
G03*
X0049403Y0032004I-0000508J0D01*
G01*
X0032766Y0068707D02*
G03*
X0032766Y0068707I-0000508J0D01*
G01*
X005334Y0025019D02*
G03*
X005334Y0025019I-0000508J0D01*
G01*
X0032766Y0067437D02*
G03*
X0032766Y0067437I-0000508J0D01*
G01*
X0022733Y0080645D02*
G03*
X0022733Y0080645I-0000508J0D01*
G01*
X0083312Y0070739D02*
G03*
X0083312Y0070739I-0000508J0D01*
G01*
M02*
