G04*
G04 #@! TF.GenerationSoftware,Altium Limited,Altium Designer,24.1.2 (44)*
G04*
G04 Layer_Physical_Order=2*
G04 Layer_Color=36540*
%FSTAX44Y44*%
%MOMM*%
G71*
G04*
G04 #@! TF.SameCoordinates,D060A1EC-4626-4505-A1E3-2354931557F6*
G04*
G04*
G04 #@! TF.FilePolarity,Positive*
G04*
G01*
G75*
%ADD131C,1.4000*%
%ADD132R,1.4000X1.4000*%
%ADD133C,1.5300*%
%ADD135R,1.5300X1.5300*%
%ADD136C,0.4000*%
%ADD137C,4.4000*%
G36*
X00202079Y00897274D02*
X00203933Y00896036D01*
X00205171Y00894182D01*
X00205367Y00893197D01*
X00205535Y00891996D01*
X00205535D01*
X00205888Y00889315D01*
X00206922Y00886817D01*
X00208569Y00884671D01*
X00210714Y00883025D01*
X00213212Y00881991D01*
X00215893Y00881637D01*
Y00881682D01*
X00713893D01*
Y00881637D01*
X00716574Y00881991D01*
X00719072Y00883025D01*
X00721218Y00884671D01*
X00722864Y00886817D01*
X00723899Y00889315D01*
X00724252Y00891996D01*
X00724252D01*
X00724419Y00893197D01*
X00724615Y00894182D01*
X00725854Y00896036D01*
X00727707Y00897274D01*
X00729825Y00897695D01*
X00729893Y00897682D01*
X00729912Y00897685D01*
X00898071D01*
X00898083Y00897688D01*
X00902645Y00897329D01*
X00907176Y00896241D01*
X00911481Y00894458D01*
X00915454Y00892023D01*
X00918997Y00888997D01*
X00922023Y00885454D01*
X00924458Y00881481D01*
X00926241Y00877176D01*
X00927329Y00872645D01*
X00927688Y00868083D01*
X00927685Y00868071D01*
Y00773071D01*
X00927699Y00773002D01*
X00927278Y00770885D01*
X0092604Y00769031D01*
X00924186Y00767793D01*
X00923201Y00767597D01*
X00922Y0076743D01*
Y00767429D01*
X00919319Y00767076D01*
X00916821Y00766042D01*
X00914675Y00764395D01*
X00913029Y0076225D01*
X00911994Y00759752D01*
X00911641Y00757071D01*
X00911685D01*
X00911685Y0075707D01*
Y00148D01*
X00911641D01*
X00911994Y00145319D01*
X00913029Y00142821D01*
X00914675Y00140675D01*
X00916821Y00139029D01*
X00919319Y00137994D01*
X00922Y00137641D01*
Y00137641D01*
X00923201Y00137474D01*
X00924186Y00137278D01*
X0092604Y0013604D01*
X00927278Y00134186D01*
X00927699Y00132069D01*
X00927685Y00132D01*
Y00032D01*
X00927692Y00031967D01*
X00927329Y00027355D01*
X00926241Y00022824D01*
X00924458Y00018519D01*
X00922023Y00014546D01*
X00918997Y00011003D01*
X00915454Y00007977D01*
X00911481Y00005542D01*
X00907176Y00003759D01*
X00902645Y00002671D01*
X00898033Y00002308D01*
X00898Y00002315D01*
X0073D01*
X00729931Y00002301D01*
X00727814Y00002722D01*
X0072596Y0000396D01*
X00724722Y00005814D01*
X00724526Y00006799D01*
X00724359Y00008D01*
X00724359D01*
X00724006Y00010681D01*
X00722971Y00013179D01*
X00721325Y00015325D01*
X00719179Y00016971D01*
X00716681Y00018006D01*
X00714Y00018359D01*
Y00018314D01*
X00216D01*
Y00018359D01*
X00213319Y00018006D01*
X00210821Y00016971D01*
X00208675Y00015325D01*
X00207029Y00013179D01*
X00205994Y00010681D01*
X00205641Y00008D01*
X00205641D01*
X00205474Y00006799D01*
X00205278Y00005814D01*
X0020404Y0000396D01*
X00202186Y00002722D01*
X00200068Y00002301D01*
X002Y00002315D01*
X00032D01*
X00031967Y00002308D01*
X00027355Y00002671D01*
X00022824Y00003759D01*
X00018519Y00005542D01*
X00014546Y00007977D01*
X00011003Y00011003D01*
X00007977Y00014546D01*
X00005542Y00018519D01*
X00003759Y00022824D01*
X00002671Y00027355D01*
X00002403Y00030766D01*
X00002315Y00032D01*
X00002314Y0003325D01*
X00002314Y00033264D01*
X00002314Y00033068D01*
X00002314Y0003325D01*
Y00123302D01*
X000023Y0012337D01*
X00002721Y00125488D01*
X0000396Y00127341D01*
X00005813Y0012858D01*
X00007921Y00128999D01*
X00008004Y00128982D01*
X00009999D01*
Y00128938D01*
X0001268Y00129291D01*
X00015178Y00130326D01*
X00017324Y00131972D01*
X0001897Y00134118D01*
X00020005Y00136616D01*
X00020358Y00139297D01*
X00020315D01*
X00020315Y00139298D01*
Y007735D01*
X00020359D01*
X00020006Y00776181D01*
X00018971Y00778679D01*
X00017325Y00780825D01*
X00015179Y00782471D01*
X00012681Y00783506D01*
X0001Y00783859D01*
Y00783814D01*
X0001Y00783814D01*
X00008D01*
X00007932Y00783801D01*
X00005814Y00784222D01*
X0000396Y0078546D01*
X00002722Y00787314D01*
X00002301Y00789432D01*
X00002315Y007895D01*
Y00868D01*
X00002308Y00868033D01*
X00002671Y00872645D01*
X00003759Y00877176D01*
X00005542Y00881481D01*
X00007977Y00885454D01*
X00011003Y00888997D01*
X00014546Y00892023D01*
X00018519Y00894458D01*
X00022824Y00896241D01*
X00027355Y00897329D01*
X00031906Y00897687D01*
X00031933Y00897682D01*
X00199893D01*
X00199962Y00897695D01*
X00202079Y00897274D01*
D02*
G37*
%LPC*%
G36*
X0080614Y0085234D02*
X007896D01*
Y008358D01*
X0080614D01*
Y0085234D01*
D02*
G37*
G36*
X00738959D02*
X00736781D01*
X00734678Y00851777D01*
X00732792Y00850688D01*
X00731252Y00849148D01*
X00730164Y00847263D01*
X007296Y00845159D01*
Y00842982D01*
X00730164Y00840878D01*
X00731252Y00838993D01*
X00732792Y00837453D01*
X00734678Y00836364D01*
X00736781Y008358D01*
X00738959D01*
X00741062Y00836364D01*
X00742948Y00837453D01*
X00744488Y00838993D01*
X00745576Y00840878D01*
X0074614Y00842982D01*
Y00845159D01*
X00745576Y00847263D01*
X00744488Y00849148D01*
X00742948Y00850688D01*
X00741062Y00851777D01*
X00738959Y0085234D01*
D02*
G37*
G36*
X00726133D02*
X00709593D01*
Y008358D01*
X00726133D01*
Y0085234D01*
D02*
G37*
G36*
X00698952D02*
X00696774D01*
X00694671Y00851777D01*
X00692785Y00850688D01*
X00691245Y00849148D01*
X00690156Y00847263D01*
X00689593Y00845159D01*
Y00842982D01*
X00690156Y00840878D01*
X00691245Y00838993D01*
X00692785Y00837453D01*
X00694671Y00836364D01*
X00696774Y008358D01*
X00698952D01*
X00701055Y00836364D01*
X00702941Y00837453D01*
X00704481Y00838993D01*
X00705569Y00840878D01*
X00706133Y00842982D01*
Y00845159D01*
X00705569Y00847263D01*
X00704481Y00849148D01*
X00702941Y00850688D01*
X00701055Y00851777D01*
X00698952Y0085234D01*
D02*
G37*
G36*
X00678952D02*
X00676774D01*
X00674671Y00851777D01*
X00672785Y00850688D01*
X00671245Y00849148D01*
X00670156Y00847263D01*
X00669593Y00845159D01*
Y00842982D01*
X00670156Y00840878D01*
X00671245Y00838993D01*
X00672785Y00837453D01*
X00674671Y00836364D01*
X00676774Y008358D01*
X00678952D01*
X00681055Y00836364D01*
X00682941Y00837453D01*
X00684481Y00838993D01*
X00685569Y00840878D01*
X00686133Y00842982D01*
Y00845159D01*
X00685569Y00847263D01*
X00684481Y00849148D01*
X00682941Y00850688D01*
X00681055Y00851777D01*
X00678952Y0085234D01*
D02*
G37*
G36*
X00658952D02*
X00656774D01*
X00654671Y00851777D01*
X00652785Y00850688D01*
X00651245Y00849148D01*
X00650156Y00847263D01*
X00649593Y00845159D01*
Y00842982D01*
X00650156Y00840878D01*
X00651245Y00838993D01*
X00652785Y00837453D01*
X00654671Y00836364D01*
X00656774Y008358D01*
X00658952D01*
X00661055Y00836364D01*
X00662941Y00837453D01*
X00664481Y00838993D01*
X00665569Y00840878D01*
X00666133Y00842982D01*
Y00845159D01*
X00665569Y00847263D01*
X00664481Y00849148D01*
X00662941Y00850688D01*
X00661055Y00851777D01*
X00658952Y0085234D01*
D02*
G37*
G36*
X00779028Y0085287D02*
X00776712D01*
X00774473Y00852271D01*
X00772467Y00851112D01*
X00770828Y00849474D01*
X0076967Y00847467D01*
X0076907Y00845229D01*
Y00842912D01*
X0076967Y00840674D01*
X00770828Y00838667D01*
X00772467Y00837029D01*
X00774473Y0083587D01*
X00776712Y0083527D01*
X00779028D01*
X00781267Y0083587D01*
X00783273Y00837029D01*
X00784912Y00838667D01*
X0078607Y00840674D01*
X0078667Y00842912D01*
Y00845229D01*
X0078607Y00847467D01*
X00784912Y00849474D01*
X00783273Y00851112D01*
X00781267Y00852271D01*
X00779028Y0085287D01*
D02*
G37*
G36*
X00334231Y00834375D02*
X0033272D01*
X00331323Y00833796D01*
X00330254Y00832728D01*
X00329676Y00831331D01*
Y00829819D01*
X00330254Y00828422D01*
X00331323Y00827354D01*
X0033272Y00826775D01*
X00334231D01*
X00335628Y00827354D01*
X00336697Y00828422D01*
X00337276Y00829819D01*
Y00831331D01*
X00336697Y00832728D01*
X00335628Y00833796D01*
X00334231Y00834375D01*
D02*
G37*
G36*
X00495556Y0083057D02*
X00494044D01*
X00492648Y00829992D01*
X00491578Y00828923D01*
X00491Y00827526D01*
Y00826014D01*
X00491578Y00824617D01*
X00492648Y00823549D01*
X00494044Y0082297D01*
X00495556D01*
X00496953Y00823549D01*
X00498022Y00824617D01*
X004986Y00826014D01*
Y00827526D01*
X00498022Y00828923D01*
X00496953Y00829992D01*
X00495556Y0083057D01*
D02*
G37*
G36*
X004719Y00816265D02*
X004706D01*
X00469398Y00815767D01*
X00468478Y00814847D01*
X0046798Y00813645D01*
Y00812345D01*
X00468478Y00811143D01*
X00469398Y00810223D01*
X004706Y00809725D01*
X004719D01*
X00473102Y00810223D01*
X00474022Y00811143D01*
X0047452Y00812345D01*
Y00813645D01*
X00474022Y00814847D01*
X00473102Y00815767D01*
X004719Y00816265D01*
D02*
G37*
G36*
X00459595Y0081607D02*
X00458294D01*
X00457093Y00815572D01*
X00456173Y00814652D01*
X00455675Y0081345D01*
Y0081215D01*
X00456173Y00810948D01*
X00457093Y00810028D01*
X00458294Y0080953D01*
X00459595D01*
X00460797Y00810028D01*
X00461717Y00810948D01*
X00462215Y0081215D01*
Y0081345D01*
X00461717Y00814652D01*
X00460797Y00815572D01*
X00459595Y0081607D01*
D02*
G37*
G36*
X0074995Y0081099D02*
X0074865D01*
X00747448Y00810492D01*
X00746528Y00809572D01*
X0074603Y0080837D01*
Y0080707D01*
X00746528Y00805868D01*
X00747448Y00804948D01*
X0074865Y0080445D01*
X0074995D01*
X00751152Y00804948D01*
X00752072Y00805868D01*
X0075257Y0080707D01*
Y0080837D01*
X00752072Y00809572D01*
X00751152Y00810492D01*
X0074995Y0081099D01*
D02*
G37*
G36*
X0071947D02*
X0071817D01*
X00716968Y00810492D01*
X00716048Y00809572D01*
X0071555Y0080837D01*
Y0080707D01*
X00716048Y00805868D01*
X00716968Y00804948D01*
X0071817Y0080445D01*
X0071947D01*
X00720672Y00804948D01*
X00721592Y00805868D01*
X0072209Y0080707D01*
Y0080837D01*
X00721592Y00809572D01*
X00720672Y00810492D01*
X0071947Y0081099D01*
D02*
G37*
G36*
X0070423D02*
X0070293D01*
X00701728Y00810492D01*
X00700808Y00809572D01*
X0070031Y0080837D01*
Y0080707D01*
X00700808Y00805868D01*
X00701728Y00804948D01*
X0070293Y0080445D01*
X0070423D01*
X00705432Y00804948D01*
X00706352Y00805868D01*
X0070685Y0080707D01*
Y0080837D01*
X00706352Y00809572D01*
X00705432Y00810492D01*
X0070423Y0081099D01*
D02*
G37*
G36*
X00611246Y0081152D02*
X00609734D01*
X00608338Y00810941D01*
X00607268Y00809873D01*
X0060669Y00808476D01*
Y00806964D01*
X00607268Y00805567D01*
X00608338Y00804499D01*
X00609734Y0080392D01*
X00611246D01*
X00612643Y00804499D01*
X00613712Y00805567D01*
X0061429Y00806964D01*
Y00808476D01*
X00613712Y00809873D01*
X00612643Y00810941D01*
X00611246Y0081152D01*
D02*
G37*
G36*
X0024957Y0081734D02*
X0024827D01*
X00247068Y00816842D01*
X00246148Y00815922D01*
X0024565Y0081472D01*
Y0081342D01*
X00246148Y00812218D01*
X00247068Y00811298D01*
Y00809932D01*
X00246148Y00809012D01*
X0024565Y00807811D01*
Y0080651D01*
X00246148Y00805308D01*
X00247068Y00804388D01*
X0024827Y0080389D01*
X0024957D01*
X00250772Y00804388D01*
X00251692Y00805308D01*
X0025219Y0080651D01*
Y00807811D01*
X00251692Y00809012D01*
X00250772Y00809932D01*
Y00811298D01*
X00251692Y00812218D01*
X0025219Y0081342D01*
Y0081472D01*
X00251692Y00815922D01*
X00250772Y00816842D01*
X0024957Y0081734D01*
D02*
G37*
G36*
X0044497Y0079448D02*
X0044367D01*
X00442468Y00793982D01*
X00441548Y00793062D01*
X0044105Y0079186D01*
Y0079056D01*
X00441548Y00789358D01*
X00442468Y00788438D01*
X0044367Y0078794D01*
X0044497D01*
X00446172Y00788438D01*
X00447092Y00789358D01*
X0044759Y0079056D01*
Y0079186D01*
X00447092Y00793062D01*
X00446172Y00793982D01*
X0044497Y0079448D01*
D02*
G37*
G36*
X00406766Y0079412D02*
X00405254D01*
X00403857Y00793541D01*
X00402789Y00792473D01*
X0040221Y00791076D01*
Y00789564D01*
X00402789Y00788167D01*
X00403857Y00787098D01*
X00405254Y0078652D01*
X00406766D01*
X00408162Y00787098D01*
X00409231Y00788167D01*
X0040981Y00789564D01*
Y00791076D01*
X00409231Y00792473D01*
X00408162Y00793541D01*
X00406766Y0079412D01*
D02*
G37*
G36*
X00523154Y00787907D02*
X00521642D01*
X00520245Y00787329D01*
X00519176Y0078626D01*
X00518598Y00784863D01*
Y00783352D01*
X00519176Y00781955D01*
X00520245Y00780886D01*
X00521642Y00780308D01*
X00523154D01*
X00524551Y00780886D01*
X00525619Y00781955D01*
X00526198Y00783352D01*
Y00784863D01*
X00525619Y0078626D01*
X00524551Y00787329D01*
X00523154Y00787907D01*
D02*
G37*
G36*
X00811597Y00781089D02*
X00810086D01*
X00808689Y00780511D01*
X0080762Y00779442D01*
X00807042Y00778045D01*
Y00776533D01*
X0080762Y00775137D01*
X00808689Y00774068D01*
X00810086Y00773489D01*
X00811597D01*
X00812994Y00774068D01*
X00814063Y00775137D01*
X00814642Y00776533D01*
Y00778045D01*
X00814063Y00779442D01*
X00812994Y00780511D01*
X00811597Y00781089D01*
D02*
G37*
G36*
X00113074Y0078272D02*
X00110726D01*
X00108457Y00782112D01*
X00106423Y00780938D01*
X00104762Y00779277D01*
X00103588Y00777243D01*
X0010298Y00774974D01*
Y00772626D01*
X00103588Y00770357D01*
X00104762Y00768323D01*
X00106423Y00766662D01*
X00108457Y00765488D01*
X00110726Y0076488D01*
X00113074D01*
X00115343Y00765488D01*
X00117377Y00766662D01*
X00119038Y00768323D01*
X00120212Y00770357D01*
X0012082Y00772626D01*
Y00774974D01*
X00120212Y00777243D01*
X00119038Y00779277D01*
X00117377Y00780938D01*
X00115343Y00782112D01*
X00113074Y0078272D01*
D02*
G37*
G36*
X00087674D02*
X00085326D01*
X00083057Y00782112D01*
X00081023Y00780938D01*
X00079362Y00779277D01*
X00078188Y00777243D01*
X0007758Y00774974D01*
Y00772626D01*
X00078188Y00770357D01*
X00079362Y00768323D01*
X00081023Y00766662D01*
X00083057Y00765488D01*
X00085326Y0076488D01*
X00087674D01*
X00089943Y00765488D01*
X00091977Y00766662D01*
X00093638Y00768323D01*
X00094812Y00770357D01*
X0009542Y00772626D01*
Y00774974D01*
X00094812Y00777243D01*
X00093638Y00779277D01*
X00091977Y00780938D01*
X00089943Y00782112D01*
X00087674Y0078272D01*
D02*
G37*
G36*
X00062274D02*
X00059926D01*
X00057657Y00782112D01*
X00055623Y00780938D01*
X00053962Y00779277D01*
X00052788Y00777243D01*
X0005218Y00774974D01*
Y00772626D01*
X00052788Y00770357D01*
X00053962Y00768323D01*
X00055623Y00766662D01*
X00057657Y00765488D01*
X00059926Y0076488D01*
X00062274D01*
X00064543Y00765488D01*
X00066577Y00766662D01*
X00068238Y00768323D01*
X00069412Y00770357D01*
X0007002Y00772626D01*
Y00774974D01*
X00069412Y00777243D01*
X00068238Y00779277D01*
X00066577Y00780938D01*
X00064543Y00782112D01*
X00062274Y0078272D01*
D02*
G37*
G36*
X00036874D02*
X00034526D01*
X00032257Y00782112D01*
X00030223Y00780938D01*
X00028562Y00779277D01*
X00027388Y00777243D01*
X0002678Y00774974D01*
Y00772626D01*
X00027388Y00770357D01*
X00028562Y00768323D01*
X00030223Y00766662D01*
X00032257Y00765488D01*
X00034526Y0076488D01*
X00036874D01*
X00039143Y00765488D01*
X00041177Y00766662D01*
X00042838Y00768323D01*
X00044012Y00770357D01*
X0004462Y00772626D01*
Y00774974D01*
X00044012Y00777243D01*
X00042838Y00779277D01*
X00041177Y00780938D01*
X00039143Y00782112D01*
X00036874Y0078272D01*
D02*
G37*
G36*
X00579876Y0075056D02*
X00578364D01*
X00576968Y00749982D01*
X00575899Y00748913D01*
X0057532Y00747516D01*
Y00746004D01*
X00575899Y00744607D01*
X00576968Y00743539D01*
X00578364Y0074296D01*
X00579876D01*
X00581273Y00743539D01*
X00582341Y00744607D01*
X0058292Y00746004D01*
Y00747516D01*
X00582341Y00748913D01*
X00581273Y00749982D01*
X00579876Y0075056D01*
D02*
G37*
G36*
X00113074Y0075732D02*
X00110726D01*
X00108457Y00756712D01*
X00106423Y00755538D01*
X00104762Y00753877D01*
X00103588Y00751843D01*
X0010298Y00749574D01*
Y00747226D01*
X00103588Y00744957D01*
X00104762Y00742923D01*
X00106423Y00741262D01*
X00108457Y00740088D01*
X00110726Y0073948D01*
X00113074D01*
X00115343Y00740088D01*
X00117377Y00741262D01*
X00119038Y00742923D01*
X00120212Y00744957D01*
X0012082Y00747226D01*
Y00749574D01*
X00120212Y00751843D01*
X00119038Y00753877D01*
X00117377Y00755538D01*
X00115343Y00756712D01*
X00113074Y0075732D01*
D02*
G37*
G36*
X00087674D02*
X00085326D01*
X00083057Y00756712D01*
X00081023Y00755538D01*
X00079362Y00753877D01*
X00078188Y00751843D01*
X0007758Y00749574D01*
Y00747226D01*
X00078188Y00744957D01*
X00079362Y00742923D01*
X00081023Y00741262D01*
X00083057Y00740088D01*
X00085326Y0073948D01*
X00087674D01*
X00089943Y00740088D01*
X00091977Y00741262D01*
X00093638Y00742923D01*
X00094812Y00744957D01*
X0009542Y00747226D01*
Y00749574D01*
X00094812Y00751843D01*
X00093638Y00753877D01*
X00091977Y00755538D01*
X00089943Y00756712D01*
X00087674Y0075732D01*
D02*
G37*
G36*
X00491356Y0072681D02*
X00489844D01*
X00488447Y00726232D01*
X00487379Y00725163D01*
X004868Y00723766D01*
Y00722254D01*
X00487379Y00720857D01*
X00488447Y00719789D01*
X00489844Y0071921D01*
X00491356D01*
X00492752Y00719789D01*
X00493821Y00720857D01*
X004944Y00722254D01*
Y00723766D01*
X00493821Y00725163D01*
X00492752Y00726232D01*
X00491356Y0072681D01*
D02*
G37*
G36*
X00442336D02*
X00440824D01*
X00439427Y00726232D01*
X00438358Y00725163D01*
X0043778Y00723766D01*
Y00722254D01*
X00438358Y00720857D01*
X00439427Y00719789D01*
X00440824Y0071921D01*
X00442336D01*
X00443732Y00719789D01*
X00444801Y00720857D01*
X0044538Y00722254D01*
Y00723766D01*
X00444801Y00725163D01*
X00443732Y00726232D01*
X00442336Y0072681D01*
D02*
G37*
G36*
X00773385Y00723844D02*
X00772085D01*
X00770883Y00723346D01*
X00769963Y00722427D01*
X00769465Y00721225D01*
Y00719924D01*
X00769963Y00718722D01*
X00770883Y00717802D01*
X00772085Y00717304D01*
X00773385D01*
X00774587Y00717802D01*
X00775507Y00718722D01*
X00776005Y00719924D01*
Y00721225D01*
X00775507Y00722427D01*
X00774587Y00723346D01*
X00773385Y00723844D01*
D02*
G37*
G36*
X00113074Y0073192D02*
X00110726D01*
X00108457Y00731312D01*
X00106423Y00730138D01*
X00104762Y00728477D01*
X00103588Y00726443D01*
X0010298Y00724174D01*
Y00721826D01*
X00103588Y00719557D01*
X00104762Y00717523D01*
X00106423Y00715862D01*
X00108457Y00714688D01*
X00110726Y0071408D01*
X00113074D01*
X00115343Y00714688D01*
X00117377Y00715862D01*
X00119038Y00717523D01*
X00120212Y00719557D01*
X0012082Y00721826D01*
Y00724174D01*
X00120212Y00726443D01*
X00119038Y00728477D01*
X00117377Y00730138D01*
X00115343Y00731312D01*
X00113074Y0073192D01*
D02*
G37*
G36*
X00087674D02*
X00085326D01*
X00083057Y00731312D01*
X00081023Y00730138D01*
X00079362Y00728477D01*
X00078188Y00726443D01*
X0007758Y00724174D01*
Y00721826D01*
X00078188Y00719557D01*
X00079362Y00717523D01*
X00081023Y00715862D01*
X00083057Y00714688D01*
X00085326Y0071408D01*
X00087674D01*
X00089943Y00714688D01*
X00091977Y00715862D01*
X00093638Y00717523D01*
X00094812Y00719557D01*
X0009542Y00721826D01*
Y00724174D01*
X00094812Y00726443D01*
X00093638Y00728477D01*
X00091977Y00730138D01*
X00089943Y00731312D01*
X00087674Y0073192D01*
D02*
G37*
G36*
X00062274D02*
X00059926D01*
X00057657Y00731312D01*
X00055623Y00730138D01*
X00053962Y00728477D01*
X00052788Y00726443D01*
X0005218Y00724174D01*
Y00721826D01*
X00052788Y00719557D01*
X00053962Y00717523D01*
X00055623Y00715862D01*
X00057657Y00714688D01*
X00059926Y0071408D01*
X00062274D01*
X00064543Y00714688D01*
X00066577Y00715862D01*
X00068238Y00717523D01*
X00069412Y00719557D01*
X0007002Y00721826D01*
Y00724174D01*
X00069412Y00726443D01*
X00068238Y00728477D01*
X00066577Y00730138D01*
X00064543Y00731312D01*
X00062274Y0073192D01*
D02*
G37*
G36*
X00036874D02*
X00034526D01*
X00032257Y00731312D01*
X00030223Y00730138D01*
X00028562Y00728477D01*
X00027388Y00726443D01*
X0002678Y00724174D01*
Y00721826D01*
X00027388Y00719557D01*
X00028562Y00717523D01*
X00030223Y00715862D01*
X00032257Y00714688D01*
X00034526Y0071408D01*
X00036874D01*
X00039143Y00714688D01*
X00041177Y00715862D01*
X00042838Y00717523D01*
X00044012Y00719557D01*
X0004462Y00721826D01*
Y00724174D01*
X00044012Y00726443D01*
X00042838Y00728477D01*
X00041177Y00730138D01*
X00039143Y00731312D01*
X00036874Y0073192D01*
D02*
G37*
G36*
X00430618Y00720748D02*
X00429107D01*
X0042771Y00720169D01*
X00426641Y007191D01*
X00426063Y00717703D01*
Y00716192D01*
X00426641Y00714795D01*
X0042771Y00713726D01*
X00429107Y00713148D01*
X00430618D01*
X00432015Y00713726D01*
X00433084Y00714795D01*
X00433662Y00716192D01*
Y00717703D01*
X00433084Y007191D01*
X00432015Y00720169D01*
X00430618Y00720748D01*
D02*
G37*
G36*
X0057469Y0071193D02*
X0057339D01*
X00572188Y00711432D01*
X00571268Y00710512D01*
X0057077Y0070931D01*
Y0070801D01*
X00571268Y00706808D01*
X00572188Y00705888D01*
X0057339Y0070539D01*
X0057469D01*
X00575892Y00705888D01*
X00576812Y00706808D01*
X0057731Y0070801D01*
Y0070931D01*
X00576812Y00710512D01*
X00575892Y00711432D01*
X0057469Y0071193D01*
D02*
G37*
G36*
X00675443Y00705997D02*
X00674142D01*
X0067294Y00705499D01*
X0067202Y00704579D01*
X00671522Y00703377D01*
Y00702076D01*
X0067202Y00700874D01*
X0067294Y00699955D01*
X00674142Y00699457D01*
X00675443D01*
X00676644Y00699955D01*
X00677564Y00700874D01*
X00678062Y00702076D01*
Y00703377D01*
X00677564Y00704579D01*
X00676644Y00705499D01*
X00675443Y00705997D01*
D02*
G37*
G36*
X00685812Y00705485D02*
X00684511D01*
X00683309Y00704987D01*
X00682389Y00704067D01*
X00681891Y00702865D01*
Y00701564D01*
X00682389Y00700362D01*
X00683309Y00699442D01*
X00684511Y00698945D01*
X00685812D01*
X00687014Y00699442D01*
X00687934Y00700362D01*
X00688431Y00701564D01*
Y00702865D01*
X00687934Y00704067D01*
X00687014Y00704987D01*
X00685812Y00705485D01*
D02*
G37*
G36*
X0057469Y00700182D02*
X0057339D01*
X00572188Y00699685D01*
X00571268Y00698765D01*
X0057077Y00697563D01*
Y00696262D01*
X00571268Y0069506D01*
X00572188Y0069414D01*
X0057339Y00693642D01*
X0057469D01*
X00575892Y0069414D01*
X00576812Y0069506D01*
X0057731Y00696262D01*
Y00697563D01*
X00576812Y00698765D01*
X00575892Y00699685D01*
X0057469Y00700182D01*
D02*
G37*
G36*
X00113074Y0070652D02*
X00110726D01*
X00108457Y00705912D01*
X00106423Y00704738D01*
X00104762Y00703077D01*
X00103588Y00701043D01*
X0010298Y00698774D01*
Y00696426D01*
X00103588Y00694157D01*
X00104762Y00692123D01*
X00106423Y00690462D01*
X00108457Y00689288D01*
X00110726Y0068868D01*
X00113074D01*
X00115343Y00689288D01*
X00117377Y00690462D01*
X00119038Y00692123D01*
X00120212Y00694157D01*
X0012082Y00696426D01*
Y00698774D01*
X00120212Y00701043D01*
X00119038Y00703077D01*
X00117377Y00704738D01*
X00115343Y00705912D01*
X00113074Y0070652D01*
D02*
G37*
G36*
X00087674D02*
X00085326D01*
X00083057Y00705912D01*
X00081023Y00704738D01*
X00079362Y00703077D01*
X00078188Y00701043D01*
X0007758Y00698774D01*
Y00696426D01*
X00078188Y00694157D01*
X00079362Y00692123D01*
X00081023Y00690462D01*
X00083057Y00689288D01*
X00085326Y0068868D01*
X00087674D01*
X00089943Y00689288D01*
X00091977Y00690462D01*
X00093638Y00692123D01*
X00094812Y00694157D01*
X0009542Y00696426D01*
Y00698774D01*
X00094812Y00701043D01*
X00093638Y00703077D01*
X00091977Y00704738D01*
X00089943Y00705912D01*
X00087674Y0070652D01*
D02*
G37*
G36*
X00062274D02*
X00059926D01*
X00057657Y00705912D01*
X00055623Y00704738D01*
X00053962Y00703077D01*
X00052788Y00701043D01*
X0005218Y00698774D01*
Y00696426D01*
X00052788Y00694157D01*
X00053962Y00692123D01*
X00055623Y00690462D01*
X00057657Y00689288D01*
X00059926Y0068868D01*
X00062274D01*
X00064543Y00689288D01*
X00066577Y00690462D01*
X00068238Y00692123D01*
X00069412Y00694157D01*
X0007002Y00696426D01*
Y00698774D01*
X00069412Y00701043D01*
X00068238Y00703077D01*
X00066577Y00704738D01*
X00064543Y00705912D01*
X00062274Y0070652D01*
D02*
G37*
G36*
X00036874D02*
X00034526D01*
X00032257Y00705912D01*
X00030223Y00704738D01*
X00028562Y00703077D01*
X00027388Y00701043D01*
X0002678Y00698774D01*
Y00696426D01*
X00027388Y00694157D01*
X00028562Y00692123D01*
X00030223Y00690462D01*
X00032257Y00689288D01*
X00034526Y0068868D01*
X00036874D01*
X00039143Y00689288D01*
X00041177Y00690462D01*
X00042838Y00692123D01*
X00044012Y00694157D01*
X0004462Y00696426D01*
Y00698774D01*
X00044012Y00701043D01*
X00042838Y00703077D01*
X00041177Y00704738D01*
X00039143Y00705912D01*
X00036874Y0070652D01*
D02*
G37*
G36*
X00338074Y00697335D02*
X00311658D01*
X00310686Y00696932D01*
X00310283Y0069596D01*
Y00677269D01*
X00302326D01*
X00302073Y00677164D01*
X003018D01*
X00301606Y00676971D01*
X00301354Y00676866D01*
X00301249Y00676613D01*
X00301056Y0067642D01*
X00300935Y00676129D01*
X00300402Y00675596D01*
X00299705Y00675307D01*
X00298951D01*
X00298255Y00675596D01*
X00297722Y00676129D01*
X00297601Y0067642D01*
X00297408Y00676613D01*
X00297303Y00676866D01*
X0029705Y00676971D01*
X00296857Y00677164D01*
X00296584D01*
X00296331Y00677269D01*
X00150114D01*
X00149142Y00676866D01*
X00148739Y00675894D01*
Y00650032D01*
X00149142Y0064906D01*
X00150114Y00648658D01*
X00338074D01*
X00339046Y0064906D01*
X00339449Y00650032D01*
Y0069596D01*
X00339046Y00696932D01*
X00338074Y00697335D01*
D02*
G37*
G36*
X0063057Y00673793D02*
X0062927D01*
X00628068Y00673295D01*
X00627148Y00672375D01*
X0062665Y00671173D01*
Y00669872D01*
X00627148Y0066867D01*
X00628068Y00667751D01*
X0062927Y00667253D01*
X0063057D01*
X00631772Y00667751D01*
X00632692Y0066867D01*
X0063319Y00669872D01*
Y00671173D01*
X00632692Y00672375D01*
X00631772Y00673295D01*
X0063057Y00673793D01*
D02*
G37*
G36*
X00113074Y0068112D02*
X00110726D01*
X00108457Y00680512D01*
X00106423Y00679338D01*
X00104762Y00677677D01*
X00103588Y00675643D01*
X0010298Y00673374D01*
Y00671026D01*
X00103588Y00668757D01*
X00104762Y00666723D01*
X00106423Y00665062D01*
X00108457Y00663888D01*
X00110726Y0066328D01*
X00113074D01*
X00115343Y00663888D01*
X00117377Y00665062D01*
X00119038Y00666723D01*
X00120212Y00668757D01*
X0012082Y00671026D01*
Y00673374D01*
X00120212Y00675643D01*
X00119038Y00677677D01*
X00117377Y00679338D01*
X00115343Y00680512D01*
X00113074Y0068112D01*
D02*
G37*
G36*
X00087674D02*
X00085326D01*
X00083057Y00680512D01*
X00081023Y00679338D01*
X00079362Y00677677D01*
X00078188Y00675643D01*
X0007758Y00673374D01*
Y00671026D01*
X00078188Y00668757D01*
X00079362Y00666723D01*
X00081023Y00665062D01*
X00083057Y00663888D01*
X00085326Y0066328D01*
X00087674D01*
X00089943Y00663888D01*
X00091977Y00665062D01*
X00093638Y00666723D01*
X00094812Y00668757D01*
X0009542Y00671026D01*
Y00673374D01*
X00094812Y00675643D01*
X00093638Y00677677D01*
X00091977Y00679338D01*
X00089943Y00680512D01*
X00087674Y0068112D01*
D02*
G37*
G36*
X00062274D02*
X00059926D01*
X00057657Y00680512D01*
X00055623Y00679338D01*
X00053962Y00677677D01*
X00052788Y00675643D01*
X0005218Y00673374D01*
Y00671026D01*
X00052788Y00668757D01*
X00053962Y00666723D01*
X00055623Y00665062D01*
X00057657Y00663888D01*
X00059926Y0066328D01*
X00062274D01*
X00064543Y00663888D01*
X00066577Y00665062D01*
X00068238Y00666723D01*
X00069412Y00668757D01*
X0007002Y00671026D01*
Y00673374D01*
X00069412Y00675643D01*
X00068238Y00677677D01*
X00066577Y00679338D01*
X00064543Y00680512D01*
X00062274Y0068112D01*
D02*
G37*
G36*
X00036874D02*
X00034526D01*
X00032257Y00680512D01*
X00030223Y00679338D01*
X00028562Y00677677D01*
X00027388Y00675643D01*
X0002678Y00673374D01*
Y00671026D01*
X00027388Y00668757D01*
X00028562Y00666723D01*
X00030223Y00665062D01*
X00032257Y00663888D01*
X00034526Y0066328D01*
X00036874D01*
X00039143Y00663888D01*
X00041177Y00665062D01*
X00042838Y00666723D01*
X00044012Y00668757D01*
X0004462Y00671026D01*
Y00673374D01*
X00044012Y00675643D01*
X00042838Y00677677D01*
X00041177Y00679338D01*
X00039143Y00680512D01*
X00036874Y0068112D01*
D02*
G37*
G36*
X00834741Y00665646D02*
X0083344D01*
X00832238Y00665148D01*
X00831318Y00664229D01*
X0083082Y00663027D01*
Y00661726D01*
X00831318Y00660524D01*
X00832238Y00659604D01*
X0083344Y00659106D01*
X00834741D01*
X00835942Y00659604D01*
X00836862Y00660524D01*
X0083736Y00661726D01*
Y00663027D01*
X00836862Y00664229D01*
X00835942Y00665148D01*
X00834741Y00665646D01*
D02*
G37*
G36*
X00822117Y0066562D02*
X00820816D01*
X00819614Y00665122D01*
X00818695Y00664202D01*
X00818197Y00663D01*
Y00661699D01*
X00818695Y00660497D01*
X00819614Y00659577D01*
X00820816Y0065908D01*
X00822117D01*
X00823319Y00659577D01*
X00824239Y00660497D01*
X00824737Y00661699D01*
Y00663D01*
X00824239Y00664202D01*
X00823319Y00665122D01*
X00822117Y0066562D01*
D02*
G37*
G36*
X00827395Y0064974D02*
X00826095D01*
X00824893Y00649242D01*
X00823973Y00648322D01*
X00823475Y0064712D01*
Y00645819D01*
X00823973Y00644617D01*
X00824893Y00643698D01*
X00826095Y006432D01*
X00827395D01*
X00828597Y00643698D01*
X00829517Y00644617D01*
X00830015Y00645819D01*
Y0064712D01*
X00829517Y00648322D01*
X00828597Y00649242D01*
X00827395Y0064974D01*
D02*
G37*
G36*
X00870234Y00650461D02*
X00868723D01*
X00867326Y00649882D01*
X00866257Y00648813D01*
X00865678Y00647417D01*
Y00645905D01*
X00866257Y00644508D01*
X00867326Y00643439D01*
X00868723Y00642861D01*
X00870234D01*
X00871631Y00643439D01*
X008727Y00644508D01*
X00873279Y00645905D01*
Y00647417D01*
X008727Y00648813D01*
X00871631Y00649882D01*
X00870234Y00650461D01*
D02*
G37*
G36*
X00113074Y0065572D02*
X00110726D01*
X00108457Y00655112D01*
X00106423Y00653938D01*
X00104762Y00652277D01*
X00103588Y00650243D01*
X0010298Y00647974D01*
Y00645626D01*
X00103588Y00643357D01*
X00104762Y00641323D01*
X00106423Y00639662D01*
X00108457Y00638488D01*
X00110726Y0063788D01*
X00113074D01*
X00115343Y00638488D01*
X00117377Y00639662D01*
X00119038Y00641323D01*
X00120212Y00643357D01*
X0012082Y00645626D01*
Y00647974D01*
X00120212Y00650243D01*
X00119038Y00652277D01*
X00117377Y00653938D01*
X00115343Y00655112D01*
X00113074Y0065572D01*
D02*
G37*
G36*
X00087674D02*
X00085326D01*
X00083057Y00655112D01*
X00081023Y00653938D01*
X00079362Y00652277D01*
X00078188Y00650243D01*
X0007758Y00647974D01*
Y00645626D01*
X00078188Y00643357D01*
X00079362Y00641323D01*
X00081023Y00639662D01*
X00083057Y00638488D01*
X00085326Y0063788D01*
X00087674D01*
X00089943Y00638488D01*
X00091977Y00639662D01*
X00093638Y00641323D01*
X00094812Y00643357D01*
X0009542Y00645626D01*
Y00647974D01*
X00094812Y00650243D01*
X00093638Y00652277D01*
X00091977Y00653938D01*
X00089943Y00655112D01*
X00087674Y0065572D01*
D02*
G37*
G36*
X00062274D02*
X00059926D01*
X00057657Y00655112D01*
X00055623Y00653938D01*
X00053962Y00652277D01*
X00052788Y00650243D01*
X0005218Y00647974D01*
Y00645626D01*
X00052788Y00643357D01*
X00053962Y00641323D01*
X00055623Y00639662D01*
X00057657Y00638488D01*
X00059926Y0063788D01*
X00062274D01*
X00064543Y00638488D01*
X00066577Y00639662D01*
X00068238Y00641323D01*
X00069412Y00643357D01*
X0007002Y00645626D01*
Y00647974D01*
X00069412Y00650243D01*
X00068238Y00652277D01*
X00066577Y00653938D01*
X00064543Y00655112D01*
X00062274Y0065572D01*
D02*
G37*
G36*
X00036874D02*
X00034526D01*
X00032257Y00655112D01*
X00030223Y00653938D01*
X00028562Y00652277D01*
X00027388Y00650243D01*
X0002678Y00647974D01*
Y00645626D01*
X00027388Y00643357D01*
X00028562Y00641323D01*
X00030223Y00639662D01*
X00032257Y00638488D01*
X00034526Y0063788D01*
X00036874D01*
X00039143Y00638488D01*
X00041177Y00639662D01*
X00042838Y00641323D01*
X00044012Y00643357D01*
X0004462Y00645626D01*
Y00647974D01*
X00044012Y00650243D01*
X00042838Y00652277D01*
X00041177Y00653938D01*
X00039143Y00655112D01*
X00036874Y0065572D01*
D02*
G37*
G36*
X0054167Y0064335D02*
X0054037D01*
X00539168Y00642852D01*
X00538248Y00641932D01*
X0053775Y0064073D01*
Y0063943D01*
X00538248Y00638228D01*
X00539168Y00637308D01*
X0054037Y0063681D01*
X0054167D01*
X00542872Y00637308D01*
X00543792Y00638228D01*
X0054429Y0063943D01*
Y0064073D01*
X00543792Y00641932D01*
X00542872Y00642852D01*
X0054167Y0064335D01*
D02*
G37*
G36*
X0046039Y0063573D02*
X0045909D01*
X00457888Y00635232D01*
X00456968Y00634312D01*
X0045647Y0063311D01*
Y0063181D01*
X00456968Y00630608D01*
X00457888Y00629688D01*
X0045909Y0062919D01*
X0046039D01*
X00461592Y00629688D01*
X00462512Y00630608D01*
X0046301Y0063181D01*
Y0063311D01*
X00462512Y00634312D01*
X00461592Y00635232D01*
X0046039Y0063573D01*
D02*
G37*
G36*
X00524803Y0063569D02*
X00523502D01*
X00522301Y00635192D01*
X00521381Y00634273D01*
X00520883Y00633071D01*
Y0063177D01*
X00521381Y00630568D01*
X00522301Y00629648D01*
X00523502Y0062915D01*
X00524803D01*
X00526005Y00629648D01*
X00526925Y00630568D01*
X00527423Y0063177D01*
Y00633071D01*
X00526925Y00634273D01*
X00526005Y00635192D01*
X00524803Y0063569D01*
D02*
G37*
G36*
X0082986Y00634386D02*
X00828559D01*
X00827357Y00633888D01*
X00826437Y00632968D01*
X00825939Y00631766D01*
Y00630466D01*
X00826437Y00629264D01*
X00827357Y00628344D01*
X00828559Y00627846D01*
X0082986D01*
X00831061Y00628344D01*
X00831981Y00629264D01*
X00832479Y00630466D01*
Y00631766D01*
X00831981Y00632968D01*
X00831061Y00633888D01*
X0082986Y00634386D01*
D02*
G37*
G36*
X00113074Y0063032D02*
X00110726D01*
X00108457Y00629712D01*
X00106423Y00628538D01*
X00104762Y00626877D01*
X00103588Y00624843D01*
X0010298Y00622574D01*
Y00620226D01*
X00103588Y00617957D01*
X00104762Y00615923D01*
X00106423Y00614262D01*
X00108457Y00613088D01*
X00110726Y0061248D01*
X00113074D01*
X00115343Y00613088D01*
X00117377Y00614262D01*
X00119038Y00615923D01*
X00120212Y00617957D01*
X0012082Y00620226D01*
Y00622574D01*
X00120212Y00624843D01*
X00119038Y00626877D01*
X00117377Y00628538D01*
X00115343Y00629712D01*
X00113074Y0063032D01*
D02*
G37*
G36*
X00087674D02*
X00085326D01*
X00083057Y00629712D01*
X00081023Y00628538D01*
X00079362Y00626877D01*
X00078188Y00624843D01*
X0007758Y00622574D01*
Y00620226D01*
X00078188Y00617957D01*
X00079362Y00615923D01*
X00081023Y00614262D01*
X00083057Y00613088D01*
X00085326Y0061248D01*
X00087674D01*
X00089943Y00613088D01*
X00091977Y00614262D01*
X00093638Y00615923D01*
X00094812Y00617957D01*
X0009542Y00620226D01*
Y00622574D01*
X00094812Y00624843D01*
X00093638Y00626877D01*
X00091977Y00628538D01*
X00089943Y00629712D01*
X00087674Y0063032D01*
D02*
G37*
G36*
X00062274D02*
X00059926D01*
X00057657Y00629712D01*
X00055623Y00628538D01*
X00053962Y00626877D01*
X00052788Y00624843D01*
X0005218Y00622574D01*
Y00620226D01*
X00052788Y00617957D01*
X00053962Y00615923D01*
X00055623Y00614262D01*
X00057657Y00613088D01*
X00059926Y0061248D01*
X00062274D01*
X00064543Y00613088D01*
X00066577Y00614262D01*
X00068238Y00615923D01*
X00069412Y00617957D01*
X0007002Y00620226D01*
Y00622574D01*
X00069412Y00624843D01*
X00068238Y00626877D01*
X00066577Y00628538D01*
X00064543Y00629712D01*
X00062274Y0063032D01*
D02*
G37*
G36*
X00036874D02*
X00034526D01*
X00032257Y00629712D01*
X00030223Y00628538D01*
X00028562Y00626877D01*
X00027388Y00624843D01*
X0002678Y00622574D01*
Y00620226D01*
X00027388Y00617957D01*
X00028562Y00615923D01*
X00030223Y00614262D01*
X00032257Y00613088D01*
X00034526Y0061248D01*
X00036874D01*
X00039143Y00613088D01*
X00041177Y00614262D01*
X00042838Y00615923D01*
X00044012Y00617957D01*
X0004462Y00620226D01*
Y00622574D01*
X00044012Y00624843D01*
X00042838Y00626877D01*
X00041177Y00628538D01*
X00039143Y00629712D01*
X00036874Y0063032D01*
D02*
G37*
G36*
X008325Y0061795D02*
X008312D01*
X00829998Y00617452D01*
X00829078Y00616532D01*
X0082858Y0061533D01*
Y0061403D01*
X00829078Y00612828D01*
X00829998Y00611908D01*
X008312Y0061141D01*
X008325D01*
X00833702Y00611908D01*
X00834622Y00612828D01*
X0083512Y0061403D01*
Y0061533D01*
X00834622Y00616532D01*
X00833702Y00617452D01*
X008325Y0061795D01*
D02*
G37*
G36*
X00213924Y0061749D02*
X00212623D01*
X00211421Y00616992D01*
X00210501Y00616072D01*
X00210004Y0061487D01*
Y00613569D01*
X00210501Y00612368D01*
X00211421Y00611448D01*
X00212623Y0061095D01*
X00213924D01*
X00215126Y00611448D01*
X00216046Y00612368D01*
X00216544Y00613569D01*
Y0061487D01*
X00216046Y00616072D01*
X00215126Y00616992D01*
X00213924Y0061749D01*
D02*
G37*
G36*
X00157622Y00617442D02*
X00156322D01*
X0015512Y00616944D01*
X001542Y00616024D01*
X00153702Y00614822D01*
Y00613522D01*
X001542Y0061232D01*
X0015512Y006114D01*
X00156322Y00610902D01*
X00157622D01*
X00158824Y006114D01*
X00159744Y0061232D01*
X00160242Y00613522D01*
Y00614822D01*
X00159744Y00616024D01*
X00158824Y00616944D01*
X00157622Y00617442D01*
D02*
G37*
G36*
X00870234Y00618457D02*
X00868723D01*
X00867326Y00617878D01*
X00866257Y00616809D01*
X00865678Y00615413D01*
Y00613901D01*
X00866257Y00612504D01*
X00867326Y00611435D01*
X00868723Y00610857D01*
X00870234D01*
X00871631Y00611435D01*
X008727Y00612504D01*
X00873279Y00613901D01*
Y00615413D01*
X008727Y00616809D01*
X00871631Y00617878D01*
X00870234Y00618457D01*
D02*
G37*
G36*
X00208018Y00607117D02*
X00206717D01*
X00205515Y00606619D01*
X00204596Y00605699D01*
X00204098Y00604497D01*
Y00603197D01*
X00204596Y00601995D01*
X00205515Y00601075D01*
X00206717Y00600577D01*
X00208018D01*
X0020922Y00601075D01*
X0021014Y00601995D01*
X00210638Y00603197D01*
Y00604497D01*
X0021014Y00605699D01*
X0020922Y00606619D01*
X00208018Y00607117D01*
D02*
G37*
G36*
X00214317Y0060227D02*
X00213016D01*
X00211814Y00601772D01*
X00210894Y00600853D01*
X00210396Y00599651D01*
Y0059835D01*
X00210894Y00597148D01*
X00211814Y00596228D01*
X00213016Y0059573D01*
X00214317D01*
X00215519Y00596228D01*
X00216439Y00597148D01*
X00216936Y0059835D01*
Y00599651D01*
X00216439Y00600853D01*
X00215519Y00601772D01*
X00214317Y0060227D01*
D02*
G37*
G36*
X00113074Y0060492D02*
X00110726D01*
X00108457Y00604312D01*
X00106423Y00603138D01*
X00104762Y00601477D01*
X00103588Y00599443D01*
X0010298Y00597174D01*
Y00594826D01*
X00103588Y00592557D01*
X00104762Y00590523D01*
X00106423Y00588862D01*
X00108457Y00587688D01*
X00110726Y0058708D01*
X00113074D01*
X00115343Y00587688D01*
X00117377Y00588862D01*
X00119038Y00590523D01*
X00120212Y00592557D01*
X0012082Y00594826D01*
Y00597174D01*
X00120212Y00599443D01*
X00119038Y00601477D01*
X00117377Y00603138D01*
X00115343Y00604312D01*
X00113074Y0060492D01*
D02*
G37*
G36*
X00087674D02*
X00085326D01*
X00083057Y00604312D01*
X00081023Y00603138D01*
X00079362Y00601477D01*
X00078188Y00599443D01*
X0007758Y00597174D01*
Y00594826D01*
X00078188Y00592557D01*
X00079362Y00590523D01*
X00081023Y00588862D01*
X00083057Y00587688D01*
X00085326Y0058708D01*
X00087674D01*
X00089943Y00587688D01*
X00091977Y00588862D01*
X00093638Y00590523D01*
X00094812Y00592557D01*
X0009542Y00594826D01*
Y00597174D01*
X00094812Y00599443D01*
X00093638Y00601477D01*
X00091977Y00603138D01*
X00089943Y00604312D01*
X00087674Y0060492D01*
D02*
G37*
G36*
X00062274D02*
X00059926D01*
X00057657Y00604312D01*
X00055623Y00603138D01*
X00053962Y00601477D01*
X00052788Y00599443D01*
X0005218Y00597174D01*
Y00594826D01*
X00052788Y00592557D01*
X00053962Y00590523D01*
X00055623Y00588862D01*
X00057657Y00587688D01*
X00059926Y0058708D01*
X00062274D01*
X00064543Y00587688D01*
X00066577Y00588862D01*
X00068238Y00590523D01*
X00069412Y00592557D01*
X0007002Y00594826D01*
Y00597174D01*
X00069412Y00599443D01*
X00068238Y00601477D01*
X00066577Y00603138D01*
X00064543Y00604312D01*
X00062274Y0060492D01*
D02*
G37*
G36*
X00036874D02*
X00034526D01*
X00032257Y00604312D01*
X00030223Y00603138D01*
X00028562Y00601477D01*
X00027388Y00599443D01*
X0002678Y00597174D01*
Y00594826D01*
X00027388Y00592557D01*
X00028562Y00590523D01*
X00030223Y00588862D01*
X00032257Y00587688D01*
X00034526Y0058708D01*
X00036874D01*
X00039143Y00587688D01*
X00041177Y00588862D01*
X00042838Y00590523D01*
X00044012Y00592557D01*
X0004462Y00594826D01*
Y00597174D01*
X00044012Y00599443D01*
X00042838Y00601477D01*
X00041177Y00603138D01*
X00039143Y00604312D01*
X00036874Y0060492D01*
D02*
G37*
G36*
X00578518Y00582318D02*
X00577217D01*
X00576016Y0058182D01*
X00575096Y005809D01*
X00574598Y00579698D01*
Y00578397D01*
X00575096Y00577195D01*
X00576016Y00576275D01*
X00577217Y00575778D01*
X00578518D01*
X0057972Y00576275D01*
X0058064Y00577195D01*
X00581138Y00578397D01*
Y00579698D01*
X0058064Y005809D01*
X0057972Y0058182D01*
X00578518Y00582318D01*
D02*
G37*
G36*
X001467Y0057604D02*
X001454D01*
X00144198Y00575542D01*
X00143278Y00574622D01*
X0014278Y0057342D01*
Y0057212D01*
X00143278Y00570918D01*
X00144198Y00569998D01*
X00145076Y00569634D01*
Y00568327D01*
X00144198Y00567963D01*
X00143278Y00567043D01*
X0014278Y00565841D01*
Y0056454D01*
X00143278Y00563338D01*
X00144198Y00562419D01*
X001454Y00561921D01*
X001467D01*
X00147902Y00562419D01*
X00148822Y00563338D01*
X0014932Y0056454D01*
Y00565841D01*
X00148822Y00567043D01*
X00147902Y00567963D01*
X00147024Y00568327D01*
Y00569634D01*
X00147902Y00569998D01*
X00148822Y00570918D01*
X0014932Y0057212D01*
Y0057342D01*
X00148822Y00574622D01*
X00147902Y00575542D01*
X001467Y0057604D01*
D02*
G37*
G36*
X00113074Y0057952D02*
X00110726D01*
X00108457Y00578912D01*
X00106423Y00577738D01*
X00104762Y00576077D01*
X00103588Y00574043D01*
X0010298Y00571774D01*
Y00569426D01*
X00103588Y00567157D01*
X00104762Y00565123D01*
X00106423Y00563462D01*
X00108457Y00562288D01*
X00110726Y0056168D01*
X00113074D01*
X00115343Y00562288D01*
X00117377Y00563462D01*
X00119038Y00565123D01*
X00120212Y00567157D01*
X0012082Y00569426D01*
Y00571774D01*
X00120212Y00574043D01*
X00119038Y00576077D01*
X00117377Y00577738D01*
X00115343Y00578912D01*
X00113074Y0057952D01*
D02*
G37*
G36*
X00087674D02*
X00085326D01*
X00083057Y00578912D01*
X00081023Y00577738D01*
X00079362Y00576077D01*
X00078188Y00574043D01*
X0007758Y00571774D01*
Y00569426D01*
X00078188Y00567157D01*
X00079362Y00565123D01*
X00081023Y00563462D01*
X00083057Y00562288D01*
X00085326Y0056168D01*
X00087674D01*
X00089943Y00562288D01*
X00091977Y00563462D01*
X00093638Y00565123D01*
X00094812Y00567157D01*
X0009542Y00569426D01*
Y00571774D01*
X00094812Y00574043D01*
X00093638Y00576077D01*
X00091977Y00577738D01*
X00089943Y00578912D01*
X00087674Y0057952D01*
D02*
G37*
G36*
X00062274D02*
X00059926D01*
X00057657Y00578912D01*
X00055623Y00577738D01*
X00053962Y00576077D01*
X00052788Y00574043D01*
X0005218Y00571774D01*
Y00569426D01*
X00052788Y00567157D01*
X00053962Y00565123D01*
X00055623Y00563462D01*
X00057657Y00562288D01*
X00059926Y0056168D01*
X00062274D01*
X00064543Y00562288D01*
X00066577Y00563462D01*
X00068238Y00565123D01*
X00069412Y00567157D01*
X0007002Y00569426D01*
Y00571774D01*
X00069412Y00574043D01*
X00068238Y00576077D01*
X00066577Y00577738D01*
X00064543Y00578912D01*
X00062274Y0057952D01*
D02*
G37*
G36*
X00036874D02*
X00034526D01*
X00032257Y00578912D01*
X00030223Y00577738D01*
X00028562Y00576077D01*
X00027388Y00574043D01*
X0002678Y00571774D01*
Y00569426D01*
X00027388Y00567157D01*
X00028562Y00565123D01*
X00030223Y00563462D01*
X00032257Y00562288D01*
X00034526Y0056168D01*
X00036874D01*
X00039143Y00562288D01*
X00041177Y00563462D01*
X00042838Y00565123D01*
X00044012Y00567157D01*
X0004462Y00569426D01*
Y00571774D01*
X00044012Y00574043D01*
X00042838Y00576077D01*
X00041177Y00577738D01*
X00039143Y00578912D01*
X00036874Y0057952D01*
D02*
G37*
G36*
X00681749Y00554652D02*
X00680448D01*
X00679247Y00554154D01*
X00678327Y00553234D01*
X00677829Y00552032D01*
Y00550731D01*
X00678327Y0054953D01*
X00679247Y0054861D01*
X00680448Y00548112D01*
X00681749D01*
X00682951Y0054861D01*
X00683871Y0054953D01*
X00684369Y00550731D01*
Y00552032D01*
X00683871Y00553234D01*
X00682951Y00554154D01*
X00681749Y00554652D01*
D02*
G37*
G36*
X00142996Y00551424D02*
X00141484D01*
X00140087Y00550845D01*
X00139018Y00549776D01*
X0013844Y0054838D01*
Y00546868D01*
X00139018Y00545471D01*
X00140087Y00544403D01*
X00141484Y00543824D01*
X00142996D01*
X00144392Y00544403D01*
X00145462Y00545471D01*
X0014604Y00546868D01*
Y0054838D01*
X00145462Y00549776D01*
X00144392Y00550845D01*
X00142996Y00551424D01*
D02*
G37*
G36*
X00672826Y00547203D02*
X00671315D01*
X00669918Y00546625D01*
X00668849Y00545556D01*
X00668271Y00544159D01*
Y00542648D01*
X00668849Y00541251D01*
X00669918Y00540182D01*
X00671315Y00539604D01*
X00672826D01*
X00674223Y00540182D01*
X00675292Y00541251D01*
X00675871Y00542648D01*
Y00544159D01*
X00675292Y00545556D01*
X00674223Y00546625D01*
X00672826Y00547203D01*
D02*
G37*
G36*
X00113074Y0055412D02*
X00110726D01*
X00108457Y00553512D01*
X00106423Y00552338D01*
X00104762Y00550677D01*
X00103588Y00548643D01*
X0010298Y00546374D01*
Y00544026D01*
X00103588Y00541757D01*
X00104762Y00539723D01*
X00106423Y00538062D01*
X00108457Y00536888D01*
X00110726Y0053628D01*
X00113074D01*
X00115343Y00536888D01*
X00117377Y00538062D01*
X00119038Y00539723D01*
X00120212Y00541757D01*
X0012082Y00544026D01*
Y00546374D01*
X00120212Y00548643D01*
X00119038Y00550677D01*
X00117377Y00552338D01*
X00115343Y00553512D01*
X00113074Y0055412D01*
D02*
G37*
G36*
X00087674D02*
X00085326D01*
X00083057Y00553512D01*
X00081023Y00552338D01*
X00079362Y00550677D01*
X00078188Y00548643D01*
X0007758Y00546374D01*
Y00544026D01*
X00078188Y00541757D01*
X00079362Y00539723D01*
X00081023Y00538062D01*
X00083057Y00536888D01*
X00085326Y0053628D01*
X00087674D01*
X00089943Y00536888D01*
X00091977Y00538062D01*
X00093638Y00539723D01*
X00094812Y00541757D01*
X0009542Y00544026D01*
Y00546374D01*
X00094812Y00548643D01*
X00093638Y00550677D01*
X00091977Y00552338D01*
X00089943Y00553512D01*
X00087674Y0055412D01*
D02*
G37*
G36*
X00062274D02*
X00059926D01*
X00057657Y00553512D01*
X00055623Y00552338D01*
X00053962Y00550677D01*
X00052788Y00548643D01*
X0005218Y00546374D01*
Y00544026D01*
X00052788Y00541757D01*
X00053962Y00539723D01*
X00055623Y00538062D01*
X00057657Y00536888D01*
X00059926Y0053628D01*
X00062274D01*
X00064543Y00536888D01*
X00066577Y00538062D01*
X00068238Y00539723D01*
X00069412Y00541757D01*
X0007002Y00544026D01*
Y00546374D01*
X00069412Y00548643D01*
X00068238Y00550677D01*
X00066577Y00552338D01*
X00064543Y00553512D01*
X00062274Y0055412D01*
D02*
G37*
G36*
X00036874D02*
X00034526D01*
X00032257Y00553512D01*
X00030223Y00552338D01*
X00028562Y00550677D01*
X00027388Y00548643D01*
X0002678Y00546374D01*
Y00544026D01*
X00027388Y00541757D01*
X00028562Y00539723D01*
X00030223Y00538062D01*
X00032257Y00536888D01*
X00034526Y0053628D01*
X00036874D01*
X00039143Y00536888D01*
X00041177Y00538062D01*
X00042838Y00539723D01*
X00044012Y00541757D01*
X0004462Y00544026D01*
Y00546374D01*
X00044012Y00548643D01*
X00042838Y00550677D01*
X00041177Y00552338D01*
X00039143Y00553512D01*
X00036874Y0055412D01*
D02*
G37*
G36*
X00142996Y005415D02*
X00141484D01*
X00140087Y00540922D01*
X00139018Y00539853D01*
X0013844Y00538456D01*
Y00536944D01*
X00139018Y00535548D01*
X00140087Y00534479D01*
X00141484Y005339D01*
X00142996D01*
X00144392Y00534479D01*
X00145462Y00535548D01*
X0014604Y00536944D01*
Y00538456D01*
X00145462Y00539853D01*
X00144392Y00540922D01*
X00142996Y005415D01*
D02*
G37*
G36*
Y00531576D02*
X00141484D01*
X00140087Y00530998D01*
X00139018Y00529929D01*
X0013844Y00528532D01*
Y0052702D01*
X00139018Y00525624D01*
X00140087Y00524555D01*
X00141484Y00523976D01*
X00142996D01*
X00144392Y00524555D01*
X00145462Y00525624D01*
X0014604Y0052702D01*
Y00528532D01*
X00145462Y00529929D01*
X00144392Y00530998D01*
X00142996Y00531576D01*
D02*
G37*
G36*
X00697792Y005245D02*
X0069628D01*
X00694884Y00523922D01*
X00693815Y00522853D01*
X00693236Y00521456D01*
Y00519944D01*
X00693815Y00518548D01*
X00694884Y00517478D01*
X0069628Y005169D01*
X00697792D01*
X00699189Y00517478D01*
X00700258Y00518548D01*
X00700836Y00519944D01*
Y00521456D01*
X00700258Y00522853D01*
X00699189Y00523922D01*
X00697792Y005245D01*
D02*
G37*
G36*
X00142996Y00521652D02*
X00141484D01*
X00140087Y00521074D01*
X00139018Y00520005D01*
X0013844Y00518608D01*
Y00517096D01*
X00139018Y005157D01*
X00140087Y00514631D01*
X00141484Y00514052D01*
X00142996D01*
X00144392Y00514631D01*
X00145462Y005157D01*
X0014604Y00517096D01*
Y00518608D01*
X00145462Y00520005D01*
X00144392Y00521074D01*
X00142996Y00521652D01*
D02*
G37*
G36*
X00113074Y0052872D02*
X00110726D01*
X00108457Y00528112D01*
X00106423Y00526938D01*
X00104762Y00525277D01*
X00103588Y00523243D01*
X0010298Y00520974D01*
Y00518626D01*
X00103588Y00516357D01*
X00104762Y00514323D01*
X00106423Y00512662D01*
X00108457Y00511488D01*
X00110726Y0051088D01*
X00113074D01*
X00115343Y00511488D01*
X00117377Y00512662D01*
X00119038Y00514323D01*
X00120212Y00516357D01*
X0012082Y00518626D01*
Y00520974D01*
X00120212Y00523243D01*
X00119038Y00525277D01*
X00117377Y00526938D01*
X00115343Y00528112D01*
X00113074Y0052872D01*
D02*
G37*
G36*
X00087674D02*
X00085326D01*
X00083057Y00528112D01*
X00081023Y00526938D01*
X00079362Y00525277D01*
X00078188Y00523243D01*
X0007758Y00520974D01*
Y00518626D01*
X00078188Y00516357D01*
X00079362Y00514323D01*
X00081023Y00512662D01*
X00083057Y00511488D01*
X00085326Y0051088D01*
X00087674D01*
X00089943Y00511488D01*
X00091977Y00512662D01*
X00093638Y00514323D01*
X00094812Y00516357D01*
X0009542Y00518626D01*
Y00520974D01*
X00094812Y00523243D01*
X00093638Y00525277D01*
X00091977Y00526938D01*
X00089943Y00528112D01*
X00087674Y0052872D01*
D02*
G37*
G36*
X00589376Y0051761D02*
X00587864D01*
X00586468Y00517032D01*
X00585398Y00515962D01*
X0058482Y00514566D01*
Y00513054D01*
X00585398Y00511657D01*
X00586468Y00510588D01*
X00587864Y0051001D01*
X00589376D01*
X00590773Y00510588D01*
X00591842Y00511657D01*
X0059242Y00513054D01*
Y00514566D01*
X00591842Y00515962D01*
X00590773Y00517032D01*
X00589376Y0051761D01*
D02*
G37*
G36*
X00142996Y00511729D02*
X00141484D01*
X00140087Y0051115D01*
X00139018Y00510081D01*
X0013844Y00508684D01*
Y00507173D01*
X00139018Y00505776D01*
X00140087Y00504707D01*
X00141484Y00504128D01*
X00142996D01*
X00144392Y00504707D01*
X00145462Y00505776D01*
X0014604Y00507173D01*
Y00508684D01*
X00145462Y00510081D01*
X00144392Y0051115D01*
X00142996Y00511729D01*
D02*
G37*
G36*
X00560209Y0050603D02*
X00558908D01*
X00557706Y00505532D01*
X00556787Y00504612D01*
X00556289Y0050341D01*
Y0050211D01*
X00556787Y00500908D01*
X00557706Y00499988D01*
X00558908Y0049949D01*
X00560209D01*
X00561411Y00499988D01*
X00562331Y00500908D01*
X00562829Y0050211D01*
Y0050341D01*
X00562331Y00504612D01*
X00561411Y00505532D01*
X00560209Y0050603D01*
D02*
G37*
G36*
X00142996Y00501805D02*
X00141484D01*
X00140087Y00501226D01*
X00139018Y00500157D01*
X0013844Y0049876D01*
Y00497249D01*
X00139018Y00495852D01*
X00140087Y00494783D01*
X00141484Y00494205D01*
X00142996D01*
X00144392Y00494783D01*
X00145462Y00495852D01*
X0014604Y00497249D01*
Y0049876D01*
X00145462Y00500157D01*
X00144392Y00501226D01*
X00142996Y00501805D01*
D02*
G37*
G36*
X00113074Y0050332D02*
X00110726D01*
X00108457Y00502712D01*
X00106423Y00501538D01*
X00104762Y00499877D01*
X00103588Y00497843D01*
X0010298Y00495574D01*
Y00493226D01*
X00103588Y00490957D01*
X00104762Y00488923D01*
X00106423Y00487262D01*
X00108457Y00486088D01*
X00110726Y0048548D01*
X00113074D01*
X00115343Y00486088D01*
X00117377Y00487262D01*
X00119038Y00488923D01*
X00120212Y00490957D01*
X0012082Y00493226D01*
Y00495574D01*
X00120212Y00497843D01*
X00119038Y00499877D01*
X00117377Y00501538D01*
X00115343Y00502712D01*
X00113074Y0050332D01*
D02*
G37*
G36*
X00087674D02*
X00085326D01*
X00083057Y00502712D01*
X00081023Y00501538D01*
X00079362Y00499877D01*
X00078188Y00497843D01*
X0007758Y00495574D01*
Y00493226D01*
X00078188Y00490957D01*
X00079362Y00488923D01*
X00081023Y00487262D01*
X00083057Y00486088D01*
X00085326Y0048548D01*
X00087674D01*
X00089943Y00486088D01*
X00091977Y00487262D01*
X00093638Y00488923D01*
X00094812Y00490957D01*
X0009542Y00493226D01*
Y00495574D01*
X00094812Y00497843D01*
X00093638Y00499877D01*
X00091977Y00501538D01*
X00089943Y00502712D01*
X00087674Y0050332D01*
D02*
G37*
G36*
X00197453Y00480304D02*
X00195941D01*
X00194545Y00479725D01*
X00193476Y00478657D01*
X00192897Y0047726D01*
Y00475788D01*
X00192859Y00475695D01*
X00192115Y00474672D01*
X00191462Y00474676D01*
X00190683Y00475748D01*
Y0047726D01*
X00190104Y00478657D01*
X00189035Y00479725D01*
X00187638Y00480304D01*
X00186127D01*
X0018473Y00479725D01*
X00183661Y00478657D01*
X00183083Y0047726D01*
Y00475748D01*
X00183661Y00474352D01*
X0018473Y00473283D01*
X00186127Y00472704D01*
X00187216D01*
X00187982Y0047184D01*
X00188105Y00471531D01*
X00187969Y00471203D01*
Y00469691D01*
X00188139Y00469279D01*
X00187989Y0046893D01*
X00187248Y00468112D01*
X00186127D01*
X0018473Y00467533D01*
X00183661Y00466465D01*
X00183083Y00465068D01*
Y00463556D01*
X00183661Y0046216D01*
X0018473Y00461091D01*
X00186127Y00460512D01*
X00187638D01*
X00189035Y00461091D01*
X00190104Y0046216D01*
X00190683Y00463556D01*
Y00465068D01*
X00190636Y00465179D01*
X00191377Y00466274D01*
X00192195Y00466279D01*
X00192947Y00465188D01*
X00192897Y00465068D01*
Y00463556D01*
X00193476Y0046216D01*
X00194545Y00461091D01*
X00195941Y00460512D01*
X00197453D01*
X0019885Y00461091D01*
X00199919Y0046216D01*
X00200497Y00463556D01*
Y00465068D01*
X00199919Y00466465D01*
X0019885Y00467533D01*
X00197453Y00468112D01*
X00196289D01*
X00195571Y00468882D01*
X00195389Y00469258D01*
X00195569Y00469691D01*
Y00471203D01*
X00195428Y00471542D01*
X00195585Y00471898D01*
X00196322Y00472704D01*
X00197453D01*
X0019885Y00473283D01*
X00199919Y00474352D01*
X00200497Y00475748D01*
Y0047726D01*
X00199919Y00478657D01*
X0019885Y00479725D01*
X00197453Y00480304D01*
D02*
G37*
G36*
X00217301D02*
X00215789D01*
X00214392Y00479725D01*
X00213323Y00478657D01*
X00212745Y0047726D01*
Y00475748D01*
X00213323Y00474352D01*
X00214392Y00473283D01*
X00215789Y00472704D01*
X00217301D01*
X00218697Y00473283D01*
X00219766Y00474352D01*
X00220345Y00475748D01*
Y0047726D01*
X00219766Y00478657D01*
X00218697Y00479725D01*
X00217301Y00480304D01*
D02*
G37*
G36*
X00523185Y00468489D02*
X00521674D01*
X00520277Y0046791D01*
X00519208Y00466842D01*
X00518629Y00465445D01*
Y00463933D01*
X00519208Y00462537D01*
X00520277Y00461468D01*
X00521674Y00460889D01*
X00523185D01*
X00524582Y00461468D01*
X00525651Y00462537D01*
X00526229Y00463933D01*
Y00465445D01*
X00525651Y00466842D01*
X00524582Y0046791D01*
X00523185Y00468489D01*
D02*
G37*
G36*
X00217301Y00468112D02*
X00215789D01*
X00214392Y00467533D01*
X00213323Y00466465D01*
X00212745Y00465068D01*
Y00463556D01*
X00213323Y0046216D01*
X00214392Y00461091D01*
X00215789Y00460512D01*
X00217301D01*
X00218697Y00461091D01*
X00219766Y0046216D01*
X00220345Y00463556D01*
Y00465068D01*
X00219766Y00466465D01*
X00218697Y00467533D01*
X00217301Y00468112D01*
D02*
G37*
G36*
X00207377D02*
X00205865D01*
X00204469Y00467533D01*
X002034Y00466465D01*
X00202821Y00465068D01*
Y00463556D01*
X002034Y0046216D01*
X00204469Y00461091D01*
X00205865Y00460512D01*
X00207377D01*
X00208774Y00461091D01*
X00209843Y0046216D01*
X00210421Y00463556D01*
Y00465068D01*
X00209843Y00466465D01*
X00208774Y00467533D01*
X00207377Y00468112D01*
D02*
G37*
G36*
X00113074Y0047792D02*
X00110726D01*
X00108457Y00477312D01*
X00106423Y00476138D01*
X00104762Y00474477D01*
X00103588Y00472443D01*
X0010298Y00470174D01*
Y00467826D01*
X00103588Y00465557D01*
X00104762Y00463523D01*
X00106423Y00461862D01*
X00108457Y00460688D01*
X00110726Y0046008D01*
X00113074D01*
X00115343Y00460688D01*
X00117377Y00461862D01*
X00119038Y00463523D01*
X00120212Y00465557D01*
X0012082Y00467826D01*
Y00470174D01*
X00120212Y00472443D01*
X00119038Y00474477D01*
X00117377Y00476138D01*
X00115343Y00477312D01*
X00113074Y0047792D01*
D02*
G37*
G36*
X00087674D02*
X00085326D01*
X00083057Y00477312D01*
X00081023Y00476138D01*
X00079362Y00474477D01*
X00078188Y00472443D01*
X0007758Y00470174D01*
Y00467826D01*
X00078188Y00465557D01*
X00079362Y00463523D01*
X00081023Y00461862D01*
X00083057Y00460688D01*
X00085326Y0046008D01*
X00087674D01*
X00089943Y00460688D01*
X00091977Y00461862D01*
X00093638Y00463523D01*
X00094812Y00465557D01*
X0009542Y00467826D01*
Y00470174D01*
X00094812Y00472443D01*
X00093638Y00474477D01*
X00091977Y00476138D01*
X00089943Y00477312D01*
X00087674Y0047792D01*
D02*
G37*
G36*
X00062274D02*
X00059926D01*
X00057657Y00477312D01*
X00055623Y00476138D01*
X00053962Y00474477D01*
X00052788Y00472443D01*
X0005218Y00470174D01*
Y00467826D01*
X00052788Y00465557D01*
X00053962Y00463523D01*
X00055623Y00461862D01*
X00057657Y00460688D01*
X00059926Y0046008D01*
X00062274D01*
X00064543Y00460688D01*
X00066577Y00461862D01*
X00068238Y00463523D01*
X00069412Y00465557D01*
X0007002Y00467826D01*
Y00470174D01*
X00069412Y00472443D01*
X00068238Y00474477D01*
X00066577Y00476138D01*
X00064543Y00477312D01*
X00062274Y0047792D01*
D02*
G37*
G36*
X00036874D02*
X00034526D01*
X00032257Y00477312D01*
X00030223Y00476138D01*
X00028562Y00474477D01*
X00027388Y00472443D01*
X0002678Y00470174D01*
Y00467826D01*
X00027388Y00465557D01*
X00028562Y00463523D01*
X00030223Y00461862D01*
X00032257Y00460688D01*
X00034526Y0046008D01*
X00036874D01*
X00039143Y00460688D01*
X00041177Y00461862D01*
X00042838Y00463523D01*
X00044012Y00465557D01*
X0004462Y00467826D01*
Y00470174D01*
X00044012Y00472443D01*
X00042838Y00474477D01*
X00041177Y00476138D01*
X00039143Y00477312D01*
X00036874Y0047792D01*
D02*
G37*
G36*
X00342445Y00456512D02*
X00341144D01*
X00339942Y00456014D01*
X00339022Y00455094D01*
X00338525Y00453893D01*
Y00452592D01*
X00339022Y0045139D01*
X00339942Y0045047D01*
X00341144Y00449972D01*
X00342445D01*
X00343647Y0045047D01*
X00344567Y0045139D01*
X00345065Y00452592D01*
Y00453893D01*
X00344567Y00455094D01*
X00343647Y00456014D01*
X00342445Y00456512D01*
D02*
G37*
G36*
X0033287D02*
X0033157D01*
X00330368Y00456014D01*
X00329448Y00455094D01*
X0032895Y00453893D01*
Y00452592D01*
X00329448Y0045139D01*
X00330368Y0045047D01*
X0033157Y00449972D01*
X0033287D01*
X00334072Y0045047D01*
X00334992Y0045139D01*
X0033549Y00452592D01*
Y00453893D01*
X00334992Y00455094D01*
X00334072Y00456014D01*
X0033287Y00456512D01*
D02*
G37*
G36*
X00337658Y00447942D02*
X00336357D01*
X00335155Y00447444D01*
X00334235Y00446524D01*
X00333737Y00445322D01*
Y00444021D01*
X00334235Y00442819D01*
X00335155Y00441899D01*
X00336357Y00441402D01*
X00337658D01*
X0033886Y00441899D01*
X0033978Y00442819D01*
X00340277Y00444021D01*
Y00445322D01*
X0033978Y00446524D01*
X0033886Y00447444D01*
X00337658Y00447942D01*
D02*
G37*
G36*
X00580759Y0044396D02*
X00579458D01*
X00578256Y00443462D01*
X00577337Y00442542D01*
X00576839Y0044134D01*
Y0044004D01*
X00577337Y00438838D01*
X00578256Y00437918D01*
X00579458Y0043742D01*
X00580759D01*
X00581961Y00437918D01*
X00582881Y00438838D01*
X00583379Y0044004D01*
Y0044134D01*
X00582881Y00442542D01*
X00581961Y00443462D01*
X00580759Y0044396D01*
D02*
G37*
G36*
X00113074Y0045252D02*
X00110726D01*
X00108457Y00451912D01*
X00106423Y00450738D01*
X00104762Y00449077D01*
X00103588Y00447043D01*
X0010298Y00444774D01*
Y00442426D01*
X00103588Y00440157D01*
X00104762Y00438123D01*
X00106423Y00436462D01*
X00108457Y00435288D01*
X00110726Y0043468D01*
X00113074D01*
X00115343Y00435288D01*
X00117377Y00436462D01*
X00119038Y00438123D01*
X00120212Y00440157D01*
X0012082Y00442426D01*
Y00444774D01*
X00120212Y00447043D01*
X00119038Y00449077D01*
X00117377Y00450738D01*
X00115343Y00451912D01*
X00113074Y0045252D01*
D02*
G37*
G36*
X00087674D02*
X00085326D01*
X00083057Y00451912D01*
X00081023Y00450738D01*
X00079362Y00449077D01*
X00078188Y00447043D01*
X0007758Y00444774D01*
Y00442426D01*
X00078188Y00440157D01*
X00079362Y00438123D01*
X00081023Y00436462D01*
X00083057Y00435288D01*
X00085326Y0043468D01*
X00087674D01*
X00089943Y00435288D01*
X00091977Y00436462D01*
X00093638Y00438123D01*
X00094812Y00440157D01*
X0009542Y00442426D01*
Y00444774D01*
X00094812Y00447043D01*
X00093638Y00449077D01*
X00091977Y00450738D01*
X00089943Y00451912D01*
X00087674Y0045252D01*
D02*
G37*
G36*
X00062344Y0045305D02*
X00059856D01*
X00057452Y00452406D01*
X00055298Y00451162D01*
X00053538Y00449402D01*
X00052294Y00447248D01*
X0005165Y00444844D01*
Y00442356D01*
X00052294Y00439952D01*
X00053538Y00437798D01*
X00055298Y00436038D01*
X00057452Y00434794D01*
X00059856Y0043415D01*
X00062344D01*
X00064748Y00434794D01*
X00066902Y00436038D01*
X00068662Y00437798D01*
X00069906Y00439952D01*
X0007055Y00442356D01*
Y00444844D01*
X00069906Y00447248D01*
X00068662Y00449402D01*
X00066902Y00451162D01*
X00064748Y00452406D01*
X00062344Y0045305D01*
D02*
G37*
G36*
X00036944D02*
X00034456D01*
X00032052Y00452406D01*
X00029898Y00451162D01*
X00028138Y00449402D01*
X00026894Y00447248D01*
X0002625Y00444844D01*
Y00442356D01*
X00026894Y00439952D01*
X00028138Y00437798D01*
X00029898Y00436038D01*
X00032052Y00434794D01*
X00034456Y0043415D01*
X00036944D01*
X00039348Y00434794D01*
X00041502Y00436038D01*
X00043262Y00437798D01*
X00044506Y00439952D01*
X0004515Y00442356D01*
Y00444844D01*
X00044506Y00447248D01*
X00043262Y00449402D01*
X00041502Y00451162D01*
X00039348Y00452406D01*
X00036944Y0045305D01*
D02*
G37*
G36*
X00342445Y00439371D02*
X00341144D01*
X00339942Y00438873D01*
X00339022Y00437953D01*
X00338525Y00436752D01*
Y00435451D01*
X00339022Y00434249D01*
X00339942Y00433329D01*
X00341144Y00432831D01*
X00342445D01*
X00343647Y00433329D01*
X00344567Y00434249D01*
X00345065Y00435451D01*
Y00436752D01*
X00344567Y00437953D01*
X00343647Y00438873D01*
X00342445Y00439371D01*
D02*
G37*
G36*
X0033287D02*
X0033157D01*
X00330368Y00438873D01*
X00329448Y00437953D01*
X0032895Y00436752D01*
Y00435451D01*
X00329448Y00434249D01*
X00330368Y00433329D01*
X0033157Y00432831D01*
X0033287D01*
X00334072Y00433329D01*
X00334992Y00434249D01*
X0033549Y00435451D01*
Y00436752D01*
X00334992Y00437953D01*
X00334072Y00438873D01*
X0033287Y00439371D01*
D02*
G37*
G36*
X00580759Y0042745D02*
X00579458D01*
X00578256Y00426952D01*
X00577337Y00426032D01*
X00576839Y0042483D01*
Y0042353D01*
X00577337Y00422328D01*
X00578256Y00421408D01*
X00579458Y0042091D01*
X00580759D01*
X00581961Y00421408D01*
X00582881Y00422328D01*
X00583379Y0042353D01*
Y0042483D01*
X00582881Y00426032D01*
X00581961Y00426952D01*
X00580759Y0042745D01*
D02*
G37*
G36*
X00671996Y0041782D02*
X00670484D01*
X00669088Y00417242D01*
X00668018Y00416172D01*
X0066744Y00414776D01*
Y00413264D01*
X00668018Y00411867D01*
X00669088Y00410798D01*
X00670484Y0041022D01*
X00671996D01*
X00673392Y00410798D01*
X00674462Y00411867D01*
X0067504Y00413264D01*
Y00414776D01*
X00674462Y00416172D01*
X00673392Y00417242D01*
X00671996Y0041782D01*
D02*
G37*
G36*
X00113074Y0042712D02*
X00110726D01*
X00108457Y00426512D01*
X00106423Y00425338D01*
X00104762Y00423677D01*
X00103588Y00421643D01*
X0010298Y00419374D01*
Y00417026D01*
X00103588Y00414757D01*
X00104762Y00412723D01*
X00106423Y00411062D01*
X00108457Y00409888D01*
X00110726Y0040928D01*
X00113074D01*
X00115343Y00409888D01*
X00117377Y00411062D01*
X00119038Y00412723D01*
X00120212Y00414757D01*
X0012082Y00417026D01*
Y00419374D01*
X00120212Y00421643D01*
X00119038Y00423677D01*
X00117377Y00425338D01*
X00115343Y00426512D01*
X00113074Y0042712D01*
D02*
G37*
G36*
X00087674D02*
X00085326D01*
X00083057Y00426512D01*
X00081023Y00425338D01*
X00079362Y00423677D01*
X00078188Y00421643D01*
X0007758Y00419374D01*
Y00417026D01*
X00078188Y00414757D01*
X00079362Y00412723D01*
X00081023Y00411062D01*
X00083057Y00409888D01*
X00085326Y0040928D01*
X00087674D01*
X00089943Y00409888D01*
X00091977Y00411062D01*
X00093638Y00412723D01*
X00094812Y00414757D01*
X0009542Y00417026D01*
Y00419374D01*
X00094812Y00421643D01*
X00093638Y00423677D01*
X00091977Y00425338D01*
X00089943Y00426512D01*
X00087674Y0042712D01*
D02*
G37*
G36*
X00366118Y004157D02*
X00364817D01*
X00363615Y00415203D01*
X00362695Y00414283D01*
X00362197Y00413081D01*
Y0041178D01*
X00362695Y00410578D01*
X00363615Y00409658D01*
X00364817Y0040916D01*
X00366118D01*
X0036732Y00409658D01*
X00368239Y00410578D01*
X00368737Y0041178D01*
Y00413081D01*
X00368239Y00414283D01*
X0036732Y00415203D01*
X00366118Y004157D01*
D02*
G37*
G36*
X00356543D02*
X00355242D01*
X0035404Y00415203D01*
X00353121Y00414283D01*
X00352623Y00413081D01*
Y0041178D01*
X00353121Y00410578D01*
X0035404Y00409658D01*
X00355242Y0040916D01*
X00356543D01*
X00357745Y00409658D01*
X00358665Y00410578D01*
X00359163Y0041178D01*
Y00413081D01*
X00358665Y00414283D01*
X00357745Y00415203D01*
X00356543Y004157D01*
D02*
G37*
G36*
X00062344Y0042765D02*
X00059856D01*
X00057452Y00427006D01*
X00055298Y00425762D01*
X00053538Y00424002D01*
X00052294Y00421848D01*
X0005165Y00419444D01*
Y00416956D01*
X00052294Y00414552D01*
X00053538Y00412398D01*
X00055298Y00410638D01*
X00057452Y00409394D01*
X00059856Y0040875D01*
X00062344D01*
X00064748Y00409394D01*
X00066902Y00410638D01*
X00068662Y00412398D01*
X00069906Y00414552D01*
X0007055Y00416956D01*
Y00419444D01*
X00069906Y00421848D01*
X00068662Y00424002D01*
X00066902Y00425762D01*
X00064748Y00427006D01*
X00062344Y0042765D01*
D02*
G37*
G36*
X00036944D02*
X00034456D01*
X00032052Y00427006D01*
X00029898Y00425762D01*
X00028138Y00424002D01*
X00026894Y00421848D01*
X0002625Y00419444D01*
Y00416956D01*
X00026894Y00414552D01*
X00028138Y00412398D01*
X00029898Y00410638D01*
X00032052Y00409394D01*
X00034456Y0040875D01*
X00036944D01*
X00039348Y00409394D01*
X00041502Y00410638D01*
X00043262Y00412398D01*
X00044506Y00414552D01*
X0004515Y00416956D01*
Y00419444D01*
X00044506Y00421848D01*
X00043262Y00424002D01*
X00041502Y00425762D01*
X00039348Y00427006D01*
X00036944Y0042765D01*
D02*
G37*
G36*
X00761193Y0040953D02*
X00759681D01*
X00758285Y00408952D01*
X00757216Y00407883D01*
X00756637Y00406486D01*
Y00404975D01*
X00757216Y00403578D01*
X00758285Y00402509D01*
X00759681Y00401931D01*
X00761193D01*
X0076259Y00402509D01*
X00763659Y00403578D01*
X00764237Y00404975D01*
Y00406486D01*
X00763659Y00407883D01*
X0076259Y00408952D01*
X00761193Y0040953D01*
D02*
G37*
G36*
X00751619D02*
X00750107D01*
X0074871Y00408952D01*
X00747641Y00407883D01*
X00747063Y00406486D01*
Y00404975D01*
X00747641Y00403578D01*
X0074871Y00402509D01*
X00750107Y00401931D01*
X00751619D01*
X00753015Y00402509D01*
X00754084Y00403578D01*
X00754663Y00404975D01*
Y00406486D01*
X00754084Y00407883D01*
X00753015Y00408952D01*
X00751619Y0040953D01*
D02*
G37*
G36*
X00450075Y00408913D02*
X00448563D01*
X00447167Y00408334D01*
X00446098Y00407265D01*
X00445519Y00405868D01*
Y00404357D01*
X00446098Y0040296D01*
X00447167Y00401891D01*
X00448563Y00401312D01*
X00450075D01*
X00451472Y00401891D01*
X00452541Y0040296D01*
X00453119Y00404357D01*
Y00405868D01*
X00452541Y00407265D01*
X00451472Y00408334D01*
X00450075Y00408913D01*
D02*
G37*
G36*
X00428027D02*
X00426515D01*
X00425118Y00408334D01*
X00424049Y00407265D01*
X00423471Y00405868D01*
Y00404357D01*
X00424049Y0040296D01*
X00425118Y00401891D01*
X00426515Y00401312D01*
X00428027D01*
X00429423Y00401891D01*
X00430492Y0040296D01*
X00431071Y00404357D01*
Y00405868D01*
X00430492Y00407265D01*
X00429423Y00408334D01*
X00428027Y00408913D01*
D02*
G37*
G36*
X0036133Y0040713D02*
X0036003D01*
X00358828Y00406632D01*
X00357908Y00405712D01*
X0035741Y0040451D01*
Y0040321D01*
X00357908Y00402008D01*
X00358828Y00401088D01*
X0036003Y0040059D01*
X0036133D01*
X00362532Y00401088D01*
X00363452Y00402008D01*
X0036395Y0040321D01*
Y0040451D01*
X00363452Y00405712D01*
X00362532Y00406632D01*
X0036133Y0040713D01*
D02*
G37*
G36*
X00756406Y0040096D02*
X00754894D01*
X00753497Y00400382D01*
X00752429Y00399313D01*
X0075185Y00397916D01*
Y00396404D01*
X00752429Y00395008D01*
X00753497Y00393938D01*
X00754894Y0039336D01*
X00756406D01*
X00757803Y00393938D01*
X00758872Y00395008D01*
X0075945Y00396404D01*
Y00397916D01*
X00758872Y00399313D01*
X00757803Y00400382D01*
X00756406Y0040096D01*
D02*
G37*
G36*
X00366118Y00398559D02*
X00364817D01*
X00363615Y00398062D01*
X00362695Y00397142D01*
X00362197Y0039594D01*
Y00394639D01*
X00362695Y00393437D01*
X00363615Y00392517D01*
X00364817Y0039202D01*
X00366118D01*
X0036732Y00392517D01*
X00368239Y00393437D01*
X00368737Y00394639D01*
Y0039594D01*
X00368239Y00397142D01*
X0036732Y00398062D01*
X00366118Y00398559D01*
D02*
G37*
G36*
X00356543D02*
X00355242D01*
X0035404Y00398062D01*
X00353121Y00397142D01*
X00352623Y0039594D01*
Y00394639D01*
X00353121Y00393437D01*
X0035404Y00392517D01*
X00355242Y0039202D01*
X00356543D01*
X00357745Y00392517D01*
X00358665Y00393437D01*
X00359163Y00394639D01*
Y0039594D01*
X00358665Y00397142D01*
X00357745Y00398062D01*
X00356543Y00398559D01*
D02*
G37*
G36*
X00266316Y00395427D02*
X00264805D01*
X00263408Y00394849D01*
X00262339Y0039378D01*
X00261761Y00392383D01*
Y00390871D01*
X00262339Y00389475D01*
X00263408Y00388406D01*
X00264805Y00387827D01*
X00266316D01*
X00267713Y00388406D01*
X00268782Y00389475D01*
X00269361Y00390871D01*
Y00392383D01*
X00268782Y0039378D01*
X00267713Y00394849D01*
X00266316Y00395427D01*
D02*
G37*
G36*
X00256742D02*
X0025523D01*
X00253834Y00394849D01*
X00252765Y0039378D01*
X00252186Y00392383D01*
Y00390871D01*
X00252765Y00389475D01*
X00253834Y00388406D01*
X0025523Y00387827D01*
X00256742D01*
X00258139Y00388406D01*
X00259207Y00389475D01*
X00259786Y00390871D01*
Y00392383D01*
X00259207Y0039378D01*
X00258139Y00394849D01*
X00256742Y00395427D01*
D02*
G37*
G36*
X003089Y00395427D02*
X00307388D01*
X00305991Y00394849D01*
X00304923Y0039378D01*
X00304344Y00392383D01*
Y00390871D01*
X00304923Y00389475D01*
X00305991Y00388406D01*
X00307388Y00387827D01*
X003089D01*
X00310296Y00388406D01*
X00311365Y00389475D01*
X00311944Y00390871D01*
Y00392383D01*
X00311365Y0039378D01*
X00310296Y00394849D01*
X003089Y00395427D01*
D02*
G37*
G36*
X00299325D02*
X00297814D01*
X00296417Y00394849D01*
X00295348Y0039378D01*
X00294769Y00392383D01*
Y00390871D01*
X00295348Y00389475D01*
X00296417Y00388406D01*
X00297814Y00387827D01*
X00299325D01*
X00300722Y00388406D01*
X00301791Y00389475D01*
X00302369Y00390871D01*
Y00392383D01*
X00301791Y0039378D01*
X00300722Y00394849D01*
X00299325Y00395427D01*
D02*
G37*
G36*
X00761193Y00392389D02*
X00759681D01*
X00758285Y00391811D01*
X00757216Y00390742D01*
X00756637Y00389345D01*
Y00387834D01*
X00757216Y00386437D01*
X00758285Y00385368D01*
X00759681Y0038479D01*
X00761193D01*
X0076259Y00385368D01*
X00763659Y00386437D01*
X00764237Y00387834D01*
Y00389345D01*
X00763659Y00390742D01*
X0076259Y00391811D01*
X00761193Y00392389D01*
D02*
G37*
G36*
X00751619D02*
X00750107D01*
X0074871Y00391811D01*
X00747641Y00390742D01*
X00747063Y00389345D01*
Y00387834D01*
X00747641Y00386437D01*
X0074871Y00385368D01*
X00750107Y0038479D01*
X00751619D01*
X00753015Y00385368D01*
X00754084Y00386437D01*
X00754663Y00387834D01*
Y00389345D01*
X00754084Y00390742D01*
X00753015Y00391811D01*
X00751619Y00392389D01*
D02*
G37*
G36*
X00113074Y0040172D02*
X00110726D01*
X00108457Y00401112D01*
X00106423Y00399938D01*
X00104762Y00398277D01*
X00103588Y00396243D01*
X0010298Y00393974D01*
Y00391626D01*
X00103588Y00389357D01*
X00104762Y00387323D01*
X00106423Y00385662D01*
X00108457Y00384488D01*
X00110726Y0038388D01*
X00113074D01*
X00115343Y00384488D01*
X00117377Y00385662D01*
X00119038Y00387323D01*
X00120212Y00389357D01*
X0012082Y00391626D01*
Y00393974D01*
X00120212Y00396243D01*
X00119038Y00398277D01*
X00117377Y00399938D01*
X00115343Y00401112D01*
X00113074Y0040172D01*
D02*
G37*
G36*
X00087674D02*
X00085326D01*
X00083057Y00401112D01*
X00081023Y00399938D01*
X00079362Y00398277D01*
X00078188Y00396243D01*
X0007758Y00393974D01*
Y00391626D01*
X00078188Y00389357D01*
X00079362Y00387323D01*
X00081023Y00385662D01*
X00083057Y00384488D01*
X00085326Y0038388D01*
X00087674D01*
X00089943Y00384488D01*
X00091977Y00385662D01*
X00093638Y00387323D01*
X00094812Y00389357D01*
X0009542Y00391626D01*
Y00393974D01*
X00094812Y00396243D01*
X00093638Y00398277D01*
X00091977Y00399938D01*
X00089943Y00401112D01*
X00087674Y0040172D01*
D02*
G37*
G36*
X00062274D02*
X00059926D01*
X00057657Y00401112D01*
X00055623Y00399938D01*
X00053962Y00398277D01*
X00052788Y00396243D01*
X0005218Y00393974D01*
Y00391626D01*
X00052788Y00389357D01*
X00053962Y00387323D01*
X00055623Y00385662D01*
X00057657Y00384488D01*
X00059926Y0038388D01*
X00062274D01*
X00064543Y00384488D01*
X00066577Y00385662D01*
X00068238Y00387323D01*
X00069412Y00389357D01*
X0007002Y00391626D01*
Y00393974D01*
X00069412Y00396243D01*
X00068238Y00398277D01*
X00066577Y00399938D01*
X00064543Y00401112D01*
X00062274Y0040172D01*
D02*
G37*
G36*
X00036874D02*
X00034526D01*
X00032257Y00401112D01*
X00030223Y00399938D01*
X00028562Y00398277D01*
X00027388Y00396243D01*
X0002678Y00393974D01*
Y00391626D01*
X00027388Y00389357D01*
X00028562Y00387323D01*
X00030223Y00385662D01*
X00032257Y00384488D01*
X00034526Y0038388D01*
X00036874D01*
X00039143Y00384488D01*
X00041177Y00385662D01*
X00042838Y00387323D01*
X00044012Y00389357D01*
X0004462Y00391626D01*
Y00393974D01*
X00044012Y00396243D01*
X00042838Y00398277D01*
X00041177Y00399938D01*
X00039143Y00401112D01*
X00036874Y0040172D01*
D02*
G37*
G36*
X00591589Y00390409D02*
X00590078D01*
X00588681Y0038983D01*
X00587612Y00388761D01*
X00587034Y00387365D01*
Y00385853D01*
X00587612Y00384456D01*
X00588681Y00383387D01*
X00590078Y00382809D01*
X00591589D01*
X00592986Y00383387D01*
X00594055Y00384456D01*
X00594633Y00385853D01*
Y00387365D01*
X00594055Y00388761D01*
X00592986Y0038983D01*
X00591589Y00390409D01*
D02*
G37*
G36*
X00261529Y00386857D02*
X00260018D01*
X00258621Y00386278D01*
X00257552Y00385209D01*
X00256973Y00383813D01*
Y00382301D01*
X00257552Y00380904D01*
X00258621Y00379835D01*
X00260018Y00379257D01*
X00261529D01*
X00262926Y00379835D01*
X00263995Y00380904D01*
X00264573Y00382301D01*
Y00383813D01*
X00263995Y00385209D01*
X00262926Y00386278D01*
X00261529Y00386857D01*
D02*
G37*
G36*
X00304112Y00386857D02*
X00302601D01*
X00301204Y00386278D01*
X00300135Y00385209D01*
X00299557Y00383812D01*
Y00382301D01*
X00300135Y00380904D01*
X00301204Y00379835D01*
X00302601Y00379257D01*
X00304112D01*
X00305509Y00379835D01*
X00306578Y00380904D01*
X00307157Y00382301D01*
Y00383812D01*
X00306578Y00385209D01*
X00305509Y00386278D01*
X00304112Y00386857D01*
D02*
G37*
G36*
X00142102Y0038375D02*
X0014059D01*
X00139194Y00383172D01*
X00138125Y00382103D01*
X00137546Y00380706D01*
Y00379195D01*
X00138125Y00377798D01*
X00139194Y00376729D01*
X0014059Y00376151D01*
X00142102D01*
X00143499Y00376729D01*
X00144568Y00377798D01*
X00145146Y00379195D01*
Y00380706D01*
X00144568Y00382103D01*
X00143499Y00383172D01*
X00142102Y0038375D01*
D02*
G37*
G36*
X00266316Y00378286D02*
X00264805D01*
X00263408Y00377708D01*
X00262339Y00376639D01*
X00261761Y00375242D01*
Y0037373D01*
X00262339Y00372334D01*
X00263408Y00371265D01*
X00264805Y00370686D01*
X00266316D01*
X00267713Y00371265D01*
X00268782Y00372334D01*
X00269361Y0037373D01*
Y00375242D01*
X00268782Y00376639D01*
X00267713Y00377708D01*
X00266316Y00378286D01*
D02*
G37*
G36*
X00256742D02*
X0025523D01*
X00253834Y00377708D01*
X00252765Y00376639D01*
X00252186Y00375242D01*
Y0037373D01*
X00252765Y00372334D01*
X00253834Y00371265D01*
X0025523Y00370686D01*
X00256742D01*
X00258139Y00371265D01*
X00259207Y00372334D01*
X00259786Y0037373D01*
Y00375242D01*
X00259207Y00376639D01*
X00258139Y00377708D01*
X00256742Y00378286D01*
D02*
G37*
G36*
X003089Y00378286D02*
X00307388D01*
X00305991Y00377708D01*
X00304923Y00376639D01*
X00304344Y00375242D01*
Y0037373D01*
X00304923Y00372334D01*
X00305991Y00371265D01*
X00307388Y00370686D01*
X003089D01*
X00310296Y00371265D01*
X00311365Y00372334D01*
X00311944Y0037373D01*
Y00375242D01*
X00311365Y00376639D01*
X00310296Y00377708D01*
X003089Y00378286D01*
D02*
G37*
G36*
X00299325D02*
X00297814D01*
X00296417Y00377708D01*
X00295348Y00376639D01*
X00294769Y00375242D01*
Y0037373D01*
X00295348Y00372334D01*
X00296417Y00371265D01*
X00297814Y00370686D01*
X00299325D01*
X00300722Y00371265D01*
X00301791Y00372334D01*
X00302369Y0037373D01*
Y00375242D01*
X00301791Y00376639D01*
X00300722Y00377708D01*
X00299325Y00378286D01*
D02*
G37*
G36*
X00384003Y0037813D02*
X00382491D01*
X00381095Y00377552D01*
X00380026Y00376483D01*
X00379447Y00375086D01*
Y00373575D01*
X00380026Y00372178D01*
X00381095Y00371109D01*
X00382491Y00370531D01*
X00384003D01*
X003854Y00371109D01*
X00386469Y00372178D01*
X00387047Y00373575D01*
Y00375086D01*
X00386469Y00376483D01*
X003854Y00377552D01*
X00384003Y0037813D01*
D02*
G37*
G36*
X00374429D02*
X00372917D01*
X0037152Y00377552D01*
X00370451Y00376483D01*
X00369873Y00375086D01*
Y00373575D01*
X00370451Y00372178D01*
X0037152Y00371109D01*
X00372917Y00370531D01*
X00374429D01*
X00375825Y00371109D01*
X00376894Y00372178D01*
X00377473Y00373575D01*
Y00375086D01*
X00376894Y00376483D01*
X00375825Y00377552D01*
X00374429Y0037813D01*
D02*
G37*
G36*
X00379216Y0036956D02*
X00377704D01*
X00376307Y00368982D01*
X00375238Y00367912D01*
X0037466Y00366516D01*
Y00365004D01*
X00375238Y00363607D01*
X00376307Y00362538D01*
X00377704Y0036196D01*
X00379216D01*
X00380612Y00362538D01*
X00381682Y00363607D01*
X0038226Y00365004D01*
Y00366516D01*
X00381682Y00367912D01*
X00380612Y00368982D01*
X00379216Y0036956D01*
D02*
G37*
G36*
X00500175Y003659D02*
X00498874D01*
X00497672Y00365402D01*
X00496753Y00364483D01*
X00496255Y00363281D01*
Y0036198D01*
X00496753Y00360778D01*
X00497672Y00359858D01*
X00498874Y0035936D01*
X00500175D01*
X00501377Y00359858D01*
X00502297Y00360778D01*
X00502795Y0036198D01*
Y00363281D01*
X00502297Y00364483D01*
X00501377Y00365402D01*
X00500175Y003659D01*
D02*
G37*
G36*
X00113074Y0037632D02*
X00110726D01*
X00108457Y00375712D01*
X00106423Y00374538D01*
X00104762Y00372877D01*
X00103588Y00370843D01*
X0010298Y00368574D01*
Y00366226D01*
X00103588Y00363957D01*
X00104762Y00361923D01*
X00106423Y00360262D01*
X00108457Y00359088D01*
X00110726Y0035848D01*
X00113074D01*
X00115343Y00359088D01*
X00117377Y00360262D01*
X00119038Y00361923D01*
X00120212Y00363957D01*
X0012082Y00366226D01*
Y00368574D01*
X00120212Y00370843D01*
X00119038Y00372877D01*
X00117377Y00374538D01*
X00115343Y00375712D01*
X00113074Y0037632D01*
D02*
G37*
G36*
X00087674D02*
X00085326D01*
X00083057Y00375712D01*
X00081023Y00374538D01*
X00079362Y00372877D01*
X00078188Y00370843D01*
X0007758Y00368574D01*
Y00366226D01*
X00078188Y00363957D01*
X00079362Y00361923D01*
X00081023Y00360262D01*
X00083057Y00359088D01*
X00085326Y0035848D01*
X00087674D01*
X00089943Y00359088D01*
X00091977Y00360262D01*
X00093638Y00361923D01*
X00094812Y00363957D01*
X0009542Y00366226D01*
Y00368574D01*
X00094812Y00370843D01*
X00093638Y00372877D01*
X00091977Y00374538D01*
X00089943Y00375712D01*
X00087674Y0037632D01*
D02*
G37*
G36*
X00062274D02*
X00059926D01*
X00057657Y00375712D01*
X00055623Y00374538D01*
X00053962Y00372877D01*
X00052788Y00370843D01*
X0005218Y00368574D01*
Y00366226D01*
X00052788Y00363957D01*
X00053962Y00361923D01*
X00055623Y00360262D01*
X00057657Y00359088D01*
X00059926Y0035848D01*
X00062274D01*
X00064543Y00359088D01*
X00066577Y00360262D01*
X00068238Y00361923D01*
X00069412Y00363957D01*
X0007002Y00366226D01*
Y00368574D01*
X00069412Y00370843D01*
X00068238Y00372877D01*
X00066577Y00374538D01*
X00064543Y00375712D01*
X00062274Y0037632D01*
D02*
G37*
G36*
X00036874D02*
X00034526D01*
X00032257Y00375712D01*
X00030223Y00374538D01*
X00028562Y00372877D01*
X00027388Y00370843D01*
X0002678Y00368574D01*
Y00366226D01*
X00027388Y00363957D01*
X00028562Y00361923D01*
X00030223Y00360262D01*
X00032257Y00359088D01*
X00034526Y0035848D01*
X00036874D01*
X00039143Y00359088D01*
X00041177Y00360262D01*
X00042838Y00361923D01*
X00044012Y00363957D01*
X0004462Y00366226D01*
Y00368574D01*
X00044012Y00370843D01*
X00042838Y00372877D01*
X00041177Y00374538D01*
X00039143Y00375712D01*
X00036874Y0037632D01*
D02*
G37*
G36*
X00384003Y00360989D02*
X00382491D01*
X00381095Y00360411D01*
X00380026Y00359342D01*
X00379447Y00357945D01*
Y00356434D01*
X00380026Y00355037D01*
X00381095Y00353968D01*
X00382491Y0035339D01*
X00384003D01*
X003854Y00353968D01*
X00386469Y00355037D01*
X00387047Y00356434D01*
Y00357945D01*
X00386469Y00359342D01*
X003854Y00360411D01*
X00384003Y00360989D01*
D02*
G37*
G36*
X00374429D02*
X00372917D01*
X0037152Y00360411D01*
X00370451Y00359342D01*
X00369873Y00357945D01*
Y00356434D01*
X00370451Y00355037D01*
X0037152Y00353968D01*
X00372917Y0035339D01*
X00374429D01*
X00375825Y00353968D01*
X00376894Y00355037D01*
X00377473Y00356434D01*
Y00357945D01*
X00376894Y00359342D01*
X00375825Y00360411D01*
X00374429Y00360989D01*
D02*
G37*
G36*
X00242709Y00356028D02*
X00241408D01*
X00240206Y0035553D01*
X00239286Y0035461D01*
X00238788Y00353409D01*
Y00352108D01*
X00239286Y00350906D01*
X00240206Y00349986D01*
X00241408Y00349488D01*
X00242709D01*
X00243911Y00349986D01*
X0024483Y00350906D01*
X00245328Y00352108D01*
Y00353409D01*
X0024483Y0035461D01*
X00243911Y0035553D01*
X00242709Y00356028D01*
D02*
G37*
G36*
X00554559Y00358504D02*
X00553258D01*
X00552056Y00358006D01*
X00551136Y00357086D01*
X00550638Y00355885D01*
Y00354584D01*
X00551136Y00353382D01*
X00552056Y00352462D01*
X00552829Y00352142D01*
X00552886Y00350791D01*
X00552215Y00350513D01*
X00551295Y00349593D01*
X00550797Y00348391D01*
Y0034709D01*
X00551295Y00345888D01*
X00552215Y00344968D01*
X00553416Y00344471D01*
X00554717D01*
X00555919Y00344968D01*
X00556839Y00345888D01*
X00557337Y0034709D01*
Y00348391D01*
X00556839Y00349593D01*
X00555919Y00350513D01*
X00555146Y00350833D01*
X00555089Y00352184D01*
X0055576Y00352462D01*
X0055668Y00353382D01*
X00557178Y00354584D01*
Y00355885D01*
X0055668Y00357086D01*
X0055576Y00358006D01*
X00554559Y00358504D01*
D02*
G37*
G36*
X00761193Y0034085D02*
X00759681D01*
X00758285Y00340272D01*
X00757216Y00339203D01*
X00756637Y00337806D01*
Y00336295D01*
X00757216Y00334898D01*
X00758285Y00333829D01*
X00759681Y00333251D01*
X00761193D01*
X0076259Y00333829D01*
X00763659Y00334898D01*
X00764237Y00336295D01*
Y00337806D01*
X00763659Y00339203D01*
X0076259Y00340272D01*
X00761193Y0034085D01*
D02*
G37*
G36*
X00751619D02*
X00750107D01*
X0074871Y00340272D01*
X00747641Y00339203D01*
X00747063Y00337806D01*
Y00336295D01*
X00747641Y00334898D01*
X0074871Y00333829D01*
X00750107Y00333251D01*
X00751619D01*
X00753015Y00333829D01*
X00754084Y00334898D01*
X00754663Y00336295D01*
Y00337806D01*
X00754084Y00339203D01*
X00753015Y00340272D01*
X00751619Y0034085D01*
D02*
G37*
G36*
X00113074Y0035092D02*
X00110726D01*
X00108457Y00350312D01*
X00106423Y00349138D01*
X00104762Y00347477D01*
X00103588Y00345443D01*
X0010298Y00343174D01*
Y00340826D01*
X00103588Y00338557D01*
X00104762Y00336523D01*
X00106423Y00334862D01*
X00108457Y00333688D01*
X00110726Y0033308D01*
X00113074D01*
X00115343Y00333688D01*
X00117377Y00334862D01*
X00119038Y00336523D01*
X00120212Y00338557D01*
X0012082Y00340826D01*
Y00343174D01*
X00120212Y00345443D01*
X00119038Y00347477D01*
X00117377Y00349138D01*
X00115343Y00350312D01*
X00113074Y0035092D01*
D02*
G37*
G36*
X00087674D02*
X00085326D01*
X00083057Y00350312D01*
X00081023Y00349138D01*
X00079362Y00347477D01*
X00078188Y00345443D01*
X0007758Y00343174D01*
Y00340826D01*
X00078188Y00338557D01*
X00079362Y00336523D01*
X00081023Y00334862D01*
X00083057Y00333688D01*
X00085326Y0033308D01*
X00087674D01*
X00089943Y00333688D01*
X00091977Y00334862D01*
X00093638Y00336523D01*
X00094812Y00338557D01*
X0009542Y00340826D01*
Y00343174D01*
X00094812Y00345443D01*
X00093638Y00347477D01*
X00091977Y00349138D01*
X00089943Y00350312D01*
X00087674Y0035092D01*
D02*
G37*
G36*
X00062274D02*
X00059926D01*
X00057657Y00350312D01*
X00055623Y00349138D01*
X00053962Y00347477D01*
X00052788Y00345443D01*
X0005218Y00343174D01*
Y00340826D01*
X00052788Y00338557D01*
X00053962Y00336523D01*
X00055623Y00334862D01*
X00057657Y00333688D01*
X00059926Y0033308D01*
X00062274D01*
X00064543Y00333688D01*
X00066577Y00334862D01*
X00068238Y00336523D01*
X00069412Y00338557D01*
X0007002Y00340826D01*
Y00343174D01*
X00069412Y00345443D01*
X00068238Y00347477D01*
X00066577Y00349138D01*
X00064543Y00350312D01*
X00062274Y0035092D01*
D02*
G37*
G36*
X00036874D02*
X00034526D01*
X00032257Y00350312D01*
X00030223Y00349138D01*
X00028562Y00347477D01*
X00027388Y00345443D01*
X0002678Y00343174D01*
Y00340826D01*
X00027388Y00338557D01*
X00028562Y00336523D01*
X00030223Y00334862D01*
X00032257Y00333688D01*
X00034526Y0033308D01*
X00036874D01*
X00039143Y00333688D01*
X00041177Y00334862D01*
X00042838Y00336523D01*
X00044012Y00338557D01*
X0004462Y00340826D01*
Y00343174D01*
X00044012Y00345443D01*
X00042838Y00347477D01*
X00041177Y00349138D01*
X00039143Y00350312D01*
X00036874Y0035092D01*
D02*
G37*
G36*
X00245082Y00343663D02*
X0024357D01*
X00242173Y00343085D01*
X00241104Y00342016D01*
X00240526Y00340619D01*
Y00339107D01*
X00241104Y00337711D01*
X00242009Y00336806D01*
X00241963Y00336579D01*
X00240894Y0033551D01*
X00240316Y00334114D01*
Y00332602D01*
X00240894Y00331205D01*
X00241963Y00330136D01*
X0024336Y00329558D01*
X00244872D01*
X00246268Y00330136D01*
X00247337Y00331205D01*
X00247916Y00332602D01*
Y00334114D01*
X00247337Y0033551D01*
X00246433Y00336414D01*
X00246478Y00336642D01*
X00247547Y00337711D01*
X00248126Y00339107D01*
Y00340619D01*
X00247547Y00342016D01*
X00246478Y00343085D01*
X00245082Y00343663D01*
D02*
G37*
G36*
X00255843Y0033603D02*
X00254542D01*
X0025334Y00335532D01*
X0025242Y00334612D01*
X00251922Y0033341D01*
Y00332109D01*
X0025242Y00330907D01*
X0025334Y00329988D01*
X00254542Y0032949D01*
X00255843D01*
X00257045Y00329988D01*
X00257965Y00330907D01*
X00258462Y00332109D01*
Y0033341D01*
X00257965Y00334612D01*
X00257045Y00335532D01*
X00255843Y0033603D01*
D02*
G37*
G36*
X0031307Y00332775D02*
X0031177D01*
X00310568Y00332277D01*
X00309648Y00331357D01*
X0030915Y00330155D01*
Y00328854D01*
X00309648Y00327653D01*
X00310568Y00326733D01*
X0031177Y00326235D01*
X0031307D01*
X00314272Y00326733D01*
X00315192Y00327653D01*
X0031569Y00328854D01*
Y00330155D01*
X00315192Y00331357D01*
X00314272Y00332277D01*
X0031307Y00332775D01*
D02*
G37*
G36*
X00522724Y00332573D02*
X00521212D01*
X00519815Y00331994D01*
X00518746Y00330925D01*
X00518168Y00329528D01*
Y00328017D01*
X00518746Y0032662D01*
X00519815Y00325551D01*
X00521212Y00324972D01*
X00522724D01*
X0052412Y00325551D01*
X00525189Y0032662D01*
X00525768Y00328017D01*
Y00329528D01*
X00525189Y00330925D01*
X0052412Y00331994D01*
X00522724Y00332573D01*
D02*
G37*
G36*
X00756406Y0033228D02*
X00754894D01*
X00753497Y00331702D01*
X00752429Y00330633D01*
X0075185Y00329236D01*
Y00327724D01*
X00752429Y00326328D01*
X00753497Y00325258D01*
X00754894Y0032468D01*
X00756406D01*
X00757803Y00325258D01*
X00758872Y00326328D01*
X0075945Y00327724D01*
Y00329236D01*
X00758872Y00330633D01*
X00757803Y00331702D01*
X00756406Y0033228D01*
D02*
G37*
G36*
X00404763Y0032712D02*
X00403462D01*
X0040226Y00326622D01*
X0040134Y00325702D01*
X00400842Y003245D01*
Y003232D01*
X0040134Y00321998D01*
X0040226Y00321078D01*
X00403462Y0032058D01*
X00404763D01*
X00405965Y00321078D01*
X00406884Y00321998D01*
X00407382Y003232D01*
Y003245D01*
X00406884Y00325702D01*
X00405965Y00326622D01*
X00404763Y0032712D01*
D02*
G37*
G36*
X00394503D02*
X00393202D01*
X00392001Y00326622D01*
X00391081Y00325702D01*
X00390583Y003245D01*
Y003232D01*
X00391081Y00321998D01*
X00392001Y00321078D01*
X00393202Y0032058D01*
X00394503D01*
X00395705Y00321078D01*
X00396625Y00321998D01*
X00397123Y003232D01*
Y003245D01*
X00396625Y00325702D01*
X00395705Y00326622D01*
X00394503Y0032712D01*
D02*
G37*
G36*
X0030529Y00327103D02*
X00303989D01*
X00302787Y00326605D01*
X00301867Y00325685D01*
X00301369Y00324483D01*
Y00323182D01*
X00301867Y0032198D01*
X00302787Y0032106D01*
X00303989Y00320563D01*
X0030529D01*
X00306491Y0032106D01*
X00307411Y0032198D01*
X00307909Y00323182D01*
Y00324483D01*
X00307411Y00325685D01*
X00306491Y00326605D01*
X0030529Y00327103D01*
D02*
G37*
G36*
X00761193Y00323709D02*
X00759681D01*
X00758285Y00323131D01*
X00757216Y00322062D01*
X00756637Y00320665D01*
Y00319154D01*
X00757216Y00317757D01*
X00758285Y00316688D01*
X00759681Y0031611D01*
X00761193D01*
X0076259Y00316688D01*
X00763659Y00317757D01*
X00764237Y00319154D01*
Y00320665D01*
X00763659Y00322062D01*
X0076259Y00323131D01*
X00761193Y00323709D01*
D02*
G37*
G36*
X00751619D02*
X00750107D01*
X0074871Y00323131D01*
X00747641Y00322062D01*
X00747063Y00320665D01*
Y00319154D01*
X00747641Y00317757D01*
X0074871Y00316688D01*
X00750107Y0031611D01*
X00751619D01*
X00753015Y00316688D01*
X00754084Y00317757D01*
X00754663Y00319154D01*
Y00320665D01*
X00754084Y00322062D01*
X00753015Y00323131D01*
X00751619Y00323709D01*
D02*
G37*
G36*
X00113074Y0032552D02*
X00110726D01*
X00108457Y00324912D01*
X00106423Y00323738D01*
X00104762Y00322077D01*
X00103588Y00320043D01*
X0010298Y00317774D01*
Y00315426D01*
X00103588Y00313157D01*
X00104762Y00311123D01*
X00106423Y00309462D01*
X00108457Y00308288D01*
X00110726Y0030768D01*
X00113074D01*
X00115343Y00308288D01*
X00117377Y00309462D01*
X00119038Y00311123D01*
X00120212Y00313157D01*
X0012082Y00315426D01*
Y00317774D01*
X00120212Y00320043D01*
X00119038Y00322077D01*
X00117377Y00323738D01*
X00115343Y00324912D01*
X00113074Y0032552D01*
D02*
G37*
G36*
X00087674D02*
X00085326D01*
X00083057Y00324912D01*
X00081023Y00323738D01*
X00079362Y00322077D01*
X00078188Y00320043D01*
X0007758Y00317774D01*
Y00315426D01*
X00078188Y00313157D01*
X00079362Y00311123D01*
X00081023Y00309462D01*
X00083057Y00308288D01*
X00085326Y0030768D01*
X00087674D01*
X00089943Y00308288D01*
X00091977Y00309462D01*
X00093638Y00311123D01*
X00094812Y00313157D01*
X0009542Y00315426D01*
Y00317774D01*
X00094812Y00320043D01*
X00093638Y00322077D01*
X00091977Y00323738D01*
X00089943Y00324912D01*
X00087674Y0032552D01*
D02*
G37*
G36*
X00062274D02*
X00059926D01*
X00057657Y00324912D01*
X00055623Y00323738D01*
X00053962Y00322077D01*
X00052788Y00320043D01*
X0005218Y00317774D01*
Y00315426D01*
X00052788Y00313157D01*
X00053962Y00311123D01*
X00055623Y00309462D01*
X00057657Y00308288D01*
X00059926Y0030768D01*
X00062274D01*
X00064543Y00308288D01*
X00066577Y00309462D01*
X00068238Y00311123D01*
X00069412Y00313157D01*
X0007002Y00315426D01*
Y00317774D01*
X00069412Y00320043D01*
X00068238Y00322077D01*
X00066577Y00323738D01*
X00064543Y00324912D01*
X00062274Y0032552D01*
D02*
G37*
G36*
X00036874D02*
X00034526D01*
X00032257Y00324912D01*
X00030223Y00323738D01*
X00028562Y00322077D01*
X00027388Y00320043D01*
X0002678Y00317774D01*
Y00315426D01*
X00027388Y00313157D01*
X00028562Y00311123D01*
X00030223Y00309462D01*
X00032257Y00308288D01*
X00034526Y0030768D01*
X00036874D01*
X00039143Y00308288D01*
X00041177Y00309462D01*
X00042838Y00311123D01*
X00044012Y00313157D01*
X0004462Y00315426D01*
Y00317774D01*
X00044012Y00320043D01*
X00042838Y00322077D01*
X00041177Y00323738D01*
X00039143Y00324912D01*
X00036874Y0032552D01*
D02*
G37*
G36*
X00656189Y00307321D02*
X00654677D01*
X0065328Y00306743D01*
X00652212Y00305674D01*
X00651633Y00304277D01*
Y00302765D01*
X00652212Y00301369D01*
X0065328Y003003D01*
X00654677Y00299721D01*
X00656189D01*
X00657586Y003003D01*
X00658654Y00301369D01*
X00659233Y00302765D01*
Y00304277D01*
X00658654Y00305674D01*
X00657586Y00306743D01*
X00656189Y00307321D01*
D02*
G37*
G36*
X00634747Y00306663D02*
X00633235D01*
X00631838Y00306085D01*
X00630769Y00305016D01*
X00630191Y00303619D01*
Y00302107D01*
X00630769Y00300711D01*
X00631838Y00299642D01*
X00633235Y00299063D01*
X00634747D01*
X00636143Y00299642D01*
X00637212Y00300711D01*
X00637791Y00302107D01*
Y00303619D01*
X00637212Y00305016D01*
X00636143Y00306085D01*
X00634747Y00306663D01*
D02*
G37*
G36*
X00325876Y0030479D02*
X00324364D01*
X00322967Y00304212D01*
X00321898Y00303143D01*
X0032132Y00301746D01*
Y00300234D01*
X00321898Y00298838D01*
X00322967Y00297768D01*
X00324364Y0029719D01*
X00325876D01*
X00327272Y00297768D01*
X00328341Y00298838D01*
X0032892Y00300234D01*
Y00301746D01*
X00328341Y00303143D01*
X00327272Y00304212D01*
X00325876Y0030479D01*
D02*
G37*
G36*
X00291586Y00302758D02*
X00290074D01*
X00288678Y0030218D01*
X00287609Y0030111D01*
X0028703Y00299714D01*
Y00298202D01*
X00287609Y00296805D01*
X00288678Y00295737D01*
X00290074Y00295158D01*
X00291586D01*
X00292983Y00295737D01*
X00294051Y00296805D01*
X0029463Y00298202D01*
Y00299714D01*
X00294051Y0030111D01*
X00292983Y0030218D01*
X00291586Y00302758D01*
D02*
G37*
G36*
X00282303D02*
X00280791D01*
X00279395Y0030218D01*
X00278326Y0030111D01*
X00277747Y00299714D01*
Y00298202D01*
X00278326Y00296805D01*
X00279395Y00295737D01*
X00280791Y00295158D01*
X00282303D01*
X002837Y00295737D01*
X00284769Y00296805D01*
X00285347Y00298202D01*
Y00299714D01*
X00284769Y0030111D01*
X002837Y0030218D01*
X00282303Y00302758D01*
D02*
G37*
G36*
X0027302D02*
X00271509D01*
X00270112Y0030218D01*
X00269043Y0030111D01*
X00268465Y00299714D01*
Y00298202D01*
X00269043Y00296805D01*
X00270112Y00295737D01*
X00271509Y00295158D01*
X0027302D01*
X00274417Y00295737D01*
X00275486Y00296805D01*
X00276065Y00298202D01*
Y00299714D01*
X00275486Y0030111D01*
X00274417Y0030218D01*
X0027302Y00302758D01*
D02*
G37*
G36*
X00256619Y00301541D02*
X00255319D01*
X00254117Y00301044D01*
X00253197Y00300124D01*
X00252699Y00298922D01*
Y00297621D01*
X00253197Y00296419D01*
X00254117Y00295499D01*
X00255319Y00295001D01*
X00256619D01*
X00257821Y00295499D01*
X00258741Y00296419D01*
X00259239Y00297621D01*
Y00298922D01*
X00258741Y00300124D01*
X00257821Y00301044D01*
X00256619Y00301541D01*
D02*
G37*
G36*
X00348556Y0029952D02*
X00347255D01*
X00346053Y00299022D01*
X00345133Y00298102D01*
X00344635Y002969D01*
Y00295599D01*
X00345133Y00294397D01*
X00346053Y00293477D01*
X00347255Y0029298D01*
X00347458D01*
X0034856Y00292915D01*
X00348631Y00291806D01*
Y0029161D01*
X00349129Y00290408D01*
X00350049Y00289488D01*
X00351251Y0028899D01*
X00352552D01*
X00353753Y00289488D01*
X00354673Y00290408D01*
X00355171Y0029161D01*
Y0029291D01*
X00354673Y00294112D01*
X00353753Y00295032D01*
X00352552Y0029553D01*
X00352349D01*
X00351246Y00295595D01*
X00351175Y00296703D01*
Y002969D01*
X00350677Y00298102D01*
X00349757Y00299022D01*
X00348556Y0029952D01*
D02*
G37*
G36*
X00113074Y0030012D02*
X00110726D01*
X00108457Y00299512D01*
X00106423Y00298338D01*
X00104762Y00296677D01*
X00103588Y00294643D01*
X0010298Y00292374D01*
Y00290026D01*
X00103588Y00287757D01*
X00104762Y00285723D01*
X00106423Y00284062D01*
X00108457Y00282888D01*
X00110726Y0028228D01*
X00113074D01*
X00115343Y00282888D01*
X00117377Y00284062D01*
X00119038Y00285723D01*
X00120212Y00287757D01*
X0012082Y00290026D01*
Y00292374D01*
X00120212Y00294643D01*
X00119038Y00296677D01*
X00117377Y00298338D01*
X00115343Y00299512D01*
X00113074Y0030012D01*
D02*
G37*
G36*
X00087674D02*
X00085326D01*
X00083057Y00299512D01*
X00081023Y00298338D01*
X00079362Y00296677D01*
X00078188Y00294643D01*
X0007758Y00292374D01*
Y00290026D01*
X00078188Y00287757D01*
X00079362Y00285723D01*
X00081023Y00284062D01*
X00083057Y00282888D01*
X00085326Y0028228D01*
X00087674D01*
X00089943Y00282888D01*
X00091977Y00284062D01*
X00093638Y00285723D01*
X00094812Y00287757D01*
X0009542Y00290026D01*
Y00292374D01*
X00094812Y00294643D01*
X00093638Y00296677D01*
X00091977Y00298338D01*
X00089943Y00299512D01*
X00087674Y0030012D01*
D02*
G37*
G36*
X00062274D02*
X00059926D01*
X00057657Y00299512D01*
X00055623Y00298338D01*
X00053962Y00296677D01*
X00052788Y00294643D01*
X0005218Y00292374D01*
Y00290026D01*
X00052788Y00287757D01*
X00053962Y00285723D01*
X00055623Y00284062D01*
X00057657Y00282888D01*
X00059926Y0028228D01*
X00062274D01*
X00064543Y00282888D01*
X00066577Y00284062D01*
X00068238Y00285723D01*
X00069412Y00287757D01*
X0007002Y00290026D01*
Y00292374D01*
X00069412Y00294643D01*
X00068238Y00296677D01*
X00066577Y00298338D01*
X00064543Y00299512D01*
X00062274Y0030012D01*
D02*
G37*
G36*
X00036874D02*
X00034526D01*
X00032257Y00299512D01*
X00030223Y00298338D01*
X00028562Y00296677D01*
X00027388Y00294643D01*
X0002678Y00292374D01*
Y00290026D01*
X00027388Y00287757D01*
X00028562Y00285723D01*
X00030223Y00284062D01*
X00032257Y00282888D01*
X00034526Y0028228D01*
X00036874D01*
X00039143Y00282888D01*
X00041177Y00284062D01*
X00042838Y00285723D01*
X00044012Y00287757D01*
X0004462Y00290026D01*
Y00292374D01*
X00044012Y00294643D01*
X00042838Y00296677D01*
X00041177Y00298338D01*
X00039143Y00299512D01*
X00036874Y0030012D01*
D02*
G37*
G36*
X00113074Y0027472D02*
X00110726D01*
X00108457Y00274112D01*
X00106423Y00272938D01*
X00104762Y00271277D01*
X00103588Y00269243D01*
X0010298Y00266974D01*
Y00264626D01*
X00103588Y00262357D01*
X00104762Y00260323D01*
X00106423Y00258662D01*
X00108457Y00257488D01*
X00110726Y0025688D01*
X00113074D01*
X00115343Y00257488D01*
X00117377Y00258662D01*
X00119038Y00260323D01*
X00120212Y00262357D01*
X0012082Y00264626D01*
Y00266974D01*
X00120212Y00269243D01*
X00119038Y00271277D01*
X00117377Y00272938D01*
X00115343Y00274112D01*
X00113074Y0027472D01*
D02*
G37*
G36*
X00087674D02*
X00085326D01*
X00083057Y00274112D01*
X00081023Y00272938D01*
X00079362Y00271277D01*
X00078188Y00269243D01*
X0007758Y00266974D01*
Y00264626D01*
X00078188Y00262357D01*
X00079362Y00260323D01*
X00081023Y00258662D01*
X00083057Y00257488D01*
X00085326Y0025688D01*
X00087674D01*
X00089943Y00257488D01*
X00091977Y00258662D01*
X00093638Y00260323D01*
X00094812Y00262357D01*
X0009542Y00264626D01*
Y00266974D01*
X00094812Y00269243D01*
X00093638Y00271277D01*
X00091977Y00272938D01*
X00089943Y00274112D01*
X00087674Y0027472D01*
D02*
G37*
G36*
X00062274D02*
X00059926D01*
X00057657Y00274112D01*
X00055623Y00272938D01*
X00053962Y00271277D01*
X00052788Y00269243D01*
X0005218Y00266974D01*
Y00264626D01*
X00052788Y00262357D01*
X00053962Y00260323D01*
X00055623Y00258662D01*
X00057657Y00257488D01*
X00059926Y0025688D01*
X00062274D01*
X00064543Y00257488D01*
X00066577Y00258662D01*
X00068238Y00260323D01*
X00069412Y00262357D01*
X0007002Y00264626D01*
Y00266974D01*
X00069412Y00269243D01*
X00068238Y00271277D01*
X00066577Y00272938D01*
X00064543Y00274112D01*
X00062274Y0027472D01*
D02*
G37*
G36*
X00036874D02*
X00034526D01*
X00032257Y00274112D01*
X00030223Y00272938D01*
X00028562Y00271277D01*
X00027388Y00269243D01*
X0002678Y00266974D01*
Y00264626D01*
X00027388Y00262357D01*
X00028562Y00260323D01*
X00030223Y00258662D01*
X00032257Y00257488D01*
X00034526Y0025688D01*
X00036874D01*
X00039143Y00257488D01*
X00041177Y00258662D01*
X00042838Y00260323D01*
X00044012Y00262357D01*
X0004462Y00264626D01*
Y00266974D01*
X00044012Y00269243D01*
X00042838Y00271277D01*
X00041177Y00272938D01*
X00039143Y00274112D01*
X00036874Y0027472D01*
D02*
G37*
G36*
X00761193Y00262619D02*
X00759681D01*
X00758285Y0026204D01*
X00757216Y00260971D01*
X00756637Y00259574D01*
Y00258063D01*
X00757216Y00256666D01*
X00758285Y00255597D01*
X00759681Y00255019D01*
X00761193D01*
X0076259Y00255597D01*
X00763659Y00256666D01*
X00764237Y00258063D01*
Y00259574D01*
X00763659Y00260971D01*
X0076259Y0026204D01*
X00761193Y00262619D01*
D02*
G37*
G36*
X00751619D02*
X00750107D01*
X0074871Y0026204D01*
X00747641Y00260971D01*
X00747063Y00259574D01*
Y00258063D01*
X00747641Y00256666D01*
X0074871Y00255597D01*
X00750107Y00255019D01*
X00751619D01*
X00753015Y00255597D01*
X00754084Y00256666D01*
X00754663Y00258063D01*
Y00259574D01*
X00754084Y00260971D01*
X00753015Y0026204D01*
X00751619Y00262619D01*
D02*
G37*
G36*
X00346196Y00258109D02*
X00344684D01*
X00343288Y00257531D01*
X00342219Y00256462D01*
X0034164Y00255065D01*
Y00253553D01*
X00342219Y00252157D01*
X00343288Y00251088D01*
X00344684Y00250509D01*
X00346196D01*
X00347593Y00251088D01*
X00348661Y00252157D01*
X0034924Y00253553D01*
Y00255065D01*
X00348661Y00256462D01*
X00347593Y00257531D01*
X00346196Y00258109D01*
D02*
G37*
G36*
X00324606D02*
X00323094D01*
X00321698Y00257531D01*
X00320629Y00256462D01*
X0032005Y00255065D01*
Y00253553D01*
X00320629Y00252157D01*
X00321698Y00251088D01*
X00323094Y00250509D01*
X00324606D01*
X00326003Y00251088D01*
X00327071Y00252157D01*
X0032765Y00253553D01*
Y00255065D01*
X00327071Y00256462D01*
X00326003Y00257531D01*
X00324606Y00258109D01*
D02*
G37*
G36*
X00756406Y00254048D02*
X00754894D01*
X00753497Y0025347D01*
X00752429Y002524D01*
X0075185Y00251004D01*
Y00249492D01*
X00752429Y00248095D01*
X00753497Y00247027D01*
X00754894Y00246448D01*
X00756406D01*
X00757803Y00247027D01*
X00758872Y00248095D01*
X0075945Y00249492D01*
Y00251004D01*
X00758872Y002524D01*
X00757803Y0025347D01*
X00756406Y00254048D01*
D02*
G37*
G36*
X00346196Y00248185D02*
X00344684D01*
X00343288Y00247607D01*
X00342219Y00246538D01*
X0034164Y00245141D01*
Y00243629D01*
X00342219Y00242233D01*
X00343288Y00241164D01*
X00344684Y00240585D01*
X00346196D01*
X00347593Y00241164D01*
X00348661Y00242233D01*
X0034924Y00243629D01*
Y00245141D01*
X00348661Y00246538D01*
X00347593Y00247607D01*
X00346196Y00248185D01*
D02*
G37*
G36*
X00324606D02*
X00323094D01*
X00321698Y00247607D01*
X00320629Y00246538D01*
X0032005Y00245141D01*
Y00243629D01*
X00320629Y00242233D01*
X00321698Y00241164D01*
X00323094Y00240585D01*
X00324606D01*
X00326003Y00241164D01*
X00327071Y00242233D01*
X0032765Y00243629D01*
Y00245141D01*
X00327071Y00246538D01*
X00326003Y00247607D01*
X00324606Y00248185D01*
D02*
G37*
G36*
X00761193Y00245478D02*
X00759681D01*
X00758285Y00244899D01*
X00757216Y0024383D01*
X00756637Y00242433D01*
Y00240922D01*
X00757216Y00239525D01*
X00758285Y00238456D01*
X00759681Y00237878D01*
X00761193D01*
X0076259Y00238456D01*
X00763659Y00239525D01*
X00764237Y00240922D01*
Y00242433D01*
X00763659Y0024383D01*
X0076259Y00244899D01*
X00761193Y00245478D01*
D02*
G37*
G36*
X00751619D02*
X00750107D01*
X0074871Y00244899D01*
X00747641Y0024383D01*
X00747063Y00242433D01*
Y00240922D01*
X00747641Y00239525D01*
X0074871Y00238456D01*
X00750107Y00237878D01*
X00751619D01*
X00753015Y00238456D01*
X00754084Y00239525D01*
X00754663Y00240922D01*
Y00242433D01*
X00754084Y0024383D01*
X00753015Y00244899D01*
X00751619Y00245478D01*
D02*
G37*
G36*
X00335414Y0024274D02*
X00333903D01*
X00332506Y00242162D01*
X00331437Y00241092D01*
X00330858Y00239696D01*
Y00238184D01*
X00331437Y00236787D01*
X00332506Y00235718D01*
X00333903Y0023514D01*
X00335414D01*
X00336811Y00235718D01*
X0033788Y00236787D01*
X00338458Y00238184D01*
Y00239696D01*
X0033788Y00241092D01*
X00336811Y00242162D01*
X00335414Y0024274D01*
D02*
G37*
G36*
X00113074Y0024932D02*
X00110726D01*
X00108457Y00248712D01*
X00106423Y00247538D01*
X00104762Y00245877D01*
X00103588Y00243843D01*
X0010298Y00241574D01*
Y00239226D01*
X00103588Y00236957D01*
X00104762Y00234923D01*
X00106423Y00233262D01*
X00108457Y00232088D01*
X00110726Y0023148D01*
X00113074D01*
X00115343Y00232088D01*
X00117377Y00233262D01*
X00119038Y00234923D01*
X00120212Y00236957D01*
X0012082Y00239226D01*
Y00241574D01*
X00120212Y00243843D01*
X00119038Y00245877D01*
X00117377Y00247538D01*
X00115343Y00248712D01*
X00113074Y0024932D01*
D02*
G37*
G36*
X00087674D02*
X00085326D01*
X00083057Y00248712D01*
X00081023Y00247538D01*
X00079362Y00245877D01*
X00078188Y00243843D01*
X0007758Y00241574D01*
Y00239226D01*
X00078188Y00236957D01*
X00079362Y00234923D01*
X00081023Y00233262D01*
X00083057Y00232088D01*
X00085326Y0023148D01*
X00087674D01*
X00089943Y00232088D01*
X00091977Y00233262D01*
X00093638Y00234923D01*
X00094812Y00236957D01*
X0009542Y00239226D01*
Y00241574D01*
X00094812Y00243843D01*
X00093638Y00245877D01*
X00091977Y00247538D01*
X00089943Y00248712D01*
X00087674Y0024932D01*
D02*
G37*
G36*
X00062274D02*
X00059926D01*
X00057657Y00248712D01*
X00055623Y00247538D01*
X00053962Y00245877D01*
X00052788Y00243843D01*
X0005218Y00241574D01*
Y00239226D01*
X00052788Y00236957D01*
X00053962Y00234923D01*
X00055623Y00233262D01*
X00057657Y00232088D01*
X00059926Y0023148D01*
X00062274D01*
X00064543Y00232088D01*
X00066577Y00233262D01*
X00068238Y00234923D01*
X00069412Y00236957D01*
X0007002Y00239226D01*
Y00241574D01*
X00069412Y00243843D01*
X00068238Y00245877D01*
X00066577Y00247538D01*
X00064543Y00248712D01*
X00062274Y0024932D01*
D02*
G37*
G36*
X00036874D02*
X00034526D01*
X00032257Y00248712D01*
X00030223Y00247538D01*
X00028562Y00245877D01*
X00027388Y00243843D01*
X0002678Y00241574D01*
Y00239226D01*
X00027388Y00236957D01*
X00028562Y00234923D01*
X00030223Y00233262D01*
X00032257Y00232088D01*
X00034526Y0023148D01*
X00036874D01*
X00039143Y00232088D01*
X00041177Y00233262D01*
X00042838Y00234923D01*
X00044012Y00236957D01*
X0004462Y00239226D01*
Y00241574D01*
X00044012Y00243843D01*
X00042838Y00245877D01*
X00041177Y00247538D01*
X00039143Y00248712D01*
X00036874Y0024932D01*
D02*
G37*
G36*
X00346196Y00238262D02*
X00344684D01*
X00343288Y00237683D01*
X00342219Y00236614D01*
X0034164Y00235217D01*
Y00233706D01*
X00342219Y00232309D01*
X00343288Y0023124D01*
X00344684Y00230662D01*
X00346196D01*
X00347593Y0023124D01*
X00348661Y00232309D01*
X0034924Y00233706D01*
Y00235217D01*
X00348661Y00236614D01*
X00347593Y00237683D01*
X00346196Y00238262D01*
D02*
G37*
G36*
X00324606D02*
X00323094D01*
X00321698Y00237683D01*
X00320629Y00236614D01*
X0032005Y00235217D01*
Y00233706D01*
X00320629Y00232309D01*
X00321698Y0023124D01*
X00323094Y00230662D01*
X00324606D01*
X00326003Y0023124D01*
X00327071Y00232309D01*
X0032765Y00233706D01*
Y00235217D01*
X00327071Y00236614D01*
X00326003Y00237683D01*
X00324606Y00238262D01*
D02*
G37*
G36*
X00504608Y00229275D02*
X00503307D01*
X00502105Y00228777D01*
X00501185Y00227857D01*
X00500688Y00226656D01*
Y00225355D01*
X00501185Y00224153D01*
X00502105Y00223233D01*
X00503307Y00222735D01*
X00504608D01*
X0050581Y00223233D01*
X0050673Y00224153D01*
X00507228Y00225355D01*
Y00226656D01*
X0050673Y00227857D01*
X0050581Y00228777D01*
X00504608Y00229275D01*
D02*
G37*
G36*
X00276478Y00226264D02*
X00275177D01*
X00273975Y00225766D01*
X00273055Y00224846D01*
X00272557Y00223645D01*
Y00222344D01*
X00273055Y00221142D01*
X00273975Y00220222D01*
X00275177Y00219724D01*
X00276478D01*
X00277679Y00220222D01*
X00278599Y00221142D01*
X00279097Y00222344D01*
Y00223645D01*
X00278599Y00224846D01*
X00277679Y00225766D01*
X00276478Y00226264D01*
D02*
G37*
G36*
X00113074Y0022392D02*
X00110726D01*
X00108457Y00223312D01*
X00106423Y00222138D01*
X00104762Y00220477D01*
X00103588Y00218443D01*
X0010298Y00216174D01*
Y00213826D01*
X00103588Y00211557D01*
X00104762Y00209523D01*
X00106423Y00207862D01*
X00108457Y00206688D01*
X00110726Y0020608D01*
X00113074D01*
X00115343Y00206688D01*
X00117377Y00207862D01*
X00119038Y00209523D01*
X00120212Y00211557D01*
X0012082Y00213826D01*
Y00216174D01*
X00120212Y00218443D01*
X00119038Y00220477D01*
X00117377Y00222138D01*
X00115343Y00223312D01*
X00113074Y0022392D01*
D02*
G37*
G36*
X00087674D02*
X00085326D01*
X00083057Y00223312D01*
X00081023Y00222138D01*
X00079362Y00220477D01*
X00078188Y00218443D01*
X0007758Y00216174D01*
Y00213826D01*
X00078188Y00211557D01*
X00079362Y00209523D01*
X00081023Y00207862D01*
X00083057Y00206688D01*
X00085326Y0020608D01*
X00087674D01*
X00089943Y00206688D01*
X00091977Y00207862D01*
X00093638Y00209523D01*
X00094812Y00211557D01*
X0009542Y00213826D01*
Y00216174D01*
X00094812Y00218443D01*
X00093638Y00220477D01*
X00091977Y00222138D01*
X00089943Y00223312D01*
X00087674Y0022392D01*
D02*
G37*
G36*
X00062274D02*
X00059926D01*
X00057657Y00223312D01*
X00055623Y00222138D01*
X00053962Y00220477D01*
X00052788Y00218443D01*
X0005218Y00216174D01*
Y00213826D01*
X00052788Y00211557D01*
X00053962Y00209523D01*
X00055623Y00207862D01*
X00057657Y00206688D01*
X00059926Y0020608D01*
X00062274D01*
X00064543Y00206688D01*
X00066577Y00207862D01*
X00068238Y00209523D01*
X00069412Y00211557D01*
X0007002Y00213826D01*
Y00216174D01*
X00069412Y00218443D01*
X00068238Y00220477D01*
X00066577Y00222138D01*
X00064543Y00223312D01*
X00062274Y0022392D01*
D02*
G37*
G36*
X00036874D02*
X00034526D01*
X00032257Y00223312D01*
X00030223Y00222138D01*
X00028562Y00220477D01*
X00027388Y00218443D01*
X0002678Y00216174D01*
Y00213826D01*
X00027388Y00211557D01*
X00028562Y00209523D01*
X00030223Y00207862D01*
X00032257Y00206688D01*
X00034526Y0020608D01*
X00036874D01*
X00039143Y00206688D01*
X00041177Y00207862D01*
X00042838Y00209523D01*
X00044012Y00211557D01*
X0004462Y00213826D01*
Y00216174D01*
X00044012Y00218443D01*
X00042838Y00220477D01*
X00041177Y00222138D01*
X00039143Y00223312D01*
X00036874Y0022392D01*
D02*
G37*
G36*
X00686711Y00207656D02*
X0068541D01*
X00684208Y00207159D01*
X00683288Y00206239D01*
X00682791Y00205037D01*
Y00203736D01*
X00683288Y00202534D01*
X00684208Y00201614D01*
X0068541Y00201117D01*
X00686711D01*
X00687913Y00201614D01*
X00688833Y00202534D01*
X00689331Y00203736D01*
Y00205037D01*
X00688833Y00206239D01*
X00687913Y00207159D01*
X00686711Y00207656D01*
D02*
G37*
G36*
X00676787D02*
X00675486D01*
X00674285Y00207159D01*
X00673365Y00206239D01*
X00672867Y00205037D01*
Y00203736D01*
X00673365Y00202534D01*
X00674285Y00201614D01*
X00675486Y00201117D01*
X00676787D01*
X00677989Y00201614D01*
X00678909Y00202534D01*
X00679407Y00203736D01*
Y00205037D01*
X00678909Y00206239D01*
X00677989Y00207159D01*
X00676787Y00207656D01*
D02*
G37*
G36*
X00666863D02*
X00665563D01*
X00664361Y00207159D01*
X00663441Y00206239D01*
X00662943Y00205037D01*
Y00203736D01*
X00663441Y00202534D01*
X00664361Y00201614D01*
X00665563Y00201117D01*
X00666863D01*
X00668065Y00201614D01*
X00668985Y00202534D01*
X00669483Y00203736D01*
Y00205037D01*
X00668985Y00206239D01*
X00668065Y00207159D01*
X00666863Y00207656D01*
D02*
G37*
G36*
X00656939D02*
X00655639D01*
X00654437Y00207159D01*
X00653517Y00206239D01*
X00653019Y00205037D01*
Y00203736D01*
X00653517Y00202534D01*
X00654437Y00201614D01*
X00655639Y00201117D01*
X00656939D01*
X00658141Y00201614D01*
X00659061Y00202534D01*
X00659559Y00203736D01*
Y00205037D01*
X00659061Y00206239D01*
X00658141Y00207159D01*
X00656939Y00207656D01*
D02*
G37*
G36*
X00647016D02*
X00645715D01*
X00644513Y00207159D01*
X00643593Y00206239D01*
X00643095Y00205037D01*
Y00203736D01*
X00643593Y00202534D01*
X00644513Y00201614D01*
X00645715Y00201117D01*
X00647016D01*
X00648217Y00201614D01*
X00649137Y00202534D01*
X00649635Y00203736D01*
Y00205037D01*
X00649137Y00206239D01*
X00648217Y00207159D01*
X00647016Y00207656D01*
D02*
G37*
G36*
X00637092D02*
X00635791D01*
X00634589Y00207159D01*
X00633669Y00206239D01*
X00633171Y00205037D01*
Y00203736D01*
X00633669Y00202534D01*
X00634589Y00201614D01*
X00635791Y00201117D01*
X00637092D01*
X00638294Y00201614D01*
X00639213Y00202534D01*
X00639711Y00203736D01*
Y00205037D01*
X00639213Y00206239D01*
X00638294Y00207159D01*
X00637092Y00207656D01*
D02*
G37*
G36*
X00627168D02*
X00625867D01*
X00624665Y00207159D01*
X00623745Y00206239D01*
X00623247Y00205037D01*
Y00203736D01*
X00623745Y00202534D01*
X00624665Y00201614D01*
X00625867Y00201117D01*
X00627168D01*
X0062837Y00201614D01*
X0062929Y00202534D01*
X00629787Y00203736D01*
Y00205037D01*
X0062929Y00206239D01*
X0062837Y00207159D01*
X00627168Y00207656D01*
D02*
G37*
G36*
X00617244D02*
X00615943D01*
X00614741Y00207159D01*
X00613821Y00206239D01*
X00613324Y00205037D01*
Y00203736D01*
X00613821Y00202534D01*
X00614741Y00201614D01*
X00615943Y00201117D01*
X00617244D01*
X00618446Y00201614D01*
X00619366Y00202534D01*
X00619864Y00203736D01*
Y00205037D01*
X00619366Y00206239D01*
X00618446Y00207159D01*
X00617244Y00207656D01*
D02*
G37*
G36*
X0060732D02*
X00606019D01*
X00604817Y00207159D01*
X00603898Y00206239D01*
X006034Y00205037D01*
Y00203736D01*
X00603898Y00202534D01*
X00604817Y00201614D01*
X00606019Y00201117D01*
X0060732D01*
X00608522Y00201614D01*
X00609442Y00202534D01*
X0060994Y00203736D01*
Y00205037D01*
X00609442Y00206239D01*
X00608522Y00207159D01*
X0060732Y00207656D01*
D02*
G37*
G36*
X00597396D02*
X00596095D01*
X00594893Y00207159D01*
X00593974Y00206239D01*
X00593476Y00205037D01*
Y00203736D01*
X00593974Y00202534D01*
X00594893Y00201614D01*
X00596095Y00201117D01*
X00597396D01*
X00598598Y00201614D01*
X00599518Y00202534D01*
X00600016Y00203736D01*
Y00205037D01*
X00599518Y00206239D01*
X00598598Y00207159D01*
X00597396Y00207656D01*
D02*
G37*
G36*
X00366006Y00203571D02*
X00364705D01*
X00363503Y00203073D01*
X00362584Y00202153D01*
X00362086Y00200952D01*
Y00199651D01*
X00362584Y00198449D01*
X00363503Y00197529D01*
X00364705Y00197031D01*
X00366006D01*
X00367208Y00197529D01*
X00368128Y00198449D01*
X00368626Y00199651D01*
Y00200952D01*
X00368128Y00202153D01*
X00367208Y00203073D01*
X00366006Y00203571D01*
D02*
G37*
G36*
X00422036Y00201206D02*
X00420736D01*
X00419534Y00200708D01*
X00418614Y00199788D01*
X00418116Y00198586D01*
Y00197286D01*
X00418614Y00196084D01*
X00419534Y00195164D01*
X00420736Y00194666D01*
X00422036D01*
X00423238Y00195164D01*
X00424158Y00196084D01*
X00424656Y00197286D01*
Y00198586D01*
X00424158Y00199788D01*
X00423238Y00200708D01*
X00422036Y00201206D01*
D02*
G37*
G36*
X00761193Y00193939D02*
X00759681D01*
X00758285Y0019336D01*
X00757216Y00192291D01*
X00756637Y00190894D01*
Y00189383D01*
X00757216Y00187986D01*
X00758285Y00186917D01*
X00759681Y00186339D01*
X00761193D01*
X0076259Y00186917D01*
X00763659Y00187986D01*
X00764237Y00189383D01*
Y00190894D01*
X00763659Y00192291D01*
X0076259Y0019336D01*
X00761193Y00193939D01*
D02*
G37*
G36*
X00751619D02*
X00750107D01*
X0074871Y0019336D01*
X00747641Y00192291D01*
X00747063Y00190894D01*
Y00189383D01*
X00747641Y00187986D01*
X0074871Y00186917D01*
X00750107Y00186339D01*
X00751619D01*
X00753015Y00186917D01*
X00754084Y00187986D01*
X00754663Y00189383D01*
Y00190894D01*
X00754084Y00192291D01*
X00753015Y0019336D01*
X00751619Y00193939D01*
D02*
G37*
G36*
X00173497Y00187429D02*
X00172197D01*
X00170995Y00186931D01*
X00170075Y00186011D01*
X00169577Y00184809D01*
Y00183508D01*
X00170075Y00182307D01*
X00170995Y00181387D01*
X00172197Y00180889D01*
X00173497D01*
X00174699Y00181387D01*
X00175619Y00182307D01*
X00176117Y00183508D01*
Y00184809D01*
X00175619Y00186011D01*
X00174699Y00186931D01*
X00173497Y00187429D01*
D02*
G37*
G36*
X00113074Y0019852D02*
X00110726D01*
X00108457Y00197912D01*
X00106423Y00196738D01*
X00104762Y00195077D01*
X00103588Y00193043D01*
X0010298Y00190774D01*
Y00188426D01*
X00103588Y00186157D01*
X00104762Y00184123D01*
X00106423Y00182462D01*
X00108457Y00181288D01*
X00110726Y0018068D01*
X00113074D01*
X00115343Y00181288D01*
X00117377Y00182462D01*
X00119038Y00184123D01*
X00120212Y00186157D01*
X0012082Y00188426D01*
Y00190774D01*
X00120212Y00193043D01*
X00119038Y00195077D01*
X00117377Y00196738D01*
X00115343Y00197912D01*
X00113074Y0019852D01*
D02*
G37*
G36*
X00087674D02*
X00085326D01*
X00083057Y00197912D01*
X00081023Y00196738D01*
X00079362Y00195077D01*
X00078188Y00193043D01*
X0007758Y00190774D01*
Y00188426D01*
X00078188Y00186157D01*
X00079362Y00184123D01*
X00081023Y00182462D01*
X00083057Y00181288D01*
X00085326Y0018068D01*
X00087674D01*
X00089943Y00181288D01*
X00091977Y00182462D01*
X00093638Y00184123D01*
X00094812Y00186157D01*
X0009542Y00188426D01*
Y00190774D01*
X00094812Y00193043D01*
X00093638Y00195077D01*
X00091977Y00196738D01*
X00089943Y00197912D01*
X00087674Y0019852D01*
D02*
G37*
G36*
X00062274D02*
X00059926D01*
X00057657Y00197912D01*
X00055623Y00196738D01*
X00053962Y00195077D01*
X00052788Y00193043D01*
X0005218Y00190774D01*
Y00188426D01*
X00052788Y00186157D01*
X00053962Y00184123D01*
X00055623Y00182462D01*
X00057657Y00181288D01*
X00059926Y0018068D01*
X00062274D01*
X00064543Y00181288D01*
X00066577Y00182462D01*
X00068238Y00184123D01*
X00069412Y00186157D01*
X0007002Y00188426D01*
Y00190774D01*
X00069412Y00193043D01*
X00068238Y00195077D01*
X00066577Y00196738D01*
X00064543Y00197912D01*
X00062274Y0019852D01*
D02*
G37*
G36*
X00036874D02*
X00034526D01*
X00032257Y00197912D01*
X00030223Y00196738D01*
X00028562Y00195077D01*
X00027388Y00193043D01*
X0002678Y00190774D01*
Y00188426D01*
X00027388Y00186157D01*
X00028562Y00184123D01*
X00030223Y00182462D01*
X00032257Y00181288D01*
X00034526Y0018068D01*
X00036874D01*
X00039143Y00181288D01*
X00041177Y00182462D01*
X00042838Y00184123D01*
X00044012Y00186157D01*
X0004462Y00188426D01*
Y00190774D01*
X00044012Y00193043D01*
X00042838Y00195077D01*
X00041177Y00196738D01*
X00039143Y00197912D01*
X00036874Y0019852D01*
D02*
G37*
G36*
X00756406Y00185368D02*
X00754894D01*
X00753497Y0018479D01*
X00752429Y0018372D01*
X0075185Y00182324D01*
Y00180812D01*
X00752429Y00179415D01*
X00753497Y00178347D01*
X00754894Y00177768D01*
X00756406D01*
X00757803Y00178347D01*
X00758872Y00179415D01*
X0075945Y00180812D01*
Y00182324D01*
X00758872Y0018372D01*
X00757803Y0018479D01*
X00756406Y00185368D01*
D02*
G37*
G36*
X00761193Y00176798D02*
X00759681D01*
X00758285Y00176219D01*
X00757216Y0017515D01*
X00756637Y00173753D01*
Y00172242D01*
X00757216Y00170845D01*
X00758285Y00169776D01*
X00759681Y00169198D01*
X00761193D01*
X0076259Y00169776D01*
X00763659Y00170845D01*
X00764237Y00172242D01*
Y00173753D01*
X00763659Y0017515D01*
X0076259Y00176219D01*
X00761193Y00176798D01*
D02*
G37*
G36*
X00751619D02*
X00750107D01*
X0074871Y00176219D01*
X00747641Y0017515D01*
X00747063Y00173753D01*
Y00172242D01*
X00747641Y00170845D01*
X0074871Y00169776D01*
X00750107Y00169198D01*
X00751619D01*
X00753015Y00169776D01*
X00754084Y00170845D01*
X00754663Y00172242D01*
Y00173753D01*
X00754084Y0017515D01*
X00753015Y00176219D01*
X00751619Y00176798D01*
D02*
G37*
G36*
X00113074Y0017312D02*
X00110726D01*
X00108457Y00172512D01*
X00106423Y00171338D01*
X00104762Y00169677D01*
X00103588Y00167643D01*
X0010298Y00165374D01*
Y00163026D01*
X00103588Y00160757D01*
X00104762Y00158723D01*
X00106423Y00157062D01*
X00108457Y00155888D01*
X00110726Y0015528D01*
X00113074D01*
X00115343Y00155888D01*
X00117377Y00157062D01*
X00119038Y00158723D01*
X00120212Y00160757D01*
X0012082Y00163026D01*
Y00165374D01*
X00120212Y00167643D01*
X00119038Y00169677D01*
X00117377Y00171338D01*
X00115343Y00172512D01*
X00113074Y0017312D01*
D02*
G37*
G36*
X00087674D02*
X00085326D01*
X00083057Y00172512D01*
X00081023Y00171338D01*
X00079362Y00169677D01*
X00078188Y00167643D01*
X0007758Y00165374D01*
Y00163026D01*
X00078188Y00160757D01*
X00079362Y00158723D01*
X00081023Y00157062D01*
X00083057Y00155888D01*
X00085326Y0015528D01*
X00087674D01*
X00089943Y00155888D01*
X00091977Y00157062D01*
X00093638Y00158723D01*
X00094812Y00160757D01*
X0009542Y00163026D01*
Y00165374D01*
X00094812Y00167643D01*
X00093638Y00169677D01*
X00091977Y00171338D01*
X00089943Y00172512D01*
X00087674Y0017312D01*
D02*
G37*
G36*
X00062274D02*
X00059926D01*
X00057657Y00172512D01*
X00055623Y00171338D01*
X00053962Y00169677D01*
X00052788Y00167643D01*
X0005218Y00165374D01*
Y00163026D01*
X00052788Y00160757D01*
X00053962Y00158723D01*
X00055623Y00157062D01*
X00057657Y00155888D01*
X00059926Y0015528D01*
X00062274D01*
X00064543Y00155888D01*
X00066577Y00157062D01*
X00068238Y00158723D01*
X00069412Y00160757D01*
X0007002Y00163026D01*
Y00165374D01*
X00069412Y00167643D01*
X00068238Y00169677D01*
X00066577Y00171338D01*
X00064543Y00172512D01*
X00062274Y0017312D01*
D02*
G37*
G36*
X00036874D02*
X00034526D01*
X00032257Y00172512D01*
X00030223Y00171338D01*
X00028562Y00169677D01*
X00027388Y00167643D01*
X0002678Y00165374D01*
Y00163026D01*
X00027388Y00160757D01*
X00028562Y00158723D01*
X00030223Y00157062D01*
X00032257Y00155888D01*
X00034526Y0015528D01*
X00036874D01*
X00039143Y00155888D01*
X00041177Y00157062D01*
X00042838Y00158723D01*
X00044012Y00160757D01*
X0004462Y00163026D01*
Y00165374D01*
X00044012Y00167643D01*
X00042838Y00169677D01*
X00041177Y00171338D01*
X00039143Y00172512D01*
X00036874Y0017312D01*
D02*
G37*
G36*
X00798665Y00142589D02*
X00797154D01*
X00795757Y0014201D01*
X00794688Y00140941D01*
X0079411Y00139544D01*
Y00138033D01*
X00794688Y00136636D01*
X00795757Y00135567D01*
X00797154Y00134988D01*
X00798665D01*
X00800062Y00135567D01*
X00801131Y00136636D01*
X0080171Y00138033D01*
Y00139544D01*
X00801131Y00140941D01*
X00800062Y0014201D01*
X00798665Y00142589D01*
D02*
G37*
G36*
X00776187D02*
X00774676D01*
X00773279Y0014201D01*
X0077221Y00140941D01*
X00771631Y00139544D01*
Y00138033D01*
X0077221Y00136636D01*
X00773279Y00135567D01*
X00774676Y00134988D01*
X00776187D01*
X00777584Y00135567D01*
X00778653Y00136636D01*
X00779231Y00138033D01*
Y00139544D01*
X00778653Y00140941D01*
X00777584Y0014201D01*
X00776187Y00142589D01*
D02*
G37*
G36*
X00753709D02*
X00752197D01*
X007508Y0014201D01*
X00749732Y00140941D01*
X00749153Y00139544D01*
Y00138033D01*
X00749732Y00136636D01*
X007508Y00135567D01*
X00752197Y00134988D01*
X00753709D01*
X00755106Y00135567D01*
X00756174Y00136636D01*
X00756753Y00138033D01*
Y00139544D01*
X00756174Y00140941D01*
X00755106Y0014201D01*
X00753709Y00142589D01*
D02*
G37*
G36*
X0012082Y0014772D02*
X0010298D01*
Y0012988D01*
X0012082D01*
Y0014772D01*
D02*
G37*
G36*
X00087674D02*
X00085326D01*
X00083057Y00147112D01*
X00081023Y00145938D01*
X00079362Y00144277D01*
X00078188Y00142243D01*
X0007758Y00139974D01*
Y00137626D01*
X00078188Y00135357D01*
X00079362Y00133323D01*
X00081023Y00131662D01*
X00083057Y00130488D01*
X00085326Y0012988D01*
X00087674D01*
X00089943Y00130488D01*
X00091977Y00131662D01*
X00093638Y00133323D01*
X00094812Y00135357D01*
X0009542Y00137626D01*
Y00139974D01*
X00094812Y00142243D01*
X00093638Y00144277D01*
X00091977Y00145938D01*
X00089943Y00147112D01*
X00087674Y0014772D01*
D02*
G37*
G36*
X0007002D02*
X0005218D01*
Y0012988D01*
X0007002D01*
Y0014772D01*
D02*
G37*
G36*
X00036874D02*
X00034526D01*
X00032257Y00147112D01*
X00030223Y00145938D01*
X00028562Y00144277D01*
X00027388Y00142243D01*
X0002678Y00139974D01*
Y00137626D01*
X00027388Y00135357D01*
X00028562Y00133323D01*
X00030223Y00131662D01*
X00032257Y00130488D01*
X00034526Y0012988D01*
X00036874D01*
X00039143Y00130488D01*
X00041177Y00131662D01*
X00042838Y00133323D01*
X00044012Y00135357D01*
X0004462Y00137626D01*
Y00139974D01*
X00044012Y00142243D01*
X00042838Y00144277D01*
X00041177Y00145938D01*
X00039143Y00147112D01*
X00036874Y0014772D01*
D02*
G37*
G36*
X00142144Y00113307D02*
X00140632D01*
X00139235Y00112728D01*
X00138166Y00111659D01*
X00137588Y00110262D01*
Y00108751D01*
X00138166Y00107354D01*
X00139235Y00106285D01*
X00140632Y00105707D01*
X00142144D01*
X0014354Y00106285D01*
X00144609Y00107354D01*
X00145188Y00108751D01*
Y00110262D01*
X00144609Y00111659D01*
X0014354Y00112728D01*
X00142144Y00113307D01*
D02*
G37*
G36*
X00281575Y00105768D02*
X00280275D01*
X00279073Y0010527D01*
X00278153Y00104351D01*
X00277655Y00103149D01*
Y00101848D01*
X00278153Y00100646D01*
X00279073Y00099726D01*
X00280275Y00099228D01*
X00281575D01*
X00282777Y00099726D01*
X00283697Y00100646D01*
X00284195Y00101848D01*
Y00103149D01*
X00283697Y00104351D01*
X00282777Y0010527D01*
X00281575Y00105768D01*
D02*
G37*
G36*
X00504608Y00100935D02*
X00503307D01*
X00502105Y00100437D01*
X00501185Y00099517D01*
X00500688Y00098316D01*
Y00097015D01*
X00501185Y00095813D01*
X00502105Y00094893D01*
X00503307Y00094395D01*
X00504608D01*
X0050581Y00094893D01*
X0050673Y00095813D01*
X00507228Y00097015D01*
Y00098316D01*
X0050673Y00099517D01*
X0050581Y00100437D01*
X00504608Y00100935D01*
D02*
G37*
G36*
X00686711Y00079317D02*
X0068541D01*
X00684208Y00078819D01*
X00683288Y00077899D01*
X00682791Y00076697D01*
Y00075396D01*
X00683288Y00074194D01*
X00684208Y00073274D01*
X0068541Y00072776D01*
X00686711D01*
X00687913Y00073274D01*
X00688833Y00074194D01*
X00689331Y00075396D01*
Y00076697D01*
X00688833Y00077899D01*
X00687913Y00078819D01*
X00686711Y00079317D01*
D02*
G37*
G36*
X00676787D02*
X00675486D01*
X00674285Y00078819D01*
X00673365Y00077899D01*
X00672867Y00076697D01*
Y00075396D01*
X00673365Y00074194D01*
X00674285Y00073274D01*
X00675486Y00072776D01*
X00676787D01*
X00677989Y00073274D01*
X00678909Y00074194D01*
X00679407Y00075396D01*
Y00076697D01*
X00678909Y00077899D01*
X00677989Y00078819D01*
X00676787Y00079317D01*
D02*
G37*
G36*
X00666863D02*
X00665563D01*
X00664361Y00078819D01*
X00663441Y00077899D01*
X00662943Y00076697D01*
Y00075396D01*
X00663441Y00074194D01*
X00664361Y00073274D01*
X00665563Y00072776D01*
X00666863D01*
X00668065Y00073274D01*
X00668985Y00074194D01*
X00669483Y00075396D01*
Y00076697D01*
X00668985Y00077899D01*
X00668065Y00078819D01*
X00666863Y00079317D01*
D02*
G37*
G36*
X00656939D02*
X00655639D01*
X00654437Y00078819D01*
X00653517Y00077899D01*
X00653019Y00076697D01*
Y00075396D01*
X00653517Y00074194D01*
X00654437Y00073274D01*
X00655639Y00072776D01*
X00656939D01*
X00658141Y00073274D01*
X00659061Y00074194D01*
X00659559Y00075396D01*
Y00076697D01*
X00659061Y00077899D01*
X00658141Y00078819D01*
X00656939Y00079317D01*
D02*
G37*
G36*
X00647016D02*
X00645715D01*
X00644513Y00078819D01*
X00643593Y00077899D01*
X00643095Y00076697D01*
Y00075396D01*
X00643593Y00074194D01*
X00644513Y00073274D01*
X00645715Y00072776D01*
X00647016D01*
X00648217Y00073274D01*
X00649137Y00074194D01*
X00649635Y00075396D01*
Y00076697D01*
X00649137Y00077899D01*
X00648217Y00078819D01*
X00647016Y00079317D01*
D02*
G37*
G36*
X00637092D02*
X00635791D01*
X00634589Y00078819D01*
X00633669Y00077899D01*
X00633171Y00076697D01*
Y00075396D01*
X00633669Y00074194D01*
X00634589Y00073274D01*
X00635791Y00072776D01*
X00637092D01*
X00638294Y00073274D01*
X00639213Y00074194D01*
X00639711Y00075396D01*
Y00076697D01*
X00639213Y00077899D01*
X00638294Y00078819D01*
X00637092Y00079317D01*
D02*
G37*
G36*
X00627168D02*
X00625867D01*
X00624665Y00078819D01*
X00623745Y00077899D01*
X00623247Y00076697D01*
Y00075396D01*
X00623745Y00074194D01*
X00624665Y00073274D01*
X00625867Y00072776D01*
X00627168D01*
X0062837Y00073274D01*
X0062929Y00074194D01*
X00629787Y00075396D01*
Y00076697D01*
X0062929Y00077899D01*
X0062837Y00078819D01*
X00627168Y00079317D01*
D02*
G37*
G36*
X00617244D02*
X00615943D01*
X00614741Y00078819D01*
X00613821Y00077899D01*
X00613324Y00076697D01*
Y00075396D01*
X00613821Y00074194D01*
X00614741Y00073274D01*
X00615943Y00072776D01*
X00617244D01*
X00618446Y00073274D01*
X00619366Y00074194D01*
X00619864Y00075396D01*
Y00076697D01*
X00619366Y00077899D01*
X00618446Y00078819D01*
X00617244Y00079317D01*
D02*
G37*
G36*
X0060732D02*
X00606019D01*
X00604817Y00078819D01*
X00603898Y00077899D01*
X006034Y00076697D01*
Y00075396D01*
X00603898Y00074194D01*
X00604817Y00073274D01*
X00606019Y00072776D01*
X0060732D01*
X00608522Y00073274D01*
X00609442Y00074194D01*
X0060994Y00075396D01*
Y00076697D01*
X00609442Y00077899D01*
X00608522Y00078819D01*
X0060732Y00079317D01*
D02*
G37*
G36*
X00597396D02*
X00596095D01*
X00594893Y00078819D01*
X00593974Y00077899D01*
X00593476Y00076697D01*
Y00075396D01*
X00593974Y00074194D01*
X00594893Y00073274D01*
X00596095Y00072776D01*
X00597396D01*
X00598598Y00073274D01*
X00599518Y00074194D01*
X00600016Y00075396D01*
Y00076697D01*
X00599518Y00077899D01*
X00598598Y00078819D01*
X00597396Y00079317D01*
D02*
G37*
G36*
X00366006Y00075231D02*
X00364705D01*
X00363503Y00074733D01*
X00362584Y00073814D01*
X00362086Y00072612D01*
Y00071311D01*
X00362584Y00070109D01*
X00363503Y00069189D01*
X00364705Y00068691D01*
X00366006D01*
X00367208Y00069189D01*
X00368128Y00070109D01*
X00368626Y00071311D01*
Y00072612D01*
X00368128Y00073814D01*
X00367208Y00074733D01*
X00366006Y00075231D01*
D02*
G37*
G36*
X00422036Y00072866D02*
X00420736D01*
X00419534Y00072368D01*
X00418614Y00071448D01*
X00418116Y00070246D01*
Y00068946D01*
X00418614Y00067744D01*
X00419534Y00066824D01*
X00420736Y00066326D01*
X00422036D01*
X00423238Y00066824D01*
X00424158Y00067744D01*
X00424656Y00068946D01*
Y00070246D01*
X00424158Y00071448D01*
X00423238Y00072368D01*
X00422036Y00072866D01*
D02*
G37*
%LPD*%
G36*
X00338074Y00650032D02*
X00150114D01*
Y00675894D01*
X00296331D01*
X00296556Y0067535D01*
X00297476Y00674431D01*
X00298678Y00673933D01*
X00299979D01*
X00301181Y00674431D01*
X00302101Y0067535D01*
X00302326Y00675894D01*
X00311658D01*
Y0069596D01*
X00338074D01*
Y00650032D01*
D02*
G37*
D131*
X00697863Y00844071D02*
D03*
X00677863D02*
D03*
X00657863D02*
D03*
X0077787D02*
D03*
X0073787D02*
D03*
X0075787D02*
D03*
D132*
X00717863D02*
D03*
X0079787D02*
D03*
D133*
X000611Y00469D02*
D03*
X000865D02*
D03*
X000611Y004436D02*
D03*
X000357Y00469D02*
D03*
Y004436D02*
D03*
X000611Y004944D02*
D03*
X000357D02*
D03*
X000611Y005198D02*
D03*
X000357D02*
D03*
Y007484D02*
D03*
X000611D02*
D03*
X001119Y006976D02*
D03*
Y006722D02*
D03*
Y005198D02*
D03*
X000865D02*
D03*
X001119Y005452D02*
D03*
X000865D02*
D03*
X001119Y007484D02*
D03*
X000865D02*
D03*
X001119Y00469D02*
D03*
Y004436D02*
D03*
X000865D02*
D03*
Y002912D02*
D03*
X001119Y003166D02*
D03*
Y002912D02*
D03*
Y002658D02*
D03*
Y002404D02*
D03*
X000865Y001896D02*
D03*
X001119Y003928D02*
D03*
Y004182D02*
D03*
X000865Y003166D02*
D03*
X001119Y003674D02*
D03*
X000865D02*
D03*
Y003928D02*
D03*
Y004182D02*
D03*
X001119Y004944D02*
D03*
X000865D02*
D03*
X001119Y005706D02*
D03*
X000865D02*
D03*
Y006214D02*
D03*
Y006468D02*
D03*
X001119Y00723D02*
D03*
X000865D02*
D03*
X001119Y007738D02*
D03*
X000865D02*
D03*
Y001388D02*
D03*
Y001642D02*
D03*
X001119Y001896D02*
D03*
Y00215D02*
D03*
X000865D02*
D03*
Y002658D02*
D03*
Y002404D02*
D03*
Y006722D02*
D03*
Y006976D02*
D03*
X001119Y006214D02*
D03*
Y006468D02*
D03*
Y001642D02*
D03*
Y00342D02*
D03*
X000865D02*
D03*
Y00596D02*
D03*
X001119D02*
D03*
X000357Y005452D02*
D03*
X000611D02*
D03*
X000357Y006722D02*
D03*
X000611Y006468D02*
D03*
Y006722D02*
D03*
Y006976D02*
D03*
Y006214D02*
D03*
X000357Y006976D02*
D03*
X000611Y001642D02*
D03*
X000357Y002912D02*
D03*
X000611Y003166D02*
D03*
Y002912D02*
D03*
Y002658D02*
D03*
Y002404D02*
D03*
X000357Y001896D02*
D03*
Y003166D02*
D03*
X000611Y005706D02*
D03*
X000357D02*
D03*
Y006214D02*
D03*
Y006468D02*
D03*
X000611Y00723D02*
D03*
X000357D02*
D03*
X000611Y007738D02*
D03*
X000357D02*
D03*
Y001388D02*
D03*
Y001642D02*
D03*
X000611Y001896D02*
D03*
Y00215D02*
D03*
X000357D02*
D03*
Y002658D02*
D03*
Y002404D02*
D03*
X000611Y00596D02*
D03*
X000357D02*
D03*
Y00342D02*
D03*
X000611D02*
D03*
X000357Y003674D02*
D03*
Y003928D02*
D03*
Y004182D02*
D03*
X000611Y003928D02*
D03*
Y004182D02*
D03*
Y003674D02*
D03*
D135*
X001119Y001388D02*
D03*
X000611D02*
D03*
D136*
X009Y0081D02*
D03*
Y0009D02*
D03*
X0087Y0081D02*
D03*
X00885Y0078D02*
D03*
X0087Y0075D02*
D03*
X00885Y0072D02*
D03*
X0087Y0069D02*
D03*
X00885Y0066D02*
D03*
X0087Y0063D02*
D03*
X00885Y006D02*
D03*
X0087Y0057D02*
D03*
X00885Y0054D02*
D03*
X0087Y0051D02*
D03*
X00885Y0048D02*
D03*
X0087Y0045D02*
D03*
X00885Y0036D02*
D03*
Y0024D02*
D03*
Y0018D02*
D03*
Y0012D02*
D03*
X0087Y0009D02*
D03*
X0084Y0087D02*
D03*
X00855Y0084D02*
D03*
X0084Y0081D02*
D03*
X00855Y0078D02*
D03*
Y0072D02*
D03*
Y006D02*
D03*
X0084Y0057D02*
D03*
X00855Y0054D02*
D03*
Y0048D02*
D03*
Y0042D02*
D03*
Y003D02*
D03*
X0084Y0027D02*
D03*
Y0021D02*
D03*
Y0015D02*
D03*
X00855Y0012D02*
D03*
X0084Y0009D02*
D03*
X00855Y0006D02*
D03*
X0084Y0003D02*
D03*
X0081Y0087D02*
D03*
X00825Y0084D02*
D03*
X0081Y0081D02*
D03*
X00825Y0078D02*
D03*
X0081Y0075D02*
D03*
X00825Y0042D02*
D03*
Y0036D02*
D03*
X0081Y0015D02*
D03*
X00825Y0012D02*
D03*
X0081Y0009D02*
D03*
X00825Y0006D02*
D03*
X0081Y0003D02*
D03*
X0078Y0087D02*
D03*
Y0081D02*
D03*
Y0075D02*
D03*
Y0069D02*
D03*
Y0063D02*
D03*
X00795Y0042D02*
D03*
X0078Y0027D02*
D03*
Y0015D02*
D03*
X00795Y0006D02*
D03*
X0078Y0003D02*
D03*
X0075Y0087D02*
D03*
X00765Y0072D02*
D03*
X0075Y0069D02*
D03*
X00765Y0066D02*
D03*
X0075Y0063D02*
D03*
X00765Y006D02*
D03*
Y003D02*
D03*
X0075Y0027D02*
D03*
Y0015D02*
D03*
X00765Y0012D02*
D03*
Y0006D02*
D03*
X0075Y0003D02*
D03*
X0072Y0075D02*
D03*
X00735Y0072D02*
D03*
X0072Y0069D02*
D03*
X00735Y0066D02*
D03*
X0072Y0063D02*
D03*
X00735Y006D02*
D03*
X0072Y0051D02*
D03*
X00735Y0048D02*
D03*
X0072Y0045D02*
D03*
X00735Y0036D02*
D03*
Y003D02*
D03*
X0069Y0075D02*
D03*
Y0069D02*
D03*
X00705Y0066D02*
D03*
X0069Y0063D02*
D03*
X00705Y006D02*
D03*
X0069Y0051D02*
D03*
X00705Y0012D02*
D03*
X0066Y0075D02*
D03*
X00675Y0072D02*
D03*
Y0066D02*
D03*
Y006D02*
D03*
X0066Y0057D02*
D03*
X00675Y0048D02*
D03*
X0066Y0039D02*
D03*
Y0027D02*
D03*
X00675Y0018D02*
D03*
X00645Y0084D02*
D03*
Y0048D02*
D03*
X0063Y0039D02*
D03*
X00645Y003D02*
D03*
X0063Y0027D02*
D03*
X00645Y0018D02*
D03*
X00615Y0084D02*
D03*
X006Y0081D02*
D03*
Y0057D02*
D03*
X00615Y0054D02*
D03*
Y0048D02*
D03*
X006Y0045D02*
D03*
X00615Y0042D02*
D03*
X006Y0039D02*
D03*
Y0027D02*
D03*
X00615Y0018D02*
D03*
X00585Y0084D02*
D03*
X0057Y0075D02*
D03*
Y0063D02*
D03*
Y0057D02*
D03*
X00585Y0054D02*
D03*
X0057Y0045D02*
D03*
Y0039D02*
D03*
Y0033D02*
D03*
X00585Y003D02*
D03*
Y0024D02*
D03*
Y0018D02*
D03*
Y0012D02*
D03*
X00555Y0084D02*
D03*
X0054Y0081D02*
D03*
Y0069D02*
D03*
X00555Y0066D02*
D03*
X0054Y0063D02*
D03*
Y0057D02*
D03*
X00555Y0054D02*
D03*
X0054Y0051D02*
D03*
X00555Y0048D02*
D03*
X0054Y0045D02*
D03*
X00555Y0042D02*
D03*
X0054Y0033D02*
D03*
X00555Y003D02*
D03*
Y0024D02*
D03*
Y0018D02*
D03*
X00525Y0072D02*
D03*
Y006D02*
D03*
Y0054D02*
D03*
Y0048D02*
D03*
Y0042D02*
D03*
X0051Y0039D02*
D03*
X00525Y003D02*
D03*
Y0024D02*
D03*
Y0018D02*
D03*
X00495Y0078D02*
D03*
X0048Y0069D02*
D03*
X00495Y006D02*
D03*
Y0048D02*
D03*
Y0042D02*
D03*
X0048Y0039D02*
D03*
X00495Y0018D02*
D03*
X00465Y0084D02*
D03*
Y0078D02*
D03*
Y0072D02*
D03*
X0045Y0063D02*
D03*
X00465Y006D02*
D03*
Y0054D02*
D03*
X0045Y0051D02*
D03*
X00435Y0078D02*
D03*
X0042Y0063D02*
D03*
X00435Y006D02*
D03*
Y0054D02*
D03*
X00405Y0078D02*
D03*
X0039Y0075D02*
D03*
X00405Y0072D02*
D03*
X0039Y0069D02*
D03*
Y0063D02*
D03*
X00405Y006D02*
D03*
X0039Y0057D02*
D03*
Y0051D02*
D03*
X00405Y0042D02*
D03*
X00375Y0084D02*
D03*
Y0078D02*
D03*
X0036Y0075D02*
D03*
X00375Y0072D02*
D03*
X0036Y0069D02*
D03*
X00375Y0066D02*
D03*
Y006D02*
D03*
X0036Y0057D02*
D03*
X00375Y0054D02*
D03*
X0036Y0051D02*
D03*
X00375Y0048D02*
D03*
X0036Y0045D02*
D03*
X00375Y0018D02*
D03*
X0036Y0009D02*
D03*
X00375Y0006D02*
D03*
X00345Y0084D02*
D03*
Y0078D02*
D03*
Y0072D02*
D03*
Y0066D02*
D03*
X0033Y0057D02*
D03*
X00345Y0018D02*
D03*
X0033Y0015D02*
D03*
X00345Y0012D02*
D03*
X00315Y0084D02*
D03*
Y0018D02*
D03*
X003Y0015D02*
D03*
X00285Y0084D02*
D03*
Y0072D02*
D03*
Y0054D02*
D03*
Y0042D02*
D03*
Y0018D02*
D03*
Y0006D02*
D03*
X00255Y0084D02*
D03*
Y0078D02*
D03*
X0024Y0075D02*
D03*
X00255Y0072D02*
D03*
X0024Y0069D02*
D03*
X00255Y0042D02*
D03*
X0024Y0021D02*
D03*
X00255Y0018D02*
D03*
X0024Y0015D02*
D03*
X00225Y0084D02*
D03*
X0021Y0075D02*
D03*
Y0015D02*
D03*
X0018Y0087D02*
D03*
X00195Y0078D02*
D03*
Y0072D02*
D03*
X0018Y0069D02*
D03*
Y0003D02*
D03*
X0015Y0087D02*
D03*
Y0075D02*
D03*
Y0069D02*
D03*
X00165Y006D02*
D03*
X0015Y0033D02*
D03*
X00165Y0024D02*
D03*
X0015Y0009D02*
D03*
X00165Y0006D02*
D03*
X0015Y0003D02*
D03*
X0012Y0087D02*
D03*
X00135Y0084D02*
D03*
X0012Y0081D02*
D03*
Y0069D02*
D03*
Y0063D02*
D03*
Y0051D02*
D03*
X00135Y0036D02*
D03*
X0012Y0033D02*
D03*
X00135Y003D02*
D03*
X0012Y0009D02*
D03*
X00135Y0006D02*
D03*
X0012Y0003D02*
D03*
X0009Y0087D02*
D03*
X00105Y0084D02*
D03*
X0009Y0081D02*
D03*
X00105Y0066D02*
D03*
X0009Y0033D02*
D03*
X00105Y003D02*
D03*
X0009Y0015D02*
D03*
X00105Y0012D02*
D03*
X0009Y0009D02*
D03*
X00105Y0006D02*
D03*
X0009Y0003D02*
D03*
X0006Y0087D02*
D03*
X00075Y0084D02*
D03*
Y0078D02*
D03*
Y0072D02*
D03*
Y0066D02*
D03*
Y006D02*
D03*
Y0054D02*
D03*
Y0036D02*
D03*
X0006Y0033D02*
D03*
X00075Y003D02*
D03*
Y0024D02*
D03*
Y0018D02*
D03*
X0006Y0015D02*
D03*
X00075Y0012D02*
D03*
Y0006D02*
D03*
X0006Y0003D02*
D03*
X0003Y0087D02*
D03*
X00045Y0078D02*
D03*
Y0066D02*
D03*
Y0036D02*
D03*
X0003Y0033D02*
D03*
X00045Y003D02*
D03*
Y0018D02*
D03*
X0003Y0015D02*
D03*
Y0003D02*
D03*
X00213274Y0061422D02*
D03*
X00432743Y00239808D02*
D03*
X00442317D02*
D03*
X0043753Y0023221D02*
D03*
X00280925Y00102498D02*
D03*
X0083409Y00662376D02*
D03*
X0083185Y0061468D02*
D03*
X00869479Y00614657D02*
D03*
X007493Y0080772D02*
D03*
X0071882D02*
D03*
X00620253Y00385485D02*
D03*
X00590834Y00386609D02*
D03*
X0079791Y00138788D02*
D03*
X00522398Y00784108D02*
D03*
X004823Y00791316D02*
D03*
X004746Y0072301D02*
D03*
X0045758D02*
D03*
X0035883Y00342985D02*
D03*
X00368754D02*
D03*
X00378678D02*
D03*
X00347457Y00343223D02*
D03*
X00237881Y0017226D02*
D03*
X00267652D02*
D03*
X00247805D02*
D03*
X00257728D02*
D03*
X0067124Y0041402D02*
D03*
X0058862Y0051381D02*
D03*
X0056807Y0048276D02*
D03*
X00432743Y000953D02*
D03*
Y00112441D02*
D03*
X00442317D02*
D03*
X0043753Y0010387D02*
D03*
X00442317Y000953D02*
D03*
X00432743Y0022364D02*
D03*
X00442317D02*
D03*
X00820502Y0006981D02*
D03*
X00798024D02*
D03*
X00775546D02*
D03*
X00753024Y00069767D02*
D03*
X00750902Y0035455D02*
D03*
Y00371691D02*
D03*
X00760476D02*
D03*
X00755689Y00363121D02*
D03*
X00760476Y0035455D02*
D03*
Y00207638D02*
D03*
X00755689Y00216209D02*
D03*
X00760476Y00224779D02*
D03*
X00750902D02*
D03*
Y00207638D02*
D03*
X0030683Y00298958D02*
D03*
X00436257Y0035474D02*
D03*
X0085092Y00459899D02*
D03*
X00765792Y0050704D02*
D03*
X00747299Y0049053D02*
D03*
X00810842Y00795289D02*
D03*
Y00777289D02*
D03*
X00626455Y00808098D02*
D03*
X0061049Y0080772D02*
D03*
X0068834D02*
D03*
X0065786D02*
D03*
X0064262D02*
D03*
X006731D02*
D03*
X0057912Y0074676D02*
D03*
X004948Y0082677D02*
D03*
X004352D02*
D03*
X00245922Y00567258D02*
D03*
X0016188Y00294297D02*
D03*
X00150873Y00294643D02*
D03*
X00166663Y00305134D02*
D03*
X00156739D02*
D03*
X00146815D02*
D03*
X00141346Y0037995D02*
D03*
X00141388Y00109507D02*
D03*
X00760437Y0038859D02*
D03*
X00216545Y00464312D02*
D03*
X00290377Y0035528D02*
D03*
X0028559Y0034671D02*
D03*
X00290377Y00338139D02*
D03*
X00280803D02*
D03*
Y0035528D02*
D03*
X0075565Y00250248D02*
D03*
X00760437Y00319909D02*
D03*
X00341795Y00453242D02*
D03*
X00337007Y00444672D02*
D03*
X00341795Y00436101D02*
D03*
X0033222D02*
D03*
Y00453242D02*
D03*
X00334658Y0023894D02*
D03*
X0034544Y00254309D02*
D03*
Y00234461D02*
D03*
Y00244385D02*
D03*
X0032385Y00254309D02*
D03*
Y00234461D02*
D03*
Y00244385D02*
D03*
X00752953Y00138788D02*
D03*
X00775431D02*
D03*
X00869479Y00646661D02*
D03*
X00833131Y00743949D02*
D03*
X00833332Y00679871D02*
D03*
Y00711726D02*
D03*
X00821467Y0066235D02*
D03*
X00826745Y0064647D02*
D03*
X00829209Y00631116D02*
D03*
X00772735Y00720574D02*
D03*
X00347905Y0029625D02*
D03*
X00351901Y0029226D02*
D03*
X00255969Y00298271D02*
D03*
X00685542Y00260033D02*
D03*
X00675618D02*
D03*
X00665694D02*
D03*
X0065577D02*
D03*
X00645846D02*
D03*
X00596227D02*
D03*
X00606151D02*
D03*
X00616075D02*
D03*
X00625999D02*
D03*
X00635923D02*
D03*
X00672091Y00302863D02*
D03*
X00655433Y00303521D02*
D03*
X0070739Y00440431D02*
D03*
X00750863Y00241677D02*
D03*
X00760437D02*
D03*
X00172847Y00184159D02*
D03*
X00669078Y00440431D02*
D03*
X00712596Y005207D02*
D03*
X0019922Y00204606D02*
D03*
X00213582Y00213176D02*
D03*
X00645846Y00131693D02*
D03*
X00348669Y00153047D02*
D03*
X00358243D02*
D03*
X00377913Y00153445D02*
D03*
X00368339D02*
D03*
X00194433Y00213176D02*
D03*
X00204008D02*
D03*
X00208795Y00204606D02*
D03*
X00353456Y00272817D02*
D03*
X00348669Y00264246D02*
D03*
X00275827Y00222994D02*
D03*
X00217049Y0029836D02*
D03*
X00226973D02*
D03*
X00236896D02*
D03*
X00553908Y00355234D02*
D03*
X00554067Y00347741D02*
D03*
X0014605Y0057277D02*
D03*
Y00565191D02*
D03*
X00167538Y00453804D02*
D03*
X00177462D02*
D03*
X00186883D02*
D03*
X00196697Y00453644D02*
D03*
Y00464312D02*
D03*
X00244116Y00333358D02*
D03*
X00244326Y00339863D02*
D03*
X0032512Y0030099D02*
D03*
X00521968Y00328773D02*
D03*
X00393853Y0032385D02*
D03*
X00404112D02*
D03*
X00304639Y00323833D02*
D03*
X0031242Y00329505D02*
D03*
X00207368Y00603847D02*
D03*
X00213666Y00599D02*
D03*
X00255986Y00374486D02*
D03*
X00265561D02*
D03*
X00260773Y00383057D02*
D03*
X00206621Y00464312D02*
D03*
X00216545Y00453804D02*
D03*
X00206621D02*
D03*
X00186883Y00464312D02*
D03*
X00196697Y00476504D02*
D03*
X00191769Y00470447D02*
D03*
X00186883Y00476504D02*
D03*
X00456997Y00502849D02*
D03*
X00457327Y0041906D02*
D03*
X00246126Y00577262D02*
D03*
X00750863Y00337051D02*
D03*
X00760437D02*
D03*
X00685161Y00702215D02*
D03*
X00674792Y00702727D02*
D03*
X0044432Y0079121D02*
D03*
X0024892Y0081407D02*
D03*
Y0080716D02*
D03*
X00298921Y00707338D02*
D03*
Y00697763D02*
D03*
X00307491Y00702551D02*
D03*
X0032504Y00691564D02*
D03*
X00316469Y00677203D02*
D03*
X00299328D02*
D03*
Y00686777D02*
D03*
X00316469D02*
D03*
X0033361Y00677203D02*
D03*
X0032504Y0068199D02*
D03*
X0033361Y00686777D02*
D03*
X00190324Y00669846D02*
D03*
X00181753Y00665059D02*
D03*
X00190324Y00660272D02*
D03*
X00173183Y00669846D02*
D03*
X00156042D02*
D03*
Y00660272D02*
D03*
X00164612Y00665059D02*
D03*
X00173183Y00660272D02*
D03*
X00681099Y00551382D02*
D03*
X00697036Y005207D02*
D03*
X0070358Y0080772D02*
D03*
X00559559Y0050276D02*
D03*
X00580109Y0044069D02*
D03*
Y0042418D02*
D03*
X00411271Y00405112D02*
D03*
X00465319D02*
D03*
X00449319D02*
D03*
X00499525Y0036263D02*
D03*
X00427271Y00405112D02*
D03*
X00633991Y00302863D02*
D03*
X00617991D02*
D03*
X00580538Y00328969D02*
D03*
X0016002Y0077724D02*
D03*
Y0083174D02*
D03*
X0040601Y0079032D02*
D03*
X00750863Y00172997D02*
D03*
Y00190138D02*
D03*
X00760437D02*
D03*
X0075565Y00181568D02*
D03*
X00760437Y00172997D02*
D03*
X00750863Y00319909D02*
D03*
X0075565Y0032848D02*
D03*
X00750863Y00258818D02*
D03*
X00760437D02*
D03*
Y00405731D02*
D03*
X0075565Y0039716D02*
D03*
X00750863Y0038859D02*
D03*
Y00405731D02*
D03*
X00365467Y0041243D02*
D03*
X00355893D02*
D03*
X0036068Y0040386D02*
D03*
X00365467Y00395289D02*
D03*
X00355893D02*
D03*
X00373673Y0037433D02*
D03*
X00383247D02*
D03*
X0037846Y0036576D02*
D03*
X00373673Y00357189D02*
D03*
X00383247D02*
D03*
X0053546Y00518539D02*
D03*
X00664725Y00509529D02*
D03*
X00648716Y0049276D02*
D03*
X00630936D02*
D03*
X00672071Y00543404D02*
D03*
X00173183Y00697763D02*
D03*
X00164612Y00702551D02*
D03*
X00156042Y00697763D02*
D03*
Y00707338D02*
D03*
X00173183D02*
D03*
X00324632Y00702551D02*
D03*
X00316062Y00707338D02*
D03*
X00333203D02*
D03*
X00333476Y00777115D02*
D03*
X0033401Y00794035D02*
D03*
X00333476Y00830575D02*
D03*
Y00814575D02*
D03*
X004906Y0072301D02*
D03*
X0044158D02*
D03*
X00429863Y00716947D02*
D03*
X0040259Y0068923D02*
D03*
Y0070612D02*
D03*
X00577868Y00579048D02*
D03*
X00524153Y0063242D02*
D03*
X0047125Y00812995D02*
D03*
X0057404Y0070866D02*
D03*
X00458945Y008128D02*
D03*
X0057404Y00696912D02*
D03*
X00216545Y00476504D02*
D03*
X00193022Y00485996D02*
D03*
Y00495417D02*
D03*
X00198262Y00505232D02*
D03*
X00203502Y00534391D02*
D03*
X00198262Y00524576D02*
D03*
Y00515155D02*
D03*
X00203342Y00544315D02*
D03*
Y00554239D02*
D03*
X00353353Y0048909D02*
D03*
Y0047195D02*
D03*
X00362927D02*
D03*
X0035814Y0048052D02*
D03*
X00362927Y0048909D02*
D03*
X00686061Y00204387D02*
D03*
X00676137D02*
D03*
X00656289D02*
D03*
X00666213D02*
D03*
X00596746D02*
D03*
X00616594D02*
D03*
X0060667D02*
D03*
X00646365D02*
D03*
X00626517D02*
D03*
X00636441D02*
D03*
Y00076047D02*
D03*
X00626517D02*
D03*
X00646365D02*
D03*
X0060667D02*
D03*
X00616594D02*
D03*
X00596746D02*
D03*
X00666213D02*
D03*
X00656289D02*
D03*
X00676137D02*
D03*
X00686061D02*
D03*
X00685542Y00131693D02*
D03*
X00675618D02*
D03*
X0065577D02*
D03*
X00665694D02*
D03*
X00596227D02*
D03*
X00616075D02*
D03*
X00606151D02*
D03*
X00625999D02*
D03*
X00635923D02*
D03*
X00421386Y00069596D02*
D03*
X00281547Y00298958D02*
D03*
X00298569Y00391627D02*
D03*
X00308144D02*
D03*
X00303357Y00383057D02*
D03*
X00298569Y00374486D02*
D03*
X00308144D02*
D03*
X00265561Y00391627D02*
D03*
X00255986D02*
D03*
X00242058Y00352758D02*
D03*
X00255193Y0033276D02*
D03*
X0024682Y0029836D02*
D03*
X00213582Y00196035D02*
D03*
X00194433D02*
D03*
X00204008D02*
D03*
X00156972Y00614172D02*
D03*
X00522429Y00451989D02*
D03*
Y00464689D02*
D03*
X00246126Y00477381D02*
D03*
Y00487304D02*
D03*
Y00507152D02*
D03*
Y00497228D02*
D03*
Y00517076D02*
D03*
X00245922Y00527562D02*
D03*
Y00537486D02*
D03*
Y0054741D02*
D03*
Y00557334D02*
D03*
X00368339Y00264644D02*
D03*
X00363605Y00272773D02*
D03*
X0029083Y00298958D02*
D03*
X0014224Y00547624D02*
D03*
Y00527776D02*
D03*
Y005377D02*
D03*
Y00517852D02*
D03*
Y00507929D02*
D03*
Y00498005D02*
D03*
X00272265Y00298958D02*
D03*
X00421386Y00197936D02*
D03*
X00382701Y00144875D02*
D03*
X00387488Y00153445D02*
D03*
Y00136304D02*
D03*
X00334301Y0019025D02*
D03*
X00324377D02*
D03*
X00373126Y00273215D02*
D03*
X00377913Y00264644D02*
D03*
X00382701Y00273215D02*
D03*
X00387488Y00264644D02*
D03*
X00365356Y00071961D02*
D03*
X00503958Y00097665D02*
D03*
X00365356Y00200301D02*
D03*
X00503958Y00226005D02*
D03*
X00344225Y0019025D02*
D03*
X00304529D02*
D03*
X00314453D02*
D03*
X00294606D02*
D03*
X00358243Y00264246D02*
D03*
X00294606Y00061911D02*
D03*
X0030418D02*
D03*
X00313755D02*
D03*
X00325076D02*
D03*
X0033465D02*
D03*
X00344225D02*
D03*
X00363605Y00144433D02*
D03*
X00348669Y00135906D02*
D03*
X00358243D02*
D03*
X00353456Y00144477D02*
D03*
X00373126Y00144875D02*
D03*
X00368339Y00136304D02*
D03*
X00377913D02*
D03*
X00213582Y00084836D02*
D03*
X00208795Y00076266D02*
D03*
X00213582Y00067695D02*
D03*
X00204008D02*
D03*
X00194433D02*
D03*
X0019922Y00076266D02*
D03*
X00204008Y00084836D02*
D03*
X00194433D02*
D03*
X0062992Y00670523D02*
D03*
X00765786Y00757823D02*
D03*
X006731Y00763028D02*
D03*
X0045974Y0063246D02*
D03*
X0054102Y0064008D02*
D03*
X00052431Y00010171D02*
D03*
X00043431D02*
D03*
X00079431D02*
D03*
X00061431D02*
D03*
X00070431D02*
D03*
X00012229Y00022764D02*
D03*
X0001017Y00031525D02*
D03*
X00034431Y00010171D02*
D03*
X00017654Y00015583D02*
D03*
X00025484Y00011144D02*
D03*
X00142431Y00010171D02*
D03*
X00133431D02*
D03*
X00169431D02*
D03*
X00151431D02*
D03*
X00160431D02*
D03*
X00097431D02*
D03*
X00088431D02*
D03*
X00124431D02*
D03*
X00106431D02*
D03*
X00115431D02*
D03*
X00178431D02*
D03*
X0019643D02*
D03*
X0018743D02*
D03*
X00201502Y00017606D02*
D03*
X00208221Y00023593D02*
D03*
X00216873Y00026071D02*
D03*
X00270873Y0002617D02*
D03*
X00252873D02*
D03*
X00261873D02*
D03*
X00234873D02*
D03*
X00225873D02*
D03*
X00243873D02*
D03*
X00324873D02*
D03*
X00315872D02*
D03*
X00351872D02*
D03*
X00333872D02*
D03*
X00342872D02*
D03*
X00279873D02*
D03*
X00306873D02*
D03*
X00288873D02*
D03*
X00297873D02*
D03*
X0001017Y00058525D02*
D03*
Y00067525D02*
D03*
Y00040525D02*
D03*
Y00049525D02*
D03*
Y00085525D02*
D03*
Y00076525D02*
D03*
Y00094525D02*
D03*
X00414872Y0002617D02*
D03*
X00405872D02*
D03*
X00432872D02*
D03*
X00423872D02*
D03*
X00441872D02*
D03*
X00360872D02*
D03*
X00378872D02*
D03*
X00369872D02*
D03*
X00396872D02*
D03*
X00387872D02*
D03*
X00450872D02*
D03*
X00477872D02*
D03*
X00468872D02*
D03*
X00504872D02*
D03*
X00486872D02*
D03*
X00495872D02*
D03*
X00459872D02*
D03*
X00513872Y00026171D02*
D03*
X00522872Y00026171D02*
D03*
X00531872Y00026171D02*
D03*
X00540872Y00026171D02*
D03*
X00549872Y00026171D02*
D03*
X00558872Y00026171D02*
D03*
X00567872Y00026171D02*
D03*
X00010171Y00835087D02*
D03*
Y00826087D02*
D03*
Y00817087D02*
D03*
Y00853087D02*
D03*
Y00844087D02*
D03*
Y00862087D02*
D03*
X00010375Y00871085D02*
D03*
X00013495Y00879527D02*
D03*
X0001971Y00886037D02*
D03*
X0002803Y00889467D02*
D03*
X00046023Y00889826D02*
D03*
X00073023D02*
D03*
X00055023D02*
D03*
X00064023D02*
D03*
X00037023D02*
D03*
X00118023D02*
D03*
X00109023D02*
D03*
X00145023D02*
D03*
X00127023D02*
D03*
X00136023D02*
D03*
X00100023D02*
D03*
X00082023D02*
D03*
X00091023D02*
D03*
X00219902Y00873824D02*
D03*
X00228902Y00873824D02*
D03*
X00237902Y00873824D02*
D03*
X00246902Y00873824D02*
D03*
X00255902Y00873824D02*
D03*
X00172023Y00889826D02*
D03*
X00163023D02*
D03*
X00198744Y00887603D02*
D03*
X00181023Y00889826D02*
D03*
X00190023D02*
D03*
X00154023D02*
D03*
X00264902Y00873824D02*
D03*
X00273902Y00873824D02*
D03*
X00282902Y00873824D02*
D03*
X00291902Y00873824D02*
D03*
X00300902Y00873824D02*
D03*
X00203387Y00879893D02*
D03*
X00309902Y00873825D02*
D03*
X0021099Y00875078D02*
D03*
X00318902Y00873825D02*
D03*
X00327902Y00873825D02*
D03*
X00336902Y00873825D02*
D03*
X00345902Y00873825D02*
D03*
X00354902Y00873825D02*
D03*
X00363902Y00873825D02*
D03*
X00372902Y00873825D02*
D03*
X00381902Y00873825D02*
D03*
X00390902Y00873825D02*
D03*
X00399902Y00873825D02*
D03*
X00408902Y00873826D02*
D03*
X00435902Y00873826D02*
D03*
X00417902D02*
D03*
X00426902D02*
D03*
X00498902D02*
D03*
X00507902D02*
D03*
X00453902D02*
D03*
X00444902D02*
D03*
X00480902D02*
D03*
X00462902D02*
D03*
X00471902D02*
D03*
X00543902D02*
D03*
X00534902D02*
D03*
X00570902D02*
D03*
X00552902D02*
D03*
X00561902D02*
D03*
X00525902D02*
D03*
X00489902D02*
D03*
X00516902D02*
D03*
X00576872Y00026171D02*
D03*
X00585872Y00026171D02*
D03*
X00594872Y00026171D02*
D03*
X00603872Y00026171D02*
D03*
X00612872Y00026172D02*
D03*
X00621872Y00026172D02*
D03*
X00630872Y00026172D02*
D03*
X00639872Y00026172D02*
D03*
X00648872Y00026172D02*
D03*
X00657872Y00026172D02*
D03*
X00666872Y00026172D02*
D03*
X00675872Y00026172D02*
D03*
X00684872Y00026172D02*
D03*
X00693872Y00026172D02*
D03*
X00749685Y00010171D02*
D03*
X00767685D02*
D03*
X00758685D02*
D03*
X00785685D02*
D03*
X00776685D02*
D03*
X00812685D02*
D03*
X00794685D02*
D03*
X00803685D02*
D03*
X00702872Y00026172D02*
D03*
X00711872Y00026172D02*
D03*
X00731693Y0001055D02*
D03*
X00720652Y00024198D02*
D03*
X0072772Y00018625D02*
D03*
X00740685Y00010171D02*
D03*
X00830685D02*
D03*
X00821685D02*
D03*
X00866685D02*
D03*
X00839685D02*
D03*
X00875685D02*
D03*
X00884685D02*
D03*
X00893685D02*
D03*
X00857685D02*
D03*
X00848685D02*
D03*
X00902669Y00010701D02*
D03*
X00910898Y00014346D02*
D03*
X00916874Y00021076D02*
D03*
X00919681Y00029627D02*
D03*
X00919829Y00047626D02*
D03*
Y00083626D02*
D03*
Y00092626D02*
D03*
Y00056626D02*
D03*
Y00074626D02*
D03*
Y00065626D02*
D03*
Y00038626D02*
D03*
X00903829Y00166979D02*
D03*
Y00175979D02*
D03*
X00906356Y00140316D02*
D03*
X00903829Y00157979D02*
D03*
X00903919Y0014898D02*
D03*
X00903829Y00211979D02*
D03*
Y00220979D02*
D03*
Y00184979D02*
D03*
Y00202979D02*
D03*
Y00193979D02*
D03*
X00919829Y00101626D02*
D03*
Y00119626D02*
D03*
Y00110626D02*
D03*
X00912304Y00133562D02*
D03*
X00919829Y00128626D02*
D03*
X00903829Y00256979D02*
D03*
Y00265979D02*
D03*
Y00229979D02*
D03*
Y00247979D02*
D03*
Y00238979D02*
D03*
X00903829Y00310979D02*
D03*
Y00319979D02*
D03*
Y00283979D02*
D03*
Y00301979D02*
D03*
Y00292979D02*
D03*
Y00274979D02*
D03*
Y00355979D02*
D03*
Y00364979D02*
D03*
Y00328979D02*
D03*
Y00346979D02*
D03*
Y00337979D02*
D03*
Y00382979D02*
D03*
Y00391979D02*
D03*
Y00373979D02*
D03*
X00903829Y00490979D02*
D03*
Y00481979D02*
D03*
Y00427979D02*
D03*
Y00436979D02*
D03*
Y00400979D02*
D03*
Y00418979D02*
D03*
Y00409979D02*
D03*
Y00472979D02*
D03*
Y00445979D02*
D03*
Y00463979D02*
D03*
Y00454979D02*
D03*
X00597901Y00873826D02*
D03*
X00588901D02*
D03*
X00624902D02*
D03*
X00606902D02*
D03*
X00615901D02*
D03*
X00579902D02*
D03*
X00642901D02*
D03*
X00633901D02*
D03*
X00669901D02*
D03*
X00651901D02*
D03*
X00660901D02*
D03*
X00687901D02*
D03*
X00678901D02*
D03*
X00705901Y00873826D02*
D03*
X00696901Y00873826D02*
D03*
X00714897Y0087411D02*
D03*
X00723279Y00877388D02*
D03*
X0072941Y00883977D02*
D03*
X0073625Y00889826D02*
D03*
X0074525D02*
D03*
X0076325D02*
D03*
X0075425D02*
D03*
X0079025D02*
D03*
X0077225D02*
D03*
X0078125D02*
D03*
X00903829Y00499979D02*
D03*
Y00508979D02*
D03*
X00903829Y00526979D02*
D03*
Y00544979D02*
D03*
Y00535979D02*
D03*
Y00580979D02*
D03*
Y00589979D02*
D03*
Y00553979D02*
D03*
Y00571979D02*
D03*
Y00562979D02*
D03*
Y00517979D02*
D03*
Y00616978D02*
D03*
Y00625979D02*
D03*
Y00598979D02*
D03*
Y00607979D02*
D03*
X00903829Y00688978D02*
D03*
Y00724978D02*
D03*
Y00733978D02*
D03*
Y00697978D02*
D03*
Y00715978D02*
D03*
Y00706978D02*
D03*
Y00661978D02*
D03*
Y00670978D02*
D03*
Y00634978D02*
D03*
Y00652979D02*
D03*
Y00643979D02*
D03*
Y00679978D02*
D03*
X0080825Y00889826D02*
D03*
X0079925D02*
D03*
X0083525D02*
D03*
X0081725D02*
D03*
X0082625D02*
D03*
X0084425D02*
D03*
X0087125D02*
D03*
X0085325D02*
D03*
X0086225D02*
D03*
X00903829Y00742978D02*
D03*
Y00751978D02*
D03*
X00904767Y00760929D02*
D03*
X00909184Y00768771D02*
D03*
X00916575Y00773906D02*
D03*
X00919829Y00809297D02*
D03*
Y00800297D02*
D03*
Y00791297D02*
D03*
Y00782297D02*
D03*
X00919391Y00872287D02*
D03*
X00915867Y00880568D02*
D03*
X00919829Y00845297D02*
D03*
Y00863297D02*
D03*
Y00854297D02*
D03*
X0088025Y00889826D02*
D03*
X00909253Y00886672D02*
D03*
X0088925Y00889826D02*
D03*
X0089825Y00889848D02*
D03*
X00919829Y00818297D02*
D03*
Y00836297D02*
D03*
Y00827297D02*
D03*
D137*
X00035446Y00088D02*
D03*
X00892746Y0085D02*
D03*
X0003556Y0082677D02*
D03*
X00893Y0005D02*
D03*
M02*
