G04*
G04 #@! TF.GenerationSoftware,Altium Limited,Altium Designer,25.7.1 (20)*
G04*
G04 Layer_Color=128*
%FSTAX44Y44*%
%MOMM*%
G71*
G04*
G04 #@! TF.SameCoordinates,567EF581-4316-4FAF-80C0-128919799B06*
G04*
G04*
G04 #@! TF.FilePolarity,Positive*
G04*
G01*
G75*
%ADD15C,0.1270*%
D15*
X0035664Y0076581D02*
X0035964D01*
X0035814Y0076431D02*
Y0076731D01*
X0083493Y0080264D02*
X0083893D01*
X0083693Y0080064D02*
Y0080464D01*
X0033455Y0082423D02*
X0033855D01*
X0033655Y0082223D02*
Y0082623D01*
X0014455Y0050165D02*
X0014755D01*
X0014605Y0050015D02*
Y0050315D01*
X00285418Y00615995D02*
X00287418D01*
X00286418Y00614995D02*
Y00616995D01*
X0020297Y0029972D02*
X0020597D01*
X0020447Y0029822D02*
Y0030122D01*
X0019535Y0010033D02*
X0019835D01*
X0019685Y0009883D02*
Y0010183D01*
X00215983Y00082847D02*
X00218983D01*
X00217483Y00081347D02*
Y00084347D01*
X00215983Y00073957D02*
X00218983D01*
X00217483Y00072457D02*
Y00075457D01*
X00204553Y00082847D02*
X00207553D01*
X00206053Y00081347D02*
Y00084347D01*
X00204553Y00073957D02*
X00207553D01*
X00206053Y00072457D02*
Y00075457D01*
X00480143Y00082847D02*
X00483143D01*
X00481643Y00081347D02*
Y00084347D01*
X00480143Y00073957D02*
X00483143D01*
X00481643Y00072457D02*
Y00075457D01*
X00468713Y00082847D02*
X00471713D01*
X00470213Y00081347D02*
Y00084347D01*
X00468713Y00073957D02*
X00471713D01*
X00470213Y00072457D02*
Y00075457D01*
X00356953Y00082847D02*
X00359953D01*
X00358453Y00081347D02*
Y00084347D01*
X00356953Y00073957D02*
X00359953D01*
X00358453Y00072457D02*
Y00075457D01*
X00345523Y00082847D02*
X00348523D01*
X00347023Y00081347D02*
Y00084347D01*
X00345523Y00073957D02*
X00348523D01*
X00347023Y00072457D02*
Y00075457D01*
X00588093Y00084117D02*
X00591093D01*
X00589593Y00082617D02*
Y00085617D01*
X00588093Y00075227D02*
X00591093D01*
X00589593Y00073727D02*
Y00076727D01*
X00576663Y00084117D02*
X00579663D01*
X00578163Y00082617D02*
Y00085617D01*
X00576663Y00075227D02*
X00579663D01*
X00578163Y00073727D02*
Y00076727D01*
X00703663Y00082847D02*
X00706663D01*
X00705163Y00081347D02*
Y00084347D01*
X00703663Y00073957D02*
X00706663D01*
X00705163Y00072457D02*
Y00075457D01*
X00692233Y00082847D02*
X00695233D01*
X00693733Y00081347D02*
Y00084347D01*
X00692233Y00073957D02*
X00695233D01*
X00693733Y00072457D02*
Y00075457D01*
X00796443Y00189547D02*
X00799443D01*
X00797943Y00188047D02*
Y00191047D01*
X00785013Y00189547D02*
X00788013D01*
X00786513Y00188047D02*
Y00191047D01*
X00770722Y00344468D02*
X00773722D01*
X00772222Y00342967D02*
Y00345967D01*
X00782152Y00344468D02*
X00785152D01*
X00783652Y00342967D02*
Y00345967D01*
X00770722Y00330498D02*
X00773722D01*
X00772222Y00328997D02*
Y00331997D01*
X00782152Y00330498D02*
X00785152D01*
X00783652Y00328997D02*
Y00331997D01*
X00599212Y00367373D02*
X00602212D01*
X00600712Y00365873D02*
Y00368873D01*
X00587782Y00367373D02*
X00590782D01*
X00589282Y00365873D02*
Y00368873D01*
X00599212Y00381343D02*
X00602212D01*
X00600712Y00379843D02*
Y00382843D01*
X00587782Y00381343D02*
X00590782D01*
X00589282Y00379843D02*
Y00382843D01*
X00599212Y00395313D02*
X00602212D01*
X00600712Y00393813D02*
Y00396813D01*
X00587782Y00395313D02*
X00590782D01*
X00589282Y00393813D02*
Y00396813D01*
X0059286Y0023241D02*
X0059586D01*
X0059436Y0023091D02*
Y0023391D01*
X0059286Y0022098D02*
X0059586D01*
X0059436Y0021948D02*
Y0022248D01*
X0057889Y0023241D02*
X0058189D01*
X0058039Y0023091D02*
Y0023391D01*
X0057889Y0022098D02*
X0058189D01*
X0058039Y0021948D02*
Y0022248D01*
X0056492Y0023241D02*
X0056792D01*
X0056642Y0023091D02*
Y0023391D01*
X0056492Y0022098D02*
X0056792D01*
X0056642Y0021948D02*
Y0022248D01*
X0056492Y0040005D02*
X0056792D01*
X0056642Y0039855D02*
Y0040155D01*
X0011788Y0005334D02*
X0012088D01*
X0011938Y0005184D02*
Y0005484D01*
X0019535Y0010922D02*
X0019835D01*
X0019685Y0010772D02*
Y0011072D01*
X0019662Y0012954D02*
X0019962D01*
X0019812Y0012804D02*
Y0013104D01*
X0019662Y0012065D02*
X0019962D01*
X0019812Y0011915D02*
Y0012215D01*
X0020805Y0027051D02*
X0021105D01*
X0020955Y0026901D02*
Y0027201D01*
X0020297Y0029083D02*
X0020597D01*
X0020447Y0028933D02*
Y0029233D01*
X0020805Y002794D02*
X0021105D01*
X0020955Y002779D02*
Y002809D01*
X0019916Y0034417D02*
X0020216D01*
X0020066Y0034267D02*
Y0034567D01*
X00211035Y003446D02*
X00214035D01*
X00212535Y003431D02*
Y003461D01*
X0022202Y0048006D02*
X0022502D01*
X0022352Y0047856D02*
Y0048156D01*
X0022837Y0020193D02*
X0023137D01*
X0022987Y0020043D02*
Y0020343D01*
X0023853Y0020193D02*
X0024153D01*
X0024003Y0020043D02*
Y0020343D01*
X0024869Y0020193D02*
X0025169D01*
X0025019Y0020043D02*
Y0020343D01*
X0022837Y0021336D02*
X0023137D01*
X0022987Y0021186D02*
Y0021486D01*
X003033Y0020828D02*
X003063D01*
X003048Y0020678D02*
Y0020978D01*
X0023853Y0021336D02*
X0024153D01*
X0024003Y0021186D02*
Y0021486D01*
X0024869Y0021336D02*
X0025169D01*
X0025019Y0021186D02*
Y0021486D01*
X0031219Y0021463D02*
X0031519D01*
X0031369Y0021313D02*
Y0021613D01*
X0031219Y0022733D02*
X0031519D01*
X0031369Y0022583D02*
Y0022883D01*
X0031473Y002032D02*
X0031773D01*
X0031623Y002017D02*
Y002047D01*
X0031854Y0027051D02*
X0032154D01*
X0032004Y0026901D02*
Y0027201D01*
X00223424Y00322285D02*
X00226424D01*
X00224924Y00320785D02*
Y00323785D01*
X00223424Y00331175D02*
X00226424D01*
X00224924Y00329675D02*
Y00332675D01*
X0025123Y0043307D02*
X0025423D01*
X0025273Y0043157D02*
Y0043457D01*
X0023853Y0043307D02*
X0024153D01*
X0024003Y0043157D02*
Y0043457D01*
X0025123Y0044196D02*
X0025423D01*
X0025273Y0044046D02*
Y0044346D01*
X0023345Y0048006D02*
X0023645D01*
X0023495Y0047856D02*
Y0048156D01*
X0023395Y0049276D02*
X0023595D01*
X0023495Y0049176D02*
Y0049376D01*
X0023853Y0044196D02*
X0024153D01*
X0024003Y0044046D02*
Y0044346D01*
X0024488Y0048006D02*
X0024788D01*
X0024638Y0047856D02*
Y0048156D01*
X0030457Y004445D02*
X0030757D01*
X0030607Y00443D02*
Y00446D01*
X0029187Y004445D02*
X0029487D01*
X0029337Y00443D02*
Y00446D01*
X0033251Y0046482D02*
X0033551D01*
X0033401Y0046332D02*
Y0046632D01*
X0027917Y0041783D02*
X0028217D01*
X0028067Y0041633D02*
Y0041933D01*
X0027917Y0042799D02*
X0028217D01*
X0028067Y0042649D02*
Y0042949D01*
X0033251Y0047498D02*
X0033551D01*
X0033401Y0047348D02*
Y0047648D01*
X0035968Y0014224D02*
X0036168D01*
X0036068Y0014124D02*
Y0014324D01*
X0038204Y0014478D02*
X0038504D01*
X0038354Y0014328D02*
Y0014628D01*
X0043919Y0010922D02*
X0044219D01*
X0044069Y0010772D02*
Y0011072D01*
X0042903Y0012065D02*
X0043203D01*
X0043053Y0011915D02*
Y0012215D01*
X0042903Y0010922D02*
X0043203D01*
X0043053Y0010772D02*
Y0011072D01*
X0043919Y0012065D02*
X0044219D01*
X0044069Y0011915D02*
Y0012215D01*
X0047729Y0011684D02*
X0048029D01*
X0047879Y0011534D02*
Y0011834D01*
X0047729Y00127D02*
X0048029D01*
X0047879Y001255D02*
Y001285D01*
X0047729Y0010668D02*
X0048029D01*
X0047879Y0010518D02*
Y0010818D01*
X0049049Y0013843D02*
X0049249D01*
X0049149Y0013743D02*
Y0013943D01*
X0050015Y0017145D02*
X0050315D01*
X0050165Y0016995D02*
Y0017295D01*
X0050015Y0018161D02*
X0050315D01*
X0050165Y0018011D02*
Y0018311D01*
X0056873Y0010668D02*
X0057173D01*
X0057023Y0010518D02*
Y0010818D01*
X0037188Y0022606D02*
X0037488D01*
X0037338Y0022456D02*
Y0022756D01*
X0038839Y0024003D02*
X0039139D01*
X0038989Y0023853D02*
Y0024153D01*
X0039778Y0019431D02*
X0039978D01*
X0039878Y0019331D02*
Y0019531D01*
X0038839Y0025654D02*
X0039139D01*
X0038989Y0025504D02*
Y0025804D01*
X0037061Y0028448D02*
X0037361D01*
X0037211Y0028298D02*
Y0028598D01*
X0036172Y002921D02*
X0036472D01*
X0036322Y002906D02*
Y002936D01*
X0036172Y0030099D02*
X0036472D01*
X0036322Y0029949D02*
Y0030249D01*
X0036172Y0028448D02*
X0036472D01*
X0036322Y0028298D02*
Y0028598D01*
X0037061Y0030099D02*
X0037361D01*
X0037211Y0029949D02*
Y0030249D01*
X0037061Y002921D02*
X0037361D01*
X0037211Y002906D02*
Y002936D01*
X003795Y0028448D02*
X003825D01*
X00381Y0028298D02*
Y0028598D01*
X003795Y0030099D02*
X003825D01*
X00381Y0029949D02*
Y0030249D01*
X003795Y002921D02*
X003825D01*
X00381Y002906D02*
Y002936D01*
X0042064Y0018669D02*
X0042264D01*
X0042164Y0018569D02*
Y0018769D01*
X0039778Y0018669D02*
X0039978D01*
X0039878Y0018569D02*
Y0018769D01*
X004689Y0018669D02*
X004709D01*
X004699Y0018569D02*
Y0018769D01*
X00445005Y00186693D02*
X00447006D01*
X00446006Y00185693D02*
Y00187693D01*
X004689Y0019431D02*
X004709D01*
X004699Y0019331D02*
Y0019531D01*
X0042064Y0019431D02*
X0042264D01*
X0042164Y0019331D02*
Y0019531D01*
X00445005Y00194313D02*
X00447006D01*
X00446006Y00193313D02*
Y00195313D01*
X0050015Y0019304D02*
X0050315D01*
X0050165Y0019154D02*
Y0019454D01*
X0048872Y0020193D02*
X0049172D01*
X0049022Y0020043D02*
Y0020343D01*
X0054841Y002032D02*
X0055141D01*
X0054991Y002017D02*
Y002047D01*
X0056365Y0020828D02*
X0056665D01*
X0056515Y0020678D02*
Y0020978D01*
X0044681Y002286D02*
X0044981D01*
X0044831Y002271D02*
Y002301D01*
X0048237Y00254D02*
X0048537D01*
X0048387Y002525D02*
Y002555D01*
X00459544Y00254D02*
X00462544D01*
X00461044Y002525D02*
Y002555D01*
X0047094Y00254D02*
X0047394D01*
X0047244Y002525D02*
Y002555D01*
X0044681Y0023876D02*
X0044981D01*
X0044831Y0023726D02*
Y0024026D01*
X00459544Y0026797D02*
X00462544D01*
X00461044Y0026647D02*
Y0026947D01*
X0048237Y0026797D02*
X0048537D01*
X0048387Y0026647D02*
Y0026947D01*
X0046078Y0049149D02*
X0046378D01*
X0046228Y0048999D02*
Y0049299D01*
X0047094Y0026797D02*
X0047394D01*
X0047244Y0026647D02*
Y0026947D01*
X00492496Y0026797D02*
X00495496D01*
X00493996Y0026647D02*
Y0026947D01*
X0049761Y0021209D02*
X0050061D01*
X0049911Y0021059D02*
Y0021359D01*
X00492496Y00254D02*
X00495496D01*
X00493996Y002525D02*
Y002555D01*
X0050015Y0031623D02*
X0050315D01*
X0050165Y0031473D02*
Y0031773D01*
X0050777Y0031623D02*
X0051077D01*
X0050927Y0031473D02*
Y0031773D01*
X0051539Y0031623D02*
X0051839D01*
X0051689Y0031473D02*
Y0031773D01*
X0013566Y0050165D02*
X0013866D01*
X0013716Y0050015D02*
Y0050315D01*
X0015471Y0050419D02*
X0015771D01*
X0015621Y0050269D02*
Y0050569D01*
X001636Y0050419D02*
X001666D01*
X001651Y0050269D02*
Y0050569D01*
X0015675Y0066929D02*
X0016075D01*
X0015875Y0066729D02*
Y0067129D01*
X0023395Y0052451D02*
X0023595D01*
X0023495Y0052351D02*
Y0052551D01*
X0023395Y0053213D02*
X0023595D01*
X0023495Y0053113D02*
Y0053313D01*
X0023395Y0050165D02*
X0023595D01*
X0023495Y0050065D02*
Y0050265D01*
X0023395Y0051689D02*
X0023595D01*
X0023495Y0051589D02*
Y0051789D01*
X0023395Y0050927D02*
X0023595D01*
X0023495Y0050827D02*
Y0051027D01*
X0023268Y0055372D02*
X0023468D01*
X0023368Y0055272D02*
Y0055472D01*
X0023395Y0053975D02*
X0023595D01*
X0023495Y0053875D02*
Y0054075D01*
X0027967Y00597154D02*
X0028167D01*
X0028067Y00596154D02*
Y00598154D01*
X00307564Y00669606D02*
X00311564D01*
X00309564Y00667606D02*
Y00671606D01*
X0024234Y0074803D02*
X0024534D01*
X0024384Y0074653D02*
Y0074953D01*
X0023472Y0074803D02*
X0023772D01*
X0023622Y0074653D02*
Y0074953D01*
X0023676Y0083312D02*
X0024076D01*
X0023876Y0083112D02*
Y0083512D01*
X0023676Y0082169D02*
X0024076D01*
X0023876Y0081969D02*
Y0082369D01*
X0025835Y0078613D02*
X0026235D01*
X0026035Y0078413D02*
Y0078813D01*
X0024819Y0079629D02*
X0025219D01*
X0025019Y0079429D02*
Y0079829D01*
X0039093Y0060833D02*
X0039393D01*
X0039243Y0060683D02*
Y0060983D01*
X0039093Y0063754D02*
X0039393D01*
X0039243Y0063604D02*
Y0063904D01*
X0039093Y006223D02*
X0039393D01*
X0039243Y006208D02*
Y006238D01*
X0039093Y005588D02*
X0039393D01*
X0039243Y005573D02*
Y005603D01*
X0039093Y005715D02*
X0039393D01*
X0039243Y0057D02*
Y00573D01*
X0041125Y005588D02*
X0041425D01*
X0041275Y005573D02*
Y005603D01*
X0039093Y0059055D02*
X0039393D01*
X0039243Y0058905D02*
Y0059205D01*
X0041252Y0063754D02*
X0041552D01*
X0041402Y0063604D02*
Y0063904D01*
X0036553Y0064008D02*
X0036853D01*
X0036703Y0063858D02*
Y0064158D01*
X0042776Y005588D02*
X0043076D01*
X0042926Y005573D02*
Y005603D01*
X0046078Y0050419D02*
X0046378D01*
X0046228Y0050269D02*
Y0050569D01*
X0044554Y005588D02*
X0044854D01*
X0044704Y005573D02*
Y005603D01*
X0044554Y005715D02*
X0044854D01*
X0044704Y0057D02*
Y00573D01*
X0050015Y0054864D02*
X0050315D01*
X0050165Y0054714D02*
Y0055014D01*
X0056619Y0054864D02*
X0056919D01*
X0056769Y0054714D02*
Y0055014D01*
X0044173Y0067437D02*
X0044473D01*
X0044323Y0067287D02*
Y0067587D01*
X0044554Y0058801D02*
X0044854D01*
X0044704Y0058651D02*
Y0058951D01*
X00505335Y00818114D02*
X00508335D01*
X00506835Y00816614D02*
Y00819614D01*
X0050523Y0082931D02*
X0050823D01*
X0050673Y0082781D02*
Y0083081D01*
X0057127Y0079629D02*
X0057427D01*
X0057277Y0079479D02*
Y0079779D01*
X00516201Y0081105D02*
X00519201D01*
X00517701Y0080955D02*
Y0081255D01*
X0059646Y00128929D02*
X0059946D01*
X0059796Y00127429D02*
Y00130429D01*
X0059159Y0014732D02*
X0059459D01*
X0059309Y0014582D02*
Y0014882D01*
X0059667Y0013843D02*
X0059967D01*
X0059817Y0013693D02*
Y0013993D01*
X00648573Y00152614D02*
X00651573D01*
X00650073Y00151114D02*
Y00154114D01*
X00662543Y00152614D02*
X00665543D01*
X00664043Y00151114D02*
Y00154114D01*
X0066398Y0011938D02*
X0066698D01*
X0066548Y0011788D02*
Y0012088D01*
X0071605Y0014732D02*
X0071905D01*
X0071755Y0014582D02*
Y0014882D01*
X0080368Y0013843D02*
X0080668D01*
X0080518Y0013693D02*
Y0013993D01*
X0080368Y0014732D02*
X0080668D01*
X0080518Y0014582D02*
Y0014882D01*
X0081511Y0013843D02*
X0081811D01*
X0081661Y0013693D02*
Y0013993D01*
X0080622Y0016129D02*
X0080922D01*
X0080772Y0015979D02*
Y0016279D01*
X0081511Y0014732D02*
X0081811D01*
X0081661Y0014582D02*
Y0014882D01*
X0059667Y0020828D02*
X0059967D01*
X0059817Y0020678D02*
Y0020978D01*
X0061064Y0020447D02*
X0061364D01*
X0061214Y0020297D02*
Y0020597D01*
X0058651Y0020828D02*
X0058951D01*
X0058801Y0020678D02*
Y0020978D01*
X0057381Y0020828D02*
X0057681D01*
X0057531Y0020678D02*
Y0020978D01*
X0058143Y0034036D02*
X0058443D01*
X0058293Y0033886D02*
Y0034186D01*
X00648573Y0016401D02*
X00651573D01*
X00650073Y0016251D02*
Y0016551D01*
X00648573Y0017544D02*
X00651573D01*
X00650073Y0017394D02*
Y0017694D01*
X00662543Y0016401D02*
X00665543D01*
X00664043Y0016251D02*
Y0016551D01*
X00662543Y00185566D02*
X00665543D01*
X00664043Y00184066D02*
Y00187066D01*
X00662543Y0017544D02*
X00665543D01*
X00664043Y0017394D02*
Y0017694D01*
X005827Y0031623D02*
X005857D01*
X005842Y0031473D02*
Y0031773D01*
X005827Y0032639D02*
X005857D01*
X005842Y0032489D02*
Y0032789D01*
X00648573Y00185566D02*
X00651573D01*
X00650073Y00184066D02*
Y00187066D01*
X0056492Y0036068D02*
X0056792D01*
X0056642Y0035918D02*
Y0036218D01*
X0056492Y0036957D02*
X0056792D01*
X0056642Y0036807D02*
Y0037107D01*
X0056492Y0041021D02*
X0056792D01*
X0056642Y0040871D02*
Y0041171D01*
X0056492Y0039116D02*
X0056792D01*
X0056642Y0038966D02*
Y0039266D01*
X0058143Y0035052D02*
X0058443D01*
X0058293Y0034902D02*
Y0035202D01*
X0056492Y00381D02*
X0056792D01*
X0056642Y003795D02*
Y003825D01*
X0070208Y0049022D02*
X0070508D01*
X0070358Y0048872D02*
Y0049172D01*
X0060683Y0049022D02*
X0060983D01*
X0060833Y0048872D02*
Y0049172D01*
X007986Y0024765D02*
X008016D01*
X008001Y0024615D02*
Y0024915D01*
X0080241Y0026035D02*
X0080541D01*
X0080391Y0025885D02*
Y0026185D01*
X0080241Y0027178D02*
X0080541D01*
X0080391Y0027028D02*
Y0027328D01*
X0080241Y002921D02*
X0080541D01*
X0080391Y002906D02*
Y002936D01*
X0080241Y0028321D02*
X0080541D01*
X0080391Y0028171D02*
Y0028471D01*
X0080622Y0017272D02*
X0080922D01*
X0080772Y0017122D02*
Y0017422D01*
X0080876Y0023241D02*
X0081176D01*
X0081026Y0023091D02*
Y0023391D01*
X0081003Y0019812D02*
X0081303D01*
X0081153Y0019662D02*
Y0019962D01*
X0080876Y0022352D02*
X0081176D01*
X0081026Y0022202D02*
Y0022502D01*
X0081003Y0020828D02*
X0081303D01*
X0081153Y0020678D02*
Y0020978D01*
X0080749Y0033274D02*
X0081049D01*
X0080899Y0033124D02*
Y0033424D01*
X0080749Y0034163D02*
X0081049D01*
X0080899Y0034013D02*
Y0034313D01*
X008113Y002667D02*
X008143D01*
X008128Y002652D02*
Y002682D01*
X008113Y0032131D02*
X008143D01*
X008128Y0031981D02*
Y0032281D01*
X0075796Y0047244D02*
X0076096D01*
X0075946Y0047094D02*
Y0047394D01*
X0071732Y0049022D02*
X0072032D01*
X0071882Y0048872D02*
Y0049172D01*
X0074907Y0049022D02*
X0075207D01*
X0075057Y0048872D02*
Y0049172D01*
X0073383Y0049022D02*
X0073683D01*
X0073533Y0048872D02*
Y0049172D01*
X0079479Y0037592D02*
X0079779D01*
X0079629Y0037442D02*
Y0037742D01*
X0080622Y0036449D02*
X0080922D01*
X0080772Y0036299D02*
Y0036599D01*
X0079479Y0036449D02*
X0079779D01*
X0079629Y0036299D02*
Y0036599D01*
X00806123Y00376099D02*
X00809123D01*
X00807623Y00374599D02*
Y00377599D01*
X0076304Y0049022D02*
X0076604D01*
X0076454Y0048872D02*
Y0049172D01*
X0080241Y0040005D02*
X0080541D01*
X0080391Y0039855D02*
Y0040155D01*
X0080241Y0038989D02*
X0080541D01*
X0080391Y0038839D02*
Y0039139D01*
X0082019Y0007874D02*
X0082319D01*
X0082169Y0007724D02*
Y0008024D01*
X0082019Y0005969D02*
X0082319D01*
X0082169Y0005819D02*
Y0006119D01*
X0084305Y002159D02*
X0084605D01*
X0084455Y002144D02*
Y002174D01*
X0082019Y002667D02*
X0082319D01*
X0082169Y002652D02*
Y002682D01*
X0082019Y0032131D02*
X0082319D01*
X0082169Y0031981D02*
Y0032281D01*
X0084305Y0035687D02*
X0084605D01*
X0084455Y0035537D02*
Y0035837D01*
X0085067Y004699D02*
X0085367D01*
X0085217Y004684D02*
Y004714D01*
X0063096Y0051689D02*
X0063396D01*
X0063246Y0051539D02*
Y0051839D01*
X0063477Y0050165D02*
X0063777D01*
X0063627Y0050015D02*
Y0050315D01*
X0065509Y0049911D02*
X0065809D01*
X0065659Y0049761D02*
Y0050061D01*
X0064874Y0051689D02*
X0065174D01*
X0065024Y0051539D02*
Y0051839D01*
X0066652Y0053975D02*
X0066952D01*
X0066802Y0053825D02*
Y0054125D01*
X0061318Y0064897D02*
X0061618D01*
X0061468Y0064747D02*
Y0065047D01*
X005827Y0068834D02*
X005857D01*
X005842Y0068684D02*
Y0068984D01*
X0059921Y0068834D02*
X0060221D01*
X0060071Y0068684D02*
Y0068984D01*
X0070208Y0050419D02*
X0070508D01*
X0070358Y0050269D02*
Y0050569D01*
X0070208Y005207D02*
X0070508D01*
X0070358Y005192D02*
Y005222D01*
X0076304Y0050673D02*
X0076604D01*
X0076454Y0050523D02*
Y0050823D01*
X0076304Y0051943D02*
X0076604D01*
X0076454Y0051793D02*
Y0052093D01*
X0070208Y0053594D02*
X0070508D01*
X0070358Y0053444D02*
Y0053744D01*
X0071605Y0054991D02*
X0071905D01*
X0071755Y0054841D02*
Y0055141D01*
X0059794Y0080518D02*
X0060094D01*
X0059944Y0080368D02*
Y0080668D01*
X0060448Y0083166D02*
X0060748D01*
X0060598Y0083016D02*
Y0083316D01*
X0064239Y0077216D02*
X0064539D01*
X0064389Y0077066D02*
Y0077366D01*
X0066271Y0077724D02*
X0066571D01*
X0066421Y0077574D02*
Y0077874D01*
X0068303Y0077216D02*
X0068603D01*
X0068453Y0077066D02*
Y0077366D01*
X00701514Y00778471D02*
X00704514D01*
X00703014Y00776971D02*
Y00779971D01*
X0077447Y0078359D02*
X0077747D01*
X0077597Y0078209D02*
Y0078509D01*
X0079733Y00508D02*
X0080033D01*
X0079883Y005065D02*
Y005095D01*
X0079733Y0049784D02*
X0080033D01*
X0079883Y0049634D02*
Y0049934D01*
X0087276Y0051943D02*
X0087476D01*
X0087376Y0051843D02*
Y0052043D01*
X0089131Y0051943D02*
X0089431D01*
X0089281Y0051793D02*
Y0052093D01*
X0086591Y0069977D02*
X0086891D01*
X0086741Y0069827D02*
Y0070127D01*
X0088115Y0052832D02*
X0088415D01*
X0088265Y0052682D02*
Y0052982D01*
X0086464Y0073406D02*
X0086764D01*
X0086614Y0073256D02*
Y0073556D01*
X0080318Y0077216D02*
X0080718D01*
X0080518Y0077016D02*
Y0077416D01*
X0079048Y0078359D02*
X0079448D01*
X0079248Y0078159D02*
Y0078559D01*
X0045951Y0081661D02*
X0046251D01*
X0046101Y0081511D02*
Y0081811D01*
X0040236Y0082169D02*
X0040536D01*
X0040386Y0082019D02*
Y0082319D01*
X004684Y0074549D02*
X004714D01*
X004699Y0074399D02*
Y0074699D01*
X00344061Y00746571D02*
X00347061D01*
X00345561Y00745071D02*
Y00748071D01*
X00344061Y00736411D02*
X00347061D01*
X00345561Y00734911D02*
Y00737911D01*
X0034394Y0072517D02*
X0034694D01*
X0034544Y0072367D02*
Y0072667D01*
X0036172Y0082169D02*
X0036472D01*
X0036322Y0082019D02*
Y0082319D01*
X0030457Y0045339D02*
X0030757D01*
X0030607Y0045189D02*
Y0045489D01*
X0029187Y0045339D02*
X0029487D01*
X0029337Y0045189D02*
Y0045489D01*
X0026901Y0041783D02*
X0027201D01*
X0027051Y0041633D02*
Y0041933D01*
X0026901Y0042799D02*
X0027201D01*
X0027051Y0042649D02*
Y0042949D01*
X0033301Y0060325D02*
X0033501D01*
X0033401Y0060225D02*
Y0060425D01*
X0031777Y0060325D02*
X0031977D01*
X0031877Y0060225D02*
Y0060425D01*
X0032285Y0058674D02*
X0032485D01*
X0032385Y0058574D02*
Y0058774D01*
X0017172Y005969D02*
X0017372D01*
X0017272Y005959D02*
Y005979D01*
X001641Y0060325D02*
X001661D01*
X001651Y0060225D02*
Y0060425D01*
X0016791Y0056261D02*
X0016991D01*
X0016891Y0056161D02*
Y0056361D01*
M02*
