G04*
G04 #@! TF.GenerationSoftware,Altium Limited,Altium Designer,25.8.1 (18)*
G04*
G04 Layer_Color=128*
%FSTAX44Y44*%
%MOMM*%
G71*
G04*
G04 #@! TF.SameCoordinates,CD8A6794-82D1-42B1-A0BA-2BE9AD7E379D*
G04*
G04*
G04 #@! TF.FilePolarity,Positive*
G04*
G01*
G75*
%ADD18C,0.1270*%
D18*
X00019546Y00088D02*
X00051346D01*
X00035446Y000721D02*
Y001039D01*
X000566Y004944D02*
X000656D01*
X000611Y004899D02*
Y004989D01*
X000312Y004944D02*
X000402D01*
X000357Y004899D02*
Y004989D01*
X000566Y005198D02*
X000656D01*
X000611Y005153D02*
Y005243D01*
X000312Y005198D02*
X000402D01*
X000357Y005153D02*
Y005243D01*
X000312Y007484D02*
X000402D01*
X000357Y007439D02*
Y007529D01*
X0001966Y0082677D02*
X0005146D01*
X0003556Y0081087D02*
Y0084267D01*
X000566Y007484D02*
X000656D01*
X000611Y007439D02*
Y007529D01*
X008771Y0005D02*
X009089D01*
X00893Y000341D02*
Y000659D01*
X0067989Y0084709D02*
X0068789D01*
X0068389Y0084309D02*
Y0085109D01*
X00876846Y0085D02*
X00908646D01*
X00892746Y008341D02*
Y008659D01*
X0044839Y0007874D02*
X0045839D01*
X0045339Y0007374D02*
Y0008374D01*
X0067572Y0007874D02*
X0068572D01*
X0068072Y0007374D02*
Y0008374D01*
X0055761Y0007874D02*
X0056761D01*
X0056261Y0007374D02*
Y0008374D01*
X0032774Y0007874D02*
X0033774D01*
X0033274Y0007374D02*
Y0008374D01*
X001855Y0007874D02*
X001955D01*
X001905Y0007374D02*
Y0008374D01*
X001601Y0007874D02*
X001701D01*
X001651Y0007374D02*
Y0008374D01*
X0030234Y0007874D02*
X0031234D01*
X0030734Y0007374D02*
Y0008374D01*
X0053221Y0007874D02*
X0054221D01*
X0053721Y0007374D02*
Y0008374D01*
X0065032Y0007874D02*
X0066032D01*
X0065532Y0007374D02*
Y0008374D01*
X0042299Y0007874D02*
X0043299D01*
X0042799Y0007374D02*
Y0008374D01*
X0065989Y0084709D02*
X0066789D01*
X0066389Y0084309D02*
Y0085109D01*
X000566Y00469D02*
X000656D01*
X000611Y004645D02*
Y004735D01*
X000566Y004436D02*
X000656D01*
X000611Y004391D02*
Y004481D01*
X000312Y00469D02*
X000402D01*
X000357Y004645D02*
Y004735D01*
X000312Y004436D02*
X000402D01*
X000357Y004391D02*
Y004481D01*
X00082Y00469D02*
X00091D01*
X000865Y004645D02*
Y004735D01*
X0067862Y0082042D02*
X0068662D01*
X0068262Y0081642D02*
Y0082442D01*
X0069862Y0082042D02*
X0070662D01*
X0070262Y0081642D02*
Y0082442D01*
X0065862Y0082042D02*
X0066662D01*
X0066262Y0081642D02*
Y0082442D01*
X0063862Y0082042D02*
X0064662D01*
X0064262Y0081642D02*
Y0082442D01*
X001074Y006976D02*
X001164D01*
X001119Y006931D02*
Y007021D01*
X001074Y006722D02*
X001164D01*
X001119Y006677D02*
Y006767D01*
X001074Y005198D02*
X001164D01*
X001119Y005153D02*
Y005243D01*
X00082Y005198D02*
X00091D01*
X000865Y005153D02*
Y005243D01*
X001074Y005452D02*
X001164D01*
X001119Y005407D02*
Y005497D01*
X00082Y005452D02*
X00091D01*
X000865Y005407D02*
Y005497D01*
X001074Y007484D02*
X001164D01*
X001119Y007439D02*
Y007529D01*
X00082Y007484D02*
X00091D01*
X000865Y007439D02*
Y007529D01*
X001074Y00469D02*
X001164D01*
X001119Y004645D02*
Y004735D01*
X001074Y004436D02*
X001164D01*
X001119Y004391D02*
Y004481D01*
X00082Y004436D02*
X00091D01*
X000865Y004391D02*
Y004481D01*
X00082Y002912D02*
X00091D01*
X000865Y002867D02*
Y002957D01*
X001074Y003166D02*
X001164D01*
X001119Y003121D02*
Y003211D01*
X001074Y002912D02*
X001164D01*
X001119Y002867D02*
Y002957D01*
X001074Y002658D02*
X001164D01*
X001119Y002613D02*
Y002703D01*
X001074Y002404D02*
X001164D01*
X001119Y002359D02*
Y002449D01*
X00082Y001896D02*
X00091D01*
X000865Y001851D02*
Y001941D01*
X001074Y003928D02*
X001164D01*
X001119Y003883D02*
Y003973D01*
X001074Y004182D02*
X001164D01*
X001119Y004137D02*
Y004227D01*
X00082Y003166D02*
X00091D01*
X000865Y003121D02*
Y003211D01*
X001074Y003674D02*
X001164D01*
X001119Y003629D02*
Y003719D01*
X00082Y003674D02*
X00091D01*
X000865Y003629D02*
Y003719D01*
X00082Y003928D02*
X00091D01*
X000865Y003883D02*
Y003973D01*
X00082Y004182D02*
X00091D01*
X000865Y004137D02*
Y004227D01*
X001074Y004944D02*
X001164D01*
X001119Y004899D02*
Y004989D01*
X00082Y004944D02*
X00091D01*
X000865Y004899D02*
Y004989D01*
X001074Y005706D02*
X001164D01*
X001119Y005661D02*
Y005751D01*
X00082Y005706D02*
X00091D01*
X000865Y005661D02*
Y005751D01*
X00082Y006214D02*
X00091D01*
X000865Y006169D02*
Y006259D01*
X00082Y006468D02*
X00091D01*
X000865Y006423D02*
Y006513D01*
X001074Y00723D02*
X001164D01*
X001119Y007185D02*
Y007275D01*
X00082Y00723D02*
X00091D01*
X000865Y007185D02*
Y007275D01*
X001074Y007738D02*
X001164D01*
X001119Y007693D02*
Y007783D01*
X00082Y007738D02*
X00091D01*
X000865Y007693D02*
Y007783D01*
X00082Y001388D02*
X00091D01*
X000865Y001343D02*
Y001433D01*
X00082Y001642D02*
X00091D01*
X000865Y001597D02*
Y001687D01*
X001074Y001896D02*
X001164D01*
X001119Y001851D02*
Y001941D01*
X001074Y00215D02*
X001164D01*
X001119Y002105D02*
Y002195D01*
X00082Y00215D02*
X00091D01*
X000865Y002105D02*
Y002195D01*
X00082Y002658D02*
X00091D01*
X000865Y002613D02*
Y002703D01*
X00082Y002404D02*
X00091D01*
X000865Y002359D02*
Y002449D01*
X00082Y006722D02*
X00091D01*
X000865Y006677D02*
Y006767D01*
X00082Y006976D02*
X00091D01*
X000865Y006931D02*
Y007021D01*
X001074Y006214D02*
X001164D01*
X001119Y006169D02*
Y006259D01*
X001074Y006468D02*
X001164D01*
X001119Y006423D02*
Y006513D01*
X001074Y001388D02*
X001164D01*
X001119Y001343D02*
Y001433D01*
X001074Y001642D02*
X001164D01*
X001119Y001597D02*
Y001687D01*
X001074Y00342D02*
X001164D01*
X001119Y003375D02*
Y003465D01*
X00082Y00342D02*
X00091D01*
X000865Y003375D02*
Y003465D01*
X00082Y00596D02*
X00091D01*
X000865Y005915D02*
Y006005D01*
X001074Y00596D02*
X001164D01*
X001119Y005915D02*
Y006005D01*
X000312Y005452D02*
X000402D01*
X000357Y005407D02*
Y005497D01*
X000566Y005452D02*
X000656D01*
X000611Y005407D02*
Y005497D01*
X000312Y006722D02*
X000402D01*
X000357Y006677D02*
Y006767D01*
X000566Y006468D02*
X000656D01*
X000611Y006423D02*
Y006513D01*
X000566Y006722D02*
X000656D01*
X000611Y006677D02*
Y006767D01*
X000566Y006976D02*
X000656D01*
X000611Y006931D02*
Y007021D01*
X000566Y006214D02*
X000656D01*
X000611Y006169D02*
Y006259D01*
X000312Y006976D02*
X000402D01*
X000357Y006931D02*
Y007021D01*
X000566Y001642D02*
X000656D01*
X000611Y001597D02*
Y001687D01*
X000566Y001388D02*
X000656D01*
X000611Y001343D02*
Y001433D01*
X000312Y002912D02*
X000402D01*
X000357Y002867D02*
Y002957D01*
X000566Y003166D02*
X000656D01*
X000611Y003121D02*
Y003211D01*
X000566Y002912D02*
X000656D01*
X000611Y002867D02*
Y002957D01*
X000566Y002658D02*
X000656D01*
X000611Y002613D02*
Y002703D01*
X000566Y002404D02*
X000656D01*
X000611Y002359D02*
Y002449D01*
X000312Y001896D02*
X000402D01*
X000357Y001851D02*
Y001941D01*
X000312Y003166D02*
X000402D01*
X000357Y003121D02*
Y003211D01*
X000566Y005706D02*
X000656D01*
X000611Y005661D02*
Y005751D01*
X000312Y005706D02*
X000402D01*
X000357Y005661D02*
Y005751D01*
X000312Y006214D02*
X000402D01*
X000357Y006169D02*
Y006259D01*
X000312Y006468D02*
X000402D01*
X000357Y006423D02*
Y006513D01*
X000566Y00723D02*
X000656D01*
X000611Y007185D02*
Y007275D01*
X000312Y00723D02*
X000402D01*
X000357Y007185D02*
Y007275D01*
X000566Y007738D02*
X000656D01*
X000611Y007693D02*
Y007783D01*
X000312Y007738D02*
X000402D01*
X000357Y007693D02*
Y007783D01*
X000312Y001388D02*
X000402D01*
X000357Y001343D02*
Y001433D01*
X000312Y001642D02*
X000402D01*
X000357Y001597D02*
Y001687D01*
X000566Y001896D02*
X000656D01*
X000611Y001851D02*
Y001941D01*
X000566Y00215D02*
X000656D01*
X000611Y002105D02*
Y002195D01*
X000312Y00215D02*
X000402D01*
X000357Y002105D02*
Y002195D01*
X000312Y002658D02*
X000402D01*
X000357Y002613D02*
Y002703D01*
X000312Y002404D02*
X000402D01*
X000357Y002359D02*
Y002449D01*
X000566Y00596D02*
X000656D01*
X000611Y005915D02*
Y006005D01*
X000312Y00596D02*
X000402D01*
X000357Y005915D02*
Y006005D01*
X000312Y00342D02*
X000402D01*
X000357Y003375D02*
Y003465D01*
X000566Y00342D02*
X000656D01*
X000611Y003375D02*
Y003465D01*
X000312Y003674D02*
X000402D01*
X000357Y003629D02*
Y003719D01*
X000312Y003928D02*
X000402D01*
X000357Y003883D02*
Y003973D01*
X000312Y004182D02*
X000402D01*
X000357Y004137D02*
Y004227D01*
X000566Y003928D02*
X000656D01*
X000611Y003883D02*
Y003973D01*
X000566Y004182D02*
X000656D01*
X000611Y004137D02*
Y004227D01*
X000566Y003674D02*
X000656D01*
X000611Y003629D02*
Y003719D01*
X0069989Y0084709D02*
X0070789D01*
X0070389Y0084309D02*
Y0085109D01*
X0063989Y0084709D02*
X0064789D01*
X0064389Y0084309D02*
Y0085109D01*
X00051431Y00010171D02*
X00053431D01*
X00052431Y00009171D02*
Y00011171D01*
X00042431Y00010171D02*
X00044431D01*
X00043431Y00009171D02*
Y00011171D01*
X00078431Y00010171D02*
X00080431D01*
X00079431Y00009171D02*
Y00011171D01*
X00060431Y00010171D02*
X00062431D01*
X00061431Y00009171D02*
Y00011171D01*
X00069431Y00010171D02*
X00071431D01*
X00070431Y00009171D02*
Y00011171D01*
X00011229Y00022764D02*
X00013229D01*
X00012229Y00021764D02*
Y00023764D01*
X00009169Y00031525D02*
X0001117D01*
X0001017Y00030525D02*
Y00032525D01*
X00033431Y00010171D02*
X00035431D01*
X00034431Y00009171D02*
Y00011171D01*
X00016654Y00015583D02*
X00018654D01*
X00017654Y00014583D02*
Y00016583D01*
X00024484Y00011144D02*
X00026484D01*
X00025484Y00010144D02*
Y00012145D01*
X00141431Y00010171D02*
X00143431D01*
X00142431Y00009171D02*
Y00011171D01*
X00132431Y00010171D02*
X00134431D01*
X00133431Y00009171D02*
Y00011171D01*
X00168431Y00010171D02*
X00170431D01*
X00169431Y00009171D02*
Y00011171D01*
X0015043Y00010171D02*
X0015243D01*
X00151431Y00009171D02*
Y00011171D01*
X00159431Y00010171D02*
X0016143D01*
X00160431Y00009171D02*
Y00011171D01*
X00096431Y00010171D02*
X00098431D01*
X00097431Y00009171D02*
Y00011171D01*
X00087431Y00010171D02*
X00089431D01*
X00088431Y00009171D02*
Y00011171D01*
X00123431Y00010171D02*
X00125431D01*
X00124431Y00009171D02*
Y00011171D01*
X00105431Y00010171D02*
X00107431D01*
X00106431Y00009171D02*
Y00011171D01*
X00114431Y00010171D02*
X00116431D01*
X00115431Y00009171D02*
Y00011171D01*
X0017743Y00010171D02*
X00179431D01*
X00178431Y00009171D02*
Y00011171D01*
X0019543Y00010171D02*
X0019743D01*
X0019643Y00009171D02*
Y00011171D01*
X0018643Y00010171D02*
X00188431D01*
X0018743Y00009171D02*
Y00011171D01*
X00200502Y00017606D02*
X00202502D01*
X00201502Y00016605D02*
Y00018606D01*
X00207221Y00023593D02*
X00209221D01*
X00208221Y00022594D02*
Y00024594D01*
X00215873Y00026071D02*
X00217873D01*
X00216873Y00025071D02*
Y00027071D01*
X00269873Y0002617D02*
X00271873D01*
X00270873Y00025171D02*
Y00027171D01*
X00251873Y0002617D02*
X00253873D01*
X00252873Y00025171D02*
Y00027171D01*
X00260873Y0002617D02*
X00262873D01*
X00261873Y00025171D02*
Y00027171D01*
X00233873Y0002617D02*
X00235873D01*
X00234873Y00025171D02*
Y00027171D01*
X00224873Y0002617D02*
X00226873D01*
X00225873Y00025171D02*
Y00027171D01*
X00242873Y0002617D02*
X00244873D01*
X00243873Y00025171D02*
Y00027171D01*
X00323872Y0002617D02*
X00325872D01*
X00324873Y00025171D02*
Y00027171D01*
X00314872Y0002617D02*
X00316873D01*
X00315872Y00025171D02*
Y00027171D01*
X00350872Y0002617D02*
X00352872D01*
X00351872Y00025171D02*
Y00027171D01*
X00332873Y0002617D02*
X00334873D01*
X00333872Y00025171D02*
Y00027171D01*
X00341872Y0002617D02*
X00343872D01*
X00342872Y00025171D02*
Y00027171D01*
X00278873Y0002617D02*
X00280873D01*
X00279873Y00025171D02*
Y00027171D01*
X00305872Y0002617D02*
X00307873D01*
X00306873Y00025171D02*
Y00027171D01*
X00287873Y0002617D02*
X00289872D01*
X00288873Y00025171D02*
Y00027171D01*
X00296873Y0002617D02*
X00298873D01*
X00297873Y00025171D02*
Y00027171D01*
X0000917Y00058525D02*
X0001117D01*
X0001017Y00057525D02*
Y00059525D01*
X0000917Y00067525D02*
X0001117D01*
X0001017Y00066525D02*
Y00068525D01*
X0000917Y00040525D02*
X0001117D01*
X0001017Y00039525D02*
Y00041525D01*
X0000917Y00049525D02*
X0001117D01*
X0001017Y00048525D02*
Y00050525D01*
X0000917Y00085525D02*
X0001117D01*
X0001017Y00084525D02*
Y00086525D01*
X0000917Y00076525D02*
X0001117D01*
X0001017Y00075525D02*
Y00077525D01*
X0000917Y00094525D02*
X0001117D01*
X0001017Y00093525D02*
Y00095525D01*
X00413872Y0002617D02*
X00415872D01*
X00414872Y00025171D02*
Y00027171D01*
X00404872Y0002617D02*
X00406872D01*
X00405872Y00025171D02*
Y00027171D01*
X00431872Y0002617D02*
X00433872D01*
X00432872Y00025171D02*
Y00027171D01*
X00422872Y0002617D02*
X00424872D01*
X00423872Y00025171D02*
Y00027171D01*
X00440872Y0002617D02*
X00442872D01*
X00441872Y00025171D02*
Y00027171D01*
X00359872Y0002617D02*
X00361872D01*
X00360872Y00025171D02*
Y00027171D01*
X00377872Y0002617D02*
X00379872D01*
X00378872Y00025171D02*
Y00027171D01*
X00368872Y0002617D02*
X00370872D01*
X00369872Y00025171D02*
Y00027171D01*
X00395872Y0002617D02*
X00397872D01*
X00396872Y00025171D02*
Y00027171D01*
X00386872Y0002617D02*
X00388872D01*
X00387872Y00025171D02*
Y00027171D01*
X00449872Y0002617D02*
X00451872D01*
X00450872Y00025171D02*
Y00027171D01*
X00476872Y0002617D02*
X00478872D01*
X00477872Y00025171D02*
Y00027171D01*
X00467872Y0002617D02*
X00469872D01*
X00468872Y00025171D02*
Y00027171D01*
X00503872Y0002617D02*
X00505872D01*
X00504872Y00025171D02*
Y00027171D01*
X00485872Y0002617D02*
X00487872D01*
X00486872Y00025171D02*
Y00027171D01*
X00494872Y0002617D02*
X00496872D01*
X00495872Y00025171D02*
Y00027171D01*
X00458872Y0002617D02*
X00460872D01*
X00459872Y00025171D02*
Y00027171D01*
X00512872Y00026171D02*
X00514872D01*
X00513872Y00025171D02*
Y00027171D01*
X00521872Y00026171D02*
X00523872D01*
X00522872Y00025171D02*
Y00027171D01*
X00530872Y00026171D02*
X00532872D01*
X00531872Y00025171D02*
Y00027171D01*
X00539872Y00026171D02*
X00541872D01*
X00540872Y00025171D02*
Y00027171D01*
X00548872Y00026171D02*
X00550872D01*
X00549872Y00025171D02*
Y00027171D01*
X00557872Y00026171D02*
X00559872D01*
X00558872Y00025171D02*
Y00027171D01*
X00566872Y00026171D02*
X00568872D01*
X00567872Y00025171D02*
Y00027171D01*
X00009171Y00835087D02*
X00011171D01*
X00010171Y00834087D02*
Y00836087D01*
X00009171Y00826087D02*
X00011171D01*
X00010171Y00825087D02*
Y00827087D01*
X00009171Y00817087D02*
X00011171D01*
X00010171Y00816087D02*
Y00818087D01*
X00009171Y00853087D02*
X00011171D01*
X00010171Y00852087D02*
Y00854087D01*
X00009171Y00844087D02*
X00011171D01*
X00010171Y00843087D02*
Y00845087D01*
X00009171Y00862087D02*
X00011171D01*
X00010171Y00861087D02*
Y00863087D01*
X00009375Y00871085D02*
X00011375D01*
X00010375Y00870085D02*
Y00872085D01*
X00012495Y00879527D02*
X00014495D01*
X00013495Y00878527D02*
Y00880527D01*
X0001871Y00886037D02*
X0002071D01*
X0001971Y00885037D02*
Y00887037D01*
X0002703Y00889467D02*
X0002903D01*
X0002803Y00888467D02*
Y00890467D01*
X00045023Y00889826D02*
X00047023D01*
X00046023Y00888826D02*
Y00890826D01*
X00072023Y00889826D02*
X00074023D01*
X00073023Y00888826D02*
Y00890826D01*
X00054023Y00889826D02*
X00056023D01*
X00055023Y00888826D02*
Y00890826D01*
X00063023Y00889826D02*
X00065023D01*
X00064023Y00888826D02*
Y00890826D01*
X00036023Y00889826D02*
X00038023D01*
X00037023Y00888826D02*
Y00890826D01*
X00117023Y00889826D02*
X00119023D01*
X00118023Y00888826D02*
Y00890826D01*
X00108023Y00889826D02*
X00110023D01*
X00109023Y00888826D02*
Y00890826D01*
X00144023Y00889826D02*
X00146023D01*
X00145023Y00888826D02*
Y00890826D01*
X00126023Y00889826D02*
X00128023D01*
X00127023Y00888826D02*
Y00890826D01*
X00135023Y00889826D02*
X00137023D01*
X00136023Y00888826D02*
Y00890826D01*
X00099023Y00889826D02*
X00101023D01*
X00100023Y00888826D02*
Y00890826D01*
X00081023Y00889826D02*
X00083023D01*
X00082023Y00888826D02*
Y00890826D01*
X00090023Y00889826D02*
X00092023D01*
X00091023Y00888826D02*
Y00890826D01*
X00218902Y00873824D02*
X00220902D01*
X00219902Y00872824D02*
Y00874824D01*
X00227902Y00873824D02*
X00229902D01*
X00228902Y00872824D02*
Y00874824D01*
X00236902Y00873824D02*
X00238902D01*
X00237902Y00872824D02*
Y00874824D01*
X00245902Y00873824D02*
X00247902D01*
X00246902Y00872824D02*
Y00874824D01*
X00254902Y00873824D02*
X00256902D01*
X00255902Y00872824D02*
Y00874824D01*
X00171023Y00889826D02*
X00173023D01*
X00172023Y00888826D02*
Y00890826D01*
X00162023Y00889826D02*
X00164023D01*
X00163023Y00888826D02*
Y00890826D01*
X00197744Y00887603D02*
X00199744D01*
X00198744Y00886603D02*
Y00888603D01*
X00180023Y00889826D02*
X00182023D01*
X00181023Y00888826D02*
Y00890826D01*
X00189023Y00889826D02*
X00191023D01*
X00190023Y00888826D02*
Y00890826D01*
X00153023Y00889826D02*
X00155023D01*
X00154023Y00888826D02*
Y00890826D01*
X00263902Y00873824D02*
X00265902D01*
X00264902Y00872824D02*
Y00874824D01*
X00272902Y00873824D02*
X00274902D01*
X00273902Y00872824D02*
Y00874824D01*
X00281902Y00873824D02*
X00283902D01*
X00282902Y00872824D02*
Y00874824D01*
X00290902Y00873824D02*
X00292902D01*
X00291902Y00872824D02*
Y00874824D01*
X00299902Y00873824D02*
X00301902D01*
X00300902Y00872824D02*
Y00874825D01*
X00202387Y00879893D02*
X00204387D01*
X00203387Y00878893D02*
Y00880893D01*
X00308902Y00873825D02*
X00310902D01*
X00309902Y00872825D02*
Y00874825D01*
X0020999Y00875078D02*
X0021199D01*
X0021099Y00874078D02*
Y00876078D01*
X00317902Y00873825D02*
X00319902D01*
X00318902Y00872825D02*
Y00874825D01*
X00326902Y00873825D02*
X00328902D01*
X00327902Y00872825D02*
Y00874825D01*
X00335902Y00873825D02*
X00337902D01*
X00336902Y00872825D02*
Y00874825D01*
X00344902Y00873825D02*
X00346902D01*
X00345902Y00872825D02*
Y00874825D01*
X00353902Y00873825D02*
X00355902D01*
X00354902Y00872825D02*
Y00874825D01*
X00362902Y00873825D02*
X00364902D01*
X00363902Y00872825D02*
Y00874825D01*
X00371902Y00873825D02*
X00373902D01*
X00372902Y00872825D02*
Y00874825D01*
X00380902Y00873825D02*
X00382902D01*
X00381902Y00872825D02*
Y00874825D01*
X00389902Y00873825D02*
X00391902D01*
X00390902Y00872825D02*
Y00874825D01*
X00398902Y00873825D02*
X00400902D01*
X00399902Y00872825D02*
Y00874825D01*
X00407902Y00873826D02*
X00409902D01*
X00408902Y00872825D02*
Y00874826D01*
X00434902Y00873826D02*
X00436902D01*
X00435902Y00872826D02*
Y00874826D01*
X00416902Y00873826D02*
X00418902D01*
X00417902Y00872826D02*
Y00874826D01*
X00425902Y00873826D02*
X00427902D01*
X00426902Y00872826D02*
Y00874826D01*
X00497902Y00873826D02*
X00499902D01*
X00498902Y00872826D02*
Y00874826D01*
X00506902Y00873826D02*
X00508902D01*
X00507902Y00872826D02*
Y00874826D01*
X00452902Y00873826D02*
X00454902D01*
X00453902Y00872826D02*
Y00874826D01*
X00443902Y00873826D02*
X00445902D01*
X00444902Y00872826D02*
Y00874826D01*
X00479902Y00873826D02*
X00481902D01*
X00480902Y00872826D02*
Y00874826D01*
X00461902Y00873826D02*
X00463902D01*
X00462902Y00872826D02*
Y00874826D01*
X00470902Y00873826D02*
X00472902D01*
X00471902Y00872826D02*
Y00874826D01*
X00542902Y00873826D02*
X00544902D01*
X00543902Y00872826D02*
Y00874826D01*
X00533902Y00873826D02*
X00535902D01*
X00534902Y00872826D02*
Y00874826D01*
X00569902Y00873826D02*
X00571902D01*
X00570902Y00872826D02*
Y00874826D01*
X00551902Y00873826D02*
X00553902D01*
X00552902Y00872826D02*
Y00874826D01*
X00560902Y00873826D02*
X00562902D01*
X00561902Y00872826D02*
Y00874826D01*
X00524902Y00873826D02*
X00526902D01*
X00525902Y00872826D02*
Y00874826D01*
X00488902Y00873826D02*
X00490902D01*
X00489902Y00872826D02*
Y00874826D01*
X00515902Y00873826D02*
X00517902D01*
X00516902Y00872826D02*
Y00874826D01*
X00575872Y00026171D02*
X00577872D01*
X00576872Y00025171D02*
Y00027171D01*
X00584872Y00026171D02*
X00586872D01*
X00585872Y00025171D02*
Y00027171D01*
X00593872Y00026171D02*
X00595872D01*
X00594872Y00025171D02*
Y00027171D01*
X00602872Y00026171D02*
X00604872D01*
X00603872Y00025171D02*
Y00027171D01*
X00611872Y00026172D02*
X00613872D01*
X00612872Y00025171D02*
Y00027171D01*
X00620872Y00026172D02*
X00622872D01*
X00621872Y00025172D02*
Y00027172D01*
X00629872Y00026172D02*
X00631872D01*
X00630872Y00025172D02*
Y00027172D01*
X00638872Y00026172D02*
X00640872D01*
X00639872Y00025172D02*
Y00027172D01*
X00647872Y00026172D02*
X00649872D01*
X00648872Y00025172D02*
Y00027172D01*
X00656872Y00026172D02*
X00658872D01*
X00657872Y00025172D02*
Y00027172D01*
X00665872Y00026172D02*
X00667872D01*
X00666872Y00025172D02*
Y00027172D01*
X00674872Y00026172D02*
X00676872D01*
X00675872Y00025172D02*
Y00027172D01*
X00683872Y00026172D02*
X00685872D01*
X00684872Y00025172D02*
Y00027172D01*
X00692872Y00026172D02*
X00694872D01*
X00693872Y00025172D02*
Y00027172D01*
X00748685Y00010171D02*
X00750685D01*
X00749685Y00009171D02*
Y00011171D01*
X00766685Y00010171D02*
X00768685D01*
X00767685Y00009171D02*
Y00011171D01*
X00757685Y00010171D02*
X00759685D01*
X00758685Y00009171D02*
Y00011171D01*
X00784685Y00010171D02*
X00786685D01*
X00785685Y00009171D02*
Y00011171D01*
X00775685Y00010171D02*
X00777685D01*
X00776685Y00009171D02*
Y00011171D01*
X00811685Y00010171D02*
X00813685D01*
X00812685Y00009171D02*
Y00011171D01*
X00793685Y00010171D02*
X00795685D01*
X00794685Y00009171D02*
Y00011171D01*
X00802685Y00010171D02*
X00804685D01*
X00803685Y00009171D02*
Y00011171D01*
X00701872Y00026172D02*
X00703872D01*
X00702872Y00025172D02*
Y00027172D01*
X00710872Y00026172D02*
X00712872D01*
X00711872Y00025173D02*
Y00027173D01*
X00730693Y0001055D02*
X00732693D01*
X00731693Y0000955D02*
Y0001155D01*
X00719652Y00024198D02*
X00721652D01*
X00720652Y00023198D02*
Y00025198D01*
X0072672Y00018625D02*
X00728719D01*
X0072772Y00017625D02*
Y00019625D01*
X00739685Y00010171D02*
X00741685D01*
X00740685Y00009171D02*
Y00011171D01*
X00829685Y00010171D02*
X00831685D01*
X00830685Y00009171D02*
Y00011171D01*
X00820685Y00010171D02*
X00822685D01*
X00821685Y00009171D02*
Y00011171D01*
X00865685Y00010171D02*
X00867685D01*
X00866685Y00009171D02*
Y00011171D01*
X00838685Y00010171D02*
X00840685D01*
X00839685Y00009171D02*
Y00011171D01*
X00874685Y00010171D02*
X00876685D01*
X00875685Y00009171D02*
Y00011171D01*
X00883685Y00010171D02*
X00885685D01*
X00884685Y00009171D02*
Y00011171D01*
X00892685Y00010171D02*
X00894685D01*
X00893685Y00009171D02*
Y00011171D01*
X00856685Y00010171D02*
X00858685D01*
X00857685Y00009171D02*
Y00011171D01*
X00847685Y00010171D02*
X00849685D01*
X00848685Y00009171D02*
Y00011171D01*
X00901669Y00010701D02*
X00903669D01*
X00902669Y00009701D02*
Y00011701D01*
X00909898Y00014346D02*
X00911898D01*
X00910898Y00013347D02*
Y00015346D01*
X00915874Y00021076D02*
X00917874D01*
X00916874Y00020076D02*
Y00022076D01*
X00918681Y00029627D02*
X00920681D01*
X00919681Y00028627D02*
Y00030627D01*
X00918829Y00047626D02*
X00920829D01*
X00919829Y00046626D02*
Y00048626D01*
X00918829Y00083626D02*
X00920829D01*
X00919829Y00082626D02*
Y00084626D01*
X00918829Y00092626D02*
X00920829D01*
X00919829Y00091626D02*
Y00093626D01*
X00918829Y00056626D02*
X00920829D01*
X00919829Y00055626D02*
Y00057626D01*
X00918829Y00074626D02*
X00920829D01*
X00919829Y00073626D02*
Y00075626D01*
X00918829Y00065626D02*
X00920829D01*
X00919829Y00064626D02*
Y00066626D01*
X00918829Y00038626D02*
X00920829D01*
X00919829Y00037626D02*
Y00039626D01*
X00902829Y00166979D02*
X00904829D01*
X00903829Y00165979D02*
Y00167979D01*
X00902829Y00175979D02*
X00904829D01*
X00903829Y00174979D02*
Y00176979D01*
X00905356Y00140316D02*
X00907356D01*
X00906356Y00139316D02*
Y00141316D01*
X00902829Y00157979D02*
X00904829D01*
X00903829Y00156979D02*
Y00158979D01*
X00902919Y0014898D02*
X00904919D01*
X00903919Y0014798D02*
Y0014998D01*
X00902829Y00211979D02*
X00904829D01*
X00903829Y00210979D02*
Y00212979D01*
X00902829Y00220979D02*
X00904829D01*
X00903829Y00219979D02*
Y00221979D01*
X00902829Y00184979D02*
X00904829D01*
X00903829Y00183979D02*
Y00185979D01*
X00902829Y00202979D02*
X00904829D01*
X00903829Y00201979D02*
Y00203979D01*
X00902829Y00193979D02*
X00904829D01*
X00903829Y00192979D02*
Y00194979D01*
X00918829Y00101626D02*
X00920829D01*
X00919829Y00100626D02*
Y00102626D01*
X00918829Y00119626D02*
X00920829D01*
X00919829Y00118626D02*
Y00120626D01*
X00918829Y00110626D02*
X00920829D01*
X00919829Y00109626D02*
Y00111626D01*
X00911304Y00133562D02*
X00913304D01*
X00912304Y00132562D02*
Y00134562D01*
X00918829Y00128626D02*
X00920829D01*
X00919829Y00127626D02*
Y00129626D01*
X00902829Y00256979D02*
X00904829D01*
X00903829Y00255979D02*
Y00257979D01*
X00902829Y00265979D02*
X00904829D01*
X00903829Y00264979D02*
Y00266979D01*
X00902829Y00229979D02*
X00904829D01*
X00903829Y00228979D02*
Y00230979D01*
X00902829Y00247979D02*
X00904829D01*
X00903829Y00246979D02*
Y00248979D01*
X00902829Y00238979D02*
X00904829D01*
X00903829Y00237979D02*
Y00239979D01*
X0090283Y00310979D02*
X00904829D01*
X00903829Y00309979D02*
Y00311979D01*
X0090283Y00319979D02*
X00904829D01*
X00903829Y00318979D02*
Y00320979D01*
X0090283Y00283979D02*
X00904829D01*
X00903829Y00282979D02*
Y00284979D01*
X0090283Y00301979D02*
X00904829D01*
X00903829Y00300979D02*
Y00302979D01*
X0090283Y00292979D02*
X00904829D01*
X00903829Y00291979D02*
Y00293979D01*
X0090283Y00274979D02*
X00904829D01*
X00903829Y00273979D02*
Y00275979D01*
X0090283Y00355979D02*
X00904829D01*
X00903829Y00354979D02*
Y00356979D01*
X0090283Y00364979D02*
X00904829D01*
X00903829Y00363979D02*
Y00365979D01*
X0090283Y00328979D02*
X00904829D01*
X00903829Y00327979D02*
Y00329979D01*
X0090283Y00346979D02*
X00904829D01*
X00903829Y00345979D02*
Y00347979D01*
X0090283Y00337979D02*
X00904829D01*
X00903829Y00336979D02*
Y00338979D01*
X0090283Y00382979D02*
X00904829D01*
X00903829Y00381979D02*
Y00383979D01*
X0090283Y00391979D02*
X00904829D01*
X00903829Y00390979D02*
Y00392979D01*
X0090283Y00373979D02*
X00904829D01*
X00903829Y00372979D02*
Y00374979D01*
X0090283Y00490979D02*
X00904829D01*
X00903829Y00489979D02*
Y00491979D01*
X0090283Y00481979D02*
X00904829D01*
X00903829Y00480979D02*
Y00482979D01*
X0090283Y00427979D02*
X00904829D01*
X00903829Y00426979D02*
Y00428979D01*
X0090283Y00436979D02*
X00904829D01*
X00903829Y00435979D02*
Y00437979D01*
X0090283Y00400979D02*
X00904829D01*
X00903829Y00399979D02*
Y00401979D01*
X0090283Y00418979D02*
X00904829D01*
X00903829Y00417979D02*
Y00419979D01*
X0090283Y00409979D02*
X00904829D01*
X00903829Y00408979D02*
Y00410979D01*
X0090283Y00472979D02*
X00904829D01*
X00903829Y00471979D02*
Y00473979D01*
X0090283Y00445979D02*
X00904829D01*
X00903829Y00444979D02*
Y00446979D01*
X0090283Y00463979D02*
X00904829D01*
X00903829Y00462979D02*
Y00464979D01*
X0090283Y00454979D02*
X00904829D01*
X00903829Y00453979D02*
Y00455979D01*
X00596902Y00873826D02*
X00598901D01*
X00597901Y00872826D02*
Y00874826D01*
X00587901Y00873826D02*
X00589902D01*
X00588901Y00872826D02*
Y00874826D01*
X00623901Y00873826D02*
X00625901D01*
X00624902Y00872826D02*
Y00874826D01*
X00605901Y00873826D02*
X00607901D01*
X00606902Y00872826D02*
Y00874826D01*
X00614902Y00873826D02*
X00616902D01*
X00615901Y00872826D02*
Y00874826D01*
X00578902Y00873826D02*
X00580902D01*
X00579902Y00872826D02*
Y00874826D01*
X00641901Y00873826D02*
X00643901D01*
X00642901Y00872826D02*
Y00874826D01*
X00632901Y00873826D02*
X00634901D01*
X00633901Y00872826D02*
Y00874826D01*
X00668901Y00873826D02*
X00670901D01*
X00669901Y00872826D02*
Y00874826D01*
X00650901Y00873826D02*
X00652901D01*
X00651901Y00872826D02*
Y00874826D01*
X00659901Y00873826D02*
X00661901D01*
X00660901Y00872826D02*
Y00874826D01*
X00686901Y00873826D02*
X00688901D01*
X00687901Y00872826D02*
Y00874826D01*
X00677901Y00873826D02*
X00679901D01*
X00678901Y00872826D02*
Y00874826D01*
X00704901Y00873826D02*
X00706901D01*
X00705901Y00872826D02*
Y00874826D01*
X00695901Y00873826D02*
X00697901D01*
X00696901Y00872826D02*
Y00874826D01*
X00713897Y0087411D02*
X00715897D01*
X00714897Y0087311D02*
Y0087511D01*
X00722279Y00877388D02*
X00724279D01*
X00723279Y00876388D02*
Y00878388D01*
X0072841Y00883977D02*
X0073041D01*
X0072941Y00882977D02*
Y00884977D01*
X0073525Y00889826D02*
X0073725D01*
X0073625Y00888826D02*
Y00890826D01*
X0074425Y00889826D02*
X0074625D01*
X0074525Y00888826D02*
Y00890826D01*
X0076225Y00889826D02*
X0076425D01*
X0076325Y00888826D02*
Y00890826D01*
X0075325Y00889826D02*
X0075525D01*
X0075425Y00888826D02*
Y00890826D01*
X0078925Y00889826D02*
X0079125D01*
X0079025Y00888826D02*
Y00890826D01*
X0077125Y00889826D02*
X0077325D01*
X0077225Y00888826D02*
Y00890826D01*
X0078025Y00889826D02*
X0078225D01*
X0078125Y00888826D02*
Y00890826D01*
X0090283Y00499979D02*
X00904829D01*
X00903829Y00498979D02*
Y00500979D01*
X0090283Y00508979D02*
X00904829D01*
X00903829Y00507979D02*
Y00509979D01*
X0090283Y00526979D02*
X00904829D01*
X00903829Y00525979D02*
Y00527979D01*
X0090283Y00544979D02*
X00904829D01*
X00903829Y00543979D02*
Y00545979D01*
X0090283Y00535979D02*
X00904829D01*
X00903829Y00534979D02*
Y00536979D01*
X0090283Y00580979D02*
X00904829D01*
X00903829Y00579979D02*
Y00581979D01*
X0090283Y00589979D02*
X00904829D01*
X00903829Y00588979D02*
Y00590979D01*
X0090283Y00553979D02*
X00904829D01*
X00903829Y00552979D02*
Y00554979D01*
X0090283Y00571979D02*
X00904829D01*
X00903829Y00570979D02*
Y00572979D01*
X0090283Y00562979D02*
X00904829D01*
X00903829Y00561979D02*
Y00563979D01*
X0090283Y00517979D02*
X00904829D01*
X00903829Y00516979D02*
Y00518979D01*
X0090283Y00616978D02*
X00904829D01*
X00903829Y00615979D02*
Y00617979D01*
X0090283Y00625979D02*
X00904829D01*
X00903829Y00624978D02*
Y00626978D01*
X0090283Y00598979D02*
X00904829D01*
X00903829Y00597979D02*
Y00599979D01*
X0090283Y00607979D02*
X00904829D01*
X00903829Y00606978D02*
Y00608979D01*
X0090283Y00688978D02*
X00904829D01*
X00903829Y00687978D02*
Y00689978D01*
X0090283Y00724978D02*
X00904829D01*
X00903829Y00723978D02*
Y00725978D01*
X0090283Y00733978D02*
X00904829D01*
X00903829Y00732978D02*
Y00734978D01*
X0090283Y00697978D02*
X00904829D01*
X00903829Y00696978D02*
Y00698978D01*
X0090283Y00715978D02*
X00904829D01*
X00903829Y00714978D02*
Y00716978D01*
X0090283Y00706978D02*
X00904829D01*
X00903829Y00705978D02*
Y00707978D01*
X0090283Y00661978D02*
X00904829D01*
X00903829Y00660978D02*
Y00662978D01*
X0090283Y00670978D02*
X00904829D01*
X00903829Y00669978D02*
Y00671978D01*
X0090283Y00634978D02*
X00904829D01*
X00903829Y00633979D02*
Y00635979D01*
X0090283Y00652979D02*
X00904829D01*
X00903829Y00651979D02*
Y00653978D01*
X0090283Y00643979D02*
X00904829D01*
X00903829Y00642979D02*
Y00644978D01*
X0090283Y00679978D02*
X00904829D01*
X00903829Y00678978D02*
Y00680978D01*
X0080725Y00889826D02*
X0080925D01*
X0080825Y00888826D02*
Y00890826D01*
X0079825Y00889826D02*
X0080025D01*
X0079925Y00888826D02*
Y00890826D01*
X0083425Y00889826D02*
X0083625D01*
X0083525Y00888826D02*
Y00890826D01*
X0081625Y00889826D02*
X0081825D01*
X0081725Y00888826D02*
Y00890826D01*
X0082525Y00889826D02*
X0082725D01*
X0082625Y00888826D02*
Y00890826D01*
X0084325Y00889826D02*
X0084525D01*
X0084425Y00888826D02*
Y00890826D01*
X0087025Y00889826D02*
X0087225D01*
X0087125Y00888826D02*
Y00890826D01*
X0085225Y00889826D02*
X0085425D01*
X0085325Y00888826D02*
Y00890826D01*
X0086125Y00889826D02*
X0086325D01*
X0086225Y00888826D02*
Y00890826D01*
X0090283Y00742978D02*
X00904829D01*
X00903829Y00741978D02*
Y00743978D01*
X0090283Y00751978D02*
X00904829D01*
X00903829Y00750978D02*
Y00752978D01*
X00903767Y00760929D02*
X00905767D01*
X00904767Y00759929D02*
Y00761929D01*
X00908184Y00768771D02*
X00910184D01*
X00909184Y00767771D02*
Y00769771D01*
X00915575Y00773906D02*
X00917575D01*
X00916575Y00772906D02*
Y00774906D01*
X00918829Y00809297D02*
X00920829D01*
X00919829Y00808297D02*
Y00810297D01*
X00918829Y00800297D02*
X00920829D01*
X00919829Y00799297D02*
Y00801297D01*
X00918829Y00791297D02*
X00920829D01*
X00919829Y00790297D02*
Y00792297D01*
X00918829Y00782297D02*
X00920829D01*
X00919829Y00781297D02*
Y00783297D01*
X00918391Y00872287D02*
X00920391D01*
X00919391Y00871286D02*
Y00873287D01*
X00914867Y00880568D02*
X00916867D01*
X00915867Y00879568D02*
Y00881568D01*
X00918829Y00845297D02*
X00920829D01*
X00919829Y00844297D02*
Y00846297D01*
X00918829Y00863297D02*
X00920829D01*
X00919829Y00862297D02*
Y00864297D01*
X00918829Y00854297D02*
X00920829D01*
X00919829Y00853297D02*
Y00855297D01*
X0087925Y00889826D02*
X0088125D01*
X0088025Y00888826D02*
Y00890826D01*
X00908253Y00886672D02*
X00910253D01*
X00909253Y00885672D02*
Y00887672D01*
X0088825Y00889826D02*
X0089025D01*
X0088925Y00888826D02*
Y00890826D01*
X0089725Y00889848D02*
X0089925D01*
X0089825Y00888848D02*
Y00890848D01*
X00918829Y00818297D02*
X00920829D01*
X00919829Y00817297D02*
Y00819297D01*
X00918829Y00836297D02*
X00920829D01*
X00919829Y00835297D02*
Y00837297D01*
X00918829Y00827297D02*
X00920829D01*
X00919829Y00826297D02*
Y00828297D01*
X0034902Y0078486D02*
X0035202D01*
X0035052Y0078336D02*
Y0078636D01*
X0034902Y0079248D02*
X0035202D01*
X0035052Y0079098D02*
Y0079398D01*
X0035029Y0077089D02*
X0035329D01*
X0035179Y0076939D02*
Y0077239D01*
X0035537Y0077724D02*
X0035837D01*
X0035687Y0077574D02*
Y0077874D01*
X0064112Y0071501D02*
X0064412D01*
X0064262Y0071351D02*
Y0071651D01*
X0064112Y0070231D02*
X0064412D01*
X0064262Y0070081D02*
Y0070381D01*
X004811Y00457962D02*
X004841D01*
X004826Y00456462D02*
Y00459462D01*
X00359172Y00164084D02*
X00361172D01*
X00360172Y00163084D02*
Y00165084D01*
X0063604Y0067437D02*
X0063904D01*
X0063754Y0067287D02*
Y0067587D01*
X0064239Y0066294D02*
X0064539D01*
X0064389Y0066144D02*
Y0066444D01*
X002022Y0058674D02*
X002042D01*
X002032Y0058574D02*
Y0058774D01*
X0019839Y0057277D02*
X0020039D01*
X0019939Y0057177D02*
Y0057377D01*
X00202262Y00567838D02*
X00204262D01*
X00203262Y00566838D02*
Y00568838D01*
X0047221Y0045212D02*
X0047521D01*
X0047371Y0045062D02*
Y0045362D01*
X0033632Y0011938D02*
X0033932D01*
X0033782Y0011788D02*
Y0012088D01*
X0054841Y0013589D02*
X0055141D01*
X0054991Y0013439D02*
Y0013739D01*
X0071605Y0016256D02*
X0071905D01*
X0071755Y0016106D02*
Y0016406D01*
X0064366Y0012065D02*
X0064666D01*
X0064516Y0011915D02*
Y0012215D01*
X0038839Y002667D02*
X0039139D01*
X0038989Y002652D02*
Y002682D01*
X0035537Y0026416D02*
X0035837D01*
X0035687Y0026266D02*
Y0026566D01*
X0039474Y0027432D02*
X0039774D01*
X0039624Y0027282D02*
Y0027582D01*
X0014455Y0058039D02*
X0014755D01*
X0014605Y0057889D02*
Y0058189D01*
X0083924Y0058801D02*
X0084224D01*
X0084074Y0058651D02*
Y0058951D01*
X0082527Y0062738D02*
X0082827D01*
X0082677Y0062588D02*
Y0062888D01*
X0082527Y0064643D02*
X0082827D01*
X0082677Y0064493D02*
Y0064793D01*
X00824961Y00662631D02*
X00827961D01*
X00826461Y00661131D02*
Y00664131D01*
X0075288Y005588D02*
X0075588D01*
X0075438Y005573D02*
Y005603D01*
X0074272Y005588D02*
X0074572D01*
X0074422Y005573D02*
Y005603D01*
X0053063Y0078359D02*
X0053363D01*
X0053213Y0078209D02*
Y0078509D01*
X00541167Y00810563D02*
X00544167D01*
X00542667Y00809063D02*
Y00812063D01*
X00632119Y0059051D02*
X00635119D01*
X00633619Y00589011D02*
Y0059201D01*
X0054079Y0062357D02*
X0054379D01*
X0054229Y0062207D02*
Y0062507D01*
X0054079Y0059817D02*
X0054379D01*
X0054229Y0059667D02*
Y0059967D01*
X0057762Y0062357D02*
X0058062D01*
X0057912Y0062207D02*
Y0062507D01*
X0057762Y0059817D02*
X0058062D01*
X0057912Y0059667D02*
Y0059967D01*
X00642616Y00654276D02*
X00645616D01*
X00644116Y00652776D02*
Y00655776D01*
X0029568Y007493D02*
X0029868D01*
X0029718Y007478D02*
Y007508D01*
X0029568Y0076327D02*
X0029868D01*
X0029718Y0076177D02*
Y0076477D01*
X0080241Y0074422D02*
X0080541D01*
X0080391Y0074272D02*
Y0074572D01*
X0076304Y0080264D02*
X0076604D01*
X0076454Y0080114D02*
Y0080414D01*
X0059667Y0046228D02*
X0059967D01*
X0059817Y0046078D02*
Y0046378D01*
X0054841Y0074549D02*
X0055141D01*
X0054991Y0074399D02*
Y0074699D01*
X0068195Y0053956D02*
X0068495D01*
X0068345Y0053806D02*
Y0054106D01*
X0052682Y0046228D02*
X0052982D01*
X0052832Y0046078D02*
Y0046378D01*
X0054441Y0046247D02*
X0054741D01*
X0054591Y0046097D02*
Y0046397D01*
X0048745Y0032004D02*
X0049045D01*
X0048895Y0031854D02*
Y0032154D01*
X0032108Y0068707D02*
X0032408D01*
X0032258Y0068557D02*
Y0068857D01*
X0017249Y0073152D02*
X0017549D01*
X0017399Y0073002D02*
Y0073302D01*
X0052682Y0025019D02*
X0052982D01*
X0052832Y0024869D02*
Y0025169D01*
X0057508Y0052832D02*
X0057808D01*
X0057658Y0052682D02*
Y0052982D01*
X0032108Y0067437D02*
X0032408D01*
X0032258Y0067287D02*
Y0067587D01*
X0022075Y0080645D02*
X0022375D01*
X0022225Y0080495D02*
Y0080795D01*
X00824Y0071628D02*
X00827D01*
X008255Y0071478D02*
Y0071778D01*
X0082654Y0070739D02*
X0082954D01*
X0082804Y0070589D02*
Y0070889D01*
M02*
