G04*
G04 #@! TF.GenerationSoftware,Altium Limited,Altium Designer,25.7.1 (20)*
G04*
G04 Layer_Physical_Order=4*
G04 Layer_Color=14186556*
%FSLAX44Y44*%
%MOMM*%
G71*
G04*
G04 #@! TF.SameCoordinates,F25161A0-B78C-4874-AF2B-3454E01FF3B2*
G04*
G04*
G04 #@! TF.FilePolarity,Positive*
G04*
G01*
G75*
%ADD15C,0.2540*%
%ADD21C,0.2032*%
%ADD24C,1.0000*%
%ADD139C,0.3048*%
%ADD145O,1.6000X1.8000*%
G04:AMPARAMS|DCode=146|XSize=1.8mm|YSize=1.6mm|CornerRadius=0.4mm|HoleSize=0mm|Usage=FLASHONLY|Rotation=90.000|XOffset=0mm|YOffset=0mm|HoleType=Round|Shape=RoundedRectangle|*
%AMROUNDEDRECTD146*
21,1,1.8000,0.8000,0,0,90.0*
21,1,1.0000,1.6000,0,0,90.0*
1,1,0.8000,0.4000,0.5000*
1,1,0.8000,0.4000,-0.5000*
1,1,0.8000,-0.4000,-0.5000*
1,1,0.8000,-0.4000,0.5000*
%
%ADD146ROUNDEDRECTD146*%
%ADD147C,6.0000*%
%ADD148C,1.4000*%
%ADD149C,1.5300*%
%ADD150R,1.4000X1.4000*%
%ADD151R,1.5300X1.5300*%
%ADD152C,0.6000*%
%ADD153C,0.4000*%
D15*
X195580Y568565D02*
X199390Y572375D01*
X195580Y461010D02*
Y568565D01*
X199390Y572375D02*
Y572770D01*
X195580Y461010D02*
X389890Y266700D01*
D21*
X217170Y154940D02*
X339090Y276860D01*
X118110Y151130D02*
X218748D01*
X340668Y273050D01*
X339090Y276860D02*
X364261D01*
X116743Y154940D02*
X217170D01*
X340668Y273050D02*
X362683D01*
X115752Y142652D02*
Y148772D01*
X118110Y151130D01*
X111900Y138800D02*
X115752Y142652D01*
X322580Y674370D02*
X327025Y678815D01*
X354965D01*
X590550Y443230D01*
X594360Y268906D02*
Y444808D01*
X115255Y156428D02*
X116743Y154940D01*
X115255Y156428D02*
Y157392D01*
X111900Y160747D02*
X115255Y157392D01*
X111900Y160747D02*
Y164200D01*
X356543Y682625D02*
X594360Y444808D01*
X402053Y233680D02*
X559134D01*
X322580Y687070D02*
X327025Y682625D01*
X356543D01*
X559134Y233680D02*
X594360Y268906D01*
X362683Y273050D02*
X402053Y233680D01*
X590550Y270484D02*
Y443230D01*
X557556Y237490D02*
X590550Y270484D01*
X403631Y237490D02*
X557556D01*
X364261Y276860D02*
X403631Y237490D01*
D24*
X920000Y868058D02*
G03*
X898151Y889999I-22000J-58D01*
G01*
X920000Y774959D02*
G03*
X904000Y757071I2000J-17889D01*
G01*
X714287Y874000D02*
G03*
X731782Y889996I-394J17996D01*
G01*
X904000Y147952D02*
G03*
X920000Y130112I18000J48D01*
G01*
X898000Y10000D02*
G03*
X920000Y32000I0J22000D01*
G01*
X731889Y10000D02*
G03*
X714285Y25998I-17889J-2000D01*
G01*
X198005Y889996D02*
G03*
X215608Y873998I17889J2000D01*
G01*
X31627Y889997D02*
G03*
X10000Y868000I373J-21997D01*
G01*
X215606Y25996D02*
G03*
X198111Y10000I394J-17996D01*
G01*
X10000Y32000D02*
G03*
X32000Y10000I22000J0D01*
G01*
X372902Y873996D02*
X381902Y873996D01*
X684872Y26002D02*
X693872Y26002D01*
X363902Y873996D02*
X372902Y873996D01*
X675872Y26002D02*
X684872Y26002D01*
X354902Y873995D02*
X363902Y873996D01*
X666872Y26002D02*
X675872Y26002D01*
X345902Y873995D02*
X354902Y873995D01*
X657872Y26001D02*
X666872Y26002D01*
X336902Y873995D02*
X345902Y873995D01*
X904000Y643979D02*
Y652978D01*
X648872Y26001D02*
X657872Y26001D01*
X327902Y873995D02*
X336902Y873995D01*
X904000Y445979D02*
Y454979D01*
Y634978D02*
Y643979D01*
X639872Y26001D02*
X648872Y26001D01*
X693872Y26002D02*
X702872Y26002D01*
X713994Y26002D01*
X696901Y873996D02*
X705901D01*
X713993D01*
X432872Y26000D02*
X441872D01*
X459872D02*
X468872D01*
X477872D01*
X318902Y873995D02*
X327902Y873995D01*
X904000Y409979D02*
Y418979D01*
Y427979D01*
Y436979D02*
Y445979D01*
Y625979D02*
Y634978D01*
X835250Y889996D02*
X844250D01*
X853250D01*
X871250D02*
X880250D01*
X594872Y26001D02*
X603872Y26001D01*
X621872Y26001D02*
X630872Y26001D01*
X639872Y26001D01*
X669901Y873996D02*
X678901D01*
X687901D01*
X696901D01*
X423872Y26000D02*
X432872D01*
X450872D02*
X459872D01*
X486872D02*
X495872D01*
X509746D01*
X309902Y873995D02*
X318902Y873995D01*
X920000Y119626D02*
Y130112D01*
X920000Y854297D02*
Y868058D01*
X904000Y292979D02*
Y301979D01*
Y310979D01*
Y319979D02*
Y328979D01*
Y400979D02*
Y409979D01*
Y427979D02*
Y436979D01*
Y562979D02*
Y571979D01*
Y607979D02*
Y616978D01*
Y625979D01*
X817250Y889996D02*
X826250D01*
X835250D01*
X853250D02*
X862250D01*
X871250D01*
X585872Y26001D02*
X594872Y26001D01*
X612872Y26001D02*
X621872Y26001D01*
X642901Y873996D02*
X651901D01*
X660901D01*
X669901D01*
X414872Y26000D02*
X423872D01*
X441872D02*
X450872D01*
X477872D02*
X486872D01*
X300902Y873995D02*
X309902Y873995D01*
X169431Y10000D02*
X178431D01*
X187430D01*
X198111D01*
X920000Y101626D02*
Y110626D01*
Y119626D01*
X920000Y845297D02*
Y854297D01*
X904000Y193979D02*
Y202979D01*
Y211979D02*
Y220979D01*
Y274979D02*
Y283979D01*
Y292979D01*
Y310979D02*
Y319979D01*
Y391979D02*
Y400979D01*
Y553979D02*
Y562979D01*
Y580979D02*
Y589979D01*
Y598979D01*
Y607979D01*
X904000Y706978D02*
Y715978D01*
X904000Y724978D01*
X808250Y889996D02*
X817250D01*
X576872Y26001D02*
X585872Y26001D01*
X603872Y26001D02*
X612872Y26001D01*
X471902Y873996D02*
X480902D01*
X516902D02*
X525902D01*
X579902D02*
X588901D01*
X606902D02*
X615901D01*
X633901D02*
X642901D01*
X405872Y26000D02*
X414872D01*
X255902Y873995D02*
X264902Y873995D01*
X291902Y873995D02*
X300902Y873995D01*
X390902Y873996D02*
X399902Y873996D01*
X115431Y10000D02*
X124431D01*
X151431D02*
X160431D01*
X169431D01*
X118023Y889996D02*
X127023D01*
X10000Y862087D02*
Y868000D01*
X920000Y92626D02*
Y101626D01*
X920000Y800297D02*
Y809297D01*
Y827297D02*
Y836297D01*
Y845297D01*
X904000Y184979D02*
Y193979D01*
Y202979D02*
Y211979D01*
Y238979D02*
Y247979D01*
Y256979D01*
Y265979D02*
Y274979D01*
Y373979D02*
Y382979D01*
Y391979D01*
Y517979D02*
Y526979D01*
Y544979D02*
Y553979D01*
Y571979D02*
Y580979D01*
X904000Y679978D02*
Y688978D01*
Y697978D01*
Y706978D01*
X875685Y10000D02*
X884685D01*
X781250Y889996D02*
X790250D01*
X799250D02*
X808250D01*
X540872Y26000D02*
X549872Y26000D01*
X567872Y26001D02*
X576872Y26001D01*
X462902Y873996D02*
X471902D01*
X489902D02*
X498902D01*
X507902D02*
X516902D01*
X570902D02*
X579902D01*
X588901D02*
X597901D01*
X606902D01*
X624902D02*
X633901D01*
X369872Y26000D02*
X378872D01*
X396872D02*
X405872D01*
X246902Y873994D02*
X255902Y873995D01*
X282902Y873995D02*
X291902Y873995D01*
X381902Y873996D02*
X390902Y873996D01*
X399902Y873996D02*
X408902Y873996D01*
X420147Y873996D01*
X106431Y10000D02*
X115431D01*
X124431D02*
X133431D01*
X142431D02*
X151431D01*
X55023Y889996D02*
X64023D01*
X82023D02*
X91023D01*
X109023D02*
X118023D01*
X136023D02*
X145023D01*
X154023D01*
X172023D02*
X181023D01*
X190023D01*
X198005D01*
X10000Y853087D02*
Y862087D01*
X9999Y67525D02*
Y76525D01*
X920000Y65626D02*
Y74626D01*
Y83626D01*
Y92626D01*
X920000Y791297D02*
Y800297D01*
Y818297D02*
Y827297D01*
X904000Y175979D02*
Y184979D01*
Y229979D02*
Y238979D01*
Y256979D02*
Y265979D01*
Y337979D02*
Y346979D01*
Y355979D01*
Y364979D02*
Y373979D01*
Y481979D02*
Y490979D01*
Y508979D02*
Y517979D01*
Y526979D02*
Y535979D01*
Y544979D01*
X904000Y670978D02*
Y679978D01*
X904000Y742978D02*
X904000Y751978D01*
X758685Y10000D02*
X767685D01*
X848685D02*
X857685D01*
X866685D01*
X875685D01*
X754250Y889996D02*
X763250D01*
X772250D02*
X781250D01*
X790250D02*
X799250D01*
X889250D02*
X897893D01*
X531872Y26000D02*
X540872Y26000D01*
X558872Y26000D02*
X567872Y26001D01*
X435902Y873996D02*
X444902D01*
X453902D01*
X462902D01*
X480902D02*
X489902D01*
X498902D02*
X507902D01*
X561902D02*
X570902D01*
X615901D02*
X624902D01*
X243873Y26000D02*
X252873D01*
X270873D02*
X279872D01*
X306873D02*
X315872D01*
X324873D01*
X333872D02*
X342872D01*
X351872D01*
X360872D02*
X369872D01*
X378872D02*
X387872D01*
X396872D01*
X237902Y873994D02*
X246902Y873994D01*
X273902Y873995D02*
X282902Y873995D01*
X79431Y10000D02*
X88431D01*
X97431D01*
X106431D01*
X133431D02*
X142431D01*
X46023Y889996D02*
X55023D01*
X64023D02*
X73023D01*
X82023D01*
X100023D02*
X109023D01*
X127023D02*
X136023D01*
X154023D02*
X163023D01*
X172023D01*
X10000Y835087D02*
Y844087D01*
Y853087D01*
X9999Y49525D02*
Y58525D01*
Y67525D01*
Y85525D02*
Y94525D01*
X920000Y38626D02*
Y47626D01*
Y56626D01*
Y65626D01*
X920000Y782297D02*
Y791297D01*
Y809297D02*
Y818297D01*
X904000Y157979D02*
Y166979D01*
Y175979D01*
Y220979D02*
Y229979D01*
Y328979D02*
Y337979D01*
Y355979D02*
Y364979D01*
Y454979D02*
Y463979D01*
Y472979D01*
Y481979D01*
Y490979D02*
Y499979D01*
Y508979D01*
Y652978D02*
X904000Y661978D01*
Y670978D01*
X904000Y724978D02*
X904000Y733978D01*
Y742978D01*
X904000Y751978D02*
X904000Y757016D01*
X740685Y10000D02*
X749685D01*
X758685D01*
X767685D02*
X776685D01*
X785685D01*
X794685D01*
X803685D01*
X812685D01*
X821685D01*
X830685D01*
X839685D01*
X848685D01*
X884685D02*
X898000D01*
X745250Y889996D02*
X754250D01*
X763250D02*
X772250D01*
X880250D02*
X889250D01*
X522872Y26000D02*
X531872Y26000D01*
X549872Y26000D02*
X558872Y26000D01*
X426902Y873996D02*
X435902D01*
X525902D02*
X534902D01*
X543902D01*
X552902D01*
X561902D01*
X225873Y26000D02*
X234873D01*
X243873D01*
X252873D02*
X261873D01*
X270873D01*
X279872D02*
X288873D01*
X297873D01*
X306873D01*
X324873D02*
X333872D01*
X351872D02*
X360872D01*
X228902Y873994D02*
X237902Y873994D01*
X264902Y873995D02*
X273902Y873995D01*
X43431Y10000D02*
X52431D01*
X61431D01*
X70431D01*
X79431D01*
X37023Y889996D02*
X46023D01*
X91023D02*
X100023D01*
X10000Y826087D02*
Y835087D01*
X9999Y40525D02*
Y49525D01*
Y76525D02*
Y85525D01*
X920000Y774959D02*
Y782297D01*
X731782Y889996D02*
X745250D01*
X904000Y148000D02*
Y157979D01*
X920000Y32000D02*
Y38626D01*
X731889Y10000D02*
X740685D01*
X420147Y873996D02*
X426902Y873996D01*
X215899Y873994D02*
X228902Y873994D01*
X31745Y889996D02*
X37023D01*
X10000Y817087D02*
Y826087D01*
X509746Y26000D02*
X522872Y26000D01*
X215900Y26000D02*
X225873Y26000D01*
X9999Y32133D02*
Y40525D01*
X32000Y10000D02*
X43431D01*
D139*
X350220Y792979D02*
X480831D01*
X558800Y715010D01*
X350520Y784860D02*
X468630D01*
X551180Y702310D01*
X264160Y777240D02*
X356870D01*
X171450Y684530D02*
X264160Y777240D01*
X278130Y770890D02*
X351790D01*
X154040Y646800D02*
X278130Y770890D01*
X558800Y715010D02*
X642620D01*
X551180Y702310D02*
X642620D01*
X488950Y289560D02*
X528320Y250190D01*
X488950Y289560D02*
Y320040D01*
X482219Y457962D02*
X482600D01*
X331851Y608330D02*
X482219Y457962D01*
X98830Y608330D02*
X331851D01*
X360172Y164084D02*
X541274D01*
X810260Y433070D01*
X657860Y674370D02*
X670560Y661670D01*
X637540Y674370D02*
X657860D01*
X572770Y662940D02*
X643890D01*
X482600Y753110D02*
X572770Y662940D01*
X297180Y763270D02*
X307340Y753110D01*
X482600D01*
X173990Y731520D02*
X276860Y834390D01*
X584200D01*
X161660Y697600D02*
X285750Y821690D01*
X577850D01*
X111900Y697600D02*
X161660D01*
X105410Y684530D02*
X171450D01*
X111900Y646800D02*
X154040D01*
X307340Y739140D02*
X477520D01*
X297180Y749300D02*
X307340Y739140D01*
X477520D02*
X562384Y654276D01*
X203262Y467298D02*
Y567580D01*
Y467298D02*
X396240Y274320D01*
X152400Y586740D02*
X203200D01*
X146050Y580390D02*
X152400Y586740D01*
X329830Y596000D02*
X473710Y452120D01*
X111900Y596000D02*
X329830D01*
X86500D02*
X98830Y608330D01*
X771520Y731520D02*
X839470D01*
X848360Y688340D02*
Y722630D01*
X839470Y731520D02*
X848360Y722630D01*
X839470Y679450D02*
X848360Y688340D01*
X822960Y679450D02*
X839470D01*
X785704Y642194D02*
X822960Y679450D01*
X694697Y642194D02*
X785704D01*
X682620Y820420D02*
X771520Y731520D01*
X753110Y716280D02*
X825500D01*
X677891Y791499D02*
X753110Y716280D01*
X627091Y791499D02*
X677891D01*
X674370Y778510D02*
X745490Y707390D01*
X621030Y778510D02*
X674370D01*
X577850Y821690D02*
X621030Y778510D01*
X745490Y707390D02*
X828040D01*
X694697Y642194D02*
Y732783D01*
X681990Y745490D02*
X694697Y732783D01*
X549910Y745490D02*
X681990D01*
X584200Y834390D02*
X627091Y791499D01*
X542667Y794127D02*
Y810563D01*
X276860Y861060D02*
X788670D01*
X222250Y806450D02*
X276860Y861060D01*
X672780Y833120D02*
X754380D01*
X662620Y822960D02*
X672780Y833120D01*
X754380D02*
X764540Y822960D01*
Y802640D02*
Y822960D01*
X698500Y527050D02*
X737870Y566420D01*
X416553Y712477D02*
X601980Y527050D01*
X698500D01*
X737870Y566420D02*
X746760D01*
X754380Y558800D01*
X391167Y712477D02*
X416553D01*
X415290Y702310D02*
X598170Y519430D01*
X316230Y702310D02*
X415290D01*
X598170Y519430D02*
X704850D01*
X391160Y712470D02*
X391167Y712477D01*
X312420Y712470D02*
X391160D01*
X295910Y695960D02*
X312420Y712470D01*
X532130Y608330D02*
X542290Y598170D01*
X532130Y608330D02*
Y629920D01*
X537965Y635755D01*
X566936D01*
X579120Y623570D01*
X542290D02*
X567690Y598170D01*
X579120D01*
X295910Y638810D02*
Y695960D01*
X306070Y692150D02*
X316230Y702310D01*
X306070Y641350D02*
Y692150D01*
X316230Y631190D02*
X377190D01*
X545910Y462470D01*
X306070Y641350D02*
X316230Y631190D01*
X295910Y638810D02*
X312420Y622300D01*
X576580Y483870D02*
Y528320D01*
Y483870D02*
X598170Y462280D01*
X704850Y519430D02*
X744220Y558800D01*
X312420Y622300D02*
X368300D01*
X528320Y462280D01*
X545910Y398590D02*
Y462470D01*
X683450Y539560D02*
Y630947D01*
X694697Y642194D01*
X396240Y274320D02*
X528320Y406400D01*
Y462280D01*
X414309Y266989D02*
X545910Y398590D01*
X390179Y266989D02*
X414309D01*
X389890Y266700D02*
X390179Y266989D01*
X356870Y264160D02*
X397510Y223520D01*
X581660D01*
X797560Y439420D01*
X788670Y861060D02*
X803910Y845820D01*
Y744220D02*
Y845820D01*
X532130Y783590D02*
X542667Y794127D01*
X99060Y678180D02*
X105410Y684530D01*
X99060Y634240D02*
X111900Y621400D01*
X99060Y634240D02*
Y678180D01*
X562384Y654276D02*
X644116D01*
X670560Y600710D02*
Y661670D01*
X660360Y590510D02*
X670560Y600710D01*
X633619Y590510D02*
X660360D01*
X797560Y439420D02*
Y633730D01*
X826461Y662631D01*
X810260Y433070D02*
Y629920D01*
X826770Y646430D01*
X840740Y426720D02*
Y588450D01*
X549910Y135890D02*
X840740Y426720D01*
X337820Y119380D02*
X516890D01*
X826770Y429260D01*
Y627380D01*
X675640Y120650D02*
X717550Y162560D01*
X645160Y120650D02*
X675640D01*
D145*
X190500Y78740D02*
D03*
X332740D02*
D03*
X562610D02*
D03*
X680720D02*
D03*
X453390D02*
D03*
D146*
X165100D02*
D03*
X307340D02*
D03*
X537210D02*
D03*
X655320D02*
D03*
X427990D02*
D03*
D147*
X892746Y850000D02*
D03*
X893000Y50000D02*
D03*
X35560Y826770D02*
D03*
X35446Y88000D02*
D03*
D148*
X683890Y847090D02*
D03*
X663890D02*
D03*
X682620Y820420D02*
D03*
X662620D02*
D03*
X642620D02*
D03*
X703890Y847090D02*
D03*
D149*
X61100Y748400D02*
D03*
X35700D02*
D03*
Y519800D02*
D03*
X61100D02*
D03*
X35700Y494400D02*
D03*
X61100D02*
D03*
Y469000D02*
D03*
Y443600D02*
D03*
X35700Y469000D02*
D03*
Y443600D02*
D03*
X86500Y469000D02*
D03*
X111900Y697600D02*
D03*
Y672200D02*
D03*
Y519800D02*
D03*
X86500D02*
D03*
X111900Y545200D02*
D03*
X86500D02*
D03*
X111900Y748400D02*
D03*
X86500D02*
D03*
X111900Y469000D02*
D03*
Y443600D02*
D03*
X86500D02*
D03*
Y291200D02*
D03*
X111900Y316600D02*
D03*
Y291200D02*
D03*
Y265800D02*
D03*
Y240400D02*
D03*
X86500Y189600D02*
D03*
X111900Y392800D02*
D03*
Y418200D02*
D03*
X86500Y316600D02*
D03*
X111900Y367400D02*
D03*
X86500D02*
D03*
Y392800D02*
D03*
Y418200D02*
D03*
X111900Y494400D02*
D03*
X86500D02*
D03*
X111900Y570600D02*
D03*
X86500D02*
D03*
Y621400D02*
D03*
Y646800D02*
D03*
X111900Y723000D02*
D03*
X86500D02*
D03*
X111900Y773800D02*
D03*
X86500D02*
D03*
Y138800D02*
D03*
Y164200D02*
D03*
X111900Y189600D02*
D03*
Y215000D02*
D03*
X86500D02*
D03*
Y265800D02*
D03*
Y240400D02*
D03*
Y672200D02*
D03*
Y697600D02*
D03*
X111900Y621400D02*
D03*
Y646800D02*
D03*
Y164200D02*
D03*
Y342000D02*
D03*
X86500D02*
D03*
Y596000D02*
D03*
X111900D02*
D03*
X35700Y545200D02*
D03*
X61100D02*
D03*
X35700Y672200D02*
D03*
X61100Y646800D02*
D03*
Y672200D02*
D03*
Y697600D02*
D03*
Y621400D02*
D03*
X35700Y697600D02*
D03*
X61100Y164200D02*
D03*
X35700Y291200D02*
D03*
X61100Y316600D02*
D03*
Y291200D02*
D03*
Y265800D02*
D03*
Y240400D02*
D03*
X35700Y189600D02*
D03*
Y316600D02*
D03*
X61100Y570600D02*
D03*
X35700D02*
D03*
Y621400D02*
D03*
Y646800D02*
D03*
X61100Y723000D02*
D03*
X35700D02*
D03*
X61100Y773800D02*
D03*
X35700D02*
D03*
Y138800D02*
D03*
Y164200D02*
D03*
X61100Y189600D02*
D03*
Y215000D02*
D03*
X35700D02*
D03*
Y265800D02*
D03*
Y240400D02*
D03*
X61100Y596000D02*
D03*
X35700D02*
D03*
Y342000D02*
D03*
X61100D02*
D03*
X35700Y367400D02*
D03*
Y392800D02*
D03*
Y418200D02*
D03*
X61100Y392800D02*
D03*
Y418200D02*
D03*
Y367400D02*
D03*
D150*
X702620Y820420D02*
D03*
X643890Y847090D02*
D03*
D151*
X111900Y138800D02*
D03*
X61100D02*
D03*
D152*
X350520Y784860D02*
D03*
Y792480D02*
D03*
X351790Y770890D02*
D03*
X356870Y777240D02*
D03*
X642620Y715010D02*
D03*
Y702310D02*
D03*
X482600Y457962D02*
D03*
X637540Y674370D02*
D03*
X643890Y662940D02*
D03*
X473710Y452120D02*
D03*
X337820Y119380D02*
D03*
X549910Y135890D02*
D03*
X717550Y162560D02*
D03*
X645160Y120650D02*
D03*
X389890Y266700D02*
D03*
X356870Y264160D02*
D03*
X396240Y274320D02*
D03*
X146050Y580390D02*
D03*
X840740Y588010D02*
D03*
X826770Y627380D02*
D03*
Y646430D02*
D03*
X826461Y662631D02*
D03*
X754380Y558800D02*
D03*
X744220D02*
D03*
X532130Y783590D02*
D03*
X542667Y810563D02*
D03*
X633619Y590510D02*
D03*
X542290Y623570D02*
D03*
Y598170D02*
D03*
X579120Y623570D02*
D03*
Y598170D02*
D03*
X644116Y654276D02*
D03*
X297180Y749300D02*
D03*
Y763270D02*
D03*
X803910Y744220D02*
D03*
X764540Y802640D02*
D03*
X598170Y462280D02*
D03*
X549910Y745490D02*
D03*
X683450Y539560D02*
D03*
X528320Y462280D02*
D03*
X545910Y462470D02*
D03*
X488950Y320040D02*
D03*
X322580Y687070D02*
D03*
X173990Y731520D02*
D03*
X528320Y250190D02*
D03*
X576580Y528320D02*
D03*
X322580Y674370D02*
D03*
X222250Y806450D02*
D03*
X825500Y716280D02*
D03*
X828040Y707390D02*
D03*
D153*
X919829Y827297D02*
D03*
Y836297D02*
D03*
Y818297D02*
D03*
X898250Y889848D02*
D03*
X889250Y889826D02*
D03*
X909253Y886672D02*
D03*
X880250Y889826D02*
D03*
X919829Y854297D02*
D03*
Y863297D02*
D03*
Y845297D02*
D03*
X915867Y880568D02*
D03*
X919391Y872287D02*
D03*
X919829Y782297D02*
D03*
Y791297D02*
D03*
Y800297D02*
D03*
Y809297D02*
D03*
X916575Y773906D02*
D03*
X909184Y768771D02*
D03*
X904767Y760929D02*
D03*
X903829Y751978D02*
D03*
Y742978D02*
D03*
X862250Y889826D02*
D03*
X853250D02*
D03*
X871250D02*
D03*
X844250D02*
D03*
X826250D02*
D03*
X817250D02*
D03*
X835250D02*
D03*
X799250D02*
D03*
X808250D02*
D03*
X903829Y679978D02*
D03*
Y643979D02*
D03*
Y652979D02*
D03*
Y634978D02*
D03*
Y670978D02*
D03*
Y661978D02*
D03*
Y706978D02*
D03*
Y715978D02*
D03*
Y697978D02*
D03*
Y733978D02*
D03*
Y724978D02*
D03*
Y688978D02*
D03*
X903829Y607979D02*
D03*
Y598979D02*
D03*
Y625979D02*
D03*
Y616978D02*
D03*
Y517979D02*
D03*
Y562979D02*
D03*
Y571979D02*
D03*
Y553979D02*
D03*
Y589979D02*
D03*
Y580979D02*
D03*
Y535979D02*
D03*
Y544979D02*
D03*
Y526979D02*
D03*
X903829Y508979D02*
D03*
Y499979D02*
D03*
X781250Y889826D02*
D03*
X772250D02*
D03*
X790250D02*
D03*
X754250D02*
D03*
X763250D02*
D03*
X745250D02*
D03*
X736250D02*
D03*
X729410Y883977D02*
D03*
X723279Y877388D02*
D03*
X714897Y874110D02*
D03*
X696901Y873826D02*
D03*
X705901Y873826D02*
D03*
X678901Y873826D02*
D03*
X687901D02*
D03*
X660901D02*
D03*
X651901D02*
D03*
X669901D02*
D03*
X633901D02*
D03*
X642901D02*
D03*
X579902D02*
D03*
X615901D02*
D03*
X606902D02*
D03*
X624902D02*
D03*
X588901D02*
D03*
X597901D02*
D03*
X903829Y454979D02*
D03*
Y463979D02*
D03*
Y445979D02*
D03*
Y472979D02*
D03*
Y409979D02*
D03*
Y418979D02*
D03*
Y400979D02*
D03*
Y436979D02*
D03*
Y427979D02*
D03*
Y481979D02*
D03*
Y490979D02*
D03*
X903829Y373979D02*
D03*
Y391979D02*
D03*
Y382979D02*
D03*
Y337979D02*
D03*
Y346979D02*
D03*
Y328979D02*
D03*
Y364979D02*
D03*
Y355979D02*
D03*
Y274979D02*
D03*
Y292979D02*
D03*
Y301979D02*
D03*
Y283979D02*
D03*
Y319979D02*
D03*
Y310979D02*
D03*
X903829Y238979D02*
D03*
Y247979D02*
D03*
Y229979D02*
D03*
Y265979D02*
D03*
Y256979D02*
D03*
X919829Y128626D02*
D03*
X912304Y133562D02*
D03*
X919829Y110626D02*
D03*
Y119626D02*
D03*
Y101626D02*
D03*
X903829Y193979D02*
D03*
Y202979D02*
D03*
Y184979D02*
D03*
Y220979D02*
D03*
Y211979D02*
D03*
X903919Y148980D02*
D03*
X903829Y157979D02*
D03*
X906356Y140316D02*
D03*
X903829Y175979D02*
D03*
Y166979D02*
D03*
X919829Y38626D02*
D03*
Y65626D02*
D03*
Y74626D02*
D03*
Y56626D02*
D03*
Y92626D02*
D03*
Y83626D02*
D03*
Y47626D02*
D03*
X919681Y29627D02*
D03*
X916874Y21076D02*
D03*
X910898Y14346D02*
D03*
X902669Y10701D02*
D03*
X848685Y10171D02*
D03*
X857685D02*
D03*
X893685D02*
D03*
X884685D02*
D03*
X875685D02*
D03*
X839685D02*
D03*
X866685D02*
D03*
X821685D02*
D03*
X830685D02*
D03*
X740685D02*
D03*
X727720Y18625D02*
D03*
X720652Y24198D02*
D03*
X731693Y10550D02*
D03*
X711872Y26172D02*
D03*
X702872Y26172D02*
D03*
X803685Y10171D02*
D03*
X794685D02*
D03*
X812685D02*
D03*
X776685D02*
D03*
X785685D02*
D03*
X758685D02*
D03*
X767685D02*
D03*
X749685D02*
D03*
X693872Y26172D02*
D03*
X684872Y26172D02*
D03*
X675872Y26172D02*
D03*
X666872Y26172D02*
D03*
X657872Y26172D02*
D03*
X648872Y26172D02*
D03*
X639872Y26172D02*
D03*
X630872Y26172D02*
D03*
X621872Y26172D02*
D03*
X612872Y26172D02*
D03*
X603872Y26171D02*
D03*
X594872Y26171D02*
D03*
X585872Y26171D02*
D03*
X576872Y26171D02*
D03*
X516902Y873826D02*
D03*
X489902D02*
D03*
X525902D02*
D03*
X561902D02*
D03*
X552902D02*
D03*
X570902D02*
D03*
X534902D02*
D03*
X543902D02*
D03*
X471902D02*
D03*
X462902D02*
D03*
X480902D02*
D03*
X444902D02*
D03*
X453902D02*
D03*
X507902D02*
D03*
X498902D02*
D03*
X426902D02*
D03*
X417902D02*
D03*
X435902D02*
D03*
X408902Y873826D02*
D03*
X399902Y873825D02*
D03*
X390902Y873825D02*
D03*
X381902Y873825D02*
D03*
X372902Y873825D02*
D03*
X363902Y873825D02*
D03*
X354902Y873825D02*
D03*
X345902Y873825D02*
D03*
X336902Y873825D02*
D03*
X327902Y873825D02*
D03*
X318902Y873825D02*
D03*
X210990Y875078D02*
D03*
X309902Y873825D02*
D03*
X203387Y879893D02*
D03*
X300902Y873824D02*
D03*
X291902Y873824D02*
D03*
X282902Y873824D02*
D03*
X273902Y873824D02*
D03*
X264902Y873824D02*
D03*
X154023Y889826D02*
D03*
X190023D02*
D03*
X181023D02*
D03*
X198744Y887603D02*
D03*
X163023Y889826D02*
D03*
X172023D02*
D03*
X255902Y873824D02*
D03*
X246902Y873824D02*
D03*
X237902Y873824D02*
D03*
X228902Y873824D02*
D03*
X219902Y873824D02*
D03*
X91023Y889826D02*
D03*
X82023D02*
D03*
X100023D02*
D03*
X136023D02*
D03*
X127023D02*
D03*
X145023D02*
D03*
X109023D02*
D03*
X118023D02*
D03*
X37023D02*
D03*
X64023D02*
D03*
X55023D02*
D03*
X73023D02*
D03*
X46023D02*
D03*
X28030Y889467D02*
D03*
X19710Y886037D02*
D03*
X13495Y879527D02*
D03*
X10375Y871085D02*
D03*
X10171Y862087D02*
D03*
Y844087D02*
D03*
Y853087D02*
D03*
Y817087D02*
D03*
Y826087D02*
D03*
Y835087D02*
D03*
X567872Y26171D02*
D03*
X558872Y26171D02*
D03*
X549872Y26171D02*
D03*
X540872Y26171D02*
D03*
X531872Y26171D02*
D03*
X522872Y26171D02*
D03*
X513872Y26171D02*
D03*
X459872Y26170D02*
D03*
X495872D02*
D03*
X486872D02*
D03*
X504872D02*
D03*
X468872D02*
D03*
X477872D02*
D03*
X450872D02*
D03*
X387872D02*
D03*
X396872D02*
D03*
X369872D02*
D03*
X378872D02*
D03*
X360872D02*
D03*
X441872D02*
D03*
X423872D02*
D03*
X432872D02*
D03*
X405872D02*
D03*
X414872D02*
D03*
X10170Y94525D02*
D03*
Y76525D02*
D03*
Y85525D02*
D03*
Y49525D02*
D03*
Y40525D02*
D03*
Y67525D02*
D03*
Y58525D02*
D03*
X297873Y26170D02*
D03*
X288873D02*
D03*
X306873D02*
D03*
X279873D02*
D03*
X342872D02*
D03*
X333872D02*
D03*
X351872D02*
D03*
X315872D02*
D03*
X324873D02*
D03*
X243873D02*
D03*
X225873D02*
D03*
X234873D02*
D03*
X261873D02*
D03*
X252873D02*
D03*
X270873D02*
D03*
X216873Y26071D02*
D03*
X208221Y23593D02*
D03*
X201502Y17606D02*
D03*
X187430Y10171D02*
D03*
X196430D02*
D03*
X178431D02*
D03*
X115431D02*
D03*
X106431D02*
D03*
X124431D02*
D03*
X88431D02*
D03*
X97431D02*
D03*
X160431D02*
D03*
X151431D02*
D03*
X169431D02*
D03*
X133431D02*
D03*
X142431D02*
D03*
X25484Y11144D02*
D03*
X17654Y15583D02*
D03*
X34431Y10171D02*
D03*
X10170Y31525D02*
D03*
X12229Y22764D02*
D03*
X70431Y10171D02*
D03*
X61431D02*
D03*
X79431D02*
D03*
X43431D02*
D03*
X52431D02*
D03*
X360172Y164084D02*
D03*
X203200Y586740D02*
D03*
X199390Y572770D02*
D03*
X203262Y567838D02*
D03*
M02*
