G04*
G04 #@! TF.GenerationSoftware,Altium Limited,Altium Designer,25.7.1 (20)*
G04*
G04 Layer_Color=128*
%FSTAX44Y44*%
%MOMM*%
G71*
G04*
G04 #@! TF.SameCoordinates,567EF581-4316-4FAF-80C0-128919799B06*
G04*
G04*
G04 #@! TF.FilePolarity,Positive*
G04*
G01*
G75*
%ADD15C,0.1270*%
D15*
X004811Y0070993D02*
X004841D01*
X004826Y0070843D02*
Y0071143D01*
X0029606Y007827D02*
X0029906D01*
X0029756Y007812D02*
Y007842D01*
X0029645Y0081534D02*
X0030045D01*
X0029845Y0081334D02*
Y0081734D01*
X0060429Y0084709D02*
X0060729D01*
X0060579Y0084559D02*
Y0084859D01*
X00580759Y00461576D02*
X00584758D01*
X00582758Y00459576D02*
Y00463576D01*
X0030915Y0025527D02*
X0031315D01*
X0031115Y0025327D02*
Y0025727D01*
X00348857Y00239438D02*
X00352857D01*
X00350857Y00237438D02*
Y00241438D01*
X0016153Y00419788D02*
X0016453D01*
X0016303Y00418288D02*
Y00421288D01*
X0016153Y00409628D02*
X0016453D01*
X0016303Y00408128D02*
Y00411128D01*
X0017296Y00419788D02*
X0017596D01*
X0017446Y00418288D02*
Y00421288D01*
X0017296Y00409628D02*
X0017596D01*
X0017446Y00408128D02*
Y00411128D01*
X0040186Y0036449D02*
X0040586D01*
X0040386Y0036249D02*
Y0036649D01*
X0051031Y0046228D02*
X0051331D01*
X0051181Y0046078D02*
Y0046378D01*
X002139Y007493D02*
X002179D01*
X002159Y007473D02*
Y007513D01*
X0027232Y0074549D02*
X0027632D01*
X0027432Y0074349D02*
Y0074749D01*
X0018392Y0078613D02*
X0018692D01*
X0018542Y0078463D02*
Y0078763D01*
X004425Y0068707D02*
X004465D01*
X004445Y0068507D02*
Y0068907D01*
X0053267Y0053975D02*
X0053667D01*
X0053467Y0053775D02*
Y0054175D01*
X0054206Y0072263D02*
X0054506D01*
X0054356Y0072113D02*
Y0072413D01*
X0055984Y0046228D02*
X0056284D01*
X0056134Y0046078D02*
Y0046378D01*
X0056111Y0053213D02*
X0056411D01*
X0056261Y0053063D02*
Y0053363D01*
X0066652Y0051562D02*
X0066952D01*
X0066802Y0051412D02*
Y0051712D01*
X00792218Y00479993D02*
X00796218D01*
X00794218Y00477993D02*
Y00481993D01*
X00863762Y00491835D02*
X00867762D01*
X00865761Y00489835D02*
Y00493835D01*
X0088065Y0049149D02*
X0088465D01*
X0088265Y0048949D02*
Y0049349D01*
X0070081Y0054991D02*
X0070381D01*
X0070231Y0054841D02*
Y0055141D01*
X0086591Y0059817D02*
X0086891D01*
X0086741Y0059667D02*
Y0059967D01*
X0086591Y0063119D02*
X0086891D01*
X0086741Y0062969D02*
Y0063269D01*
X0056111Y0072263D02*
X0056411D01*
X0056261Y0072113D02*
Y0072413D01*
X0061268Y0066294D02*
X0061668D01*
X0061468Y0066094D02*
Y0066494D01*
X0060556Y0074295D02*
X0060856D01*
X0060706Y0074145D02*
Y0074445D01*
X0055603Y0079248D02*
X0055903D01*
X0055753Y0079098D02*
Y0079398D01*
X0060556Y0077343D02*
X0060856D01*
X0060706Y0077193D02*
Y0077493D01*
X0056619Y0082677D02*
X0056919D01*
X0056769Y0082527D02*
Y0082827D01*
X0060556Y0075819D02*
X0060856D01*
X0060706Y0075669D02*
Y0075969D01*
X0086553Y0066421D02*
X0086853D01*
X0086703Y0066271D02*
Y0066571D01*
X00865236Y00682821D02*
X00868236D01*
X00866736Y00681321D02*
Y00684321D01*
X0080318Y0075692D02*
X0080718D01*
X0080518Y0075492D02*
Y0075892D01*
X0038077Y0074676D02*
X0038377D01*
X0038227Y0074526D02*
Y0074826D01*
X0038077Y0073025D02*
X0038377D01*
X0038227Y0072875D02*
Y0073175D01*
X0040871Y0021971D02*
X0041171D01*
X0041021Y0021821D02*
Y0022121D01*
X0037823Y002032D02*
X0038123D01*
X0037973Y002017D02*
Y002047D01*
X0044427Y002159D02*
X0044727D01*
X0044577Y002144D02*
Y002174D01*
X0039347Y0020955D02*
X0039647D01*
X0039497Y0020805D02*
Y0021105D01*
X0017884Y0049403D02*
X0018184D01*
X0018034Y0049253D02*
Y0049553D01*
X0019027Y0049403D02*
X0019327D01*
X0019177Y0049253D02*
Y0049553D01*
X0017884Y0048387D02*
X0018184D01*
X0018034Y0048237D02*
Y0048537D01*
X0019027Y0048387D02*
X0019327D01*
X0019177Y0048237D02*
Y0048537D01*
X0042014Y0021463D02*
X0042314D01*
X0042164Y0021313D02*
Y0021613D01*
X0031296Y0036449D02*
X0031696D01*
X0031496Y0036249D02*
Y0036649D01*
X004298Y0028448D02*
X004338D01*
X004318Y0028248D02*
Y0028648D01*
X0083366Y0026924D02*
X0083766D01*
X0083566Y0026724D02*
Y0027124D01*
X0084509Y0026924D02*
X0084909D01*
X0084709Y0026724D02*
Y0027124D01*
X0080699Y0043561D02*
X0081099D01*
X0080899Y0043361D02*
Y0043761D01*
X0080699Y0042037D02*
X0081099D01*
X0080899Y0041837D02*
Y0042237D01*
X0082477Y0043561D02*
X0082877D01*
X0082677Y0043361D02*
Y0043761D01*
X0082477Y0042037D02*
X0082877D01*
X0082677Y0041837D02*
Y0042237D01*
X0084763Y0030353D02*
X0085163D01*
X0084963Y0030153D02*
Y0030553D01*
X0083874Y0032385D02*
X0084274D01*
X0084074Y0032185D02*
Y0032585D01*
X0084001Y0018288D02*
X0084401D01*
X0084201Y0018088D02*
Y0018488D01*
X008362Y001524D02*
X008402D01*
X008382Y001504D02*
Y001544D01*
X008489Y001524D02*
X008529D01*
X008509Y001504D02*
Y001544D01*
X0084255Y0014097D02*
X0084655D01*
X0084455Y0013897D02*
Y0014297D01*
M02*
