G04*
G04 #@! TF.GenerationSoftware,Altium Limited,Altium Designer,25.7.1 (20)*
G04*
G04 Layer_Physical_Order=1*
G04 Layer_Color=255*
%FSTAX44Y44*%
%MOMM*%
G71*
G04*
G04 #@! TF.SameCoordinates,AEE80E0E-D424-425B-89B6-6BECC17CACCE*
G04*
G04*
G04 #@! TF.FilePolarity,Positive*
G04*
G01*
G75*
%ADD18C,0.2540*%
%ADD24C,1.0000*%
%ADD25R,0.8000X0.8500*%
G04:AMPARAMS|DCode=26|XSize=0.95mm|YSize=0.85mm|CornerRadius=0.2125mm|HoleSize=0mm|Usage=FLASHONLY|Rotation=270.000|XOffset=0mm|YOffset=0mm|HoleType=Round|Shape=RoundedRectangle|*
%AMROUNDEDRECTD26*
21,1,0.9500,0.4250,0,0,270.0*
21,1,0.5250,0.8500,0,0,270.0*
1,1,0.4250,-0.2125,-0.2625*
1,1,0.4250,-0.2125,0.2625*
1,1,0.4250,0.2125,0.2625*
1,1,0.4250,0.2125,-0.2625*
%
%ADD26ROUNDEDRECTD26*%
G04:AMPARAMS|DCode=27|XSize=0.9mm|YSize=0.8mm|CornerRadius=0.2mm|HoleSize=0mm|Usage=FLASHONLY|Rotation=90.000|XOffset=0mm|YOffset=0mm|HoleType=Round|Shape=RoundedRectangle|*
%AMROUNDEDRECTD27*
21,1,0.9000,0.4000,0,0,90.0*
21,1,0.5000,0.8000,0,0,90.0*
1,1,0.4000,0.2000,0.2500*
1,1,0.4000,0.2000,-0.2500*
1,1,0.4000,-0.2000,-0.2500*
1,1,0.4000,-0.2000,0.2500*
%
%ADD27ROUNDEDRECTD27*%
G04:AMPARAMS|DCode=28|XSize=1.2mm|YSize=1.3mm|CornerRadius=0.246mm|HoleSize=0mm|Usage=FLASHONLY|Rotation=180.000|XOffset=0mm|YOffset=0mm|HoleType=Round|Shape=RoundedRectangle|*
%AMROUNDEDRECTD28*
21,1,1.2000,0.8080,0,0,180.0*
21,1,0.7080,1.3000,0,0,180.0*
1,1,0.4920,-0.3540,0.4040*
1,1,0.4920,0.3540,0.4040*
1,1,0.4920,0.3540,-0.4040*
1,1,0.4920,-0.3540,-0.4040*
%
%ADD28ROUNDEDRECTD28*%
G04:AMPARAMS|DCode=29|XSize=0.9mm|YSize=0.8mm|CornerRadius=0.2mm|HoleSize=0mm|Usage=FLASHONLY|Rotation=0.000|XOffset=0mm|YOffset=0mm|HoleType=Round|Shape=RoundedRectangle|*
%AMROUNDEDRECTD29*
21,1,0.9000,0.4000,0,0,0.0*
21,1,0.5000,0.8000,0,0,0.0*
1,1,0.4000,0.2500,-0.2000*
1,1,0.4000,-0.2500,-0.2000*
1,1,0.4000,-0.2500,0.2000*
1,1,0.4000,0.2500,0.2000*
%
%ADD29ROUNDEDRECTD29*%
G04:AMPARAMS|DCode=30|XSize=1.2mm|YSize=1.3mm|CornerRadius=0.246mm|HoleSize=0mm|Usage=FLASHONLY|Rotation=270.000|XOffset=0mm|YOffset=0mm|HoleType=Round|Shape=RoundedRectangle|*
%AMROUNDEDRECTD30*
21,1,1.2000,0.8080,0,0,270.0*
21,1,0.7080,1.3000,0,0,270.0*
1,1,0.4920,-0.4040,-0.3540*
1,1,0.4920,-0.4040,0.3540*
1,1,0.4920,0.4040,0.3540*
1,1,0.4920,0.4040,-0.3540*
%
%ADD30ROUNDEDRECTD30*%
G04:AMPARAMS|DCode=31|XSize=2.2mm|YSize=2.4mm|CornerRadius=0.242mm|HoleSize=0mm|Usage=FLASHONLY|Rotation=90.000|XOffset=0mm|YOffset=0mm|HoleType=Round|Shape=RoundedRectangle|*
%AMROUNDEDRECTD31*
21,1,2.2000,1.9160,0,0,90.0*
21,1,1.7160,2.4000,0,0,90.0*
1,1,0.4840,0.9580,0.8580*
1,1,0.4840,0.9580,-0.8580*
1,1,0.4840,-0.9580,-0.8580*
1,1,0.4840,-0.9580,0.8580*
%
%ADD31ROUNDEDRECTD31*%
%ADD32R,2.4500X2.5000*%
G04:AMPARAMS|DCode=33|XSize=1.8mm|YSize=1.3mm|CornerRadius=0.247mm|HoleSize=0mm|Usage=FLASHONLY|Rotation=90.000|XOffset=0mm|YOffset=0mm|HoleType=Round|Shape=RoundedRectangle|*
%AMROUNDEDRECTD33*
21,1,1.8000,0.8060,0,0,90.0*
21,1,1.3060,1.3000,0,0,90.0*
1,1,0.4940,0.4030,0.6530*
1,1,0.4940,0.4030,-0.6530*
1,1,0.4940,-0.4030,-0.6530*
1,1,0.4940,-0.4030,0.6530*
%
%ADD33ROUNDEDRECTD33*%
G04:AMPARAMS|DCode=34|XSize=0.95mm|YSize=0.85mm|CornerRadius=0.2125mm|HoleSize=0mm|Usage=FLASHONLY|Rotation=180.000|XOffset=0mm|YOffset=0mm|HoleType=Round|Shape=RoundedRectangle|*
%AMROUNDEDRECTD34*
21,1,0.9500,0.4250,0,0,180.0*
21,1,0.5250,0.8500,0,0,180.0*
1,1,0.4250,-0.2625,0.2125*
1,1,0.4250,0.2625,0.2125*
1,1,0.4250,0.2625,-0.2125*
1,1,0.4250,-0.2625,-0.2125*
%
%ADD34ROUNDEDRECTD34*%
%ADD35R,1.0000X0.6000*%
G04:AMPARAMS|DCode=36|XSize=2.2mm|YSize=2.4mm|CornerRadius=0.242mm|HoleSize=0mm|Usage=FLASHONLY|Rotation=0.000|XOffset=0mm|YOffset=0mm|HoleType=Round|Shape=RoundedRectangle|*
%AMROUNDEDRECTD36*
21,1,2.2000,1.9160,0,0,0.0*
21,1,1.7160,2.4000,0,0,0.0*
1,1,0.4840,0.8580,-0.9580*
1,1,0.4840,-0.8580,-0.9580*
1,1,0.4840,-0.8580,0.9580*
1,1,0.4840,0.8580,0.9580*
%
%ADD36ROUNDEDRECTD36*%
G04:AMPARAMS|DCode=37|XSize=0.6mm|YSize=0.25mm|CornerRadius=0.0463mm|HoleSize=0mm|Usage=FLASHONLY|Rotation=90.000|XOffset=0mm|YOffset=0mm|HoleType=Round|Shape=RoundedRectangle|*
%AMROUNDEDRECTD37*
21,1,0.6000,0.1575,0,0,90.0*
21,1,0.5075,0.2500,0,0,90.0*
1,1,0.0925,0.0788,0.2537*
1,1,0.0925,0.0788,-0.2537*
1,1,0.0925,-0.0788,-0.2537*
1,1,0.0925,-0.0788,0.2537*
%
%ADD37ROUNDEDRECTD37*%
G04:AMPARAMS|DCode=38|XSize=0.86mm|YSize=0.32mm|CornerRadius=0.12mm|HoleSize=0mm|Usage=FLASHONLY|Rotation=90.000|XOffset=0mm|YOffset=0mm|HoleType=Round|Shape=RoundedRectangle|*
%AMROUNDEDRECTD38*
21,1,0.8600,0.0800,0,0,90.0*
21,1,0.6200,0.3200,0,0,90.0*
1,1,0.2400,0.0400,0.3100*
1,1,0.2400,0.0400,-0.3100*
1,1,0.2400,-0.0400,-0.3100*
1,1,0.2400,-0.0400,0.3100*
%
%ADD38ROUNDEDRECTD38*%
G04:AMPARAMS|DCode=39|XSize=0.86mm|YSize=0.32mm|CornerRadius=0.12mm|HoleSize=0mm|Usage=FLASHONLY|Rotation=180.000|XOffset=0mm|YOffset=0mm|HoleType=Round|Shape=RoundedRectangle|*
%AMROUNDEDRECTD39*
21,1,0.8600,0.0800,0,0,180.0*
21,1,0.6200,0.3200,0,0,180.0*
1,1,0.2400,-0.3100,0.0400*
1,1,0.2400,0.3100,0.0400*
1,1,0.2400,0.3100,-0.0400*
1,1,0.2400,-0.3100,-0.0400*
%
%ADD39ROUNDEDRECTD39*%
G04:AMPARAMS|DCode=40|XSize=1.55mm|YSize=0.6mm|CornerRadius=0.015mm|HoleSize=0mm|Usage=FLASHONLY|Rotation=90.000|XOffset=0mm|YOffset=0mm|HoleType=Round|Shape=RoundedRectangle|*
%AMROUNDEDRECTD40*
21,1,1.5500,0.5700,0,0,90.0*
21,1,1.5200,0.6000,0,0,90.0*
1,1,0.0300,0.2850,0.7600*
1,1,0.0300,0.2850,-0.7600*
1,1,0.0300,-0.2850,-0.7600*
1,1,0.0300,-0.2850,0.7600*
%
%ADD40ROUNDEDRECTD40*%
%ADD41R,1.9812X0.5588*%
G04:AMPARAMS|DCode=42|XSize=0.65mm|YSize=0.6mm|CornerRadius=0.15mm|HoleSize=0mm|Usage=FLASHONLY|Rotation=180.000|XOffset=0mm|YOffset=0mm|HoleType=Round|Shape=RoundedRectangle|*
%AMROUNDEDRECTD42*
21,1,0.6500,0.3000,0,0,180.0*
21,1,0.3500,0.6000,0,0,180.0*
1,1,0.3000,-0.1750,0.1500*
1,1,0.3000,0.1750,0.1500*
1,1,0.3000,0.1750,-0.1500*
1,1,0.3000,-0.1750,-0.1500*
%
%ADD42ROUNDEDRECTD42*%
%ADD43R,1.0000X1.0000*%
%ADD44O,1.4000X0.3500*%
%ADD45R,0.8000X1.6000*%
%ADD46R,2.1000X3.0000*%
G04:AMPARAMS|DCode=47|XSize=1.3mm|YSize=1.1mm|CornerRadius=0.055mm|HoleSize=0mm|Usage=FLASHONLY|Rotation=180.000|XOffset=0mm|YOffset=0mm|HoleType=Round|Shape=RoundedRectangle|*
%AMROUNDEDRECTD47*
21,1,1.3000,0.9900,0,0,180.0*
21,1,1.1900,1.1000,0,0,180.0*
1,1,0.1100,-0.5950,0.4950*
1,1,0.1100,0.5950,0.4950*
1,1,0.1100,0.5950,-0.4950*
1,1,0.1100,-0.5950,-0.4950*
%
%ADD47ROUNDEDRECTD47*%
G04:AMPARAMS|DCode=48|XSize=1.57mm|YSize=0.41mm|CornerRadius=0.0513mm|HoleSize=0mm|Usage=FLASHONLY|Rotation=180.000|XOffset=0mm|YOffset=0mm|HoleType=Round|Shape=RoundedRectangle|*
%AMROUNDEDRECTD48*
21,1,1.5700,0.3075,0,0,180.0*
21,1,1.4675,0.4100,0,0,180.0*
1,1,0.1025,-0.7338,0.1538*
1,1,0.1025,0.7338,0.1538*
1,1,0.1025,0.7338,-0.1538*
1,1,0.1025,-0.7338,-0.1538*
%
%ADD48ROUNDEDRECTD48*%
%ADD49O,2.2000X0.6000*%
%ADD50O,2.1500X0.6000*%
G04:AMPARAMS|DCode=51|XSize=1.8mm|YSize=1.3mm|CornerRadius=0.247mm|HoleSize=0mm|Usage=FLASHONLY|Rotation=180.000|XOffset=0mm|YOffset=0mm|HoleType=Round|Shape=RoundedRectangle|*
%AMROUNDEDRECTD51*
21,1,1.8000,0.8060,0,0,180.0*
21,1,1.3060,1.3000,0,0,180.0*
1,1,0.4940,-0.6530,0.4030*
1,1,0.4940,0.6530,0.4030*
1,1,0.4940,0.6530,-0.4030*
1,1,0.4940,-0.6530,-0.4030*
%
%ADD51ROUNDEDRECTD51*%
G04:AMPARAMS|DCode=52|XSize=1.55mm|YSize=0.6mm|CornerRadius=0.015mm|HoleSize=0mm|Usage=FLASHONLY|Rotation=0.000|XOffset=0mm|YOffset=0mm|HoleType=Round|Shape=RoundedRectangle|*
%AMROUNDEDRECTD52*
21,1,1.5500,0.5700,0,0,0.0*
21,1,1.5200,0.6000,0,0,0.0*
1,1,0.0300,0.7600,-0.2850*
1,1,0.0300,-0.7600,-0.2850*
1,1,0.0300,-0.7600,0.2850*
1,1,0.0300,0.7600,0.2850*
%
%ADD52ROUNDEDRECTD52*%
%ADD53R,1.2000X0.8000*%
%ADD54R,2.3000X2.3500*%
%ADD55R,2.3500X2.3000*%
%ADD56R,1.6000X0.8000*%
%ADD57R,3.0000X2.1000*%
G04:AMPARAMS|DCode=58|XSize=1.45mm|YSize=0.59mm|CornerRadius=0.0738mm|HoleSize=0mm|Usage=FLASHONLY|Rotation=90.000|XOffset=0mm|YOffset=0mm|HoleType=Round|Shape=RoundedRectangle|*
%AMROUNDEDRECTD58*
21,1,1.4500,0.4425,0,0,90.0*
21,1,1.3025,0.5900,0,0,90.0*
1,1,0.1475,0.2213,0.6513*
1,1,0.1475,0.2213,-0.6513*
1,1,0.1475,-0.2213,-0.6513*
1,1,0.1475,-0.2213,0.6513*
%
%ADD58ROUNDEDRECTD58*%
%ADD59R,0.5080X1.4732*%
G04:AMPARAMS|DCode=60|XSize=0.9mm|YSize=0.8mm|CornerRadius=0.04mm|HoleSize=0mm|Usage=FLASHONLY|Rotation=0.000|XOffset=0mm|YOffset=0mm|HoleType=Round|Shape=RoundedRectangle|*
%AMROUNDEDRECTD60*
21,1,0.9000,0.7200,0,0,0.0*
21,1,0.8200,0.8000,0,0,0.0*
1,1,0.0800,0.4100,-0.3600*
1,1,0.0800,-0.4100,-0.3600*
1,1,0.0800,-0.4100,0.3600*
1,1,0.0800,0.4100,0.3600*
%
%ADD60ROUNDEDRECTD60*%
G04:AMPARAMS|DCode=61|XSize=1.97mm|YSize=0.59mm|CornerRadius=0.0738mm|HoleSize=0mm|Usage=FLASHONLY|Rotation=270.000|XOffset=0mm|YOffset=0mm|HoleType=Round|Shape=RoundedRectangle|*
%AMROUNDEDRECTD61*
21,1,1.9700,0.4425,0,0,270.0*
21,1,1.8225,0.5900,0,0,270.0*
1,1,0.1475,-0.2213,-0.9113*
1,1,0.1475,-0.2213,0.9113*
1,1,0.1475,0.2213,0.9113*
1,1,0.1475,0.2213,-0.9113*
%
%ADD61ROUNDEDRECTD61*%
%ADD62R,0.8500X0.8000*%
%ADD63R,1.4732X0.5080*%
%ADD64R,1.0000X0.5000*%
%ADD65R,0.8500X0.9000*%
%ADD66R,2.0320X5.0800*%
%ADD67R,0.5000X1.0000*%
%ADD68R,1.0700X3.2700*%
%ADD69C,1.2700*%
%ADD70C,1.0000*%
G04:AMPARAMS|DCode=71|XSize=1.75mm|YSize=1.25mm|CornerRadius=0.2438mm|HoleSize=0mm|Usage=FLASHONLY|Rotation=90.000|XOffset=0mm|YOffset=0mm|HoleType=Round|Shape=RoundedRectangle|*
%AMROUNDEDRECTD71*
21,1,1.7500,0.7625,0,0,90.0*
21,1,1.2625,1.2500,0,0,90.0*
1,1,0.4875,0.3813,0.6313*
1,1,0.4875,0.3813,-0.6313*
1,1,0.4875,-0.3813,-0.6313*
1,1,0.4875,-0.3813,0.6313*
%
%ADD71ROUNDEDRECTD71*%
%ADD72R,1.0000X0.3500*%
%ADD73R,0.3500X1.0000*%
G04:AMPARAMS|DCode=75|XSize=0.65mm|YSize=0.6mm|CornerRadius=0.15mm|HoleSize=0mm|Usage=FLASHONLY|Rotation=90.000|XOffset=0mm|YOffset=0mm|HoleType=Round|Shape=RoundedRectangle|*
%AMROUNDEDRECTD75*
21,1,0.6500,0.3000,0,0,90.0*
21,1,0.3500,0.6000,0,0,90.0*
1,1,0.3000,0.1500,0.1750*
1,1,0.3000,0.1500,-0.1750*
1,1,0.3000,-0.1500,-0.1750*
1,1,0.3000,-0.1500,0.1750*
%
%ADD75ROUNDEDRECTD75*%
%ADD130R,2.6000X2.6000*%
%ADD131R,4.9000X2.9500*%
%ADD132R,0.2500X1.2000*%
%ADD133R,2.9500X4.9000*%
G04:AMPARAMS|DCode=134|XSize=0.6mm|YSize=0.3mm|CornerRadius=0.0555mm|HoleSize=0mm|Usage=FLASHONLY|Rotation=90.000|XOffset=0mm|YOffset=0mm|HoleType=Round|Shape=RoundedRectangle|*
%AMROUNDEDRECTD134*
21,1,0.6000,0.1890,0,0,90.0*
21,1,0.4890,0.3000,0,0,90.0*
1,1,0.1110,0.0945,0.2445*
1,1,0.1110,0.0945,-0.2445*
1,1,0.1110,-0.0945,-0.2445*
1,1,0.1110,-0.0945,0.2445*
%
%ADD134ROUNDEDRECTD134*%
G04:AMPARAMS|DCode=135|XSize=0.25mm|YSize=3.4mm|CornerRadius=0.05mm|HoleSize=0mm|Usage=FLASHONLY|Rotation=0.000|XOffset=0mm|YOffset=0mm|HoleType=Round|Shape=RoundedRectangle|*
%AMROUNDEDRECTD135*
21,1,0.2500,3.3000,0,0,0.0*
21,1,0.1500,3.4000,0,0,0.0*
1,1,0.1000,0.0750,-1.6500*
1,1,0.1000,-0.0750,-1.6500*
1,1,0.1000,-0.0750,1.6500*
1,1,0.1000,0.0750,1.6500*
%
%ADD135ROUNDEDRECTD135*%
G04:AMPARAMS|DCode=136|XSize=0.3mm|YSize=2.4mm|CornerRadius=0.0555mm|HoleSize=0mm|Usage=FLASHONLY|Rotation=90.000|XOffset=0mm|YOffset=0mm|HoleType=Round|Shape=RoundedRectangle|*
%AMROUNDEDRECTD136*
21,1,0.3000,2.2890,0,0,90.0*
21,1,0.1890,2.4000,0,0,90.0*
1,1,0.1110,1.1445,0.0945*
1,1,0.1110,1.1445,-0.0945*
1,1,0.1110,-1.1445,-0.0945*
1,1,0.1110,-1.1445,0.0945*
%
%ADD136ROUNDEDRECTD136*%
G04:AMPARAMS|DCode=137|XSize=0.6mm|YSize=0.25mm|CornerRadius=0.05mm|HoleSize=0mm|Usage=FLASHONLY|Rotation=0.000|XOffset=0mm|YOffset=0mm|HoleType=Round|Shape=RoundedRectangle|*
%AMROUNDEDRECTD137*
21,1,0.6000,0.1500,0,0,0.0*
21,1,0.5000,0.2500,0,0,0.0*
1,1,0.1000,0.2500,-0.0750*
1,1,0.1000,-0.2500,-0.0750*
1,1,0.1000,-0.2500,0.0750*
1,1,0.1000,0.2500,0.0750*
%
%ADD137ROUNDEDRECTD137*%
G04:AMPARAMS|DCode=138|XSize=0.25mm|YSize=0.65mm|CornerRadius=0.05mm|HoleSize=0mm|Usage=FLASHONLY|Rotation=0.000|XOffset=0mm|YOffset=0mm|HoleType=Round|Shape=RoundedRectangle|*
%AMROUNDEDRECTD138*
21,1,0.2500,0.5500,0,0,0.0*
21,1,0.1500,0.6500,0,0,0.0*
1,1,0.1000,0.0750,-0.2750*
1,1,0.1000,-0.0750,-0.2750*
1,1,0.1000,-0.0750,0.2750*
1,1,0.1000,0.0750,0.2750*
%
%ADD138ROUNDEDRECTD138*%
G04:AMPARAMS|DCode=139|XSize=0.25mm|YSize=0.6mm|CornerRadius=0.05mm|HoleSize=0mm|Usage=FLASHONLY|Rotation=0.000|XOffset=0mm|YOffset=0mm|HoleType=Round|Shape=RoundedRectangle|*
%AMROUNDEDRECTD139*
21,1,0.2500,0.5000,0,0,0.0*
21,1,0.1500,0.6000,0,0,0.0*
1,1,0.1000,0.0750,-0.2500*
1,1,0.1000,-0.0750,-0.2500*
1,1,0.1000,-0.0750,0.2500*
1,1,0.1000,0.0750,0.2500*
%
%ADD139ROUNDEDRECTD139*%
%ADD140R,1.0160X1.2700*%
%ADD141C,0.3048*%
%ADD142C,0.3810*%
%ADD143C,0.6350*%
%ADD144C,0.5080*%
%ADD145C,0.1778*%
%ADD146R,1.5000X0.5000*%
%ADD147C,6.0000*%
%ADD148C,1.5300*%
%ADD149C,1.4000*%
%ADD150O,1.6000X1.8000*%
G04:AMPARAMS|DCode=151|XSize=1.8mm|YSize=1.6mm|CornerRadius=0.4mm|HoleSize=0mm|Usage=FLASHONLY|Rotation=90.000|XOffset=0mm|YOffset=0mm|HoleType=Round|Shape=RoundedRectangle|*
%AMROUNDEDRECTD151*
21,1,1.8000,0.8000,0,0,90.0*
21,1,1.0000,1.6000,0,0,90.0*
1,1,0.8000,0.4000,0.5000*
1,1,0.8000,0.4000,-0.5000*
1,1,0.8000,-0.4000,-0.5000*
1,1,0.8000,-0.4000,0.5000*
%
%ADD151ROUNDEDRECTD151*%
%ADD152R,1.4000X1.4000*%
%ADD153R,1.5300X1.5300*%
%ADD154C,0.6000*%
%ADD155C,0.8000*%
%ADD156C,0.4000*%
G36*
X0025654Y0083693D02*
Y0081661D01*
X0025527Y0081534D01*
X0023241D01*
Y008382D01*
X0025527D01*
X0025654Y0083693D01*
D02*
G37*
G36*
X003175Y0083439D02*
Y0080772D01*
X0028702D01*
X0028448Y0081026D01*
Y008382D01*
X0031369D01*
X003175Y0083439D01*
D02*
G37*
G36*
X0052324Y0080899D02*
Y0080137D01*
X0052197Y008001D01*
X0050165Y008001D01*
X0050038Y0080137D01*
Y0083566D01*
X0052324D01*
Y0080899D01*
D02*
G37*
G36*
X0057785Y0083439D02*
Y0082042D01*
X0057531Y0081788D01*
X0056642D01*
X0056515Y0081661D01*
Y0078613D01*
X0056388Y0078486D01*
X0055118D01*
Y0083693D01*
X0057531D01*
X0057785Y0083439D01*
D02*
G37*
G36*
X0071755Y0077851D02*
Y0076835D01*
X0071374Y0076454D01*
X0062865D01*
Y0078359D01*
X0071247D01*
X0071755Y0077851D01*
D02*
G37*
G36*
X0062611Y0079121D02*
Y0073025D01*
X0062357Y0072771D01*
X0061214D01*
X0059817Y0074168D01*
Y0077343D01*
X0060833Y0078359D01*
Y0079121D01*
X006096Y0079248D01*
X0062484D01*
X0062611Y0079121D01*
D02*
G37*
G36*
X002794Y0075057D02*
Y00746125D01*
X00282575Y0074295D01*
X0029591D01*
X0029845Y0074041D01*
Y0072517D01*
X0029718Y007239D01*
X0026035D01*
X0025781Y0072644D01*
Y0074422D01*
X0025527Y0074676D01*
X0025146D01*
Y0075819D01*
X0025273Y0075946D01*
X0027051D01*
X002794Y0075057D01*
D02*
G37*
G36*
X002286Y0075819D02*
Y0075184D01*
X0022225Y0074549D01*
Y0072517D01*
X0022098Y007239D01*
X0018796D01*
X0018669Y0072517D01*
Y0074422D01*
X0018796Y0074549D01*
X0020193D01*
X0020955Y0075311D01*
X0020955Y0075819D01*
X0021082Y0075946D01*
X0022733D01*
X002286Y0075819D01*
D02*
G37*
G36*
X00386334Y00761746D02*
X00387858Y00760222D01*
Y00719328D01*
X0038608Y0071755D01*
X0036576D01*
X0036449Y0071882D01*
Y0075184D01*
X0036195Y0075438D01*
Y00761746D01*
X00386334Y00761746D01*
D02*
G37*
G36*
X00360211Y00753325D02*
X00360216Y00753318D01*
X00360485Y00752915D01*
X00360485Y00752915D01*
X0036195Y0075145D01*
X0036195Y0071882D01*
X0036068Y0071755D01*
X0034163D01*
X0034036Y0071882D01*
Y0075438D01*
X00359156D01*
X00360211Y00753325D01*
D02*
G37*
G36*
X0057023Y0072771D02*
Y0070231D01*
X0056896Y0070104D01*
X0053848D01*
X0053721Y0070231D01*
Y0072771D01*
X0053848Y0072898D01*
X0056896D01*
X0057023Y0072771D01*
D02*
G37*
G36*
X0027559Y0069088D02*
X0027559Y0061976D01*
X0027432Y0061849D01*
X00250952D01*
X00245364Y00612902D01*
Y0059944D01*
X00235712D01*
Y00617982D01*
X0024638Y0062865D01*
X0024638Y0069088D01*
X0024892Y0069342D01*
X0027305Y0069342D01*
X0027559Y0069088D01*
D02*
G37*
G36*
X0021971Y0069215D02*
X0022225Y0068961D01*
Y0062865D01*
X00232918Y00617982D01*
Y0059944D01*
X0022352D01*
Y0061087D01*
X002159Y0061849D01*
X0019431D01*
X0019177Y0062103D01*
Y0068961D01*
X0019431Y0069215D01*
X0021971Y0069215D01*
D02*
G37*
G36*
X0030734Y0060706D02*
X0029591D01*
X00281241Y00592392D01*
X00274574D01*
Y005969D01*
X00277876Y00600202D01*
Y00618236D01*
X002794Y0061976D01*
X0030734D01*
Y0060706D01*
D02*
G37*
G36*
X00275844Y00614426D02*
X00275844Y00600964D01*
X00262128Y00587248D01*
X00252984D01*
Y0059309D01*
X00258317Y00598424D01*
X0026416Y00604267D01*
X0026416Y0061468D01*
X0026543Y0061595D01*
X0027432D01*
X00275844Y00614426D01*
D02*
G37*
G36*
X0034163Y0061722D02*
X0034163Y0058674D01*
X0034036Y0058547D01*
X0032893D01*
X0032512Y0058166D01*
Y0057531D01*
X0032258Y0057277D01*
X0031242D01*
X0030988Y0057531D01*
Y0059873D01*
X0031242Y0060127D01*
Y0061976D01*
X0033909D01*
X0034163Y0061722D01*
D02*
G37*
G36*
X00151656Y0061595D02*
X00176004Y0061595D01*
X00176004Y0061595D01*
X00176004Y0061595D01*
X00176004D01*
X0017717Y00615803D01*
X00177269Y00615784D01*
X00178058Y00615457D01*
X00178768Y00614982D01*
X0017907Y0061468D01*
X00179372Y00614378D01*
X00179847Y00613668D01*
X00180173Y00612879D01*
X0018034Y00612041D01*
X0018034Y00611614D01*
X0018034Y0054356D01*
X00173073D01*
X001651Y00551015D01*
Y0058801D01*
X001525D01*
X00151665Y00588176D01*
X00150877Y00588501D01*
X00150168Y00588973D01*
X00149867Y00589273D01*
X00149116Y00590024D01*
X00149116D01*
X00148689Y00590451D01*
X00148018Y00591455D01*
X00147556Y00592571D01*
X0014732Y00593756D01*
X0014732Y0059436D01*
Y00611614D01*
X0014732Y00612041D01*
X00147486Y00612879D01*
X00147813Y00613668D01*
X00148288Y00614378D01*
X0014859Y0061468D01*
X00148892Y00614982D01*
X00149602Y00615457D01*
X00150391Y00615784D01*
X00151229Y0061595D01*
X00151656Y0061595D01*
D02*
G37*
G36*
X0054991Y0055626D02*
Y0054229D01*
X0055118Y0054102D01*
X0056642D01*
X0056769Y0053975D01*
Y0052705D01*
X0056642Y0052578D01*
X0051562D01*
Y0053594D01*
X0051943Y0053975D01*
Y0055626D01*
X005207Y0055753D01*
X0054864D01*
X0054991Y0055626D01*
D02*
G37*
G36*
X008128Y0051308D02*
Y0049276D01*
X0081153Y0049149D01*
X0079375D01*
Y0051435D01*
X0081153D01*
X008128Y0051308D01*
D02*
G37*
G36*
X0017018Y0052959D02*
Y0048387D01*
X0002667D01*
X0002286Y0048768D01*
X0002286Y0052959D01*
X000254Y0053213D01*
X0016764D01*
X0017018Y0052959D01*
D02*
G37*
G36*
X00469505Y00508186D02*
X00469505Y00508D01*
Y00500058D01*
X00491857D01*
Y00508D01*
X00491857Y00508186D01*
X00491913Y00508321D01*
X00492981Y00508534D01*
X0049403Y00507622D01*
Y0048387D01*
X0049276Y004826D01*
X0045466D01*
X0045339Y0048387D01*
Y00508D01*
X0045466Y0050927D01*
X00469057D01*
X00469505Y00508186D01*
D02*
G37*
G36*
X00246068Y00558252D02*
X0025191Y0055241D01*
X0026039D01*
X0027432Y0053848D01*
X0028067Y0053213D01*
X00297434Y0053213D01*
X00301244Y0052832D01*
X003175D01*
Y0048387D01*
X0031492Y0048129D01*
X00257817D01*
X0025572Y00483442D01*
Y0052066D01*
X00251206Y00525174D01*
X00251206Y00537464D01*
X0024511Y0054356D01*
X0024511Y0055245D01*
X0024302Y0055454D01*
X0024302Y0059432D01*
X00246068D01*
Y00558252D01*
D02*
G37*
G36*
X0022524Y0055495D02*
X00222758Y00552468D01*
Y00542968D01*
X0021889Y005391D01*
Y0052574D01*
X0021381Y0052066D01*
Y0044114D01*
X0021209Y0043942D01*
X001778D01*
X0017399Y0044323D01*
Y005334D01*
X0017653Y0053594D01*
X0020115Y0053594D01*
X00222235Y00557025D01*
X0022247Y00593812D01*
X0022524D01*
X0022524Y0055495D01*
D02*
G37*
G36*
X0017018Y0044196D02*
X0017653Y0043561D01*
X0021209D01*
X0021336Y0043434D01*
Y0039681D01*
X0013659D01*
X0013335Y0040005D01*
X0013335Y0042799D01*
X0012954Y004318D01*
X000254D01*
X0002286Y0043434D01*
X0002286Y0047879D01*
X000254Y0048133D01*
X0017018D01*
X0017018Y0044196D01*
D02*
G37*
G36*
X00420526Y0052959D02*
X00421995Y00529137D01*
X004247Y00527675D01*
X00427067Y00525714D01*
X00429006Y00523329D01*
X00429725Y0052197D01*
X00429725Y00450106D01*
X00429724Y00450106D01*
X00429724Y00449679D01*
X00429558Y00448841D01*
X00429231Y00448052D01*
X00428756Y00447342D01*
X00428455Y0044704D01*
X00380677Y00399263D01*
X00380677Y00399262D01*
X00380079Y00398665D01*
X00378673Y00397725D01*
X0037711Y00397078D01*
X00375452Y00396748D01*
X00338284D01*
X00338284Y0040513D01*
X00349968Y00416814D01*
Y00445008D01*
X00361399Y00456438D01*
Y00485507D01*
X00367495Y00491603D01*
X00367495Y0052959D01*
X00420526D01*
X00420526Y0052959D01*
D02*
G37*
G36*
X0023622Y005588D02*
X00243586Y00551434D01*
X00243586Y00542544D01*
X00249174Y00536956D01*
Y00524256D01*
X00253746Y00519684D01*
Y00481584D01*
X0025654Y0047879D01*
X0031623D01*
X00319532Y00482092D01*
Y0048768D01*
X00357124D01*
X0035941Y00485394D01*
Y00457327D01*
X0034798Y00445897D01*
Y0041783D01*
X0033655Y004064D01*
Y00396748D01*
X00216662D01*
Y00519684D01*
X0022098Y00524002D01*
Y0053826D01*
X00224223Y00541503D01*
X00224666Y00542166D01*
X0022479Y0054229D01*
Y00542768D01*
X0022483Y00542968D01*
X0022483Y00542968D01*
Y00551474D01*
X00232156Y005588D01*
Y00594099D01*
X0023622D01*
Y005588D01*
D02*
G37*
G36*
X0084836Y0044196D02*
Y0039751D01*
X0085217Y003937D01*
X0087122D01*
X0087122Y0036957D01*
X0082804D01*
Y0040513D01*
X008255Y0040767D01*
X0079629Y0040767D01*
X0079375Y0040513D01*
Y0038862D01*
X0079248Y0038735D01*
X0075184D01*
X007493Y0038989D01*
Y0044196D01*
X0075184Y004445D01*
X0084582D01*
X0084836Y0044196D01*
D02*
G37*
G36*
X0074549D02*
Y0038735D01*
X007493Y0038354D01*
X0079375D01*
X0079756Y0038735D01*
X0079756Y0040259D01*
X008001Y0040513D01*
X00823486Y0040513D01*
X008255Y00403116D01*
Y0036957D01*
X00826085Y00368985D01*
X00826126Y00368777D01*
X00826575Y00368105D01*
X00827247Y00367656D01*
X00827456Y00367615D01*
X0082804Y0036703D01*
X0087122D01*
Y0034544D01*
X0084709D01*
X0084455Y0034798D01*
X0082931D01*
X0082677Y0034544D01*
Y0022479D01*
X0082931Y0022225D01*
X0084328D01*
X0084836Y0022733D01*
X0087249D01*
Y0020447D01*
X0084836D01*
X0084582Y0020701D01*
X0083185D01*
X0082804Y002032D01*
Y0018288D01*
Y0014351D01*
X0083185Y001397D01*
Y0010033D01*
X0082931Y0009779D01*
X0078867Y0009779D01*
X0077978Y0010668D01*
X0077978Y0024257D01*
X0077724Y0024511D01*
Y0029845D01*
X0077089Y003048D01*
X00722122D01*
X0069977Y00327152D01*
Y0044196D01*
X0070231Y004445D01*
X0074295D01*
X0074549Y0044196D01*
D02*
G37*
G36*
X00073615Y00425451D02*
Y0036068D01*
X00079965Y0035433D01*
X0012446D01*
X0013335Y0036322D01*
Y0038989D01*
X0013716Y003937D01*
X0029845D01*
X00301244Y00390906D01*
Y00308356D01*
X00298958Y0030607D01*
X0027686D01*
Y0035306D01*
X0027178Y0035814D01*
X0019431Y0035814D01*
X0018542Y0034925D01*
Y0026543D01*
X00199893Y00250957D01*
Y00171953D01*
X0017653Y0014859D01*
Y0005969D01*
X0017399Y0005715D01*
X0013589D01*
X0013335Y0005969D01*
Y0032385D01*
X0012446Y0033274D01*
X000254D01*
X0002286Y0033528D01*
Y0042545D01*
X000254Y0042799D01*
X0007112D01*
X00073615Y00425451D01*
D02*
G37*
G36*
X0052197Y0032004D02*
Y0030226D01*
X005207Y0030099D01*
X0049403D01*
Y0031115D01*
X0049657Y0031369D01*
Y0032131D01*
X005207D01*
X0052197Y0032004D01*
D02*
G37*
G36*
X0047625Y004064D02*
Y0034925D01*
X0046228Y0033528D01*
Y0029972D01*
X0046101Y0029845D01*
X0044831D01*
X0044704Y0029972D01*
X0044704Y0033528D01*
X0043307Y0034925D01*
X0043307Y004064D01*
X0043942Y0041275D01*
X004699Y0041275D01*
X0047625Y004064D01*
D02*
G37*
G36*
X0084582Y003429D02*
X0087122D01*
Y003175D01*
X0085598D01*
Y0029591D01*
X0085471Y0029464D01*
X0083058D01*
X0082931Y0029591D01*
Y0032258D01*
Y0034417D01*
X0083058Y0034544D01*
X0084328D01*
X0084582Y003429D01*
D02*
G37*
G36*
X0054483Y0041402D02*
Y0035687D01*
X005461Y003556D01*
X0054991D01*
X0055372Y0035179D01*
Y0030861D01*
X0055753Y003048D01*
X0058674D01*
X0058928Y0030226D01*
Y0028067D01*
X0058674Y0027813D01*
X005461D01*
X0054229Y0028194D01*
Y0032004D01*
X0053848Y0032385D01*
X0049657D01*
X0049403Y0032639D01*
Y0041656D01*
X0054229D01*
X0054483Y0041402D01*
D02*
G37*
G36*
X0053975Y0032004D02*
Y0028194D01*
X0053594Y0027813D01*
X0049149D01*
Y0029591D01*
X0049403Y0029845D01*
X0052324D01*
X0052451Y0029972D01*
Y0032004D01*
X0052578Y0032131D01*
X0053848D01*
X0053975Y0032004D01*
D02*
G37*
G36*
X0085344Y0025908D02*
X0085725Y0025527D01*
X0087249D01*
Y0022987D01*
X0084709D01*
X0084201Y0022479D01*
X0083058D01*
X0082931Y0022606D01*
Y002794D01*
X0085344D01*
Y0025908D01*
D02*
G37*
G36*
X0048768Y0022098D02*
X004826D01*
X0048006Y0021844D01*
Y002032D01*
X0047752Y0020066D01*
X0038735D01*
X00381Y0019431D01*
Y0018415D01*
X00379984Y00183134D01*
X00338836D01*
X00336042Y00185928D01*
X0036576D01*
X0036576Y0019939D01*
X00381635Y00215265D01*
Y00227965D01*
X0038354Y0022987D01*
X004191D01*
X0042672Y0022225D01*
X0046482D01*
X0046736Y0022479D01*
Y0024257D01*
X0048768D01*
Y0022098D01*
D02*
G37*
G36*
X0051816Y0021844D02*
X005207Y002159D01*
X005207Y00166878D01*
X00519675Y00165853D01*
X0051943Y00165902D01*
X0051943Y00165902D01*
X0049534Y00165902D01*
Y00179832D01*
X0049534Y00179832D01*
X004953Y00180032D01*
Y0018034D01*
X00495224Y00180416D01*
X00495182Y00180625D01*
X00495182Y00180625D01*
Y00180625D01*
X00495092Y0018076D01*
X00494733Y00181297D01*
X00494733Y00181297D01*
X00493717Y00182313D01*
X00493717Y00182313D01*
X00493379Y00182539D01*
X00493045Y00182762D01*
X00492836Y00182803D01*
X0049276Y0018288D01*
X00492452D01*
X00492252Y0018292D01*
X00492252Y0018292D01*
X0038477Y0018292D01*
X0038354Y0018415D01*
Y0019304D01*
X0038862Y0019812D01*
X0047879Y0019812D01*
X004826Y0020193D01*
Y0021717D01*
X0048387Y0021844D01*
X0051816Y0021844D01*
D02*
G37*
G36*
X0033147Y0024003D02*
Y0023495D01*
X0033147Y002032D01*
X0033528Y0019939D01*
Y0018923D01*
X002921D01*
Y002286D01*
X003048Y002413D01*
X003302D01*
X0033147Y0024003D01*
D02*
G37*
G36*
X003586Y0019402D02*
X0035862D01*
X0035865Y0019401D01*
X0035867D01*
X003587Y00194D01*
X0035872Y0019399D01*
X0035875Y0019398D01*
X0035877Y0019396D01*
X0035879Y0019395D01*
X0035881Y0019393D01*
X0035883Y0019392D01*
X0035885Y001939D01*
X0035887Y0019388D01*
X0035889Y0019386D01*
X0035891Y0019384D01*
X0035892Y0019382D01*
X0035894Y001938D01*
X0035895Y0019378D01*
X0035897Y0019376D01*
X0035898Y0019373D01*
X0035899Y0019371D01*
X00359Y0019368D01*
Y0019366D01*
X0035901Y0019363D01*
Y0019361D01*
X0035902Y0019358D01*
Y0019053D01*
X0036207D01*
X003621Y0019052D01*
X0036212D01*
X0036215Y0019051D01*
X0036217D01*
X003622Y001905D01*
X0036222Y0019049D01*
X0036225Y0019048D01*
X0036227Y0019046D01*
X0036229Y0019045D01*
X0036231Y0019043D01*
X0036233Y0019042D01*
X0036235Y001904D01*
X0036237Y0019038D01*
X0036239Y0019036D01*
X0036241Y0019034D01*
X0036242Y0019032D01*
X0036244Y001903D01*
X0036245Y0019028D01*
X0036247Y0019026D01*
X0036248Y0019023D01*
X0036249Y0019021D01*
X003625Y0019018D01*
Y0019016D01*
X0036251Y0019013D01*
Y0019011D01*
X0036252Y0019008D01*
Y0018848D01*
X0036251Y0018845D01*
Y0018843D01*
X003625Y001884D01*
Y0018838D01*
X0036249Y0018835D01*
X0036248Y0018833D01*
X0036247Y001883D01*
X0036245Y0018828D01*
X0036244Y0018826D01*
X0036242Y0018824D01*
X0036241Y0018822D01*
X0036239Y001882D01*
X0036237Y0018818D01*
X0036235Y0018816D01*
X0036233Y0018814D01*
X0036231Y0018813D01*
X0036229Y0018811D01*
X0036227Y001881D01*
X0036225Y0018808D01*
X0036222Y0018807D01*
X003622Y0018806D01*
X0036217Y0018805D01*
X0036215D01*
X0036212Y0018804D01*
X003621D01*
X0036207Y0018803D01*
X0035647D01*
X0035644Y0018804D01*
X0035642D01*
X0035639Y0018805D01*
X0035637D01*
X0035634Y0018806D01*
X0035632Y0018807D01*
X0035629Y0018808D01*
X0035627Y001881D01*
X0035625Y0018811D01*
X0035623Y0018813D01*
X0035621Y0018814D01*
X0035619Y0018816D01*
X0035617Y0018818D01*
X0035615Y001882D01*
X0035613Y0018822D01*
X0035612Y0018824D01*
X003561Y0018826D01*
X0035609Y0018828D01*
X0035607Y001883D01*
X0035606Y0018833D01*
X0035605Y0018835D01*
X0035604Y0018838D01*
Y001884D01*
X0035603Y0018843D01*
Y0018845D01*
X0035602Y0018848D01*
Y0019358D01*
X0035603Y0019361D01*
Y0019363D01*
X0035604Y0019366D01*
Y0019368D01*
X0035605Y0019371D01*
X0035606Y0019373D01*
X0035607Y0019376D01*
X0035609Y0019378D01*
X003561Y001938D01*
X0035612Y0019382D01*
X0035613Y0019384D01*
X0035615Y0019386D01*
X0035617Y0019388D01*
X0035619Y001939D01*
X0035621Y0019392D01*
X0035623Y0019393D01*
X0035625Y0019395D01*
X0035627Y0019396D01*
X0035629Y0019398D01*
X0035632Y0019399D01*
X0035634Y00194D01*
X0035637Y0019401D01*
X0035639D01*
X0035642Y0019402D01*
X0035644D01*
X0035647Y0019403D01*
X0035857D01*
X003586Y0019402D01*
D02*
G37*
G36*
X003446D02*
X0034462D01*
X0034465Y0019401D01*
X0034467D01*
X003447Y00194D01*
X0034472Y0019399D01*
X0034475Y0019398D01*
X0034477Y0019396D01*
X0034479Y0019395D01*
X0034481Y0019393D01*
X0034483Y0019392D01*
X0034485Y001939D01*
X0034487Y0019388D01*
X0034489Y0019386D01*
X0034491Y0019384D01*
X0034492Y0019382D01*
X0034494Y001938D01*
X0034495Y0019378D01*
X0034497Y0019376D01*
X0034498Y0019373D01*
X0034499Y0019371D01*
X00345Y0019368D01*
Y0019366D01*
X0034501Y0019363D01*
Y0019361D01*
X0034502Y0019358D01*
Y0018848D01*
X0034501Y0018845D01*
Y0018843D01*
X00345Y001884D01*
Y0018838D01*
X0034499Y0018835D01*
X0034498Y0018833D01*
X0034497Y001883D01*
X0034495Y0018828D01*
X0034494Y0018826D01*
X0034492Y0018824D01*
X0034491Y0018822D01*
X0034489Y001882D01*
X0034487Y0018818D01*
X0034485Y0018816D01*
X0034483Y0018814D01*
X0034481Y0018813D01*
X0034479Y0018811D01*
X0034477Y001881D01*
X0034475Y0018808D01*
X0034472Y0018807D01*
X003447Y0018806D01*
X0034467Y0018805D01*
X0034465D01*
X0034462Y0018804D01*
X003446D01*
X0034457Y0018803D01*
X0033897D01*
X0033894Y0018804D01*
X0033892D01*
X0033889Y0018805D01*
X0033887D01*
X0033884Y0018806D01*
X0033882Y0018807D01*
X0033879Y0018808D01*
X0033877Y001881D01*
X0033875Y0018811D01*
X0033873Y0018813D01*
X0033871Y0018814D01*
X0033869Y0018816D01*
X0033867Y0018818D01*
X0033865Y001882D01*
X0033863Y0018822D01*
X0033862Y0018824D01*
X003386Y0018826D01*
X0033859Y0018828D01*
X0033857Y001883D01*
X0033856Y0018833D01*
X0033855Y0018835D01*
X0033854Y0018838D01*
Y001884D01*
X0033853Y0018843D01*
Y0018845D01*
X0033852Y0018848D01*
Y0019008D01*
X0033853Y0019011D01*
Y0019013D01*
X0033854Y0019016D01*
Y0019018D01*
X0033855Y0019021D01*
X0033856Y0019023D01*
X0033857Y0019026D01*
X0033859Y0019028D01*
X003386Y001903D01*
X0033862Y0019032D01*
X0033863Y0019034D01*
X0033865Y0019036D01*
X0033867Y0019038D01*
X0033869Y001904D01*
X0033871Y0019042D01*
X0033873Y0019043D01*
X0033875Y0019045D01*
X0033877Y0019046D01*
X0033879Y0019048D01*
X0033882Y0019049D01*
X0033884Y001905D01*
X0033887Y0019051D01*
X0033889D01*
X0033892Y0019052D01*
X0033894D01*
X0033897Y0019053D01*
X0034202D01*
Y0019358D01*
X0034203Y0019361D01*
Y0019363D01*
X0034204Y0019366D01*
Y0019368D01*
X0034205Y0019371D01*
X0034206Y0019373D01*
X0034207Y0019376D01*
X0034209Y0019378D01*
X003421Y001938D01*
X0034212Y0019382D01*
X0034213Y0019384D01*
X0034215Y0019386D01*
X0034217Y0019388D01*
X0034219Y001939D01*
X0034221Y0019392D01*
X0034223Y0019393D01*
X0034225Y0019395D01*
X0034227Y0019396D01*
X0034229Y0019398D01*
X0034232Y0019399D01*
X0034234Y00194D01*
X0034237Y0019401D01*
X0034239D01*
X0034242Y0019402D01*
X0034244D01*
X0034247Y0019403D01*
X0034457D01*
X003446Y0019402D01*
D02*
G37*
G36*
X0069977Y0028194D02*
Y00231084D01*
X00711144Y0021971D01*
X007112D01*
Y0018542D01*
X0070993Y0018415D01*
X0067564D01*
X00675617Y00212057D01*
X0066802Y00219654D01*
X0066802Y0028321D01*
X00669839Y00285029D01*
X00696681Y00285029D01*
X0069977Y0028194D01*
D02*
G37*
G36*
X003621Y0017602D02*
X0036212D01*
X0036215Y0017601D01*
X0036217D01*
X003622Y00176D01*
X0036222Y0017599D01*
X0036225Y0017598D01*
X0036227Y0017596D01*
X0036229Y0017595D01*
X0036231Y0017593D01*
X0036233Y0017592D01*
X0036235Y001759D01*
X0036237Y0017588D01*
X0036239Y0017586D01*
X0036241Y0017584D01*
X0036242Y0017582D01*
X0036244Y001758D01*
X0036245Y0017578D01*
X0036247Y0017576D01*
X0036248Y0017573D01*
X0036249Y0017571D01*
X003625Y0017568D01*
Y0017566D01*
X0036251Y0017563D01*
Y0017561D01*
X0036252Y0017558D01*
Y0017398D01*
X0036251Y0017395D01*
Y0017393D01*
X003625Y001739D01*
Y0017388D01*
X0036249Y0017385D01*
X0036248Y0017383D01*
X0036247Y001738D01*
X0036245Y0017378D01*
X0036244Y0017376D01*
X0036242Y0017374D01*
X0036241Y0017372D01*
X0036239Y001737D01*
X0036237Y0017368D01*
X0036235Y0017366D01*
X0036233Y0017364D01*
X0036231Y0017363D01*
X0036229Y0017361D01*
X0036227Y001736D01*
X0036225Y0017358D01*
X0036222Y0017357D01*
X003622Y0017356D01*
X0036217Y0017355D01*
X0036215D01*
X0036212Y0017354D01*
X003621D01*
X0036207Y0017353D01*
X0035902D01*
Y0017048D01*
X0035901Y0017045D01*
Y0017043D01*
X00359Y001704D01*
Y0017038D01*
X0035899Y0017035D01*
X0035898Y0017033D01*
X0035897Y001703D01*
X0035895Y0017028D01*
X0035894Y0017026D01*
X0035892Y0017024D01*
X0035891Y0017022D01*
X0035889Y001702D01*
X0035887Y0017018D01*
X0035885Y0017016D01*
X0035883Y0017014D01*
X0035881Y0017013D01*
X0035879Y0017011D01*
X0035877Y001701D01*
X0035875Y0017008D01*
X0035872Y0017007D01*
X003587Y0017006D01*
X0035867Y0017005D01*
X0035865D01*
X0035862Y0017004D01*
X003586D01*
X0035857Y0017003D01*
X0035647D01*
X0035644Y0017004D01*
X0035642D01*
X0035639Y0017005D01*
X0035637D01*
X0035634Y0017006D01*
X0035632Y0017007D01*
X0035629Y0017008D01*
X0035627Y001701D01*
X0035625Y0017011D01*
X0035623Y0017013D01*
X0035621Y0017014D01*
X0035619Y0017016D01*
X0035617Y0017018D01*
X0035615Y001702D01*
X0035613Y0017022D01*
X0035612Y0017024D01*
X003561Y0017026D01*
X0035609Y0017028D01*
X0035607Y001703D01*
X0035606Y0017033D01*
X0035605Y0017035D01*
X0035604Y0017038D01*
Y001704D01*
X0035603Y0017043D01*
Y0017045D01*
X0035602Y0017048D01*
Y0017558D01*
X0035603Y0017561D01*
Y0017563D01*
X0035604Y0017566D01*
Y0017568D01*
X0035605Y0017571D01*
X0035606Y0017573D01*
X0035607Y0017576D01*
X0035609Y0017578D01*
X003561Y001758D01*
X0035612Y0017582D01*
X0035613Y0017584D01*
X0035615Y0017586D01*
X0035617Y0017588D01*
X0035619Y001759D01*
X0035621Y0017592D01*
X0035623Y0017593D01*
X0035625Y0017595D01*
X0035627Y0017596D01*
X0035629Y0017598D01*
X0035632Y0017599D01*
X0035634Y00176D01*
X0035637Y0017601D01*
X0035639D01*
X0035642Y0017602D01*
X0035644D01*
X0035647Y0017603D01*
X0036207D01*
X003621Y0017602D01*
D02*
G37*
G36*
X003446D02*
X0034462D01*
X0034465Y0017601D01*
X0034467D01*
X003447Y00176D01*
X0034472Y0017599D01*
X0034475Y0017598D01*
X0034477Y0017596D01*
X0034479Y0017595D01*
X0034481Y0017593D01*
X0034483Y0017592D01*
X0034485Y001759D01*
X0034487Y0017588D01*
X0034489Y0017586D01*
X0034491Y0017584D01*
X0034492Y0017582D01*
X0034494Y001758D01*
X0034495Y0017578D01*
X0034497Y0017576D01*
X0034498Y0017573D01*
X0034499Y0017571D01*
X00345Y0017568D01*
Y0017566D01*
X0034501Y0017563D01*
Y0017561D01*
X0034502Y0017558D01*
Y0017048D01*
X0034501Y0017045D01*
Y0017043D01*
X00345Y001704D01*
Y0017038D01*
X0034499Y0017035D01*
X0034498Y0017033D01*
X0034497Y001703D01*
X0034495Y0017028D01*
X0034494Y0017026D01*
X0034492Y0017024D01*
X0034491Y0017022D01*
X0034489Y001702D01*
X0034487Y0017018D01*
X0034485Y0017016D01*
X0034483Y0017014D01*
X0034481Y0017013D01*
X0034479Y0017011D01*
X0034477Y001701D01*
X0034475Y0017008D01*
X0034472Y0017007D01*
X003447Y0017006D01*
X0034467Y0017005D01*
X0034465D01*
X0034462Y0017004D01*
X003446D01*
X0034457Y0017003D01*
X0034247D01*
X0034244Y0017004D01*
X0034242D01*
X0034239Y0017005D01*
X0034237D01*
X0034234Y0017006D01*
X0034232Y0017007D01*
X0034229Y0017008D01*
X0034227Y001701D01*
X0034225Y0017011D01*
X0034223Y0017013D01*
X0034221Y0017014D01*
X0034219Y0017016D01*
X0034217Y0017018D01*
X0034215Y001702D01*
X0034213Y0017022D01*
X0034212Y0017024D01*
X003421Y0017026D01*
X0034209Y0017028D01*
X0034207Y001703D01*
X0034206Y0017033D01*
X0034205Y0017035D01*
X0034204Y0017038D01*
Y001704D01*
X0034203Y0017043D01*
Y0017045D01*
X0034202Y0017048D01*
Y0017353D01*
X0033897D01*
X0033894Y0017354D01*
X0033892D01*
X0033889Y0017355D01*
X0033887D01*
X0033884Y0017356D01*
X0033882Y0017357D01*
X0033879Y0017358D01*
X0033877Y001736D01*
X0033875Y0017361D01*
X0033873Y0017363D01*
X0033871Y0017364D01*
X0033869Y0017366D01*
X0033867Y0017368D01*
X0033865Y001737D01*
X0033863Y0017372D01*
X0033862Y0017374D01*
X003386Y0017376D01*
X0033859Y0017378D01*
X0033857Y001738D01*
X0033856Y0017383D01*
X0033855Y0017385D01*
X0033854Y0017388D01*
Y001739D01*
X0033853Y0017393D01*
Y0017395D01*
X0033852Y0017398D01*
Y0017558D01*
X0033853Y0017561D01*
Y0017563D01*
X0033854Y0017566D01*
Y0017568D01*
X0033855Y0017571D01*
X0033856Y0017573D01*
X0033857Y0017576D01*
X0033859Y0017578D01*
X003386Y001758D01*
X0033862Y0017582D01*
X0033863Y0017584D01*
X0033865Y0017586D01*
X0033867Y0017588D01*
X0033869Y001759D01*
X0033871Y0017592D01*
X0033873Y0017593D01*
X0033875Y0017595D01*
X0033877Y0017596D01*
X0033879Y0017598D01*
X0033882Y0017599D01*
X0033884Y00176D01*
X0033887Y0017601D01*
X0033889D01*
X0033892Y0017602D01*
X0033894D01*
X0033897Y0017603D01*
X0034457D01*
X003446Y0017602D01*
D02*
G37*
G36*
X006223Y0017907D02*
X0063881D01*
Y0015875D01*
X0059182D01*
X0058801Y0016256D01*
X0057912D01*
X0057531Y0015875D01*
Y0012446D01*
X0057404Y0012319D01*
X005588Y0012319D01*
X0055753Y0012446D01*
Y00149352D01*
X00554482Y001524D01*
X00526796Y001524D01*
Y0015494D01*
X00554736D01*
X0055753Y00157734D01*
Y00183134D01*
X00559816Y0018542D01*
X0061595D01*
X006223Y0017907D01*
D02*
G37*
G36*
X0054656Y0016308D02*
X0054658D01*
X0054661Y0016307D01*
X0054663D01*
X0054666Y0016306D01*
X0054668Y0016305D01*
X0054671Y0016304D01*
X0054673Y0016302D01*
X0054675Y0016301D01*
X0054677Y0016299D01*
X0054679Y0016298D01*
X0054681Y0016296D01*
X0054683Y0016294D01*
X0054685Y0016292D01*
X0054687Y001629D01*
X0054688Y0016288D01*
X005469Y0016286D01*
X0054691Y0016284D01*
X0054693Y0016282D01*
X0054694Y0016279D01*
X0054695Y0016277D01*
X0054696Y0016274D01*
Y0016272D01*
X0054697Y0016269D01*
Y0016267D01*
X0054698Y0016264D01*
Y0015959D01*
X0055003D01*
X0055006Y0015958D01*
X0055008D01*
X0055011Y0015957D01*
X0055013D01*
X0055016Y0015956D01*
X0055018Y0015955D01*
X0055021Y0015954D01*
X0055023Y0015952D01*
X0055025Y0015951D01*
X0055027Y0015949D01*
X0055029Y0015948D01*
X0055031Y0015946D01*
X0055033Y0015944D01*
X0055035Y0015942D01*
X0055037Y001594D01*
X0055038Y0015938D01*
X005504Y0015936D01*
X0055041Y0015934D01*
X0055043Y0015932D01*
X0055044Y0015929D01*
X0055045Y0015927D01*
X0055046Y0015924D01*
Y0015922D01*
X0055047Y0015919D01*
Y0015917D01*
X0055048Y0015914D01*
Y0015754D01*
X0055047Y0015751D01*
Y0015749D01*
X0055046Y0015746D01*
Y0015744D01*
X0055045Y0015741D01*
X0055044Y0015739D01*
X0055043Y0015736D01*
X0055041Y0015734D01*
X005504Y0015732D01*
X0055038Y001573D01*
X0055037Y0015728D01*
X0055035Y0015726D01*
X0055033Y0015724D01*
X0055031Y0015722D01*
X0055029Y001572D01*
X0055027Y0015719D01*
X0055025Y0015717D01*
X0055023Y0015716D01*
X0055021Y0015714D01*
X0055018Y0015713D01*
X0055016Y0015712D01*
X0055013Y0015711D01*
X0055011D01*
X0055008Y001571D01*
X0055006D01*
X0055003Y0015709D01*
X0054443D01*
X005444Y001571D01*
X0054438D01*
X0054435Y0015711D01*
X0054433D01*
X005443Y0015712D01*
X0054428Y0015713D01*
X0054425Y0015714D01*
X0054423Y0015716D01*
X0054421Y0015717D01*
X0054419Y0015719D01*
X0054417Y001572D01*
X0054415Y0015722D01*
X0054413Y0015724D01*
X0054411Y0015726D01*
X0054409Y0015728D01*
X0054408Y001573D01*
X0054406Y0015732D01*
X0054405Y0015734D01*
X0054403Y0015736D01*
X0054402Y0015739D01*
X0054401Y0015741D01*
X00544Y0015744D01*
Y0015746D01*
X0054399Y0015749D01*
Y0015751D01*
X0054398Y0015754D01*
Y0016264D01*
X0054399Y0016267D01*
Y0016269D01*
X00544Y0016272D01*
Y0016274D01*
X0054401Y0016277D01*
X0054402Y0016279D01*
X0054403Y0016282D01*
X0054405Y0016284D01*
X0054406Y0016286D01*
X0054408Y0016288D01*
X0054409Y001629D01*
X0054411Y0016292D01*
X0054413Y0016294D01*
X0054415Y0016296D01*
X0054417Y0016298D01*
X0054419Y0016299D01*
X0054421Y0016301D01*
X0054423Y0016302D01*
X0054425Y0016304D01*
X0054428Y0016305D01*
X005443Y0016306D01*
X0054433Y0016307D01*
X0054435D01*
X0054438Y0016308D01*
X005444D01*
X0054443Y0016309D01*
X0054653D01*
X0054656Y0016308D01*
D02*
G37*
G36*
X0053256D02*
X0053258D01*
X0053261Y0016307D01*
X0053263D01*
X0053266Y0016306D01*
X0053268Y0016305D01*
X0053271Y0016304D01*
X0053273Y0016302D01*
X0053275Y0016301D01*
X0053277Y0016299D01*
X0053279Y0016298D01*
X0053281Y0016296D01*
X0053283Y0016294D01*
X0053285Y0016292D01*
X0053287Y001629D01*
X0053288Y0016288D01*
X005329Y0016286D01*
X0053291Y0016284D01*
X0053293Y0016282D01*
X0053294Y0016279D01*
X0053295Y0016277D01*
X0053296Y0016274D01*
Y0016272D01*
X0053297Y0016269D01*
Y0016267D01*
X0053298Y0016264D01*
Y0015754D01*
X0053297Y0015751D01*
Y0015749D01*
X0053296Y0015746D01*
Y0015744D01*
X0053295Y0015741D01*
X0053294Y0015739D01*
X0053293Y0015736D01*
X0053291Y0015734D01*
X005329Y0015732D01*
X0053288Y001573D01*
X0053287Y0015728D01*
X0053285Y0015726D01*
X0053283Y0015724D01*
X0053281Y0015722D01*
X0053279Y001572D01*
X0053277Y0015719D01*
X0053275Y0015717D01*
X0053273Y0015716D01*
X0053271Y0015714D01*
X0053268Y0015713D01*
X0053266Y0015712D01*
X0053263Y0015711D01*
X0053261D01*
X0053258Y001571D01*
X0053256D01*
X0053253Y0015709D01*
X0052693D01*
X005269Y001571D01*
X0052688D01*
X0052685Y0015711D01*
X0052683D01*
X005268Y0015712D01*
X0052678Y0015713D01*
X0052675Y0015714D01*
X0052673Y0015716D01*
X0052671Y0015717D01*
X0052669Y0015719D01*
X0052667Y001572D01*
X0052665Y0015722D01*
X0052663Y0015724D01*
X0052661Y0015726D01*
X0052659Y0015728D01*
X0052658Y001573D01*
X0052656Y0015732D01*
X0052655Y0015734D01*
X0052653Y0015736D01*
X0052652Y0015739D01*
X0052651Y0015741D01*
X005265Y0015744D01*
Y0015746D01*
X0052649Y0015749D01*
Y0015751D01*
X0052648Y0015754D01*
Y0015914D01*
X0052649Y0015917D01*
Y0015919D01*
X005265Y0015922D01*
Y0015924D01*
X0052651Y0015927D01*
X0052652Y0015929D01*
X0052653Y0015932D01*
X0052655Y0015934D01*
X0052656Y0015936D01*
X0052658Y0015938D01*
X0052659Y001594D01*
X0052661Y0015942D01*
X0052663Y0015944D01*
X0052665Y0015946D01*
X0052667Y0015948D01*
X0052669Y0015949D01*
X0052671Y0015951D01*
X0052673Y0015952D01*
X0052675Y0015954D01*
X0052678Y0015955D01*
X005268Y0015956D01*
X0052683Y0015957D01*
X0052685D01*
X0052688Y0015958D01*
X005269D01*
X0052693Y0015959D01*
X0052998D01*
Y0016264D01*
X0052999Y0016267D01*
Y0016269D01*
X0053Y0016272D01*
Y0016274D01*
X0053001Y0016277D01*
X0053002Y0016279D01*
X0053003Y0016282D01*
X0053005Y0016284D01*
X0053006Y0016286D01*
X0053008Y0016288D01*
X0053009Y001629D01*
X0053011Y0016292D01*
X0053013Y0016294D01*
X0053015Y0016296D01*
X0053017Y0016298D01*
X0053019Y0016299D01*
X0053021Y0016301D01*
X0053023Y0016302D01*
X0053025Y0016304D01*
X0053028Y0016305D01*
X005303Y0016306D01*
X0053033Y0016307D01*
X0053035D01*
X0053038Y0016308D01*
X005304D01*
X0053043Y0016309D01*
X0053253D01*
X0053256Y0016308D01*
D02*
G37*
G36*
X0055006Y0014508D02*
X0055008D01*
X0055011Y0014507D01*
X0055013D01*
X0055016Y0014506D01*
X0055018Y0014505D01*
X0055021Y0014504D01*
X0055023Y0014502D01*
X0055025Y0014501D01*
X0055027Y0014499D01*
X0055029Y0014498D01*
X0055031Y0014496D01*
X0055033Y0014494D01*
X0055035Y0014492D01*
X0055037Y001449D01*
X0055038Y0014488D01*
X005504Y0014486D01*
X0055041Y0014484D01*
X0055043Y0014482D01*
X0055044Y0014479D01*
X0055045Y0014477D01*
X0055046Y0014474D01*
Y0014472D01*
X0055047Y0014469D01*
Y0014467D01*
X0055048Y0014464D01*
Y0014304D01*
X0055047Y0014301D01*
Y0014299D01*
X0055046Y0014296D01*
Y0014294D01*
X0055045Y0014291D01*
X0055044Y0014289D01*
X0055043Y0014286D01*
X0055041Y0014284D01*
X005504Y0014282D01*
X0055038Y001428D01*
X0055037Y0014278D01*
X0055035Y0014276D01*
X0055033Y0014274D01*
X0055031Y0014272D01*
X0055029Y001427D01*
X0055027Y0014269D01*
X0055025Y0014267D01*
X0055023Y0014266D01*
X0055021Y0014264D01*
X0055018Y0014263D01*
X0055016Y0014262D01*
X0055013Y0014261D01*
X0055011D01*
X0055008Y001426D01*
X0055006D01*
X0055003Y0014259D01*
X0054698D01*
Y0013954D01*
X0054697Y0013951D01*
Y0013949D01*
X0054696Y0013946D01*
Y0013944D01*
X0054695Y0013941D01*
X0054694Y0013939D01*
X0054693Y0013936D01*
X0054691Y0013934D01*
X005469Y0013932D01*
X0054688Y001393D01*
X0054687Y0013928D01*
X0054685Y0013926D01*
X0054683Y0013924D01*
X0054681Y0013922D01*
X0054679Y001392D01*
X0054677Y0013919D01*
X0054675Y0013917D01*
X0054673Y0013916D01*
X0054671Y0013914D01*
X0054668Y0013913D01*
X0054666Y0013912D01*
X0054663Y0013911D01*
X0054661D01*
X0054658Y001391D01*
X0054656D01*
X0054653Y0013909D01*
X0054443D01*
X005444Y001391D01*
X0054438D01*
X0054435Y0013911D01*
X0054433D01*
X005443Y0013912D01*
X0054428Y0013913D01*
X0054425Y0013914D01*
X0054423Y0013916D01*
X0054421Y0013917D01*
X0054419Y0013919D01*
X0054417Y001392D01*
X0054415Y0013922D01*
X0054413Y0013924D01*
X0054411Y0013926D01*
X0054409Y0013928D01*
X0054408Y001393D01*
X0054406Y0013932D01*
X0054405Y0013934D01*
X0054403Y0013936D01*
X0054402Y0013939D01*
X0054401Y0013941D01*
X00544Y0013944D01*
Y0013946D01*
X0054399Y0013949D01*
Y0013951D01*
X0054398Y0013954D01*
Y0014464D01*
X0054399Y0014467D01*
Y0014469D01*
X00544Y0014472D01*
Y0014474D01*
X0054401Y0014477D01*
X0054402Y0014479D01*
X0054403Y0014482D01*
X0054405Y0014484D01*
X0054406Y0014486D01*
X0054408Y0014488D01*
X0054409Y001449D01*
X0054411Y0014492D01*
X0054413Y0014494D01*
X0054415Y0014496D01*
X0054417Y0014498D01*
X0054419Y0014499D01*
X0054421Y0014501D01*
X0054423Y0014502D01*
X0054425Y0014504D01*
X0054428Y0014505D01*
X005443Y0014506D01*
X0054433Y0014507D01*
X0054435D01*
X0054438Y0014508D01*
X005444D01*
X0054443Y0014509D01*
X0055003D01*
X0055006Y0014508D01*
D02*
G37*
G36*
X0053256D02*
X0053258D01*
X0053261Y0014507D01*
X0053263D01*
X0053266Y0014506D01*
X0053268Y0014505D01*
X0053271Y0014504D01*
X0053273Y0014502D01*
X0053275Y0014501D01*
X0053277Y0014499D01*
X0053279Y0014498D01*
X0053281Y0014496D01*
X0053283Y0014494D01*
X0053285Y0014492D01*
X0053287Y001449D01*
X0053288Y0014488D01*
X005329Y0014486D01*
X0053291Y0014484D01*
X0053293Y0014482D01*
X0053294Y0014479D01*
X0053295Y0014477D01*
X0053296Y0014474D01*
Y0014472D01*
X0053297Y0014469D01*
Y0014467D01*
X0053298Y0014464D01*
Y0013954D01*
X0053297Y0013951D01*
Y0013949D01*
X0053296Y0013946D01*
Y0013944D01*
X0053295Y0013941D01*
X0053294Y0013939D01*
X0053293Y0013936D01*
X0053291Y0013934D01*
X005329Y0013932D01*
X0053288Y001393D01*
X0053287Y0013928D01*
X0053285Y0013926D01*
X0053283Y0013924D01*
X0053281Y0013922D01*
X0053279Y001392D01*
X0053277Y0013919D01*
X0053275Y0013917D01*
X0053273Y0013916D01*
X0053271Y0013914D01*
X0053268Y0013913D01*
X0053266Y0013912D01*
X0053263Y0013911D01*
X0053261D01*
X0053258Y001391D01*
X0053256D01*
X0053253Y0013909D01*
X0053043D01*
X005304Y001391D01*
X0053038D01*
X0053035Y0013911D01*
X0053033D01*
X005303Y0013912D01*
X0053028Y0013913D01*
X0053025Y0013914D01*
X0053023Y0013916D01*
X0053021Y0013917D01*
X0053019Y0013919D01*
X0053017Y001392D01*
X0053015Y0013922D01*
X0053013Y0013924D01*
X0053011Y0013926D01*
X0053009Y0013928D01*
X0053008Y001393D01*
X0053006Y0013932D01*
X0053005Y0013934D01*
X0053003Y0013936D01*
X0053002Y0013939D01*
X0053001Y0013941D01*
X0053Y0013944D01*
Y0013946D01*
X0052999Y0013949D01*
Y0013951D01*
X0052998Y0013954D01*
Y0014259D01*
X0052693D01*
X005269Y001426D01*
X0052688D01*
X0052685Y0014261D01*
X0052683D01*
X005268Y0014262D01*
X0052678Y0014263D01*
X0052675Y0014264D01*
X0052673Y0014266D01*
X0052671Y0014267D01*
X0052669Y0014269D01*
X0052667Y001427D01*
X0052665Y0014272D01*
X0052663Y0014274D01*
X0052661Y0014276D01*
X0052659Y0014278D01*
X0052658Y001428D01*
X0052656Y0014282D01*
X0052655Y0014284D01*
X0052653Y0014286D01*
X0052652Y0014289D01*
X0052651Y0014291D01*
X005265Y0014294D01*
Y0014296D01*
X0052649Y0014299D01*
Y0014301D01*
X0052648Y0014304D01*
Y0014464D01*
X0052649Y0014467D01*
Y0014469D01*
X005265Y0014472D01*
Y0014474D01*
X0052651Y0014477D01*
X0052652Y0014479D01*
X0052653Y0014482D01*
X0052655Y0014484D01*
X0052656Y0014486D01*
X0052658Y0014488D01*
X0052659Y001449D01*
X0052661Y0014492D01*
X0052663Y0014494D01*
X0052665Y0014496D01*
X0052667Y0014498D01*
X0052669Y0014499D01*
X0052671Y0014501D01*
X0052673Y0014502D01*
X0052675Y0014504D01*
X0052678Y0014505D01*
X005268Y0014506D01*
X0052683Y0014507D01*
X0052685D01*
X0052688Y0014508D01*
X005269D01*
X0052693Y0014509D01*
X0053253D01*
X0053256Y0014508D01*
D02*
G37*
G36*
X0066548Y0041656D02*
X0067437Y0040767D01*
Y0029591D01*
X0066294Y0028448D01*
Y0021717D01*
X00671576Y00208534D01*
X00671576Y00100584D01*
X0067691Y0009525D01*
X0070993D01*
X007112Y0009398D01*
Y0005969D01*
X0070866Y0005715D01*
X00677D01*
X0066929Y0006486D01*
Y0008763D01*
X0066421Y0009271D01*
X0064643D01*
X0064135Y0008763D01*
Y0006096D01*
X0063627Y0005588D01*
X0056007D01*
X0055118Y0006477D01*
Y0011938D01*
X0055245Y0012065D01*
X0057531D01*
X0057785Y0012319D01*
Y0015748D01*
X0058039Y0016002D01*
X0058674D01*
X0059055Y0015621D01*
X0060579Y0015621D01*
Y0011684D01*
X0060833Y001143D01*
X0065405D01*
X0065659Y0011684D01*
Y00144526D01*
X00642112D01*
Y0018161D01*
X0062357D01*
X0061722Y0018796D01*
X0054619D01*
X0054102Y0019313D01*
X0054102Y002159D01*
X005461Y0022098D01*
Y0025527D01*
X0054102Y0026035D01*
X00508D01*
X0050419Y0025654D01*
Y0024638D01*
X0050292Y0024511D01*
X0046482D01*
X0046228Y0024257D01*
Y0022479D01*
X0042926D01*
X0042164Y0023241D01*
X0037719D01*
X0037465Y0023495D01*
Y00260205D01*
X00376065Y0026162D01*
X004318D01*
Y0027305D01*
X0043434Y0027559D01*
X0058928D01*
X0059309Y002794D01*
Y0030353D01*
X0058801Y0030861D01*
X005588D01*
X0055753Y0030988D01*
Y0035179D01*
X0055118Y0035814D01*
X0054864Y0035814D01*
X0054737Y0035941D01*
Y0041402D01*
X0054991Y0041656D01*
X0066548Y0041656D01*
D02*
G37*
G36*
X00337312Y00180848D02*
X00492252Y00180848D01*
X00493268Y00179832D01*
Y0016383D01*
X0051943Y0016383D01*
X005207Y0016256D01*
Y0015494D01*
X0052578Y0014986D01*
X0055118D01*
Y0014732D01*
X0052578D01*
X0051816Y001397D01*
Y0010033D01*
X0051689Y0009906D01*
X0050165D01*
X0050165Y001397D01*
X0050419Y0014224D01*
Y0015494D01*
X0050292Y0015621D01*
X0048641Y0015621D01*
X0048514Y0015494D01*
X0048514Y0014224D01*
X0047879Y0013589D01*
X0039624D01*
X0039243Y001397D01*
X0039243Y0016129D01*
X0038989Y0016383D01*
X0037084Y0016383D01*
X0036576Y0016891D01*
X0036576Y00178308D01*
X00337058D01*
X00331724Y00172974D01*
Y00164846D01*
X00330708Y0016383D01*
X0032258D01*
X0031623Y0016383D01*
X0031369Y0016129D01*
Y0011176D01*
X003175Y0010795D01*
Y0005969D01*
X0031496Y0005715D01*
X0028575D01*
X0028321Y0005969D01*
Y0018669D01*
X0033147D01*
X00337312Y00180848D01*
D02*
G37*
G36*
X0084709Y0020193D02*
X0087249D01*
Y0017653D01*
X0085979Y0017653D01*
X0085725Y0017399D01*
Y001397D01*
X0086106Y0013589D01*
X0087757D01*
X0088011Y0013335D01*
Y0010033D01*
X0087757Y0009779D01*
X0083693D01*
X0083439Y0010033D01*
Y0014097D01*
X0083058Y0014478D01*
Y0018161D01*
Y0020193D01*
X0083312Y0020447D01*
X0084455D01*
X0084709Y0020193D01*
D02*
G37*
G36*
X0076835Y0030226D02*
X007747Y0029591D01*
Y0024384D01*
X0077724Y002413D01*
Y0010541D01*
X0076962Y0009779D01*
X0071501D01*
X0071374Y0009906D01*
X0071374Y0013716D01*
X0071501Y0013843D01*
X0073025D01*
X0073279Y0014097D01*
Y0021717D01*
X00722Y0022796D01*
X00722Y0030226D01*
X0076835Y0030226D01*
D02*
G37*
G36*
X0069342Y0014097D02*
X0069596Y0013843D01*
X0070993D01*
X007112Y0013716D01*
Y0009906D01*
X0070993Y0009779D01*
X0067818Y0009779D01*
X0067564Y0010033D01*
Y0015367D01*
X0069342D01*
Y0014097D01*
D02*
G37*
G36*
X0027432Y0035052D02*
Y0005969D01*
X0027178Y0005715D01*
X0018161Y0005715D01*
X0017907Y0005969D01*
Y0014605D01*
X002032Y0017018D01*
X002032Y0025273D01*
X0018796Y0026797D01*
Y0034671D01*
X0019558Y0035433D01*
X0027051D01*
X0027432Y0035052D01*
D02*
G37*
G36*
X0038989Y0016002D02*
Y0013843D01*
X0039497Y0013335D01*
X0048006D01*
X0048768Y0014097D01*
Y001524D01*
X0048895Y0015367D01*
X0050038D01*
X0050165Y001524D01*
Y0014351D01*
X0049911Y0014097D01*
Y0005969D01*
X0049657Y0005715D01*
X004445Y0005715D01*
X0044196Y0005969D01*
Y000889D01*
X004318Y0009906D01*
X0039116D01*
X00381Y000889D01*
Y0005969D01*
X0037846Y0005715D01*
X0032512D01*
X0032258Y0005969D01*
X0032258Y0010795D01*
X00372111D01*
X0037719Y00113029D01*
Y0012954D01*
X0036195D01*
X0034417Y0012954D01*
X003429Y0013081D01*
Y0014478D01*
X0034417Y0014605D01*
X0037338D01*
X0037592Y0014859D01*
Y0016129D01*
X0038862D01*
X0038989Y0016002D01*
D02*
G37*
%LPC*%
G36*
X00113074Y0052872D02*
X00110726D01*
X00108457Y00528112D01*
X00106423Y00526938D01*
X00104762Y00525277D01*
X00103588Y00523243D01*
X0010298Y00520974D01*
Y00518626D01*
X00103588Y00516357D01*
X00104762Y00514323D01*
X00106423Y00512662D01*
X00108457Y00511488D01*
X00110726Y0051088D01*
X00113074D01*
X00115343Y00511488D01*
X00117377Y00512662D01*
X00119038Y00514323D01*
X00120212Y00516357D01*
X0012082Y00518626D01*
Y00520974D01*
X00120212Y00523243D01*
X00119038Y00525277D01*
X00117377Y00526938D01*
X00115343Y00528112D01*
X00113074Y0052872D01*
D02*
G37*
G36*
X00087674D02*
X00085326D01*
X00083057Y00528112D01*
X00081023Y00526938D01*
X00079362Y00525277D01*
X00078188Y00523243D01*
X0007758Y00520974D01*
Y00518626D01*
X00078188Y00516357D01*
X00079362Y00514323D01*
X00081023Y00512662D01*
X00083057Y00511488D01*
X00085326Y0051088D01*
X00087674D01*
X00089943Y00511488D01*
X00091977Y00512662D01*
X00093638Y00514323D01*
X00094812Y00516357D01*
X0009542Y00518626D01*
Y00520974D01*
X00094812Y00523243D01*
X00093638Y00525277D01*
X00091977Y00526938D01*
X00089943Y00528112D01*
X00087674Y0052872D01*
D02*
G37*
G36*
X00113074Y0050332D02*
X00110726D01*
X00108457Y00502712D01*
X00106423Y00501538D01*
X00104762Y00499877D01*
X00103588Y00497843D01*
X0010298Y00495574D01*
Y00493226D01*
X00103588Y00490957D01*
X00104762Y00488923D01*
X00106423Y00487262D01*
X00108457Y00486088D01*
X00110726Y0048548D01*
X00113074D01*
X00115343Y00486088D01*
X00117377Y00487262D01*
X00119038Y00488923D01*
X00120212Y00490957D01*
X0012082Y00493226D01*
Y00495574D01*
X00120212Y00497843D01*
X00119038Y00499877D01*
X00117377Y00501538D01*
X00115343Y00502712D01*
X00113074Y0050332D01*
D02*
G37*
G36*
X00087674D02*
X00085326D01*
X00083057Y00502712D01*
X00081023Y00501538D01*
X00079362Y00499877D01*
X00078188Y00497843D01*
X0007758Y00495574D01*
Y00493226D01*
X00078188Y00490957D01*
X00079362Y00488923D01*
X00081023Y00487262D01*
X00083057Y00486088D01*
X00085326Y0048548D01*
X00087674D01*
X00089943Y00486088D01*
X00091977Y00487262D01*
X00093638Y00488923D01*
X00094812Y00490957D01*
X0009542Y00493226D01*
Y00495574D01*
X00094812Y00497843D01*
X00093638Y00499877D01*
X00091977Y00501538D01*
X00089943Y00502712D01*
X00087674Y0050332D01*
D02*
G37*
G36*
X00113175Y00478682D02*
X00110625D01*
X00108163Y00478022D01*
X00105955Y00476748D01*
X00104152Y00474945D01*
X00102878Y00472737D01*
X00102218Y00470275D01*
Y00467725D01*
X00102878Y00465263D01*
X00104152Y00463055D01*
X00105955Y00461253D01*
X00108163Y00459978D01*
X00110625Y00459318D01*
X00113175D01*
X00115637Y00459978D01*
X00117845Y00461253D01*
X00119648Y00463055D01*
X00120922Y00465263D01*
X00121582Y00467725D01*
Y00470275D01*
X00120922Y00472737D01*
X00119648Y00474945D01*
X00117845Y00476748D01*
X00115637Y00478022D01*
X00113175Y00478682D01*
D02*
G37*
G36*
Y00453282D02*
X00110625D01*
X00108163Y00452622D01*
X00105955Y00451348D01*
X00104152Y00449545D01*
X00102878Y00447337D01*
X00102218Y00444875D01*
Y00442325D01*
X00102878Y00439863D01*
X00104152Y00437655D01*
X00105955Y00435853D01*
X00108163Y00434578D01*
X00110625Y00433918D01*
X00113175D01*
X00115637Y00434578D01*
X00117845Y00435853D01*
X00119648Y00437655D01*
X00120922Y00439863D01*
X00121582Y00442325D01*
Y00444875D01*
X00120922Y00447337D01*
X00119648Y00449545D01*
X00117845Y00451348D01*
X00115637Y00452622D01*
X00113175Y00453282D01*
D02*
G37*
G36*
X00087775D02*
X00085225D01*
X00082763Y00452622D01*
X00080555Y00451348D01*
X00078752Y00449545D01*
X00077478Y00447337D01*
X00076818Y00444875D01*
Y00442325D01*
X00077478Y00439863D01*
X00078752Y00437655D01*
X00080555Y00435853D01*
X00082763Y00434578D01*
X00085225Y00433918D01*
X00087775D01*
X00090237Y00434578D01*
X00092445Y00435853D01*
X00094248Y00437655D01*
X00095522Y00439863D01*
X00096182Y00442325D01*
Y00444875D01*
X00095522Y00447337D01*
X00094248Y00449545D01*
X00092445Y00451348D01*
X00090237Y00452622D01*
X00087775Y00453282D01*
D02*
G37*
%LPD*%
D18*
X00598722Y00490924D02*
G03*
X0059901Y00490636I00000289J0D01*
G01*
X0076416Y0051905D02*
G03*
X0076454Y0051943I0J0000038D01*
G01*
X0071779Y0053594D02*
G03*
X0071846Y0053661I0J0000067D01*
G01*
X0066764Y0052705D02*
G03*
X0066675Y0052616I0J-0000089D01*
G01*
X0037221Y0077257D02*
X00372415Y00772365D01*
X00306361Y0077724D02*
X00311031Y0077257D01*
X0037221D01*
X0030607Y0077724D02*
X00306361D01*
X00300054Y0076327D02*
X0030099D01*
X00296473Y00766851D02*
X00300054Y0076327D01*
X0028725Y00766851D02*
X00296473D01*
X0028721Y0076689D02*
X0028725Y00766851D01*
X003175Y0078359D02*
X0032855D01*
X0031713Y0078396D02*
X003175Y0078359D01*
X0031332Y0078396D02*
X0031713D01*
X00637485Y00614625D02*
X00657699D01*
X0061468Y0059182D02*
X00637485Y00614625D01*
X00633929Y00622499D02*
X00657699D01*
X006096Y0059817D02*
X00633929Y00622499D01*
X0061849Y0058547D02*
X00630387Y00597367D01*
X0059911Y0057536D02*
X0060922Y0058547D01*
X0061849D01*
X00630387Y00597367D02*
X00636202D01*
X0060444Y0059182D02*
X0061468D01*
X0059563Y0057188D02*
X00595667D01*
X0059911Y00575323D01*
Y0057536D01*
X0059809Y0058547D02*
X0060444Y0059182D01*
X00636202Y00597367D02*
X00636842Y00596727D01*
X0061087Y0062357D02*
X00625801Y00638501D01*
X0059801Y0062357D02*
X0061087D01*
X00625801Y00638501D02*
X00657699D01*
X0059809Y0061087D02*
X0061087D01*
X00630627Y00630627D02*
X00657699D01*
X0061087Y0061087D02*
X00630627Y00630627D01*
X0059809Y0059817D02*
X006096D01*
X00196215Y00753745D02*
X0019685Y0075438D01*
X00184785Y00753745D02*
X00196215D01*
X0017878Y007706D02*
X0019676D01*
X00139745Y00698544D02*
Y00731564D01*
X0017878Y007706D01*
X00098785Y0068453D02*
X0012573D01*
X00139745Y00698544D01*
X000865Y00672245D02*
X00098785Y0068453D01*
X00219359Y0077051D02*
X00219404Y00770464D01*
X00196985Y0077051D02*
X00219359D01*
X002068Y0076383D02*
X00219404D01*
X0019735Y0075438D02*
X002068Y0076383D01*
X003048Y0079248D02*
X0031332Y0078396D01*
X0027559Y0079248D02*
X003048D01*
X0026426Y0080381D02*
X0027559Y0079248D01*
X003175Y0079883D02*
X003269D01*
X0027676Y0080528D02*
Y0082878D01*
X0028321Y0079883D02*
X003175D01*
X0027676Y0080528D02*
X0028321Y0079883D01*
X0026426Y0080381D02*
Y0082878D01*
X0032531Y0082315D02*
X003255Y0082296D01*
X0054073Y0016009D02*
Y0018474D01*
X0035277Y0019103D02*
Y0021599D01*
X00360244Y00223464D01*
X0038011Y0025654D02*
X0038018Y0025661D01*
X0038384Y0028885D02*
X0039146D01*
X00381Y0029169D02*
X0038384Y0028885D01*
X00381Y0029169D02*
Y002921D01*
X0054073Y0018474D02*
X0054941Y0019342D01*
X0054991D01*
X00172667Y00669235D02*
X00172722Y0066918D01*
X00230123Y00737743D02*
X0023025Y0073787D01*
X00249684D02*
X00249937Y00737617D01*
X00295912Y0067045D02*
X00295967Y00670505D01*
X00510825Y00548865D02*
X0051105Y0054864D01*
X0070612Y0014694D02*
X0070631Y0014713D01*
X0063646Y0049168D02*
X0063665Y0049149D01*
X0066764Y0054991D02*
X0066802Y0054953D01*
X0073571Y0052086D02*
X0073696Y0052211D01*
X0085471Y0073445D02*
X008551Y0073406D01*
X0028721Y0075457D02*
X0029953D01*
X0027724Y007667D02*
X0028702D01*
X0027361Y0077033D02*
X0027724Y007667D01*
X00260404Y0077033D02*
X0027361D01*
X00285938Y00755842D02*
X0028702Y0075476D01*
X00279603Y00755842D02*
X00285938D01*
X00271615Y0076383D02*
X00279603Y00755842D01*
X00260404Y0076383D02*
X00271615D01*
X0037163Y0078585D02*
X00372265Y00785215D01*
X0035842Y0078585D02*
X0037163D01*
X0035814Y0078613D02*
X0035842Y0078585D01*
X00350425Y00782415D02*
X0035377Y0077907D01*
X00345725Y00782415D02*
X00350425D01*
X0034455Y0078359D02*
X00345725Y00782415D01*
X0035377Y0077907D02*
X0037262D01*
X00360699Y0079207D02*
X0037262D01*
X00353938Y0079883D02*
X00360699Y0079207D01*
X0034455Y0079883D02*
X00353938D01*
X0055566Y0082677D02*
X0055588Y0082655D01*
X0060071Y0066256D02*
X006009Y0066275D01*
X0056153Y0047352D02*
X0056172Y0047371D01*
X0019666Y0078632D02*
X0019685Y0078651D01*
X00363814Y00239734D02*
X0036411Y0024003D01*
X0043307Y00209662D02*
X00434342Y0020839D01*
X00360172Y00164084D02*
Y00164479D01*
X0035775Y00166901D02*
X00360172Y00164479D01*
X0035775Y00166901D02*
Y001728D01*
X00203657Y00567838D02*
X00204859Y0056904D01*
X0021013D01*
X002059Y0058404D02*
X0021013D01*
X002032Y0058674D02*
X002059Y0058404D01*
X00200179Y0058166D02*
X00202799Y0057904D01*
X0021013D01*
X001946Y0058166D02*
X00200179D01*
X0019939Y0057277D02*
X00199785D01*
X00201055Y0057404D02*
X0021013D01*
X00199785Y0057277D02*
X00201055Y0057404D01*
X0018879Y0058747D02*
X001946Y0058166D01*
X0021371Y00591232D02*
X0021373Y00591212D01*
X00210138Y00591232D02*
X0021371D01*
X00195932Y00605438D02*
X00210138Y00591232D01*
X0021373Y0059029D02*
Y00591212D01*
X00189962Y00605438D02*
X00195932D01*
X0018961Y0060579D02*
X00189962Y00605438D01*
X0018879Y0058747D02*
Y0058797D01*
X00203262Y00567838D02*
X00203657D01*
X00191569Y00568681D02*
X0019746Y0056279D01*
X0021373D01*
X00190005Y00556655D02*
X0019171Y0055495D01*
X0021871Y0056252D02*
X0021873Y0056254D01*
X0021871Y0055907D02*
Y0056252D01*
X0021336Y0055372D02*
X0021871Y0055907D01*
X0011976Y001016D02*
Y0011646D01*
X001119Y0012432D02*
X0011976Y0011646D01*
X001119Y0012432D02*
Y001388D01*
X0010376Y001016D02*
Y0011341D01*
X0009906Y0011811D02*
Y0015136D01*
Y0011811D02*
X0010376Y0011341D01*
X0009906Y0015136D02*
X001119Y001642D01*
X0052794Y0065824D02*
Y0070993D01*
Y0065824D02*
X0053721Y0064897D01*
X005588D01*
X0035752Y0017303D02*
X0035775Y001728D01*
X003482Y0017125D02*
X0034825Y001713D01*
X0033744Y0015494D02*
X0033909Y0015659D01*
Y0016383D02*
X0034352Y0016826D01*
X003482Y00168122D02*
Y0017125D01*
Y00168122D02*
X00352172Y00164151D01*
X0033909Y0015659D02*
Y0016383D01*
X0034352Y0016826D02*
Y0017303D01*
X00352172Y0015543D02*
Y00164151D01*
X0018872Y0055372D02*
X0021336D01*
X0031877Y0060325D02*
X0032524D01*
X0029718D02*
X0031877D01*
X0032524D02*
X0033363Y0059486D01*
X0036203Y0027242D02*
X0036236Y0027275D01*
X0035687Y0026416D02*
X0036203Y0026932D01*
Y0027242D01*
X0039146Y0029535D02*
X0039416D01*
X00395505Y00296695D01*
X0041529Y0028472D02*
Y00295207D01*
X00395505Y00296695D02*
X00413802D01*
X0041529Y00295207D01*
X00333593Y0034798D02*
X003452D01*
X00332105Y00346492D02*
X00333593Y0034798D01*
X0036886Y0031145D02*
Y0031415D01*
X00332105Y00329148D02*
X00335733Y0032552D01*
X00332105Y00329148D02*
Y00346492D01*
X00367515Y00315495D02*
Y00320122D01*
X00362117Y0032552D02*
X00367515Y00320122D01*
X00335733Y0032552D02*
X00362117D01*
X00367515Y00315495D02*
X0036886Y0031415D01*
X0039146Y0030185D02*
X0039416D01*
X00395505Y00300505D01*
X00413802D02*
X0041529Y00301993D01*
X00395505Y00300505D02*
X00413802D01*
X0041529Y00301993D02*
Y0031472D01*
X0035006Y0029535D02*
X0035276D01*
X00348572Y00296838D02*
X0035006Y0029535D01*
X00306288Y00296838D02*
X00348572D01*
X003048Y0029535D02*
X00306288Y00296838D01*
X003048Y0028345D02*
Y0029535D01*
X0052832Y0049276D02*
X005287Y0049238D01*
X00390525Y0034163D02*
X00396395Y003475D01*
X0040314D01*
X0040362Y0034798D01*
X00380515Y00315495D02*
Y0031963D01*
Y00315495D02*
X0038186Y0031415D01*
Y0031145D02*
Y0031415D01*
X00380515Y0031963D02*
X00390525Y0032964D01*
Y0034163D01*
X0035006Y0030185D02*
X0035276D01*
X00306288Y00300648D02*
X00348858D01*
X003048Y00302136D02*
X00306288Y00300648D01*
X00348858D02*
X0035006Y0030185D01*
X003048Y00302136D02*
Y0031345D01*
X003741Y003475D02*
X00380845D01*
X0037362Y0034798D02*
X003741Y003475D01*
X00380845D02*
X00386715Y0034163D01*
X00376705Y00315495D02*
Y00321208D01*
X00386715Y00331218D02*
Y0034163D01*
X0037536Y0031415D02*
X00376705Y00315495D01*
X0037536Y0031145D02*
Y0031415D01*
X00376705Y00321208D02*
X00386715Y00331218D01*
X003152Y0034798D02*
X00326807D01*
X00328295Y00346492D01*
X00334155Y0032171D02*
X00360539D01*
X00328295Y0032757D02*
Y00346492D01*
Y0032757D02*
X00334155Y0032171D01*
X00360539D02*
X00363705Y00318544D01*
Y00315495D02*
Y00318544D01*
X0036236Y0031415D02*
X00363705Y00315495D01*
X0036236Y0031145D02*
Y0031415D01*
X0027636Y0057862D02*
X003015D01*
X0027178Y0057404D02*
X0027636Y0057862D01*
X0034963Y0061164D02*
Y0061214D01*
X0065024Y0056134D02*
X0067818D01*
X00689519Y00581928D02*
X00689957Y00582367D01*
X0067818Y0056134D02*
X00689519Y00572679D01*
Y00581928D01*
X0064897Y0056134D02*
X0065024D01*
X0063246Y0054267D02*
Y0056007D01*
X0065024Y0054267D02*
Y0056007D01*
X0063246D02*
X0063373Y0056134D01*
X0064897D02*
X0065024Y0056007D01*
X0066421Y0057277D02*
X0066929Y0056769D01*
X0064389Y0057277D02*
X0066421D01*
X0066929Y0056769D02*
X0067691D01*
X00681829Y00572609D01*
X0063373Y0056261D02*
X0064389Y0057277D01*
X00681829Y00572609D02*
Y00582367D01*
X0033363Y0059436D02*
Y0059486D01*
X0025813Y0058404D02*
X0026527D01*
X0027051Y0058928D01*
X0031788Y0059436D02*
Y00594397D01*
X0027051Y0058928D02*
X0028321D01*
X0029718Y0060325D01*
X0026398Y0056279D02*
X00273555Y00553215D01*
X00302705Y00554545D02*
X0030315Y0055499D01*
X0028575Y005541D02*
X00286195Y00554545D01*
X0025453Y0056279D02*
X0026398D01*
X00273555Y00553215D02*
X00285755D01*
X0021298Y00606955D02*
X00215654Y00604281D01*
X00215759D01*
X0021873Y0059054D02*
Y0060131D01*
X00215759Y00604281D02*
X0021873Y0060131D01*
X0021298Y00606955D02*
Y0060706D01*
X0021082Y0065532D02*
X0021085Y0065535D01*
X0022873Y0057654D02*
Y0060681D01*
X0022898Y0060706D01*
X0018879Y00571355D02*
X00191464Y00568681D01*
X00191569D01*
X0018879Y00571355D02*
Y0057146D01*
X0023953Y0057654D02*
Y0060694D01*
X0025902Y0065538D02*
X0025908Y0065532D01*
X0025813Y0057404D02*
X0027178D01*
X003015Y0057862D02*
X0031116Y0056896D01*
X0033363Y00577813D02*
Y0057785D01*
X00330187Y0057437D02*
X0033363Y00577813D01*
X0033015Y0057437D02*
X00330187D01*
X0032474Y0056896D02*
X0033015Y0057437D01*
X0031116Y0056896D02*
X0032474D01*
X0025813Y0056904D02*
X002717D01*
X0027686Y0056388D01*
X0034074D01*
X0034963Y0055499D01*
X00284917Y00538933D02*
X0028575Y005381D01*
X0030296Y0053829D02*
X0030315Y0053848D01*
X0028575Y005381D02*
X0028594Y0053829D01*
X0024955Y0055944D02*
Y0056252D01*
Y0055944D02*
X00253724Y00555266D01*
X0024953Y0056254D02*
X0024955Y0056252D01*
X00253724Y00555266D02*
X00262614D01*
X00278947Y00538933D01*
X00284917D01*
X0024953Y0059054D02*
Y00600423D01*
X0025565Y00606544D01*
Y0060706D01*
X0026916Y0057904D02*
X0027432Y005842D01*
X0029172D02*
X0030188Y0059436D01*
X0025813Y0057904D02*
X0026916D01*
X0027432Y005842D02*
X0029172D01*
X00541845Y00107125D02*
X0054229Y0010668D01*
X0053623Y0013687D02*
Y0014209D01*
Y0013687D02*
X00540353Y00132747D01*
Y00126777D02*
Y00132747D01*
Y00126777D02*
X005414Y0012573D01*
X00541845Y00125285D01*
X0053518Y0023419D02*
X0053556Y0023457D01*
X0051816Y0023419D02*
X0051854Y0023457D01*
X0049657Y0023368D02*
X0049708Y0023419D01*
X0054548Y0016009D02*
X00545527Y00160137D01*
Y00164527D02*
X0054991Y0016891D01*
Y0017742D01*
X00545527Y00160137D02*
Y00164527D01*
X0053623Y0016009D02*
Y0018463D01*
X0052832Y0019254D02*
X0053623Y0018463D01*
X0052832Y0019254D02*
Y0019304D01*
X0052743Y0016853D02*
X00531433Y00164527D01*
Y00160137D02*
X0053148Y0016009D01*
X00531433Y00160137D02*
Y00164527D01*
X0052743Y0016853D02*
Y0017399D01*
X00526937Y00127267D02*
Y00132257D01*
X0053148Y001368D01*
X00525145Y00125475D02*
X00526937Y00127267D01*
X0052489Y0010668D02*
X00525145Y00106935D01*
X0053148Y001368D02*
Y0014209D01*
X0035752Y0019103D02*
Y0019877D01*
X0036322Y0020447D01*
Y0021298D01*
X0034827Y0019103D02*
Y0021803D01*
X0033947Y0022683D02*
X0034827Y0021803D01*
X0033947Y0020282D02*
X0034352Y0019877D01*
Y0019103D02*
Y0019877D01*
X0033947Y0022683D02*
Y0022733D01*
Y0020282D02*
Y0021082D01*
D24*
X0001Y00032D02*
G03*
X00032Y0001I00022J0D01*
G01*
X00215606Y00025996D02*
G03*
X00198111Y0001I00000394J-00017996D01*
G01*
X00031627Y00889997D02*
G03*
X0001Y00868I00000373J-00021997D01*
G01*
X00198005Y00889996D02*
G03*
X00215608Y00873998I00017889J00002D01*
G01*
X00731889Y0001D02*
G03*
X00714285Y00025998I-00017889J-00002D01*
G01*
X00898Y0001D02*
G03*
X0092Y00032I0J00022D01*
G01*
X00904Y00147952D02*
G03*
X0092Y00130112I00018J00000048D01*
G01*
X00714287Y00874D02*
G03*
X00731782Y00889996I-00000394J00017996D01*
G01*
X0092Y00774959D02*
G03*
X00904Y00757071I00002J-00017889D01*
G01*
X0092Y00868058D02*
G03*
X00898151Y00889999I-00022J-00000058D01*
G01*
X00070431Y0001D02*
X00079431D01*
X00061431D02*
X00070431D01*
X00088431D02*
X00097431D01*
X00079431D02*
X00088431D01*
X00052431D02*
X00061431D01*
X00032D02*
X00043431D01*
X00052431D01*
X00142431D02*
X00151431D01*
X00169431D02*
X00178431D01*
X00151431D02*
X00160431D01*
X00169431D01*
X00106431D02*
X00115431D01*
X00097431D02*
X00106431D01*
X00133431D02*
X00142431D01*
X00115431D02*
X00124431D01*
X00133431D01*
X0018743D02*
X00198111D01*
X00178431D02*
X0018743D01*
X002159Y00026D02*
X00225873Y00026D01*
X00306873D02*
X00315872D01*
X00297873D02*
X00306873D01*
X00333872D02*
X00342872D01*
X00315872D02*
X00324873D01*
X00333872D01*
X00234873D02*
X00243873D01*
X00225873D02*
X00234873D01*
X00288873D02*
X00297873D01*
X00270873D02*
X00279873D01*
X00288873D01*
X00252873D02*
X00261873D01*
X00243873D02*
X00252873D01*
X00261873D02*
X00270873D01*
X00009999Y00076525D02*
Y00085525D01*
Y00094525D01*
Y00067525D02*
Y00076525D01*
Y00040525D02*
Y00049525D01*
Y00058525D01*
Y00032133D02*
Y00040525D01*
Y00058525D02*
Y00067525D01*
X00396872Y00026D02*
X00405872D01*
X00387872D02*
X00396872D01*
X00351872D02*
X00360872D01*
X00342872D02*
X00351872D01*
X00378872D02*
X00387872D01*
X00360872D02*
X00369872D01*
X00378872D01*
X00450872D02*
X00459872D01*
X00441872D02*
X00450872D01*
X00405872D02*
X00414872D01*
X00432872D02*
X00441872D01*
X00414872D02*
X00423872D01*
X00432872D01*
X00459872D02*
X00468872D01*
X00486872D02*
X00495872D01*
X00468872D02*
X00477872D01*
X00486872D01*
X00509746D02*
X00522872Y00026D01*
X00495872Y00026D02*
X00509746D01*
X00522872Y00026D02*
X00531872Y00026D01*
X00540872Y00026D01*
X00549872Y00026D01*
X00558872Y00026D01*
X00567872Y00026D01*
X00576872Y00026001D01*
X0001Y00817087D02*
Y00826087D01*
Y00835087D02*
Y00844087D01*
Y00826087D02*
Y00835087D01*
Y00853087D02*
Y00862087D01*
Y00844087D02*
Y00853087D01*
Y00862087D02*
Y00868D01*
X00118023Y00889996D02*
X00127023D01*
X00109023D02*
X00118023D01*
X00145023D02*
X00154023D01*
X00127023D02*
X00136023D01*
X00145023D01*
X00073023D02*
X00082023D01*
X00100023D02*
X00109023D01*
X00082023D02*
X00091023D01*
X00100023D01*
X00037023D02*
X00046023D01*
X00031745D02*
X00037023D01*
X00055023D02*
X00064023D01*
X00046023D02*
X00055023D01*
X00064023D02*
X00073023D01*
X00215899Y00873994D02*
X00228902Y00873994D01*
X00237902Y00873994D01*
X00246902Y00873994D01*
X00255902Y00873995D01*
X00264902Y00873995D01*
X00273902Y00873995D01*
X00282902Y00873995D01*
X00291902Y00873995D01*
X00300902Y00873995D01*
X00309902Y00873995D01*
X00318902Y00873995D01*
X00154023Y00889996D02*
X00163023D01*
X00181023D02*
X00190023D01*
X00163023D02*
X00172023D01*
X00181023D01*
X00190023D02*
X00198005D01*
X00318902Y00873995D02*
X00327902Y00873995D01*
X00336902Y00873995D01*
X00345902Y00873995D01*
X00354902Y00873995D01*
X00363902Y00873996D01*
X00372902Y00873996D01*
X00381902Y00873996D01*
X00390902Y00873996D01*
X00399902Y00873996D01*
X00408902Y00873996D01*
X00420147Y00873996D01*
X00426902Y00873996D01*
X00435902D02*
X00444902D01*
X00426902D02*
X00435902D01*
X00489902D02*
X00498902D01*
X00507902D01*
X00453902D02*
X00462902D01*
X00444902D02*
X00453902D01*
X00480902D02*
X00489902D01*
X00462902D02*
X00471902D01*
X00480902D01*
X00570902D02*
X00579902D01*
X00552902D02*
X00561902D01*
X00570902D01*
X00516902D02*
X00525902D01*
X00507902D02*
X00516902D01*
X00543902D02*
X00552902D01*
X00525902D02*
X00534902D01*
X00543902D01*
X00576872Y00026001D02*
X00585872Y00026001D01*
X00594872Y00026001D01*
X00603872Y00026001D01*
X00612872Y00026001D01*
X00621872Y00026001D01*
X00630872Y00026001D01*
X00639872Y00026001D01*
X00648872Y00026001D01*
X00657872Y00026001D01*
X00666872Y00026002D01*
X00675872Y00026002D01*
X00684872Y00026002D01*
X00693872Y00026002D01*
X00702872Y00026002D01*
X00713994Y00026002D01*
X00758685Y0001D02*
X00767685D01*
X00749685D02*
X00758685D01*
X00731889D02*
X00740685D01*
X00749685D01*
X00776685D02*
X00785685D01*
X00767685D02*
X00776685D01*
X00803685D02*
X00812685D01*
X00785685D02*
X00794685D01*
X00803685D01*
X00821685D02*
X00830685D01*
X00812685D02*
X00821685D01*
X00848685D02*
X00857685D01*
X00830685D02*
X00839685D01*
X00848685D01*
X00884685D02*
X00898D01*
X00866685D02*
X00875685D01*
X00857685D02*
X00866685D01*
X00875685D02*
X00884685D01*
X00904Y00148D02*
Y00157979D01*
Y00166979D02*
Y00175979D01*
Y00157979D02*
Y00166979D01*
Y00202979D02*
Y00211979D01*
Y00220979D01*
Y00175979D02*
Y00184979D01*
Y00193979D02*
Y00202979D01*
Y00184979D02*
Y00193979D01*
X0092Y00047626D02*
Y00056626D01*
Y00065626D01*
Y00032D02*
Y00038626D01*
Y00047626D01*
Y00092626D02*
Y00101626D01*
Y00065626D02*
Y00074626D01*
Y00083626D02*
Y00092626D01*
Y00074626D02*
Y00083626D01*
Y00101626D02*
Y00110626D01*
Y00119626D01*
Y00130112D01*
X00904Y00319979D02*
Y00328979D01*
Y00247979D02*
Y00256979D01*
Y00310979D02*
Y00319979D01*
Y00301979D02*
Y00310979D01*
Y00355979D02*
Y00364979D01*
Y00373979D01*
Y00328979D02*
Y00337979D01*
Y00346979D02*
Y00355979D01*
Y00337979D02*
Y00346979D01*
Y00472979D02*
Y00481979D01*
Y00490979D02*
Y00499979D01*
Y00481979D02*
Y00490979D01*
Y00400979D02*
Y00409979D01*
Y00418979D01*
Y00373979D02*
Y00382979D01*
Y00391979D02*
Y00400979D01*
Y00382979D02*
Y00391979D01*
Y00445979D02*
Y00454979D01*
Y00463979D01*
Y00418979D02*
Y00427979D01*
Y00436979D02*
Y00445979D01*
Y00427979D02*
Y00436979D01*
Y00238979D02*
Y00247979D01*
Y00256979D02*
Y00265979D01*
Y00220979D02*
Y00229979D01*
Y00238979D01*
Y00292979D02*
Y00301979D01*
Y00265979D02*
Y00274979D01*
Y00283979D02*
Y00292979D01*
Y00274979D02*
Y00283979D01*
Y00463979D02*
Y00472979D01*
X00660901Y00873996D02*
X00669901D01*
X00678901D01*
X00579902D02*
X00588901D01*
X00606902D02*
X00615901D01*
X00588901D02*
X00597901D01*
X00606902D01*
X00624902D02*
X00633901D01*
X00615901D02*
X00624902D01*
X00651901D02*
X00660901D01*
X00633901D02*
X00642901D01*
X00651901D01*
X00678901D02*
X00687901D01*
X00696901D01*
X00705901D01*
X00713993D01*
X0074525Y00889996D02*
X0075425D01*
X00731782D02*
X0074525D01*
X0077225D02*
X0078125D01*
X0075425D02*
X0076325D01*
X0077225D01*
X00904Y00688978D02*
Y00697978D01*
Y00679978D02*
Y00688978D01*
Y00706978D02*
Y00715978D01*
Y00607979D02*
Y00616978D01*
Y00625979D01*
Y00580979D02*
Y00589979D01*
Y00598979D02*
Y00607979D01*
Y00589979D02*
Y00598979D01*
Y00652978D02*
Y00661978D01*
Y00670978D01*
Y00625979D02*
Y00634978D01*
Y00643978D02*
Y00652978D01*
Y00634978D02*
Y00643978D01*
Y00517979D02*
Y00526979D01*
Y00535979D01*
Y00499979D02*
Y00508979D01*
Y00517979D01*
Y00562979D02*
Y00571979D01*
Y00580979D01*
Y00535979D02*
Y00544979D01*
Y00553979D02*
Y00562979D01*
Y00544979D02*
Y00553979D01*
Y00697978D02*
Y00706978D01*
Y00715978D02*
X00904Y00724978D01*
X00904Y00670978D02*
Y00679978D01*
X00904Y00724978D02*
X00904Y00733978D01*
X0084425Y00889996D02*
X0085325D01*
X0086225D01*
X0079025D02*
X0079925D01*
X0078125D02*
X0079025D01*
X0081725D02*
X0082625D01*
X0079925D02*
X0080825D01*
X0081725D01*
X0083525D02*
X0084425D01*
X0082625D02*
X0083525D01*
X0088025D02*
X0088925D01*
X0086225D02*
X0087125D01*
X0088025D01*
X00904Y00733978D02*
X00904Y00742978D01*
X00904Y00751978D01*
X00904Y00757016D01*
X0092Y00774959D02*
Y00782297D01*
Y00809297D02*
Y00818297D01*
Y00782297D02*
Y00791297D01*
Y00800297D02*
Y00809297D01*
Y00791297D02*
Y00800297D01*
X0088925Y00889996D02*
X00897893D01*
X0092Y00818297D02*
Y00827297D01*
Y00836297D01*
Y00845297D01*
Y00854297D02*
Y00868058D01*
Y00845297D02*
Y00854297D01*
D25*
X0085432Y0076962D02*
D03*
X0083732D02*
D03*
X0011938Y0006477D02*
D03*
X0081114Y0007874D02*
D03*
Y0005969D02*
D03*
X0085686Y0069977D02*
D03*
X0083732Y0078867D02*
D03*
X0085432D02*
D03*
X0010238Y0006477D02*
D03*
X0079414Y0005969D02*
D03*
Y0007874D02*
D03*
X0083986Y0069977D02*
D03*
D26*
X0085636Y0064643D02*
D03*
X0032347Y0022733D02*
D03*
X00383922Y0015543D02*
D03*
X0055829Y0010668D02*
D03*
X0051143Y0019304D02*
D03*
X00238124Y0079629D02*
D03*
X0035649Y0064008D02*
D03*
X0041237Y0082169D02*
D03*
X006651Y0013081D02*
D03*
X0063665Y0049149D02*
D03*
X0085166Y0048006D02*
D03*
X0037173Y0082169D02*
D03*
X0085636Y0061468D02*
D03*
X0084036D02*
D03*
X0084074Y0059817D02*
D03*
X0034455Y0078359D02*
D03*
X0032855D02*
D03*
X0034455Y0079883D02*
D03*
X0032855D02*
D03*
X0085674Y0059817D02*
D03*
X0085636Y0063119D02*
D03*
Y0066421D02*
D03*
Y0068199D02*
D03*
X0032347Y0025527D02*
D03*
X0066764Y0052705D02*
D03*
X0054394Y0070993D02*
D03*
X0056172Y0047371D02*
D03*
X005127D02*
D03*
X0061773Y007366D02*
D03*
X0080607Y0048006D02*
D03*
X0058255Y0047371D02*
D03*
X0049365Y0070993D02*
D03*
X0056223D02*
D03*
X0054775Y0030734D02*
D03*
X0038773Y0082169D02*
D03*
X006811Y0013081D02*
D03*
X0071958Y0011303D02*
D03*
X0084036Y0064643D02*
D03*
Y0063119D02*
D03*
Y0066421D02*
D03*
Y0068199D02*
D03*
X0011976Y001016D02*
D03*
X0010376D02*
D03*
X0030315Y0053848D02*
D03*
X0031915D02*
D03*
X0017279Y0058797D02*
D03*
X0018879D02*
D03*
X0030315Y0055499D02*
D03*
X0031915D02*
D03*
X0017272Y0055372D02*
D03*
X0018872D02*
D03*
X0031788Y0059436D02*
D03*
X0030188D02*
D03*
X0033363Y0057785D02*
D03*
X0034963D02*
D03*
X0033947Y0025527D02*
D03*
X0068364Y0052705D02*
D03*
X0052743Y0019304D02*
D03*
X0050889Y0010668D02*
D03*
X0052489D02*
D03*
X0052794Y0070993D02*
D03*
X005414Y0012573D02*
D03*
X005254D02*
D03*
X0033947Y0022733D02*
D03*
X0054229Y0010668D02*
D03*
X0054572Y0047371D02*
D03*
X005287D02*
D03*
X0034049Y0064008D02*
D03*
X0063373Y007366D02*
D03*
X0082207Y0048006D02*
D03*
X0083566D02*
D03*
X00306072Y0015543D02*
D03*
X00322072D02*
D03*
X0033744Y0015494D02*
D03*
X0035344D02*
D03*
X00367922Y0015543D02*
D03*
X0042837Y0082169D02*
D03*
X0075527Y0005969D02*
D03*
X0077127D02*
D03*
X0075527Y0007874D02*
D03*
X0077127D02*
D03*
X0059855Y0047371D02*
D03*
X0063665D02*
D03*
X0062065D02*
D03*
Y0049149D02*
D03*
X0065189Y0079121D02*
D03*
X0063589D02*
D03*
X00222124Y0079629D02*
D03*
X0033363Y0055499D02*
D03*
X0034963D02*
D03*
Y0061214D02*
D03*
X0033363D02*
D03*
X0050965Y0070993D02*
D03*
X0010376Y0008382D02*
D03*
X0011976D02*
D03*
X0053175Y0030734D02*
D03*
X0062954Y0013208D02*
D03*
X0064554D02*
D03*
X0070358Y0011303D02*
D03*
X0057823Y0070993D02*
D03*
D27*
X0055283Y0036449D02*
D03*
X001858Y0010668D02*
D03*
X0019469Y0029464D02*
D03*
X0032347Y0021082D02*
D03*
Y0028194D02*
D03*
X004953Y0014732D02*
D03*
X0051143Y0017653D02*
D03*
X0039027Y001905D02*
D03*
X0038011Y0024003D02*
D03*
Y0025654D02*
D03*
X0048971Y0021209D02*
D03*
X0049949Y0030607D02*
D03*
X0022651Y0053336D02*
D03*
X0023025Y0073787D02*
D03*
X0024346Y005334D02*
D03*
X0028613Y0060706D02*
D03*
X00249684Y0073787D02*
D03*
X0041364Y0062738D02*
D03*
X0035522Y0073025D02*
D03*
Y0074676D02*
D03*
X003255Y0082296D02*
D03*
X0042926Y005715D02*
D03*
X0055829Y0054864D02*
D03*
X0051105D02*
D03*
X0057315Y0080645D02*
D03*
X0058331Y0015367D02*
D03*
X00598722Y00490924D02*
D03*
X0078397Y0024892D02*
D03*
X0081877Y0033782D02*
D03*
Y0037719D02*
D03*
X0082131Y0019812D02*
D03*
Y00234315D02*
D03*
X0060109Y0064897D02*
D03*
X0066764Y0054991D02*
D03*
X0073571Y0050546D02*
D03*
X0071793Y0056134D02*
D03*
X0063449Y0077216D02*
D03*
X0046012Y0074549D02*
D03*
X0037122Y0074676D02*
D03*
X0061849Y0077216D02*
D03*
X0033947Y0028194D02*
D03*
X0070193Y0056134D02*
D03*
X0036411Y0024003D02*
D03*
X0037122Y0073025D02*
D03*
X00582721Y00490924D02*
D03*
X0021425Y0073787D02*
D03*
X00265684D02*
D03*
X0055715Y0080645D02*
D03*
X0052705Y0054864D02*
D03*
X0054229D02*
D03*
X0036411Y0025654D02*
D03*
X003095Y0082296D02*
D03*
X0037427Y001905D02*
D03*
X0021051Y0053336D02*
D03*
X0047371Y0021209D02*
D03*
X0045428Y0030607D02*
D03*
X0053683Y0036449D02*
D03*
X0054775Y0029083D02*
D03*
X0044412Y0074549D02*
D03*
X0041364D02*
D03*
X0042964D02*
D03*
X007032Y0013081D02*
D03*
X007192D02*
D03*
X0076797Y0024892D02*
D03*
X0027013Y0060706D02*
D03*
X0017279Y0057146D02*
D03*
X0018879D02*
D03*
X0033363Y0059436D02*
D03*
X0034963D02*
D03*
X0031788Y0057785D02*
D03*
X0030188D02*
D03*
X0025946Y005334D02*
D03*
X0068364Y0054991D02*
D03*
X0071971Y0050546D02*
D03*
X0042964Y0062738D02*
D03*
X0041326Y005715D02*
D03*
X0058509Y0064897D02*
D03*
X0033947Y0021082D02*
D03*
X005113Y0014732D02*
D03*
X0056731Y0015367D02*
D03*
X0052743Y0017653D02*
D03*
X0021298Y0060706D02*
D03*
X0022898D02*
D03*
X0023965D02*
D03*
X0025565D02*
D03*
X0017869Y0029464D02*
D03*
X001698Y0010668D02*
D03*
X0017361Y0060579D02*
D03*
X0018961D02*
D03*
X0048349Y0030607D02*
D03*
X0047028D02*
D03*
X0053175Y0029083D02*
D03*
X0083477Y0037719D02*
D03*
Y0033782D02*
D03*
X0083731Y00234315D02*
D03*
Y0019812D02*
D03*
D28*
X001868Y00125728D02*
D03*
X0019569Y00274318D02*
D03*
X0022363Y00494028D02*
D03*
X0024556Y0049399D02*
D03*
X0049138Y00127002D02*
D03*
X0022363Y00514348D02*
D03*
X0024556Y0051431D02*
D03*
X0058558Y00134622D02*
D03*
X0055383Y00383542D02*
D03*
Y00403862D02*
D03*
X0078497Y00266702D02*
D03*
Y00287022D02*
D03*
X0082031Y00167642D02*
D03*
X0081904Y00254002D02*
D03*
X0081915Y0030861D02*
D03*
X0081777Y00396242D02*
D03*
X0020563Y00514348D02*
D03*
Y00494028D02*
D03*
X0053583Y00403862D02*
D03*
Y00383542D02*
D03*
X0076697Y00266702D02*
D03*
Y00287022D02*
D03*
X0088403Y00560068D02*
D03*
X0086603D02*
D03*
X0026356Y0049399D02*
D03*
Y0051431D02*
D03*
X0017769Y00274318D02*
D03*
X0050938Y00127002D02*
D03*
X001688Y00125728D02*
D03*
X0083577Y00396242D02*
D03*
X0083715Y0030861D02*
D03*
X0083704Y00254002D02*
D03*
X0083831Y00167642D02*
D03*
X0056758Y00134622D02*
D03*
D29*
X0014224Y004906D02*
D03*
X0032512Y0019507D02*
D03*
X0036322Y0022644D02*
D03*
X0054991Y0019342D02*
D03*
X0041402Y0067145D02*
D03*
X0043161Y0067126D02*
D03*
X0045085Y0081699D02*
D03*
X0070612Y0014694D02*
D03*
X0061214Y0019469D02*
D03*
X0065659Y0048933D02*
D03*
X0065024Y0052667D02*
D03*
X0063246D02*
D03*
X0060071Y0067856D02*
D03*
X005842D02*
D03*
X0075184Y0051905D02*
D03*
X00673955Y00770925D02*
D03*
X0065532Y0077127D02*
D03*
X0061722Y0083147D02*
D03*
X007112Y0077127D02*
D03*
X0069469D02*
D03*
X0077597Y0077292D02*
D03*
X0086614Y0051981D02*
D03*
X0088265D02*
D03*
X0079248Y0077254D02*
D03*
Y0075654D02*
D03*
X0077597Y0075692D02*
D03*
X0060071Y0066256D02*
D03*
X0086614Y0050381D02*
D03*
X0043161Y0068726D02*
D03*
X0061722Y0084747D02*
D03*
X0014224Y004746D02*
D03*
X005842Y0066256D02*
D03*
X0041402Y0068745D02*
D03*
X0088265Y0050381D02*
D03*
X0045085Y0078651D02*
D03*
Y0077051D02*
D03*
Y0080099D02*
D03*
X007112Y0075527D02*
D03*
X0075184Y0053505D02*
D03*
X00673955Y00754925D02*
D03*
X0054991Y0017742D02*
D03*
X0036322Y0021044D02*
D03*
X0069469Y0075527D02*
D03*
X0065659Y0047333D02*
D03*
X0032512Y0017907D02*
D03*
X0065532Y0075527D02*
D03*
X0070612Y0017488D02*
D03*
Y0019088D02*
D03*
Y0016294D02*
D03*
X0061214Y0017869D02*
D03*
X0028575Y005541D02*
D03*
Y005381D02*
D03*
X0063246Y0054267D02*
D03*
X0065024D02*
D03*
D30*
X00161292Y004916D02*
D03*
X00304802Y0019696D02*
D03*
X00410208Y0019039D02*
D03*
X0045847Y0019028D02*
D03*
X00434342Y0019039D02*
D03*
X00570232Y0019569D02*
D03*
X00172722Y0066918D02*
D03*
X00295912Y0067045D02*
D03*
X00593088Y0019569D02*
D03*
X00161292Y004736D02*
D03*
X0045847Y0020828D02*
D03*
X00410208Y0020839D02*
D03*
X00434342D02*
D03*
X00172722Y0068718D02*
D03*
X00295912Y0068845D02*
D03*
X00570232Y0017769D02*
D03*
X00304802Y0017896D02*
D03*
X00593088Y0017769D02*
D03*
D31*
X002071Y0032766D02*
D03*
X001651D02*
D03*
D32*
X002398Y0018161D02*
D03*
Y0023622D02*
D03*
X0029995Y0042545D02*
D03*
X0037315D02*
D03*
X001666Y0018161D02*
D03*
Y0023622D02*
D03*
D33*
X0034541Y004699D02*
D03*
X0056899Y0034417D02*
D03*
X0079251Y0022987D02*
D03*
Y0020701D02*
D03*
X0054099Y0034417D02*
D03*
X0076451Y0020701D02*
D03*
Y0022987D02*
D03*
X0037341Y004699D02*
D03*
D34*
X0036957Y0013754D02*
D03*
X0051562Y0030645D02*
D03*
X0059563Y0055588D02*
D03*
Y0057188D02*
D03*
X0061214D02*
D03*
Y0055588D02*
D03*
X0019685Y0073838D02*
D03*
Y0078651D02*
D03*
X0028702Y007827D02*
D03*
Y0073876D02*
D03*
X0055118Y0053251D02*
D03*
X0015621Y0055207D02*
D03*
Y0059601D02*
D03*
Y0058001D02*
D03*
Y0056807D02*
D03*
X0083566Y0073533D02*
D03*
Y0075133D02*
D03*
X0019685Y0075438D02*
D03*
Y0077051D02*
D03*
X0028702Y007667D02*
D03*
Y0075476D02*
D03*
X0036957Y0012154D02*
D03*
X0051816Y0025019D02*
D03*
Y0023419D02*
D03*
X0051562Y0029045D02*
D03*
X0055118Y0051651D02*
D03*
D35*
X0035036Y0013904D02*
D03*
X0059849Y0079568D02*
D03*
X0061849Y0078618D02*
D03*
X0033036Y0012954D02*
D03*
X0035036Y0012004D02*
D03*
X0061849Y0080518D02*
D03*
D36*
X0041275Y0011362D02*
D03*
X0045847D02*
D03*
X0041275Y0015562D02*
D03*
X0045847D02*
D03*
D37*
X0054073Y0016009D02*
D03*
X0035277Y0019103D02*
D03*
X0053623Y0014209D02*
D03*
X0054073D02*
D03*
X0053623Y0016009D02*
D03*
X0034827Y0017303D02*
D03*
Y0019103D02*
D03*
X0035277Y0017303D02*
D03*
D38*
X0037536Y0027275D02*
D03*
X0036886D02*
D03*
X0037536Y0031145D02*
D03*
X0038186D02*
D03*
X0036886D02*
D03*
X0036236D02*
D03*
Y0027275D02*
D03*
X0038186D02*
D03*
D39*
X0039146Y0028885D02*
D03*
X0035276D02*
D03*
Y0030185D02*
D03*
Y0029535D02*
D03*
X0039146D02*
D03*
Y0030185D02*
D03*
X0035276Y0028235D02*
D03*
X0039146D02*
D03*
D40*
X0045847Y0023368D02*
D03*
X0048387D02*
D03*
X0047117D02*
D03*
X0045847Y0028768D02*
D03*
X0047117D02*
D03*
X0048387D02*
D03*
X0049657D02*
D03*
Y0023368D02*
D03*
D41*
X00480681Y00491422D02*
D03*
X00527925Y00529522D02*
D03*
X00480681Y00504122D02*
D03*
X00527925D02*
D03*
Y00491422D02*
D03*
Y00516822D02*
D03*
X00480681D02*
D03*
Y00529522D02*
D03*
D42*
X0022889Y0054606D02*
D03*
X0023929D02*
D03*
X0021889D02*
D03*
X0058809Y0061087D02*
D03*
X0059809D02*
D03*
X0024929Y0054606D02*
D03*
X0058809Y0059817D02*
D03*
X0059809D02*
D03*
X0058801Y0062357D02*
D03*
X0059801D02*
D03*
X0058809Y0058547D02*
D03*
X0059809D02*
D03*
X0058809Y0063627D02*
D03*
X0059809D02*
D03*
D43*
X0029988Y0061341D02*
D03*
X0031988D02*
D03*
D44*
X00260404Y0077683D02*
D03*
Y0075733D02*
D03*
X00219404D02*
D03*
Y0077683D02*
D03*
X00260404Y0077033D02*
D03*
Y0076383D02*
D03*
X00219404Y0077033D02*
D03*
Y0076383D02*
D03*
D45*
X0025176Y0082878D02*
D03*
X0051816Y0082677D02*
D03*
X0055566D02*
D03*
X0028926Y0082878D02*
D03*
X0027676D02*
D03*
X0026426D02*
D03*
X0054316Y0082677D02*
D03*
X0053066D02*
D03*
D46*
X0022626Y0085778D02*
D03*
X0031476D02*
D03*
X0049266Y0085577D02*
D03*
X0058116D02*
D03*
D47*
X00409529Y00607988D02*
D03*
X00432529Y00588988D02*
D03*
Y00607988D02*
D03*
X00409529Y00588988D02*
D03*
D48*
X0037262Y0076607D02*
D03*
Y0075957D02*
D03*
X0043002Y0076607D02*
D03*
Y0077907D02*
D03*
Y0078557D02*
D03*
Y0079207D02*
D03*
X0037262Y0077257D02*
D03*
Y0077907D02*
D03*
Y0078557D02*
D03*
Y0079207D02*
D03*
Y0079857D02*
D03*
Y0080507D02*
D03*
X0043002D02*
D03*
Y0079857D02*
D03*
Y0077257D02*
D03*
Y0075957D02*
D03*
D49*
X0038862Y0067437D02*
D03*
Y0068707D02*
D03*
X0034062Y0069977D02*
D03*
Y0068707D02*
D03*
Y0067437D02*
D03*
Y0066167D02*
D03*
X0038862Y0069977D02*
D03*
Y0066167D02*
D03*
D50*
X004658Y0058547D02*
D03*
X005588Y0066167D02*
D03*
Y0057277D02*
D03*
Y0058547D02*
D03*
Y0059817D02*
D03*
Y0061087D02*
D03*
Y0062357D02*
D03*
Y0063627D02*
D03*
Y0067437D02*
D03*
Y0068707D02*
D03*
X004658Y0057277D02*
D03*
Y0059817D02*
D03*
Y0061087D02*
D03*
Y0062357D02*
D03*
Y0063627D02*
D03*
Y0064897D02*
D03*
Y0066167D02*
D03*
Y0067437D02*
D03*
Y0068707D02*
D03*
X005588Y0064897D02*
D03*
D51*
X0056896Y0031883D02*
D03*
Y0029083D02*
D03*
D52*
X0062992Y0018796D02*
D03*
X0068392D02*
D03*
Y0017526D02*
D03*
Y0016256D02*
D03*
Y0014986D02*
D03*
X0062992D02*
D03*
Y0016256D02*
D03*
Y0017526D02*
D03*
D53*
X007462Y0047244D02*
D03*
X006762D02*
D03*
D54*
X0077597Y0036679D02*
D03*
Y0041529D02*
D03*
D55*
X0081153Y0011938D02*
D03*
X002465Y0041402D02*
D03*
X0024638Y0046101D02*
D03*
X0019788D02*
D03*
X00198Y0041402D02*
D03*
X0086003Y0011938D02*
D03*
D56*
X00859282Y00209658D02*
D03*
Y00222158D02*
D03*
X0085873Y0035022D02*
D03*
Y0036272D02*
D03*
X00859282Y00234658D02*
D03*
Y00247158D02*
D03*
Y00197158D02*
D03*
Y00184658D02*
D03*
X0085873Y0033772D02*
D03*
Y0032522D02*
D03*
Y0037522D02*
D03*
Y0038772D02*
D03*
D57*
X00888282Y00159158D02*
D03*
X0088773Y0029972D02*
D03*
X00888282Y00272658D02*
D03*
X0088773Y0041322D02*
D03*
D58*
X0059563Y0051562D02*
D03*
X0058613D02*
D03*
X0060513Y0053872D02*
D03*
X0059563D02*
D03*
X0058613D02*
D03*
X0060513Y0051562D02*
D03*
D59*
X00681829Y00734767D02*
D03*
X00713833Y00582367D02*
D03*
X00761839Y00734767D02*
D03*
X00705959Y00582367D02*
D03*
X00769967Y00734767D02*
D03*
X00777841Y00582367D02*
D03*
X00729835D02*
D03*
X00721961D02*
D03*
X00689957D02*
D03*
X00681829D02*
D03*
X00713833Y00734767D02*
D03*
X00721961D02*
D03*
X00777841D02*
D03*
X00785969D02*
D03*
X00793843Y00582367D02*
D03*
X00785969D02*
D03*
X00769967D02*
D03*
X00673955D02*
D03*
X00745837Y00734767D02*
D03*
X00761839Y00582367D02*
D03*
X00753965Y00734767D02*
D03*
X00729835D02*
D03*
X00737963D02*
D03*
X00793843D02*
D03*
X00753965Y00582367D02*
D03*
X00697831Y00734767D02*
D03*
X00673955D02*
D03*
X00705959D02*
D03*
X00689957D02*
D03*
X00745837Y00582367D02*
D03*
X00737963D02*
D03*
X00697831D02*
D03*
D60*
X0073696Y0052211D02*
D03*
X0071846Y0053661D02*
D03*
X0073696D02*
D03*
X0071846Y0052211D02*
D03*
D61*
X0080899Y0050295D02*
D03*
X0084709D02*
D03*
Y0055245D02*
D03*
X0083439D02*
D03*
X0082169D02*
D03*
X0080899D02*
D03*
X0082169Y0050295D02*
D03*
X0083439D02*
D03*
D62*
X0085471Y0073445D02*
D03*
Y0075145D02*
D03*
D63*
X00810099Y00614625D02*
D03*
X00657699Y00710637D02*
D03*
Y00702509D02*
D03*
X00810099Y00710637D02*
D03*
X00657699Y00670505D02*
D03*
Y00598623D02*
D03*
X00810099Y00694635D02*
D03*
Y00630627D02*
D03*
Y00702509D02*
D03*
Y00678633D02*
D03*
Y00670505D02*
D03*
Y00662631D02*
D03*
Y00654503D02*
D03*
Y00606497D02*
D03*
Y00598623D02*
D03*
X00657699Y00606497D02*
D03*
X00810099Y00718511D02*
D03*
X00657699Y00686507D02*
D03*
Y00630627D02*
D03*
Y00694635D02*
D03*
Y00614625D02*
D03*
Y00678633D02*
D03*
Y00622499D02*
D03*
Y00638501D02*
D03*
X00810099Y00622499D02*
D03*
Y00638501D02*
D03*
Y00686507D02*
D03*
X00657699Y00646629D02*
D03*
Y00654503D02*
D03*
Y00662631D02*
D03*
Y00718511D02*
D03*
X00810099Y00646629D02*
D03*
D64*
X0040362Y0034198D02*
D03*
Y0035398D02*
D03*
X0037362Y0034198D02*
D03*
Y0035398D02*
D03*
X003152D02*
D03*
Y0034198D02*
D03*
X003452Y0035398D02*
D03*
Y0034198D02*
D03*
D65*
X0061786Y0075565D02*
D03*
X0063436D02*
D03*
D66*
X00453623Y00374131D02*
D03*
X0050927Y0037465D02*
D03*
X00738907Y00254519D02*
D03*
X0068326Y00254D02*
D03*
X0021082Y0065532D02*
D03*
X0025908D02*
D03*
D67*
X0042129Y0031472D02*
D03*
X0040929D02*
D03*
X0042129Y0028472D02*
D03*
X0040929D02*
D03*
X003108Y0028345D02*
D03*
X002988D02*
D03*
Y0031345D02*
D03*
X003108D02*
D03*
D68*
X00373266Y0050546D02*
D03*
X00312166D02*
D03*
D69*
X0036576Y0055499D02*
D03*
D70*
X0061595Y0013208D02*
D03*
X0053556Y0023457D02*
D03*
D71*
X0025902Y0070993D02*
D03*
X0028702D02*
D03*
X0021085D02*
D03*
X0018285D02*
D03*
D72*
X003152Y0034798D02*
D03*
X003452D02*
D03*
X0037362D02*
D03*
X0040362D02*
D03*
D73*
X0041529Y0031472D02*
D03*
Y0028472D02*
D03*
X003048Y0031345D02*
D03*
Y0028345D02*
D03*
D75*
X0073025Y0078494D02*
D03*
Y0079494D02*
D03*
X0074168Y0078494D02*
D03*
Y0079494D02*
D03*
X0075311Y0078494D02*
D03*
Y0079494D02*
D03*
X0076454Y0078494D02*
D03*
Y0079494D02*
D03*
D130*
X0037211Y002921D02*
D03*
D131*
X0047752Y0026068D02*
D03*
D132*
X0023413Y0057654D02*
D03*
D133*
X0065692Y0016891D02*
D03*
D134*
X0054548Y0014209D02*
D03*
X0053148D02*
D03*
Y0016009D02*
D03*
X0054548D02*
D03*
X0035752Y0017303D02*
D03*
X0034352D02*
D03*
X0035752Y0019103D02*
D03*
X0034352D02*
D03*
D135*
X0022373Y0057654D02*
D03*
X0022873D02*
D03*
X0024453D02*
D03*
X0023953D02*
D03*
D136*
X0035052Y0018453D02*
D03*
X0053848Y0015359D02*
D03*
Y0014859D02*
D03*
X0035052Y0017953D02*
D03*
D137*
X0025813Y0058404D02*
D03*
X0021013Y0057904D02*
D03*
Y0058404D02*
D03*
X0025813Y0057404D02*
D03*
Y0056904D02*
D03*
Y0057904D02*
D03*
X0021013Y0056904D02*
D03*
Y0057404D02*
D03*
D138*
X0025453Y0056279D02*
D03*
X0021373D02*
D03*
X0025453Y0059029D02*
D03*
X0021373D02*
D03*
D139*
X0021873Y0059054D02*
D03*
Y0056254D02*
D03*
X0024953D02*
D03*
Y0059054D02*
D03*
D140*
X0064897Y0056134D02*
D03*
X0063373D02*
D03*
D141*
X0035827Y0076594D02*
X0037249D01*
X0037262Y0076607D01*
X0035814Y0076581D02*
X0035827Y0076594D01*
X004826Y0070993D02*
X0049365D01*
X0050965D02*
Y0072809D01*
X0051943Y0073787D01*
X00746853Y00570429D02*
X00753815Y00563467D01*
X00737963Y00571407D02*
X00743655Y00565715D01*
Y00559365D02*
Y00565715D01*
Y00559365D02*
X0074422Y005588D01*
X00753815Y00559365D02*
X0075438Y005588D01*
X00753815Y00559365D02*
Y00563467D01*
X00580595Y00528885D02*
X0058613Y0053442D01*
X0057658Y0052832D02*
X00577145Y00528885D01*
X00580595D01*
X00641689Y00670505D02*
X00657699D01*
X00637824Y0067437D02*
X00641689Y00670505D01*
X0063754Y0067437D02*
X00637824D01*
X006576Y00702409D02*
X00657699Y00702509D01*
X00642719Y00702409D02*
X006576D01*
X0064262Y0070231D02*
X00642719Y00702409D01*
X00657229Y00711106D02*
X00657699Y00710637D01*
X00646731Y00711106D02*
X00657229D01*
X00642827Y0071501D02*
X00646731Y00711106D01*
X0064262Y0071501D02*
X00642827D01*
X00542014Y00747395D02*
X0054991D01*
X00540814Y00746195D02*
X00542014Y00747395D01*
X00540455Y00746195D02*
X00540814D01*
X00780165Y0074803D02*
X0078486D01*
X00777841Y00734767D02*
Y00745706D01*
X00780165Y0074803D01*
X0088011Y0065278D02*
Y0075946D01*
X0086995Y0076962D02*
X0088011Y0075946D01*
X0087376Y0064643D02*
X0088011Y0065278D01*
X00880055Y0078867D02*
X00887675Y0078105D01*
X0085636Y0061468D02*
X00880055D01*
X00887675Y006223D02*
Y0078105D01*
X00880055Y0061468D02*
X00887675Y006223D01*
X0085432Y0078867D02*
X00880055D01*
X0085432Y0076962D02*
X0086995D01*
X0085636Y0064643D02*
X0087376D01*
X00837125Y00789305D02*
X0083732Y0078911D01*
X0083693Y0080264D02*
X00837125Y00802445D01*
X00325755Y00823595D02*
X00335915D01*
X0032531Y0082315D02*
X00325755Y00823595D01*
X00335915D02*
X0033655Y0082423D01*
X0045339Y0058547D02*
X004658D01*
X00447441Y00587609D02*
X00451251D01*
X0045339Y0058547D01*
X0044704Y0058801D02*
X00447441Y00587609D01*
X0011938Y0005334D02*
Y0006477D01*
X0032004Y0027051D02*
X0032347Y0027394D01*
Y0028194D01*
X00360244Y00223464D02*
Y00223706D01*
X00362978Y0022644D01*
X003636Y0022606D02*
X0037338D01*
X00362978Y0022644D02*
X0036322D01*
X003636Y0022606D01*
X0038011Y0024003D02*
X0038989D01*
X0037536Y00260915D02*
X0038011Y00256165D01*
X0037536Y00260915D02*
Y0027275D01*
X0038018Y0025661D02*
X00380249Y0025654D01*
X0038989D01*
X00230123Y00737743D02*
Y00738501D01*
X00235655Y00744033D01*
X00246708Y00740846D02*
X0024695D01*
X002443Y00743254D02*
X00246708Y00740846D01*
X00249937Y00737617D02*
Y00737859D01*
X0024695Y00740846D02*
X00249937Y00737859D01*
X00235655Y00744033D02*
Y00747465D01*
X0023622Y0074803D01*
X002443Y00743254D02*
Y0074757D01*
X0024384Y0074803D02*
X002443Y0074757D01*
X00238124Y0079629D02*
X0025019D01*
X0026035Y00777039D02*
X00260566D01*
X0039243Y0059055D02*
Y0060833D01*
Y005588D02*
Y005715D01*
Y0059055D01*
Y0060833D02*
Y006223D01*
Y0063754D01*
Y005588D02*
X0041275D01*
X0042926D01*
X0039243Y0060833D02*
X00409188D01*
X0035649Y0064008D02*
X0036703D01*
X0039243Y0063754D02*
X0041402D01*
X0042926Y005588D02*
X0044704D01*
Y005715D01*
X0042926Y005588D02*
Y005715D01*
X0044704D02*
Y0058801D01*
X0050165Y0054864D02*
X00510601D01*
X0055829D02*
X0056769D01*
X00510601D02*
X00510825Y00548865D01*
X0041383Y0062757D02*
Y0063735D01*
X0041402Y0063754D01*
X00432529Y00588988D02*
X00433507Y0058801D01*
X0044704D01*
X0070631Y0014713D02*
X0071736D01*
X0071755Y0014732D01*
X0081114Y0007874D02*
X0082169D01*
X0081114Y0005969D02*
X0082169D01*
X00607978Y00490572D02*
X0060833Y0049022D01*
X0070358D02*
X00703617D01*
X0065659Y0048933D02*
Y0049911D01*
X0073533Y0049022D02*
X0075057D01*
X0076454D01*
X00703617D02*
X0071882D01*
X0073533D01*
X0076454D02*
Y0050673D01*
X00851915Y00470155D02*
Y00479805D01*
Y00470155D02*
X0085217Y004699D01*
X0085166Y0048006D02*
X00851915Y00479805D01*
X00599074Y00490572D02*
X00607978D01*
X0059901Y00490636D02*
X00599074Y00490572D01*
X0063246Y0051689D02*
Y0052667D01*
X0063627Y0050165D02*
X0063646Y0050146D01*
Y0049168D02*
Y0050146D01*
X0065024Y0051689D02*
Y0052667D01*
X0060109Y0064897D02*
X0061468D01*
X0060071Y0067856D02*
Y0068834D01*
X005842Y0067856D02*
Y0068834D01*
X0066783Y0054934D02*
X0066802Y0054953D01*
X0066783Y0053994D02*
X0066802Y0053975D01*
X0066783Y0053994D02*
Y0054934D01*
X00676931Y00767949D02*
X0068453Y0076035D01*
X00676931Y00767949D02*
Y00768191D01*
X00681829Y00734767D02*
Y00747869D01*
X0068453Y0075057D02*
Y0076035D01*
X00681829Y00747869D02*
X0068453Y0075057D01*
X00703617Y0049022D02*
Y005207D01*
X0070358Y00520737D02*
Y0053594D01*
X0073571Y0050546D02*
Y0052086D01*
X0070358Y00520737D02*
X00703617Y005207D01*
X0075184Y0051905D02*
X0076416D01*
X00751598D02*
X0075184D01*
X0076454Y0050673D02*
Y0051943D01*
X00749158Y0052149D02*
Y00521732D01*
Y0052149D02*
X00751598Y0051905D01*
X0070358Y0053594D02*
X0071779D01*
X0074638Y0052451D02*
X00749158Y00521732D01*
X0073696Y0052211D02*
X0073936Y0052451D01*
X0074638D01*
X00761839Y00734767D02*
Y00758789D01*
X00772994Y00769944D01*
X0057277Y0079629D02*
X0057296Y0079648D01*
X0059849Y0079568D02*
X0059944Y0079663D01*
X0057296Y0080626D02*
X0057315Y0080645D01*
X0057296Y0079648D02*
Y0080626D01*
X0061703Y0083166D02*
X0061722Y0083147D01*
X00674197Y00770925D02*
X00676931Y00768191D01*
X00673955Y00770925D02*
X00674197D01*
X00772994Y00770186D02*
X00775728Y0077292D01*
X00772994Y00769944D02*
Y00770186D01*
X00775728Y0077292D02*
X0077597D01*
X0077635Y0077254D01*
X0079248D02*
Y0078359D01*
X0077597Y0077292D02*
Y0078359D01*
X0085686Y0069977D02*
X0086741D01*
X008551Y0073406D02*
X0086614D01*
X0079248Y0077254D02*
X008048D01*
X0077635D02*
X0079248D01*
X008048D02*
X0080518Y0077216D01*
X0046082Y008168D02*
X0046101Y0081661D01*
X0045085Y0081699D02*
X0045104Y008168D01*
X0046082D01*
X0040386Y0082169D02*
X0041237D01*
X0046012Y0074549D02*
X004699D01*
X0036322Y0082169D02*
X00371138D01*
X00371774Y00821054D01*
X0084055Y005882D02*
X0084074Y0058801D01*
X0084055Y005882D02*
Y0061449D01*
X0084036Y0061468D02*
X0084055Y0061449D01*
X00840332Y00614652D02*
X0084036Y0061468D01*
X00810127Y00614652D02*
X00840332D01*
X00810099Y00614625D02*
X00810127Y00614652D01*
X0084036Y0063119D02*
Y0064643D01*
X0082677D02*
X0084036D01*
X0054991Y0013589D02*
Y00136208D01*
X00545504Y00140614D02*
X0054991Y00136208D01*
X0055137Y005167D02*
X0056115D01*
X0059563Y0053872D02*
Y0055588D01*
X0061214Y0057188D02*
X00612315D01*
X00615366Y00574931D02*
Y00575106D01*
X0062065Y0058039D01*
X00612315Y0057188D02*
X00615366Y00574931D01*
X0062065Y0058039D02*
X0063464D01*
X0060513Y0053872D02*
Y00549176D01*
X00611834Y0055588D02*
X0061214D01*
X0060513Y00549176D02*
X00611834Y0055588D01*
X0063464Y0058039D02*
X00652873Y00598623D01*
X00657699D01*
X00642846Y00654276D02*
X00657473D01*
X00642775Y00662785D02*
X00657544D01*
X0065278Y0086106D02*
X0066389Y0084995D01*
X0061772Y0084747D02*
X0063131Y0086106D01*
X0065278D01*
X0061684Y0084709D02*
X0061722Y0084747D01*
X0066389Y0084709D02*
Y0084995D01*
X0086632Y00682406D02*
X00866736Y00682821D01*
X0085636Y0068199D02*
X00856776Y00682406D01*
X0086632D01*
X0085636Y0066421D02*
X0086703D01*
X0080499Y0075673D02*
X0080518Y0075692D01*
X0079248Y0075654D02*
X0079267Y0075673D01*
X0077597Y0075692D02*
X0079032D01*
X0061754Y0075533D02*
X0061786Y0075565D01*
X0085674Y0059817D02*
X0086741D01*
X0085636Y0063119D02*
X0086741D01*
X00865761Y00503432D02*
X0086614Y0050381D01*
X00806037Y00480027D02*
X0080607Y0048006D01*
X00794218Y00479993D02*
X00794251Y00480027D01*
X0066783Y0051581D02*
Y0052508D01*
X0066675Y0052616D02*
X0066783Y0052508D01*
Y0051581D02*
X0066802Y0051562D01*
X0058255Y0047371D02*
X00582654Y00473606D01*
X0056134Y0046228D02*
X0056153Y0046247D01*
Y0047352D01*
X0051181Y0047282D02*
X005127Y0047371D01*
X0051181Y0046228D02*
Y0047282D01*
X0040362Y0035398D02*
X0040386Y0035422D01*
X0036886Y0026129D02*
Y0027275D01*
X00365816Y00258246D02*
X0036886Y0026129D01*
X00365574Y00258246D02*
X00365816D01*
X00363989Y00256661D02*
X00365574Y00258246D01*
X00345622Y0028885D02*
X0035276D01*
X00341062Y0028429D02*
X00345622Y0028885D01*
X0033947Y0028429D02*
X00341062D01*
X00336345Y0027871D02*
X0033947Y00281835D01*
Y0028194D01*
X0033624Y0027871D02*
X00336345D01*
X0033147Y0027394D02*
X0033624Y0027871D01*
X0033147Y00263307D02*
Y0027394D01*
X0032347Y00255307D02*
X0033147Y00263307D01*
X0015621Y0055207D02*
X00156385D01*
X00159436Y00548844D02*
X0017492Y0053336D01*
X00156385Y0055207D02*
X00159436Y00549019D01*
X0017492Y0053336D02*
X0021051D01*
X00159436Y00548844D02*
Y00549019D01*
X0053066Y0079649D02*
X00640643Y00686507D01*
X00657699D01*
X0045847Y0028768D02*
X00458703Y00287913D01*
X00456414Y00300506D02*
X00458703Y00298216D01*
X0045428Y0030607D02*
X00456414Y00303936D01*
X00458703Y00287913D02*
Y00298216D01*
X00456414Y00300506D02*
Y00303936D01*
X0065532Y0007874D02*
X00658245Y00075815D01*
Y00065168D02*
Y00075815D01*
Y00065168D02*
X00671343Y0005207D01*
X00538837Y00061873D02*
Y00077113D01*
X0055626Y0004445D02*
X0074003D01*
X00538837Y00061873D02*
X0055626Y0004445D01*
X0053721Y0007874D02*
X00538837Y00077113D01*
X0037262Y0079857D02*
X0038328D01*
X0038773Y0080302D01*
Y0082169D01*
X0041364Y0076924D02*
X0041697Y0077257D01*
X0041364Y0074549D02*
Y0076924D01*
X0041697Y0077257D02*
X0043002D01*
X0044412Y0074549D02*
Y0076238D01*
X0044043Y0076607D02*
X0044412Y0076238D01*
X0043002Y0076607D02*
X0044043D01*
X0043002Y0077907D02*
X0044179D01*
X0045035Y0077051D02*
X0045085D01*
X0044179Y0077907D02*
X0045035Y0077051D01*
X0043002Y0078557D02*
X00447882D01*
X00450092Y0078778D02*
X0045085D01*
X00447882Y0078557D02*
X00450092Y0078778D01*
X00448168Y0079855D02*
X00450608Y0080099D01*
X00441945Y00792085D02*
X00448168Y00798308D01*
X00430035Y00792085D02*
X00441945D01*
X00448168Y00798308D02*
Y0079855D01*
X00450608Y0080099D02*
X0045085D01*
X0042964Y0074549D02*
Y0075919D01*
X0043002Y0080507D02*
Y0081699D01*
X00482637Y00457962D02*
X00491019Y0044958D01*
X004826Y00457962D02*
X00482637D01*
X00635Y0068072D02*
X0064262D01*
X00644707Y00678633D02*
X00657699D01*
X0064262Y0068072D02*
X00644707Y00678633D01*
X0053213Y0078359D02*
X00635Y0068072D01*
X003429Y0050927D02*
X0034671Y0050546D01*
X00373266D01*
X003429Y0050927D02*
Y0053213D01*
X0033363Y005414D02*
Y0055499D01*
Y005414D02*
X003429Y0053213D01*
X0033782Y0050927D02*
Y0052959D01*
X0033401Y0050546D02*
X0033782Y0050927D01*
X00312166Y0050546D02*
X0033401D01*
X0032893Y0053848D02*
X0033782Y0052959D01*
X0031915Y0055499D02*
X0033236D01*
X0033363Y0055626D01*
X00373266Y00478676D02*
Y0050546D01*
X0068392Y0018796D02*
X0069596D01*
X0069888Y0019088D01*
X0070739D01*
X0084709Y005207D02*
X0086741Y0054102D01*
X0083693Y005207D02*
X0084709D01*
X0086741Y0054102D02*
X0087757D01*
X0088403Y0054748D01*
Y00560068D01*
X0083566Y0046355D02*
Y0048006D01*
X0068072Y0045085D02*
X0082296D01*
X0083566Y0046355D01*
X0047371Y0045212D02*
X0048514Y0044069D01*
X0083439Y0051816D02*
X0083693Y005207D01*
X0083439Y0050295D02*
Y0051816D01*
Y0050295D02*
X00835025Y00502315D01*
Y00480695D02*
Y00502315D01*
X0067056Y0044069D02*
X0068072Y0045085D01*
X0048514Y0044069D02*
X0067056D01*
X00491019Y0044958D02*
X0066548D01*
X0067564Y0045974D01*
X0081661D01*
X0082207Y004652D01*
Y0048006D01*
X00865742Y00557242D02*
X0086603Y0055753D01*
X00865742Y00550782D02*
Y00557242D01*
X0084201Y0052705D02*
X00865742Y00550782D01*
X0082804Y0052705D02*
X0084201D01*
X0082169Y005207D02*
X0082804Y0052705D01*
X0082169Y0050295D02*
Y005207D01*
X0082188Y0048025D02*
X0082207Y0048006D01*
X0082188Y0048025D02*
Y0050276D01*
X0082169Y0050295D02*
X0082188Y0050276D01*
X0083748Y0053594D02*
X0084709Y0054555D01*
X0078994Y0053594D02*
X0083748D01*
X0010238Y0006477D02*
X0010307Y0006546D01*
Y0008313D02*
X0010376Y0008382D01*
X0073025Y0079494D02*
Y0080772D01*
X0070262Y0082042D02*
X0071721D01*
X0065659Y0083439D02*
X0072517D01*
X0071755Y0082042D02*
X0073025Y0080772D01*
X0075311Y0079494D02*
Y0083566D01*
X0074168Y0079494D02*
Y0081788D01*
X0072517Y0083439D02*
X0074168Y0081788D01*
Y0084709D02*
X0075311Y0083566D01*
X0070389Y0084709D02*
X0074168D01*
X00542914Y0081081D02*
Y00826524D01*
X0054316Y0082677D01*
X00542667Y00810563D02*
X00542914Y0081081D01*
X00222187Y00806387D02*
X0022225Y0080645D01*
X00222187Y00796353D02*
Y00806387D01*
X0022148Y00795646D02*
X00222187Y00796353D01*
X0058613Y0053442D02*
Y0053872D01*
X0054229Y0059817D02*
X005588D01*
X0054591Y0046247D02*
Y0047352D01*
X0068491Y0054991D02*
Y0055918D01*
X0058255Y0064897D02*
X0058382Y006477D01*
X00729835Y00571191D02*
X0073696Y00564066D01*
Y0053661D02*
Y00564066D01*
X00754512Y00571368D02*
Y0058182D01*
X00753965Y00582367D02*
X00754512Y0058182D01*
Y00571368D02*
X0078994Y0053594D01*
X0032258Y0067437D02*
X0034062D01*
X0032258Y0068707D02*
X0034062D01*
X0052832Y0046228D02*
X0052851Y0046247D01*
Y0047352D01*
X005287Y0047371D01*
Y0049238D01*
X00393018Y00278341D02*
Y00282274D01*
X00392942Y0028235D02*
X00393018Y00282274D01*
X0039146Y0028235D02*
X00392942D01*
X00393018Y00278341D02*
X0039624Y00275119D01*
Y0027432D02*
Y00275119D01*
X005461Y0047371D02*
Y0050038D01*
X00697831Y00572101D02*
Y00582367D01*
X0068491Y0055918D02*
X00697831Y00572101D01*
X0052794Y0070993D02*
Y0073368D01*
X00540455Y00746195D01*
X005588Y0064897D02*
X0058255D01*
X0059817Y0046228D02*
X0059836Y0046247D01*
Y0047352D02*
X0059855Y0047371D01*
X0059836Y0046247D02*
Y0047352D01*
X0059855Y0047371D02*
X0062065D01*
X0064262Y0082042D02*
X0065659Y0083439D01*
X0076454Y0079494D02*
Y0080264D01*
X0079847Y0074422D02*
X0080391D01*
X0079375Y007395D02*
X0079847Y0074422D01*
X0057823Y0070993D02*
X0059436D01*
X00626309Y00646629D02*
Y00677981D01*
X0059436Y0070993D02*
X00626309Y00677981D01*
X0057912Y0059817D02*
X0058809D01*
X0057912Y0062357D02*
X0058801D01*
X0054229D02*
X005588D01*
X0054572Y0047371D02*
X0054591Y0047352D01*
X0073696Y0053661D02*
X0073852Y0053505D01*
X00745837Y00582367D02*
X00746853Y00581351D01*
Y00570429D02*
Y00581351D01*
X0083986Y0069977D02*
X00839915Y00699715D01*
X00825971Y0062738D02*
X0082677D01*
X00810166Y0063056D02*
X00822792D01*
X00825971Y0062738D01*
X00810099Y00630627D02*
X00810166Y0063056D01*
X00219404Y0077683D02*
Y00784892D01*
X0022148Y00786968D01*
Y00795646D01*
X007286Y0005207D02*
X0075527Y0007874D01*
X00671343Y0005207D02*
X007286D01*
X0074003Y0004445D02*
X00752044Y00056464D01*
X00752219D02*
X0075527Y00059515D01*
X00752044Y00056464D02*
X00752219D01*
X0075527Y00059515D02*
Y0005969D01*
X0077127Y0007874D02*
X0079414D01*
X0077127Y0005969D02*
X0079414D01*
X0038186Y0027005D02*
X00384645Y00267265D01*
X00389325D01*
X0038186Y0027005D02*
Y0027275D01*
X00389325Y00267265D02*
X0038989Y002667D01*
X00737963Y00571407D02*
Y00582367D01*
X00527925Y00504122D02*
X00542358D01*
X005461Y0050038D01*
X0035276Y0027783D02*
Y0028235D01*
X0033947Y0026454D02*
X0035276Y0027783D01*
X0033947Y0025527D02*
Y0026454D01*
X0068392Y0016256D02*
X0070574D01*
X0070612Y0016294D01*
X0070631Y0016275D01*
X0033815Y0011971D02*
X0035003D01*
X0035036Y0012004D01*
X0033782Y0011938D02*
X0033815Y0011971D01*
X0035344Y0015494D02*
X00367432D01*
X0065189Y0079121D02*
X007112D01*
X0072263Y007667D02*
Y0077978D01*
X007112Y0079121D02*
X0072263Y0077978D01*
X00714176Y00758246D02*
X0072263Y007667D01*
X0042129Y0028472D02*
X0042153Y0028448D01*
X00314605Y00353385D02*
X0031496Y0035374D01*
X0053066Y0079649D02*
Y0082677D01*
X00840305Y00682045D02*
X0084036Y0068199D01*
X00626309Y00646629D02*
X00657699D01*
X0061595Y0063627D02*
X00626309Y00646629D01*
X0059809Y0063627D02*
X0061595D01*
X00527925Y00516822D02*
X00549598D01*
X0075311Y0076962D02*
Y0078494D01*
X0074549Y00762D02*
X0075311Y0076962D01*
X0074549Y00735114D02*
Y00762D01*
X0076454Y0077089D02*
Y0078494D01*
X00753965Y00760315D02*
X0076454Y0077089D01*
X00753965Y00734767D02*
Y00760315D01*
X0074549Y00735114D02*
X00745837Y00734767D01*
X0074168Y0076708D02*
Y0078494D01*
X00737963Y00734767D02*
Y00763363D01*
X0074168Y0076708D01*
X0073025Y00735182D02*
Y0078494D01*
X00729835Y00734767D02*
X0073025Y00735182D01*
X007112Y0075527D02*
X00711442D01*
X00714176Y00758004D01*
Y00758246D01*
X00705959Y00750029D02*
X007112Y0075527D01*
X0061849Y0080518D02*
X0063119D01*
X0063589Y0079121D02*
Y0080048D01*
X0063119Y0080518D02*
X0063589Y0080048D01*
X00690195Y00735004D02*
Y00744805D01*
X00694253Y00748864D01*
X00689957Y00734767D02*
X00690195Y00735004D01*
X00694253Y00748864D02*
Y00755213D01*
X0069469Y0075565D01*
X00705959Y00734767D02*
Y00750029D01*
X00419711Y0059817D02*
X004658D01*
X0041053Y00588988D02*
X00419711Y0059817D01*
X0041326Y005715D02*
Y00585257D01*
X00409529Y00588988D02*
X0041326Y00585257D01*
X00457905Y00687635D02*
X00465235D01*
X0044577Y0069977D02*
X00457905Y00687635D01*
X0038862Y0069977D02*
X0044577D01*
X00465235Y00687635D02*
X004658Y0068707D01*
X0038862Y0066167D02*
X004445D01*
X00457251Y0067437D02*
X0047469D01*
X004445Y0066167D02*
X00455724Y00672894D01*
X00455775D02*
X00457251Y0067437D01*
X00455724Y00672894D02*
X00455775D01*
X0034062Y00638829D02*
Y0066167D01*
X00465235Y00687635D02*
X00474125D01*
X0062065Y0049149D02*
Y0050965D01*
X0061468Y0051562D02*
X0062065Y0050965D01*
X0060513Y0051562D02*
X0061468D01*
X0042964Y00610877D02*
Y0062738D01*
Y00610877D02*
X00432529Y00607988D01*
X0043441Y0060894D02*
X0043634Y0061087D01*
X004658D01*
X005588Y0058547D02*
X0058809D01*
X005588Y0061087D02*
X0058809D01*
X005588Y0063627D02*
X0058682D01*
X0071846Y0052211D02*
X0071971Y0052086D01*
Y0050546D02*
Y0052086D01*
X0082169Y0055245D02*
X0083439D01*
X00777841Y00582367D02*
X00778179Y00582028D01*
Y00572429D02*
X00781649Y0056896D01*
X0081661D01*
X00778179Y00572429D02*
Y00582028D01*
X00821036Y00553104D02*
X0082169Y0055245D01*
X00821036Y00553104D02*
Y00564534D01*
X0081661Y0056896D02*
X00821036Y00564534D01*
X0078232Y0055245D02*
X0080899D01*
X00762259Y00572511D02*
X0078232Y0055245D01*
X00761839Y00582367D02*
X00762259Y00581947D01*
Y00572511D02*
Y00581947D01*
X0084709Y0054555D02*
Y0055245D01*
X0073852Y0053505D02*
X0075438D01*
X00729835Y00571191D02*
Y00582367D01*
X0072169Y0052484D02*
X0072771Y0053086D01*
X00721961Y00571045D02*
X0072771Y00565296D01*
Y0053086D02*
Y00565296D01*
X00721961Y00571045D02*
Y00582367D01*
X0072169Y0052484D02*
Y0052484D01*
X00719189Y00522339D02*
X0072169Y0052484D01*
X0083566Y0075133D02*
X0085459D01*
X0081788Y0073533D02*
X0083566D01*
X00810099Y00727549D02*
X0081788Y0073533D01*
X00810099Y00718511D02*
Y00727549D01*
X0048349Y0031458D02*
X0048895Y0032004D01*
X0048349Y0030607D02*
Y0031458D01*
X0048387Y0028768D02*
Y0030607D01*
X0031915Y0053848D02*
X0032893D01*
X0068392Y0017526D02*
X0070701D01*
X0047028Y0030607D02*
X0047117Y0030518D01*
Y0028768D02*
Y0030518D01*
D142*
X00837125Y00789305D02*
Y00802445D01*
X0038011Y0024003D02*
Y00256165D01*
X00383732Y0015562D02*
X00383922Y0015543D01*
X0026035Y00777039D02*
Y0078613D01*
X00406734Y00671497D02*
X00413973D01*
X0041402Y0067145D02*
X00414115Y00671355D01*
X00431515D01*
X0040386Y0067437D02*
X00406734Y00671497D01*
X0038862Y0067437D02*
X0040386D01*
X00431515Y00671355D02*
X0043161Y0067126D01*
X00431895Y00671545D02*
X00439986D01*
X0043161Y0067126D02*
X00431895Y00671545D01*
X00439986D02*
X00442812Y0067437D01*
X0044323D01*
X007462Y0047244D02*
X0075946D01*
X00598722Y00490924D02*
Y00500704D01*
X0059563Y00503796D02*
Y0051562D01*
Y00503796D02*
X00598722Y00500704D01*
X0071774Y005501D02*
Y0056115D01*
X0071755Y0054991D02*
X0071774Y005501D01*
X00713833Y00571407D02*
Y00582367D01*
X0071702Y0056225D02*
X0071793Y0056134D01*
X00713833Y00571407D02*
X0071702Y0056822D01*
Y0056225D02*
Y0056822D01*
X0071774Y0056115D02*
X0071793Y0056134D01*
X0059944Y0079663D02*
Y0080518D01*
X0060598Y0083166D02*
X0061703D01*
X00864965Y00519715D02*
X00865068Y00519612D01*
X00873578D02*
X0087376Y0051943D01*
X00865068Y00519612D02*
X00873578D01*
X0087376Y0051943D02*
X00873942Y00519612D01*
X0089262Y0051962D02*
X0089281Y0051943D01*
X00873942Y00519612D02*
X00881182D01*
X0088284Y0051962D02*
X0089262D01*
X00881182Y00519612D02*
X0088138Y0051981D01*
X0088265D02*
Y0052832D01*
Y0051981D02*
X0088284Y0051962D01*
X0083732Y0076962D02*
Y0078911D01*
X0028702Y007827D02*
X0029756D01*
X0060579Y0084709D02*
X0061684D01*
X00775521Y0075692D02*
X0077597D01*
X0079267Y0075673D02*
X0080499D01*
X00773434Y00754832D02*
X00775521Y0075692D01*
X00773434Y00754272D02*
Y00754832D01*
X00769967Y00750806D02*
X00773434Y00754272D01*
X00769967Y00734767D02*
Y00750806D01*
X0055588Y0080518D02*
Y0082655D01*
X006009Y0066275D02*
X0061449D01*
X0061468Y0066294D01*
X005842Y0066256D02*
X0060071D01*
X005588Y0066167D02*
X0058331D01*
X005842Y0066256D01*
X00705959Y00571339D02*
Y00582367D01*
X00702205Y00567585D02*
X00705959Y00571339D01*
X00702205Y00562885D02*
Y00567585D01*
X0070193Y0056134D02*
X0070231Y0056096D01*
Y0054991D02*
Y0056096D01*
X0084795Y0050381D02*
X0088138D01*
X0088265Y0049149D02*
Y0050381D01*
X00865761Y00491835D02*
Y00503432D01*
X0084709Y0050295D02*
X0084795Y0050381D01*
X00794251Y00480027D02*
X00806037D01*
X0058613Y00504113D02*
Y0051562D01*
X00582721Y00500704D02*
X0058613Y00504113D01*
X00582721Y00471874D02*
Y00490924D01*
Y00500704D01*
X00582654Y0046168D02*
X00582758Y00461576D01*
X00582654Y0046168D02*
Y00473606D01*
X0037338Y0074422D02*
X0037376Y007446D01*
X0043161Y0068726D02*
X00431705Y00687165D01*
X00444405D01*
X0038862Y0068707D02*
X0038881Y0068726D01*
X0043161D01*
X00444405Y00687165D02*
X004445Y0068707D01*
X0018561Y0078632D02*
X0019666D01*
X0018542Y0078613D02*
X0018561Y0078632D01*
X0040374Y0036437D02*
X0040386Y0036449D01*
X0040374Y0035434D02*
X0040386Y0035422D01*
X00411788Y0035398D02*
X0041402Y00351748D01*
X0040374Y0035434D02*
Y0036437D01*
X0040362Y0035398D02*
X00411788D01*
X0041402Y00344212D02*
Y00351748D01*
X00411788Y0034198D02*
X0041402Y00344212D01*
X0040362Y0034198D02*
X00411788D01*
X0036411Y0024003D02*
Y0025654D01*
X0043561Y0042164D02*
X0048895D01*
X00501015Y00382905D02*
Y00409575D01*
X0048895Y0042164D02*
X00501015Y00409575D01*
Y00382905D02*
X0050927Y0037465D01*
X0040929Y00324158D02*
X00411522Y0032639D01*
X0040929Y0031472D02*
Y00324158D01*
X00411522Y0032639D02*
X0042129D01*
Y0031472D02*
Y0032639D01*
Y0040732D01*
X0043561Y0042164D01*
X00143812Y0008382D02*
X00148892Y0007874D01*
X001651D01*
X00730652Y00278014D02*
X00738907Y00269759D01*
X0068707Y0032131D02*
X00730366Y00278014D01*
X00730652D01*
X00738907Y00254519D02*
Y00269759D01*
X0068707Y0032131D02*
Y0041529D01*
X0037362Y0035398D02*
Y00378446D01*
X00364182Y0035398D02*
X0037362D01*
X0036195Y00344212D02*
Y00351748D01*
X00364182Y0035398D01*
X0036195Y00344212D02*
X00364182Y0034198D01*
X0037362D01*
Y00378446D02*
X00426974Y004318D01*
X0067056D01*
X0068707Y0041529D01*
X0010307Y0006546D02*
Y0008313D01*
X0011976Y0008382D02*
X00143812D01*
X002988Y0031345D02*
Y00324158D01*
X00301032Y0032639D02*
X00308568D01*
X002988Y00324158D02*
X00301032Y0032639D01*
X003108Y0031345D02*
Y00324158D01*
X00308568Y0032639D02*
X003108Y00324158D01*
X00823159Y00702509D02*
X0082804Y0070739D01*
X00810099Y00702509D02*
X00823159D01*
X0051816Y0025019D02*
X0052832D01*
X0065621Y0047371D02*
X0067493D01*
X0014624Y005802D02*
X0015602D01*
X0015621Y0058001D01*
X0014605Y0058039D02*
X0014624Y005802D01*
X0063665Y0047371D02*
X0065621D01*
X0067493D02*
X006762Y0047244D01*
X0065621Y0047371D02*
X0065659Y0047333D01*
X00683545Y00549815D02*
X0068364Y0054991D01*
X006762Y0049459D02*
X0068364Y0050203D01*
X00683545Y00539655D02*
Y00549815D01*
X0068345Y0052724D02*
Y0053956D01*
X00683545Y00539655D01*
X0068345Y0052724D02*
X0068364Y0052705D01*
Y0050203D02*
Y0052705D01*
X006762Y0047244D02*
Y0049459D01*
X00840979Y0068199D02*
Y0069977D01*
X00826461Y00662631D02*
X00838781D01*
X0084036Y0066421D01*
X00810099Y00662631D02*
X00826461D01*
X00810198Y00646529D02*
X00826671D01*
X0082677Y0064643D01*
X0015621Y0056807D02*
Y0058001D01*
X00353286Y00341856D02*
X003556Y0034417D01*
X00353368Y0035398D02*
X003556Y00351748D01*
Y0034417D02*
Y00351748D01*
X003452Y0034198D02*
X00345324Y00341856D01*
X003452Y0035398D02*
X00353368D01*
X00345324Y00341856D02*
X00353286D01*
X0064516Y001317D02*
X0064554Y0013208D01*
X0064516Y0012065D02*
Y001317D01*
X0070631Y0016275D02*
X0071736D01*
X0042153Y0028448D02*
X0042165Y002846D01*
X0043168D01*
X004318Y0028448D01*
X0031508Y0035386D02*
Y0036437D01*
X0031496Y0036449D02*
X0031508Y0036437D01*
X0031496Y0035374D02*
X0031508Y0035386D01*
X0065024Y007366D02*
X00657699Y00729141D01*
Y00718511D02*
Y00729141D01*
X0063373Y007366D02*
X0065024D01*
X0063436Y0075819D02*
X00636355Y00756195D01*
Y00754925D02*
X00656175D01*
X0065532Y0075527D02*
X00655665Y00754925D01*
X00673955D01*
Y00734767D02*
Y00754925D01*
X00419058Y0027432D02*
X0042129Y00276552D01*
X0040929D02*
X00411522Y0027432D01*
X00419058D01*
X0042129Y00276552D02*
Y0028472D01*
X0040929Y00276552D02*
Y0028472D01*
X0036576Y0055499D02*
Y0059424D01*
X0034963Y0061037D02*
X0036576Y0059424D01*
X0034963Y0055499D02*
X0036576D01*
X00308302Y00353385D02*
X00314605D01*
X0030607Y00351153D02*
X00308302Y00353385D01*
X0030607Y00344807D02*
Y00351153D01*
X00308302Y00342575D02*
X00314605D01*
X0030607Y00344807D02*
X00308302Y00342575D01*
X00314605D02*
X003152Y0034198D01*
X0038075Y0043561D02*
X00381D01*
X00364805Y00425765D02*
Y00426015D01*
X003452Y0035398D02*
Y0040616D01*
X00371155Y00426015D02*
X0038075Y0043561D01*
X003452Y0040616D02*
X00364805Y00425765D01*
X00286195Y00554545D02*
X00302705D01*
X0028594Y0053829D02*
X0030296D01*
X0035036Y0012004D02*
X00350414Y00120094D01*
X00357682D01*
X00359618Y0012203D01*
X00368302D01*
X0035001Y0057785D02*
Y0059436D01*
X00541845Y00107125D02*
Y00125285D01*
X0051854Y0023457D02*
X0053556D01*
X0049708Y0023419D02*
X0051816D01*
X00306072Y0015543D02*
Y0017807D01*
X003108Y0028345D02*
X00311006Y00283244D01*
Y00272742D02*
Y00283244D01*
X00308774Y0027051D02*
X00311006Y00272742D01*
X002988Y0027051D02*
Y0028345D01*
Y0027051D02*
Y0028194D01*
Y0027051D02*
X00308774D01*
X002988Y0024546D02*
Y0027051D01*
X00307072Y0017907D02*
X0032512D01*
X00306072Y0017807D02*
X00307072Y0017907D01*
X00525145Y00106935D02*
Y00125475D01*
X00330522Y0012942D02*
Y00138108D01*
X00322072Y00146558D02*
X00330522Y00138108D01*
X00322072Y00146558D02*
Y0015543D01*
X00330522Y00138108D02*
X0033744Y00145027D01*
Y0015494D01*
D143*
X00158805Y00669235D02*
X00172667D01*
X0015875Y0066929D02*
X00158805Y00669235D01*
X00295967Y00670505D02*
X00296866Y00669606D01*
D144*
X00309564D01*
X00351153Y00239734D02*
X00363814D01*
X0031115Y0025527D02*
X0032347D01*
X0018199Y00696448D02*
Y0070907D01*
X00172722Y0068718D02*
X00173222D01*
X00176047Y00690505D02*
X0018199Y00696448D01*
X00176047Y00690005D02*
Y00690505D01*
X00173222Y0068718D02*
X00176047Y00690005D01*
X0021085Y0065535D02*
Y0070993D01*
X00367432Y0015494D02*
X00367922Y0015543D01*
X0025902Y0065538D02*
Y0070993D01*
X0028702Y00696842D02*
Y0070993D01*
X00295412Y0068845D02*
X00295912D01*
X0028702Y00696842D02*
X00295412Y0068845D01*
X0061595Y0013208D02*
X0061595Y0013208D01*
X0062954D01*
Y0013462D02*
X0062973Y0013481D01*
Y0014967D01*
X0070574Y0017526D02*
X0070612Y0017488D01*
X0062973Y0014967D02*
X0062992Y0014986D01*
X0028575Y0023241D02*
X002988Y0024546D01*
X0028575Y0018415D02*
X0029183Y0017807D01*
X0028575Y0018415D02*
Y0023241D01*
X0029183Y0017807D02*
X00306072D01*
D145*
X0055118Y0051651D02*
X0055137Y005167D01*
X00657473Y00654276D02*
X00657699Y00654503D01*
X00657544Y00662785D02*
X00657699Y00662631D01*
X0028702Y007667D02*
X0028721Y0076689D01*
X0028702Y0075476D02*
X0028721Y0075457D01*
X00372415Y00772365D02*
X0037262Y0077257D01*
X00372265Y00785215D02*
X0037262Y0078557D01*
X0043002Y0079207D02*
X00430035Y00792085D01*
X0042964Y0075919D02*
X0043002Y0075957D01*
X0042837Y0082169D02*
X0042888Y0082118D01*
D146*
X0030988Y0061341D02*
D03*
D147*
X00035446Y00088D02*
D03*
X0003556Y0082677D02*
D03*
X00893Y0005D02*
D03*
X00892746Y0085D02*
D03*
D148*
X000611Y004944D02*
D03*
X000357D02*
D03*
X000611Y005198D02*
D03*
X000357D02*
D03*
Y007484D02*
D03*
X000611D02*
D03*
X000865Y00469D02*
D03*
X000357Y004436D02*
D03*
Y00469D02*
D03*
X000611Y004436D02*
D03*
Y00469D02*
D03*
X001119Y006976D02*
D03*
Y006722D02*
D03*
Y005198D02*
D03*
X000865D02*
D03*
X001119Y005452D02*
D03*
X000865D02*
D03*
X001119Y007484D02*
D03*
X000865D02*
D03*
X001119Y00469D02*
D03*
Y004436D02*
D03*
X000865D02*
D03*
Y002912D02*
D03*
X001119Y003166D02*
D03*
Y002912D02*
D03*
Y002658D02*
D03*
Y002404D02*
D03*
X000865Y001896D02*
D03*
X001119Y003928D02*
D03*
Y004182D02*
D03*
X000865Y003166D02*
D03*
X001119Y003674D02*
D03*
X000865D02*
D03*
Y003928D02*
D03*
Y004182D02*
D03*
X001119Y004944D02*
D03*
X000865D02*
D03*
X001119Y005706D02*
D03*
X000865D02*
D03*
Y006214D02*
D03*
Y006468D02*
D03*
X001119Y00723D02*
D03*
X000865D02*
D03*
X001119Y007738D02*
D03*
X000865D02*
D03*
Y001388D02*
D03*
Y001642D02*
D03*
X001119Y001896D02*
D03*
Y00215D02*
D03*
X000865D02*
D03*
Y002658D02*
D03*
Y002404D02*
D03*
Y006722D02*
D03*
Y006976D02*
D03*
X001119Y006214D02*
D03*
Y006468D02*
D03*
Y001642D02*
D03*
Y00342D02*
D03*
X000865D02*
D03*
Y00596D02*
D03*
X001119D02*
D03*
X000357Y005452D02*
D03*
X000611D02*
D03*
X000357Y006722D02*
D03*
X000611Y006468D02*
D03*
Y006722D02*
D03*
Y006976D02*
D03*
Y006214D02*
D03*
X000357Y006976D02*
D03*
X000611Y001642D02*
D03*
X000357Y002912D02*
D03*
X000611Y003166D02*
D03*
Y002912D02*
D03*
Y002658D02*
D03*
Y002404D02*
D03*
X000357Y001896D02*
D03*
Y003166D02*
D03*
X000611Y005706D02*
D03*
X000357D02*
D03*
Y006214D02*
D03*
Y006468D02*
D03*
X000611Y00723D02*
D03*
X000357D02*
D03*
X000611Y007738D02*
D03*
X000357D02*
D03*
Y001388D02*
D03*
Y001642D02*
D03*
X000611Y001896D02*
D03*
Y00215D02*
D03*
X000357D02*
D03*
Y002658D02*
D03*
Y002404D02*
D03*
X000611Y00596D02*
D03*
X000357D02*
D03*
Y00342D02*
D03*
X000611D02*
D03*
X000357Y003674D02*
D03*
Y003928D02*
D03*
Y004182D02*
D03*
X000611Y003928D02*
D03*
Y004182D02*
D03*
Y003674D02*
D03*
D149*
X0068389Y0084709D02*
D03*
X0066389D02*
D03*
X0068262Y0082042D02*
D03*
X0066262D02*
D03*
X0064262D02*
D03*
X0070389Y0084709D02*
D03*
D150*
X0045339Y0007874D02*
D03*
X0068072D02*
D03*
X0056261D02*
D03*
X0033274D02*
D03*
X001905D02*
D03*
D151*
X0042799D02*
D03*
X001651D02*
D03*
X0030734D02*
D03*
X0053721D02*
D03*
X0065532D02*
D03*
D152*
X0070262Y0082042D02*
D03*
X0064389Y0084709D02*
D03*
D153*
X001119Y001388D02*
D03*
X000611D02*
D03*
D154*
X0035814Y0076581D02*
D03*
X0030607Y0077724D02*
D03*
X0030099Y0076327D02*
D03*
X003175Y0078359D02*
D03*
X00642967Y00614741D02*
D03*
X0051943Y0073787D02*
D03*
X004826Y0070993D02*
D03*
X0074422Y005588D02*
D03*
X0075438D02*
D03*
X0057658Y0052832D02*
D03*
X00636842Y00596727D02*
D03*
X00184785Y00753745D02*
D03*
X0054991Y00747395D02*
D03*
X003175Y0079883D02*
D03*
X0078486Y0074803D02*
D03*
X0014605Y0050165D02*
D03*
X0020447Y0029972D02*
D03*
X0019685Y0010033D02*
D03*
X00217483Y00082847D02*
D03*
Y00073957D02*
D03*
X00206053Y00082847D02*
D03*
Y00073957D02*
D03*
X00481643Y00082847D02*
D03*
Y00073957D02*
D03*
X00470213Y00082847D02*
D03*
Y00073957D02*
D03*
X00358453Y00082847D02*
D03*
Y00073957D02*
D03*
X00347023Y00082847D02*
D03*
Y00073957D02*
D03*
X00589593Y00084117D02*
D03*
Y00075227D02*
D03*
X00578163Y00084117D02*
D03*
Y00075227D02*
D03*
X00705163Y00082847D02*
D03*
Y00073957D02*
D03*
X00693733Y00082847D02*
D03*
Y00073957D02*
D03*
X00797943Y00189547D02*
D03*
X00786513D02*
D03*
X00772222Y00344468D02*
D03*
X00783652D02*
D03*
X00772222Y00330498D02*
D03*
X00783652D02*
D03*
X00600712Y00367373D02*
D03*
X00589282D02*
D03*
X00600712Y00381343D02*
D03*
X00589282D02*
D03*
X00600712Y00395313D02*
D03*
X00589282D02*
D03*
X0059436Y0023241D02*
D03*
Y0022098D02*
D03*
X0058039Y0023241D02*
D03*
Y0022098D02*
D03*
X0056642Y0023241D02*
D03*
Y0022098D02*
D03*
Y0040005D02*
D03*
X0011938Y0005334D02*
D03*
X0019685Y0010922D02*
D03*
X0019812Y0012954D02*
D03*
Y0012065D02*
D03*
X0020955Y0027051D02*
D03*
X0020447Y0029083D02*
D03*
X0020955Y002794D02*
D03*
X0020066Y0034417D02*
D03*
X00212535Y003446D02*
D03*
X0022352Y0048006D02*
D03*
X0022987Y0020193D02*
D03*
X0024003D02*
D03*
X0025019D02*
D03*
X0022987Y0021336D02*
D03*
X003048Y0020828D02*
D03*
X0024003Y0021336D02*
D03*
X0025019D02*
D03*
X0031369Y0021463D02*
D03*
Y0022733D02*
D03*
X0031623Y002032D02*
D03*
X0032004Y0027051D02*
D03*
X00224924Y00322285D02*
D03*
Y00331175D02*
D03*
X0025273Y0043307D02*
D03*
X0024003D02*
D03*
X0025273Y0044196D02*
D03*
X0023495Y0048006D02*
D03*
X0024003Y0044196D02*
D03*
X0024638Y0048006D02*
D03*
X0030607Y004445D02*
D03*
X0029337D02*
D03*
X0033401Y0046482D02*
D03*
X0028067Y0041783D02*
D03*
Y0042799D02*
D03*
X0033401Y0047498D02*
D03*
X0038354Y0014478D02*
D03*
X0044069Y0010922D02*
D03*
X0043053Y0012065D02*
D03*
Y0010922D02*
D03*
X0044069Y0012065D02*
D03*
X0047879Y0011684D02*
D03*
Y00127D02*
D03*
Y0010668D02*
D03*
X0050165Y0017145D02*
D03*
Y0018161D02*
D03*
X0057023Y0010668D02*
D03*
X0037338Y0022606D02*
D03*
X0038989Y0024003D02*
D03*
Y0025654D02*
D03*
X0037211Y0028448D02*
D03*
X0036322Y002921D02*
D03*
Y0030099D02*
D03*
Y0028448D02*
D03*
X0037211Y0030099D02*
D03*
Y002921D02*
D03*
X00381Y0028448D02*
D03*
Y0030099D02*
D03*
Y002921D02*
D03*
X0050165Y0019304D02*
D03*
X0049022Y0020193D02*
D03*
X0054991Y002032D02*
D03*
X0056515Y0020828D02*
D03*
X0044831Y002286D02*
D03*
X0048387Y00254D02*
D03*
X00461044D02*
D03*
X0047244D02*
D03*
X0044831Y0023876D02*
D03*
X00461044Y0026797D02*
D03*
X0048387D02*
D03*
X0046228Y0049149D02*
D03*
X0047244Y0026797D02*
D03*
X00493996D02*
D03*
X0049911Y0021209D02*
D03*
X00493996Y00254D02*
D03*
X0050165Y0031623D02*
D03*
X0050927D02*
D03*
X0051689D02*
D03*
X0013716Y0050165D02*
D03*
X0015621Y0050419D02*
D03*
X001651D02*
D03*
X0024384Y0074803D02*
D03*
X0023622D02*
D03*
X0039243Y0060833D02*
D03*
Y0063754D02*
D03*
Y006223D02*
D03*
Y005588D02*
D03*
Y005715D02*
D03*
X0041275Y005588D02*
D03*
X0039243Y0059055D02*
D03*
X0041402Y0063754D02*
D03*
X0036703Y0064008D02*
D03*
X0042926Y005588D02*
D03*
X0046228Y0050419D02*
D03*
X0044704Y005588D02*
D03*
Y005715D02*
D03*
X0050165Y0054864D02*
D03*
X0056769D02*
D03*
X0044323Y0067437D02*
D03*
X0044704Y0058801D02*
D03*
X00506835Y00818114D02*
D03*
X0050673Y0082931D02*
D03*
X0057277Y0079629D02*
D03*
X00517701Y0081105D02*
D03*
X0059796Y00128929D02*
D03*
X0059309Y0014732D02*
D03*
X0059817Y0013843D02*
D03*
X00650073Y00152614D02*
D03*
X00664043D02*
D03*
X0066548Y0011938D02*
D03*
X0071755Y0014732D02*
D03*
X0080518Y0013843D02*
D03*
Y0014732D02*
D03*
X0081661Y0013843D02*
D03*
X0080772Y0016129D02*
D03*
X0081661Y0014732D02*
D03*
X0059817Y0020828D02*
D03*
X0061214Y0020447D02*
D03*
X0058801Y0020828D02*
D03*
X0057531D02*
D03*
X0058293Y0034036D02*
D03*
X00650073Y0016401D02*
D03*
Y0017544D02*
D03*
X00664043Y0016401D02*
D03*
Y00185566D02*
D03*
Y0017544D02*
D03*
X005842Y0031623D02*
D03*
Y0032639D02*
D03*
X00650073Y00185566D02*
D03*
X0056642Y0036068D02*
D03*
Y0036957D02*
D03*
Y0041021D02*
D03*
Y0039116D02*
D03*
X0058293Y0035052D02*
D03*
X0056642Y00381D02*
D03*
X0070358Y0049022D02*
D03*
X0060833D02*
D03*
X008001Y0024765D02*
D03*
X0080391Y0026035D02*
D03*
Y0027178D02*
D03*
Y002921D02*
D03*
Y0028321D02*
D03*
X0080772Y0017272D02*
D03*
X0081026Y0023241D02*
D03*
X0081153Y0019812D02*
D03*
X0081026Y0022352D02*
D03*
X0081153Y0020828D02*
D03*
X0080899Y0033274D02*
D03*
Y0034163D02*
D03*
X008128Y002667D02*
D03*
Y0032131D02*
D03*
X0075946Y0047244D02*
D03*
X0071882Y0049022D02*
D03*
X0075057D02*
D03*
X0073533D02*
D03*
X0079629Y0037592D02*
D03*
X0080772Y0036449D02*
D03*
X0079629D02*
D03*
X00807623Y00376099D02*
D03*
X0076454Y0049022D02*
D03*
X0080391Y0040005D02*
D03*
Y0038989D02*
D03*
X0082169Y0007874D02*
D03*
Y0005969D02*
D03*
X0084455Y002159D02*
D03*
X0082169Y002667D02*
D03*
Y0032131D02*
D03*
X0084455Y0035687D02*
D03*
X0085217Y004699D02*
D03*
X0063246Y0051689D02*
D03*
X0063627Y0050165D02*
D03*
X0065659Y0049911D02*
D03*
X0065024Y0051689D02*
D03*
X0066802Y0053975D02*
D03*
X0061468Y0064897D02*
D03*
X005842Y0068834D02*
D03*
X0060071D02*
D03*
X0070358Y0050419D02*
D03*
Y005207D02*
D03*
X0076454Y0050673D02*
D03*
Y0051943D02*
D03*
X0070358Y0053594D02*
D03*
X0071755Y0054991D02*
D03*
X0059944Y0080518D02*
D03*
X0060598Y0083166D02*
D03*
X0064389Y0077216D02*
D03*
X0066421Y0077724D02*
D03*
X0068453Y0077216D02*
D03*
X00703014Y00778471D02*
D03*
X0077597Y0078359D02*
D03*
X0079883Y00508D02*
D03*
Y0049784D02*
D03*
X0089281Y0051943D02*
D03*
X0086741Y0069977D02*
D03*
X0088265Y0052832D02*
D03*
X0086614Y0073406D02*
D03*
X0046101Y0081661D02*
D03*
X0040386Y0082169D02*
D03*
X004699Y0074549D02*
D03*
X00345561Y00746571D02*
D03*
Y00736411D02*
D03*
X0034544Y0072517D02*
D03*
X0036322Y0082169D02*
D03*
X0030607Y0045339D02*
D03*
X0029337D02*
D03*
X0027051Y0041783D02*
D03*
Y0042799D02*
D03*
X0084074Y0058801D02*
D03*
X0054991Y0013589D02*
D03*
X0056134Y0051689D02*
D03*
X0064262Y0065405D02*
D03*
Y0066294D02*
D03*
X0029756Y007827D02*
D03*
X0029972Y0075438D02*
D03*
X0035814Y0078613D02*
D03*
X0060579Y0084709D02*
D03*
X0016303Y00419788D02*
D03*
Y00409628D02*
D03*
X0017446Y00419788D02*
D03*
Y00409628D02*
D03*
X0051181Y0046228D02*
D03*
X0018542Y0078613D02*
D03*
X0054356Y0072263D02*
D03*
X0056134Y0046228D02*
D03*
X0056261Y0053213D02*
D03*
X0066802Y0051562D02*
D03*
X0070231Y0054991D02*
D03*
X0086741Y0059817D02*
D03*
Y0063119D02*
D03*
X0056261Y0072263D02*
D03*
X0060706Y0074295D02*
D03*
X0055753Y0079248D02*
D03*
X0060706Y0077343D02*
D03*
X0056769Y0082677D02*
D03*
X0060706Y0075819D02*
D03*
X0086703Y0066421D02*
D03*
X00866736Y00682821D02*
D03*
X0038227Y0074676D02*
D03*
Y0073025D02*
D03*
X0041021Y0021971D02*
D03*
X0037973Y002032D02*
D03*
X0044577Y002159D02*
D03*
X0039497Y0020955D02*
D03*
X0018034Y0049403D02*
D03*
X0019177D02*
D03*
X0018034Y0048387D02*
D03*
X0019177D02*
D03*
X0042164Y0021463D02*
D03*
X0064262Y0071501D02*
D03*
Y0070231D02*
D03*
X004826Y00457962D02*
D03*
X0063754Y0067437D02*
D03*
X0047371Y0045212D02*
D03*
X0033782Y0011938D02*
D03*
X0071755Y0016256D02*
D03*
X0064516Y0012065D02*
D03*
X0038989Y002667D02*
D03*
X0035687Y0026416D02*
D03*
X0039624Y0027432D02*
D03*
X0014605Y0058039D02*
D03*
X0082677Y0062738D02*
D03*
Y0064643D02*
D03*
X00826461Y00662631D02*
D03*
X0053213Y0078359D02*
D03*
X00542667Y00810563D02*
D03*
X0054229Y0062357D02*
D03*
Y0059817D02*
D03*
X0057912Y0062357D02*
D03*
Y0059817D02*
D03*
X0080391Y0074422D02*
D03*
X0076454Y0080264D02*
D03*
X0059817Y0046228D02*
D03*
X0068345Y0053956D02*
D03*
X0052832Y0046228D02*
D03*
X0054591Y0046247D02*
D03*
X0048895Y0032004D02*
D03*
X0032258Y0068707D02*
D03*
X0052832Y0025019D02*
D03*
X0032258Y0067437D02*
D03*
X0022225Y0080645D02*
D03*
X0082804Y0070739D02*
D03*
D155*
X0083693Y0080264D02*
D03*
X0033655Y0082423D02*
D03*
X0015875Y0066929D02*
D03*
X00309564Y00669606D02*
D03*
X0023876Y0083312D02*
D03*
Y0082169D02*
D03*
X0026035Y0078613D02*
D03*
X0025019Y0079629D02*
D03*
X0080518Y0077216D02*
D03*
X0079248Y0078359D02*
D03*
X0029845Y0081534D02*
D03*
X00582758Y00461576D02*
D03*
X0031115Y0025527D02*
D03*
X00350857Y00239438D02*
D03*
X0040386Y0036449D02*
D03*
X002159Y007493D02*
D03*
X0027432Y0074549D02*
D03*
X004445Y0068707D02*
D03*
X0053467Y0053975D02*
D03*
X00794218Y00479993D02*
D03*
X00865761Y00491835D02*
D03*
X0088265Y0049149D02*
D03*
X0061468Y0066294D02*
D03*
X0080518Y0075692D02*
D03*
X0031496Y0036449D02*
D03*
X004318Y0028448D02*
D03*
X0083566Y0026924D02*
D03*
X0084709D02*
D03*
X0080899Y0043561D02*
D03*
Y0042037D02*
D03*
X0082677Y0043561D02*
D03*
Y0042037D02*
D03*
X0084963Y0030353D02*
D03*
X0084074Y0032385D02*
D03*
X0084201Y0018288D02*
D03*
X008382Y001524D02*
D03*
X008509D02*
D03*
X0084455Y0014097D02*
D03*
D156*
X00286418Y00615995D02*
D03*
X00052431Y00010171D02*
D03*
X00043431D02*
D03*
X00079431D02*
D03*
X00061431D02*
D03*
X00070431D02*
D03*
X00012229Y00022764D02*
D03*
X0001017Y00031525D02*
D03*
X00034431Y00010171D02*
D03*
X00017654Y00015583D02*
D03*
X00025484Y00011144D02*
D03*
X00142431Y00010171D02*
D03*
X00133431D02*
D03*
X00169431D02*
D03*
X00151431D02*
D03*
X00160431D02*
D03*
X00097431D02*
D03*
X00088431D02*
D03*
X00124431D02*
D03*
X00106431D02*
D03*
X00115431D02*
D03*
X00178431D02*
D03*
X0019643D02*
D03*
X0018743D02*
D03*
X00201502Y00017606D02*
D03*
X00208221Y00023593D02*
D03*
X00216873Y00026071D02*
D03*
X00270873Y0002617D02*
D03*
X00252873D02*
D03*
X00261873D02*
D03*
X00234873D02*
D03*
X00225873D02*
D03*
X00243873D02*
D03*
X00324873D02*
D03*
X00315872D02*
D03*
X00351872D02*
D03*
X00333872D02*
D03*
X00342872D02*
D03*
X00279873D02*
D03*
X00306873D02*
D03*
X00288873D02*
D03*
X00297873D02*
D03*
X0001017Y00058525D02*
D03*
Y00067525D02*
D03*
Y00040525D02*
D03*
Y00049525D02*
D03*
Y00085525D02*
D03*
Y00076525D02*
D03*
Y00094525D02*
D03*
X0023495Y0049276D02*
D03*
X00414872Y0002617D02*
D03*
X00405872D02*
D03*
X00432872D02*
D03*
X00423872D02*
D03*
X00441872D02*
D03*
X00360872D02*
D03*
X00378872D02*
D03*
X00369872D02*
D03*
X0036068Y0014224D02*
D03*
X00396872Y0002617D02*
D03*
X00387872D02*
D03*
X00450872D02*
D03*
X00477872D02*
D03*
X00468872D02*
D03*
X00504872D02*
D03*
X00486872D02*
D03*
X00495872D02*
D03*
X00459872D02*
D03*
X00513872Y00026171D02*
D03*
X00522872Y00026171D02*
D03*
X0049149Y0013843D02*
D03*
X00531872Y00026171D02*
D03*
X00540872Y00026171D02*
D03*
X00549872Y00026171D02*
D03*
X00558872Y00026171D02*
D03*
X00567872Y00026171D02*
D03*
X0039878Y0019431D02*
D03*
X0042164Y0018669D02*
D03*
X0039878D02*
D03*
X004699D02*
D03*
X00446006Y00186693D02*
D03*
X004699Y0019431D02*
D03*
X0042164D02*
D03*
X00446006Y00194313D02*
D03*
X0023495Y0052451D02*
D03*
Y0053213D02*
D03*
Y0050165D02*
D03*
Y0051689D02*
D03*
Y0050927D02*
D03*
X0023368Y0055372D02*
D03*
X0023495Y0053975D02*
D03*
X00010171Y00835087D02*
D03*
Y00826087D02*
D03*
Y00817087D02*
D03*
Y00853087D02*
D03*
Y00844087D02*
D03*
X0028067Y00597154D02*
D03*
X00010171Y00862087D02*
D03*
X00010375Y00871085D02*
D03*
X00013495Y00879527D02*
D03*
X0001971Y00886037D02*
D03*
X0002803Y00889467D02*
D03*
X00046023Y00889826D02*
D03*
X00073023D02*
D03*
X00055023D02*
D03*
X00064023D02*
D03*
X00037023D02*
D03*
X00118023D02*
D03*
X00109023D02*
D03*
X00145023D02*
D03*
X00127023D02*
D03*
X00136023D02*
D03*
X00100023D02*
D03*
X00082023D02*
D03*
X00091023D02*
D03*
X00219902Y00873824D02*
D03*
X00228902Y00873824D02*
D03*
X00237902Y00873824D02*
D03*
X00246902Y00873824D02*
D03*
X00255902Y00873824D02*
D03*
X00172023Y00889826D02*
D03*
X00163023D02*
D03*
X00198744Y00887603D02*
D03*
X00181023Y00889826D02*
D03*
X00190023D02*
D03*
X00154023D02*
D03*
X00264902Y00873824D02*
D03*
X00273902Y00873824D02*
D03*
X00282902Y00873824D02*
D03*
X00291902Y00873824D02*
D03*
X00300902Y00873824D02*
D03*
X00203387Y00879893D02*
D03*
X00309902Y00873825D02*
D03*
X0021099Y00875078D02*
D03*
X00318902Y00873825D02*
D03*
X00327902Y00873825D02*
D03*
X00336902Y00873825D02*
D03*
X00345902Y00873825D02*
D03*
X00354902Y00873825D02*
D03*
X00363902Y00873825D02*
D03*
X00372902Y00873825D02*
D03*
X00381902Y00873825D02*
D03*
X00390902Y00873825D02*
D03*
X00399902Y00873825D02*
D03*
X00408902Y00873826D02*
D03*
X00435902Y00873826D02*
D03*
X00417902D02*
D03*
X00426902D02*
D03*
X00498902D02*
D03*
X00507902D02*
D03*
X00453902D02*
D03*
X00444902D02*
D03*
X00480902D02*
D03*
X00462902D02*
D03*
X00471902D02*
D03*
X00543902D02*
D03*
X00534902D02*
D03*
X00570902D02*
D03*
X00552902D02*
D03*
X00561902D02*
D03*
X00525902D02*
D03*
X00489902D02*
D03*
X00516902D02*
D03*
X00576872Y00026171D02*
D03*
X00585872Y00026171D02*
D03*
X00594872Y00026171D02*
D03*
X00603872Y00026171D02*
D03*
X00612872Y00026172D02*
D03*
X00621872Y00026172D02*
D03*
X00630872Y00026172D02*
D03*
X00639872Y00026172D02*
D03*
X00648872Y00026172D02*
D03*
X00657872Y00026172D02*
D03*
X00666872Y00026172D02*
D03*
X00675872Y00026172D02*
D03*
X00684872Y00026172D02*
D03*
X00693872Y00026172D02*
D03*
X00749685Y00010171D02*
D03*
X00767685D02*
D03*
X00758685D02*
D03*
X00785685D02*
D03*
X00776685D02*
D03*
X00812685D02*
D03*
X00794685D02*
D03*
X00803685D02*
D03*
X00702872Y00026172D02*
D03*
X00711872Y00026172D02*
D03*
X00731693Y0001055D02*
D03*
X00720652Y00024198D02*
D03*
X0072772Y00018625D02*
D03*
X00740685Y00010171D02*
D03*
X00830685D02*
D03*
X00821685D02*
D03*
X00866685D02*
D03*
X00839685D02*
D03*
X00875685D02*
D03*
X00884685D02*
D03*
X00893685D02*
D03*
X00857685D02*
D03*
X00848685D02*
D03*
X00902669Y00010701D02*
D03*
X00910898Y00014346D02*
D03*
X00916874Y00021076D02*
D03*
X00919681Y00029627D02*
D03*
X00919829Y00047626D02*
D03*
Y00083626D02*
D03*
Y00092626D02*
D03*
Y00056626D02*
D03*
Y00074626D02*
D03*
Y00065626D02*
D03*
Y00038626D02*
D03*
X00903829Y00166979D02*
D03*
Y00175979D02*
D03*
X00906356Y00140316D02*
D03*
X00903829Y00157979D02*
D03*
X00903919Y0014898D02*
D03*
X00903829Y00211979D02*
D03*
Y00220979D02*
D03*
Y00184979D02*
D03*
Y00202979D02*
D03*
Y00193979D02*
D03*
X00919829Y00101626D02*
D03*
Y00119626D02*
D03*
Y00110626D02*
D03*
X00912304Y00133562D02*
D03*
X00919829Y00128626D02*
D03*
X00903829Y00256979D02*
D03*
Y00265979D02*
D03*
Y00229979D02*
D03*
Y00247979D02*
D03*
Y00238979D02*
D03*
X00903829Y00310979D02*
D03*
Y00319979D02*
D03*
Y00283979D02*
D03*
Y00301979D02*
D03*
Y00292979D02*
D03*
Y00274979D02*
D03*
Y00355979D02*
D03*
Y00364979D02*
D03*
Y00328979D02*
D03*
Y00346979D02*
D03*
Y00337979D02*
D03*
Y00382979D02*
D03*
Y00391979D02*
D03*
Y00373979D02*
D03*
X00903829Y00490979D02*
D03*
Y00481979D02*
D03*
Y00427979D02*
D03*
Y00436979D02*
D03*
Y00400979D02*
D03*
Y00418979D02*
D03*
Y00409979D02*
D03*
Y00472979D02*
D03*
Y00445979D02*
D03*
Y00463979D02*
D03*
Y00454979D02*
D03*
X00597901Y00873826D02*
D03*
X00588901D02*
D03*
X00624902D02*
D03*
X00606902D02*
D03*
X00615901D02*
D03*
X00579902D02*
D03*
X00642901D02*
D03*
X00633901D02*
D03*
X00669901D02*
D03*
X00651901D02*
D03*
X00660901D02*
D03*
X00687901D02*
D03*
X00678901D02*
D03*
X00705901Y00873826D02*
D03*
X00696901Y00873826D02*
D03*
X00714897Y0087411D02*
D03*
X00723279Y00877388D02*
D03*
X0072941Y00883977D02*
D03*
X0073625Y00889826D02*
D03*
X0074525D02*
D03*
X0076325D02*
D03*
X0075425D02*
D03*
X0079025D02*
D03*
X0077225D02*
D03*
X0078125D02*
D03*
X0087376Y0051943D02*
D03*
X00903829Y00499979D02*
D03*
Y00508979D02*
D03*
X00903829Y00526979D02*
D03*
Y00544979D02*
D03*
Y00535979D02*
D03*
Y00580979D02*
D03*
Y00589979D02*
D03*
Y00553979D02*
D03*
Y00571979D02*
D03*
Y00562979D02*
D03*
Y00517979D02*
D03*
Y00616978D02*
D03*
Y00625979D02*
D03*
Y00598979D02*
D03*
Y00607979D02*
D03*
X00903829Y00688978D02*
D03*
Y00724978D02*
D03*
Y00733978D02*
D03*
Y00697978D02*
D03*
Y00715978D02*
D03*
Y00706978D02*
D03*
Y00661978D02*
D03*
Y00670978D02*
D03*
Y00634978D02*
D03*
Y00652979D02*
D03*
Y00643979D02*
D03*
Y00679978D02*
D03*
X0080825Y00889826D02*
D03*
X0079925D02*
D03*
X0083525D02*
D03*
X0081725D02*
D03*
X0082625D02*
D03*
X0084425D02*
D03*
X0087125D02*
D03*
X0085325D02*
D03*
X0086225D02*
D03*
X00903829Y00742978D02*
D03*
Y00751978D02*
D03*
X00904767Y00760929D02*
D03*
X00909184Y00768771D02*
D03*
X00916575Y00773906D02*
D03*
X00919829Y00809297D02*
D03*
Y00800297D02*
D03*
Y00791297D02*
D03*
Y00782297D02*
D03*
X00919391Y00872287D02*
D03*
X00915867Y00880568D02*
D03*
X00919829Y00845297D02*
D03*
Y00863297D02*
D03*
Y00854297D02*
D03*
X0088025Y00889826D02*
D03*
X00909253Y00886672D02*
D03*
X0088925Y00889826D02*
D03*
X0089825Y00889848D02*
D03*
X00919829Y00818297D02*
D03*
Y00836297D02*
D03*
Y00827297D02*
D03*
X00360172Y00164084D02*
D03*
X002032Y0058674D02*
D03*
X0019939Y0057277D02*
D03*
X00203262Y00567838D02*
D03*
X0033401Y0060325D02*
D03*
X0031877D02*
D03*
X0032385Y0058674D02*
D03*
X0017272Y005969D02*
D03*
X001651Y0060325D02*
D03*
X0016891Y0056261D02*
D03*
M02*
