G04*
G04 #@! TF.GenerationSoftware,Altium Limited,Altium Designer,25.7.1 (20)*
G04*
G04 Layer_Color=16711935*
%FSTAX44Y44*%
%MOMM*%
G71*
G04*
G04 #@! TF.SameCoordinates,A1608CCB-D3DB-418D-BBF6-302354173E42*
G04*
G04*
G04 #@! TF.FilePolarity,Positive*
G04*
G01*
G75*
%ADD10C,0.2000*%
D10*
X00922Y00765071D02*
G03*
X00914Y00757071I0J-00008D01*
G01*
X00216Y00016D02*
G03*
X00208Y00008I0J-00008D01*
G01*
X00922Y00765071D02*
G03*
X0093Y00773071I0J00008D01*
G01*
X002Y0D02*
G03*
X00208Y00008I0J00008D01*
G01*
X00207893Y00891996D02*
G03*
X00199893Y00899996I-00008J0D01*
G01*
X00729893D02*
G03*
X00721893Y00891996I0J-00008D01*
G01*
X0Y007895D02*
G03*
X00008Y007815I00008J0D01*
G01*
X00914Y00148D02*
G03*
X00922Y0014I00008J0D01*
G01*
X00898Y0D02*
G03*
X0093Y00032I0J00032D01*
G01*
X00713893Y00883996D02*
G03*
X00721893Y00891996I0J00008D01*
G01*
X00031929Y009D02*
G03*
X0Y00868I00000071J-00032D01*
G01*
X0093Y00132D02*
G03*
X00922Y0014I-00008J0D01*
G01*
X00007999Y00131302D02*
G03*
X-00000001Y00123302I0J-00008D01*
G01*
X00009999Y00131297D02*
G03*
X00017999Y00139297I0J00008D01*
G01*
X00722Y00008D02*
G03*
X00714Y00016I-00008J0D01*
G01*
X0093Y00868071D02*
G03*
X00898071Y009I-00032J-00000071D01*
G01*
X00018Y007735D02*
G03*
X0001Y007815I-00008J0D01*
G01*
X00207893Y00891996D02*
G03*
X00215893Y00883996I00008J0D01*
G01*
X0Y00032D02*
G03*
X00032Y0I00032J0D01*
G01*
X00722Y00008D02*
G03*
X0073Y0I00008J0D01*
G01*
X0Y007895D02*
Y00868D01*
X00008Y007815D02*
X0001D01*
X0001Y007815D01*
X00018Y00139298D02*
Y007735D01*
X00017999Y00139297D02*
X00018Y00139298D01*
X00008004Y00131297D02*
X00009999D01*
X00007999Y00131302D02*
X00008004Y00131297D01*
X-00000001Y00032001D02*
Y00123302D01*
Y00032001D02*
X0Y00032D01*
X00032Y0D02*
X002D01*
X00216Y00016D02*
X00714D01*
X0073Y0D02*
X00898D01*
X0093Y00032D02*
Y00132D01*
X00914Y00148D02*
Y00757071D01*
X00914Y00757071D02*
X00914Y00757071D01*
X0093Y00773071D02*
Y00868071D01*
X00729897Y009D02*
X00898071D01*
X00729893Y00899996D02*
X00729897Y009D01*
X00215893Y00883996D02*
X00713893D01*
X00031933Y00899996D02*
X00199893D01*
X00031929Y009D02*
X00031933Y00899996D01*
M02*
