G04*
G04 #@! TF.GenerationSoftware,Altium Limited,Altium Designer,24.1.2 (44)*
G04*
G04 Layer_Physical_Order=2*
G04 Layer_Color=36540*
%FSTAX44Y44*%
%MOMM*%
G71*
G04*
G04 #@! TF.SameCoordinates,859C9C61-CEB6-4123-A3A4-69990DFF9966*
G04*
G04*
G04 #@! TF.FilePolarity,Positive*
G04*
G01*
G75*
%ADD130C,1.6000*%
%ADD131R,1.6000X1.6000*%
%ADD132C,1.5300*%
%ADD134R,1.5300X1.5300*%
%ADD135C,0.4000*%
%ADD136C,4.4000*%
G36*
X00202079Y00897274D02*
X00203933Y00896036D01*
X00205171Y00894182D01*
X00205367Y00893197D01*
X00205535Y00891996D01*
X00205535D01*
X00205888Y00889315D01*
X00206922Y00886817D01*
X00208569Y00884671D01*
X00210714Y00883025D01*
X00213212Y00881991D01*
X00215893Y00881637D01*
Y00881682D01*
X00713893D01*
Y00881637D01*
X00716574Y00881991D01*
X00719072Y00883025D01*
X00721218Y00884671D01*
X00722864Y00886817D01*
X00723899Y00889315D01*
X00724252Y00891996D01*
X00724252D01*
X00724419Y00893197D01*
X00724615Y00894182D01*
X00725854Y00896036D01*
X00727707Y00897274D01*
X00729825Y00897695D01*
X00729893Y00897682D01*
X00729912Y00897685D01*
X00898071D01*
X00898083Y00897688D01*
X00902645Y00897329D01*
X00907176Y00896241D01*
X00911481Y00894458D01*
X00915454Y00892023D01*
X00918997Y00888997D01*
X00922023Y00885454D01*
X00924458Y00881481D01*
X00926241Y00877176D01*
X00927329Y00872645D01*
X00927688Y00868083D01*
X00927685Y00868071D01*
Y00773071D01*
X00927699Y00773002D01*
X00927278Y00770885D01*
X0092604Y00769031D01*
X00924186Y00767793D01*
X00923201Y00767597D01*
X00922Y0076743D01*
Y00767429D01*
X00919319Y00767076D01*
X00916821Y00766042D01*
X00914675Y00764395D01*
X00913029Y0076225D01*
X00911994Y00759752D01*
X00911641Y00757071D01*
X00911685D01*
X00911685Y0075707D01*
Y00148D01*
X00911641D01*
X00911994Y00145319D01*
X00913029Y00142821D01*
X00914675Y00140675D01*
X00916821Y00139029D01*
X00919319Y00137994D01*
X00922Y00137641D01*
Y00137641D01*
X00923201Y00137474D01*
X00924186Y00137278D01*
X0092604Y0013604D01*
X00927278Y00134186D01*
X00927699Y00132069D01*
X00927685Y00132D01*
Y00032D01*
X00927692Y00031967D01*
X00927329Y00027355D01*
X00926241Y00022824D01*
X00924458Y00018519D01*
X00922023Y00014546D01*
X00918997Y00011003D01*
X00915454Y00007977D01*
X00911481Y00005542D01*
X00907176Y00003759D01*
X00902645Y00002671D01*
X00898033Y00002308D01*
X00898Y00002315D01*
X0073D01*
X00729931Y00002301D01*
X00727814Y00002722D01*
X0072596Y0000396D01*
X00724722Y00005814D01*
X00724526Y00006799D01*
X00724359Y00008D01*
X00724359D01*
X00724006Y00010681D01*
X00722971Y00013179D01*
X00721325Y00015325D01*
X00719179Y00016971D01*
X00716681Y00018006D01*
X00714Y00018359D01*
Y00018314D01*
X00216D01*
Y00018359D01*
X00213319Y00018006D01*
X00210821Y00016971D01*
X00208675Y00015325D01*
X00207029Y00013179D01*
X00205994Y00010681D01*
X00205641Y00008D01*
X00205641D01*
X00205474Y00006799D01*
X00205278Y00005814D01*
X0020404Y0000396D01*
X00202186Y00002722D01*
X00200068Y00002301D01*
X002Y00002315D01*
X00032D01*
X00031967Y00002308D01*
X00027355Y00002671D01*
X00022824Y00003759D01*
X00018519Y00005542D01*
X00014546Y00007977D01*
X00011003Y00011003D01*
X00007977Y00014546D01*
X00005542Y00018519D01*
X00003759Y00022824D01*
X00002671Y00027355D01*
X00002403Y00030766D01*
X00002315Y00032D01*
X00002314Y0003325D01*
X00002314Y00033264D01*
X00002314Y00033068D01*
X00002314Y0003325D01*
Y00123302D01*
X000023Y0012337D01*
X00002721Y00125488D01*
X0000396Y00127341D01*
X00005813Y0012858D01*
X00007921Y00128999D01*
X00008004Y00128982D01*
X00009999D01*
Y00128938D01*
X0001268Y00129291D01*
X00015178Y00130326D01*
X00017324Y00131972D01*
X0001897Y00134118D01*
X00020005Y00136616D01*
X00020358Y00139297D01*
X00020315D01*
X00020315Y00139298D01*
Y007735D01*
X00020359D01*
X00020006Y00776181D01*
X00018971Y00778679D01*
X00017325Y00780825D01*
X00015179Y00782471D01*
X00012681Y00783506D01*
X0001Y00783859D01*
Y00783814D01*
X0001Y00783814D01*
X00008D01*
X00007932Y00783801D01*
X00005814Y00784222D01*
X0000396Y0078546D01*
X00002722Y00787314D01*
X00002301Y00789432D01*
X00002315Y007895D01*
Y00868D01*
X00002308Y00868033D01*
X00002671Y00872645D01*
X00003759Y00877176D01*
X00005542Y00881481D01*
X00007977Y00885454D01*
X00011003Y00888997D01*
X00014546Y00892023D01*
X00018519Y00894458D01*
X00022824Y00896241D01*
X00027355Y00897329D01*
X00031906Y00897687D01*
X00031933Y00897682D01*
X00199893D01*
X00199962Y00897695D01*
X00202079Y00897274D01*
D02*
G37*
%LPC*%
G36*
X00828296Y00852252D02*
X00809756D01*
Y00833712D01*
X00828296D01*
Y00852252D01*
D02*
G37*
G36*
X00744046D02*
X00741605D01*
X00739248Y0085162D01*
X00737134Y00850399D01*
X00735408Y00848674D01*
X00734188Y0084656D01*
X00733556Y00844202D01*
Y00841761D01*
X00734188Y00839404D01*
X00735408Y0083729D01*
X00737134Y00835564D01*
X00739248Y00834343D01*
X00741605Y00833712D01*
X00744046D01*
X00746404Y00834343D01*
X00748518Y00835564D01*
X00750244Y0083729D01*
X00751464Y00839404D01*
X00752096Y00841761D01*
Y00844202D01*
X00751464Y0084656D01*
X00750244Y00848674D01*
X00748518Y00850399D01*
X00746404Y0085162D01*
X00744046Y00852252D01*
D02*
G37*
G36*
X00718646D02*
X00716205D01*
X00713848Y0085162D01*
X00711734Y00850399D01*
X00710008Y00848674D01*
X00708788Y0084656D01*
X00708156Y00844202D01*
Y00841761D01*
X00708788Y00839404D01*
X00710008Y0083729D01*
X00711734Y00835564D01*
X00713848Y00834343D01*
X00716205Y00833712D01*
X00718646D01*
X00721004Y00834343D01*
X00723118Y00835564D01*
X00724844Y0083729D01*
X00726064Y00839404D01*
X00726696Y00841761D01*
Y00844202D01*
X00726064Y0084656D01*
X00724844Y00848674D01*
X00723118Y00850399D01*
X00721004Y0085162D01*
X00718646Y00852252D01*
D02*
G37*
G36*
X00693246D02*
X00690805D01*
X00688448Y0085162D01*
X00686334Y00850399D01*
X00684608Y00848674D01*
X00683388Y0084656D01*
X00682756Y00844202D01*
Y00841761D01*
X00683388Y00839404D01*
X00684608Y0083729D01*
X00686334Y00835564D01*
X00688448Y00834343D01*
X00690805Y00833712D01*
X00693246D01*
X00695604Y00834343D01*
X00697718Y00835564D01*
X00699444Y0083729D01*
X00700664Y00839404D01*
X00701296Y00841761D01*
Y00844202D01*
X00700664Y0084656D01*
X00699444Y00848674D01*
X00697718Y00850399D01*
X00695604Y0085162D01*
X00693246Y00852252D01*
D02*
G37*
G36*
X00667846D02*
X00665405D01*
X00663048Y0085162D01*
X00660934Y00850399D01*
X00659208Y00848674D01*
X00657988Y0084656D01*
X00657356Y00844202D01*
Y00841761D01*
X00657988Y00839404D01*
X00659208Y0083729D01*
X00660934Y00835564D01*
X00663048Y00834343D01*
X00665405Y00833712D01*
X00667846D01*
X00670204Y00834343D01*
X00672318Y00835564D01*
X00674044Y0083729D01*
X00675264Y00839404D01*
X00675896Y00841761D01*
Y00844202D01*
X00675264Y0084656D01*
X00674044Y00848674D01*
X00672318Y00850399D01*
X00670204Y0085162D01*
X00667846Y00852252D01*
D02*
G37*
G36*
X00642446D02*
X00640005D01*
X00637648Y0085162D01*
X00635534Y00850399D01*
X00633808Y00848674D01*
X00632588Y0084656D01*
X00631956Y00844202D01*
Y00841761D01*
X00632588Y00839404D01*
X00633808Y0083729D01*
X00635534Y00835564D01*
X00637648Y00834343D01*
X00640005Y00833712D01*
X00642446D01*
X00644804Y00834343D01*
X00646918Y00835564D01*
X00648644Y0083729D01*
X00649864Y00839404D01*
X00650496Y00841761D01*
Y00844202D01*
X00649864Y0084656D01*
X00648644Y00848674D01*
X00646918Y00850399D01*
X00644804Y0085162D01*
X00642446Y00852252D01*
D02*
G37*
G36*
X00794909Y00852732D02*
X00792342D01*
X00789863Y00852067D01*
X00787639Y00850784D01*
X00785824Y00848968D01*
X0078454Y00846745D01*
X00783876Y00844265D01*
Y00841698D01*
X0078454Y00839218D01*
X00785824Y00836995D01*
X00787639Y0083518D01*
X00789863Y00833896D01*
X00792342Y00833232D01*
X00794909D01*
X00797389Y00833896D01*
X00799612Y0083518D01*
X00801428Y00836995D01*
X00802711Y00839218D01*
X00803376Y00841698D01*
Y00844265D01*
X00802711Y00846745D01*
X00801428Y00848968D01*
X00799612Y00850784D01*
X00797389Y00852067D01*
X00794909Y00852732D01*
D02*
G37*
G36*
X00334221Y00834325D02*
X0033273D01*
X00331351Y00833754D01*
X00330297Y00832699D01*
X00329726Y00831321D01*
Y00829829D01*
X00330297Y00828451D01*
X00331351Y00827396D01*
X0033273Y00826825D01*
X00334221D01*
X003356Y00827396D01*
X00336655Y00828451D01*
X00337226Y00829829D01*
Y00831321D01*
X00336655Y00832699D01*
X003356Y00833754D01*
X00334221Y00834325D01*
D02*
G37*
G36*
X00495546Y0083052D02*
X00494054D01*
X00492676Y00829949D01*
X00491621Y00828894D01*
X0049105Y00827516D01*
Y00826024D01*
X00491621Y00824646D01*
X00492676Y00823591D01*
X00494054Y0082302D01*
X00495546D01*
X00496924Y00823591D01*
X00497979Y00824646D01*
X0049855Y00826024D01*
Y00827516D01*
X00497979Y00828894D01*
X00496924Y00829949D01*
X00495546Y0083052D01*
D02*
G37*
G36*
X004719Y00816265D02*
X004706D01*
X00469398Y00815767D01*
X00468478Y00814847D01*
X0046798Y00813645D01*
Y00812345D01*
X00468478Y00811143D01*
X00469398Y00810223D01*
X004706Y00809725D01*
X004719D01*
X00473102Y00810223D01*
X00474022Y00811143D01*
X0047452Y00812345D01*
Y00813645D01*
X00474022Y00814847D01*
X00473102Y00815767D01*
X004719Y00816265D01*
D02*
G37*
G36*
X00459595Y0081607D02*
X00458294D01*
X00457093Y00815572D01*
X00456173Y00814652D01*
X00455675Y0081345D01*
Y0081215D01*
X00456173Y00810948D01*
X00457093Y00810028D01*
X00458294Y0080953D01*
X00459595D01*
X00460797Y00810028D01*
X00461717Y00810948D01*
X00462215Y0081215D01*
Y0081345D01*
X00461717Y00814652D01*
X00460797Y00815572D01*
X00459595Y0081607D01*
D02*
G37*
G36*
X0074995Y0081099D02*
X0074865D01*
X00747448Y00810492D01*
X00746528Y00809572D01*
X0074603Y0080837D01*
Y0080707D01*
X00746528Y00805868D01*
X00747448Y00804948D01*
X0074865Y0080445D01*
X0074995D01*
X00751152Y00804948D01*
X00752072Y00805868D01*
X0075257Y0080707D01*
Y0080837D01*
X00752072Y00809572D01*
X00751152Y00810492D01*
X0074995Y0081099D01*
D02*
G37*
G36*
X0071947D02*
X0071817D01*
X00716968Y00810492D01*
X00716048Y00809572D01*
X0071555Y0080837D01*
Y0080707D01*
X00716048Y00805868D01*
X00716968Y00804948D01*
X0071817Y0080445D01*
X0071947D01*
X00720672Y00804948D01*
X00721592Y00805868D01*
X0072209Y0080707D01*
Y0080837D01*
X00721592Y00809572D01*
X00720672Y00810492D01*
X0071947Y0081099D01*
D02*
G37*
G36*
X0070423D02*
X0070293D01*
X00701728Y00810492D01*
X00700808Y00809572D01*
X0070031Y0080837D01*
Y0080707D01*
X00700808Y00805868D01*
X00701728Y00804948D01*
X0070293Y0080445D01*
X0070423D01*
X00705432Y00804948D01*
X00706352Y00805868D01*
X0070685Y0080707D01*
Y0080837D01*
X00706352Y00809572D01*
X00705432Y00810492D01*
X0070423Y0081099D01*
D02*
G37*
G36*
X00611236Y0081147D02*
X00609744D01*
X00608366Y00810899D01*
X00607311Y00809844D01*
X0060674Y00808466D01*
Y00806974D01*
X00607311Y00805596D01*
X00608366Y00804541D01*
X00609744Y0080397D01*
X00611236D01*
X00612614Y00804541D01*
X00613669Y00805596D01*
X0061424Y00806974D01*
Y00808466D01*
X00613669Y00809844D01*
X00612614Y00810899D01*
X00611236Y0081147D01*
D02*
G37*
G36*
X0024957Y0081734D02*
X0024827D01*
X00247068Y00816842D01*
X00246148Y00815922D01*
X0024565Y0081472D01*
Y0081342D01*
X00246148Y00812218D01*
X00247068Y00811298D01*
Y00809932D01*
X00246148Y00809012D01*
X0024565Y00807811D01*
Y0080651D01*
X00246148Y00805308D01*
X00247068Y00804388D01*
X0024827Y0080389D01*
X0024957D01*
X00250772Y00804388D01*
X00251692Y00805308D01*
X0025219Y0080651D01*
Y00807811D01*
X00251692Y00809012D01*
X00250772Y00809932D01*
Y00811298D01*
X00251692Y00812218D01*
X0025219Y0081342D01*
Y0081472D01*
X00251692Y00815922D01*
X00250772Y00816842D01*
X0024957Y0081734D01*
D02*
G37*
G36*
X0044497Y0079448D02*
X0044367D01*
X00442468Y00793982D01*
X00441548Y00793062D01*
X0044105Y0079186D01*
Y0079056D01*
X00441548Y00789358D01*
X00442468Y00788438D01*
X0044367Y0078794D01*
X0044497D01*
X00446172Y00788438D01*
X00447092Y00789358D01*
X0044759Y0079056D01*
Y0079186D01*
X00447092Y00793062D01*
X00446172Y00793982D01*
X0044497Y0079448D01*
D02*
G37*
G36*
X00406756Y0079407D02*
X00405264D01*
X00403886Y00793499D01*
X00402831Y00792444D01*
X0040226Y00791066D01*
Y00789574D01*
X00402831Y00788196D01*
X00403886Y00787141D01*
X00405264Y0078657D01*
X00406756D01*
X00408134Y00787141D01*
X00409189Y00788196D01*
X0040976Y00789574D01*
Y00791066D01*
X00409189Y00792444D01*
X00408134Y00793499D01*
X00406756Y0079407D01*
D02*
G37*
G36*
X00523144Y00787858D02*
X00521652D01*
X00520274Y00787287D01*
X00519219Y00786232D01*
X00518648Y00784854D01*
Y00783362D01*
X00519219Y00781983D01*
X00520274Y00780928D01*
X00521652Y00780358D01*
X00523144D01*
X00524522Y00780928D01*
X00525577Y00781983D01*
X00526148Y00783362D01*
Y00784854D01*
X00525577Y00786232D01*
X00524522Y00787287D01*
X00523144Y00787858D01*
D02*
G37*
G36*
X00811588Y00781039D02*
X00810096D01*
X00808717Y00780468D01*
X00807663Y00779413D01*
X00807092Y00778035D01*
Y00776543D01*
X00807663Y00775165D01*
X00808717Y0077411D01*
X00810096Y00773539D01*
X00811588D01*
X00812966Y0077411D01*
X00814021Y00775165D01*
X00814592Y00776543D01*
Y00778035D01*
X00814021Y00779413D01*
X00812966Y00780468D01*
X00811588Y00781039D01*
D02*
G37*
G36*
X00113074Y0078272D02*
X00110726D01*
X00108457Y00782112D01*
X00106423Y00780938D01*
X00104762Y00779277D01*
X00103588Y00777243D01*
X0010298Y00774974D01*
Y00772626D01*
X00103588Y00770357D01*
X00104762Y00768323D01*
X00106423Y00766662D01*
X00108457Y00765488D01*
X00110726Y0076488D01*
X00113074D01*
X00115343Y00765488D01*
X00117377Y00766662D01*
X00119038Y00768323D01*
X00120212Y00770357D01*
X0012082Y00772626D01*
Y00774974D01*
X00120212Y00777243D01*
X00119038Y00779277D01*
X00117377Y00780938D01*
X00115343Y00782112D01*
X00113074Y0078272D01*
D02*
G37*
G36*
X00087674D02*
X00085326D01*
X00083057Y00782112D01*
X00081023Y00780938D01*
X00079362Y00779277D01*
X00078188Y00777243D01*
X0007758Y00774974D01*
Y00772626D01*
X00078188Y00770357D01*
X00079362Y00768323D01*
X00081023Y00766662D01*
X00083057Y00765488D01*
X00085326Y0076488D01*
X00087674D01*
X00089943Y00765488D01*
X00091977Y00766662D01*
X00093638Y00768323D01*
X00094812Y00770357D01*
X0009542Y00772626D01*
Y00774974D01*
X00094812Y00777243D01*
X00093638Y00779277D01*
X00091977Y00780938D01*
X00089943Y00782112D01*
X00087674Y0078272D01*
D02*
G37*
G36*
X00062274D02*
X00059926D01*
X00057657Y00782112D01*
X00055623Y00780938D01*
X00053962Y00779277D01*
X00052788Y00777243D01*
X0005218Y00774974D01*
Y00772626D01*
X00052788Y00770357D01*
X00053962Y00768323D01*
X00055623Y00766662D01*
X00057657Y00765488D01*
X00059926Y0076488D01*
X00062274D01*
X00064543Y00765488D01*
X00066577Y00766662D01*
X00068238Y00768323D01*
X00069412Y00770357D01*
X0007002Y00772626D01*
Y00774974D01*
X00069412Y00777243D01*
X00068238Y00779277D01*
X00066577Y00780938D01*
X00064543Y00782112D01*
X00062274Y0078272D01*
D02*
G37*
G36*
X00036874D02*
X00034526D01*
X00032257Y00782112D01*
X00030223Y00780938D01*
X00028562Y00779277D01*
X00027388Y00777243D01*
X0002678Y00774974D01*
Y00772626D01*
X00027388Y00770357D01*
X00028562Y00768323D01*
X00030223Y00766662D01*
X00032257Y00765488D01*
X00034526Y0076488D01*
X00036874D01*
X00039143Y00765488D01*
X00041177Y00766662D01*
X00042838Y00768323D01*
X00044012Y00770357D01*
X0004462Y00772626D01*
Y00774974D01*
X00044012Y00777243D01*
X00042838Y00779277D01*
X00041177Y00780938D01*
X00039143Y00782112D01*
X00036874Y0078272D01*
D02*
G37*
G36*
X00579866Y0075051D02*
X00578374D01*
X00576996Y00749939D01*
X00575941Y00748884D01*
X0057537Y00747506D01*
Y00746014D01*
X00575941Y00744636D01*
X00576996Y00743581D01*
X00578374Y0074301D01*
X00579866D01*
X00581244Y00743581D01*
X00582299Y00744636D01*
X0058287Y00746014D01*
Y00747506D01*
X00582299Y00748884D01*
X00581244Y00749939D01*
X00579866Y0075051D01*
D02*
G37*
G36*
X00113074Y0075732D02*
X00110726D01*
X00108457Y00756712D01*
X00106423Y00755538D01*
X00104762Y00753877D01*
X00103588Y00751843D01*
X0010298Y00749574D01*
Y00747226D01*
X00103588Y00744957D01*
X00104762Y00742923D01*
X00106423Y00741262D01*
X00108457Y00740088D01*
X00110726Y0073948D01*
X00113074D01*
X00115343Y00740088D01*
X00117377Y00741262D01*
X00119038Y00742923D01*
X00120212Y00744957D01*
X0012082Y00747226D01*
Y00749574D01*
X00120212Y00751843D01*
X00119038Y00753877D01*
X00117377Y00755538D01*
X00115343Y00756712D01*
X00113074Y0075732D01*
D02*
G37*
G36*
X00087674D02*
X00085326D01*
X00083057Y00756712D01*
X00081023Y00755538D01*
X00079362Y00753877D01*
X00078188Y00751843D01*
X0007758Y00749574D01*
Y00747226D01*
X00078188Y00744957D01*
X00079362Y00742923D01*
X00081023Y00741262D01*
X00083057Y00740088D01*
X00085326Y0073948D01*
X00087674D01*
X00089943Y00740088D01*
X00091977Y00741262D01*
X00093638Y00742923D01*
X00094812Y00744957D01*
X0009542Y00747226D01*
Y00749574D01*
X00094812Y00751843D01*
X00093638Y00753877D01*
X00091977Y00755538D01*
X00089943Y00756712D01*
X00087674Y0075732D01*
D02*
G37*
G36*
X00062274D02*
X00059926D01*
X00057657Y00756712D01*
X00055623Y00755538D01*
X00053962Y00753877D01*
X00052788Y00751843D01*
X0005218Y00749574D01*
Y00747226D01*
X00052788Y00744957D01*
X00053962Y00742923D01*
X00055623Y00741262D01*
X00057657Y00740088D01*
X00059926Y0073948D01*
X00062274D01*
X00064543Y00740088D01*
X00066577Y00741262D01*
X00068238Y00742923D01*
X00069412Y00744957D01*
X0007002Y00747226D01*
Y00749574D01*
X00069412Y00751843D01*
X00068238Y00753877D01*
X00066577Y00755538D01*
X00064543Y00756712D01*
X00062274Y0075732D01*
D02*
G37*
G36*
X00036874D02*
X00034526D01*
X00032257Y00756712D01*
X00030223Y00755538D01*
X00028562Y00753877D01*
X00027388Y00751843D01*
X0002678Y00749574D01*
Y00747226D01*
X00027388Y00744957D01*
X00028562Y00742923D01*
X00030223Y00741262D01*
X00032257Y00740088D01*
X00034526Y0073948D01*
X00036874D01*
X00039143Y00740088D01*
X00041177Y00741262D01*
X00042838Y00742923D01*
X00044012Y00744957D01*
X0004462Y00747226D01*
Y00749574D01*
X00044012Y00751843D01*
X00042838Y00753877D01*
X00041177Y00755538D01*
X00039143Y00756712D01*
X00036874Y0075732D01*
D02*
G37*
G36*
X00491346Y0072676D02*
X00489854D01*
X00488476Y00726189D01*
X00487421Y00725134D01*
X0048685Y00723756D01*
Y00722264D01*
X00487421Y00720886D01*
X00488476Y00719831D01*
X00489854Y0071926D01*
X00491346D01*
X00492724Y00719831D01*
X00493779Y00720886D01*
X0049435Y00722264D01*
Y00723756D01*
X00493779Y00725134D01*
X00492724Y00726189D01*
X00491346Y0072676D01*
D02*
G37*
G36*
X00442326D02*
X00440834D01*
X00439456Y00726189D01*
X00438401Y00725134D01*
X0043783Y00723756D01*
Y00722264D01*
X00438401Y00720886D01*
X00439456Y00719831D01*
X00440834Y0071926D01*
X00442326D01*
X00443704Y00719831D01*
X00444759Y00720886D01*
X0044533Y00722264D01*
Y00723756D01*
X00444759Y00725134D01*
X00443704Y00726189D01*
X00442326Y0072676D01*
D02*
G37*
G36*
X00773385Y00723844D02*
X00772085D01*
X00770883Y00723346D01*
X00769963Y00722427D01*
X00769465Y00721225D01*
Y00719924D01*
X00769963Y00718722D01*
X00770883Y00717802D01*
X00772085Y00717304D01*
X00773385D01*
X00774587Y00717802D01*
X00775507Y00718722D01*
X00776005Y00719924D01*
Y00721225D01*
X00775507Y00722427D01*
X00774587Y00723346D01*
X00773385Y00723844D01*
D02*
G37*
G36*
X00113074Y0073192D02*
X00110726D01*
X00108457Y00731312D01*
X00106423Y00730138D01*
X00104762Y00728477D01*
X00103588Y00726443D01*
X0010298Y00724174D01*
Y00721826D01*
X00103588Y00719557D01*
X00104762Y00717523D01*
X00106423Y00715862D01*
X00108457Y00714688D01*
X00110726Y0071408D01*
X00113074D01*
X00115343Y00714688D01*
X00117377Y00715862D01*
X00119038Y00717523D01*
X00120212Y00719557D01*
X0012082Y00721826D01*
Y00724174D01*
X00120212Y00726443D01*
X00119038Y00728477D01*
X00117377Y00730138D01*
X00115343Y00731312D01*
X00113074Y0073192D01*
D02*
G37*
G36*
X00087674D02*
X00085326D01*
X00083057Y00731312D01*
X00081023Y00730138D01*
X00079362Y00728477D01*
X00078188Y00726443D01*
X0007758Y00724174D01*
Y00721826D01*
X00078188Y00719557D01*
X00079362Y00717523D01*
X00081023Y00715862D01*
X00083057Y00714688D01*
X00085326Y0071408D01*
X00087674D01*
X00089943Y00714688D01*
X00091977Y00715862D01*
X00093638Y00717523D01*
X00094812Y00719557D01*
X0009542Y00721826D01*
Y00724174D01*
X00094812Y00726443D01*
X00093638Y00728477D01*
X00091977Y00730138D01*
X00089943Y00731312D01*
X00087674Y0073192D01*
D02*
G37*
G36*
X00430608Y00720697D02*
X00429117D01*
X00427738Y00720127D01*
X00426683Y00719072D01*
X00426113Y00717693D01*
Y00716202D01*
X00426683Y00714823D01*
X00427738Y00713768D01*
X00429117Y00713197D01*
X00430608D01*
X00431987Y00713768D01*
X00433042Y00714823D01*
X00433613Y00716202D01*
Y00717693D01*
X00433042Y00719072D01*
X00431987Y00720127D01*
X00430608Y00720697D01*
D02*
G37*
G36*
X0057469Y0071193D02*
X0057339D01*
X00572188Y00711432D01*
X00571268Y00710512D01*
X0057077Y0070931D01*
Y0070801D01*
X00571268Y00706808D01*
X00572188Y00705888D01*
X0057339Y0070539D01*
X0057469D01*
X00575892Y00705888D01*
X00576812Y00706808D01*
X0057731Y0070801D01*
Y0070931D01*
X00576812Y00710512D01*
X00575892Y00711432D01*
X0057469Y0071193D01*
D02*
G37*
G36*
X00675443Y00705997D02*
X00674142D01*
X0067294Y00705499D01*
X0067202Y00704579D01*
X00671522Y00703377D01*
Y00702076D01*
X0067202Y00700874D01*
X0067294Y00699955D01*
X00674142Y00699457D01*
X00675443D01*
X00676644Y00699955D01*
X00677564Y00700874D01*
X00678062Y00702076D01*
Y00703377D01*
X00677564Y00704579D01*
X00676644Y00705499D01*
X00675443Y00705997D01*
D02*
G37*
G36*
X00685812Y00705485D02*
X00684511D01*
X00683309Y00704987D01*
X00682389Y00704067D01*
X00681891Y00702865D01*
Y00701564D01*
X00682389Y00700362D01*
X00683309Y00699442D01*
X00684511Y00698945D01*
X00685812D01*
X00687014Y00699442D01*
X00687934Y00700362D01*
X00688431Y00701564D01*
Y00702865D01*
X00687934Y00704067D01*
X00687014Y00704987D01*
X00685812Y00705485D01*
D02*
G37*
G36*
X0057469Y00700182D02*
X0057339D01*
X00572188Y00699685D01*
X00571268Y00698765D01*
X0057077Y00697563D01*
Y00696262D01*
X00571268Y0069506D01*
X00572188Y0069414D01*
X0057339Y00693642D01*
X0057469D01*
X00575892Y0069414D01*
X00576812Y0069506D01*
X0057731Y00696262D01*
Y00697563D01*
X00576812Y00698765D01*
X00575892Y00699685D01*
X0057469Y00700182D01*
D02*
G37*
G36*
X00113074Y0070652D02*
X00110726D01*
X00108457Y00705912D01*
X00106423Y00704738D01*
X00104762Y00703077D01*
X00103588Y00701043D01*
X0010298Y00698774D01*
Y00696426D01*
X00103588Y00694157D01*
X00104762Y00692123D01*
X00106423Y00690462D01*
X00108457Y00689288D01*
X00110726Y0068868D01*
X00113074D01*
X00115343Y00689288D01*
X00117377Y00690462D01*
X00119038Y00692123D01*
X00120212Y00694157D01*
X0012082Y00696426D01*
Y00698774D01*
X00120212Y00701043D01*
X00119038Y00703077D01*
X00117377Y00704738D01*
X00115343Y00705912D01*
X00113074Y0070652D01*
D02*
G37*
G36*
X00087674D02*
X00085326D01*
X00083057Y00705912D01*
X00081023Y00704738D01*
X00079362Y00703077D01*
X00078188Y00701043D01*
X0007758Y00698774D01*
Y00696426D01*
X00078188Y00694157D01*
X00079362Y00692123D01*
X00081023Y00690462D01*
X00083057Y00689288D01*
X00085326Y0068868D01*
X00087674D01*
X00089943Y00689288D01*
X00091977Y00690462D01*
X00093638Y00692123D01*
X00094812Y00694157D01*
X0009542Y00696426D01*
Y00698774D01*
X00094812Y00701043D01*
X00093638Y00703077D01*
X00091977Y00704738D01*
X00089943Y00705912D01*
X00087674Y0070652D01*
D02*
G37*
G36*
X00062274D02*
X00059926D01*
X00057657Y00705912D01*
X00055623Y00704738D01*
X00053962Y00703077D01*
X00052788Y00701043D01*
X0005218Y00698774D01*
Y00696426D01*
X00052788Y00694157D01*
X00053962Y00692123D01*
X00055623Y00690462D01*
X00057657Y00689288D01*
X00059926Y0068868D01*
X00062274D01*
X00064543Y00689288D01*
X00066577Y00690462D01*
X00068238Y00692123D01*
X00069412Y00694157D01*
X0007002Y00696426D01*
Y00698774D01*
X00069412Y00701043D01*
X00068238Y00703077D01*
X00066577Y00704738D01*
X00064543Y00705912D01*
X00062274Y0070652D01*
D02*
G37*
G36*
X00036874D02*
X00034526D01*
X00032257Y00705912D01*
X00030223Y00704738D01*
X00028562Y00703077D01*
X00027388Y00701043D01*
X0002678Y00698774D01*
Y00696426D01*
X00027388Y00694157D01*
X00028562Y00692123D01*
X00030223Y00690462D01*
X00032257Y00689288D01*
X00034526Y0068868D01*
X00036874D01*
X00039143Y00689288D01*
X00041177Y00690462D01*
X00042838Y00692123D01*
X00044012Y00694157D01*
X0004462Y00696426D01*
Y00698774D01*
X00044012Y00701043D01*
X00042838Y00703077D01*
X00041177Y00704738D01*
X00039143Y00705912D01*
X00036874Y0070652D01*
D02*
G37*
G36*
X00338074Y00697335D02*
X00311658D01*
X00310686Y00696932D01*
X00310283Y0069596D01*
Y00677269D01*
X00302326D01*
X00302073Y00677164D01*
X003018D01*
X00301606Y00676971D01*
X00301354Y00676866D01*
X00301249Y00676613D01*
X00301056Y0067642D01*
X00300935Y00676129D01*
X00300402Y00675596D01*
X00299705Y00675307D01*
X00298951D01*
X00298255Y00675596D01*
X00297722Y00676129D01*
X00297601Y0067642D01*
X00297408Y00676613D01*
X00297303Y00676866D01*
X0029705Y00676971D01*
X00296857Y00677164D01*
X00296584D01*
X00296331Y00677269D01*
X00150114D01*
X00149142Y00676866D01*
X00148739Y00675894D01*
Y00650032D01*
X00149142Y0064906D01*
X00150114Y00648658D01*
X00338074D01*
X00339046Y0064906D01*
X00339449Y00650032D01*
Y0069596D01*
X00339046Y00696932D01*
X00338074Y00697335D01*
D02*
G37*
G36*
X0063057Y00673793D02*
X0062927D01*
X00628068Y00673295D01*
X00627148Y00672375D01*
X0062665Y00671173D01*
Y00669872D01*
X00627148Y0066867D01*
X00628068Y00667751D01*
X0062927Y00667253D01*
X0063057D01*
X00631772Y00667751D01*
X00632692Y0066867D01*
X0063319Y00669872D01*
Y00671173D01*
X00632692Y00672375D01*
X00631772Y00673295D01*
X0063057Y00673793D01*
D02*
G37*
G36*
X00113074Y0068112D02*
X00110726D01*
X00108457Y00680512D01*
X00106423Y00679338D01*
X00104762Y00677677D01*
X00103588Y00675643D01*
X0010298Y00673374D01*
Y00671026D01*
X00103588Y00668757D01*
X00104762Y00666723D01*
X00106423Y00665062D01*
X00108457Y00663888D01*
X00110726Y0066328D01*
X00113074D01*
X00115343Y00663888D01*
X00117377Y00665062D01*
X00119038Y00666723D01*
X00120212Y00668757D01*
X0012082Y00671026D01*
Y00673374D01*
X00120212Y00675643D01*
X00119038Y00677677D01*
X00117377Y00679338D01*
X00115343Y00680512D01*
X00113074Y0068112D01*
D02*
G37*
G36*
X00087674D02*
X00085326D01*
X00083057Y00680512D01*
X00081023Y00679338D01*
X00079362Y00677677D01*
X00078188Y00675643D01*
X0007758Y00673374D01*
Y00671026D01*
X00078188Y00668757D01*
X00079362Y00666723D01*
X00081023Y00665062D01*
X00083057Y00663888D01*
X00085326Y0066328D01*
X00087674D01*
X00089943Y00663888D01*
X00091977Y00665062D01*
X00093638Y00666723D01*
X00094812Y00668757D01*
X0009542Y00671026D01*
Y00673374D01*
X00094812Y00675643D01*
X00093638Y00677677D01*
X00091977Y00679338D01*
X00089943Y00680512D01*
X00087674Y0068112D01*
D02*
G37*
G36*
X00062274D02*
X00059926D01*
X00057657Y00680512D01*
X00055623Y00679338D01*
X00053962Y00677677D01*
X00052788Y00675643D01*
X0005218Y00673374D01*
Y00671026D01*
X00052788Y00668757D01*
X00053962Y00666723D01*
X00055623Y00665062D01*
X00057657Y00663888D01*
X00059926Y0066328D01*
X00062274D01*
X00064543Y00663888D01*
X00066577Y00665062D01*
X00068238Y00666723D01*
X00069412Y00668757D01*
X0007002Y00671026D01*
Y00673374D01*
X00069412Y00675643D01*
X00068238Y00677677D01*
X00066577Y00679338D01*
X00064543Y00680512D01*
X00062274Y0068112D01*
D02*
G37*
G36*
X00036874D02*
X00034526D01*
X00032257Y00680512D01*
X00030223Y00679338D01*
X00028562Y00677677D01*
X00027388Y00675643D01*
X0002678Y00673374D01*
Y00671026D01*
X00027388Y00668757D01*
X00028562Y00666723D01*
X00030223Y00665062D01*
X00032257Y00663888D01*
X00034526Y0066328D01*
X00036874D01*
X00039143Y00663888D01*
X00041177Y00665062D01*
X00042838Y00666723D01*
X00044012Y00668757D01*
X0004462Y00671026D01*
Y00673374D01*
X00044012Y00675643D01*
X00042838Y00677677D01*
X00041177Y00679338D01*
X00039143Y00680512D01*
X00036874Y0068112D01*
D02*
G37*
G36*
X00834741Y00665646D02*
X0083344D01*
X00832238Y00665148D01*
X00831318Y00664229D01*
X0083082Y00663027D01*
Y00661726D01*
X00831318Y00660524D01*
X00832238Y00659604D01*
X0083344Y00659106D01*
X00834741D01*
X00835942Y00659604D01*
X00836862Y00660524D01*
X0083736Y00661726D01*
Y00663027D01*
X00836862Y00664229D01*
X00835942Y00665148D01*
X00834741Y00665646D01*
D02*
G37*
G36*
X00822117Y0066562D02*
X00820816D01*
X00819614Y00665122D01*
X00818695Y00664202D01*
X00818197Y00663D01*
Y00661699D01*
X00818695Y00660497D01*
X00819614Y00659577D01*
X00820816Y0065908D01*
X00822117D01*
X00823319Y00659577D01*
X00824239Y00660497D01*
X00824737Y00661699D01*
Y00663D01*
X00824239Y00664202D01*
X00823319Y00665122D01*
X00822117Y0066562D01*
D02*
G37*
G36*
X00827395Y0064974D02*
X00826095D01*
X00824893Y00649242D01*
X00823973Y00648322D01*
X00823475Y0064712D01*
Y00645819D01*
X00823973Y00644617D01*
X00824893Y00643698D01*
X00826095Y006432D01*
X00827395D01*
X00828597Y00643698D01*
X00829517Y00644617D01*
X00830015Y00645819D01*
Y0064712D01*
X00829517Y00648322D01*
X00828597Y00649242D01*
X00827395Y0064974D01*
D02*
G37*
G36*
X00870224Y00650411D02*
X00868733D01*
X00867354Y0064984D01*
X00866299Y00648785D01*
X00865729Y00647407D01*
Y00645915D01*
X00866299Y00644537D01*
X00867354Y00643482D01*
X00868733Y00642911D01*
X00870224D01*
X00871603Y00643482D01*
X00872658Y00644537D01*
X00873229Y00645915D01*
Y00647407D01*
X00872658Y00648785D01*
X00871603Y0064984D01*
X00870224Y00650411D01*
D02*
G37*
G36*
X00113074Y0065572D02*
X00110726D01*
X00108457Y00655112D01*
X00106423Y00653938D01*
X00104762Y00652277D01*
X00103588Y00650243D01*
X0010298Y00647974D01*
Y00645626D01*
X00103588Y00643357D01*
X00104762Y00641323D01*
X00106423Y00639662D01*
X00108457Y00638488D01*
X00110726Y0063788D01*
X00113074D01*
X00115343Y00638488D01*
X00117377Y00639662D01*
X00119038Y00641323D01*
X00120212Y00643357D01*
X0012082Y00645626D01*
Y00647974D01*
X00120212Y00650243D01*
X00119038Y00652277D01*
X00117377Y00653938D01*
X00115343Y00655112D01*
X00113074Y0065572D01*
D02*
G37*
G36*
X00087674D02*
X00085326D01*
X00083057Y00655112D01*
X00081023Y00653938D01*
X00079362Y00652277D01*
X00078188Y00650243D01*
X0007758Y00647974D01*
Y00645626D01*
X00078188Y00643357D01*
X00079362Y00641323D01*
X00081023Y00639662D01*
X00083057Y00638488D01*
X00085326Y0063788D01*
X00087674D01*
X00089943Y00638488D01*
X00091977Y00639662D01*
X00093638Y00641323D01*
X00094812Y00643357D01*
X0009542Y00645626D01*
Y00647974D01*
X00094812Y00650243D01*
X00093638Y00652277D01*
X00091977Y00653938D01*
X00089943Y00655112D01*
X00087674Y0065572D01*
D02*
G37*
G36*
X00062274D02*
X00059926D01*
X00057657Y00655112D01*
X00055623Y00653938D01*
X00053962Y00652277D01*
X00052788Y00650243D01*
X0005218Y00647974D01*
Y00645626D01*
X00052788Y00643357D01*
X00053962Y00641323D01*
X00055623Y00639662D01*
X00057657Y00638488D01*
X00059926Y0063788D01*
X00062274D01*
X00064543Y00638488D01*
X00066577Y00639662D01*
X00068238Y00641323D01*
X00069412Y00643357D01*
X0007002Y00645626D01*
Y00647974D01*
X00069412Y00650243D01*
X00068238Y00652277D01*
X00066577Y00653938D01*
X00064543Y00655112D01*
X00062274Y0065572D01*
D02*
G37*
G36*
X00036874D02*
X00034526D01*
X00032257Y00655112D01*
X00030223Y00653938D01*
X00028562Y00652277D01*
X00027388Y00650243D01*
X0002678Y00647974D01*
Y00645626D01*
X00027388Y00643357D01*
X00028562Y00641323D01*
X00030223Y00639662D01*
X00032257Y00638488D01*
X00034526Y0063788D01*
X00036874D01*
X00039143Y00638488D01*
X00041177Y00639662D01*
X00042838Y00641323D01*
X00044012Y00643357D01*
X0004462Y00645626D01*
Y00647974D01*
X00044012Y00650243D01*
X00042838Y00652277D01*
X00041177Y00653938D01*
X00039143Y00655112D01*
X00036874Y0065572D01*
D02*
G37*
G36*
X0054167Y0064335D02*
X0054037D01*
X00539168Y00642852D01*
X00538248Y00641932D01*
X0053775Y0064073D01*
Y0063943D01*
X00538248Y00638228D01*
X00539168Y00637308D01*
X0054037Y0063681D01*
X0054167D01*
X00542872Y00637308D01*
X00543792Y00638228D01*
X0054429Y0063943D01*
Y0064073D01*
X00543792Y00641932D01*
X00542872Y00642852D01*
X0054167Y0064335D01*
D02*
G37*
G36*
X0046039Y0063573D02*
X0045909D01*
X00457888Y00635232D01*
X00456968Y00634312D01*
X0045647Y0063311D01*
Y0063181D01*
X00456968Y00630608D01*
X00457888Y00629688D01*
X0045909Y0062919D01*
X0046039D01*
X00461592Y00629688D01*
X00462512Y00630608D01*
X0046301Y0063181D01*
Y0063311D01*
X00462512Y00634312D01*
X00461592Y00635232D01*
X0046039Y0063573D01*
D02*
G37*
G36*
X00524803Y0063569D02*
X00523502D01*
X00522301Y00635192D01*
X00521381Y00634273D01*
X00520883Y00633071D01*
Y0063177D01*
X00521381Y00630568D01*
X00522301Y00629648D01*
X00523502Y0062915D01*
X00524803D01*
X00526005Y00629648D01*
X00526925Y00630568D01*
X00527423Y0063177D01*
Y00633071D01*
X00526925Y00634273D01*
X00526005Y00635192D01*
X00524803Y0063569D01*
D02*
G37*
G36*
X0082986Y00634386D02*
X00828559D01*
X00827357Y00633888D01*
X00826437Y00632968D01*
X00825939Y00631766D01*
Y00630466D01*
X00826437Y00629264D01*
X00827357Y00628344D01*
X00828559Y00627846D01*
X0082986D01*
X00831061Y00628344D01*
X00831981Y00629264D01*
X00832479Y00630466D01*
Y00631766D01*
X00831981Y00632968D01*
X00831061Y00633888D01*
X0082986Y00634386D01*
D02*
G37*
G36*
X00113074Y0063032D02*
X00110726D01*
X00108457Y00629712D01*
X00106423Y00628538D01*
X00104762Y00626877D01*
X00103588Y00624843D01*
X0010298Y00622574D01*
Y00620226D01*
X00103588Y00617957D01*
X00104762Y00615923D01*
X00106423Y00614262D01*
X00108457Y00613088D01*
X00110726Y0061248D01*
X00113074D01*
X00115343Y00613088D01*
X00117377Y00614262D01*
X00119038Y00615923D01*
X00120212Y00617957D01*
X0012082Y00620226D01*
Y00622574D01*
X00120212Y00624843D01*
X00119038Y00626877D01*
X00117377Y00628538D01*
X00115343Y00629712D01*
X00113074Y0063032D01*
D02*
G37*
G36*
X00087674D02*
X00085326D01*
X00083057Y00629712D01*
X00081023Y00628538D01*
X00079362Y00626877D01*
X00078188Y00624843D01*
X0007758Y00622574D01*
Y00620226D01*
X00078188Y00617957D01*
X00079362Y00615923D01*
X00081023Y00614262D01*
X00083057Y00613088D01*
X00085326Y0061248D01*
X00087674D01*
X00089943Y00613088D01*
X00091977Y00614262D01*
X00093638Y00615923D01*
X00094812Y00617957D01*
X0009542Y00620226D01*
Y00622574D01*
X00094812Y00624843D01*
X00093638Y00626877D01*
X00091977Y00628538D01*
X00089943Y00629712D01*
X00087674Y0063032D01*
D02*
G37*
G36*
X00062274D02*
X00059926D01*
X00057657Y00629712D01*
X00055623Y00628538D01*
X00053962Y00626877D01*
X00052788Y00624843D01*
X0005218Y00622574D01*
Y00620226D01*
X00052788Y00617957D01*
X00053962Y00615923D01*
X00055623Y00614262D01*
X00057657Y00613088D01*
X00059926Y0061248D01*
X00062274D01*
X00064543Y00613088D01*
X00066577Y00614262D01*
X00068238Y00615923D01*
X00069412Y00617957D01*
X0007002Y00620226D01*
Y00622574D01*
X00069412Y00624843D01*
X00068238Y00626877D01*
X00066577Y00628538D01*
X00064543Y00629712D01*
X00062274Y0063032D01*
D02*
G37*
G36*
X00036874D02*
X00034526D01*
X00032257Y00629712D01*
X00030223Y00628538D01*
X00028562Y00626877D01*
X00027388Y00624843D01*
X0002678Y00622574D01*
Y00620226D01*
X00027388Y00617957D01*
X00028562Y00615923D01*
X00030223Y00614262D01*
X00032257Y00613088D01*
X00034526Y0061248D01*
X00036874D01*
X00039143Y00613088D01*
X00041177Y00614262D01*
X00042838Y00615923D01*
X00044012Y00617957D01*
X0004462Y00620226D01*
Y00622574D01*
X00044012Y00624843D01*
X00042838Y00626877D01*
X00041177Y00628538D01*
X00039143Y00629712D01*
X00036874Y0063032D01*
D02*
G37*
G36*
X008325Y0061795D02*
X008312D01*
X00829998Y00617452D01*
X00829078Y00616532D01*
X0082858Y0061533D01*
Y0061403D01*
X00829078Y00612828D01*
X00829998Y00611908D01*
X008312Y0061141D01*
X008325D01*
X00833702Y00611908D01*
X00834622Y00612828D01*
X0083512Y0061403D01*
Y0061533D01*
X00834622Y00616532D01*
X00833702Y00617452D01*
X008325Y0061795D01*
D02*
G37*
G36*
X00213924Y0061749D02*
X00212623D01*
X00211421Y00616992D01*
X00210501Y00616072D01*
X00210004Y0061487D01*
Y00613569D01*
X00210501Y00612368D01*
X00211421Y00611448D01*
X00212623Y0061095D01*
X00213924D01*
X00215126Y00611448D01*
X00216046Y00612368D01*
X00216544Y00613569D01*
Y0061487D01*
X00216046Y00616072D01*
X00215126Y00616992D01*
X00213924Y0061749D01*
D02*
G37*
G36*
X00870224Y00618407D02*
X00868733D01*
X00867354Y00617836D01*
X00866299Y00616781D01*
X00865729Y00615403D01*
Y00613911D01*
X00866299Y00612533D01*
X00867354Y00611478D01*
X00868733Y00610907D01*
X00870224D01*
X00871603Y00611478D01*
X00872658Y00612533D01*
X00873229Y00613911D01*
Y00615403D01*
X00872658Y00616781D01*
X00871603Y00617836D01*
X00870224Y00618407D01*
D02*
G37*
G36*
X00157622Y00617442D02*
X00156322D01*
X0015512Y00616944D01*
X001542Y00616024D01*
X00153702Y00614822D01*
Y00613522D01*
X001542Y0061232D01*
X0015512Y006114D01*
X00156322Y00610902D01*
X00157622D01*
X00158824Y006114D01*
X00159744Y0061232D01*
X00160242Y00613522D01*
Y00614822D01*
X00159744Y00616024D01*
X00158824Y00616944D01*
X00157622Y00617442D01*
D02*
G37*
G36*
X00208018Y00607117D02*
X00206717D01*
X00205515Y00606619D01*
X00204596Y00605699D01*
X00204098Y00604497D01*
Y00603197D01*
X00204596Y00601995D01*
X00205515Y00601075D01*
X00206717Y00600577D01*
X00208018D01*
X0020922Y00601075D01*
X0021014Y00601995D01*
X00210638Y00603197D01*
Y00604497D01*
X0021014Y00605699D01*
X0020922Y00606619D01*
X00208018Y00607117D01*
D02*
G37*
G36*
X00214317Y0060227D02*
X00213016D01*
X00211814Y00601772D01*
X00210894Y00600853D01*
X00210396Y00599651D01*
Y0059835D01*
X00210894Y00597148D01*
X00211814Y00596228D01*
X00213016Y0059573D01*
X00214317D01*
X00215519Y00596228D01*
X00216439Y00597148D01*
X00216936Y0059835D01*
Y00599651D01*
X00216439Y00600853D01*
X00215519Y00601772D01*
X00214317Y0060227D01*
D02*
G37*
G36*
X00113074Y0060492D02*
X00110726D01*
X00108457Y00604312D01*
X00106423Y00603138D01*
X00104762Y00601477D01*
X00103588Y00599443D01*
X0010298Y00597174D01*
Y00594826D01*
X00103588Y00592557D01*
X00104762Y00590523D01*
X00106423Y00588862D01*
X00108457Y00587688D01*
X00110726Y0058708D01*
X00113074D01*
X00115343Y00587688D01*
X00117377Y00588862D01*
X00119038Y00590523D01*
X00120212Y00592557D01*
X0012082Y00594826D01*
Y00597174D01*
X00120212Y00599443D01*
X00119038Y00601477D01*
X00117377Y00603138D01*
X00115343Y00604312D01*
X00113074Y0060492D01*
D02*
G37*
G36*
X00087674D02*
X00085326D01*
X00083057Y00604312D01*
X00081023Y00603138D01*
X00079362Y00601477D01*
X00078188Y00599443D01*
X0007758Y00597174D01*
Y00594826D01*
X00078188Y00592557D01*
X00079362Y00590523D01*
X00081023Y00588862D01*
X00083057Y00587688D01*
X00085326Y0058708D01*
X00087674D01*
X00089943Y00587688D01*
X00091977Y00588862D01*
X00093638Y00590523D01*
X00094812Y00592557D01*
X0009542Y00594826D01*
Y00597174D01*
X00094812Y00599443D01*
X00093638Y00601477D01*
X00091977Y00603138D01*
X00089943Y00604312D01*
X00087674Y0060492D01*
D02*
G37*
G36*
X00062274D02*
X00059926D01*
X00057657Y00604312D01*
X00055623Y00603138D01*
X00053962Y00601477D01*
X00052788Y00599443D01*
X0005218Y00597174D01*
Y00594826D01*
X00052788Y00592557D01*
X00053962Y00590523D01*
X00055623Y00588862D01*
X00057657Y00587688D01*
X00059926Y0058708D01*
X00062274D01*
X00064543Y00587688D01*
X00066577Y00588862D01*
X00068238Y00590523D01*
X00069412Y00592557D01*
X0007002Y00594826D01*
Y00597174D01*
X00069412Y00599443D01*
X00068238Y00601477D01*
X00066577Y00603138D01*
X00064543Y00604312D01*
X00062274Y0060492D01*
D02*
G37*
G36*
X00036874D02*
X00034526D01*
X00032257Y00604312D01*
X00030223Y00603138D01*
X00028562Y00601477D01*
X00027388Y00599443D01*
X0002678Y00597174D01*
Y00594826D01*
X00027388Y00592557D01*
X00028562Y00590523D01*
X00030223Y00588862D01*
X00032257Y00587688D01*
X00034526Y0058708D01*
X00036874D01*
X00039143Y00587688D01*
X00041177Y00588862D01*
X00042838Y00590523D01*
X00044012Y00592557D01*
X0004462Y00594826D01*
Y00597174D01*
X00044012Y00599443D01*
X00042838Y00601477D01*
X00041177Y00603138D01*
X00039143Y00604312D01*
X00036874Y0060492D01*
D02*
G37*
G36*
X00578518Y00582318D02*
X00577217D01*
X00576016Y0058182D01*
X00575096Y005809D01*
X00574598Y00579698D01*
Y00578397D01*
X00575096Y00577195D01*
X00576016Y00576275D01*
X00577217Y00575778D01*
X00578518D01*
X0057972Y00576275D01*
X0058064Y00577195D01*
X00581138Y00578397D01*
Y00579698D01*
X0058064Y005809D01*
X0057972Y0058182D01*
X00578518Y00582318D01*
D02*
G37*
G36*
X001467Y0057604D02*
X001454D01*
X00144198Y00575542D01*
X00143278Y00574622D01*
X0014278Y0057342D01*
Y0057212D01*
X00143278Y00570918D01*
X00144198Y00569998D01*
X00145076Y00569634D01*
Y00568327D01*
X00144198Y00567963D01*
X00143278Y00567043D01*
X0014278Y00565841D01*
Y0056454D01*
X00143278Y00563338D01*
X00144198Y00562419D01*
X001454Y00561921D01*
X001467D01*
X00147902Y00562419D01*
X00148822Y00563338D01*
X0014932Y0056454D01*
Y00565841D01*
X00148822Y00567043D01*
X00147902Y00567963D01*
X00147024Y00568327D01*
Y00569634D01*
X00147902Y00569998D01*
X00148822Y00570918D01*
X0014932Y0057212D01*
Y0057342D01*
X00148822Y00574622D01*
X00147902Y00575542D01*
X001467Y0057604D01*
D02*
G37*
G36*
X00113074Y0057952D02*
X00110726D01*
X00108457Y00578912D01*
X00106423Y00577738D01*
X00104762Y00576077D01*
X00103588Y00574043D01*
X0010298Y00571774D01*
Y00569426D01*
X00103588Y00567157D01*
X00104762Y00565123D01*
X00106423Y00563462D01*
X00108457Y00562288D01*
X00110726Y0056168D01*
X00113074D01*
X00115343Y00562288D01*
X00117377Y00563462D01*
X00119038Y00565123D01*
X00120212Y00567157D01*
X0012082Y00569426D01*
Y00571774D01*
X00120212Y00574043D01*
X00119038Y00576077D01*
X00117377Y00577738D01*
X00115343Y00578912D01*
X00113074Y0057952D01*
D02*
G37*
G36*
X00087674D02*
X00085326D01*
X00083057Y00578912D01*
X00081023Y00577738D01*
X00079362Y00576077D01*
X00078188Y00574043D01*
X0007758Y00571774D01*
Y00569426D01*
X00078188Y00567157D01*
X00079362Y00565123D01*
X00081023Y00563462D01*
X00083057Y00562288D01*
X00085326Y0056168D01*
X00087674D01*
X00089943Y00562288D01*
X00091977Y00563462D01*
X00093638Y00565123D01*
X00094812Y00567157D01*
X0009542Y00569426D01*
Y00571774D01*
X00094812Y00574043D01*
X00093638Y00576077D01*
X00091977Y00577738D01*
X00089943Y00578912D01*
X00087674Y0057952D01*
D02*
G37*
G36*
X00062274D02*
X00059926D01*
X00057657Y00578912D01*
X00055623Y00577738D01*
X00053962Y00576077D01*
X00052788Y00574043D01*
X0005218Y00571774D01*
Y00569426D01*
X00052788Y00567157D01*
X00053962Y00565123D01*
X00055623Y00563462D01*
X00057657Y00562288D01*
X00059926Y0056168D01*
X00062274D01*
X00064543Y00562288D01*
X00066577Y00563462D01*
X00068238Y00565123D01*
X00069412Y00567157D01*
X0007002Y00569426D01*
Y00571774D01*
X00069412Y00574043D01*
X00068238Y00576077D01*
X00066577Y00577738D01*
X00064543Y00578912D01*
X00062274Y0057952D01*
D02*
G37*
G36*
X00036874D02*
X00034526D01*
X00032257Y00578912D01*
X00030223Y00577738D01*
X00028562Y00576077D01*
X00027388Y00574043D01*
X0002678Y00571774D01*
Y00569426D01*
X00027388Y00567157D01*
X00028562Y00565123D01*
X00030223Y00563462D01*
X00032257Y00562288D01*
X00034526Y0056168D01*
X00036874D01*
X00039143Y00562288D01*
X00041177Y00563462D01*
X00042838Y00565123D01*
X00044012Y00567157D01*
X0004462Y00569426D01*
Y00571774D01*
X00044012Y00574043D01*
X00042838Y00576077D01*
X00041177Y00577738D01*
X00039143Y00578912D01*
X00036874Y0057952D01*
D02*
G37*
G36*
X00681749Y00554652D02*
X00680448D01*
X00679247Y00554154D01*
X00678327Y00553234D01*
X00677829Y00552032D01*
Y00550731D01*
X00678327Y0054953D01*
X00679247Y0054861D01*
X00680448Y00548112D01*
X00681749D01*
X00682951Y0054861D01*
X00683871Y0054953D01*
X00684369Y00550731D01*
Y00552032D01*
X00683871Y00553234D01*
X00682951Y00554154D01*
X00681749Y00554652D01*
D02*
G37*
G36*
X00142986Y00551374D02*
X00141494D01*
X00140116Y00550803D01*
X00139061Y00549748D01*
X0013849Y0054837D01*
Y00546878D01*
X00139061Y005455D01*
X00140116Y00544445D01*
X00141494Y00543874D01*
X00142986D01*
X00144364Y00544445D01*
X00145419Y005455D01*
X0014599Y00546878D01*
Y0054837D01*
X00145419Y00549748D01*
X00144364Y00550803D01*
X00142986Y00551374D01*
D02*
G37*
G36*
X00672816Y00547154D02*
X00671325D01*
X00669946Y00546583D01*
X00668892Y00545528D01*
X00668321Y00544149D01*
Y00542658D01*
X00668892Y00541279D01*
X00669946Y00540224D01*
X00671325Y00539654D01*
X00672816D01*
X00674195Y00540224D01*
X0067525Y00541279D01*
X00675821Y00542658D01*
Y00544149D01*
X0067525Y00545528D01*
X00674195Y00546583D01*
X00672816Y00547154D01*
D02*
G37*
G36*
X00113074Y0055412D02*
X00110726D01*
X00108457Y00553512D01*
X00106423Y00552338D01*
X00104762Y00550677D01*
X00103588Y00548643D01*
X0010298Y00546374D01*
Y00544026D01*
X00103588Y00541757D01*
X00104762Y00539723D01*
X00106423Y00538062D01*
X00108457Y00536888D01*
X00110726Y0053628D01*
X00113074D01*
X00115343Y00536888D01*
X00117377Y00538062D01*
X00119038Y00539723D01*
X00120212Y00541757D01*
X0012082Y00544026D01*
Y00546374D01*
X00120212Y00548643D01*
X00119038Y00550677D01*
X00117377Y00552338D01*
X00115343Y00553512D01*
X00113074Y0055412D01*
D02*
G37*
G36*
X00087674D02*
X00085326D01*
X00083057Y00553512D01*
X00081023Y00552338D01*
X00079362Y00550677D01*
X00078188Y00548643D01*
X0007758Y00546374D01*
Y00544026D01*
X00078188Y00541757D01*
X00079362Y00539723D01*
X00081023Y00538062D01*
X00083057Y00536888D01*
X00085326Y0053628D01*
X00087674D01*
X00089943Y00536888D01*
X00091977Y00538062D01*
X00093638Y00539723D01*
X00094812Y00541757D01*
X0009542Y00544026D01*
Y00546374D01*
X00094812Y00548643D01*
X00093638Y00550677D01*
X00091977Y00552338D01*
X00089943Y00553512D01*
X00087674Y0055412D01*
D02*
G37*
G36*
X00062274D02*
X00059926D01*
X00057657Y00553512D01*
X00055623Y00552338D01*
X00053962Y00550677D01*
X00052788Y00548643D01*
X0005218Y00546374D01*
Y00544026D01*
X00052788Y00541757D01*
X00053962Y00539723D01*
X00055623Y00538062D01*
X00057657Y00536888D01*
X00059926Y0053628D01*
X00062274D01*
X00064543Y00536888D01*
X00066577Y00538062D01*
X00068238Y00539723D01*
X00069412Y00541757D01*
X0007002Y00544026D01*
Y00546374D01*
X00069412Y00548643D01*
X00068238Y00550677D01*
X00066577Y00552338D01*
X00064543Y00553512D01*
X00062274Y0055412D01*
D02*
G37*
G36*
X00036874D02*
X00034526D01*
X00032257Y00553512D01*
X00030223Y00552338D01*
X00028562Y00550677D01*
X00027388Y00548643D01*
X0002678Y00546374D01*
Y00544026D01*
X00027388Y00541757D01*
X00028562Y00539723D01*
X00030223Y00538062D01*
X00032257Y00536888D01*
X00034526Y0053628D01*
X00036874D01*
X00039143Y00536888D01*
X00041177Y00538062D01*
X00042838Y00539723D01*
X00044012Y00541757D01*
X0004462Y00544026D01*
Y00546374D01*
X00044012Y00548643D01*
X00042838Y00550677D01*
X00041177Y00552338D01*
X00039143Y00553512D01*
X00036874Y0055412D01*
D02*
G37*
G36*
X00142986Y0054145D02*
X00141494D01*
X00140116Y00540879D01*
X00139061Y00539824D01*
X0013849Y00538446D01*
Y00536954D01*
X00139061Y00535576D01*
X00140116Y00534521D01*
X00141494Y0053395D01*
X00142986D01*
X00144364Y00534521D01*
X00145419Y00535576D01*
X0014599Y00536954D01*
Y00538446D01*
X00145419Y00539824D01*
X00144364Y00540879D01*
X00142986Y0054145D01*
D02*
G37*
G36*
Y00531526D02*
X00141494D01*
X00140116Y00530955D01*
X00139061Y005299D01*
X0013849Y00528522D01*
Y0052703D01*
X00139061Y00525652D01*
X00140116Y00524597D01*
X00141494Y00524026D01*
X00142986D01*
X00144364Y00524597D01*
X00145419Y00525652D01*
X0014599Y0052703D01*
Y00528522D01*
X00145419Y005299D01*
X00144364Y00530955D01*
X00142986Y00531526D01*
D02*
G37*
G36*
X00697782Y0052445D02*
X0069629D01*
X00694912Y00523879D01*
X00693857Y00522824D01*
X00693286Y00521446D01*
Y00519954D01*
X00693857Y00518576D01*
X00694912Y00517521D01*
X0069629Y0051695D01*
X00697782D01*
X0069916Y00517521D01*
X00700215Y00518576D01*
X00700786Y00519954D01*
Y00521446D01*
X00700215Y00522824D01*
X0069916Y00523879D01*
X00697782Y0052445D01*
D02*
G37*
G36*
X00142986Y00521602D02*
X00141494D01*
X00140116Y00521031D01*
X00139061Y00519977D01*
X0013849Y00518598D01*
Y00517106D01*
X00139061Y00515728D01*
X00140116Y00514673D01*
X00141494Y00514102D01*
X00142986D01*
X00144364Y00514673D01*
X00145419Y00515728D01*
X0014599Y00517106D01*
Y00518598D01*
X00145419Y00519977D01*
X00144364Y00521031D01*
X00142986Y00521602D01*
D02*
G37*
G36*
X00113074Y0052872D02*
X00110726D01*
X00108457Y00528112D01*
X00106423Y00526938D01*
X00104762Y00525277D01*
X00103588Y00523243D01*
X0010298Y00520974D01*
Y00518626D01*
X00103588Y00516357D01*
X00104762Y00514323D01*
X00106423Y00512662D01*
X00108457Y00511488D01*
X00110726Y0051088D01*
X00113074D01*
X00115343Y00511488D01*
X00117377Y00512662D01*
X00119038Y00514323D01*
X00120212Y00516357D01*
X0012082Y00518626D01*
Y00520974D01*
X00120212Y00523243D01*
X00119038Y00525277D01*
X00117377Y00526938D01*
X00115343Y00528112D01*
X00113074Y0052872D01*
D02*
G37*
G36*
X00087674D02*
X00085326D01*
X00083057Y00528112D01*
X00081023Y00526938D01*
X00079362Y00525277D01*
X00078188Y00523243D01*
X0007758Y00520974D01*
Y00518626D01*
X00078188Y00516357D01*
X00079362Y00514323D01*
X00081023Y00512662D01*
X00083057Y00511488D01*
X00085326Y0051088D01*
X00087674D01*
X00089943Y00511488D01*
X00091977Y00512662D01*
X00093638Y00514323D01*
X00094812Y00516357D01*
X0009542Y00518626D01*
Y00520974D01*
X00094812Y00523243D01*
X00093638Y00525277D01*
X00091977Y00526938D01*
X00089943Y00528112D01*
X00087674Y0052872D01*
D02*
G37*
G36*
X00589366Y0051756D02*
X00587874D01*
X00586496Y00516989D01*
X00585441Y00515934D01*
X0058487Y00514556D01*
Y00513064D01*
X00585441Y00511686D01*
X00586496Y00510631D01*
X00587874Y0051006D01*
X00589366D01*
X00590744Y00510631D01*
X00591799Y00511686D01*
X0059237Y00513064D01*
Y00514556D01*
X00591799Y00515934D01*
X00590744Y00516989D01*
X00589366Y0051756D01*
D02*
G37*
G36*
X00142986Y00511679D02*
X00141494D01*
X00140116Y00511108D01*
X00139061Y00510053D01*
X0013849Y00508674D01*
Y00507183D01*
X00139061Y00505804D01*
X00140116Y00504749D01*
X00141494Y00504179D01*
X00142986D01*
X00144364Y00504749D01*
X00145419Y00505804D01*
X0014599Y00507183D01*
Y00508674D01*
X00145419Y00510053D01*
X00144364Y00511108D01*
X00142986Y00511679D01*
D02*
G37*
G36*
X00560209Y0050603D02*
X00558908D01*
X00557706Y00505532D01*
X00556787Y00504612D01*
X00556289Y0050341D01*
Y0050211D01*
X00556787Y00500908D01*
X00557706Y00499988D01*
X00558908Y0049949D01*
X00560209D01*
X00561411Y00499988D01*
X00562331Y00500908D01*
X00562829Y0050211D01*
Y0050341D01*
X00562331Y00504612D01*
X00561411Y00505532D01*
X00560209Y0050603D01*
D02*
G37*
G36*
X00142986Y00501755D02*
X00141494D01*
X00140116Y00501184D01*
X00139061Y00500129D01*
X0013849Y0049875D01*
Y00497259D01*
X00139061Y0049588D01*
X00140116Y00494826D01*
X00141494Y00494255D01*
X00142986D01*
X00144364Y00494826D01*
X00145419Y0049588D01*
X0014599Y00497259D01*
Y0049875D01*
X00145419Y00500129D01*
X00144364Y00501184D01*
X00142986Y00501755D01*
D02*
G37*
G36*
X00113074Y0050332D02*
X00110726D01*
X00108457Y00502712D01*
X00106423Y00501538D01*
X00104762Y00499877D01*
X00103588Y00497843D01*
X0010298Y00495574D01*
Y00493226D01*
X00103588Y00490957D01*
X00104762Y00488923D01*
X00106423Y00487262D01*
X00108457Y00486088D01*
X00110726Y0048548D01*
X00113074D01*
X00115343Y00486088D01*
X00117377Y00487262D01*
X00119038Y00488923D01*
X00120212Y00490957D01*
X0012082Y00493226D01*
Y00495574D01*
X00120212Y00497843D01*
X00119038Y00499877D01*
X00117377Y00501538D01*
X00115343Y00502712D01*
X00113074Y0050332D01*
D02*
G37*
G36*
X00087674D02*
X00085326D01*
X00083057Y00502712D01*
X00081023Y00501538D01*
X00079362Y00499877D01*
X00078188Y00497843D01*
X0007758Y00495574D01*
Y00493226D01*
X00078188Y00490957D01*
X00079362Y00488923D01*
X00081023Y00487262D01*
X00083057Y00486088D01*
X00085326Y0048548D01*
X00087674D01*
X00089943Y00486088D01*
X00091977Y00487262D01*
X00093638Y00488923D01*
X00094812Y00490957D01*
X0009542Y00493226D01*
Y00495574D01*
X00094812Y00497843D01*
X00093638Y00499877D01*
X00091977Y00501538D01*
X00089943Y00502712D01*
X00087674Y0050332D01*
D02*
G37*
G36*
X00197443Y00480254D02*
X00195951D01*
X00194573Y00479683D01*
X00193518Y00478628D01*
X00192947Y0047725D01*
Y00475758D01*
X00193038Y00475538D01*
X00192296Y00474491D01*
X00191277Y00474497D01*
X00190546Y00475549D01*
X00190633Y00475758D01*
Y0047725D01*
X00190062Y00478628D01*
X00189007Y00479683D01*
X00187628Y00480254D01*
X00186137D01*
X00184758Y00479683D01*
X00183703Y00478628D01*
X00183133Y0047725D01*
Y00475758D01*
X00183703Y0047438D01*
X00184758Y00473325D01*
X00186137Y00472754D01*
X00187291D01*
X00188003Y00471997D01*
X00188193Y00471613D01*
X00188019Y00471193D01*
Y00469701D01*
X00188232Y00469187D01*
X00188013Y00468779D01*
X00187323Y00468062D01*
X00186137D01*
X00184758Y00467491D01*
X00183703Y00466436D01*
X00183133Y00465058D01*
Y00463566D01*
X00183703Y00462188D01*
X00184758Y00461133D01*
X00186137Y00460562D01*
X00187628D01*
X00189007Y00461133D01*
X00190062Y00462188D01*
X00190633Y00463566D01*
Y00465058D01*
X0019048Y00465425D01*
X00191205Y00466446D01*
X00192369Y00466452D01*
X00193104Y00465437D01*
X00192947Y00465058D01*
Y00463566D01*
X00193518Y00462188D01*
X00194573Y00461133D01*
X00195951Y00460562D01*
X00197443D01*
X00198821Y00461133D01*
X00199876Y00462188D01*
X00200447Y00463566D01*
Y00465058D01*
X00199876Y00466436D01*
X00198821Y00467491D01*
X00197443Y00468062D01*
X00196215D01*
X00195561Y00468721D01*
X00195297Y00469166D01*
X00195519Y00469701D01*
Y00471193D01*
X00195336Y00471634D01*
X00195565Y00472051D01*
X00196247Y00472754D01*
X00197443D01*
X00198821Y00473325D01*
X00199876Y0047438D01*
X00200447Y00475758D01*
Y0047725D01*
X00199876Y00478628D01*
X00198821Y00479683D01*
X00197443Y00480254D01*
D02*
G37*
G36*
X00217291D02*
X00215799D01*
X00214421Y00479683D01*
X00213366Y00478628D01*
X00212795Y0047725D01*
Y00475758D01*
X00213366Y0047438D01*
X00214421Y00473325D01*
X00215799Y00472754D01*
X00217291D01*
X00218669Y00473325D01*
X00219724Y0047438D01*
X00220295Y00475758D01*
Y0047725D01*
X00219724Y00478628D01*
X00218669Y00479683D01*
X00217291Y00480254D01*
D02*
G37*
G36*
X00523175Y00468439D02*
X00521684D01*
X00520305Y00467868D01*
X0051925Y00466813D01*
X00518679Y00465435D01*
Y00463943D01*
X0051925Y00462565D01*
X00520305Y0046151D01*
X00521684Y00460939D01*
X00523175D01*
X00524554Y0046151D01*
X00525608Y00462565D01*
X00526179Y00463943D01*
Y00465435D01*
X00525608Y00466813D01*
X00524554Y00467868D01*
X00523175Y00468439D01*
D02*
G37*
G36*
X00217291Y00468062D02*
X00215799D01*
X00214421Y00467491D01*
X00213366Y00466436D01*
X00212795Y00465058D01*
Y00463566D01*
X00213366Y00462188D01*
X00214421Y00461133D01*
X00215799Y00460562D01*
X00217291D01*
X00218669Y00461133D01*
X00219724Y00462188D01*
X00220295Y00463566D01*
Y00465058D01*
X00219724Y00466436D01*
X00218669Y00467491D01*
X00217291Y00468062D01*
D02*
G37*
G36*
X00207367D02*
X00205875D01*
X00204497Y00467491D01*
X00203442Y00466436D01*
X00202871Y00465058D01*
Y00463566D01*
X00203442Y00462188D01*
X00204497Y00461133D01*
X00205875Y00460562D01*
X00207367D01*
X00208745Y00461133D01*
X002098Y00462188D01*
X00210371Y00463566D01*
Y00465058D01*
X002098Y00466436D01*
X00208745Y00467491D01*
X00207367Y00468062D01*
D02*
G37*
G36*
X00113074Y0047792D02*
X00110726D01*
X00108457Y00477312D01*
X00106423Y00476138D01*
X00104762Y00474477D01*
X00103588Y00472443D01*
X0010298Y00470174D01*
Y00467826D01*
X00103588Y00465557D01*
X00104762Y00463523D01*
X00106423Y00461862D01*
X00108457Y00460688D01*
X00110726Y0046008D01*
X00113074D01*
X00115343Y00460688D01*
X00117377Y00461862D01*
X00119038Y00463523D01*
X00120212Y00465557D01*
X0012082Y00467826D01*
Y00470174D01*
X00120212Y00472443D01*
X00119038Y00474477D01*
X00117377Y00476138D01*
X00115343Y00477312D01*
X00113074Y0047792D01*
D02*
G37*
G36*
X00087674D02*
X00085326D01*
X00083057Y00477312D01*
X00081023Y00476138D01*
X00079362Y00474477D01*
X00078188Y00472443D01*
X0007758Y00470174D01*
Y00467826D01*
X00078188Y00465557D01*
X00079362Y00463523D01*
X00081023Y00461862D01*
X00083057Y00460688D01*
X00085326Y0046008D01*
X00087674D01*
X00089943Y00460688D01*
X00091977Y00461862D01*
X00093638Y00463523D01*
X00094812Y00465557D01*
X0009542Y00467826D01*
Y00470174D01*
X00094812Y00472443D01*
X00093638Y00474477D01*
X00091977Y00476138D01*
X00089943Y00477312D01*
X00087674Y0047792D01*
D02*
G37*
G36*
X00062274D02*
X00059926D01*
X00057657Y00477312D01*
X00055623Y00476138D01*
X00053962Y00474477D01*
X00052788Y00472443D01*
X0005218Y00470174D01*
Y00467826D01*
X00052788Y00465557D01*
X00053962Y00463523D01*
X00055623Y00461862D01*
X00057657Y00460688D01*
X00059926Y0046008D01*
X00062274D01*
X00064543Y00460688D01*
X00066577Y00461862D01*
X00068238Y00463523D01*
X00069412Y00465557D01*
X0007002Y00467826D01*
Y00470174D01*
X00069412Y00472443D01*
X00068238Y00474477D01*
X00066577Y00476138D01*
X00064543Y00477312D01*
X00062274Y0047792D01*
D02*
G37*
G36*
X00036874D02*
X00034526D01*
X00032257Y00477312D01*
X00030223Y00476138D01*
X00028562Y00474477D01*
X00027388Y00472443D01*
X0002678Y00470174D01*
Y00467826D01*
X00027388Y00465557D01*
X00028562Y00463523D01*
X00030223Y00461862D01*
X00032257Y00460688D01*
X00034526Y0046008D01*
X00036874D01*
X00039143Y00460688D01*
X00041177Y00461862D01*
X00042838Y00463523D01*
X00044012Y00465557D01*
X0004462Y00467826D01*
Y00470174D01*
X00044012Y00472443D01*
X00042838Y00474477D01*
X00041177Y00476138D01*
X00039143Y00477312D01*
X00036874Y0047792D01*
D02*
G37*
G36*
X00342445Y00456512D02*
X00341144D01*
X00339942Y00456014D01*
X00339022Y00455094D01*
X00338525Y00453893D01*
Y00452592D01*
X00339022Y0045139D01*
X00339942Y0045047D01*
X00341144Y00449972D01*
X00342445D01*
X00343647Y0045047D01*
X00344567Y0045139D01*
X00345065Y00452592D01*
Y00453893D01*
X00344567Y00455094D01*
X00343647Y00456014D01*
X00342445Y00456512D01*
D02*
G37*
G36*
X0033287D02*
X0033157D01*
X00330368Y00456014D01*
X00329448Y00455094D01*
X0032895Y00453893D01*
Y00452592D01*
X00329448Y0045139D01*
X00330368Y0045047D01*
X0033157Y00449972D01*
X0033287D01*
X00334072Y0045047D01*
X00334992Y0045139D01*
X0033549Y00452592D01*
Y00453893D01*
X00334992Y00455094D01*
X00334072Y00456014D01*
X0033287Y00456512D01*
D02*
G37*
G36*
X00337658Y00447942D02*
X00336357D01*
X00335155Y00447444D01*
X00334235Y00446524D01*
X00333737Y00445322D01*
Y00444021D01*
X00334235Y00442819D01*
X00335155Y00441899D01*
X00336357Y00441402D01*
X00337658D01*
X0033886Y00441899D01*
X0033978Y00442819D01*
X00340277Y00444021D01*
Y00445322D01*
X0033978Y00446524D01*
X0033886Y00447444D01*
X00337658Y00447942D01*
D02*
G37*
G36*
X00580759Y0044396D02*
X00579458D01*
X00578256Y00443462D01*
X00577337Y00442542D01*
X00576839Y0044134D01*
Y0044004D01*
X00577337Y00438838D01*
X00578256Y00437918D01*
X00579458Y0043742D01*
X00580759D01*
X00581961Y00437918D01*
X00582881Y00438838D01*
X00583379Y0044004D01*
Y0044134D01*
X00582881Y00442542D01*
X00581961Y00443462D01*
X00580759Y0044396D01*
D02*
G37*
G36*
X00113074Y0045252D02*
X00110726D01*
X00108457Y00451912D01*
X00106423Y00450738D01*
X00104762Y00449077D01*
X00103588Y00447043D01*
X0010298Y00444774D01*
Y00442426D01*
X00103588Y00440157D01*
X00104762Y00438123D01*
X00106423Y00436462D01*
X00108457Y00435288D01*
X00110726Y0043468D01*
X00113074D01*
X00115343Y00435288D01*
X00117377Y00436462D01*
X00119038Y00438123D01*
X00120212Y00440157D01*
X0012082Y00442426D01*
Y00444774D01*
X00120212Y00447043D01*
X00119038Y00449077D01*
X00117377Y00450738D01*
X00115343Y00451912D01*
X00113074Y0045252D01*
D02*
G37*
G36*
X00087674D02*
X00085326D01*
X00083057Y00451912D01*
X00081023Y00450738D01*
X00079362Y00449077D01*
X00078188Y00447043D01*
X0007758Y00444774D01*
Y00442426D01*
X00078188Y00440157D01*
X00079362Y00438123D01*
X00081023Y00436462D01*
X00083057Y00435288D01*
X00085326Y0043468D01*
X00087674D01*
X00089943Y00435288D01*
X00091977Y00436462D01*
X00093638Y00438123D01*
X00094812Y00440157D01*
X0009542Y00442426D01*
Y00444774D01*
X00094812Y00447043D01*
X00093638Y00449077D01*
X00091977Y00450738D01*
X00089943Y00451912D01*
X00087674Y0045252D01*
D02*
G37*
G36*
X00062337Y00453D02*
X00059862D01*
X00057472Y00452359D01*
X00055328Y00451122D01*
X00053578Y00449372D01*
X00052341Y00447228D01*
X000517Y00444837D01*
Y00442363D01*
X00052341Y00439972D01*
X00053578Y00437828D01*
X00055328Y00436078D01*
X00057472Y00434841D01*
X00059862Y004342D01*
X00062337D01*
X00064728Y00434841D01*
X00066872Y00436078D01*
X00068622Y00437828D01*
X00069859Y00439972D01*
X000705Y00442363D01*
Y00444837D01*
X00069859Y00447228D01*
X00068622Y00449372D01*
X00066872Y00451122D01*
X00064728Y00452359D01*
X00062337Y00453D01*
D02*
G37*
G36*
X00036937D02*
X00034462D01*
X00032072Y00452359D01*
X00029928Y00451122D01*
X00028178Y00449372D01*
X00026941Y00447228D01*
X000263Y00444837D01*
Y00442363D01*
X00026941Y00439972D01*
X00028178Y00437828D01*
X00029928Y00436078D01*
X00032072Y00434841D01*
X00034462Y004342D01*
X00036937D01*
X00039328Y00434841D01*
X00041472Y00436078D01*
X00043222Y00437828D01*
X00044459Y00439972D01*
X000451Y00442363D01*
Y00444837D01*
X00044459Y00447228D01*
X00043222Y00449372D01*
X00041472Y00451122D01*
X00039328Y00452359D01*
X00036937Y00453D01*
D02*
G37*
G36*
X00342445Y00439371D02*
X00341144D01*
X00339942Y00438873D01*
X00339022Y00437953D01*
X00338525Y00436752D01*
Y00435451D01*
X00339022Y00434249D01*
X00339942Y00433329D01*
X00341144Y00432831D01*
X00342445D01*
X00343647Y00433329D01*
X00344567Y00434249D01*
X00345065Y00435451D01*
Y00436752D01*
X00344567Y00437953D01*
X00343647Y00438873D01*
X00342445Y00439371D01*
D02*
G37*
G36*
X0033287D02*
X0033157D01*
X00330368Y00438873D01*
X00329448Y00437953D01*
X0032895Y00436752D01*
Y00435451D01*
X00329448Y00434249D01*
X00330368Y00433329D01*
X0033157Y00432831D01*
X0033287D01*
X00334072Y00433329D01*
X00334992Y00434249D01*
X0033549Y00435451D01*
Y00436752D01*
X00334992Y00437953D01*
X00334072Y00438873D01*
X0033287Y00439371D01*
D02*
G37*
G36*
X00580759Y0042745D02*
X00579458D01*
X00578256Y00426952D01*
X00577337Y00426032D01*
X00576839Y0042483D01*
Y0042353D01*
X00577337Y00422328D01*
X00578256Y00421408D01*
X00579458Y0042091D01*
X00580759D01*
X00581961Y00421408D01*
X00582881Y00422328D01*
X00583379Y0042353D01*
Y0042483D01*
X00582881Y00426032D01*
X00581961Y00426952D01*
X00580759Y0042745D01*
D02*
G37*
G36*
X00671986Y0041777D02*
X00670494D01*
X00669116Y00417199D01*
X00668061Y00416144D01*
X0066749Y00414766D01*
Y00413274D01*
X00668061Y00411896D01*
X00669116Y00410841D01*
X00670494Y0041027D01*
X00671986D01*
X00673364Y00410841D01*
X00674419Y00411896D01*
X0067499Y00413274D01*
Y00414766D01*
X00674419Y00416144D01*
X00673364Y00417199D01*
X00671986Y0041777D01*
D02*
G37*
G36*
X00113074Y0042712D02*
X00110726D01*
X00108457Y00426512D01*
X00106423Y00425338D01*
X00104762Y00423677D01*
X00103588Y00421643D01*
X0010298Y00419374D01*
Y00417026D01*
X00103588Y00414757D01*
X00104762Y00412723D01*
X00106423Y00411062D01*
X00108457Y00409888D01*
X00110726Y0040928D01*
X00113074D01*
X00115343Y00409888D01*
X00117377Y00411062D01*
X00119038Y00412723D01*
X00120212Y00414757D01*
X0012082Y00417026D01*
Y00419374D01*
X00120212Y00421643D01*
X00119038Y00423677D01*
X00117377Y00425338D01*
X00115343Y00426512D01*
X00113074Y0042712D01*
D02*
G37*
G36*
X00087674D02*
X00085326D01*
X00083057Y00426512D01*
X00081023Y00425338D01*
X00079362Y00423677D01*
X00078188Y00421643D01*
X0007758Y00419374D01*
Y00417026D01*
X00078188Y00414757D01*
X00079362Y00412723D01*
X00081023Y00411062D01*
X00083057Y00409888D01*
X00085326Y0040928D01*
X00087674D01*
X00089943Y00409888D01*
X00091977Y00411062D01*
X00093638Y00412723D01*
X00094812Y00414757D01*
X0009542Y00417026D01*
Y00419374D01*
X00094812Y00421643D01*
X00093638Y00423677D01*
X00091977Y00425338D01*
X00089943Y00426512D01*
X00087674Y0042712D01*
D02*
G37*
G36*
X00366118Y004157D02*
X00364817D01*
X00363615Y00415203D01*
X00362695Y00414283D01*
X00362197Y00413081D01*
Y0041178D01*
X00362695Y00410578D01*
X00363615Y00409658D01*
X00364817Y0040916D01*
X00366118D01*
X0036732Y00409658D01*
X00368239Y00410578D01*
X00368737Y0041178D01*
Y00413081D01*
X00368239Y00414283D01*
X0036732Y00415203D01*
X00366118Y004157D01*
D02*
G37*
G36*
X00356543D02*
X00355242D01*
X0035404Y00415203D01*
X00353121Y00414283D01*
X00352623Y00413081D01*
Y0041178D01*
X00353121Y00410578D01*
X0035404Y00409658D01*
X00355242Y0040916D01*
X00356543D01*
X00357745Y00409658D01*
X00358665Y00410578D01*
X00359163Y0041178D01*
Y00413081D01*
X00358665Y00414283D01*
X00357745Y00415203D01*
X00356543Y004157D01*
D02*
G37*
G36*
X00062337Y004276D02*
X00059862D01*
X00057472Y00426959D01*
X00055328Y00425722D01*
X00053578Y00423972D01*
X00052341Y00421828D01*
X000517Y00419437D01*
Y00416963D01*
X00052341Y00414572D01*
X00053578Y00412428D01*
X00055328Y00410678D01*
X00057472Y00409441D01*
X00059862Y004088D01*
X00062337D01*
X00064728Y00409441D01*
X00066872Y00410678D01*
X00068622Y00412428D01*
X00069859Y00414572D01*
X000705Y00416963D01*
Y00419437D01*
X00069859Y00421828D01*
X00068622Y00423972D01*
X00066872Y00425722D01*
X00064728Y00426959D01*
X00062337Y004276D01*
D02*
G37*
G36*
X00036937D02*
X00034462D01*
X00032072Y00426959D01*
X00029928Y00425722D01*
X00028178Y00423972D01*
X00026941Y00421828D01*
X000263Y00419437D01*
Y00416963D01*
X00026941Y00414572D01*
X00028178Y00412428D01*
X00029928Y00410678D01*
X00032072Y00409441D01*
X00034462Y004088D01*
X00036937D01*
X00039328Y00409441D01*
X00041472Y00410678D01*
X00043222Y00412428D01*
X00044459Y00414572D01*
X000451Y00416963D01*
Y00419437D01*
X00044459Y00421828D01*
X00043222Y00423972D01*
X00041472Y00425722D01*
X00039328Y00426959D01*
X00036937Y004276D01*
D02*
G37*
G36*
X00761183Y00409481D02*
X00759691D01*
X00758313Y0040891D01*
X00757258Y00407855D01*
X00756687Y00406476D01*
Y00404985D01*
X00757258Y00403606D01*
X00758313Y00402551D01*
X00759691Y00401981D01*
X00761183D01*
X00762561Y00402551D01*
X00763616Y00403606D01*
X00764187Y00404985D01*
Y00406476D01*
X00763616Y00407855D01*
X00762561Y0040891D01*
X00761183Y00409481D01*
D02*
G37*
G36*
X00751609D02*
X00750117D01*
X00748738Y0040891D01*
X00747684Y00407855D01*
X00747113Y00406476D01*
Y00404985D01*
X00747684Y00403606D01*
X00748738Y00402551D01*
X00750117Y00401981D01*
X00751609D01*
X00752987Y00402551D01*
X00754042Y00403606D01*
X00754613Y00404985D01*
Y00406476D01*
X00754042Y00407855D01*
X00752987Y0040891D01*
X00751609Y00409481D01*
D02*
G37*
G36*
X00450065Y00408862D02*
X00448573D01*
X00447195Y00408292D01*
X0044614Y00407237D01*
X00445569Y00405858D01*
Y00404367D01*
X0044614Y00402988D01*
X00447195Y00401933D01*
X00448573Y00401362D01*
X00450065D01*
X00451443Y00401933D01*
X00452498Y00402988D01*
X00453069Y00404367D01*
Y00405858D01*
X00452498Y00407237D01*
X00451443Y00408292D01*
X00450065Y00408862D01*
D02*
G37*
G36*
X00428017D02*
X00426525D01*
X00425147Y00408292D01*
X00424092Y00407237D01*
X00423521Y00405858D01*
Y00404367D01*
X00424092Y00402988D01*
X00425147Y00401933D01*
X00426525Y00401362D01*
X00428017D01*
X00429395Y00401933D01*
X0043045Y00402988D01*
X00431021Y00404367D01*
Y00405858D01*
X0043045Y00407237D01*
X00429395Y00408292D01*
X00428017Y00408862D01*
D02*
G37*
G36*
X0036133Y0040713D02*
X0036003D01*
X00358828Y00406632D01*
X00357908Y00405712D01*
X0035741Y0040451D01*
Y0040321D01*
X00357908Y00402008D01*
X00358828Y00401088D01*
X0036003Y0040059D01*
X0036133D01*
X00362532Y00401088D01*
X00363452Y00402008D01*
X0036395Y0040321D01*
Y0040451D01*
X00363452Y00405712D01*
X00362532Y00406632D01*
X0036133Y0040713D01*
D02*
G37*
G36*
X00756396Y0040091D02*
X00754904D01*
X00753526Y00400339D01*
X00752471Y00399284D01*
X007519Y00397906D01*
Y00396414D01*
X00752471Y00395036D01*
X00753526Y00393981D01*
X00754904Y0039341D01*
X00756396D01*
X00757774Y00393981D01*
X00758829Y00395036D01*
X007594Y00396414D01*
Y00397906D01*
X00758829Y00399284D01*
X00757774Y00400339D01*
X00756396Y0040091D01*
D02*
G37*
G36*
X00366118Y00398559D02*
X00364817D01*
X00363615Y00398062D01*
X00362695Y00397142D01*
X00362197Y0039594D01*
Y00394639D01*
X00362695Y00393437D01*
X00363615Y00392517D01*
X00364817Y0039202D01*
X00366118D01*
X0036732Y00392517D01*
X00368239Y00393437D01*
X00368737Y00394639D01*
Y0039594D01*
X00368239Y00397142D01*
X0036732Y00398062D01*
X00366118Y00398559D01*
D02*
G37*
G36*
X00356543D02*
X00355242D01*
X0035404Y00398062D01*
X00353121Y00397142D01*
X00352623Y0039594D01*
Y00394639D01*
X00353121Y00393437D01*
X0035404Y00392517D01*
X00355242Y0039202D01*
X00356543D01*
X00357745Y00392517D01*
X00358665Y00393437D01*
X00359163Y00394639D01*
Y0039594D01*
X00358665Y00397142D01*
X00357745Y00398062D01*
X00356543Y00398559D01*
D02*
G37*
G36*
X00266306Y00395377D02*
X00264815D01*
X00263436Y00394806D01*
X00262381Y00393751D01*
X00261811Y00392373D01*
Y00390881D01*
X00262381Y00389503D01*
X00263436Y00388448D01*
X00264815Y00387877D01*
X00266306D01*
X00267685Y00388448D01*
X0026874Y00389503D01*
X00269311Y00390881D01*
Y00392373D01*
X0026874Y00393751D01*
X00267685Y00394806D01*
X00266306Y00395377D01*
D02*
G37*
G36*
X00256732D02*
X0025524D01*
X00253862Y00394806D01*
X00252807Y00393751D01*
X00252236Y00392373D01*
Y00390881D01*
X00252807Y00389503D01*
X00253862Y00388448D01*
X0025524Y00387877D01*
X00256732D01*
X0025811Y00388448D01*
X00259165Y00389503D01*
X00259736Y00390881D01*
Y00392373D01*
X00259165Y00393751D01*
X0025811Y00394806D01*
X00256732Y00395377D01*
D02*
G37*
G36*
X0030889Y00395377D02*
X00307398D01*
X0030602Y00394806D01*
X00304965Y00393751D01*
X00304394Y00392373D01*
Y00390881D01*
X00304965Y00389503D01*
X0030602Y00388448D01*
X00307398Y00387877D01*
X0030889D01*
X00310268Y00388448D01*
X00311323Y00389503D01*
X00311894Y00390881D01*
Y00392373D01*
X00311323Y00393751D01*
X00310268Y00394806D01*
X0030889Y00395377D01*
D02*
G37*
G36*
X00299315D02*
X00297824D01*
X00296445Y00394806D01*
X0029539Y00393751D01*
X00294819Y00392373D01*
Y00390881D01*
X0029539Y00389503D01*
X00296445Y00388448D01*
X00297824Y00387877D01*
X00299315D01*
X00300694Y00388448D01*
X00301749Y00389503D01*
X00302319Y00390881D01*
Y00392373D01*
X00301749Y00393751D01*
X00300694Y00394806D01*
X00299315Y00395377D01*
D02*
G37*
G36*
X00761183Y0039234D02*
X00759691D01*
X00758313Y00391769D01*
X00757258Y00390714D01*
X00756687Y00389335D01*
Y00387844D01*
X00757258Y00386465D01*
X00758313Y0038541D01*
X00759691Y0038484D01*
X00761183D01*
X00762561Y0038541D01*
X00763616Y00386465D01*
X00764187Y00387844D01*
Y00389335D01*
X00763616Y00390714D01*
X00762561Y00391769D01*
X00761183Y0039234D01*
D02*
G37*
G36*
X00751609D02*
X00750117D01*
X00748738Y00391769D01*
X00747684Y00390714D01*
X00747113Y00389335D01*
Y00387844D01*
X00747684Y00386465D01*
X00748738Y0038541D01*
X00750117Y0038484D01*
X00751609D01*
X00752987Y0038541D01*
X00754042Y00386465D01*
X00754613Y00387844D01*
Y00389335D01*
X00754042Y00390714D01*
X00752987Y00391769D01*
X00751609Y0039234D01*
D02*
G37*
G36*
X00113074Y0040172D02*
X00110726D01*
X00108457Y00401112D01*
X00106423Y00399938D01*
X00104762Y00398277D01*
X00103588Y00396243D01*
X0010298Y00393974D01*
Y00391626D01*
X00103588Y00389357D01*
X00104762Y00387323D01*
X00106423Y00385662D01*
X00108457Y00384488D01*
X00110726Y0038388D01*
X00113074D01*
X00115343Y00384488D01*
X00117377Y00385662D01*
X00119038Y00387323D01*
X00120212Y00389357D01*
X0012082Y00391626D01*
Y00393974D01*
X00120212Y00396243D01*
X00119038Y00398277D01*
X00117377Y00399938D01*
X00115343Y00401112D01*
X00113074Y0040172D01*
D02*
G37*
G36*
X00087674D02*
X00085326D01*
X00083057Y00401112D01*
X00081023Y00399938D01*
X00079362Y00398277D01*
X00078188Y00396243D01*
X0007758Y00393974D01*
Y00391626D01*
X00078188Y00389357D01*
X00079362Y00387323D01*
X00081023Y00385662D01*
X00083057Y00384488D01*
X00085326Y0038388D01*
X00087674D01*
X00089943Y00384488D01*
X00091977Y00385662D01*
X00093638Y00387323D01*
X00094812Y00389357D01*
X0009542Y00391626D01*
Y00393974D01*
X00094812Y00396243D01*
X00093638Y00398277D01*
X00091977Y00399938D01*
X00089943Y00401112D01*
X00087674Y0040172D01*
D02*
G37*
G36*
X00062274D02*
X00059926D01*
X00057657Y00401112D01*
X00055623Y00399938D01*
X00053962Y00398277D01*
X00052788Y00396243D01*
X0005218Y00393974D01*
Y00391626D01*
X00052788Y00389357D01*
X00053962Y00387323D01*
X00055623Y00385662D01*
X00057657Y00384488D01*
X00059926Y0038388D01*
X00062274D01*
X00064543Y00384488D01*
X00066577Y00385662D01*
X00068238Y00387323D01*
X00069412Y00389357D01*
X0007002Y00391626D01*
Y00393974D01*
X00069412Y00396243D01*
X00068238Y00398277D01*
X00066577Y00399938D01*
X00064543Y00401112D01*
X00062274Y0040172D01*
D02*
G37*
G36*
X00036874D02*
X00034526D01*
X00032257Y00401112D01*
X00030223Y00399938D01*
X00028562Y00398277D01*
X00027388Y00396243D01*
X0002678Y00393974D01*
Y00391626D01*
X00027388Y00389357D01*
X00028562Y00387323D01*
X00030223Y00385662D01*
X00032257Y00384488D01*
X00034526Y0038388D01*
X00036874D01*
X00039143Y00384488D01*
X00041177Y00385662D01*
X00042838Y00387323D01*
X00044012Y00389357D01*
X0004462Y00391626D01*
Y00393974D01*
X00044012Y00396243D01*
X00042838Y00398277D01*
X00041177Y00399938D01*
X00039143Y00401112D01*
X00036874Y0040172D01*
D02*
G37*
G36*
X00591579Y00390359D02*
X00590088D01*
X00588709Y00389788D01*
X00587654Y00388733D01*
X00587084Y00387355D01*
Y00385863D01*
X00587654Y00384485D01*
X00588709Y0038343D01*
X00590088Y00382859D01*
X00591579D01*
X00592958Y0038343D01*
X00594013Y00384485D01*
X00594584Y00385863D01*
Y00387355D01*
X00594013Y00388733D01*
X00592958Y00389788D01*
X00591579Y00390359D01*
D02*
G37*
G36*
X00261519Y00386807D02*
X00260027D01*
X00258649Y00386236D01*
X00257594Y00385181D01*
X00257023Y00383803D01*
Y00382311D01*
X00257594Y00380933D01*
X00258649Y00379878D01*
X00260027Y00379307D01*
X00261519D01*
X00262897Y00379878D01*
X00263952Y00380933D01*
X00264523Y00382311D01*
Y00383803D01*
X00263952Y00385181D01*
X00262897Y00386236D01*
X00261519Y00386807D01*
D02*
G37*
G36*
X00304103Y00386807D02*
X00302611D01*
X00301232Y00386236D01*
X00300178Y00385181D01*
X00299607Y00383803D01*
Y00382311D01*
X00300178Y00380933D01*
X00301232Y00379878D01*
X00302611Y00379307D01*
X00304103D01*
X00305481Y00379878D01*
X00306536Y00380933D01*
X00307107Y00382311D01*
Y00383803D01*
X00306536Y00385181D01*
X00305481Y00386236D01*
X00304103Y00386807D01*
D02*
G37*
G36*
X00142092Y003837D02*
X00140601D01*
X00139222Y0038313D01*
X00138167Y00382075D01*
X00137596Y00380696D01*
Y00379204D01*
X00138167Y00377826D01*
X00139222Y00376771D01*
X00140601Y003762D01*
X00142092D01*
X00143471Y00376771D01*
X00144525Y00377826D01*
X00145096Y00379204D01*
Y00380696D01*
X00144525Y00382075D01*
X00143471Y0038313D01*
X00142092Y003837D01*
D02*
G37*
G36*
X00266306Y00378236D02*
X00264815D01*
X00263436Y00377665D01*
X00262381Y0037661D01*
X00261811Y00375232D01*
Y0037374D01*
X00262381Y00372362D01*
X00263436Y00371307D01*
X00264815Y00370736D01*
X00266306D01*
X00267685Y00371307D01*
X0026874Y00372362D01*
X00269311Y0037374D01*
Y00375232D01*
X0026874Y0037661D01*
X00267685Y00377665D01*
X00266306Y00378236D01*
D02*
G37*
G36*
X00256732D02*
X0025524D01*
X00253862Y00377665D01*
X00252807Y0037661D01*
X00252236Y00375232D01*
Y0037374D01*
X00252807Y00372362D01*
X00253862Y00371307D01*
X0025524Y00370736D01*
X00256732D01*
X0025811Y00371307D01*
X00259165Y00372362D01*
X00259736Y0037374D01*
Y00375232D01*
X00259165Y0037661D01*
X0025811Y00377665D01*
X00256732Y00378236D01*
D02*
G37*
G36*
X0030889Y00378236D02*
X00307398D01*
X0030602Y00377665D01*
X00304965Y0037661D01*
X00304394Y00375232D01*
Y0037374D01*
X00304965Y00372362D01*
X0030602Y00371307D01*
X00307398Y00370736D01*
X0030889D01*
X00310268Y00371307D01*
X00311323Y00372362D01*
X00311894Y0037374D01*
Y00375232D01*
X00311323Y0037661D01*
X00310268Y00377665D01*
X0030889Y00378236D01*
D02*
G37*
G36*
X00299315D02*
X00297824D01*
X00296445Y00377665D01*
X0029539Y0037661D01*
X00294819Y00375232D01*
Y0037374D01*
X0029539Y00372362D01*
X00296445Y00371307D01*
X00297824Y00370736D01*
X00299315D01*
X00300694Y00371307D01*
X00301749Y00372362D01*
X00302319Y0037374D01*
Y00375232D01*
X00301749Y0037661D01*
X00300694Y00377665D01*
X00299315Y00378236D01*
D02*
G37*
G36*
X00383993Y0037808D02*
X00382501D01*
X00381123Y0037751D01*
X00380068Y00376455D01*
X00379497Y00375076D01*
Y00373585D01*
X00380068Y00372206D01*
X00381123Y00371151D01*
X00382501Y0037058D01*
X00383993D01*
X00385372Y00371151D01*
X00386426Y00372206D01*
X00386997Y00373585D01*
Y00375076D01*
X00386426Y00376455D01*
X00385372Y0037751D01*
X00383993Y0037808D01*
D02*
G37*
G36*
X00374419D02*
X00372927D01*
X00371549Y0037751D01*
X00370494Y00376455D01*
X00369923Y00375076D01*
Y00373585D01*
X00370494Y00372206D01*
X00371549Y00371151D01*
X00372927Y0037058D01*
X00374419D01*
X00375797Y00371151D01*
X00376852Y00372206D01*
X00377423Y00373585D01*
Y00375076D01*
X00376852Y00376455D01*
X00375797Y0037751D01*
X00374419Y0037808D01*
D02*
G37*
G36*
X00379206Y0036951D02*
X00377714D01*
X00376336Y00368939D01*
X00375281Y00367884D01*
X0037471Y00366506D01*
Y00365014D01*
X00375281Y00363636D01*
X00376336Y00362581D01*
X00377714Y0036201D01*
X00379206D01*
X00380584Y00362581D01*
X00381639Y00363636D01*
X0038221Y00365014D01*
Y00366506D01*
X00381639Y00367884D01*
X00380584Y00368939D01*
X00379206Y0036951D01*
D02*
G37*
G36*
X00500175Y003659D02*
X00498874D01*
X00497672Y00365402D01*
X00496753Y00364483D01*
X00496255Y00363281D01*
Y0036198D01*
X00496753Y00360778D01*
X00497672Y00359858D01*
X00498874Y0035936D01*
X00500175D01*
X00501377Y00359858D01*
X00502297Y00360778D01*
X00502795Y0036198D01*
Y00363281D01*
X00502297Y00364483D01*
X00501377Y00365402D01*
X00500175Y003659D01*
D02*
G37*
G36*
X00113074Y0037632D02*
X00110726D01*
X00108457Y00375712D01*
X00106423Y00374538D01*
X00104762Y00372877D01*
X00103588Y00370843D01*
X0010298Y00368574D01*
Y00366226D01*
X00103588Y00363957D01*
X00104762Y00361923D01*
X00106423Y00360262D01*
X00108457Y00359088D01*
X00110726Y0035848D01*
X00113074D01*
X00115343Y00359088D01*
X00117377Y00360262D01*
X00119038Y00361923D01*
X00120212Y00363957D01*
X0012082Y00366226D01*
Y00368574D01*
X00120212Y00370843D01*
X00119038Y00372877D01*
X00117377Y00374538D01*
X00115343Y00375712D01*
X00113074Y0037632D01*
D02*
G37*
G36*
X00087674D02*
X00085326D01*
X00083057Y00375712D01*
X00081023Y00374538D01*
X00079362Y00372877D01*
X00078188Y00370843D01*
X0007758Y00368574D01*
Y00366226D01*
X00078188Y00363957D01*
X00079362Y00361923D01*
X00081023Y00360262D01*
X00083057Y00359088D01*
X00085326Y0035848D01*
X00087674D01*
X00089943Y00359088D01*
X00091977Y00360262D01*
X00093638Y00361923D01*
X00094812Y00363957D01*
X0009542Y00366226D01*
Y00368574D01*
X00094812Y00370843D01*
X00093638Y00372877D01*
X00091977Y00374538D01*
X00089943Y00375712D01*
X00087674Y0037632D01*
D02*
G37*
G36*
X00062274D02*
X00059926D01*
X00057657Y00375712D01*
X00055623Y00374538D01*
X00053962Y00372877D01*
X00052788Y00370843D01*
X0005218Y00368574D01*
Y00366226D01*
X00052788Y00363957D01*
X00053962Y00361923D01*
X00055623Y00360262D01*
X00057657Y00359088D01*
X00059926Y0035848D01*
X00062274D01*
X00064543Y00359088D01*
X00066577Y00360262D01*
X00068238Y00361923D01*
X00069412Y00363957D01*
X0007002Y00366226D01*
Y00368574D01*
X00069412Y00370843D01*
X00068238Y00372877D01*
X00066577Y00374538D01*
X00064543Y00375712D01*
X00062274Y0037632D01*
D02*
G37*
G36*
X00036874D02*
X00034526D01*
X00032257Y00375712D01*
X00030223Y00374538D01*
X00028562Y00372877D01*
X00027388Y00370843D01*
X0002678Y00368574D01*
Y00366226D01*
X00027388Y00363957D01*
X00028562Y00361923D01*
X00030223Y00360262D01*
X00032257Y00359088D01*
X00034526Y0035848D01*
X00036874D01*
X00039143Y00359088D01*
X00041177Y00360262D01*
X00042838Y00361923D01*
X00044012Y00363957D01*
X0004462Y00366226D01*
Y00368574D01*
X00044012Y00370843D01*
X00042838Y00372877D01*
X00041177Y00374538D01*
X00039143Y00375712D01*
X00036874Y0037632D01*
D02*
G37*
G36*
X00383993Y00360939D02*
X00382501D01*
X00381123Y00360369D01*
X00380068Y00359314D01*
X00379497Y00357935D01*
Y00356444D01*
X00380068Y00355065D01*
X00381123Y0035401D01*
X00382501Y00353439D01*
X00383993D01*
X00385372Y0035401D01*
X00386426Y00355065D01*
X00386997Y00356444D01*
Y00357935D01*
X00386426Y00359314D01*
X00385372Y00360369D01*
X00383993Y00360939D01*
D02*
G37*
G36*
X00374419D02*
X00372927D01*
X00371549Y00360369D01*
X00370494Y00359314D01*
X00369923Y00357935D01*
Y00356444D01*
X00370494Y00355065D01*
X00371549Y0035401D01*
X00372927Y00353439D01*
X00374419D01*
X00375797Y0035401D01*
X00376852Y00355065D01*
X00377423Y00356444D01*
Y00357935D01*
X00376852Y00359314D01*
X00375797Y00360369D01*
X00374419Y00360939D01*
D02*
G37*
G36*
X00242709Y00356028D02*
X00241408D01*
X00240206Y0035553D01*
X00239286Y0035461D01*
X00238788Y00353409D01*
Y00352108D01*
X00239286Y00350906D01*
X00240206Y00349986D01*
X00241408Y00349488D01*
X00242709D01*
X00243911Y00349986D01*
X0024483Y00350906D01*
X00245328Y00352108D01*
Y00353409D01*
X0024483Y0035461D01*
X00243911Y0035553D01*
X00242709Y00356028D01*
D02*
G37*
G36*
X00554559Y00358504D02*
X00553258D01*
X00552056Y00358006D01*
X00551136Y00357086D01*
X00550638Y00355885D01*
Y00354584D01*
X00551136Y00353382D01*
X00552056Y00352462D01*
X00552829Y00352142D01*
X00552886Y00350791D01*
X00552215Y00350513D01*
X00551295Y00349593D01*
X00550797Y00348391D01*
Y0034709D01*
X00551295Y00345888D01*
X00552215Y00344968D01*
X00553416Y00344471D01*
X00554717D01*
X00555919Y00344968D01*
X00556839Y00345888D01*
X00557337Y0034709D01*
Y00348391D01*
X00556839Y00349593D01*
X00555919Y00350513D01*
X00555146Y00350833D01*
X00555089Y00352184D01*
X0055576Y00352462D01*
X0055668Y00353382D01*
X00557178Y00354584D01*
Y00355885D01*
X0055668Y00357086D01*
X0055576Y00358006D01*
X00554559Y00358504D01*
D02*
G37*
G36*
X00761183Y00340801D02*
X00759691D01*
X00758313Y0034023D01*
X00757258Y00339175D01*
X00756687Y00337797D01*
Y00336305D01*
X00757258Y00334926D01*
X00758313Y00333871D01*
X00759691Y00333301D01*
X00761183D01*
X00762561Y00333871D01*
X00763616Y00334926D01*
X00764187Y00336305D01*
Y00337797D01*
X00763616Y00339175D01*
X00762561Y0034023D01*
X00761183Y00340801D01*
D02*
G37*
G36*
X00751609D02*
X00750117D01*
X00748738Y0034023D01*
X00747684Y00339175D01*
X00747113Y00337797D01*
Y00336305D01*
X00747684Y00334926D01*
X00748738Y00333871D01*
X00750117Y00333301D01*
X00751609D01*
X00752987Y00333871D01*
X00754042Y00334926D01*
X00754613Y00336305D01*
Y00337797D01*
X00754042Y00339175D01*
X00752987Y0034023D01*
X00751609Y00340801D01*
D02*
G37*
G36*
X00113074Y0035092D02*
X00110726D01*
X00108457Y00350312D01*
X00106423Y00349138D01*
X00104762Y00347477D01*
X00103588Y00345443D01*
X0010298Y00343174D01*
Y00340826D01*
X00103588Y00338557D01*
X00104762Y00336523D01*
X00106423Y00334862D01*
X00108457Y00333688D01*
X00110726Y0033308D01*
X00113074D01*
X00115343Y00333688D01*
X00117377Y00334862D01*
X00119038Y00336523D01*
X00120212Y00338557D01*
X0012082Y00340826D01*
Y00343174D01*
X00120212Y00345443D01*
X00119038Y00347477D01*
X00117377Y00349138D01*
X00115343Y00350312D01*
X00113074Y0035092D01*
D02*
G37*
G36*
X00087674D02*
X00085326D01*
X00083057Y00350312D01*
X00081023Y00349138D01*
X00079362Y00347477D01*
X00078188Y00345443D01*
X0007758Y00343174D01*
Y00340826D01*
X00078188Y00338557D01*
X00079362Y00336523D01*
X00081023Y00334862D01*
X00083057Y00333688D01*
X00085326Y0033308D01*
X00087674D01*
X00089943Y00333688D01*
X00091977Y00334862D01*
X00093638Y00336523D01*
X00094812Y00338557D01*
X0009542Y00340826D01*
Y00343174D01*
X00094812Y00345443D01*
X00093638Y00347477D01*
X00091977Y00349138D01*
X00089943Y00350312D01*
X00087674Y0035092D01*
D02*
G37*
G36*
X00062274D02*
X00059926D01*
X00057657Y00350312D01*
X00055623Y00349138D01*
X00053962Y00347477D01*
X00052788Y00345443D01*
X0005218Y00343174D01*
Y00340826D01*
X00052788Y00338557D01*
X00053962Y00336523D01*
X00055623Y00334862D01*
X00057657Y00333688D01*
X00059926Y0033308D01*
X00062274D01*
X00064543Y00333688D01*
X00066577Y00334862D01*
X00068238Y00336523D01*
X00069412Y00338557D01*
X0007002Y00340826D01*
Y00343174D01*
X00069412Y00345443D01*
X00068238Y00347477D01*
X00066577Y00349138D01*
X00064543Y00350312D01*
X00062274Y0035092D01*
D02*
G37*
G36*
X00036874D02*
X00034526D01*
X00032257Y00350312D01*
X00030223Y00349138D01*
X00028562Y00347477D01*
X00027388Y00345443D01*
X0002678Y00343174D01*
Y00340826D01*
X00027388Y00338557D01*
X00028562Y00336523D01*
X00030223Y00334862D01*
X00032257Y00333688D01*
X00034526Y0033308D01*
X00036874D01*
X00039143Y00333688D01*
X00041177Y00334862D01*
X00042838Y00336523D01*
X00044012Y00338557D01*
X0004462Y00340826D01*
Y00343174D01*
X00044012Y00345443D01*
X00042838Y00347477D01*
X00041177Y00349138D01*
X00039143Y00350312D01*
X00036874Y0035092D01*
D02*
G37*
G36*
X00245072Y00343613D02*
X0024358D01*
X00242202Y00343042D01*
X00241147Y00341987D01*
X00240576Y00340609D01*
Y00339117D01*
X00241147Y00337739D01*
X00241341Y00337545D01*
X00241992Y00336537D01*
X00240937Y00335482D01*
X00240366Y00334104D01*
Y00332612D01*
X00240937Y00331233D01*
X00241992Y00330179D01*
X0024337Y00329608D01*
X00244862D01*
X0024624Y00330179D01*
X00247295Y00331233D01*
X00247866Y00332612D01*
Y00334104D01*
X00247295Y00335482D01*
X00247101Y00335676D01*
X0024645Y00336684D01*
X00247505Y00337739D01*
X00248076Y00339117D01*
Y00340609D01*
X00247505Y00341987D01*
X0024645Y00343042D01*
X00245072Y00343613D01*
D02*
G37*
G36*
X00255843Y0033603D02*
X00254542D01*
X0025334Y00335532D01*
X0025242Y00334612D01*
X00251922Y0033341D01*
Y00332109D01*
X0025242Y00330907D01*
X0025334Y00329988D01*
X00254542Y0032949D01*
X00255843D01*
X00257045Y00329988D01*
X00257965Y00330907D01*
X00258462Y00332109D01*
Y0033341D01*
X00257965Y00334612D01*
X00257045Y00335532D01*
X00255843Y0033603D01*
D02*
G37*
G36*
X0031307Y00332775D02*
X0031177D01*
X00310568Y00332277D01*
X00309648Y00331357D01*
X0030915Y00330155D01*
Y00328854D01*
X00309648Y00327653D01*
X00310568Y00326733D01*
X0031177Y00326235D01*
X0031307D01*
X00314272Y00326733D01*
X00315192Y00327653D01*
X0031569Y00328854D01*
Y00330155D01*
X00315192Y00331357D01*
X00314272Y00332277D01*
X0031307Y00332775D01*
D02*
G37*
G36*
X00522714Y00332523D02*
X00521222D01*
X00519844Y00331952D01*
X00518789Y00330897D01*
X00518218Y00329518D01*
Y00328027D01*
X00518789Y00326648D01*
X00519844Y00325593D01*
X00521222Y00325023D01*
X00522714D01*
X00524092Y00325593D01*
X00525147Y00326648D01*
X00525718Y00328027D01*
Y00329518D01*
X00525147Y00330897D01*
X00524092Y00331952D01*
X00522714Y00332523D01*
D02*
G37*
G36*
X00756396Y0033223D02*
X00754904D01*
X00753526Y00331659D01*
X00752471Y00330604D01*
X007519Y00329226D01*
Y00327734D01*
X00752471Y00326356D01*
X00753526Y00325301D01*
X00754904Y0032473D01*
X00756396D01*
X00757774Y00325301D01*
X00758829Y00326356D01*
X007594Y00327734D01*
Y00329226D01*
X00758829Y00330604D01*
X00757774Y00331659D01*
X00756396Y0033223D01*
D02*
G37*
G36*
X00404763Y0032712D02*
X00403462D01*
X0040226Y00326622D01*
X0040134Y00325702D01*
X00400842Y003245D01*
Y003232D01*
X0040134Y00321998D01*
X0040226Y00321078D01*
X00403462Y0032058D01*
X00404763D01*
X00405965Y00321078D01*
X00406884Y00321998D01*
X00407382Y003232D01*
Y003245D01*
X00406884Y00325702D01*
X00405965Y00326622D01*
X00404763Y0032712D01*
D02*
G37*
G36*
X00394503D02*
X00393202D01*
X00392001Y00326622D01*
X00391081Y00325702D01*
X00390583Y003245D01*
Y003232D01*
X00391081Y00321998D01*
X00392001Y00321078D01*
X00393202Y0032058D01*
X00394503D01*
X00395705Y00321078D01*
X00396625Y00321998D01*
X00397123Y003232D01*
Y003245D01*
X00396625Y00325702D01*
X00395705Y00326622D01*
X00394503Y0032712D01*
D02*
G37*
G36*
X0030529Y00327103D02*
X00303989D01*
X00302787Y00326605D01*
X00301867Y00325685D01*
X00301369Y00324483D01*
Y00323182D01*
X00301867Y0032198D01*
X00302787Y0032106D01*
X00303989Y00320563D01*
X0030529D01*
X00306491Y0032106D01*
X00307411Y0032198D01*
X00307909Y00323182D01*
Y00324483D01*
X00307411Y00325685D01*
X00306491Y00326605D01*
X0030529Y00327103D01*
D02*
G37*
G36*
X00761183Y0032366D02*
X00759691D01*
X00758313Y00323089D01*
X00757258Y00322034D01*
X00756687Y00320655D01*
Y00319164D01*
X00757258Y00317785D01*
X00758313Y0031673D01*
X00759691Y00316159D01*
X00761183D01*
X00762561Y0031673D01*
X00763616Y00317785D01*
X00764187Y00319164D01*
Y00320655D01*
X00763616Y00322034D01*
X00762561Y00323089D01*
X00761183Y0032366D01*
D02*
G37*
G36*
X00751609D02*
X00750117D01*
X00748738Y00323089D01*
X00747684Y00322034D01*
X00747113Y00320655D01*
Y00319164D01*
X00747684Y00317785D01*
X00748738Y0031673D01*
X00750117Y00316159D01*
X00751609D01*
X00752987Y0031673D01*
X00754042Y00317785D01*
X00754613Y00319164D01*
Y00320655D01*
X00754042Y00322034D01*
X00752987Y00323089D01*
X00751609Y0032366D01*
D02*
G37*
G36*
X00113074Y0032552D02*
X00110726D01*
X00108457Y00324912D01*
X00106423Y00323738D01*
X00104762Y00322077D01*
X00103588Y00320043D01*
X0010298Y00317774D01*
Y00315426D01*
X00103588Y00313157D01*
X00104762Y00311123D01*
X00106423Y00309462D01*
X00108457Y00308288D01*
X00110726Y0030768D01*
X00113074D01*
X00115343Y00308288D01*
X00117377Y00309462D01*
X00119038Y00311123D01*
X00120212Y00313157D01*
X0012082Y00315426D01*
Y00317774D01*
X00120212Y00320043D01*
X00119038Y00322077D01*
X00117377Y00323738D01*
X00115343Y00324912D01*
X00113074Y0032552D01*
D02*
G37*
G36*
X00087674D02*
X00085326D01*
X00083057Y00324912D01*
X00081023Y00323738D01*
X00079362Y00322077D01*
X00078188Y00320043D01*
X0007758Y00317774D01*
Y00315426D01*
X00078188Y00313157D01*
X00079362Y00311123D01*
X00081023Y00309462D01*
X00083057Y00308288D01*
X00085326Y0030768D01*
X00087674D01*
X00089943Y00308288D01*
X00091977Y00309462D01*
X00093638Y00311123D01*
X00094812Y00313157D01*
X0009542Y00315426D01*
Y00317774D01*
X00094812Y00320043D01*
X00093638Y00322077D01*
X00091977Y00323738D01*
X00089943Y00324912D01*
X00087674Y0032552D01*
D02*
G37*
G36*
X00062274D02*
X00059926D01*
X00057657Y00324912D01*
X00055623Y00323738D01*
X00053962Y00322077D01*
X00052788Y00320043D01*
X0005218Y00317774D01*
Y00315426D01*
X00052788Y00313157D01*
X00053962Y00311123D01*
X00055623Y00309462D01*
X00057657Y00308288D01*
X00059926Y0030768D01*
X00062274D01*
X00064543Y00308288D01*
X00066577Y00309462D01*
X00068238Y00311123D01*
X00069412Y00313157D01*
X0007002Y00315426D01*
Y00317774D01*
X00069412Y00320043D01*
X00068238Y00322077D01*
X00066577Y00323738D01*
X00064543Y00324912D01*
X00062274Y0032552D01*
D02*
G37*
G36*
X00036874D02*
X00034526D01*
X00032257Y00324912D01*
X00030223Y00323738D01*
X00028562Y00322077D01*
X00027388Y00320043D01*
X0002678Y00317774D01*
Y00315426D01*
X00027388Y00313157D01*
X00028562Y00311123D01*
X00030223Y00309462D01*
X00032257Y00308288D01*
X00034526Y0030768D01*
X00036874D01*
X00039143Y00308288D01*
X00041177Y00309462D01*
X00042838Y00311123D01*
X00044012Y00313157D01*
X0004462Y00315426D01*
Y00317774D01*
X00044012Y00320043D01*
X00042838Y00322077D01*
X00041177Y00323738D01*
X00039143Y00324912D01*
X00036874Y0032552D01*
D02*
G37*
G36*
X00656179Y00307271D02*
X00654687D01*
X00653309Y003067D01*
X00652254Y00305645D01*
X00651683Y00304267D01*
Y00302775D01*
X00652254Y00301397D01*
X00653309Y00300342D01*
X00654687Y00299771D01*
X00656179D01*
X00657557Y00300342D01*
X00658612Y00301397D01*
X00659183Y00302775D01*
Y00304267D01*
X00658612Y00305645D01*
X00657557Y003067D01*
X00656179Y00307271D01*
D02*
G37*
G36*
X00634737Y00306613D02*
X00633245D01*
X00631867Y00306042D01*
X00630812Y00304988D01*
X00630241Y00303609D01*
Y00302117D01*
X00630812Y00300739D01*
X00631867Y00299684D01*
X00633245Y00299113D01*
X00634737D01*
X00636115Y00299684D01*
X0063717Y00300739D01*
X00637741Y00302117D01*
Y00303609D01*
X0063717Y00304988D01*
X00636115Y00306042D01*
X00634737Y00306613D01*
D02*
G37*
G36*
X00325866Y0030474D02*
X00324374D01*
X00322996Y00304169D01*
X00321941Y00303114D01*
X0032137Y00301736D01*
Y00300244D01*
X00321941Y00298866D01*
X00322996Y00297811D01*
X00324374Y0029724D01*
X00325866D01*
X00327244Y00297811D01*
X00328299Y00298866D01*
X0032887Y00300244D01*
Y00301736D01*
X00328299Y00303114D01*
X00327244Y00304169D01*
X00325866Y0030474D01*
D02*
G37*
G36*
X00291576Y00302708D02*
X00290084D01*
X00288706Y00302137D01*
X00287651Y00301082D01*
X0028708Y00299704D01*
Y00298212D01*
X00287651Y00296834D01*
X00288706Y00295779D01*
X00290084Y00295208D01*
X00291576D01*
X00292954Y00295779D01*
X00294009Y00296834D01*
X0029458Y00298212D01*
Y00299704D01*
X00294009Y00301082D01*
X00292954Y00302137D01*
X00291576Y00302708D01*
D02*
G37*
G36*
X00282293D02*
X00280801D01*
X00279423Y00302137D01*
X00278368Y00301082D01*
X00277797Y00299704D01*
Y00298212D01*
X00278368Y00296834D01*
X00279423Y00295779D01*
X00280801Y00295208D01*
X00282293D01*
X00283671Y00295779D01*
X00284726Y00296834D01*
X00285297Y00298212D01*
Y00299704D01*
X00284726Y00301082D01*
X00283671Y00302137D01*
X00282293Y00302708D01*
D02*
G37*
G36*
X00273011D02*
X00271519D01*
X0027014Y00302137D01*
X00269086Y00301082D01*
X00268515Y00299704D01*
Y00298212D01*
X00269086Y00296834D01*
X0027014Y00295779D01*
X00271519Y00295208D01*
X00273011D01*
X00274389Y00295779D01*
X00275444Y00296834D01*
X00276015Y00298212D01*
Y00299704D01*
X00275444Y00301082D01*
X00274389Y00302137D01*
X00273011Y00302708D01*
D02*
G37*
G36*
X00256619Y00301541D02*
X00255319D01*
X00254117Y00301044D01*
X00253197Y00300124D01*
X00252699Y00298922D01*
Y00297621D01*
X00253197Y00296419D01*
X00254117Y00295499D01*
X00255319Y00295001D01*
X00256619D01*
X00257821Y00295499D01*
X00258741Y00296419D01*
X00259239Y00297621D01*
Y00298922D01*
X00258741Y00300124D01*
X00257821Y00301044D01*
X00256619Y00301541D01*
D02*
G37*
G36*
X00348556Y0029952D02*
X00347255D01*
X00346053Y00299022D01*
X00345133Y00298102D01*
X00344635Y002969D01*
Y00295599D01*
X00345133Y00294397D01*
X00346053Y00293477D01*
X00347255Y0029298D01*
X00347458D01*
X0034856Y00292915D01*
X00348631Y00291806D01*
Y0029161D01*
X00349129Y00290408D01*
X00350049Y00289488D01*
X00351251Y0028899D01*
X00352552D01*
X00353753Y00289488D01*
X00354673Y00290408D01*
X00355171Y0029161D01*
Y0029291D01*
X00354673Y00294112D01*
X00353753Y00295032D01*
X00352552Y0029553D01*
X00352349D01*
X00351246Y00295595D01*
X00351175Y00296703D01*
Y002969D01*
X00350677Y00298102D01*
X00349757Y00299022D01*
X00348556Y0029952D01*
D02*
G37*
G36*
X00113074Y0030012D02*
X00110726D01*
X00108457Y00299512D01*
X00106423Y00298338D01*
X00104762Y00296677D01*
X00103588Y00294643D01*
X0010298Y00292374D01*
Y00290026D01*
X00103588Y00287757D01*
X00104762Y00285723D01*
X00106423Y00284062D01*
X00108457Y00282888D01*
X00110726Y0028228D01*
X00113074D01*
X00115343Y00282888D01*
X00117377Y00284062D01*
X00119038Y00285723D01*
X00120212Y00287757D01*
X0012082Y00290026D01*
Y00292374D01*
X00120212Y00294643D01*
X00119038Y00296677D01*
X00117377Y00298338D01*
X00115343Y00299512D01*
X00113074Y0030012D01*
D02*
G37*
G36*
X00087674D02*
X00085326D01*
X00083057Y00299512D01*
X00081023Y00298338D01*
X00079362Y00296677D01*
X00078188Y00294643D01*
X0007758Y00292374D01*
Y00290026D01*
X00078188Y00287757D01*
X00079362Y00285723D01*
X00081023Y00284062D01*
X00083057Y00282888D01*
X00085326Y0028228D01*
X00087674D01*
X00089943Y00282888D01*
X00091977Y00284062D01*
X00093638Y00285723D01*
X00094812Y00287757D01*
X0009542Y00290026D01*
Y00292374D01*
X00094812Y00294643D01*
X00093638Y00296677D01*
X00091977Y00298338D01*
X00089943Y00299512D01*
X00087674Y0030012D01*
D02*
G37*
G36*
X00062274D02*
X00059926D01*
X00057657Y00299512D01*
X00055623Y00298338D01*
X00053962Y00296677D01*
X00052788Y00294643D01*
X0005218Y00292374D01*
Y00290026D01*
X00052788Y00287757D01*
X00053962Y00285723D01*
X00055623Y00284062D01*
X00057657Y00282888D01*
X00059926Y0028228D01*
X00062274D01*
X00064543Y00282888D01*
X00066577Y00284062D01*
X00068238Y00285723D01*
X00069412Y00287757D01*
X0007002Y00290026D01*
Y00292374D01*
X00069412Y00294643D01*
X00068238Y00296677D01*
X00066577Y00298338D01*
X00064543Y00299512D01*
X00062274Y0030012D01*
D02*
G37*
G36*
X00036874D02*
X00034526D01*
X00032257Y00299512D01*
X00030223Y00298338D01*
X00028562Y00296677D01*
X00027388Y00294643D01*
X0002678Y00292374D01*
Y00290026D01*
X00027388Y00287757D01*
X00028562Y00285723D01*
X00030223Y00284062D01*
X00032257Y00282888D01*
X00034526Y0028228D01*
X00036874D01*
X00039143Y00282888D01*
X00041177Y00284062D01*
X00042838Y00285723D01*
X00044012Y00287757D01*
X0004462Y00290026D01*
Y00292374D01*
X00044012Y00294643D01*
X00042838Y00296677D01*
X00041177Y00298338D01*
X00039143Y00299512D01*
X00036874Y0030012D01*
D02*
G37*
G36*
X00113074Y0027472D02*
X00110726D01*
X00108457Y00274112D01*
X00106423Y00272938D01*
X00104762Y00271277D01*
X00103588Y00269243D01*
X0010298Y00266974D01*
Y00264626D01*
X00103588Y00262357D01*
X00104762Y00260323D01*
X00106423Y00258662D01*
X00108457Y00257488D01*
X00110726Y0025688D01*
X00113074D01*
X00115343Y00257488D01*
X00117377Y00258662D01*
X00119038Y00260323D01*
X00120212Y00262357D01*
X0012082Y00264626D01*
Y00266974D01*
X00120212Y00269243D01*
X00119038Y00271277D01*
X00117377Y00272938D01*
X00115343Y00274112D01*
X00113074Y0027472D01*
D02*
G37*
G36*
X00087674D02*
X00085326D01*
X00083057Y00274112D01*
X00081023Y00272938D01*
X00079362Y00271277D01*
X00078188Y00269243D01*
X0007758Y00266974D01*
Y00264626D01*
X00078188Y00262357D01*
X00079362Y00260323D01*
X00081023Y00258662D01*
X00083057Y00257488D01*
X00085326Y0025688D01*
X00087674D01*
X00089943Y00257488D01*
X00091977Y00258662D01*
X00093638Y00260323D01*
X00094812Y00262357D01*
X0009542Y00264626D01*
Y00266974D01*
X00094812Y00269243D01*
X00093638Y00271277D01*
X00091977Y00272938D01*
X00089943Y00274112D01*
X00087674Y0027472D01*
D02*
G37*
G36*
X00062274D02*
X00059926D01*
X00057657Y00274112D01*
X00055623Y00272938D01*
X00053962Y00271277D01*
X00052788Y00269243D01*
X0005218Y00266974D01*
Y00264626D01*
X00052788Y00262357D01*
X00053962Y00260323D01*
X00055623Y00258662D01*
X00057657Y00257488D01*
X00059926Y0025688D01*
X00062274D01*
X00064543Y00257488D01*
X00066577Y00258662D01*
X00068238Y00260323D01*
X00069412Y00262357D01*
X0007002Y00264626D01*
Y00266974D01*
X00069412Y00269243D01*
X00068238Y00271277D01*
X00066577Y00272938D01*
X00064543Y00274112D01*
X00062274Y0027472D01*
D02*
G37*
G36*
X00036874D02*
X00034526D01*
X00032257Y00274112D01*
X00030223Y00272938D01*
X00028562Y00271277D01*
X00027388Y00269243D01*
X0002678Y00266974D01*
Y00264626D01*
X00027388Y00262357D01*
X00028562Y00260323D01*
X00030223Y00258662D01*
X00032257Y00257488D01*
X00034526Y0025688D01*
X00036874D01*
X00039143Y00257488D01*
X00041177Y00258662D01*
X00042838Y00260323D01*
X00044012Y00262357D01*
X0004462Y00264626D01*
Y00266974D01*
X00044012Y00269243D01*
X00042838Y00271277D01*
X00041177Y00272938D01*
X00039143Y00274112D01*
X00036874Y0027472D01*
D02*
G37*
G36*
X00761183Y00262568D02*
X00759691D01*
X00758313Y00261998D01*
X00757258Y00260943D01*
X00756687Y00259564D01*
Y00258073D01*
X00757258Y00256694D01*
X00758313Y00255639D01*
X00759691Y00255068D01*
X00761183D01*
X00762561Y00255639D01*
X00763616Y00256694D01*
X00764187Y00258073D01*
Y00259564D01*
X00763616Y00260943D01*
X00762561Y00261998D01*
X00761183Y00262568D01*
D02*
G37*
G36*
X00751609D02*
X00750117D01*
X00748738Y00261998D01*
X00747684Y00260943D01*
X00747113Y00259564D01*
Y00258073D01*
X00747684Y00256694D01*
X00748738Y00255639D01*
X00750117Y00255068D01*
X00751609D01*
X00752987Y00255639D01*
X00754042Y00256694D01*
X00754613Y00258073D01*
Y00259564D01*
X00754042Y00260943D01*
X00752987Y00261998D01*
X00751609Y00262568D01*
D02*
G37*
G36*
X00346186Y00258059D02*
X00344694D01*
X00343316Y00257488D01*
X00342261Y00256433D01*
X0034169Y00255055D01*
Y00253563D01*
X00342261Y00252185D01*
X00343316Y0025113D01*
X00344694Y00250559D01*
X00346186D01*
X00347564Y0025113D01*
X00348619Y00252185D01*
X0034919Y00253563D01*
Y00255055D01*
X00348619Y00256433D01*
X00347564Y00257488D01*
X00346186Y00258059D01*
D02*
G37*
G36*
X00324596D02*
X00323104D01*
X00321726Y00257488D01*
X00320671Y00256433D01*
X003201Y00255055D01*
Y00253563D01*
X00320671Y00252185D01*
X00321726Y0025113D01*
X00323104Y00250559D01*
X00324596D01*
X00325974Y0025113D01*
X00327029Y00252185D01*
X003276Y00253563D01*
Y00255055D01*
X00327029Y00256433D01*
X00325974Y00257488D01*
X00324596Y00258059D01*
D02*
G37*
G36*
X00756396Y00253998D02*
X00754904D01*
X00753526Y00253427D01*
X00752471Y00252372D01*
X007519Y00250994D01*
Y00249502D01*
X00752471Y00248124D01*
X00753526Y00247069D01*
X00754904Y00246498D01*
X00756396D01*
X00757774Y00247069D01*
X00758829Y00248124D01*
X007594Y00249502D01*
Y00250994D01*
X00758829Y00252372D01*
X00757774Y00253427D01*
X00756396Y00253998D01*
D02*
G37*
G36*
X00346186Y00248135D02*
X00344694D01*
X00343316Y00247565D01*
X00342261Y0024651D01*
X0034169Y00245131D01*
Y00243639D01*
X00342261Y00242261D01*
X00343316Y00241206D01*
X00344694Y00240635D01*
X00346186D01*
X00347564Y00241206D01*
X00348619Y00242261D01*
X0034919Y00243639D01*
Y00245131D01*
X00348619Y0024651D01*
X00347564Y00247565D01*
X00346186Y00248135D01*
D02*
G37*
G36*
X00324596D02*
X00323104D01*
X00321726Y00247565D01*
X00320671Y0024651D01*
X003201Y00245131D01*
Y00243639D01*
X00320671Y00242261D01*
X00321726Y00241206D01*
X00323104Y00240635D01*
X00324596D01*
X00325974Y00241206D01*
X00327029Y00242261D01*
X003276Y00243639D01*
Y00245131D01*
X00327029Y0024651D01*
X00325974Y00247565D01*
X00324596Y00248135D01*
D02*
G37*
G36*
X00761183Y00245427D02*
X00759691D01*
X00758313Y00244857D01*
X00757258Y00243802D01*
X00756687Y00242423D01*
Y00240931D01*
X00757258Y00239553D01*
X00758313Y00238498D01*
X00759691Y00237927D01*
X00761183D01*
X00762561Y00238498D01*
X00763616Y00239553D01*
X00764187Y00240931D01*
Y00242423D01*
X00763616Y00243802D01*
X00762561Y00244857D01*
X00761183Y00245427D01*
D02*
G37*
G36*
X00751609D02*
X00750117D01*
X00748738Y00244857D01*
X00747684Y00243802D01*
X00747113Y00242423D01*
Y00240931D01*
X00747684Y00239553D01*
X00748738Y00238498D01*
X00750117Y00237927D01*
X00751609D01*
X00752987Y00238498D01*
X00754042Y00239553D01*
X00754613Y00240931D01*
Y00242423D01*
X00754042Y00243802D01*
X00752987Y00244857D01*
X00751609Y00245427D01*
D02*
G37*
G36*
X00335404Y0024269D02*
X00333913D01*
X00332534Y00242119D01*
X00331479Y00241064D01*
X00330908Y00239686D01*
Y00238194D01*
X00331479Y00236816D01*
X00332534Y00235761D01*
X00333913Y0023519D01*
X00335404D01*
X00336783Y00235761D01*
X00337837Y00236816D01*
X00338408Y00238194D01*
Y00239686D01*
X00337837Y00241064D01*
X00336783Y00242119D01*
X00335404Y0024269D01*
D02*
G37*
G36*
X00113074Y0024932D02*
X00110726D01*
X00108457Y00248712D01*
X00106423Y00247538D01*
X00104762Y00245877D01*
X00103588Y00243843D01*
X0010298Y00241574D01*
Y00239226D01*
X00103588Y00236957D01*
X00104762Y00234923D01*
X00106423Y00233262D01*
X00108457Y00232088D01*
X00110726Y0023148D01*
X00113074D01*
X00115343Y00232088D01*
X00117377Y00233262D01*
X00119038Y00234923D01*
X00120212Y00236957D01*
X0012082Y00239226D01*
Y00241574D01*
X00120212Y00243843D01*
X00119038Y00245877D01*
X00117377Y00247538D01*
X00115343Y00248712D01*
X00113074Y0024932D01*
D02*
G37*
G36*
X00087674D02*
X00085326D01*
X00083057Y00248712D01*
X00081023Y00247538D01*
X00079362Y00245877D01*
X00078188Y00243843D01*
X0007758Y00241574D01*
Y00239226D01*
X00078188Y00236957D01*
X00079362Y00234923D01*
X00081023Y00233262D01*
X00083057Y00232088D01*
X00085326Y0023148D01*
X00087674D01*
X00089943Y00232088D01*
X00091977Y00233262D01*
X00093638Y00234923D01*
X00094812Y00236957D01*
X0009542Y00239226D01*
Y00241574D01*
X00094812Y00243843D01*
X00093638Y00245877D01*
X00091977Y00247538D01*
X00089943Y00248712D01*
X00087674Y0024932D01*
D02*
G37*
G36*
X00062274D02*
X00059926D01*
X00057657Y00248712D01*
X00055623Y00247538D01*
X00053962Y00245877D01*
X00052788Y00243843D01*
X0005218Y00241574D01*
Y00239226D01*
X00052788Y00236957D01*
X00053962Y00234923D01*
X00055623Y00233262D01*
X00057657Y00232088D01*
X00059926Y0023148D01*
X00062274D01*
X00064543Y00232088D01*
X00066577Y00233262D01*
X00068238Y00234923D01*
X00069412Y00236957D01*
X0007002Y00239226D01*
Y00241574D01*
X00069412Y00243843D01*
X00068238Y00245877D01*
X00066577Y00247538D01*
X00064543Y00248712D01*
X00062274Y0024932D01*
D02*
G37*
G36*
X00036874D02*
X00034526D01*
X00032257Y00248712D01*
X00030223Y00247538D01*
X00028562Y00245877D01*
X00027388Y00243843D01*
X0002678Y00241574D01*
Y00239226D01*
X00027388Y00236957D01*
X00028562Y00234923D01*
X00030223Y00233262D01*
X00032257Y00232088D01*
X00034526Y0023148D01*
X00036874D01*
X00039143Y00232088D01*
X00041177Y00233262D01*
X00042838Y00234923D01*
X00044012Y00236957D01*
X0004462Y00239226D01*
Y00241574D01*
X00044012Y00243843D01*
X00042838Y00245877D01*
X00041177Y00247538D01*
X00039143Y00248712D01*
X00036874Y0024932D01*
D02*
G37*
G36*
X00346186Y00238211D02*
X00344694D01*
X00343316Y00237641D01*
X00342261Y00236586D01*
X0034169Y00235207D01*
Y00233716D01*
X00342261Y00232337D01*
X00343316Y00231282D01*
X00344694Y00230711D01*
X00346186D01*
X00347564Y00231282D01*
X00348619Y00232337D01*
X0034919Y00233716D01*
Y00235207D01*
X00348619Y00236586D01*
X00347564Y00237641D01*
X00346186Y00238211D01*
D02*
G37*
G36*
X00324596D02*
X00323104D01*
X00321726Y00237641D01*
X00320671Y00236586D01*
X003201Y00235207D01*
Y00233716D01*
X00320671Y00232337D01*
X00321726Y00231282D01*
X00323104Y00230711D01*
X00324596D01*
X00325974Y00231282D01*
X00327029Y00232337D01*
X003276Y00233716D01*
Y00235207D01*
X00327029Y00236586D01*
X00325974Y00237641D01*
X00324596Y00238211D01*
D02*
G37*
G36*
X00504608Y00229275D02*
X00503307D01*
X00502105Y00228777D01*
X00501185Y00227857D01*
X00500688Y00226656D01*
Y00225355D01*
X00501185Y00224153D01*
X00502105Y00223233D01*
X00503307Y00222735D01*
X00504608D01*
X0050581Y00223233D01*
X0050673Y00224153D01*
X00507228Y00225355D01*
Y00226656D01*
X0050673Y00227857D01*
X0050581Y00228777D01*
X00504608Y00229275D01*
D02*
G37*
G36*
X00276478Y00226264D02*
X00275177D01*
X00273975Y00225766D01*
X00273055Y00224846D01*
X00272557Y00223645D01*
Y00222344D01*
X00273055Y00221142D01*
X00273975Y00220222D01*
X00275177Y00219724D01*
X00276478D01*
X00277679Y00220222D01*
X00278599Y00221142D01*
X00279097Y00222344D01*
Y00223645D01*
X00278599Y00224846D01*
X00277679Y00225766D01*
X00276478Y00226264D01*
D02*
G37*
G36*
X00113074Y0022392D02*
X00110726D01*
X00108457Y00223312D01*
X00106423Y00222138D01*
X00104762Y00220477D01*
X00103588Y00218443D01*
X0010298Y00216174D01*
Y00213826D01*
X00103588Y00211557D01*
X00104762Y00209523D01*
X00106423Y00207862D01*
X00108457Y00206688D01*
X00110726Y0020608D01*
X00113074D01*
X00115343Y00206688D01*
X00117377Y00207862D01*
X00119038Y00209523D01*
X00120212Y00211557D01*
X0012082Y00213826D01*
Y00216174D01*
X00120212Y00218443D01*
X00119038Y00220477D01*
X00117377Y00222138D01*
X00115343Y00223312D01*
X00113074Y0022392D01*
D02*
G37*
G36*
X00087674D02*
X00085326D01*
X00083057Y00223312D01*
X00081023Y00222138D01*
X00079362Y00220477D01*
X00078188Y00218443D01*
X0007758Y00216174D01*
Y00213826D01*
X00078188Y00211557D01*
X00079362Y00209523D01*
X00081023Y00207862D01*
X00083057Y00206688D01*
X00085326Y0020608D01*
X00087674D01*
X00089943Y00206688D01*
X00091977Y00207862D01*
X00093638Y00209523D01*
X00094812Y00211557D01*
X0009542Y00213826D01*
Y00216174D01*
X00094812Y00218443D01*
X00093638Y00220477D01*
X00091977Y00222138D01*
X00089943Y00223312D01*
X00087674Y0022392D01*
D02*
G37*
G36*
X00062274D02*
X00059926D01*
X00057657Y00223312D01*
X00055623Y00222138D01*
X00053962Y00220477D01*
X00052788Y00218443D01*
X0005218Y00216174D01*
Y00213826D01*
X00052788Y00211557D01*
X00053962Y00209523D01*
X00055623Y00207862D01*
X00057657Y00206688D01*
X00059926Y0020608D01*
X00062274D01*
X00064543Y00206688D01*
X00066577Y00207862D01*
X00068238Y00209523D01*
X00069412Y00211557D01*
X0007002Y00213826D01*
Y00216174D01*
X00069412Y00218443D01*
X00068238Y00220477D01*
X00066577Y00222138D01*
X00064543Y00223312D01*
X00062274Y0022392D01*
D02*
G37*
G36*
X00036874D02*
X00034526D01*
X00032257Y00223312D01*
X00030223Y00222138D01*
X00028562Y00220477D01*
X00027388Y00218443D01*
X0002678Y00216174D01*
Y00213826D01*
X00027388Y00211557D01*
X00028562Y00209523D01*
X00030223Y00207862D01*
X00032257Y00206688D01*
X00034526Y0020608D01*
X00036874D01*
X00039143Y00206688D01*
X00041177Y00207862D01*
X00042838Y00209523D01*
X00044012Y00211557D01*
X0004462Y00213826D01*
Y00216174D01*
X00044012Y00218443D01*
X00042838Y00220477D01*
X00041177Y00222138D01*
X00039143Y00223312D01*
X00036874Y0022392D01*
D02*
G37*
G36*
X00686711Y00207656D02*
X0068541D01*
X00684208Y00207159D01*
X00683288Y00206239D01*
X00682791Y00205037D01*
Y00203736D01*
X00683288Y00202534D01*
X00684208Y00201614D01*
X0068541Y00201117D01*
X00686711D01*
X00687913Y00201614D01*
X00688833Y00202534D01*
X00689331Y00203736D01*
Y00205037D01*
X00688833Y00206239D01*
X00687913Y00207159D01*
X00686711Y00207656D01*
D02*
G37*
G36*
X00676787D02*
X00675486D01*
X00674285Y00207159D01*
X00673365Y00206239D01*
X00672867Y00205037D01*
Y00203736D01*
X00673365Y00202534D01*
X00674285Y00201614D01*
X00675486Y00201117D01*
X00676787D01*
X00677989Y00201614D01*
X00678909Y00202534D01*
X00679407Y00203736D01*
Y00205037D01*
X00678909Y00206239D01*
X00677989Y00207159D01*
X00676787Y00207656D01*
D02*
G37*
G36*
X00666863D02*
X00665563D01*
X00664361Y00207159D01*
X00663441Y00206239D01*
X00662943Y00205037D01*
Y00203736D01*
X00663441Y00202534D01*
X00664361Y00201614D01*
X00665563Y00201117D01*
X00666863D01*
X00668065Y00201614D01*
X00668985Y00202534D01*
X00669483Y00203736D01*
Y00205037D01*
X00668985Y00206239D01*
X00668065Y00207159D01*
X00666863Y00207656D01*
D02*
G37*
G36*
X00656939D02*
X00655639D01*
X00654437Y00207159D01*
X00653517Y00206239D01*
X00653019Y00205037D01*
Y00203736D01*
X00653517Y00202534D01*
X00654437Y00201614D01*
X00655639Y00201117D01*
X00656939D01*
X00658141Y00201614D01*
X00659061Y00202534D01*
X00659559Y00203736D01*
Y00205037D01*
X00659061Y00206239D01*
X00658141Y00207159D01*
X00656939Y00207656D01*
D02*
G37*
G36*
X00647016D02*
X00645715D01*
X00644513Y00207159D01*
X00643593Y00206239D01*
X00643095Y00205037D01*
Y00203736D01*
X00643593Y00202534D01*
X00644513Y00201614D01*
X00645715Y00201117D01*
X00647016D01*
X00648217Y00201614D01*
X00649137Y00202534D01*
X00649635Y00203736D01*
Y00205037D01*
X00649137Y00206239D01*
X00648217Y00207159D01*
X00647016Y00207656D01*
D02*
G37*
G36*
X00637092D02*
X00635791D01*
X00634589Y00207159D01*
X00633669Y00206239D01*
X00633171Y00205037D01*
Y00203736D01*
X00633669Y00202534D01*
X00634589Y00201614D01*
X00635791Y00201117D01*
X00637092D01*
X00638294Y00201614D01*
X00639213Y00202534D01*
X00639711Y00203736D01*
Y00205037D01*
X00639213Y00206239D01*
X00638294Y00207159D01*
X00637092Y00207656D01*
D02*
G37*
G36*
X00627168D02*
X00625867D01*
X00624665Y00207159D01*
X00623745Y00206239D01*
X00623247Y00205037D01*
Y00203736D01*
X00623745Y00202534D01*
X00624665Y00201614D01*
X00625867Y00201117D01*
X00627168D01*
X0062837Y00201614D01*
X0062929Y00202534D01*
X00629787Y00203736D01*
Y00205037D01*
X0062929Y00206239D01*
X0062837Y00207159D01*
X00627168Y00207656D01*
D02*
G37*
G36*
X00617244D02*
X00615943D01*
X00614741Y00207159D01*
X00613821Y00206239D01*
X00613324Y00205037D01*
Y00203736D01*
X00613821Y00202534D01*
X00614741Y00201614D01*
X00615943Y00201117D01*
X00617244D01*
X00618446Y00201614D01*
X00619366Y00202534D01*
X00619864Y00203736D01*
Y00205037D01*
X00619366Y00206239D01*
X00618446Y00207159D01*
X00617244Y00207656D01*
D02*
G37*
G36*
X0060732D02*
X00606019D01*
X00604817Y00207159D01*
X00603898Y00206239D01*
X006034Y00205037D01*
Y00203736D01*
X00603898Y00202534D01*
X00604817Y00201614D01*
X00606019Y00201117D01*
X0060732D01*
X00608522Y00201614D01*
X00609442Y00202534D01*
X0060994Y00203736D01*
Y00205037D01*
X00609442Y00206239D01*
X00608522Y00207159D01*
X0060732Y00207656D01*
D02*
G37*
G36*
X00597396D02*
X00596095D01*
X00594893Y00207159D01*
X00593974Y00206239D01*
X00593476Y00205037D01*
Y00203736D01*
X00593974Y00202534D01*
X00594893Y00201614D01*
X00596095Y00201117D01*
X00597396D01*
X00598598Y00201614D01*
X00599518Y00202534D01*
X00600016Y00203736D01*
Y00205037D01*
X00599518Y00206239D01*
X00598598Y00207159D01*
X00597396Y00207656D01*
D02*
G37*
G36*
X00366006Y00203571D02*
X00364705D01*
X00363503Y00203073D01*
X00362584Y00202153D01*
X00362086Y00200952D01*
Y00199651D01*
X00362584Y00198449D01*
X00363503Y00197529D01*
X00364705Y00197031D01*
X00366006D01*
X00367208Y00197529D01*
X00368128Y00198449D01*
X00368626Y00199651D01*
Y00200952D01*
X00368128Y00202153D01*
X00367208Y00203073D01*
X00366006Y00203571D01*
D02*
G37*
G36*
X00422036Y00201206D02*
X00420736D01*
X00419534Y00200708D01*
X00418614Y00199788D01*
X00418116Y00198586D01*
Y00197286D01*
X00418614Y00196084D01*
X00419534Y00195164D01*
X00420736Y00194666D01*
X00422036D01*
X00423238Y00195164D01*
X00424158Y00196084D01*
X00424656Y00197286D01*
Y00198586D01*
X00424158Y00199788D01*
X00423238Y00200708D01*
X00422036Y00201206D01*
D02*
G37*
G36*
X00761183Y00193888D02*
X00759691D01*
X00758313Y00193318D01*
X00757258Y00192263D01*
X00756687Y00190884D01*
Y00189393D01*
X00757258Y00188014D01*
X00758313Y00186959D01*
X00759691Y00186388D01*
X00761183D01*
X00762561Y00186959D01*
X00763616Y00188014D01*
X00764187Y00189393D01*
Y00190884D01*
X00763616Y00192263D01*
X00762561Y00193318D01*
X00761183Y00193888D01*
D02*
G37*
G36*
X00751609D02*
X00750117D01*
X00748738Y00193318D01*
X00747684Y00192263D01*
X00747113Y00190884D01*
Y00189393D01*
X00747684Y00188014D01*
X00748738Y00186959D01*
X00750117Y00186388D01*
X00751609D01*
X00752987Y00186959D01*
X00754042Y00188014D01*
X00754613Y00189393D01*
Y00190884D01*
X00754042Y00192263D01*
X00752987Y00193318D01*
X00751609Y00193888D01*
D02*
G37*
G36*
X00173497Y00187429D02*
X00172197D01*
X00170995Y00186931D01*
X00170075Y00186011D01*
X00169577Y00184809D01*
Y00183508D01*
X00170075Y00182307D01*
X00170995Y00181387D01*
X00172197Y00180889D01*
X00173497D01*
X00174699Y00181387D01*
X00175619Y00182307D01*
X00176117Y00183508D01*
Y00184809D01*
X00175619Y00186011D01*
X00174699Y00186931D01*
X00173497Y00187429D01*
D02*
G37*
G36*
X00113074Y0019852D02*
X00110726D01*
X00108457Y00197912D01*
X00106423Y00196738D01*
X00104762Y00195077D01*
X00103588Y00193043D01*
X0010298Y00190774D01*
Y00188426D01*
X00103588Y00186157D01*
X00104762Y00184123D01*
X00106423Y00182462D01*
X00108457Y00181288D01*
X00110726Y0018068D01*
X00113074D01*
X00115343Y00181288D01*
X00117377Y00182462D01*
X00119038Y00184123D01*
X00120212Y00186157D01*
X0012082Y00188426D01*
Y00190774D01*
X00120212Y00193043D01*
X00119038Y00195077D01*
X00117377Y00196738D01*
X00115343Y00197912D01*
X00113074Y0019852D01*
D02*
G37*
G36*
X00087674D02*
X00085326D01*
X00083057Y00197912D01*
X00081023Y00196738D01*
X00079362Y00195077D01*
X00078188Y00193043D01*
X0007758Y00190774D01*
Y00188426D01*
X00078188Y00186157D01*
X00079362Y00184123D01*
X00081023Y00182462D01*
X00083057Y00181288D01*
X00085326Y0018068D01*
X00087674D01*
X00089943Y00181288D01*
X00091977Y00182462D01*
X00093638Y00184123D01*
X00094812Y00186157D01*
X0009542Y00188426D01*
Y00190774D01*
X00094812Y00193043D01*
X00093638Y00195077D01*
X00091977Y00196738D01*
X00089943Y00197912D01*
X00087674Y0019852D01*
D02*
G37*
G36*
X00062274D02*
X00059926D01*
X00057657Y00197912D01*
X00055623Y00196738D01*
X00053962Y00195077D01*
X00052788Y00193043D01*
X0005218Y00190774D01*
Y00188426D01*
X00052788Y00186157D01*
X00053962Y00184123D01*
X00055623Y00182462D01*
X00057657Y00181288D01*
X00059926Y0018068D01*
X00062274D01*
X00064543Y00181288D01*
X00066577Y00182462D01*
X00068238Y00184123D01*
X00069412Y00186157D01*
X0007002Y00188426D01*
Y00190774D01*
X00069412Y00193043D01*
X00068238Y00195077D01*
X00066577Y00196738D01*
X00064543Y00197912D01*
X00062274Y0019852D01*
D02*
G37*
G36*
X00036874D02*
X00034526D01*
X00032257Y00197912D01*
X00030223Y00196738D01*
X00028562Y00195077D01*
X00027388Y00193043D01*
X0002678Y00190774D01*
Y00188426D01*
X00027388Y00186157D01*
X00028562Y00184123D01*
X00030223Y00182462D01*
X00032257Y00181288D01*
X00034526Y0018068D01*
X00036874D01*
X00039143Y00181288D01*
X00041177Y00182462D01*
X00042838Y00184123D01*
X00044012Y00186157D01*
X0004462Y00188426D01*
Y00190774D01*
X00044012Y00193043D01*
X00042838Y00195077D01*
X00041177Y00196738D01*
X00039143Y00197912D01*
X00036874Y0019852D01*
D02*
G37*
G36*
X00756396Y00185318D02*
X00754904D01*
X00753526Y00184747D01*
X00752471Y00183692D01*
X007519Y00182314D01*
Y00180822D01*
X00752471Y00179444D01*
X00753526Y00178389D01*
X00754904Y00177818D01*
X00756396D01*
X00757774Y00178389D01*
X00758829Y00179444D01*
X007594Y00180822D01*
Y00182314D01*
X00758829Y00183692D01*
X00757774Y00184747D01*
X00756396Y00185318D01*
D02*
G37*
G36*
X00761183Y00176747D02*
X00759691D01*
X00758313Y00176177D01*
X00757258Y00175122D01*
X00756687Y00173743D01*
Y00172252D01*
X00757258Y00170873D01*
X00758313Y00169818D01*
X00759691Y00169247D01*
X00761183D01*
X00762561Y00169818D01*
X00763616Y00170873D01*
X00764187Y00172252D01*
Y00173743D01*
X00763616Y00175122D01*
X00762561Y00176177D01*
X00761183Y00176747D01*
D02*
G37*
G36*
X00751609D02*
X00750117D01*
X00748738Y00176177D01*
X00747684Y00175122D01*
X00747113Y00173743D01*
Y00172252D01*
X00747684Y00170873D01*
X00748738Y00169818D01*
X00750117Y00169247D01*
X00751609D01*
X00752987Y00169818D01*
X00754042Y00170873D01*
X00754613Y00172252D01*
Y00173743D01*
X00754042Y00175122D01*
X00752987Y00176177D01*
X00751609Y00176747D01*
D02*
G37*
G36*
X00113074Y0017312D02*
X00110726D01*
X00108457Y00172512D01*
X00106423Y00171338D01*
X00104762Y00169677D01*
X00103588Y00167643D01*
X0010298Y00165374D01*
Y00163026D01*
X00103588Y00160757D01*
X00104762Y00158723D01*
X00106423Y00157062D01*
X00108457Y00155888D01*
X00110726Y0015528D01*
X00113074D01*
X00115343Y00155888D01*
X00117377Y00157062D01*
X00119038Y00158723D01*
X00120212Y00160757D01*
X0012082Y00163026D01*
Y00165374D01*
X00120212Y00167643D01*
X00119038Y00169677D01*
X00117377Y00171338D01*
X00115343Y00172512D01*
X00113074Y0017312D01*
D02*
G37*
G36*
X00087674D02*
X00085326D01*
X00083057Y00172512D01*
X00081023Y00171338D01*
X00079362Y00169677D01*
X00078188Y00167643D01*
X0007758Y00165374D01*
Y00163026D01*
X00078188Y00160757D01*
X00079362Y00158723D01*
X00081023Y00157062D01*
X00083057Y00155888D01*
X00085326Y0015528D01*
X00087674D01*
X00089943Y00155888D01*
X00091977Y00157062D01*
X00093638Y00158723D01*
X00094812Y00160757D01*
X0009542Y00163026D01*
Y00165374D01*
X00094812Y00167643D01*
X00093638Y00169677D01*
X00091977Y00171338D01*
X00089943Y00172512D01*
X00087674Y0017312D01*
D02*
G37*
G36*
X00062274D02*
X00059926D01*
X00057657Y00172512D01*
X00055623Y00171338D01*
X00053962Y00169677D01*
X00052788Y00167643D01*
X0005218Y00165374D01*
Y00163026D01*
X00052788Y00160757D01*
X00053962Y00158723D01*
X00055623Y00157062D01*
X00057657Y00155888D01*
X00059926Y0015528D01*
X00062274D01*
X00064543Y00155888D01*
X00066577Y00157062D01*
X00068238Y00158723D01*
X00069412Y00160757D01*
X0007002Y00163026D01*
Y00165374D01*
X00069412Y00167643D01*
X00068238Y00169677D01*
X00066577Y00171338D01*
X00064543Y00172512D01*
X00062274Y0017312D01*
D02*
G37*
G36*
X00036874D02*
X00034526D01*
X00032257Y00172512D01*
X00030223Y00171338D01*
X00028562Y00169677D01*
X00027388Y00167643D01*
X0002678Y00165374D01*
Y00163026D01*
X00027388Y00160757D01*
X00028562Y00158723D01*
X00030223Y00157062D01*
X00032257Y00155888D01*
X00034526Y0015528D01*
X00036874D01*
X00039143Y00155888D01*
X00041177Y00157062D01*
X00042838Y00158723D01*
X00044012Y00160757D01*
X0004462Y00163026D01*
Y00165374D01*
X00044012Y00167643D01*
X00042838Y00169677D01*
X00041177Y00171338D01*
X00039143Y00172512D01*
X00036874Y0017312D01*
D02*
G37*
G36*
X00798656Y00142538D02*
X00797164D01*
X00795786Y00141968D01*
X00794731Y00140913D01*
X0079416Y00139534D01*
Y00138043D01*
X00794731Y00136664D01*
X00795786Y00135609D01*
X00797164Y00135038D01*
X00798656D01*
X00800034Y00135609D01*
X00801089Y00136664D01*
X0080166Y00138043D01*
Y00139534D01*
X00801089Y00140913D01*
X00800034Y00141968D01*
X00798656Y00142538D01*
D02*
G37*
G36*
X00776177D02*
X00774685D01*
X00773307Y00141968D01*
X00772252Y00140913D01*
X00771681Y00139534D01*
Y00138043D01*
X00772252Y00136664D01*
X00773307Y00135609D01*
X00774685Y00135038D01*
X00776177D01*
X00777555Y00135609D01*
X0077861Y00136664D01*
X00779181Y00138043D01*
Y00139534D01*
X0077861Y00140913D01*
X00777555Y00141968D01*
X00776177Y00142538D01*
D02*
G37*
G36*
X00753699D02*
X00752207D01*
X00750829Y00141968D01*
X00749774Y00140913D01*
X00749203Y00139534D01*
Y00138043D01*
X00749774Y00136664D01*
X00750829Y00135609D01*
X00752207Y00135038D01*
X00753699D01*
X00755077Y00135609D01*
X00756132Y00136664D01*
X00756703Y00138043D01*
Y00139534D01*
X00756132Y00140913D01*
X00755077Y00141968D01*
X00753699Y00142538D01*
D02*
G37*
G36*
X0012082Y0014772D02*
X0010298D01*
Y0012988D01*
X0012082D01*
Y0014772D01*
D02*
G37*
G36*
X00087674D02*
X00085326D01*
X00083057Y00147112D01*
X00081023Y00145938D01*
X00079362Y00144277D01*
X00078188Y00142243D01*
X0007758Y00139974D01*
Y00137626D01*
X00078188Y00135357D01*
X00079362Y00133323D01*
X00081023Y00131662D01*
X00083057Y00130488D01*
X00085326Y0012988D01*
X00087674D01*
X00089943Y00130488D01*
X00091977Y00131662D01*
X00093638Y00133323D01*
X00094812Y00135357D01*
X0009542Y00137626D01*
Y00139974D01*
X00094812Y00142243D01*
X00093638Y00144277D01*
X00091977Y00145938D01*
X00089943Y00147112D01*
X00087674Y0014772D01*
D02*
G37*
G36*
X0007002D02*
X0005218D01*
Y0012988D01*
X0007002D01*
Y0014772D01*
D02*
G37*
G36*
X00036874D02*
X00034526D01*
X00032257Y00147112D01*
X00030223Y00145938D01*
X00028562Y00144277D01*
X00027388Y00142243D01*
X0002678Y00139974D01*
Y00137626D01*
X00027388Y00135357D01*
X00028562Y00133323D01*
X00030223Y00131662D01*
X00032257Y00130488D01*
X00034526Y0012988D01*
X00036874D01*
X00039143Y00130488D01*
X00041177Y00131662D01*
X00042838Y00133323D01*
X00044012Y00135357D01*
X0004462Y00137626D01*
Y00139974D01*
X00044012Y00142243D01*
X00042838Y00144277D01*
X00041177Y00145938D01*
X00039143Y00147112D01*
X00036874Y0014772D01*
D02*
G37*
G36*
X00142134Y00113257D02*
X00140642D01*
X00139263Y00112686D01*
X00138209Y00111631D01*
X00137638Y00110252D01*
Y00108761D01*
X00138209Y00107382D01*
X00139263Y00106327D01*
X00140642Y00105757D01*
X00142134D01*
X00143512Y00106327D01*
X00144567Y00107382D01*
X00145138Y00108761D01*
Y00110252D01*
X00144567Y00111631D01*
X00143512Y00112686D01*
X00142134Y00113257D01*
D02*
G37*
G36*
X00281575Y00105768D02*
X00280275D01*
X00279073Y0010527D01*
X00278153Y00104351D01*
X00277655Y00103149D01*
Y00101848D01*
X00278153Y00100646D01*
X00279073Y00099726D01*
X00280275Y00099228D01*
X00281575D01*
X00282777Y00099726D01*
X00283697Y00100646D01*
X00284195Y00101848D01*
Y00103149D01*
X00283697Y00104351D01*
X00282777Y0010527D01*
X00281575Y00105768D01*
D02*
G37*
G36*
X00504608Y00100935D02*
X00503307D01*
X00502105Y00100437D01*
X00501185Y00099517D01*
X00500688Y00098316D01*
Y00097015D01*
X00501185Y00095813D01*
X00502105Y00094893D01*
X00503307Y00094395D01*
X00504608D01*
X0050581Y00094893D01*
X0050673Y00095813D01*
X00507228Y00097015D01*
Y00098316D01*
X0050673Y00099517D01*
X0050581Y00100437D01*
X00504608Y00100935D01*
D02*
G37*
G36*
X00686711Y00079317D02*
X0068541D01*
X00684208Y00078819D01*
X00683288Y00077899D01*
X00682791Y00076697D01*
Y00075396D01*
X00683288Y00074194D01*
X00684208Y00073274D01*
X0068541Y00072776D01*
X00686711D01*
X00687913Y00073274D01*
X00688833Y00074194D01*
X00689331Y00075396D01*
Y00076697D01*
X00688833Y00077899D01*
X00687913Y00078819D01*
X00686711Y00079317D01*
D02*
G37*
G36*
X00676787D02*
X00675486D01*
X00674285Y00078819D01*
X00673365Y00077899D01*
X00672867Y00076697D01*
Y00075396D01*
X00673365Y00074194D01*
X00674285Y00073274D01*
X00675486Y00072776D01*
X00676787D01*
X00677989Y00073274D01*
X00678909Y00074194D01*
X00679407Y00075396D01*
Y00076697D01*
X00678909Y00077899D01*
X00677989Y00078819D01*
X00676787Y00079317D01*
D02*
G37*
G36*
X00666863D02*
X00665563D01*
X00664361Y00078819D01*
X00663441Y00077899D01*
X00662943Y00076697D01*
Y00075396D01*
X00663441Y00074194D01*
X00664361Y00073274D01*
X00665563Y00072776D01*
X00666863D01*
X00668065Y00073274D01*
X00668985Y00074194D01*
X00669483Y00075396D01*
Y00076697D01*
X00668985Y00077899D01*
X00668065Y00078819D01*
X00666863Y00079317D01*
D02*
G37*
G36*
X00656939D02*
X00655639D01*
X00654437Y00078819D01*
X00653517Y00077899D01*
X00653019Y00076697D01*
Y00075396D01*
X00653517Y00074194D01*
X00654437Y00073274D01*
X00655639Y00072776D01*
X00656939D01*
X00658141Y00073274D01*
X00659061Y00074194D01*
X00659559Y00075396D01*
Y00076697D01*
X00659061Y00077899D01*
X00658141Y00078819D01*
X00656939Y00079317D01*
D02*
G37*
G36*
X00647016D02*
X00645715D01*
X00644513Y00078819D01*
X00643593Y00077899D01*
X00643095Y00076697D01*
Y00075396D01*
X00643593Y00074194D01*
X00644513Y00073274D01*
X00645715Y00072776D01*
X00647016D01*
X00648217Y00073274D01*
X00649137Y00074194D01*
X00649635Y00075396D01*
Y00076697D01*
X00649137Y00077899D01*
X00648217Y00078819D01*
X00647016Y00079317D01*
D02*
G37*
G36*
X00637092D02*
X00635791D01*
X00634589Y00078819D01*
X00633669Y00077899D01*
X00633171Y00076697D01*
Y00075396D01*
X00633669Y00074194D01*
X00634589Y00073274D01*
X00635791Y00072776D01*
X00637092D01*
X00638294Y00073274D01*
X00639213Y00074194D01*
X00639711Y00075396D01*
Y00076697D01*
X00639213Y00077899D01*
X00638294Y00078819D01*
X00637092Y00079317D01*
D02*
G37*
G36*
X00627168D02*
X00625867D01*
X00624665Y00078819D01*
X00623745Y00077899D01*
X00623247Y00076697D01*
Y00075396D01*
X00623745Y00074194D01*
X00624665Y00073274D01*
X00625867Y00072776D01*
X00627168D01*
X0062837Y00073274D01*
X0062929Y00074194D01*
X00629787Y00075396D01*
Y00076697D01*
X0062929Y00077899D01*
X0062837Y00078819D01*
X00627168Y00079317D01*
D02*
G37*
G36*
X00617244D02*
X00615943D01*
X00614741Y00078819D01*
X00613821Y00077899D01*
X00613324Y00076697D01*
Y00075396D01*
X00613821Y00074194D01*
X00614741Y00073274D01*
X00615943Y00072776D01*
X00617244D01*
X00618446Y00073274D01*
X00619366Y00074194D01*
X00619864Y00075396D01*
Y00076697D01*
X00619366Y00077899D01*
X00618446Y00078819D01*
X00617244Y00079317D01*
D02*
G37*
G36*
X0060732D02*
X00606019D01*
X00604817Y00078819D01*
X00603898Y00077899D01*
X006034Y00076697D01*
Y00075396D01*
X00603898Y00074194D01*
X00604817Y00073274D01*
X00606019Y00072776D01*
X0060732D01*
X00608522Y00073274D01*
X00609442Y00074194D01*
X0060994Y00075396D01*
Y00076697D01*
X00609442Y00077899D01*
X00608522Y00078819D01*
X0060732Y00079317D01*
D02*
G37*
G36*
X00597396D02*
X00596095D01*
X00594893Y00078819D01*
X00593974Y00077899D01*
X00593476Y00076697D01*
Y00075396D01*
X00593974Y00074194D01*
X00594893Y00073274D01*
X00596095Y00072776D01*
X00597396D01*
X00598598Y00073274D01*
X00599518Y00074194D01*
X00600016Y00075396D01*
Y00076697D01*
X00599518Y00077899D01*
X00598598Y00078819D01*
X00597396Y00079317D01*
D02*
G37*
G36*
X00366006Y00075231D02*
X00364705D01*
X00363503Y00074733D01*
X00362584Y00073814D01*
X00362086Y00072612D01*
Y00071311D01*
X00362584Y00070109D01*
X00363503Y00069189D01*
X00364705Y00068691D01*
X00366006D01*
X00367208Y00069189D01*
X00368128Y00070109D01*
X00368626Y00071311D01*
Y00072612D01*
X00368128Y00073814D01*
X00367208Y00074733D01*
X00366006Y00075231D01*
D02*
G37*
G36*
X00422036Y00072866D02*
X00420736D01*
X00419534Y00072368D01*
X00418614Y00071448D01*
X00418116Y00070246D01*
Y00068946D01*
X00418614Y00067744D01*
X00419534Y00066824D01*
X00420736Y00066326D01*
X00422036D01*
X00423238Y00066824D01*
X00424158Y00067744D01*
X00424656Y00068946D01*
Y00070246D01*
X00424158Y00071448D01*
X00423238Y00072368D01*
X00422036Y00072866D01*
D02*
G37*
%LPD*%
G36*
X00338074Y00650032D02*
X00150114D01*
Y00675894D01*
X00296331D01*
X00296556Y0067535D01*
X00297476Y00674431D01*
X00298678Y00673933D01*
X00299979D01*
X00301181Y00674431D01*
X00302101Y0067535D01*
X00302326Y00675894D01*
X00311658D01*
Y0069596D01*
X00338074D01*
Y00650032D01*
D02*
G37*
D130*
X00666626Y00842982D02*
D03*
X00692026D02*
D03*
X00717426D02*
D03*
X00793626D02*
D03*
X00768226D02*
D03*
X00742826D02*
D03*
X00641226D02*
D03*
D131*
X00819026D02*
D03*
D132*
X000611Y00469D02*
D03*
X000865D02*
D03*
X000611Y004436D02*
D03*
X000357Y00469D02*
D03*
Y004436D02*
D03*
X000611Y004944D02*
D03*
X000357D02*
D03*
X000611Y005198D02*
D03*
X000357D02*
D03*
Y007484D02*
D03*
X000611D02*
D03*
X001119Y006976D02*
D03*
Y006722D02*
D03*
Y005198D02*
D03*
X000865D02*
D03*
X001119Y005452D02*
D03*
X000865D02*
D03*
X001119Y007484D02*
D03*
X000865D02*
D03*
X001119Y00469D02*
D03*
Y004436D02*
D03*
X000865D02*
D03*
Y002912D02*
D03*
X001119Y003166D02*
D03*
Y002912D02*
D03*
Y002658D02*
D03*
Y002404D02*
D03*
X000865Y001896D02*
D03*
X001119Y003928D02*
D03*
Y004182D02*
D03*
X000865Y003166D02*
D03*
X001119Y003674D02*
D03*
X000865D02*
D03*
Y003928D02*
D03*
Y004182D02*
D03*
X001119Y004944D02*
D03*
X000865D02*
D03*
X001119Y005706D02*
D03*
X000865D02*
D03*
Y006214D02*
D03*
Y006468D02*
D03*
X001119Y00723D02*
D03*
X000865D02*
D03*
X001119Y007738D02*
D03*
X000865D02*
D03*
Y001388D02*
D03*
Y001642D02*
D03*
X001119Y001896D02*
D03*
Y00215D02*
D03*
X000865D02*
D03*
Y002658D02*
D03*
Y002404D02*
D03*
Y006722D02*
D03*
Y006976D02*
D03*
X001119Y006214D02*
D03*
Y006468D02*
D03*
Y001642D02*
D03*
Y00342D02*
D03*
X000865D02*
D03*
Y00596D02*
D03*
X001119D02*
D03*
X000357Y005452D02*
D03*
X000611D02*
D03*
X000357Y006722D02*
D03*
X000611Y006468D02*
D03*
Y006722D02*
D03*
Y006976D02*
D03*
Y006214D02*
D03*
X000357Y006976D02*
D03*
X000611Y001642D02*
D03*
X000357Y002912D02*
D03*
X000611Y003166D02*
D03*
Y002912D02*
D03*
Y002658D02*
D03*
Y002404D02*
D03*
X000357Y001896D02*
D03*
Y003166D02*
D03*
X000611Y005706D02*
D03*
X000357D02*
D03*
Y006214D02*
D03*
Y006468D02*
D03*
X000611Y00723D02*
D03*
X000357D02*
D03*
X000611Y007738D02*
D03*
X000357D02*
D03*
Y001388D02*
D03*
Y001642D02*
D03*
X000611Y001896D02*
D03*
Y00215D02*
D03*
X000357D02*
D03*
Y002658D02*
D03*
Y002404D02*
D03*
X000611Y00596D02*
D03*
X000357D02*
D03*
Y00342D02*
D03*
X000611D02*
D03*
X000357Y003674D02*
D03*
Y003928D02*
D03*
Y004182D02*
D03*
X000611Y003928D02*
D03*
Y004182D02*
D03*
Y003674D02*
D03*
D134*
X001119Y001388D02*
D03*
X000611D02*
D03*
D135*
X0087Y0081D02*
D03*
X00885Y0078D02*
D03*
Y0072D02*
D03*
Y0066D02*
D03*
X0087Y0063D02*
D03*
X00885Y006D02*
D03*
X0087Y0057D02*
D03*
X00885Y0054D02*
D03*
Y0048D02*
D03*
X0087Y0045D02*
D03*
X00885Y0036D02*
D03*
Y0024D02*
D03*
Y0012D02*
D03*
X0087Y0009D02*
D03*
X0084Y0087D02*
D03*
Y0081D02*
D03*
X00855Y0078D02*
D03*
Y006D02*
D03*
Y0042D02*
D03*
Y003D02*
D03*
X0084Y0027D02*
D03*
Y0015D02*
D03*
X00855Y0012D02*
D03*
X0084Y0009D02*
D03*
Y0003D02*
D03*
X0081Y0087D02*
D03*
X00825Y0078D02*
D03*
X0081Y0075D02*
D03*
X00825Y0042D02*
D03*
X0081Y0015D02*
D03*
Y0003D02*
D03*
X0078Y0087D02*
D03*
Y0069D02*
D03*
Y0063D02*
D03*
Y0015D02*
D03*
Y0003D02*
D03*
X0075Y0087D02*
D03*
Y0069D02*
D03*
X00765Y0066D02*
D03*
X0075Y0063D02*
D03*
X00765Y006D02*
D03*
Y003D02*
D03*
Y0006D02*
D03*
X0075Y0003D02*
D03*
X0072Y0069D02*
D03*
X00735Y0066D02*
D03*
X0072Y0063D02*
D03*
X00735Y006D02*
D03*
Y0048D02*
D03*
Y0036D02*
D03*
Y003D02*
D03*
X00705Y0066D02*
D03*
X0069Y0063D02*
D03*
X00675Y0066D02*
D03*
Y006D02*
D03*
Y0048D02*
D03*
Y0018D02*
D03*
X00645D02*
D03*
X00615Y0084D02*
D03*
Y0018D02*
D03*
X00585Y0084D02*
D03*
X0057Y0057D02*
D03*
Y0045D02*
D03*
X00585Y003D02*
D03*
Y0018D02*
D03*
X00555Y0084D02*
D03*
X0054Y0081D02*
D03*
Y0069D02*
D03*
X00555Y0066D02*
D03*
X0054Y0057D02*
D03*
X00555Y0054D02*
D03*
X0054Y0045D02*
D03*
X00555Y0042D02*
D03*
X0054Y0033D02*
D03*
X00555Y003D02*
D03*
Y0018D02*
D03*
X00525Y0072D02*
D03*
Y0054D02*
D03*
Y0048D02*
D03*
Y0042D02*
D03*
Y003D02*
D03*
Y0018D02*
D03*
X0048Y0069D02*
D03*
X00495Y006D02*
D03*
Y0048D02*
D03*
Y0042D02*
D03*
Y0018D02*
D03*
X00465Y006D02*
D03*
Y0054D02*
D03*
X0042Y0063D02*
D03*
X00435Y006D02*
D03*
Y0054D02*
D03*
X0039Y0075D02*
D03*
Y0063D02*
D03*
X00405Y006D02*
D03*
X0039Y0057D02*
D03*
Y0051D02*
D03*
X00375Y0084D02*
D03*
Y0078D02*
D03*
X0036Y0075D02*
D03*
X00375Y0072D02*
D03*
X0036Y0069D02*
D03*
X00375Y0066D02*
D03*
Y006D02*
D03*
X0036Y0057D02*
D03*
X00375Y0054D02*
D03*
Y0048D02*
D03*
X0036Y0045D02*
D03*
X00375Y0018D02*
D03*
Y0006D02*
D03*
X00345Y0084D02*
D03*
Y0072D02*
D03*
X0033Y0057D02*
D03*
X00285Y0084D02*
D03*
Y0054D02*
D03*
Y0042D02*
D03*
X00255Y0084D02*
D03*
X0024Y0075D02*
D03*
X00255Y0042D02*
D03*
X00225Y0084D02*
D03*
X0021Y0015D02*
D03*
X0018Y0087D02*
D03*
X00195Y0072D02*
D03*
X0018Y0003D02*
D03*
X0015Y0087D02*
D03*
X00165Y0006D02*
D03*
X0015Y0003D02*
D03*
X0012Y0087D02*
D03*
X00135Y0084D02*
D03*
X0012Y0081D02*
D03*
Y0009D02*
D03*
X00135Y0006D02*
D03*
X0012Y0003D02*
D03*
X0009Y0087D02*
D03*
X00105Y0084D02*
D03*
X0009Y0081D02*
D03*
X00105Y0012D02*
D03*
Y0006D02*
D03*
X0009Y0003D02*
D03*
X0006Y0087D02*
D03*
X00075Y0066D02*
D03*
Y0012D02*
D03*
Y0006D02*
D03*
X0006Y0003D02*
D03*
X0003Y0087D02*
D03*
Y0003D02*
D03*
X0060198Y00274225D02*
D03*
X00613092D02*
D03*
X00635317Y00274623D02*
D03*
X00624205D02*
D03*
X0064643D02*
D03*
Y00260022D02*
D03*
X0060198Y00259624D02*
D03*
X00613092D02*
D03*
X00624205Y00260022D02*
D03*
X00635317D02*
D03*
X00668655Y0026042D02*
D03*
X00657542Y00260022D02*
D03*
X00668655Y00275021D02*
D03*
X00657542Y00274623D02*
D03*
Y00146283D02*
D03*
X00679768Y00146681D02*
D03*
X00668655D02*
D03*
X0069088D02*
D03*
Y0012954D02*
D03*
X00657542Y00129142D02*
D03*
X00668655Y0012954D02*
D03*
X00679768D02*
D03*
X00635317Y00129142D02*
D03*
X00624205D02*
D03*
X00613092Y00128744D02*
D03*
X0060198D02*
D03*
X0064643Y00129142D02*
D03*
Y00146283D02*
D03*
X00624205D02*
D03*
X00635317D02*
D03*
X00613092Y00145885D02*
D03*
X0060198D02*
D03*
X00300286Y00054318D02*
D03*
X00320133D02*
D03*
X0031021D02*
D03*
X00349905D02*
D03*
X00330057D02*
D03*
X00339981D02*
D03*
X00279097Y0017226D02*
D03*
X00298945D02*
D03*
X00289021D02*
D03*
X00328717D02*
D03*
X00308869D02*
D03*
X00318793D02*
D03*
X00769614Y00497093D02*
D03*
X0078486Y0051217D02*
D03*
X00752557Y00529898D02*
D03*
X00731211Y00529613D02*
D03*
X0070993Y005207D02*
D03*
X00590935Y0031819D02*
D03*
X00554067Y00347741D02*
D03*
X00553908Y00355234D02*
D03*
X00397274Y00276873D02*
D03*
Y00286515D02*
D03*
X00213274Y0061422D02*
D03*
X00432743Y00239808D02*
D03*
X00442317D02*
D03*
X0043753Y0023221D02*
D03*
X00280925Y00102498D02*
D03*
X0083409Y00662376D02*
D03*
X0083185Y0061468D02*
D03*
X00869479Y00614657D02*
D03*
X007493Y0080772D02*
D03*
X0071882D02*
D03*
X00620253Y00385485D02*
D03*
X00590834Y00386609D02*
D03*
X0079791Y00138788D02*
D03*
X00522398Y00784108D02*
D03*
X004823Y00791316D02*
D03*
X004746Y0072301D02*
D03*
X0045758D02*
D03*
X0035883Y00342985D02*
D03*
X00368754D02*
D03*
X00378678D02*
D03*
X00347457Y00343223D02*
D03*
X00237881Y0017226D02*
D03*
X00267652D02*
D03*
X00247805D02*
D03*
X00257728D02*
D03*
X0067124Y0041402D02*
D03*
X0058862Y0051381D02*
D03*
X0056807Y0048276D02*
D03*
X00432743Y000953D02*
D03*
Y00112441D02*
D03*
X00442317D02*
D03*
X0043753Y0010387D02*
D03*
X00442317Y000953D02*
D03*
X00432743Y0022364D02*
D03*
X00442317D02*
D03*
X00820502Y0006981D02*
D03*
X00798024D02*
D03*
X00775546D02*
D03*
X00753024Y00069767D02*
D03*
X00750902Y0035455D02*
D03*
Y00371691D02*
D03*
X00760476D02*
D03*
X00755689Y00363121D02*
D03*
X00760476Y0035455D02*
D03*
Y00207638D02*
D03*
X00755689Y00216209D02*
D03*
X00760476Y00224779D02*
D03*
X00750902D02*
D03*
Y00207638D02*
D03*
X0030683Y00298958D02*
D03*
X00436257Y0035474D02*
D03*
X0085092Y00459899D02*
D03*
X00769717Y00503513D02*
D03*
X00810842Y00795289D02*
D03*
Y00777289D02*
D03*
X00626455Y00808098D02*
D03*
X0061049Y0080772D02*
D03*
X0068834D02*
D03*
X0065786D02*
D03*
X0064262D02*
D03*
X006731D02*
D03*
X0057912Y0074676D02*
D03*
X004948Y0082677D02*
D03*
X004352D02*
D03*
X00245922Y00567258D02*
D03*
X0016188Y00294297D02*
D03*
X00150873Y00294643D02*
D03*
X00166663Y00305134D02*
D03*
X00156739D02*
D03*
X00146815D02*
D03*
X00141346Y0037995D02*
D03*
X00141388Y00109507D02*
D03*
X00760437Y0038859D02*
D03*
X00216545Y00464312D02*
D03*
X00290377Y0035528D02*
D03*
X0028559Y0034671D02*
D03*
X00290377Y00338139D02*
D03*
X00280803D02*
D03*
Y0035528D02*
D03*
X0075565Y00250248D02*
D03*
X00760437Y00319909D02*
D03*
X00341795Y00453242D02*
D03*
X00337007Y00444672D02*
D03*
X00341795Y00436101D02*
D03*
X0033222D02*
D03*
Y00453242D02*
D03*
X00334658Y0023894D02*
D03*
X0034544Y00254309D02*
D03*
Y00234461D02*
D03*
Y00244385D02*
D03*
X0032385Y00254309D02*
D03*
Y00234461D02*
D03*
Y00244385D02*
D03*
X00752953Y00138788D02*
D03*
X00775431D02*
D03*
X00869479Y00646661D02*
D03*
X00833131Y00743949D02*
D03*
X00833332Y00679871D02*
D03*
Y00711726D02*
D03*
X00821467Y0066235D02*
D03*
X00826745Y0064647D02*
D03*
X00829209Y00631116D02*
D03*
X00772735Y00720574D02*
D03*
X00347905Y0029625D02*
D03*
X00351901Y0029226D02*
D03*
X00255969Y00298271D02*
D03*
X00672091Y00302863D02*
D03*
X00655433Y00303521D02*
D03*
X0070739Y00440431D02*
D03*
X00750863Y00241677D02*
D03*
X00760437D02*
D03*
X00172847Y00184159D02*
D03*
X00669078Y00440431D02*
D03*
X0019922Y00204606D02*
D03*
X00213582Y00213176D02*
D03*
X00348669Y00153047D02*
D03*
X00358243D02*
D03*
X00377913Y00153445D02*
D03*
X00368339D02*
D03*
X00194433Y00213176D02*
D03*
X00204008D02*
D03*
X00208795Y00204606D02*
D03*
X00353456Y00272817D02*
D03*
X00348669Y00264246D02*
D03*
X00275827Y00222994D02*
D03*
X00217049Y0029836D02*
D03*
X00226973D02*
D03*
X00236896D02*
D03*
X0014605Y0057277D02*
D03*
Y00565191D02*
D03*
X00167538Y00453804D02*
D03*
X00177462D02*
D03*
X00186883D02*
D03*
X00196697Y00453644D02*
D03*
Y00464312D02*
D03*
X00244116Y00333358D02*
D03*
X00244326Y00339863D02*
D03*
X0032512Y0030099D02*
D03*
X00521968Y00328773D02*
D03*
X00393853Y0032385D02*
D03*
X00404112D02*
D03*
X00304639Y00323833D02*
D03*
X0031242Y00329505D02*
D03*
X00207368Y00603847D02*
D03*
X00213666Y00599D02*
D03*
X00255986Y00374486D02*
D03*
X00265561D02*
D03*
X00260773Y00383057D02*
D03*
X00206621Y00464312D02*
D03*
X00216545Y00453804D02*
D03*
X00206621D02*
D03*
X00186883Y00464312D02*
D03*
X00196697Y00476504D02*
D03*
X00191769Y00470447D02*
D03*
X00186883Y00476504D02*
D03*
X00456997Y00502849D02*
D03*
X00457327Y0041906D02*
D03*
X00246126Y00577262D02*
D03*
X00750863Y00337051D02*
D03*
X00760437D02*
D03*
X00685161Y00702215D02*
D03*
X00674792Y00702727D02*
D03*
X0044432Y0079121D02*
D03*
X0024892Y0081407D02*
D03*
Y0080716D02*
D03*
X00298921Y00707338D02*
D03*
Y00697763D02*
D03*
X00307491Y00702551D02*
D03*
X0032504Y00691564D02*
D03*
X00316469Y00677203D02*
D03*
X00299328D02*
D03*
Y00686777D02*
D03*
X00316469D02*
D03*
X0033361Y00677203D02*
D03*
X0032504Y0068199D02*
D03*
X0033361Y00686777D02*
D03*
X00190324Y00669846D02*
D03*
X00181753Y00665059D02*
D03*
X00190324Y00660272D02*
D03*
X00173183Y00669846D02*
D03*
X00156042D02*
D03*
Y00660272D02*
D03*
X00164612Y00665059D02*
D03*
X00173183Y00660272D02*
D03*
X00681099Y00551382D02*
D03*
X00697036Y005207D02*
D03*
X0070358Y0080772D02*
D03*
X00559559Y0050276D02*
D03*
X00580109Y0044069D02*
D03*
Y0042418D02*
D03*
X00411271Y00405112D02*
D03*
X00465319D02*
D03*
X00449319D02*
D03*
X00499525Y0036263D02*
D03*
X00427271Y00405112D02*
D03*
X00633991Y00302863D02*
D03*
X00617991D02*
D03*
X0016002Y0077724D02*
D03*
Y0083174D02*
D03*
X0040601Y0079032D02*
D03*
X00750863Y00172997D02*
D03*
Y00190138D02*
D03*
X00760437D02*
D03*
X0075565Y00181568D02*
D03*
X00760437Y00172997D02*
D03*
X00750863Y00319909D02*
D03*
X0075565Y0032848D02*
D03*
X00750863Y00258818D02*
D03*
X00760437D02*
D03*
Y00405731D02*
D03*
X0075565Y0039716D02*
D03*
X00750863Y0038859D02*
D03*
Y00405731D02*
D03*
X00365467Y0041243D02*
D03*
X00355893D02*
D03*
X0036068Y0040386D02*
D03*
X00365467Y00395289D02*
D03*
X00355893D02*
D03*
X00373673Y0037433D02*
D03*
X00383247D02*
D03*
X0037846Y0036576D02*
D03*
X00373673Y00357189D02*
D03*
X00383247D02*
D03*
X0053546Y00518539D02*
D03*
X00664725Y00509529D02*
D03*
X00648716Y0049276D02*
D03*
X00630936D02*
D03*
X00672071Y00543404D02*
D03*
X00173183Y00697763D02*
D03*
X00164612Y00702551D02*
D03*
X00156042Y00697763D02*
D03*
Y00707338D02*
D03*
X00173183D02*
D03*
X00324632Y00702551D02*
D03*
X00316062Y00707338D02*
D03*
X00333203D02*
D03*
X00333476Y00777115D02*
D03*
X0033401Y00794035D02*
D03*
X00333476Y00830575D02*
D03*
Y00814575D02*
D03*
X004906Y0072301D02*
D03*
X0044158D02*
D03*
X00429863Y00716947D02*
D03*
X0040259Y0068923D02*
D03*
Y0070612D02*
D03*
X00577868Y00579048D02*
D03*
X00524153Y0063242D02*
D03*
X0047125Y00812995D02*
D03*
X0057404Y0070866D02*
D03*
X00458945Y008128D02*
D03*
X0057404Y00696912D02*
D03*
X00216545Y00476504D02*
D03*
X00193022Y00485996D02*
D03*
Y00495417D02*
D03*
X00198262Y00505232D02*
D03*
X00203502Y00534391D02*
D03*
X00198262Y00524576D02*
D03*
Y00515155D02*
D03*
X00203342Y00544315D02*
D03*
Y00554239D02*
D03*
X00353353Y0048909D02*
D03*
Y0047195D02*
D03*
X00362927D02*
D03*
X0035814Y0048052D02*
D03*
X00362927Y0048909D02*
D03*
X00686061Y00204387D02*
D03*
X00676137D02*
D03*
X00656289D02*
D03*
X00666213D02*
D03*
X00596746D02*
D03*
X00616594D02*
D03*
X0060667D02*
D03*
X00646365D02*
D03*
X00626517D02*
D03*
X00636441D02*
D03*
Y00076047D02*
D03*
X00626517D02*
D03*
X00646365D02*
D03*
X0060667D02*
D03*
X00616594D02*
D03*
X00596746D02*
D03*
X00666213D02*
D03*
X00656289D02*
D03*
X00676137D02*
D03*
X00686061D02*
D03*
X00421386Y00069596D02*
D03*
X00281547Y00298958D02*
D03*
X00298569Y00391627D02*
D03*
X00308144D02*
D03*
X00303357Y00383057D02*
D03*
X00298569Y00374486D02*
D03*
X00308144D02*
D03*
X00265561Y00391627D02*
D03*
X00255986D02*
D03*
X00242058Y00352758D02*
D03*
X00255193Y0033276D02*
D03*
X0024682Y0029836D02*
D03*
X00213582Y00196035D02*
D03*
X00194433D02*
D03*
X00204008D02*
D03*
X00156972Y00614172D02*
D03*
X00522429Y00451989D02*
D03*
Y00464689D02*
D03*
X00246126Y00477381D02*
D03*
Y00487304D02*
D03*
Y00507152D02*
D03*
Y00497228D02*
D03*
Y00517076D02*
D03*
X00245922Y00527562D02*
D03*
Y00537486D02*
D03*
Y0054741D02*
D03*
Y00557334D02*
D03*
X00368339Y00264644D02*
D03*
X00363605Y00272773D02*
D03*
X0029083Y00298958D02*
D03*
X0014224Y00547624D02*
D03*
Y00527776D02*
D03*
Y005377D02*
D03*
Y00517852D02*
D03*
Y00507929D02*
D03*
Y00498005D02*
D03*
X00272265Y00298958D02*
D03*
X00421386Y00197936D02*
D03*
X00382701Y00144875D02*
D03*
X00387488Y00153445D02*
D03*
Y00136304D02*
D03*
X00334301Y0019025D02*
D03*
X00324377D02*
D03*
X00373126Y00273215D02*
D03*
X00377913Y00264644D02*
D03*
X00382701Y00273215D02*
D03*
X00387488Y00264644D02*
D03*
X00365356Y00071961D02*
D03*
X00503958Y00097665D02*
D03*
X00365356Y00200301D02*
D03*
X00503958Y00226005D02*
D03*
X00344225Y0019025D02*
D03*
X00304529D02*
D03*
X00314453D02*
D03*
X00294606D02*
D03*
X00358243Y00264246D02*
D03*
X00294606Y00061911D02*
D03*
X0030418D02*
D03*
X00313755D02*
D03*
X00325076D02*
D03*
X0033465D02*
D03*
X00344225D02*
D03*
X00363605Y00144433D02*
D03*
X00348669Y00135906D02*
D03*
X00358243D02*
D03*
X00353456Y00144477D02*
D03*
X00373126Y00144875D02*
D03*
X00368339Y00136304D02*
D03*
X00377913D02*
D03*
X00213582Y00084836D02*
D03*
X00208795Y00076266D02*
D03*
X00213582Y00067695D02*
D03*
X00204008D02*
D03*
X00194433D02*
D03*
X0019922Y00076266D02*
D03*
X00204008Y00084836D02*
D03*
X00194433D02*
D03*
X0062992Y00670523D02*
D03*
X00765786Y00757823D02*
D03*
X006731Y00763028D02*
D03*
X0045974Y0063246D02*
D03*
X0054102Y0064008D02*
D03*
X00052431Y00010171D02*
D03*
X00043431D02*
D03*
X00079431D02*
D03*
X00061431D02*
D03*
X00070431D02*
D03*
X00012229Y00022764D02*
D03*
X0001017Y00031525D02*
D03*
X00034431Y00010171D02*
D03*
X00017654Y00015583D02*
D03*
X00025484Y00011144D02*
D03*
X00142431Y00010171D02*
D03*
X00133431D02*
D03*
X00169431D02*
D03*
X00151431D02*
D03*
X00160431D02*
D03*
X00097431D02*
D03*
X00088431D02*
D03*
X00124431D02*
D03*
X00106431D02*
D03*
X00115431D02*
D03*
X00178431D02*
D03*
X0019643D02*
D03*
X0018743D02*
D03*
X00201502Y00017606D02*
D03*
X00208221Y00023593D02*
D03*
X00216873Y00026071D02*
D03*
X00270873Y0002617D02*
D03*
X00252873D02*
D03*
X00261873D02*
D03*
X00234873D02*
D03*
X00225873D02*
D03*
X00243873D02*
D03*
X00324873D02*
D03*
X00315872D02*
D03*
X00351872D02*
D03*
X00333872D02*
D03*
X00342872D02*
D03*
X00279873D02*
D03*
X00306873D02*
D03*
X00288873D02*
D03*
X00297873D02*
D03*
X0001017Y00058525D02*
D03*
Y00067525D02*
D03*
Y00040525D02*
D03*
Y00049525D02*
D03*
Y00085525D02*
D03*
Y00076525D02*
D03*
Y00094525D02*
D03*
X00414872Y0002617D02*
D03*
X00405872D02*
D03*
X00432872D02*
D03*
X00423872D02*
D03*
X00441872D02*
D03*
X00360872D02*
D03*
X00378872D02*
D03*
X00369872D02*
D03*
X00396872D02*
D03*
X00387872D02*
D03*
X00450872D02*
D03*
X00477872D02*
D03*
X00468872D02*
D03*
X00504872D02*
D03*
X00486872D02*
D03*
X00495872D02*
D03*
X00459872D02*
D03*
X00513872Y00026171D02*
D03*
X00522872Y00026171D02*
D03*
X00531872Y00026171D02*
D03*
X00540872Y00026171D02*
D03*
X00549872Y00026171D02*
D03*
X00558872Y00026171D02*
D03*
X00567872Y00026171D02*
D03*
X00010171Y00835087D02*
D03*
Y00826087D02*
D03*
Y00817087D02*
D03*
Y00853087D02*
D03*
Y00844087D02*
D03*
Y00862087D02*
D03*
X00010375Y00871085D02*
D03*
X00013495Y00879527D02*
D03*
X0001971Y00886037D02*
D03*
X0002803Y00889467D02*
D03*
X00046023Y00889826D02*
D03*
X00073023D02*
D03*
X00055023D02*
D03*
X00064023D02*
D03*
X00037023D02*
D03*
X00118023D02*
D03*
X00109023D02*
D03*
X00145023D02*
D03*
X00127023D02*
D03*
X00136023D02*
D03*
X00100023D02*
D03*
X00082023D02*
D03*
X00091023D02*
D03*
X00219902Y00873824D02*
D03*
X00228902Y00873824D02*
D03*
X00237902Y00873824D02*
D03*
X00246902Y00873824D02*
D03*
X00255902Y00873824D02*
D03*
X00172023Y00889826D02*
D03*
X00163023D02*
D03*
X00198744Y00887603D02*
D03*
X00181023Y00889826D02*
D03*
X00190023D02*
D03*
X00154023D02*
D03*
X00264902Y00873824D02*
D03*
X00273902Y00873824D02*
D03*
X00282902Y00873824D02*
D03*
X00291902Y00873824D02*
D03*
X00300902Y00873824D02*
D03*
X00203387Y00879893D02*
D03*
X00309902Y00873825D02*
D03*
X0021099Y00875078D02*
D03*
X00318902Y00873825D02*
D03*
X00327902Y00873825D02*
D03*
X00336902Y00873825D02*
D03*
X00345902Y00873825D02*
D03*
X00354902Y00873825D02*
D03*
X00363902Y00873825D02*
D03*
X00372902Y00873825D02*
D03*
X00381902Y00873825D02*
D03*
X00390902Y00873825D02*
D03*
X00399902Y00873825D02*
D03*
X00408902Y00873826D02*
D03*
X00435902Y00873826D02*
D03*
X00417902D02*
D03*
X00426902D02*
D03*
X00498902D02*
D03*
X00507902D02*
D03*
X00453902D02*
D03*
X00444902D02*
D03*
X00480902D02*
D03*
X00462902D02*
D03*
X00471902D02*
D03*
X00543902D02*
D03*
X00534902D02*
D03*
X00570902D02*
D03*
X00552902D02*
D03*
X00561902D02*
D03*
X00525902D02*
D03*
X00489902D02*
D03*
X00516902D02*
D03*
X00576872Y00026171D02*
D03*
X00585872Y00026171D02*
D03*
X00594872Y00026171D02*
D03*
X00603872Y00026171D02*
D03*
X00612872Y00026172D02*
D03*
X00621872Y00026172D02*
D03*
X00630872Y00026172D02*
D03*
X00639872Y00026172D02*
D03*
X00648872Y00026172D02*
D03*
X00657872Y00026172D02*
D03*
X00666872Y00026172D02*
D03*
X00675872Y00026172D02*
D03*
X00684872Y00026172D02*
D03*
X00693872Y00026172D02*
D03*
X00749685Y00010171D02*
D03*
X00767685D02*
D03*
X00758685D02*
D03*
X00785685D02*
D03*
X00776685D02*
D03*
X00812685D02*
D03*
X00794685D02*
D03*
X00803685D02*
D03*
X00702872Y00026172D02*
D03*
X00711872Y00026172D02*
D03*
X00731693Y0001055D02*
D03*
X00720652Y00024198D02*
D03*
X0072772Y00018625D02*
D03*
X00740685Y00010171D02*
D03*
X00830685D02*
D03*
X00821685D02*
D03*
X00866685D02*
D03*
X00839685D02*
D03*
X00875685D02*
D03*
X00884685D02*
D03*
X00893685D02*
D03*
X00857685D02*
D03*
X00848685D02*
D03*
X00902669Y00010701D02*
D03*
X00910898Y00014346D02*
D03*
X00916874Y00021076D02*
D03*
X00919681Y00029627D02*
D03*
X00919829Y00047626D02*
D03*
Y00083626D02*
D03*
Y00092626D02*
D03*
Y00056626D02*
D03*
Y00074626D02*
D03*
Y00065626D02*
D03*
Y00038626D02*
D03*
X00903829Y00166979D02*
D03*
Y00175979D02*
D03*
X00906356Y00140316D02*
D03*
X00903829Y00157979D02*
D03*
X00903919Y0014898D02*
D03*
X00903829Y00211979D02*
D03*
Y00220979D02*
D03*
Y00184979D02*
D03*
Y00202979D02*
D03*
Y00193979D02*
D03*
X00919829Y00101626D02*
D03*
Y00119626D02*
D03*
Y00110626D02*
D03*
X00912304Y00133562D02*
D03*
X00919829Y00128626D02*
D03*
X00903829Y00256979D02*
D03*
Y00265979D02*
D03*
Y00229979D02*
D03*
Y00247979D02*
D03*
Y00238979D02*
D03*
X00903829Y00310979D02*
D03*
Y00319979D02*
D03*
Y00283979D02*
D03*
Y00301979D02*
D03*
Y00292979D02*
D03*
Y00274979D02*
D03*
Y00355979D02*
D03*
Y00364979D02*
D03*
Y00328979D02*
D03*
Y00346979D02*
D03*
Y00337979D02*
D03*
Y00382979D02*
D03*
Y00391979D02*
D03*
Y00373979D02*
D03*
X00903829Y00490979D02*
D03*
Y00481979D02*
D03*
Y00427979D02*
D03*
Y00436979D02*
D03*
Y00400979D02*
D03*
Y00418979D02*
D03*
Y00409979D02*
D03*
Y00472979D02*
D03*
Y00445979D02*
D03*
Y00463979D02*
D03*
Y00454979D02*
D03*
X00597901Y00873826D02*
D03*
X00588901D02*
D03*
X00624902D02*
D03*
X00606902D02*
D03*
X00615901D02*
D03*
X00579902D02*
D03*
X00642901D02*
D03*
X00633901D02*
D03*
X00669901D02*
D03*
X00651901D02*
D03*
X00660901D02*
D03*
X00687901D02*
D03*
X00678901D02*
D03*
X00705901Y00873826D02*
D03*
X00696901Y00873826D02*
D03*
X00714897Y0087411D02*
D03*
X00723279Y00877388D02*
D03*
X0072941Y00883977D02*
D03*
X0073625Y00889826D02*
D03*
X0074525D02*
D03*
X0076325D02*
D03*
X0075425D02*
D03*
X0079025D02*
D03*
X0077225D02*
D03*
X0078125D02*
D03*
X00903829Y00499979D02*
D03*
Y00508979D02*
D03*
X00903829Y00526979D02*
D03*
Y00544979D02*
D03*
Y00535979D02*
D03*
Y00580979D02*
D03*
Y00589979D02*
D03*
Y00553979D02*
D03*
Y00571979D02*
D03*
Y00562979D02*
D03*
Y00517979D02*
D03*
Y00616978D02*
D03*
Y00625979D02*
D03*
Y00598979D02*
D03*
Y00607979D02*
D03*
X00903829Y00688978D02*
D03*
Y00724978D02*
D03*
Y00733978D02*
D03*
Y00697978D02*
D03*
Y00715978D02*
D03*
Y00706978D02*
D03*
Y00661978D02*
D03*
Y00670978D02*
D03*
Y00634978D02*
D03*
Y00652979D02*
D03*
Y00643979D02*
D03*
Y00679978D02*
D03*
X0080825Y00889826D02*
D03*
X0079925D02*
D03*
X0083525D02*
D03*
X0081725D02*
D03*
X0082625D02*
D03*
X0084425D02*
D03*
X0087125D02*
D03*
X0085325D02*
D03*
X0086225D02*
D03*
X00903829Y00742978D02*
D03*
Y00751978D02*
D03*
X00904767Y00760929D02*
D03*
X00909184Y00768771D02*
D03*
X00916575Y00773906D02*
D03*
X00919829Y00809297D02*
D03*
Y00800297D02*
D03*
Y00791297D02*
D03*
Y00782297D02*
D03*
X00919391Y00872287D02*
D03*
X00915867Y00880568D02*
D03*
X00919829Y00845297D02*
D03*
Y00863297D02*
D03*
Y00854297D02*
D03*
X0088025Y00889826D02*
D03*
X00909253Y00886672D02*
D03*
X0088925Y00889826D02*
D03*
X0089825Y00889848D02*
D03*
X00919829Y00818297D02*
D03*
Y00836297D02*
D03*
Y00827297D02*
D03*
D136*
X00035446Y00088D02*
D03*
X00892746Y0085D02*
D03*
X0003556Y0082677D02*
D03*
X00893Y0005D02*
D03*
M02*
