G04*
G04 #@! TF.GenerationSoftware,Altium Limited,Altium Designer,25.7.1 (20)*
G04*
G04 Layer_Physical_Order=4*
G04 Layer_Color=14186556*
%FSTAX44Y44*%
%MOMM*%
G71*
G04*
G04 #@! TF.SameCoordinates,567EF581-4316-4FAF-80C0-128919799B06*
G04*
G04*
G04 #@! TF.FilePolarity,Positive*
G04*
G01*
G75*
%ADD18C,0.2540*%
%ADD21C,0.2032*%
%ADD24C,1.0000*%
%ADD141C,0.3048*%
%ADD147C,6.0000*%
%ADD148C,1.5300*%
%ADD149C,1.4000*%
%ADD150O,1.6000X1.8000*%
G04:AMPARAMS|DCode=151|XSize=1.8mm|YSize=1.6mm|CornerRadius=0.4mm|HoleSize=0mm|Usage=FLASHONLY|Rotation=90.000|XOffset=0mm|YOffset=0mm|HoleType=Round|Shape=RoundedRectangle|*
%AMROUNDEDRECTD151*
21,1,1.8000,0.8000,0,0,90.0*
21,1,1.0000,1.6000,0,0,90.0*
1,1,0.8000,0.4000,0.5000*
1,1,0.8000,0.4000,-0.5000*
1,1,0.8000,-0.4000,-0.5000*
1,1,0.8000,-0.4000,0.5000*
%
%ADD151ROUNDEDRECTD151*%
%ADD152R,1.4000X1.4000*%
%ADD153R,1.5300X1.5300*%
%ADD154C,0.6000*%
%ADD156C,0.4000*%
D18*
X0013716Y0063373D02*
X0027432Y0077089D01*
X0007366Y0062611D02*
X0008128Y0063373D01*
X0013716D01*
X0005461Y0065913D02*
X0014097D01*
X0004826Y0065278D02*
X0005461Y0065913D01*
X0004826Y0044704D02*
Y0065278D01*
X0014097Y0065913D02*
X0026289Y0078105D01*
X00066955Y0037973D02*
X00076698Y00369987D01*
X0004826Y0038608D02*
X0005461Y0037973D01*
X00066955D01*
X0004826Y0038608D02*
Y0044704D01*
X0004826Y0044704D02*
X0004826Y0044704D01*
X0027432Y0077089D02*
X0033909D01*
X00354006Y00785806D01*
X00357816D02*
X0035814Y0078613D01*
X00354006Y00785806D02*
X00357816D01*
X0030226Y0078105D02*
X0030607Y0077724D01*
X0026289Y0078105D02*
X0030226D01*
X00076698Y00369987D02*
X00083913D01*
X000865Y003674D01*
X00080378Y00379362D02*
X00099938D01*
X0007366Y0038608D02*
Y0062611D01*
Y0038608D02*
X00080378Y00379362D01*
X00099938D02*
X001119Y003674D01*
X0009883Y0070993D02*
X0014097D01*
X000865Y006976D02*
X0009883Y0070993D01*
X000865Y006976D02*
X000865D01*
X0014097Y0070993D02*
X00184785Y00753745D01*
X0019558Y00568565D02*
X0019939Y00572375D01*
X0019558Y0046101D02*
Y00568565D01*
X0019939Y00572375D02*
Y0057277D01*
X0019558Y0046101D02*
X0038989Y002667D01*
D21*
X00327025Y00682625D02*
X00356543D01*
X0059436Y00444808D01*
X00354965Y00678815D02*
X0059055Y0044323D01*
X00327025Y00678815D02*
X00354965D01*
X0021717Y0015494D02*
X0033909Y0027686D01*
X0011811Y0015113D02*
X00218748D01*
X00340668Y0027305D01*
X0033909Y0027686D02*
X00364261D01*
X00116743Y0015494D02*
X0021717D01*
X00340668Y0027305D02*
X00362683D01*
X00115752Y00142652D02*
Y00148772D01*
X0011811Y0015113D01*
X001119Y001388D02*
X00115752Y00142652D01*
X0032258Y0067437D02*
X00327025Y00678815D01*
X0059436Y00268906D02*
Y00444808D01*
X00115255Y00156428D02*
X00116743Y0015494D01*
X00115255Y00156428D02*
Y00157392D01*
X001119Y00160747D02*
X00115255Y00157392D01*
X001119Y00160747D02*
Y001642D01*
X00402053Y0023368D02*
X00559134D01*
X0032258Y0068707D02*
X00327025Y00682625D01*
X00559134Y0023368D02*
X0059436Y00268906D01*
X00362683Y0027305D02*
X00402053Y0023368D01*
X0059055Y00270484D02*
Y0044323D01*
X00557556Y0023749D02*
X0059055Y00270484D01*
X00403631Y0023749D02*
X00557556D01*
X00364261Y0027686D02*
X00403631Y0023749D01*
D24*
X0001Y00032D02*
G03*
X00032Y0001I00022J0D01*
G01*
X00215606Y00025996D02*
G03*
X00198111Y0001I00000394J-00017996D01*
G01*
X00031627Y00889997D02*
G03*
X0001Y00868I00000373J-00021997D01*
G01*
X00198005Y00889996D02*
G03*
X00215608Y00873998I00017889J00002D01*
G01*
X00731889Y0001D02*
G03*
X00714285Y00025998I-00017889J-00002D01*
G01*
X00898Y0001D02*
G03*
X0092Y00032I0J00022D01*
G01*
X00904Y00147952D02*
G03*
X0092Y00130112I00018J00000048D01*
G01*
X00714287Y00874D02*
G03*
X00731782Y00889996I-00000394J00017996D01*
G01*
X0092Y00774959D02*
G03*
X00904Y00757071I00002J-00017889D01*
G01*
X0092Y00868058D02*
G03*
X00898151Y00889999I-00022J-00000058D01*
G01*
X00032Y0001D02*
X00043431D01*
X00009999Y00032133D02*
Y00040525D01*
X002159Y00026D02*
X00225873Y00026D01*
X00509746D02*
X00522872Y00026D01*
X0001Y00817087D02*
Y00826087D01*
X00031745Y00889996D02*
X00037023D01*
X00215899Y00873994D02*
X00228902Y00873994D01*
X00420147Y00873996D02*
X00426902Y00873996D01*
X00731889Y0001D02*
X00740685D01*
X0092Y00032D02*
Y00038626D01*
X00904Y00148D02*
Y00157979D01*
X00731782Y00889996D02*
X0074525D01*
X0092Y00774959D02*
Y00782297D01*
X00009999Y00076525D02*
Y00085525D01*
Y00040525D02*
Y00049525D01*
X0001Y00826087D02*
Y00835087D01*
X00091023Y00889996D02*
X00100023D01*
X00037023D02*
X00046023D01*
X00070431Y0001D02*
X00079431D01*
X00061431D02*
X00070431D01*
X00052431D02*
X00061431D01*
X00043431D02*
X00052431D01*
X00264902Y00873995D02*
X00273902Y00873995D01*
X00228902Y00873994D02*
X00237902Y00873994D01*
X00351872Y00026D02*
X00360872D01*
X00324873D02*
X00333872D01*
X00297873D02*
X00306873D01*
X00288873D02*
X00297873D01*
X00279872D02*
X00288873D01*
X00261873D02*
X00270873D01*
X00252873D02*
X00261873D01*
X00234873D02*
X00243873D01*
X00225873D02*
X00234873D01*
X00552902Y00873996D02*
X00561902D01*
X00543902D02*
X00552902D01*
X00534902D02*
X00543902D01*
X00525902D02*
X00534902D01*
X00426902D02*
X00435902D01*
X00549872Y00026D02*
X00558872Y00026D01*
X00522872Y00026D02*
X00531872Y00026D01*
X0088025Y00889996D02*
X0088925D01*
X0076325D02*
X0077225D01*
X0074525D02*
X0075425D01*
X00884685Y0001D02*
X00898D01*
X00839685D02*
X00848685D01*
X00830685D02*
X00839685D01*
X00821685D02*
X00830685D01*
X00812685D02*
X00821685D01*
X00803685D02*
X00812685D01*
X00794685D02*
X00803685D01*
X00785685D02*
X00794685D01*
X00776685D02*
X00785685D01*
X00767685D02*
X00776685D01*
X00749685D02*
X00758685D01*
X00740685D02*
X00749685D01*
X00904Y00751978D02*
X00904Y00757016D01*
X00904Y00733978D02*
Y00742978D01*
X00904Y00724978D02*
X00904Y00733978D01*
X00904Y00661978D02*
Y00670978D01*
X00904Y00652978D02*
X00904Y00661978D01*
X00904Y00499979D02*
Y00508979D01*
Y00490979D02*
Y00499979D01*
Y00472979D02*
Y00481979D01*
Y00463979D02*
Y00472979D01*
Y00454979D02*
Y00463979D01*
Y00355979D02*
Y00364979D01*
Y00328979D02*
Y00337979D01*
Y00220979D02*
Y00229979D01*
Y00166979D02*
Y00175979D01*
Y00157979D02*
Y00166979D01*
X0092Y00809297D02*
Y00818297D01*
Y00782297D02*
Y00791297D01*
X0092Y00056626D02*
Y00065626D01*
Y00047626D02*
Y00056626D01*
Y00038626D02*
Y00047626D01*
X00009999Y00085525D02*
Y00094525D01*
Y00058525D02*
Y00067525D01*
Y00049525D02*
Y00058525D01*
X0001Y00844087D02*
Y00853087D01*
Y00835087D02*
Y00844087D01*
X00163023Y00889996D02*
X00172023D01*
X00154023D02*
X00163023D01*
X00127023D02*
X00136023D01*
X00100023D02*
X00109023D01*
X00073023D02*
X00082023D01*
X00064023D02*
X00073023D01*
X00046023D02*
X00055023D01*
X00133431Y0001D02*
X00142431D01*
X00097431D02*
X00106431D01*
X00088431D02*
X00097431D01*
X00079431D02*
X00088431D01*
X00273902Y00873995D02*
X00282902Y00873995D01*
X00237902Y00873994D02*
X00246902Y00873994D01*
X00387872Y00026D02*
X00396872D01*
X00378872D02*
X00387872D01*
X00360872D02*
X00369872D01*
X00342872D02*
X00351872D01*
X00333872D02*
X00342872D01*
X00315872D02*
X00324873D01*
X00306873D02*
X00315872D01*
X00270873D02*
X00279872D01*
X00243873D02*
X00252873D01*
X00615901Y00873996D02*
X00624902D01*
X00561902D02*
X00570902D01*
X00498902D02*
X00507902D01*
X00480902D02*
X00489902D01*
X00453902D02*
X00462902D01*
X00444902D02*
X00453902D01*
X00435902D02*
X00444902D01*
X00558872Y00026D02*
X00567872Y00026001D01*
X00531872Y00026D02*
X00540872Y00026D01*
X0088925Y00889996D02*
X00897893D01*
X0079025D02*
X0079925D01*
X0077225D02*
X0078125D01*
X0075425D02*
X0076325D01*
X00866685Y0001D02*
X00875685D01*
X00857685D02*
X00866685D01*
X00848685D02*
X00857685D01*
X00758685D02*
X00767685D01*
X00904Y00742978D02*
X00904Y00751978D01*
X00904Y00670978D02*
Y00679978D01*
X00904Y00535979D02*
Y00544979D01*
Y00526979D02*
Y00535979D01*
Y00508979D02*
Y00517979D01*
Y00481979D02*
Y00490979D01*
Y00364979D02*
Y00373979D01*
Y00346979D02*
Y00355979D01*
Y00337979D02*
Y00346979D01*
Y00256979D02*
Y00265979D01*
Y00229979D02*
Y00238979D01*
Y00175979D02*
Y00184979D01*
X0092Y00818297D02*
Y00827297D01*
Y00791297D02*
Y00800297D01*
X0092Y00083626D02*
Y00092626D01*
Y00074626D02*
Y00083626D01*
Y00065626D02*
Y00074626D01*
X00009999Y00067525D02*
Y00076525D01*
X0001Y00853087D02*
Y00862087D01*
X00190023Y00889996D02*
X00198005D01*
X00181023D02*
X00190023D01*
X00172023D02*
X00181023D01*
X00145023D02*
X00154023D01*
X00136023D02*
X00145023D01*
X00109023D02*
X00118023D01*
X00082023D02*
X00091023D01*
X00055023D02*
X00064023D01*
X00142431Y0001D02*
X00151431D01*
X00124431D02*
X00133431D01*
X00106431D02*
X00115431D01*
X00408902Y00873996D02*
X00420147Y00873996D01*
X00399902Y00873996D02*
X00408902Y00873996D01*
X00381902Y00873996D02*
X00390902Y00873996D01*
X00282902Y00873995D02*
X00291902Y00873995D01*
X00246902Y00873994D02*
X00255902Y00873995D01*
X00396872Y00026D02*
X00405872D01*
X00369872D02*
X00378872D01*
X00624902Y00873996D02*
X00633901D01*
X00597901D02*
X00606902D01*
X00588901D02*
X00597901D01*
X00570902D02*
X00579902D01*
X00507902D02*
X00516902D01*
X00489902D02*
X00498902D01*
X00462902D02*
X00471902D01*
X00567872Y00026001D02*
X00576872Y00026001D01*
X00540872Y00026D02*
X00549872Y00026D01*
X0079925Y00889996D02*
X0080825D01*
X0078125D02*
X0079025D01*
X00875685Y0001D02*
X00884685D01*
X00904Y00697978D02*
Y00706978D01*
Y00688978D02*
Y00697978D01*
Y00679978D02*
Y00688978D01*
X00904Y00571979D02*
Y00580979D01*
Y00544979D02*
Y00553979D01*
Y00517979D02*
Y00526979D01*
Y00382979D02*
Y00391979D01*
Y00373979D02*
Y00382979D01*
Y00265979D02*
Y00274979D01*
Y00247979D02*
Y00256979D01*
Y00238979D02*
Y00247979D01*
Y00202979D02*
Y00211979D01*
Y00184979D02*
Y00193979D01*
X0092Y00836297D02*
Y00845297D01*
Y00827297D02*
Y00836297D01*
Y00800297D02*
Y00809297D01*
X0092Y00092626D02*
Y00101626D01*
X0001Y00862087D02*
Y00868D01*
X00118023Y00889996D02*
X00127023D01*
X00160431Y0001D02*
X00169431D01*
X00151431D02*
X00160431D01*
X00115431D02*
X00124431D01*
X00390902Y00873996D02*
X00399902Y00873996D01*
X00291902Y00873995D02*
X00300902Y00873995D01*
X00255902Y00873995D02*
X00264902Y00873995D01*
X00405872Y00026D02*
X00414872D01*
X00633901Y00873996D02*
X00642901D01*
X00606902D02*
X00615901D01*
X00579902D02*
X00588901D01*
X00516902D02*
X00525902D01*
X00471902D02*
X00480902D01*
X00603872Y00026001D02*
X00612872Y00026001D01*
X00576872Y00026001D02*
X00585872Y00026001D01*
X0080825Y00889996D02*
X0081725D01*
X00904Y00715978D02*
X00904Y00724978D01*
X00904Y00706978D02*
Y00715978D01*
X00904Y00598979D02*
Y00607979D01*
Y00589979D02*
Y00598979D01*
Y00580979D02*
Y00589979D01*
Y00553979D02*
Y00562979D01*
Y00391979D02*
Y00400979D01*
Y00310979D02*
Y00319979D01*
Y00283979D02*
Y00292979D01*
Y00274979D02*
Y00283979D01*
Y00211979D02*
Y00220979D01*
Y00193979D02*
Y00202979D01*
X0092Y00845297D02*
Y00854297D01*
X0092Y00110626D02*
Y00119626D01*
Y00101626D02*
Y00110626D01*
X0018743Y0001D02*
X00198111D01*
X00178431D02*
X0018743D01*
X00169431D02*
X00178431D01*
X00300902Y00873995D02*
X00309902Y00873995D01*
X00477872Y00026D02*
X00486872D01*
X00441872D02*
X00450872D01*
X00414872D02*
X00423872D01*
X00660901Y00873996D02*
X00669901D01*
X00651901D02*
X00660901D01*
X00642901D02*
X00651901D01*
X00612872Y00026001D02*
X00621872Y00026001D01*
X00585872Y00026001D02*
X00594872Y00026001D01*
X0086225Y00889996D02*
X0087125D01*
X0085325D02*
X0086225D01*
X0082625D02*
X0083525D01*
X0081725D02*
X0082625D01*
X00904Y00616978D02*
Y00625979D01*
Y00607979D02*
Y00616978D01*
Y00562979D02*
Y00571979D01*
Y00427979D02*
Y00436979D01*
Y00400979D02*
Y00409979D01*
Y00319979D02*
Y00328979D01*
Y00301979D02*
Y00310979D01*
Y00292979D02*
Y00301979D01*
X0092Y00854297D02*
Y00868058D01*
X0092Y00119626D02*
Y00130112D01*
X00309902Y00873995D02*
X00318902Y00873995D01*
X00495872Y00026D02*
X00509746D01*
X00486872D02*
X00495872D01*
X00450872D02*
X00459872D01*
X00423872D02*
X00432872D01*
X00687901Y00873996D02*
X00696901D01*
X00678901D02*
X00687901D01*
X00669901D02*
X00678901D01*
X00630872Y00026001D02*
X00639872Y00026001D01*
X00621872Y00026001D02*
X00630872Y00026001D01*
X00594872Y00026001D02*
X00603872Y00026001D01*
X0087125Y00889996D02*
X0088025D01*
X0084425D02*
X0085325D01*
X0083525D02*
X0084425D01*
X00904Y00625979D02*
Y00634978D01*
Y00436979D02*
Y00445979D01*
Y00418979D02*
Y00427979D01*
Y00409979D02*
Y00418979D01*
X00318902Y00873995D02*
X00327902Y00873995D01*
X00468872Y00026D02*
X00477872D01*
X00459872D02*
X00468872D01*
X00432872D02*
X00441872D01*
X00705901Y00873996D02*
X00713993D01*
X00696901D02*
X00705901D01*
X00702872Y00026002D02*
X00713994Y00026002D01*
X00693872Y00026002D02*
X00702872Y00026002D01*
X00639872Y00026001D02*
X00648872Y00026001D01*
X00904Y00634978D02*
Y00643979D01*
Y00445979D02*
Y00454979D01*
X00327902Y00873995D02*
X00336902Y00873995D01*
X00648872Y00026001D02*
X00657872Y00026001D01*
X00904Y00643979D02*
Y00652978D01*
X00336902Y00873995D02*
X00345902Y00873995D01*
X00657872Y00026001D02*
X00666872Y00026002D01*
X00345902Y00873995D02*
X00354902Y00873995D01*
X00666872Y00026002D02*
X00675872Y00026002D01*
X00354902Y00873995D02*
X00363902Y00873996D01*
X00675872Y00026002D02*
X00684872Y00026002D01*
X00363902Y00873996D02*
X00372902Y00873996D01*
X00684872Y00026002D02*
X00693872Y00026002D01*
X00372902Y00873996D02*
X00381902Y00873996D01*
D141*
X0041021Y0076327D02*
X0051054Y0066294D01*
X0030099Y0076327D02*
X0041021D01*
X003175Y0078359D02*
X0032893Y0079502D01*
X00416059D01*
X0009883Y0060833D02*
X00331851D01*
X000865Y00596D02*
X0009883Y0060833D01*
X0032512Y0080645D02*
X0042545D01*
X003175Y0079883D02*
X0032512Y0080645D01*
X00331851Y0060833D02*
X00482219Y00457962D01*
X00663001Y00614741D02*
X0067564Y0062738D01*
X00642967Y00614741D02*
X00663001D01*
X00636842Y00596727D02*
Y00625412D01*
X0065532Y0064389D01*
Y0066802D01*
X0063754Y0067437D02*
X0064897D01*
X0065532Y0066802D01*
X0067564Y0062738D02*
Y0071501D01*
X00662074Y00728576D02*
X0067564Y0071501D01*
X00528724Y00728576D02*
X00662074D01*
X0051943Y0073787D02*
X00528724Y00728576D01*
X0042545Y0080645D02*
X0051689Y0071501D01*
X0064262D01*
X00508769Y0070231D02*
X0064262D01*
X00416059Y0079502D02*
X00508769Y0070231D01*
X0051054Y0066294D02*
X0064262D01*
X00506781Y00653999D02*
X00642569D01*
X0064262Y0065405D01*
X004064Y0075438D02*
X00506781Y00653999D01*
X00416553Y00712477D02*
X0060198Y0052705D01*
X0031623Y0070231D02*
X0041529D01*
X00391167Y00712477D02*
X00416553D01*
X0041529Y0070231D02*
X0059817Y0051943D01*
X0060198Y0052705D02*
X006985D01*
X0059817Y0051943D02*
X0070485D01*
X007747Y005334D02*
Y0062357D01*
X0082677Y0067564D01*
X0084455D01*
X0085852Y0068961D01*
Y0072263D01*
X0084582Y0073533D02*
X0085852Y0072263D01*
X0079756Y0073533D02*
X0084582D01*
X0078486Y0074803D02*
X0079756Y0073533D01*
X0084836Y0069469D02*
Y0071501D01*
X0083566Y0072771D02*
X0084836Y0071501D01*
X0077533Y0072771D02*
X0083566D01*
X0068262Y0082042D02*
X0077533Y0072771D01*
X0082169Y0068326D02*
X0083693D01*
X0084836Y0069469D01*
X00780624Y00642194D02*
X0082169Y0068326D01*
X00694697Y00642194D02*
X00780624D01*
X0056134Y0048641D02*
Y0051689D01*
X0059817Y0044958D02*
X0069088D01*
X0056134Y0048641D02*
X0059817Y0044958D01*
X0069088D02*
X007747Y005334D01*
X0070485Y0051943D02*
X0074422Y005588D01*
X0074676Y0056642D02*
X0075438Y005588D01*
X0057658Y0048387D02*
Y0052832D01*
X00680085Y00747395D02*
X00694697Y00732783D01*
X0054991Y00747395D02*
X00680085D01*
X0028575Y0082169D02*
X0057785D01*
X0016166Y006976D02*
X0028575Y0082169D01*
X001119Y006976D02*
X0016166D01*
X0054991Y0013589D02*
X0084074Y0042672D01*
Y0058845D01*
X0029972Y0075438D02*
X004064D01*
X0031242Y0071247D02*
X0039116D01*
X00391167Y00712477D01*
X00566936Y00635755D02*
X0057912Y0062357D01*
X0053213Y0062992D02*
X00537965Y00635755D01*
X00566936D01*
X0053213Y0060833D02*
Y0062992D01*
X0048895Y0028956D02*
X0052832Y0025019D01*
X0048895Y0028956D02*
Y0032004D01*
X00482219Y00457962D02*
X004826D01*
X00360172Y00164084D02*
X00541274D01*
X0081026Y0043307D01*
X00203262Y00467298D02*
Y0056758D01*
Y00467298D02*
X0039624Y0027432D01*
X001524Y0058674D02*
X002032D01*
X0014605Y0058039D02*
X001524Y0058674D01*
X0032983Y00596D02*
X0047371Y0045212D01*
X001119Y00596D02*
X0032983D01*
X0067437Y0077851D02*
X0074549Y0070739D01*
X0062103Y0077851D02*
X0067437D01*
X0057785Y0082169D02*
X0062103Y0077851D01*
X0074549Y0070739D02*
X0082804D01*
X00694697Y00642194D02*
Y00732783D01*
X00542667Y00794127D02*
Y00810563D01*
X0027686Y0086106D02*
X0078867D01*
X0022225Y0080645D02*
X0027686Y0086106D01*
X0067278Y0083312D02*
X0075438D01*
X0066262Y0082296D02*
X0067278Y0083312D01*
X0075438D02*
X0076454Y0082296D01*
Y0080264D02*
Y0082296D01*
X006985Y0052705D02*
X0073787Y0056642D01*
X0074676D01*
X0029591Y0069596D02*
X0031242Y0071247D01*
X0053213Y0060833D02*
X0054229Y0059817D01*
Y0062357D02*
X0056769Y0059817D01*
X0057912D01*
X0029591Y0063881D02*
Y0069596D01*
X0030607Y0069215D02*
X0031623Y0070231D01*
X0030607Y0064135D02*
Y0069215D01*
X0031623Y0063119D02*
X0037719D01*
X0054591Y0046247D01*
X0030607Y0064135D02*
X0031623Y0063119D01*
X0029591Y0063881D02*
X0031242Y006223D01*
X0057658Y0048387D02*
X0059817Y0046228D01*
X0031242Y006223D02*
X003683D01*
X0052832Y0046228D01*
X0054591Y0039859D02*
Y0046247D01*
X0068345Y0053956D02*
Y00630947D01*
X00694697Y00642194D01*
X0039624Y0027432D02*
X0052832Y004064D01*
Y0046228D01*
X00414309Y00266989D02*
X0054591Y0039859D01*
X00390179Y00266989D02*
X00414309D01*
X0038989Y002667D02*
X00390179Y00266989D01*
X0035687Y0026416D02*
X0039751Y0022352D01*
X0058166D01*
X0079756Y0043942D01*
X0078867Y0086106D02*
X0080391Y0084582D01*
Y0074422D02*
Y0084582D01*
X0053213Y0078359D02*
X00542667Y00794127D01*
X0079756Y0043942D02*
Y0063373D01*
X00826461Y00662631D01*
X0081026Y0043307D02*
Y0062992D01*
X0082677Y0064643D01*
X0033782Y0011938D02*
X0051689D01*
X0082677Y0042926D01*
Y0062738D01*
X0067564Y0012065D02*
X0071755Y0016256D01*
X0064516Y0012065D02*
X0067564D01*
D147*
X00035446Y00088D02*
D03*
X0003556Y0082677D02*
D03*
X00893Y0005D02*
D03*
X00892746Y0085D02*
D03*
D148*
X000611Y004944D02*
D03*
X000357D02*
D03*
X000611Y005198D02*
D03*
X000357D02*
D03*
Y007484D02*
D03*
X000611D02*
D03*
X000865Y00469D02*
D03*
X000357Y004436D02*
D03*
Y00469D02*
D03*
X000611Y004436D02*
D03*
Y00469D02*
D03*
X001119Y006976D02*
D03*
Y006722D02*
D03*
Y005198D02*
D03*
X000865D02*
D03*
X001119Y005452D02*
D03*
X000865D02*
D03*
X001119Y007484D02*
D03*
X000865D02*
D03*
X001119Y00469D02*
D03*
Y004436D02*
D03*
X000865D02*
D03*
Y002912D02*
D03*
X001119Y003166D02*
D03*
Y002912D02*
D03*
Y002658D02*
D03*
Y002404D02*
D03*
X000865Y001896D02*
D03*
X001119Y003928D02*
D03*
Y004182D02*
D03*
X000865Y003166D02*
D03*
X001119Y003674D02*
D03*
X000865D02*
D03*
Y003928D02*
D03*
Y004182D02*
D03*
X001119Y004944D02*
D03*
X000865D02*
D03*
X001119Y005706D02*
D03*
X000865D02*
D03*
Y006214D02*
D03*
Y006468D02*
D03*
X001119Y00723D02*
D03*
X000865D02*
D03*
X001119Y007738D02*
D03*
X000865D02*
D03*
Y001388D02*
D03*
Y001642D02*
D03*
X001119Y001896D02*
D03*
Y00215D02*
D03*
X000865D02*
D03*
Y002658D02*
D03*
Y002404D02*
D03*
Y006722D02*
D03*
Y006976D02*
D03*
X001119Y006214D02*
D03*
Y006468D02*
D03*
Y001642D02*
D03*
Y00342D02*
D03*
X000865D02*
D03*
Y00596D02*
D03*
X001119D02*
D03*
X000357Y005452D02*
D03*
X000611D02*
D03*
X000357Y006722D02*
D03*
X000611Y006468D02*
D03*
Y006722D02*
D03*
Y006976D02*
D03*
Y006214D02*
D03*
X000357Y006976D02*
D03*
X000611Y001642D02*
D03*
X000357Y002912D02*
D03*
X000611Y003166D02*
D03*
Y002912D02*
D03*
Y002658D02*
D03*
Y002404D02*
D03*
X000357Y001896D02*
D03*
Y003166D02*
D03*
X000611Y005706D02*
D03*
X000357D02*
D03*
Y006214D02*
D03*
Y006468D02*
D03*
X000611Y00723D02*
D03*
X000357D02*
D03*
X000611Y007738D02*
D03*
X000357D02*
D03*
Y001388D02*
D03*
Y001642D02*
D03*
X000611Y001896D02*
D03*
Y00215D02*
D03*
X000357D02*
D03*
Y002658D02*
D03*
Y002404D02*
D03*
X000611Y00596D02*
D03*
X000357D02*
D03*
Y00342D02*
D03*
X000611D02*
D03*
X000357Y003674D02*
D03*
Y003928D02*
D03*
Y004182D02*
D03*
X000611Y003928D02*
D03*
Y004182D02*
D03*
Y003674D02*
D03*
D149*
X0068389Y0084709D02*
D03*
X0066389D02*
D03*
X0068262Y0082042D02*
D03*
X0066262D02*
D03*
X0064262D02*
D03*
X0070389Y0084709D02*
D03*
D150*
X0045339Y0007874D02*
D03*
X0068072D02*
D03*
X0056261D02*
D03*
X0033274D02*
D03*
X001905D02*
D03*
D151*
X0042799D02*
D03*
X001651D02*
D03*
X0030734D02*
D03*
X0053721D02*
D03*
X0065532D02*
D03*
D152*
X0070262Y0082042D02*
D03*
X0064389Y0084709D02*
D03*
D153*
X001119Y001388D02*
D03*
X000611D02*
D03*
D154*
X0030607Y0077724D02*
D03*
X0030099Y0076327D02*
D03*
X003175Y0078359D02*
D03*
X00642967Y00614741D02*
D03*
X0051943Y0073787D02*
D03*
X0074422Y005588D02*
D03*
X0075438D02*
D03*
X0057658Y0052832D02*
D03*
X00636842Y00596727D02*
D03*
X00184785Y00753745D02*
D03*
X0054991Y00747395D02*
D03*
X003175Y0079883D02*
D03*
X0078486Y0074803D02*
D03*
X0084074Y0058801D02*
D03*
X0054991Y0013589D02*
D03*
X0056134Y0051689D02*
D03*
X0064262Y0065405D02*
D03*
Y0066294D02*
D03*
X0029972Y0075438D02*
D03*
X0035814Y0078613D02*
D03*
X0064262Y0071501D02*
D03*
Y0070231D02*
D03*
X004826Y00457962D02*
D03*
X0063754Y0067437D02*
D03*
X0047371Y0045212D02*
D03*
X0033782Y0011938D02*
D03*
X0071755Y0016256D02*
D03*
X0064516Y0012065D02*
D03*
X0038989Y002667D02*
D03*
X0035687Y0026416D02*
D03*
X0039624Y0027432D02*
D03*
X0014605Y0058039D02*
D03*
X0082677Y0062738D02*
D03*
Y0064643D02*
D03*
X00826461Y00662631D02*
D03*
X0053213Y0078359D02*
D03*
X00542667Y00810563D02*
D03*
X0054229Y0062357D02*
D03*
Y0059817D02*
D03*
X0057912Y0062357D02*
D03*
Y0059817D02*
D03*
X0080391Y0074422D02*
D03*
X0076454Y0080264D02*
D03*
X0059817Y0046228D02*
D03*
X0068345Y0053956D02*
D03*
X0052832Y0046228D02*
D03*
X0054591Y0046247D02*
D03*
X0048895Y0032004D02*
D03*
X0032258Y0068707D02*
D03*
X0052832Y0025019D02*
D03*
X0032258Y0067437D02*
D03*
X0022225Y0080645D02*
D03*
X0082804Y0070739D02*
D03*
D156*
X00052431Y00010171D02*
D03*
X00043431D02*
D03*
X00079431D02*
D03*
X00061431D02*
D03*
X00070431D02*
D03*
X00012229Y00022764D02*
D03*
X0001017Y00031525D02*
D03*
X00034431Y00010171D02*
D03*
X00017654Y00015583D02*
D03*
X00025484Y00011144D02*
D03*
X00142431Y00010171D02*
D03*
X00133431D02*
D03*
X00169431D02*
D03*
X00151431D02*
D03*
X00160431D02*
D03*
X00097431D02*
D03*
X00088431D02*
D03*
X00124431D02*
D03*
X00106431D02*
D03*
X00115431D02*
D03*
X00178431D02*
D03*
X0019643D02*
D03*
X0018743D02*
D03*
X00201502Y00017606D02*
D03*
X00208221Y00023593D02*
D03*
X00216873Y00026071D02*
D03*
X00270873Y0002617D02*
D03*
X00252873D02*
D03*
X00261873D02*
D03*
X00234873D02*
D03*
X00225873D02*
D03*
X00243873D02*
D03*
X00324873D02*
D03*
X00315872D02*
D03*
X00351872D02*
D03*
X00333872D02*
D03*
X00342872D02*
D03*
X00279873D02*
D03*
X00306873D02*
D03*
X00288873D02*
D03*
X00297873D02*
D03*
X0001017Y00058525D02*
D03*
Y00067525D02*
D03*
Y00040525D02*
D03*
Y00049525D02*
D03*
Y00085525D02*
D03*
Y00076525D02*
D03*
Y00094525D02*
D03*
X00414872Y0002617D02*
D03*
X00405872D02*
D03*
X00432872D02*
D03*
X00423872D02*
D03*
X00441872D02*
D03*
X00360872D02*
D03*
X00378872D02*
D03*
X00369872D02*
D03*
X00396872D02*
D03*
X00387872D02*
D03*
X00450872D02*
D03*
X00477872D02*
D03*
X00468872D02*
D03*
X00504872D02*
D03*
X00486872D02*
D03*
X00495872D02*
D03*
X00459872D02*
D03*
X00513872Y00026171D02*
D03*
X00522872Y00026171D02*
D03*
X00531872Y00026171D02*
D03*
X00540872Y00026171D02*
D03*
X00549872Y00026171D02*
D03*
X00558872Y00026171D02*
D03*
X00567872Y00026171D02*
D03*
X00010171Y00835087D02*
D03*
Y00826087D02*
D03*
Y00817087D02*
D03*
Y00853087D02*
D03*
Y00844087D02*
D03*
Y00862087D02*
D03*
X00010375Y00871085D02*
D03*
X00013495Y00879527D02*
D03*
X0001971Y00886037D02*
D03*
X0002803Y00889467D02*
D03*
X00046023Y00889826D02*
D03*
X00073023D02*
D03*
X00055023D02*
D03*
X00064023D02*
D03*
X00037023D02*
D03*
X00118023D02*
D03*
X00109023D02*
D03*
X00145023D02*
D03*
X00127023D02*
D03*
X00136023D02*
D03*
X00100023D02*
D03*
X00082023D02*
D03*
X00091023D02*
D03*
X00219902Y00873824D02*
D03*
X00228902Y00873824D02*
D03*
X00237902Y00873824D02*
D03*
X00246902Y00873824D02*
D03*
X00255902Y00873824D02*
D03*
X00172023Y00889826D02*
D03*
X00163023D02*
D03*
X00198744Y00887603D02*
D03*
X00181023Y00889826D02*
D03*
X00190023D02*
D03*
X00154023D02*
D03*
X00264902Y00873824D02*
D03*
X00273902Y00873824D02*
D03*
X00282902Y00873824D02*
D03*
X00291902Y00873824D02*
D03*
X00300902Y00873824D02*
D03*
X00203387Y00879893D02*
D03*
X00309902Y00873825D02*
D03*
X0021099Y00875078D02*
D03*
X00318902Y00873825D02*
D03*
X00327902Y00873825D02*
D03*
X00336902Y00873825D02*
D03*
X00345902Y00873825D02*
D03*
X00354902Y00873825D02*
D03*
X00363902Y00873825D02*
D03*
X00372902Y00873825D02*
D03*
X00381902Y00873825D02*
D03*
X00390902Y00873825D02*
D03*
X00399902Y00873825D02*
D03*
X00408902Y00873826D02*
D03*
X00435902Y00873826D02*
D03*
X00417902D02*
D03*
X00426902D02*
D03*
X00498902D02*
D03*
X00507902D02*
D03*
X00453902D02*
D03*
X00444902D02*
D03*
X00480902D02*
D03*
X00462902D02*
D03*
X00471902D02*
D03*
X00543902D02*
D03*
X00534902D02*
D03*
X00570902D02*
D03*
X00552902D02*
D03*
X00561902D02*
D03*
X00525902D02*
D03*
X00489902D02*
D03*
X00516902D02*
D03*
X00576872Y00026171D02*
D03*
X00585872Y00026171D02*
D03*
X00594872Y00026171D02*
D03*
X00603872Y00026171D02*
D03*
X00612872Y00026172D02*
D03*
X00621872Y00026172D02*
D03*
X00630872Y00026172D02*
D03*
X00639872Y00026172D02*
D03*
X00648872Y00026172D02*
D03*
X00657872Y00026172D02*
D03*
X00666872Y00026172D02*
D03*
X00675872Y00026172D02*
D03*
X00684872Y00026172D02*
D03*
X00693872Y00026172D02*
D03*
X00749685Y00010171D02*
D03*
X00767685D02*
D03*
X00758685D02*
D03*
X00785685D02*
D03*
X00776685D02*
D03*
X00812685D02*
D03*
X00794685D02*
D03*
X00803685D02*
D03*
X00702872Y00026172D02*
D03*
X00711872Y00026172D02*
D03*
X00731693Y0001055D02*
D03*
X00720652Y00024198D02*
D03*
X0072772Y00018625D02*
D03*
X00740685Y00010171D02*
D03*
X00830685D02*
D03*
X00821685D02*
D03*
X00866685D02*
D03*
X00839685D02*
D03*
X00875685D02*
D03*
X00884685D02*
D03*
X00893685D02*
D03*
X00857685D02*
D03*
X00848685D02*
D03*
X00902669Y00010701D02*
D03*
X00910898Y00014346D02*
D03*
X00916874Y00021076D02*
D03*
X00919681Y00029627D02*
D03*
X00919829Y00047626D02*
D03*
Y00083626D02*
D03*
Y00092626D02*
D03*
Y00056626D02*
D03*
Y00074626D02*
D03*
Y00065626D02*
D03*
Y00038626D02*
D03*
X00903829Y00166979D02*
D03*
Y00175979D02*
D03*
X00906356Y00140316D02*
D03*
X00903829Y00157979D02*
D03*
X00903919Y0014898D02*
D03*
X00903829Y00211979D02*
D03*
Y00220979D02*
D03*
Y00184979D02*
D03*
Y00202979D02*
D03*
Y00193979D02*
D03*
X00919829Y00101626D02*
D03*
Y00119626D02*
D03*
Y00110626D02*
D03*
X00912304Y00133562D02*
D03*
X00919829Y00128626D02*
D03*
X00903829Y00256979D02*
D03*
Y00265979D02*
D03*
Y00229979D02*
D03*
Y00247979D02*
D03*
Y00238979D02*
D03*
X00903829Y00310979D02*
D03*
Y00319979D02*
D03*
Y00283979D02*
D03*
Y00301979D02*
D03*
Y00292979D02*
D03*
Y00274979D02*
D03*
Y00355979D02*
D03*
Y00364979D02*
D03*
Y00328979D02*
D03*
Y00346979D02*
D03*
Y00337979D02*
D03*
Y00382979D02*
D03*
Y00391979D02*
D03*
Y00373979D02*
D03*
X00903829Y00490979D02*
D03*
Y00481979D02*
D03*
Y00427979D02*
D03*
Y00436979D02*
D03*
Y00400979D02*
D03*
Y00418979D02*
D03*
Y00409979D02*
D03*
Y00472979D02*
D03*
Y00445979D02*
D03*
Y00463979D02*
D03*
Y00454979D02*
D03*
X00597901Y00873826D02*
D03*
X00588901D02*
D03*
X00624902D02*
D03*
X00606902D02*
D03*
X00615901D02*
D03*
X00579902D02*
D03*
X00642901D02*
D03*
X00633901D02*
D03*
X00669901D02*
D03*
X00651901D02*
D03*
X00660901D02*
D03*
X00687901D02*
D03*
X00678901D02*
D03*
X00705901Y00873826D02*
D03*
X00696901Y00873826D02*
D03*
X00714897Y0087411D02*
D03*
X00723279Y00877388D02*
D03*
X0072941Y00883977D02*
D03*
X0073625Y00889826D02*
D03*
X0074525D02*
D03*
X0076325D02*
D03*
X0075425D02*
D03*
X0079025D02*
D03*
X0077225D02*
D03*
X0078125D02*
D03*
X00903829Y00499979D02*
D03*
Y00508979D02*
D03*
X00903829Y00526979D02*
D03*
Y00544979D02*
D03*
Y00535979D02*
D03*
Y00580979D02*
D03*
Y00589979D02*
D03*
Y00553979D02*
D03*
Y00571979D02*
D03*
Y00562979D02*
D03*
Y00517979D02*
D03*
Y00616978D02*
D03*
Y00625979D02*
D03*
Y00598979D02*
D03*
Y00607979D02*
D03*
X00903829Y00688978D02*
D03*
Y00724978D02*
D03*
Y00733978D02*
D03*
Y00697978D02*
D03*
Y00715978D02*
D03*
Y00706978D02*
D03*
Y00661978D02*
D03*
Y00670978D02*
D03*
Y00634978D02*
D03*
Y00652979D02*
D03*
Y00643979D02*
D03*
Y00679978D02*
D03*
X0080825Y00889826D02*
D03*
X0079925D02*
D03*
X0083525D02*
D03*
X0081725D02*
D03*
X0082625D02*
D03*
X0084425D02*
D03*
X0087125D02*
D03*
X0085325D02*
D03*
X0086225D02*
D03*
X00903829Y00742978D02*
D03*
Y00751978D02*
D03*
X00904767Y00760929D02*
D03*
X00909184Y00768771D02*
D03*
X00916575Y00773906D02*
D03*
X00919829Y00809297D02*
D03*
Y00800297D02*
D03*
Y00791297D02*
D03*
Y00782297D02*
D03*
X00919391Y00872287D02*
D03*
X00915867Y00880568D02*
D03*
X00919829Y00845297D02*
D03*
Y00863297D02*
D03*
Y00854297D02*
D03*
X0088025Y00889826D02*
D03*
X00909253Y00886672D02*
D03*
X0088925Y00889826D02*
D03*
X0089825Y00889848D02*
D03*
X00919829Y00818297D02*
D03*
Y00836297D02*
D03*
Y00827297D02*
D03*
X00360172Y00164084D02*
D03*
X002032Y0058674D02*
D03*
X0019939Y0057277D02*
D03*
X00203262Y00567838D02*
D03*
M02*
