G04*
G04 #@! TF.GenerationSoftware,Altium Limited,Altium Designer,25.8.1 (18)*
G04*
G04 Layer_Physical_Order=2*
G04 Layer_Color=36540*
%FSTAX44Y44*%
%MOMM*%
G71*
G04*
G04 #@! TF.SameCoordinates,CD8A6794-82D1-42B1-A0BA-2BE9AD7E379D*
G04*
G04*
G04 #@! TF.FilePolarity,Positive*
G04*
G01*
G75*
%ADD141C,0.3048*%
%ADD148C,1.5300*%
%ADD149C,1.4000*%
%ADD150O,1.6000X1.8000*%
G04:AMPARAMS|DCode=151|XSize=1.8mm|YSize=1.6mm|CornerRadius=0.4mm|HoleSize=0mm|Usage=FLASHONLY|Rotation=90.000|XOffset=0mm|YOffset=0mm|HoleType=Round|Shape=RoundedRectangle|*
%AMROUNDEDRECTD151*
21,1,1.8000,0.8000,0,0,90.0*
21,1,1.0000,1.6000,0,0,90.0*
1,1,0.8000,0.4000,0.5000*
1,1,0.8000,0.4000,-0.5000*
1,1,0.8000,-0.4000,-0.5000*
1,1,0.8000,-0.4000,0.5000*
%
%ADD151ROUNDEDRECTD151*%
%ADD152R,1.4000X1.4000*%
%ADD153R,1.5300X1.5300*%
%ADD154C,0.6000*%
%ADD155C,0.4000*%
%ADD156C,0.8000*%
%ADD157C,4.4000*%
G36*
X00202079Y00897274D02*
X00203933Y00896036D01*
X00205171Y00894182D01*
X00205367Y00893197D01*
X00205535Y00891996D01*
X00205535D01*
X00205888Y00889315D01*
X00206922Y00886817D01*
X00208569Y00884671D01*
X00210714Y00883025D01*
X00213212Y00881991D01*
X00215893Y00881637D01*
Y00881682D01*
X00713893D01*
Y00881637D01*
X00716574Y00881991D01*
X00719072Y00883025D01*
X00721218Y00884671D01*
X00722864Y00886817D01*
X00723899Y00889315D01*
X00724252Y00891996D01*
X00724252D01*
X00724419Y00893197D01*
X00724615Y00894182D01*
X00725854Y00896036D01*
X00727707Y00897274D01*
X00729825Y00897695D01*
X00729893Y00897682D01*
X00729912Y00897685D01*
X00898071D01*
X00898083Y00897688D01*
X00902645Y00897329D01*
X00907176Y00896241D01*
X00911481Y00894458D01*
X00915454Y00892023D01*
X00918997Y00888997D01*
X00922023Y00885454D01*
X00924458Y00881481D01*
X00926241Y00877176D01*
X00927329Y00872645D01*
X00927688Y00868083D01*
X00927685Y00868071D01*
Y00773071D01*
X00927699Y00773002D01*
X00927278Y00770885D01*
X0092604Y00769031D01*
X00924186Y00767793D01*
X00923201Y00767597D01*
X00922Y0076743D01*
Y00767429D01*
X00919319Y00767076D01*
X00916821Y00766042D01*
X00914675Y00764395D01*
X00913029Y0076225D01*
X00911994Y00759752D01*
X00911641Y00757071D01*
X00911685D01*
X00911685Y0075707D01*
Y00148D01*
X00911641D01*
X00911994Y00145319D01*
X00913029Y00142821D01*
X00914675Y00140675D01*
X00916821Y00139029D01*
X00919319Y00137994D01*
X00922Y00137641D01*
Y00137641D01*
X00923201Y00137474D01*
X00924186Y00137278D01*
X0092604Y0013604D01*
X00927278Y00134186D01*
X00927699Y00132069D01*
X00927685Y00132D01*
Y00032D01*
X00927692Y00031967D01*
X00927329Y00027355D01*
X00926241Y00022824D01*
X00924458Y00018519D01*
X00922023Y00014546D01*
X00918997Y00011003D01*
X00915454Y00007977D01*
X00911481Y00005542D01*
X00907176Y00003759D01*
X00902645Y00002671D01*
X00898033Y00002308D01*
X00898Y00002315D01*
X0073D01*
X00729931Y00002301D01*
X00727814Y00002722D01*
X0072596Y0000396D01*
X00724722Y00005814D01*
X00724526Y00006799D01*
X00724359Y00008D01*
X00724359D01*
X00724006Y00010681D01*
X00722971Y00013179D01*
X00721325Y00015325D01*
X00719179Y00016971D01*
X00716681Y00018006D01*
X00714Y00018359D01*
Y00018314D01*
X00216D01*
Y00018359D01*
X00213319Y00018006D01*
X00210821Y00016971D01*
X00208675Y00015325D01*
X00207029Y00013179D01*
X00205994Y00010681D01*
X00205641Y00008D01*
X00205641D01*
X00205474Y00006799D01*
X00205278Y00005814D01*
X0020404Y0000396D01*
X00202186Y00002722D01*
X00200068Y00002301D01*
X002Y00002315D01*
X00032D01*
X00031967Y00002308D01*
X00027355Y00002671D01*
X00022824Y00003759D01*
X00018519Y00005542D01*
X00014546Y00007977D01*
X00011003Y00011003D01*
X00007977Y00014546D01*
X00005542Y00018519D01*
X00003759Y00022824D01*
X00002671Y00027355D01*
X00002403Y00030766D01*
X00002315Y00032D01*
X00002314Y0003325D01*
X00002314Y00033264D01*
X00002314Y00033068D01*
X00002314Y0003325D01*
Y00123302D01*
X000023Y0012337D01*
X00002721Y00125488D01*
X0000396Y00127341D01*
X00005813Y0012858D01*
X00007921Y00128999D01*
X00008004Y00128982D01*
X00009999D01*
Y00128938D01*
X0001268Y00129291D01*
X00015178Y00130326D01*
X00017324Y00131972D01*
X0001897Y00134118D01*
X00020005Y00136616D01*
X00020358Y00139297D01*
X00020315D01*
X00020315Y00139298D01*
Y007735D01*
X00020359D01*
X00020006Y00776181D01*
X00018971Y00778679D01*
X00017325Y00780825D01*
X00015179Y00782471D01*
X00012681Y00783506D01*
X0001Y00783859D01*
Y00783814D01*
X0001Y00783814D01*
X00008D01*
X00007932Y00783801D01*
X00005814Y00784222D01*
X0000396Y0078546D01*
X00002722Y00787314D01*
X00002301Y00789432D01*
X00002315Y007895D01*
Y00868D01*
X00002308Y00868033D01*
X00002671Y00872645D01*
X00003759Y00877176D01*
X00005542Y00881481D01*
X00007977Y00885454D01*
X00011003Y00888997D01*
X00014546Y00892023D01*
X00018519Y00894458D01*
X00022824Y00896241D01*
X00027355Y00897329D01*
X00031906Y00897687D01*
X00031933Y00897682D01*
X00199893D01*
X00199962Y00897695D01*
X00202079Y00897274D01*
D02*
G37*
%LPC*%
G36*
X00606791Y00852122D02*
X00604789D01*
X0060294Y00851356D01*
X00601524Y0084994D01*
X00600758Y00848091D01*
Y00846089D01*
X00601524Y0084424D01*
X0060294Y00842824D01*
X00604789Y00842058D01*
X00606791D01*
X0060864Y00842824D01*
X00610056Y0084424D01*
X00610822Y00846089D01*
Y00848091D01*
X00610056Y0084994D01*
X0060864Y00851356D01*
X00606791Y00852122D01*
D02*
G37*
G36*
X00704979Y0085536D02*
X00702801D01*
X00700698Y00854796D01*
X00698812Y00853708D01*
X00697272Y00852168D01*
X00696184Y00850282D01*
X0069562Y00848179D01*
Y00846001D01*
X00696184Y00843898D01*
X00697272Y00842012D01*
X00698812Y00840472D01*
X00700698Y00839384D01*
X00702801Y0083882D01*
X00704979D01*
X00707082Y00839384D01*
X00708968Y00840472D01*
X00710508Y00842012D01*
X00711596Y00843898D01*
X0071216Y00846001D01*
Y00848179D01*
X00711596Y00850282D01*
X00710508Y00852168D01*
X00708968Y00853708D01*
X00707082Y00854796D01*
X00704979Y0085536D01*
D02*
G37*
G36*
X0065216D02*
X0063562D01*
Y0083882D01*
X0065216D01*
Y0085536D01*
D02*
G37*
G36*
X00665079Y00856122D02*
X00662701D01*
X00660404Y00855507D01*
X00658344Y00854317D01*
X00656663Y00852636D01*
X00655473Y00850576D01*
X00654858Y00848279D01*
Y00845901D01*
X00655473Y00843604D01*
X00656663Y00841544D01*
X00658344Y00839863D01*
X00660404Y00838673D01*
X00662701Y00838058D01*
X00665079D01*
X00667376Y00838673D01*
X00669436Y00839863D01*
X00671117Y00841544D01*
X00672307Y00843604D01*
X00672922Y00845901D01*
Y00848279D01*
X00672307Y00850576D01*
X00671117Y00852636D01*
X00669436Y00854317D01*
X00667376Y00855507D01*
X00665079Y00856122D01*
D02*
G37*
G36*
X00568691Y00831802D02*
X00566689D01*
X0056484Y00831036D01*
X00563424Y0082962D01*
X00562658Y00827771D01*
Y00825769D01*
X00563424Y0082392D01*
X0056484Y00822504D01*
X00566689Y00821738D01*
X00568691D01*
X0057054Y00822504D01*
X00571956Y0082392D01*
X00572722Y00825769D01*
Y00827771D01*
X00571956Y0082962D01*
X0057054Y00831036D01*
X00568691Y00831802D01*
D02*
G37*
G36*
X0030346Y00831532D02*
X0030106D01*
X00298843Y00830614D01*
X00297146Y00828917D01*
X00296228Y008267D01*
Y008243D01*
X00297146Y00822083D01*
X00298843Y00820386D01*
X0030106Y00819468D01*
X0030346D01*
X00305677Y00820386D01*
X00307374Y00822083D01*
X00308292Y008243D01*
Y008267D01*
X00307374Y00828917D01*
X00305677Y00830614D01*
X0030346Y00831532D01*
D02*
G37*
G36*
X0071089Y0082869D02*
X0069435D01*
Y0081215D01*
X0071089D01*
Y0082869D01*
D02*
G37*
G36*
X00683709D02*
X00681531D01*
X00679428Y00828126D01*
X00677542Y00827038D01*
X00676002Y00825498D01*
X00674914Y00823612D01*
X0067435Y00821509D01*
Y00819331D01*
X00674914Y00817228D01*
X00676002Y00815342D01*
X00677542Y00813802D01*
X00679428Y00812714D01*
X00681531Y0081215D01*
X00683709D01*
X00685812Y00812714D01*
X00687698Y00813802D01*
X00689238Y00815342D01*
X00690326Y00817228D01*
X0069089Y00819331D01*
Y00821509D01*
X00690326Y00823612D01*
X00689238Y00825498D01*
X00687698Y00827038D01*
X00685812Y00828126D01*
X00683709Y0082869D01*
D02*
G37*
G36*
X00663709D02*
X00661531D01*
X00659428Y00828126D01*
X00657542Y00827038D01*
X00656002Y00825498D01*
X00654914Y00823612D01*
X0065435Y00821509D01*
Y00819331D01*
X00654914Y00817228D01*
X00656002Y00815342D01*
X00657542Y00813802D01*
X00659428Y00812714D01*
X00661531Y0081215D01*
X00663709D01*
X00665812Y00812714D01*
X00667698Y00813802D01*
X00669238Y00815342D01*
X00670326Y00817228D01*
X0067089Y00819331D01*
Y00821509D01*
X00670326Y00823612D01*
X00669238Y00825498D01*
X00667698Y00827038D01*
X00665812Y00828126D01*
X00663709Y0082869D01*
D02*
G37*
G36*
X00643709D02*
X00641531D01*
X00639428Y00828126D01*
X00637542Y00827038D01*
X00636002Y00825498D01*
X00634914Y00823612D01*
X0063435Y00821509D01*
Y00819331D01*
X00634914Y00817228D01*
X00636002Y00815342D01*
X00637542Y00813802D01*
X00639428Y00812714D01*
X00641531Y0081215D01*
X00643709D01*
X00645812Y00812714D01*
X00647698Y00813802D01*
X00649238Y00815342D01*
X00650326Y00817228D01*
X0065089Y00819331D01*
Y00821509D01*
X00650326Y00823612D01*
X00649238Y00825498D01*
X00647698Y00827038D01*
X00645812Y00828126D01*
X00643709Y0082869D01*
D02*
G37*
G36*
X00543516Y00814833D02*
X00541818D01*
X00540248Y00814183D01*
X00539047Y00812982D01*
X00538397Y00811412D01*
Y00809714D01*
X00539047Y00808144D01*
X00540248Y00806943D01*
X00541818Y00806293D01*
X00543516D01*
X00545086Y00806943D01*
X00546287Y00808144D01*
X00546937Y00809714D01*
Y00811412D01*
X00546287Y00812982D01*
X00545086Y00814183D01*
X00543516Y00814833D01*
D02*
G37*
G36*
X00223099Y0081072D02*
X00221401D01*
X00219831Y0081007D01*
X0021863Y00808869D01*
X0021798Y00807299D01*
Y00805601D01*
X0021863Y00804031D01*
X00219831Y0080283D01*
X00221401Y0080218D01*
X00223099D01*
X00224669Y0080283D01*
X0022587Y00804031D01*
X0022652Y00805601D01*
Y00807299D01*
X0022587Y00808869D01*
X00224669Y0081007D01*
X00223099Y0081072D01*
D02*
G37*
G36*
X00765389Y0080691D02*
X00763691D01*
X00762121Y0080626D01*
X0076092Y00805059D01*
X0076027Y00803489D01*
Y00801791D01*
X0076092Y00800221D01*
X00762121Y0079902D01*
X00763691Y0079837D01*
X00765389D01*
X00766959Y0079902D01*
X0076816Y00800221D01*
X0076881Y00801791D01*
Y00803489D01*
X0076816Y00805059D01*
X00766959Y0080626D01*
X00765389Y0080691D01*
D02*
G37*
G36*
X00558531Y00797512D02*
X00556529D01*
X0055468Y00796746D01*
X00553264Y0079533D01*
X00552498Y00793481D01*
Y00791479D01*
X00553264Y0078963D01*
X0055468Y00788214D01*
X00556529Y00787448D01*
X00558531D01*
X0056038Y00788214D01*
X00561796Y0078963D01*
X00562562Y00791479D01*
Y00793481D01*
X00561796Y0079533D01*
X0056038Y00796746D01*
X00558531Y00797512D01*
D02*
G37*
G36*
X00186421Y00791162D02*
X00184419D01*
X0018257Y00790396D01*
X00181154Y0078898D01*
X00180388Y00787131D01*
Y00785129D01*
X00181154Y0078328D01*
X0018257Y00781864D01*
X00184419Y00781098D01*
X00186421D01*
X0018827Y00781864D01*
X00189686Y0078328D01*
X00190452Y00785129D01*
Y00787131D01*
X00189686Y0078898D01*
X0018827Y00790396D01*
X00186421Y00791162D01*
D02*
G37*
G36*
X00351369Y0079675D02*
X00349671D01*
X00348101Y007961D01*
X003469Y00794899D01*
X0034625Y00793329D01*
Y00791631D01*
X003469Y00790061D01*
X00347462Y007895D01*
X00347982Y0078867D01*
X00347462Y0078784D01*
X003469Y00787279D01*
X0034625Y00785709D01*
Y00784011D01*
X003469Y00782441D01*
X00348101Y0078124D01*
X00349671Y0078059D01*
X00351369D01*
X00352939Y0078124D01*
X0035414Y00782441D01*
X0035479Y00784011D01*
Y00785709D01*
X0035414Y00787279D01*
X00353578Y0078784D01*
X00353058Y0078867D01*
X00353578Y007895D01*
X0035414Y00790061D01*
X0035479Y00791631D01*
Y00793329D01*
X0035414Y00794899D01*
X00352939Y007961D01*
X00351369Y0079675D01*
D02*
G37*
G36*
X00532979Y0078786D02*
X00531281D01*
X00529711Y0078721D01*
X0052851Y00786009D01*
X0052786Y00784439D01*
Y00782741D01*
X0052851Y00781171D01*
X00529711Y0077997D01*
X00531281Y0077932D01*
X00532979D01*
X00534549Y0077997D01*
X0053575Y00781171D01*
X005364Y00782741D01*
Y00784439D01*
X0053575Y00786009D01*
X00534549Y0078721D01*
X00532979Y0078786D01*
D02*
G37*
G36*
X00299451Y00783542D02*
X00297449D01*
X002956Y00782776D01*
X00294184Y0078136D01*
X00293418Y00779511D01*
Y00777509D01*
X00294184Y0077566D01*
X002956Y00774244D01*
X00297449Y00773478D01*
X00299451D01*
X003013Y00774244D01*
X00302716Y0077566D01*
X00303482Y00777509D01*
Y00779511D01*
X00302716Y0078136D01*
X003013Y00782776D01*
X00299451Y00783542D01*
D02*
G37*
G36*
X00608061Y00778462D02*
X00606059D01*
X0060421Y00777696D01*
X00602794Y0077628D01*
X00602028Y00774431D01*
Y00772429D01*
X00602794Y0077058D01*
X0060421Y00769164D01*
X00606059Y00768398D01*
X00608061D01*
X0060991Y00769164D01*
X00611326Y0077058D01*
X00612092Y00772429D01*
Y00774431D01*
X00611326Y0077628D01*
X0060991Y00777696D01*
X00608061Y00778462D01*
D02*
G37*
G36*
X00357719Y0078151D02*
X00356021D01*
X00354451Y0078086D01*
X0035325Y00779659D01*
X003526Y00778089D01*
Y00776391D01*
X00351735Y0077516D01*
X00350941D01*
X00349371Y0077451D01*
X0034817Y00773309D01*
X0034752Y00771739D01*
Y00770041D01*
X0034817Y00768471D01*
X00349371Y0076727D01*
X00350941Y0076662D01*
X00352639D01*
X00354209Y0076727D01*
X0035541Y00768471D01*
X0035606Y00770041D01*
Y00771739D01*
X00356925Y0077297D01*
X00357719D01*
X00359289Y0077362D01*
X0036049Y00774821D01*
X0036114Y00776391D01*
Y00778089D01*
X0036049Y00779659D01*
X00359289Y0078086D01*
X00357719Y0078151D01*
D02*
G37*
G36*
X00113074Y0078272D02*
X00110726D01*
X00108457Y00782112D01*
X00106423Y00780938D01*
X00104762Y00779277D01*
X00103588Y00777243D01*
X0010298Y00774974D01*
Y00772626D01*
X00103588Y00770357D01*
X00104762Y00768323D01*
X00106423Y00766662D01*
X00108457Y00765488D01*
X00110726Y0076488D01*
X00113074D01*
X00115343Y00765488D01*
X00117377Y00766662D01*
X00119038Y00768323D01*
X00120212Y00770357D01*
X0012082Y00772626D01*
Y00774974D01*
X00120212Y00777243D01*
X00119038Y00779277D01*
X00117377Y00780938D01*
X00115343Y00782112D01*
X00113074Y0078272D01*
D02*
G37*
G36*
X00087674D02*
X00085326D01*
X00083057Y00782112D01*
X00081023Y00780938D01*
X00079362Y00779277D01*
X00078188Y00777243D01*
X0007758Y00774974D01*
Y00772626D01*
X00078188Y00770357D01*
X00079362Y00768323D01*
X00081023Y00766662D01*
X00083057Y00765488D01*
X00085326Y0076488D01*
X00087674D01*
X00089943Y00765488D01*
X00091977Y00766662D01*
X00093638Y00768323D01*
X00094812Y00770357D01*
X0009542Y00772626D01*
Y00774974D01*
X00094812Y00777243D01*
X00093638Y00779277D01*
X00091977Y00780938D01*
X00089943Y00782112D01*
X00087674Y0078272D01*
D02*
G37*
G36*
X00062274D02*
X00059926D01*
X00057657Y00782112D01*
X00055623Y00780938D01*
X00053962Y00779277D01*
X00052788Y00777243D01*
X0005218Y00774974D01*
Y00772626D01*
X00052788Y00770357D01*
X00053962Y00768323D01*
X00055623Y00766662D01*
X00057657Y00765488D01*
X00059926Y0076488D01*
X00062274D01*
X00064543Y00765488D01*
X00066577Y00766662D01*
X00068238Y00768323D01*
X00069412Y00770357D01*
X0007002Y00772626D01*
Y00774974D01*
X00069412Y00777243D01*
X00068238Y00779277D01*
X00066577Y00780938D01*
X00064543Y00782112D01*
X00062274Y0078272D01*
D02*
G37*
G36*
X00036874D02*
X00034526D01*
X00032257Y00782112D01*
X00030223Y00780938D01*
X00028562Y00779277D01*
X00027388Y00777243D01*
X0002678Y00774974D01*
Y00772626D01*
X00027388Y00770357D01*
X00028562Y00768323D01*
X00030223Y00766662D01*
X00032257Y00765488D01*
X00034526Y0076488D01*
X00036874D01*
X00039143Y00765488D01*
X00041177Y00766662D01*
X00042838Y00768323D01*
X00044012Y00770357D01*
X0004462Y00772626D01*
Y00774974D01*
X00044012Y00777243D01*
X00042838Y00779277D01*
X00041177Y00780938D01*
X00039143Y00782112D01*
X00036874Y0078272D01*
D02*
G37*
G36*
X00298029Y0076754D02*
X00296331D01*
X00294761Y0076689D01*
X0029356Y00765689D01*
X0029291Y00764119D01*
Y00762421D01*
X0029356Y00760851D01*
X00294761Y0075965D01*
X00296331Y00759D01*
X00298029D01*
X00299599Y0075965D01*
X003008Y00760851D01*
X0030145Y00762421D01*
Y00764119D01*
X003008Y00765689D01*
X00299599Y0076689D01*
X00298029Y0076754D01*
D02*
G37*
G36*
X00608061Y00763222D02*
X00606059D01*
X0060421Y00762456D01*
X00602794Y0076104D01*
X00602028Y00759191D01*
Y00757189D01*
X00602794Y0075534D01*
X0060421Y00753924D01*
X00606059Y00753158D01*
X00608061D01*
X0060991Y00753924D01*
X00611326Y0075534D01*
X00612092Y00757189D01*
Y00759191D01*
X00611326Y0076104D01*
X0060991Y00762456D01*
X00608061Y00763222D01*
D02*
G37*
G36*
X0080638Y00762952D02*
X0080398D01*
X00801763Y00762034D01*
X00800066Y00760337D01*
X00799148Y0075812D01*
Y0075572D01*
X00800066Y00753503D01*
X00801763Y00751806D01*
X0080398Y00750888D01*
X0080638D01*
X00808597Y00751806D01*
X00810294Y00753503D01*
X00811212Y0075572D01*
Y0075812D01*
X00810294Y00760337D01*
X00808597Y00762034D01*
X0080638Y00762952D01*
D02*
G37*
G36*
X00298029Y0075357D02*
X00296331D01*
X00294761Y0075292D01*
X0029356Y00751719D01*
X0029291Y00750149D01*
Y00748451D01*
X0029356Y00746881D01*
X00294761Y0074568D01*
X00296331Y0074503D01*
X00298029D01*
X00299599Y0074568D01*
X003008Y00746881D01*
X0030145Y00748451D01*
Y00750149D01*
X003008Y00751719D01*
X00299599Y0075292D01*
X00298029Y0075357D01*
D02*
G37*
G36*
X002171Y00755332D02*
X002147D01*
X00212483Y00754414D01*
X00210786Y00752717D01*
X00209868Y007505D01*
Y007481D01*
X00210786Y00745883D01*
X00212483Y00744186D01*
X002147Y00743268D01*
X002171D01*
X00219317Y00744186D01*
X00221014Y00745883D01*
X00221932Y007481D01*
Y007505D01*
X00221014Y00752717D01*
X00219317Y00754414D01*
X002171Y00755332D01*
D02*
G37*
G36*
X00383271Y00751792D02*
X00381269D01*
X0037942Y00751026D01*
X00378004Y0074961D01*
X00377238Y00747761D01*
Y00745759D01*
X00378004Y0074391D01*
X0037942Y00742494D01*
X00381269Y00741728D01*
X00383271D01*
X0038512Y00742494D01*
X00386536Y0074391D01*
X00387302Y00745759D01*
Y00747761D01*
X00386536Y0074961D01*
X0038512Y00751026D01*
X00383271Y00751792D01*
D02*
G37*
G36*
X00550759Y0074976D02*
X00549061D01*
X00547491Y0074911D01*
X0054629Y00747909D01*
X0054564Y00746339D01*
Y00744641D01*
X0054629Y00743071D01*
X00547491Y0074187D01*
X00549061Y0074122D01*
X00550759D01*
X00552329Y0074187D01*
X0055353Y00743071D01*
X0055418Y00744641D01*
Y00746339D01*
X0055353Y00747909D01*
X00552329Y0074911D01*
X00550759Y0074976D01*
D02*
G37*
G36*
X00804759Y0074849D02*
X00803061D01*
X00801491Y0074784D01*
X0080029Y00746639D01*
X0079964Y00745069D01*
Y00743371D01*
X0080029Y00741801D01*
X00801491Y007406D01*
X00803061Y0073995D01*
X00804759D01*
X00806329Y007406D01*
X0080753Y00741801D01*
X0080818Y00743371D01*
Y00745069D01*
X0080753Y00746639D01*
X00806329Y0074784D01*
X00804759Y0074849D01*
D02*
G37*
G36*
X00113074Y0075732D02*
X00110726D01*
X00108457Y00756712D01*
X00106423Y00755538D01*
X00104762Y00753877D01*
X00103588Y00751843D01*
X0010298Y00749574D01*
Y00747226D01*
X00103588Y00744957D01*
X00104762Y00742923D01*
X00106423Y00741262D01*
X00108457Y00740088D01*
X00110726Y0073948D01*
X00113074D01*
X00115343Y00740088D01*
X00117377Y00741262D01*
X00119038Y00742923D01*
X00120212Y00744957D01*
X0012082Y00747226D01*
Y00749574D01*
X00120212Y00751843D01*
X00119038Y00753877D01*
X00117377Y00755538D01*
X00115343Y00756712D01*
X00113074Y0075732D01*
D02*
G37*
G36*
X00087674D02*
X00085326D01*
X00083057Y00756712D01*
X00081023Y00755538D01*
X00079362Y00753877D01*
X00078188Y00751843D01*
X0007758Y00749574D01*
Y00747226D01*
X00078188Y00744957D01*
X00079362Y00742923D01*
X00081023Y00741262D01*
X00083057Y00740088D01*
X00085326Y0073948D01*
X00087674D01*
X00089943Y00740088D01*
X00091977Y00741262D01*
X00093638Y00742923D01*
X00094812Y00744957D01*
X0009542Y00747226D01*
Y00749574D01*
X00094812Y00751843D01*
X00093638Y00753877D01*
X00091977Y00755538D01*
X00089943Y00756712D01*
X00087674Y0075732D01*
D02*
G37*
G36*
X0027552Y00751522D02*
X0027312D01*
X00270903Y00750604D01*
X00269206Y00748907D01*
X00268288Y0074669D01*
Y0074429D01*
X00269206Y00742073D01*
X00270903Y00740376D01*
X0027312Y00739458D01*
X0027552D01*
X00277737Y00740376D01*
X00279434Y00742073D01*
X00280352Y0074429D01*
Y0074669D01*
X00279434Y00748907D01*
X00277737Y00750604D01*
X0027552Y00751522D01*
D02*
G37*
G36*
X00608061Y00747982D02*
X00606059D01*
X0060421Y00747216D01*
X00602794Y007458D01*
X00602028Y00743951D01*
Y00741949D01*
X00602794Y007401D01*
X0060421Y00738684D01*
X00606059Y00737918D01*
X00608061D01*
X0060991Y00738684D01*
X00611326Y007401D01*
X00612092Y00741949D01*
Y00743951D01*
X00611326Y007458D01*
X0060991Y00747216D01*
X00608061Y00747982D01*
D02*
G37*
G36*
X00174839Y0073579D02*
X00173141D01*
X00171571Y0073514D01*
X0017037Y00733939D01*
X0016972Y00732369D01*
Y00730671D01*
X0017037Y00729101D01*
X00171571Y007279D01*
X00173141Y0072725D01*
X00174839D01*
X00176409Y007279D01*
X0017761Y00729101D01*
X0017826Y00730671D01*
Y00732369D01*
X0017761Y00733939D01*
X00176409Y0073514D01*
X00174839Y0073579D01*
D02*
G37*
G36*
X00383271Y00735282D02*
X00381269D01*
X0037942Y00734516D01*
X00378004Y007331D01*
X00377238Y00731251D01*
Y00729249D01*
X00378004Y007274D01*
X0037942Y00725984D01*
X00381269Y00725218D01*
X00383271D01*
X0038512Y00725984D01*
X00386536Y007274D01*
X00387302Y00729249D01*
Y00731251D01*
X00386536Y007331D01*
X0038512Y00734516D01*
X00383271Y00735282D01*
D02*
G37*
G36*
X00563611Y00727662D02*
X00561609D01*
X0055976Y00726896D01*
X00558344Y0072548D01*
X00557578Y00723631D01*
Y00721629D01*
X00558344Y0071978D01*
X0055976Y00718364D01*
X00561609Y00717598D01*
X00563611D01*
X0056546Y00718364D01*
X00566876Y0071978D01*
X00567642Y00721629D01*
Y00723631D01*
X00566876Y0072548D01*
X0056546Y00726896D01*
X00563611Y00727662D01*
D02*
G37*
G36*
X00544561D02*
X00542559D01*
X0054071Y00726896D01*
X00539294Y0072548D01*
X00538528Y00723631D01*
Y00721629D01*
X00539294Y0071978D01*
X0054071Y00718364D01*
X00542559Y00717598D01*
X00544561D01*
X0054641Y00718364D01*
X00547826Y0071978D01*
X00548592Y00721629D01*
Y00723631D01*
X00547826Y0072548D01*
X0054641Y00726896D01*
X00544561Y00727662D01*
D02*
G37*
G36*
X00113074Y0073192D02*
X00110726D01*
X00108457Y00731312D01*
X00106423Y00730138D01*
X00104762Y00728477D01*
X00103588Y00726443D01*
X0010298Y00724174D01*
Y00721826D01*
X00103588Y00719557D01*
X00104762Y00717523D01*
X00106423Y00715862D01*
X00108457Y00714688D01*
X00110726Y0071408D01*
X00113074D01*
X00115343Y00714688D01*
X00117377Y00715862D01*
X00119038Y00717523D01*
X00120212Y00719557D01*
X0012082Y00721826D01*
Y00724174D01*
X00120212Y00726443D01*
X00119038Y00728477D01*
X00117377Y00730138D01*
X00115343Y00731312D01*
X00113074Y0073192D01*
D02*
G37*
G36*
X00087674D02*
X00085326D01*
X00083057Y00731312D01*
X00081023Y00730138D01*
X00079362Y00728477D01*
X00078188Y00726443D01*
X0007758Y00724174D01*
Y00721826D01*
X00078188Y00719557D01*
X00079362Y00717523D01*
X00081023Y00715862D01*
X00083057Y00714688D01*
X00085326Y0071408D01*
X00087674D01*
X00089943Y00714688D01*
X00091977Y00715862D01*
X00093638Y00717523D01*
X00094812Y00719557D01*
X0009542Y00721826D01*
Y00724174D01*
X00094812Y00726443D01*
X00093638Y00728477D01*
X00091977Y00730138D01*
X00089943Y00731312D01*
X00087674Y0073192D01*
D02*
G37*
G36*
X00062274D02*
X00059926D01*
X00057657Y00731312D01*
X00055623Y00730138D01*
X00053962Y00728477D01*
X00052788Y00726443D01*
X0005218Y00724174D01*
Y00721826D01*
X00052788Y00719557D01*
X00053962Y00717523D01*
X00055623Y00715862D01*
X00057657Y00714688D01*
X00059926Y0071408D01*
X00062274D01*
X00064543Y00714688D01*
X00066577Y00715862D01*
X00068238Y00717523D01*
X00069412Y00719557D01*
X0007002Y00721826D01*
Y00724174D01*
X00069412Y00726443D01*
X00068238Y00728477D01*
X00066577Y00730138D01*
X00064543Y00731312D01*
X00062274Y0073192D01*
D02*
G37*
G36*
X00036874D02*
X00034526D01*
X00032257Y00731312D01*
X00030223Y00730138D01*
X00028562Y00728477D01*
X00027388Y00726443D01*
X0002678Y00724174D01*
Y00721826D01*
X00027388Y00719557D01*
X00028562Y00717523D01*
X00030223Y00715862D01*
X00032257Y00714688D01*
X00034526Y0071408D01*
X00036874D01*
X00039143Y00714688D01*
X00041177Y00715862D01*
X00042838Y00717523D01*
X00044012Y00719557D01*
X0004462Y00721826D01*
Y00724174D01*
X00044012Y00726443D01*
X00042838Y00728477D01*
X00041177Y00730138D01*
X00039143Y00731312D01*
X00036874Y0073192D01*
D02*
G37*
G36*
X00643469Y0071928D02*
X00641771D01*
X00640201Y0071863D01*
X00639Y00717429D01*
X0063835Y00715859D01*
Y00714161D01*
X00639Y00712591D01*
X00640201Y0071139D01*
X00641771Y0071074D01*
X00643469D01*
X00645039Y0071139D01*
X0064624Y00712591D01*
X0064689Y00714161D01*
Y00715859D01*
X0064624Y00717429D01*
X00645039Y0071863D01*
X00643469Y0071928D01*
D02*
G37*
G36*
X00826349Y0072055D02*
X00824651D01*
X00823081Y007199D01*
X0082188Y00718699D01*
X0082123Y00717129D01*
Y00715431D01*
X0082188Y00713861D01*
X00823081Y0071266D01*
X00824651Y0071201D01*
X00824962D01*
X00824976Y00711989D01*
X00825351Y0071074D01*
X0082442Y00709809D01*
X0082377Y00708239D01*
Y00706541D01*
X0082442Y00704971D01*
X00825621Y0070377D01*
X00827191Y0070312D01*
X00828889D01*
X00830459Y0070377D01*
X0083166Y00704971D01*
X0083231Y00706541D01*
Y00708239D01*
X0083166Y00709809D01*
X00830459Y0071101D01*
X00828889Y0071166D01*
X00828578D01*
X00828564Y00711681D01*
X00828189Y0071293D01*
X0082912Y00713861D01*
X0082977Y00715431D01*
Y00717129D01*
X0082912Y00718699D01*
X00827919Y007199D01*
X00826349Y0072055D01*
D02*
G37*
G36*
X00643469Y0070658D02*
X00641771D01*
X00640201Y0070593D01*
X00639Y00704729D01*
X0063835Y00703159D01*
Y00701461D01*
X00639Y00699891D01*
X00640201Y0069869D01*
X00641771Y0069804D01*
X00643469D01*
X00645039Y0069869D01*
X0064624Y00699891D01*
X0064689Y00701461D01*
Y00703159D01*
X0064624Y00704729D01*
X00645039Y0070593D01*
X00643469Y0070658D01*
D02*
G37*
G36*
X00113074Y0070652D02*
X00110726D01*
X00108457Y00705912D01*
X00106423Y00704738D01*
X00104762Y00703077D01*
X00103588Y00701043D01*
X0010298Y00698774D01*
Y00696426D01*
X00103588Y00694157D01*
X00104762Y00692123D01*
X00106423Y00690462D01*
X00108457Y00689288D01*
X00110726Y0068868D01*
X00113074D01*
X00115343Y00689288D01*
X00117377Y00690462D01*
X00119038Y00692123D01*
X00120212Y00694157D01*
X0012082Y00696426D01*
Y00698774D01*
X00120212Y00701043D01*
X00119038Y00703077D01*
X00117377Y00704738D01*
X00115343Y00705912D01*
X00113074Y0070652D01*
D02*
G37*
G36*
X00087674D02*
X00085326D01*
X00083057Y00705912D01*
X00081023Y00704738D01*
X00079362Y00703077D01*
X00078188Y00701043D01*
X0007758Y00698774D01*
Y00696426D01*
X00078188Y00694157D01*
X00079362Y00692123D01*
X00081023Y00690462D01*
X00083057Y00689288D01*
X00085326Y0068868D01*
X00087674D01*
X00089943Y00689288D01*
X00091977Y00690462D01*
X00093638Y00692123D01*
X00094812Y00694157D01*
X0009542Y00696426D01*
Y00698774D01*
X00094812Y00701043D01*
X00093638Y00703077D01*
X00091977Y00704738D01*
X00089943Y00705912D01*
X00087674Y0070652D01*
D02*
G37*
G36*
X00062274D02*
X00059926D01*
X00057657Y00705912D01*
X00055623Y00704738D01*
X00053962Y00703077D01*
X00052788Y00701043D01*
X0005218Y00698774D01*
Y00696426D01*
X00052788Y00694157D01*
X00053962Y00692123D01*
X00055623Y00690462D01*
X00057657Y00689288D01*
X00059926Y0068868D01*
X00062274D01*
X00064543Y00689288D01*
X00066577Y00690462D01*
X00068238Y00692123D01*
X00069412Y00694157D01*
X0007002Y00696426D01*
Y00698774D01*
X00069412Y00701043D01*
X00068238Y00703077D01*
X00066577Y00704738D01*
X00064543Y00705912D01*
X00062274Y0070652D01*
D02*
G37*
G36*
X00036874D02*
X00034526D01*
X00032257Y00705912D01*
X00030223Y00704738D01*
X00028562Y00703077D01*
X00027388Y00701043D01*
X0002678Y00698774D01*
Y00696426D01*
X00027388Y00694157D01*
X00028562Y00692123D01*
X00030223Y00690462D01*
X00032257Y00689288D01*
X00034526Y0068868D01*
X00036874D01*
X00039143Y00689288D01*
X00041177Y00690462D01*
X00042838Y00692123D01*
X00044012Y00694157D01*
X0004462Y00696426D01*
Y00698774D01*
X00044012Y00701043D01*
X00042838Y00703077D01*
X00041177Y00704738D01*
X00039143Y00705912D01*
X00036874Y0070652D01*
D02*
G37*
G36*
X00323429Y0069134D02*
X00321731D01*
X00320161Y0069069D01*
X0031896Y00689489D01*
X0031831Y00687919D01*
Y00686221D01*
X0031896Y00684651D01*
X00320161Y0068345D01*
X00321731Y006828D01*
X00323429D01*
X00324999Y0068345D01*
X003262Y00684651D01*
X0032685Y00686221D01*
Y00687919D01*
X003262Y00689489D01*
X00324999Y0069069D01*
X00323429Y0069134D01*
D02*
G37*
G36*
X004457Y00693102D02*
X004433D01*
X00441083Y00692184D01*
X00439386Y00690487D01*
X00438468Y0068827D01*
Y0068587D01*
X00439386Y00683653D01*
X00441083Y00681956D01*
X004433Y00681038D01*
X004457D01*
X00447917Y00681956D01*
X00449614Y00683653D01*
X00450532Y0068587D01*
Y0068827D01*
X00449614Y00690487D01*
X00447917Y00692184D01*
X004457Y00693102D01*
D02*
G37*
G36*
X00867737Y00687853D02*
X00865735D01*
X00863885Y00687087D01*
X0086247Y00685672D01*
X00861704Y00683822D01*
Y0068182D01*
X0086247Y00679971D01*
X00863885Y00678555D01*
X00865735Y00677789D01*
X00867737D01*
X00869586Y00678555D01*
X00871002Y00679971D01*
X00871768Y0068182D01*
Y00683822D01*
X00871002Y00685672D01*
X00869586Y00687087D01*
X00867737Y00687853D01*
D02*
G37*
G36*
X00638389Y0067864D02*
X00636691D01*
X00635121Y0067799D01*
X0063392Y00676789D01*
X0063327Y00675219D01*
Y00673521D01*
X0063392Y00671951D01*
X00635121Y0067075D01*
X00636691Y006701D01*
X00638389D01*
X00639959Y0067075D01*
X0064116Y00671951D01*
X0064181Y00673521D01*
Y00675219D01*
X0064116Y00676789D01*
X00639959Y0067799D01*
X00638389Y0067864D01*
D02*
G37*
G36*
X00323429D02*
X00321731D01*
X00320161Y0067799D01*
X0031896Y00676789D01*
X0031831Y00675219D01*
Y00673521D01*
X0031896Y00671951D01*
X00320161Y0067075D01*
X00321731Y006701D01*
X00323429D01*
X00324999Y0067075D01*
X003262Y00671951D01*
X0032685Y00673521D01*
Y00675219D01*
X003262Y00676789D01*
X00324999Y0067799D01*
X00323429Y0067864D01*
D02*
G37*
G36*
X00113074Y0068112D02*
X00110726D01*
X00108457Y00680512D01*
X00106423Y00679338D01*
X00104762Y00677677D01*
X00103588Y00675643D01*
X0010298Y00673374D01*
Y00671026D01*
X00103588Y00668757D01*
X00104762Y00666723D01*
X00106423Y00665062D01*
X00108457Y00663888D01*
X00110726Y0066328D01*
X00113074D01*
X00115343Y00663888D01*
X00117377Y00665062D01*
X00119038Y00666723D01*
X00120212Y00668757D01*
X0012082Y00671026D01*
Y00673374D01*
X00120212Y00675643D01*
X00119038Y00677677D01*
X00117377Y00679338D01*
X00115343Y00680512D01*
X00113074Y0068112D01*
D02*
G37*
G36*
X00087674D02*
X00085326D01*
X00083057Y00680512D01*
X00081023Y00679338D01*
X00079362Y00677677D01*
X00078188Y00675643D01*
X0007758Y00673374D01*
Y00671026D01*
X00078188Y00668757D01*
X00079362Y00666723D01*
X00081023Y00665062D01*
X00083057Y00663888D01*
X00085326Y0066328D01*
X00087674D01*
X00089943Y00663888D01*
X00091977Y00665062D01*
X00093638Y00666723D01*
X00094812Y00668757D01*
X0009542Y00671026D01*
Y00673374D01*
X00094812Y00675643D01*
X00093638Y00677677D01*
X00091977Y00679338D01*
X00089943Y00680512D01*
X00087674Y0068112D01*
D02*
G37*
G36*
X00062274D02*
X00059926D01*
X00057657Y00680512D01*
X00055623Y00679338D01*
X00053962Y00677677D01*
X00052788Y00675643D01*
X0005218Y00673374D01*
Y00671026D01*
X00052788Y00668757D01*
X00053962Y00666723D01*
X00055623Y00665062D01*
X00057657Y00663888D01*
X00059926Y0066328D01*
X00062274D01*
X00064543Y00663888D01*
X00066577Y00665062D01*
X00068238Y00666723D01*
X00069412Y00668757D01*
X0007002Y00671026D01*
Y00673374D01*
X00069412Y00675643D01*
X00068238Y00677677D01*
X00066577Y00679338D01*
X00064543Y00680512D01*
X00062274Y0068112D01*
D02*
G37*
G36*
X00036874D02*
X00034526D01*
X00032257Y00680512D01*
X00030223Y00679338D01*
X00028562Y00677677D01*
X00027388Y00675643D01*
X0002678Y00673374D01*
Y00671026D01*
X00027388Y00668757D01*
X00028562Y00666723D01*
X00030223Y00665062D01*
X00032257Y00663888D01*
X00034526Y0066328D01*
X00036874D01*
X00039143Y00663888D01*
X00041177Y00665062D01*
X00042838Y00666723D01*
X00044012Y00668757D01*
X0004462Y00671026D01*
Y00673374D01*
X00044012Y00675643D01*
X00042838Y00677677D01*
X00041177Y00679338D01*
X00039143Y00680512D01*
X00036874Y0068112D01*
D02*
G37*
G36*
X00868031Y00669242D02*
X00866029D01*
X0086418Y00668476D01*
X00862764Y0066706D01*
X00861998Y00665211D01*
Y00663209D01*
X00862764Y0066136D01*
X0086418Y00659944D01*
X00866029Y00659178D01*
X00868031D01*
X0086988Y00659944D01*
X00871296Y0066136D01*
X00872062Y00663209D01*
Y00665211D01*
X00871296Y0066706D01*
X0086988Y00668476D01*
X00868031Y00669242D01*
D02*
G37*
G36*
X0082731Y00666901D02*
X00825611D01*
X00824042Y00666251D01*
X00822841Y0066505D01*
X00822191Y0066348D01*
Y00661781D01*
X00822841Y00660212D01*
X00824042Y00659011D01*
X00825611Y00658361D01*
X0082731D01*
X00828879Y00659011D01*
X00830081Y00660212D01*
X00830731Y00661781D01*
Y0066348D01*
X00830081Y0066505D01*
X00828879Y00666251D01*
X0082731Y00666901D01*
D02*
G37*
G36*
X0061588Y00668972D02*
X0061348D01*
X00611263Y00668054D01*
X00609566Y00666357D01*
X00608648Y0066414D01*
Y0066174D01*
X00609566Y00659523D01*
X00611263Y00657826D01*
X0061348Y00656908D01*
X0061588D01*
X00618097Y00657826D01*
X00619794Y00659523D01*
X00620712Y0066174D01*
Y0066414D01*
X00619794Y00666357D01*
X00618097Y00668054D01*
X0061588Y00668972D01*
D02*
G37*
G36*
X00644739Y0066721D02*
X00643041D01*
X00641471Y0066656D01*
X0064027Y00665359D01*
X0063962Y00663789D01*
Y00662091D01*
X0064027Y00660521D01*
X00641471Y0065932D01*
X00641644Y00659249D01*
X00641698Y00657896D01*
X00640497Y00656695D01*
X00639846Y00655126D01*
Y00653427D01*
X00640497Y00651858D01*
X00641698Y00650657D01*
X00643267Y00650006D01*
X00644966D01*
X00646535Y00650657D01*
X00647736Y00651858D01*
X00648386Y00653427D01*
Y00655126D01*
X00647736Y00656695D01*
X00646535Y00657896D01*
X00646363Y00657968D01*
X00646309Y0065932D01*
X0064751Y00660521D01*
X0064816Y00662091D01*
Y00663789D01*
X0064751Y00665359D01*
X00646309Y0066656D01*
X00644739Y0066721D01*
D02*
G37*
G36*
X00827619Y006507D02*
X00825921D01*
X00824351Y0065005D01*
X0082315Y00648849D01*
X008225Y00647279D01*
Y00645581D01*
X0082315Y00644011D01*
X00824351Y0064281D01*
X00825921Y0064216D01*
X00827619D01*
X00829189Y0064281D01*
X0083039Y00644011D01*
X0083104Y00645581D01*
Y00647279D01*
X0083039Y00648849D01*
X00829189Y0065005D01*
X00827619Y006507D01*
D02*
G37*
G36*
X00113074Y0065572D02*
X00110726D01*
X00108457Y00655112D01*
X00106423Y00653938D01*
X00104762Y00652277D01*
X00103588Y00650243D01*
X0010298Y00647974D01*
Y00645626D01*
X00103588Y00643357D01*
X00104762Y00641323D01*
X00106423Y00639662D01*
X00108457Y00638488D01*
X00110726Y0063788D01*
X00113074D01*
X00115343Y00638488D01*
X00117377Y00639662D01*
X00119038Y00641323D01*
X00120212Y00643357D01*
X0012082Y00645626D01*
Y00647974D01*
X00120212Y00650243D01*
X00119038Y00652277D01*
X00117377Y00653938D01*
X00115343Y00655112D01*
X00113074Y0065572D01*
D02*
G37*
G36*
X00087674D02*
X00085326D01*
X00083057Y00655112D01*
X00081023Y00653938D01*
X00079362Y00652277D01*
X00078188Y00650243D01*
X0007758Y00647974D01*
Y00645626D01*
X00078188Y00643357D01*
X00079362Y00641323D01*
X00081023Y00639662D01*
X00083057Y00638488D01*
X00085326Y0063788D01*
X00087674D01*
X00089943Y00638488D01*
X00091977Y00639662D01*
X00093638Y00641323D01*
X00094812Y00643357D01*
X0009542Y00645626D01*
Y00647974D01*
X00094812Y00650243D01*
X00093638Y00652277D01*
X00091977Y00653938D01*
X00089943Y00655112D01*
X00087674Y0065572D01*
D02*
G37*
G36*
X00062274D02*
X00059926D01*
X00057657Y00655112D01*
X00055623Y00653938D01*
X00053962Y00652277D01*
X00052788Y00650243D01*
X0005218Y00647974D01*
Y00645626D01*
X00052788Y00643357D01*
X00053962Y00641323D01*
X00055623Y00639662D01*
X00057657Y00638488D01*
X00059926Y0063788D01*
X00062274D01*
X00064543Y00638488D01*
X00066577Y00639662D01*
X00068238Y00641323D01*
X00069412Y00643357D01*
X0007002Y00645626D01*
Y00647974D01*
X00069412Y00650243D01*
X00068238Y00652277D01*
X00066577Y00653938D01*
X00064543Y00655112D01*
X00062274Y0065572D01*
D02*
G37*
G36*
X00036874D02*
X00034526D01*
X00032257Y00655112D01*
X00030223Y00653938D01*
X00028562Y00652277D01*
X00027388Y00650243D01*
X0002678Y00647974D01*
Y00645626D01*
X00027388Y00643357D01*
X00028562Y00641323D01*
X00030223Y00639662D01*
X00032257Y00638488D01*
X00034526Y0063788D01*
X00036874D01*
X00039143Y00638488D01*
X00041177Y00639662D01*
X00042838Y00641323D01*
X00044012Y00643357D01*
X0004462Y00645626D01*
Y00647974D01*
X00044012Y00650243D01*
X00042838Y00652277D01*
X00041177Y00653938D01*
X00039143Y00655112D01*
X00036874Y0065572D01*
D02*
G37*
G36*
X00868411Y00636222D02*
X00866409D01*
X0086456Y00635456D01*
X00863144Y0063404D01*
X00862378Y00632191D01*
Y00630189D01*
X00863144Y0062834D01*
X0086456Y00626924D01*
X00866409Y00626158D01*
X00868411D01*
X0087026Y00626924D01*
X00871676Y0062834D01*
X00872442Y00630189D01*
Y00632191D01*
X00871676Y0063404D01*
X0087026Y00635456D01*
X00868411Y00636222D01*
D02*
G37*
G36*
X00827619Y0063165D02*
X00825921D01*
X00824351Y00631D01*
X0082315Y00629799D01*
X008225Y00628229D01*
Y00626531D01*
X0082315Y00624961D01*
X00824351Y0062376D01*
X00825921Y0062311D01*
X00827619D01*
X00829189Y0062376D01*
X0083039Y00624961D01*
X0083104Y00626531D01*
Y00628229D01*
X0083039Y00629799D01*
X00829189Y00631D01*
X00827619Y0063165D01*
D02*
G37*
G36*
X00579969Y0062784D02*
X00578271D01*
X00576701Y0062719D01*
X005755Y00625989D01*
X0057485Y00624419D01*
Y00622721D01*
X005755Y00621151D01*
X00576701Y0061995D01*
X00578271Y006193D01*
X00579969D01*
X00581539Y0061995D01*
X0058274Y00621151D01*
X0058339Y00622721D01*
Y00624419D01*
X0058274Y00625989D01*
X00581539Y0062719D01*
X00579969Y0062784D01*
D02*
G37*
G36*
X00543139D02*
X00541441D01*
X00539871Y0062719D01*
X0053867Y00625989D01*
X0053802Y00624419D01*
Y00622721D01*
X0053867Y00621151D01*
X00539871Y0061995D01*
X00541441Y006193D01*
X00543139D01*
X00544709Y0061995D01*
X0054591Y00621151D01*
X0054656Y00622721D01*
Y00624419D01*
X0054591Y00625989D01*
X00544709Y0062719D01*
X00543139Y0062784D01*
D02*
G37*
G36*
X00113074Y0063032D02*
X00110726D01*
X00108457Y00629712D01*
X00106423Y00628538D01*
X00104762Y00626877D01*
X00103588Y00624843D01*
X0010298Y00622574D01*
Y00620226D01*
X00103588Y00617957D01*
X00104762Y00615923D01*
X00106423Y00614262D01*
X00108457Y00613088D01*
X00110726Y0061248D01*
X00113074D01*
X00115343Y00613088D01*
X00117377Y00614262D01*
X00119038Y00615923D01*
X00120212Y00617957D01*
X0012082Y00620226D01*
Y00622574D01*
X00120212Y00624843D01*
X00119038Y00626877D01*
X00117377Y00628538D01*
X00115343Y00629712D01*
X00113074Y0063032D01*
D02*
G37*
G36*
X00087674D02*
X00085326D01*
X00083057Y00629712D01*
X00081023Y00628538D01*
X00079362Y00626877D01*
X00078188Y00624843D01*
X0007758Y00622574D01*
Y00620226D01*
X00078188Y00617957D01*
X00079362Y00615923D01*
X00081023Y00614262D01*
X00083057Y00613088D01*
X00085326Y0061248D01*
X00087674D01*
X00089943Y00613088D01*
X00091977Y00614262D01*
X00093638Y00615923D01*
X00094812Y00617957D01*
X0009542Y00620226D01*
Y00622574D01*
X00094812Y00624843D01*
X00093638Y00626877D01*
X00091977Y00628538D01*
X00089943Y00629712D01*
X00087674Y0063032D01*
D02*
G37*
G36*
X00062274D02*
X00059926D01*
X00057657Y00629712D01*
X00055623Y00628538D01*
X00053962Y00626877D01*
X00052788Y00624843D01*
X0005218Y00622574D01*
Y00620226D01*
X00052788Y00617957D01*
X00053962Y00615923D01*
X00055623Y00614262D01*
X00057657Y00613088D01*
X00059926Y0061248D01*
X00062274D01*
X00064543Y00613088D01*
X00066577Y00614262D01*
X00068238Y00615923D01*
X00069412Y00617957D01*
X0007002Y00620226D01*
Y00622574D01*
X00069412Y00624843D01*
X00068238Y00626877D01*
X00066577Y00628538D01*
X00064543Y00629712D01*
X00062274Y0063032D01*
D02*
G37*
G36*
X00036874D02*
X00034526D01*
X00032257Y00629712D01*
X00030223Y00628538D01*
X00028562Y00626877D01*
X00027388Y00624843D01*
X0002678Y00622574D01*
Y00620226D01*
X00027388Y00617957D01*
X00028562Y00615923D01*
X00030223Y00614262D01*
X00032257Y00613088D01*
X00034526Y0061248D01*
X00036874D01*
X00039143Y00613088D01*
X00041177Y00614262D01*
X00042838Y00615923D01*
X00044012Y00617957D01*
X0004462Y00620226D01*
Y00622574D01*
X00044012Y00624843D01*
X00042838Y00626877D01*
X00041177Y00628538D01*
X00039143Y00629712D01*
X00036874Y0063032D01*
D02*
G37*
G36*
X0033909Y00621135D02*
X0033909Y00621135D01*
X0031242D01*
X00311448Y00620732D01*
X00311045Y0061976D01*
Y00606099D01*
X00181715D01*
Y00613476D01*
X0018161Y00613728D01*
Y00614002D01*
X00181203Y00614986D01*
X00181009Y00615179D01*
X00180905Y00615432D01*
X00180152Y00616185D01*
X00179899Y00616289D01*
X00179706Y00616483D01*
X00178722Y0061689D01*
X00178448D01*
X00178196Y00616995D01*
X0014953D01*
X00149277Y0061689D01*
X00149004D01*
X00148141Y00616533D01*
X00147948Y00616339D01*
X00147695Y00616235D01*
X00147035Y00615575D01*
X00146931Y00615322D01*
X00146737Y00615129D01*
X0014638Y00614266D01*
Y00613993D01*
X00146275Y0061374D01*
Y00591239D01*
X0014638Y00590987D01*
Y00590713D01*
X00146931Y00589382D01*
X00147125Y00589189D01*
X00147229Y00588936D01*
X00148248Y00587918D01*
X001485Y00587813D01*
X00148694Y0058762D01*
X00150025Y00587068D01*
X00150298D01*
X00150551Y00586964D01*
X00150714D01*
X00150795Y00586882D01*
X00150795D01*
X00150887Y0058679D01*
X00151008Y0058674D01*
X00151281Y0058674D01*
X00151413Y00586685D01*
X00151413Y00586685D01*
X00151534Y00586635D01*
X00163725D01*
Y0054356D01*
X00164128Y00542588D01*
X001651Y00542185D01*
X0018034D01*
X00181312Y00542588D01*
X00181715Y0054356D01*
Y00600401D01*
X00307948D01*
X00308671Y00599131D01*
X00308505Y0059873D01*
X00308505Y0059873D01*
Y0057531D01*
X00308908Y00574338D01*
X00308908Y00574338D01*
X00311448Y00571798D01*
X0031242Y00571395D01*
X0031242Y00571395D01*
X0032258D01*
X00323552Y00571798D01*
X00323552Y00571798D01*
X00326092Y00574338D01*
X00326495Y0057531D01*
X00326495Y0057531D01*
Y00581091D01*
X00329499Y00584095D01*
X0034036D01*
X0034036Y00584095D01*
X00341332Y00584498D01*
X00341332Y00584498D01*
X00342602Y00585768D01*
X00343005Y0058674D01*
X00343005Y0058674D01*
X00343005Y0061722D01*
X00342602Y00618192D01*
X00342602Y00618192D01*
X00340062Y00620732D01*
X0033909Y00621135D01*
D02*
G37*
G36*
X00579969Y0060244D02*
X00578271D01*
X00576701Y0060179D01*
X005755Y00600589D01*
X0057485Y00599019D01*
Y00597321D01*
X005755Y00595751D01*
X00576701Y0059455D01*
X00578271Y005939D01*
X00579969D01*
X00581539Y0059455D01*
X0058274Y00595751D01*
X0058339Y00597321D01*
Y00599019D01*
X0058274Y00600589D01*
X00581539Y0060179D01*
X00579969Y0060244D01*
D02*
G37*
G36*
X00543139D02*
X00541441D01*
X00539871Y0060179D01*
X0053867Y00600589D01*
X0053802Y00599019D01*
Y00597321D01*
X0053867Y00595751D01*
X00539871Y0059455D01*
X00541441Y005939D01*
X00543139D01*
X00544709Y0059455D01*
X0054591Y00595751D01*
X0054656Y00597321D01*
Y00599019D01*
X0054591Y00600589D01*
X00544709Y0060179D01*
X00543139Y0060244D01*
D02*
G37*
G36*
X00868411Y00603202D02*
X00866409D01*
X0086456Y00602436D01*
X00863144Y0060102D01*
X00862378Y00599171D01*
Y00597169D01*
X00863144Y0059532D01*
X0086456Y00593904D01*
X00866409Y00593138D01*
X00868411D01*
X0087026Y00593904D01*
X00871676Y0059532D01*
X00872442Y00597169D01*
Y00599171D01*
X00871676Y0060102D01*
X0087026Y00602436D01*
X00868411Y00603202D01*
D02*
G37*
G36*
X00113074Y0060492D02*
X00110726D01*
X00108457Y00604312D01*
X00106423Y00603138D01*
X00104762Y00601477D01*
X00103588Y00599443D01*
X0010298Y00597174D01*
Y00594826D01*
X00103588Y00592557D01*
X00104762Y00590523D01*
X00106423Y00588862D01*
X00108457Y00587688D01*
X00110726Y0058708D01*
X00113074D01*
X00115343Y00587688D01*
X00117377Y00588862D01*
X00119038Y00590523D01*
X00120212Y00592557D01*
X0012082Y00594826D01*
Y00597174D01*
X00120212Y00599443D01*
X00119038Y00601477D01*
X00117377Y00603138D01*
X00115343Y00604312D01*
X00113074Y0060492D01*
D02*
G37*
G36*
X00087674D02*
X00085326D01*
X00083057Y00604312D01*
X00081023Y00603138D01*
X00079362Y00601477D01*
X00078188Y00599443D01*
X0007758Y00597174D01*
Y00594826D01*
X00078188Y00592557D01*
X00079362Y00590523D01*
X00081023Y00588862D01*
X00083057Y00587688D01*
X00085326Y0058708D01*
X00087674D01*
X00089943Y00587688D01*
X00091977Y00588862D01*
X00093638Y00590523D01*
X00094812Y00592557D01*
X0009542Y00594826D01*
Y00597174D01*
X00094812Y00599443D01*
X00093638Y00601477D01*
X00091977Y00603138D01*
X00089943Y00604312D01*
X00087674Y0060492D01*
D02*
G37*
G36*
X00062274D02*
X00059926D01*
X00057657Y00604312D01*
X00055623Y00603138D01*
X00053962Y00601477D01*
X00052788Y00599443D01*
X0005218Y00597174D01*
Y00594826D01*
X00052788Y00592557D01*
X00053962Y00590523D01*
X00055623Y00588862D01*
X00057657Y00587688D01*
X00059926Y0058708D01*
X00062274D01*
X00064543Y00587688D01*
X00066577Y00588862D01*
X00068238Y00590523D01*
X00069412Y00592557D01*
X0007002Y00594826D01*
Y00597174D01*
X00069412Y00599443D01*
X00068238Y00601477D01*
X00066577Y00603138D01*
X00064543Y00604312D01*
X00062274Y0060492D01*
D02*
G37*
G36*
X00036874D02*
X00034526D01*
X00032257Y00604312D01*
X00030223Y00603138D01*
X00028562Y00601477D01*
X00027388Y00599443D01*
X0002678Y00597174D01*
Y00594826D01*
X00027388Y00592557D01*
X00028562Y00590523D01*
X00030223Y00588862D01*
X00032257Y00587688D01*
X00034526Y0058708D01*
X00036874D01*
X00039143Y00587688D01*
X00041177Y00588862D01*
X00042838Y00590523D01*
X00044012Y00592557D01*
X0004462Y00594826D01*
Y00597174D01*
X00044012Y00599443D01*
X00042838Y00601477D01*
X00041177Y00603138D01*
X00039143Y00604312D01*
X00036874Y0060492D01*
D02*
G37*
G36*
X00634468Y00594781D02*
X0063277D01*
X006312Y0059413D01*
X00629999Y00592929D01*
X00629349Y0059136D01*
Y00589661D01*
X00629999Y00588092D01*
X006312Y00586891D01*
X0063277Y00586241D01*
X00634468D01*
X00636038Y00586891D01*
X00637239Y00588092D01*
X00637889Y00589661D01*
Y0059136D01*
X00637239Y00592929D01*
X00636038Y0059413D01*
X00634468Y00594781D01*
D02*
G37*
G36*
X00841589Y0059228D02*
X00839891D01*
X00838321Y0059163D01*
X0083712Y00590429D01*
X0083647Y00588859D01*
Y00587161D01*
X0083712Y00585591D01*
X00838321Y0058439D01*
X00839891Y0058374D01*
X00841589D01*
X00843159Y0058439D01*
X0084436Y00585591D01*
X0084501Y00587161D01*
Y00588859D01*
X0084436Y00590429D01*
X00843159Y0059163D01*
X00841589Y0059228D01*
D02*
G37*
G36*
X0020385Y0059001D02*
X0020255D01*
X00201348Y00589512D01*
X00200428Y00588592D01*
X0019993Y0058739D01*
Y0058609D01*
X00200428Y00584888D01*
X00201348Y00583968D01*
X0020255Y0058347D01*
X0020385D01*
X00205052Y00583968D01*
X00205972Y00584888D01*
X0020647Y0058609D01*
Y0058739D01*
X00205972Y00588592D01*
X00205052Y00589512D01*
X0020385Y0059001D01*
D02*
G37*
G36*
X00146899Y0058466D02*
X00145201D01*
X00143631Y0058401D01*
X0014243Y00582809D01*
X0014178Y00581239D01*
Y00579541D01*
X0014243Y00577971D01*
X00143631Y0057677D01*
X00145201Y0057612D01*
X00146899D01*
X00148469Y0057677D01*
X0014967Y00577971D01*
X0015032Y00579541D01*
Y00581239D01*
X0014967Y00582809D01*
X00148469Y0058401D01*
X00146899Y0058466D01*
D02*
G37*
G36*
X0020004Y0057604D02*
X0019874D01*
X00197538Y00575542D01*
X00196618Y00574622D01*
X0019612Y0057342D01*
Y0057212D01*
X00196618Y00570918D01*
X00197538Y00569998D01*
X0019874Y005695D01*
X00199036D01*
X00199992Y00568488D01*
Y00567188D01*
X0020049Y00565986D01*
X0020141Y00565066D01*
X00202612Y00564568D01*
X00203912D01*
X00205114Y00565066D01*
X00206034Y00565986D01*
X00206532Y00567188D01*
Y00568488D01*
X00206034Y0056969D01*
X00205114Y0057061D01*
X00203912Y00571108D01*
X00203616D01*
X0020266Y0057212D01*
Y0057342D01*
X00202162Y00574622D01*
X00201242Y00575542D01*
X0020004Y0057604D01*
D02*
G37*
G36*
X00113074Y0057952D02*
X00110726D01*
X00108457Y00578912D01*
X00106423Y00577738D01*
X00104762Y00576077D01*
X00103588Y00574043D01*
X0010298Y00571774D01*
Y00569426D01*
X00103588Y00567157D01*
X00104762Y00565123D01*
X00106423Y00563462D01*
X00108457Y00562288D01*
X00110726Y0056168D01*
X00113074D01*
X00115343Y00562288D01*
X00117377Y00563462D01*
X00119038Y00565123D01*
X00120212Y00567157D01*
X0012082Y00569426D01*
Y00571774D01*
X00120212Y00574043D01*
X00119038Y00576077D01*
X00117377Y00577738D01*
X00115343Y00578912D01*
X00113074Y0057952D01*
D02*
G37*
G36*
X00087674D02*
X00085326D01*
X00083057Y00578912D01*
X00081023Y00577738D01*
X00079362Y00576077D01*
X00078188Y00574043D01*
X0007758Y00571774D01*
Y00569426D01*
X00078188Y00567157D01*
X00079362Y00565123D01*
X00081023Y00563462D01*
X00083057Y00562288D01*
X00085326Y0056168D01*
X00087674D01*
X00089943Y00562288D01*
X00091977Y00563462D01*
X00093638Y00565123D01*
X00094812Y00567157D01*
X0009542Y00569426D01*
Y00571774D01*
X00094812Y00574043D01*
X00093638Y00576077D01*
X00091977Y00577738D01*
X00089943Y00578912D01*
X00087674Y0057952D01*
D02*
G37*
G36*
X00062274D02*
X00059926D01*
X00057657Y00578912D01*
X00055623Y00577738D01*
X00053962Y00576077D01*
X00052788Y00574043D01*
X0005218Y00571774D01*
Y00569426D01*
X00052788Y00567157D01*
X00053962Y00565123D01*
X00055623Y00563462D01*
X00057657Y00562288D01*
X00059926Y0056168D01*
X00062274D01*
X00064543Y00562288D01*
X00066577Y00563462D01*
X00068238Y00565123D01*
X00069412Y00567157D01*
X0007002Y00569426D01*
Y00571774D01*
X00069412Y00574043D01*
X00068238Y00576077D01*
X00066577Y00577738D01*
X00064543Y00578912D01*
X00062274Y0057952D01*
D02*
G37*
G36*
X00036874D02*
X00034526D01*
X00032257Y00578912D01*
X00030223Y00577738D01*
X00028562Y00576077D01*
X00027388Y00574043D01*
X0002678Y00571774D01*
Y00569426D01*
X00027388Y00567157D01*
X00028562Y00565123D01*
X00030223Y00563462D01*
X00032257Y00562288D01*
X00034526Y0056168D01*
X00036874D01*
X00039143Y00562288D01*
X00041177Y00563462D01*
X00042838Y00565123D01*
X00044012Y00567157D01*
X0004462Y00569426D01*
Y00571774D01*
X00044012Y00574043D01*
X00042838Y00576077D01*
X00041177Y00577738D01*
X00039143Y00578912D01*
X00036874Y0057952D01*
D02*
G37*
G36*
X00755229Y0056307D02*
X00753531D01*
X00751961Y0056242D01*
X0075076Y00561219D01*
X0075011Y00559649D01*
Y00557951D01*
X0075076Y00556381D01*
X00751961Y0055518D01*
X00753531Y0055453D01*
X00755229D01*
X00756799Y0055518D01*
X00758Y00556381D01*
X0075865Y00557951D01*
Y00559649D01*
X00758Y00561219D01*
X00756799Y0056242D01*
X00755229Y0056307D01*
D02*
G37*
G36*
X00745069D02*
X00743371D01*
X00741801Y0056242D01*
X007406Y00561219D01*
X0073995Y00559649D01*
Y00557951D01*
X007406Y00556381D01*
X00741801Y0055518D01*
X00743371Y0055453D01*
X00745069D01*
X00746639Y0055518D01*
X0074784Y00556381D01*
X0074849Y00557951D01*
Y00559649D01*
X0074784Y00561219D01*
X00746639Y0056242D01*
X00745069Y0056307D01*
D02*
G37*
G36*
X0058413Y00564832D02*
X0058173D01*
X00579513Y00563914D01*
X00577816Y00562217D01*
X00576898Y0056D01*
Y005576D01*
X00577816Y00555383D01*
X00579513Y00553686D01*
X0058173Y00552768D01*
X0058413D01*
X00586347Y00553686D01*
X00588044Y00555383D01*
X00588962Y005576D01*
Y0056D01*
X00588044Y00562217D01*
X00586347Y00563914D01*
X0058413Y00564832D01*
D02*
G37*
G36*
X00703311Y00554942D02*
X00701309D01*
X0069946Y00554176D01*
X00698044Y0055276D01*
X00697278Y00550911D01*
Y00548909D01*
X00698044Y0054706D01*
X0069946Y00545644D01*
X00701309Y00544878D01*
X00703311D01*
X0070516Y00545644D01*
X00706576Y0054706D01*
X00707342Y00548909D01*
Y00550911D01*
X00706576Y0055276D01*
X0070516Y00554176D01*
X00703311Y00554942D01*
D02*
G37*
G36*
X00113074Y0055412D02*
X00110726D01*
X00108457Y00553512D01*
X00106423Y00552338D01*
X00104762Y00550677D01*
X00103588Y00548643D01*
X0010298Y00546374D01*
Y00544026D01*
X00103588Y00541757D01*
X00104762Y00539723D01*
X00106423Y00538062D01*
X00108457Y00536888D01*
X00110726Y0053628D01*
X00113074D01*
X00115343Y00536888D01*
X00117377Y00538062D01*
X00119038Y00539723D01*
X00120212Y00541757D01*
X0012082Y00544026D01*
Y00546374D01*
X00120212Y00548643D01*
X00119038Y00550677D01*
X00117377Y00552338D01*
X00115343Y00553512D01*
X00113074Y0055412D01*
D02*
G37*
G36*
X00087674D02*
X00085326D01*
X00083057Y00553512D01*
X00081023Y00552338D01*
X00079362Y00550677D01*
X00078188Y00548643D01*
X0007758Y00546374D01*
Y00544026D01*
X00078188Y00541757D01*
X00079362Y00539723D01*
X00081023Y00538062D01*
X00083057Y00536888D01*
X00085326Y0053628D01*
X00087674D01*
X00089943Y00536888D01*
X00091977Y00538062D01*
X00093638Y00539723D01*
X00094812Y00541757D01*
X0009542Y00544026D01*
Y00546374D01*
X00094812Y00548643D01*
X00093638Y00550677D01*
X00091977Y00552338D01*
X00089943Y00553512D01*
X00087674Y0055412D01*
D02*
G37*
G36*
X00062274D02*
X00059926D01*
X00057657Y00553512D01*
X00055623Y00552338D01*
X00053962Y00550677D01*
X00052788Y00548643D01*
X0005218Y00546374D01*
Y00544026D01*
X00052788Y00541757D01*
X00053962Y00539723D01*
X00055623Y00538062D01*
X00057657Y00536888D01*
X00059926Y0053628D01*
X00062274D01*
X00064543Y00536888D01*
X00066577Y00538062D01*
X00068238Y00539723D01*
X00069412Y00541757D01*
X0007002Y00544026D01*
Y00546374D01*
X00069412Y00548643D01*
X00068238Y00550677D01*
X00066577Y00552338D01*
X00064543Y00553512D01*
X00062274Y0055412D01*
D02*
G37*
G36*
X00036874D02*
X00034526D01*
X00032257Y00553512D01*
X00030223Y00552338D01*
X00028562Y00550677D01*
X00027388Y00548643D01*
X0002678Y00546374D01*
Y00544026D01*
X00027388Y00541757D01*
X00028562Y00539723D01*
X00030223Y00538062D01*
X00032257Y00536888D01*
X00034526Y0053628D01*
X00036874D01*
X00039143Y00536888D01*
X00041177Y00538062D01*
X00042838Y00539723D01*
X00044012Y00541757D01*
X0004462Y00544026D01*
Y00546374D01*
X00044012Y00548643D01*
X00042838Y00550677D01*
X00041177Y00552338D01*
X00039143Y00553512D01*
X00036874Y0055412D01*
D02*
G37*
G36*
X00684299Y0054383D02*
X00682601D01*
X00681031Y0054318D01*
X0067983Y00541979D01*
X0067918Y00540409D01*
Y00538711D01*
X0067983Y00537141D01*
X00681031Y0053594D01*
X00682601Y0053529D01*
X00684299D01*
X00685869Y0053594D01*
X0068707Y00537141D01*
X0068772Y00538711D01*
Y00540409D01*
X0068707Y00541979D01*
X00685869Y0054318D01*
X00684299Y0054383D01*
D02*
G37*
G36*
X0053587Y00545782D02*
X0053347D01*
X00531253Y00544864D01*
X00529556Y00543167D01*
X00528638Y0054095D01*
Y0053855D01*
X00529556Y00536333D01*
X00531253Y00534636D01*
X0053347Y00533718D01*
X0053587D01*
X00538087Y00534636D01*
X00539784Y00536333D01*
X00540702Y0053855D01*
Y0054095D01*
X00539784Y00543167D01*
X00538087Y00544864D01*
X0053587Y00545782D01*
D02*
G37*
G36*
X00563611Y00537162D02*
X00561609D01*
X0055976Y00536396D01*
X00558344Y0053498D01*
X00557578Y00533131D01*
Y00531129D01*
X00558344Y0052928D01*
X0055976Y00527864D01*
X00561609Y00527098D01*
X00563611D01*
X0056546Y00527864D01*
X00566876Y0052928D01*
X00567642Y00531129D01*
Y00533131D01*
X00566876Y0053498D01*
X0056546Y00536396D01*
X00563611Y00537162D01*
D02*
G37*
G36*
X00577429Y0053259D02*
X00575731D01*
X00574161Y0053194D01*
X0057296Y00530739D01*
X0057231Y00529169D01*
Y00527471D01*
X0057296Y00525901D01*
X00574161Y005247D01*
X00575731Y0052405D01*
X00577429D01*
X00578999Y005247D01*
X005802Y00525901D01*
X0058085Y00527471D01*
Y00529169D01*
X005802Y00530739D01*
X00578999Y0053194D01*
X00577429Y0053259D01*
D02*
G37*
G36*
X00113074Y0052872D02*
X00110726D01*
X00108457Y00528112D01*
X00106423Y00526938D01*
X00104762Y00525277D01*
X00103588Y00523243D01*
X0010298Y00520974D01*
Y00518626D01*
X00103588Y00516357D01*
X00104762Y00514323D01*
X00106423Y00512662D01*
X00108457Y00511488D01*
X00110726Y0051088D01*
X00113074D01*
X00115343Y00511488D01*
X00117377Y00512662D01*
X00119038Y00514323D01*
X00120212Y00516357D01*
X0012082Y00518626D01*
Y00520974D01*
X00120212Y00523243D01*
X00119038Y00525277D01*
X00117377Y00526938D01*
X00115343Y00528112D01*
X00113074Y0052872D01*
D02*
G37*
G36*
X00087674D02*
X00085326D01*
X00083057Y00528112D01*
X00081023Y00526938D01*
X00079362Y00525277D01*
X00078188Y00523243D01*
X0007758Y00520974D01*
Y00518626D01*
X00078188Y00516357D01*
X00079362Y00514323D01*
X00081023Y00512662D01*
X00083057Y00511488D01*
X00085326Y0051088D01*
X00087674D01*
X00089943Y00511488D01*
X00091977Y00512662D01*
X00093638Y00514323D01*
X00094812Y00516357D01*
X0009542Y00518626D01*
Y00520974D01*
X00094812Y00523243D01*
X00093638Y00525277D01*
X00091977Y00526938D01*
X00089943Y00528112D01*
X00087674Y0052872D01*
D02*
G37*
G36*
X00669021Y00520652D02*
X00667019D01*
X0066517Y00519886D01*
X00663754Y0051847D01*
X00662988Y00516621D01*
Y00514619D01*
X00663754Y0051277D01*
X0066517Y00511354D01*
X00667019Y00510588D01*
X00669021D01*
X0067087Y00511354D01*
X00672286Y0051277D01*
X00673052Y00514619D01*
Y00516621D01*
X00672286Y0051847D01*
X0067087Y00519886D01*
X00669021Y00520652D01*
D02*
G37*
G36*
X00866961Y00497867D02*
X00864562D01*
X00862345Y00496949D01*
X00860648Y00495252D01*
X0085973Y00493035D01*
Y00490635D01*
X00860648Y00488419D01*
X00862345Y00486722D01*
X00864562Y00485803D01*
X00866961D01*
X00869178Y00486722D01*
X00870875Y00488419D01*
X00871794Y00490635D01*
Y00493035D01*
X00870875Y00495252D01*
X00869178Y00496949D01*
X00866961Y00497867D01*
D02*
G37*
G36*
X00113074Y0050332D02*
X00110726D01*
X00108457Y00502712D01*
X00106423Y00501538D01*
X00104762Y00499877D01*
X00103588Y00497843D01*
X0010298Y00495574D01*
Y00493226D01*
X00103588Y00490957D01*
X00104762Y00488923D01*
X00106423Y00487262D01*
X00108457Y00486088D01*
X00110726Y0048548D01*
X00113074D01*
X00115343Y00486088D01*
X00117377Y00487262D01*
X00119038Y00488923D01*
X00120212Y00490957D01*
X0012082Y00493226D01*
Y00495574D01*
X00120212Y00497843D01*
X00119038Y00499877D01*
X00117377Y00501538D01*
X00115343Y00502712D01*
X00113074Y0050332D01*
D02*
G37*
G36*
X00087674D02*
X00085326D01*
X00083057Y00502712D01*
X00081023Y00501538D01*
X00079362Y00499877D01*
X00078188Y00497843D01*
X0007758Y00495574D01*
Y00493226D01*
X00078188Y00490957D01*
X00079362Y00488923D01*
X00081023Y00487262D01*
X00083057Y00486088D01*
X00085326Y0048548D01*
X00087674D01*
X00089943Y00486088D01*
X00091977Y00487262D01*
X00093638Y00488923D01*
X00094812Y00490957D01*
X0009542Y00493226D01*
Y00495574D01*
X00094812Y00497843D01*
X00093638Y00499877D01*
X00091977Y00501538D01*
X00089943Y00502712D01*
X00087674Y0050332D01*
D02*
G37*
G36*
X0088385Y00497522D02*
X0088145D01*
X00879233Y00496604D01*
X00877536Y00494907D01*
X00876618Y0049269D01*
Y0049029D01*
X00877536Y00488073D01*
X00879233Y00486376D01*
X0088145Y00485458D01*
X0088385D01*
X00886067Y00486376D01*
X00887764Y00488073D01*
X00888682Y0049029D01*
Y0049269D01*
X00887764Y00494907D01*
X00886067Y00496604D01*
X0088385Y00497522D01*
D02*
G37*
G36*
X00192771Y00499062D02*
X00190769D01*
X0018892Y00498296D01*
X00187504Y0049688D01*
X00186738Y00495031D01*
Y00493029D01*
X00187504Y0049118D01*
X0018892Y00489764D01*
X00189226Y00489637D01*
Y00488263D01*
X0018892Y00488136D01*
X00187504Y0048672D01*
X00186738Y00484871D01*
Y00482869D01*
X00187504Y0048102D01*
X0018892Y00479604D01*
X00190769Y00478838D01*
X00192771D01*
X0019462Y00479604D01*
X00196036Y0048102D01*
X00196802Y00482869D01*
Y00484871D01*
X00196036Y0048672D01*
X0019462Y00488136D01*
X00194314Y00488263D01*
Y00489637D01*
X0019462Y00489764D01*
X00196036Y0049118D01*
X00196802Y00493029D01*
Y00495031D01*
X00196036Y0049688D01*
X0019462Y00498296D01*
X00192771Y00499062D01*
D02*
G37*
G36*
X00181341D02*
X00179339D01*
X0017749Y00498296D01*
X00176074Y0049688D01*
X00175308Y00495031D01*
Y00493029D01*
X00176074Y0049118D01*
X0017749Y00489764D01*
X00177796Y00489637D01*
Y00488263D01*
X0017749Y00488136D01*
X00176074Y0048672D01*
X00175308Y00484871D01*
Y00482869D01*
X00176074Y0048102D01*
X0017749Y00479604D01*
X00179339Y00478838D01*
X00181341D01*
X0018319Y00479604D01*
X00184606Y0048102D01*
X00185372Y00482869D01*
Y00484871D01*
X00184606Y0048672D01*
X0018319Y00488136D01*
X00182884Y00488263D01*
Y00489637D01*
X0018319Y00489764D01*
X00184606Y0049118D01*
X00185372Y00493029D01*
Y00495031D01*
X00184606Y0049688D01*
X0018319Y00498296D01*
X00181341Y00499062D01*
D02*
G37*
G36*
X00795418Y00486025D02*
X00793018D01*
X00790801Y00485107D01*
X00789104Y0048341D01*
X00788186Y00481193D01*
Y00478793D01*
X00789104Y00476576D01*
X00790801Y0047488D01*
X00793018Y00473961D01*
X00795418D01*
X00797635Y0047488D01*
X00799332Y00476576D01*
X0080025Y00478793D01*
Y00481193D01*
X00799332Y0048341D01*
X00797635Y00485107D01*
X00795418Y00486025D01*
D02*
G37*
G36*
X00113074Y0047792D02*
X00110726D01*
X00108457Y00477312D01*
X00106423Y00476138D01*
X00104762Y00474477D01*
X00103588Y00472443D01*
X0010298Y00470174D01*
Y00467826D01*
X00103588Y00465557D01*
X00104762Y00463523D01*
X00106423Y00461862D01*
X00108457Y00460688D01*
X00110726Y0046008D01*
X00113074D01*
X00115343Y00460688D01*
X00117377Y00461862D01*
X00119038Y00463523D01*
X00120212Y00465557D01*
X0012082Y00467826D01*
Y00470174D01*
X00120212Y00472443D01*
X00119038Y00474477D01*
X00117377Y00476138D01*
X00115343Y00477312D01*
X00113074Y0047792D01*
D02*
G37*
G36*
X00087775Y00478682D02*
X00085225D01*
X00082763Y00478022D01*
X00080555Y00476748D01*
X00078752Y00474945D01*
X00077478Y00472737D01*
X00076818Y00470275D01*
Y00467725D01*
X00077478Y00465263D01*
X00078752Y00463055D01*
X00080555Y00461253D01*
X00082763Y00459978D01*
X00085225Y00459318D01*
X00087775D01*
X00090237Y00459978D01*
X00092445Y00461253D01*
X00094248Y00463055D01*
X00095522Y00465263D01*
X00096182Y00467725D01*
Y00470275D01*
X00095522Y00472737D01*
X00094248Y00474945D01*
X00092445Y00476748D01*
X00090237Y00478022D01*
X00087775Y00478682D01*
D02*
G37*
G36*
X00062375D02*
X00059825D01*
X00057363Y00478022D01*
X00055155Y00476748D01*
X00053352Y00474945D01*
X00052078Y00472737D01*
X00051418Y00470275D01*
Y00467725D01*
X00052078Y00465263D01*
X00053352Y00463055D01*
X00055155Y00461253D01*
X00057363Y00459978D01*
X00059825Y00459318D01*
X00062375D01*
X00064837Y00459978D01*
X00067045Y00461253D01*
X00068847Y00463055D01*
X00070122Y00465263D01*
X00070782Y00467725D01*
Y00470275D01*
X00070122Y00472737D01*
X00068847Y00474945D01*
X00067045Y00476748D01*
X00064837Y00478022D01*
X00062375Y00478682D01*
D02*
G37*
G36*
X00036975D02*
X00034425D01*
X00031963Y00478022D01*
X00029755Y00476748D01*
X00027952Y00474945D01*
X00026678Y00472737D01*
X00026018Y00470275D01*
Y00467725D01*
X00026678Y00465263D01*
X00027952Y00463055D01*
X00029755Y00461253D01*
X00031963Y00459978D01*
X00034425Y00459318D01*
X00036975D01*
X00039437Y00459978D01*
X00041645Y00461253D01*
X00043447Y00463055D01*
X00044722Y00465263D01*
X00045382Y00467725D01*
Y00470275D01*
X00044722Y00472737D01*
X00043447Y00474945D01*
X00041645Y00476748D01*
X00039437Y00478022D01*
X00036975Y00478682D01*
D02*
G37*
G36*
X00546759Y0046674D02*
X00545061D01*
X00543491Y0046609D01*
X0054229Y00464889D01*
X0054164Y00463319D01*
Y00461621D01*
X0054229Y00460051D01*
X00543491Y0045885D01*
X00545061Y004582D01*
X00546759D01*
X00548329Y0045885D01*
X0054953Y00460051D01*
X0055018Y00461621D01*
Y00463319D01*
X0054953Y00464889D01*
X00548329Y0046609D01*
X00546759Y0046674D01*
D02*
G37*
G36*
X00599019Y0046655D02*
X00597321D01*
X00595751Y004659D01*
X0059455Y00464699D01*
X005939Y00463129D01*
Y00461431D01*
X0059455Y00459861D01*
X00595751Y0045866D01*
X00597321Y0045801D01*
X00599019D01*
X00600589Y0045866D01*
X0060179Y00459861D01*
X0060244Y00461431D01*
Y00463129D01*
X0060179Y00464699D01*
X00600589Y004659D01*
X00599019Y0046655D01*
D02*
G37*
G36*
X00529169D02*
X00527471D01*
X00525901Y004659D01*
X005247Y00464699D01*
X0052405Y00463129D01*
Y00461431D01*
X005247Y00459861D01*
X00525901Y0045866D01*
X00527471Y0045801D01*
X00529169D01*
X00530739Y0045866D01*
X0053194Y00459861D01*
X0053259Y00461431D01*
Y00463129D01*
X0053194Y00464699D01*
X00530739Y004659D01*
X00529169Y0046655D01*
D02*
G37*
G36*
X00562341Y00467312D02*
X00560339D01*
X0055849Y00466546D01*
X00557074Y0046513D01*
X00556308Y00463281D01*
Y00461279D01*
X00557074Y0045943D01*
X0055849Y00458014D01*
X00560339Y00457248D01*
X00562341D01*
X0056419Y00458014D01*
X00565606Y0045943D01*
X00566372Y00461279D01*
Y00463281D01*
X00565606Y0046513D01*
X0056419Y00466546D01*
X00562341Y00467312D01*
D02*
G37*
G36*
X00512811D02*
X00510809D01*
X0050896Y00466546D01*
X00507544Y0046513D01*
X00506778Y00463281D01*
Y00461279D01*
X00507544Y0045943D01*
X0050896Y00458014D01*
X00510809Y00457248D01*
X00512811D01*
X0051466Y00458014D01*
X00516076Y0045943D01*
X00516842Y00461279D01*
Y00463281D01*
X00516076Y0046513D01*
X0051466Y00466546D01*
X00512811Y00467312D01*
D02*
G37*
G36*
X00583958Y00467608D02*
X00581559D01*
X00579342Y00466689D01*
X00577645Y00464992D01*
X00576726Y00462775D01*
Y00460376D01*
X00577645Y00458159D01*
X00579342Y00456462D01*
X00581559Y00455544D01*
X00583958D01*
X00586175Y00456462D01*
X00587872Y00458159D01*
X00588791Y00460376D01*
Y00462775D01*
X00587872Y00464992D01*
X00586175Y00466689D01*
X00583958Y00467608D01*
D02*
G37*
G36*
X00483449Y00462232D02*
X00481751D01*
X00480181Y00461582D01*
X0047898Y00460381D01*
X0047833Y00458811D01*
Y00457113D01*
X0047898Y00455543D01*
X00480181Y00454342D01*
X00481751Y00453692D01*
X00483449D01*
X00485019Y00454342D01*
X0048622Y00455543D01*
X0048687Y00457113D01*
Y00458811D01*
X0048622Y00460381D01*
X00485019Y00461582D01*
X00483449Y00462232D01*
D02*
G37*
G36*
X00474559Y0045639D02*
X00472861D01*
X00471291Y0045574D01*
X0047009Y00454539D01*
X0046944Y00452969D01*
Y00451271D01*
X0047009Y00449701D01*
X00471291Y004485D01*
X00472861Y0044785D01*
X00474559D01*
X00476129Y004485D01*
X0047733Y00449701D01*
X0047798Y00451271D01*
Y00452969D01*
X0047733Y00454539D01*
X00476129Y0045574D01*
X00474559Y0045639D01*
D02*
G37*
G36*
X00113074Y0045252D02*
X00110726D01*
X00108457Y00451912D01*
X00106423Y00450738D01*
X00104762Y00449077D01*
X00103588Y00447043D01*
X0010298Y00444774D01*
Y00442426D01*
X00103588Y00440157D01*
X00104762Y00438123D01*
X00106423Y00436462D01*
X00108457Y00435288D01*
X00110726Y0043468D01*
X00113074D01*
X00115343Y00435288D01*
X00117377Y00436462D01*
X00119038Y00438123D01*
X00120212Y00440157D01*
X0012082Y00442426D01*
Y00444774D01*
X00120212Y00447043D01*
X00119038Y00449077D01*
X00117377Y00450738D01*
X00115343Y00451912D01*
X00113074Y0045252D01*
D02*
G37*
G36*
X00087674D02*
X00085326D01*
X00083057Y00451912D01*
X00081023Y00450738D01*
X00079362Y00449077D01*
X00078188Y00447043D01*
X0007758Y00444774D01*
Y00442426D01*
X00078188Y00440157D01*
X00079362Y00438123D01*
X00081023Y00436462D01*
X00083057Y00435288D01*
X00085326Y0043468D01*
X00087674D01*
X00089943Y00435288D01*
X00091977Y00436462D01*
X00093638Y00438123D01*
X00094812Y00440157D01*
X0009542Y00442426D01*
Y00444774D01*
X00094812Y00447043D01*
X00093638Y00449077D01*
X00091977Y00450738D01*
X00089943Y00451912D01*
X00087674Y0045252D01*
D02*
G37*
G36*
X00062375Y00453282D02*
X00059825D01*
X00057363Y00452622D01*
X00055155Y00451348D01*
X00053352Y00449545D01*
X00052078Y00447337D01*
X00051418Y00444875D01*
Y00442325D01*
X00052078Y00439863D01*
X00053352Y00437655D01*
X00055155Y00435853D01*
X00057363Y00434578D01*
X00059825Y00433918D01*
X00062375D01*
X00064837Y00434578D01*
X00067045Y00435853D01*
X00068847Y00437655D01*
X00070122Y00439863D01*
X00070782Y00442325D01*
Y00444875D01*
X00070122Y00447337D01*
X00068847Y00449545D01*
X00067045Y00451348D01*
X00064837Y00452622D01*
X00062375Y00453282D01*
D02*
G37*
G36*
X00036975D02*
X00034425D01*
X00031963Y00452622D01*
X00029755Y00451348D01*
X00027952Y00449545D01*
X00026678Y00447337D01*
X00026018Y00444875D01*
Y00442325D01*
X00026678Y00439863D01*
X00027952Y00437655D01*
X00029755Y00435853D01*
X00031963Y00434578D01*
X00034425Y00433918D01*
X00036975D01*
X00039437Y00434578D01*
X00041645Y00435853D01*
X00043447Y00437655D01*
X00044722Y00439863D01*
X00045382Y00442325D01*
Y00444875D01*
X00044722Y00447337D01*
X00043447Y00449545D01*
X00041645Y00451348D01*
X00039437Y00452622D01*
X00036975Y00453282D01*
D02*
G37*
G36*
X0082797Y00441642D02*
X0082557D01*
X00823353Y00440724D01*
X00821656Y00439027D01*
X00820738Y0043681D01*
Y0043441D01*
X00821656Y00432193D01*
X00823353Y00430496D01*
X0082557Y00429578D01*
X0082797D01*
X00830187Y00430496D01*
X00831884Y00432193D01*
X00832802Y0043441D01*
Y0043681D01*
X00831884Y00439027D01*
X00830187Y00440724D01*
X0082797Y00441642D01*
D02*
G37*
G36*
X0081019D02*
X0080779D01*
X00805573Y00440724D01*
X00803876Y00439027D01*
X00802958Y0043681D01*
Y0043441D01*
X00803876Y00432193D01*
X00805573Y00430496D01*
X0080779Y00429578D01*
X0081019D01*
X00812407Y00430496D01*
X00814104Y00432193D01*
X00815022Y0043441D01*
Y0043681D01*
X00814104Y00439027D01*
X00812407Y00440724D01*
X0081019Y00441642D01*
D02*
G37*
G36*
X0082797Y00426402D02*
X0082557D01*
X00823353Y00425484D01*
X00821656Y00423787D01*
X00820738Y0042157D01*
Y0041917D01*
X00821656Y00416953D01*
X00823353Y00415256D01*
X0082557Y00414338D01*
X0082797D01*
X00830187Y00415256D01*
X00831884Y00416953D01*
X00832802Y0041917D01*
Y0042157D01*
X00831884Y00423787D01*
X00830187Y00425484D01*
X0082797Y00426402D01*
D02*
G37*
G36*
X0081019D02*
X0080779D01*
X00805573Y00425484D01*
X00803876Y00423787D01*
X00802958Y0042157D01*
Y0041917D01*
X00803876Y00416953D01*
X00805573Y00415256D01*
X0080779Y00414338D01*
X0081019D01*
X00812407Y00415256D01*
X00814104Y00416953D01*
X00815022Y0041917D01*
Y0042157D01*
X00814104Y00423787D01*
X00812407Y00425484D01*
X0081019Y00426402D01*
D02*
G37*
G36*
X00113074Y0042712D02*
X00110726D01*
X00108457Y00426512D01*
X00106423Y00425338D01*
X00104762Y00423677D01*
X00103588Y00421643D01*
X0010298Y00419374D01*
Y00417026D01*
X00103588Y00414757D01*
X00104762Y00412723D01*
X00106423Y00411062D01*
X00108457Y00409888D01*
X00110726Y0040928D01*
X00113074D01*
X00115343Y00409888D01*
X00117377Y00411062D01*
X00119038Y00412723D01*
X00120212Y00414757D01*
X0012082Y00417026D01*
Y00419374D01*
X00120212Y00421643D01*
X00119038Y00423677D01*
X00117377Y00425338D01*
X00115343Y00426512D01*
X00113074Y0042712D01*
D02*
G37*
G36*
X00087674D02*
X00085326D01*
X00083057Y00426512D01*
X00081023Y00425338D01*
X00079362Y00423677D01*
X00078188Y00421643D01*
X0007758Y00419374D01*
Y00417026D01*
X00078188Y00414757D01*
X00079362Y00412723D01*
X00081023Y00411062D01*
X00083057Y00409888D01*
X00085326Y0040928D01*
X00087674D01*
X00089943Y00409888D01*
X00091977Y00411062D01*
X00093638Y00412723D01*
X00094812Y00414757D01*
X0009542Y00417026D01*
Y00419374D01*
X00094812Y00421643D01*
X00093638Y00423677D01*
X00091977Y00425338D01*
X00089943Y00426512D01*
X00087674Y0042712D01*
D02*
G37*
G36*
X00062375Y00427882D02*
X00059825D01*
X00057363Y00427222D01*
X00055155Y00425947D01*
X00053352Y00424145D01*
X00052078Y00421937D01*
X00051418Y00419475D01*
Y00416925D01*
X00052078Y00414463D01*
X00053352Y00412255D01*
X00055155Y00410452D01*
X00057363Y00409178D01*
X00059825Y00408518D01*
X00062375D01*
X00064837Y00409178D01*
X00067045Y00410452D01*
X00068847Y00412255D01*
X00070122Y00414463D01*
X00070782Y00416925D01*
Y00419475D01*
X00070122Y00421937D01*
X00068847Y00424145D01*
X00067045Y00425947D01*
X00064837Y00427222D01*
X00062375Y00427882D01*
D02*
G37*
G36*
X00036975D02*
X00034425D01*
X00031963Y00427222D01*
X00029755Y00425947D01*
X00027952Y00424145D01*
X00026678Y00421937D01*
X00026018Y00419475D01*
Y00416925D01*
X00026678Y00414463D01*
X00027952Y00412255D01*
X00029755Y00410452D01*
X00031963Y00409178D01*
X00034425Y00408518D01*
X00036975D01*
X00039437Y00409178D01*
X00041645Y00410452D01*
X00043447Y00412255D01*
X00044722Y00414463D01*
X00045382Y00416925D01*
Y00419475D01*
X00044722Y00421937D01*
X00043447Y00424145D01*
X00041645Y00425947D01*
X00039437Y00427222D01*
X00036975Y00427882D01*
D02*
G37*
G36*
X00175461Y0042482D02*
X00173459D01*
X0017161Y00424053D01*
X00170194Y00422638D01*
X00169428Y00420788D01*
Y00418787D01*
X00170194Y00416937D01*
X0017161Y00415522D01*
X00171916Y00415395D01*
Y0041402D01*
X0017161Y00413894D01*
X00170194Y00412478D01*
X00169428Y00410629D01*
Y00408627D01*
X00170194Y00406777D01*
X0017161Y00405362D01*
X00173459Y00404596D01*
X00175461D01*
X0017731Y00405362D01*
X00178726Y00406777D01*
X00179492Y00408627D01*
Y00410629D01*
X00178726Y00412478D01*
X0017731Y00413894D01*
X00177004Y0041402D01*
Y00415395D01*
X0017731Y00415522D01*
X00178726Y00416937D01*
X00179492Y00418787D01*
Y00420788D01*
X00178726Y00422638D01*
X0017731Y00424053D01*
X00175461Y0042482D01*
D02*
G37*
G36*
X00164031D02*
X00162029D01*
X0016018Y00424053D01*
X00158764Y00422638D01*
X00157998Y00420788D01*
Y00418787D01*
X00158764Y00416937D01*
X0016018Y00415522D01*
X00160486Y00415395D01*
Y0041402D01*
X0016018Y00413894D01*
X00158764Y00412478D01*
X00157998Y00410629D01*
Y00408627D01*
X00158764Y00406777D01*
X0016018Y00405362D01*
X00162029Y00404596D01*
X00164031D01*
X0016588Y00405362D01*
X00167296Y00406777D01*
X00168062Y00408627D01*
Y00410629D01*
X00167296Y00412478D01*
X0016588Y00413894D01*
X00165574Y0041402D01*
Y00415395D01*
X0016588Y00415522D01*
X00167296Y00416937D01*
X00168062Y00418787D01*
Y00420788D01*
X00167296Y00422638D01*
X0016588Y00424053D01*
X00164031Y0042482D01*
D02*
G37*
G36*
X00113074Y0040172D02*
X00110726D01*
X00108457Y00401112D01*
X00106423Y00399938D01*
X00104762Y00398277D01*
X00103588Y00396243D01*
X0010298Y00393974D01*
Y00391626D01*
X00103588Y00389357D01*
X00104762Y00387323D01*
X00106423Y00385662D01*
X00108457Y00384488D01*
X00110726Y0038388D01*
X00113074D01*
X00115343Y00384488D01*
X00117377Y00385662D01*
X00119038Y00387323D01*
X00120212Y00389357D01*
X0012082Y00391626D01*
Y00393974D01*
X00120212Y00396243D01*
X00119038Y00398277D01*
X00117377Y00399938D01*
X00115343Y00401112D01*
X00113074Y0040172D01*
D02*
G37*
G36*
X00087674D02*
X00085326D01*
X00083057Y00401112D01*
X00081023Y00399938D01*
X00079362Y00398277D01*
X00078188Y00396243D01*
X0007758Y00393974D01*
Y00391626D01*
X00078188Y00389357D01*
X00079362Y00387323D01*
X00081023Y00385662D01*
X00083057Y00384488D01*
X00085326Y0038388D01*
X00087674D01*
X00089943Y00384488D01*
X00091977Y00385662D01*
X00093638Y00387323D01*
X00094812Y00389357D01*
X0009542Y00391626D01*
Y00393974D01*
X00094812Y00396243D01*
X00093638Y00398277D01*
X00091977Y00399938D01*
X00089943Y00401112D01*
X00087674Y0040172D01*
D02*
G37*
G36*
X00062375Y00402482D02*
X00059825D01*
X00057363Y00401822D01*
X00055155Y00400547D01*
X00053352Y00398745D01*
X00052078Y00396537D01*
X00051418Y00394075D01*
Y00391525D01*
X00052078Y00389063D01*
X00053352Y00386855D01*
X00055155Y00385052D01*
X00057363Y00383778D01*
X00059825Y00383118D01*
X00062375D01*
X00064837Y00383778D01*
X00067045Y00385052D01*
X00068847Y00386855D01*
X00070122Y00389063D01*
X00070782Y00391525D01*
Y00394075D01*
X00070122Y00396537D01*
X00068847Y00398745D01*
X00067045Y00400547D01*
X00064837Y00401822D01*
X00062375Y00402482D01*
D02*
G37*
G36*
X00036975D02*
X00034425D01*
X00031963Y00401822D01*
X00029755Y00400547D01*
X00027952Y00398745D01*
X00026678Y00396537D01*
X00026018Y00394075D01*
Y00391525D01*
X00026678Y00389063D01*
X00027952Y00386855D01*
X00029755Y00385052D01*
X00031963Y00383778D01*
X00034425Y00383118D01*
X00036975D01*
X00039437Y00383778D01*
X00041645Y00385052D01*
X00043447Y00386855D01*
X00044722Y00389063D01*
X00045382Y00391525D01*
Y00394075D01*
X00044722Y00396537D01*
X00043447Y00398745D01*
X00041645Y00400547D01*
X00039437Y00401822D01*
X00036975Y00402482D01*
D02*
G37*
G36*
X00113074Y0037632D02*
X00110726D01*
X00108457Y00375712D01*
X00106423Y00374538D01*
X00104762Y00372877D01*
X00103588Y00370843D01*
X0010298Y00368574D01*
Y00366226D01*
X00103588Y00363957D01*
X00104762Y00361923D01*
X00106423Y00360262D01*
X00108457Y00359088D01*
X00110726Y0035848D01*
X00113074D01*
X00115343Y00359088D01*
X00117377Y00360262D01*
X00119038Y00361923D01*
X00120212Y00363957D01*
X0012082Y00366226D01*
Y00368574D01*
X00120212Y00370843D01*
X00119038Y00372877D01*
X00117377Y00374538D01*
X00115343Y00375712D01*
X00113074Y0037632D01*
D02*
G37*
G36*
X00087674D02*
X00085326D01*
X00083057Y00375712D01*
X00081023Y00374538D01*
X00079362Y00372877D01*
X00078188Y00370843D01*
X0007758Y00368574D01*
Y00366226D01*
X00078188Y00363957D01*
X00079362Y00361923D01*
X00081023Y00360262D01*
X00083057Y00359088D01*
X00085326Y0035848D01*
X00087674D01*
X00089943Y00359088D01*
X00091977Y00360262D01*
X00093638Y00361923D01*
X00094812Y00363957D01*
X0009542Y00366226D01*
Y00368574D01*
X00094812Y00370843D01*
X00093638Y00372877D01*
X00091977Y00374538D01*
X00089943Y00375712D01*
X00087674Y0037632D01*
D02*
G37*
G36*
X0040506Y00370522D02*
X0040266D01*
X00400443Y00369604D01*
X00398746Y00367907D01*
X00397828Y0036569D01*
Y0036329D01*
X00398746Y00361073D01*
X00400443Y00359376D01*
X0040266Y00358458D01*
X0040506D01*
X00407277Y00359376D01*
X00408974Y00361073D01*
X00409892Y0036329D01*
Y0036569D01*
X00408974Y00367907D01*
X00407277Y00369604D01*
X0040506Y00370522D01*
D02*
G37*
G36*
X0031616D02*
X0031376D01*
X00311543Y00369604D01*
X00309846Y00367907D01*
X00308928Y0036569D01*
Y0036329D01*
X00309846Y00361073D01*
X00311543Y00359376D01*
X0031376Y00358458D01*
X0031616D01*
X00318377Y00359376D01*
X00320074Y00361073D01*
X00320992Y0036329D01*
Y0036569D01*
X00320074Y00367907D01*
X00318377Y00369604D01*
X0031616Y00370522D01*
D02*
G37*
G36*
X00062375Y00377082D02*
X00059825D01*
X00057363Y00376422D01*
X00055155Y00375148D01*
X00053352Y00373345D01*
X00052078Y00371137D01*
X00051418Y00368675D01*
Y00366125D01*
X00052078Y00363663D01*
X00053352Y00361455D01*
X00055155Y00359652D01*
X00057363Y00358378D01*
X00059825Y00357718D01*
X00062375D01*
X00064837Y00358378D01*
X00067045Y00359652D01*
X00068847Y00361455D01*
X00070122Y00363663D01*
X00070782Y00366125D01*
Y00368675D01*
X00070122Y00371137D01*
X00068847Y00373345D01*
X00067045Y00375148D01*
X00064837Y00376422D01*
X00062375Y00377082D01*
D02*
G37*
G36*
X00036975D02*
X00034425D01*
X00031963Y00376422D01*
X00029755Y00375148D01*
X00027952Y00373345D01*
X00026678Y00371137D01*
X00026018Y00368675D01*
Y00366125D01*
X00026678Y00363663D01*
X00027952Y00361455D01*
X00029755Y00359652D01*
X00031963Y00358378D01*
X00034425Y00357718D01*
X00036975D01*
X00039437Y00358378D01*
X00041645Y00359652D01*
X00043447Y00361455D01*
X00044722Y00363663D01*
X00045382Y00366125D01*
Y00368675D01*
X00044722Y00371137D01*
X00043447Y00373345D01*
X00041645Y00375148D01*
X00039437Y00376422D01*
X00036975Y00377082D01*
D02*
G37*
G36*
X00113175Y00351682D02*
X00110625D01*
X00108163Y00351022D01*
X00105955Y00349748D01*
X00104152Y00347945D01*
X00102878Y00345737D01*
X00102218Y00343275D01*
Y00340725D01*
X00102878Y00338263D01*
X00104152Y00336055D01*
X00105955Y00334253D01*
X00108163Y00332978D01*
X00110625Y00332318D01*
X00113175D01*
X00115637Y00332978D01*
X00117845Y00334253D01*
X00119648Y00336055D01*
X00120922Y00338263D01*
X00121582Y00340725D01*
Y00343275D01*
X00120922Y00345737D01*
X00119648Y00347945D01*
X00117845Y00349748D01*
X00115637Y00351022D01*
X00113175Y00351682D01*
D02*
G37*
G36*
X00087775D02*
X00085225D01*
X00082763Y00351022D01*
X00080555Y00349748D01*
X00078752Y00347945D01*
X00077478Y00345737D01*
X00076818Y00343275D01*
Y00340725D01*
X00077478Y00338263D01*
X00078752Y00336055D01*
X00080555Y00334253D01*
X00082763Y00332978D01*
X00085225Y00332318D01*
X00087775D01*
X00090237Y00332978D01*
X00092445Y00334253D01*
X00094248Y00336055D01*
X00095522Y00338263D01*
X00096182Y00340725D01*
Y00343275D01*
X00095522Y00345737D01*
X00094248Y00347945D01*
X00092445Y00349748D01*
X00090237Y00351022D01*
X00087775Y00351682D01*
D02*
G37*
G36*
X00062375D02*
X00059825D01*
X00057363Y00351022D01*
X00055155Y00349748D01*
X00053352Y00347945D01*
X00052078Y00345737D01*
X00051418Y00343275D01*
Y00340725D01*
X00052078Y00338263D01*
X00053352Y00336055D01*
X00055155Y00334253D01*
X00057363Y00332978D01*
X00059825Y00332318D01*
X00062375D01*
X00064837Y00332978D01*
X00067045Y00334253D01*
X00068847Y00336055D01*
X00070122Y00338263D01*
X00070782Y00340725D01*
Y00343275D01*
X00070122Y00345737D01*
X00068847Y00347945D01*
X00067045Y00349748D01*
X00064837Y00351022D01*
X00062375Y00351682D01*
D02*
G37*
G36*
X00036975D02*
X00034425D01*
X00031963Y00351022D01*
X00029755Y00349748D01*
X00027952Y00347945D01*
X00026678Y00345737D01*
X00026018Y00343275D01*
Y00340725D01*
X00026678Y00338263D01*
X00027952Y00336055D01*
X00029755Y00334253D01*
X00031963Y00332978D01*
X00034425Y00332318D01*
X00036975D01*
X00039437Y00332978D01*
X00041645Y00334253D01*
X00043447Y00336055D01*
X00044722Y00338263D01*
X00045382Y00340725D01*
Y00343275D01*
X00044722Y00345737D01*
X00043447Y00347945D01*
X00041645Y00349748D01*
X00039437Y00351022D01*
X00036975Y00351682D01*
D02*
G37*
G36*
X0084194Y00329882D02*
X0083954D01*
X00837323Y00328964D01*
X00835626Y00327267D01*
X00834708Y0032505D01*
Y0032265D01*
X00835626Y00320433D01*
X00837323Y00318736D01*
X0083954Y00317818D01*
X0084194D01*
X00844157Y00318736D01*
X00845854Y00320433D01*
X00846772Y0032265D01*
Y0032505D01*
X00845854Y00327267D01*
X00844157Y00328964D01*
X0084194Y00329882D01*
D02*
G37*
G36*
X00489799Y0032431D02*
X00488101D01*
X00486531Y0032366D01*
X0048533Y00322459D01*
X0048468Y00320889D01*
Y00319191D01*
X0048533Y00317621D01*
X00486531Y0031642D01*
X00488101Y0031577D01*
X00489799D01*
X00491369Y0031642D01*
X0049257Y00317621D01*
X0049322Y00319191D01*
Y00320889D01*
X0049257Y00322459D01*
X00491369Y0032366D01*
X00489799Y0032431D01*
D02*
G37*
G36*
X00113074Y0032552D02*
X00110726D01*
X00108457Y00324912D01*
X00106423Y00323738D01*
X00104762Y00322077D01*
X00103588Y00320043D01*
X0010298Y00317774D01*
Y00315426D01*
X00103588Y00313157D01*
X00104762Y00311123D01*
X00106423Y00309462D01*
X00108457Y00308288D01*
X00110726Y0030768D01*
X00113074D01*
X00115343Y00308288D01*
X00117377Y00309462D01*
X00119038Y00311123D01*
X00120212Y00313157D01*
X0012082Y00315426D01*
Y00317774D01*
X00120212Y00320043D01*
X00119038Y00322077D01*
X00117377Y00323738D01*
X00115343Y00324912D01*
X00113074Y0032552D01*
D02*
G37*
G36*
X00087674D02*
X00085326D01*
X00083057Y00324912D01*
X00081023Y00323738D01*
X00079362Y00322077D01*
X00078188Y00320043D01*
X0007758Y00317774D01*
Y00315426D01*
X00078188Y00313157D01*
X00079362Y00311123D01*
X00081023Y00309462D01*
X00083057Y00308288D01*
X00085326Y0030768D01*
X00087674D01*
X00089943Y00308288D01*
X00091977Y00309462D01*
X00093638Y00311123D01*
X00094812Y00313157D01*
X0009542Y00315426D01*
Y00317774D01*
X00094812Y00320043D01*
X00093638Y00322077D01*
X00091977Y00323738D01*
X00089943Y00324912D01*
X00087674Y0032552D01*
D02*
G37*
G36*
X00062274D02*
X00059926D01*
X00057657Y00324912D01*
X00055623Y00323738D01*
X00053962Y00322077D01*
X00052788Y00320043D01*
X0005218Y00317774D01*
Y00315426D01*
X00052788Y00313157D01*
X00053962Y00311123D01*
X00055623Y00309462D01*
X00057657Y00308288D01*
X00059926Y0030768D01*
X00062274D01*
X00064543Y00308288D01*
X00066577Y00309462D01*
X00068238Y00311123D01*
X00069412Y00313157D01*
X0007002Y00315426D01*
Y00317774D01*
X00069412Y00320043D01*
X00068238Y00322077D01*
X00066577Y00323738D01*
X00064543Y00324912D01*
X00062274Y0032552D01*
D02*
G37*
G36*
X00036874D02*
X00034526D01*
X00032257Y00324912D01*
X00030223Y00323738D01*
X00028562Y00322077D01*
X00027388Y00320043D01*
X0002678Y00317774D01*
Y00315426D01*
X00027388Y00313157D01*
X00028562Y00311123D01*
X00030223Y00309462D01*
X00032257Y00308288D01*
X00034526Y0030768D01*
X00036874D01*
X00039143Y00308288D01*
X00041177Y00309462D01*
X00042838Y00311123D01*
X00044012Y00313157D01*
X0004462Y00315426D01*
Y00317774D01*
X00044012Y00320043D01*
X00042838Y00322077D01*
X00041177Y00323738D01*
X00039143Y00324912D01*
X00036874Y0032552D01*
D02*
G37*
G36*
X0085083Y00309562D02*
X0084843D01*
X00846213Y00308644D01*
X00844516Y00306947D01*
X00843598Y0030473D01*
Y0030233D01*
X00844516Y00300113D01*
X00846213Y00298416D01*
X0084843Y00297498D01*
X0085083D01*
X00853047Y00298416D01*
X00854744Y00300113D01*
X00855662Y0030233D01*
Y0030473D01*
X00854744Y00306947D01*
X00853047Y00308644D01*
X0085083Y00309562D01*
D02*
G37*
G36*
X00113074Y0030012D02*
X00110726D01*
X00108457Y00299512D01*
X00106423Y00298338D01*
X00104762Y00296677D01*
X00103588Y00294643D01*
X0010298Y00292374D01*
Y00290026D01*
X00103588Y00287757D01*
X00104762Y00285723D01*
X00106423Y00284062D01*
X00108457Y00282888D01*
X00110726Y0028228D01*
X00113074D01*
X00115343Y00282888D01*
X00117377Y00284062D01*
X00119038Y00285723D01*
X00120212Y00287757D01*
X0012082Y00290026D01*
Y00292374D01*
X00120212Y00294643D01*
X00119038Y00296677D01*
X00117377Y00298338D01*
X00115343Y00299512D01*
X00113074Y0030012D01*
D02*
G37*
G36*
X00087674D02*
X00085326D01*
X00083057Y00299512D01*
X00081023Y00298338D01*
X00079362Y00296677D01*
X00078188Y00294643D01*
X0007758Y00292374D01*
Y00290026D01*
X00078188Y00287757D01*
X00079362Y00285723D01*
X00081023Y00284062D01*
X00083057Y00282888D01*
X00085326Y0028228D01*
X00087674D01*
X00089943Y00282888D01*
X00091977Y00284062D01*
X00093638Y00285723D01*
X00094812Y00287757D01*
X0009542Y00290026D01*
Y00292374D01*
X00094812Y00294643D01*
X00093638Y00296677D01*
X00091977Y00298338D01*
X00089943Y00299512D01*
X00087674Y0030012D01*
D02*
G37*
G36*
X00062274D02*
X00059926D01*
X00057657Y00299512D01*
X00055623Y00298338D01*
X00053962Y00296677D01*
X00052788Y00294643D01*
X0005218Y00292374D01*
Y00290026D01*
X00052788Y00287757D01*
X00053962Y00285723D01*
X00055623Y00284062D01*
X00057657Y00282888D01*
X00059926Y0028228D01*
X00062274D01*
X00064543Y00282888D01*
X00066577Y00284062D01*
X00068238Y00285723D01*
X00069412Y00287757D01*
X0007002Y00290026D01*
Y00292374D01*
X00069412Y00294643D01*
X00068238Y00296677D01*
X00066577Y00298338D01*
X00064543Y00299512D01*
X00062274Y0030012D01*
D02*
G37*
G36*
X00036874D02*
X00034526D01*
X00032257Y00299512D01*
X00030223Y00298338D01*
X00028562Y00296677D01*
X00027388Y00294643D01*
X0002678Y00292374D01*
Y00290026D01*
X00027388Y00287757D01*
X00028562Y00285723D01*
X00030223Y00284062D01*
X00032257Y00282888D01*
X00034526Y0028228D01*
X00036874D01*
X00039143Y00282888D01*
X00041177Y00284062D01*
X00042838Y00285723D01*
X00044012Y00287757D01*
X0004462Y00290026D01*
Y00292374D01*
X00044012Y00294643D01*
X00042838Y00296677D01*
X00041177Y00298338D01*
X00039143Y00299512D01*
X00036874Y0030012D01*
D02*
G37*
G36*
X00433Y00290512D02*
X004306D01*
X00428383Y00289594D01*
X00426686Y00287897D01*
X00425768Y0028568D01*
Y0028328D01*
X00426686Y00281063D01*
X00428383Y00279366D01*
X004306Y00278448D01*
X00433D01*
X00435217Y00279366D01*
X00436914Y00281063D01*
X00437832Y0028328D01*
Y0028568D01*
X00436914Y00287897D01*
X00435217Y00289594D01*
X00433Y00290512D01*
D02*
G37*
G36*
X0084829Y00275272D02*
X0084589D01*
X00843673Y00274354D01*
X00842098Y00272778D01*
X00841375Y00272712D01*
X00840652Y00272778D01*
X00839077Y00274354D01*
X0083686Y00275272D01*
X0083446D01*
X00832243Y00274354D01*
X00830546Y00272657D01*
X00829628Y0027044D01*
Y0026804D01*
X00830546Y00265823D01*
X00832243Y00264126D01*
X0083446Y00263208D01*
X0083686D01*
X00839077Y00264126D01*
X00840652Y00265702D01*
X00841375Y00265768D01*
X00842098Y00265702D01*
X00843673Y00264126D01*
X0084589Y00263208D01*
X0084829D01*
X00850507Y00264126D01*
X00852204Y00265823D01*
X00853122Y0026804D01*
Y0027044D01*
X00852204Y00272657D01*
X00850507Y00274354D01*
X0084829Y00275272D01*
D02*
G37*
G36*
X00397089Y0027859D02*
X00395391D01*
X00393821Y0027794D01*
X0039262Y00276739D01*
X0039197Y00275169D01*
Y00273471D01*
X0039262Y00271901D01*
X00393821Y002707D01*
X00395391Y0027005D01*
X00397089D01*
X00398659Y002707D01*
X0039986Y00271901D01*
X0040051Y00273471D01*
Y00275169D01*
X0039986Y00276739D01*
X00398659Y0027794D01*
X00397089Y0027859D01*
D02*
G37*
G36*
X00390739Y0027097D02*
X00389041D01*
X00387471Y0027032D01*
X0038627Y00269119D01*
X0038562Y00267549D01*
Y00265851D01*
X0038627Y00264281D01*
X00387471Y0026308D01*
X00389041Y0026243D01*
X00390739D01*
X00392309Y0026308D01*
X0039351Y00264281D01*
X0039416Y00265851D01*
Y00267549D01*
X0039351Y00269119D01*
X00392309Y0027032D01*
X00390739Y0027097D01*
D02*
G37*
G36*
X00357719Y0026843D02*
X00356021D01*
X00354451Y0026778D01*
X0035325Y00266579D01*
X003526Y00265009D01*
Y00263311D01*
X0035325Y00261741D01*
X00354451Y0026054D01*
X00356021Y0025989D01*
X00357719D01*
X00359289Y0026054D01*
X0036049Y00261741D01*
X0036114Y00263311D01*
Y00265009D01*
X0036049Y00266579D01*
X00359289Y0026778D01*
X00357719Y0026843D01*
D02*
G37*
G36*
X00113074Y0027472D02*
X00110726D01*
X00108457Y00274112D01*
X00106423Y00272938D01*
X00104762Y00271277D01*
X00103588Y00269243D01*
X0010298Y00266974D01*
Y00264626D01*
X00103588Y00262357D01*
X00104762Y00260323D01*
X00106423Y00258662D01*
X00108457Y00257488D01*
X00110726Y0025688D01*
X00113074D01*
X00115343Y00257488D01*
X00117377Y00258662D01*
X00119038Y00260323D01*
X00120212Y00262357D01*
X0012082Y00264626D01*
Y00266974D01*
X00120212Y00269243D01*
X00119038Y00271277D01*
X00117377Y00272938D01*
X00115343Y00274112D01*
X00113074Y0027472D01*
D02*
G37*
G36*
X00087674D02*
X00085326D01*
X00083057Y00274112D01*
X00081023Y00272938D01*
X00079362Y00271277D01*
X00078188Y00269243D01*
X0007758Y00266974D01*
Y00264626D01*
X00078188Y00262357D01*
X00079362Y00260323D01*
X00081023Y00258662D01*
X00083057Y00257488D01*
X00085326Y0025688D01*
X00087674D01*
X00089943Y00257488D01*
X00091977Y00258662D01*
X00093638Y00260323D01*
X00094812Y00262357D01*
X0009542Y00264626D01*
Y00266974D01*
X00094812Y00269243D01*
X00093638Y00271277D01*
X00091977Y00272938D01*
X00089943Y00274112D01*
X00087674Y0027472D01*
D02*
G37*
G36*
X00062274D02*
X00059926D01*
X00057657Y00274112D01*
X00055623Y00272938D01*
X00053962Y00271277D01*
X00052788Y00269243D01*
X0005218Y00266974D01*
Y00264626D01*
X00052788Y00262357D01*
X00053962Y00260323D01*
X00055623Y00258662D01*
X00057657Y00257488D01*
X00059926Y0025688D01*
X00062274D01*
X00064543Y00257488D01*
X00066577Y00258662D01*
X00068238Y00260323D01*
X00069412Y00262357D01*
X0007002Y00264626D01*
Y00266974D01*
X00069412Y00269243D01*
X00068238Y00271277D01*
X00066577Y00272938D01*
X00064543Y00274112D01*
X00062274Y0027472D01*
D02*
G37*
G36*
X00036874D02*
X00034526D01*
X00032257Y00274112D01*
X00030223Y00272938D01*
X00028562Y00271277D01*
X00027388Y00269243D01*
X0002678Y00266974D01*
Y00264626D01*
X00027388Y00262357D01*
X00028562Y00260323D01*
X00030223Y00258662D01*
X00032257Y00257488D01*
X00034526Y0025688D01*
X00036874D01*
X00039143Y00257488D01*
X00041177Y00258662D01*
X00042838Y00260323D01*
X00044012Y00262357D01*
X0004462Y00264626D01*
Y00266974D01*
X00044012Y00269243D01*
X00042838Y00271277D01*
X00041177Y00272938D01*
X00039143Y00274112D01*
X00036874Y0027472D01*
D02*
G37*
G36*
X0031235Y00261302D02*
X0030995D01*
X00307733Y00260384D01*
X00306036Y00258687D01*
X00305118Y0025647D01*
Y0025407D01*
X00306036Y00251853D01*
X00307733Y00250156D01*
X0030995Y00249238D01*
X0031235D01*
X00314567Y00250156D01*
X00316264Y00251853D01*
X00317182Y0025407D01*
Y0025647D01*
X00316264Y00258687D01*
X00314567Y00260384D01*
X0031235Y00261302D01*
D02*
G37*
G36*
X00529169Y0025446D02*
X00527471D01*
X00525901Y0025381D01*
X005247Y00252609D01*
X0052405Y00251039D01*
Y00249341D01*
X005247Y00247771D01*
X00525901Y0024657D01*
X00527471Y0024592D01*
X00529169D01*
X00530739Y0024657D01*
X0053194Y00247771D01*
X0053259Y00249341D01*
Y00251039D01*
X0053194Y00252609D01*
X00530739Y0025381D01*
X00529169Y0025446D01*
D02*
G37*
G36*
X00352057Y0024547D02*
X00349657D01*
X0034744Y00244552D01*
X00345743Y00242855D01*
X00344825Y00240638D01*
Y00238238D01*
X00345743Y00236021D01*
X0034744Y00234324D01*
X00349657Y00233406D01*
X00352057D01*
X00354274Y00234324D01*
X00355971Y00236021D01*
X00356889Y00238238D01*
Y00240638D01*
X00355971Y00242855D01*
X00354274Y00244552D01*
X00352057Y0024547D01*
D02*
G37*
G36*
X00113074Y0024932D02*
X00110726D01*
X00108457Y00248712D01*
X00106423Y00247538D01*
X00104762Y00245877D01*
X00103588Y00243843D01*
X0010298Y00241574D01*
Y00239226D01*
X00103588Y00236957D01*
X00104762Y00234923D01*
X00106423Y00233262D01*
X00108457Y00232088D01*
X00110726Y0023148D01*
X00113074D01*
X00115343Y00232088D01*
X00117377Y00233262D01*
X00119038Y00234923D01*
X00120212Y00236957D01*
X0012082Y00239226D01*
Y00241574D01*
X00120212Y00243843D01*
X00119038Y00245877D01*
X00117377Y00247538D01*
X00115343Y00248712D01*
X00113074Y0024932D01*
D02*
G37*
G36*
X00087674D02*
X00085326D01*
X00083057Y00248712D01*
X00081023Y00247538D01*
X00079362Y00245877D01*
X00078188Y00243843D01*
X0007758Y00241574D01*
Y00239226D01*
X00078188Y00236957D01*
X00079362Y00234923D01*
X00081023Y00233262D01*
X00083057Y00232088D01*
X00085326Y0023148D01*
X00087674D01*
X00089943Y00232088D01*
X00091977Y00233262D01*
X00093638Y00234923D01*
X00094812Y00236957D01*
X0009542Y00239226D01*
Y00241574D01*
X00094812Y00243843D01*
X00093638Y00245877D01*
X00091977Y00247538D01*
X00089943Y00248712D01*
X00087674Y0024932D01*
D02*
G37*
G36*
X00062274D02*
X00059926D01*
X00057657Y00248712D01*
X00055623Y00247538D01*
X00053962Y00245877D01*
X00052788Y00243843D01*
X0005218Y00241574D01*
Y00239226D01*
X00052788Y00236957D01*
X00053962Y00234923D01*
X00055623Y00233262D01*
X00057657Y00232088D01*
X00059926Y0023148D01*
X00062274D01*
X00064543Y00232088D01*
X00066577Y00233262D01*
X00068238Y00234923D01*
X00069412Y00236957D01*
X0007002Y00239226D01*
Y00241574D01*
X00069412Y00243843D01*
X00068238Y00245877D01*
X00066577Y00247538D01*
X00064543Y00248712D01*
X00062274Y0024932D01*
D02*
G37*
G36*
X00036874D02*
X00034526D01*
X00032257Y00248712D01*
X00030223Y00247538D01*
X00028562Y00245877D01*
X00027388Y00243843D01*
X0002678Y00241574D01*
Y00239226D01*
X00027388Y00236957D01*
X00028562Y00234923D01*
X00030223Y00233262D01*
X00032257Y00232088D01*
X00034526Y0023148D01*
X00036874D01*
X00039143Y00232088D01*
X00041177Y00233262D01*
X00042838Y00234923D01*
X00044012Y00236957D01*
X0004462Y00239226D01*
Y00241574D01*
X00044012Y00243843D01*
X00042838Y00245877D01*
X00041177Y00247538D01*
X00039143Y00248712D01*
X00036874Y0024932D01*
D02*
G37*
G36*
X00411211Y00224742D02*
X00409209D01*
X0040736Y00223976D01*
X00405944Y0022256D01*
X00405178Y00220711D01*
Y00218709D01*
X00405944Y0021686D01*
X0040736Y00215444D01*
X00409209Y00214678D01*
X00411211D01*
X0041306Y00215444D01*
X00414476Y0021686D01*
X00415242Y00218709D01*
Y00220711D01*
X00414476Y0022256D01*
X0041306Y00223976D01*
X00411211Y00224742D01*
D02*
G37*
G36*
X00446771Y00220932D02*
X00444769D01*
X0044292Y00220166D01*
X00441504Y0021875D01*
X00440738Y00216901D01*
Y00214899D01*
X00441504Y0021305D01*
X0044292Y00211634D01*
X00444769Y00210868D01*
X00446771D01*
X0044862Y00211634D01*
X00450036Y0021305D01*
X00450802Y00214899D01*
Y00216901D01*
X00450036Y0021875D01*
X0044862Y00220166D01*
X00446771Y00220932D01*
D02*
G37*
G36*
X00422641Y00219662D02*
X00420639D01*
X0041879Y00218896D01*
X00417374Y0021748D01*
X00416608Y00215631D01*
Y00213629D01*
X00417374Y0021178D01*
X0041879Y00210364D01*
X00420639Y00209598D01*
X00422641D01*
X0042449Y00210364D01*
X00425906Y0021178D01*
X00426672Y00213629D01*
Y00215631D01*
X00425906Y0021748D01*
X0042449Y00218896D01*
X00422641Y00219662D01*
D02*
G37*
G36*
X00113074Y0022392D02*
X00110726D01*
X00108457Y00223312D01*
X00106423Y00222138D01*
X00104762Y00220477D01*
X00103588Y00218443D01*
X0010298Y00216174D01*
Y00213826D01*
X00103588Y00211557D01*
X00104762Y00209523D01*
X00106423Y00207862D01*
X00108457Y00206688D01*
X00110726Y0020608D01*
X00113074D01*
X00115343Y00206688D01*
X00117377Y00207862D01*
X00119038Y00209523D01*
X00120212Y00211557D01*
X0012082Y00213826D01*
Y00216174D01*
X00120212Y00218443D01*
X00119038Y00220477D01*
X00117377Y00222138D01*
X00115343Y00223312D01*
X00113074Y0022392D01*
D02*
G37*
G36*
X00087674D02*
X00085326D01*
X00083057Y00223312D01*
X00081023Y00222138D01*
X00079362Y00220477D01*
X00078188Y00218443D01*
X0007758Y00216174D01*
Y00213826D01*
X00078188Y00211557D01*
X00079362Y00209523D01*
X00081023Y00207862D01*
X00083057Y00206688D01*
X00085326Y0020608D01*
X00087674D01*
X00089943Y00206688D01*
X00091977Y00207862D01*
X00093638Y00209523D01*
X00094812Y00211557D01*
X0009542Y00213826D01*
Y00216174D01*
X00094812Y00218443D01*
X00093638Y00220477D01*
X00091977Y00222138D01*
X00089943Y00223312D01*
X00087674Y0022392D01*
D02*
G37*
G36*
X00062274D02*
X00059926D01*
X00057657Y00223312D01*
X00055623Y00222138D01*
X00053962Y00220477D01*
X00052788Y00218443D01*
X0005218Y00216174D01*
Y00213826D01*
X00052788Y00211557D01*
X00053962Y00209523D01*
X00055623Y00207862D01*
X00057657Y00206688D01*
X00059926Y0020608D01*
X00062274D01*
X00064543Y00206688D01*
X00066577Y00207862D01*
X00068238Y00209523D01*
X00069412Y00211557D01*
X0007002Y00213826D01*
Y00216174D01*
X00069412Y00218443D01*
X00068238Y00220477D01*
X00066577Y00222138D01*
X00064543Y00223312D01*
X00062274Y0022392D01*
D02*
G37*
G36*
X00036874D02*
X00034526D01*
X00032257Y00223312D01*
X00030223Y00222138D01*
X00028562Y00220477D01*
X00027388Y00218443D01*
X0002678Y00216174D01*
Y00213826D01*
X00027388Y00211557D01*
X00028562Y00209523D01*
X00030223Y00207862D01*
X00032257Y00206688D01*
X00034526Y0020608D01*
X00036874D01*
X00039143Y00206688D01*
X00041177Y00207862D01*
X00042838Y00209523D01*
X00044012Y00211557D01*
X0004462Y00213826D01*
Y00216174D01*
X00044012Y00218443D01*
X00042838Y00220477D01*
X00041177Y00222138D01*
X00039143Y00223312D01*
X00036874Y0022392D01*
D02*
G37*
G36*
X00395971Y00214582D02*
X00393969D01*
X0039212Y00213816D01*
X00390704Y002124D01*
X00389938Y00210551D01*
Y00208549D01*
X00390704Y002067D01*
X0039212Y00205284D01*
X00393969Y00204518D01*
X00395971D01*
X0039782Y00205284D01*
X00399236Y002067D01*
X00400002Y00208549D01*
Y00210551D01*
X00399236Y002124D01*
X0039782Y00213816D01*
X00395971Y00214582D01*
D02*
G37*
G36*
X00380731Y00208232D02*
X00378729D01*
X0037688Y00207466D01*
X00375464Y0020605D01*
X00374698Y00204201D01*
Y00202199D01*
X00375464Y0020035D01*
X0037688Y00198934D01*
X00378729Y00198168D01*
X00380731D01*
X0038258Y00198934D01*
X00383996Y0020035D01*
X00384762Y00202199D01*
Y00204201D01*
X00383996Y0020605D01*
X0038258Y00207466D01*
X00380731Y00208232D01*
D02*
G37*
G36*
X00113074Y0019852D02*
X00110726D01*
X00108457Y00197912D01*
X00106423Y00196738D01*
X00104762Y00195077D01*
X00103588Y00193043D01*
X0010298Y00190774D01*
Y00188426D01*
X00103588Y00186157D01*
X00104762Y00184123D01*
X00106423Y00182462D01*
X00108457Y00181288D01*
X00110726Y0018068D01*
X00113074D01*
X00115343Y00181288D01*
X00117377Y00182462D01*
X00119038Y00184123D01*
X00120212Y00186157D01*
X0012082Y00188426D01*
Y00190774D01*
X00120212Y00193043D01*
X00119038Y00195077D01*
X00117377Y00196738D01*
X00115343Y00197912D01*
X00113074Y0019852D01*
D02*
G37*
G36*
X00087674D02*
X00085326D01*
X00083057Y00197912D01*
X00081023Y00196738D01*
X00079362Y00195077D01*
X00078188Y00193043D01*
X0007758Y00190774D01*
Y00188426D01*
X00078188Y00186157D01*
X00079362Y00184123D01*
X00081023Y00182462D01*
X00083057Y00181288D01*
X00085326Y0018068D01*
X00087674D01*
X00089943Y00181288D01*
X00091977Y00182462D01*
X00093638Y00184123D01*
X00094812Y00186157D01*
X0009542Y00188426D01*
Y00190774D01*
X00094812Y00193043D01*
X00093638Y00195077D01*
X00091977Y00196738D01*
X00089943Y00197912D01*
X00087674Y0019852D01*
D02*
G37*
G36*
X00062274D02*
X00059926D01*
X00057657Y00197912D01*
X00055623Y00196738D01*
X00053962Y00195077D01*
X00052788Y00193043D01*
X0005218Y00190774D01*
Y00188426D01*
X00052788Y00186157D01*
X00053962Y00184123D01*
X00055623Y00182462D01*
X00057657Y00181288D01*
X00059926Y0018068D01*
X00062274D01*
X00064543Y00181288D01*
X00066577Y00182462D01*
X00068238Y00184123D01*
X00069412Y00186157D01*
X0007002Y00188426D01*
Y00190774D01*
X00069412Y00193043D01*
X00068238Y00195077D01*
X00066577Y00196738D01*
X00064543Y00197912D01*
X00062274Y0019852D01*
D02*
G37*
G36*
X00036874D02*
X00034526D01*
X00032257Y00197912D01*
X00030223Y00196738D01*
X00028562Y00195077D01*
X00027388Y00193043D01*
X0002678Y00190774D01*
Y00188426D01*
X00027388Y00186157D01*
X00028562Y00184123D01*
X00030223Y00182462D01*
X00032257Y00181288D01*
X00034526Y0018068D01*
X00036874D01*
X00039143Y00181288D01*
X00041177Y00182462D01*
X00042838Y00184123D01*
X00044012Y00186157D01*
X0004462Y00188426D01*
Y00190774D01*
X00044012Y00193043D01*
X00042838Y00195077D01*
X00041177Y00196738D01*
X00039143Y00197912D01*
X00036874Y0019852D01*
D02*
G37*
G36*
X0084321Y00188912D02*
X0084081D01*
X00838593Y00187994D01*
X00836896Y00186297D01*
X00835978Y0018408D01*
Y0018168D01*
X00836896Y00179463D01*
X00838593Y00177766D01*
X0084081Y00176848D01*
X0084321D01*
X00845427Y00177766D01*
X00847124Y00179463D01*
X00848042Y0018168D01*
Y0018408D01*
X00847124Y00186297D01*
X00845427Y00187994D01*
X0084321Y00188912D01*
D02*
G37*
G36*
X00360822Y00167354D02*
X00359522D01*
X0035832Y00166856D01*
X003574Y00165936D01*
X00356902Y00164734D01*
Y00163434D01*
X003574Y00162232D01*
X0035832Y00161312D01*
X00359522Y00160814D01*
X00360822D01*
X00362024Y00161312D01*
X00362944Y00162232D01*
X00363442Y00163434D01*
Y00164734D01*
X00362944Y00165936D01*
X00362024Y00166856D01*
X00360822Y00167354D01*
D02*
G37*
G36*
X00718399Y0016683D02*
X00716701D01*
X00715131Y0016618D01*
X0071393Y00164979D01*
X0071328Y00163409D01*
Y00161711D01*
X0071393Y00160141D01*
X00715131Y0015894D01*
X00716701Y0015829D01*
X00718399D01*
X00719969Y0015894D01*
X0072117Y00160141D01*
X0072182Y00161711D01*
Y00163409D01*
X0072117Y00164979D01*
X00719969Y0016618D01*
X00718399Y0016683D01*
D02*
G37*
G36*
X00113074Y0017312D02*
X00110726D01*
X00108457Y00172512D01*
X00106423Y00171338D01*
X00104762Y00169677D01*
X00103588Y00167643D01*
X0010298Y00165374D01*
Y00163026D01*
X00103588Y00160757D01*
X00104762Y00158723D01*
X00106423Y00157062D01*
X00108457Y00155888D01*
X00110726Y0015528D01*
X00113074D01*
X00115343Y00155888D01*
X00117377Y00157062D01*
X00119038Y00158723D01*
X00120212Y00160757D01*
X0012082Y00163026D01*
Y00165374D01*
X00120212Y00167643D01*
X00119038Y00169677D01*
X00117377Y00171338D01*
X00115343Y00172512D01*
X00113074Y0017312D01*
D02*
G37*
G36*
X00087674D02*
X00085326D01*
X00083057Y00172512D01*
X00081023Y00171338D01*
X00079362Y00169677D01*
X00078188Y00167643D01*
X0007758Y00165374D01*
Y00163026D01*
X00078188Y00160757D01*
X00079362Y00158723D01*
X00081023Y00157062D01*
X00083057Y00155888D01*
X00085326Y0015528D01*
X00087674D01*
X00089943Y00155888D01*
X00091977Y00157062D01*
X00093638Y00158723D01*
X00094812Y00160757D01*
X0009542Y00163026D01*
Y00165374D01*
X00094812Y00167643D01*
X00093638Y00169677D01*
X00091977Y00171338D01*
X00089943Y00172512D01*
X00087674Y0017312D01*
D02*
G37*
G36*
X00062274D02*
X00059926D01*
X00057657Y00172512D01*
X00055623Y00171338D01*
X00053962Y00169677D01*
X00052788Y00167643D01*
X0005218Y00165374D01*
Y00163026D01*
X00052788Y00160757D01*
X00053962Y00158723D01*
X00055623Y00157062D01*
X00057657Y00155888D01*
X00059926Y0015528D01*
X00062274D01*
X00064543Y00155888D01*
X00066577Y00157062D01*
X00068238Y00158723D01*
X00069412Y00160757D01*
X0007002Y00163026D01*
Y00165374D01*
X00069412Y00167643D01*
X00068238Y00169677D01*
X00066577Y00171338D01*
X00064543Y00172512D01*
X00062274Y0017312D01*
D02*
G37*
G36*
X00036874D02*
X00034526D01*
X00032257Y00172512D01*
X00030223Y00171338D01*
X00028562Y00169677D01*
X00027388Y00167643D01*
X0002678Y00165374D01*
Y00163026D01*
X00027388Y00160757D01*
X00028562Y00158723D01*
X00030223Y00157062D01*
X00032257Y00155888D01*
X00034526Y0015528D01*
X00036874D01*
X00039143Y00155888D01*
X00041177Y00157062D01*
X00042838Y00158723D01*
X00044012Y00160757D01*
X0004462Y00163026D01*
Y00165374D01*
X00044012Y00167643D01*
X00042838Y00169677D01*
X00041177Y00171338D01*
X00039143Y00172512D01*
X00036874Y0017312D01*
D02*
G37*
G36*
X008521Y00158432D02*
X008497D01*
X00847483Y00157514D01*
X00845786Y00155817D01*
X00845237Y00154492D01*
X00843863D01*
X00843314Y00155817D01*
X00841617Y00157514D01*
X008394Y00158432D01*
X00837D01*
X00834783Y00157514D01*
X00833086Y00155817D01*
X00832168Y001536D01*
Y001512D01*
X00833086Y00148983D01*
X00834783Y00147286D01*
X00837Y00146368D01*
X008394D01*
X00839778Y00146525D01*
X00840498Y00145448D01*
X00839436Y00144387D01*
X00838518Y0014217D01*
Y0013977D01*
X00839436Y00137553D01*
X00841133Y00135856D01*
X0084335Y00134938D01*
X0084575D01*
X00847967Y00135856D01*
X00849664Y00137553D01*
X00850582Y0013977D01*
Y0014217D01*
X00849664Y00144387D01*
X00848603Y00145448D01*
X00849322Y00146525D01*
X008497Y00146368D01*
X008521D01*
X00854317Y00147286D01*
X00856014Y00148983D01*
X00856932Y001512D01*
Y001536D01*
X00856014Y00155817D01*
X00854317Y00157514D01*
X008521Y00158432D01*
D02*
G37*
G36*
X00550759Y0014016D02*
X00549061D01*
X00547491Y0013951D01*
X0054629Y00138309D01*
X0054564Y00136739D01*
Y00135041D01*
X0054629Y00133471D01*
X00547491Y0013227D01*
X00549061Y0013162D01*
X00550759D01*
X00552329Y0013227D01*
X0055353Y00133471D01*
X0055418Y00135041D01*
Y00136739D01*
X0055353Y00138309D01*
X00552329Y0013951D01*
X00550759Y0014016D01*
D02*
G37*
G36*
X0012082Y0014772D02*
X0010298D01*
Y0012988D01*
X0012082D01*
Y0014772D01*
D02*
G37*
G36*
X00087674D02*
X00085326D01*
X00083057Y00147112D01*
X00081023Y00145938D01*
X00079362Y00144277D01*
X00078188Y00142243D01*
X0007758Y00139974D01*
Y00137626D01*
X00078188Y00135357D01*
X00079362Y00133323D01*
X00081023Y00131662D01*
X00083057Y00130488D01*
X00085326Y0012988D01*
X00087674D01*
X00089943Y00130488D01*
X00091977Y00131662D01*
X00093638Y00133323D01*
X00094812Y00135357D01*
X0009542Y00137626D01*
Y00139974D01*
X00094812Y00142243D01*
X00093638Y00144277D01*
X00091977Y00145938D01*
X00089943Y00147112D01*
X00087674Y0014772D01*
D02*
G37*
G36*
X0007002D02*
X0005218D01*
Y0012988D01*
X0007002D01*
Y0014772D01*
D02*
G37*
G36*
X00036874D02*
X00034526D01*
X00032257Y00147112D01*
X00030223Y00145938D01*
X00028562Y00144277D01*
X00027388Y00142243D01*
X0002678Y00139974D01*
Y00137626D01*
X00027388Y00135357D01*
X00028562Y00133323D01*
X00030223Y00131662D01*
X00032257Y00130488D01*
X00034526Y0012988D01*
X00036874D01*
X00039143Y00130488D01*
X00041177Y00131662D01*
X00042838Y00133323D01*
X00044012Y00135357D01*
X0004462Y00137626D01*
Y00139974D01*
X00044012Y00142243D01*
X00042838Y00144277D01*
X00041177Y00145938D01*
X00039143Y00147112D01*
X00036874Y0014772D01*
D02*
G37*
G36*
X00646009Y0012492D02*
X00644311D01*
X00642741Y0012427D01*
X0064154Y00123069D01*
X0064089Y00121499D01*
Y00119801D01*
X0064154Y00118231D01*
X00642741Y0011703D01*
X00644311Y0011638D01*
X00646009D01*
X00647579Y0011703D01*
X0064878Y00118231D01*
X0064943Y00119801D01*
Y00121499D01*
X0064878Y00123069D01*
X00647579Y0012427D01*
X00646009Y0012492D01*
D02*
G37*
G36*
X00338669Y0012365D02*
X00336971D01*
X00335401Y00123D01*
X003342Y00121799D01*
X0033355Y00120229D01*
Y00118531D01*
X003342Y00116961D01*
X00335401Y0011576D01*
X00336971Y0011511D01*
X00338669D01*
X00340239Y0011576D01*
X0034144Y00116961D01*
X0034209Y00118531D01*
Y00120229D01*
X0034144Y00121799D01*
X00340239Y00123D01*
X00338669Y0012365D01*
D02*
G37*
G36*
X0065932Y0008989D02*
X0065132D01*
X00648967Y00089422D01*
X00646971Y00088089D01*
X00645638Y00086094D01*
X0064517Y0008374D01*
Y0007374D01*
X00645638Y00071386D01*
X00646971Y00069391D01*
X00648967Y00068058D01*
X0065132Y0006759D01*
X0065932D01*
X00661674Y00068058D01*
X00663669Y00069391D01*
X00665002Y00071386D01*
X0066547Y0007374D01*
Y0008374D01*
X00665002Y00086094D01*
X00663669Y00088089D01*
X00661674Y00089422D01*
X0065932Y0008989D01*
D02*
G37*
G36*
X0054121D02*
X0053321D01*
X00530857Y00089422D01*
X00528861Y00088089D01*
X00527528Y00086094D01*
X0052706Y0008374D01*
Y0007374D01*
X00527528Y00071386D01*
X00528861Y00069391D01*
X00530857Y00068058D01*
X0053321Y0006759D01*
X0054121D01*
X00543564Y00068058D01*
X00545559Y00069391D01*
X00546892Y00071386D01*
X0054736Y0007374D01*
Y0008374D01*
X00546892Y00086094D01*
X00545559Y00088089D01*
X00543564Y00089422D01*
X0054121Y0008989D01*
D02*
G37*
G36*
X0043199D02*
X0042399D01*
X00421637Y00089422D01*
X00419641Y00088089D01*
X00418308Y00086094D01*
X0041784Y0008374D01*
Y0007374D01*
X00418308Y00071386D01*
X00419641Y00069391D01*
X00421637Y00068058D01*
X0042399Y0006759D01*
X0043199D01*
X00434344Y00068058D01*
X00436339Y00069391D01*
X00437672Y00071386D01*
X0043814Y0007374D01*
Y0008374D01*
X00437672Y00086094D01*
X00436339Y00088089D01*
X00434344Y00089422D01*
X0043199Y0008989D01*
D02*
G37*
G36*
X0031134D02*
X0030334D01*
X00300986Y00089422D01*
X00298991Y00088089D01*
X00297658Y00086094D01*
X0029719Y0008374D01*
Y0007374D01*
X00297658Y00071386D01*
X00298991Y00069391D01*
X00300986Y00068058D01*
X0030334Y0006759D01*
X0031134D01*
X00313694Y00068058D01*
X00315689Y00069391D01*
X00317022Y00071386D01*
X0031749Y0007374D01*
Y0008374D01*
X00317022Y00086094D01*
X00315689Y00088089D01*
X00313694Y00089422D01*
X0031134Y0008989D01*
D02*
G37*
G36*
X001691D02*
X001611D01*
X00158747Y00089422D01*
X00156751Y00088089D01*
X00155418Y00086094D01*
X0015495Y0008374D01*
Y0007374D01*
X00155418Y00071386D01*
X00156751Y00069391D01*
X00158747Y00068058D01*
X001611Y0006759D01*
X001691D01*
X00171454Y00068058D01*
X00173449Y00069391D01*
X00174782Y00071386D01*
X0017525Y0007374D01*
Y0008374D01*
X00174782Y00086094D01*
X00173449Y00088089D01*
X00171454Y00089422D01*
X001691Y0008989D01*
D02*
G37*
%LPD*%
G36*
X0034163Y0061722D02*
X0034163Y0058674D01*
X0034036Y0058547D01*
X0032893D01*
X0032512Y0058166D01*
Y0057531D01*
X0032258Y0057277D01*
X0031242D01*
X0030988Y0057531D01*
Y0059873D01*
X0031242Y0060127D01*
Y0061976D01*
X0033909D01*
X0034163Y0061722D01*
D02*
G37*
G36*
X00179179Y00615213D02*
X00179932Y0061446D01*
X0018034Y00613476D01*
Y00612943D01*
Y0054356D01*
X001651D01*
Y0058801D01*
X00151534D01*
X00151413Y0058806D01*
X00151321Y00588152D01*
X00151271Y00588273D01*
Y00588338D01*
X00150551D01*
X0014922Y0058889D01*
X00148201Y00589908D01*
X0014765Y00591239D01*
Y00591959D01*
Y00613273D01*
Y0061374D01*
X00148007Y00614603D01*
X00148667Y00615263D01*
X0014953Y0061562D01*
X00178196D01*
X00179179Y00615213D01*
D02*
G37*
D141*
X001651Y0060325D02*
X0031877D01*
D148*
X000611Y004944D02*
D03*
X000357D02*
D03*
X000611Y005198D02*
D03*
X000357D02*
D03*
Y007484D02*
D03*
X000611D02*
D03*
Y00469D02*
D03*
Y004436D02*
D03*
X000357Y00469D02*
D03*
Y004436D02*
D03*
X000865Y00469D02*
D03*
X001119Y006976D02*
D03*
Y006722D02*
D03*
Y005198D02*
D03*
X000865D02*
D03*
X001119Y005452D02*
D03*
X000865D02*
D03*
X001119Y007484D02*
D03*
X000865D02*
D03*
X001119Y00469D02*
D03*
Y004436D02*
D03*
X000865D02*
D03*
Y002912D02*
D03*
X001119Y003166D02*
D03*
Y002912D02*
D03*
Y002658D02*
D03*
Y002404D02*
D03*
X000865Y001896D02*
D03*
X001119Y003928D02*
D03*
Y004182D02*
D03*
X000865Y003166D02*
D03*
X001119Y003674D02*
D03*
X000865D02*
D03*
Y003928D02*
D03*
Y004182D02*
D03*
X001119Y004944D02*
D03*
X000865D02*
D03*
X001119Y005706D02*
D03*
X000865D02*
D03*
Y006214D02*
D03*
Y006468D02*
D03*
X001119Y00723D02*
D03*
X000865D02*
D03*
X001119Y007738D02*
D03*
X000865D02*
D03*
Y001388D02*
D03*
Y001642D02*
D03*
X001119Y001896D02*
D03*
Y00215D02*
D03*
X000865D02*
D03*
Y002658D02*
D03*
Y002404D02*
D03*
Y006722D02*
D03*
Y006976D02*
D03*
X001119Y006214D02*
D03*
Y006468D02*
D03*
Y001642D02*
D03*
Y00342D02*
D03*
X000865D02*
D03*
Y00596D02*
D03*
X001119D02*
D03*
X000357Y005452D02*
D03*
X000611D02*
D03*
X000357Y006722D02*
D03*
X000611Y006468D02*
D03*
Y006722D02*
D03*
Y006976D02*
D03*
Y006214D02*
D03*
X000357Y006976D02*
D03*
X000611Y001642D02*
D03*
X000357Y002912D02*
D03*
X000611Y003166D02*
D03*
Y002912D02*
D03*
Y002658D02*
D03*
Y002404D02*
D03*
X000357Y001896D02*
D03*
Y003166D02*
D03*
X000611Y005706D02*
D03*
X000357D02*
D03*
Y006214D02*
D03*
Y006468D02*
D03*
X000611Y00723D02*
D03*
X000357D02*
D03*
X000611Y007738D02*
D03*
X000357D02*
D03*
Y001388D02*
D03*
Y001642D02*
D03*
X000611Y001896D02*
D03*
Y00215D02*
D03*
X000357D02*
D03*
Y002658D02*
D03*
Y002404D02*
D03*
X000611Y00596D02*
D03*
X000357D02*
D03*
Y00342D02*
D03*
X000611D02*
D03*
X000357Y003674D02*
D03*
Y003928D02*
D03*
Y004182D02*
D03*
X000611Y003928D02*
D03*
Y004182D02*
D03*
Y003674D02*
D03*
D149*
X0068389Y0084709D02*
D03*
X0066389D02*
D03*
X0068262Y0082042D02*
D03*
X0066262D02*
D03*
X0064262D02*
D03*
X0070389Y0084709D02*
D03*
D150*
X0045339Y0007874D02*
D03*
X0068072D02*
D03*
X0056261D02*
D03*
X0033274D02*
D03*
X001905D02*
D03*
D151*
X001651D02*
D03*
X0030734D02*
D03*
X0053721D02*
D03*
X0065532D02*
D03*
X0042799D02*
D03*
D152*
X0070262Y0082042D02*
D03*
X0064389Y0084709D02*
D03*
D153*
X001119Y001388D02*
D03*
X000611D02*
D03*
D154*
X0014605Y0050165D02*
D03*
X0020447Y0029972D02*
D03*
X0019685Y0010033D02*
D03*
X00217483Y00082847D02*
D03*
Y00073957D02*
D03*
X00206053Y00082847D02*
D03*
Y00073957D02*
D03*
X00481643Y00082847D02*
D03*
Y00073957D02*
D03*
X00470213Y00082847D02*
D03*
Y00073957D02*
D03*
X00358453Y00082847D02*
D03*
Y00073957D02*
D03*
X00347023Y00082847D02*
D03*
Y00073957D02*
D03*
X00589593Y00084117D02*
D03*
Y00075227D02*
D03*
X00578163Y00084117D02*
D03*
Y00075227D02*
D03*
X00705163Y00082847D02*
D03*
Y00073957D02*
D03*
X00693733Y00082847D02*
D03*
Y00073957D02*
D03*
X00797943Y00189547D02*
D03*
X00786513D02*
D03*
X00772222Y00344468D02*
D03*
X00783652D02*
D03*
X00772222Y00330498D02*
D03*
X00783652D02*
D03*
X00600712Y00367373D02*
D03*
X00589282D02*
D03*
X00600712Y00381343D02*
D03*
X00589282D02*
D03*
X00600712Y00395313D02*
D03*
X00589282D02*
D03*
X0059436Y0023241D02*
D03*
Y0022098D02*
D03*
X0058039Y0023241D02*
D03*
Y0022098D02*
D03*
X0056642Y0023241D02*
D03*
Y0022098D02*
D03*
Y0040005D02*
D03*
X0011938Y0005334D02*
D03*
X0019685Y0010922D02*
D03*
X0019812Y0012954D02*
D03*
Y0012065D02*
D03*
X0020955Y0027051D02*
D03*
X0020447Y0029083D02*
D03*
X0020955Y002794D02*
D03*
X0020066Y0034417D02*
D03*
X00212535Y003446D02*
D03*
X0022352Y0048006D02*
D03*
X0022987Y0020193D02*
D03*
X0024003D02*
D03*
X0025019D02*
D03*
X0022987Y0021336D02*
D03*
X003048Y0020828D02*
D03*
X0024003Y0021336D02*
D03*
X0025019D02*
D03*
X0031369Y0021463D02*
D03*
Y0022733D02*
D03*
X0031623Y002032D02*
D03*
X0032004Y0027051D02*
D03*
X00224924Y00322285D02*
D03*
Y00331175D02*
D03*
X0025273Y0043307D02*
D03*
X0024003D02*
D03*
X0025273Y0044196D02*
D03*
X0023495Y0048006D02*
D03*
X0024003Y0044196D02*
D03*
X0024638Y0048006D02*
D03*
X0033147Y0045339D02*
D03*
X0032004D02*
D03*
X0033147Y0046228D02*
D03*
X0032004Y0047244D02*
D03*
Y0046228D02*
D03*
X0033147Y0047244D02*
D03*
X0038354Y0014478D02*
D03*
X0044069Y0010922D02*
D03*
X0043053Y0012065D02*
D03*
Y0010922D02*
D03*
X0044069Y0012065D02*
D03*
X0047879Y0011684D02*
D03*
Y00127D02*
D03*
Y0010668D02*
D03*
X0050165Y0017145D02*
D03*
Y0018161D02*
D03*
X0057023Y0010668D02*
D03*
X0037338Y0022606D02*
D03*
X0038989Y0024003D02*
D03*
Y0025654D02*
D03*
X0037211Y0028448D02*
D03*
X0036322Y002921D02*
D03*
Y0030099D02*
D03*
Y0028448D02*
D03*
X0037211Y0030099D02*
D03*
Y002921D02*
D03*
X00381Y0028448D02*
D03*
Y0030099D02*
D03*
Y002921D02*
D03*
X0050165Y0019304D02*
D03*
X0049022Y0020193D02*
D03*
X0054991Y002032D02*
D03*
X0056515Y0020828D02*
D03*
X0044831Y002286D02*
D03*
X0048387Y00254D02*
D03*
X00461044D02*
D03*
X0047244D02*
D03*
X0044831Y0023876D02*
D03*
X00461044Y0026797D02*
D03*
X0048387D02*
D03*
X0046228Y0049149D02*
D03*
X0047244Y0026797D02*
D03*
X00493996D02*
D03*
X0049911Y0021209D02*
D03*
X00493996Y00254D02*
D03*
X0050165Y0031623D02*
D03*
X0050927D02*
D03*
X0051689D02*
D03*
X0013716Y0050165D02*
D03*
X0015621Y0050419D02*
D03*
X001651D02*
D03*
X0024384Y0074803D02*
D03*
X0023622D02*
D03*
X0039243Y0060833D02*
D03*
Y0063754D02*
D03*
Y006223D02*
D03*
Y005588D02*
D03*
Y005715D02*
D03*
X0041275Y005588D02*
D03*
X0039243Y0059055D02*
D03*
X0041402Y0063754D02*
D03*
X0036703Y0064008D02*
D03*
X0042926Y005588D02*
D03*
X0046228Y0050419D02*
D03*
X0044704Y005588D02*
D03*
Y005715D02*
D03*
X0050165Y0054864D02*
D03*
X0056769D02*
D03*
X0044323Y0067437D02*
D03*
X0044704Y0058801D02*
D03*
X00506835Y00818114D02*
D03*
X0050673Y0082931D02*
D03*
X0057277Y0079629D02*
D03*
X00517701Y0081105D02*
D03*
X0059796Y00128929D02*
D03*
X0059309Y0014732D02*
D03*
X0059817Y0013843D02*
D03*
X00650073Y00152614D02*
D03*
X00664043D02*
D03*
X0066548Y0011938D02*
D03*
X0071755Y0014732D02*
D03*
X0080518Y0013843D02*
D03*
Y0014732D02*
D03*
X0081661Y0013843D02*
D03*
X0080772Y0016129D02*
D03*
X0081661Y0014732D02*
D03*
X0059817Y0020828D02*
D03*
X0061214Y0020447D02*
D03*
X0058801Y0020828D02*
D03*
X0057531D02*
D03*
X0058293Y0034036D02*
D03*
X00650073Y0016401D02*
D03*
Y0017544D02*
D03*
X00664043Y0016401D02*
D03*
Y00185566D02*
D03*
Y0017544D02*
D03*
X005842Y0031623D02*
D03*
Y0032639D02*
D03*
X00650073Y00185566D02*
D03*
X0056642Y0036068D02*
D03*
Y0036957D02*
D03*
Y0041021D02*
D03*
Y0039116D02*
D03*
X0058293Y0035052D02*
D03*
X0056642Y00381D02*
D03*
X0070358Y0049022D02*
D03*
X0060833D02*
D03*
X008001Y0024765D02*
D03*
X0080391Y0026035D02*
D03*
Y0027178D02*
D03*
Y002921D02*
D03*
Y0028321D02*
D03*
X0080772Y0017272D02*
D03*
X0081026Y0023241D02*
D03*
X0081153Y0019812D02*
D03*
X0081026Y0022352D02*
D03*
X0081153Y0020828D02*
D03*
X0080899Y0033274D02*
D03*
Y0034163D02*
D03*
X008128Y002667D02*
D03*
Y0032131D02*
D03*
X0075946Y0047244D02*
D03*
X0071882Y0049022D02*
D03*
X0075057D02*
D03*
X0073533D02*
D03*
X0079629Y0037592D02*
D03*
X0080772Y0036449D02*
D03*
X0079629D02*
D03*
X00807623Y00376099D02*
D03*
X0076454Y0049022D02*
D03*
X0080391Y0040005D02*
D03*
Y0038989D02*
D03*
X0082169Y0007874D02*
D03*
Y0005969D02*
D03*
X0084455Y002159D02*
D03*
X0082169Y002667D02*
D03*
Y0032131D02*
D03*
X0084455Y0035687D02*
D03*
X0085217Y004699D02*
D03*
X0063246Y0051689D02*
D03*
X0063627Y0050165D02*
D03*
X0065659Y0049911D02*
D03*
X0065024Y0051689D02*
D03*
X0066802Y0053975D02*
D03*
X0061468Y0064897D02*
D03*
X005842Y0068834D02*
D03*
X0060071D02*
D03*
X0070358Y0050419D02*
D03*
Y005207D02*
D03*
X0076454Y0050673D02*
D03*
Y0051943D02*
D03*
X0070358Y0053594D02*
D03*
X0071755Y0054991D02*
D03*
X0059944Y0080518D02*
D03*
X0060598Y0083166D02*
D03*
X0064389Y0077216D02*
D03*
X0066421Y0077724D02*
D03*
X0068453Y0077216D02*
D03*
X00703014Y00778471D02*
D03*
X0077597Y0078359D02*
D03*
X0079883Y00508D02*
D03*
Y0049784D02*
D03*
X0089281Y0051943D02*
D03*
X0086741Y0069977D02*
D03*
X0088265Y0052832D02*
D03*
X0086614Y0073406D02*
D03*
X0046101Y0081661D02*
D03*
X0040386Y0082169D02*
D03*
X004699Y0074549D02*
D03*
X00345561Y00746571D02*
D03*
Y00736411D02*
D03*
X0034544Y0072517D02*
D03*
X00353567Y00761257D02*
D03*
X0036322Y0082169D02*
D03*
X0035052Y0078486D02*
D03*
Y0079248D02*
D03*
X0035179Y0077089D02*
D03*
X0035687Y0077724D02*
D03*
X0038227Y0073025D02*
D03*
Y0074676D02*
D03*
X0064262Y0071501D02*
D03*
X00866736Y00682821D02*
D03*
X0086703Y0066421D02*
D03*
X0060706Y0075819D02*
D03*
X0056769Y0082677D02*
D03*
X0060706Y0077343D02*
D03*
X0055753Y0079248D02*
D03*
X0060706Y0074295D02*
D03*
X0056261Y0072263D02*
D03*
X0086741Y0063119D02*
D03*
Y0059817D02*
D03*
X0070231Y0054991D02*
D03*
X0066802Y0051562D02*
D03*
X0056261Y0053213D02*
D03*
X0056134Y0046228D02*
D03*
X0054356Y0072263D02*
D03*
X0018542Y0078613D02*
D03*
X0051181Y0046228D02*
D03*
X0017446Y00409628D02*
D03*
Y00419788D02*
D03*
X0016303Y00409628D02*
D03*
Y00419788D02*
D03*
X0060579Y0084709D02*
D03*
X0029845Y0077851D02*
D03*
X0064262Y0070231D02*
D03*
X0042164Y0021463D02*
D03*
X0019177Y0048387D02*
D03*
X0018034D02*
D03*
X0019177Y0049403D02*
D03*
X0018034D02*
D03*
X0039497Y0020955D02*
D03*
X0044577Y002159D02*
D03*
X0037973Y002032D02*
D03*
X0041021Y0021971D02*
D03*
X004826Y00457962D02*
D03*
X0063754Y0067437D02*
D03*
X0064389Y0066294D02*
D03*
X0047371Y0045212D02*
D03*
X0033782Y0011938D02*
D03*
X0054991Y0013589D02*
D03*
X0071755Y0016256D02*
D03*
X0064516Y0012065D02*
D03*
X0038989Y002667D02*
D03*
X0035687Y0026416D02*
D03*
X0039624Y0027432D02*
D03*
X0014605Y0058039D02*
D03*
X0084074Y0058801D02*
D03*
X0082677Y0062738D02*
D03*
Y0064643D02*
D03*
X00826461Y00662631D02*
D03*
X0075438Y005588D02*
D03*
X0074422D02*
D03*
X0053213Y0078359D02*
D03*
X00542667Y00810563D02*
D03*
X00633619Y0059051D02*
D03*
X0054229Y0062357D02*
D03*
Y0059817D02*
D03*
X0057912Y0062357D02*
D03*
Y0059817D02*
D03*
X00644116Y00654276D02*
D03*
X0029718Y007493D02*
D03*
Y0076327D02*
D03*
X0080391Y0074422D02*
D03*
X0076454Y0080264D02*
D03*
X0059817Y0046228D02*
D03*
X0054991Y0074549D02*
D03*
X0068345Y0053956D02*
D03*
X0052832Y0046228D02*
D03*
X0054591Y0046247D02*
D03*
X0048895Y0032004D02*
D03*
X0032258Y0068707D02*
D03*
X0017399Y0073152D02*
D03*
X0052832Y0025019D02*
D03*
X0057658Y0052832D02*
D03*
X0032258Y0067437D02*
D03*
X0022225Y0080645D02*
D03*
X008255Y0071628D02*
D03*
X0082804Y0070739D02*
D03*
D155*
X00286418Y00615995D02*
D03*
X00052431Y00010171D02*
D03*
X00043431D02*
D03*
X00079431D02*
D03*
X00061431D02*
D03*
X00070431D02*
D03*
X00012229Y00022764D02*
D03*
X0001017Y00031525D02*
D03*
X00034431Y00010171D02*
D03*
X00017654Y00015583D02*
D03*
X00025484Y00011144D02*
D03*
X00142431Y00010171D02*
D03*
X00133431D02*
D03*
X00169431D02*
D03*
X00151431D02*
D03*
X00160431D02*
D03*
X00097431D02*
D03*
X00088431D02*
D03*
X00124431D02*
D03*
X00106431D02*
D03*
X00115431D02*
D03*
X00178431D02*
D03*
X0019643D02*
D03*
X0018743D02*
D03*
X00201502Y00017606D02*
D03*
X00208221Y00023593D02*
D03*
X00216873Y00026071D02*
D03*
X00270873Y0002617D02*
D03*
X00252873D02*
D03*
X00261873D02*
D03*
X00234873D02*
D03*
X00225873D02*
D03*
X00243873D02*
D03*
X00324873D02*
D03*
X00315872D02*
D03*
X00351872D02*
D03*
X00333872D02*
D03*
X00342872D02*
D03*
X00279873D02*
D03*
X00306873D02*
D03*
X00288873D02*
D03*
X00297873D02*
D03*
X0001017Y00058525D02*
D03*
Y00067525D02*
D03*
Y00040525D02*
D03*
Y00049525D02*
D03*
Y00085525D02*
D03*
Y00076525D02*
D03*
Y00094525D02*
D03*
X0023495Y0049276D02*
D03*
X00414872Y0002617D02*
D03*
X00405872D02*
D03*
X00432872D02*
D03*
X00423872D02*
D03*
X00441872D02*
D03*
X00360872D02*
D03*
X00378872D02*
D03*
X00369872D02*
D03*
X0036068Y0014224D02*
D03*
X00396872Y0002617D02*
D03*
X00387872D02*
D03*
X00450872D02*
D03*
X00477872D02*
D03*
X00468872D02*
D03*
X00504872D02*
D03*
X00486872D02*
D03*
X00495872D02*
D03*
X00459872D02*
D03*
X00513872Y00026171D02*
D03*
X00522872Y00026171D02*
D03*
X0049149Y0013843D02*
D03*
X00531872Y00026171D02*
D03*
X00540872Y00026171D02*
D03*
X00549872Y00026171D02*
D03*
X00558872Y00026171D02*
D03*
X00567872Y00026171D02*
D03*
X0039878Y0019431D02*
D03*
X0042164Y0018669D02*
D03*
X0039878D02*
D03*
X004699D02*
D03*
X00446006Y00186693D02*
D03*
X004699Y0019431D02*
D03*
X0042164D02*
D03*
X00446006Y00194313D02*
D03*
X0023495Y0052451D02*
D03*
Y0053213D02*
D03*
Y0050165D02*
D03*
Y0051689D02*
D03*
Y0050927D02*
D03*
X0023368Y0055372D02*
D03*
X0023495Y0053975D02*
D03*
X00010171Y00835087D02*
D03*
Y00826087D02*
D03*
Y00817087D02*
D03*
Y00853087D02*
D03*
Y00844087D02*
D03*
X0028067Y00597154D02*
D03*
X00010171Y00862087D02*
D03*
X00010375Y00871085D02*
D03*
X00013495Y00879527D02*
D03*
X0001971Y00886037D02*
D03*
X0002803Y00889467D02*
D03*
X00046023Y00889826D02*
D03*
X00073023D02*
D03*
X00055023D02*
D03*
X00064023D02*
D03*
X00037023D02*
D03*
X00118023D02*
D03*
X00109023D02*
D03*
X00145023D02*
D03*
X00127023D02*
D03*
X00136023D02*
D03*
X00100023D02*
D03*
X00082023D02*
D03*
X00091023D02*
D03*
X00219902Y00873824D02*
D03*
X00228902Y00873824D02*
D03*
X00237902Y00873824D02*
D03*
X00246902Y00873824D02*
D03*
X00255902Y00873824D02*
D03*
X00172023Y00889826D02*
D03*
X00163023D02*
D03*
X00198744Y00887603D02*
D03*
X00181023Y00889826D02*
D03*
X00190023D02*
D03*
X00154023D02*
D03*
X00264902Y00873824D02*
D03*
X00273902Y00873824D02*
D03*
X00282902Y00873824D02*
D03*
X00291902Y00873824D02*
D03*
X00300902Y00873824D02*
D03*
X00203387Y00879893D02*
D03*
X00309902Y00873825D02*
D03*
X0021099Y00875078D02*
D03*
X00318902Y00873825D02*
D03*
X00327902Y00873825D02*
D03*
X00336902Y00873825D02*
D03*
X00345902Y00873825D02*
D03*
X00354902Y00873825D02*
D03*
X00363902Y00873825D02*
D03*
X00372902Y00873825D02*
D03*
X00381902Y00873825D02*
D03*
X00390902Y00873825D02*
D03*
X00399902Y00873825D02*
D03*
X00408902Y00873826D02*
D03*
X00435902Y00873826D02*
D03*
X00417902D02*
D03*
X00426902D02*
D03*
X00498902D02*
D03*
X00507902D02*
D03*
X00453902D02*
D03*
X00444902D02*
D03*
X00480902D02*
D03*
X00462902D02*
D03*
X00471902D02*
D03*
X00543902D02*
D03*
X00534902D02*
D03*
X00570902D02*
D03*
X00552902D02*
D03*
X00561902D02*
D03*
X00525902D02*
D03*
X00489902D02*
D03*
X00516902D02*
D03*
X00576872Y00026171D02*
D03*
X00585872Y00026171D02*
D03*
X00594872Y00026171D02*
D03*
X00603872Y00026171D02*
D03*
X00612872Y00026172D02*
D03*
X00621872Y00026172D02*
D03*
X00630872Y00026172D02*
D03*
X00639872Y00026172D02*
D03*
X00648872Y00026172D02*
D03*
X00657872Y00026172D02*
D03*
X00666872Y00026172D02*
D03*
X00675872Y00026172D02*
D03*
X00684872Y00026172D02*
D03*
X00693872Y00026172D02*
D03*
X00749685Y00010171D02*
D03*
X00767685D02*
D03*
X00758685D02*
D03*
X00785685D02*
D03*
X00776685D02*
D03*
X00812685D02*
D03*
X00794685D02*
D03*
X00803685D02*
D03*
X00702872Y00026172D02*
D03*
X00711872Y00026172D02*
D03*
X00731693Y0001055D02*
D03*
X00720652Y00024198D02*
D03*
X0072772Y00018625D02*
D03*
X00740685Y00010171D02*
D03*
X00830685D02*
D03*
X00821685D02*
D03*
X00866685D02*
D03*
X00839685D02*
D03*
X00875685D02*
D03*
X00884685D02*
D03*
X00893685D02*
D03*
X00857685D02*
D03*
X00848685D02*
D03*
X00902669Y00010701D02*
D03*
X00910898Y00014346D02*
D03*
X00916874Y00021076D02*
D03*
X00919681Y00029627D02*
D03*
X00919829Y00047626D02*
D03*
Y00083626D02*
D03*
Y00092626D02*
D03*
Y00056626D02*
D03*
Y00074626D02*
D03*
Y00065626D02*
D03*
Y00038626D02*
D03*
X00903829Y00166979D02*
D03*
Y00175979D02*
D03*
X00906356Y00140316D02*
D03*
X00903829Y00157979D02*
D03*
X00903919Y0014898D02*
D03*
X00903829Y00211979D02*
D03*
Y00220979D02*
D03*
Y00184979D02*
D03*
Y00202979D02*
D03*
Y00193979D02*
D03*
X00919829Y00101626D02*
D03*
Y00119626D02*
D03*
Y00110626D02*
D03*
X00912304Y00133562D02*
D03*
X00919829Y00128626D02*
D03*
X00903829Y00256979D02*
D03*
Y00265979D02*
D03*
Y00229979D02*
D03*
Y00247979D02*
D03*
Y00238979D02*
D03*
X00903829Y00310979D02*
D03*
Y00319979D02*
D03*
Y00283979D02*
D03*
Y00301979D02*
D03*
Y00292979D02*
D03*
Y00274979D02*
D03*
Y00355979D02*
D03*
Y00364979D02*
D03*
Y00328979D02*
D03*
Y00346979D02*
D03*
Y00337979D02*
D03*
Y00382979D02*
D03*
Y00391979D02*
D03*
Y00373979D02*
D03*
X00903829Y00490979D02*
D03*
Y00481979D02*
D03*
Y00427979D02*
D03*
Y00436979D02*
D03*
Y00400979D02*
D03*
Y00418979D02*
D03*
Y00409979D02*
D03*
Y00472979D02*
D03*
Y00445979D02*
D03*
Y00463979D02*
D03*
Y00454979D02*
D03*
X00597901Y00873826D02*
D03*
X00588901D02*
D03*
X00624902D02*
D03*
X00606902D02*
D03*
X00615901D02*
D03*
X00579902D02*
D03*
X00642901D02*
D03*
X00633901D02*
D03*
X00669901D02*
D03*
X00651901D02*
D03*
X00660901D02*
D03*
X00687901D02*
D03*
X00678901D02*
D03*
X00705901Y00873826D02*
D03*
X00696901Y00873826D02*
D03*
X00714897Y0087411D02*
D03*
X00723279Y00877388D02*
D03*
X0072941Y00883977D02*
D03*
X0073625Y00889826D02*
D03*
X0074525D02*
D03*
X0076325D02*
D03*
X0075425D02*
D03*
X0079025D02*
D03*
X0077225D02*
D03*
X0078125D02*
D03*
X0087376Y0051943D02*
D03*
X00903829Y00499979D02*
D03*
Y00508979D02*
D03*
X00903829Y00526979D02*
D03*
Y00544979D02*
D03*
Y00535979D02*
D03*
Y00580979D02*
D03*
Y00589979D02*
D03*
Y00553979D02*
D03*
Y00571979D02*
D03*
Y00562979D02*
D03*
Y00517979D02*
D03*
Y00616978D02*
D03*
Y00625979D02*
D03*
Y00598979D02*
D03*
Y00607979D02*
D03*
X00903829Y00688978D02*
D03*
Y00724978D02*
D03*
Y00733978D02*
D03*
Y00697978D02*
D03*
Y00715978D02*
D03*
Y00706978D02*
D03*
Y00661978D02*
D03*
Y00670978D02*
D03*
Y00634978D02*
D03*
Y00652979D02*
D03*
Y00643979D02*
D03*
Y00679978D02*
D03*
X0080825Y00889826D02*
D03*
X0079925D02*
D03*
X0083525D02*
D03*
X0081725D02*
D03*
X0082625D02*
D03*
X0084425D02*
D03*
X0087125D02*
D03*
X0085325D02*
D03*
X0086225D02*
D03*
X00903829Y00742978D02*
D03*
Y00751978D02*
D03*
X00904767Y00760929D02*
D03*
X00909184Y00768771D02*
D03*
X00916575Y00773906D02*
D03*
X00919829Y00809297D02*
D03*
Y00800297D02*
D03*
Y00791297D02*
D03*
Y00782297D02*
D03*
X00919391Y00872287D02*
D03*
X00915867Y00880568D02*
D03*
X00919829Y00845297D02*
D03*
Y00863297D02*
D03*
Y00854297D02*
D03*
X0088025Y00889826D02*
D03*
X00909253Y00886672D02*
D03*
X0088925Y00889826D02*
D03*
X0089825Y00889848D02*
D03*
X00919829Y00818297D02*
D03*
Y00836297D02*
D03*
Y00827297D02*
D03*
X00360172Y00164084D02*
D03*
X002032Y0058674D02*
D03*
X0019939Y0057277D02*
D03*
X00203262Y00567838D02*
D03*
X0033401Y0060325D02*
D03*
X0031877D02*
D03*
X0032385Y0058674D02*
D03*
X0017272Y005969D02*
D03*
X001651Y0060325D02*
D03*
X0016891Y0056261D02*
D03*
D156*
X0015875Y0066929D02*
D03*
X00309564Y00669606D02*
D03*
X0023876Y0083312D02*
D03*
Y0082169D02*
D03*
X0026035Y0078613D02*
D03*
X0025019Y0079629D02*
D03*
X0032512Y008255D02*
D03*
X0080518Y0077216D02*
D03*
X0079248Y0078359D02*
D03*
X0083693Y0080264D02*
D03*
X0030226Y008255D02*
D03*
X0080518Y0075692D02*
D03*
X0061468Y0066294D02*
D03*
X0088265Y0049149D02*
D03*
X00865761Y00491835D02*
D03*
X00794218Y00479993D02*
D03*
X0058293Y005588D02*
D03*
X0053467Y0053975D02*
D03*
X004445Y0068707D02*
D03*
X0027432Y0074549D02*
D03*
X002159Y007493D02*
D03*
X0040386Y0036449D02*
D03*
X00350857Y00239438D02*
D03*
X0031115Y0025527D02*
D03*
X00582758Y00461576D02*
D03*
X0031496Y0036449D02*
D03*
X004318Y0028448D02*
D03*
X0083566Y0026924D02*
D03*
X0084709D02*
D03*
X0080899Y0043561D02*
D03*
Y0042037D02*
D03*
X0082677Y0043561D02*
D03*
Y0042037D02*
D03*
X0084963Y0030353D02*
D03*
X0084074Y0032385D02*
D03*
X0084201Y0018288D02*
D03*
X008382Y001524D02*
D03*
X008509D02*
D03*
X0084455Y0014097D02*
D03*
D157*
X00035446Y00088D02*
D03*
X0003556Y0082677D02*
D03*
X00893Y0005D02*
D03*
X00892746Y0085D02*
D03*
M02*
