M48
;Layer_Color=9474304
;FILE_FORMAT=2:4
INCH,LZ
;TYPE=PLATED
T01F00S00C0.0079
T02F00S00C0.0118
T04F00S00C0.0315
T05F00S00C0.0354
T06F00S00C0.0394
T07F00S00C0.1252
%
T01
X000695Y000613
X001003Y000439
X001356Y0004
X00171
X002064
X002419
X002773
X003127
X003482
X003836
X00419
X004545
X004899
X005253
X005608
X005962
X006316
X00667
X007025
X007379
X007733
X007933Y000693
X008198Y000929
X008538Y001026
X008893Y00103
X009247
X009601
X009956
X01031
X010664
X011019
X011373
X011727
X012082
X012436
X01279
X013145
X013499
X013853
X014208
X014562
X014916
X015271
X01418Y00646
X0004Y003721
Y003367
Y003013
Y002658
Y002304
Y00195
Y001595
X0004Y001241
X000481Y000896
X015625Y00103
X015979
X016334
X016688
X017042
X017397
X017751
X018105
X01846
X018814
X019168
X019523
X019877
X020231Y00103
X020586Y00103
X02094Y00103
X021294Y00103
X021649Y00103
X022003Y00103
X022357Y00103
X022711Y00103
X023066Y00103
X02342Y00103
X023774Y00103
X024129Y00103
X024483Y00103
X024837Y00103
X025192Y00103
X025546Y00103
X0259Y00103
X026255Y00103
X026609Y00103
X026963Y00103
X027318Y00103
X027672Y00103
X028026Y00103
X028372Y000953
X02865Y000733
X028807Y000415
X029161Y0004
X029515
X029869
X030224
X030578
X030932
X031287
X031641
X031995
X03235
X032704
X033058
X033413
X033767
X034121
X034476
X03483
X035184
X035538Y000421
X035862Y000565
X036097Y00083
X036208Y001166
X036214Y001521
Y001875
Y002229
Y002584
Y002938
Y003292
Y003647
Y004001
Y004355
Y00471
Y005064
X035917Y005258
X035683Y005524
X035587Y005865
X035584Y00622
Y006574
Y006928
Y007283
Y007637
Y007991
Y008346
Y0087
Y009054
Y009409
Y009763
Y010117
Y010472
X035584Y010826
Y01118
Y011535
Y011889
Y012243
Y012598
Y012952
Y013306
Y013661
Y014015
Y014369
Y014724
Y015078
Y015432
X035584Y015787
Y016141
Y016495
Y01685
Y017204
Y017558
Y017913
Y018267
Y018621
Y018976
Y01933
Y019684
Y020039
X035584Y020393
Y020747
Y021102
Y021456
Y02181
Y022165
Y022519
Y022873
Y023228
Y023582
Y023936
Y02429
Y024645
X035584Y024999
Y025353
Y025708
Y026062
Y026416
Y026771
Y027125
Y027479
Y027834
Y028188
Y028542
Y028897
Y029251
Y029605
X035621Y029958
X035795Y030267
X036086Y030469
X036214Y030799
Y031153
X008Y0231
X00785Y02255
X008002Y022356
X008007Y034641
X007825Y034945
X007481Y035033
X007127
X006773
X006418
X006064
X00571
X005355
X005001
X004647
X004292
X003938
X003584
X003229
X002875
X002521
X002166
X001812
X001458
X001104Y035018
X000776Y034883
X000531Y034627
X000408Y034295
X0004Y03394
Y033586
Y033232
Y032877
Y032523
Y032169
X008307Y034452
X008658Y034403
X009012Y034403
X009366Y034403
X009721Y034403
X010075Y034403
X010429Y034403
X010784Y034403
X011138Y034403
X011492Y034403
X011847Y034403
X012201Y034403
X012555Y034403
X01291Y034403
X013264Y034403
X013618Y034403
X013973Y034403
X014327Y034403
X014681Y034403
X015036Y034403
X01539Y034403
X015744Y034403
X016099Y034403
X016453Y034403
X016807
X017161
X017516
X01787
X018224
X018579
X018933
X019287
X019642
X019996
X02035
X020705
X021059
X021413
X021768
X022122
X022476
X022831
X023185
X023539
X023894
X024248
X024602
X024957
X025311
X025665
X02602
X026374
X026728
X027083
X027437
X027791Y034403
X028146Y034414
X028476Y034543
X028717Y034802
X028986Y035033
X029341
X029695
X030049
X030404
X030758
X031112
X031467
X031821
X032175
X03253
X032884
X033238
X033593
X033947
X034301
X034656
X03501
X035364Y035033
X035797Y034908
X036058Y034668
X036196Y034342
X036214Y033988
Y033634
Y033279
Y032925
Y032571
Y032216
Y031862
Y031508
T02
X0133Y0047
X01405Y0104
X01535Y0105
X0156Y0108
X01925Y0126
X0208Y00985
X02165Y00535
X0254Y00475
X02825Y0064
X0331Y02315
X03255Y0247
Y02545
X032538Y026088
X0326Y02785
X0325Y0282
X03165Y0293
X0253Y02815
Y02765
X0251Y02655
X02535Y0261
X025359Y025759
X024946Y023248
X0228Y02355
Y02455
X02135
Y02355
X0227Y0208
X02355Y0182
X021493Y018207
X0208Y0182
X019Y01803
X01865Y0178
X026907Y021243
X0293Y022
X0297
X02165Y02935
X02095Y03085
X01405Y0306
X01385Y03035
X0138Y0309
Y0312
X0117Y03005
Y0295
X0127Y02705
Y02655
X00685Y0288
X00575Y02285
X00875Y03175
X021365Y031912
X0301Y0316
T04
X0253Y0323
X026087
X026875
X027662
X027712Y03335
X026925
X026137
X02535
T05
X001406Y005465
X002406
X003406
Y006465
Y007465
X004406
Y008465
Y009465
Y010465
Y011465
X003406
Y012465
X004406
Y013465
Y014465
Y015465
X003406
Y014465
Y013465
X002406
Y012465
Y011465
X001406
Y012465
Y013465
Y014465
Y015465
X002406
Y014465
Y010465
X003406
Y009465
Y008465
X002406
Y009465
X001406
Y008465
Y007465
Y006465
X002406
Y007465
X004406Y006465
Y005465
X001406Y010465
Y016465
Y017465
X002406
Y018465
Y019465
Y020465
X001406
Y019465
Y018465
X003406
X004406
Y017465
X003406
Y016465
X004406
X002406
X003406Y019465
Y020465
X004406
Y021465
X003406
Y022465
X004406
Y023465
Y024465
X003406
Y025465
Y026465
X004406
Y027465
Y028465
Y029465
X003406
X002406
X001406
Y028465
Y027465
Y026465
X002406
Y025465
Y024465
X001406
Y025465
Y023465
Y022465
Y021465
X002406
Y022465
Y023465
X003406
X004406Y025465
X003406Y027465
Y028465
X002406
Y027465
Y030465
X003406
X004406
X001406
X004406Y019465
T06
X0065Y0031
X0075
X0121
X0131
X01685
X01785
X02115
X02215
X0258
X0268
T07
X001396Y003465
X035157Y001969
X0014Y03255
X035147Y033465
M30
