G04*
G04 #@! TF.GenerationSoftware,Altium Limited,Altium Designer,25.7.1 (20)*
G04*
G04 Layer_Physical_Order=2*
G04 Layer_Color=36540*
%FSLAX44Y44*%
%MOMM*%
G71*
G04*
G04 #@! TF.SameCoordinates,F25161A0-B78C-4874-AF2B-3454E01FF3B2*
G04*
G04*
G04 #@! TF.FilePolarity,Positive*
G04*
G01*
G75*
%ADD139C,0.3048*%
%ADD145O,1.6000X1.8000*%
G04:AMPARAMS|DCode=146|XSize=1.8mm|YSize=1.6mm|CornerRadius=0.4mm|HoleSize=0mm|Usage=FLASHONLY|Rotation=90.000|XOffset=0mm|YOffset=0mm|HoleType=Round|Shape=RoundedRectangle|*
%AMROUNDEDRECTD146*
21,1,1.8000,0.8000,0,0,90.0*
21,1,1.0000,1.6000,0,0,90.0*
1,1,0.8000,0.4000,0.5000*
1,1,0.8000,0.4000,-0.5000*
1,1,0.8000,-0.4000,-0.5000*
1,1,0.8000,-0.4000,0.5000*
%
%ADD146ROUNDEDRECTD146*%
%ADD148C,1.4000*%
%ADD149C,1.5300*%
%ADD150R,1.4000X1.4000*%
%ADD151R,1.5300X1.5300*%
%ADD152C,0.6000*%
%ADD153C,0.4000*%
%ADD154C,0.8000*%
%ADD155C,4.4000*%
G36*
X202079Y897274D02*
X203933Y896036D01*
X205171Y894182D01*
X205367Y893197D01*
X205535Y891996D01*
X205535D01*
X205888Y889315D01*
X206922Y886817D01*
X208569Y884671D01*
X210714Y883025D01*
X213212Y881991D01*
X215893Y881637D01*
Y881682D01*
X713893D01*
Y881637D01*
X716574Y881991D01*
X719072Y883025D01*
X721218Y884671D01*
X722864Y886817D01*
X723899Y889315D01*
X724252Y891996D01*
X724252D01*
X724419Y893197D01*
X724615Y894182D01*
X725854Y896036D01*
X727707Y897274D01*
X729825Y897695D01*
X729893Y897682D01*
X729912Y897685D01*
X898071D01*
X898083Y897688D01*
X902645Y897329D01*
X907176Y896241D01*
X911481Y894458D01*
X915454Y892023D01*
X918997Y888997D01*
X922023Y885454D01*
X924458Y881481D01*
X926241Y877176D01*
X927329Y872645D01*
X927688Y868083D01*
X927685Y868071D01*
Y773071D01*
X927699Y773002D01*
X927278Y770885D01*
X926040Y769031D01*
X924186Y767793D01*
X923201Y767597D01*
X922000Y767430D01*
Y767429D01*
X919319Y767076D01*
X916821Y766042D01*
X914675Y764395D01*
X913029Y762250D01*
X911994Y759752D01*
X911641Y757071D01*
X911685D01*
X911685Y757070D01*
Y148000D01*
X911641D01*
X911994Y145319D01*
X913029Y142821D01*
X914675Y140675D01*
X916821Y139029D01*
X919319Y137994D01*
X922000Y137641D01*
Y137641D01*
X923201Y137474D01*
X924186Y137278D01*
X926040Y136040D01*
X927278Y134186D01*
X927699Y132069D01*
X927685Y132000D01*
Y32000D01*
X927692Y31967D01*
X927329Y27355D01*
X926241Y22824D01*
X924458Y18519D01*
X922023Y14546D01*
X918997Y11003D01*
X915454Y7977D01*
X911481Y5542D01*
X907176Y3759D01*
X902645Y2671D01*
X898033Y2308D01*
X898000Y2315D01*
X730000D01*
X729931Y2301D01*
X727814Y2722D01*
X725960Y3960D01*
X724722Y5814D01*
X724526Y6799D01*
X724359Y8000D01*
X724359D01*
X724006Y10681D01*
X722971Y13179D01*
X721325Y15325D01*
X719179Y16971D01*
X716681Y18006D01*
X714000Y18359D01*
Y18314D01*
X216000D01*
Y18359D01*
X213319Y18006D01*
X210821Y16971D01*
X208675Y15325D01*
X207029Y13179D01*
X205994Y10681D01*
X205641Y8000D01*
X205641D01*
X205474Y6799D01*
X205278Y5814D01*
X204040Y3960D01*
X202186Y2722D01*
X200068Y2301D01*
X200000Y2315D01*
X32000D01*
X31967Y2308D01*
X27355Y2671D01*
X22824Y3759D01*
X18519Y5542D01*
X14546Y7977D01*
X11003Y11003D01*
X7977Y14546D01*
X5542Y18519D01*
X3759Y22824D01*
X2671Y27355D01*
X2403Y30766D01*
X2315Y32000D01*
X2314Y33250D01*
X2314Y33264D01*
X2314Y33068D01*
X2314Y33250D01*
Y123302D01*
X2300Y123370D01*
X2721Y125488D01*
X3960Y127341D01*
X5813Y128580D01*
X7921Y128999D01*
X8004Y128982D01*
X9999D01*
Y128938D01*
X12680Y129291D01*
X15178Y130326D01*
X17324Y131972D01*
X18970Y134118D01*
X20005Y136616D01*
X20358Y139297D01*
X20315D01*
X20315Y139298D01*
Y773500D01*
X20359D01*
X20006Y776181D01*
X18971Y778679D01*
X17325Y780825D01*
X15179Y782471D01*
X12681Y783506D01*
X10000Y783859D01*
Y783814D01*
X10000Y783814D01*
X8000D01*
X7932Y783801D01*
X5814Y784222D01*
X3960Y785460D01*
X2722Y787314D01*
X2301Y789432D01*
X2315Y789500D01*
Y868000D01*
X2308Y868033D01*
X2671Y872645D01*
X3759Y877176D01*
X5542Y881481D01*
X7977Y885454D01*
X11003Y888997D01*
X14546Y892023D01*
X18519Y894458D01*
X22824Y896241D01*
X27355Y897329D01*
X31906Y897687D01*
X31933Y897682D01*
X199893D01*
X199962Y897695D01*
X202079Y897274D01*
D02*
G37*
%LPC*%
G36*
X606791Y852122D02*
X604789D01*
X602940Y851356D01*
X601524Y849940D01*
X600758Y848091D01*
Y846089D01*
X601524Y844240D01*
X602940Y842824D01*
X604789Y842058D01*
X606791D01*
X608640Y842824D01*
X610056Y844240D01*
X610822Y846089D01*
Y848091D01*
X610056Y849940D01*
X608640Y851356D01*
X606791Y852122D01*
D02*
G37*
G36*
X704979Y855360D02*
X702801D01*
X700698Y854796D01*
X698812Y853708D01*
X697272Y852168D01*
X696184Y850282D01*
X695620Y848179D01*
Y846001D01*
X696184Y843898D01*
X697272Y842012D01*
X698812Y840472D01*
X700698Y839384D01*
X702801Y838820D01*
X704979D01*
X707082Y839384D01*
X708968Y840472D01*
X710508Y842012D01*
X711596Y843898D01*
X712160Y846001D01*
Y848179D01*
X711596Y850282D01*
X710508Y852168D01*
X708968Y853708D01*
X707082Y854796D01*
X704979Y855360D01*
D02*
G37*
G36*
X652160D02*
X635620D01*
Y838820D01*
X652160D01*
Y855360D01*
D02*
G37*
G36*
X665079Y856122D02*
X662701D01*
X660404Y855507D01*
X658344Y854317D01*
X656663Y852636D01*
X655473Y850576D01*
X654858Y848279D01*
Y845901D01*
X655473Y843604D01*
X656663Y841544D01*
X658344Y839863D01*
X660404Y838673D01*
X662701Y838058D01*
X665079D01*
X667376Y838673D01*
X669436Y839863D01*
X671117Y841544D01*
X672307Y843604D01*
X672922Y845901D01*
Y848279D01*
X672307Y850576D01*
X671117Y852636D01*
X669436Y854317D01*
X667376Y855507D01*
X665079Y856122D01*
D02*
G37*
G36*
X568691Y831802D02*
X566689D01*
X564840Y831036D01*
X563424Y829620D01*
X562658Y827771D01*
Y825769D01*
X563424Y823920D01*
X564840Y822504D01*
X566689Y821738D01*
X568691D01*
X570540Y822504D01*
X571956Y823920D01*
X572722Y825769D01*
Y827771D01*
X571956Y829620D01*
X570540Y831036D01*
X568691Y831802D01*
D02*
G37*
G36*
X303460Y831532D02*
X301060D01*
X298843Y830614D01*
X297146Y828917D01*
X296228Y826700D01*
Y824300D01*
X297146Y822083D01*
X298843Y820386D01*
X301060Y819468D01*
X303460D01*
X305677Y820386D01*
X307374Y822083D01*
X308292Y824300D01*
Y826700D01*
X307374Y828917D01*
X305677Y830614D01*
X303460Y831532D01*
D02*
G37*
G36*
X710890Y828690D02*
X694350D01*
Y812150D01*
X710890D01*
Y828690D01*
D02*
G37*
G36*
X683709D02*
X681531D01*
X679428Y828126D01*
X677542Y827038D01*
X676002Y825498D01*
X674914Y823612D01*
X674350Y821509D01*
Y819331D01*
X674914Y817228D01*
X676002Y815342D01*
X677542Y813802D01*
X679428Y812714D01*
X681531Y812150D01*
X683709D01*
X685812Y812714D01*
X687698Y813802D01*
X689238Y815342D01*
X690326Y817228D01*
X690890Y819331D01*
Y821509D01*
X690326Y823612D01*
X689238Y825498D01*
X687698Y827038D01*
X685812Y828126D01*
X683709Y828690D01*
D02*
G37*
G36*
X663709D02*
X661531D01*
X659428Y828126D01*
X657542Y827038D01*
X656002Y825498D01*
X654914Y823612D01*
X654350Y821509D01*
Y819331D01*
X654914Y817228D01*
X656002Y815342D01*
X657542Y813802D01*
X659428Y812714D01*
X661531Y812150D01*
X663709D01*
X665812Y812714D01*
X667698Y813802D01*
X669238Y815342D01*
X670326Y817228D01*
X670890Y819331D01*
Y821509D01*
X670326Y823612D01*
X669238Y825498D01*
X667698Y827038D01*
X665812Y828126D01*
X663709Y828690D01*
D02*
G37*
G36*
X643709D02*
X641531D01*
X639428Y828126D01*
X637542Y827038D01*
X636002Y825498D01*
X634914Y823612D01*
X634350Y821509D01*
Y819331D01*
X634914Y817228D01*
X636002Y815342D01*
X637542Y813802D01*
X639428Y812714D01*
X641531Y812150D01*
X643709D01*
X645812Y812714D01*
X647698Y813802D01*
X649238Y815342D01*
X650326Y817228D01*
X650890Y819331D01*
Y821509D01*
X650326Y823612D01*
X649238Y825498D01*
X647698Y827038D01*
X645812Y828126D01*
X643709Y828690D01*
D02*
G37*
G36*
X543516Y814833D02*
X541818D01*
X540248Y814183D01*
X539047Y812982D01*
X538397Y811412D01*
Y809714D01*
X539047Y808144D01*
X540248Y806943D01*
X541818Y806293D01*
X543516D01*
X545086Y806943D01*
X546287Y808144D01*
X546937Y809714D01*
Y811412D01*
X546287Y812982D01*
X545086Y814183D01*
X543516Y814833D01*
D02*
G37*
G36*
X223099Y810720D02*
X221401D01*
X219831Y810070D01*
X218630Y808869D01*
X217980Y807299D01*
Y805601D01*
X218630Y804031D01*
X219831Y802830D01*
X221401Y802180D01*
X223099D01*
X224669Y802830D01*
X225870Y804031D01*
X226520Y805601D01*
Y807299D01*
X225870Y808869D01*
X224669Y810070D01*
X223099Y810720D01*
D02*
G37*
G36*
X765389Y806910D02*
X763691D01*
X762121Y806260D01*
X760920Y805059D01*
X760270Y803489D01*
Y801791D01*
X760920Y800221D01*
X762121Y799020D01*
X763691Y798370D01*
X765389D01*
X766959Y799020D01*
X768160Y800221D01*
X768810Y801791D01*
Y803489D01*
X768160Y805059D01*
X766959Y806260D01*
X765389Y806910D01*
D02*
G37*
G36*
X558531Y797512D02*
X556529D01*
X554680Y796746D01*
X553264Y795330D01*
X552498Y793481D01*
Y791479D01*
X553264Y789630D01*
X554680Y788214D01*
X556529Y787448D01*
X558531D01*
X560380Y788214D01*
X561796Y789630D01*
X562562Y791479D01*
Y793481D01*
X561796Y795330D01*
X560380Y796746D01*
X558531Y797512D01*
D02*
G37*
G36*
X186421Y791162D02*
X184419D01*
X182570Y790396D01*
X181154Y788980D01*
X180388Y787131D01*
Y785129D01*
X181154Y783280D01*
X182570Y781864D01*
X184419Y781098D01*
X186421D01*
X188270Y781864D01*
X189686Y783280D01*
X190452Y785129D01*
Y787131D01*
X189686Y788980D01*
X188270Y790396D01*
X186421Y791162D01*
D02*
G37*
G36*
X351369Y796750D02*
X349671D01*
X348101Y796100D01*
X346900Y794899D01*
X346250Y793329D01*
Y791631D01*
X346900Y790061D01*
X347462Y789500D01*
X347982Y788670D01*
X347462Y787840D01*
X346900Y787279D01*
X346250Y785709D01*
Y784011D01*
X346900Y782441D01*
X348101Y781240D01*
X349671Y780590D01*
X351369D01*
X352939Y781240D01*
X354140Y782441D01*
X354790Y784011D01*
Y785709D01*
X354140Y787279D01*
X353578Y787840D01*
X353058Y788670D01*
X353578Y789500D01*
X354140Y790061D01*
X354790Y791631D01*
Y793329D01*
X354140Y794899D01*
X352939Y796100D01*
X351369Y796750D01*
D02*
G37*
G36*
X532979Y787860D02*
X531281D01*
X529711Y787210D01*
X528510Y786009D01*
X527860Y784439D01*
Y782741D01*
X528510Y781171D01*
X529711Y779970D01*
X531281Y779320D01*
X532979D01*
X534549Y779970D01*
X535750Y781171D01*
X536400Y782741D01*
Y784439D01*
X535750Y786009D01*
X534549Y787210D01*
X532979Y787860D01*
D02*
G37*
G36*
X299451Y783542D02*
X297449D01*
X295600Y782776D01*
X294184Y781360D01*
X293418Y779511D01*
Y777509D01*
X294184Y775660D01*
X295600Y774244D01*
X297449Y773478D01*
X299451D01*
X301300Y774244D01*
X302716Y775660D01*
X303482Y777509D01*
Y779511D01*
X302716Y781360D01*
X301300Y782776D01*
X299451Y783542D01*
D02*
G37*
G36*
X608061Y778462D02*
X606059D01*
X604210Y777696D01*
X602794Y776280D01*
X602028Y774431D01*
Y772429D01*
X602794Y770580D01*
X604210Y769164D01*
X606059Y768398D01*
X608061D01*
X609910Y769164D01*
X611326Y770580D01*
X612092Y772429D01*
Y774431D01*
X611326Y776280D01*
X609910Y777696D01*
X608061Y778462D01*
D02*
G37*
G36*
X357719Y781510D02*
X356021D01*
X354451Y780860D01*
X353250Y779659D01*
X352600Y778089D01*
Y776391D01*
X351735Y775160D01*
X350941D01*
X349371Y774510D01*
X348170Y773309D01*
X347520Y771739D01*
Y770041D01*
X348170Y768471D01*
X349371Y767270D01*
X350941Y766620D01*
X352639D01*
X354209Y767270D01*
X355410Y768471D01*
X356060Y770041D01*
Y771739D01*
X356925Y772970D01*
X357719D01*
X359289Y773620D01*
X360490Y774821D01*
X361140Y776391D01*
Y778089D01*
X360490Y779659D01*
X359289Y780860D01*
X357719Y781510D01*
D02*
G37*
G36*
X113074Y782720D02*
X110726D01*
X108457Y782112D01*
X106423Y780938D01*
X104762Y779277D01*
X103588Y777243D01*
X102980Y774974D01*
Y772626D01*
X103588Y770357D01*
X104762Y768323D01*
X106423Y766662D01*
X108457Y765488D01*
X110726Y764880D01*
X113074D01*
X115343Y765488D01*
X117377Y766662D01*
X119038Y768323D01*
X120212Y770357D01*
X120820Y772626D01*
Y774974D01*
X120212Y777243D01*
X119038Y779277D01*
X117377Y780938D01*
X115343Y782112D01*
X113074Y782720D01*
D02*
G37*
G36*
X87674D02*
X85326D01*
X83057Y782112D01*
X81023Y780938D01*
X79362Y779277D01*
X78188Y777243D01*
X77580Y774974D01*
Y772626D01*
X78188Y770357D01*
X79362Y768323D01*
X81023Y766662D01*
X83057Y765488D01*
X85326Y764880D01*
X87674D01*
X89943Y765488D01*
X91977Y766662D01*
X93638Y768323D01*
X94812Y770357D01*
X95420Y772626D01*
Y774974D01*
X94812Y777243D01*
X93638Y779277D01*
X91977Y780938D01*
X89943Y782112D01*
X87674Y782720D01*
D02*
G37*
G36*
X62274D02*
X59926D01*
X57657Y782112D01*
X55623Y780938D01*
X53962Y779277D01*
X52788Y777243D01*
X52180Y774974D01*
Y772626D01*
X52788Y770357D01*
X53962Y768323D01*
X55623Y766662D01*
X57657Y765488D01*
X59926Y764880D01*
X62274D01*
X64543Y765488D01*
X66577Y766662D01*
X68238Y768323D01*
X69412Y770357D01*
X70020Y772626D01*
Y774974D01*
X69412Y777243D01*
X68238Y779277D01*
X66577Y780938D01*
X64543Y782112D01*
X62274Y782720D01*
D02*
G37*
G36*
X36874D02*
X34526D01*
X32257Y782112D01*
X30223Y780938D01*
X28562Y779277D01*
X27388Y777243D01*
X26780Y774974D01*
Y772626D01*
X27388Y770357D01*
X28562Y768323D01*
X30223Y766662D01*
X32257Y765488D01*
X34526Y764880D01*
X36874D01*
X39143Y765488D01*
X41177Y766662D01*
X42838Y768323D01*
X44012Y770357D01*
X44620Y772626D01*
Y774974D01*
X44012Y777243D01*
X42838Y779277D01*
X41177Y780938D01*
X39143Y782112D01*
X36874Y782720D01*
D02*
G37*
G36*
X298029Y767540D02*
X296331D01*
X294761Y766890D01*
X293560Y765689D01*
X292910Y764119D01*
Y762421D01*
X293560Y760851D01*
X294761Y759650D01*
X296331Y759000D01*
X298029D01*
X299599Y759650D01*
X300800Y760851D01*
X301450Y762421D01*
Y764119D01*
X300800Y765689D01*
X299599Y766890D01*
X298029Y767540D01*
D02*
G37*
G36*
X608061Y763222D02*
X606059D01*
X604210Y762456D01*
X602794Y761040D01*
X602028Y759191D01*
Y757189D01*
X602794Y755340D01*
X604210Y753924D01*
X606059Y753158D01*
X608061D01*
X609910Y753924D01*
X611326Y755340D01*
X612092Y757189D01*
Y759191D01*
X611326Y761040D01*
X609910Y762456D01*
X608061Y763222D01*
D02*
G37*
G36*
X806380Y762952D02*
X803980D01*
X801763Y762034D01*
X800066Y760337D01*
X799148Y758120D01*
Y755720D01*
X800066Y753503D01*
X801763Y751806D01*
X803980Y750888D01*
X806380D01*
X808597Y751806D01*
X810294Y753503D01*
X811212Y755720D01*
Y758120D01*
X810294Y760337D01*
X808597Y762034D01*
X806380Y762952D01*
D02*
G37*
G36*
X298029Y753570D02*
X296331D01*
X294761Y752920D01*
X293560Y751719D01*
X292910Y750149D01*
Y748451D01*
X293560Y746881D01*
X294761Y745680D01*
X296331Y745030D01*
X298029D01*
X299599Y745680D01*
X300800Y746881D01*
X301450Y748451D01*
Y750149D01*
X300800Y751719D01*
X299599Y752920D01*
X298029Y753570D01*
D02*
G37*
G36*
X217100Y755332D02*
X214700D01*
X212483Y754414D01*
X210786Y752717D01*
X209868Y750500D01*
Y748100D01*
X210786Y745883D01*
X212483Y744186D01*
X214700Y743268D01*
X217100D01*
X219317Y744186D01*
X221014Y745883D01*
X221932Y748100D01*
Y750500D01*
X221014Y752717D01*
X219317Y754414D01*
X217100Y755332D01*
D02*
G37*
G36*
X383271Y751792D02*
X381269D01*
X379420Y751026D01*
X378004Y749610D01*
X377238Y747761D01*
Y745759D01*
X378004Y743910D01*
X379420Y742494D01*
X381269Y741728D01*
X383271D01*
X385120Y742494D01*
X386536Y743910D01*
X387302Y745759D01*
Y747761D01*
X386536Y749610D01*
X385120Y751026D01*
X383271Y751792D01*
D02*
G37*
G36*
X550759Y749760D02*
X549061D01*
X547491Y749110D01*
X546290Y747909D01*
X545640Y746339D01*
Y744641D01*
X546290Y743071D01*
X547491Y741870D01*
X549061Y741220D01*
X550759D01*
X552329Y741870D01*
X553530Y743071D01*
X554180Y744641D01*
Y746339D01*
X553530Y747909D01*
X552329Y749110D01*
X550759Y749760D01*
D02*
G37*
G36*
X804759Y748490D02*
X803061D01*
X801491Y747840D01*
X800290Y746639D01*
X799640Y745069D01*
Y743371D01*
X800290Y741801D01*
X801491Y740600D01*
X803061Y739950D01*
X804759D01*
X806329Y740600D01*
X807530Y741801D01*
X808180Y743371D01*
Y745069D01*
X807530Y746639D01*
X806329Y747840D01*
X804759Y748490D01*
D02*
G37*
G36*
X113074Y757320D02*
X110726D01*
X108457Y756712D01*
X106423Y755538D01*
X104762Y753877D01*
X103588Y751843D01*
X102980Y749574D01*
Y747226D01*
X103588Y744957D01*
X104762Y742923D01*
X106423Y741262D01*
X108457Y740088D01*
X110726Y739480D01*
X113074D01*
X115343Y740088D01*
X117377Y741262D01*
X119038Y742923D01*
X120212Y744957D01*
X120820Y747226D01*
Y749574D01*
X120212Y751843D01*
X119038Y753877D01*
X117377Y755538D01*
X115343Y756712D01*
X113074Y757320D01*
D02*
G37*
G36*
X87674D02*
X85326D01*
X83057Y756712D01*
X81023Y755538D01*
X79362Y753877D01*
X78188Y751843D01*
X77580Y749574D01*
Y747226D01*
X78188Y744957D01*
X79362Y742923D01*
X81023Y741262D01*
X83057Y740088D01*
X85326Y739480D01*
X87674D01*
X89943Y740088D01*
X91977Y741262D01*
X93638Y742923D01*
X94812Y744957D01*
X95420Y747226D01*
Y749574D01*
X94812Y751843D01*
X93638Y753877D01*
X91977Y755538D01*
X89943Y756712D01*
X87674Y757320D01*
D02*
G37*
G36*
X275520Y751522D02*
X273120D01*
X270903Y750604D01*
X269206Y748907D01*
X268288Y746690D01*
Y744290D01*
X269206Y742073D01*
X270903Y740376D01*
X273120Y739458D01*
X275520D01*
X277737Y740376D01*
X279434Y742073D01*
X280352Y744290D01*
Y746690D01*
X279434Y748907D01*
X277737Y750604D01*
X275520Y751522D01*
D02*
G37*
G36*
X608061Y747982D02*
X606059D01*
X604210Y747216D01*
X602794Y745800D01*
X602028Y743951D01*
Y741949D01*
X602794Y740100D01*
X604210Y738684D01*
X606059Y737918D01*
X608061D01*
X609910Y738684D01*
X611326Y740100D01*
X612092Y741949D01*
Y743951D01*
X611326Y745800D01*
X609910Y747216D01*
X608061Y747982D01*
D02*
G37*
G36*
X174839Y735790D02*
X173141D01*
X171571Y735140D01*
X170370Y733939D01*
X169720Y732369D01*
Y730671D01*
X170370Y729101D01*
X171571Y727900D01*
X173141Y727250D01*
X174839D01*
X176409Y727900D01*
X177610Y729101D01*
X178260Y730671D01*
Y732369D01*
X177610Y733939D01*
X176409Y735140D01*
X174839Y735790D01*
D02*
G37*
G36*
X383271Y735282D02*
X381269D01*
X379420Y734516D01*
X378004Y733100D01*
X377238Y731251D01*
Y729249D01*
X378004Y727400D01*
X379420Y725984D01*
X381269Y725218D01*
X383271D01*
X385120Y725984D01*
X386536Y727400D01*
X387302Y729249D01*
Y731251D01*
X386536Y733100D01*
X385120Y734516D01*
X383271Y735282D01*
D02*
G37*
G36*
X563611Y727662D02*
X561609D01*
X559760Y726896D01*
X558344Y725480D01*
X557578Y723631D01*
Y721629D01*
X558344Y719780D01*
X559760Y718364D01*
X561609Y717598D01*
X563611D01*
X565460Y718364D01*
X566876Y719780D01*
X567642Y721629D01*
Y723631D01*
X566876Y725480D01*
X565460Y726896D01*
X563611Y727662D01*
D02*
G37*
G36*
X544561D02*
X542559D01*
X540710Y726896D01*
X539294Y725480D01*
X538528Y723631D01*
Y721629D01*
X539294Y719780D01*
X540710Y718364D01*
X542559Y717598D01*
X544561D01*
X546410Y718364D01*
X547826Y719780D01*
X548592Y721629D01*
Y723631D01*
X547826Y725480D01*
X546410Y726896D01*
X544561Y727662D01*
D02*
G37*
G36*
X113074Y731920D02*
X110726D01*
X108457Y731312D01*
X106423Y730138D01*
X104762Y728477D01*
X103588Y726443D01*
X102980Y724174D01*
Y721826D01*
X103588Y719557D01*
X104762Y717523D01*
X106423Y715862D01*
X108457Y714688D01*
X110726Y714080D01*
X113074D01*
X115343Y714688D01*
X117377Y715862D01*
X119038Y717523D01*
X120212Y719557D01*
X120820Y721826D01*
Y724174D01*
X120212Y726443D01*
X119038Y728477D01*
X117377Y730138D01*
X115343Y731312D01*
X113074Y731920D01*
D02*
G37*
G36*
X87674D02*
X85326D01*
X83057Y731312D01*
X81023Y730138D01*
X79362Y728477D01*
X78188Y726443D01*
X77580Y724174D01*
Y721826D01*
X78188Y719557D01*
X79362Y717523D01*
X81023Y715862D01*
X83057Y714688D01*
X85326Y714080D01*
X87674D01*
X89943Y714688D01*
X91977Y715862D01*
X93638Y717523D01*
X94812Y719557D01*
X95420Y721826D01*
Y724174D01*
X94812Y726443D01*
X93638Y728477D01*
X91977Y730138D01*
X89943Y731312D01*
X87674Y731920D01*
D02*
G37*
G36*
X62274D02*
X59926D01*
X57657Y731312D01*
X55623Y730138D01*
X53962Y728477D01*
X52788Y726443D01*
X52180Y724174D01*
Y721826D01*
X52788Y719557D01*
X53962Y717523D01*
X55623Y715862D01*
X57657Y714688D01*
X59926Y714080D01*
X62274D01*
X64543Y714688D01*
X66577Y715862D01*
X68238Y717523D01*
X69412Y719557D01*
X70020Y721826D01*
Y724174D01*
X69412Y726443D01*
X68238Y728477D01*
X66577Y730138D01*
X64543Y731312D01*
X62274Y731920D01*
D02*
G37*
G36*
X36874D02*
X34526D01*
X32257Y731312D01*
X30223Y730138D01*
X28562Y728477D01*
X27388Y726443D01*
X26780Y724174D01*
Y721826D01*
X27388Y719557D01*
X28562Y717523D01*
X30223Y715862D01*
X32257Y714688D01*
X34526Y714080D01*
X36874D01*
X39143Y714688D01*
X41177Y715862D01*
X42838Y717523D01*
X44012Y719557D01*
X44620Y721826D01*
Y724174D01*
X44012Y726443D01*
X42838Y728477D01*
X41177Y730138D01*
X39143Y731312D01*
X36874Y731920D01*
D02*
G37*
G36*
X643469Y719280D02*
X641771D01*
X640201Y718630D01*
X639000Y717429D01*
X638350Y715859D01*
Y714161D01*
X639000Y712591D01*
X640201Y711390D01*
X641771Y710740D01*
X643469D01*
X645039Y711390D01*
X646240Y712591D01*
X646890Y714161D01*
Y715859D01*
X646240Y717429D01*
X645039Y718630D01*
X643469Y719280D01*
D02*
G37*
G36*
X826349Y720550D02*
X824651D01*
X823081Y719900D01*
X821880Y718699D01*
X821230Y717129D01*
Y715431D01*
X821880Y713861D01*
X823081Y712660D01*
X824651Y712010D01*
X824962D01*
X824976Y711989D01*
X825351Y710740D01*
X824420Y709809D01*
X823770Y708239D01*
Y706541D01*
X824420Y704971D01*
X825621Y703770D01*
X827191Y703120D01*
X828889D01*
X830459Y703770D01*
X831660Y704971D01*
X832310Y706541D01*
Y708239D01*
X831660Y709809D01*
X830459Y711010D01*
X828889Y711660D01*
X828578D01*
X828564Y711681D01*
X828189Y712930D01*
X829120Y713861D01*
X829770Y715431D01*
Y717129D01*
X829120Y718699D01*
X827919Y719900D01*
X826349Y720550D01*
D02*
G37*
G36*
X643469Y706580D02*
X641771D01*
X640201Y705930D01*
X639000Y704729D01*
X638350Y703159D01*
Y701461D01*
X639000Y699891D01*
X640201Y698690D01*
X641771Y698040D01*
X643469D01*
X645039Y698690D01*
X646240Y699891D01*
X646890Y701461D01*
Y703159D01*
X646240Y704729D01*
X645039Y705930D01*
X643469Y706580D01*
D02*
G37*
G36*
X113074Y706520D02*
X110726D01*
X108457Y705912D01*
X106423Y704738D01*
X104762Y703077D01*
X103588Y701043D01*
X102980Y698774D01*
Y696426D01*
X103588Y694157D01*
X104762Y692123D01*
X106423Y690462D01*
X108457Y689288D01*
X110726Y688680D01*
X113074D01*
X115343Y689288D01*
X117377Y690462D01*
X119038Y692123D01*
X120212Y694157D01*
X120820Y696426D01*
Y698774D01*
X120212Y701043D01*
X119038Y703077D01*
X117377Y704738D01*
X115343Y705912D01*
X113074Y706520D01*
D02*
G37*
G36*
X87674D02*
X85326D01*
X83057Y705912D01*
X81023Y704738D01*
X79362Y703077D01*
X78188Y701043D01*
X77580Y698774D01*
Y696426D01*
X78188Y694157D01*
X79362Y692123D01*
X81023Y690462D01*
X83057Y689288D01*
X85326Y688680D01*
X87674D01*
X89943Y689288D01*
X91977Y690462D01*
X93638Y692123D01*
X94812Y694157D01*
X95420Y696426D01*
Y698774D01*
X94812Y701043D01*
X93638Y703077D01*
X91977Y704738D01*
X89943Y705912D01*
X87674Y706520D01*
D02*
G37*
G36*
X62274D02*
X59926D01*
X57657Y705912D01*
X55623Y704738D01*
X53962Y703077D01*
X52788Y701043D01*
X52180Y698774D01*
Y696426D01*
X52788Y694157D01*
X53962Y692123D01*
X55623Y690462D01*
X57657Y689288D01*
X59926Y688680D01*
X62274D01*
X64543Y689288D01*
X66577Y690462D01*
X68238Y692123D01*
X69412Y694157D01*
X70020Y696426D01*
Y698774D01*
X69412Y701043D01*
X68238Y703077D01*
X66577Y704738D01*
X64543Y705912D01*
X62274Y706520D01*
D02*
G37*
G36*
X36874D02*
X34526D01*
X32257Y705912D01*
X30223Y704738D01*
X28562Y703077D01*
X27388Y701043D01*
X26780Y698774D01*
Y696426D01*
X27388Y694157D01*
X28562Y692123D01*
X30223Y690462D01*
X32257Y689288D01*
X34526Y688680D01*
X36874D01*
X39143Y689288D01*
X41177Y690462D01*
X42838Y692123D01*
X44012Y694157D01*
X44620Y696426D01*
Y698774D01*
X44012Y701043D01*
X42838Y703077D01*
X41177Y704738D01*
X39143Y705912D01*
X36874Y706520D01*
D02*
G37*
G36*
X323429Y691340D02*
X321731D01*
X320161Y690690D01*
X318960Y689489D01*
X318310Y687919D01*
Y686221D01*
X318960Y684651D01*
X320161Y683450D01*
X321731Y682800D01*
X323429D01*
X324999Y683450D01*
X326200Y684651D01*
X326850Y686221D01*
Y687919D01*
X326200Y689489D01*
X324999Y690690D01*
X323429Y691340D01*
D02*
G37*
G36*
X445700Y693102D02*
X443300D01*
X441083Y692184D01*
X439386Y690487D01*
X438468Y688270D01*
Y685870D01*
X439386Y683653D01*
X441083Y681956D01*
X443300Y681038D01*
X445700D01*
X447917Y681956D01*
X449614Y683653D01*
X450532Y685870D01*
Y688270D01*
X449614Y690487D01*
X447917Y692184D01*
X445700Y693102D01*
D02*
G37*
G36*
X867737Y687853D02*
X865735D01*
X863885Y687087D01*
X862470Y685672D01*
X861704Y683822D01*
Y681820D01*
X862470Y679971D01*
X863885Y678555D01*
X865735Y677789D01*
X867737D01*
X869586Y678555D01*
X871002Y679971D01*
X871768Y681820D01*
Y683822D01*
X871002Y685672D01*
X869586Y687087D01*
X867737Y687853D01*
D02*
G37*
G36*
X638389Y678640D02*
X636691D01*
X635121Y677990D01*
X633920Y676789D01*
X633270Y675219D01*
Y673521D01*
X633920Y671951D01*
X635121Y670750D01*
X636691Y670100D01*
X638389D01*
X639959Y670750D01*
X641160Y671951D01*
X641810Y673521D01*
Y675219D01*
X641160Y676789D01*
X639959Y677990D01*
X638389Y678640D01*
D02*
G37*
G36*
X323429D02*
X321731D01*
X320161Y677990D01*
X318960Y676789D01*
X318310Y675219D01*
Y673521D01*
X318960Y671951D01*
X320161Y670750D01*
X321731Y670100D01*
X323429D01*
X324999Y670750D01*
X326200Y671951D01*
X326850Y673521D01*
Y675219D01*
X326200Y676789D01*
X324999Y677990D01*
X323429Y678640D01*
D02*
G37*
G36*
X113074Y681120D02*
X110726D01*
X108457Y680512D01*
X106423Y679338D01*
X104762Y677677D01*
X103588Y675643D01*
X102980Y673374D01*
Y671026D01*
X103588Y668757D01*
X104762Y666723D01*
X106423Y665062D01*
X108457Y663888D01*
X110726Y663280D01*
X113074D01*
X115343Y663888D01*
X117377Y665062D01*
X119038Y666723D01*
X120212Y668757D01*
X120820Y671026D01*
Y673374D01*
X120212Y675643D01*
X119038Y677677D01*
X117377Y679338D01*
X115343Y680512D01*
X113074Y681120D01*
D02*
G37*
G36*
X87674D02*
X85326D01*
X83057Y680512D01*
X81023Y679338D01*
X79362Y677677D01*
X78188Y675643D01*
X77580Y673374D01*
Y671026D01*
X78188Y668757D01*
X79362Y666723D01*
X81023Y665062D01*
X83057Y663888D01*
X85326Y663280D01*
X87674D01*
X89943Y663888D01*
X91977Y665062D01*
X93638Y666723D01*
X94812Y668757D01*
X95420Y671026D01*
Y673374D01*
X94812Y675643D01*
X93638Y677677D01*
X91977Y679338D01*
X89943Y680512D01*
X87674Y681120D01*
D02*
G37*
G36*
X62274D02*
X59926D01*
X57657Y680512D01*
X55623Y679338D01*
X53962Y677677D01*
X52788Y675643D01*
X52180Y673374D01*
Y671026D01*
X52788Y668757D01*
X53962Y666723D01*
X55623Y665062D01*
X57657Y663888D01*
X59926Y663280D01*
X62274D01*
X64543Y663888D01*
X66577Y665062D01*
X68238Y666723D01*
X69412Y668757D01*
X70020Y671026D01*
Y673374D01*
X69412Y675643D01*
X68238Y677677D01*
X66577Y679338D01*
X64543Y680512D01*
X62274Y681120D01*
D02*
G37*
G36*
X36874D02*
X34526D01*
X32257Y680512D01*
X30223Y679338D01*
X28562Y677677D01*
X27388Y675643D01*
X26780Y673374D01*
Y671026D01*
X27388Y668757D01*
X28562Y666723D01*
X30223Y665062D01*
X32257Y663888D01*
X34526Y663280D01*
X36874D01*
X39143Y663888D01*
X41177Y665062D01*
X42838Y666723D01*
X44012Y668757D01*
X44620Y671026D01*
Y673374D01*
X44012Y675643D01*
X42838Y677677D01*
X41177Y679338D01*
X39143Y680512D01*
X36874Y681120D01*
D02*
G37*
G36*
X868031Y669242D02*
X866029D01*
X864180Y668476D01*
X862764Y667060D01*
X861998Y665211D01*
Y663209D01*
X862764Y661360D01*
X864180Y659944D01*
X866029Y659178D01*
X868031D01*
X869880Y659944D01*
X871296Y661360D01*
X872062Y663209D01*
Y665211D01*
X871296Y667060D01*
X869880Y668476D01*
X868031Y669242D01*
D02*
G37*
G36*
X827310Y666901D02*
X825611D01*
X824042Y666251D01*
X822841Y665050D01*
X822191Y663480D01*
Y661781D01*
X822841Y660212D01*
X824042Y659011D01*
X825611Y658361D01*
X827310D01*
X828879Y659011D01*
X830081Y660212D01*
X830731Y661781D01*
Y663480D01*
X830081Y665050D01*
X828879Y666251D01*
X827310Y666901D01*
D02*
G37*
G36*
X615880Y668972D02*
X613480D01*
X611263Y668054D01*
X609566Y666357D01*
X608648Y664140D01*
Y661740D01*
X609566Y659523D01*
X611263Y657826D01*
X613480Y656908D01*
X615880D01*
X618097Y657826D01*
X619794Y659523D01*
X620712Y661740D01*
Y664140D01*
X619794Y666357D01*
X618097Y668054D01*
X615880Y668972D01*
D02*
G37*
G36*
X644739Y667210D02*
X643041D01*
X641471Y666560D01*
X640270Y665359D01*
X639620Y663789D01*
Y662091D01*
X640270Y660521D01*
X641471Y659320D01*
X641644Y659249D01*
X641698Y657896D01*
X640497Y656695D01*
X639846Y655126D01*
Y653427D01*
X640497Y651858D01*
X641698Y650657D01*
X643267Y650006D01*
X644966D01*
X646535Y650657D01*
X647736Y651858D01*
X648386Y653427D01*
Y655126D01*
X647736Y656695D01*
X646535Y657896D01*
X646363Y657968D01*
X646309Y659320D01*
X647510Y660521D01*
X648160Y662091D01*
Y663789D01*
X647510Y665359D01*
X646309Y666560D01*
X644739Y667210D01*
D02*
G37*
G36*
X827619Y650700D02*
X825921D01*
X824351Y650050D01*
X823150Y648849D01*
X822500Y647279D01*
Y645581D01*
X823150Y644011D01*
X824351Y642810D01*
X825921Y642160D01*
X827619D01*
X829189Y642810D01*
X830390Y644011D01*
X831040Y645581D01*
Y647279D01*
X830390Y648849D01*
X829189Y650050D01*
X827619Y650700D01*
D02*
G37*
G36*
X113074Y655720D02*
X110726D01*
X108457Y655112D01*
X106423Y653938D01*
X104762Y652277D01*
X103588Y650243D01*
X102980Y647974D01*
Y645626D01*
X103588Y643357D01*
X104762Y641323D01*
X106423Y639662D01*
X108457Y638488D01*
X110726Y637880D01*
X113074D01*
X115343Y638488D01*
X117377Y639662D01*
X119038Y641323D01*
X120212Y643357D01*
X120820Y645626D01*
Y647974D01*
X120212Y650243D01*
X119038Y652277D01*
X117377Y653938D01*
X115343Y655112D01*
X113074Y655720D01*
D02*
G37*
G36*
X87674D02*
X85326D01*
X83057Y655112D01*
X81023Y653938D01*
X79362Y652277D01*
X78188Y650243D01*
X77580Y647974D01*
Y645626D01*
X78188Y643357D01*
X79362Y641323D01*
X81023Y639662D01*
X83057Y638488D01*
X85326Y637880D01*
X87674D01*
X89943Y638488D01*
X91977Y639662D01*
X93638Y641323D01*
X94812Y643357D01*
X95420Y645626D01*
Y647974D01*
X94812Y650243D01*
X93638Y652277D01*
X91977Y653938D01*
X89943Y655112D01*
X87674Y655720D01*
D02*
G37*
G36*
X62274D02*
X59926D01*
X57657Y655112D01*
X55623Y653938D01*
X53962Y652277D01*
X52788Y650243D01*
X52180Y647974D01*
Y645626D01*
X52788Y643357D01*
X53962Y641323D01*
X55623Y639662D01*
X57657Y638488D01*
X59926Y637880D01*
X62274D01*
X64543Y638488D01*
X66577Y639662D01*
X68238Y641323D01*
X69412Y643357D01*
X70020Y645626D01*
Y647974D01*
X69412Y650243D01*
X68238Y652277D01*
X66577Y653938D01*
X64543Y655112D01*
X62274Y655720D01*
D02*
G37*
G36*
X36874D02*
X34526D01*
X32257Y655112D01*
X30223Y653938D01*
X28562Y652277D01*
X27388Y650243D01*
X26780Y647974D01*
Y645626D01*
X27388Y643357D01*
X28562Y641323D01*
X30223Y639662D01*
X32257Y638488D01*
X34526Y637880D01*
X36874D01*
X39143Y638488D01*
X41177Y639662D01*
X42838Y641323D01*
X44012Y643357D01*
X44620Y645626D01*
Y647974D01*
X44012Y650243D01*
X42838Y652277D01*
X41177Y653938D01*
X39143Y655112D01*
X36874Y655720D01*
D02*
G37*
G36*
X868411Y636222D02*
X866409D01*
X864560Y635456D01*
X863144Y634040D01*
X862378Y632191D01*
Y630189D01*
X863144Y628340D01*
X864560Y626924D01*
X866409Y626158D01*
X868411D01*
X870260Y626924D01*
X871676Y628340D01*
X872442Y630189D01*
Y632191D01*
X871676Y634040D01*
X870260Y635456D01*
X868411Y636222D01*
D02*
G37*
G36*
X827619Y631650D02*
X825921D01*
X824351Y631000D01*
X823150Y629799D01*
X822500Y628229D01*
Y626531D01*
X823150Y624961D01*
X824351Y623760D01*
X825921Y623110D01*
X827619D01*
X829189Y623760D01*
X830390Y624961D01*
X831040Y626531D01*
Y628229D01*
X830390Y629799D01*
X829189Y631000D01*
X827619Y631650D01*
D02*
G37*
G36*
X579969Y627840D02*
X578271D01*
X576701Y627190D01*
X575500Y625989D01*
X574850Y624419D01*
Y622721D01*
X575500Y621151D01*
X576701Y619950D01*
X578271Y619300D01*
X579969D01*
X581539Y619950D01*
X582740Y621151D01*
X583390Y622721D01*
Y624419D01*
X582740Y625989D01*
X581539Y627190D01*
X579969Y627840D01*
D02*
G37*
G36*
X543139D02*
X541441D01*
X539871Y627190D01*
X538670Y625989D01*
X538020Y624419D01*
Y622721D01*
X538670Y621151D01*
X539871Y619950D01*
X541441Y619300D01*
X543139D01*
X544709Y619950D01*
X545910Y621151D01*
X546560Y622721D01*
Y624419D01*
X545910Y625989D01*
X544709Y627190D01*
X543139Y627840D01*
D02*
G37*
G36*
X113074Y630320D02*
X110726D01*
X108457Y629712D01*
X106423Y628538D01*
X104762Y626877D01*
X103588Y624843D01*
X102980Y622574D01*
Y620226D01*
X103588Y617957D01*
X104762Y615923D01*
X106423Y614262D01*
X108457Y613088D01*
X110726Y612480D01*
X113074D01*
X115343Y613088D01*
X117377Y614262D01*
X119038Y615923D01*
X120212Y617957D01*
X120820Y620226D01*
Y622574D01*
X120212Y624843D01*
X119038Y626877D01*
X117377Y628538D01*
X115343Y629712D01*
X113074Y630320D01*
D02*
G37*
G36*
X87674D02*
X85326D01*
X83057Y629712D01*
X81023Y628538D01*
X79362Y626877D01*
X78188Y624843D01*
X77580Y622574D01*
Y620226D01*
X78188Y617957D01*
X79362Y615923D01*
X81023Y614262D01*
X83057Y613088D01*
X85326Y612480D01*
X87674D01*
X89943Y613088D01*
X91977Y614262D01*
X93638Y615923D01*
X94812Y617957D01*
X95420Y620226D01*
Y622574D01*
X94812Y624843D01*
X93638Y626877D01*
X91977Y628538D01*
X89943Y629712D01*
X87674Y630320D01*
D02*
G37*
G36*
X62274D02*
X59926D01*
X57657Y629712D01*
X55623Y628538D01*
X53962Y626877D01*
X52788Y624843D01*
X52180Y622574D01*
Y620226D01*
X52788Y617957D01*
X53962Y615923D01*
X55623Y614262D01*
X57657Y613088D01*
X59926Y612480D01*
X62274D01*
X64543Y613088D01*
X66577Y614262D01*
X68238Y615923D01*
X69412Y617957D01*
X70020Y620226D01*
Y622574D01*
X69412Y624843D01*
X68238Y626877D01*
X66577Y628538D01*
X64543Y629712D01*
X62274Y630320D01*
D02*
G37*
G36*
X36874D02*
X34526D01*
X32257Y629712D01*
X30223Y628538D01*
X28562Y626877D01*
X27388Y624843D01*
X26780Y622574D01*
Y620226D01*
X27388Y617957D01*
X28562Y615923D01*
X30223Y614262D01*
X32257Y613088D01*
X34526Y612480D01*
X36874D01*
X39143Y613088D01*
X41177Y614262D01*
X42838Y615923D01*
X44012Y617957D01*
X44620Y620226D01*
Y622574D01*
X44012Y624843D01*
X42838Y626877D01*
X41177Y628538D01*
X39143Y629712D01*
X36874Y630320D01*
D02*
G37*
G36*
X339090Y621135D02*
X339090Y621135D01*
X312420D01*
X311448Y620732D01*
X311045Y619760D01*
Y606099D01*
X181715D01*
Y613476D01*
X181610Y613728D01*
Y614002D01*
X181203Y614986D01*
X181009Y615179D01*
X180905Y615432D01*
X180152Y616185D01*
X179899Y616289D01*
X179706Y616483D01*
X178722Y616890D01*
X178448D01*
X178196Y616995D01*
X149530D01*
X149277Y616890D01*
X149004D01*
X148141Y616533D01*
X147948Y616339D01*
X147695Y616235D01*
X147035Y615575D01*
X146931Y615322D01*
X146737Y615129D01*
X146380Y614266D01*
Y613993D01*
X146275Y613740D01*
Y591239D01*
X146380Y590987D01*
Y590713D01*
X146931Y589382D01*
X147125Y589189D01*
X147229Y588936D01*
X148248Y587918D01*
X148500Y587813D01*
X148694Y587620D01*
X150025Y587068D01*
X150298D01*
X150551Y586964D01*
X150714D01*
X150795Y586882D01*
X150795D01*
X150887Y586790D01*
X151008Y586740D01*
X151281Y586740D01*
X151413Y586685D01*
X151413Y586685D01*
X151534Y586635D01*
X163725D01*
Y543560D01*
X164128Y542588D01*
X165100Y542185D01*
X180340D01*
X181312Y542588D01*
X181715Y543560D01*
Y600401D01*
X307948D01*
X308671Y599131D01*
X308505Y598730D01*
X308505Y598730D01*
Y575310D01*
X308908Y574338D01*
X308908Y574338D01*
X311448Y571798D01*
X312420Y571395D01*
X312420Y571395D01*
X322580D01*
X323552Y571798D01*
X323552Y571798D01*
X326092Y574338D01*
X326495Y575310D01*
X326495Y575310D01*
Y581091D01*
X329499Y584095D01*
X340360D01*
X340360Y584095D01*
X341332Y584498D01*
X341332Y584498D01*
X342602Y585768D01*
X343005Y586740D01*
X343005Y586740D01*
X343005Y617220D01*
X342602Y618192D01*
X342602Y618192D01*
X340062Y620732D01*
X339090Y621135D01*
D02*
G37*
G36*
X579969Y602440D02*
X578271D01*
X576701Y601790D01*
X575500Y600589D01*
X574850Y599019D01*
Y597321D01*
X575500Y595751D01*
X576701Y594550D01*
X578271Y593900D01*
X579969D01*
X581539Y594550D01*
X582740Y595751D01*
X583390Y597321D01*
Y599019D01*
X582740Y600589D01*
X581539Y601790D01*
X579969Y602440D01*
D02*
G37*
G36*
X543139D02*
X541441D01*
X539871Y601790D01*
X538670Y600589D01*
X538020Y599019D01*
Y597321D01*
X538670Y595751D01*
X539871Y594550D01*
X541441Y593900D01*
X543139D01*
X544709Y594550D01*
X545910Y595751D01*
X546560Y597321D01*
Y599019D01*
X545910Y600589D01*
X544709Y601790D01*
X543139Y602440D01*
D02*
G37*
G36*
X868411Y603202D02*
X866409D01*
X864560Y602436D01*
X863144Y601020D01*
X862378Y599171D01*
Y597169D01*
X863144Y595320D01*
X864560Y593904D01*
X866409Y593138D01*
X868411D01*
X870260Y593904D01*
X871676Y595320D01*
X872442Y597169D01*
Y599171D01*
X871676Y601020D01*
X870260Y602436D01*
X868411Y603202D01*
D02*
G37*
G36*
X113074Y604920D02*
X110726D01*
X108457Y604312D01*
X106423Y603138D01*
X104762Y601477D01*
X103588Y599443D01*
X102980Y597174D01*
Y594826D01*
X103588Y592557D01*
X104762Y590523D01*
X106423Y588862D01*
X108457Y587688D01*
X110726Y587080D01*
X113074D01*
X115343Y587688D01*
X117377Y588862D01*
X119038Y590523D01*
X120212Y592557D01*
X120820Y594826D01*
Y597174D01*
X120212Y599443D01*
X119038Y601477D01*
X117377Y603138D01*
X115343Y604312D01*
X113074Y604920D01*
D02*
G37*
G36*
X87674D02*
X85326D01*
X83057Y604312D01*
X81023Y603138D01*
X79362Y601477D01*
X78188Y599443D01*
X77580Y597174D01*
Y594826D01*
X78188Y592557D01*
X79362Y590523D01*
X81023Y588862D01*
X83057Y587688D01*
X85326Y587080D01*
X87674D01*
X89943Y587688D01*
X91977Y588862D01*
X93638Y590523D01*
X94812Y592557D01*
X95420Y594826D01*
Y597174D01*
X94812Y599443D01*
X93638Y601477D01*
X91977Y603138D01*
X89943Y604312D01*
X87674Y604920D01*
D02*
G37*
G36*
X62274D02*
X59926D01*
X57657Y604312D01*
X55623Y603138D01*
X53962Y601477D01*
X52788Y599443D01*
X52180Y597174D01*
Y594826D01*
X52788Y592557D01*
X53962Y590523D01*
X55623Y588862D01*
X57657Y587688D01*
X59926Y587080D01*
X62274D01*
X64543Y587688D01*
X66577Y588862D01*
X68238Y590523D01*
X69412Y592557D01*
X70020Y594826D01*
Y597174D01*
X69412Y599443D01*
X68238Y601477D01*
X66577Y603138D01*
X64543Y604312D01*
X62274Y604920D01*
D02*
G37*
G36*
X36874D02*
X34526D01*
X32257Y604312D01*
X30223Y603138D01*
X28562Y601477D01*
X27388Y599443D01*
X26780Y597174D01*
Y594826D01*
X27388Y592557D01*
X28562Y590523D01*
X30223Y588862D01*
X32257Y587688D01*
X34526Y587080D01*
X36874D01*
X39143Y587688D01*
X41177Y588862D01*
X42838Y590523D01*
X44012Y592557D01*
X44620Y594826D01*
Y597174D01*
X44012Y599443D01*
X42838Y601477D01*
X41177Y603138D01*
X39143Y604312D01*
X36874Y604920D01*
D02*
G37*
G36*
X634468Y594781D02*
X632770D01*
X631200Y594130D01*
X629999Y592929D01*
X629349Y591360D01*
Y589661D01*
X629999Y588092D01*
X631200Y586891D01*
X632770Y586241D01*
X634468D01*
X636038Y586891D01*
X637239Y588092D01*
X637889Y589661D01*
Y591360D01*
X637239Y592929D01*
X636038Y594130D01*
X634468Y594781D01*
D02*
G37*
G36*
X841589Y592280D02*
X839891D01*
X838321Y591630D01*
X837120Y590429D01*
X836470Y588859D01*
Y587161D01*
X837120Y585591D01*
X838321Y584390D01*
X839891Y583740D01*
X841589D01*
X843159Y584390D01*
X844360Y585591D01*
X845010Y587161D01*
Y588859D01*
X844360Y590429D01*
X843159Y591630D01*
X841589Y592280D01*
D02*
G37*
G36*
X203850Y590010D02*
X202550D01*
X201348Y589512D01*
X200428Y588592D01*
X199930Y587390D01*
Y586090D01*
X200428Y584888D01*
X201348Y583968D01*
X202550Y583470D01*
X203850D01*
X205052Y583968D01*
X205972Y584888D01*
X206470Y586090D01*
Y587390D01*
X205972Y588592D01*
X205052Y589512D01*
X203850Y590010D01*
D02*
G37*
G36*
X146899Y584660D02*
X145201D01*
X143631Y584010D01*
X142430Y582809D01*
X141780Y581239D01*
Y579541D01*
X142430Y577971D01*
X143631Y576770D01*
X145201Y576120D01*
X146899D01*
X148469Y576770D01*
X149670Y577971D01*
X150320Y579541D01*
Y581239D01*
X149670Y582809D01*
X148469Y584010D01*
X146899Y584660D01*
D02*
G37*
G36*
X200040Y576040D02*
X198740D01*
X197538Y575542D01*
X196618Y574622D01*
X196120Y573420D01*
Y572120D01*
X196618Y570918D01*
X197538Y569998D01*
X198740Y569500D01*
X199036D01*
X199992Y568488D01*
Y567188D01*
X200490Y565986D01*
X201410Y565066D01*
X202612Y564568D01*
X203912D01*
X205114Y565066D01*
X206034Y565986D01*
X206532Y567188D01*
Y568488D01*
X206034Y569690D01*
X205114Y570610D01*
X203912Y571108D01*
X203616D01*
X202660Y572120D01*
Y573420D01*
X202162Y574622D01*
X201242Y575542D01*
X200040Y576040D01*
D02*
G37*
G36*
X113074Y579520D02*
X110726D01*
X108457Y578912D01*
X106423Y577738D01*
X104762Y576077D01*
X103588Y574043D01*
X102980Y571774D01*
Y569426D01*
X103588Y567157D01*
X104762Y565123D01*
X106423Y563462D01*
X108457Y562288D01*
X110726Y561680D01*
X113074D01*
X115343Y562288D01*
X117377Y563462D01*
X119038Y565123D01*
X120212Y567157D01*
X120820Y569426D01*
Y571774D01*
X120212Y574043D01*
X119038Y576077D01*
X117377Y577738D01*
X115343Y578912D01*
X113074Y579520D01*
D02*
G37*
G36*
X87674D02*
X85326D01*
X83057Y578912D01*
X81023Y577738D01*
X79362Y576077D01*
X78188Y574043D01*
X77580Y571774D01*
Y569426D01*
X78188Y567157D01*
X79362Y565123D01*
X81023Y563462D01*
X83057Y562288D01*
X85326Y561680D01*
X87674D01*
X89943Y562288D01*
X91977Y563462D01*
X93638Y565123D01*
X94812Y567157D01*
X95420Y569426D01*
Y571774D01*
X94812Y574043D01*
X93638Y576077D01*
X91977Y577738D01*
X89943Y578912D01*
X87674Y579520D01*
D02*
G37*
G36*
X62274D02*
X59926D01*
X57657Y578912D01*
X55623Y577738D01*
X53962Y576077D01*
X52788Y574043D01*
X52180Y571774D01*
Y569426D01*
X52788Y567157D01*
X53962Y565123D01*
X55623Y563462D01*
X57657Y562288D01*
X59926Y561680D01*
X62274D01*
X64543Y562288D01*
X66577Y563462D01*
X68238Y565123D01*
X69412Y567157D01*
X70020Y569426D01*
Y571774D01*
X69412Y574043D01*
X68238Y576077D01*
X66577Y577738D01*
X64543Y578912D01*
X62274Y579520D01*
D02*
G37*
G36*
X36874D02*
X34526D01*
X32257Y578912D01*
X30223Y577738D01*
X28562Y576077D01*
X27388Y574043D01*
X26780Y571774D01*
Y569426D01*
X27388Y567157D01*
X28562Y565123D01*
X30223Y563462D01*
X32257Y562288D01*
X34526Y561680D01*
X36874D01*
X39143Y562288D01*
X41177Y563462D01*
X42838Y565123D01*
X44012Y567157D01*
X44620Y569426D01*
Y571774D01*
X44012Y574043D01*
X42838Y576077D01*
X41177Y577738D01*
X39143Y578912D01*
X36874Y579520D01*
D02*
G37*
G36*
X755229Y563070D02*
X753531D01*
X751961Y562420D01*
X750760Y561219D01*
X750110Y559649D01*
Y557951D01*
X750760Y556381D01*
X751961Y555180D01*
X753531Y554530D01*
X755229D01*
X756799Y555180D01*
X758000Y556381D01*
X758650Y557951D01*
Y559649D01*
X758000Y561219D01*
X756799Y562420D01*
X755229Y563070D01*
D02*
G37*
G36*
X745069D02*
X743371D01*
X741801Y562420D01*
X740600Y561219D01*
X739950Y559649D01*
Y557951D01*
X740600Y556381D01*
X741801Y555180D01*
X743371Y554530D01*
X745069D01*
X746639Y555180D01*
X747840Y556381D01*
X748490Y557951D01*
Y559649D01*
X747840Y561219D01*
X746639Y562420D01*
X745069Y563070D01*
D02*
G37*
G36*
X584130Y564832D02*
X581730D01*
X579513Y563914D01*
X577816Y562217D01*
X576898Y560000D01*
Y557600D01*
X577816Y555383D01*
X579513Y553686D01*
X581730Y552768D01*
X584130D01*
X586347Y553686D01*
X588044Y555383D01*
X588962Y557600D01*
Y560000D01*
X588044Y562217D01*
X586347Y563914D01*
X584130Y564832D01*
D02*
G37*
G36*
X703311Y554942D02*
X701309D01*
X699460Y554176D01*
X698044Y552760D01*
X697278Y550911D01*
Y548909D01*
X698044Y547060D01*
X699460Y545644D01*
X701309Y544878D01*
X703311D01*
X705160Y545644D01*
X706576Y547060D01*
X707342Y548909D01*
Y550911D01*
X706576Y552760D01*
X705160Y554176D01*
X703311Y554942D01*
D02*
G37*
G36*
X113074Y554120D02*
X110726D01*
X108457Y553512D01*
X106423Y552338D01*
X104762Y550677D01*
X103588Y548643D01*
X102980Y546374D01*
Y544026D01*
X103588Y541757D01*
X104762Y539723D01*
X106423Y538062D01*
X108457Y536888D01*
X110726Y536280D01*
X113074D01*
X115343Y536888D01*
X117377Y538062D01*
X119038Y539723D01*
X120212Y541757D01*
X120820Y544026D01*
Y546374D01*
X120212Y548643D01*
X119038Y550677D01*
X117377Y552338D01*
X115343Y553512D01*
X113074Y554120D01*
D02*
G37*
G36*
X87674D02*
X85326D01*
X83057Y553512D01*
X81023Y552338D01*
X79362Y550677D01*
X78188Y548643D01*
X77580Y546374D01*
Y544026D01*
X78188Y541757D01*
X79362Y539723D01*
X81023Y538062D01*
X83057Y536888D01*
X85326Y536280D01*
X87674D01*
X89943Y536888D01*
X91977Y538062D01*
X93638Y539723D01*
X94812Y541757D01*
X95420Y544026D01*
Y546374D01*
X94812Y548643D01*
X93638Y550677D01*
X91977Y552338D01*
X89943Y553512D01*
X87674Y554120D01*
D02*
G37*
G36*
X62274D02*
X59926D01*
X57657Y553512D01*
X55623Y552338D01*
X53962Y550677D01*
X52788Y548643D01*
X52180Y546374D01*
Y544026D01*
X52788Y541757D01*
X53962Y539723D01*
X55623Y538062D01*
X57657Y536888D01*
X59926Y536280D01*
X62274D01*
X64543Y536888D01*
X66577Y538062D01*
X68238Y539723D01*
X69412Y541757D01*
X70020Y544026D01*
Y546374D01*
X69412Y548643D01*
X68238Y550677D01*
X66577Y552338D01*
X64543Y553512D01*
X62274Y554120D01*
D02*
G37*
G36*
X36874D02*
X34526D01*
X32257Y553512D01*
X30223Y552338D01*
X28562Y550677D01*
X27388Y548643D01*
X26780Y546374D01*
Y544026D01*
X27388Y541757D01*
X28562Y539723D01*
X30223Y538062D01*
X32257Y536888D01*
X34526Y536280D01*
X36874D01*
X39143Y536888D01*
X41177Y538062D01*
X42838Y539723D01*
X44012Y541757D01*
X44620Y544026D01*
Y546374D01*
X44012Y548643D01*
X42838Y550677D01*
X41177Y552338D01*
X39143Y553512D01*
X36874Y554120D01*
D02*
G37*
G36*
X684299Y543830D02*
X682601D01*
X681031Y543180D01*
X679830Y541979D01*
X679180Y540409D01*
Y538711D01*
X679830Y537141D01*
X681031Y535940D01*
X682601Y535290D01*
X684299D01*
X685869Y535940D01*
X687070Y537141D01*
X687720Y538711D01*
Y540409D01*
X687070Y541979D01*
X685869Y543180D01*
X684299Y543830D01*
D02*
G37*
G36*
X535870Y545782D02*
X533470D01*
X531253Y544864D01*
X529556Y543167D01*
X528638Y540950D01*
Y538550D01*
X529556Y536333D01*
X531253Y534636D01*
X533470Y533718D01*
X535870D01*
X538087Y534636D01*
X539784Y536333D01*
X540702Y538550D01*
Y540950D01*
X539784Y543167D01*
X538087Y544864D01*
X535870Y545782D01*
D02*
G37*
G36*
X563611Y537162D02*
X561609D01*
X559760Y536396D01*
X558344Y534980D01*
X557578Y533131D01*
Y531129D01*
X558344Y529280D01*
X559760Y527864D01*
X561609Y527098D01*
X563611D01*
X565460Y527864D01*
X566876Y529280D01*
X567642Y531129D01*
Y533131D01*
X566876Y534980D01*
X565460Y536396D01*
X563611Y537162D01*
D02*
G37*
G36*
X577429Y532590D02*
X575731D01*
X574161Y531940D01*
X572960Y530739D01*
X572310Y529169D01*
Y527471D01*
X572960Y525901D01*
X574161Y524700D01*
X575731Y524050D01*
X577429D01*
X578999Y524700D01*
X580200Y525901D01*
X580850Y527471D01*
Y529169D01*
X580200Y530739D01*
X578999Y531940D01*
X577429Y532590D01*
D02*
G37*
G36*
X113074Y528720D02*
X110726D01*
X108457Y528112D01*
X106423Y526938D01*
X104762Y525277D01*
X103588Y523243D01*
X102980Y520974D01*
Y518626D01*
X103588Y516357D01*
X104762Y514323D01*
X106423Y512662D01*
X108457Y511488D01*
X110726Y510880D01*
X113074D01*
X115343Y511488D01*
X117377Y512662D01*
X119038Y514323D01*
X120212Y516357D01*
X120820Y518626D01*
Y520974D01*
X120212Y523243D01*
X119038Y525277D01*
X117377Y526938D01*
X115343Y528112D01*
X113074Y528720D01*
D02*
G37*
G36*
X87674D02*
X85326D01*
X83057Y528112D01*
X81023Y526938D01*
X79362Y525277D01*
X78188Y523243D01*
X77580Y520974D01*
Y518626D01*
X78188Y516357D01*
X79362Y514323D01*
X81023Y512662D01*
X83057Y511488D01*
X85326Y510880D01*
X87674D01*
X89943Y511488D01*
X91977Y512662D01*
X93638Y514323D01*
X94812Y516357D01*
X95420Y518626D01*
Y520974D01*
X94812Y523243D01*
X93638Y525277D01*
X91977Y526938D01*
X89943Y528112D01*
X87674Y528720D01*
D02*
G37*
G36*
X669021Y520652D02*
X667019D01*
X665170Y519886D01*
X663754Y518470D01*
X662988Y516621D01*
Y514619D01*
X663754Y512770D01*
X665170Y511354D01*
X667019Y510588D01*
X669021D01*
X670870Y511354D01*
X672286Y512770D01*
X673052Y514619D01*
Y516621D01*
X672286Y518470D01*
X670870Y519886D01*
X669021Y520652D01*
D02*
G37*
G36*
X866961Y497867D02*
X864562D01*
X862345Y496949D01*
X860648Y495252D01*
X859730Y493035D01*
Y490635D01*
X860648Y488419D01*
X862345Y486722D01*
X864562Y485803D01*
X866961D01*
X869178Y486722D01*
X870875Y488419D01*
X871794Y490635D01*
Y493035D01*
X870875Y495252D01*
X869178Y496949D01*
X866961Y497867D01*
D02*
G37*
G36*
X113074Y503320D02*
X110726D01*
X108457Y502712D01*
X106423Y501538D01*
X104762Y499877D01*
X103588Y497843D01*
X102980Y495574D01*
Y493226D01*
X103588Y490957D01*
X104762Y488923D01*
X106423Y487262D01*
X108457Y486088D01*
X110726Y485480D01*
X113074D01*
X115343Y486088D01*
X117377Y487262D01*
X119038Y488923D01*
X120212Y490957D01*
X120820Y493226D01*
Y495574D01*
X120212Y497843D01*
X119038Y499877D01*
X117377Y501538D01*
X115343Y502712D01*
X113074Y503320D01*
D02*
G37*
G36*
X87674D02*
X85326D01*
X83057Y502712D01*
X81023Y501538D01*
X79362Y499877D01*
X78188Y497843D01*
X77580Y495574D01*
Y493226D01*
X78188Y490957D01*
X79362Y488923D01*
X81023Y487262D01*
X83057Y486088D01*
X85326Y485480D01*
X87674D01*
X89943Y486088D01*
X91977Y487262D01*
X93638Y488923D01*
X94812Y490957D01*
X95420Y493226D01*
Y495574D01*
X94812Y497843D01*
X93638Y499877D01*
X91977Y501538D01*
X89943Y502712D01*
X87674Y503320D01*
D02*
G37*
G36*
X883850Y497522D02*
X881450D01*
X879233Y496604D01*
X877536Y494907D01*
X876618Y492690D01*
Y490290D01*
X877536Y488073D01*
X879233Y486376D01*
X881450Y485458D01*
X883850D01*
X886067Y486376D01*
X887764Y488073D01*
X888682Y490290D01*
Y492690D01*
X887764Y494907D01*
X886067Y496604D01*
X883850Y497522D01*
D02*
G37*
G36*
X192771Y499062D02*
X190769D01*
X188920Y498296D01*
X187504Y496880D01*
X186738Y495031D01*
Y493029D01*
X187504Y491180D01*
X188920Y489764D01*
X189226Y489637D01*
Y488263D01*
X188920Y488136D01*
X187504Y486720D01*
X186738Y484871D01*
Y482869D01*
X187504Y481020D01*
X188920Y479604D01*
X190769Y478838D01*
X192771D01*
X194620Y479604D01*
X196036Y481020D01*
X196802Y482869D01*
Y484871D01*
X196036Y486720D01*
X194620Y488136D01*
X194314Y488263D01*
Y489637D01*
X194620Y489764D01*
X196036Y491180D01*
X196802Y493029D01*
Y495031D01*
X196036Y496880D01*
X194620Y498296D01*
X192771Y499062D01*
D02*
G37*
G36*
X181341D02*
X179339D01*
X177490Y498296D01*
X176074Y496880D01*
X175308Y495031D01*
Y493029D01*
X176074Y491180D01*
X177490Y489764D01*
X177796Y489637D01*
Y488263D01*
X177490Y488136D01*
X176074Y486720D01*
X175308Y484871D01*
Y482869D01*
X176074Y481020D01*
X177490Y479604D01*
X179339Y478838D01*
X181341D01*
X183190Y479604D01*
X184606Y481020D01*
X185372Y482869D01*
Y484871D01*
X184606Y486720D01*
X183190Y488136D01*
X182884Y488263D01*
Y489637D01*
X183190Y489764D01*
X184606Y491180D01*
X185372Y493029D01*
Y495031D01*
X184606Y496880D01*
X183190Y498296D01*
X181341Y499062D01*
D02*
G37*
G36*
X795418Y486025D02*
X793018D01*
X790801Y485107D01*
X789104Y483410D01*
X788186Y481193D01*
Y478793D01*
X789104Y476576D01*
X790801Y474880D01*
X793018Y473961D01*
X795418D01*
X797635Y474880D01*
X799332Y476576D01*
X800250Y478793D01*
Y481193D01*
X799332Y483410D01*
X797635Y485107D01*
X795418Y486025D01*
D02*
G37*
G36*
X113074Y477920D02*
X110726D01*
X108457Y477312D01*
X106423Y476138D01*
X104762Y474477D01*
X103588Y472443D01*
X102980Y470174D01*
Y467826D01*
X103588Y465557D01*
X104762Y463523D01*
X106423Y461862D01*
X108457Y460688D01*
X110726Y460080D01*
X113074D01*
X115343Y460688D01*
X117377Y461862D01*
X119038Y463523D01*
X120212Y465557D01*
X120820Y467826D01*
Y470174D01*
X120212Y472443D01*
X119038Y474477D01*
X117377Y476138D01*
X115343Y477312D01*
X113074Y477920D01*
D02*
G37*
G36*
X87775Y478682D02*
X85225D01*
X82763Y478022D01*
X80555Y476748D01*
X78752Y474945D01*
X77478Y472737D01*
X76818Y470275D01*
Y467725D01*
X77478Y465263D01*
X78752Y463055D01*
X80555Y461253D01*
X82763Y459978D01*
X85225Y459318D01*
X87775D01*
X90237Y459978D01*
X92445Y461253D01*
X94248Y463055D01*
X95522Y465263D01*
X96182Y467725D01*
Y470275D01*
X95522Y472737D01*
X94248Y474945D01*
X92445Y476748D01*
X90237Y478022D01*
X87775Y478682D01*
D02*
G37*
G36*
X62375D02*
X59825D01*
X57363Y478022D01*
X55155Y476748D01*
X53352Y474945D01*
X52078Y472737D01*
X51418Y470275D01*
Y467725D01*
X52078Y465263D01*
X53352Y463055D01*
X55155Y461253D01*
X57363Y459978D01*
X59825Y459318D01*
X62375D01*
X64837Y459978D01*
X67045Y461253D01*
X68847Y463055D01*
X70122Y465263D01*
X70782Y467725D01*
Y470275D01*
X70122Y472737D01*
X68847Y474945D01*
X67045Y476748D01*
X64837Y478022D01*
X62375Y478682D01*
D02*
G37*
G36*
X36975D02*
X34425D01*
X31963Y478022D01*
X29755Y476748D01*
X27952Y474945D01*
X26678Y472737D01*
X26018Y470275D01*
Y467725D01*
X26678Y465263D01*
X27952Y463055D01*
X29755Y461253D01*
X31963Y459978D01*
X34425Y459318D01*
X36975D01*
X39437Y459978D01*
X41645Y461253D01*
X43447Y463055D01*
X44722Y465263D01*
X45382Y467725D01*
Y470275D01*
X44722Y472737D01*
X43447Y474945D01*
X41645Y476748D01*
X39437Y478022D01*
X36975Y478682D01*
D02*
G37*
G36*
X546759Y466740D02*
X545061D01*
X543491Y466090D01*
X542290Y464889D01*
X541640Y463319D01*
Y461621D01*
X542290Y460051D01*
X543491Y458850D01*
X545061Y458200D01*
X546759D01*
X548329Y458850D01*
X549530Y460051D01*
X550180Y461621D01*
Y463319D01*
X549530Y464889D01*
X548329Y466090D01*
X546759Y466740D01*
D02*
G37*
G36*
X599019Y466550D02*
X597321D01*
X595751Y465900D01*
X594550Y464699D01*
X593900Y463129D01*
Y461431D01*
X594550Y459861D01*
X595751Y458660D01*
X597321Y458010D01*
X599019D01*
X600589Y458660D01*
X601790Y459861D01*
X602440Y461431D01*
Y463129D01*
X601790Y464699D01*
X600589Y465900D01*
X599019Y466550D01*
D02*
G37*
G36*
X529169D02*
X527471D01*
X525901Y465900D01*
X524700Y464699D01*
X524050Y463129D01*
Y461431D01*
X524700Y459861D01*
X525901Y458660D01*
X527471Y458010D01*
X529169D01*
X530739Y458660D01*
X531940Y459861D01*
X532590Y461431D01*
Y463129D01*
X531940Y464699D01*
X530739Y465900D01*
X529169Y466550D01*
D02*
G37*
G36*
X562341Y467312D02*
X560339D01*
X558490Y466546D01*
X557074Y465130D01*
X556308Y463281D01*
Y461279D01*
X557074Y459430D01*
X558490Y458014D01*
X560339Y457248D01*
X562341D01*
X564190Y458014D01*
X565606Y459430D01*
X566372Y461279D01*
Y463281D01*
X565606Y465130D01*
X564190Y466546D01*
X562341Y467312D01*
D02*
G37*
G36*
X512811D02*
X510809D01*
X508960Y466546D01*
X507544Y465130D01*
X506778Y463281D01*
Y461279D01*
X507544Y459430D01*
X508960Y458014D01*
X510809Y457248D01*
X512811D01*
X514660Y458014D01*
X516076Y459430D01*
X516842Y461279D01*
Y463281D01*
X516076Y465130D01*
X514660Y466546D01*
X512811Y467312D01*
D02*
G37*
G36*
X583958Y467608D02*
X581559D01*
X579342Y466689D01*
X577645Y464992D01*
X576726Y462775D01*
Y460376D01*
X577645Y458159D01*
X579342Y456462D01*
X581559Y455544D01*
X583958D01*
X586175Y456462D01*
X587872Y458159D01*
X588791Y460376D01*
Y462775D01*
X587872Y464992D01*
X586175Y466689D01*
X583958Y467608D01*
D02*
G37*
G36*
X483449Y462232D02*
X481751D01*
X480181Y461582D01*
X478980Y460381D01*
X478330Y458811D01*
Y457113D01*
X478980Y455543D01*
X480181Y454342D01*
X481751Y453692D01*
X483449D01*
X485019Y454342D01*
X486220Y455543D01*
X486870Y457113D01*
Y458811D01*
X486220Y460381D01*
X485019Y461582D01*
X483449Y462232D01*
D02*
G37*
G36*
X474559Y456390D02*
X472861D01*
X471291Y455740D01*
X470090Y454539D01*
X469440Y452969D01*
Y451271D01*
X470090Y449701D01*
X471291Y448500D01*
X472861Y447850D01*
X474559D01*
X476129Y448500D01*
X477330Y449701D01*
X477980Y451271D01*
Y452969D01*
X477330Y454539D01*
X476129Y455740D01*
X474559Y456390D01*
D02*
G37*
G36*
X113074Y452520D02*
X110726D01*
X108457Y451912D01*
X106423Y450738D01*
X104762Y449077D01*
X103588Y447043D01*
X102980Y444774D01*
Y442426D01*
X103588Y440157D01*
X104762Y438123D01*
X106423Y436462D01*
X108457Y435288D01*
X110726Y434680D01*
X113074D01*
X115343Y435288D01*
X117377Y436462D01*
X119038Y438123D01*
X120212Y440157D01*
X120820Y442426D01*
Y444774D01*
X120212Y447043D01*
X119038Y449077D01*
X117377Y450738D01*
X115343Y451912D01*
X113074Y452520D01*
D02*
G37*
G36*
X87674D02*
X85326D01*
X83057Y451912D01*
X81023Y450738D01*
X79362Y449077D01*
X78188Y447043D01*
X77580Y444774D01*
Y442426D01*
X78188Y440157D01*
X79362Y438123D01*
X81023Y436462D01*
X83057Y435288D01*
X85326Y434680D01*
X87674D01*
X89943Y435288D01*
X91977Y436462D01*
X93638Y438123D01*
X94812Y440157D01*
X95420Y442426D01*
Y444774D01*
X94812Y447043D01*
X93638Y449077D01*
X91977Y450738D01*
X89943Y451912D01*
X87674Y452520D01*
D02*
G37*
G36*
X62375Y453282D02*
X59825D01*
X57363Y452622D01*
X55155Y451348D01*
X53352Y449545D01*
X52078Y447337D01*
X51418Y444875D01*
Y442325D01*
X52078Y439863D01*
X53352Y437655D01*
X55155Y435853D01*
X57363Y434578D01*
X59825Y433918D01*
X62375D01*
X64837Y434578D01*
X67045Y435853D01*
X68847Y437655D01*
X70122Y439863D01*
X70782Y442325D01*
Y444875D01*
X70122Y447337D01*
X68847Y449545D01*
X67045Y451348D01*
X64837Y452622D01*
X62375Y453282D01*
D02*
G37*
G36*
X36975D02*
X34425D01*
X31963Y452622D01*
X29755Y451348D01*
X27952Y449545D01*
X26678Y447337D01*
X26018Y444875D01*
Y442325D01*
X26678Y439863D01*
X27952Y437655D01*
X29755Y435853D01*
X31963Y434578D01*
X34425Y433918D01*
X36975D01*
X39437Y434578D01*
X41645Y435853D01*
X43447Y437655D01*
X44722Y439863D01*
X45382Y442325D01*
Y444875D01*
X44722Y447337D01*
X43447Y449545D01*
X41645Y451348D01*
X39437Y452622D01*
X36975Y453282D01*
D02*
G37*
G36*
X827970Y441642D02*
X825570D01*
X823353Y440724D01*
X821656Y439027D01*
X820738Y436810D01*
Y434410D01*
X821656Y432193D01*
X823353Y430496D01*
X825570Y429578D01*
X827970D01*
X830187Y430496D01*
X831884Y432193D01*
X832802Y434410D01*
Y436810D01*
X831884Y439027D01*
X830187Y440724D01*
X827970Y441642D01*
D02*
G37*
G36*
X810190D02*
X807790D01*
X805573Y440724D01*
X803876Y439027D01*
X802958Y436810D01*
Y434410D01*
X803876Y432193D01*
X805573Y430496D01*
X807790Y429578D01*
X810190D01*
X812407Y430496D01*
X814104Y432193D01*
X815022Y434410D01*
Y436810D01*
X814104Y439027D01*
X812407Y440724D01*
X810190Y441642D01*
D02*
G37*
G36*
X827970Y426402D02*
X825570D01*
X823353Y425484D01*
X821656Y423787D01*
X820738Y421570D01*
Y419170D01*
X821656Y416953D01*
X823353Y415256D01*
X825570Y414338D01*
X827970D01*
X830187Y415256D01*
X831884Y416953D01*
X832802Y419170D01*
Y421570D01*
X831884Y423787D01*
X830187Y425484D01*
X827970Y426402D01*
D02*
G37*
G36*
X810190D02*
X807790D01*
X805573Y425484D01*
X803876Y423787D01*
X802958Y421570D01*
Y419170D01*
X803876Y416953D01*
X805573Y415256D01*
X807790Y414338D01*
X810190D01*
X812407Y415256D01*
X814104Y416953D01*
X815022Y419170D01*
Y421570D01*
X814104Y423787D01*
X812407Y425484D01*
X810190Y426402D01*
D02*
G37*
G36*
X113074Y427120D02*
X110726D01*
X108457Y426512D01*
X106423Y425338D01*
X104762Y423677D01*
X103588Y421643D01*
X102980Y419374D01*
Y417026D01*
X103588Y414757D01*
X104762Y412723D01*
X106423Y411062D01*
X108457Y409888D01*
X110726Y409280D01*
X113074D01*
X115343Y409888D01*
X117377Y411062D01*
X119038Y412723D01*
X120212Y414757D01*
X120820Y417026D01*
Y419374D01*
X120212Y421643D01*
X119038Y423677D01*
X117377Y425338D01*
X115343Y426512D01*
X113074Y427120D01*
D02*
G37*
G36*
X87674D02*
X85326D01*
X83057Y426512D01*
X81023Y425338D01*
X79362Y423677D01*
X78188Y421643D01*
X77580Y419374D01*
Y417026D01*
X78188Y414757D01*
X79362Y412723D01*
X81023Y411062D01*
X83057Y409888D01*
X85326Y409280D01*
X87674D01*
X89943Y409888D01*
X91977Y411062D01*
X93638Y412723D01*
X94812Y414757D01*
X95420Y417026D01*
Y419374D01*
X94812Y421643D01*
X93638Y423677D01*
X91977Y425338D01*
X89943Y426512D01*
X87674Y427120D01*
D02*
G37*
G36*
X62375Y427882D02*
X59825D01*
X57363Y427222D01*
X55155Y425947D01*
X53352Y424145D01*
X52078Y421937D01*
X51418Y419475D01*
Y416925D01*
X52078Y414463D01*
X53352Y412255D01*
X55155Y410452D01*
X57363Y409178D01*
X59825Y408518D01*
X62375D01*
X64837Y409178D01*
X67045Y410452D01*
X68847Y412255D01*
X70122Y414463D01*
X70782Y416925D01*
Y419475D01*
X70122Y421937D01*
X68847Y424145D01*
X67045Y425947D01*
X64837Y427222D01*
X62375Y427882D01*
D02*
G37*
G36*
X36975D02*
X34425D01*
X31963Y427222D01*
X29755Y425947D01*
X27952Y424145D01*
X26678Y421937D01*
X26018Y419475D01*
Y416925D01*
X26678Y414463D01*
X27952Y412255D01*
X29755Y410452D01*
X31963Y409178D01*
X34425Y408518D01*
X36975D01*
X39437Y409178D01*
X41645Y410452D01*
X43447Y412255D01*
X44722Y414463D01*
X45382Y416925D01*
Y419475D01*
X44722Y421937D01*
X43447Y424145D01*
X41645Y425947D01*
X39437Y427222D01*
X36975Y427882D01*
D02*
G37*
G36*
X175461Y424820D02*
X173459D01*
X171610Y424053D01*
X170194Y422638D01*
X169428Y420788D01*
Y418787D01*
X170194Y416937D01*
X171610Y415522D01*
X171916Y415395D01*
Y414020D01*
X171610Y413894D01*
X170194Y412478D01*
X169428Y410629D01*
Y408627D01*
X170194Y406777D01*
X171610Y405362D01*
X173459Y404596D01*
X175461D01*
X177310Y405362D01*
X178726Y406777D01*
X179492Y408627D01*
Y410629D01*
X178726Y412478D01*
X177310Y413894D01*
X177004Y414020D01*
Y415395D01*
X177310Y415522D01*
X178726Y416937D01*
X179492Y418787D01*
Y420788D01*
X178726Y422638D01*
X177310Y424053D01*
X175461Y424820D01*
D02*
G37*
G36*
X164031D02*
X162029D01*
X160180Y424053D01*
X158764Y422638D01*
X157998Y420788D01*
Y418787D01*
X158764Y416937D01*
X160180Y415522D01*
X160486Y415395D01*
Y414020D01*
X160180Y413894D01*
X158764Y412478D01*
X157998Y410629D01*
Y408627D01*
X158764Y406777D01*
X160180Y405362D01*
X162029Y404596D01*
X164031D01*
X165880Y405362D01*
X167296Y406777D01*
X168062Y408627D01*
Y410629D01*
X167296Y412478D01*
X165880Y413894D01*
X165574Y414020D01*
Y415395D01*
X165880Y415522D01*
X167296Y416937D01*
X168062Y418787D01*
Y420788D01*
X167296Y422638D01*
X165880Y424053D01*
X164031Y424820D01*
D02*
G37*
G36*
X113074Y401720D02*
X110726D01*
X108457Y401112D01*
X106423Y399938D01*
X104762Y398277D01*
X103588Y396243D01*
X102980Y393974D01*
Y391626D01*
X103588Y389357D01*
X104762Y387323D01*
X106423Y385662D01*
X108457Y384488D01*
X110726Y383880D01*
X113074D01*
X115343Y384488D01*
X117377Y385662D01*
X119038Y387323D01*
X120212Y389357D01*
X120820Y391626D01*
Y393974D01*
X120212Y396243D01*
X119038Y398277D01*
X117377Y399938D01*
X115343Y401112D01*
X113074Y401720D01*
D02*
G37*
G36*
X87674D02*
X85326D01*
X83057Y401112D01*
X81023Y399938D01*
X79362Y398277D01*
X78188Y396243D01*
X77580Y393974D01*
Y391626D01*
X78188Y389357D01*
X79362Y387323D01*
X81023Y385662D01*
X83057Y384488D01*
X85326Y383880D01*
X87674D01*
X89943Y384488D01*
X91977Y385662D01*
X93638Y387323D01*
X94812Y389357D01*
X95420Y391626D01*
Y393974D01*
X94812Y396243D01*
X93638Y398277D01*
X91977Y399938D01*
X89943Y401112D01*
X87674Y401720D01*
D02*
G37*
G36*
X62375Y402482D02*
X59825D01*
X57363Y401822D01*
X55155Y400547D01*
X53352Y398745D01*
X52078Y396537D01*
X51418Y394075D01*
Y391525D01*
X52078Y389063D01*
X53352Y386855D01*
X55155Y385052D01*
X57363Y383778D01*
X59825Y383118D01*
X62375D01*
X64837Y383778D01*
X67045Y385052D01*
X68847Y386855D01*
X70122Y389063D01*
X70782Y391525D01*
Y394075D01*
X70122Y396537D01*
X68847Y398745D01*
X67045Y400547D01*
X64837Y401822D01*
X62375Y402482D01*
D02*
G37*
G36*
X36975D02*
X34425D01*
X31963Y401822D01*
X29755Y400547D01*
X27952Y398745D01*
X26678Y396537D01*
X26018Y394075D01*
Y391525D01*
X26678Y389063D01*
X27952Y386855D01*
X29755Y385052D01*
X31963Y383778D01*
X34425Y383118D01*
X36975D01*
X39437Y383778D01*
X41645Y385052D01*
X43447Y386855D01*
X44722Y389063D01*
X45382Y391525D01*
Y394075D01*
X44722Y396537D01*
X43447Y398745D01*
X41645Y400547D01*
X39437Y401822D01*
X36975Y402482D01*
D02*
G37*
G36*
X113074Y376320D02*
X110726D01*
X108457Y375712D01*
X106423Y374538D01*
X104762Y372877D01*
X103588Y370843D01*
X102980Y368574D01*
Y366226D01*
X103588Y363957D01*
X104762Y361923D01*
X106423Y360262D01*
X108457Y359088D01*
X110726Y358480D01*
X113074D01*
X115343Y359088D01*
X117377Y360262D01*
X119038Y361923D01*
X120212Y363957D01*
X120820Y366226D01*
Y368574D01*
X120212Y370843D01*
X119038Y372877D01*
X117377Y374538D01*
X115343Y375712D01*
X113074Y376320D01*
D02*
G37*
G36*
X87674D02*
X85326D01*
X83057Y375712D01*
X81023Y374538D01*
X79362Y372877D01*
X78188Y370843D01*
X77580Y368574D01*
Y366226D01*
X78188Y363957D01*
X79362Y361923D01*
X81023Y360262D01*
X83057Y359088D01*
X85326Y358480D01*
X87674D01*
X89943Y359088D01*
X91977Y360262D01*
X93638Y361923D01*
X94812Y363957D01*
X95420Y366226D01*
Y368574D01*
X94812Y370843D01*
X93638Y372877D01*
X91977Y374538D01*
X89943Y375712D01*
X87674Y376320D01*
D02*
G37*
G36*
X405060Y370522D02*
X402660D01*
X400443Y369604D01*
X398746Y367907D01*
X397828Y365690D01*
Y363290D01*
X398746Y361073D01*
X400443Y359376D01*
X402660Y358458D01*
X405060D01*
X407277Y359376D01*
X408974Y361073D01*
X409892Y363290D01*
Y365690D01*
X408974Y367907D01*
X407277Y369604D01*
X405060Y370522D01*
D02*
G37*
G36*
X316160D02*
X313760D01*
X311543Y369604D01*
X309846Y367907D01*
X308928Y365690D01*
Y363290D01*
X309846Y361073D01*
X311543Y359376D01*
X313760Y358458D01*
X316160D01*
X318377Y359376D01*
X320074Y361073D01*
X320992Y363290D01*
Y365690D01*
X320074Y367907D01*
X318377Y369604D01*
X316160Y370522D01*
D02*
G37*
G36*
X62375Y377082D02*
X59825D01*
X57363Y376422D01*
X55155Y375148D01*
X53352Y373345D01*
X52078Y371137D01*
X51418Y368675D01*
Y366125D01*
X52078Y363663D01*
X53352Y361455D01*
X55155Y359652D01*
X57363Y358378D01*
X59825Y357718D01*
X62375D01*
X64837Y358378D01*
X67045Y359652D01*
X68847Y361455D01*
X70122Y363663D01*
X70782Y366125D01*
Y368675D01*
X70122Y371137D01*
X68847Y373345D01*
X67045Y375148D01*
X64837Y376422D01*
X62375Y377082D01*
D02*
G37*
G36*
X36975D02*
X34425D01*
X31963Y376422D01*
X29755Y375148D01*
X27952Y373345D01*
X26678Y371137D01*
X26018Y368675D01*
Y366125D01*
X26678Y363663D01*
X27952Y361455D01*
X29755Y359652D01*
X31963Y358378D01*
X34425Y357718D01*
X36975D01*
X39437Y358378D01*
X41645Y359652D01*
X43447Y361455D01*
X44722Y363663D01*
X45382Y366125D01*
Y368675D01*
X44722Y371137D01*
X43447Y373345D01*
X41645Y375148D01*
X39437Y376422D01*
X36975Y377082D01*
D02*
G37*
G36*
X113175Y351682D02*
X110625D01*
X108163Y351022D01*
X105955Y349748D01*
X104152Y347945D01*
X102878Y345737D01*
X102218Y343275D01*
Y340725D01*
X102878Y338263D01*
X104152Y336055D01*
X105955Y334253D01*
X108163Y332978D01*
X110625Y332318D01*
X113175D01*
X115637Y332978D01*
X117845Y334253D01*
X119648Y336055D01*
X120922Y338263D01*
X121582Y340725D01*
Y343275D01*
X120922Y345737D01*
X119648Y347945D01*
X117845Y349748D01*
X115637Y351022D01*
X113175Y351682D01*
D02*
G37*
G36*
X87775D02*
X85225D01*
X82763Y351022D01*
X80555Y349748D01*
X78752Y347945D01*
X77478Y345737D01*
X76818Y343275D01*
Y340725D01*
X77478Y338263D01*
X78752Y336055D01*
X80555Y334253D01*
X82763Y332978D01*
X85225Y332318D01*
X87775D01*
X90237Y332978D01*
X92445Y334253D01*
X94248Y336055D01*
X95522Y338263D01*
X96182Y340725D01*
Y343275D01*
X95522Y345737D01*
X94248Y347945D01*
X92445Y349748D01*
X90237Y351022D01*
X87775Y351682D01*
D02*
G37*
G36*
X62375D02*
X59825D01*
X57363Y351022D01*
X55155Y349748D01*
X53352Y347945D01*
X52078Y345737D01*
X51418Y343275D01*
Y340725D01*
X52078Y338263D01*
X53352Y336055D01*
X55155Y334253D01*
X57363Y332978D01*
X59825Y332318D01*
X62375D01*
X64837Y332978D01*
X67045Y334253D01*
X68847Y336055D01*
X70122Y338263D01*
X70782Y340725D01*
Y343275D01*
X70122Y345737D01*
X68847Y347945D01*
X67045Y349748D01*
X64837Y351022D01*
X62375Y351682D01*
D02*
G37*
G36*
X36975D02*
X34425D01*
X31963Y351022D01*
X29755Y349748D01*
X27952Y347945D01*
X26678Y345737D01*
X26018Y343275D01*
Y340725D01*
X26678Y338263D01*
X27952Y336055D01*
X29755Y334253D01*
X31963Y332978D01*
X34425Y332318D01*
X36975D01*
X39437Y332978D01*
X41645Y334253D01*
X43447Y336055D01*
X44722Y338263D01*
X45382Y340725D01*
Y343275D01*
X44722Y345737D01*
X43447Y347945D01*
X41645Y349748D01*
X39437Y351022D01*
X36975Y351682D01*
D02*
G37*
G36*
X841940Y329882D02*
X839540D01*
X837323Y328964D01*
X835626Y327267D01*
X834708Y325050D01*
Y322650D01*
X835626Y320433D01*
X837323Y318736D01*
X839540Y317818D01*
X841940D01*
X844157Y318736D01*
X845854Y320433D01*
X846772Y322650D01*
Y325050D01*
X845854Y327267D01*
X844157Y328964D01*
X841940Y329882D01*
D02*
G37*
G36*
X489799Y324310D02*
X488101D01*
X486531Y323660D01*
X485330Y322459D01*
X484680Y320889D01*
Y319191D01*
X485330Y317621D01*
X486531Y316420D01*
X488101Y315770D01*
X489799D01*
X491369Y316420D01*
X492570Y317621D01*
X493220Y319191D01*
Y320889D01*
X492570Y322459D01*
X491369Y323660D01*
X489799Y324310D01*
D02*
G37*
G36*
X113074Y325520D02*
X110726D01*
X108457Y324912D01*
X106423Y323738D01*
X104762Y322077D01*
X103588Y320043D01*
X102980Y317774D01*
Y315426D01*
X103588Y313157D01*
X104762Y311123D01*
X106423Y309462D01*
X108457Y308288D01*
X110726Y307680D01*
X113074D01*
X115343Y308288D01*
X117377Y309462D01*
X119038Y311123D01*
X120212Y313157D01*
X120820Y315426D01*
Y317774D01*
X120212Y320043D01*
X119038Y322077D01*
X117377Y323738D01*
X115343Y324912D01*
X113074Y325520D01*
D02*
G37*
G36*
X87674D02*
X85326D01*
X83057Y324912D01*
X81023Y323738D01*
X79362Y322077D01*
X78188Y320043D01*
X77580Y317774D01*
Y315426D01*
X78188Y313157D01*
X79362Y311123D01*
X81023Y309462D01*
X83057Y308288D01*
X85326Y307680D01*
X87674D01*
X89943Y308288D01*
X91977Y309462D01*
X93638Y311123D01*
X94812Y313157D01*
X95420Y315426D01*
Y317774D01*
X94812Y320043D01*
X93638Y322077D01*
X91977Y323738D01*
X89943Y324912D01*
X87674Y325520D01*
D02*
G37*
G36*
X62274D02*
X59926D01*
X57657Y324912D01*
X55623Y323738D01*
X53962Y322077D01*
X52788Y320043D01*
X52180Y317774D01*
Y315426D01*
X52788Y313157D01*
X53962Y311123D01*
X55623Y309462D01*
X57657Y308288D01*
X59926Y307680D01*
X62274D01*
X64543Y308288D01*
X66577Y309462D01*
X68238Y311123D01*
X69412Y313157D01*
X70020Y315426D01*
Y317774D01*
X69412Y320043D01*
X68238Y322077D01*
X66577Y323738D01*
X64543Y324912D01*
X62274Y325520D01*
D02*
G37*
G36*
X36874D02*
X34526D01*
X32257Y324912D01*
X30223Y323738D01*
X28562Y322077D01*
X27388Y320043D01*
X26780Y317774D01*
Y315426D01*
X27388Y313157D01*
X28562Y311123D01*
X30223Y309462D01*
X32257Y308288D01*
X34526Y307680D01*
X36874D01*
X39143Y308288D01*
X41177Y309462D01*
X42838Y311123D01*
X44012Y313157D01*
X44620Y315426D01*
Y317774D01*
X44012Y320043D01*
X42838Y322077D01*
X41177Y323738D01*
X39143Y324912D01*
X36874Y325520D01*
D02*
G37*
G36*
X850830Y309562D02*
X848430D01*
X846213Y308644D01*
X844516Y306947D01*
X843598Y304730D01*
Y302330D01*
X844516Y300113D01*
X846213Y298416D01*
X848430Y297498D01*
X850830D01*
X853047Y298416D01*
X854744Y300113D01*
X855662Y302330D01*
Y304730D01*
X854744Y306947D01*
X853047Y308644D01*
X850830Y309562D01*
D02*
G37*
G36*
X113074Y300120D02*
X110726D01*
X108457Y299512D01*
X106423Y298338D01*
X104762Y296677D01*
X103588Y294643D01*
X102980Y292374D01*
Y290026D01*
X103588Y287757D01*
X104762Y285723D01*
X106423Y284062D01*
X108457Y282888D01*
X110726Y282280D01*
X113074D01*
X115343Y282888D01*
X117377Y284062D01*
X119038Y285723D01*
X120212Y287757D01*
X120820Y290026D01*
Y292374D01*
X120212Y294643D01*
X119038Y296677D01*
X117377Y298338D01*
X115343Y299512D01*
X113074Y300120D01*
D02*
G37*
G36*
X87674D02*
X85326D01*
X83057Y299512D01*
X81023Y298338D01*
X79362Y296677D01*
X78188Y294643D01*
X77580Y292374D01*
Y290026D01*
X78188Y287757D01*
X79362Y285723D01*
X81023Y284062D01*
X83057Y282888D01*
X85326Y282280D01*
X87674D01*
X89943Y282888D01*
X91977Y284062D01*
X93638Y285723D01*
X94812Y287757D01*
X95420Y290026D01*
Y292374D01*
X94812Y294643D01*
X93638Y296677D01*
X91977Y298338D01*
X89943Y299512D01*
X87674Y300120D01*
D02*
G37*
G36*
X62274D02*
X59926D01*
X57657Y299512D01*
X55623Y298338D01*
X53962Y296677D01*
X52788Y294643D01*
X52180Y292374D01*
Y290026D01*
X52788Y287757D01*
X53962Y285723D01*
X55623Y284062D01*
X57657Y282888D01*
X59926Y282280D01*
X62274D01*
X64543Y282888D01*
X66577Y284062D01*
X68238Y285723D01*
X69412Y287757D01*
X70020Y290026D01*
Y292374D01*
X69412Y294643D01*
X68238Y296677D01*
X66577Y298338D01*
X64543Y299512D01*
X62274Y300120D01*
D02*
G37*
G36*
X36874D02*
X34526D01*
X32257Y299512D01*
X30223Y298338D01*
X28562Y296677D01*
X27388Y294643D01*
X26780Y292374D01*
Y290026D01*
X27388Y287757D01*
X28562Y285723D01*
X30223Y284062D01*
X32257Y282888D01*
X34526Y282280D01*
X36874D01*
X39143Y282888D01*
X41177Y284062D01*
X42838Y285723D01*
X44012Y287757D01*
X44620Y290026D01*
Y292374D01*
X44012Y294643D01*
X42838Y296677D01*
X41177Y298338D01*
X39143Y299512D01*
X36874Y300120D01*
D02*
G37*
G36*
X433000Y290512D02*
X430600D01*
X428383Y289594D01*
X426686Y287897D01*
X425768Y285680D01*
Y283280D01*
X426686Y281063D01*
X428383Y279366D01*
X430600Y278448D01*
X433000D01*
X435217Y279366D01*
X436914Y281063D01*
X437832Y283280D01*
Y285680D01*
X436914Y287897D01*
X435217Y289594D01*
X433000Y290512D01*
D02*
G37*
G36*
X848290Y275272D02*
X845890D01*
X843673Y274354D01*
X842098Y272778D01*
X841375Y272712D01*
X840652Y272778D01*
X839077Y274354D01*
X836860Y275272D01*
X834460D01*
X832243Y274354D01*
X830546Y272657D01*
X829628Y270440D01*
Y268040D01*
X830546Y265823D01*
X832243Y264126D01*
X834460Y263208D01*
X836860D01*
X839077Y264126D01*
X840652Y265702D01*
X841375Y265768D01*
X842098Y265702D01*
X843673Y264126D01*
X845890Y263208D01*
X848290D01*
X850507Y264126D01*
X852204Y265823D01*
X853122Y268040D01*
Y270440D01*
X852204Y272657D01*
X850507Y274354D01*
X848290Y275272D01*
D02*
G37*
G36*
X397089Y278590D02*
X395391D01*
X393821Y277940D01*
X392620Y276739D01*
X391970Y275169D01*
Y273471D01*
X392620Y271901D01*
X393821Y270700D01*
X395391Y270050D01*
X397089D01*
X398659Y270700D01*
X399860Y271901D01*
X400510Y273471D01*
Y275169D01*
X399860Y276739D01*
X398659Y277940D01*
X397089Y278590D01*
D02*
G37*
G36*
X390739Y270970D02*
X389041D01*
X387471Y270320D01*
X386270Y269119D01*
X385620Y267549D01*
Y265851D01*
X386270Y264281D01*
X387471Y263080D01*
X389041Y262430D01*
X390739D01*
X392309Y263080D01*
X393510Y264281D01*
X394160Y265851D01*
Y267549D01*
X393510Y269119D01*
X392309Y270320D01*
X390739Y270970D01*
D02*
G37*
G36*
X357719Y268430D02*
X356021D01*
X354451Y267780D01*
X353250Y266579D01*
X352600Y265009D01*
Y263311D01*
X353250Y261741D01*
X354451Y260540D01*
X356021Y259890D01*
X357719D01*
X359289Y260540D01*
X360490Y261741D01*
X361140Y263311D01*
Y265009D01*
X360490Y266579D01*
X359289Y267780D01*
X357719Y268430D01*
D02*
G37*
G36*
X113074Y274720D02*
X110726D01*
X108457Y274112D01*
X106423Y272938D01*
X104762Y271277D01*
X103588Y269243D01*
X102980Y266974D01*
Y264626D01*
X103588Y262357D01*
X104762Y260323D01*
X106423Y258662D01*
X108457Y257488D01*
X110726Y256880D01*
X113074D01*
X115343Y257488D01*
X117377Y258662D01*
X119038Y260323D01*
X120212Y262357D01*
X120820Y264626D01*
Y266974D01*
X120212Y269243D01*
X119038Y271277D01*
X117377Y272938D01*
X115343Y274112D01*
X113074Y274720D01*
D02*
G37*
G36*
X87674D02*
X85326D01*
X83057Y274112D01*
X81023Y272938D01*
X79362Y271277D01*
X78188Y269243D01*
X77580Y266974D01*
Y264626D01*
X78188Y262357D01*
X79362Y260323D01*
X81023Y258662D01*
X83057Y257488D01*
X85326Y256880D01*
X87674D01*
X89943Y257488D01*
X91977Y258662D01*
X93638Y260323D01*
X94812Y262357D01*
X95420Y264626D01*
Y266974D01*
X94812Y269243D01*
X93638Y271277D01*
X91977Y272938D01*
X89943Y274112D01*
X87674Y274720D01*
D02*
G37*
G36*
X62274D02*
X59926D01*
X57657Y274112D01*
X55623Y272938D01*
X53962Y271277D01*
X52788Y269243D01*
X52180Y266974D01*
Y264626D01*
X52788Y262357D01*
X53962Y260323D01*
X55623Y258662D01*
X57657Y257488D01*
X59926Y256880D01*
X62274D01*
X64543Y257488D01*
X66577Y258662D01*
X68238Y260323D01*
X69412Y262357D01*
X70020Y264626D01*
Y266974D01*
X69412Y269243D01*
X68238Y271277D01*
X66577Y272938D01*
X64543Y274112D01*
X62274Y274720D01*
D02*
G37*
G36*
X36874D02*
X34526D01*
X32257Y274112D01*
X30223Y272938D01*
X28562Y271277D01*
X27388Y269243D01*
X26780Y266974D01*
Y264626D01*
X27388Y262357D01*
X28562Y260323D01*
X30223Y258662D01*
X32257Y257488D01*
X34526Y256880D01*
X36874D01*
X39143Y257488D01*
X41177Y258662D01*
X42838Y260323D01*
X44012Y262357D01*
X44620Y264626D01*
Y266974D01*
X44012Y269243D01*
X42838Y271277D01*
X41177Y272938D01*
X39143Y274112D01*
X36874Y274720D01*
D02*
G37*
G36*
X312350Y261302D02*
X309950D01*
X307733Y260384D01*
X306036Y258687D01*
X305118Y256470D01*
Y254070D01*
X306036Y251853D01*
X307733Y250156D01*
X309950Y249238D01*
X312350D01*
X314567Y250156D01*
X316264Y251853D01*
X317182Y254070D01*
Y256470D01*
X316264Y258687D01*
X314567Y260384D01*
X312350Y261302D01*
D02*
G37*
G36*
X529169Y254460D02*
X527471D01*
X525901Y253810D01*
X524700Y252609D01*
X524050Y251039D01*
Y249341D01*
X524700Y247771D01*
X525901Y246570D01*
X527471Y245920D01*
X529169D01*
X530739Y246570D01*
X531940Y247771D01*
X532590Y249341D01*
Y251039D01*
X531940Y252609D01*
X530739Y253810D01*
X529169Y254460D01*
D02*
G37*
G36*
X352057Y245470D02*
X349657D01*
X347440Y244552D01*
X345743Y242855D01*
X344825Y240638D01*
Y238238D01*
X345743Y236021D01*
X347440Y234324D01*
X349657Y233406D01*
X352057D01*
X354274Y234324D01*
X355971Y236021D01*
X356889Y238238D01*
Y240638D01*
X355971Y242855D01*
X354274Y244552D01*
X352057Y245470D01*
D02*
G37*
G36*
X113074Y249320D02*
X110726D01*
X108457Y248712D01*
X106423Y247538D01*
X104762Y245877D01*
X103588Y243843D01*
X102980Y241574D01*
Y239226D01*
X103588Y236957D01*
X104762Y234923D01*
X106423Y233262D01*
X108457Y232088D01*
X110726Y231480D01*
X113074D01*
X115343Y232088D01*
X117377Y233262D01*
X119038Y234923D01*
X120212Y236957D01*
X120820Y239226D01*
Y241574D01*
X120212Y243843D01*
X119038Y245877D01*
X117377Y247538D01*
X115343Y248712D01*
X113074Y249320D01*
D02*
G37*
G36*
X87674D02*
X85326D01*
X83057Y248712D01*
X81023Y247538D01*
X79362Y245877D01*
X78188Y243843D01*
X77580Y241574D01*
Y239226D01*
X78188Y236957D01*
X79362Y234923D01*
X81023Y233262D01*
X83057Y232088D01*
X85326Y231480D01*
X87674D01*
X89943Y232088D01*
X91977Y233262D01*
X93638Y234923D01*
X94812Y236957D01*
X95420Y239226D01*
Y241574D01*
X94812Y243843D01*
X93638Y245877D01*
X91977Y247538D01*
X89943Y248712D01*
X87674Y249320D01*
D02*
G37*
G36*
X62274D02*
X59926D01*
X57657Y248712D01*
X55623Y247538D01*
X53962Y245877D01*
X52788Y243843D01*
X52180Y241574D01*
Y239226D01*
X52788Y236957D01*
X53962Y234923D01*
X55623Y233262D01*
X57657Y232088D01*
X59926Y231480D01*
X62274D01*
X64543Y232088D01*
X66577Y233262D01*
X68238Y234923D01*
X69412Y236957D01*
X70020Y239226D01*
Y241574D01*
X69412Y243843D01*
X68238Y245877D01*
X66577Y247538D01*
X64543Y248712D01*
X62274Y249320D01*
D02*
G37*
G36*
X36874D02*
X34526D01*
X32257Y248712D01*
X30223Y247538D01*
X28562Y245877D01*
X27388Y243843D01*
X26780Y241574D01*
Y239226D01*
X27388Y236957D01*
X28562Y234923D01*
X30223Y233262D01*
X32257Y232088D01*
X34526Y231480D01*
X36874D01*
X39143Y232088D01*
X41177Y233262D01*
X42838Y234923D01*
X44012Y236957D01*
X44620Y239226D01*
Y241574D01*
X44012Y243843D01*
X42838Y245877D01*
X41177Y247538D01*
X39143Y248712D01*
X36874Y249320D01*
D02*
G37*
G36*
X411211Y224742D02*
X409209D01*
X407360Y223976D01*
X405944Y222560D01*
X405178Y220711D01*
Y218709D01*
X405944Y216860D01*
X407360Y215444D01*
X409209Y214678D01*
X411211D01*
X413060Y215444D01*
X414476Y216860D01*
X415242Y218709D01*
Y220711D01*
X414476Y222560D01*
X413060Y223976D01*
X411211Y224742D01*
D02*
G37*
G36*
X446771Y220932D02*
X444769D01*
X442920Y220166D01*
X441504Y218750D01*
X440738Y216901D01*
Y214899D01*
X441504Y213050D01*
X442920Y211634D01*
X444769Y210868D01*
X446771D01*
X448620Y211634D01*
X450036Y213050D01*
X450802Y214899D01*
Y216901D01*
X450036Y218750D01*
X448620Y220166D01*
X446771Y220932D01*
D02*
G37*
G36*
X422641Y219662D02*
X420639D01*
X418790Y218896D01*
X417374Y217480D01*
X416608Y215631D01*
Y213629D01*
X417374Y211780D01*
X418790Y210364D01*
X420639Y209598D01*
X422641D01*
X424490Y210364D01*
X425906Y211780D01*
X426672Y213629D01*
Y215631D01*
X425906Y217480D01*
X424490Y218896D01*
X422641Y219662D01*
D02*
G37*
G36*
X113074Y223920D02*
X110726D01*
X108457Y223312D01*
X106423Y222138D01*
X104762Y220477D01*
X103588Y218443D01*
X102980Y216174D01*
Y213826D01*
X103588Y211557D01*
X104762Y209523D01*
X106423Y207862D01*
X108457Y206688D01*
X110726Y206080D01*
X113074D01*
X115343Y206688D01*
X117377Y207862D01*
X119038Y209523D01*
X120212Y211557D01*
X120820Y213826D01*
Y216174D01*
X120212Y218443D01*
X119038Y220477D01*
X117377Y222138D01*
X115343Y223312D01*
X113074Y223920D01*
D02*
G37*
G36*
X87674D02*
X85326D01*
X83057Y223312D01*
X81023Y222138D01*
X79362Y220477D01*
X78188Y218443D01*
X77580Y216174D01*
Y213826D01*
X78188Y211557D01*
X79362Y209523D01*
X81023Y207862D01*
X83057Y206688D01*
X85326Y206080D01*
X87674D01*
X89943Y206688D01*
X91977Y207862D01*
X93638Y209523D01*
X94812Y211557D01*
X95420Y213826D01*
Y216174D01*
X94812Y218443D01*
X93638Y220477D01*
X91977Y222138D01*
X89943Y223312D01*
X87674Y223920D01*
D02*
G37*
G36*
X62274D02*
X59926D01*
X57657Y223312D01*
X55623Y222138D01*
X53962Y220477D01*
X52788Y218443D01*
X52180Y216174D01*
Y213826D01*
X52788Y211557D01*
X53962Y209523D01*
X55623Y207862D01*
X57657Y206688D01*
X59926Y206080D01*
X62274D01*
X64543Y206688D01*
X66577Y207862D01*
X68238Y209523D01*
X69412Y211557D01*
X70020Y213826D01*
Y216174D01*
X69412Y218443D01*
X68238Y220477D01*
X66577Y222138D01*
X64543Y223312D01*
X62274Y223920D01*
D02*
G37*
G36*
X36874D02*
X34526D01*
X32257Y223312D01*
X30223Y222138D01*
X28562Y220477D01*
X27388Y218443D01*
X26780Y216174D01*
Y213826D01*
X27388Y211557D01*
X28562Y209523D01*
X30223Y207862D01*
X32257Y206688D01*
X34526Y206080D01*
X36874D01*
X39143Y206688D01*
X41177Y207862D01*
X42838Y209523D01*
X44012Y211557D01*
X44620Y213826D01*
Y216174D01*
X44012Y218443D01*
X42838Y220477D01*
X41177Y222138D01*
X39143Y223312D01*
X36874Y223920D01*
D02*
G37*
G36*
X395971Y214582D02*
X393969D01*
X392120Y213816D01*
X390704Y212400D01*
X389938Y210551D01*
Y208549D01*
X390704Y206700D01*
X392120Y205284D01*
X393969Y204518D01*
X395971D01*
X397820Y205284D01*
X399236Y206700D01*
X400002Y208549D01*
Y210551D01*
X399236Y212400D01*
X397820Y213816D01*
X395971Y214582D01*
D02*
G37*
G36*
X380731Y208232D02*
X378729D01*
X376880Y207466D01*
X375464Y206050D01*
X374698Y204201D01*
Y202199D01*
X375464Y200350D01*
X376880Y198934D01*
X378729Y198168D01*
X380731D01*
X382580Y198934D01*
X383996Y200350D01*
X384762Y202199D01*
Y204201D01*
X383996Y206050D01*
X382580Y207466D01*
X380731Y208232D01*
D02*
G37*
G36*
X113074Y198520D02*
X110726D01*
X108457Y197912D01*
X106423Y196738D01*
X104762Y195077D01*
X103588Y193043D01*
X102980Y190774D01*
Y188426D01*
X103588Y186157D01*
X104762Y184123D01*
X106423Y182462D01*
X108457Y181288D01*
X110726Y180680D01*
X113074D01*
X115343Y181288D01*
X117377Y182462D01*
X119038Y184123D01*
X120212Y186157D01*
X120820Y188426D01*
Y190774D01*
X120212Y193043D01*
X119038Y195077D01*
X117377Y196738D01*
X115343Y197912D01*
X113074Y198520D01*
D02*
G37*
G36*
X87674D02*
X85326D01*
X83057Y197912D01*
X81023Y196738D01*
X79362Y195077D01*
X78188Y193043D01*
X77580Y190774D01*
Y188426D01*
X78188Y186157D01*
X79362Y184123D01*
X81023Y182462D01*
X83057Y181288D01*
X85326Y180680D01*
X87674D01*
X89943Y181288D01*
X91977Y182462D01*
X93638Y184123D01*
X94812Y186157D01*
X95420Y188426D01*
Y190774D01*
X94812Y193043D01*
X93638Y195077D01*
X91977Y196738D01*
X89943Y197912D01*
X87674Y198520D01*
D02*
G37*
G36*
X62274D02*
X59926D01*
X57657Y197912D01*
X55623Y196738D01*
X53962Y195077D01*
X52788Y193043D01*
X52180Y190774D01*
Y188426D01*
X52788Y186157D01*
X53962Y184123D01*
X55623Y182462D01*
X57657Y181288D01*
X59926Y180680D01*
X62274D01*
X64543Y181288D01*
X66577Y182462D01*
X68238Y184123D01*
X69412Y186157D01*
X70020Y188426D01*
Y190774D01*
X69412Y193043D01*
X68238Y195077D01*
X66577Y196738D01*
X64543Y197912D01*
X62274Y198520D01*
D02*
G37*
G36*
X36874D02*
X34526D01*
X32257Y197912D01*
X30223Y196738D01*
X28562Y195077D01*
X27388Y193043D01*
X26780Y190774D01*
Y188426D01*
X27388Y186157D01*
X28562Y184123D01*
X30223Y182462D01*
X32257Y181288D01*
X34526Y180680D01*
X36874D01*
X39143Y181288D01*
X41177Y182462D01*
X42838Y184123D01*
X44012Y186157D01*
X44620Y188426D01*
Y190774D01*
X44012Y193043D01*
X42838Y195077D01*
X41177Y196738D01*
X39143Y197912D01*
X36874Y198520D01*
D02*
G37*
G36*
X843210Y188912D02*
X840810D01*
X838593Y187994D01*
X836896Y186297D01*
X835978Y184080D01*
Y181680D01*
X836896Y179463D01*
X838593Y177766D01*
X840810Y176848D01*
X843210D01*
X845427Y177766D01*
X847124Y179463D01*
X848042Y181680D01*
Y184080D01*
X847124Y186297D01*
X845427Y187994D01*
X843210Y188912D01*
D02*
G37*
G36*
X360822Y167354D02*
X359522D01*
X358320Y166856D01*
X357400Y165936D01*
X356902Y164734D01*
Y163434D01*
X357400Y162232D01*
X358320Y161312D01*
X359522Y160814D01*
X360822D01*
X362024Y161312D01*
X362944Y162232D01*
X363442Y163434D01*
Y164734D01*
X362944Y165936D01*
X362024Y166856D01*
X360822Y167354D01*
D02*
G37*
G36*
X718399Y166830D02*
X716701D01*
X715131Y166180D01*
X713930Y164979D01*
X713280Y163409D01*
Y161711D01*
X713930Y160141D01*
X715131Y158940D01*
X716701Y158290D01*
X718399D01*
X719969Y158940D01*
X721170Y160141D01*
X721820Y161711D01*
Y163409D01*
X721170Y164979D01*
X719969Y166180D01*
X718399Y166830D01*
D02*
G37*
G36*
X113074Y173120D02*
X110726D01*
X108457Y172512D01*
X106423Y171338D01*
X104762Y169677D01*
X103588Y167643D01*
X102980Y165374D01*
Y163026D01*
X103588Y160757D01*
X104762Y158723D01*
X106423Y157062D01*
X108457Y155888D01*
X110726Y155280D01*
X113074D01*
X115343Y155888D01*
X117377Y157062D01*
X119038Y158723D01*
X120212Y160757D01*
X120820Y163026D01*
Y165374D01*
X120212Y167643D01*
X119038Y169677D01*
X117377Y171338D01*
X115343Y172512D01*
X113074Y173120D01*
D02*
G37*
G36*
X87674D02*
X85326D01*
X83057Y172512D01*
X81023Y171338D01*
X79362Y169677D01*
X78188Y167643D01*
X77580Y165374D01*
Y163026D01*
X78188Y160757D01*
X79362Y158723D01*
X81023Y157062D01*
X83057Y155888D01*
X85326Y155280D01*
X87674D01*
X89943Y155888D01*
X91977Y157062D01*
X93638Y158723D01*
X94812Y160757D01*
X95420Y163026D01*
Y165374D01*
X94812Y167643D01*
X93638Y169677D01*
X91977Y171338D01*
X89943Y172512D01*
X87674Y173120D01*
D02*
G37*
G36*
X62274D02*
X59926D01*
X57657Y172512D01*
X55623Y171338D01*
X53962Y169677D01*
X52788Y167643D01*
X52180Y165374D01*
Y163026D01*
X52788Y160757D01*
X53962Y158723D01*
X55623Y157062D01*
X57657Y155888D01*
X59926Y155280D01*
X62274D01*
X64543Y155888D01*
X66577Y157062D01*
X68238Y158723D01*
X69412Y160757D01*
X70020Y163026D01*
Y165374D01*
X69412Y167643D01*
X68238Y169677D01*
X66577Y171338D01*
X64543Y172512D01*
X62274Y173120D01*
D02*
G37*
G36*
X36874D02*
X34526D01*
X32257Y172512D01*
X30223Y171338D01*
X28562Y169677D01*
X27388Y167643D01*
X26780Y165374D01*
Y163026D01*
X27388Y160757D01*
X28562Y158723D01*
X30223Y157062D01*
X32257Y155888D01*
X34526Y155280D01*
X36874D01*
X39143Y155888D01*
X41177Y157062D01*
X42838Y158723D01*
X44012Y160757D01*
X44620Y163026D01*
Y165374D01*
X44012Y167643D01*
X42838Y169677D01*
X41177Y171338D01*
X39143Y172512D01*
X36874Y173120D01*
D02*
G37*
G36*
X852100Y158432D02*
X849700D01*
X847483Y157514D01*
X845786Y155817D01*
X845237Y154492D01*
X843863D01*
X843314Y155817D01*
X841617Y157514D01*
X839400Y158432D01*
X837000D01*
X834783Y157514D01*
X833086Y155817D01*
X832168Y153600D01*
Y151200D01*
X833086Y148983D01*
X834783Y147286D01*
X837000Y146368D01*
X839400D01*
X839778Y146525D01*
X840498Y145448D01*
X839436Y144387D01*
X838518Y142170D01*
Y139770D01*
X839436Y137553D01*
X841133Y135856D01*
X843350Y134938D01*
X845750D01*
X847967Y135856D01*
X849664Y137553D01*
X850582Y139770D01*
Y142170D01*
X849664Y144387D01*
X848603Y145448D01*
X849322Y146525D01*
X849700Y146368D01*
X852100D01*
X854317Y147286D01*
X856014Y148983D01*
X856932Y151200D01*
Y153600D01*
X856014Y155817D01*
X854317Y157514D01*
X852100Y158432D01*
D02*
G37*
G36*
X550759Y140160D02*
X549061D01*
X547491Y139510D01*
X546290Y138309D01*
X545640Y136739D01*
Y135041D01*
X546290Y133471D01*
X547491Y132270D01*
X549061Y131620D01*
X550759D01*
X552329Y132270D01*
X553530Y133471D01*
X554180Y135041D01*
Y136739D01*
X553530Y138309D01*
X552329Y139510D01*
X550759Y140160D01*
D02*
G37*
G36*
X120820Y147720D02*
X102980D01*
Y129880D01*
X120820D01*
Y147720D01*
D02*
G37*
G36*
X87674D02*
X85326D01*
X83057Y147112D01*
X81023Y145938D01*
X79362Y144277D01*
X78188Y142243D01*
X77580Y139974D01*
Y137626D01*
X78188Y135357D01*
X79362Y133323D01*
X81023Y131662D01*
X83057Y130488D01*
X85326Y129880D01*
X87674D01*
X89943Y130488D01*
X91977Y131662D01*
X93638Y133323D01*
X94812Y135357D01*
X95420Y137626D01*
Y139974D01*
X94812Y142243D01*
X93638Y144277D01*
X91977Y145938D01*
X89943Y147112D01*
X87674Y147720D01*
D02*
G37*
G36*
X70020D02*
X52180D01*
Y129880D01*
X70020D01*
Y147720D01*
D02*
G37*
G36*
X36874D02*
X34526D01*
X32257Y147112D01*
X30223Y145938D01*
X28562Y144277D01*
X27388Y142243D01*
X26780Y139974D01*
Y137626D01*
X27388Y135357D01*
X28562Y133323D01*
X30223Y131662D01*
X32257Y130488D01*
X34526Y129880D01*
X36874D01*
X39143Y130488D01*
X41177Y131662D01*
X42838Y133323D01*
X44012Y135357D01*
X44620Y137626D01*
Y139974D01*
X44012Y142243D01*
X42838Y144277D01*
X41177Y145938D01*
X39143Y147112D01*
X36874Y147720D01*
D02*
G37*
G36*
X646009Y124920D02*
X644311D01*
X642741Y124270D01*
X641540Y123069D01*
X640890Y121499D01*
Y119801D01*
X641540Y118231D01*
X642741Y117030D01*
X644311Y116380D01*
X646009D01*
X647579Y117030D01*
X648780Y118231D01*
X649430Y119801D01*
Y121499D01*
X648780Y123069D01*
X647579Y124270D01*
X646009Y124920D01*
D02*
G37*
G36*
X338669Y123650D02*
X336971D01*
X335401Y123000D01*
X334200Y121799D01*
X333550Y120229D01*
Y118531D01*
X334200Y116961D01*
X335401Y115760D01*
X336971Y115110D01*
X338669D01*
X340239Y115760D01*
X341440Y116961D01*
X342090Y118531D01*
Y120229D01*
X341440Y121799D01*
X340239Y123000D01*
X338669Y123650D01*
D02*
G37*
G36*
X659320Y89890D02*
X651320D01*
X648967Y89422D01*
X646971Y88089D01*
X645638Y86094D01*
X645170Y83740D01*
Y73740D01*
X645638Y71386D01*
X646971Y69391D01*
X648967Y68058D01*
X651320Y67590D01*
X659320D01*
X661674Y68058D01*
X663669Y69391D01*
X665002Y71386D01*
X665470Y73740D01*
Y83740D01*
X665002Y86094D01*
X663669Y88089D01*
X661674Y89422D01*
X659320Y89890D01*
D02*
G37*
G36*
X541210D02*
X533210D01*
X530857Y89422D01*
X528861Y88089D01*
X527528Y86094D01*
X527060Y83740D01*
Y73740D01*
X527528Y71386D01*
X528861Y69391D01*
X530857Y68058D01*
X533210Y67590D01*
X541210D01*
X543564Y68058D01*
X545559Y69391D01*
X546892Y71386D01*
X547360Y73740D01*
Y83740D01*
X546892Y86094D01*
X545559Y88089D01*
X543564Y89422D01*
X541210Y89890D01*
D02*
G37*
G36*
X431990D02*
X423990D01*
X421637Y89422D01*
X419641Y88089D01*
X418308Y86094D01*
X417840Y83740D01*
Y73740D01*
X418308Y71386D01*
X419641Y69391D01*
X421637Y68058D01*
X423990Y67590D01*
X431990D01*
X434344Y68058D01*
X436339Y69391D01*
X437672Y71386D01*
X438140Y73740D01*
Y83740D01*
X437672Y86094D01*
X436339Y88089D01*
X434344Y89422D01*
X431990Y89890D01*
D02*
G37*
G36*
X311340D02*
X303340D01*
X300986Y89422D01*
X298991Y88089D01*
X297658Y86094D01*
X297190Y83740D01*
Y73740D01*
X297658Y71386D01*
X298991Y69391D01*
X300986Y68058D01*
X303340Y67590D01*
X311340D01*
X313694Y68058D01*
X315689Y69391D01*
X317022Y71386D01*
X317490Y73740D01*
Y83740D01*
X317022Y86094D01*
X315689Y88089D01*
X313694Y89422D01*
X311340Y89890D01*
D02*
G37*
G36*
X169100D02*
X161100D01*
X158747Y89422D01*
X156751Y88089D01*
X155418Y86094D01*
X154950Y83740D01*
Y73740D01*
X155418Y71386D01*
X156751Y69391D01*
X158747Y68058D01*
X161100Y67590D01*
X169100D01*
X171454Y68058D01*
X173449Y69391D01*
X174782Y71386D01*
X175250Y73740D01*
Y83740D01*
X174782Y86094D01*
X173449Y88089D01*
X171454Y89422D01*
X169100Y89890D01*
D02*
G37*
%LPD*%
G36*
X341630Y617220D02*
X341630Y586740D01*
X340360Y585470D01*
X328930D01*
X325120Y581660D01*
Y575310D01*
X322580Y572770D01*
X312420D01*
X309880Y575310D01*
Y598730D01*
X312420Y601270D01*
Y619760D01*
X339090D01*
X341630Y617220D01*
D02*
G37*
G36*
X179179Y615213D02*
X179932Y614460D01*
X180340Y613476D01*
Y612943D01*
Y543560D01*
X165100D01*
Y588010D01*
X151534D01*
X151413Y588060D01*
X151321Y588152D01*
X151271Y588273D01*
Y588338D01*
X150551D01*
X149220Y588890D01*
X148201Y589908D01*
X147650Y591239D01*
Y591959D01*
Y613273D01*
Y613740D01*
X148007Y614603D01*
X148667Y615263D01*
X149530Y615620D01*
X178196D01*
X179179Y615213D01*
D02*
G37*
D139*
X165100Y603250D02*
X318770D01*
D145*
X190500Y78740D02*
D03*
X332740D02*
D03*
X562610D02*
D03*
X680720D02*
D03*
X453390D02*
D03*
D146*
X165100D02*
D03*
X307340D02*
D03*
X537210D02*
D03*
X655320D02*
D03*
X427990D02*
D03*
D148*
X683890Y847090D02*
D03*
X663890D02*
D03*
X682620Y820420D02*
D03*
X662620D02*
D03*
X642620D02*
D03*
X703890Y847090D02*
D03*
D149*
X61100Y748400D02*
D03*
X35700D02*
D03*
Y519800D02*
D03*
X61100D02*
D03*
X35700Y494400D02*
D03*
X61100D02*
D03*
Y469000D02*
D03*
Y443600D02*
D03*
X35700Y469000D02*
D03*
Y443600D02*
D03*
X86500Y469000D02*
D03*
X111900Y697600D02*
D03*
Y672200D02*
D03*
Y519800D02*
D03*
X86500D02*
D03*
X111900Y545200D02*
D03*
X86500D02*
D03*
X111900Y748400D02*
D03*
X86500D02*
D03*
X111900Y469000D02*
D03*
Y443600D02*
D03*
X86500D02*
D03*
Y291200D02*
D03*
X111900Y316600D02*
D03*
Y291200D02*
D03*
Y265800D02*
D03*
Y240400D02*
D03*
X86500Y189600D02*
D03*
X111900Y392800D02*
D03*
Y418200D02*
D03*
X86500Y316600D02*
D03*
X111900Y367400D02*
D03*
X86500D02*
D03*
Y392800D02*
D03*
Y418200D02*
D03*
X111900Y494400D02*
D03*
X86500D02*
D03*
X111900Y570600D02*
D03*
X86500D02*
D03*
Y621400D02*
D03*
Y646800D02*
D03*
X111900Y723000D02*
D03*
X86500D02*
D03*
X111900Y773800D02*
D03*
X86500D02*
D03*
Y138800D02*
D03*
Y164200D02*
D03*
X111900Y189600D02*
D03*
Y215000D02*
D03*
X86500D02*
D03*
Y265800D02*
D03*
Y240400D02*
D03*
Y672200D02*
D03*
Y697600D02*
D03*
X111900Y621400D02*
D03*
Y646800D02*
D03*
Y164200D02*
D03*
Y342000D02*
D03*
X86500D02*
D03*
Y596000D02*
D03*
X111900D02*
D03*
X35700Y545200D02*
D03*
X61100D02*
D03*
X35700Y672200D02*
D03*
X61100Y646800D02*
D03*
Y672200D02*
D03*
Y697600D02*
D03*
Y621400D02*
D03*
X35700Y697600D02*
D03*
X61100Y164200D02*
D03*
X35700Y291200D02*
D03*
X61100Y316600D02*
D03*
Y291200D02*
D03*
Y265800D02*
D03*
Y240400D02*
D03*
X35700Y189600D02*
D03*
Y316600D02*
D03*
X61100Y570600D02*
D03*
X35700D02*
D03*
Y621400D02*
D03*
Y646800D02*
D03*
X61100Y723000D02*
D03*
X35700D02*
D03*
X61100Y773800D02*
D03*
X35700D02*
D03*
Y138800D02*
D03*
Y164200D02*
D03*
X61100Y189600D02*
D03*
Y215000D02*
D03*
X35700D02*
D03*
Y265800D02*
D03*
Y240400D02*
D03*
X61100Y596000D02*
D03*
X35700D02*
D03*
Y342000D02*
D03*
X61100D02*
D03*
X35700Y367400D02*
D03*
Y392800D02*
D03*
Y418200D02*
D03*
X61100Y392800D02*
D03*
Y418200D02*
D03*
Y367400D02*
D03*
D150*
X702620Y820420D02*
D03*
X643890Y847090D02*
D03*
D151*
X111900Y138800D02*
D03*
X61100D02*
D03*
D152*
X363220Y821690D02*
D03*
X350520Y784860D02*
D03*
Y792480D02*
D03*
X351790Y770890D02*
D03*
X356870Y777240D02*
D03*
X353567Y761257D02*
D03*
X345440Y725170D02*
D03*
X345561Y736411D02*
D03*
Y746571D02*
D03*
X382270Y730250D02*
D03*
Y746760D02*
D03*
X469900Y745490D02*
D03*
X403860Y821690D02*
D03*
X461010Y816610D02*
D03*
X866140Y734060D02*
D03*
X882650Y528320D02*
D03*
X867410Y699770D02*
D03*
X892810Y519430D02*
D03*
X798830Y497840D02*
D03*
Y508000D02*
D03*
X775970Y783590D02*
D03*
X703014Y778471D02*
D03*
X684530Y772160D02*
D03*
X664210Y777240D02*
D03*
X643890Y772160D02*
D03*
X605980Y831660D02*
D03*
X599440Y805180D02*
D03*
X717550Y549910D02*
D03*
X703580Y535940D02*
D03*
X764540Y519430D02*
D03*
Y506730D02*
D03*
X703580Y520700D02*
D03*
Y504190D02*
D03*
X600710Y688340D02*
D03*
X584200D02*
D03*
X614680Y648970D02*
D03*
X668020Y539750D02*
D03*
X650240Y516890D02*
D03*
X656590Y499110D02*
D03*
X636270Y501650D02*
D03*
X632460Y516890D02*
D03*
X852170Y469900D02*
D03*
X844550Y356870D02*
D03*
X821690Y321310D02*
D03*
Y266700D02*
D03*
X844550Y215900D02*
D03*
X821690Y59690D02*
D03*
Y78740D02*
D03*
X803910Y389890D02*
D03*
Y400050D02*
D03*
X764540Y490220D02*
D03*
X807623Y376099D02*
D03*
X796290Y364490D02*
D03*
X807720D02*
D03*
X796290Y375920D02*
D03*
X735330Y490220D02*
D03*
X750570D02*
D03*
X718820D02*
D03*
X759460Y472440D02*
D03*
X812800Y321310D02*
D03*
Y266700D02*
D03*
X808990Y341630D02*
D03*
Y332740D02*
D03*
X811530Y208280D02*
D03*
X810260Y223520D02*
D03*
X811530Y198120D02*
D03*
X810260Y232410D02*
D03*
X807720Y172720D02*
D03*
X803910Y283210D02*
D03*
Y292100D02*
D03*
Y271780D02*
D03*
Y260350D02*
D03*
X800100Y247650D02*
D03*
X608330Y490220D02*
D03*
X703580D02*
D03*
X607060Y377190D02*
D03*
X617220Y345440D02*
D03*
X607060Y407670D02*
D03*
Y398780D02*
D03*
Y386080D02*
D03*
X603250Y365760D02*
D03*
Y355600D02*
D03*
X650073Y185566D02*
D03*
X617220Y317500D02*
D03*
Y308610D02*
D03*
X664043Y175440D02*
D03*
Y185566D02*
D03*
Y164010D02*
D03*
X650073Y175440D02*
D03*
Y164010D02*
D03*
X617220Y336550D02*
D03*
X575310Y208280D02*
D03*
X588010D02*
D03*
X612140Y204470D02*
D03*
X598170Y208280D02*
D03*
X816610Y147320D02*
D03*
X807720Y161290D02*
D03*
X816610Y138430D02*
D03*
X805180Y147320D02*
D03*
Y138430D02*
D03*
X717550Y147320D02*
D03*
X665480Y119380D02*
D03*
X664043Y152614D02*
D03*
X650073D02*
D03*
X598170Y138430D02*
D03*
X593090Y147320D02*
D03*
X597960Y128929D02*
D03*
X517701Y811050D02*
D03*
X572770Y796290D02*
D03*
X506730Y829310D02*
D03*
X506835Y818114D02*
D03*
X447040Y588010D02*
D03*
X443230Y674370D02*
D03*
X567690Y548640D02*
D03*
X501650D02*
D03*
X447040Y571500D02*
D03*
Y558800D02*
D03*
X462280Y504190D02*
D03*
X429260Y558800D02*
D03*
X367030Y640080D02*
D03*
X414020Y637540D02*
D03*
X392430Y590550D02*
D03*
X412750Y558800D02*
D03*
X392430Y571500D02*
D03*
Y558800D02*
D03*
Y622300D02*
D03*
Y637540D02*
D03*
Y608330D02*
D03*
X236220Y748030D02*
D03*
X243840D02*
D03*
X165100Y504190D02*
D03*
X156210D02*
D03*
X142240Y501650D02*
D03*
X516890Y316230D02*
D03*
X509270D02*
D03*
X501650D02*
D03*
X493996Y254000D02*
D03*
X499110Y212090D02*
D03*
X493996Y267970D02*
D03*
X472440D02*
D03*
X462280Y491490D02*
D03*
X483870Y267970D02*
D03*
X461044D02*
D03*
X436880Y257810D02*
D03*
X472440Y254000D02*
D03*
X461044D02*
D03*
X483870D02*
D03*
X448310Y233680D02*
D03*
X565150Y208280D02*
D03*
X549910Y203200D02*
D03*
X490220Y201930D02*
D03*
X501650Y193040D02*
D03*
X381000Y292100D02*
D03*
Y300990D02*
D03*
Y284480D02*
D03*
X372110Y292100D02*
D03*
Y300990D02*
D03*
X363220Y284480D02*
D03*
Y300990D02*
D03*
Y292100D02*
D03*
X372110Y284480D02*
D03*
X389890Y256540D02*
D03*
Y240030D02*
D03*
X373380Y226060D02*
D03*
X570230Y106680D02*
D03*
X501650Y181610D02*
D03*
Y171450D02*
D03*
X478790Y106680D02*
D03*
Y127000D02*
D03*
Y116840D02*
D03*
X440690Y120650D02*
D03*
X430530Y109220D02*
D03*
Y120650D02*
D03*
X440690Y109220D02*
D03*
X383540Y144780D02*
D03*
X331470Y472440D02*
D03*
X320040Y462280D02*
D03*
Y472440D02*
D03*
X331470Y462280D02*
D03*
X320040Y453390D02*
D03*
X331470D02*
D03*
X246380Y480060D02*
D03*
X240030Y441960D02*
D03*
X234950Y480060D02*
D03*
X252730Y441960D02*
D03*
X240030Y433070D02*
D03*
X252730D02*
D03*
X224924Y331175D02*
D03*
Y322285D02*
D03*
X320040Y270510D02*
D03*
X316230Y203200D02*
D03*
X313690Y227330D02*
D03*
Y214630D02*
D03*
X250190Y213360D02*
D03*
X240030D02*
D03*
X304800Y208280D02*
D03*
X229870Y213360D02*
D03*
X250190Y201930D02*
D03*
X240030D02*
D03*
X229870D02*
D03*
X223520Y480060D02*
D03*
X212535Y344600D02*
D03*
X200660Y344170D02*
D03*
X209550Y279400D02*
D03*
X204470Y294640D02*
D03*
X209550Y270510D02*
D03*
X198120Y120650D02*
D03*
Y129540D02*
D03*
X195580Y106680D02*
D03*
X119380Y53340D02*
D03*
X642620Y715010D02*
D03*
X866736Y682821D02*
D03*
X867030Y664210D02*
D03*
X607060Y758190D02*
D03*
X567690Y826770D02*
D03*
X607060Y773430D02*
D03*
X557530Y792480D02*
D03*
X607060Y742950D02*
D03*
X562610Y722630D02*
D03*
X867410Y631190D02*
D03*
Y598170D02*
D03*
X702310Y549910D02*
D03*
X668020Y515620D02*
D03*
X562610Y532130D02*
D03*
X561340Y462280D02*
D03*
X543560Y722630D02*
D03*
X185420Y786130D02*
D03*
X511810Y462280D02*
D03*
X174460Y409628D02*
D03*
Y419788D02*
D03*
X163030Y409628D02*
D03*
Y419788D02*
D03*
X605790Y847090D02*
D03*
X298450Y778510D02*
D03*
X642620Y702310D02*
D03*
X421640Y214630D02*
D03*
X191770Y483870D02*
D03*
X180340D02*
D03*
X191770Y494030D02*
D03*
X180340D02*
D03*
X394970Y209550D02*
D03*
X445770Y215900D02*
D03*
X379730Y203200D02*
D03*
X410210Y219710D02*
D03*
X482600Y457962D02*
D03*
X637540Y674370D02*
D03*
X643890Y662940D02*
D03*
X473710Y452120D02*
D03*
X337820Y119380D02*
D03*
X549910Y135890D02*
D03*
X717550Y162560D02*
D03*
X645160Y120650D02*
D03*
X389890Y266700D02*
D03*
X356870Y264160D02*
D03*
X396240Y274320D02*
D03*
X146050Y580390D02*
D03*
X840740Y588010D02*
D03*
X826770Y627380D02*
D03*
Y646430D02*
D03*
X826461Y662631D02*
D03*
X754380Y558800D02*
D03*
X744220D02*
D03*
X532130Y783590D02*
D03*
X542667Y810563D02*
D03*
X633619Y590510D02*
D03*
X542290Y623570D02*
D03*
Y598170D02*
D03*
X579120Y623570D02*
D03*
Y598170D02*
D03*
X644116Y654276D02*
D03*
X297180Y749300D02*
D03*
Y763270D02*
D03*
X803910Y744220D02*
D03*
X764540Y802640D02*
D03*
X598170Y462280D02*
D03*
X549910Y745490D02*
D03*
X683450Y539560D02*
D03*
X528320Y462280D02*
D03*
X545910Y462470D02*
D03*
X488950Y320040D02*
D03*
X322580Y687070D02*
D03*
X173990Y731520D02*
D03*
X528320Y250190D02*
D03*
X576580Y528320D02*
D03*
X322580Y674370D02*
D03*
X222250Y806450D02*
D03*
X825500Y716280D02*
D03*
X828040Y707390D02*
D03*
D153*
X919829Y827297D02*
D03*
Y836297D02*
D03*
Y818297D02*
D03*
X898250Y889848D02*
D03*
X889250Y889826D02*
D03*
X909253Y886672D02*
D03*
X880250Y889826D02*
D03*
X919829Y854297D02*
D03*
Y863297D02*
D03*
Y845297D02*
D03*
X915867Y880568D02*
D03*
X919391Y872287D02*
D03*
X919829Y782297D02*
D03*
Y791297D02*
D03*
Y800297D02*
D03*
Y809297D02*
D03*
X916575Y773906D02*
D03*
X909184Y768771D02*
D03*
X904767Y760929D02*
D03*
X903829Y751978D02*
D03*
Y742978D02*
D03*
X862250Y889826D02*
D03*
X853250D02*
D03*
X871250D02*
D03*
X844250D02*
D03*
X826250D02*
D03*
X817250D02*
D03*
X835250D02*
D03*
X799250D02*
D03*
X808250D02*
D03*
X903829Y679978D02*
D03*
Y643979D02*
D03*
Y652979D02*
D03*
Y634978D02*
D03*
Y670978D02*
D03*
Y661978D02*
D03*
Y706978D02*
D03*
Y715978D02*
D03*
Y697978D02*
D03*
Y733978D02*
D03*
Y724978D02*
D03*
Y688978D02*
D03*
X903829Y607979D02*
D03*
Y598979D02*
D03*
Y625979D02*
D03*
Y616978D02*
D03*
Y517979D02*
D03*
Y562979D02*
D03*
Y571979D02*
D03*
Y553979D02*
D03*
Y589979D02*
D03*
Y580979D02*
D03*
Y535979D02*
D03*
Y544979D02*
D03*
Y526979D02*
D03*
X903829Y508979D02*
D03*
Y499979D02*
D03*
X873760Y519430D02*
D03*
X781250Y889826D02*
D03*
X772250D02*
D03*
X790250D02*
D03*
X754250D02*
D03*
X763250D02*
D03*
X745250D02*
D03*
X736250D02*
D03*
X729410Y883977D02*
D03*
X723279Y877388D02*
D03*
X714897Y874110D02*
D03*
X696901Y873826D02*
D03*
X705901Y873826D02*
D03*
X678901Y873826D02*
D03*
X687901D02*
D03*
X660901D02*
D03*
X651901D02*
D03*
X669901D02*
D03*
X633901D02*
D03*
X642901D02*
D03*
X579902D02*
D03*
X615901D02*
D03*
X606902D02*
D03*
X624902D02*
D03*
X588901D02*
D03*
X597901D02*
D03*
X903829Y454979D02*
D03*
Y463979D02*
D03*
Y445979D02*
D03*
Y472979D02*
D03*
Y409979D02*
D03*
Y418979D02*
D03*
Y400979D02*
D03*
Y436979D02*
D03*
Y427979D02*
D03*
Y481979D02*
D03*
Y490979D02*
D03*
X903829Y373979D02*
D03*
Y391979D02*
D03*
Y382979D02*
D03*
Y337979D02*
D03*
Y346979D02*
D03*
Y328979D02*
D03*
Y364979D02*
D03*
Y355979D02*
D03*
Y274979D02*
D03*
Y292979D02*
D03*
Y301979D02*
D03*
Y283979D02*
D03*
Y319979D02*
D03*
Y310979D02*
D03*
X903829Y238979D02*
D03*
Y247979D02*
D03*
Y229979D02*
D03*
Y265979D02*
D03*
Y256979D02*
D03*
X919829Y128626D02*
D03*
X912304Y133562D02*
D03*
X919829Y110626D02*
D03*
Y119626D02*
D03*
Y101626D02*
D03*
X903829Y193979D02*
D03*
Y202979D02*
D03*
Y184979D02*
D03*
Y220979D02*
D03*
Y211979D02*
D03*
X903919Y148980D02*
D03*
X903829Y157979D02*
D03*
X906356Y140316D02*
D03*
X903829Y175979D02*
D03*
Y166979D02*
D03*
X919829Y38626D02*
D03*
Y65626D02*
D03*
Y74626D02*
D03*
Y56626D02*
D03*
Y92626D02*
D03*
Y83626D02*
D03*
Y47626D02*
D03*
X919681Y29627D02*
D03*
X916874Y21076D02*
D03*
X910898Y14346D02*
D03*
X902669Y10701D02*
D03*
X848685Y10171D02*
D03*
X857685D02*
D03*
X893685D02*
D03*
X884685D02*
D03*
X875685D02*
D03*
X839685D02*
D03*
X866685D02*
D03*
X821685D02*
D03*
X830685D02*
D03*
X740685D02*
D03*
X727720Y18625D02*
D03*
X720652Y24198D02*
D03*
X731693Y10550D02*
D03*
X711872Y26172D02*
D03*
X702872Y26172D02*
D03*
X803685Y10171D02*
D03*
X794685D02*
D03*
X812685D02*
D03*
X776685D02*
D03*
X785685D02*
D03*
X758685D02*
D03*
X767685D02*
D03*
X749685D02*
D03*
X693872Y26172D02*
D03*
X684872Y26172D02*
D03*
X675872Y26172D02*
D03*
X666872Y26172D02*
D03*
X657872Y26172D02*
D03*
X648872Y26172D02*
D03*
X639872Y26172D02*
D03*
X630872Y26172D02*
D03*
X621872Y26172D02*
D03*
X612872Y26172D02*
D03*
X603872Y26171D02*
D03*
X594872Y26171D02*
D03*
X585872Y26171D02*
D03*
X576872Y26171D02*
D03*
X516902Y873826D02*
D03*
X489902D02*
D03*
X525902D02*
D03*
X561902D02*
D03*
X552902D02*
D03*
X570902D02*
D03*
X534902D02*
D03*
X543902D02*
D03*
X471902D02*
D03*
X462902D02*
D03*
X480902D02*
D03*
X444902D02*
D03*
X453902D02*
D03*
X507902D02*
D03*
X498902D02*
D03*
X426902D02*
D03*
X417902D02*
D03*
X435902D02*
D03*
X408902Y873826D02*
D03*
X399902Y873825D02*
D03*
X390902Y873825D02*
D03*
X381902Y873825D02*
D03*
X372902Y873825D02*
D03*
X363902Y873825D02*
D03*
X354902Y873825D02*
D03*
X345902Y873825D02*
D03*
X336902Y873825D02*
D03*
X327902Y873825D02*
D03*
X318902Y873825D02*
D03*
X210990Y875078D02*
D03*
X309902Y873825D02*
D03*
X203387Y879893D02*
D03*
X300902Y873824D02*
D03*
X291902Y873824D02*
D03*
X282902Y873824D02*
D03*
X273902Y873824D02*
D03*
X264902Y873824D02*
D03*
X154023Y889826D02*
D03*
X190023D02*
D03*
X181023D02*
D03*
X198744Y887603D02*
D03*
X163023Y889826D02*
D03*
X172023D02*
D03*
X255902Y873824D02*
D03*
X246902Y873824D02*
D03*
X237902Y873824D02*
D03*
X228902Y873824D02*
D03*
X219902Y873824D02*
D03*
X91023Y889826D02*
D03*
X82023D02*
D03*
X100023D02*
D03*
X136023D02*
D03*
X127023D02*
D03*
X145023D02*
D03*
X109023D02*
D03*
X118023D02*
D03*
X37023D02*
D03*
X64023D02*
D03*
X55023D02*
D03*
X73023D02*
D03*
X46023D02*
D03*
X28030Y889467D02*
D03*
X19710Y886037D02*
D03*
X13495Y879527D02*
D03*
X10375Y871085D02*
D03*
X10171Y862087D02*
D03*
X280670Y597154D02*
D03*
X10171Y844087D02*
D03*
Y853087D02*
D03*
Y817087D02*
D03*
Y826087D02*
D03*
Y835087D02*
D03*
X234950Y539750D02*
D03*
X233680Y553720D02*
D03*
X234950Y509270D02*
D03*
Y516890D02*
D03*
Y501650D02*
D03*
Y532130D02*
D03*
Y524510D02*
D03*
X446006Y194313D02*
D03*
X421640Y194310D02*
D03*
X469900D02*
D03*
X446006Y186693D02*
D03*
X469900Y186690D02*
D03*
X398780D02*
D03*
X421640D02*
D03*
X398780Y194310D02*
D03*
X567872Y26171D02*
D03*
X558872Y26171D02*
D03*
X549872Y26171D02*
D03*
X540872Y26171D02*
D03*
X531872Y26171D02*
D03*
X491490Y138430D02*
D03*
X522872Y26171D02*
D03*
X513872Y26171D02*
D03*
X459872Y26170D02*
D03*
X495872D02*
D03*
X486872D02*
D03*
X504872D02*
D03*
X468872D02*
D03*
X477872D02*
D03*
X450872D02*
D03*
X387872D02*
D03*
X396872D02*
D03*
X360680Y142240D02*
D03*
X369872Y26170D02*
D03*
X378872D02*
D03*
X360872D02*
D03*
X441872D02*
D03*
X423872D02*
D03*
X432872D02*
D03*
X405872D02*
D03*
X414872D02*
D03*
X234950Y492760D02*
D03*
X10170Y94525D02*
D03*
Y76525D02*
D03*
Y85525D02*
D03*
Y49525D02*
D03*
Y40525D02*
D03*
Y67525D02*
D03*
Y58525D02*
D03*
X297873Y26170D02*
D03*
X288873D02*
D03*
X306873D02*
D03*
X279873D02*
D03*
X342872D02*
D03*
X333872D02*
D03*
X351872D02*
D03*
X315872D02*
D03*
X324873D02*
D03*
X243873D02*
D03*
X225873D02*
D03*
X234873D02*
D03*
X261873D02*
D03*
X252873D02*
D03*
X270873D02*
D03*
X216873Y26071D02*
D03*
X208221Y23593D02*
D03*
X201502Y17606D02*
D03*
X187430Y10171D02*
D03*
X196430D02*
D03*
X178431D02*
D03*
X115431D02*
D03*
X106431D02*
D03*
X124431D02*
D03*
X88431D02*
D03*
X97431D02*
D03*
X160431D02*
D03*
X151431D02*
D03*
X169431D02*
D03*
X133431D02*
D03*
X142431D02*
D03*
X25484Y11144D02*
D03*
X17654Y15583D02*
D03*
X34431Y10171D02*
D03*
X10170Y31525D02*
D03*
X12229Y22764D02*
D03*
X70431Y10171D02*
D03*
X61431D02*
D03*
X79431D02*
D03*
X43431D02*
D03*
X52431D02*
D03*
X360172Y164084D02*
D03*
X203200Y586740D02*
D03*
X199390Y572770D02*
D03*
X203262Y567838D02*
D03*
X334010Y603250D02*
D03*
X318770D02*
D03*
X323850Y586740D02*
D03*
X172720Y596900D02*
D03*
X165100Y603250D02*
D03*
X168910Y562610D02*
D03*
D154*
X836930Y802640D02*
D03*
X792480Y783590D02*
D03*
X805180Y772160D02*
D03*
X325120Y825500D02*
D03*
X250190Y796290D02*
D03*
X260350Y786130D02*
D03*
X238760Y821690D02*
D03*
Y833120D02*
D03*
X309564Y669606D02*
D03*
X158750Y669290D02*
D03*
X302260Y825500D02*
D03*
X805180Y756920D02*
D03*
X614680Y662940D02*
D03*
X882650Y491490D02*
D03*
X865761Y491835D02*
D03*
X794218Y479993D02*
D03*
X582930Y558800D02*
D03*
X534670Y539750D02*
D03*
X444500Y687070D02*
D03*
X274320Y745490D02*
D03*
X215900Y749300D02*
D03*
X403860Y364490D02*
D03*
X350857Y239438D02*
D03*
X311150Y255270D02*
D03*
X582758Y461576D02*
D03*
X314960Y364490D02*
D03*
X431800Y284480D02*
D03*
X835660Y269240D02*
D03*
X847090D02*
D03*
X808990Y435610D02*
D03*
Y420370D02*
D03*
X826770Y435610D02*
D03*
Y420370D02*
D03*
X849630Y303530D02*
D03*
X840740Y323850D02*
D03*
X842010Y182880D02*
D03*
X838200Y152400D02*
D03*
X850900D02*
D03*
X844550Y140970D02*
D03*
D155*
X892746Y850000D02*
D03*
X893000Y50000D02*
D03*
X35560Y826770D02*
D03*
X35446Y88000D02*
D03*
M02*
