G04*
G04 #@! TF.GenerationSoftware,Altium Limited,Altium Designer,24.10.1 (45)*
G04*
G04 Layer_Physical_Order=4*
G04 Layer_Color=16711680*
%FSTAX44Y44*%
%MOMM*%
G71*
G04*
G04 #@! TF.SameCoordinates,A1E24A74-1E18-4B06-9042-5DF92875548E*
G04*
G04*
G04 #@! TF.FilePolarity,Positive*
G04*
G01*
G75*
%ADD21C,0.2540*%
%ADD22C,1.0000*%
%ADD116C,0.5000*%
%ADD117C,0.2237*%
%ADD123R,1.6000X1.6000*%
%ADD124C,1.6000*%
%ADD125C,1.5300*%
%ADD126C,6.0000*%
%ADD127R,1.5300X1.5300*%
%ADD128C,0.4000*%
G36*
X00202079Y00897274D02*
X00203933Y00896036D01*
X00205171Y00894182D01*
X00205367Y00893197D01*
X00205535Y00891996D01*
X00205535D01*
X00205888Y00889315D01*
X00206922Y00886817D01*
X00208569Y00884671D01*
X00210714Y00883025D01*
X00213212Y00881991D01*
X00215893Y00881637D01*
Y00881682D01*
X00713893D01*
Y00881637D01*
X00716574Y00881991D01*
X00719072Y00883025D01*
X00721218Y00884671D01*
X00722864Y00886817D01*
X00723899Y00889315D01*
X00724252Y00891996D01*
X00724252D01*
X00724419Y00893197D01*
X00724615Y00894182D01*
X00725854Y00896036D01*
X00727707Y00897274D01*
X00729825Y00897695D01*
X00729893Y00897682D01*
X00729912Y00897685D01*
X00898071D01*
X00898083Y00897688D01*
X00902645Y00897329D01*
X00907176Y00896241D01*
X00911481Y00894458D01*
X00915454Y00892023D01*
X00918997Y00888997D01*
X00922023Y00885454D01*
X00924458Y00881481D01*
X00926241Y00877176D01*
X00927329Y00872645D01*
X00927688Y00868083D01*
X00927685Y00868071D01*
Y00773071D01*
X00927699Y00773002D01*
X00927278Y00770885D01*
X0092604Y00769031D01*
X00924186Y00767793D01*
X00923201Y00767597D01*
X00922Y0076743D01*
Y00767429D01*
X00919319Y00767076D01*
X00916821Y00766042D01*
X00914675Y00764395D01*
X00913029Y0076225D01*
X00911994Y00759752D01*
X00911641Y00757071D01*
X00911685D01*
X00911685Y0075707D01*
Y00148D01*
X00911641D01*
X00911994Y00145319D01*
X00913029Y00142821D01*
X00914675Y00140675D01*
X00916821Y00139029D01*
X00919319Y00137994D01*
X00922Y00137641D01*
Y00137641D01*
X00923201Y00137474D01*
X00924186Y00137278D01*
X0092604Y0013604D01*
X00927278Y00134186D01*
X00927699Y00132069D01*
X00927685Y00132D01*
Y00032D01*
X00927692Y00031967D01*
X00927329Y00027355D01*
X00926241Y00022824D01*
X00924458Y00018519D01*
X00922023Y00014546D01*
X00918997Y00011003D01*
X00915454Y00007977D01*
X00911481Y00005542D01*
X00907176Y00003759D01*
X00902645Y00002671D01*
X00898033Y00002308D01*
X00898Y00002315D01*
X0073D01*
X00729931Y00002301D01*
X00727814Y00002722D01*
X0072596Y0000396D01*
X00724722Y00005814D01*
X00724526Y00006799D01*
X00724359Y00008D01*
X00724359D01*
X00724006Y00010681D01*
X00722971Y00013179D01*
X00721325Y00015325D01*
X00719179Y00016971D01*
X00716681Y00018006D01*
X00714Y00018359D01*
Y00018314D01*
X00216D01*
Y00018359D01*
X00213319Y00018006D01*
X00210821Y00016971D01*
X00208675Y00015325D01*
X00207029Y00013179D01*
X00205994Y00010681D01*
X00205641Y00008D01*
X00205641D01*
X00205474Y00006799D01*
X00205278Y00005814D01*
X0020404Y0000396D01*
X00202186Y00002722D01*
X00200068Y00002301D01*
X002Y00002315D01*
X00032D01*
X00031967Y00002308D01*
X00027355Y00002671D01*
X00022824Y00003759D01*
X00018519Y00005542D01*
X00014546Y00007977D01*
X00011003Y00011003D01*
X00007977Y00014546D01*
X00005542Y00018519D01*
X00003759Y00022824D01*
X00002671Y00027355D01*
X00002403Y00030766D01*
X00002315Y00032D01*
X00002314Y0003325D01*
X00002314Y00033264D01*
X00002314Y00033068D01*
X00002314Y0003325D01*
Y00123302D01*
X000023Y0012337D01*
X00002721Y00125488D01*
X0000396Y00127341D01*
X00005813Y0012858D01*
X00007921Y00128999D01*
X00008004Y00128982D01*
X00009999D01*
Y00128938D01*
X0001268Y00129291D01*
X00015178Y00130326D01*
X00017324Y00131972D01*
X0001897Y00134118D01*
X00020005Y00136616D01*
X00020358Y00139297D01*
X00020315D01*
X00020315Y00139298D01*
Y007735D01*
X00020359D01*
X00020006Y00776181D01*
X00018971Y00778679D01*
X00017325Y00780825D01*
X00015179Y00782471D01*
X00012681Y00783506D01*
X0001Y00783859D01*
Y00783814D01*
X0001Y00783814D01*
X00008D01*
X00007932Y00783801D01*
X00005814Y00784222D01*
X0000396Y0078546D01*
X00002722Y00787314D01*
X00002301Y00789432D01*
X00002315Y007895D01*
Y00868D01*
X00002308Y00868033D01*
X00002671Y00872645D01*
X00003759Y00877176D01*
X00005542Y00881481D01*
X00007977Y00885454D01*
X00011003Y00888997D01*
X00014546Y00892023D01*
X00018519Y00894458D01*
X00022824Y00896241D01*
X00027355Y00897329D01*
X00031906Y00897687D01*
X00031933Y00897682D01*
X00199893D01*
X00199962Y00897695D01*
X00202079Y00897274D01*
D02*
G37*
%LPC*%
G36*
X00828296Y00852252D02*
X00809756D01*
Y00833712D01*
X00828296D01*
Y00852252D01*
D02*
G37*
G36*
X00667846D02*
X00665405D01*
X00663048Y0085162D01*
X00660934Y00850399D01*
X00659208Y00848674D01*
X00657988Y0084656D01*
X00657356Y00844202D01*
Y00841761D01*
X00657988Y00839404D01*
X00659208Y0083729D01*
X00660934Y00835564D01*
X00663048Y00834343D01*
X00665405Y00833712D01*
X00667846D01*
X00670204Y00834343D01*
X00672318Y00835564D01*
X00674044Y0083729D01*
X00675264Y00839404D01*
X00675896Y00841761D01*
Y00844202D01*
X00675264Y0084656D01*
X00674044Y00848674D01*
X00672318Y00850399D01*
X00670204Y0085162D01*
X00667846Y00852252D01*
D02*
G37*
G36*
X00642446D02*
X00640005D01*
X00637648Y0085162D01*
X00635534Y00850399D01*
X00633808Y00848674D01*
X00632588Y0084656D01*
X00631956Y00844202D01*
Y00841761D01*
X00632588Y00839404D01*
X00633808Y0083729D01*
X00635534Y00835564D01*
X00637648Y00834343D01*
X00640005Y00833712D01*
X00642446D01*
X00644804Y00834343D01*
X00646918Y00835564D01*
X00648644Y0083729D01*
X00649864Y00839404D01*
X00650496Y00841761D01*
Y00844202D01*
X00649864Y0084656D01*
X00648644Y00848674D01*
X00646918Y00850399D01*
X00644804Y0085162D01*
X00642446Y00852252D01*
D02*
G37*
G36*
X00794909Y00852732D02*
X00792342D01*
X00789863Y00852067D01*
X00787639Y00850784D01*
X00785824Y00848968D01*
X0078454Y00846745D01*
X00783876Y00844265D01*
Y00841698D01*
X0078454Y00839218D01*
X00785824Y00836995D01*
X00787639Y0083518D01*
X00789863Y00833896D01*
X00792342Y00833232D01*
X00794909D01*
X00797389Y00833896D01*
X00799612Y0083518D01*
X00801428Y00836995D01*
X00802711Y00839218D01*
X00803376Y00841698D01*
Y00844265D01*
X00802711Y00846745D01*
X00801428Y00848968D01*
X00799612Y00850784D01*
X00797389Y00852067D01*
X00794909Y00852732D01*
D02*
G37*
G36*
X00334221Y00834325D02*
X0033273D01*
X00331351Y00833754D01*
X00330297Y00832699D01*
X00329726Y00831321D01*
Y00829829D01*
X00330297Y00828451D01*
X00331351Y00827396D01*
X0033273Y00826825D01*
X00334221D01*
X003356Y00827396D01*
X00336655Y00828451D01*
X00337226Y00829829D01*
Y00831321D01*
X00336655Y00832699D01*
X003356Y00833754D01*
X00334221Y00834325D01*
D02*
G37*
G36*
X00495546Y0083052D02*
X00494054D01*
X00492676Y00829949D01*
X00491621Y00828894D01*
X0049105Y00827516D01*
Y00826024D01*
X00491621Y00824646D01*
X00492676Y00823591D01*
X00494054Y0082302D01*
X00495546D01*
X00496924Y00823591D01*
X00497979Y00824646D01*
X0049855Y00826024D01*
Y00827516D01*
X00497979Y00828894D01*
X00496924Y00829949D01*
X00495546Y0083052D01*
D02*
G37*
G36*
X00744046Y00852252D02*
X00741605D01*
X00739248Y0085162D01*
X00737134Y00850399D01*
X00735408Y00848674D01*
X00734188Y0084656D01*
X00733556Y00844202D01*
Y00841761D01*
X00734188Y00839404D01*
X00735408Y0083729D01*
X00736142Y00836556D01*
X00736238Y00836312D01*
X00737034Y0083549D01*
X00737717Y00834701D01*
X00738312Y00833918D01*
X0073882Y00833145D01*
X00739244Y00832382D01*
X00739586Y00831628D01*
X00739848Y00830883D01*
X00740033Y00830146D01*
X00740143Y00829414D01*
X00740183Y00828615D01*
X00740236Y00828502D01*
Y00814194D01*
X00740433Y00813203D01*
X00740995Y00812363D01*
X00745137Y0080822D01*
X00745187Y00808093D01*
X00745879Y00807373D01*
X0074603Y00807197D01*
Y0080707D01*
X00746528Y00805868D01*
X00747448Y00804948D01*
X0074865Y0080445D01*
X0074995D01*
X00751152Y00804948D01*
X00752072Y00805868D01*
X0075257Y0080707D01*
Y0080837D01*
X00752072Y00809572D01*
X00751152Y00810492D01*
X0074995Y0081099D01*
X00749858D01*
X00749129Y00811633D01*
X00748942Y00811818D01*
X00748811Y00811872D01*
X00745416Y00815267D01*
Y00828502D01*
X00745469Y00828615D01*
X00745509Y00829414D01*
X00745619Y00830146D01*
X00745803Y00830883D01*
X00746065Y00831628D01*
X00746407Y00832382D01*
X00746831Y00833145D01*
X0074734Y00833918D01*
X00747935Y008347D01*
X00748618Y0083549D01*
X00749414Y00836312D01*
X0074951Y00836556D01*
X00750244Y0083729D01*
X00751464Y00839404D01*
X00752096Y00841761D01*
Y00844202D01*
X00751464Y0084656D01*
X00750244Y00848674D01*
X00748518Y00850399D01*
X00746404Y0085162D01*
X00744046Y00852252D01*
D02*
G37*
G36*
X00718646D02*
X00716205D01*
X00713848Y0085162D01*
X00711734Y00850399D01*
X00710008Y00848674D01*
X00708788Y0084656D01*
X00708156Y00844202D01*
Y00841761D01*
X00708788Y00839404D01*
X00710008Y0083729D01*
X00711734Y00835564D01*
X00712014Y00835402D01*
X00712092Y00835273D01*
X00712932Y00834654D01*
X00713639Y00834046D01*
X00714251Y00833424D01*
X00714773Y00832788D01*
X00715206Y00832138D01*
X00715556Y00831473D01*
X00715826Y0083079D01*
X00716018Y00830084D01*
X00716134Y0082935D01*
X00716177Y00828513D01*
X00716217Y0082843D01*
X00716197Y0082834D01*
X0071623Y00828288D01*
Y00811017D01*
X00716176Y00810893D01*
X00716156Y00809893D01*
X00716138Y00809663D01*
X00716048Y00809572D01*
X0071555Y0080837D01*
Y0080707D01*
X00716048Y00805868D01*
X00716968Y00804948D01*
X0071817Y0080445D01*
X0071947D01*
X00720672Y00804948D01*
X00721592Y00805868D01*
X0072209Y0080707D01*
Y0080837D01*
X00721592Y00809572D01*
X00721527Y00809638D01*
X00721466Y00810608D01*
X00721465Y00810871D01*
X0072141Y00811002D01*
Y00828859D01*
X00721463Y00828972D01*
X00721498Y00829706D01*
X00721597Y00830415D01*
X00721766Y00831166D01*
X00722007Y00831958D01*
X00722323Y00832792D01*
X00722714Y00833665D01*
X00723176Y00834564D01*
X00724361Y00836524D01*
X00725068Y00837553D01*
X00725111Y00837753D01*
X00726064Y00839404D01*
X00726696Y00841761D01*
Y00844202D01*
X00726064Y0084656D01*
X00724844Y00848674D01*
X00723118Y00850399D01*
X00721004Y0085162D01*
X00718646Y00852252D01*
D02*
G37*
G36*
X00611236Y0081147D02*
X00609744D01*
X00608366Y00810899D01*
X00607311Y00809844D01*
X0060674Y00808466D01*
Y00806974D01*
X00607311Y00805596D01*
X00608366Y00804541D01*
X00609744Y0080397D01*
X00611236D01*
X00612614Y00804541D01*
X00613669Y00805596D01*
X0061424Y00806974D01*
Y00808466D01*
X00613669Y00809844D01*
X00612614Y00810899D01*
X00611236Y0081147D01*
D02*
G37*
G36*
X00811588Y00781039D02*
X00810096D01*
X00808717Y00780468D01*
X00807663Y00779413D01*
X00807092Y00778035D01*
Y00776543D01*
X00807663Y00775165D01*
X00808717Y0077411D01*
X00810096Y00773539D01*
X00811588D01*
X00812966Y0077411D01*
X00814021Y00775165D01*
X00814592Y00776543D01*
Y00778035D01*
X00814021Y00779413D01*
X00812966Y00780468D01*
X00811588Y00781039D01*
D02*
G37*
G36*
X00113074Y0078272D02*
X00110726D01*
X00108457Y00782112D01*
X00106423Y00780938D01*
X00104762Y00779277D01*
X00103588Y00777243D01*
X0010298Y00774974D01*
Y00772626D01*
X00103588Y00770357D01*
X00104762Y00768323D01*
X00106423Y00766662D01*
X00108457Y00765488D01*
X00110726Y0076488D01*
X00113074D01*
X00115343Y00765488D01*
X00117377Y00766662D01*
X00119038Y00768323D01*
X00120212Y00770357D01*
X0012082Y00772626D01*
Y00774974D01*
X00120212Y00777243D01*
X00119038Y00779277D01*
X00117377Y00780938D01*
X00115343Y00782112D01*
X00113074Y0078272D01*
D02*
G37*
G36*
X00087674D02*
X00085326D01*
X00083057Y00782112D01*
X00081023Y00780938D01*
X00079362Y00779277D01*
X00078188Y00777243D01*
X0007758Y00774974D01*
Y00772626D01*
X00078188Y00770357D01*
X00079362Y00768323D01*
X00081023Y00766662D01*
X00083057Y00765488D01*
X00085326Y0076488D01*
X00087674D01*
X00089943Y00765488D01*
X00091977Y00766662D01*
X00093638Y00768323D01*
X00094812Y00770357D01*
X0009542Y00772626D01*
Y00774974D01*
X00094812Y00777243D01*
X00093638Y00779277D01*
X00091977Y00780938D01*
X00089943Y00782112D01*
X00087674Y0078272D01*
D02*
G37*
G36*
X00062274D02*
X00059926D01*
X00057657Y00782112D01*
X00055623Y00780938D01*
X00053962Y00779277D01*
X00052788Y00777243D01*
X0005218Y00774974D01*
Y00772626D01*
X00052788Y00770357D01*
X00053962Y00768323D01*
X00055623Y00766662D01*
X00057657Y00765488D01*
X00059926Y0076488D01*
X00062274D01*
X00064543Y00765488D01*
X00066577Y00766662D01*
X00068238Y00768323D01*
X00069412Y00770357D01*
X0007002Y00772626D01*
Y00774974D01*
X00069412Y00777243D01*
X00068238Y00779277D01*
X00066577Y00780938D01*
X00064543Y00782112D01*
X00062274Y0078272D01*
D02*
G37*
G36*
X00036874D02*
X00034526D01*
X00032257Y00782112D01*
X00030223Y00780938D01*
X00028562Y00779277D01*
X00027388Y00777243D01*
X0002678Y00774974D01*
Y00772626D01*
X00027388Y00770357D01*
X00028562Y00768323D01*
X00030223Y00766662D01*
X00032257Y00765488D01*
X00034526Y0076488D01*
X00036874D01*
X00039143Y00765488D01*
X00041177Y00766662D01*
X00042838Y00768323D01*
X00044012Y00770357D01*
X0004462Y00772626D01*
Y00774974D01*
X00044012Y00777243D01*
X00042838Y00779277D01*
X00041177Y00780938D01*
X00039143Y00782112D01*
X00036874Y0078272D01*
D02*
G37*
G36*
X00579866Y0075051D02*
X00578374D01*
X00576996Y00749939D01*
X00575941Y00748884D01*
X0057537Y00747506D01*
Y00746014D01*
X00575941Y00744636D01*
X00576996Y00743581D01*
X00578374Y0074301D01*
X00579866D01*
X00581244Y00743581D01*
X00582299Y00744636D01*
X0058287Y00746014D01*
Y00747506D01*
X00582299Y00748884D01*
X00581244Y00749939D01*
X00579866Y0075051D01*
D02*
G37*
G36*
X00113074Y0075732D02*
X00110726D01*
X00108457Y00756712D01*
X00106423Y00755538D01*
X00104762Y00753877D01*
X00103588Y00751843D01*
X0010298Y00749574D01*
Y00747226D01*
X00103588Y00744957D01*
X00104762Y00742923D01*
X00106423Y00741262D01*
X00108457Y00740088D01*
X00110726Y0073948D01*
X00113074D01*
X00115343Y00740088D01*
X00117377Y00741262D01*
X00119038Y00742923D01*
X00120212Y00744957D01*
X0012082Y00747226D01*
Y00749574D01*
X00120212Y00751843D01*
X00119038Y00753877D01*
X00117377Y00755538D01*
X00115343Y00756712D01*
X00113074Y0075732D01*
D02*
G37*
G36*
X00087674D02*
X00085326D01*
X00083057Y00756712D01*
X00081023Y00755538D01*
X00079362Y00753877D01*
X00078188Y00751843D01*
X0007758Y00749574D01*
Y00747226D01*
X00078188Y00744957D01*
X00079362Y00742923D01*
X00081023Y00741262D01*
X00083057Y00740088D01*
X00085326Y0073948D01*
X00087674D01*
X00089943Y00740088D01*
X00091977Y00741262D01*
X00093638Y00742923D01*
X00094812Y00744957D01*
X0009542Y00747226D01*
Y00749574D01*
X00094812Y00751843D01*
X00093638Y00753877D01*
X00091977Y00755538D01*
X00089943Y00756712D01*
X00087674Y0075732D01*
D02*
G37*
G36*
X00062274D02*
X00059926D01*
X00057657Y00756712D01*
X00055623Y00755538D01*
X00053962Y00753877D01*
X00052788Y00751843D01*
X0005218Y00749574D01*
Y00747226D01*
X00052788Y00744957D01*
X00053962Y00742923D01*
X00055623Y00741262D01*
X00057657Y00740088D01*
X00059926Y0073948D01*
X00062274D01*
X00064543Y00740088D01*
X00066577Y00741262D01*
X00068238Y00742923D01*
X00069412Y00744957D01*
X0007002Y00747226D01*
Y00749574D01*
X00069412Y00751843D01*
X00068238Y00753877D01*
X00066577Y00755538D01*
X00064543Y00756712D01*
X00062274Y0075732D01*
D02*
G37*
G36*
X00036874D02*
X00034526D01*
X00032257Y00756712D01*
X00030223Y00755538D01*
X00028562Y00753877D01*
X00027388Y00751843D01*
X0002678Y00749574D01*
Y00747226D01*
X00027388Y00744957D01*
X00028562Y00742923D01*
X00030223Y00741262D01*
X00032257Y00740088D01*
X00034526Y0073948D01*
X00036874D01*
X00039143Y00740088D01*
X00041177Y00741262D01*
X00042838Y00742923D01*
X00044012Y00744957D01*
X0004462Y00747226D01*
Y00749574D01*
X00044012Y00751843D01*
X00042838Y00753877D01*
X00041177Y00755538D01*
X00039143Y00756712D01*
X00036874Y0075732D01*
D02*
G37*
G36*
X00113074Y0073192D02*
X00110726D01*
X00108457Y00731312D01*
X00106423Y00730138D01*
X00104762Y00728477D01*
X00103588Y00726443D01*
X0010298Y00724174D01*
Y00721826D01*
X00103588Y00719557D01*
X00104762Y00717523D01*
X00106423Y00715862D01*
X00108457Y00714688D01*
X00110726Y0071408D01*
X00113074D01*
X00115343Y00714688D01*
X00117377Y00715862D01*
X00119038Y00717523D01*
X00120212Y00719557D01*
X0012082Y00721826D01*
Y00724174D01*
X00120212Y00726443D01*
X00119038Y00728477D01*
X00117377Y00730138D01*
X00115343Y00731312D01*
X00113074Y0073192D01*
D02*
G37*
G36*
X00087674D02*
X00085326D01*
X00083057Y00731312D01*
X00081023Y00730138D01*
X00079362Y00728477D01*
X00078188Y00726443D01*
X0007758Y00724174D01*
Y00721826D01*
X00078188Y00719557D01*
X00079362Y00717523D01*
X00081023Y00715862D01*
X00083057Y00714688D01*
X00085326Y0071408D01*
X00087674D01*
X00089943Y00714688D01*
X00091977Y00715862D01*
X00093638Y00717523D01*
X00094812Y00719557D01*
X0009542Y00721826D01*
Y00724174D01*
X00094812Y00726443D01*
X00093638Y00728477D01*
X00091977Y00730138D01*
X00089943Y00731312D01*
X00087674Y0073192D01*
D02*
G37*
G36*
X00430608Y00720697D02*
X00429117D01*
X00427738Y00720127D01*
X00426683Y00719072D01*
X00426113Y00717693D01*
Y00716202D01*
X00426683Y00714823D01*
X00427738Y00713768D01*
X00429117Y00713197D01*
X00430608D01*
X00431987Y00713768D01*
X00433042Y00714823D01*
X00433613Y00716202D01*
Y00717693D01*
X00433042Y00719072D01*
X00431987Y00720127D01*
X00430608Y00720697D01*
D02*
G37*
G36*
X00459595Y0081607D02*
X00458294D01*
X00457093Y00815572D01*
X00456173Y00814652D01*
X00455675Y0081345D01*
Y0081215D01*
X00456173Y00810948D01*
X00457093Y00810028D01*
X00458294Y0080953D01*
X00458387D01*
X00459116Y00808887D01*
X00459303Y00808702D01*
X00459434Y00808648D01*
X00467274Y00800809D01*
X00468114Y00800247D01*
X00469105Y0080005D01*
X00478987D01*
X00569877Y0070916D01*
X00569927Y00709034D01*
X00570619Y00708313D01*
X0057077Y00708137D01*
Y0070801D01*
X00571268Y00706808D01*
X00572188Y00705888D01*
X0057339Y0070539D01*
X0057469D01*
X00575892Y00705888D01*
X00576812Y00706808D01*
X0057731Y0070801D01*
Y0070931D01*
X00576812Y00710512D01*
X00575892Y00711432D01*
X0057469Y0071193D01*
X00574598D01*
X00573869Y00712573D01*
X00573682Y00712758D01*
X00573551Y00712812D01*
X00481891Y00804471D01*
X00481051Y00805033D01*
X0048006Y0080523D01*
X00470178D01*
X00463108Y008123D01*
X00463058Y00812427D01*
X00462366Y00813147D01*
X00462215Y00813323D01*
Y0081345D01*
X00461717Y00814652D01*
X00460797Y00815572D01*
X00459595Y0081607D01*
D02*
G37*
G36*
X0047563Y0079829D02*
X0047433D01*
X00473128Y00797792D01*
X00472208Y00796872D01*
X0047171Y0079567D01*
Y0079437D01*
X00472208Y00793168D01*
X00473128Y00792248D01*
X0047433Y0079175D01*
X00474691D01*
X00475395Y00791139D01*
X00475578Y00790958D01*
X0047566Y00790925D01*
X00475704Y00790848D01*
X00475789Y00790825D01*
X00569981Y00696633D01*
X00570044Y00696493D01*
X00571076Y00695524D01*
X00571268Y0069506D01*
X00572188Y0069414D01*
X0057339Y00693642D01*
X0057469D01*
X00575892Y0069414D01*
X00576812Y0069506D01*
X0057731Y00696262D01*
Y00697563D01*
X00576812Y00698765D01*
X00575892Y00699685D01*
X0057469Y00700182D01*
X00573919D01*
X00573317Y00700702D01*
X00573135Y00700882D01*
X00573004Y00700935D01*
X00479144Y00794795D01*
X00479092Y00794924D01*
X00478387Y00795644D01*
X00478155Y007959D01*
X00477752Y00796872D01*
X00476832Y00797792D01*
X0047563Y0079829D01*
D02*
G37*
G36*
X00087674Y0070652D02*
X00085326D01*
X00083057Y00705912D01*
X00081023Y00704738D01*
X00079362Y00703077D01*
X00078188Y00701043D01*
X0007758Y00698774D01*
Y00696426D01*
X00078188Y00694157D01*
X00079362Y00692123D01*
X00081023Y00690462D01*
X00083057Y00689288D01*
X00085326Y0068868D01*
X00087674D01*
X00089943Y00689288D01*
X00091977Y00690462D01*
X00093638Y00692123D01*
X00094812Y00694157D01*
X0009542Y00696426D01*
Y00698774D01*
X00094812Y00701043D01*
X00093638Y00703077D01*
X00091977Y00704738D01*
X00089943Y00705912D01*
X00087674Y0070652D01*
D02*
G37*
G36*
X00062274D02*
X00059926D01*
X00057657Y00705912D01*
X00055623Y00704738D01*
X00053962Y00703077D01*
X00052788Y00701043D01*
X0005218Y00698774D01*
Y00696426D01*
X00052788Y00694157D01*
X00053962Y00692123D01*
X00055623Y00690462D01*
X00057657Y00689288D01*
X00059926Y0068868D01*
X00062274D01*
X00064543Y00689288D01*
X00066577Y00690462D01*
X00068238Y00692123D01*
X00069412Y00694157D01*
X0007002Y00696426D01*
Y00698774D01*
X00069412Y00701043D01*
X00068238Y00703077D01*
X00066577Y00704738D01*
X00064543Y00705912D01*
X00062274Y0070652D01*
D02*
G37*
G36*
X00036874D02*
X00034526D01*
X00032257Y00705912D01*
X00030223Y00704738D01*
X00028562Y00703077D01*
X00027388Y00701043D01*
X0002678Y00698774D01*
Y00696426D01*
X00027388Y00694157D01*
X00028562Y00692123D01*
X00030223Y00690462D01*
X00032257Y00689288D01*
X00034526Y0068868D01*
X00036874D01*
X00039143Y00689288D01*
X00041177Y00690462D01*
X00042838Y00692123D01*
X00044012Y00694157D01*
X0004462Y00696426D01*
Y00698774D01*
X00044012Y00701043D01*
X00042838Y00703077D01*
X00041177Y00704738D01*
X00039143Y00705912D01*
X00036874Y0070652D01*
D02*
G37*
G36*
X0032569Y00694835D02*
X00324389D01*
X00323188Y00694337D01*
X00322268Y00693417D01*
X0032177Y00692215D01*
Y00690914D01*
X00322268Y00689712D01*
X00323188Y00688792D01*
X00324389Y00688295D01*
X0032569D01*
X00326892Y00688792D01*
X00327812Y00689712D01*
X0032831Y00690914D01*
Y00692215D01*
X00327812Y00693417D01*
X00326892Y00694337D01*
X0032569Y00694835D01*
D02*
G37*
G36*
X00334261Y00690047D02*
X0033296D01*
X00331758Y00689549D01*
X00330838Y0068863D01*
X0033034Y00687428D01*
Y00686127D01*
X00330838Y00684925D01*
X00331758Y00684005D01*
X0033296Y00683507D01*
X00334261D01*
X00335463Y00684005D01*
X00336383Y00684925D01*
X0033688Y00686127D01*
Y00687428D01*
X00336383Y0068863D01*
X00335463Y00689549D01*
X00334261Y00690047D01*
D02*
G37*
G36*
X0031712D02*
X00315819D01*
X00314617Y00689549D01*
X00313697Y0068863D01*
X003132Y00687428D01*
Y00686127D01*
X00313697Y00684925D01*
X00314617Y00684005D01*
X00315819Y00683507D01*
X0031712D01*
X00318322Y00684005D01*
X00319242Y00684925D01*
X00319739Y00686127D01*
Y00687428D01*
X00319242Y0068863D01*
X00318322Y00689549D01*
X0031712Y00690047D01*
D02*
G37*
G36*
X0032569Y0068526D02*
X00324389D01*
X00323188Y00684762D01*
X00322268Y00683842D01*
X0032177Y0068264D01*
Y0068134D01*
X00322268Y00680138D01*
X00323188Y00679218D01*
X00324389Y0067872D01*
X0032569D01*
X00326892Y00679218D01*
X00327812Y00680138D01*
X0032831Y0068134D01*
Y0068264D01*
X00327812Y00683842D01*
X00326892Y00684762D01*
X0032569Y0068526D01*
D02*
G37*
G36*
X00334261Y00680473D02*
X0033296D01*
X00331758Y00679975D01*
X00330838Y00679055D01*
X0033034Y00677853D01*
Y00676552D01*
X00330838Y0067535D01*
X00331758Y00674431D01*
X0033296Y00673933D01*
X00334261D01*
X00335463Y00674431D01*
X00336383Y0067535D01*
X0033688Y00676552D01*
Y00677853D01*
X00336383Y00679055D01*
X00335463Y00679975D01*
X00334261Y00680473D01*
D02*
G37*
G36*
X0031712D02*
X00315819D01*
X00314617Y00679975D01*
X00313697Y00679055D01*
X003132Y00677853D01*
Y00676552D01*
X00313697Y0067535D01*
X00314617Y00674431D01*
X00315819Y00673933D01*
X0031712D01*
X00318322Y00674431D01*
X00319242Y0067535D01*
X00319739Y00676552D01*
Y00677853D01*
X00319242Y00679055D01*
X00318322Y00679975D01*
X0031712Y00680473D01*
D02*
G37*
G36*
X00433769Y0082301D02*
X0014605D01*
X00145059Y00822813D01*
X00144219Y00822251D01*
X00128979Y00807011D01*
X00128417Y00806171D01*
X0012822Y0080518D01*
Y00717583D01*
X00119858Y0070922D01*
X0011974Y00709178D01*
X00119169Y0070866D01*
X00118599Y00708236D01*
X00117978Y0070786D01*
X00117303Y00707533D01*
X0011657Y00707253D01*
X00115778Y00707022D01*
X00114924Y00706842D01*
X00114009Y00706715D01*
X0011303Y00706642D01*
X00111953Y00706624D01*
X00111714Y0070652D01*
X00110726D01*
X00108457Y00705912D01*
X00106423Y00704738D01*
X00104762Y00703077D01*
X00103588Y00701043D01*
X0010298Y00698774D01*
Y00696426D01*
X00103588Y00694157D01*
X00104762Y00692123D01*
X00106423Y00690462D01*
X00108457Y00689288D01*
X00110726Y0068868D01*
X00113074D01*
X00115343Y00689288D01*
X00117377Y00690462D01*
X00119038Y00692123D01*
X00120212Y00694157D01*
X0012082Y00696426D01*
Y00697414D01*
X00120924Y00697653D01*
X00120942Y0069873D01*
X00121015Y00699709D01*
X00121143Y00700624D01*
X00121322Y00701478D01*
X00121553Y0070227D01*
X00121833Y00703003D01*
X00122161Y00703678D01*
X00122536Y00704299D01*
X0012296Y00704869D01*
X00123478Y0070544D01*
X0012352Y00705558D01*
X00125173Y0070721D01*
X00126343Y00706585D01*
X00126241Y00706069D01*
Y00385403D01*
X00119858Y0037902D01*
X0011974Y00378978D01*
X00119169Y0037846D01*
X00118599Y00378036D01*
X00117978Y0037766D01*
X00117303Y00377333D01*
X0011657Y00377053D01*
X00115778Y00376822D01*
X00114924Y00376642D01*
X00114009Y00376515D01*
X0011303Y00376442D01*
X00111953Y00376424D01*
X00111714Y0037632D01*
X00110726D01*
X00108457Y00375712D01*
X00106423Y00374538D01*
X00104762Y00372877D01*
X00103588Y00370843D01*
X0010298Y00368574D01*
Y00366226D01*
X00103588Y00363957D01*
X00104762Y00361923D01*
X00106423Y00360262D01*
X00108457Y00359088D01*
X00109557Y00358793D01*
X0010939Y00357523D01*
X00100039D01*
X0009812Y00359442D01*
X00098078Y0035956D01*
X0009756Y00360131D01*
X00097136Y00360701D01*
X00096761Y00361322D01*
X00096433Y00361997D01*
X00096153Y0036273D01*
X00095922Y00363522D01*
X00095743Y00364376D01*
X00095615Y00365291D01*
X00095542Y0036627D01*
X00095524Y00367347D01*
X0009542Y00367586D01*
Y00368574D01*
X00094812Y00370843D01*
X00093638Y00372877D01*
X00091977Y00374538D01*
X00089943Y00375712D01*
X00087674Y0037632D01*
X00085326D01*
X00083057Y00375712D01*
X00081023Y00374538D01*
X00079362Y00372877D01*
X00078188Y00370843D01*
X0007758Y00368574D01*
Y00366226D01*
X00078188Y00363957D01*
X00079362Y00361923D01*
X00081023Y00360262D01*
X00083057Y00359088D01*
X00085326Y0035848D01*
X00086314D01*
X00086553Y00358376D01*
X0008763Y00358358D01*
X00088609Y00358285D01*
X00089524Y00358158D01*
X00090378Y00357978D01*
X0009117Y00357747D01*
X00091903Y00357467D01*
X00092578Y0035714D01*
X00093199Y00356764D01*
X00093769Y0035634D01*
X0009434Y00355822D01*
X00094458Y0035578D01*
X00097135Y00353102D01*
X00097976Y00352541D01*
X00098967Y00352344D01*
X00121721D01*
X00122713Y00352541D01*
X00123553Y00353102D01*
X00136451Y00366001D01*
X00137013Y00366841D01*
X0013721Y00367832D01*
Y00377072D01*
X0013848Y00377514D01*
X00139222Y00376771D01*
X00140601Y003762D01*
X00142092D01*
X00143471Y00376771D01*
X00144525Y00377826D01*
X00145096Y00379204D01*
Y00380696D01*
X00144525Y00382075D01*
X00143471Y0038313D01*
X00142092Y003837D01*
X00140601D01*
X00139222Y0038313D01*
X0013848Y00382387D01*
X0013721Y00382829D01*
Y00702753D01*
X00144813Y00710356D01*
X00145374Y00711196D01*
X00145571Y00712187D01*
Y00797473D01*
X00152389Y00804291D01*
X00245913D01*
X00246042Y00804236D01*
X00247374Y00804223D01*
X00247477Y00804218D01*
X0024827Y0080389D01*
X0024957D01*
X00250772Y00804388D01*
X00251692Y00805308D01*
X0025219Y0080651D01*
Y00807811D01*
X00251692Y00809012D01*
X00250772Y00809932D01*
Y00811298D01*
X00251692Y00812218D01*
X0025219Y0081342D01*
Y0081472D01*
X00251692Y00815922D01*
X00251054Y0081656D01*
X00251453Y0081783D01*
X00432697D01*
X00579467Y0067106D01*
X00579516Y00670934D01*
X00580209Y00670213D01*
X00580359Y00670037D01*
Y0066991D01*
X00580857Y00668708D01*
X00581777Y00667788D01*
X00582979Y0066729D01*
X0058428D01*
X00585482Y00667788D01*
X00586402Y00668708D01*
X00586899Y0066991D01*
Y0067121D01*
X00586402Y00672412D01*
X00585482Y00673332D01*
X0058428Y0067383D01*
X00584187D01*
X00583458Y00674473D01*
X00583272Y00674658D01*
X0058314Y00674712D01*
X00435601Y00822251D01*
X00434761Y00822813D01*
X00433769Y0082301D01*
D02*
G37*
G36*
X00156692Y00673116D02*
X00155391D01*
X00154189Y00672618D01*
X0015327Y00671699D01*
X00152772Y00670497D01*
Y00669196D01*
X0015327Y00667994D01*
X00154189Y00667074D01*
X00155391Y00666576D01*
X00156692D01*
X00157894Y00667074D01*
X00158814Y00667994D01*
X00159312Y00669196D01*
Y00670497D01*
X00158814Y00671699D01*
X00157894Y00672618D01*
X00156692Y00673116D01*
D02*
G37*
G36*
X00113074Y0068112D02*
X00110726D01*
X00108457Y00680512D01*
X00106423Y00679338D01*
X00104762Y00677677D01*
X00103588Y00675643D01*
X0010298Y00673374D01*
Y00671026D01*
X00103588Y00668757D01*
X00104762Y00666723D01*
X00106423Y00665062D01*
X00108457Y00663888D01*
X00110726Y0066328D01*
X00113074D01*
X00115343Y00663888D01*
X00117377Y00665062D01*
X00119038Y00666723D01*
X00120212Y00668757D01*
X0012082Y00671026D01*
Y00673374D01*
X00120212Y00675643D01*
X00119038Y00677677D01*
X00117377Y00679338D01*
X00115343Y00680512D01*
X00113074Y0068112D01*
D02*
G37*
G36*
X00087674D02*
X00085326D01*
X00083057Y00680512D01*
X00081023Y00679338D01*
X00079362Y00677677D01*
X00078188Y00675643D01*
X0007758Y00673374D01*
Y00671026D01*
X00078188Y00668757D01*
X00079362Y00666723D01*
X00081023Y00665062D01*
X00083057Y00663888D01*
X00085326Y0066328D01*
X00087674D01*
X00089943Y00663888D01*
X00091977Y00665062D01*
X00093638Y00666723D01*
X00094812Y00668757D01*
X0009542Y00671026D01*
Y00673374D01*
X00094812Y00675643D01*
X00093638Y00677677D01*
X00091977Y00679338D01*
X00089943Y00680512D01*
X00087674Y0068112D01*
D02*
G37*
G36*
X00062274D02*
X00059926D01*
X00057657Y00680512D01*
X00055623Y00679338D01*
X00053962Y00677677D01*
X00052788Y00675643D01*
X0005218Y00673374D01*
Y00671026D01*
X00052788Y00668757D01*
X00053962Y00666723D01*
X00055623Y00665062D01*
X00057657Y00663888D01*
X00059926Y0066328D01*
X00062274D01*
X00064543Y00663888D01*
X00066577Y00665062D01*
X00068238Y00666723D01*
X00069412Y00668757D01*
X0007002Y00671026D01*
Y00673374D01*
X00069412Y00675643D01*
X00068238Y00677677D01*
X00066577Y00679338D01*
X00064543Y00680512D01*
X00062274Y0068112D01*
D02*
G37*
G36*
X00036874D02*
X00034526D01*
X00032257Y00680512D01*
X00030223Y00679338D01*
X00028562Y00677677D01*
X00027388Y00675643D01*
X0002678Y00673374D01*
Y00671026D01*
X00027388Y00668757D01*
X00028562Y00666723D01*
X00030223Y00665062D01*
X00032257Y00663888D01*
X00034526Y0066328D01*
X00036874D01*
X00039143Y00663888D01*
X00041177Y00665062D01*
X00042838Y00666723D01*
X00044012Y00668757D01*
X0004462Y00671026D01*
Y00673374D01*
X00044012Y00675643D01*
X00042838Y00677677D01*
X00041177Y00679338D01*
X00039143Y00680512D01*
X00036874Y0068112D01*
D02*
G37*
G36*
X00165263Y00668329D02*
X00163962D01*
X0016276Y00667831D01*
X0016184Y00666911D01*
X00161342Y00665709D01*
Y00664408D01*
X0016184Y00663207D01*
X0016276Y00662287D01*
X00163962Y00661789D01*
X00165263D01*
X00166464Y00662287D01*
X00167384Y00663207D01*
X00167882Y00664408D01*
Y00665709D01*
X00167384Y00666911D01*
X00166464Y00667831D01*
X00165263Y00668329D01*
D02*
G37*
G36*
X00148122D02*
X00146821D01*
X00145619Y00667831D01*
X00144699Y00666911D01*
X00144201Y00665709D01*
Y00664408D01*
X00144699Y00663207D01*
X00145619Y00662287D01*
X00146821Y00661789D01*
X00148122D01*
X00149323Y00662287D01*
X00150243Y00663207D01*
X00150741Y00664408D01*
Y00665709D01*
X00150243Y00666911D01*
X00149323Y00667831D01*
X00148122Y00668329D01*
D02*
G37*
G36*
X00156692Y00663542D02*
X00155391D01*
X00154189Y00663044D01*
X0015327Y00662124D01*
X00152772Y00660922D01*
Y00659621D01*
X0015327Y00658419D01*
X00154189Y00657499D01*
X00155391Y00657002D01*
X00156692D01*
X00157894Y00657499D01*
X00158814Y00658419D01*
X00159312Y00659621D01*
Y00660922D01*
X00158814Y00662124D01*
X00157894Y00663044D01*
X00156692Y00663542D01*
D02*
G37*
G36*
X00165263Y00658754D02*
X00163962D01*
X0016276Y00658257D01*
X0016184Y00657337D01*
X00161342Y00656135D01*
Y00654834D01*
X0016184Y00653632D01*
X0016276Y00652712D01*
X00163962Y00652214D01*
X00165263D01*
X00166464Y00652712D01*
X00167384Y00653632D01*
X00167882Y00654834D01*
Y00656135D01*
X00167384Y00657337D01*
X00166464Y00658257D01*
X00165263Y00658754D01*
D02*
G37*
G36*
X00148122D02*
X00146821D01*
X00145619Y00658257D01*
X00144699Y00657337D01*
X00144201Y00656135D01*
Y00654834D01*
X00144699Y00653632D01*
X00145619Y00652712D01*
X00146821Y00652214D01*
X00148122D01*
X00149323Y00652712D01*
X00150243Y00653632D01*
X00150741Y00654834D01*
Y00656135D01*
X00150243Y00657337D01*
X00149323Y00658257D01*
X00148122Y00658754D01*
D02*
G37*
G36*
X00205669Y00658537D02*
X00204368D01*
X00203166Y00658039D01*
X00202246Y00657119D01*
X00201748Y00655917D01*
Y00654616D01*
X00202246Y00653415D01*
X00203166Y00652495D01*
X00204368Y00651997D01*
X00205669D01*
X00206871Y00652495D01*
X00206936Y0065256D01*
X00207906Y00652621D01*
X00208169Y00652622D01*
X002083Y00652677D01*
X00290098D01*
X00290221Y00652623D01*
X00290235Y00652628D01*
X00290249Y00652622D01*
X00290534Y00652621D01*
X00291217Y00652601D01*
X00291453Y00652582D01*
X00291579Y00652456D01*
X00292781Y00651958D01*
X00294081D01*
X00295283Y00652456D01*
X00296203Y00653376D01*
X00296701Y00654578D01*
Y00655879D01*
X00296203Y00657081D01*
X00295283Y00658D01*
X00294081Y00658498D01*
X00292781D01*
X00291579Y00658D01*
X00291546Y00657968D01*
X0029058Y00657913D01*
X00290313Y00657912D01*
X00290182Y00657857D01*
X00208316D01*
X00208191Y00657911D01*
X00207192Y00657931D01*
X00206961Y00657949D01*
X00206871Y00658039D01*
X00205669Y00658537D01*
D02*
G37*
G36*
X00870224Y00650411D02*
X00868733D01*
X00867354Y0064984D01*
X00866299Y00648785D01*
X00865729Y00647407D01*
Y00645915D01*
X00866299Y00644537D01*
X00867354Y00643482D01*
X00868733Y00642911D01*
X00870224D01*
X00871603Y00643482D01*
X00872658Y00644537D01*
X00873229Y00645915D01*
Y00647407D01*
X00872658Y00648785D01*
X00871603Y0064984D01*
X00870224Y00650411D01*
D02*
G37*
G36*
X00148122Y0064918D02*
X00146821D01*
X00145619Y00648682D01*
X00144699Y00647762D01*
X00144201Y0064656D01*
Y00645259D01*
X00144699Y00644058D01*
X00145619Y00643138D01*
X00146821Y0064264D01*
X00148122D01*
X00149323Y00643138D01*
X00150243Y00644058D01*
X00150741Y00645259D01*
Y0064656D01*
X00150243Y00647762D01*
X00149323Y00648682D01*
X00148122Y0064918D01*
D02*
G37*
G36*
X00113074Y0065572D02*
X00110726D01*
X00108457Y00655112D01*
X00106423Y00653938D01*
X00104762Y00652277D01*
X00103588Y00650243D01*
X0010298Y00647974D01*
Y00645626D01*
X00103588Y00643357D01*
X00104762Y00641323D01*
X00106423Y00639662D01*
X00108457Y00638488D01*
X00110726Y0063788D01*
X00113074D01*
X00115343Y00638488D01*
X00117377Y00639662D01*
X00119038Y00641323D01*
X00120212Y00643357D01*
X0012082Y00645626D01*
Y00647974D01*
X00120212Y00650243D01*
X00119038Y00652277D01*
X00117377Y00653938D01*
X00115343Y00655112D01*
X00113074Y0065572D01*
D02*
G37*
G36*
X00087674D02*
X00085326D01*
X00083057Y00655112D01*
X00081023Y00653938D01*
X00079362Y00652277D01*
X00078188Y00650243D01*
X0007758Y00647974D01*
Y00645626D01*
X00078188Y00643357D01*
X00079362Y00641323D01*
X00081023Y00639662D01*
X00083057Y00638488D01*
X00085326Y0063788D01*
X00087674D01*
X00089943Y00638488D01*
X00091977Y00639662D01*
X00093638Y00641323D01*
X00094812Y00643357D01*
X0009542Y00645626D01*
Y00647974D01*
X00094812Y00650243D01*
X00093638Y00652277D01*
X00091977Y00653938D01*
X00089943Y00655112D01*
X00087674Y0065572D01*
D02*
G37*
G36*
X00062274D02*
X00059926D01*
X00057657Y00655112D01*
X00055623Y00653938D01*
X00053962Y00652277D01*
X00052788Y00650243D01*
X0005218Y00647974D01*
Y00645626D01*
X00052788Y00643357D01*
X00053962Y00641323D01*
X00055623Y00639662D01*
X00057657Y00638488D01*
X00059926Y0063788D01*
X00062274D01*
X00064543Y00638488D01*
X00066577Y00639662D01*
X00068238Y00641323D01*
X00069412Y00643357D01*
X0007002Y00645626D01*
Y00647974D01*
X00069412Y00650243D01*
X00068238Y00652277D01*
X00066577Y00653938D01*
X00064543Y00655112D01*
X00062274Y0065572D01*
D02*
G37*
G36*
X00036874D02*
X00034526D01*
X00032257Y00655112D01*
X00030223Y00653938D01*
X00028562Y00652277D01*
X00027388Y00650243D01*
X0002678Y00647974D01*
Y00645626D01*
X00027388Y00643357D01*
X00028562Y00641323D01*
X00030223Y00639662D01*
X00032257Y00638488D01*
X00034526Y0063788D01*
X00036874D01*
X00039143Y00638488D01*
X00041177Y00639662D01*
X00042838Y00641323D01*
X00044012Y00643357D01*
X0004462Y00645626D01*
Y00647974D01*
X00044012Y00650243D01*
X00042838Y00652277D01*
X00041177Y00653938D01*
X00039143Y00655112D01*
X00036874Y0065572D01*
D02*
G37*
G36*
X0054167Y0064335D02*
X0054037D01*
X00539168Y00642852D01*
X00539102Y00642787D01*
X00538132Y00642726D01*
X00537869Y00642725D01*
X00537738Y0064267D01*
X004953D01*
X00494309Y00642473D01*
X00493469Y00641911D01*
X00486607Y0063505D01*
X00463037D01*
X00462913Y00635104D01*
X00461913Y00635124D01*
X00461683Y00635142D01*
X00461592Y00635232D01*
X0046039Y0063573D01*
X0045909D01*
X00457888Y00635232D01*
X00456968Y00634312D01*
X0045647Y0063311D01*
Y0063181D01*
X00456968Y00630608D01*
X00457888Y00629688D01*
X0045909Y0062919D01*
X0046039D01*
X00461592Y00629688D01*
X00461658Y00629753D01*
X00462628Y00629814D01*
X00462891Y00629815D01*
X00463022Y0062987D01*
X0048768D01*
X00488671Y00630067D01*
X00489511Y00630629D01*
X00496373Y0063749D01*
X00537723D01*
X00537847Y00637436D01*
X00538847Y00637416D01*
X00539077Y00637398D01*
X00539168Y00637308D01*
X0054037Y0063681D01*
X0054167D01*
X00542872Y00637308D01*
X00543792Y00638228D01*
X0054429Y0063943D01*
Y0064073D01*
X00543792Y00641932D01*
X00542872Y00642852D01*
X0054167Y0064335D01*
D02*
G37*
G36*
X00213924Y0061749D02*
X00212623D01*
X00211421Y00616992D01*
X00211335Y00616906D01*
X00210364Y00616842D01*
X00210103Y00616841D01*
X00210095Y00616838D01*
X00210088Y0061684D01*
X00209961Y00616786D01*
X00160248D01*
X00160123Y0061684D01*
X00159122Y00616859D01*
X00158893Y00616876D01*
X00158824Y00616944D01*
X00157622Y00617442D01*
X00156322D01*
X0015512Y00616944D01*
X001542Y00616024D01*
X00153702Y00614822D01*
Y00613522D01*
X001542Y0061232D01*
X0015512Y006114D01*
X00156322Y00610902D01*
X00157622D01*
X00158824Y006114D01*
X00158911Y00611486D01*
X00159882Y0061155D01*
X00160143Y00611551D01*
X0016015Y00611554D01*
X00160158Y00611552D01*
X00160284Y00611606D01*
X00209997D01*
X00210123Y00611552D01*
X00211124Y00611533D01*
X00211353Y00611516D01*
X00211421Y00611448D01*
X00212623Y0061095D01*
X00213924D01*
X00215126Y00611448D01*
X00216046Y00612368D01*
X00216544Y00613569D01*
Y0061487D01*
X00216046Y00616072D01*
X00215126Y00616992D01*
X00213924Y0061749D01*
D02*
G37*
G36*
X00113074Y0063032D02*
X00110726D01*
X00108457Y00629712D01*
X00106423Y00628538D01*
X00104762Y00626877D01*
X00103588Y00624843D01*
X0010298Y00622574D01*
Y00620226D01*
X00103588Y00617957D01*
X00104762Y00615923D01*
X00106423Y00614262D01*
X00108457Y00613088D01*
X00110726Y0061248D01*
X00113074D01*
X00115343Y00613088D01*
X00117377Y00614262D01*
X00119038Y00615923D01*
X00120212Y00617957D01*
X0012082Y00620226D01*
Y00622574D01*
X00120212Y00624843D01*
X00119038Y00626877D01*
X00117377Y00628538D01*
X00115343Y00629712D01*
X00113074Y0063032D01*
D02*
G37*
G36*
X00087674D02*
X00085326D01*
X00083057Y00629712D01*
X00081023Y00628538D01*
X00079362Y00626877D01*
X00078188Y00624843D01*
X0007758Y00622574D01*
Y00620226D01*
X00078188Y00617957D01*
X00079362Y00615923D01*
X00081023Y00614262D01*
X00083057Y00613088D01*
X00085326Y0061248D01*
X00087674D01*
X00089943Y00613088D01*
X00091977Y00614262D01*
X00093638Y00615923D01*
X00094812Y00617957D01*
X0009542Y00620226D01*
Y00622574D01*
X00094812Y00624843D01*
X00093638Y00626877D01*
X00091977Y00628538D01*
X00089943Y00629712D01*
X00087674Y0063032D01*
D02*
G37*
G36*
X00062274D02*
X00059926D01*
X00057657Y00629712D01*
X00055623Y00628538D01*
X00053962Y00626877D01*
X00052788Y00624843D01*
X0005218Y00622574D01*
Y00620226D01*
X00052788Y00617957D01*
X00053962Y00615923D01*
X00055623Y00614262D01*
X00057657Y00613088D01*
X00059926Y0061248D01*
X00062274D01*
X00064543Y00613088D01*
X00066577Y00614262D01*
X00068238Y00615923D01*
X00069412Y00617957D01*
X0007002Y00620226D01*
Y00622574D01*
X00069412Y00624843D01*
X00068238Y00626877D01*
X00066577Y00628538D01*
X00064543Y00629712D01*
X00062274Y0063032D01*
D02*
G37*
G36*
X00036874D02*
X00034526D01*
X00032257Y00629712D01*
X00030223Y00628538D01*
X00028562Y00626877D01*
X00027388Y00624843D01*
X0002678Y00622574D01*
Y00620226D01*
X00027388Y00617957D01*
X00028562Y00615923D01*
X00030223Y00614262D01*
X00032257Y00613088D01*
X00034526Y0061248D01*
X00036874D01*
X00039143Y00613088D01*
X00041177Y00614262D01*
X00042838Y00615923D01*
X00044012Y00617957D01*
X0004462Y00620226D01*
Y00622574D01*
X00044012Y00624843D01*
X00042838Y00626877D01*
X00041177Y00628538D01*
X00039143Y00629712D01*
X00036874Y0063032D01*
D02*
G37*
G36*
X00870224Y00618407D02*
X00868733D01*
X00867354Y00617836D01*
X00866299Y00616781D01*
X00865729Y00615403D01*
Y00613911D01*
X00866299Y00612533D01*
X00867354Y00611478D01*
X00868733Y00610907D01*
X00870224D01*
X00871603Y00611478D01*
X00872658Y00612533D01*
X00873229Y00613911D01*
Y00615403D01*
X00872658Y00616781D01*
X00871603Y00617836D01*
X00870224Y00618407D01*
D02*
G37*
G36*
X00208018Y00607117D02*
X00206717D01*
X00205515Y00606619D01*
X00204596Y00605699D01*
X00204098Y00604497D01*
Y00604405D01*
X00203455Y00603676D01*
X0020327Y00603489D01*
X00203216Y00603358D01*
X00200362Y00600504D01*
X001998Y00599664D01*
X00199603Y00598672D01*
Y00578571D01*
X001998Y0057758D01*
X00200362Y0057674D01*
X00224165Y00552936D01*
Y00376118D01*
X00224363Y00375127D01*
X00224924Y00374286D01*
X00241912Y00357298D01*
X00241408Y00356028D01*
X00240206Y0035553D01*
X00239286Y0035461D01*
X00238788Y00353409D01*
Y00352108D01*
X00239286Y00350906D01*
X00240206Y00349986D01*
X00241188Y00349579D01*
X0024226Y00348608D01*
X00242377Y00348566D01*
X0024658Y00344363D01*
X00245861Y00343286D01*
X00245072Y00343613D01*
X0024358D01*
X00242202Y00343042D01*
X00241147Y00341987D01*
X00240576Y00340609D01*
Y00339117D01*
X00241147Y00337739D01*
X00241341Y00337545D01*
X00241992Y00336537D01*
X00240937Y00335482D01*
X00240366Y00334104D01*
Y00332612D01*
X00240937Y00331233D01*
X00241992Y00330179D01*
X0024337Y00329608D01*
X00244862D01*
X0024624Y00330179D01*
X00247295Y00331233D01*
X00247866Y00332612D01*
Y00334104D01*
X00247295Y00335482D01*
X00247101Y00335676D01*
X0024645Y00336684D01*
X00247505Y00337739D01*
X00248076Y00339117D01*
Y00340609D01*
X00247749Y00341399D01*
X00248825Y00342118D01*
X00252481Y00338462D01*
Y00335932D01*
X00252426Y003358D01*
X00252425Y00335511D01*
X00252404Y00334647D01*
X00252397Y00334556D01*
X00251922Y0033341D01*
Y00332109D01*
X0025242Y00330907D01*
X0025334Y00329988D01*
X00254542Y0032949D01*
X00255843D01*
X00257045Y00329988D01*
X00257965Y00330907D01*
X00258462Y00332109D01*
Y0033341D01*
X00257965Y00334612D01*
X00257778Y00334799D01*
X00257717Y00335742D01*
X00257715Y00336005D01*
X00257694Y00336054D01*
X00257711Y00336106D01*
X00257661Y00336205D01*
Y00339535D01*
X00257606Y00339808D01*
X00258777Y00340434D01*
X00277192Y00322019D01*
X00278032Y00321457D01*
X00279023Y0032126D01*
X00301336D01*
X00301464Y00321205D01*
X00301469Y00321207D01*
X00301474Y00321205D01*
X00301735Y00321204D01*
X00302706Y00321141D01*
X00302787Y0032106D01*
X00303989Y00320563D01*
X0030529D01*
X00306491Y0032106D01*
X00306572Y00321141D01*
X00307543Y00321204D01*
X00307805Y00321205D01*
X00307809Y00321207D01*
X00307814Y00321205D01*
X00307942Y0032126D01*
X00390555D01*
X0039068Y00321206D01*
X00391679Y00321186D01*
X0039191Y00321168D01*
X00392001Y00321078D01*
X00393202Y0032058D01*
X00394503D01*
X00395705Y00321078D01*
X00396625Y00321998D01*
X00397123Y003232D01*
Y003245D01*
X00397081Y00324601D01*
X00397867Y00326023D01*
X00398217Y00326083D01*
X0039995Y0032435D01*
X00399999Y00324224D01*
X00400692Y00323503D01*
X00400842Y00323327D01*
Y003232D01*
X0040134Y00321998D01*
X0040226Y00321078D01*
X00403462Y0032058D01*
X00404763D01*
X00405965Y00321078D01*
X00406884Y00321998D01*
X00407382Y003232D01*
Y003245D01*
X00406884Y00325702D01*
X00405965Y00326622D01*
X00404763Y0032712D01*
X0040467D01*
X00403941Y00327763D01*
X00403754Y00327948D01*
X00403623Y00328002D01*
X00400289Y00331336D01*
X00399449Y00331898D01*
X00398457Y00332095D01*
X00315717D01*
X00315593Y00332149D01*
X00314593Y00332169D01*
X00314363Y00332187D01*
X00314272Y00332277D01*
X0031307Y00332775D01*
X0031177D01*
X00310568Y00332277D01*
X00310502Y00332212D01*
X00309532Y00332151D01*
X00309269Y0033215D01*
X00309138Y00332095D01*
X00282438D01*
X00235Y00379533D01*
Y0055583D01*
X00234803Y00556821D01*
X00234241Y00557661D01*
X00210451Y00581451D01*
Y00594878D01*
X00211793Y0059622D01*
X00211833D01*
X00213016Y0059573D01*
X00214317D01*
X00215519Y00596228D01*
X00216439Y00597148D01*
X00216936Y0059835D01*
Y00599651D01*
X00216439Y00600853D01*
X00215519Y00601772D01*
X00214317Y0060227D01*
X00213016D01*
X00211814Y00601772D01*
X00211378Y00601946D01*
X00210638Y00603197D01*
Y00604497D01*
X0021014Y00605699D01*
X0020922Y00606619D01*
X00208018Y00607117D01*
D02*
G37*
G36*
X00113074Y0060492D02*
X00110726D01*
X00108457Y00604312D01*
X00106423Y00603138D01*
X00104762Y00601477D01*
X00103588Y00599443D01*
X0010298Y00597174D01*
Y00594826D01*
X00103588Y00592557D01*
X00104762Y00590523D01*
X00106423Y00588862D01*
X00108457Y00587688D01*
X00110726Y0058708D01*
X00113074D01*
X00115343Y00587688D01*
X00117377Y00588862D01*
X00119038Y00590523D01*
X00120212Y00592557D01*
X0012082Y00594826D01*
Y00597174D01*
X00120212Y00599443D01*
X00119038Y00601477D01*
X00117377Y00603138D01*
X00115343Y00604312D01*
X00113074Y0060492D01*
D02*
G37*
G36*
X00087674D02*
X00085326D01*
X00083057Y00604312D01*
X00081023Y00603138D01*
X00079362Y00601477D01*
X00078188Y00599443D01*
X0007758Y00597174D01*
Y00594826D01*
X00078188Y00592557D01*
X00079362Y00590523D01*
X00081023Y00588862D01*
X00083057Y00587688D01*
X00085326Y0058708D01*
X00087674D01*
X00089943Y00587688D01*
X00091977Y00588862D01*
X00093638Y00590523D01*
X00094812Y00592557D01*
X0009542Y00594826D01*
Y00597174D01*
X00094812Y00599443D01*
X00093638Y00601477D01*
X00091977Y00603138D01*
X00089943Y00604312D01*
X00087674Y0060492D01*
D02*
G37*
G36*
X00062274D02*
X00059926D01*
X00057657Y00604312D01*
X00055623Y00603138D01*
X00053962Y00601477D01*
X00052788Y00599443D01*
X0005218Y00597174D01*
Y00594826D01*
X00052788Y00592557D01*
X00053962Y00590523D01*
X00055623Y00588862D01*
X00057657Y00587688D01*
X00059926Y0058708D01*
X00062274D01*
X00064543Y00587688D01*
X00066577Y00588862D01*
X00068238Y00590523D01*
X00069412Y00592557D01*
X0007002Y00594826D01*
Y00597174D01*
X00069412Y00599443D01*
X00068238Y00601477D01*
X00066577Y00603138D01*
X00064543Y00604312D01*
X00062274Y0060492D01*
D02*
G37*
G36*
X00036874D02*
X00034526D01*
X00032257Y00604312D01*
X00030223Y00603138D01*
X00028562Y00601477D01*
X00027388Y00599443D01*
X0002678Y00597174D01*
Y00594826D01*
X00027388Y00592557D01*
X00028562Y00590523D01*
X00030223Y00588862D01*
X00032257Y00587688D01*
X00034526Y0058708D01*
X00036874D01*
X00039143Y00587688D01*
X00041177Y00588862D01*
X00042838Y00590523D01*
X00044012Y00592557D01*
X0004462Y00594826D01*
Y00597174D01*
X00044012Y00599443D01*
X00042838Y00601477D01*
X00041177Y00603138D01*
X00039143Y00604312D01*
X00036874Y0060492D01*
D02*
G37*
G36*
X00113074Y0057952D02*
X00110726D01*
X00108457Y00578912D01*
X00106423Y00577738D01*
X00104762Y00576077D01*
X00103588Y00574043D01*
X0010298Y00571774D01*
Y00569426D01*
X00103588Y00567157D01*
X00104762Y00565123D01*
X00106423Y00563462D01*
X00108457Y00562288D01*
X00110726Y0056168D01*
X00113074D01*
X00115343Y00562288D01*
X00117377Y00563462D01*
X00119038Y00565123D01*
X00120212Y00567157D01*
X0012082Y00569426D01*
Y00571774D01*
X00120212Y00574043D01*
X00119038Y00576077D01*
X00117377Y00577738D01*
X00115343Y00578912D01*
X00113074Y0057952D01*
D02*
G37*
G36*
X00087674D02*
X00085326D01*
X00083057Y00578912D01*
X00081023Y00577738D01*
X00079362Y00576077D01*
X00078188Y00574043D01*
X0007758Y00571774D01*
Y00569426D01*
X00078188Y00567157D01*
X00079362Y00565123D01*
X00081023Y00563462D01*
X00083057Y00562288D01*
X00085326Y0056168D01*
X00087674D01*
X00089943Y00562288D01*
X00091977Y00563462D01*
X00093638Y00565123D01*
X00094812Y00567157D01*
X0009542Y00569426D01*
Y00571774D01*
X00094812Y00574043D01*
X00093638Y00576077D01*
X00091977Y00577738D01*
X00089943Y00578912D01*
X00087674Y0057952D01*
D02*
G37*
G36*
X00062274D02*
X00059926D01*
X00057657Y00578912D01*
X00055623Y00577738D01*
X00053962Y00576077D01*
X00052788Y00574043D01*
X0005218Y00571774D01*
Y00569426D01*
X00052788Y00567157D01*
X00053962Y00565123D01*
X00055623Y00563462D01*
X00057657Y00562288D01*
X00059926Y0056168D01*
X00062274D01*
X00064543Y00562288D01*
X00066577Y00563462D01*
X00068238Y00565123D01*
X00069412Y00567157D01*
X0007002Y00569426D01*
Y00571774D01*
X00069412Y00574043D01*
X00068238Y00576077D01*
X00066577Y00577738D01*
X00064543Y00578912D01*
X00062274Y0057952D01*
D02*
G37*
G36*
X00036874D02*
X00034526D01*
X00032257Y00578912D01*
X00030223Y00577738D01*
X00028562Y00576077D01*
X00027388Y00574043D01*
X0002678Y00571774D01*
Y00569426D01*
X00027388Y00567157D01*
X00028562Y00565123D01*
X00030223Y00563462D01*
X00032257Y00562288D01*
X00034526Y0056168D01*
X00036874D01*
X00039143Y00562288D01*
X00041177Y00563462D01*
X00042838Y00565123D01*
X00044012Y00567157D01*
X0004462Y00569426D01*
Y00571774D01*
X00044012Y00574043D01*
X00042838Y00576077D01*
X00041177Y00577738D01*
X00039143Y00578912D01*
X00036874Y0057952D01*
D02*
G37*
G36*
X00693246Y00852252D02*
X00690805D01*
X00688448Y0085162D01*
X00686334Y00850399D01*
X00684608Y00848674D01*
X00683388Y0084656D01*
X00682756Y00844202D01*
Y00841761D01*
X00683388Y00839404D01*
X00684608Y0083729D01*
X00686334Y00835564D01*
X00688448Y00834343D01*
X00690805Y00833712D01*
X0069207D01*
X00692316Y00833612D01*
X00693445Y00833621D01*
X00694472Y00833568D01*
X00695432Y00833455D01*
X00696327Y00833284D01*
X00697158Y00833057D01*
X00697925Y00832776D01*
X00698633Y00832442D01*
X00699283Y00832056D01*
X0069988Y00831616D01*
X00700479Y00831074D01*
X00700596Y00831033D01*
X00709097Y00822531D01*
Y00706153D01*
X00682527Y00679583D01*
X00656673D01*
X00655682Y00679386D01*
X00654842Y00678824D01*
X00640789Y00664771D01*
X00640227Y00663931D01*
X0064003Y0066294D01*
Y0056007D01*
X00640227Y00559079D01*
X00640789Y00558239D01*
X00647848Y0055118D01*
X00588719Y00492051D01*
X00588157Y00491211D01*
X0058796Y0049022D01*
Y00435694D01*
X00580609Y00428343D01*
X00580482Y00428293D01*
X00579761Y00427601D01*
X00579586Y0042745D01*
X00579458D01*
X00578256Y00426952D01*
X00577337Y00426032D01*
X00576839Y0042483D01*
Y0042353D01*
X00577337Y00422328D01*
X00578256Y00421408D01*
X00579458Y0042091D01*
X00580759D01*
X00581961Y00421408D01*
X00582881Y00422328D01*
X00583379Y0042353D01*
Y00423622D01*
X00584022Y00424351D01*
X00584207Y00424538D01*
X0058426Y00424669D01*
X00592381Y0043279D01*
X00592943Y0043363D01*
X0059314Y00434621D01*
Y00489147D01*
X00652785Y00548792D01*
X00677802D01*
X00677926Y00548737D01*
X00678925Y00548717D01*
X00679156Y005487D01*
X00679247Y0054861D01*
X00680448Y00548112D01*
X00681749D01*
X00682951Y0054861D01*
X00683871Y0054953D01*
X00684369Y00550731D01*
Y00552032D01*
X00683871Y00553234D01*
X00682951Y00554154D01*
X00681749Y00554652D01*
X00680448D01*
X00679247Y00554154D01*
X00679181Y00554089D01*
X00678211Y00554028D01*
X00677948Y00554026D01*
X00677817Y00553972D01*
X00652381D01*
X0064521Y00561143D01*
Y00661867D01*
X00657746Y00674403D01*
X006836D01*
X00684591Y006746D01*
X00685431Y00675162D01*
X00713518Y00703249D01*
X0071408Y00704089D01*
X00714277Y0070508D01*
Y00823604D01*
X0071408Y00824595D01*
X00713518Y00825435D01*
X00704212Y00834741D01*
X0070417Y00834858D01*
X00703638Y00835446D01*
X00703198Y00836039D01*
X00702804Y00836692D01*
X00702456Y00837408D01*
X00702154Y00838189D01*
X00701901Y00839038D01*
X00701697Y00839956D01*
X00701544Y00840943D01*
X00701445Y00841998D01*
X00701398Y00843157D01*
X00701296Y00843379D01*
Y00844202D01*
X00700664Y0084656D01*
X00699444Y00848674D01*
X00697718Y00850399D01*
X00695604Y0085162D01*
X00693246Y00852252D01*
D02*
G37*
G36*
X00144256Y00551374D02*
X00142764D01*
X00141386Y00550803D01*
X00140331Y00549748D01*
X0013976Y0054837D01*
Y00546878D01*
X00140331Y005455D01*
X00141386Y00544445D01*
X00142764Y00543874D01*
X00144256D01*
X00145634Y00544445D01*
X00146689Y005455D01*
X0014726Y00546878D01*
Y0054837D01*
X00146689Y00549748D01*
X00145634Y00550803D01*
X00144256Y00551374D01*
D02*
G37*
G36*
X00672816Y00547154D02*
X00671325D01*
X00669946Y00546583D01*
X00668892Y00545528D01*
X00668321Y00544149D01*
Y00542658D01*
X00668892Y00541279D01*
X00669946Y00540224D01*
X00671325Y00539654D01*
X00672816D01*
X00674195Y00540224D01*
X0067525Y00541279D01*
X00675821Y00542658D01*
Y00544149D01*
X0067525Y00545528D01*
X00674195Y00546583D01*
X00672816Y00547154D01*
D02*
G37*
G36*
X00113074Y0055412D02*
X00110726D01*
X00108457Y00553512D01*
X00106423Y00552338D01*
X00104762Y00550677D01*
X00103588Y00548643D01*
X0010298Y00546374D01*
Y00544026D01*
X00103588Y00541757D01*
X00104762Y00539723D01*
X00106423Y00538062D01*
X00108457Y00536888D01*
X00110726Y0053628D01*
X00113074D01*
X00115343Y00536888D01*
X00117377Y00538062D01*
X00119038Y00539723D01*
X00120212Y00541757D01*
X0012082Y00544026D01*
Y00546374D01*
X00120212Y00548643D01*
X00119038Y00550677D01*
X00117377Y00552338D01*
X00115343Y00553512D01*
X00113074Y0055412D01*
D02*
G37*
G36*
X00087674D02*
X00085326D01*
X00083057Y00553512D01*
X00081023Y00552338D01*
X00079362Y00550677D01*
X00078188Y00548643D01*
X0007758Y00546374D01*
Y00544026D01*
X00078188Y00541757D01*
X00079362Y00539723D01*
X00081023Y00538062D01*
X00083057Y00536888D01*
X00085326Y0053628D01*
X00087674D01*
X00089943Y00536888D01*
X00091977Y00538062D01*
X00093638Y00539723D01*
X00094812Y00541757D01*
X0009542Y00544026D01*
Y00546374D01*
X00094812Y00548643D01*
X00093638Y00550677D01*
X00091977Y00552338D01*
X00089943Y00553512D01*
X00087674Y0055412D01*
D02*
G37*
G36*
X00062274D02*
X00059926D01*
X00057657Y00553512D01*
X00055623Y00552338D01*
X00053962Y00550677D01*
X00052788Y00548643D01*
X0005218Y00546374D01*
Y00544026D01*
X00052788Y00541757D01*
X00053962Y00539723D01*
X00055623Y00538062D01*
X00057657Y00536888D01*
X00059926Y0053628D01*
X00062274D01*
X00064543Y00536888D01*
X00066577Y00538062D01*
X00068238Y00539723D01*
X00069412Y00541757D01*
X0007002Y00544026D01*
Y00546374D01*
X00069412Y00548643D01*
X00068238Y00550677D01*
X00066577Y00552338D01*
X00064543Y00553512D01*
X00062274Y0055412D01*
D02*
G37*
G36*
X00036874D02*
X00034526D01*
X00032257Y00553512D01*
X00030223Y00552338D01*
X00028562Y00550677D01*
X00027388Y00548643D01*
X0002678Y00546374D01*
Y00544026D01*
X00027388Y00541757D01*
X00028562Y00539723D01*
X00030223Y00538062D01*
X00032257Y00536888D01*
X00034526Y0053628D01*
X00036874D01*
X00039143Y00536888D01*
X00041177Y00538062D01*
X00042838Y00539723D01*
X00044012Y00541757D01*
X0004462Y00544026D01*
Y00546374D01*
X00044012Y00548643D01*
X00042838Y00550677D01*
X00041177Y00552338D01*
X00039143Y00553512D01*
X00036874Y0055412D01*
D02*
G37*
G36*
X00144256Y0054145D02*
X00142764D01*
X00141386Y00540879D01*
X00140331Y00539824D01*
X0013976Y00538446D01*
Y00536954D01*
X00140331Y00535576D01*
X00141386Y00534521D01*
X00142764Y0053395D01*
X00144256D01*
X00145634Y00534521D01*
X00146689Y00535576D01*
X0014726Y00536954D01*
Y00538446D01*
X00146689Y00539824D01*
X00145634Y00540879D01*
X00144256Y0054145D01*
D02*
G37*
G36*
Y00531526D02*
X00142764D01*
X00141386Y00530955D01*
X00140331Y005299D01*
X0013976Y00528522D01*
Y0052703D01*
X00140331Y00525652D01*
X00141386Y00524597D01*
X00142764Y00524026D01*
X00144256D01*
X00145634Y00524597D01*
X00146689Y00525652D01*
X0014726Y0052703D01*
Y00528522D01*
X00146689Y005299D01*
X00145634Y00530955D01*
X00144256Y00531526D01*
D02*
G37*
G36*
X00697782Y0052445D02*
X0069629D01*
X00694912Y00523879D01*
X00693857Y00522824D01*
X00693286Y00521446D01*
Y00519954D01*
X00693857Y00518576D01*
X00694912Y00517521D01*
X0069629Y0051695D01*
X00697782D01*
X0069916Y00517521D01*
X00700215Y00518576D01*
X00700786Y00519954D01*
Y00521446D01*
X00700215Y00522824D01*
X0069916Y00523879D01*
X00697782Y0052445D01*
D02*
G37*
G36*
X00144256Y00521602D02*
X00142764D01*
X00141386Y00521031D01*
X00140331Y00519977D01*
X0013976Y00518598D01*
Y00517106D01*
X00140331Y00515728D01*
X00141386Y00514673D01*
X00142764Y00514102D01*
X00144256D01*
X00145634Y00514673D01*
X00146689Y00515728D01*
X0014726Y00517106D01*
Y00518598D01*
X00146689Y00519977D01*
X00145634Y00521031D01*
X00144256Y00521602D01*
D02*
G37*
G36*
X00113074Y0052872D02*
X00110726D01*
X00108457Y00528112D01*
X00106423Y00526938D01*
X00104762Y00525277D01*
X00103588Y00523243D01*
X0010298Y00520974D01*
Y00518626D01*
X00103588Y00516357D01*
X00104762Y00514323D01*
X00106423Y00512662D01*
X00108457Y00511488D01*
X00110726Y0051088D01*
X00113074D01*
X00115343Y00511488D01*
X00117377Y00512662D01*
X00119038Y00514323D01*
X00120212Y00516357D01*
X0012082Y00518626D01*
Y00520974D01*
X00120212Y00523243D01*
X00119038Y00525277D01*
X00117377Y00526938D01*
X00115343Y00528112D01*
X00113074Y0052872D01*
D02*
G37*
G36*
X00087674D02*
X00085326D01*
X00083057Y00528112D01*
X00081023Y00526938D01*
X00079362Y00525277D01*
X00078188Y00523243D01*
X0007758Y00520974D01*
Y00518626D01*
X00078188Y00516357D01*
X00079362Y00514323D01*
X00081023Y00512662D01*
X00083057Y00511488D01*
X00085326Y0051088D01*
X00087674D01*
X00089943Y00511488D01*
X00091977Y00512662D01*
X00093638Y00514323D01*
X00094812Y00516357D01*
X0009542Y00518626D01*
Y00520974D01*
X00094812Y00523243D01*
X00093638Y00525277D01*
X00091977Y00526938D01*
X00089943Y00528112D01*
X00087674Y0052872D01*
D02*
G37*
G36*
X00589366Y00514202D02*
X00587874D01*
X00586496Y00513631D01*
X00585441Y00512576D01*
X0058487Y00511198D01*
Y00509706D01*
X00585441Y00508327D01*
X00586496Y00507272D01*
X00587874Y00506702D01*
X00589366D01*
X00590744Y00507272D01*
X00591799Y00508327D01*
X0059237Y00509706D01*
Y00511198D01*
X00591799Y00512576D01*
X00590744Y00513631D01*
X00589366Y00514202D01*
D02*
G37*
G36*
X00144256Y00511679D02*
X00142764D01*
X00141386Y00511108D01*
X00140331Y00510053D01*
X0013976Y00508674D01*
Y00507183D01*
X00140331Y00505804D01*
X00141386Y00504749D01*
X00142764Y00504179D01*
X00144256D01*
X00145634Y00504749D01*
X00146689Y00505804D01*
X0014726Y00507183D01*
Y00508674D01*
X00146689Y00510053D01*
X00145634Y00511108D01*
X00144256Y00511679D01*
D02*
G37*
G36*
X0070423Y0081099D02*
X0070293D01*
X00701728Y00810492D01*
X00700808Y00809572D01*
X0070031Y0080837D01*
Y0080707D01*
X00700808Y00805868D01*
X00700873Y00805802D01*
X00700934Y00804832D01*
X00700935Y00804569D01*
X0070099Y00804438D01*
Y00713543D01*
X00677742Y00690295D01*
X00634704D01*
X00633713Y00690098D01*
X00632873Y00689536D01*
X00616659Y00673322D01*
X00616097Y00672482D01*
X006159Y00671491D01*
Y00562764D01*
X00560059Y00506923D01*
X00559932Y00506873D01*
X00559211Y00506181D01*
X00559036Y0050603D01*
X00558908D01*
X00557706Y00505532D01*
X00556787Y00504612D01*
X00556289Y0050341D01*
Y0050211D01*
X00556787Y00500908D01*
X00557706Y00499988D01*
X00558908Y0049949D01*
X00560209D01*
X00561411Y00499988D01*
X00562331Y00500908D01*
X00562829Y0050211D01*
Y00502202D01*
X00563472Y00502931D01*
X00563657Y00503118D01*
X00563711Y00503249D01*
X00620321Y0055986D01*
X00620883Y005607D01*
X0062108Y00561691D01*
Y00670418D01*
X00635777Y00685115D01*
X00678815D01*
X00679806Y00685312D01*
X00680646Y00685874D01*
X00705411Y00710639D01*
X00705973Y00711479D01*
X0070617Y0071247D01*
Y00804423D01*
X00706224Y00804547D01*
X00706244Y00805547D01*
X00706262Y00805777D01*
X00706352Y00805868D01*
X0070685Y0080707D01*
Y0080837D01*
X00706352Y00809572D01*
X00705432Y00810492D01*
X0070423Y0081099D01*
D02*
G37*
G36*
X00144256Y00501755D02*
X00142764D01*
X00141386Y00501184D01*
X00140331Y00500129D01*
X0013976Y0049875D01*
Y00497259D01*
X00140331Y0049588D01*
X00141386Y00494826D01*
X00142764Y00494255D01*
X00144256D01*
X00145634Y00494826D01*
X00146689Y0049588D01*
X0014726Y00497259D01*
Y0049875D01*
X00146689Y00500129D01*
X00145634Y00501184D01*
X00144256Y00501755D01*
D02*
G37*
G36*
X00113074Y0050332D02*
X00110726D01*
X00108457Y00502712D01*
X00106423Y00501538D01*
X00104762Y00499877D01*
X00103588Y00497843D01*
X0010298Y00495574D01*
Y00493226D01*
X00103588Y00490957D01*
X00104762Y00488923D01*
X00106423Y00487262D01*
X00108457Y00486088D01*
X00110726Y0048548D01*
X00113074D01*
X00115343Y00486088D01*
X00117377Y00487262D01*
X00119038Y00488923D01*
X00120212Y00490957D01*
X0012082Y00493226D01*
Y00495574D01*
X00120212Y00497843D01*
X00119038Y00499877D01*
X00117377Y00501538D01*
X00115343Y00502712D01*
X00113074Y0050332D01*
D02*
G37*
G36*
X00087674D02*
X00085326D01*
X00083057Y00502712D01*
X00081023Y00501538D01*
X00079362Y00499877D01*
X00078188Y00497843D01*
X0007758Y00495574D01*
Y00493226D01*
X00078188Y00490957D01*
X00079362Y00488923D01*
X00081023Y00487262D01*
X00083057Y00486088D01*
X00085326Y0048548D01*
X00087674D01*
X00089943Y00486088D01*
X00091977Y00487262D01*
X00093638Y00488923D01*
X00094812Y00490957D01*
X0009542Y00493226D01*
Y00495574D01*
X00094812Y00497843D01*
X00093638Y00499877D01*
X00091977Y00501538D01*
X00089943Y00502712D01*
X00087674Y0050332D01*
D02*
G37*
G36*
X00197443Y00480254D02*
X00195951D01*
X00194573Y00479683D01*
X00193518Y00478628D01*
X00192947Y0047725D01*
Y00475758D01*
X00193038Y00475538D01*
X00192296Y00474491D01*
X00191277Y00474497D01*
X00190546Y00475549D01*
X00190633Y00475758D01*
Y0047725D01*
X00190062Y00478628D01*
X00189007Y00479683D01*
X00187628Y00480254D01*
X00186137D01*
X00184758Y00479683D01*
X00183703Y00478628D01*
X00183133Y0047725D01*
Y00475758D01*
X00183703Y0047438D01*
X00184758Y00473325D01*
X00186137Y00472754D01*
X00187291D01*
X00188003Y00471997D01*
X00188193Y00471613D01*
X00188019Y00471193D01*
Y00469701D01*
X00188232Y00469187D01*
X00188013Y00468779D01*
X00187323Y00468062D01*
X00186137D01*
X00184758Y00467491D01*
X00183703Y00466436D01*
X00183133Y00465058D01*
Y00463566D01*
X00183703Y00462188D01*
X00184758Y00461133D01*
X00186137Y00460562D01*
X00187628D01*
X00189007Y00461133D01*
X00190062Y00462188D01*
X00190633Y00463566D01*
Y00465058D01*
X0019048Y00465425D01*
X00191205Y00466446D01*
X00192369Y00466452D01*
X00193104Y00465437D01*
X00192947Y00465058D01*
Y00463566D01*
X00193518Y00462188D01*
X00194573Y00461133D01*
X00195951Y00460562D01*
X00197443D01*
X00198821Y00461133D01*
X00199876Y00462188D01*
X00200447Y00463566D01*
Y00465058D01*
X00199876Y00466436D01*
X00198821Y00467491D01*
X00197443Y00468062D01*
X00196215D01*
X00195561Y00468721D01*
X00195297Y00469166D01*
X00195519Y00469701D01*
Y00471193D01*
X00195336Y00471634D01*
X00195565Y00472051D01*
X00196247Y00472754D01*
X00197443D01*
X00198821Y00473325D01*
X00199876Y0047438D01*
X00200447Y00475758D01*
Y0047725D01*
X00199876Y00478628D01*
X00198821Y00479683D01*
X00197443Y00480254D01*
D02*
G37*
G36*
X00217291D02*
X00215799D01*
X00214421Y00479683D01*
X00213366Y00478628D01*
X00212795Y0047725D01*
Y00475758D01*
X00213366Y0047438D01*
X00214421Y00473325D01*
X00215799Y00472754D01*
X00217291D01*
X00218669Y00473325D01*
X00219724Y0047438D01*
X00220295Y00475758D01*
Y0047725D01*
X00219724Y00478628D01*
X00218669Y00479683D01*
X00217291Y00480254D01*
D02*
G37*
G36*
X00523175Y00468439D02*
X00521684D01*
X00520305Y00467868D01*
X0051925Y00466813D01*
X00518679Y00465435D01*
Y00463943D01*
X0051925Y00462565D01*
X00520305Y0046151D01*
X00521684Y00460939D01*
X00523175D01*
X00524554Y0046151D01*
X00525608Y00462565D01*
X00526179Y00463943D01*
Y00465435D01*
X00525608Y00466813D01*
X00524554Y00467868D01*
X00523175Y00468439D01*
D02*
G37*
G36*
X00217291Y00468062D02*
X00215799D01*
X00214421Y00467491D01*
X00213366Y00466436D01*
X00212795Y00465058D01*
Y00463566D01*
X00213366Y00462188D01*
X00214421Y00461133D01*
X00215799Y00460562D01*
X00217291D01*
X00218669Y00461133D01*
X00219724Y00462188D01*
X00220295Y00463566D01*
Y00465058D01*
X00219724Y00466436D01*
X00218669Y00467491D01*
X00217291Y00468062D01*
D02*
G37*
G36*
X00207367D02*
X00205875D01*
X00204497Y00467491D01*
X00203442Y00466436D01*
X00202871Y00465058D01*
Y00463566D01*
X00203442Y00462188D01*
X00204497Y00461133D01*
X00205875Y00460562D01*
X00207367D01*
X00208745Y00461133D01*
X002098Y00462188D01*
X00210371Y00463566D01*
Y00465058D01*
X002098Y00466436D01*
X00208745Y00467491D01*
X00207367Y00468062D01*
D02*
G37*
G36*
X00113074Y0047792D02*
X00110726D01*
X00108457Y00477312D01*
X00106423Y00476138D01*
X00104762Y00474477D01*
X00103588Y00472443D01*
X0010298Y00470174D01*
Y00467826D01*
X00103588Y00465557D01*
X00104762Y00463523D01*
X00106423Y00461862D01*
X00108457Y00460688D01*
X00110726Y0046008D01*
X00113074D01*
X00115343Y00460688D01*
X00117377Y00461862D01*
X00119038Y00463523D01*
X00120212Y00465557D01*
X0012082Y00467826D01*
Y00470174D01*
X00120212Y00472443D01*
X00119038Y00474477D01*
X00117377Y00476138D01*
X00115343Y00477312D01*
X00113074Y0047792D01*
D02*
G37*
G36*
X00087674D02*
X00085326D01*
X00083057Y00477312D01*
X00081023Y00476138D01*
X00079362Y00474477D01*
X00078188Y00472443D01*
X0007758Y00470174D01*
Y00467826D01*
X00078188Y00465557D01*
X00079362Y00463523D01*
X00081023Y00461862D01*
X00083057Y00460688D01*
X00085326Y0046008D01*
X00087674D01*
X00089943Y00460688D01*
X00091977Y00461862D01*
X00093638Y00463523D01*
X00094812Y00465557D01*
X0009542Y00467826D01*
Y00470174D01*
X00094812Y00472443D01*
X00093638Y00474477D01*
X00091977Y00476138D01*
X00089943Y00477312D01*
X00087674Y0047792D01*
D02*
G37*
G36*
X00062274D02*
X00059926D01*
X00057657Y00477312D01*
X00055623Y00476138D01*
X00053962Y00474477D01*
X00052788Y00472443D01*
X0005218Y00470174D01*
Y00467826D01*
X00052788Y00465557D01*
X00053962Y00463523D01*
X00055623Y00461862D01*
X00057657Y00460688D01*
X00059926Y0046008D01*
X00062274D01*
X00064543Y00460688D01*
X00066577Y00461862D01*
X00068238Y00463523D01*
X00069412Y00465557D01*
X0007002Y00467826D01*
Y00470174D01*
X00069412Y00472443D01*
X00068238Y00474477D01*
X00066577Y00476138D01*
X00064543Y00477312D01*
X00062274Y0047792D01*
D02*
G37*
G36*
X00036874D02*
X00034526D01*
X00032257Y00477312D01*
X00030223Y00476138D01*
X00028562Y00474477D01*
X00027388Y00472443D01*
X0002678Y00470174D01*
Y00467826D01*
X00027388Y00465557D01*
X00028562Y00463523D01*
X00030223Y00461862D01*
X00032257Y00460688D01*
X00034526Y0046008D01*
X00036874D01*
X00039143Y00460688D01*
X00041177Y00461862D01*
X00042838Y00463523D01*
X00044012Y00465557D01*
X0004462Y00467826D01*
Y00470174D01*
X00044012Y00472443D01*
X00042838Y00474477D01*
X00041177Y00476138D01*
X00039143Y00477312D01*
X00036874Y0047792D01*
D02*
G37*
G36*
X00738931Y00475996D02*
X0073649D01*
X00734132Y00475364D01*
X00732018Y00474144D01*
X00730292Y00472418D01*
X00729072Y00470304D01*
X0072844Y00467946D01*
Y00465505D01*
X00729072Y00463148D01*
X00730292Y00461034D01*
X00732018Y00459308D01*
X00734132Y00458088D01*
X0073649Y00457456D01*
X00738931D01*
X00741288Y00458088D01*
X00743402Y00459308D01*
X00745128Y00461034D01*
X00746348Y00463148D01*
X0074698Y00465505D01*
Y00467946D01*
X00746348Y00470304D01*
X00745128Y00472418D01*
X00743402Y00474144D01*
X00741288Y00475364D01*
X00738931Y00475996D01*
D02*
G37*
G36*
X00342445Y00456512D02*
X00341144D01*
X00339942Y00456014D01*
X00339022Y00455094D01*
X00338525Y00453893D01*
Y00452592D01*
X00339022Y0045139D01*
X00339942Y0045047D01*
X00341144Y00449972D01*
X00342445D01*
X00343647Y0045047D01*
X00344567Y0045139D01*
X00345065Y00452592D01*
Y00453893D01*
X00344567Y00455094D01*
X00343647Y00456014D01*
X00342445Y00456512D01*
D02*
G37*
G36*
X0033287D02*
X0033157D01*
X00330368Y00456014D01*
X00329448Y00455094D01*
X0032895Y00453893D01*
Y00452592D01*
X00329448Y0045139D01*
X00330368Y0045047D01*
X0033157Y00449972D01*
X0033287D01*
X00334072Y0045047D01*
X00334992Y0045139D01*
X0033549Y00452592D01*
Y00453893D01*
X00334992Y00455094D01*
X00334072Y00456014D01*
X0033287Y00456512D01*
D02*
G37*
G36*
X00337658Y00447942D02*
X00336357D01*
X00335155Y00447444D01*
X00334235Y00446524D01*
X00333737Y00445322D01*
Y00444021D01*
X00334235Y00442819D01*
X00335155Y00441899D01*
X00336357Y00441402D01*
X00337658D01*
X0033886Y00441899D01*
X0033978Y00442819D01*
X00340277Y00444021D01*
Y00445322D01*
X0033978Y00446524D01*
X0033886Y00447444D01*
X00337658Y00447942D01*
D02*
G37*
G36*
X00113074Y0045252D02*
X00110726D01*
X00108457Y00451912D01*
X00106423Y00450738D01*
X00104762Y00449077D01*
X00103588Y00447043D01*
X0010298Y00444774D01*
Y00442426D01*
X00103588Y00440157D01*
X00104762Y00438123D01*
X00106423Y00436462D01*
X00108457Y00435288D01*
X00110726Y0043468D01*
X00113074D01*
X00115343Y00435288D01*
X00117377Y00436462D01*
X00119038Y00438123D01*
X00120212Y00440157D01*
X0012082Y00442426D01*
Y00444774D01*
X00120212Y00447043D01*
X00119038Y00449077D01*
X00117377Y00450738D01*
X00115343Y00451912D01*
X00113074Y0045252D01*
D02*
G37*
G36*
X00087674D02*
X00085326D01*
X00083057Y00451912D01*
X00081023Y00450738D01*
X00079362Y00449077D01*
X00078188Y00447043D01*
X0007758Y00444774D01*
Y00442426D01*
X00078188Y00440157D01*
X00079362Y00438123D01*
X00081023Y00436462D01*
X00083057Y00435288D01*
X00085326Y0043468D01*
X00087674D01*
X00089943Y00435288D01*
X00091977Y00436462D01*
X00093638Y00438123D01*
X00094812Y00440157D01*
X0009542Y00442426D01*
Y00444774D01*
X00094812Y00447043D01*
X00093638Y00449077D01*
X00091977Y00450738D01*
X00089943Y00451912D01*
X00087674Y0045252D01*
D02*
G37*
G36*
X00062337Y00453D02*
X00059862D01*
X00057472Y00452359D01*
X00055328Y00451122D01*
X00053578Y00449372D01*
X00052341Y00447228D01*
X000517Y00444837D01*
Y00442363D01*
X00052341Y00439972D01*
X00053578Y00437828D01*
X00055328Y00436078D01*
X00057472Y00434841D01*
X00059862Y004342D01*
X00062337D01*
X00064728Y00434841D01*
X00066872Y00436078D01*
X00068622Y00437828D01*
X00069859Y00439972D01*
X000705Y00442363D01*
Y00444837D01*
X00069859Y00447228D01*
X00068622Y00449372D01*
X00066872Y00451122D01*
X00064728Y00452359D01*
X00062337Y00453D01*
D02*
G37*
G36*
X00036937D02*
X00034462D01*
X00032072Y00452359D01*
X00029928Y00451122D01*
X00028178Y00449372D01*
X00026941Y00447228D01*
X000263Y00444837D01*
Y00442363D01*
X00026941Y00439972D01*
X00028178Y00437828D01*
X00029928Y00436078D01*
X00032072Y00434841D01*
X00034462Y004342D01*
X00036937D01*
X00039328Y00434841D01*
X00041472Y00436078D01*
X00043222Y00437828D01*
X00044459Y00439972D01*
X000451Y00442363D01*
Y00444837D01*
X00044459Y00447228D01*
X00043222Y00449372D01*
X00041472Y00451122D01*
X00039328Y00452359D01*
X00036937Y00453D01*
D02*
G37*
G36*
X00342445Y00439371D02*
X00341144D01*
X00339942Y00438873D01*
X00339022Y00437953D01*
X00338525Y00436752D01*
Y00435451D01*
X00339022Y00434249D01*
X00339942Y00433329D01*
X00341144Y00432831D01*
X00342445D01*
X00343647Y00433329D01*
X00344567Y00434249D01*
X00345065Y00435451D01*
Y00436752D01*
X00344567Y00437953D01*
X00343647Y00438873D01*
X00342445Y00439371D01*
D02*
G37*
G36*
X0033287D02*
X0033157D01*
X00330368Y00438873D01*
X00329448Y00437953D01*
X0032895Y00436752D01*
Y00435451D01*
X00329448Y00434249D01*
X00330368Y00433329D01*
X0033157Y00432831D01*
X0033287D01*
X00334072Y00433329D01*
X00334992Y00434249D01*
X0033549Y00435451D01*
Y00436752D01*
X00334992Y00437953D01*
X00334072Y00438873D01*
X0033287Y00439371D01*
D02*
G37*
G36*
X00671986Y0041777D02*
X00670494D01*
X00669116Y00417199D01*
X00668061Y00416144D01*
X0066749Y00414766D01*
Y00413274D01*
X00668061Y00411896D01*
X00669116Y00410841D01*
X00670494Y0041027D01*
X00671986D01*
X00673364Y00410841D01*
X00674419Y00411896D01*
X0067499Y00413274D01*
Y00414766D01*
X00674419Y00416144D01*
X00673364Y00417199D01*
X00671986Y0041777D01*
D02*
G37*
G36*
X00113074Y0042712D02*
X00110726D01*
X00108457Y00426512D01*
X00106423Y00425338D01*
X00104762Y00423677D01*
X00103588Y00421643D01*
X0010298Y00419374D01*
Y00417026D01*
X00103588Y00414757D01*
X00104762Y00412723D01*
X00106423Y00411062D01*
X00108457Y00409888D01*
X00110726Y0040928D01*
X00113074D01*
X00115343Y00409888D01*
X00117377Y00411062D01*
X00119038Y00412723D01*
X00120212Y00414757D01*
X0012082Y00417026D01*
Y00419374D01*
X00120212Y00421643D01*
X00119038Y00423677D01*
X00117377Y00425338D01*
X00115343Y00426512D01*
X00113074Y0042712D01*
D02*
G37*
G36*
X00087674D02*
X00085326D01*
X00083057Y00426512D01*
X00081023Y00425338D01*
X00079362Y00423677D01*
X00078188Y00421643D01*
X0007758Y00419374D01*
Y00417026D01*
X00078188Y00414757D01*
X00079362Y00412723D01*
X00081023Y00411062D01*
X00083057Y00409888D01*
X00085326Y0040928D01*
X00087674D01*
X00089943Y00409888D01*
X00091977Y00411062D01*
X00093638Y00412723D01*
X00094812Y00414757D01*
X0009542Y00417026D01*
Y00419374D01*
X00094812Y00421643D01*
X00093638Y00423677D01*
X00091977Y00425338D01*
X00089943Y00426512D01*
X00087674Y0042712D01*
D02*
G37*
G36*
X00366118Y004157D02*
X00364817D01*
X00363615Y00415203D01*
X00362695Y00414283D01*
X00362197Y00413081D01*
Y0041178D01*
X00362695Y00410578D01*
X00363615Y00409658D01*
X00364817Y0040916D01*
X00366118D01*
X0036732Y00409658D01*
X00368239Y00410578D01*
X00368737Y0041178D01*
Y00413081D01*
X00368239Y00414283D01*
X0036732Y00415203D01*
X00366118Y004157D01*
D02*
G37*
G36*
X00356543D02*
X00355242D01*
X0035404Y00415203D01*
X00353121Y00414283D01*
X00352623Y00413081D01*
Y0041178D01*
X00353121Y00410578D01*
X0035404Y00409658D01*
X00355242Y0040916D01*
X00356543D01*
X00357745Y00409658D01*
X00358665Y00410578D01*
X00359163Y0041178D01*
Y00413081D01*
X00358665Y00414283D01*
X00357745Y00415203D01*
X00356543Y004157D01*
D02*
G37*
G36*
X00062337Y004276D02*
X00059862D01*
X00057472Y00426959D01*
X00055328Y00425722D01*
X00053578Y00423972D01*
X00052341Y00421828D01*
X000517Y00419437D01*
Y00416963D01*
X00052341Y00414572D01*
X00053578Y00412428D01*
X00055328Y00410678D01*
X00057472Y00409441D01*
X00059862Y004088D01*
X00062337D01*
X00064728Y00409441D01*
X00066872Y00410678D01*
X00068622Y00412428D01*
X00069859Y00414572D01*
X000705Y00416963D01*
Y00419437D01*
X00069859Y00421828D01*
X00068622Y00423972D01*
X00066872Y00425722D01*
X00064728Y00426959D01*
X00062337Y004276D01*
D02*
G37*
G36*
X00036937D02*
X00034462D01*
X00032072Y00426959D01*
X00029928Y00425722D01*
X00028178Y00423972D01*
X00026941Y00421828D01*
X000263Y00419437D01*
Y00416963D01*
X00026941Y00414572D01*
X00028178Y00412428D01*
X00029928Y00410678D01*
X00032072Y00409441D01*
X00034462Y004088D01*
X00036937D01*
X00039328Y00409441D01*
X00041472Y00410678D01*
X00043222Y00412428D01*
X00044459Y00414572D01*
X000451Y00416963D01*
Y00419437D01*
X00044459Y00421828D01*
X00043222Y00423972D01*
X00041472Y00425722D01*
X00039328Y00426959D01*
X00036937Y004276D01*
D02*
G37*
G36*
X00761183Y00409481D02*
X00759691D01*
X00758313Y0040891D01*
X00757258Y00407855D01*
X00756687Y00406476D01*
Y00404985D01*
X00757258Y00403606D01*
X00758313Y00402551D01*
X00759691Y00401981D01*
X00761183D01*
X00762561Y00402551D01*
X00763616Y00403606D01*
X00764187Y00404985D01*
Y00406476D01*
X00763616Y00407855D01*
X00762561Y0040891D01*
X00761183Y00409481D01*
D02*
G37*
G36*
X00751609D02*
X00750117D01*
X00748738Y0040891D01*
X00747684Y00407855D01*
X00747113Y00406476D01*
Y00404985D01*
X00747684Y00403606D01*
X00748738Y00402551D01*
X00750117Y00401981D01*
X00751609D01*
X00752987Y00402551D01*
X00754042Y00403606D01*
X00754613Y00404985D01*
Y00406476D01*
X00754042Y00407855D01*
X00752987Y0040891D01*
X00751609Y00409481D01*
D02*
G37*
G36*
X00450065Y00408862D02*
X00448573D01*
X00447195Y00408292D01*
X0044614Y00407237D01*
X00445569Y00405858D01*
Y00404367D01*
X0044614Y00402988D01*
X00447195Y00401933D01*
X00448573Y00401362D01*
X00450065D01*
X00451443Y00401933D01*
X00452498Y00402988D01*
X00453069Y00404367D01*
Y00405858D01*
X00452498Y00407237D01*
X00451443Y00408292D01*
X00450065Y00408862D01*
D02*
G37*
G36*
X00428017D02*
X00426525D01*
X00425147Y00408292D01*
X00424092Y00407237D01*
X00423521Y00405858D01*
Y00404367D01*
X00424092Y00402988D01*
X00425147Y00401933D01*
X00426525Y00401362D01*
X00428017D01*
X00429395Y00401933D01*
X0043045Y00402988D01*
X00431021Y00404367D01*
Y00405858D01*
X0043045Y00407237D01*
X00429395Y00408292D01*
X00428017Y00408862D01*
D02*
G37*
G36*
X0036133Y0040713D02*
X0036003D01*
X00358828Y00406632D01*
X00357908Y00405712D01*
X0035741Y0040451D01*
Y0040321D01*
X00357908Y00402008D01*
X00358828Y00401088D01*
X0036003Y0040059D01*
X0036133D01*
X00362532Y00401088D01*
X00363452Y00402008D01*
X0036395Y0040321D01*
Y0040451D01*
X00363452Y00405712D01*
X00362532Y00406632D01*
X0036133Y0040713D01*
D02*
G37*
G36*
X00756396Y0040091D02*
X00754904D01*
X00753526Y00400339D01*
X00752471Y00399284D01*
X007519Y00397906D01*
Y00396414D01*
X00752471Y00395036D01*
X00753526Y00393981D01*
X00754904Y0039341D01*
X00756396D01*
X00757774Y00393981D01*
X00758829Y00395036D01*
X007594Y00396414D01*
Y00397906D01*
X00758829Y00399284D01*
X00757774Y00400339D01*
X00756396Y0040091D01*
D02*
G37*
G36*
X00366118Y00398559D02*
X00364817D01*
X00363615Y00398062D01*
X00362695Y00397142D01*
X00362197Y0039594D01*
Y00394639D01*
X00362695Y00393437D01*
X00363615Y00392517D01*
X00364817Y0039202D01*
X00366118D01*
X0036732Y00392517D01*
X00368239Y00393437D01*
X00368737Y00394639D01*
Y0039594D01*
X00368239Y00397142D01*
X0036732Y00398062D01*
X00366118Y00398559D01*
D02*
G37*
G36*
X00356543D02*
X00355242D01*
X0035404Y00398062D01*
X00353121Y00397142D01*
X00352623Y0039594D01*
Y00394639D01*
X00353121Y00393437D01*
X0035404Y00392517D01*
X00355242Y0039202D01*
X00356543D01*
X00357745Y00392517D01*
X00358665Y00393437D01*
X00359163Y00394639D01*
Y0039594D01*
X00358665Y00397142D01*
X00357745Y00398062D01*
X00356543Y00398559D01*
D02*
G37*
G36*
X00266306Y00395377D02*
X00264815D01*
X00263436Y00394806D01*
X00262381Y00393751D01*
X00261811Y00392373D01*
Y00390881D01*
X00262381Y00389503D01*
X00263436Y00388448D01*
X00264815Y00387877D01*
X00266306D01*
X00267685Y00388448D01*
X0026874Y00389503D01*
X00269311Y00390881D01*
Y00392373D01*
X0026874Y00393751D01*
X00267685Y00394806D01*
X00266306Y00395377D01*
D02*
G37*
G36*
X00256732D02*
X0025524D01*
X00253862Y00394806D01*
X00252807Y00393751D01*
X00252236Y00392373D01*
Y00390881D01*
X00252807Y00389503D01*
X00253862Y00388448D01*
X0025524Y00387877D01*
X00256732D01*
X0025811Y00388448D01*
X00259165Y00389503D01*
X00259736Y00390881D01*
Y00392373D01*
X00259165Y00393751D01*
X0025811Y00394806D01*
X00256732Y00395377D01*
D02*
G37*
G36*
X0030889Y00395377D02*
X00307398D01*
X0030602Y00394806D01*
X00304965Y00393751D01*
X00304394Y00392373D01*
Y00390881D01*
X00304965Y00389503D01*
X0030602Y00388448D01*
X00307398Y00387877D01*
X0030889D01*
X00310268Y00388448D01*
X00311323Y00389503D01*
X00311894Y00390881D01*
Y00392373D01*
X00311323Y00393751D01*
X00310268Y00394806D01*
X0030889Y00395377D01*
D02*
G37*
G36*
X00299315D02*
X00297824D01*
X00296445Y00394806D01*
X0029539Y00393751D01*
X00294819Y00392373D01*
Y00390881D01*
X0029539Y00389503D01*
X00296445Y00388448D01*
X00297824Y00387877D01*
X00299315D01*
X00300694Y00388448D01*
X00301749Y00389503D01*
X00302319Y00390881D01*
Y00392373D01*
X00301749Y00393751D01*
X00300694Y00394806D01*
X00299315Y00395377D01*
D02*
G37*
G36*
X00761183Y0039234D02*
X00759691D01*
X00758313Y00391769D01*
X00757258Y00390714D01*
X00756687Y00389335D01*
Y00387844D01*
X00757258Y00386465D01*
X00758313Y0038541D01*
X00759691Y0038484D01*
X00761183D01*
X00762561Y0038541D01*
X00763616Y00386465D01*
X00764187Y00387844D01*
Y00389335D01*
X00763616Y00390714D01*
X00762561Y00391769D01*
X00761183Y0039234D01*
D02*
G37*
G36*
X00751609D02*
X00750117D01*
X00748738Y00391769D01*
X00747684Y00390714D01*
X00747113Y00389335D01*
Y00387844D01*
X00747684Y00386465D01*
X00748738Y0038541D01*
X00750117Y0038484D01*
X00751609D01*
X00752987Y0038541D01*
X00754042Y00386465D01*
X00754613Y00387844D01*
Y00389335D01*
X00754042Y00390714D01*
X00752987Y00391769D01*
X00751609Y0039234D01*
D02*
G37*
G36*
X00113074Y0040172D02*
X00110726D01*
X00108457Y00401112D01*
X00106423Y00399938D01*
X00104762Y00398277D01*
X00103588Y00396243D01*
X0010298Y00393974D01*
Y00391626D01*
X00103588Y00389357D01*
X00104762Y00387323D01*
X00106423Y00385662D01*
X00108457Y00384488D01*
X00110726Y0038388D01*
X00113074D01*
X00115343Y00384488D01*
X00117377Y00385662D01*
X00119038Y00387323D01*
X00120212Y00389357D01*
X0012082Y00391626D01*
Y00393974D01*
X00120212Y00396243D01*
X00119038Y00398277D01*
X00117377Y00399938D01*
X00115343Y00401112D01*
X00113074Y0040172D01*
D02*
G37*
G36*
X00087674D02*
X00085326D01*
X00083057Y00401112D01*
X00081023Y00399938D01*
X00079362Y00398277D01*
X00078188Y00396243D01*
X0007758Y00393974D01*
Y00391626D01*
X00078188Y00389357D01*
X00079362Y00387323D01*
X00081023Y00385662D01*
X00083057Y00384488D01*
X00085326Y0038388D01*
X00087674D01*
X00089943Y00384488D01*
X00091977Y00385662D01*
X00093638Y00387323D01*
X00094812Y00389357D01*
X0009542Y00391626D01*
Y00393974D01*
X00094812Y00396243D01*
X00093638Y00398277D01*
X00091977Y00399938D01*
X00089943Y00401112D01*
X00087674Y0040172D01*
D02*
G37*
G36*
X00062274D02*
X00059926D01*
X00057657Y00401112D01*
X00055623Y00399938D01*
X00053962Y00398277D01*
X00052788Y00396243D01*
X0005218Y00393974D01*
Y00391626D01*
X00052788Y00389357D01*
X00053962Y00387323D01*
X00055623Y00385662D01*
X00057657Y00384488D01*
X00059926Y0038388D01*
X00062274D01*
X00064543Y00384488D01*
X00066577Y00385662D01*
X00068238Y00387323D01*
X00069412Y00389357D01*
X0007002Y00391626D01*
Y00393974D01*
X00069412Y00396243D01*
X00068238Y00398277D01*
X00066577Y00399938D01*
X00064543Y00401112D01*
X00062274Y0040172D01*
D02*
G37*
G36*
X00036874D02*
X00034526D01*
X00032257Y00401112D01*
X00030223Y00399938D01*
X00028562Y00398277D01*
X00027388Y00396243D01*
X0002678Y00393974D01*
Y00391626D01*
X00027388Y00389357D01*
X00028562Y00387323D01*
X00030223Y00385662D01*
X00032257Y00384488D01*
X00034526Y0038388D01*
X00036874D01*
X00039143Y00384488D01*
X00041177Y00385662D01*
X00042838Y00387323D01*
X00044012Y00389357D01*
X0004462Y00391626D01*
Y00393974D01*
X00044012Y00396243D01*
X00042838Y00398277D01*
X00041177Y00399938D01*
X00039143Y00401112D01*
X00036874Y0040172D01*
D02*
G37*
G36*
X00591579Y00390359D02*
X00590088D01*
X00588709Y00389788D01*
X00587654Y00388733D01*
X00587084Y00387355D01*
Y00385863D01*
X00587654Y00384485D01*
X00588709Y0038343D01*
X00590088Y00382859D01*
X00591579D01*
X00592958Y0038343D01*
X00594013Y00384485D01*
X00594584Y00385863D01*
Y00387355D01*
X00594013Y00388733D01*
X00592958Y00389788D01*
X00591579Y00390359D01*
D02*
G37*
G36*
X00261519Y00386807D02*
X00260027D01*
X00258649Y00386236D01*
X00257594Y00385181D01*
X00257023Y00383803D01*
Y00382311D01*
X00257594Y00380933D01*
X00258649Y00379878D01*
X00260027Y00379307D01*
X00261519D01*
X00262897Y00379878D01*
X00263952Y00380933D01*
X00264523Y00382311D01*
Y00383803D01*
X00263952Y00385181D01*
X00262897Y00386236D01*
X00261519Y00386807D01*
D02*
G37*
G36*
X00304103Y00386807D02*
X00302611D01*
X00301232Y00386236D01*
X00300178Y00385181D01*
X00299607Y00383803D01*
Y00382311D01*
X00300178Y00380933D01*
X00301232Y00379878D01*
X00302611Y00379307D01*
X00304103D01*
X00305481Y00379878D01*
X00306536Y00380933D01*
X00307107Y00382311D01*
Y00383803D01*
X00306536Y00385181D01*
X00305481Y00386236D01*
X00304103Y00386807D01*
D02*
G37*
G36*
X00266306Y00378236D02*
X00264815D01*
X00263436Y00377665D01*
X00262381Y0037661D01*
X00261811Y00375232D01*
Y0037374D01*
X00262381Y00372362D01*
X00263436Y00371307D01*
X00264815Y00370736D01*
X00266306D01*
X00267685Y00371307D01*
X0026874Y00372362D01*
X00269311Y0037374D01*
Y00375232D01*
X0026874Y0037661D01*
X00267685Y00377665D01*
X00266306Y00378236D01*
D02*
G37*
G36*
X00256732D02*
X0025524D01*
X00253862Y00377665D01*
X00252807Y0037661D01*
X00252236Y00375232D01*
Y0037374D01*
X00252807Y00372362D01*
X00253862Y00371307D01*
X0025524Y00370736D01*
X00256732D01*
X0025811Y00371307D01*
X00259165Y00372362D01*
X00259736Y0037374D01*
Y00375232D01*
X00259165Y0037661D01*
X0025811Y00377665D01*
X00256732Y00378236D01*
D02*
G37*
G36*
X0030889Y00378236D02*
X00307398D01*
X0030602Y00377665D01*
X00304965Y0037661D01*
X00304394Y00375232D01*
Y0037374D01*
X00304965Y00372362D01*
X0030602Y00371307D01*
X00307398Y00370736D01*
X0030889D01*
X00310268Y00371307D01*
X00311323Y00372362D01*
X00311894Y0037374D01*
Y00375232D01*
X00311323Y0037661D01*
X00310268Y00377665D01*
X0030889Y00378236D01*
D02*
G37*
G36*
X00299315D02*
X00297824D01*
X00296445Y00377665D01*
X0029539Y0037661D01*
X00294819Y00375232D01*
Y0037374D01*
X0029539Y00372362D01*
X00296445Y00371307D01*
X00297824Y00370736D01*
X00299315D01*
X00300694Y00371307D01*
X00301749Y00372362D01*
X00302319Y0037374D01*
Y00375232D01*
X00301749Y0037661D01*
X00300694Y00377665D01*
X00299315Y00378236D01*
D02*
G37*
G36*
X00383993Y0037808D02*
X00382501D01*
X00381123Y0037751D01*
X00380068Y00376455D01*
X00379497Y00375076D01*
Y00373585D01*
X00380068Y00372206D01*
X00381123Y00371151D01*
X00382501Y0037058D01*
X00383993D01*
X00385372Y00371151D01*
X00386426Y00372206D01*
X00386997Y00373585D01*
Y00375076D01*
X00386426Y00376455D01*
X00385372Y0037751D01*
X00383993Y0037808D01*
D02*
G37*
G36*
X00374419D02*
X00372927D01*
X00371549Y0037751D01*
X00370494Y00376455D01*
X00369923Y00375076D01*
Y00373585D01*
X00370494Y00372206D01*
X00371549Y00371151D01*
X00372927Y0037058D01*
X00374419D01*
X00375797Y00371151D01*
X00376852Y00372206D01*
X00377423Y00373585D01*
Y00375076D01*
X00376852Y00376455D01*
X00375797Y0037751D01*
X00374419Y0037808D01*
D02*
G37*
G36*
X00608945Y00657773D02*
X00607645D01*
X00606443Y00657275D01*
X00605523Y00656355D01*
X00605025Y00655153D01*
Y00655061D01*
X00604382Y00654331D01*
X00604197Y00654145D01*
X00604143Y00654013D01*
X00596339Y00646209D01*
X00595777Y00645369D01*
X0059558Y00644378D01*
Y00552675D01*
X005472Y00504294D01*
X00546638Y00503454D01*
X00546441Y00502463D01*
Y00373484D01*
X00546386Y0037336D01*
X00546366Y0037236D01*
X00546349Y0037213D01*
X00546259Y00372039D01*
X00545761Y00370838D01*
Y00369537D01*
X00546259Y00368335D01*
X00547178Y00367415D01*
X0054838Y00366917D01*
X00549681D01*
X00550883Y00367415D01*
X00551803Y00368335D01*
X00552301Y00369537D01*
Y00370838D01*
X00551803Y00372039D01*
X00551738Y00372105D01*
X00551676Y00373075D01*
X00551675Y00373338D01*
X0055162Y00373469D01*
Y0050139D01*
X00600001Y00549771D01*
X00600563Y00550611D01*
X0060076Y00551602D01*
Y00643305D01*
X00607795Y0065034D01*
X00607921Y00650389D01*
X00608642Y00651082D01*
X00608818Y00651233D01*
X00608945D01*
X00610147Y00651731D01*
X00611067Y0065265D01*
X00611565Y00653852D01*
Y00655153D01*
X00611067Y00656355D01*
X00610147Y00657275D01*
X00608945Y00657773D01*
D02*
G37*
G36*
X00773385Y00723844D02*
X00772085D01*
X00770883Y00723346D01*
X00769963Y00722427D01*
X00769465Y00721225D01*
Y00719924D01*
X00769963Y00718722D01*
X00770883Y00717802D01*
X00772085Y00717304D01*
X00772385D01*
X00773093Y00716685D01*
X00773278Y00716502D01*
X0077334Y00716476D01*
X00773372Y00716417D01*
X0077347Y00716387D01*
X0079192Y00697937D01*
Y00468705D01*
X00774896Y00451681D01*
X00748388D01*
X00747397Y00451483D01*
X00746556Y00450922D01*
X00660855Y0036522D01*
X00502822D01*
X00502697Y00365275D01*
X00501698Y00365295D01*
X00501467Y00365312D01*
X00501377Y00365402D01*
X00500175Y003659D01*
X00498874D01*
X00497672Y00365402D01*
X00496753Y00364483D01*
X00496255Y00363281D01*
Y0036198D01*
X00496753Y00360778D01*
X00497672Y00359858D01*
X00498874Y0035936D01*
X00500175D01*
X00501377Y00359858D01*
X00501442Y00359924D01*
X00502412Y00359985D01*
X00502676Y00359986D01*
X00502807Y00360041D01*
X00661927D01*
X00662918Y00360238D01*
X00663758Y00360799D01*
X0074946Y00446501D01*
X00775968D01*
X0077696Y00446698D01*
X007778Y0044726D01*
X00796341Y00465801D01*
X00796903Y00466641D01*
X007971Y00467632D01*
Y0069901D01*
X00796903Y00700001D01*
X00796341Y00700841D01*
X00776905Y00720277D01*
X00776855Y00720405D01*
X00776033Y00721255D01*
X00775955Y00721346D01*
X00775507Y00722427D01*
X00774587Y00723346D01*
X00773385Y00723844D01*
D02*
G37*
G36*
X00379206Y0036951D02*
X00377714D01*
X00376336Y00368939D01*
X00375281Y00367884D01*
X0037471Y00366506D01*
Y00365014D01*
X00375281Y00363636D01*
X00376336Y00362581D01*
X00377714Y0036201D01*
X00379206D01*
X00380584Y00362581D01*
X00381639Y00363636D01*
X0038221Y00365014D01*
Y00366506D01*
X00381639Y00367884D01*
X00380584Y00368939D01*
X00379206Y0036951D01*
D02*
G37*
G36*
X00062274Y0037632D02*
X00059926D01*
X00057657Y00375712D01*
X00055623Y00374538D01*
X00053962Y00372877D01*
X00052788Y00370843D01*
X0005218Y00368574D01*
Y00366226D01*
X00052788Y00363957D01*
X00053962Y00361923D01*
X00055623Y00360262D01*
X00057657Y00359088D01*
X00059926Y0035848D01*
X00062274D01*
X00064543Y00359088D01*
X00066577Y00360262D01*
X00068238Y00361923D01*
X00069412Y00363957D01*
X0007002Y00366226D01*
Y00368574D01*
X00069412Y00370843D01*
X00068238Y00372877D01*
X00066577Y00374538D01*
X00064543Y00375712D01*
X00062274Y0037632D01*
D02*
G37*
G36*
X00036874D02*
X00034526D01*
X00032257Y00375712D01*
X00030223Y00374538D01*
X00028562Y00372877D01*
X00027388Y00370843D01*
X0002678Y00368574D01*
Y00366226D01*
X00027388Y00363957D01*
X00028562Y00361923D01*
X00030223Y00360262D01*
X00032257Y00359088D01*
X00034526Y0035848D01*
X00036874D01*
X00039143Y00359088D01*
X00041177Y00360262D01*
X00042838Y00361923D01*
X00044012Y00363957D01*
X0004462Y00366226D01*
Y00368574D01*
X00044012Y00370843D01*
X00042838Y00372877D01*
X00041177Y00374538D01*
X00039143Y00375712D01*
X00036874Y0037632D01*
D02*
G37*
G36*
X00383993Y00360939D02*
X00382501D01*
X00381123Y00360369D01*
X00380068Y00359314D01*
X00379497Y00357935D01*
Y00356444D01*
X00380068Y00355065D01*
X00381123Y0035401D01*
X00382501Y00353439D01*
X00383993D01*
X00385372Y0035401D01*
X00386426Y00355065D01*
X00386997Y00356444D01*
Y00357935D01*
X00386426Y00359314D01*
X00385372Y00360369D01*
X00383993Y00360939D01*
D02*
G37*
G36*
X00374419D02*
X00372927D01*
X00371549Y00360369D01*
X00370494Y00359314D01*
X00369923Y00357935D01*
Y00356444D01*
X00370494Y00355065D01*
X00371549Y0035401D01*
X00372927Y00353439D01*
X00374419D01*
X00375797Y0035401D01*
X00376852Y00355065D01*
X00377423Y00356444D01*
Y00357935D01*
X00376852Y00359314D01*
X00375797Y00360369D01*
X00374419Y00360939D01*
D02*
G37*
G36*
X0014416Y0058366D02*
X0014286D01*
X00141658Y00583162D01*
X00140738Y00582242D01*
X0014024Y0058104D01*
Y0057974D01*
X00140738Y00578538D01*
X00141658Y00577618D01*
X00142536Y00577254D01*
Y00575947D01*
X00141658Y00575583D01*
X00140738Y00574663D01*
X0014024Y00573461D01*
Y0057216D01*
X00140738Y00570958D01*
X00141658Y00570038D01*
X0014286Y00569541D01*
X0014416D01*
X00145362Y00570038D01*
X00146282Y00570958D01*
X0014678Y0057216D01*
Y00572412D01*
X00151877D01*
X00155619Y0056867D01*
Y00398327D01*
X00155619Y00398327D01*
X00155804Y00397395D01*
X00156332Y00396605D01*
X00243933Y00309004D01*
X00243933Y00309004D01*
X00244723Y00308476D01*
X00245655Y00308291D01*
X00245655Y00308291D01*
X00414745D01*
X00414745Y00308291D01*
X00415677Y00308476D01*
X00416467Y00309004D01*
X00454762Y00347299D01*
X00550797D01*
Y0034709D01*
X00551295Y00345888D01*
X00552215Y00344968D01*
X00553416Y00344471D01*
X00554717D01*
X00555919Y00344968D01*
X00556839Y00345888D01*
X00557337Y0034709D01*
Y00348391D01*
X00556839Y00349593D01*
X00555919Y00350513D01*
X00555146Y00350833D01*
X00555089Y00352184D01*
X0055576Y00352462D01*
X0055668Y00353382D01*
X00557178Y00354584D01*
Y00355885D01*
X0055668Y00357086D01*
X0055576Y00358006D01*
X00554559Y00358504D01*
X00553258D01*
X00552056Y00358006D01*
X00551136Y00357086D01*
X00550638Y00355885D01*
Y00355676D01*
X00452301D01*
X00451369Y0035549D01*
X00450579Y00354963D01*
X00450579Y00354962D01*
X00412284Y00316668D01*
X00248116D01*
X00163995Y00400788D01*
Y00571131D01*
X00163995Y00571131D01*
X0016381Y00572063D01*
X00163282Y00572853D01*
X0015606Y00580075D01*
X0015527Y00580603D01*
X00154338Y00580789D01*
X00154338Y00580789D01*
X0014678D01*
Y0058104D01*
X00146282Y00582242D01*
X00145362Y00583162D01*
X0014416Y0058366D01*
D02*
G37*
G36*
X0052897Y0034363D02*
X0052767D01*
X00526468Y00343132D01*
X00526402Y00343067D01*
X00525432Y00343006D01*
X00525169Y00343005D01*
X00525038Y0034295D01*
X00458052D01*
X00457061Y00342753D01*
X00456221Y00342191D01*
X0042015Y0030612D01*
X00339631D01*
X0033864Y00305923D01*
X003378Y00305361D01*
X00329784Y00297346D01*
X00328708Y00298065D01*
X00328898Y00298525D01*
Y00300017D01*
X00328327Y00301395D01*
X00327272Y0030245D01*
X00325894Y00303021D01*
X00324402D01*
X00323024Y0030245D01*
X00321969Y00301395D01*
X00321398Y00300017D01*
Y00298525D01*
X00321969Y00297146D01*
X00322025Y0029709D01*
X00321499Y0029582D01*
X00294655D01*
X00294115Y0029709D01*
X0029458Y00298212D01*
Y00299704D01*
X00294009Y00301082D01*
X00292954Y00302137D01*
X00291576Y00302708D01*
X00290084D01*
X00288706Y00302137D01*
X00287651Y00301082D01*
X0028708Y00299704D01*
Y00298212D01*
X00287545Y0029709D01*
X00287005Y0029582D01*
X00285372D01*
X00284833Y0029709D01*
X00285297Y00298212D01*
Y00299704D01*
X00284726Y00301082D01*
X00283671Y00302137D01*
X00282293Y00302708D01*
X00280801D01*
X00279423Y00302137D01*
X00278368Y00301082D01*
X00277797Y00299704D01*
Y00298212D01*
X00278262Y0029709D01*
X00277722Y0029582D01*
X0027609D01*
X0027555Y0029709D01*
X00276015Y00298212D01*
Y00299704D01*
X00275444Y00301082D01*
X00274389Y00302137D01*
X00273011Y00302708D01*
X00271519D01*
X0027014Y00302137D01*
X00269086Y00301082D01*
X00268515Y00299704D01*
Y00298212D01*
X00268979Y0029709D01*
X0026844Y0029582D01*
X00262083D01*
X00260132Y00297771D01*
X00260082Y00297898D01*
X0025939Y00298619D01*
X00259239Y00298794D01*
Y00298922D01*
X00258741Y00300124D01*
X00257821Y00301044D01*
X00256619Y00301541D01*
X00255319D01*
X00254117Y00301044D01*
X00253197Y00300124D01*
X00252699Y00298922D01*
Y00297621D01*
X00253197Y00296419D01*
X00254117Y00295499D01*
X00255319Y00295001D01*
X00255411D01*
X0025614Y00294358D01*
X00256327Y00294173D01*
X00256458Y0029412D01*
X00259179Y00291399D01*
X00260019Y00290838D01*
X0026101Y00290641D01*
X00329332D01*
X00330323Y00290838D01*
X00331163Y00291399D01*
X00340704Y0030094D01*
X00421222D01*
X00422213Y00301137D01*
X00423054Y00301699D01*
X00459125Y0033777D01*
X00525023D01*
X00525147Y00337716D01*
X00526147Y00337696D01*
X00526377Y00337678D01*
X00526468Y00337588D01*
X0052767Y0033709D01*
X0052897D01*
X00530172Y00337588D01*
X00531092Y00338508D01*
X0053159Y0033971D01*
Y0034101D01*
X00531092Y00342212D01*
X00530172Y00343132D01*
X0052897Y0034363D01*
D02*
G37*
G36*
X00761183Y00340801D02*
X00759691D01*
X00758313Y0034023D01*
X00757258Y00339175D01*
X00756687Y00337797D01*
Y00336305D01*
X00757258Y00334926D01*
X00758313Y00333871D01*
X00759691Y00333301D01*
X00761183D01*
X00762561Y00333871D01*
X00763616Y00334926D01*
X00764187Y00336305D01*
Y00337797D01*
X00763616Y00339175D01*
X00762561Y0034023D01*
X00761183Y00340801D01*
D02*
G37*
G36*
X00751609D02*
X00750117D01*
X00748738Y0034023D01*
X00747684Y00339175D01*
X00747113Y00337797D01*
Y00336305D01*
X00747684Y00334926D01*
X00748738Y00333871D01*
X00750117Y00333301D01*
X00751609D01*
X00752987Y00333871D01*
X00754042Y00334926D01*
X00754613Y00336305D01*
Y00337797D01*
X00754042Y00339175D01*
X00752987Y0034023D01*
X00751609Y00340801D01*
D02*
G37*
G36*
X00113074Y0035092D02*
X00110726D01*
X00108457Y00350312D01*
X00106423Y00349138D01*
X00104762Y00347477D01*
X00103588Y00345443D01*
X0010298Y00343174D01*
Y00340826D01*
X00103588Y00338557D01*
X00104762Y00336523D01*
X00106423Y00334862D01*
X00108457Y00333688D01*
X00110726Y0033308D01*
X00113074D01*
X00115343Y00333688D01*
X00117377Y00334862D01*
X00119038Y00336523D01*
X00120212Y00338557D01*
X0012082Y00340826D01*
Y00343174D01*
X00120212Y00345443D01*
X00119038Y00347477D01*
X00117377Y00349138D01*
X00115343Y00350312D01*
X00113074Y0035092D01*
D02*
G37*
G36*
X00087674D02*
X00085326D01*
X00083057Y00350312D01*
X00081023Y00349138D01*
X00079362Y00347477D01*
X00078188Y00345443D01*
X0007758Y00343174D01*
Y00340826D01*
X00078188Y00338557D01*
X00079362Y00336523D01*
X00081023Y00334862D01*
X00083057Y00333688D01*
X00085326Y0033308D01*
X00087674D01*
X00089943Y00333688D01*
X00091977Y00334862D01*
X00093638Y00336523D01*
X00094812Y00338557D01*
X0009542Y00340826D01*
Y00343174D01*
X00094812Y00345443D01*
X00093638Y00347477D01*
X00091977Y00349138D01*
X00089943Y00350312D01*
X00087674Y0035092D01*
D02*
G37*
G36*
X00062274D02*
X00059926D01*
X00057657Y00350312D01*
X00055623Y00349138D01*
X00053962Y00347477D01*
X00052788Y00345443D01*
X0005218Y00343174D01*
Y00340826D01*
X00052788Y00338557D01*
X00053962Y00336523D01*
X00055623Y00334862D01*
X00057657Y00333688D01*
X00059926Y0033308D01*
X00062274D01*
X00064543Y00333688D01*
X00066577Y00334862D01*
X00068238Y00336523D01*
X00069412Y00338557D01*
X0007002Y00340826D01*
Y00343174D01*
X00069412Y00345443D01*
X00068238Y00347477D01*
X00066577Y00349138D01*
X00064543Y00350312D01*
X00062274Y0035092D01*
D02*
G37*
G36*
X00036874D02*
X00034526D01*
X00032257Y00350312D01*
X00030223Y00349138D01*
X00028562Y00347477D01*
X00027388Y00345443D01*
X0002678Y00343174D01*
Y00340826D01*
X00027388Y00338557D01*
X00028562Y00336523D01*
X00030223Y00334862D01*
X00032257Y00333688D01*
X00034526Y0033308D01*
X00036874D01*
X00039143Y00333688D01*
X00041177Y00334862D01*
X00042838Y00336523D01*
X00044012Y00338557D01*
X0004462Y00340826D01*
Y00343174D01*
X00044012Y00345443D01*
X00042838Y00347477D01*
X00041177Y00349138D01*
X00039143Y00350312D01*
X00036874Y0035092D01*
D02*
G37*
G36*
X00522714Y00332523D02*
X00521222D01*
X00519844Y00331952D01*
X00518789Y00330897D01*
X00518218Y00329518D01*
Y00328027D01*
X00518789Y00326648D01*
X00519844Y00325593D01*
X00521222Y00325023D01*
X00522714D01*
X00524092Y00325593D01*
X00525147Y00326648D01*
X00525718Y00328027D01*
Y00329518D01*
X00525147Y00330897D01*
X00524092Y00331952D01*
X00522714Y00332523D01*
D02*
G37*
G36*
X00756396Y0033223D02*
X00754904D01*
X00753526Y00331659D01*
X00752471Y00330604D01*
X007519Y00329226D01*
Y00327734D01*
X00752471Y00326356D01*
X00753526Y00325301D01*
X00754904Y0032473D01*
X00756396D01*
X00757774Y00325301D01*
X00758829Y00326356D01*
X007594Y00327734D01*
Y00329226D01*
X00758829Y00330604D01*
X00757774Y00331659D01*
X00756396Y0033223D01*
D02*
G37*
G36*
X00761183Y0032366D02*
X00759691D01*
X00758313Y00323089D01*
X00757258Y00322034D01*
X00756687Y00320655D01*
Y00319164D01*
X00757258Y00317785D01*
X00758313Y0031673D01*
X00759691Y00316159D01*
X00761183D01*
X00762561Y0031673D01*
X00763616Y00317785D01*
X00764187Y00319164D01*
Y00320655D01*
X00763616Y00322034D01*
X00762561Y00323089D01*
X00761183Y0032366D01*
D02*
G37*
G36*
X00751609D02*
X00750117D01*
X00748738Y00323089D01*
X00747684Y00322034D01*
X00747113Y00320655D01*
Y00319164D01*
X00747684Y00317785D01*
X00748738Y0031673D01*
X00750117Y00316159D01*
X00751609D01*
X00752987Y0031673D01*
X00754042Y00317785D01*
X00754613Y00319164D01*
Y00320655D01*
X00754042Y00322034D01*
X00752987Y00323089D01*
X00751609Y0032366D01*
D02*
G37*
G36*
X00113074Y0032552D02*
X00110726D01*
X00108457Y00324912D01*
X00106423Y00323738D01*
X00104762Y00322077D01*
X00103588Y00320043D01*
X0010298Y00317774D01*
Y00315426D01*
X00103588Y00313157D01*
X00104762Y00311123D01*
X00106423Y00309462D01*
X00108457Y00308288D01*
X00110726Y0030768D01*
X00113074D01*
X00115343Y00308288D01*
X00117377Y00309462D01*
X00119038Y00311123D01*
X00120212Y00313157D01*
X0012082Y00315426D01*
Y00317774D01*
X00120212Y00320043D01*
X00119038Y00322077D01*
X00117377Y00323738D01*
X00115343Y00324912D01*
X00113074Y0032552D01*
D02*
G37*
G36*
X00087674D02*
X00085326D01*
X00083057Y00324912D01*
X00081023Y00323738D01*
X00079362Y00322077D01*
X00078188Y00320043D01*
X0007758Y00317774D01*
Y00315426D01*
X00078188Y00313157D01*
X00079362Y00311123D01*
X00081023Y00309462D01*
X00083057Y00308288D01*
X00085326Y0030768D01*
X00087674D01*
X00089943Y00308288D01*
X00091977Y00309462D01*
X00093638Y00311123D01*
X00094812Y00313157D01*
X0009542Y00315426D01*
Y00317774D01*
X00094812Y00320043D01*
X00093638Y00322077D01*
X00091977Y00323738D01*
X00089943Y00324912D01*
X00087674Y0032552D01*
D02*
G37*
G36*
X00062274D02*
X00059926D01*
X00057657Y00324912D01*
X00055623Y00323738D01*
X00053962Y00322077D01*
X00052788Y00320043D01*
X0005218Y00317774D01*
Y00315426D01*
X00052788Y00313157D01*
X00053962Y00311123D01*
X00055623Y00309462D01*
X00057657Y00308288D01*
X00059926Y0030768D01*
X00062274D01*
X00064543Y00308288D01*
X00066577Y00309462D01*
X00068238Y00311123D01*
X00069412Y00313157D01*
X0007002Y00315426D01*
Y00317774D01*
X00069412Y00320043D01*
X00068238Y00322077D01*
X00066577Y00323738D01*
X00064543Y00324912D01*
X00062274Y0032552D01*
D02*
G37*
G36*
X00036874D02*
X00034526D01*
X00032257Y00324912D01*
X00030223Y00323738D01*
X00028562Y00322077D01*
X00027388Y00320043D01*
X0002678Y00317774D01*
Y00315426D01*
X00027388Y00313157D01*
X00028562Y00311123D01*
X00030223Y00309462D01*
X00032257Y00308288D01*
X00034526Y0030768D01*
X00036874D01*
X00039143Y00308288D01*
X00041177Y00309462D01*
X00042838Y00311123D01*
X00044012Y00313157D01*
X0004462Y00315426D01*
Y00317774D01*
X00044012Y00320043D01*
X00042838Y00322077D01*
X00041177Y00323738D01*
X00039143Y00324912D01*
X00036874Y0032552D01*
D02*
G37*
G36*
X00656179Y00307271D02*
X00654687D01*
X00653309Y003067D01*
X00652254Y00305645D01*
X00651683Y00304267D01*
Y00302775D01*
X00652254Y00301397D01*
X00653309Y00300342D01*
X00654687Y00299771D01*
X00656179D01*
X00657557Y00300342D01*
X00658612Y00301397D01*
X00659183Y00302775D01*
Y00304267D01*
X00658612Y00305645D01*
X00657557Y003067D01*
X00656179Y00307271D01*
D02*
G37*
G36*
X00634737Y00306613D02*
X00633245D01*
X00631867Y00306042D01*
X00630812Y00304988D01*
X00630241Y00303609D01*
Y00302117D01*
X00630812Y00300739D01*
X00631867Y00299684D01*
X00633245Y00299113D01*
X00634737D01*
X00636115Y00299684D01*
X0063717Y00300739D01*
X00637741Y00302117D01*
Y00303609D01*
X0063717Y00304988D01*
X00636115Y00306042D01*
X00634737Y00306613D01*
D02*
G37*
G36*
X00113074Y0030012D02*
X00110726D01*
X00108457Y00299512D01*
X00106423Y00298338D01*
X00104762Y00296677D01*
X00103588Y00294643D01*
X0010298Y00292374D01*
Y00290026D01*
X00103588Y00287757D01*
X00104762Y00285723D01*
X00106423Y00284062D01*
X00108457Y00282888D01*
X00110726Y0028228D01*
X00113074D01*
X00115343Y00282888D01*
X00117377Y00284062D01*
X00119038Y00285723D01*
X00120212Y00287757D01*
X0012082Y00290026D01*
Y00292374D01*
X00120212Y00294643D01*
X00119038Y00296677D01*
X00117377Y00298338D01*
X00115343Y00299512D01*
X00113074Y0030012D01*
D02*
G37*
G36*
X00087674D02*
X00085326D01*
X00083057Y00299512D01*
X00081023Y00298338D01*
X00079362Y00296677D01*
X00078188Y00294643D01*
X0007758Y00292374D01*
Y00290026D01*
X00078188Y00287757D01*
X00079362Y00285723D01*
X00081023Y00284062D01*
X00083057Y00282888D01*
X00085326Y0028228D01*
X00087674D01*
X00089943Y00282888D01*
X00091977Y00284062D01*
X00093638Y00285723D01*
X00094812Y00287757D01*
X0009542Y00290026D01*
Y00292374D01*
X00094812Y00294643D01*
X00093638Y00296677D01*
X00091977Y00298338D01*
X00089943Y00299512D01*
X00087674Y0030012D01*
D02*
G37*
G36*
X00062274D02*
X00059926D01*
X00057657Y00299512D01*
X00055623Y00298338D01*
X00053962Y00296677D01*
X00052788Y00294643D01*
X0005218Y00292374D01*
Y00290026D01*
X00052788Y00287757D01*
X00053962Y00285723D01*
X00055623Y00284062D01*
X00057657Y00282888D01*
X00059926Y0028228D01*
X00062274D01*
X00064543Y00282888D01*
X00066577Y00284062D01*
X00068238Y00285723D01*
X00069412Y00287757D01*
X0007002Y00290026D01*
Y00292374D01*
X00069412Y00294643D01*
X00068238Y00296677D01*
X00066577Y00298338D01*
X00064543Y00299512D01*
X00062274Y0030012D01*
D02*
G37*
G36*
X00036874D02*
X00034526D01*
X00032257Y00299512D01*
X00030223Y00298338D01*
X00028562Y00296677D01*
X00027388Y00294643D01*
X0002678Y00292374D01*
Y00290026D01*
X00027388Y00287757D01*
X00028562Y00285723D01*
X00030223Y00284062D01*
X00032257Y00282888D01*
X00034526Y0028228D01*
X00036874D01*
X00039143Y00282888D01*
X00041177Y00284062D01*
X00042838Y00285723D01*
X00044012Y00287757D01*
X0004462Y00290026D01*
Y00292374D01*
X00044012Y00294643D01*
X00042838Y00296677D01*
X00041177Y00298338D01*
X00039143Y00299512D01*
X00036874Y0030012D01*
D02*
G37*
G36*
X00342468Y00294674D02*
X00341167D01*
X00339965Y00294176D01*
X00339045Y00293256D01*
X00338547Y00292055D01*
Y00291578D01*
X00327818Y00280848D01*
X00222257D01*
X00222257Y00280848D01*
X00221325Y00280663D01*
X00220535Y00280135D01*
X00220535Y00280135D01*
X00119782Y00179382D01*
X00105449D01*
X00105448Y00179382D01*
X00104517Y00179196D01*
X00103727Y00178668D01*
X00103727Y00178668D01*
X0009732Y00172262D01*
X00096792Y00171472D01*
X00096607Y0017054D01*
X00096607Y0017054D01*
Y00165852D01*
X00095337Y00165685D01*
X00094812Y00167643D01*
X00093638Y00169677D01*
X00091977Y00171338D01*
X00089943Y00172512D01*
X00087674Y0017312D01*
X00085326D01*
X00083057Y00172512D01*
X00081023Y00171338D01*
X00079362Y00169677D01*
X00078188Y00167643D01*
X0007758Y00165374D01*
Y00163026D01*
X00078188Y00160757D01*
X00079362Y00158723D01*
X00081023Y00157062D01*
X00083057Y00155888D01*
X00085326Y0015528D01*
X00087674D01*
X00089943Y00155888D01*
X00091977Y00157062D01*
X00093638Y00158723D01*
X00094812Y00160757D01*
X00095337Y00162715D01*
X00096607Y00162548D01*
Y00151518D01*
X00096607Y00151517D01*
X00096792Y00150586D01*
X0009732Y00149796D01*
X00101644Y00145471D01*
X00101692Y00145343D01*
X00102476Y001445D01*
X00102732Y0014418D01*
X00102926Y00143903D01*
X0010298Y00143811D01*
Y00143171D01*
X00102938Y00143054D01*
X0010298Y00142964D01*
Y00142922D01*
X00102964Y0014284D01*
X0010298Y00142817D01*
Y0012988D01*
X0012082D01*
Y0014772D01*
X00107526D01*
X00107466Y00147754D01*
X00107352Y00147722D01*
X00107241Y00147762D01*
X0010715Y0014772D01*
X00106583D01*
X00106551Y00147739D01*
X00106285Y00147926D01*
X00105531Y00148567D01*
X00105095Y00148989D01*
X00105046Y00149009D01*
X00105022Y00149055D01*
X00104914Y00149089D01*
X00101477Y00152526D01*
Y00169531D01*
X00106457Y00174512D01*
X00116036D01*
X00116559Y00173242D01*
X00116344Y00173029D01*
X00116021Y00172992D01*
X00115151Y00172967D01*
X00114221Y00173011D01*
X00113188Y00173132D01*
X00113112Y0017311D01*
X00113074Y0017312D01*
X00110726D01*
X00108457Y00172512D01*
X00106423Y00171338D01*
X00104762Y00169677D01*
X00103588Y00167643D01*
X0010298Y00165374D01*
Y00163026D01*
X00103588Y00160757D01*
X00104762Y00158723D01*
X00106423Y00157062D01*
X00108457Y00155888D01*
X00110726Y0015528D01*
X00113074D01*
X00115343Y00155888D01*
X00117377Y00157062D01*
X00119038Y00158723D01*
X00120212Y00160757D01*
X00120796Y00162937D01*
X00120847Y00163022D01*
X00121022Y00164205D01*
X00121475Y00166343D01*
X00121741Y00167263D01*
X00122041Y00168118D01*
X0012237Y00168892D01*
X00122725Y00169587D01*
X00123103Y00170202D01*
X00123502Y0017074D01*
X0012397Y00171258D01*
X00124014Y00171381D01*
X00224831Y00272198D01*
X00332499D01*
X00332499Y00272198D01*
X00333431Y00272383D01*
X00334221Y00272911D01*
X00345718Y00284408D01*
X00346194D01*
X00347396Y00284906D01*
X00348316Y00285826D01*
X00348814Y00287027D01*
Y00288328D01*
X00348316Y0028953D01*
X00347396Y0029045D01*
X00346194Y00290948D01*
X00345087D01*
Y00292055D01*
X0034459Y00293256D01*
X0034367Y00294176D01*
X00342468Y00294674D01*
D02*
G37*
G36*
X00113074Y0027472D02*
X00110726D01*
X00108457Y00274112D01*
X00106423Y00272938D01*
X00104762Y00271277D01*
X00103588Y00269243D01*
X0010298Y00266974D01*
Y00264626D01*
X00103588Y00262357D01*
X00104762Y00260323D01*
X00106423Y00258662D01*
X00108457Y00257488D01*
X00110726Y0025688D01*
X00113074D01*
X00115343Y00257488D01*
X00117377Y00258662D01*
X00119038Y00260323D01*
X00120212Y00262357D01*
X0012082Y00264626D01*
Y00266974D01*
X00120212Y00269243D01*
X00119038Y00271277D01*
X00117377Y00272938D01*
X00115343Y00274112D01*
X00113074Y0027472D01*
D02*
G37*
G36*
X00087674D02*
X00085326D01*
X00083057Y00274112D01*
X00081023Y00272938D01*
X00079362Y00271277D01*
X00078188Y00269243D01*
X0007758Y00266974D01*
Y00264626D01*
X00078188Y00262357D01*
X00079362Y00260323D01*
X00081023Y00258662D01*
X00083057Y00257488D01*
X00085326Y0025688D01*
X00087674D01*
X00089943Y00257488D01*
X00091977Y00258662D01*
X00093638Y00260323D01*
X00094812Y00262357D01*
X0009542Y00264626D01*
Y00266974D01*
X00094812Y00269243D01*
X00093638Y00271277D01*
X00091977Y00272938D01*
X00089943Y00274112D01*
X00087674Y0027472D01*
D02*
G37*
G36*
X00062274D02*
X00059926D01*
X00057657Y00274112D01*
X00055623Y00272938D01*
X00053962Y00271277D01*
X00052788Y00269243D01*
X0005218Y00266974D01*
Y00264626D01*
X00052788Y00262357D01*
X00053962Y00260323D01*
X00055623Y00258662D01*
X00057657Y00257488D01*
X00059926Y0025688D01*
X00062274D01*
X00064543Y00257488D01*
X00066577Y00258662D01*
X00068238Y00260323D01*
X00069412Y00262357D01*
X0007002Y00264626D01*
Y00266974D01*
X00069412Y00269243D01*
X00068238Y00271277D01*
X00066577Y00272938D01*
X00064543Y00274112D01*
X00062274Y0027472D01*
D02*
G37*
G36*
X00036874D02*
X00034526D01*
X00032257Y00274112D01*
X00030223Y00272938D01*
X00028562Y00271277D01*
X00027388Y00269243D01*
X0002678Y00266974D01*
Y00264626D01*
X00027388Y00262357D01*
X00028562Y00260323D01*
X00030223Y00258662D01*
X00032257Y00257488D01*
X00034526Y0025688D01*
X00036874D01*
X00039143Y00257488D01*
X00041177Y00258662D01*
X00042838Y00260323D01*
X00044012Y00262357D01*
X0004462Y00264626D01*
Y00266974D01*
X00044012Y00269243D01*
X00042838Y00271277D01*
X00041177Y00272938D01*
X00039143Y00274112D01*
X00036874Y0027472D01*
D02*
G37*
G36*
X00761183Y00262568D02*
X00759691D01*
X00758313Y00261998D01*
X00757258Y00260943D01*
X00756687Y00259564D01*
Y00258073D01*
X00757258Y00256694D01*
X00758313Y00255639D01*
X00759691Y00255068D01*
X00761183D01*
X00762561Y00255639D01*
X00763616Y00256694D01*
X00764187Y00258073D01*
Y00259564D01*
X00763616Y00260943D01*
X00762561Y00261998D01*
X00761183Y00262568D01*
D02*
G37*
G36*
X00751609D02*
X00750117D01*
X00748738Y00261998D01*
X00747684Y00260943D01*
X00747113Y00259564D01*
Y00258073D01*
X00747684Y00256694D01*
X00748738Y00255639D01*
X00750117Y00255068D01*
X00751609D01*
X00752987Y00255639D01*
X00754042Y00256694D01*
X00754613Y00258073D01*
Y00259564D01*
X00754042Y00260943D01*
X00752987Y00261998D01*
X00751609Y00262568D01*
D02*
G37*
G36*
X00346186Y00258059D02*
X00344694D01*
X00343316Y00257488D01*
X00342261Y00256433D01*
X0034169Y00255055D01*
Y00253563D01*
X00342261Y00252185D01*
X00343316Y0025113D01*
X00344694Y00250559D01*
X00346186D01*
X00347564Y0025113D01*
X00348619Y00252185D01*
X0034919Y00253563D01*
Y00255055D01*
X00348619Y00256433D01*
X00347564Y00257488D01*
X00346186Y00258059D01*
D02*
G37*
G36*
X00324596D02*
X00323104D01*
X00321726Y00257488D01*
X00320671Y00256433D01*
X003201Y00255055D01*
Y00253563D01*
X00320671Y00252185D01*
X00321726Y0025113D01*
X00323104Y00250559D01*
X00324596D01*
X00325974Y0025113D01*
X00327029Y00252185D01*
X003276Y00253563D01*
Y00255055D01*
X00327029Y00256433D01*
X00325974Y00257488D01*
X00324596Y00258059D01*
D02*
G37*
G36*
X00756396Y00253998D02*
X00754904D01*
X00753526Y00253427D01*
X00752471Y00252372D01*
X007519Y00250994D01*
Y00249502D01*
X00752471Y00248124D01*
X00753526Y00247069D01*
X00754904Y00246498D01*
X00756396D01*
X00757774Y00247069D01*
X00758829Y00248124D01*
X007594Y00249502D01*
Y00250994D01*
X00758829Y00252372D01*
X00757774Y00253427D01*
X00756396Y00253998D01*
D02*
G37*
G36*
X00346186Y00248135D02*
X00344694D01*
X00343316Y00247565D01*
X00342261Y0024651D01*
X0034169Y00245131D01*
Y00243639D01*
X00342261Y00242261D01*
X00343316Y00241206D01*
X00344694Y00240635D01*
X00346186D01*
X00347564Y00241206D01*
X00348619Y00242261D01*
X0034919Y00243639D01*
Y00245131D01*
X00348619Y0024651D01*
X00347564Y00247565D01*
X00346186Y00248135D01*
D02*
G37*
G36*
X00324596D02*
X00323104D01*
X00321726Y00247565D01*
X00320671Y0024651D01*
X003201Y00245131D01*
Y00243639D01*
X00320671Y00242261D01*
X00321726Y00241206D01*
X00323104Y00240635D01*
X00324596D01*
X00325974Y00241206D01*
X00327029Y00242261D01*
X003276Y00243639D01*
Y00245131D01*
X00327029Y0024651D01*
X00325974Y00247565D01*
X00324596Y00248135D01*
D02*
G37*
G36*
X00751609Y00245427D02*
X00750117D01*
X00748738Y00244857D01*
X00747684Y00243802D01*
X00747113Y00242423D01*
Y00240931D01*
X00747684Y00239553D01*
X00748738Y00238498D01*
X00750117Y00237927D01*
X00751609D01*
X00752987Y00238498D01*
X00754042Y00239553D01*
X00754613Y00240931D01*
Y00242423D01*
X00754042Y00243802D01*
X00752987Y00244857D01*
X00751609Y00245427D01*
D02*
G37*
G36*
X00335404Y0024269D02*
X00333913D01*
X00332534Y00242119D01*
X00331479Y00241064D01*
X00330908Y00239686D01*
Y00238194D01*
X00331479Y00236816D01*
X00332534Y00235761D01*
X00333913Y0023519D01*
X00335404D01*
X00336783Y00235761D01*
X00337837Y00236816D01*
X00338408Y00238194D01*
Y00239686D01*
X00337837Y00241064D01*
X00336783Y00242119D01*
X00335404Y0024269D01*
D02*
G37*
G36*
X00113074Y0024932D02*
X00110726D01*
X00108457Y00248712D01*
X00106423Y00247538D01*
X00104762Y00245877D01*
X00103588Y00243843D01*
X0010298Y00241574D01*
Y00239226D01*
X00103588Y00236957D01*
X00104762Y00234923D01*
X00106423Y00233262D01*
X00108457Y00232088D01*
X00110726Y0023148D01*
X00113074D01*
X00115343Y00232088D01*
X00117377Y00233262D01*
X00119038Y00234923D01*
X00120212Y00236957D01*
X0012082Y00239226D01*
Y00241574D01*
X00120212Y00243843D01*
X00119038Y00245877D01*
X00117377Y00247538D01*
X00115343Y00248712D01*
X00113074Y0024932D01*
D02*
G37*
G36*
X00087674D02*
X00085326D01*
X00083057Y00248712D01*
X00081023Y00247538D01*
X00079362Y00245877D01*
X00078188Y00243843D01*
X0007758Y00241574D01*
Y00239226D01*
X00078188Y00236957D01*
X00079362Y00234923D01*
X00081023Y00233262D01*
X00083057Y00232088D01*
X00085326Y0023148D01*
X00087674D01*
X00089943Y00232088D01*
X00091977Y00233262D01*
X00093638Y00234923D01*
X00094812Y00236957D01*
X0009542Y00239226D01*
Y00241574D01*
X00094812Y00243843D01*
X00093638Y00245877D01*
X00091977Y00247538D01*
X00089943Y00248712D01*
X00087674Y0024932D01*
D02*
G37*
G36*
X00062274D02*
X00059926D01*
X00057657Y00248712D01*
X00055623Y00247538D01*
X00053962Y00245877D01*
X00052788Y00243843D01*
X0005218Y00241574D01*
Y00239226D01*
X00052788Y00236957D01*
X00053962Y00234923D01*
X00055623Y00233262D01*
X00057657Y00232088D01*
X00059926Y0023148D01*
X00062274D01*
X00064543Y00232088D01*
X00066577Y00233262D01*
X00068238Y00234923D01*
X00069412Y00236957D01*
X0007002Y00239226D01*
Y00241574D01*
X00069412Y00243843D01*
X00068238Y00245877D01*
X00066577Y00247538D01*
X00064543Y00248712D01*
X00062274Y0024932D01*
D02*
G37*
G36*
X00036874D02*
X00034526D01*
X00032257Y00248712D01*
X00030223Y00247538D01*
X00028562Y00245877D01*
X00027388Y00243843D01*
X0002678Y00241574D01*
Y00239226D01*
X00027388Y00236957D01*
X00028562Y00234923D01*
X00030223Y00233262D01*
X00032257Y00232088D01*
X00034526Y0023148D01*
X00036874D01*
X00039143Y00232088D01*
X00041177Y00233262D01*
X00042838Y00234923D01*
X00044012Y00236957D01*
X0004462Y00239226D01*
Y00241574D01*
X00044012Y00243843D01*
X00042838Y00245877D01*
X00041177Y00247538D01*
X00039143Y00248712D01*
X00036874Y0024932D01*
D02*
G37*
G36*
X00346186Y00238211D02*
X00344694D01*
X00343316Y00237641D01*
X00342261Y00236586D01*
X0034169Y00235207D01*
Y00233716D01*
X00342261Y00232337D01*
X00343316Y00231282D01*
X00344694Y00230711D01*
X00346186D01*
X00347564Y00231282D01*
X00348619Y00232337D01*
X0034919Y00233716D01*
Y00235207D01*
X00348619Y00236586D01*
X00347564Y00237641D01*
X00346186Y00238211D01*
D02*
G37*
G36*
X00324596D02*
X00323104D01*
X00321726Y00237641D01*
X00320671Y00236586D01*
X003201Y00235207D01*
Y00233716D01*
X00320671Y00232337D01*
X00321726Y00231282D01*
X00323104Y00230711D01*
X00324596D01*
X00325974Y00231282D01*
X00327029Y00232337D01*
X003276Y00233716D01*
Y00235207D01*
X00327029Y00236586D01*
X00325974Y00237641D01*
X00324596Y00238211D01*
D02*
G37*
G36*
X00827395Y0064974D02*
X00826095D01*
X00824893Y00649242D01*
X00823973Y00648322D01*
X00823475Y0064712D01*
Y00647028D01*
X00822832Y00646299D01*
X00822647Y00646112D01*
X00822593Y00645981D01*
X00800918Y00624305D01*
X00800357Y00623465D01*
X00800159Y00622474D01*
Y0046664D01*
X00777691Y00444172D01*
X00751183D01*
X00750192Y00443974D01*
X00749352Y00443413D01*
X00694315Y00388376D01*
X00693754Y00387536D01*
X00693557Y00386545D01*
Y00262158D01*
X00687658Y00256259D01*
X00378581D01*
X0037759Y00256062D01*
X0037675Y00255501D01*
X00346833Y00225584D01*
X00279124D01*
X00279Y00225638D01*
X00278001Y00225658D01*
X0027777Y00225676D01*
X00277679Y00225766D01*
X00276478Y00226264D01*
X00275177D01*
X00273975Y00225766D01*
X00273055Y00224846D01*
X00272557Y00223645D01*
Y00222344D01*
X00273055Y00221142D01*
X00273975Y00220222D01*
X00275177Y00219724D01*
X00276478D01*
X00277679Y00220222D01*
X00277745Y00220287D01*
X00278715Y00220348D01*
X00278978Y00220349D01*
X00279109Y00220404D01*
X00347906D01*
X00348897Y00220601D01*
X00349737Y00221163D01*
X00379654Y0025108D01*
X00688731D01*
X00689722Y00251277D01*
X00690562Y00251838D01*
X00697978Y00259254D01*
X00698539Y00260094D01*
X00698736Y00261085D01*
Y00385472D01*
X00752256Y00438992D01*
X00778764D01*
X00779755Y00439189D01*
X00780595Y00439751D01*
X0080458Y00463736D01*
X00805142Y00464576D01*
X00805339Y00465567D01*
Y00621401D01*
X00826245Y00642307D01*
X00826372Y00642357D01*
X00827092Y00643049D01*
X00827268Y006432D01*
X00827395D01*
X00828597Y00643698D01*
X00829517Y00644617D01*
X00830015Y00645819D01*
Y0064712D01*
X00829517Y00648322D01*
X00828597Y00649242D01*
X00827395Y0064974D01*
D02*
G37*
G36*
X00503958Y00229849D02*
X00502487Y00229556D01*
X0050124Y00228723D01*
X0048763Y00215113D01*
X00401195D01*
X00399724Y00214821D01*
X00398477Y00213987D01*
X00398477Y00213987D01*
X00388634Y00204145D01*
X00365356D01*
X00363885Y00203852D01*
X00362638Y00203019D01*
X00361805Y00201772D01*
X00361512Y00200301D01*
X00361805Y0019883D01*
X00362638Y00197583D01*
X00363885Y0019675D01*
X00365356Y00196457D01*
X00390226D01*
X00390227Y00196457D01*
X00391698Y0019675D01*
X00392945Y00197583D01*
X00402787Y00207425D01*
X00489222D01*
X00489222Y00207425D01*
X00490693Y00207718D01*
X0049194Y00208551D01*
X00506676Y00223287D01*
X00507509Y00224534D01*
X00507802Y00226005D01*
X00507509Y00227476D01*
X00506676Y00228723D01*
X00505429Y00229556D01*
X00503958Y00229849D01*
D02*
G37*
G36*
X00113074Y0022392D02*
X00110726D01*
X00108457Y00223312D01*
X00106423Y00222138D01*
X00104762Y00220477D01*
X00103588Y00218443D01*
X0010298Y00216174D01*
Y00213826D01*
X00103588Y00211557D01*
X00104762Y00209523D01*
X00106423Y00207862D01*
X00108457Y00206688D01*
X00110726Y0020608D01*
X00113074D01*
X00115343Y00206688D01*
X00117377Y00207862D01*
X00119038Y00209523D01*
X00120212Y00211557D01*
X0012082Y00213826D01*
Y00216174D01*
X00120212Y00218443D01*
X00119038Y00220477D01*
X00117377Y00222138D01*
X00115343Y00223312D01*
X00113074Y0022392D01*
D02*
G37*
G36*
X00087674D02*
X00085326D01*
X00083057Y00223312D01*
X00081023Y00222138D01*
X00079362Y00220477D01*
X00078188Y00218443D01*
X0007758Y00216174D01*
Y00213826D01*
X00078188Y00211557D01*
X00079362Y00209523D01*
X00081023Y00207862D01*
X00083057Y00206688D01*
X00085326Y0020608D01*
X00087674D01*
X00089943Y00206688D01*
X00091977Y00207862D01*
X00093638Y00209523D01*
X00094812Y00211557D01*
X0009542Y00213826D01*
Y00216174D01*
X00094812Y00218443D01*
X00093638Y00220477D01*
X00091977Y00222138D01*
X00089943Y00223312D01*
X00087674Y0022392D01*
D02*
G37*
G36*
X00062274D02*
X00059926D01*
X00057657Y00223312D01*
X00055623Y00222138D01*
X00053962Y00220477D01*
X00052788Y00218443D01*
X0005218Y00216174D01*
Y00213826D01*
X00052788Y00211557D01*
X00053962Y00209523D01*
X00055623Y00207862D01*
X00057657Y00206688D01*
X00059926Y0020608D01*
X00062274D01*
X00064543Y00206688D01*
X00066577Y00207862D01*
X00068238Y00209523D01*
X00069412Y00211557D01*
X0007002Y00213826D01*
Y00216174D01*
X00069412Y00218443D01*
X00068238Y00220477D01*
X00066577Y00222138D01*
X00064543Y00223312D01*
X00062274Y0022392D01*
D02*
G37*
G36*
X00036874D02*
X00034526D01*
X00032257Y00223312D01*
X00030223Y00222138D01*
X00028562Y00220477D01*
X00027388Y00218443D01*
X0002678Y00216174D01*
Y00213826D01*
X00027388Y00211557D01*
X00028562Y00209523D01*
X00030223Y00207862D01*
X00032257Y00206688D01*
X00034526Y0020608D01*
X00036874D01*
X00039143Y00206688D01*
X00041177Y00207862D01*
X00042838Y00209523D01*
X00044012Y00211557D01*
X0004462Y00213826D01*
Y00216174D01*
X00044012Y00218443D01*
X00042838Y00220477D01*
X00041177Y00222138D01*
X00039143Y00223312D01*
X00036874Y0022392D01*
D02*
G37*
G36*
X00666863Y00207656D02*
X00665563D01*
X00664361Y00207159D01*
X00663441Y00206239D01*
X00662967Y00205096D01*
X00662294Y00204336D01*
X00662108Y00204149D01*
X00662054Y00204017D01*
X0066034Y00202303D01*
X00659264Y00203023D01*
X00659559Y00203736D01*
Y00205037D01*
X00659061Y00206239D01*
X00658141Y00207159D01*
X00656939Y00207656D01*
X00655639D01*
X00654437Y00207159D01*
X00653517Y00206239D01*
X00653019Y00205037D01*
Y00203736D01*
X00653517Y00202534D01*
X00654255Y00201796D01*
X00654082Y00200938D01*
X00653866Y00200526D01*
X00648788D01*
X00648572Y00200938D01*
X00648399Y00201796D01*
X00649137Y00202534D01*
X00649635Y00203736D01*
Y00205037D01*
X00649137Y00206239D01*
X00648217Y00207159D01*
X00647016Y00207656D01*
X00645715D01*
X00644513Y00207159D01*
X00643593Y00206239D01*
X00643095Y00205037D01*
Y00203736D01*
X00643593Y00202534D01*
X00644332Y00201796D01*
X00644158Y00200938D01*
X00643942Y00200526D01*
X00638864D01*
X00638648Y00200938D01*
X00638475Y00201796D01*
X00639213Y00202534D01*
X00639711Y00203736D01*
Y00205037D01*
X00639213Y00206239D01*
X00638294Y00207159D01*
X00637092Y00207656D01*
X00635791D01*
X00634589Y00207159D01*
X00633669Y00206239D01*
X00633171Y00205037D01*
Y00203736D01*
X00633669Y00202534D01*
X00634408Y00201796D01*
X00634234Y00200938D01*
X00634018Y00200526D01*
X0062894D01*
X00628724Y00200938D01*
X00628551Y00201796D01*
X0062929Y00202534D01*
X00629787Y00203736D01*
Y00205037D01*
X0062929Y00206239D01*
X0062837Y00207159D01*
X00627168Y00207656D01*
X00625867D01*
X00624665Y00207159D01*
X00623745Y00206239D01*
X00623247Y00205037D01*
Y00203736D01*
X00623745Y00202534D01*
X00624484Y00201796D01*
X0062431Y00200938D01*
X00624094Y00200526D01*
X00619017D01*
X00618801Y00200938D01*
X00618627Y00201796D01*
X00619366Y00202534D01*
X00619864Y00203736D01*
Y00205037D01*
X00619366Y00206239D01*
X00618446Y00207159D01*
X00617244Y00207656D01*
X00615943D01*
X00614741Y00207159D01*
X00613821Y00206239D01*
X00613324Y00205037D01*
Y00203736D01*
X00613821Y00202534D01*
X0061456Y00201796D01*
X00614387Y00200938D01*
X0061417Y00200526D01*
X00609093D01*
X00608877Y00200938D01*
X00608703Y00201796D01*
X00609442Y00202534D01*
X0060994Y00203736D01*
Y00205037D01*
X00609442Y00206239D01*
X00608522Y00207159D01*
X0060732Y00207656D01*
X00606019D01*
X00604817Y00207159D01*
X00603898Y00206239D01*
X006034Y00205037D01*
Y00203736D01*
X00603898Y00202534D01*
X00604636Y00201796D01*
X00604463Y00200938D01*
X00604247Y00200526D01*
X00599169D01*
X00598953Y00200938D01*
X00598779Y00201796D01*
X00599518Y00202534D01*
X00600016Y00203736D01*
Y00205037D01*
X00599518Y00206239D01*
X00598598Y00207159D01*
X00597396Y00207656D01*
X00596095D01*
X00594893Y00207159D01*
X00593974Y00206239D01*
X00593476Y00205037D01*
Y00203736D01*
X00593974Y00202534D01*
X00594712Y00201796D01*
X00594539Y00200938D01*
X00594323Y00200526D01*
X00424683D01*
X00424559Y0020058D01*
X00423559Y002006D01*
X00423329Y00200618D01*
X00423238Y00200708D01*
X00422036Y00201206D01*
X00420736D01*
X00419534Y00200708D01*
X00418614Y00199788D01*
X00418116Y00198586D01*
Y00197286D01*
X00418614Y00196084D01*
X00419534Y00195164D01*
X00420736Y00194666D01*
X00422036D01*
X00423238Y00195164D01*
X00423304Y00195229D01*
X00424274Y0019529D01*
X00424537Y00195291D01*
X00424668Y00195346D01*
X00659635D01*
X00660626Y00195543D01*
X00661467Y00196105D01*
X00665574Y00200212D01*
X00665688Y00200252D01*
X00665705Y00200287D01*
X00665741Y00200302D01*
X00665943Y00200502D01*
X00666437Y00200966D01*
X00666618Y00201117D01*
X00666863D01*
X00668065Y00201614D01*
X00668985Y00202534D01*
X00669483Y00203736D01*
Y00205037D01*
X00668985Y00206239D01*
X00668065Y00207159D01*
X00666863Y00207656D01*
D02*
G37*
G36*
X00686711D02*
X0068541D01*
X00684208Y00207159D01*
X00683288Y00206239D01*
X00682791Y00205037D01*
Y00203736D01*
X00683288Y00202534D01*
X00684208Y00201614D01*
X0068541Y00201117D01*
X00686711D01*
X00687913Y00201614D01*
X00688833Y00202534D01*
X00689331Y00203736D01*
Y00205037D01*
X00688833Y00206239D01*
X00687913Y00207159D01*
X00686711Y00207656D01*
D02*
G37*
G36*
X00676787D02*
X00675486D01*
X00674285Y00207159D01*
X00673365Y00206239D01*
X00672867Y00205037D01*
Y00203736D01*
X00673365Y00202534D01*
X00674285Y00201614D01*
X00675486Y00201117D01*
X00676787D01*
X00677989Y00201614D01*
X00678909Y00202534D01*
X00679407Y00203736D01*
Y00205037D01*
X00678909Y00206239D01*
X00677989Y00207159D01*
X00676787Y00207656D01*
D02*
G37*
G36*
X0082986Y00634386D02*
X00828559D01*
X00827357Y00633888D01*
X00826437Y00632968D01*
X00825939Y00631766D01*
Y00631674D01*
X00825296Y00630945D01*
X00825111Y00630758D01*
X00825057Y00630627D01*
X00809984Y00615553D01*
X00809422Y00614713D01*
X00809225Y00613722D01*
Y00465545D01*
X007808Y0043712D01*
X00754292D01*
X00753301Y00436923D01*
X0075246Y00436362D01*
X00703019Y0038692D01*
X00702457Y0038608D01*
X0070226Y00385089D01*
Y00256729D01*
X00693157Y00247626D01*
X00383636D01*
X00382645Y00247429D01*
X00381805Y00246867D01*
X00351435Y00216498D01*
X00278678D01*
X00277687Y00216301D01*
X00276847Y00215739D01*
X00247856Y00186749D01*
X00176144D01*
X0017602Y00186803D01*
X0017502Y00186823D01*
X0017479Y00186841D01*
X00174699Y00186931D01*
X00173497Y00187429D01*
X00172197D01*
X00170995Y00186931D01*
X00170075Y00186011D01*
X00169577Y00184809D01*
Y00183508D01*
X00170075Y00182307D01*
X00170995Y00181387D01*
X00172197Y00180889D01*
X00173497D01*
X00174699Y00181387D01*
X00174765Y00181452D01*
X00175735Y00181513D01*
X00175998Y00181514D01*
X00176129Y00181569D01*
X00248929D01*
X0024992Y00181766D01*
X0025076Y00182328D01*
X00279751Y00211318D01*
X00352508D01*
X00353499Y00211515D01*
X00354339Y00212077D01*
X00384709Y00242446D01*
X0069423D01*
X00695221Y00242643D01*
X00696061Y00243205D01*
X00706681Y00253825D01*
X00707243Y00254665D01*
X0070744Y00255656D01*
Y00384016D01*
X00755364Y0043194D01*
X00781872D01*
X00782864Y00432138D01*
X00783704Y00432699D01*
X00813646Y00462641D01*
X00814207Y00463481D01*
X00814405Y00464473D01*
Y00612649D01*
X00828709Y00626953D01*
X00828836Y00627003D01*
X00829557Y00627695D01*
X00829732Y00627846D01*
X0082986D01*
X00831061Y00628344D01*
X00831981Y00629264D01*
X00832479Y00630466D01*
Y00631766D01*
X00831981Y00632968D01*
X00831061Y00633888D01*
X0082986Y00634386D01*
D02*
G37*
G36*
X00761183Y00193888D02*
X00759691D01*
X00758313Y00193318D01*
X00757258Y00192263D01*
X00756687Y00190884D01*
Y00189393D01*
X00757258Y00188014D01*
X00758313Y00186959D01*
X00759691Y00186388D01*
X00761183D01*
X00762561Y00186959D01*
X00763616Y00188014D01*
X00764187Y00189393D01*
Y00190884D01*
X00763616Y00192263D01*
X00762561Y00193318D01*
X00761183Y00193888D01*
D02*
G37*
G36*
X00751609D02*
X00750117D01*
X00748738Y00193318D01*
X00747684Y00192263D01*
X00747113Y00190884D01*
Y00189393D01*
X00747684Y00188014D01*
X00748738Y00186959D01*
X00750117Y00186388D01*
X00751609D01*
X00752987Y00186959D01*
X00754042Y00188014D01*
X00754613Y00189393D01*
Y00190884D01*
X00754042Y00192263D01*
X00752987Y00193318D01*
X00751609Y00193888D01*
D02*
G37*
G36*
X00113074Y0019852D02*
X00110726D01*
X00108457Y00197912D01*
X00106423Y00196738D01*
X00104762Y00195077D01*
X00103588Y00193043D01*
X0010298Y00190774D01*
Y00188426D01*
X00103588Y00186157D01*
X00104762Y00184123D01*
X00106423Y00182462D01*
X00108457Y00181288D01*
X00110726Y0018068D01*
X00113074D01*
X00115343Y00181288D01*
X00117377Y00182462D01*
X00119038Y00184123D01*
X00120212Y00186157D01*
X0012082Y00188426D01*
Y00190774D01*
X00120212Y00193043D01*
X00119038Y00195077D01*
X00117377Y00196738D01*
X00115343Y00197912D01*
X00113074Y0019852D01*
D02*
G37*
G36*
X00087674D02*
X00085326D01*
X00083057Y00197912D01*
X00081023Y00196738D01*
X00079362Y00195077D01*
X00078188Y00193043D01*
X0007758Y00190774D01*
Y00188426D01*
X00078188Y00186157D01*
X00079362Y00184123D01*
X00081023Y00182462D01*
X00083057Y00181288D01*
X00085326Y0018068D01*
X00087674D01*
X00089943Y00181288D01*
X00091977Y00182462D01*
X00093638Y00184123D01*
X00094812Y00186157D01*
X0009542Y00188426D01*
Y00190774D01*
X00094812Y00193043D01*
X00093638Y00195077D01*
X00091977Y00196738D01*
X00089943Y00197912D01*
X00087674Y0019852D01*
D02*
G37*
G36*
X00062274D02*
X00059926D01*
X00057657Y00197912D01*
X00055623Y00196738D01*
X00053962Y00195077D01*
X00052788Y00193043D01*
X0005218Y00190774D01*
Y00188426D01*
X00052788Y00186157D01*
X00053962Y00184123D01*
X00055623Y00182462D01*
X00057657Y00181288D01*
X00059926Y0018068D01*
X00062274D01*
X00064543Y00181288D01*
X00066577Y00182462D01*
X00068238Y00184123D01*
X00069412Y00186157D01*
X0007002Y00188426D01*
Y00190774D01*
X00069412Y00193043D01*
X00068238Y00195077D01*
X00066577Y00196738D01*
X00064543Y00197912D01*
X00062274Y0019852D01*
D02*
G37*
G36*
X00036874D02*
X00034526D01*
X00032257Y00197912D01*
X00030223Y00196738D01*
X00028562Y00195077D01*
X00027388Y00193043D01*
X0002678Y00190774D01*
Y00188426D01*
X00027388Y00186157D01*
X00028562Y00184123D01*
X00030223Y00182462D01*
X00032257Y00181288D01*
X00034526Y0018068D01*
X00036874D01*
X00039143Y00181288D01*
X00041177Y00182462D01*
X00042838Y00184123D01*
X00044012Y00186157D01*
X0004462Y00188426D01*
Y00190774D01*
X00044012Y00193043D01*
X00042838Y00195077D01*
X00041177Y00196738D01*
X00039143Y00197912D01*
X00036874Y0019852D01*
D02*
G37*
G36*
X00756396Y00185318D02*
X00754904D01*
X00753526Y00184747D01*
X00752471Y00183692D01*
X007519Y00182314D01*
Y00180822D01*
X00752471Y00179444D01*
X00753526Y00178389D01*
X00754904Y00177818D01*
X00756396D01*
X00757774Y00178389D01*
X00758829Y00179444D01*
X007594Y00180822D01*
Y00182314D01*
X00758829Y00183692D01*
X00757774Y00184747D01*
X00756396Y00185318D01*
D02*
G37*
G36*
X00761183Y00176747D02*
X00759691D01*
X00758313Y00176177D01*
X00757258Y00175122D01*
X00756687Y00173743D01*
Y00172252D01*
X00757258Y00170873D01*
X00758313Y00169818D01*
X00759691Y00169247D01*
X00761183D01*
X00762561Y00169818D01*
X00763616Y00170873D01*
X00764187Y00172252D01*
Y00173743D01*
X00763616Y00175122D01*
X00762561Y00176177D01*
X00761183Y00176747D01*
D02*
G37*
G36*
X00751609D02*
X00750117D01*
X00748738Y00176177D01*
X00747684Y00175122D01*
X00747113Y00173743D01*
Y00172252D01*
X00747684Y00170873D01*
X00748738Y00169818D01*
X00750117Y00169247D01*
X00751609D01*
X00752987Y00169818D01*
X00754042Y00170873D01*
X00754613Y00172252D01*
Y00173743D01*
X00754042Y00175122D01*
X00752987Y00176177D01*
X00751609Y00176747D01*
D02*
G37*
G36*
X00062274Y0017312D02*
X00059926D01*
X00057657Y00172512D01*
X00055623Y00171338D01*
X00053962Y00169677D01*
X00052788Y00167643D01*
X0005218Y00165374D01*
Y00163026D01*
X00052788Y00160757D01*
X00053962Y00158723D01*
X00055623Y00157062D01*
X00057657Y00155888D01*
X00059926Y0015528D01*
X00062274D01*
X00064543Y00155888D01*
X00066577Y00157062D01*
X00068238Y00158723D01*
X00069412Y00160757D01*
X0007002Y00163026D01*
Y00165374D01*
X00069412Y00167643D01*
X00068238Y00169677D01*
X00066577Y00171338D01*
X00064543Y00172512D01*
X00062274Y0017312D01*
D02*
G37*
G36*
X00036874D02*
X00034526D01*
X00032257Y00172512D01*
X00030223Y00171338D01*
X00028562Y00169677D01*
X00027388Y00167643D01*
X0002678Y00165374D01*
Y00163026D01*
X00027388Y00160757D01*
X00028562Y00158723D01*
X00030223Y00157062D01*
X00032257Y00155888D01*
X00034526Y0015528D01*
X00036874D01*
X00039143Y00155888D01*
X00041177Y00157062D01*
X00042838Y00158723D01*
X00044012Y00160757D01*
X0004462Y00163026D01*
Y00165374D01*
X00044012Y00167643D01*
X00042838Y00169677D01*
X00041177Y00171338D01*
X00039143Y00172512D01*
X00036874Y0017312D01*
D02*
G37*
G36*
X00761183Y00245427D02*
X00759691D01*
X00758313Y00244857D01*
X00757258Y00243802D01*
X00756687Y00242423D01*
Y00240931D01*
X00757258Y00239553D01*
X00758313Y00238498D01*
X00759691Y00237927D01*
X00759804D01*
X00760044Y00237716D01*
X0079483Y0020293D01*
Y00141013D01*
X00794731Y00140913D01*
X0079416Y00139534D01*
Y00138043D01*
X00794731Y00136664D01*
X00795786Y00135609D01*
X00797164Y00135038D01*
X00798656D01*
X00800034Y00135609D01*
X00801089Y00136664D01*
X0080166Y00138043D01*
Y00139534D01*
X00801089Y00140913D01*
X00801009Y00140993D01*
X00800989Y00141311D01*
Y00204205D01*
X00800754Y00205383D01*
X00800087Y00206382D01*
X00764187Y00242282D01*
Y00242423D01*
X00763616Y00243802D01*
X00762561Y00244857D01*
X00761183Y00245427D01*
D02*
G37*
G36*
X00776177Y00142538D02*
X00774685D01*
X00773307Y00141968D01*
X00772252Y00140913D01*
X00771681Y00139534D01*
Y00138043D01*
X00772252Y00136664D01*
X00773307Y00135609D01*
X00774685Y00135038D01*
X00776177D01*
X00777555Y00135609D01*
X0077861Y00136664D01*
X00779181Y00138043D01*
Y00139534D01*
X0077861Y00140913D01*
X00777555Y00141968D01*
X00776177Y00142538D01*
D02*
G37*
G36*
X00739342Y00155479D02*
X00446261D01*
X00445083Y00155245D01*
X00444084Y00154577D01*
X00385613Y00096107D01*
X00159142D01*
X00145138Y00110111D01*
Y00110252D01*
X00144567Y00111631D01*
X00143512Y00112686D01*
X00142134Y00113257D01*
X00140642D01*
X00139263Y00112686D01*
X00138209Y00111631D01*
X00137875Y00110826D01*
X00137781Y00110685D01*
X00137748Y00110518D01*
X00137638Y00110252D01*
Y00109965D01*
X00137547Y00109507D01*
X00137638Y00109048D01*
Y00108761D01*
X00137748Y00108495D01*
X00137781Y00108328D01*
X00137875Y00108187D01*
X00138209Y00107382D01*
X00139263Y00106327D01*
X00140642Y00105757D01*
X00140755D01*
X00140994Y00105545D01*
X00155689Y0009085D01*
X00156688Y00090183D01*
X00157867Y00089948D01*
X00386888D01*
X00388067Y00090183D01*
X00389066Y0009085D01*
X00447536Y00149321D01*
X00738066D01*
X00749203Y00138184D01*
Y00138043D01*
X00749774Y00136664D01*
X00750829Y00135609D01*
X00752207Y00135038D01*
X00753699D01*
X00755077Y00135609D01*
X00756132Y00136664D01*
X00756703Y00138043D01*
Y00139534D01*
X00756132Y00140913D01*
X00755077Y00141968D01*
X00753699Y00142538D01*
X00753586D01*
X00753346Y0014275D01*
X00741519Y00154577D01*
X0074052Y00155245D01*
X00739342Y00155479D01*
D02*
G37*
G36*
X00087674Y0014772D02*
X00085326D01*
X00083057Y00147112D01*
X00081023Y00145938D01*
X00079362Y00144277D01*
X00078188Y00142243D01*
X0007758Y00139974D01*
Y00137626D01*
X00078188Y00135357D01*
X00079362Y00133323D01*
X00081023Y00131662D01*
X00083057Y00130488D01*
X00085326Y0012988D01*
X00087674D01*
X00089943Y00130488D01*
X00091977Y00131662D01*
X00093638Y00133323D01*
X00094812Y00135357D01*
X0009542Y00137626D01*
Y00139974D01*
X00094812Y00142243D01*
X00093638Y00144277D01*
X00091977Y00145938D01*
X00089943Y00147112D01*
X00087674Y0014772D01*
D02*
G37*
G36*
X0007002D02*
X0005218D01*
Y0012988D01*
X0007002D01*
Y0014772D01*
D02*
G37*
G36*
X00036874D02*
X00034526D01*
X00032257Y00147112D01*
X00030223Y00145938D01*
X00028562Y00144277D01*
X00027388Y00142243D01*
X0002678Y00139974D01*
Y00137626D01*
X00027388Y00135357D01*
X00028562Y00133323D01*
X00030223Y00131662D01*
X00032257Y00130488D01*
X00034526Y0012988D01*
X00036874D01*
X00039143Y00130488D01*
X00041177Y00131662D01*
X00042838Y00133323D01*
X00044012Y00135357D01*
X0004462Y00137626D01*
Y00139974D01*
X00044012Y00142243D01*
X00042838Y00144277D01*
X00041177Y00145938D01*
X00039143Y00147112D01*
X00036874Y0014772D01*
D02*
G37*
G36*
X00834741Y00665646D02*
X0083344D01*
X00832238Y00665148D01*
X00831318Y00664229D01*
X0083082Y00663027D01*
Y00661726D01*
X00831318Y00660524D01*
X00832238Y00659604D01*
X0083344Y00659106D01*
X00833532D01*
X00834261Y00658463D01*
X00834448Y00658278D01*
X00834579Y00658224D01*
X0083561Y00657194D01*
Y00622103D01*
X0083235Y00618843D01*
X00832224Y00618793D01*
X00831503Y00618101D01*
X00831327Y0061795D01*
X008312D01*
X00829998Y00617452D01*
X00829078Y00616532D01*
X0082858Y0061533D01*
Y00615238D01*
X00827937Y00614509D01*
X00827752Y00614322D01*
X00827698Y00614191D01*
X00817495Y00603988D01*
X00816934Y00603147D01*
X00816737Y00602156D01*
Y00461769D01*
X00785612Y00430644D01*
X00757851D01*
X0075686Y00430447D01*
X0075602Y00429886D01*
X00714449Y00388315D01*
X00713887Y00387475D01*
X0071369Y00386484D01*
Y00186493D01*
X00694929Y00167732D01*
X00438867D01*
X00437876Y00167535D01*
X00437036Y00166973D01*
X0037515Y00105088D01*
X00284222D01*
X00284097Y00105143D01*
X00283098Y00105163D01*
X00282868Y0010518D01*
X00282777Y0010527D01*
X00281575Y00105768D01*
X00280275D01*
X00279073Y0010527D01*
X00278153Y00104351D01*
X00277655Y00103149D01*
Y00101848D01*
X00278153Y00100646D01*
X00279073Y00099726D01*
X00280275Y00099228D01*
X00281575D01*
X00282777Y00099726D01*
X00282843Y00099791D01*
X00283813Y00099853D01*
X00284076Y00099854D01*
X00284207Y00099909D01*
X00376223D01*
X00377214Y00100106D01*
X00378054Y00100667D01*
X0043994Y00162552D01*
X00696002D01*
X00696993Y00162749D01*
X00697833Y00163311D01*
X00718111Y00183589D01*
X00718673Y00184429D01*
X0071887Y0018542D01*
Y00385411D01*
X00758924Y00425465D01*
X00786685D01*
X00787676Y00425662D01*
X00788516Y00426223D01*
X00821158Y00458865D01*
X00821719Y00459705D01*
X00821916Y00460696D01*
Y00601084D01*
X0083135Y00610517D01*
X00831477Y00610567D01*
X00832197Y00611259D01*
X00832373Y0061141D01*
X008325D01*
X00833702Y00611908D01*
X00834622Y00612828D01*
X0083512Y0061403D01*
Y00614122D01*
X00835763Y00614851D01*
X00835948Y00615038D01*
X00836002Y00615169D01*
X00840031Y00619199D01*
X00840593Y00620039D01*
X0084079Y0062103D01*
Y00658266D01*
X00840593Y00659257D01*
X00840031Y00660098D01*
X00838253Y00661876D01*
X00838203Y00662003D01*
X00837511Y00662724D01*
X0083736Y00662899D01*
Y00663027D01*
X00836862Y00664229D01*
X00835942Y00665148D01*
X00834741Y00665646D01*
D02*
G37*
G36*
X00503958Y00101509D02*
X00502487Y00101216D01*
X0050124Y00100383D01*
X0048763Y00086773D01*
X00401195D01*
X00399724Y00086481D01*
X00398477Y00085647D01*
X00398477Y00085647D01*
X00388634Y00075805D01*
X00365356D01*
X00363885Y00075512D01*
X00362638Y00074679D01*
X00361805Y00073432D01*
X00361512Y00071961D01*
X00361805Y0007049D01*
X00362638Y00069243D01*
X00363885Y0006841D01*
X00365356Y00068117D01*
X00390226D01*
X00390227Y00068117D01*
X00391698Y0006841D01*
X00392945Y00069243D01*
X00402787Y00079085D01*
X00489222D01*
X00489222Y00079085D01*
X00490693Y00079378D01*
X0049194Y00080211D01*
X00506676Y00094947D01*
X00507509Y00096194D01*
X00507802Y00097665D01*
X00507509Y00099136D01*
X00506676Y00100383D01*
X00505429Y00101216D01*
X00503958Y00101509D01*
D02*
G37*
G36*
X00666863Y00079317D02*
X00665563D01*
X00664361Y00078819D01*
X00663441Y00077899D01*
X00662943Y00076697D01*
Y00076604D01*
X006623Y00075875D01*
X00662115Y00075689D01*
X00662061Y00075557D01*
X0066025Y00073747D01*
X00659174Y00074466D01*
X00659559Y00075396D01*
Y00076697D01*
X00659061Y00077899D01*
X00658141Y00078819D01*
X00656939Y00079317D01*
X00655639D01*
X00654437Y00078819D01*
X00653517Y00077899D01*
X00653019Y00076697D01*
Y00075396D01*
X00653517Y00074194D01*
X00654319Y00073392D01*
X00654247Y00072843D01*
X0065393Y00072122D01*
X00648725D01*
X00648407Y00072843D01*
X00648335Y00073392D01*
X00649137Y00074194D01*
X00649635Y00075396D01*
Y00076697D01*
X00649137Y00077899D01*
X00648217Y00078819D01*
X00647016Y00079317D01*
X00645715D01*
X00644513Y00078819D01*
X00643593Y00077899D01*
X00643095Y00076697D01*
Y00075396D01*
X00643593Y00074194D01*
X00644395Y00073392D01*
X00644323Y00072843D01*
X00644006Y00072122D01*
X00638801D01*
X00638484Y00072843D01*
X00638411Y00073392D01*
X00639213Y00074194D01*
X00639711Y00075396D01*
Y00076697D01*
X00639213Y00077899D01*
X00638294Y00078819D01*
X00637092Y00079317D01*
X00635791D01*
X00634589Y00078819D01*
X00633669Y00077899D01*
X00633171Y00076697D01*
Y00075396D01*
X00633669Y00074194D01*
X00634471Y00073392D01*
X00634399Y00072843D01*
X00634082Y00072122D01*
X00628877D01*
X0062856Y00072843D01*
X00628488Y00073392D01*
X0062929Y00074194D01*
X00629787Y00075396D01*
Y00076697D01*
X0062929Y00077899D01*
X0062837Y00078819D01*
X00627168Y00079317D01*
X00625867D01*
X00624665Y00078819D01*
X00623745Y00077899D01*
X00623247Y00076697D01*
Y00075396D01*
X00623745Y00074194D01*
X00624547Y00073392D01*
X00624475Y00072843D01*
X00624158Y00072122D01*
X00618953D01*
X00618636Y00072843D01*
X00618564Y00073392D01*
X00619366Y00074194D01*
X00619864Y00075396D01*
Y00076697D01*
X00619366Y00077899D01*
X00618446Y00078819D01*
X00617244Y00079317D01*
X00615943D01*
X00614741Y00078819D01*
X00613821Y00077899D01*
X00613324Y00076697D01*
Y00075396D01*
X00613821Y00074194D01*
X00614623Y00073392D01*
X00614551Y00072843D01*
X00614234Y00072122D01*
X00609029D01*
X00608712Y00072843D01*
X0060864Y00073392D01*
X00609442Y00074194D01*
X0060994Y00075396D01*
Y00076697D01*
X00609442Y00077899D01*
X00608522Y00078819D01*
X0060732Y00079317D01*
X00606019D01*
X00604817Y00078819D01*
X00603898Y00077899D01*
X006034Y00076697D01*
Y00075396D01*
X00603898Y00074194D01*
X006047Y00073392D01*
X00604627Y00072843D01*
X0060431Y00072122D01*
X00599105D01*
X00598788Y00072843D01*
X00598716Y00073392D01*
X00599518Y00074194D01*
X00600016Y00075396D01*
Y00076697D01*
X00599518Y00077899D01*
X00598598Y00078819D01*
X00597396Y00079317D01*
X00596095D01*
X00594893Y00078819D01*
X00593974Y00077899D01*
X00593476Y00076697D01*
Y00075396D01*
X00593974Y00074194D01*
X00594776Y00073392D01*
X00594704Y00072843D01*
X00594386Y00072122D01*
X00424754D01*
X00424638Y00072176D01*
X00424613Y00072167D01*
X00424588Y00072177D01*
X00424302Y00072179D01*
X00423623Y00072199D01*
X00423387Y00072219D01*
X00423238Y00072368D01*
X00422036Y00072866D01*
X00420736D01*
X00419534Y00072368D01*
X00418614Y00071448D01*
X00418116Y00070246D01*
Y00068946D01*
X00418614Y00067744D01*
X00419534Y00066824D01*
X00420736Y00066326D01*
X00422036D01*
X00423236Y00066823D01*
X0042422Y00066887D01*
X00424482Y00066888D01*
X00424613Y00066943D01*
X00659699D01*
X0066069Y0006714D01*
X0066153Y00067701D01*
X00665713Y00071884D01*
X00665839Y00071933D01*
X0066656Y00072626D01*
X00666736Y00072776D01*
X00666863D01*
X00668065Y00073274D01*
X00668985Y00074194D01*
X00669483Y00075396D01*
Y00076697D01*
X00668985Y00077899D01*
X00668065Y00078819D01*
X00666863Y00079317D01*
D02*
G37*
G36*
X00686711D02*
X0068541D01*
X00684208Y00078819D01*
X00683288Y00077899D01*
X00682791Y00076697D01*
Y00075396D01*
X00683288Y00074194D01*
X00684208Y00073274D01*
X0068541Y00072776D01*
X00686711D01*
X00687913Y00073274D01*
X00688833Y00074194D01*
X00689331Y00075396D01*
Y00076697D01*
X00688833Y00077899D01*
X00687913Y00078819D01*
X00686711Y00079317D01*
D02*
G37*
G36*
X00676787D02*
X00675486D01*
X00674285Y00078819D01*
X00673365Y00077899D01*
X00672867Y00076697D01*
Y00075396D01*
X00673365Y00074194D01*
X00674285Y00073274D01*
X00675486Y00072776D01*
X00676787D01*
X00677989Y00073274D01*
X00678909Y00074194D01*
X00679407Y00075396D01*
Y00076697D01*
X00678909Y00077899D01*
X00677989Y00078819D01*
X00676787Y00079317D01*
D02*
G37*
%LPD*%
G36*
X00747603Y00836419D02*
X00746867Y00835567D01*
X00746217Y00834713D01*
X00745655Y00833858D01*
X00745178Y00833D01*
X00744789Y00832141D01*
X00744485Y00831279D01*
X00744269Y00830416D01*
X00744139Y0082955D01*
X00744096Y00828683D01*
X00741556D01*
X00741513Y0082955D01*
X00741383Y00830416D01*
X00741166Y00831279D01*
X00740863Y00832141D01*
X00740473Y00833D01*
X00739997Y00833858D01*
X00739434Y00834713D01*
X00738785Y00835567D01*
X00738048Y00836419D01*
X00737226Y00837269D01*
X00748426D01*
X00747603Y00836419D01*
D02*
G37*
G36*
X00748189Y00810628D02*
X00749169Y00809764D01*
X00749234Y00809731D01*
X0074928Y0080972D01*
X007473Y0080774D01*
X00747289Y00807786D01*
X00747256Y0080785D01*
X007472Y00807934D01*
X00747122Y00808036D01*
X00746897Y00808298D01*
X00746178Y00809046D01*
X00747974Y00810842D01*
X00748189Y00810628D01*
D02*
G37*
G36*
X00723205Y0083727D02*
X00721974Y00835234D01*
X00721475Y0083426D01*
X00721051Y00833316D01*
X00720705Y00832402D01*
X00720436Y00831517D01*
X00720244Y00830661D01*
X00720128Y00829835D01*
X0072009Y00829038D01*
X0071755Y00828583D01*
X00717504Y00829492D01*
X00717364Y00830373D01*
X00717132Y00831225D01*
X00716807Y00832048D01*
X00716389Y00832842D01*
X00715879Y00833607D01*
X00715275Y00834344D01*
X00714579Y00835051D01*
X00713789Y0083573D01*
X00712907Y0083638D01*
X00723936Y00838332D01*
X00723205Y0083727D01*
D02*
G37*
G36*
X00720091Y00810562D02*
X00720173Y00809258D01*
X00720195Y00809188D01*
X0072022Y00809148D01*
X0071742D01*
X00717445Y00809188D01*
X00717467Y00809258D01*
X00717486Y00809356D01*
X00717503Y00809484D01*
X00717529Y00809827D01*
X0071755Y00810865D01*
X0072009D01*
X00720091Y00810562D01*
D02*
G37*
G36*
X00460956Y00812734D02*
X00460989Y0081267D01*
X00461045Y00812586D01*
X00461124Y00812484D01*
X00461348Y00812223D01*
X00462067Y00811474D01*
X00460271Y00809678D01*
X00460056Y00809892D01*
X00459076Y00810756D01*
X00459011Y00810789D01*
X00458965Y008108D01*
X00460945Y0081278D01*
X00460956Y00812734D01*
D02*
G37*
G36*
X00572929Y00711568D02*
X00573909Y00710704D01*
X00573974Y00710671D01*
X0057402Y0071066D01*
X0057204Y0070868D01*
X00572029Y00708726D01*
X00571996Y00708791D01*
X0057194Y00708874D01*
X00571861Y00708976D01*
X00571637Y00709238D01*
X00570918Y00709986D01*
X00572714Y00711782D01*
X00572929Y00711568D01*
D02*
G37*
G36*
X00476985Y00795164D02*
X00477021Y00795113D01*
X00477079Y00795041D01*
X00477386Y00794701D01*
X0047811Y00793962D01*
X00476544Y00791936D01*
X00476329Y00792149D01*
X00475413Y00792943D01*
X00475322Y00792996D01*
X0047525Y00793025D01*
X00475195Y00793032D01*
X00476972Y00795195D01*
X00476985Y00795164D01*
D02*
G37*
G36*
X00572385Y00699691D02*
X00573201Y00698987D01*
X00573312Y00698917D01*
X00573406Y00698871D01*
X00573483Y00698848D01*
X00573543Y0069885D01*
X00572093Y00696454D01*
X00570985Y00697495D01*
X0057217Y00699902D01*
X00572385Y00699691D01*
D02*
G37*
G36*
X00247492Y0081267D02*
X00247452Y00812695D01*
X00247382Y00812717D01*
X00247284Y00812736D01*
X00247156Y00812753D01*
X00246812Y00812779D01*
X00245775Y008128D01*
Y0081534D01*
X00246078Y00815341D01*
X00247382Y00815423D01*
X00247452Y00815445D01*
X00247492Y0081547D01*
Y0081267D01*
D02*
G37*
G36*
X00247701Y00805574D02*
X00247676Y00805581D01*
X0024762Y00805587D01*
X00247415Y00805598D01*
X00246055Y00805611D01*
X00245583Y00808151D01*
X00245885Y00808153D01*
X00246964Y00808221D01*
X00247094Y00808247D01*
X00247195Y00808276D01*
X00247267Y0080831D01*
X0024731Y00808347D01*
X00247701Y00805574D01*
D02*
G37*
G36*
X0012246Y00706364D02*
X00121897Y00705743D01*
X00121394Y00705067D01*
X00120952Y00704336D01*
X0012057Y00703549D01*
X00120249Y00702708D01*
X00119988Y00701812D01*
X00119788Y00700861D01*
X00119648Y00699854D01*
X00119568Y00698793D01*
X0011955Y00697676D01*
X00111976Y0070525D01*
X00113093Y00705268D01*
X00114154Y00705348D01*
X00115161Y00705488D01*
X00116112Y00705688D01*
X00117008Y00705949D01*
X00117849Y0070627D01*
X00118636Y00706652D01*
X00119367Y00707094D01*
X00120043Y00707597D01*
X00120664Y0070816D01*
X0012246Y00706364D01*
D02*
G37*
G36*
X00582519Y00673468D02*
X00583499Y00672604D01*
X00583564Y00672571D01*
X0058361Y0067256D01*
X0058163Y0067058D01*
X00581619Y00670626D01*
X00581585Y00670691D01*
X00581529Y00670774D01*
X00581451Y00670876D01*
X00581227Y00671137D01*
X00580508Y00671886D01*
X00582304Y00673682D01*
X00582519Y00673468D01*
D02*
G37*
G36*
X0012246Y00376164D02*
X00121897Y00375543D01*
X00121394Y00374867D01*
X00120952Y00374136D01*
X0012057Y00373349D01*
X00120249Y00372508D01*
X00119988Y00371612D01*
X00119788Y00370661D01*
X00119648Y00369654D01*
X00119568Y00368593D01*
X0011955Y00367477D01*
X00111976Y0037505D01*
X00113093Y00375068D01*
X00114154Y00375148D01*
X00115161Y00375288D01*
X00116112Y00375488D01*
X00117008Y00375749D01*
X00117849Y0037607D01*
X00118636Y00376452D01*
X00119367Y00376894D01*
X00120043Y00377397D01*
X00120664Y0037796D01*
X0012246Y00376164D01*
D02*
G37*
G36*
X00094168Y00366207D02*
X00094248Y00365146D01*
X00094388Y00364139D01*
X00094588Y00363188D01*
X00094849Y00362292D01*
X0009517Y00361451D01*
X00095552Y00360664D01*
X00095994Y00359933D01*
X00096497Y00359257D01*
X0009706Y00358636D01*
X00095264Y0035684D01*
X00094643Y00357403D01*
X00093967Y00357906D01*
X00093236Y00358348D01*
X00092449Y0035873D01*
X00091608Y00359051D01*
X00090712Y00359312D01*
X00089761Y00359512D01*
X00088754Y00359652D01*
X00087693Y00359732D01*
X00086576Y0035975D01*
X0009415Y00367323D01*
X00094168Y00366207D01*
D02*
G37*
G36*
X00206487Y00656642D02*
X00206556Y0065662D01*
X00206655Y00656601D01*
X00206782Y00656584D01*
X00207126Y00656558D01*
X00208163Y00656537D01*
Y00653997D01*
X0020786Y00653996D01*
X00206556Y00653914D01*
X00206487Y00653892D01*
X00206447Y00653867D01*
Y00656667D01*
X00206487Y00656642D01*
D02*
G37*
G36*
X00291976Y00653856D02*
X00291935Y00653883D01*
X00291865Y00653907D01*
X00291765Y00653928D01*
X00291637Y00653946D01*
X00291293Y00653974D01*
X00290558Y00653996D01*
X00290255Y00653997D01*
X00290319Y00656537D01*
X00290622Y00656538D01*
X00291923Y00656613D01*
X00291991Y00656633D01*
X0029203Y00656656D01*
X00291976Y00653856D01*
D02*
G37*
G36*
X00539592Y0063868D02*
X00539552Y00638705D01*
X00539482Y00638727D01*
X00539384Y00638746D01*
X00539256Y00638763D01*
X00538913Y00638789D01*
X00537875Y0063881D01*
Y0064135D01*
X00538178Y00641351D01*
X00539482Y00641433D01*
X00539552Y00641455D01*
X00539592Y0064148D01*
Y0063868D01*
D02*
G37*
G36*
X00461208Y00633835D02*
X00461278Y00633813D01*
X00461376Y00633794D01*
X00461504Y00633777D01*
X00461847Y00633751D01*
X00462885Y0063373D01*
Y0063119D01*
X00462582Y00631189D01*
X00461278Y00631107D01*
X00461208Y00631085D01*
X00461168Y0063106D01*
Y0063386D01*
X00461208Y00633835D01*
D02*
G37*
G36*
X00211862Y00612803D02*
X00211823Y00612826D01*
X00211754Y00612847D01*
X00211656Y00612866D01*
X00211529Y00612882D01*
X00211186Y00612906D01*
X00210149Y00612926D01*
X00210109Y00615466D01*
X00210412Y00615467D01*
X00211718Y00615554D01*
X00211788Y00615577D01*
X00211829Y00615603D01*
X00211862Y00612803D01*
D02*
G37*
G36*
X00158423Y00615566D02*
X00158491Y00615545D01*
X00158589Y00615526D01*
X00158717Y0061551D01*
X0015906Y00615486D01*
X00160097Y00615466D01*
X00160136Y00612926D01*
X00159833Y00612925D01*
X00158528Y00612838D01*
X00158458Y00612815D01*
X00158417Y00612789D01*
X00158383Y00615589D01*
X00158423Y00615566D01*
D02*
G37*
G36*
X00207348Y00601847D02*
X00207302Y00601836D01*
X00207237Y00601803D01*
X00207154Y00601747D01*
X00207051Y00601669D01*
X0020679Y00601444D01*
X00206042Y00600725D01*
X00204246Y00602521D01*
X00204459Y00602737D01*
X00205323Y00603717D01*
X00205357Y00603781D01*
X00205368Y00603827D01*
X00207348Y00601847D01*
D02*
G37*
G36*
X00244059Y00352536D02*
X00244089Y00352465D01*
X00244142Y00352376D01*
X00244219Y00352269D01*
X00244439Y00352001D01*
X00244751Y00351661D01*
X00245154Y00351248D01*
X00243183Y00349627D01*
X00241929Y00350762D01*
X00244051Y00352589D01*
X00244059Y00352536D01*
D02*
G37*
G36*
X00256342Y00335695D02*
X0025642Y00334485D01*
X00256445Y00334385D01*
X00256472Y00334313D01*
X00256503Y00334271D01*
X00253708Y003341D01*
X00253726Y00334136D01*
X00253741Y00334201D01*
X00253755Y00334296D01*
X00253778Y00334575D01*
X002538Y00335492D01*
X00253801Y00335796D01*
X00256341Y00335997D01*
X00256342Y00335695D01*
D02*
G37*
G36*
X00313888Y0033088D02*
X00313958Y00330858D01*
X00314056Y00330839D01*
X00314184Y00330822D01*
X00314527Y00330796D01*
X00315565Y00330775D01*
Y00328235D01*
X00315262Y00328234D01*
X00313958Y00328152D01*
X00313888Y0032813D01*
X00313848Y00328105D01*
Y00330905D01*
X00313888Y0033088D01*
D02*
G37*
G36*
X00310992Y00328105D02*
X00310952Y0032813D01*
X00310882Y00328152D01*
X00310784Y00328171D01*
X00310656Y00328188D01*
X00310312Y00328214D01*
X00309275Y00328235D01*
Y00330775D01*
X00309578Y00330776D01*
X00310882Y00330858D01*
X00310952Y0033088D01*
X00310992Y00330905D01*
Y00328105D01*
D02*
G37*
G36*
X00403002Y00326758D02*
X00403982Y00325894D01*
X00404047Y00325861D01*
X00404092Y0032585D01*
X00402113Y0032387D01*
X00402102Y00323916D01*
X00402068Y0032398D01*
X00402012Y00324064D01*
X00401934Y00324166D01*
X00401709Y00324427D01*
X0040099Y00325176D01*
X00402786Y00326972D01*
X00403002Y00326758D01*
D02*
G37*
G36*
X00392425Y0032245D02*
X00392384Y00322475D01*
X00392315Y00322497D01*
X00392216Y00322516D01*
X00392089Y00322533D01*
X00391745Y00322559D01*
X00390708Y0032258D01*
Y0032512D01*
X00391011Y00325121D01*
X00392315Y00325203D01*
X00392384Y00325225D01*
X00392425Y0032525D01*
Y0032245D01*
D02*
G37*
G36*
X00306095Y00325221D02*
X00306164Y003252D01*
X00306262Y00325181D01*
X00306389Y00325165D01*
X00306732Y0032514D01*
X0030777Y0032512D01*
X00307798Y0032258D01*
X00307495Y00322579D01*
X0030619Y00322494D01*
X0030612Y00322471D01*
X0030608Y00322445D01*
X00306055Y00325245D01*
X00306095Y00325221D01*
D02*
G37*
G36*
X00303199Y00322445D02*
X00303158Y00322471D01*
X00303088Y00322494D01*
X00301783Y00322579D01*
X0030148Y0032258D01*
X00301509Y0032512D01*
X00302546Y0032514D01*
X00302889Y00325165D01*
X00303016Y00325181D01*
X00303115Y003252D01*
X00303184Y00325221D01*
X00303223Y00325245D01*
X00303199Y00322445D01*
D02*
G37*
G36*
X00700073Y00841906D02*
X00700179Y00840773D01*
X00700345Y00839701D01*
X00700569Y00838692D01*
X00700853Y00837744D01*
X00701195Y00836858D01*
X00701596Y00836035D01*
X00702055Y00835273D01*
X00702574Y00834573D01*
X00703151Y00833935D01*
X00701401Y00832094D01*
X00700751Y00832681D01*
X00700044Y00833202D01*
X00699279Y00833657D01*
X00698456Y00834046D01*
X00697576Y00834368D01*
X00696637Y00834624D01*
X00695641Y00834814D01*
X00694587Y00834938D01*
X00693475Y00834995D01*
X00692306Y00834987D01*
X00700025Y00843102D01*
X00700073Y00841906D01*
D02*
G37*
G36*
X00679671Y00549982D02*
X00679631Y00550007D01*
X00679561Y00550029D01*
X00679463Y00550048D01*
X00679335Y00550065D01*
X00678991Y00550091D01*
X00677954Y00550112D01*
Y00552652D01*
X00678257Y00552653D01*
X00679561Y00552735D01*
X00679631Y00552757D01*
X00679671Y00552782D01*
Y00549982D01*
D02*
G37*
G36*
X00583231Y00425506D02*
X00583017Y0042529D01*
X00582153Y0042431D01*
X00582119Y00424246D01*
X00582109Y004242D01*
X00580129Y0042618D01*
X00580174Y00426191D01*
X00580239Y00426224D01*
X00580323Y0042628D01*
X00580425Y00426358D01*
X00580686Y00426583D01*
X00581435Y00427302D01*
X00583231Y00425506D01*
D02*
G37*
G36*
X00704955Y00806252D02*
X00704933Y00806182D01*
X00704914Y00806084D01*
X00704897Y00805956D01*
X00704871Y00805612D01*
X0070485Y00804575D01*
X0070231D01*
X00702309Y00804878D01*
X00702227Y00806182D01*
X00702205Y00806252D01*
X0070218Y00806292D01*
X0070498D01*
X00704955Y00806252D01*
D02*
G37*
G36*
X00562681Y00504086D02*
X00562467Y00503871D01*
X00561603Y00502891D01*
X0056157Y00502826D01*
X00561559Y0050278D01*
X00559579Y0050476D01*
X00559625Y00504771D01*
X00559689Y00504804D01*
X00559773Y0050486D01*
X00559875Y00504939D01*
X00560136Y00505163D01*
X00560885Y00505882D01*
X00562681Y00504086D01*
D02*
G37*
G36*
X00608275Y00652503D02*
X00608229Y00652492D01*
X00608164Y00652458D01*
X00608081Y00652403D01*
X00607979Y00652324D01*
X00607718Y006521D01*
X00606969Y00651381D01*
X00605173Y00653177D01*
X00605387Y00653392D01*
X00606251Y00654372D01*
X00606284Y00654437D01*
X00606295Y00654483D01*
X00608275Y00652503D01*
D02*
G37*
G36*
X00550302Y00373029D02*
X00550384Y00371725D01*
X00550406Y00371655D01*
X00550431Y00371615D01*
X00547631D01*
X00547655Y00371655D01*
X00547678Y00371725D01*
X00547697Y00371823D01*
X00547714Y00371951D01*
X0054774Y00372295D01*
X00547761Y00373332D01*
X00550301D01*
X00550302Y00373029D01*
D02*
G37*
G36*
X00774744Y00720668D02*
X00774779Y00720613D01*
X00774836Y00720537D01*
X00775019Y00720327D01*
X00775866Y0071945D01*
X00774245Y00717479D01*
X0077403Y00717692D01*
X00773117Y0071849D01*
X00773028Y00718543D01*
X00772957Y00718574D01*
X00772904Y00718581D01*
X00774731Y00720703D01*
X00774744Y00720668D01*
D02*
G37*
G36*
X00500993Y00364006D02*
X00501062Y00363984D01*
X00501161Y00363964D01*
X00501289Y00363947D01*
X00501632Y00363921D01*
X0050267Y003639D01*
Y0036136D01*
X00502366Y00361359D01*
X00501062Y00361277D01*
X00500993Y00361255D01*
X00500953Y0036123D01*
Y0036403D01*
X00500993Y00364006D01*
D02*
G37*
G36*
X00526892Y0033896D02*
X00526852Y00338985D01*
X00526782Y00339007D01*
X00526684Y00339026D01*
X00526556Y00339043D01*
X00526213Y00339069D01*
X00525175Y0033909D01*
Y0034163D01*
X00525478Y00341631D01*
X00526782Y00341713D01*
X00526852Y00341735D01*
X00526892Y0034176D01*
Y0033896D01*
D02*
G37*
G36*
X0025798Y00298206D02*
X00258013Y00298141D01*
X00258069Y00298057D01*
X00258148Y00297955D01*
X00258372Y00297694D01*
X00259091Y00296946D01*
X00257295Y00295149D01*
X0025708Y00295363D01*
X00256099Y00296227D01*
X00256035Y00296261D01*
X00255989Y00296271D01*
X00257969Y00298251D01*
X0025798Y00298206D01*
D02*
G37*
G36*
X0012295Y00172179D02*
X00122438Y00171612D01*
X00121963Y00170973D01*
X00121525Y0017026D01*
X00121124Y00169474D01*
X00120759Y00168615D01*
X00120431Y00167683D01*
X0012014Y00166677D01*
X00119668Y00164447D01*
X00119487Y00163223D01*
X00113029Y00171766D01*
X00114108Y0017164D01*
X00115138Y00171591D01*
X00116118Y0017162D01*
X00117049Y00171726D01*
X0011793Y00171908D01*
X00118761Y00172169D01*
X00119543Y00172506D01*
X00120275Y00172921D01*
X00120958Y00173413D01*
X00121591Y00173983D01*
X0012295Y00172179D01*
D02*
G37*
G36*
X00104607Y00147549D02*
X00105442Y00146839D01*
X00105808Y0014658D01*
X00106142Y00146387D01*
X00106441Y00146258D01*
X00106707Y00146194D01*
X00106939Y00146194D01*
X00107138Y00146259D01*
X00107303Y00146389D01*
X00104311Y00143116D01*
X00104428Y00143293D01*
X00104483Y00143502D01*
X00104477Y00143741D01*
X00104409Y00144011D01*
X00104278Y00144312D01*
X00104086Y00144643D01*
X00103832Y00145006D01*
X00103516Y00145399D01*
X00102699Y00146279D01*
X0010414Y00148001D01*
X00104607Y00147549D01*
D02*
G37*
G36*
X00826725Y0064447D02*
X00826679Y00644459D01*
X00826615Y00644426D01*
X00826531Y0064437D01*
X00826429Y00644291D01*
X00826168Y00644067D01*
X00825419Y00643348D01*
X00823623Y00645144D01*
X00823837Y00645359D01*
X00824701Y00646339D01*
X00824734Y00646404D01*
X00824745Y0064645D01*
X00826725Y0064447D01*
D02*
G37*
G36*
X00277295Y00224369D02*
X00277365Y00224347D01*
X00277463Y00224328D01*
X00277591Y00224311D01*
X00277935Y00224285D01*
X00278972Y00224264D01*
Y00221724D01*
X00278669Y00221723D01*
X00277365Y00221641D01*
X00277295Y00221619D01*
X00277255Y00221594D01*
Y00224394D01*
X00277295Y00224369D01*
D02*
G37*
G36*
X00666103Y0020239D02*
X00666053Y00202381D01*
X00665984Y00202349D01*
X00665897Y00202294D01*
X00665791Y00202217D01*
X00665526Y00201995D01*
X00664989Y00201492D01*
X00664774Y00201279D01*
X00663083Y0020318D01*
X00663297Y00203395D01*
X00664202Y00204417D01*
X00664214Y00204456D01*
X00666103Y0020239D01*
D02*
G37*
G36*
X00422854Y00199311D02*
X00422924Y00199289D01*
X00423022Y0019927D01*
X0042315Y00199253D01*
X00423493Y00199227D01*
X00424531Y00199206D01*
Y00196666D01*
X00424228Y00196665D01*
X00422924Y00196583D01*
X00422854Y00196561D01*
X00422814Y00196536D01*
Y00199336D01*
X00422854Y00199311D01*
D02*
G37*
G36*
X00829189Y00629116D02*
X00829143Y00629105D01*
X00829079Y00629072D01*
X00828995Y00629016D01*
X00828893Y00628937D01*
X00828632Y00628713D01*
X00827883Y00627994D01*
X00826087Y0062979D01*
X00826301Y00630005D01*
X00827165Y00630985D01*
X00827198Y0063105D01*
X00827209Y00631096D01*
X00829189Y00629116D01*
D02*
G37*
G36*
X00174315Y00185534D02*
X00174385Y00185512D01*
X00174483Y00185493D01*
X00174611Y00185476D01*
X00174954Y0018545D01*
X00175992Y00185429D01*
Y00182889D01*
X00175689Y00182888D01*
X00174385Y00182806D01*
X00174315Y00182784D01*
X00174275Y00182759D01*
Y00185559D01*
X00174315Y00185534D01*
D02*
G37*
G36*
X00762448Y00241612D02*
X00762482Y00241547D01*
X00762537Y00241464D01*
X00762616Y00241361D01*
X0076284Y002411D01*
X00763559Y00240352D01*
X00761763Y00238556D01*
X00761548Y00238769D01*
X00760568Y00239633D01*
X00760503Y00239667D01*
X00760457Y00239678D01*
X00762437Y00241658D01*
X00762448Y00241612D01*
D02*
G37*
G36*
X00799181Y0014163D02*
X00799263Y00140326D01*
X00799285Y00140257D01*
X0079931Y00140217D01*
X0079651D01*
X00796534Y00140257D01*
X00796556Y00140326D01*
X00796576Y00140425D01*
X00796593Y00140553D01*
X00796619Y00140896D01*
X0079664Y00141933D01*
X0079918D01*
X00799181Y0014163D01*
D02*
G37*
G36*
X00751842Y00141697D02*
X00752822Y00140833D01*
X00752887Y00140799D01*
X00752933Y00140788D01*
X00750953Y00138808D01*
X00750942Y00138854D01*
X00750909Y00138919D01*
X00750853Y00139003D01*
X00750774Y00139105D01*
X0075055Y00139366D01*
X00749831Y00140114D01*
X00751627Y0014191D01*
X00751842Y00141697D01*
D02*
G37*
G36*
X00143399Y00109441D02*
X00143432Y00109376D01*
X00143488Y00109292D01*
X00143566Y0010919D01*
X00143791Y00108929D01*
X0014451Y00108181D01*
X00142713Y00106385D01*
X00142498Y00106598D01*
X00141518Y00107462D01*
X00141454Y00107496D01*
X00141408Y00107507D01*
X00143388Y00109487D01*
X00143399Y00109441D01*
D02*
G37*
G36*
X00836101Y0066231D02*
X00836134Y00662246D01*
X0083619Y00662162D01*
X00836269Y0066206D01*
X00836493Y00661799D01*
X00837212Y0066105D01*
X00835416Y00659254D01*
X00835201Y00659468D01*
X00834221Y00660332D01*
X00834156Y00660366D01*
X0083411Y00660376D01*
X0083609Y00662356D01*
X00836101Y0066231D01*
D02*
G37*
G36*
X00834972Y00616006D02*
X00834758Y0061579D01*
X00833894Y0061481D01*
X00833861Y00614746D01*
X0083385Y006147D01*
X0083187Y0061668D01*
X00831916Y00616691D01*
X00831981Y00616724D01*
X00832064Y0061678D01*
X00832166Y00616858D01*
X00832428Y00617083D01*
X00833176Y00617802D01*
X00834972Y00616006D01*
D02*
G37*
G36*
X0083183Y0061268D02*
X00831784Y00612669D01*
X0083172Y00612636D01*
X00831636Y0061258D01*
X00831534Y00612501D01*
X00831273Y00612277D01*
X00830524Y00611558D01*
X00828728Y00613354D01*
X00828942Y00613569D01*
X00829806Y00614549D01*
X00829839Y00614614D01*
X0082985Y0061466D01*
X0083183Y0061268D01*
D02*
G37*
G36*
X00282393Y00103874D02*
X00282463Y00103851D01*
X00282561Y00103832D01*
X00282689Y00103815D01*
X00283032Y00103789D01*
X0028407Y00103768D01*
Y00101228D01*
X00283767Y00101227D01*
X00282463Y00101145D01*
X00282393Y00101123D01*
X00282353Y00101098D01*
Y00103898D01*
X00282393Y00103874D01*
D02*
G37*
G36*
X00666193Y00074047D02*
X00666147Y00074036D01*
X00666083Y00074002D01*
X00665999Y00073946D01*
X00665897Y00073868D01*
X00665636Y00073644D01*
X00664887Y00072925D01*
X00663091Y00074721D01*
X00663305Y00074936D01*
X00664169Y00075916D01*
X00664202Y00075981D01*
X00664213Y00076027D01*
X00666193Y00074047D01*
D02*
G37*
G36*
X004229Y00070922D02*
X0042297Y00070897D01*
X0042307Y00070875D01*
X00423199Y00070855D01*
X00423544Y00070826D01*
X00424278Y00070804D01*
X00424581Y00070802D01*
X00424477Y00068262D01*
X00424173Y00068261D01*
X00422807Y00068172D01*
X00422769Y00068151D01*
X00422858Y0007095D01*
X004229Y00070922D01*
D02*
G37*
D21*
X00339631Y0030353D02*
X00421222D01*
X00329332Y00293231D02*
X00339631Y0030353D01*
X0026101Y00293231D02*
X00329332D01*
X0071628Y0018542D02*
Y00386484D01*
X00757851Y00428055D02*
X00786685D01*
X0071628Y00386484D02*
X00757851Y00428055D01*
X00696146Y00386545D02*
X00751183Y00441582D01*
X00778764D01*
X00754292Y0043453D02*
X00781872D01*
X00811815Y00464473D01*
X0070485Y00385089D02*
X00754292Y0043453D01*
X00786685Y00428055D02*
X00819326Y00460696D01*
X00778764Y00441582D02*
X00802749Y00465567D01*
X00661927Y0036263D02*
X00748388Y00449091D01*
X00775968D02*
X0079451Y00467632D01*
X00748388Y00449091D02*
X00775968D01*
X00819326Y00602156D02*
X0083185Y0061468D01*
X00819326Y00460696D02*
Y00602156D01*
X00811815Y00613722D02*
X00829209Y00631116D01*
X00811815Y00464473D02*
Y00613722D01*
X00802749Y00622474D02*
X00826745Y0064647D01*
X00802749Y00465567D02*
Y00622474D01*
X0079451Y00467632D02*
Y0069901D01*
X00772735Y00720574D02*
X00772946D01*
X0079451Y0069901D01*
X00499525Y0036263D02*
X00661927D01*
X00696146Y00261085D02*
Y00386545D01*
X00688731Y00253669D02*
X00696146Y00261085D01*
X00378581Y00253669D02*
X00688731D01*
X00347906Y00222994D02*
X00378581Y00253669D01*
X00275827Y00222994D02*
X00347906D01*
X0070485Y00255656D02*
Y00385089D01*
X0069423Y00245036D02*
X0070485Y00255656D01*
X00383636Y00245036D02*
X0069423D01*
X00352508Y00213908D02*
X00383636Y00245036D01*
X00278678Y00213908D02*
X00352508D01*
X00248929Y00184159D02*
X00278678Y00213908D01*
X00172847Y00184159D02*
X00248929D01*
X0083409Y00662376D02*
X008382Y00658266D01*
Y0062103D02*
Y00658266D01*
X0083185Y0061468D02*
X008382Y0062103D01*
X00696002Y00165142D02*
X0071628Y0018542D01*
X00438867Y00165142D02*
X00696002D01*
X00376223Y00102498D02*
X00438867Y00165142D01*
X00280925Y00102498D02*
X00376223D01*
X0047498Y0079502D02*
X00475256D01*
X00573085Y00697192D02*
X00573761D01*
X00475256Y0079502D02*
X00573085Y00697192D01*
X00573761D02*
X0057404Y00696912D01*
X00469105Y0080264D02*
X0048006D01*
X0057404Y0070866D01*
X00458945Y008128D02*
X00469105Y0080264D01*
X00157867Y00093027D02*
X00386888D01*
X00140626Y00109507D02*
X00140626D01*
X00141388D02*
X00157867Y00093027D01*
X00421222Y0030353D02*
X00458052Y0034036D01*
X0052832D01*
X00293392Y00655267D02*
X00293431Y00655228D01*
X00205018Y00655267D02*
X00293392D01*
X00549031Y00502463D02*
X0059817Y00551602D01*
Y00644378D02*
X00608295Y00654503D01*
X0059817Y00551602D02*
Y00644378D01*
X00549031Y00370187D02*
Y00502463D01*
X00559559Y0050276D02*
X0061849Y00561691D01*
X00433769Y0082042D02*
X00583629Y0067056D01*
X0014605Y0082042D02*
X00433769D01*
X00142981Y00712187D02*
Y00798546D01*
X0013462Y00703826D02*
X00142981Y00712187D01*
X0013462Y00367832D02*
Y00703826D01*
X00137192Y0071443D02*
Y00802095D01*
X0012883Y00706069D02*
X00137192Y0071443D01*
X0012883Y0038433D02*
Y00706069D01*
X00151317Y00806881D02*
X00248641D01*
X00149167Y0081407D02*
X0024892D01*
X00142981Y00798546D02*
X00151317Y00806881D01*
X00137192Y00802095D02*
X00149167Y0081407D01*
X00386888Y00093027D02*
X00446261Y001524D01*
X00739342D01*
X00742826Y00814194D02*
Y00842982D01*
Y00814194D02*
X007493Y0080772D01*
X00717426Y00842982D02*
X0071882Y00841588D01*
Y0080772D02*
Y00841588D01*
X00695691Y00839599D02*
Y00841899D01*
X00711687Y0070508D02*
Y00823604D01*
X00695691Y00839599D02*
X00711687Y00823604D01*
X00156996Y00614196D02*
X00213249D01*
X00213274Y0061422D01*
X00156972Y00614172D02*
X00156996Y00614196D01*
X006836Y00676993D02*
X00711687Y0070508D01*
X00656673Y00676993D02*
X006836D01*
X0064262Y0066294D02*
X00656673Y00676993D01*
X0064262Y0056007D02*
Y0066294D01*
Y0056007D02*
X00651308Y00551382D01*
X00760437Y00241677D02*
X0079791Y00204205D01*
Y00138788D02*
Y00204205D01*
X00739342Y001524D02*
X00752953Y00138788D01*
X00255969Y00298271D02*
X0026101Y00293231D01*
X00279023Y0032385D02*
X00393853D01*
X0031242Y00329505D02*
X00398457D01*
X00242058Y00352548D02*
X00255071Y00339535D01*
X00398457Y00329505D02*
X00404112Y0032385D01*
X00281365Y00329505D02*
X0031242D01*
X00202193Y00578571D02*
X00226755Y00554009D01*
X00202193Y00598672D02*
X00207368Y00603847D01*
X00202193Y00578571D02*
Y00598672D01*
X0023241Y0037846D02*
Y0055583D01*
X00207861Y00580379D02*
Y00595951D01*
Y00580379D02*
X0023241Y0055583D01*
X00207861Y00595951D02*
X0021072Y0059881D01*
X00213476D01*
X00213666Y00599D01*
X00226755Y00376118D02*
Y00554009D01*
Y00376118D02*
X00279023Y0032385D01*
X0023241Y0037846D02*
X00281365Y00329505D01*
X0013081Y0080518D02*
X0014605Y0082042D01*
X0013081Y0071651D02*
Y0080518D01*
X001119Y006976D02*
X0013081Y0071651D01*
X00634704Y00687705D02*
X00678815D01*
X0061849Y00671491D02*
X00634704Y00687705D01*
X0061849Y00561691D02*
Y00671491D01*
X00678815Y00687705D02*
X0070358Y0071247D01*
Y0080772D01*
X001119Y003674D02*
X0012883Y0038433D01*
X00248641Y00806881D02*
X0024892Y0080716D01*
X00121721Y00354934D02*
X0013462Y00367832D01*
X00098967Y00354934D02*
X00121721D01*
X000865Y003674D02*
X00098967Y00354934D01*
X00651308Y00551382D02*
X00681099D01*
X0059055Y0049022D02*
X0065151Y0055118D01*
X00580109Y0042418D02*
X0059055Y00434621D01*
Y0049022D01*
X004953Y0064008D02*
X0054102D01*
X0048768Y0063246D02*
X004953Y0064008D01*
X0045974Y0063246D02*
X0048768D01*
X00421322Y00198D02*
X00421386Y00197936D01*
X00659635D02*
X00666149Y0020445D01*
X00421386Y00197936D02*
X00659635D01*
X0042145Y00069532D02*
X00659699D01*
X00666213Y00076047D01*
X00421386Y00069596D02*
X0042145Y00069532D01*
X00255071Y00332881D02*
Y00339535D01*
X00242058Y00352548D02*
Y00352758D01*
D22*
X0092Y00774959D02*
G03*
X00904Y00757071I00002J-00017889D01*
G01*
X0092Y00868058D02*
G03*
X00898151Y00889999I-00022J-00000058D01*
G01*
X00714287Y00874D02*
G03*
X00731782Y00889996I-00000394J00017996D01*
G01*
X00904Y00147952D02*
G03*
X0092Y00130112I00018J00000048D01*
G01*
X00898Y0001D02*
G03*
X0092Y00032I0J00022D01*
G01*
X00731889Y0001D02*
G03*
X00714285Y00025998I-00017889J-00002D01*
G01*
X00198005Y00889996D02*
G03*
X00215608Y00873998I00017889J00002D01*
G01*
X00031627Y00889997D02*
G03*
X0001Y00868I00000373J-00021997D01*
G01*
X00215606Y00025996D02*
G03*
X00198111Y0001I00000394J-00017996D01*
G01*
X0001Y00032D02*
G03*
X00032Y0001I00022J0D01*
G01*
X0092Y00836297D02*
Y00845297D01*
Y00827297D02*
Y00836297D01*
Y00845297D02*
Y00854297D01*
Y00800297D02*
Y00809297D01*
Y00818297D02*
Y00827297D01*
Y00809297D02*
Y00818297D01*
Y00854297D02*
Y00868058D01*
Y00782297D02*
Y00791297D01*
Y00774959D02*
Y00782297D01*
Y00791297D02*
Y00800297D01*
X00904Y00751978D02*
X00904Y00757016D01*
X00904Y00742978D02*
X00904Y00751978D01*
X00904Y00733978D02*
Y00742978D01*
X00904Y00724978D02*
X00904Y00733978D01*
X00904Y00679978D02*
Y00688978D01*
X0087125Y00889996D02*
X0088025D01*
X0088925D01*
X0086225D02*
X0087125D01*
X0088925D02*
X00897893D01*
X0083525D02*
X0084425D01*
X0085325D01*
X0082625D02*
X0083525D01*
X0081725D02*
X0082625D01*
X0085325D02*
X0086225D01*
X00904Y00697978D02*
Y00706978D01*
Y00715978D01*
Y00688978D02*
Y00697978D01*
Y00715978D02*
X00904Y00724978D01*
X00904Y00670978D02*
Y00679978D01*
Y00661978D02*
Y00670978D01*
X00904Y00589979D02*
Y00598979D01*
Y00454979D02*
Y00463979D01*
Y00445979D02*
Y00454979D01*
Y00463979D02*
Y00472979D01*
Y00418979D02*
Y00427979D01*
Y00436979D02*
Y00445979D01*
Y00427979D02*
Y00436979D01*
Y00472979D02*
Y00481979D01*
Y00616978D02*
Y00625979D01*
Y00607979D02*
Y00616978D01*
Y00652978D02*
X00904Y00661978D01*
X00904Y00625979D02*
Y00634978D01*
Y00580979D02*
Y00589979D01*
Y00571979D02*
Y00580979D01*
Y00598979D02*
Y00607979D01*
Y00634978D02*
Y00643979D01*
Y00652978D01*
Y00517979D02*
Y00526979D01*
Y00508979D02*
Y00517979D01*
Y00535979D02*
Y00544979D01*
Y00526979D02*
Y00535979D01*
Y00490979D02*
Y00499979D01*
Y00481979D02*
Y00490979D01*
Y00499979D02*
Y00508979D01*
Y00553979D02*
Y00562979D01*
Y00544979D02*
Y00553979D01*
Y00562979D02*
Y00571979D01*
X0079925Y00889996D02*
X0080825D01*
X0078125D02*
X0079025D01*
X0079925D01*
X0080825D02*
X0081725D01*
X0074525D02*
X0075425D01*
X0077225D02*
X0078125D01*
X00731782D02*
X0074525D01*
X0076325D02*
X0077225D01*
X0075425D02*
X0076325D01*
X00705901Y00873996D02*
X00713993D01*
X00696901D02*
X00705901D01*
X00678901D02*
X00687901D01*
X00696901D01*
X00669901D02*
X00678901D01*
X00552902D02*
X00561902D01*
X00543902D02*
X00552902D01*
X00534902D02*
X00543902D01*
X00525902D02*
X00534902D01*
X00624902D02*
X00633901D01*
X00642901D02*
X00651901D01*
X00633901D02*
X00642901D01*
X00615901D02*
X00624902D01*
X00651901D02*
X00660901D01*
X00669901D01*
X00579902D02*
X00588901D01*
X00570902D02*
X00579902D01*
X00561902D02*
X00570902D01*
X00606902D02*
X00615901D01*
X00588901D02*
X00597901D01*
X00606902D01*
X00904Y00292979D02*
Y00301979D01*
Y00409979D02*
Y00418979D01*
Y00400979D02*
Y00409979D01*
Y00283979D02*
Y00292979D01*
Y00274979D02*
Y00283979D01*
Y00229979D02*
Y00238979D01*
Y00220979D02*
Y00229979D01*
Y00238979D02*
Y00247979D01*
Y00193979D02*
Y00202979D01*
Y00211979D02*
Y00220979D01*
Y00202979D02*
Y00211979D01*
Y00247979D02*
Y00256979D01*
Y00265979D02*
Y00274979D01*
Y00256979D02*
Y00265979D01*
Y00382979D02*
Y00391979D01*
Y00373979D02*
Y00382979D01*
Y00391979D02*
Y00400979D01*
Y00355979D02*
Y00364979D01*
Y00346979D02*
Y00355979D01*
Y00364979D02*
Y00373979D01*
Y00328979D02*
Y00337979D01*
Y00319979D02*
Y00328979D01*
Y00337979D02*
Y00346979D01*
Y00301979D02*
Y00310979D01*
Y00319979D01*
X0092Y00119626D02*
Y00130112D01*
Y00110626D02*
Y00119626D01*
Y00101626D02*
Y00110626D01*
X00904Y00157979D02*
Y00166979D01*
Y00148D02*
Y00157979D01*
X0092Y00065626D02*
Y00074626D01*
Y00056626D02*
Y00065626D01*
Y00083626D02*
Y00092626D01*
Y00074626D02*
Y00083626D01*
Y00032D02*
Y00038626D01*
Y00047626D01*
Y00056626D01*
Y00092626D02*
Y00101626D01*
X00904Y00166979D02*
Y00175979D01*
Y00184979D02*
Y00193979D01*
Y00175979D02*
Y00184979D01*
X00857685Y0001D02*
X00866685D01*
X00848685D02*
X00857685D01*
X00884685D02*
X00898D01*
X00866685D02*
X00875685D01*
X00884685D01*
X00812685D02*
X00821685D01*
X00794685D02*
X00803685D01*
X00812685D01*
X00839685D02*
X00848685D01*
X00830685D02*
X00839685D01*
X00821685D02*
X00830685D01*
X00702872Y00026002D02*
X00713994Y00026002D01*
X00693872Y00026002D02*
X00702872Y00026002D01*
X00684872Y00026002D02*
X00693872Y00026002D01*
X00675872Y00026002D02*
X00684872Y00026002D01*
X00767685Y0001D02*
X00776685D01*
X00785685D01*
X00758685D02*
X00767685D01*
X00785685D02*
X00794685D01*
X00740685D02*
X00749685D01*
X00731889D02*
X00740685D01*
X00749685D02*
X00758685D01*
X00666872Y00026002D02*
X00675872Y00026002D01*
X00657872Y00026001D02*
X00666872Y00026002D01*
X00648872Y00026001D02*
X00657872Y00026001D01*
X00639872Y00026001D02*
X00648872Y00026001D01*
X00630872Y00026001D02*
X00639872Y00026001D01*
X00621872Y00026001D02*
X00630872Y00026001D01*
X00612872Y00026001D02*
X00621872Y00026001D01*
X00603872Y00026001D02*
X00612872Y00026001D01*
X00594872Y00026001D02*
X00603872Y00026001D01*
X00585872Y00026001D02*
X00594872Y00026001D01*
X00576872Y00026001D02*
X00585872Y00026001D01*
X00567872Y00026001D02*
X00576872Y00026001D01*
X00558872Y00026D02*
X00567872Y00026001D01*
X00549872Y00026D02*
X00558872Y00026D01*
X00540872Y00026D02*
X00549872Y00026D01*
X00531872Y00026D02*
X00540872Y00026D01*
X00522872Y00026D02*
X00531872Y00026D01*
X00471902Y00873996D02*
X00480902D01*
X00462902D02*
X00471902D01*
X00453902D02*
X00462902D01*
X00435902D02*
X00444902D01*
X00453902D01*
X00426902D02*
X00435902D01*
X00489902D02*
X00498902D01*
X00507902D01*
X00480902D02*
X00489902D01*
X00516902D02*
X00525902D01*
X00507902D02*
X00516902D01*
X00420147Y00873996D02*
X00426902Y00873996D01*
X00408902Y00873996D02*
X00420147Y00873996D01*
X00399902Y00873996D02*
X00408902Y00873996D01*
X00390902Y00873996D02*
X00399902Y00873996D01*
X00381902Y00873996D02*
X00390902Y00873996D01*
X00372902Y00873996D02*
X00381902Y00873996D01*
X00363902Y00873996D02*
X00372902Y00873996D01*
X00354902Y00873995D02*
X00363902Y00873996D01*
X00345902Y00873995D02*
X00354902Y00873995D01*
X00336902Y00873995D02*
X00345902Y00873995D01*
X00327902Y00873995D02*
X00336902Y00873995D01*
X00318902Y00873995D02*
X00327902Y00873995D01*
X00309902Y00873995D02*
X00318902Y00873995D01*
X00300902Y00873995D02*
X00309902Y00873995D01*
X00291902Y00873995D02*
X00300902Y00873995D01*
X00282902Y00873995D02*
X00291902Y00873995D01*
X00273902Y00873995D02*
X00282902Y00873995D01*
X00264902Y00873995D02*
X00273902Y00873995D01*
X00172023Y00889996D02*
X00181023D01*
X00154023D02*
X00163023D01*
X00172023D01*
X00181023D02*
X00190023D01*
X00127023D02*
X00136023D01*
X00145023D01*
X00118023D02*
X00127023D01*
X00145023D02*
X00154023D01*
X00255902Y00873995D02*
X00264902Y00873995D01*
X00246902Y00873994D02*
X00255902Y00873995D01*
X00237902Y00873994D02*
X00246902Y00873994D01*
X00228902Y00873994D02*
X00237902Y00873994D01*
X00190023Y00889996D02*
X00198005D01*
X00215899Y00873994D02*
X00228902Y00873994D01*
X00091023Y00889996D02*
X00100023D01*
X00082023D02*
X00091023D01*
X00073023D02*
X00082023D01*
X00109023D02*
X00118023D01*
X00100023D02*
X00109023D01*
X00055023D02*
X00064023D01*
X00031745D02*
X00037023D01*
X00046023D01*
X00064023D02*
X00073023D01*
X00046023D02*
X00055023D01*
X0001Y00826087D02*
Y00835087D01*
Y00844087D01*
Y00853087D02*
Y00862087D01*
Y00868D01*
Y00844087D02*
Y00853087D01*
Y00817087D02*
Y00826087D01*
X00396872Y00026D02*
X00405872D01*
X00468872D02*
X00477872D01*
X00509746D02*
X00522872Y00026D01*
X00459872Y00026D02*
X00468872D01*
X00495872D02*
X00509746D01*
X00477872D02*
X00486872D01*
X00495872D01*
X00414872D02*
X00423872D01*
X00432872D01*
X00405872D02*
X00414872D01*
X00441872D02*
X00450872D01*
X00459872D01*
X00432872D02*
X00441872D01*
X00351872D02*
X00360872D01*
X00369872D01*
X00342872D02*
X00351872D01*
X00333872D02*
X00342872D01*
X00387872D02*
X00396872D01*
X00369872D02*
X00378872D01*
X00387872D01*
X00306873D02*
X00315872D01*
X00288873D02*
X00297873D01*
X00306873D01*
X00315872D02*
X00324873D01*
X00333872D01*
X00009999Y00085525D02*
Y00094525D01*
Y00076525D02*
Y00085525D01*
Y00058525D02*
Y00067525D01*
Y00076525D01*
X00261873Y00026D02*
X00270873D01*
X00279872D01*
X00252873D02*
X00261873D01*
X00279872D02*
X00288873D01*
X00234873D02*
X00243873D01*
X00252873D01*
X002159Y00026D02*
X00225873Y00026D01*
X00234873D01*
X00169431Y0001D02*
X00178431D01*
X0018743D02*
X00198111D01*
X00178431D02*
X0018743D01*
X00151431D02*
X00160431D01*
X00169431D01*
X00142431D02*
X00151431D01*
X00061431D02*
X00070431D01*
X00009999Y00040525D02*
Y00049525D01*
Y00058525D01*
Y00032133D02*
Y00040525D01*
X00097431Y0001D02*
X00106431D01*
X00115431D01*
X00088431D02*
X00097431D01*
X00133431D02*
X00142431D01*
X00115431D02*
X00124431D01*
X00133431D01*
X00032D02*
X00043431D01*
X00052431D01*
X00070431D02*
X00079431D01*
X00088431D01*
X00052431D02*
X00061431D01*
D116*
X00365356Y00200301D02*
X00390227D01*
X00401195Y00211269D02*
X00489222D01*
X00503958Y00226005D01*
X00390227Y00200301D02*
X00401195Y00211269D01*
X00390227Y00071961D02*
X00401195Y00082929D01*
X00489222D02*
X00503958Y00097665D01*
X00401195Y00082929D02*
X00489222D01*
X00365356Y00071961D02*
X00390227D01*
D117*
X00111759Y001388D02*
Y00138941D01*
X00223822Y00274633D02*
X00332499D01*
X00345544Y00287678D01*
X00328826Y00278413D02*
X00341817Y00291404D01*
X00222257Y00278413D02*
X00328826D01*
X0012079Y00176947D02*
X00222257Y00278413D01*
X00113389Y001642D02*
X00223822Y00274633D01*
X00245655Y00310726D02*
X00414745D01*
X00158054Y00398327D02*
X00245655Y00310726D01*
X00413293Y00314233D02*
X00452301Y00353241D01*
X0016156Y0039978D02*
X00247107Y00314233D01*
X00413293D01*
X00414745Y00310726D02*
X00453753Y00349734D01*
X00145702Y00574847D02*
X00152886D01*
X00154338Y00578354D02*
X0016156Y00571131D01*
X00145702Y00578354D02*
X00154338D01*
X00152886Y00574847D02*
X00158054Y00569679D01*
Y00398327D02*
Y00569679D01*
X0016156Y0039978D02*
Y00571131D01*
X00143666Y0058039D02*
X00145702Y00578354D01*
X00143666Y00572811D02*
X00145702Y00574847D01*
X0014351Y0058039D02*
X00143666D01*
X0014351Y00572811D02*
X00143666D01*
X00105368Y00145332D02*
X00111759Y00138941D01*
X00099042Y00151517D02*
X00105227Y00145332D01*
X00099042Y00151517D02*
Y0017054D01*
X00105227Y00145332D02*
X00105368D01*
X00105448Y00176947D02*
X0012079D01*
X001119Y001642D02*
X00113389D01*
X00099042Y0017054D02*
X00105448Y00176947D01*
X00551716Y00353241D02*
X0055371Y00355234D01*
X00452301Y00353241D02*
X00551716D01*
X0055371Y00355234D02*
X00553908D01*
X00551875Y00349734D02*
X00553868Y00347741D01*
X00453753Y00349734D02*
X00551875D01*
X00553868Y00347741D02*
X00554067D01*
D123*
X0076311Y00466726D02*
D03*
X00819026Y00842982D02*
D03*
D124*
X0073771Y00466726D02*
D03*
X00666626Y00842982D02*
D03*
X00692026D02*
D03*
X00717426D02*
D03*
X00793626D02*
D03*
X00768226D02*
D03*
X00742826D02*
D03*
X00641226D02*
D03*
D125*
X000611Y00469D02*
D03*
X000865D02*
D03*
X000611Y004436D02*
D03*
X000357Y00469D02*
D03*
Y004436D02*
D03*
X000611Y004944D02*
D03*
X000357D02*
D03*
X000611Y005198D02*
D03*
X000357D02*
D03*
Y007484D02*
D03*
X000611D02*
D03*
X001119Y006976D02*
D03*
Y006722D02*
D03*
Y005198D02*
D03*
X000865D02*
D03*
X001119Y005452D02*
D03*
X000865D02*
D03*
X001119Y007484D02*
D03*
X000865D02*
D03*
X001119Y00469D02*
D03*
Y004436D02*
D03*
X000865D02*
D03*
Y002912D02*
D03*
X001119Y003166D02*
D03*
Y002912D02*
D03*
Y002658D02*
D03*
Y002404D02*
D03*
X000865Y001896D02*
D03*
X001119Y003928D02*
D03*
Y004182D02*
D03*
X000865Y003166D02*
D03*
X001119Y003674D02*
D03*
X000865D02*
D03*
Y003928D02*
D03*
Y004182D02*
D03*
X001119Y004944D02*
D03*
X000865D02*
D03*
X001119Y005706D02*
D03*
X000865D02*
D03*
Y006214D02*
D03*
Y006468D02*
D03*
X001119Y00723D02*
D03*
X000865D02*
D03*
X001119Y007738D02*
D03*
X000865D02*
D03*
Y001388D02*
D03*
Y001642D02*
D03*
X001119Y001896D02*
D03*
Y00215D02*
D03*
X000865D02*
D03*
Y002658D02*
D03*
Y002404D02*
D03*
Y006722D02*
D03*
Y006976D02*
D03*
X001119Y006214D02*
D03*
Y006468D02*
D03*
Y001642D02*
D03*
Y00342D02*
D03*
X000865D02*
D03*
Y00596D02*
D03*
X001119D02*
D03*
X000357Y005452D02*
D03*
X000611D02*
D03*
X000357Y006722D02*
D03*
X000611Y006468D02*
D03*
Y006722D02*
D03*
Y006976D02*
D03*
Y006214D02*
D03*
X000357Y006976D02*
D03*
X000611Y001642D02*
D03*
X000357Y002912D02*
D03*
X000611Y003166D02*
D03*
Y002912D02*
D03*
Y002658D02*
D03*
Y002404D02*
D03*
X000357Y001896D02*
D03*
Y003166D02*
D03*
X000611Y005706D02*
D03*
X000357D02*
D03*
Y006214D02*
D03*
Y006468D02*
D03*
X000611Y00723D02*
D03*
X000357D02*
D03*
X000611Y007738D02*
D03*
X000357D02*
D03*
Y001388D02*
D03*
Y001642D02*
D03*
X000611Y001896D02*
D03*
Y00215D02*
D03*
X000357D02*
D03*
Y002658D02*
D03*
Y002404D02*
D03*
X000611Y00596D02*
D03*
X000357D02*
D03*
Y00342D02*
D03*
X000611D02*
D03*
X000357Y003674D02*
D03*
Y003928D02*
D03*
Y004182D02*
D03*
X000611Y003928D02*
D03*
Y004182D02*
D03*
Y003674D02*
D03*
D126*
X00035446Y00088D02*
D03*
X00892746Y0085D02*
D03*
X0003556Y0082677D02*
D03*
X00893Y0005D02*
D03*
D127*
X001119Y001388D02*
D03*
X000611D02*
D03*
D128*
X0058862Y00510452D02*
D03*
X0086746Y0081D02*
D03*
X0088246Y0078D02*
D03*
Y0072D02*
D03*
Y0066D02*
D03*
X0086746Y0063D02*
D03*
X0088246Y006D02*
D03*
X0086746Y0057D02*
D03*
X0088246Y0054D02*
D03*
Y0048D02*
D03*
X0086746Y0045D02*
D03*
X0088246Y0036D02*
D03*
Y0024D02*
D03*
Y0012D02*
D03*
X0086746Y0009D02*
D03*
X0083746Y0087D02*
D03*
Y0081D02*
D03*
X0085246Y0078D02*
D03*
Y006D02*
D03*
X0083746Y0045D02*
D03*
X0085246Y0042D02*
D03*
Y003D02*
D03*
X0083746Y0027D02*
D03*
Y0015D02*
D03*
X0085246Y0012D02*
D03*
X0083746Y0009D02*
D03*
Y0003D02*
D03*
X0080746Y0087D02*
D03*
X0082246Y0078D02*
D03*
X0080746Y0075D02*
D03*
X0082246Y0042D02*
D03*
X0080746Y0003D02*
D03*
X0077746Y0087D02*
D03*
Y0069D02*
D03*
Y0063D02*
D03*
X0079246Y003D02*
D03*
X0077746Y0015D02*
D03*
Y0003D02*
D03*
X0074746Y0087D02*
D03*
Y0069D02*
D03*
X0076246Y0066D02*
D03*
X0074746Y0063D02*
D03*
X0076246Y006D02*
D03*
Y003D02*
D03*
X0074746Y0003D02*
D03*
X0071746Y0069D02*
D03*
X0073246Y0066D02*
D03*
X0071746Y0063D02*
D03*
X0073246Y006D02*
D03*
Y0036D02*
D03*
Y003D02*
D03*
X0070246Y0066D02*
D03*
X0068746Y0063D02*
D03*
X0067246Y0066D02*
D03*
Y006D02*
D03*
X0065746Y0057D02*
D03*
X0067246Y0048D02*
D03*
Y0018D02*
D03*
X0062746Y0075D02*
D03*
X0064246Y0048D02*
D03*
Y0018D02*
D03*
X0061246Y0084D02*
D03*
X0059746Y0081D02*
D03*
X0061246Y0018D02*
D03*
X0058246Y0084D02*
D03*
X0056746Y0081D02*
D03*
X0058246Y0078D02*
D03*
X0056746Y0075D02*
D03*
Y0057D02*
D03*
Y0045D02*
D03*
X0058246Y003D02*
D03*
Y0018D02*
D03*
X0055246Y0084D02*
D03*
X0053746Y0081D02*
D03*
X0055246Y0078D02*
D03*
X0053746Y0057D02*
D03*
X0055246Y0054D02*
D03*
X0053746Y0045D02*
D03*
Y0033D02*
D03*
X0055246Y003D02*
D03*
Y0018D02*
D03*
X0050746Y0081D02*
D03*
X0052246Y0078D02*
D03*
Y0054D02*
D03*
Y0048D02*
D03*
Y0042D02*
D03*
Y003D02*
D03*
Y0018D02*
D03*
X0049246Y0072D02*
D03*
X0047746Y0069D02*
D03*
X0049246Y006D02*
D03*
Y0048D02*
D03*
Y0042D02*
D03*
X0046246Y0072D02*
D03*
X0044746Y0063D02*
D03*
X0046246Y006D02*
D03*
Y0054D02*
D03*
X0041746Y0081D02*
D03*
X0043246Y0078D02*
D03*
X0041746Y0075D02*
D03*
Y0063D02*
D03*
X0043246Y006D02*
D03*
Y0054D02*
D03*
X0038746Y0075D02*
D03*
Y0069D02*
D03*
Y0063D02*
D03*
X0040246Y006D02*
D03*
X0038746Y0057D02*
D03*
Y0051D02*
D03*
X0037246Y0084D02*
D03*
Y0078D02*
D03*
X0035746Y0075D02*
D03*
X0037246Y0072D02*
D03*
X0035746Y0069D02*
D03*
X0037246Y0066D02*
D03*
Y006D02*
D03*
Y0054D02*
D03*
X0035746Y0045D02*
D03*
X0037246Y0018D02*
D03*
Y0006D02*
D03*
X0034246Y0084D02*
D03*
X0032746Y0057D02*
D03*
X0028246Y0084D02*
D03*
Y0042D02*
D03*
X0025246Y0084D02*
D03*
X0023746Y0075D02*
D03*
X0025246Y0042D02*
D03*
X0022246Y0084D02*
D03*
X0020746Y0015D02*
D03*
X0017746Y0087D02*
D03*
X0019246Y0072D02*
D03*
X0017746Y0003D02*
D03*
X0014746Y0087D02*
D03*
X0016246Y0006D02*
D03*
X0014746Y0003D02*
D03*
X0011746Y0087D02*
D03*
X0013246Y0084D02*
D03*
X0011746Y0081D02*
D03*
X0013246Y003D02*
D03*
Y0006D02*
D03*
X0011746Y0003D02*
D03*
X0008746Y0087D02*
D03*
X0010246Y0084D02*
D03*
X0008746Y0081D02*
D03*
X0010246Y0012D02*
D03*
Y0006D02*
D03*
X0008746Y0003D02*
D03*
X0005746Y0087D02*
D03*
X0007246Y0066D02*
D03*
Y0012D02*
D03*
Y0006D02*
D03*
X0005746Y0003D02*
D03*
X0002746Y0087D02*
D03*
Y0003D02*
D03*
X00548251Y0034493D02*
D03*
X00548092Y00358045D02*
D03*
X00124153Y001387D02*
D03*
X00125115Y00165872D02*
D03*
X00341817Y00291404D02*
D03*
X00338035Y00295513D02*
D03*
X00345544Y00287678D02*
D03*
X00349765Y00284146D02*
D03*
X00772735Y00720574D02*
D03*
X00499525Y0036263D02*
D03*
X00826745Y0064647D02*
D03*
X00275827Y00222994D02*
D03*
X00829209Y00631116D02*
D03*
X00172847Y00184159D02*
D03*
X0083409Y00662376D02*
D03*
X0083185Y0061468D02*
D03*
X00280925Y00102498D02*
D03*
X00325148Y00299271D02*
D03*
X0014351Y00565231D02*
D03*
Y00587969D02*
D03*
X0047498Y0079502D02*
D03*
X00204008Y00213176D02*
D03*
X00167538Y00453804D02*
D03*
X0014351Y00517852D02*
D03*
Y005377D02*
D03*
Y00547624D02*
D03*
Y00527776D02*
D03*
Y00507929D02*
D03*
Y00498005D02*
D03*
X00293431Y00655228D02*
D03*
X00205018Y00655267D02*
D03*
X00164612Y00655484D02*
D03*
X00147471Y0064591D02*
D03*
Y00655484D02*
D03*
Y00665059D02*
D03*
X00608295Y00654503D02*
D03*
X0052832Y0034036D02*
D03*
X00549031Y00370187D02*
D03*
X00559559Y0050276D02*
D03*
X00583629Y0067056D02*
D03*
X0060198Y00274225D02*
D03*
X00613092D02*
D03*
X00635317Y00274623D02*
D03*
X00624205D02*
D03*
X0064643D02*
D03*
Y00260022D02*
D03*
X0060198Y00259624D02*
D03*
X00613092D02*
D03*
X00624205Y00260022D02*
D03*
X00635317D02*
D03*
X00668655Y0026042D02*
D03*
X00657542Y00260022D02*
D03*
X00668655Y00275021D02*
D03*
X00657542Y00274623D02*
D03*
Y00146283D02*
D03*
X00679768Y00146681D02*
D03*
X00668655D02*
D03*
X0069088D02*
D03*
Y0012954D02*
D03*
X00657542Y00129142D02*
D03*
X00668655Y0012954D02*
D03*
X00679768D02*
D03*
X00635317Y00129142D02*
D03*
X00624205D02*
D03*
X00613092Y00128744D02*
D03*
X0060198D02*
D03*
X0064643Y00129142D02*
D03*
Y00146283D02*
D03*
X00624205D02*
D03*
X00635317D02*
D03*
X00613092Y00145885D02*
D03*
X0060198D02*
D03*
X00300286Y00054318D02*
D03*
X00320133D02*
D03*
X0031021D02*
D03*
X00349905D02*
D03*
X00330057D02*
D03*
X00339981D02*
D03*
X00279097Y0017226D02*
D03*
X00298945D02*
D03*
X00289021D02*
D03*
X00328717D02*
D03*
X00308869D02*
D03*
X00318793D02*
D03*
X00769614Y00497093D02*
D03*
X0078486Y0051217D02*
D03*
X00752557Y00529898D02*
D03*
X00731211Y00529613D02*
D03*
X0070993Y005207D02*
D03*
X00590935Y0031819D02*
D03*
X00554067Y00347741D02*
D03*
X00553908Y00355234D02*
D03*
X00397274Y00276873D02*
D03*
Y00286515D02*
D03*
X00213274Y0061422D02*
D03*
X00432743Y00239808D02*
D03*
X00442317D02*
D03*
X0043753Y0023221D02*
D03*
X00869479Y00614657D02*
D03*
X007493Y0080772D02*
D03*
X0071882D02*
D03*
X00620253Y00385485D02*
D03*
X00590834Y00386609D02*
D03*
X0079791Y00138788D02*
D03*
X0035883Y00342985D02*
D03*
X00368754D02*
D03*
X00378678D02*
D03*
X00347457Y00343223D02*
D03*
X00237881Y0017226D02*
D03*
X00267652D02*
D03*
X00247805D02*
D03*
X00257728D02*
D03*
X0067124Y0041402D02*
D03*
X0056807Y0048276D02*
D03*
X00432743Y000953D02*
D03*
Y00112441D02*
D03*
X00442317D02*
D03*
X0043753Y0010387D02*
D03*
X00442317Y000953D02*
D03*
X00432743Y0022364D02*
D03*
X00442317D02*
D03*
X00820502Y0006981D02*
D03*
X00798024D02*
D03*
X00775546D02*
D03*
X00753024Y00069767D02*
D03*
X00750902Y0035455D02*
D03*
Y00371691D02*
D03*
X00760476D02*
D03*
X00755689Y00363121D02*
D03*
X00760476Y0035455D02*
D03*
Y00207638D02*
D03*
X00755689Y00216209D02*
D03*
X00760476Y00224779D02*
D03*
X00750902D02*
D03*
Y00207638D02*
D03*
X0030683Y00298958D02*
D03*
X00436257Y0035474D02*
D03*
X00769717Y00503513D02*
D03*
X00810842Y00795289D02*
D03*
Y00777289D02*
D03*
X00626455Y00808098D02*
D03*
X0061049Y0080772D02*
D03*
X0068834D02*
D03*
X0065786D02*
D03*
X0064262D02*
D03*
X006731D02*
D03*
X0057912Y0074676D02*
D03*
X004948Y0082677D02*
D03*
X004352D02*
D03*
X00245922Y00567258D02*
D03*
X0016188Y00294297D02*
D03*
X00150873Y00294643D02*
D03*
X00166663Y00305134D02*
D03*
X00156739D02*
D03*
X00146815D02*
D03*
X00141346Y0037995D02*
D03*
X00141388Y00109507D02*
D03*
X00760437Y0038859D02*
D03*
X00216545Y00464312D02*
D03*
X00290377Y0035528D02*
D03*
X0028559Y0034671D02*
D03*
X00290377Y00338139D02*
D03*
X00280803D02*
D03*
Y0035528D02*
D03*
X0075565Y00250248D02*
D03*
X00760437Y00319909D02*
D03*
X00341795Y00453242D02*
D03*
X00337007Y00444672D02*
D03*
X00341795Y00436101D02*
D03*
X0033222D02*
D03*
Y00453242D02*
D03*
X00334658Y0023894D02*
D03*
X0034544Y00254309D02*
D03*
Y00234461D02*
D03*
Y00244385D02*
D03*
X0032385Y00254309D02*
D03*
Y00234461D02*
D03*
Y00244385D02*
D03*
X00752953Y00138788D02*
D03*
X00775431D02*
D03*
X00869479Y00646661D02*
D03*
X00833131Y00743949D02*
D03*
X00833332Y00679871D02*
D03*
Y00711726D02*
D03*
X00255969Y00298271D02*
D03*
X00672091Y00302863D02*
D03*
X00655433Y00303521D02*
D03*
X0070739Y00440431D02*
D03*
X00750863Y00241677D02*
D03*
X00760437D02*
D03*
X00669078Y00440431D02*
D03*
X0019922Y00204606D02*
D03*
X00213582Y00213176D02*
D03*
X00348669Y00153047D02*
D03*
X00358243D02*
D03*
X00377913Y00153445D02*
D03*
X00368339D02*
D03*
X00194433Y00213176D02*
D03*
X00208795Y00204606D02*
D03*
X00353456Y00272817D02*
D03*
X00348669Y00264246D02*
D03*
X00217049Y0029836D02*
D03*
X00226973D02*
D03*
X00236896D02*
D03*
X0014351Y0058039D02*
D03*
Y00572811D02*
D03*
X00177462Y00453804D02*
D03*
X00186883D02*
D03*
X00196697Y00453644D02*
D03*
Y00464312D02*
D03*
X00244116Y00333358D02*
D03*
X00244326Y00339863D02*
D03*
X00521968Y00328773D02*
D03*
X00393853Y0032385D02*
D03*
X00404112D02*
D03*
X00304639Y00323833D02*
D03*
X0031242Y00329505D02*
D03*
X00207368Y00603847D02*
D03*
X00213666Y00599D02*
D03*
X00255986Y00374486D02*
D03*
X00265561D02*
D03*
X00260773Y00383057D02*
D03*
X00206621Y00464312D02*
D03*
X00216545Y00453804D02*
D03*
X00206621D02*
D03*
X00186883Y00464312D02*
D03*
X00196697Y00476504D02*
D03*
X00191769Y00470447D02*
D03*
X00186883Y00476504D02*
D03*
X00456997Y00502849D02*
D03*
X00457327Y0041906D02*
D03*
X00246126Y00577262D02*
D03*
X00750863Y00337051D02*
D03*
X00760437D02*
D03*
X0024892Y0081407D02*
D03*
Y0080716D02*
D03*
X00298921Y00707338D02*
D03*
Y00697763D02*
D03*
X00307491Y00702551D02*
D03*
X0032504Y00691564D02*
D03*
X00316469Y00677203D02*
D03*
X00299328D02*
D03*
Y00686777D02*
D03*
X00316469D02*
D03*
X0033361Y00677203D02*
D03*
X0032504Y0068199D02*
D03*
X0033361Y00686777D02*
D03*
X00156042Y00669846D02*
D03*
Y00660272D02*
D03*
X00164612Y00665059D02*
D03*
X00681099Y00551382D02*
D03*
X00697036Y005207D02*
D03*
X0070358Y0080772D02*
D03*
X00580109Y0042418D02*
D03*
X00411271Y00405112D02*
D03*
X00465319D02*
D03*
X00449319D02*
D03*
X00427271D02*
D03*
X00633991Y00302863D02*
D03*
X00617991D02*
D03*
X0016002Y0077724D02*
D03*
Y0083174D02*
D03*
X00750863Y00172997D02*
D03*
Y00190138D02*
D03*
X00760437D02*
D03*
X0075565Y00181568D02*
D03*
X00760437Y00172997D02*
D03*
X00750863Y00319909D02*
D03*
X0075565Y0032848D02*
D03*
X00750863Y00258818D02*
D03*
X00760437D02*
D03*
Y00405731D02*
D03*
X0075565Y0039716D02*
D03*
X00750863Y0038859D02*
D03*
Y00405731D02*
D03*
X00365467Y0041243D02*
D03*
X00355893D02*
D03*
X0036068Y0040386D02*
D03*
X00365467Y00395289D02*
D03*
X00355893D02*
D03*
X00373673Y0037433D02*
D03*
X00383247D02*
D03*
X0037846Y0036576D02*
D03*
X00373673Y00357189D02*
D03*
X00383247D02*
D03*
X0053546Y00518539D02*
D03*
X00664725Y00509529D02*
D03*
X00648716Y0049276D02*
D03*
X00630936D02*
D03*
X00672071Y00543404D02*
D03*
X00173183Y00697763D02*
D03*
X00164612Y00702551D02*
D03*
X00156042Y00697763D02*
D03*
Y00707338D02*
D03*
X00173183D02*
D03*
X00324632Y00702551D02*
D03*
X00316062Y00707338D02*
D03*
X00333203D02*
D03*
X00333476Y00777115D02*
D03*
X0033401Y00794035D02*
D03*
X00333476Y00830575D02*
D03*
Y00814575D02*
D03*
X00429863Y00716947D02*
D03*
X0040259Y0068923D02*
D03*
Y0070612D02*
D03*
X0057404Y0070866D02*
D03*
X00458945Y008128D02*
D03*
X0057404Y00696912D02*
D03*
X00216545Y00476504D02*
D03*
X00193022Y00485996D02*
D03*
Y00495417D02*
D03*
X00198262Y00505232D02*
D03*
X00203502Y00534391D02*
D03*
X00198262Y00524576D02*
D03*
Y00515155D02*
D03*
X00203342Y00544315D02*
D03*
Y00554239D02*
D03*
X00353353Y0048909D02*
D03*
Y0047195D02*
D03*
X00362927D02*
D03*
X0035814Y0048052D02*
D03*
X00362927Y0048909D02*
D03*
X00686061Y00204387D02*
D03*
X00676137D02*
D03*
X00656289D02*
D03*
X00666213D02*
D03*
X00596746D02*
D03*
X00616594D02*
D03*
X0060667D02*
D03*
X00646365D02*
D03*
X00626517D02*
D03*
X00636441D02*
D03*
Y00076047D02*
D03*
X00626517D02*
D03*
X00646365D02*
D03*
X0060667D02*
D03*
X00616594D02*
D03*
X00596746D02*
D03*
X00666213D02*
D03*
X00656289D02*
D03*
X00676137D02*
D03*
X00686061D02*
D03*
X00421386Y00069596D02*
D03*
X00281547Y00298958D02*
D03*
X00298569Y00391627D02*
D03*
X00308144D02*
D03*
X00303357Y00383057D02*
D03*
X00298569Y00374486D02*
D03*
X00308144D02*
D03*
X00265561Y00391627D02*
D03*
X00255986D02*
D03*
X00242058Y00352758D02*
D03*
X00255193Y0033276D02*
D03*
X0024682Y0029836D02*
D03*
X00213582Y00196035D02*
D03*
X00194433D02*
D03*
X00204008D02*
D03*
X00156972Y00614172D02*
D03*
X00522429Y00451989D02*
D03*
Y00464689D02*
D03*
X00246126Y00477381D02*
D03*
Y00487304D02*
D03*
Y00507152D02*
D03*
Y00497228D02*
D03*
Y00517076D02*
D03*
X00245922Y00527562D02*
D03*
Y00537486D02*
D03*
Y0054741D02*
D03*
Y00557334D02*
D03*
X00368339Y00264644D02*
D03*
X00363605Y00272773D02*
D03*
X0029083Y00298958D02*
D03*
X00272265D02*
D03*
X00421386Y00197936D02*
D03*
X00382701Y00144875D02*
D03*
X00387488Y00153445D02*
D03*
Y00136304D02*
D03*
X00334301Y0019025D02*
D03*
X00324377D02*
D03*
X00373126Y00273215D02*
D03*
X00377913Y00264644D02*
D03*
X00382701Y00273215D02*
D03*
X00387488Y00264644D02*
D03*
X00365356Y00071961D02*
D03*
X00503958Y00097665D02*
D03*
X00365356Y00200301D02*
D03*
X00503958Y00226005D02*
D03*
X00344225Y0019025D02*
D03*
X00304529D02*
D03*
X00314453D02*
D03*
X00294606D02*
D03*
X00358243Y00264246D02*
D03*
X00294606Y00061911D02*
D03*
X0030418D02*
D03*
X00313755D02*
D03*
X00325076D02*
D03*
X0033465D02*
D03*
X00344225D02*
D03*
X00363605Y00144433D02*
D03*
X00348669Y00135906D02*
D03*
X00358243D02*
D03*
X00353456Y00144477D02*
D03*
X00373126Y00144875D02*
D03*
X00368339Y00136304D02*
D03*
X00377913D02*
D03*
X00213582Y00084836D02*
D03*
X00208795Y00076266D02*
D03*
X00213582Y00067695D02*
D03*
X00204008D02*
D03*
X00194433D02*
D03*
X0019922Y00076266D02*
D03*
X00204008Y00084836D02*
D03*
X00194433D02*
D03*
X00765786Y00757823D02*
D03*
X006731Y00763028D02*
D03*
X0045974Y0063246D02*
D03*
X0054102Y0064008D02*
D03*
X00052431Y00010171D02*
D03*
X00043431D02*
D03*
X00079431D02*
D03*
X00061431D02*
D03*
X00070431D02*
D03*
X00012229Y00022764D02*
D03*
X0001017Y00031525D02*
D03*
X00034431Y00010171D02*
D03*
X00017654Y00015583D02*
D03*
X00025484Y00011144D02*
D03*
X00142431Y00010171D02*
D03*
X00133431D02*
D03*
X00169431D02*
D03*
X00151431D02*
D03*
X00160431D02*
D03*
X00097431D02*
D03*
X00088431D02*
D03*
X00124431D02*
D03*
X00106431D02*
D03*
X00115431D02*
D03*
X00178431D02*
D03*
X0019643D02*
D03*
X0018743D02*
D03*
X00201502Y00017606D02*
D03*
X00208221Y00023593D02*
D03*
X00216873Y00026071D02*
D03*
X00270873Y0002617D02*
D03*
X00252873D02*
D03*
X00261873D02*
D03*
X00234873D02*
D03*
X00225873D02*
D03*
X00243873D02*
D03*
X00324873D02*
D03*
X00315872D02*
D03*
X00351872D02*
D03*
X00333872D02*
D03*
X00342872D02*
D03*
X00279873D02*
D03*
X00306873D02*
D03*
X00288873D02*
D03*
X00297873D02*
D03*
X0001017Y00058525D02*
D03*
Y00067525D02*
D03*
Y00040525D02*
D03*
Y00049525D02*
D03*
Y00085525D02*
D03*
Y00076525D02*
D03*
Y00094525D02*
D03*
X00414872Y0002617D02*
D03*
X00405872D02*
D03*
X00432872D02*
D03*
X00423872D02*
D03*
X00441872D02*
D03*
X00360872D02*
D03*
X00378872D02*
D03*
X00369872D02*
D03*
X00396872D02*
D03*
X00387872D02*
D03*
X00450872D02*
D03*
X00477872D02*
D03*
X00468872D02*
D03*
X00504872D02*
D03*
X00486872D02*
D03*
X00495872D02*
D03*
X00459872D02*
D03*
X00513872Y00026171D02*
D03*
X00522872Y00026171D02*
D03*
X00531872Y00026171D02*
D03*
X00540872Y00026171D02*
D03*
X00549872Y00026171D02*
D03*
X00558872Y00026171D02*
D03*
X00567872Y00026171D02*
D03*
X00010171Y00835087D02*
D03*
Y00826087D02*
D03*
Y00817087D02*
D03*
Y00853087D02*
D03*
Y00844087D02*
D03*
Y00862087D02*
D03*
X00010375Y00871085D02*
D03*
X00013495Y00879527D02*
D03*
X0001971Y00886037D02*
D03*
X0002803Y00889467D02*
D03*
X00046023Y00889826D02*
D03*
X00073023D02*
D03*
X00055023D02*
D03*
X00064023D02*
D03*
X00037023D02*
D03*
X00118023D02*
D03*
X00109023D02*
D03*
X00145023D02*
D03*
X00127023D02*
D03*
X00136023D02*
D03*
X00100023D02*
D03*
X00082023D02*
D03*
X00091023D02*
D03*
X00219902Y00873824D02*
D03*
X00228902Y00873824D02*
D03*
X00237902Y00873824D02*
D03*
X00246902Y00873824D02*
D03*
X00255902Y00873824D02*
D03*
X00172023Y00889826D02*
D03*
X00163023D02*
D03*
X00198744Y00887603D02*
D03*
X00181023Y00889826D02*
D03*
X00190023D02*
D03*
X00154023D02*
D03*
X00264902Y00873824D02*
D03*
X00273902Y00873824D02*
D03*
X00282902Y00873824D02*
D03*
X00291902Y00873824D02*
D03*
X00300902Y00873824D02*
D03*
X00203387Y00879893D02*
D03*
X00309902Y00873825D02*
D03*
X0021099Y00875078D02*
D03*
X00318902Y00873825D02*
D03*
X00327902Y00873825D02*
D03*
X00336902Y00873825D02*
D03*
X00345902Y00873825D02*
D03*
X00354902Y00873825D02*
D03*
X00363902Y00873825D02*
D03*
X00372902Y00873825D02*
D03*
X00381902Y00873825D02*
D03*
X00390902Y00873825D02*
D03*
X00399902Y00873825D02*
D03*
X00408902Y00873826D02*
D03*
X00435902Y00873826D02*
D03*
X00417902D02*
D03*
X00426902D02*
D03*
X00498902D02*
D03*
X00507902D02*
D03*
X00453902D02*
D03*
X00444902D02*
D03*
X00480902D02*
D03*
X00462902D02*
D03*
X00471902D02*
D03*
X00543902D02*
D03*
X00534902D02*
D03*
X00570902D02*
D03*
X00552902D02*
D03*
X00561902D02*
D03*
X00525902D02*
D03*
X00489902D02*
D03*
X00516902D02*
D03*
X00576872Y00026171D02*
D03*
X00585872Y00026171D02*
D03*
X00594872Y00026171D02*
D03*
X00603872Y00026171D02*
D03*
X00612872Y00026172D02*
D03*
X00621872Y00026172D02*
D03*
X00630872Y00026172D02*
D03*
X00639872Y00026172D02*
D03*
X00648872Y00026172D02*
D03*
X00657872Y00026172D02*
D03*
X00666872Y00026172D02*
D03*
X00675872Y00026172D02*
D03*
X00684872Y00026172D02*
D03*
X00693872Y00026172D02*
D03*
X00749685Y00010171D02*
D03*
X00767685D02*
D03*
X00758685D02*
D03*
X00785685D02*
D03*
X00776685D02*
D03*
X00812685D02*
D03*
X00794685D02*
D03*
X00803685D02*
D03*
X00702872Y00026172D02*
D03*
X00711872Y00026172D02*
D03*
X00731693Y0001055D02*
D03*
X00720652Y00024198D02*
D03*
X0072772Y00018625D02*
D03*
X00740685Y00010171D02*
D03*
X00830685D02*
D03*
X00821685D02*
D03*
X00866685D02*
D03*
X00839685D02*
D03*
X00875685D02*
D03*
X00884685D02*
D03*
X00893685D02*
D03*
X00857685D02*
D03*
X00848685D02*
D03*
X00902669Y00010701D02*
D03*
X00910898Y00014346D02*
D03*
X00916874Y00021076D02*
D03*
X00919681Y00029627D02*
D03*
X00919829Y00047626D02*
D03*
Y00083626D02*
D03*
Y00092626D02*
D03*
Y00056626D02*
D03*
Y00074626D02*
D03*
Y00065626D02*
D03*
Y00038626D02*
D03*
X00903829Y00166979D02*
D03*
Y00175979D02*
D03*
X00906356Y00140316D02*
D03*
X00903829Y00157979D02*
D03*
X00903919Y0014898D02*
D03*
X00903829Y00211979D02*
D03*
Y00220979D02*
D03*
Y00184979D02*
D03*
Y00202979D02*
D03*
Y00193979D02*
D03*
X00919829Y00101626D02*
D03*
Y00119626D02*
D03*
Y00110626D02*
D03*
X00912304Y00133562D02*
D03*
X00919829Y00128626D02*
D03*
X00903829Y00256979D02*
D03*
Y00265979D02*
D03*
Y00229979D02*
D03*
Y00247979D02*
D03*
Y00238979D02*
D03*
X00903829Y00310979D02*
D03*
Y00319979D02*
D03*
Y00283979D02*
D03*
Y00301979D02*
D03*
Y00292979D02*
D03*
Y00274979D02*
D03*
Y00355979D02*
D03*
Y00364979D02*
D03*
Y00328979D02*
D03*
Y00346979D02*
D03*
Y00337979D02*
D03*
Y00382979D02*
D03*
Y00391979D02*
D03*
Y00373979D02*
D03*
X00903829Y00490979D02*
D03*
Y00481979D02*
D03*
Y00427979D02*
D03*
Y00436979D02*
D03*
Y00400979D02*
D03*
Y00418979D02*
D03*
Y00409979D02*
D03*
Y00472979D02*
D03*
Y00445979D02*
D03*
Y00463979D02*
D03*
Y00454979D02*
D03*
X00597901Y00873826D02*
D03*
X00588901D02*
D03*
X00624902D02*
D03*
X00606902D02*
D03*
X00615901D02*
D03*
X00579902D02*
D03*
X00642901D02*
D03*
X00633901D02*
D03*
X00669901D02*
D03*
X00651901D02*
D03*
X00660901D02*
D03*
X00687901D02*
D03*
X00678901D02*
D03*
X00705901Y00873826D02*
D03*
X00696901Y00873826D02*
D03*
X00714897Y0087411D02*
D03*
X00723279Y00877388D02*
D03*
X0072941Y00883977D02*
D03*
X0073625Y00889826D02*
D03*
X0074525D02*
D03*
X0076325D02*
D03*
X0075425D02*
D03*
X0079025D02*
D03*
X0077225D02*
D03*
X0078125D02*
D03*
X00903829Y00499979D02*
D03*
Y00508979D02*
D03*
X00903829Y00526979D02*
D03*
Y00544979D02*
D03*
Y00535979D02*
D03*
Y00580979D02*
D03*
Y00589979D02*
D03*
Y00553979D02*
D03*
Y00571979D02*
D03*
Y00562979D02*
D03*
Y00517979D02*
D03*
Y00616978D02*
D03*
Y00625979D02*
D03*
Y00598979D02*
D03*
Y00607979D02*
D03*
X00903829Y00688978D02*
D03*
Y00724978D02*
D03*
Y00733978D02*
D03*
Y00697978D02*
D03*
Y00715978D02*
D03*
Y00706978D02*
D03*
Y00661978D02*
D03*
Y00670978D02*
D03*
Y00634978D02*
D03*
Y00652979D02*
D03*
Y00643979D02*
D03*
Y00679978D02*
D03*
X0080825Y00889826D02*
D03*
X0079925D02*
D03*
X0083525D02*
D03*
X0081725D02*
D03*
X0082625D02*
D03*
X0084425D02*
D03*
X0087125D02*
D03*
X0085325D02*
D03*
X0086225D02*
D03*
X00903829Y00742978D02*
D03*
Y00751978D02*
D03*
X00904767Y00760929D02*
D03*
X00909184Y00768771D02*
D03*
X00916575Y00773906D02*
D03*
X00919829Y00809297D02*
D03*
Y00800297D02*
D03*
Y00791297D02*
D03*
Y00782297D02*
D03*
X00919391Y00872287D02*
D03*
X00915867Y00880568D02*
D03*
X00919829Y00845297D02*
D03*
Y00863297D02*
D03*
Y00854297D02*
D03*
X0088025Y00889826D02*
D03*
X00909253Y00886672D02*
D03*
X0088925Y00889826D02*
D03*
X0089825Y00889848D02*
D03*
X00919829Y00818297D02*
D03*
Y00836297D02*
D03*
Y00827297D02*
D03*
M02*
