G04*
G04 #@! TF.GenerationSoftware,Altium Limited,Altium Designer,25.7.1 (20)*
G04*
G04 Layer_Color=128*
%FSLAX44Y44*%
%MOMM*%
G71*
G04*
G04 #@! TF.SameCoordinates,F25161A0-B78C-4874-AF2B-3454E01FF3B2*
G04*
G04*
G04 #@! TF.FilePolarity,Positive*
G04*
G01*
G75*
%ADD24C,1.0000*%
D24*
X920000Y868058D02*
G03*
X898151Y889999I-22000J-58D01*
G01*
X920000Y774959D02*
G03*
X904000Y757071I2000J-17889D01*
G01*
X714287Y874000D02*
G03*
X731782Y889996I-394J17996D01*
G01*
X904000Y147952D02*
G03*
X920000Y130112I18000J48D01*
G01*
X898000Y10000D02*
G03*
X920000Y32000I0J22000D01*
G01*
X731889Y10000D02*
G03*
X714285Y25998I-17889J-2000D01*
G01*
X198005Y889996D02*
G03*
X215608Y873998I17889J2000D01*
G01*
X31627Y889997D02*
G03*
X10000Y868000I373J-21997D01*
G01*
X215606Y25996D02*
G03*
X198111Y10000I394J-17996D01*
G01*
X10000Y32000D02*
G03*
X32000Y10000I22000J0D01*
G01*
X372902Y873996D02*
X381902Y873996D01*
X684872Y26002D02*
X693872Y26002D01*
X363902Y873996D02*
X372902Y873996D01*
X675872Y26002D02*
X684872Y26002D01*
X354902Y873995D02*
X363902Y873996D01*
X666872Y26002D02*
X675872Y26002D01*
X345902Y873995D02*
X354902Y873995D01*
X657872Y26001D02*
X666872Y26002D01*
X336902Y873995D02*
X345902Y873995D01*
X904000Y643979D02*
Y652978D01*
X648872Y26001D02*
X657872Y26001D01*
X327902Y873995D02*
X336902Y873995D01*
X904000Y445979D02*
Y454979D01*
Y634978D02*
Y643979D01*
X639872Y26001D02*
X648872Y26001D01*
X693872Y26002D02*
X702872Y26002D01*
X713994Y26002D01*
X696901Y873996D02*
X705901D01*
X713993D01*
X432872Y26000D02*
X441872D01*
X459872D02*
X468872D01*
X477872D01*
X318902Y873995D02*
X327902Y873995D01*
X904000Y409979D02*
Y418979D01*
Y427979D01*
Y436979D02*
Y445979D01*
Y625979D02*
Y634978D01*
X835250Y889996D02*
X844250D01*
X853250D01*
X871250D02*
X880250D01*
X594872Y26001D02*
X603872Y26001D01*
X621872Y26001D02*
X630872Y26001D01*
X639872Y26001D01*
X669901Y873996D02*
X678901D01*
X687901D01*
X696901D01*
X423872Y26000D02*
X432872D01*
X450872D02*
X459872D01*
X486872D02*
X495872D01*
X509746D01*
X309902Y873995D02*
X318902Y873995D01*
X920000Y119626D02*
Y130112D01*
X920000Y854297D02*
Y868058D01*
X904000Y292979D02*
Y301979D01*
Y310979D01*
Y319979D02*
Y328979D01*
Y400979D02*
Y409979D01*
Y427979D02*
Y436979D01*
Y562979D02*
Y571979D01*
Y607979D02*
Y616978D01*
Y625979D01*
X817250Y889996D02*
X826250D01*
X835250D01*
X853250D02*
X862250D01*
X871250D01*
X585872Y26001D02*
X594872Y26001D01*
X612872Y26001D02*
X621872Y26001D01*
X642901Y873996D02*
X651901D01*
X660901D01*
X669901D01*
X414872Y26000D02*
X423872D01*
X441872D02*
X450872D01*
X477872D02*
X486872D01*
X300902Y873995D02*
X309902Y873995D01*
X169431Y10000D02*
X178431D01*
X187430D01*
X198111D01*
X920000Y101626D02*
Y110626D01*
Y119626D01*
X920000Y845297D02*
Y854297D01*
X904000Y193979D02*
Y202979D01*
Y211979D02*
Y220979D01*
Y274979D02*
Y283979D01*
Y292979D01*
Y310979D02*
Y319979D01*
Y391979D02*
Y400979D01*
Y553979D02*
Y562979D01*
Y580979D02*
Y589979D01*
Y598979D01*
Y607979D01*
X904000Y706978D02*
Y715978D01*
X904000Y724978D01*
X808250Y889996D02*
X817250D01*
X576872Y26001D02*
X585872Y26001D01*
X603872Y26001D02*
X612872Y26001D01*
X471902Y873996D02*
X480902D01*
X516902D02*
X525902D01*
X579902D02*
X588901D01*
X606902D02*
X615901D01*
X633901D02*
X642901D01*
X405872Y26000D02*
X414872D01*
X255902Y873995D02*
X264902Y873995D01*
X291902Y873995D02*
X300902Y873995D01*
X390902Y873996D02*
X399902Y873996D01*
X115431Y10000D02*
X124431D01*
X151431D02*
X160431D01*
X169431D01*
X118023Y889996D02*
X127023D01*
X10000Y862087D02*
Y868000D01*
X920000Y92626D02*
Y101626D01*
X920000Y800297D02*
Y809297D01*
Y827297D02*
Y836297D01*
Y845297D01*
X904000Y184979D02*
Y193979D01*
Y202979D02*
Y211979D01*
Y238979D02*
Y247979D01*
Y256979D01*
Y265979D02*
Y274979D01*
Y373979D02*
Y382979D01*
Y391979D01*
Y517979D02*
Y526979D01*
Y544979D02*
Y553979D01*
Y571979D02*
Y580979D01*
X904000Y679978D02*
Y688978D01*
Y697978D01*
Y706978D01*
X875685Y10000D02*
X884685D01*
X781250Y889996D02*
X790250D01*
X799250D02*
X808250D01*
X540872Y26000D02*
X549872Y26000D01*
X567872Y26001D02*
X576872Y26001D01*
X462902Y873996D02*
X471902D01*
X489902D02*
X498902D01*
X507902D02*
X516902D01*
X570902D02*
X579902D01*
X588901D02*
X597901D01*
X606902D01*
X624902D02*
X633901D01*
X369872Y26000D02*
X378872D01*
X396872D02*
X405872D01*
X246902Y873994D02*
X255902Y873995D01*
X282902Y873995D02*
X291902Y873995D01*
X381902Y873996D02*
X390902Y873996D01*
X399902Y873996D02*
X408902Y873996D01*
X420147Y873996D01*
X106431Y10000D02*
X115431D01*
X124431D02*
X133431D01*
X142431D02*
X151431D01*
X55023Y889996D02*
X64023D01*
X82023D02*
X91023D01*
X109023D02*
X118023D01*
X136023D02*
X145023D01*
X154023D01*
X172023D02*
X181023D01*
X190023D01*
X198005D01*
X10000Y853087D02*
Y862087D01*
X9999Y67525D02*
Y76525D01*
X920000Y65626D02*
Y74626D01*
Y83626D01*
Y92626D01*
X920000Y791297D02*
Y800297D01*
Y818297D02*
Y827297D01*
X904000Y175979D02*
Y184979D01*
Y229979D02*
Y238979D01*
Y256979D02*
Y265979D01*
Y337979D02*
Y346979D01*
Y355979D01*
Y364979D02*
Y373979D01*
Y481979D02*
Y490979D01*
Y508979D02*
Y517979D01*
Y526979D02*
Y535979D01*
Y544979D01*
X904000Y670978D02*
Y679978D01*
X904000Y742978D02*
X904000Y751978D01*
X758685Y10000D02*
X767685D01*
X848685D02*
X857685D01*
X866685D01*
X875685D01*
X754250Y889996D02*
X763250D01*
X772250D02*
X781250D01*
X790250D02*
X799250D01*
X889250D02*
X897893D01*
X531872Y26000D02*
X540872Y26000D01*
X558872Y26000D02*
X567872Y26001D01*
X435902Y873996D02*
X444902D01*
X453902D01*
X462902D01*
X480902D02*
X489902D01*
X498902D02*
X507902D01*
X561902D02*
X570902D01*
X615901D02*
X624902D01*
X243873Y26000D02*
X252873D01*
X270873D02*
X279872D01*
X306873D02*
X315872D01*
X324873D01*
X333872D02*
X342872D01*
X351872D01*
X360872D02*
X369872D01*
X378872D02*
X387872D01*
X396872D01*
X237902Y873994D02*
X246902Y873994D01*
X273902Y873995D02*
X282902Y873995D01*
X79431Y10000D02*
X88431D01*
X97431D01*
X106431D01*
X133431D02*
X142431D01*
X46023Y889996D02*
X55023D01*
X64023D02*
X73023D01*
X82023D01*
X100023D02*
X109023D01*
X127023D02*
X136023D01*
X154023D02*
X163023D01*
X172023D01*
X10000Y835087D02*
Y844087D01*
Y853087D01*
X9999Y49525D02*
Y58525D01*
Y67525D01*
Y85525D02*
Y94525D01*
X920000Y38626D02*
Y47626D01*
Y56626D01*
Y65626D01*
X920000Y782297D02*
Y791297D01*
Y809297D02*
Y818297D01*
X904000Y157979D02*
Y166979D01*
Y175979D01*
Y220979D02*
Y229979D01*
Y328979D02*
Y337979D01*
Y355979D02*
Y364979D01*
Y454979D02*
Y463979D01*
Y472979D01*
Y481979D01*
Y490979D02*
Y499979D01*
Y508979D01*
Y652978D02*
X904000Y661978D01*
Y670978D01*
X904000Y724978D02*
X904000Y733978D01*
Y742978D01*
X904000Y751978D02*
X904000Y757016D01*
X740685Y10000D02*
X749685D01*
X758685D01*
X767685D02*
X776685D01*
X785685D01*
X794685D01*
X803685D01*
X812685D01*
X821685D01*
X830685D01*
X839685D01*
X848685D01*
X884685D02*
X898000D01*
X745250Y889996D02*
X754250D01*
X763250D02*
X772250D01*
X880250D02*
X889250D01*
X522872Y26000D02*
X531872Y26000D01*
X549872Y26000D02*
X558872Y26000D01*
X426902Y873996D02*
X435902D01*
X525902D02*
X534902D01*
X543902D01*
X552902D01*
X561902D01*
X225873Y26000D02*
X234873D01*
X243873D01*
X252873D02*
X261873D01*
X270873D01*
X279872D02*
X288873D01*
X297873D01*
X306873D01*
X324873D02*
X333872D01*
X351872D02*
X360872D01*
X228902Y873994D02*
X237902Y873994D01*
X264902Y873995D02*
X273902Y873995D01*
X43431Y10000D02*
X52431D01*
X61431D01*
X70431D01*
X79431D01*
X37023Y889996D02*
X46023D01*
X91023D02*
X100023D01*
X10000Y826087D02*
Y835087D01*
X9999Y40525D02*
Y49525D01*
Y76525D02*
Y85525D01*
X920000Y774959D02*
Y782297D01*
X731782Y889996D02*
X745250D01*
X904000Y148000D02*
Y157979D01*
X920000Y32000D02*
Y38626D01*
X731889Y10000D02*
X740685D01*
X420147Y873996D02*
X426902Y873996D01*
X215899Y873994D02*
X228902Y873994D01*
X31745Y889996D02*
X37023D01*
X10000Y817087D02*
Y826087D01*
X509746Y26000D02*
X522872Y26000D01*
X215900Y26000D02*
X225873Y26000D01*
X9999Y32133D02*
Y40525D01*
X32000Y10000D02*
X43431D01*
M02*
