M48
;Layer_Color=9474304
;FILE_FORMAT=4:2
METRIC,TZ
;TYPE=PLATED
T01F00S00C0.20
T02F00S00C0.30
T03F00S00C0.40
%
T01
X3607Y1422
X3988Y1867
Y1943
X4216
Y1867
X4460Y1867
Y1943
X4699Y1943
Y1867
X4915Y1384
X8738Y5194
X3238Y5867
X3188Y6033
X3340
X2807Y5972
X2864Y6160
X2337Y5537
X2350Y5397
Y5321
Y5245
Y5169
Y5093
Y5017
Y4928
X1689Y5626
X1727Y5969
X1651Y6033
T02
X1194Y533
X2061Y740
Y828
X2175
Y740
X1968Y1003
Y1092
X1981Y1206
Y1295
X2299Y2019
X2400
X2502
Y2134
X2400
X2299
X2095Y2705
Y2794
X2045Y2908
Y2997
X2249Y3223
Y3312
X2125Y3446
X2007Y3442
X3200Y2705
X3137Y2273
Y2146
X3162Y2032
X3048Y2083
X3734Y2261
X3899Y2400
Y2565
X3810Y2845
Y2921
X3721
Y2845
X3632
Y2921
Y3010
X3721
X3810
X3835Y1448
X3585Y828
Y740
X3470
Y828
X4305Y1092
X4407
Y1206
X4305
X4788Y1168
Y1270
Y1067
X4816Y828
Y740
X4702
Y828
X5782Y841
Y752
X5896
Y841
X5702Y1067
X5980Y1289
X5982Y1384
X5931Y1473
X6501Y1526
Y1640
Y1754
Y1856
X6640
Y1754
Y1640
Y1526
X6655Y1194
X6937Y828
Y740
X7052
Y828
X7175Y1473
X7865Y1895
X7837Y3305
X7722
Y3445
X7837
X5829Y3404
Y3505
X5893Y3674
X6007
Y3813
X5893
Y3953
X6007
X5664Y3912
Y3810
Y3696
Y3607
X5842Y3264
Y3162
X5169
X5093
X5017
X4940Y2680
X4839
X4724
X4610
Y2540
X4724
X4839
X4940
X4991Y2121
X4902Y2019
X5017Y1930
Y1816
Y1715
X5499Y2032
X5651Y2083
X5753
X5880
X5982
X5944Y2210
Y2324
X5804
Y2210
X5664
Y2324
X6121Y2045
X4483Y2286
Y2388
X8001Y2476
X8039Y2603
Y2718
Y2832
Y2921
X8128Y2667
X8217
X8103Y2324
Y2235
X8115Y2083
Y1981
X7979Y1895
X8077Y1727
Y1613
X8052Y1473
Y1384
X8166
Y1473
X8217Y787
Y597
X8446Y2159
X8217Y3213
X8128
X8090Y3327
Y3416
X8077Y3645
X7963
Y3759
X8076Y3761
X8039Y3899
X8446Y3569
X8039Y4001
X7988Y4978
Y5080
X8522Y4699
X8826Y5283
X8928Y5194
X8674Y6998
X8661Y7341
X7760Y7836
X7030Y7785
X6845Y7722
X6642Y7772
X6439Y7722
X6007Y6883
X5842
X6147Y6490
X5677Y5486
X5017
X4470Y5588
Y5715
Y5880
X4293Y5588
X4128
X4140Y6375
X4432Y6744
X4699Y7455
X4623Y5042
Y4915
X6083Y4902
X6363Y5017
X6325Y5169
X6502
X6566Y4991
X6680Y5397
X7036Y5359
Y5207
Y5042
Y4902
X7188
X7353
X7506
X7645
Y5067
Y5194
X7595Y4724
X7175Y5499
X5664Y4102
Y4001
X3340Y4648
Y4750
X3061Y4534
Y4445
X2934
Y4534
X2807Y4280
Y4178
X2705
Y4280
X2527Y4331
Y4420
X2400
Y4331
X2350Y4801
X2235
X2464
X1651Y5042
X1562
X1460Y5017
X1372
X3924Y5588
Y5715
Y5906
Y6083
Y6223
Y6375
X3670Y6401
X3454Y7252
X3456Y7364
Y7466
X3581Y7658
X2438Y7480
X2362
X3632Y8217
X4039
X4610Y8166
X5068Y8181
X5067Y8293
X5177Y8111
X5728Y7963
X5994Y8052
X6060Y8317
T03
X8052Y7722
X7925Y7836
X2603Y7861
X3096Y6696
X1588Y6693
X2502Y7963
X2388Y8217
Y8331
X3365Y8242
X8369Y8026
M30
