M48
;Layer_Color=9474304
;FILE_FORMAT=4:2
METRIC,TZ
;TYPE=PLATED
T01F00S00C0.20
T02F00S00C0.30
T04F00S00C0.80
T05F00S00C0.90
T06F00S00C1.00
T07F00S00C3.18
%
T01
X177Y156
X255Y111
X344Y102
X434
X524
X614
X704
X794
X884
X974
X1064
X1154
X1244
X1334
X1424
X1514
X1604
X1694
X1784
X1874
X1964
X2015Y176
X2082Y236
X2169Y261
X2259Y262
X2349
X2439
X2529
X2619
X2709
X2799
X2889
X2979
X3069
X3159
X3249
X3339
X3429
X3519
X3609
X3699
X3789
X3879
X3602Y1641
X102Y945
Y855
Y765
Y675
Y585
Y495
Y405
X102Y315
X122Y228
X3969Y262
X4059
X4149
X4239
X4329
X4419
X4509
X4599
X4689
X4779
X4869
X4959
X5049
X5139Y262
X5229Y262
X5319Y262
X5409Y262
X5499Y262
X5589Y262
X5679Y262
X5769Y262
X5859Y262
X5949Y262
X6039Y262
X6129Y262
X6219Y262
X6309Y262
X6399Y262
X6489Y262
X6579Y262
X6669Y262
X6759Y262
X6849Y262
X6939Y262
X7029Y262
X7119Y262
X7207Y242
X7277Y186
X7317Y105
X7407Y102
X7497
X7587
X7677
X7767
X7857
X7947
X8037
X8127
X8217
X8307
X8397
X8487
X8577
X8667
X8757
X8847
X8937
X9027Y107
X9109Y143
X9169Y211
X9197Y296
X9198Y386
Y476
Y566
Y656
Y746
Y836
Y926
Y1016
Y1106
Y1196
Y1286
X9123Y1336
X9064Y1403
X9039Y1490
X9038Y1580
Y1670
Y1760
Y1850
Y1940
Y2030
Y2120
Y2210
Y2300
Y2390
Y2480
Y2570
Y2660
X9038Y2750
Y2840
Y2930
Y3020
Y3110
Y3200
Y3290
Y3380
Y3470
Y3560
Y3650
Y3740
Y3830
Y3920
X9038Y4010
Y4100
Y4190
Y4280
Y4370
Y4460
Y4550
Y4640
Y4730
Y4820
Y4910
Y5000
Y5090
X9038Y5180
Y5270
Y5360
Y5450
Y5540
Y5630
Y5720
Y5810
Y5900
Y5990
Y6080
Y6170
Y6260
X9038Y6350
Y6440
Y6530
Y6620
Y6710
Y6800
Y6890
Y6980
Y7070
Y7160
Y7250
Y7340
Y7430
Y7520
X9048Y7609
X9092Y7688
X9166Y7739
X9198Y7823
Y7913
X2032Y5867
X1994Y5728
X2033Y5678
X2034Y8799
X1987Y8876
X1900Y8898
X1810
X1720
X1630
X1540
X1450
X1360
X1270
X1180
X1090
X1000
X910
X820
X730
X640
X550
X460
X370
X280Y8895
X197Y8860
X135Y8795
X104Y8711
X102Y8621
Y8531
Y8441
Y8351
Y8261
Y8171
X2110Y8751
X2199Y8738
X2289Y8738
X2379Y8738
X2469Y8738
X2559Y8738
X2649Y8738
X2739Y8738
X2829Y8738
X2919Y8738
X3009Y8738
X3099Y8738
X3189Y8738
X3279Y8738
X3369Y8738
X3459Y8738
X3549Y8738
X3639Y8738
X3729Y8738
X3819Y8738
X3909Y8738
X3999Y8738
X4089Y8738
X4179Y8738
X4269
X4359
X4449
X4539
X4629
X4719
X4809
X4899
X4989
X5079
X5169
X5259
X5349
X5439
X5529
X5619
X5709
X5799
X5889
X5979
X6069
X6159
X6249
X6339
X6429
X6519
X6609
X6699
X6789
X6879
X6969
X7059Y8738
X7149Y8741
X7233Y8774
X7294Y8840
X7363Y8898
X7453
X7543
X7633
X7723
X7813
X7903
X7993
X8082
X8172
X8262
X8352
X8442
X8532
X8622
X8712
X8802
X8892
X8982Y8898
X9093Y8867
X9159Y8806
X9194Y8723
X9198Y8633
Y8543
Y8453
Y8363
Y8273
Y8183
Y8093
Y8003
T02
X3378Y1194
X3569Y2642
X3899Y2667
X3962Y2743
X4890Y3200
X5283Y2502
X5499Y1359
X6452Y1206
X7175Y1626
X8407Y5880
X8268Y6274
Y6464
X8265Y6626
X8280Y7074
X8255Y7163
X8039Y7442
X6426Y7150
Y7023
X6375Y6744
X6439Y6629
X6441Y6543
X6336Y5905
X5791Y5982
Y6236
X5423
Y5982
X5766Y5283
X5982Y4623
X5459Y4625
X5283Y4623
X4826Y4580
X4737Y4521
X6835Y5396
X7442Y5588
X7544
X5499Y7455
X5321Y7836
X3569Y7772
X3518Y7709
X3505Y7849
Y7925
X2972Y7633
Y7493
X3226Y6871
Y6744
X1740Y7315
X1460Y5804
X2223Y8064
X5427Y8106
X7645Y8026
T04
X6426Y8204
X6626
X6826
X7026
X7039Y8471
X6839
X6639
X6439
T05
X357Y1388
X611
X865
Y1642
Y1896
X1119
Y2150
Y2404
Y2658
Y2912
X865
Y3166
X1119
Y3420
Y3674
Y3928
X865
Y3674
Y3420
X611
Y3166
Y2912
X357
Y3166
Y3420
Y3674
Y3928
X611
Y3674
Y2658
X865
Y2404
Y2150
X611
Y2404
X357
Y2150
Y1896
Y1642
X611
Y1896
X1119Y1642
Y1388
X357Y2658
Y4182
Y4436
X611
Y4690
Y4944
X357
Y5198
X611
X865
X1119
Y5452
X865
Y5706
X1119
Y5960
Y6214
X865
Y6468
Y6722
X1119
Y6976
Y7230
Y7484
X865
X611
X357
Y7230
Y6976
Y6722
X611
Y6468
Y6214
X357
Y6468
Y5960
Y5706
Y5452
X611
Y5706
Y5960
X865
X1119Y6468
X865Y6976
Y7230
X611
Y6976
Y7738
X865
X1119
X357
Y4690
X865
X1119
Y4436
X865
Y4182
X1119
X611
X865Y4944
X1119
T06
X1651Y787
X1905
X3073
X3327
X4280
X4534
X5372
X5626
X6553
X6807
T07
X354Y880
X8930Y500
X356Y8268
X8927Y8500
M30
