G04*
G04 #@! TF.GenerationSoftware,Altium Limited,Altium Designer,25.7.1 (20)*
G04*
G04 Layer_Physical_Order=3*
G04 Layer_Color=16440176*
%FSLAX44Y44*%
%MOMM*%
G71*
G04*
G04 #@! TF.SameCoordinates,F25161A0-B78C-4874-AF2B-3454E01FF3B2*
G04*
G04*
G04 #@! TF.FilePolarity,Positive*
G04*
G01*
G75*
%ADD140C,0.3810*%
%ADD141C,0.5080*%
%ADD145O,1.6000X1.8000*%
G04:AMPARAMS|DCode=146|XSize=1.8mm|YSize=1.6mm|CornerRadius=0.4mm|HoleSize=0mm|Usage=FLASHONLY|Rotation=90.000|XOffset=0mm|YOffset=0mm|HoleType=Round|Shape=RoundedRectangle|*
%AMROUNDEDRECTD146*
21,1,1.8000,0.8000,0,0,90.0*
21,1,1.0000,1.6000,0,0,90.0*
1,1,0.8000,0.4000,0.5000*
1,1,0.8000,0.4000,-0.5000*
1,1,0.8000,-0.4000,-0.5000*
1,1,0.8000,-0.4000,0.5000*
%
%ADD146ROUNDEDRECTD146*%
%ADD148C,1.4000*%
%ADD149C,1.5300*%
%ADD150R,1.4000X1.4000*%
%ADD151R,1.5300X1.5300*%
%ADD152C,0.6000*%
%ADD153C,0.4000*%
%ADD154C,0.8000*%
%ADD155C,4.4000*%
G36*
X845820Y837291D02*
X845942Y834801D01*
X846914Y829918D01*
X848819Y825318D01*
X851585Y821177D01*
X853260Y819331D01*
X859790Y812800D01*
Y812800D01*
X861051Y811657D01*
X863878Y809768D01*
X867019Y808467D01*
X870354Y807803D01*
X872054Y807720D01*
X889000D01*
Y449580D01*
X883920Y444500D01*
X218440D01*
Y501650D01*
X214630Y505460D01*
X172720D01*
X168910Y501650D01*
Y434340D01*
X179070Y424180D01*
Y190500D01*
X184150Y185420D01*
X439420D01*
X444500Y180340D01*
Y84492D01*
X443616Y82359D01*
X443271Y79740D01*
Y77740D01*
X443616Y75121D01*
X444500Y72988D01*
Y60960D01*
X440690Y57150D01*
X405130D01*
X401320Y60960D01*
X401320Y118110D01*
X386080Y133350D01*
X146050D01*
X137160Y142240D01*
Y863600D01*
X845820D01*
Y837291D01*
D02*
G37*
G36*
X214630Y499110D02*
Y233680D01*
X219710Y228600D01*
X476250D01*
X480060Y224790D01*
X480060Y191770D01*
X477520Y189230D01*
X185420D01*
X182880Y191770D01*
Y426720D01*
X172720Y436880D01*
Y499110D01*
X175260Y501650D01*
X212090D01*
X214630Y499110D01*
D02*
G37*
G36*
X848360Y438150D02*
Y408940D01*
X847090Y407670D01*
X816610D01*
X806450Y397510D01*
Y293439D01*
X817949Y281940D01*
X852170Y281940D01*
X854710Y279400D01*
Y259080D01*
X852170Y256540D01*
X676910Y256540D01*
X673100Y252730D01*
X673100Y86289D01*
X671957Y84799D01*
X670946Y82359D01*
X670602Y79740D01*
Y77740D01*
X670946Y75121D01*
X671957Y72681D01*
X673100Y71191D01*
Y64770D01*
X665480Y57150D01*
X628650Y57150D01*
X623570Y62230D01*
X623570Y266700D01*
X619760Y270510D01*
X426720D01*
X424180Y273050D01*
X424180Y290830D01*
X426720Y293370D01*
X737870D01*
X750570Y306070D01*
Y435610D01*
X756920Y441960D01*
X844550D01*
X848360Y438150D01*
D02*
G37*
G36*
X393700Y368300D02*
Y360680D01*
X417830Y336550D01*
Y269239D01*
X422909Y264160D01*
X612140D01*
X615950Y260350D01*
Y60960D01*
X624840Y52070D01*
X670560D01*
X683260Y64770D01*
Y67956D01*
X683339Y67966D01*
X685779Y68977D01*
X687875Y70585D01*
X689483Y72681D01*
X690494Y75121D01*
X690839Y77740D01*
Y79740D01*
X690494Y82359D01*
X689483Y84799D01*
X687875Y86895D01*
X685779Y88503D01*
X683339Y89514D01*
X683260Y89524D01*
X683260Y243840D01*
X688340Y248920D01*
X852170D01*
X859790Y256540D01*
Y280670D01*
X854710Y285750D01*
X820420D01*
X811530Y294640D01*
Y331470D01*
X885190D01*
X887730Y328930D01*
X887730Y122281D01*
X887730Y119779D01*
X886754Y114872D01*
X884839Y110250D01*
X882059Y106089D01*
X880291Y104320D01*
X858339Y82369D01*
X856665Y80522D01*
X853899Y76382D01*
X851994Y71782D01*
X851022Y66899D01*
X850900Y64409D01*
Y38100D01*
X523240D01*
X509270Y52070D01*
Y231140D01*
X504190Y236220D01*
X374650D01*
X361950Y248920D01*
X336550D01*
X304800Y280670D01*
Y367030D01*
X312420Y374650D01*
X387350D01*
X393700Y368300D01*
D02*
G37*
%LPC*%
G36*
X705079Y856122D02*
X702701D01*
X700404Y855507D01*
X698344Y854317D01*
X696663Y852636D01*
X695473Y850576D01*
X694858Y848279D01*
X692922D01*
X692307Y850576D01*
X691117Y852636D01*
X689436Y854317D01*
X687376Y855507D01*
X685079Y856122D01*
X682701D01*
X680404Y855507D01*
X678344Y854317D01*
X676663Y852636D01*
X675473Y850576D01*
X674858Y848279D01*
Y845901D01*
X675473Y843604D01*
X676663Y841544D01*
X678344Y839863D01*
X680404Y838673D01*
X682701Y838058D01*
X685079D01*
X687376Y838673D01*
X689436Y839863D01*
X691117Y841544D01*
X692307Y843604D01*
X692922Y845901D01*
X694858D01*
X695473Y843604D01*
X696663Y841544D01*
X698344Y839863D01*
X700404Y838673D01*
X702701Y838058D01*
X705079D01*
X707376Y838673D01*
X709436Y839863D01*
X711117Y841544D01*
X712307Y843604D01*
X712922Y845901D01*
Y848279D01*
X712307Y850576D01*
X711117Y852636D01*
X709436Y854317D01*
X707376Y855507D01*
X705079Y856122D01*
D02*
G37*
G36*
X652922D02*
X634858D01*
Y838058D01*
X652922D01*
Y856122D01*
D02*
G37*
G36*
X711652Y829452D02*
X693588D01*
Y822235D01*
X691556Y821967D01*
X691037Y823906D01*
X689847Y825966D01*
X688166Y827647D01*
X686106Y828837D01*
X683809Y829452D01*
X681431D01*
X679134Y828837D01*
X677074Y827647D01*
X675393Y825966D01*
X674203Y823906D01*
X673588Y821609D01*
X671652D01*
X671037Y823906D01*
X669847Y825966D01*
X668166Y827647D01*
X666106Y828837D01*
X663809Y829452D01*
X661431D01*
X659134Y828837D01*
X657074Y827647D01*
X655393Y825966D01*
X654203Y823906D01*
X653588Y821609D01*
X651652D01*
X651037Y823906D01*
X649847Y825966D01*
X648166Y827647D01*
X646106Y828837D01*
X643809Y829452D01*
X641431D01*
X639134Y828837D01*
X637074Y827647D01*
X635393Y825966D01*
X634203Y823906D01*
X633588Y821609D01*
Y819231D01*
X634203Y816934D01*
X635393Y814874D01*
X637074Y813193D01*
X639134Y812003D01*
X641431Y811388D01*
X643809D01*
X646106Y812003D01*
X648166Y813193D01*
X649847Y814874D01*
X651037Y816934D01*
X651652Y819231D01*
X653588D01*
X654203Y816934D01*
X655393Y814874D01*
X657074Y813193D01*
X659134Y812003D01*
X661431Y811388D01*
X663809D01*
X666106Y812003D01*
X668166Y813193D01*
X669847Y814874D01*
X671037Y816934D01*
X671652Y819231D01*
X673588D01*
X674203Y816934D01*
X675393Y814874D01*
X677074Y813193D01*
X679134Y812003D01*
X681431Y811388D01*
X683809D01*
X686106Y812003D01*
X688166Y813193D01*
X689847Y814874D01*
X691037Y816934D01*
X691556Y818873D01*
X693588Y818605D01*
Y811388D01*
X711652D01*
Y829452D01*
D02*
G37*
G36*
X543668Y815595D02*
X541666D01*
X539817Y814829D01*
X538401Y813413D01*
X537635Y811564D01*
Y809562D01*
X538401Y807713D01*
X539817Y806297D01*
X541666Y805531D01*
X543668D01*
X545517Y806297D01*
X546933Y807713D01*
X547699Y809562D01*
Y811564D01*
X546933Y813413D01*
X545517Y814829D01*
X543668Y815595D01*
D02*
G37*
G36*
X223251Y811482D02*
X221249D01*
X219400Y810716D01*
X217984Y809300D01*
X217218Y807451D01*
Y805449D01*
X217984Y803600D01*
X219400Y802184D01*
X221249Y801418D01*
X223251D01*
X225100Y802184D01*
X226516Y803600D01*
X227282Y805449D01*
Y807451D01*
X226516Y809300D01*
X225100Y810716D01*
X223251Y811482D01*
D02*
G37*
G36*
X765541Y807672D02*
X763539D01*
X761690Y806906D01*
X760274Y805490D01*
X759508Y803641D01*
Y801639D01*
X760274Y799790D01*
X761690Y798374D01*
X763539Y797608D01*
X765541D01*
X767390Y798374D01*
X768806Y799790D01*
X769572Y801639D01*
Y803641D01*
X768806Y805490D01*
X767390Y806906D01*
X765541Y807672D01*
D02*
G37*
G36*
X533131Y788622D02*
X531129D01*
X529280Y787856D01*
X527864Y786440D01*
X527098Y784591D01*
Y782589D01*
X527864Y780740D01*
X529280Y779324D01*
X531129Y778558D01*
X533131D01*
X534980Y779324D01*
X536396Y780740D01*
X537162Y782589D01*
Y784591D01*
X536396Y786440D01*
X534980Y787856D01*
X533131Y788622D01*
D02*
G37*
G36*
X351521Y797512D02*
X349519D01*
X347670Y796746D01*
X346254Y795330D01*
X345488Y793481D01*
Y791479D01*
X346254Y789630D01*
X347214Y788670D01*
X346254Y787710D01*
X345488Y785861D01*
Y783859D01*
X346254Y782010D01*
X347670Y780594D01*
X349519Y779828D01*
X350296D01*
X351779Y778302D01*
X351838Y777951D01*
Y776239D01*
X351626Y775922D01*
X350789D01*
X348940Y775156D01*
X347524Y773740D01*
X346758Y771891D01*
Y769889D01*
X347524Y768040D01*
X348940Y766624D01*
X350789Y765858D01*
X352791D01*
X354640Y766624D01*
X356056Y768040D01*
X356822Y769889D01*
Y771891D01*
X357034Y772208D01*
X357871D01*
X359720Y772974D01*
X361136Y774390D01*
X361902Y776239D01*
Y778241D01*
X361136Y780090D01*
X359720Y781506D01*
X357871Y782272D01*
X357094D01*
X355611Y783798D01*
X355552Y784149D01*
Y785861D01*
X354786Y787710D01*
X353826Y788670D01*
X354786Y789630D01*
X355552Y791479D01*
Y793481D01*
X354786Y795330D01*
X353370Y796746D01*
X351521Y797512D01*
D02*
G37*
G36*
X298181Y768302D02*
X296179D01*
X294330Y767536D01*
X292914Y766120D01*
X292148Y764271D01*
Y762269D01*
X292914Y760420D01*
X294330Y759004D01*
X296179Y758238D01*
X298181D01*
X300030Y759004D01*
X301446Y760420D01*
X302212Y762269D01*
Y764271D01*
X301446Y766120D01*
X300030Y767536D01*
X298181Y768302D01*
D02*
G37*
G36*
Y754332D02*
X296179D01*
X294330Y753566D01*
X292914Y752150D01*
X292148Y750301D01*
Y748299D01*
X292914Y746450D01*
X294330Y745034D01*
X296179Y744268D01*
X298181D01*
X300030Y745034D01*
X301446Y746450D01*
X302212Y748299D01*
Y750301D01*
X301446Y752150D01*
X300030Y753566D01*
X298181Y754332D01*
D02*
G37*
G36*
X550911Y750522D02*
X548909D01*
X547060Y749756D01*
X545644Y748340D01*
X544878Y746491D01*
Y744489D01*
X545644Y742640D01*
X547060Y741224D01*
X548909Y740458D01*
X550911D01*
X552760Y741224D01*
X554176Y742640D01*
X554942Y744489D01*
Y746491D01*
X554176Y748340D01*
X552760Y749756D01*
X550911Y750522D01*
D02*
G37*
G36*
X804911Y749252D02*
X802909D01*
X801060Y748486D01*
X799644Y747070D01*
X798878Y745221D01*
Y743219D01*
X799644Y741370D01*
X801060Y739954D01*
X802909Y739188D01*
X804911D01*
X806760Y739954D01*
X808176Y741370D01*
X808942Y743219D01*
Y745221D01*
X808176Y747070D01*
X806760Y748486D01*
X804911Y749252D01*
D02*
G37*
G36*
X174991Y736552D02*
X172989D01*
X171140Y735786D01*
X169724Y734370D01*
X168958Y732521D01*
Y730519D01*
X169724Y728670D01*
X171140Y727254D01*
X172989Y726488D01*
X174991D01*
X176840Y727254D01*
X178256Y728670D01*
X179022Y730519D01*
Y732521D01*
X178256Y734370D01*
X176840Y735786D01*
X174991Y736552D01*
D02*
G37*
G36*
X643621Y720042D02*
X641619D01*
X639770Y719276D01*
X638354Y717860D01*
X637588Y716011D01*
Y714009D01*
X638354Y712160D01*
X639770Y710744D01*
X641619Y709978D01*
X643621D01*
X645470Y710744D01*
X646886Y712160D01*
X647652Y714009D01*
Y716011D01*
X646886Y717860D01*
X645470Y719276D01*
X643621Y720042D01*
D02*
G37*
G36*
X826501Y721312D02*
X824499D01*
X822650Y720546D01*
X821234Y719130D01*
X820468Y717281D01*
Y715279D01*
X821234Y713430D01*
X822650Y712014D01*
X822667Y712007D01*
X823774Y710240D01*
X823008Y708391D01*
Y706389D01*
X823774Y704540D01*
X825190Y703124D01*
X827039Y702358D01*
X829041D01*
X830890Y703124D01*
X832306Y704540D01*
X833072Y706389D01*
Y708391D01*
X832306Y710240D01*
X830890Y711656D01*
X830873Y711663D01*
X829766Y713430D01*
X830532Y715279D01*
Y717281D01*
X829766Y719130D01*
X828350Y720546D01*
X826501Y721312D01*
D02*
G37*
G36*
X643621Y707342D02*
X641619D01*
X639770Y706576D01*
X638354Y705160D01*
X637588Y703311D01*
Y701309D01*
X638354Y699460D01*
X639770Y698044D01*
X641619Y697278D01*
X643621D01*
X645470Y698044D01*
X646886Y699460D01*
X647652Y701309D01*
Y703311D01*
X646886Y705160D01*
X645470Y706576D01*
X643621Y707342D01*
D02*
G37*
G36*
X323429Y691340D02*
X321731D01*
X320161Y690690D01*
X318960Y689489D01*
X318310Y687919D01*
Y686221D01*
X318960Y684651D01*
X320161Y683450D01*
X321731Y682800D01*
X323429D01*
X324999Y683450D01*
X326200Y684651D01*
X326850Y686221D01*
Y687919D01*
X326200Y689489D01*
X324999Y690690D01*
X323429Y691340D01*
D02*
G37*
G36*
Y678640D02*
X321731D01*
X320161Y677990D01*
X318960Y676789D01*
X318310Y675219D01*
Y673521D01*
X318960Y671951D01*
X320161Y670750D01*
X321731Y670100D01*
X323429D01*
X324999Y670750D01*
X326200Y671951D01*
X326850Y673521D01*
Y675219D01*
X326200Y676789D01*
X324999Y677990D01*
X323429Y678640D01*
D02*
G37*
G36*
X638541Y679402D02*
X636539D01*
X634690Y678636D01*
X633274Y677220D01*
X632508Y675371D01*
Y673369D01*
X633274Y671520D01*
X634690Y670104D01*
X636539Y669338D01*
X638541D01*
X640390Y670104D01*
X641806Y671520D01*
X642572Y673369D01*
Y675371D01*
X641806Y677220D01*
X640390Y678636D01*
X638541Y679402D01*
D02*
G37*
G36*
X827462Y667663D02*
X825460D01*
X823610Y666897D01*
X822195Y665481D01*
X821429Y663632D01*
Y661630D01*
X822195Y659780D01*
X823610Y658365D01*
X825460Y657599D01*
X827462D01*
X829311Y658365D01*
X830727Y659780D01*
X831493Y661630D01*
Y663632D01*
X830727Y665481D01*
X829311Y666897D01*
X827462Y667663D01*
D02*
G37*
G36*
X644891Y667972D02*
X642889D01*
X641040Y667206D01*
X639624Y665790D01*
X638858Y663941D01*
Y661939D01*
X639624Y660090D01*
X641040Y658674D01*
X639891Y657168D01*
X639851Y657127D01*
X639084Y655277D01*
Y653276D01*
X639851Y651426D01*
X641266Y650011D01*
X643115Y649244D01*
X645117D01*
X646967Y650011D01*
X648382Y651426D01*
X649148Y653276D01*
Y655277D01*
X648382Y657127D01*
X646967Y658542D01*
X648115Y660049D01*
X648156Y660090D01*
X648922Y661939D01*
Y663941D01*
X648156Y665790D01*
X646740Y667206D01*
X644891Y667972D01*
D02*
G37*
G36*
X827771Y651462D02*
X825769D01*
X823920Y650696D01*
X822504Y649280D01*
X821738Y647431D01*
Y645429D01*
X822504Y643580D01*
X823920Y642164D01*
X825769Y641398D01*
X827771D01*
X829620Y642164D01*
X831036Y643580D01*
X831802Y645429D01*
Y647431D01*
X831036Y649280D01*
X829620Y650696D01*
X827771Y651462D01*
D02*
G37*
G36*
Y632412D02*
X825769D01*
X823920Y631646D01*
X822504Y630230D01*
X821738Y628381D01*
Y626379D01*
X822504Y624530D01*
X823920Y623114D01*
X825769Y622348D01*
X827771D01*
X829620Y623114D01*
X831036Y624530D01*
X831802Y626379D01*
Y628381D01*
X831036Y630230D01*
X829620Y631646D01*
X827771Y632412D01*
D02*
G37*
G36*
X580121Y628602D02*
X578119D01*
X576270Y627836D01*
X574854Y626420D01*
X574088Y624571D01*
Y622569D01*
X574854Y620720D01*
X576270Y619304D01*
X578119Y618538D01*
X580121D01*
X581970Y619304D01*
X583386Y620720D01*
X584152Y622569D01*
Y624571D01*
X583386Y626420D01*
X581970Y627836D01*
X580121Y628602D01*
D02*
G37*
G36*
X543291D02*
X541289D01*
X539440Y627836D01*
X538024Y626420D01*
X537258Y624571D01*
Y622569D01*
X538024Y620720D01*
X539440Y619304D01*
X541289Y618538D01*
X543291D01*
X545140Y619304D01*
X546556Y620720D01*
X547322Y622569D01*
Y624571D01*
X546556Y626420D01*
X545140Y627836D01*
X543291Y628602D01*
D02*
G37*
G36*
X580121Y603202D02*
X578119D01*
X576270Y602436D01*
X574854Y601020D01*
X574088Y599171D01*
Y597169D01*
X574854Y595320D01*
X576270Y593904D01*
X578119Y593138D01*
X580121D01*
X581970Y593904D01*
X583386Y595320D01*
X584152Y597169D01*
Y599171D01*
X583386Y601020D01*
X581970Y602436D01*
X580121Y603202D01*
D02*
G37*
G36*
X543291D02*
X541289D01*
X539440Y602436D01*
X538024Y601020D01*
X537258Y599171D01*
Y597169D01*
X538024Y595320D01*
X539440Y593904D01*
X541289Y593138D01*
X543291D01*
X545140Y593904D01*
X546556Y595320D01*
X547322Y597169D01*
Y599171D01*
X546556Y601020D01*
X545140Y602436D01*
X543291Y603202D01*
D02*
G37*
G36*
X634620Y595542D02*
X632618D01*
X630769Y594776D01*
X629353Y593361D01*
X628587Y591511D01*
Y589510D01*
X629353Y587660D01*
X630769Y586245D01*
X632618Y585479D01*
X634620D01*
X636469Y586245D01*
X637885Y587660D01*
X638651Y589510D01*
Y591511D01*
X637885Y593361D01*
X636469Y594776D01*
X634620Y595542D01*
D02*
G37*
G36*
X841741Y593042D02*
X839739D01*
X837890Y592276D01*
X836474Y590860D01*
X835708Y589011D01*
Y587009D01*
X836474Y585160D01*
X837890Y583744D01*
X839739Y582978D01*
X841741D01*
X843590Y583744D01*
X845006Y585160D01*
X845772Y587009D01*
Y589011D01*
X845006Y590860D01*
X843590Y592276D01*
X841741Y593042D01*
D02*
G37*
G36*
X204002Y590772D02*
X202398D01*
X200916Y590158D01*
X199782Y589024D01*
X199168Y587542D01*
Y585938D01*
X199782Y584456D01*
X200916Y583322D01*
X202398Y582708D01*
X204002D01*
X205484Y583322D01*
X206618Y584456D01*
X207232Y585938D01*
Y587542D01*
X206618Y589024D01*
X205484Y590158D01*
X204002Y590772D01*
D02*
G37*
G36*
X147051Y585422D02*
X145049D01*
X143200Y584656D01*
X141784Y583240D01*
X141018Y581391D01*
Y579389D01*
X141784Y577540D01*
X143200Y576124D01*
X145049Y575358D01*
X147051D01*
X148900Y576124D01*
X150316Y577540D01*
X151082Y579389D01*
Y581391D01*
X150316Y583240D01*
X148900Y584656D01*
X147051Y585422D01*
D02*
G37*
G36*
X200192Y576802D02*
X198588D01*
X197106Y576188D01*
X195972Y575054D01*
X195358Y573572D01*
Y571968D01*
X195972Y570486D01*
X197106Y569352D01*
X198588Y568738D01*
X199165D01*
X199230Y568640D01*
Y567036D01*
X199844Y565554D01*
X200978Y564420D01*
X202460Y563806D01*
X204064D01*
X205546Y564420D01*
X206680Y565554D01*
X207294Y567036D01*
Y568640D01*
X206680Y570122D01*
X205546Y571256D01*
X204064Y571870D01*
X203487D01*
X203422Y571968D01*
Y573572D01*
X202808Y575054D01*
X201674Y576188D01*
X200192Y576802D01*
D02*
G37*
G36*
X755381Y563832D02*
X753379D01*
X751530Y563066D01*
X750518Y562054D01*
X749300Y561812D01*
X748082Y562054D01*
X747070Y563066D01*
X745221Y563832D01*
X743219D01*
X741370Y563066D01*
X739954Y561650D01*
X739188Y559801D01*
Y557799D01*
X739954Y555950D01*
X741370Y554534D01*
X743219Y553768D01*
X745221D01*
X747070Y554534D01*
X748082Y555546D01*
X749300Y555788D01*
X750518Y555546D01*
X751530Y554534D01*
X753379Y553768D01*
X755381D01*
X757230Y554534D01*
X758646Y555950D01*
X759412Y557799D01*
Y559801D01*
X758646Y561650D01*
X757230Y563066D01*
X755381Y563832D01*
D02*
G37*
G36*
X684451Y544592D02*
X682449D01*
X680600Y543826D01*
X679184Y542410D01*
X678418Y540561D01*
Y538559D01*
X679184Y536710D01*
X680600Y535294D01*
X682449Y534528D01*
X684451D01*
X686300Y535294D01*
X687716Y536710D01*
X688482Y538559D01*
Y540561D01*
X687716Y542410D01*
X686300Y543826D01*
X684451Y544592D01*
D02*
G37*
G36*
X577581Y533352D02*
X575579D01*
X573730Y532586D01*
X572314Y531170D01*
X571548Y529321D01*
Y527319D01*
X572314Y525470D01*
X573730Y524054D01*
X575579Y523288D01*
X577581D01*
X579430Y524054D01*
X580846Y525470D01*
X581612Y527319D01*
Y529321D01*
X580846Y531170D01*
X579430Y532586D01*
X577581Y533352D01*
D02*
G37*
G36*
X546911Y467502D02*
X544909D01*
X543060Y466736D01*
X541644Y465320D01*
X540878Y463471D01*
Y461469D01*
X541644Y459620D01*
X543060Y458204D01*
X544909Y457438D01*
X546911D01*
X548760Y458204D01*
X550176Y459620D01*
X550942Y461469D01*
Y463471D01*
X550176Y465320D01*
X548760Y466736D01*
X546911Y467502D01*
D02*
G37*
G36*
X599171Y467312D02*
X597169D01*
X595320Y466546D01*
X593904Y465130D01*
X593138Y463281D01*
Y461279D01*
X593904Y459430D01*
X595320Y458014D01*
X597169Y457248D01*
X599171D01*
X601020Y458014D01*
X602436Y459430D01*
X603202Y461279D01*
Y463281D01*
X602436Y465130D01*
X601020Y466546D01*
X599171Y467312D01*
D02*
G37*
G36*
X529321D02*
X527319D01*
X525470Y466546D01*
X524054Y465130D01*
X523288Y463281D01*
Y461279D01*
X524054Y459430D01*
X525470Y458014D01*
X527319Y457248D01*
X529321D01*
X531170Y458014D01*
X532586Y459430D01*
X533352Y461279D01*
Y463281D01*
X532586Y465130D01*
X531170Y466546D01*
X529321Y467312D01*
D02*
G37*
G36*
X483601Y462994D02*
X481599D01*
X479750Y462228D01*
X478334Y460812D01*
X477568Y458963D01*
Y458033D01*
X475611Y456779D01*
X474711Y457152D01*
X472709D01*
X470860Y456386D01*
X469444Y454970D01*
X468678Y453121D01*
Y451119D01*
X469444Y449270D01*
X470860Y447854D01*
X472709Y447088D01*
X474711D01*
X476560Y447854D01*
X477976Y449270D01*
X478742Y451119D01*
Y452049D01*
X480699Y453303D01*
X481599Y452930D01*
X483601D01*
X485450Y453696D01*
X486866Y455112D01*
X487632Y456961D01*
Y458963D01*
X486866Y460812D01*
X485450Y462228D01*
X483601Y462994D01*
D02*
G37*
G36*
X360974Y168116D02*
X359370D01*
X357888Y167502D01*
X356754Y166368D01*
X356140Y164886D01*
Y163282D01*
X356754Y161800D01*
X357888Y160666D01*
X359370Y160052D01*
X360974D01*
X362456Y160666D01*
X363590Y161800D01*
X364204Y163282D01*
Y164886D01*
X363590Y166368D01*
X362456Y167502D01*
X360974Y168116D01*
D02*
G37*
G36*
X646161Y125682D02*
X644159D01*
X642310Y124916D01*
X640894Y123500D01*
X640128Y121651D01*
Y119649D01*
X640894Y117800D01*
X642310Y116384D01*
X644159Y115618D01*
X646161D01*
X648010Y116384D01*
X649426Y117800D01*
X650192Y119649D01*
Y121651D01*
X649426Y123500D01*
X648010Y124916D01*
X646161Y125682D01*
D02*
G37*
G36*
X397241Y279352D02*
X395239D01*
X393390Y278586D01*
X391974Y277170D01*
X391208Y275321D01*
Y273609D01*
X391149Y273258D01*
X389666Y271732D01*
X388889D01*
X387040Y270966D01*
X385624Y269550D01*
X384858Y267701D01*
Y265699D01*
X385624Y263850D01*
X387040Y262434D01*
X388889Y261668D01*
X390891D01*
X392740Y262434D01*
X394156Y263850D01*
X394922Y265699D01*
Y267411D01*
X394981Y267762D01*
X396464Y269288D01*
X397241D01*
X399090Y270054D01*
X400506Y271470D01*
X401272Y273319D01*
Y275321D01*
X400506Y277170D01*
X399090Y278586D01*
X397241Y279352D01*
D02*
G37*
G36*
X357871Y269192D02*
X355869D01*
X354020Y268426D01*
X352604Y267010D01*
X351838Y265161D01*
Y263159D01*
X352604Y261310D01*
X354020Y259894D01*
X355869Y259128D01*
X357871D01*
X359720Y259894D01*
X361136Y261310D01*
X361902Y263159D01*
Y265161D01*
X361136Y267010D01*
X359720Y268426D01*
X357871Y269192D01*
D02*
G37*
G36*
X529321Y255222D02*
X527319D01*
X525470Y254456D01*
X524054Y253040D01*
X523288Y251191D01*
Y249189D01*
X524054Y247340D01*
X525470Y245924D01*
X527319Y245158D01*
X529321D01*
X531170Y245924D01*
X532586Y247340D01*
X533352Y249189D01*
Y251191D01*
X532586Y253040D01*
X531170Y254456D01*
X529321Y255222D01*
D02*
G37*
G36*
X718551Y167592D02*
X716549D01*
X714700Y166826D01*
X713284Y165410D01*
X712518Y163561D01*
Y161559D01*
X713284Y159710D01*
X714700Y158294D01*
X716549Y157528D01*
X718551D01*
X720400Y158294D01*
X721816Y159710D01*
X722582Y161559D01*
Y163561D01*
X721816Y165410D01*
X720400Y166826D01*
X718551Y167592D01*
D02*
G37*
G36*
X550911Y140922D02*
X548909D01*
X547060Y140156D01*
X545644Y138740D01*
X544878Y136891D01*
Y134889D01*
X545644Y133040D01*
X547060Y131624D01*
X548909Y130858D01*
X550911D01*
X552760Y131624D01*
X554176Y133040D01*
X554942Y134889D01*
Y136891D01*
X554176Y138740D01*
X552760Y140156D01*
X550911Y140922D01*
D02*
G37*
G36*
X562610Y89859D02*
X559991Y89514D01*
X557551Y88503D01*
X555455Y86895D01*
X553847Y84799D01*
X552836Y82359D01*
X552491Y79740D01*
Y77740D01*
X552836Y75121D01*
X553847Y72681D01*
X555455Y70585D01*
X557551Y68977D01*
X559991Y67966D01*
X562610Y67621D01*
X565229Y67966D01*
X567669Y68977D01*
X569765Y70585D01*
X571373Y72681D01*
X572384Y75121D01*
X572729Y77740D01*
Y79740D01*
X572384Y82359D01*
X571373Y84799D01*
X569765Y86895D01*
X567669Y88503D01*
X565229Y89514D01*
X562610Y89859D01*
D02*
G37*
%LPD*%
D140*
X326982Y239438D02*
X350857D01*
X311150Y255270D02*
X326982Y239438D01*
X292100Y274320D02*
X311150Y255270D01*
X292100Y274320D02*
Y373380D01*
X302260Y383540D01*
X393700D02*
X403860Y373380D01*
Y364490D02*
Y373380D01*
X302260Y383540D02*
X393700D01*
X393700D01*
D141*
Y443230D01*
X486409Y465534D02*
X489664Y462280D01*
X511810D01*
X416004Y465534D02*
X486409D01*
X393700Y443230D02*
X416004Y465534D01*
D145*
X190500Y78740D02*
D03*
X332740D02*
D03*
X562610D02*
D03*
X680720D02*
D03*
X453390D02*
D03*
D146*
X165100D02*
D03*
X307340D02*
D03*
X537210D02*
D03*
X655320D02*
D03*
X427990D02*
D03*
D148*
X683890Y847090D02*
D03*
X663890D02*
D03*
X682620Y820420D02*
D03*
X662620D02*
D03*
X642620D02*
D03*
X703890Y847090D02*
D03*
D149*
X61100Y748400D02*
D03*
X35700D02*
D03*
Y519800D02*
D03*
X61100D02*
D03*
X35700Y494400D02*
D03*
X61100D02*
D03*
Y469000D02*
D03*
Y443600D02*
D03*
X35700Y469000D02*
D03*
Y443600D02*
D03*
X86500Y469000D02*
D03*
X111900Y697600D02*
D03*
Y672200D02*
D03*
Y519800D02*
D03*
X86500D02*
D03*
X111900Y545200D02*
D03*
X86500D02*
D03*
X111900Y748400D02*
D03*
X86500D02*
D03*
X111900Y469000D02*
D03*
Y443600D02*
D03*
X86500D02*
D03*
Y291200D02*
D03*
X111900Y316600D02*
D03*
Y291200D02*
D03*
Y265800D02*
D03*
Y240400D02*
D03*
X86500Y189600D02*
D03*
X111900Y392800D02*
D03*
Y418200D02*
D03*
X86500Y316600D02*
D03*
X111900Y367400D02*
D03*
X86500D02*
D03*
Y392800D02*
D03*
Y418200D02*
D03*
X111900Y494400D02*
D03*
X86500D02*
D03*
X111900Y570600D02*
D03*
X86500D02*
D03*
Y621400D02*
D03*
Y646800D02*
D03*
X111900Y723000D02*
D03*
X86500D02*
D03*
X111900Y773800D02*
D03*
X86500D02*
D03*
Y138800D02*
D03*
Y164200D02*
D03*
X111900Y189600D02*
D03*
Y215000D02*
D03*
X86500D02*
D03*
Y265800D02*
D03*
Y240400D02*
D03*
Y672200D02*
D03*
Y697600D02*
D03*
X111900Y621400D02*
D03*
Y646800D02*
D03*
Y164200D02*
D03*
Y342000D02*
D03*
X86500D02*
D03*
Y596000D02*
D03*
X111900D02*
D03*
X35700Y545200D02*
D03*
X61100D02*
D03*
X35700Y672200D02*
D03*
X61100Y646800D02*
D03*
Y672200D02*
D03*
Y697600D02*
D03*
Y621400D02*
D03*
X35700Y697600D02*
D03*
X61100Y164200D02*
D03*
X35700Y291200D02*
D03*
X61100Y316600D02*
D03*
Y291200D02*
D03*
Y265800D02*
D03*
Y240400D02*
D03*
X35700Y189600D02*
D03*
Y316600D02*
D03*
X61100Y570600D02*
D03*
X35700D02*
D03*
Y621400D02*
D03*
Y646800D02*
D03*
X61100Y723000D02*
D03*
X35700D02*
D03*
X61100Y773800D02*
D03*
X35700D02*
D03*
Y138800D02*
D03*
Y164200D02*
D03*
X61100Y189600D02*
D03*
Y215000D02*
D03*
X35700D02*
D03*
Y265800D02*
D03*
Y240400D02*
D03*
X61100Y596000D02*
D03*
X35700D02*
D03*
Y342000D02*
D03*
X61100D02*
D03*
X35700Y367400D02*
D03*
Y392800D02*
D03*
Y418200D02*
D03*
X61100Y392800D02*
D03*
Y418200D02*
D03*
Y367400D02*
D03*
D150*
X702620Y820420D02*
D03*
X643890Y847090D02*
D03*
D151*
X111900Y138800D02*
D03*
X61100D02*
D03*
D152*
X350520Y784860D02*
D03*
Y792480D02*
D03*
X351790Y770890D02*
D03*
X356870Y777240D02*
D03*
X382270Y730250D02*
D03*
Y746760D02*
D03*
X642620Y715010D02*
D03*
X866736Y682821D02*
D03*
X867030Y664210D02*
D03*
X607060Y758190D02*
D03*
X567690Y826770D02*
D03*
X607060Y773430D02*
D03*
X557530Y792480D02*
D03*
X607060Y742950D02*
D03*
X562610Y722630D02*
D03*
X867410Y631190D02*
D03*
Y598170D02*
D03*
X702310Y549910D02*
D03*
X668020Y515620D02*
D03*
X562610Y532130D02*
D03*
X561340Y462280D02*
D03*
X543560Y722630D02*
D03*
X185420Y786130D02*
D03*
X511810Y462280D02*
D03*
X174460Y409628D02*
D03*
Y419788D02*
D03*
X163030Y409628D02*
D03*
Y419788D02*
D03*
X605790Y847090D02*
D03*
X298450Y778510D02*
D03*
X642620Y702310D02*
D03*
X421640Y214630D02*
D03*
X191770Y483870D02*
D03*
X180340D02*
D03*
X191770Y494030D02*
D03*
X180340D02*
D03*
X394970Y209550D02*
D03*
X445770Y215900D02*
D03*
X379730Y203200D02*
D03*
X410210Y219710D02*
D03*
X482600Y457962D02*
D03*
X637540Y674370D02*
D03*
X643890Y662940D02*
D03*
X473710Y452120D02*
D03*
X337820Y119380D02*
D03*
X549910Y135890D02*
D03*
X717550Y162560D02*
D03*
X645160Y120650D02*
D03*
X389890Y266700D02*
D03*
X356870Y264160D02*
D03*
X396240Y274320D02*
D03*
X146050Y580390D02*
D03*
X840740Y588010D02*
D03*
X826770Y627380D02*
D03*
Y646430D02*
D03*
X826461Y662631D02*
D03*
X754380Y558800D02*
D03*
X744220D02*
D03*
X532130Y783590D02*
D03*
X542667Y810563D02*
D03*
X633619Y590510D02*
D03*
X542290Y623570D02*
D03*
Y598170D02*
D03*
X579120Y623570D02*
D03*
Y598170D02*
D03*
X644116Y654276D02*
D03*
X297180Y749300D02*
D03*
Y763270D02*
D03*
X803910Y744220D02*
D03*
X764540Y802640D02*
D03*
X598170Y462280D02*
D03*
X549910Y745490D02*
D03*
X683450Y539560D02*
D03*
X528320Y462280D02*
D03*
X545910Y462470D02*
D03*
X488950Y320040D02*
D03*
X322580Y687070D02*
D03*
X173990Y731520D02*
D03*
X528320Y250190D02*
D03*
X576580Y528320D02*
D03*
X322580Y674370D02*
D03*
X222250Y806450D02*
D03*
X825500Y716280D02*
D03*
X828040Y707390D02*
D03*
D153*
X919829Y827297D02*
D03*
Y836297D02*
D03*
Y818297D02*
D03*
X898250Y889848D02*
D03*
X889250Y889826D02*
D03*
X909253Y886672D02*
D03*
X880250Y889826D02*
D03*
X919829Y854297D02*
D03*
Y863297D02*
D03*
Y845297D02*
D03*
X915867Y880568D02*
D03*
X919391Y872287D02*
D03*
X919829Y782297D02*
D03*
Y791297D02*
D03*
Y800297D02*
D03*
Y809297D02*
D03*
X916575Y773906D02*
D03*
X909184Y768771D02*
D03*
X904767Y760929D02*
D03*
X903829Y751978D02*
D03*
Y742978D02*
D03*
X862250Y889826D02*
D03*
X853250D02*
D03*
X871250D02*
D03*
X844250D02*
D03*
X826250D02*
D03*
X817250D02*
D03*
X835250D02*
D03*
X799250D02*
D03*
X808250D02*
D03*
X903829Y679978D02*
D03*
Y643979D02*
D03*
Y652979D02*
D03*
Y634978D02*
D03*
Y670978D02*
D03*
Y661978D02*
D03*
Y706978D02*
D03*
Y715978D02*
D03*
Y697978D02*
D03*
Y733978D02*
D03*
Y724978D02*
D03*
Y688978D02*
D03*
X903829Y607979D02*
D03*
Y598979D02*
D03*
Y625979D02*
D03*
Y616978D02*
D03*
Y517979D02*
D03*
Y562979D02*
D03*
Y571979D02*
D03*
Y553979D02*
D03*
Y589979D02*
D03*
Y580979D02*
D03*
Y535979D02*
D03*
Y544979D02*
D03*
Y526979D02*
D03*
X903829Y508979D02*
D03*
Y499979D02*
D03*
X781250Y889826D02*
D03*
X772250D02*
D03*
X790250D02*
D03*
X754250D02*
D03*
X763250D02*
D03*
X745250D02*
D03*
X736250D02*
D03*
X729410Y883977D02*
D03*
X723279Y877388D02*
D03*
X714897Y874110D02*
D03*
X696901Y873826D02*
D03*
X705901Y873826D02*
D03*
X678901Y873826D02*
D03*
X687901D02*
D03*
X660901D02*
D03*
X651901D02*
D03*
X669901D02*
D03*
X633901D02*
D03*
X642901D02*
D03*
X579902D02*
D03*
X615901D02*
D03*
X606902D02*
D03*
X624902D02*
D03*
X588901D02*
D03*
X597901D02*
D03*
X903829Y454979D02*
D03*
Y463979D02*
D03*
Y445979D02*
D03*
Y472979D02*
D03*
Y409979D02*
D03*
Y418979D02*
D03*
Y400979D02*
D03*
Y436979D02*
D03*
Y427979D02*
D03*
Y481979D02*
D03*
Y490979D02*
D03*
X903829Y373979D02*
D03*
Y391979D02*
D03*
Y382979D02*
D03*
Y337979D02*
D03*
Y346979D02*
D03*
Y328979D02*
D03*
Y364979D02*
D03*
Y355979D02*
D03*
Y274979D02*
D03*
Y292979D02*
D03*
Y301979D02*
D03*
Y283979D02*
D03*
Y319979D02*
D03*
Y310979D02*
D03*
X903829Y238979D02*
D03*
Y247979D02*
D03*
Y229979D02*
D03*
Y265979D02*
D03*
Y256979D02*
D03*
X919829Y128626D02*
D03*
X912304Y133562D02*
D03*
X919829Y110626D02*
D03*
Y119626D02*
D03*
Y101626D02*
D03*
X903829Y193979D02*
D03*
Y202979D02*
D03*
Y184979D02*
D03*
Y220979D02*
D03*
Y211979D02*
D03*
X903919Y148980D02*
D03*
X903829Y157979D02*
D03*
X906356Y140316D02*
D03*
X903829Y175979D02*
D03*
Y166979D02*
D03*
X919829Y38626D02*
D03*
Y65626D02*
D03*
Y74626D02*
D03*
Y56626D02*
D03*
Y92626D02*
D03*
Y83626D02*
D03*
Y47626D02*
D03*
X919681Y29627D02*
D03*
X916874Y21076D02*
D03*
X910898Y14346D02*
D03*
X902669Y10701D02*
D03*
X848685Y10171D02*
D03*
X857685D02*
D03*
X893685D02*
D03*
X884685D02*
D03*
X875685D02*
D03*
X839685D02*
D03*
X866685D02*
D03*
X821685D02*
D03*
X830685D02*
D03*
X740685D02*
D03*
X727720Y18625D02*
D03*
X720652Y24198D02*
D03*
X731693Y10550D02*
D03*
X711872Y26172D02*
D03*
X702872Y26172D02*
D03*
X803685Y10171D02*
D03*
X794685D02*
D03*
X812685D02*
D03*
X776685D02*
D03*
X785685D02*
D03*
X758685D02*
D03*
X767685D02*
D03*
X749685D02*
D03*
X693872Y26172D02*
D03*
X684872Y26172D02*
D03*
X675872Y26172D02*
D03*
X666872Y26172D02*
D03*
X657872Y26172D02*
D03*
X648872Y26172D02*
D03*
X639872Y26172D02*
D03*
X630872Y26172D02*
D03*
X621872Y26172D02*
D03*
X612872Y26172D02*
D03*
X603872Y26171D02*
D03*
X594872Y26171D02*
D03*
X585872Y26171D02*
D03*
X576872Y26171D02*
D03*
X516902Y873826D02*
D03*
X489902D02*
D03*
X525902D02*
D03*
X561902D02*
D03*
X552902D02*
D03*
X570902D02*
D03*
X534902D02*
D03*
X543902D02*
D03*
X471902D02*
D03*
X462902D02*
D03*
X480902D02*
D03*
X444902D02*
D03*
X453902D02*
D03*
X507902D02*
D03*
X498902D02*
D03*
X426902D02*
D03*
X417902D02*
D03*
X435902D02*
D03*
X408902Y873826D02*
D03*
X399902Y873825D02*
D03*
X390902Y873825D02*
D03*
X381902Y873825D02*
D03*
X372902Y873825D02*
D03*
X363902Y873825D02*
D03*
X354902Y873825D02*
D03*
X345902Y873825D02*
D03*
X336902Y873825D02*
D03*
X327902Y873825D02*
D03*
X318902Y873825D02*
D03*
X210990Y875078D02*
D03*
X309902Y873825D02*
D03*
X203387Y879893D02*
D03*
X300902Y873824D02*
D03*
X291902Y873824D02*
D03*
X282902Y873824D02*
D03*
X273902Y873824D02*
D03*
X264902Y873824D02*
D03*
X154023Y889826D02*
D03*
X190023D02*
D03*
X181023D02*
D03*
X198744Y887603D02*
D03*
X163023Y889826D02*
D03*
X172023D02*
D03*
X255902Y873824D02*
D03*
X246902Y873824D02*
D03*
X237902Y873824D02*
D03*
X228902Y873824D02*
D03*
X219902Y873824D02*
D03*
X91023Y889826D02*
D03*
X82023D02*
D03*
X100023D02*
D03*
X136023D02*
D03*
X127023D02*
D03*
X145023D02*
D03*
X109023D02*
D03*
X118023D02*
D03*
X37023D02*
D03*
X64023D02*
D03*
X55023D02*
D03*
X73023D02*
D03*
X46023D02*
D03*
X28030Y889467D02*
D03*
X19710Y886037D02*
D03*
X13495Y879527D02*
D03*
X10375Y871085D02*
D03*
X10171Y862087D02*
D03*
Y844087D02*
D03*
Y853087D02*
D03*
Y817087D02*
D03*
Y826087D02*
D03*
Y835087D02*
D03*
X567872Y26171D02*
D03*
X558872Y26171D02*
D03*
X549872Y26171D02*
D03*
X540872Y26171D02*
D03*
X531872Y26171D02*
D03*
X522872Y26171D02*
D03*
X513872Y26171D02*
D03*
X459872Y26170D02*
D03*
X495872D02*
D03*
X486872D02*
D03*
X504872D02*
D03*
X468872D02*
D03*
X477872D02*
D03*
X450872D02*
D03*
X387872D02*
D03*
X396872D02*
D03*
X369872D02*
D03*
X378872D02*
D03*
X360872D02*
D03*
X441872D02*
D03*
X423872D02*
D03*
X432872D02*
D03*
X405872D02*
D03*
X414872D02*
D03*
X10170Y94525D02*
D03*
Y76525D02*
D03*
Y85525D02*
D03*
Y49525D02*
D03*
Y40525D02*
D03*
Y67525D02*
D03*
Y58525D02*
D03*
X297873Y26170D02*
D03*
X288873D02*
D03*
X306873D02*
D03*
X279873D02*
D03*
X342872D02*
D03*
X333872D02*
D03*
X351872D02*
D03*
X315872D02*
D03*
X324873D02*
D03*
X243873D02*
D03*
X225873D02*
D03*
X234873D02*
D03*
X261873D02*
D03*
X252873D02*
D03*
X270873D02*
D03*
X216873Y26071D02*
D03*
X208221Y23593D02*
D03*
X201502Y17606D02*
D03*
X187430Y10171D02*
D03*
X196430D02*
D03*
X178431D02*
D03*
X115431D02*
D03*
X106431D02*
D03*
X124431D02*
D03*
X88431D02*
D03*
X97431D02*
D03*
X160431D02*
D03*
X151431D02*
D03*
X169431D02*
D03*
X133431D02*
D03*
X142431D02*
D03*
X25484Y11144D02*
D03*
X17654Y15583D02*
D03*
X34431Y10171D02*
D03*
X10170Y31525D02*
D03*
X12229Y22764D02*
D03*
X70431Y10171D02*
D03*
X61431D02*
D03*
X79431D02*
D03*
X43431D02*
D03*
X52431D02*
D03*
X360172Y164084D02*
D03*
X203200Y586740D02*
D03*
X199390Y572770D02*
D03*
X203262Y567838D02*
D03*
D154*
X302260Y825500D02*
D03*
X805180Y756920D02*
D03*
X614680Y662940D02*
D03*
X882650Y491490D02*
D03*
X865761Y491835D02*
D03*
X794218Y479993D02*
D03*
X582930Y558800D02*
D03*
X534670Y539750D02*
D03*
X444500Y687070D02*
D03*
X274320Y745490D02*
D03*
X215900Y749300D02*
D03*
X403860Y364490D02*
D03*
X350857Y239438D02*
D03*
X311150Y255270D02*
D03*
X582758Y461576D02*
D03*
X314960Y364490D02*
D03*
X431800Y284480D02*
D03*
X835660Y269240D02*
D03*
X847090D02*
D03*
X808990Y435610D02*
D03*
Y420370D02*
D03*
X826770Y435610D02*
D03*
Y420370D02*
D03*
X849630Y303530D02*
D03*
X840740Y323850D02*
D03*
X842010Y182880D02*
D03*
X838200Y152400D02*
D03*
X850900D02*
D03*
X844550Y140970D02*
D03*
D155*
X892746Y850000D02*
D03*
X893000Y50000D02*
D03*
X35560Y826770D02*
D03*
X35446Y88000D02*
D03*
M02*
