G04*
G04 #@! TF.GenerationSoftware,Altium Limited,Altium Designer,24.1.2 (44)*
G04*
G04 Layer_Color=128*
%FSTAX44Y44*%
%MOMM*%
G71*
G04*
G04 #@! TF.SameCoordinates,C06C466E-F32D-4BEE-90EE-EF79C529164A*
G04*
G04*
G04 #@! TF.FilePolarity,Positive*
G04*
G01*
G75*
%ADD23C,1.0000*%
D23*
X0092Y00774959D02*
G03*
X00904Y00757071I00002J-00017889D01*
G01*
X0092Y00868058D02*
G03*
X00898151Y00889999I-00022J-00000058D01*
G01*
X00714287Y00874D02*
G03*
X00731782Y00889996I-00000394J00017996D01*
G01*
X00904Y00147952D02*
G03*
X0092Y00130112I00018J00000048D01*
G01*
X00898Y0001D02*
G03*
X0092Y00032I0J00022D01*
G01*
X00731889Y0001D02*
G03*
X00714285Y00025998I-00017889J-00002D01*
G01*
X00198005Y00889996D02*
G03*
X00215608Y00873998I00017889J00002D01*
G01*
X00031627Y00889997D02*
G03*
X0001Y00868I00000373J-00021997D01*
G01*
X00215606Y00025996D02*
G03*
X00198111Y0001I00000394J-00017996D01*
G01*
X0001Y00032D02*
G03*
X00032Y0001I00022J0D01*
G01*
X0092Y00836297D02*
Y00845297D01*
Y00827297D02*
Y00836297D01*
Y00845297D02*
Y00854297D01*
Y00800297D02*
Y00809297D01*
Y00818297D02*
Y00827297D01*
Y00809297D02*
Y00818297D01*
Y00854297D02*
Y00868058D01*
Y00782297D02*
Y00791297D01*
Y00774959D02*
Y00782297D01*
Y00791297D02*
Y00800297D01*
X00904Y00751978D02*
X00904Y00757016D01*
X00904Y00742978D02*
X00904Y00751978D01*
X00904Y00733978D02*
Y00742978D01*
X00904Y00724978D02*
X00904Y00733978D01*
X00904Y00679978D02*
Y00688978D01*
X0087125Y00889996D02*
X0088025D01*
X0088925D01*
X0086225D02*
X0087125D01*
X0088925D02*
X00897893D01*
X0083525D02*
X0084425D01*
X0085325D01*
X0082625D02*
X0083525D01*
X0081725D02*
X0082625D01*
X0085325D02*
X0086225D01*
X00904Y00697978D02*
Y00706978D01*
Y00715978D01*
Y00688978D02*
Y00697978D01*
Y00715978D02*
X00904Y00724978D01*
X00904Y00670978D02*
Y00679978D01*
Y00661978D02*
Y00670978D01*
X00904Y00589979D02*
Y00598979D01*
Y00454979D02*
Y00463979D01*
Y00445979D02*
Y00454979D01*
Y00463979D02*
Y00472979D01*
Y00418979D02*
Y00427979D01*
Y00436979D02*
Y00445979D01*
Y00427979D02*
Y00436979D01*
Y00472979D02*
Y00481979D01*
Y00616978D02*
Y00625979D01*
Y00607979D02*
Y00616978D01*
Y00652978D02*
X00904Y00661978D01*
X00904Y00625979D02*
Y00634978D01*
Y00580979D02*
Y00589979D01*
Y00571979D02*
Y00580979D01*
Y00598979D02*
Y00607979D01*
Y00634978D02*
Y00643979D01*
Y00652978D01*
Y00517979D02*
Y00526979D01*
Y00508979D02*
Y00517979D01*
Y00535979D02*
Y00544979D01*
Y00526979D02*
Y00535979D01*
Y00490979D02*
Y00499979D01*
Y00481979D02*
Y00490979D01*
Y00499979D02*
Y00508979D01*
Y00553979D02*
Y00562979D01*
Y00544979D02*
Y00553979D01*
Y00562979D02*
Y00571979D01*
X0079925Y00889996D02*
X0080825D01*
X0078125D02*
X0079025D01*
X0079925D01*
X0080825D02*
X0081725D01*
X0074525D02*
X0075425D01*
X0077225D02*
X0078125D01*
X00731782D02*
X0074525D01*
X0076325D02*
X0077225D01*
X0075425D02*
X0076325D01*
X00705901Y00873996D02*
X00713993D01*
X00696901D02*
X00705901D01*
X00678901D02*
X00687901D01*
X00696901D01*
X00669901D02*
X00678901D01*
X00552902D02*
X00561902D01*
X00543902D02*
X00552902D01*
X00534902D02*
X00543902D01*
X00525902D02*
X00534902D01*
X00624902D02*
X00633901D01*
X00642901D02*
X00651901D01*
X00633901D02*
X00642901D01*
X00615901D02*
X00624902D01*
X00651901D02*
X00660901D01*
X00669901D01*
X00579902D02*
X00588901D01*
X00570902D02*
X00579902D01*
X00561902D02*
X00570902D01*
X00606902D02*
X00615901D01*
X00588901D02*
X00597901D01*
X00606902D01*
X00904Y00292979D02*
Y00301979D01*
Y00409979D02*
Y00418979D01*
Y00400979D02*
Y00409979D01*
Y00283979D02*
Y00292979D01*
Y00274979D02*
Y00283979D01*
Y00229979D02*
Y00238979D01*
Y00220979D02*
Y00229979D01*
Y00238979D02*
Y00247979D01*
Y00193979D02*
Y00202979D01*
Y00211979D02*
Y00220979D01*
Y00202979D02*
Y00211979D01*
Y00247979D02*
Y00256979D01*
Y00265979D02*
Y00274979D01*
Y00256979D02*
Y00265979D01*
Y00382979D02*
Y00391979D01*
Y00373979D02*
Y00382979D01*
Y00391979D02*
Y00400979D01*
Y00355979D02*
Y00364979D01*
Y00346979D02*
Y00355979D01*
Y00364979D02*
Y00373979D01*
Y00328979D02*
Y00337979D01*
Y00319979D02*
Y00328979D01*
Y00337979D02*
Y00346979D01*
Y00301979D02*
Y00310979D01*
Y00319979D01*
X0092Y00119626D02*
Y00130112D01*
Y00110626D02*
Y00119626D01*
Y00101626D02*
Y00110626D01*
X00904Y00157979D02*
Y00166979D01*
Y00148D02*
Y00157979D01*
X0092Y00065626D02*
Y00074626D01*
Y00056626D02*
Y00065626D01*
Y00083626D02*
Y00092626D01*
Y00074626D02*
Y00083626D01*
Y00032D02*
Y00038626D01*
Y00047626D01*
Y00056626D01*
Y00092626D02*
Y00101626D01*
X00904Y00166979D02*
Y00175979D01*
Y00184979D02*
Y00193979D01*
Y00175979D02*
Y00184979D01*
X00857685Y0001D02*
X00866685D01*
X00848685D02*
X00857685D01*
X00884685D02*
X00898D01*
X00866685D02*
X00875685D01*
X00884685D01*
X00812685D02*
X00821685D01*
X00794685D02*
X00803685D01*
X00812685D01*
X00839685D02*
X00848685D01*
X00830685D02*
X00839685D01*
X00821685D02*
X00830685D01*
X00702872Y00026002D02*
X00713994Y00026002D01*
X00693872Y00026002D02*
X00702872Y00026002D01*
X00684872Y00026002D02*
X00693872Y00026002D01*
X00675872Y00026002D02*
X00684872Y00026002D01*
X00767685Y0001D02*
X00776685D01*
X00785685D01*
X00758685D02*
X00767685D01*
X00785685D02*
X00794685D01*
X00740685D02*
X00749685D01*
X00731889D02*
X00740685D01*
X00749685D02*
X00758685D01*
X00666872Y00026002D02*
X00675872Y00026002D01*
X00657872Y00026001D02*
X00666872Y00026002D01*
X00648872Y00026001D02*
X00657872Y00026001D01*
X00639872Y00026001D02*
X00648872Y00026001D01*
X00630872Y00026001D02*
X00639872Y00026001D01*
X00621872Y00026001D02*
X00630872Y00026001D01*
X00612872Y00026001D02*
X00621872Y00026001D01*
X00603872Y00026001D02*
X00612872Y00026001D01*
X00594872Y00026001D02*
X00603872Y00026001D01*
X00585872Y00026001D02*
X00594872Y00026001D01*
X00576872Y00026001D02*
X00585872Y00026001D01*
X00567872Y00026001D02*
X00576872Y00026001D01*
X00558872Y00026D02*
X00567872Y00026001D01*
X00549872Y00026D02*
X00558872Y00026D01*
X00540872Y00026D02*
X00549872Y00026D01*
X00531872Y00026D02*
X00540872Y00026D01*
X00522872Y00026D02*
X00531872Y00026D01*
X00471902Y00873996D02*
X00480902D01*
X00462902D02*
X00471902D01*
X00453902D02*
X00462902D01*
X00435902D02*
X00444902D01*
X00453902D01*
X00426902D02*
X00435902D01*
X00489902D02*
X00498902D01*
X00507902D01*
X00480902D02*
X00489902D01*
X00516902D02*
X00525902D01*
X00507902D02*
X00516902D01*
X00420147Y00873996D02*
X00426902Y00873996D01*
X00408902Y00873996D02*
X00420147Y00873996D01*
X00399902Y00873996D02*
X00408902Y00873996D01*
X00390902Y00873996D02*
X00399902Y00873996D01*
X00381902Y00873996D02*
X00390902Y00873996D01*
X00372902Y00873996D02*
X00381902Y00873996D01*
X00363902Y00873996D02*
X00372902Y00873996D01*
X00354902Y00873995D02*
X00363902Y00873996D01*
X00345902Y00873995D02*
X00354902Y00873995D01*
X00336902Y00873995D02*
X00345902Y00873995D01*
X00327902Y00873995D02*
X00336902Y00873995D01*
X00318902Y00873995D02*
X00327902Y00873995D01*
X00309902Y00873995D02*
X00318902Y00873995D01*
X00300902Y00873995D02*
X00309902Y00873995D01*
X00291902Y00873995D02*
X00300902Y00873995D01*
X00282902Y00873995D02*
X00291902Y00873995D01*
X00273902Y00873995D02*
X00282902Y00873995D01*
X00264902Y00873995D02*
X00273902Y00873995D01*
X00172023Y00889996D02*
X00181023D01*
X00154023D02*
X00163023D01*
X00172023D01*
X00181023D02*
X00190023D01*
X00127023D02*
X00136023D01*
X00145023D01*
X00118023D02*
X00127023D01*
X00145023D02*
X00154023D01*
X00255902Y00873995D02*
X00264902Y00873995D01*
X00246902Y00873994D02*
X00255902Y00873995D01*
X00237902Y00873994D02*
X00246902Y00873994D01*
X00228902Y00873994D02*
X00237902Y00873994D01*
X00190023Y00889996D02*
X00198005D01*
X00215899Y00873994D02*
X00228902Y00873994D01*
X00091023Y00889996D02*
X00100023D01*
X00082023D02*
X00091023D01*
X00073023D02*
X00082023D01*
X00109023D02*
X00118023D01*
X00100023D02*
X00109023D01*
X00055023D02*
X00064023D01*
X00031745D02*
X00037023D01*
X00046023D01*
X00064023D02*
X00073023D01*
X00046023D02*
X00055023D01*
X0001Y00826087D02*
Y00835087D01*
Y00844087D01*
Y00853087D02*
Y00862087D01*
Y00868D01*
Y00844087D02*
Y00853087D01*
Y00817087D02*
Y00826087D01*
X00396872Y00026D02*
X00405872D01*
X00468872D02*
X00477872D01*
X00509746D02*
X00522872Y00026D01*
X00459872Y00026D02*
X00468872D01*
X00495872D02*
X00509746D01*
X00477872D02*
X00486872D01*
X00495872D01*
X00414872D02*
X00423872D01*
X00432872D01*
X00405872D02*
X00414872D01*
X00441872D02*
X00450872D01*
X00459872D01*
X00432872D02*
X00441872D01*
X00351872D02*
X00360872D01*
X00369872D01*
X00342872D02*
X00351872D01*
X00333872D02*
X00342872D01*
X00387872D02*
X00396872D01*
X00369872D02*
X00378872D01*
X00387872D01*
X00306873D02*
X00315872D01*
X00288873D02*
X00297873D01*
X00306873D01*
X00315872D02*
X00324873D01*
X00333872D01*
X00009999Y00085525D02*
Y00094525D01*
Y00076525D02*
Y00085525D01*
Y00058525D02*
Y00067525D01*
Y00076525D01*
X00261873Y00026D02*
X00270873D01*
X00279872D01*
X00252873D02*
X00261873D01*
X00279872D02*
X00288873D01*
X00234873D02*
X00243873D01*
X00252873D01*
X002159Y00026D02*
X00225873Y00026D01*
X00234873D01*
X00169431Y0001D02*
X00178431D01*
X0018743D02*
X00198111D01*
X00178431D02*
X0018743D01*
X00151431D02*
X00160431D01*
X00169431D01*
X00142431D02*
X00151431D01*
X00061431D02*
X00070431D01*
X00009999Y00040525D02*
Y00049525D01*
Y00058525D01*
Y00032133D02*
Y00040525D01*
X00097431Y0001D02*
X00106431D01*
X00115431D01*
X00088431D02*
X00097431D01*
X00133431D02*
X00142431D01*
X00115431D02*
X00124431D01*
X00133431D01*
X00032D02*
X00043431D01*
X00052431D01*
X00070431D02*
X00079431D01*
X00088431D01*
X00052431D02*
X00061431D01*
M02*
