G04*
G04 #@! TF.GenerationSoftware,Altium Limited,Altium Designer,25.7.1 (20)*
G04*
G04 Layer_Physical_Order=1*
G04 Layer_Color=255*
%FSLAX44Y44*%
%MOMM*%
G71*
G04*
G04 #@! TF.SameCoordinates,F25161A0-B78C-4874-AF2B-3454E01FF3B2*
G04*
G04*
G04 #@! TF.FilePolarity,Positive*
G04*
G01*
G75*
%ADD15C,0.2540*%
%ADD24C,1.0000*%
G04:AMPARAMS|DCode=25|XSize=0.95mm|YSize=0.85mm|CornerRadius=0.2125mm|HoleSize=0mm|Usage=FLASHONLY|Rotation=90.000|XOffset=0mm|YOffset=0mm|HoleType=Round|Shape=RoundedRectangle|*
%AMROUNDEDRECTD25*
21,1,0.9500,0.4250,0,0,90.0*
21,1,0.5250,0.8500,0,0,90.0*
1,1,0.4250,0.2125,0.2625*
1,1,0.4250,0.2125,-0.2625*
1,1,0.4250,-0.2125,-0.2625*
1,1,0.4250,-0.2125,0.2625*
%
%ADD25ROUNDEDRECTD25*%
G04:AMPARAMS|DCode=26|XSize=0.9mm|YSize=0.8mm|CornerRadius=0.2mm|HoleSize=0mm|Usage=FLASHONLY|Rotation=270.000|XOffset=0mm|YOffset=0mm|HoleType=Round|Shape=RoundedRectangle|*
%AMROUNDEDRECTD26*
21,1,0.9000,0.4000,0,0,270.0*
21,1,0.5000,0.8000,0,0,270.0*
1,1,0.4000,-0.2000,-0.2500*
1,1,0.4000,-0.2000,0.2500*
1,1,0.4000,0.2000,0.2500*
1,1,0.4000,0.2000,-0.2500*
%
%ADD26ROUNDEDRECTD26*%
G04:AMPARAMS|DCode=27|XSize=1.57mm|YSize=0.41mm|CornerRadius=0.0513mm|HoleSize=0mm|Usage=FLASHONLY|Rotation=180.000|XOffset=0mm|YOffset=0mm|HoleType=Round|Shape=RoundedRectangle|*
%AMROUNDEDRECTD27*
21,1,1.5700,0.3075,0,0,180.0*
21,1,1.4675,0.4100,0,0,180.0*
1,1,0.1025,-0.7338,0.1538*
1,1,0.1025,0.7338,0.1538*
1,1,0.1025,0.7338,-0.1538*
1,1,0.1025,-0.7338,-0.1538*
%
%ADD27ROUNDEDRECTD27*%
%ADD28R,0.8000X0.8500*%
%ADD29R,0.8500X0.8000*%
G04:AMPARAMS|DCode=30|XSize=0.9mm|YSize=0.8mm|CornerRadius=0.2mm|HoleSize=0mm|Usage=FLASHONLY|Rotation=0.000|XOffset=0mm|YOffset=0mm|HoleType=Round|Shape=RoundedRectangle|*
%AMROUNDEDRECTD30*
21,1,0.9000,0.4000,0,0,0.0*
21,1,0.5000,0.8000,0,0,0.0*
1,1,0.4000,0.2500,-0.2000*
1,1,0.4000,-0.2500,-0.2000*
1,1,0.4000,-0.2500,0.2000*
1,1,0.4000,0.2500,0.2000*
%
%ADD30ROUNDEDRECTD30*%
G04:AMPARAMS|DCode=31|XSize=1.97mm|YSize=0.59mm|CornerRadius=0.0738mm|HoleSize=0mm|Usage=FLASHONLY|Rotation=270.000|XOffset=0mm|YOffset=0mm|HoleType=Round|Shape=RoundedRectangle|*
%AMROUNDEDRECTD31*
21,1,1.9700,0.4425,0,0,270.0*
21,1,1.8225,0.5900,0,0,270.0*
1,1,0.1475,-0.2213,-0.9113*
1,1,0.1475,-0.2213,0.9113*
1,1,0.1475,0.2213,0.9113*
1,1,0.1475,0.2213,-0.9113*
%
%ADD31ROUNDEDRECTD31*%
%ADD32R,2.1000X3.0000*%
%ADD33R,1.0000X0.6000*%
%ADD34R,0.5080X1.4732*%
G04:AMPARAMS|DCode=35|XSize=0.9mm|YSize=0.8mm|CornerRadius=0.04mm|HoleSize=0mm|Usage=FLASHONLY|Rotation=0.000|XOffset=0mm|YOffset=0mm|HoleType=Round|Shape=RoundedRectangle|*
%AMROUNDEDRECTD35*
21,1,0.9000,0.7200,0,0,0.0*
21,1,0.8200,0.8000,0,0,0.0*
1,1,0.0800,0.4100,-0.3600*
1,1,0.0800,-0.4100,-0.3600*
1,1,0.0800,-0.4100,0.3600*
1,1,0.0800,0.4100,0.3600*
%
%ADD35ROUNDEDRECTD35*%
G04:AMPARAMS|DCode=36|XSize=1.45mm|YSize=0.59mm|CornerRadius=0.0738mm|HoleSize=0mm|Usage=FLASHONLY|Rotation=90.000|XOffset=0mm|YOffset=0mm|HoleType=Round|Shape=RoundedRectangle|*
%AMROUNDEDRECTD36*
21,1,1.4500,0.4425,0,0,90.0*
21,1,1.3025,0.5900,0,0,90.0*
1,1,0.1475,0.2213,0.6513*
1,1,0.1475,0.2213,-0.6513*
1,1,0.1475,-0.2213,-0.6513*
1,1,0.1475,-0.2213,0.6513*
%
%ADD36ROUNDEDRECTD36*%
%ADD37R,3.0000X2.1000*%
G04:AMPARAMS|DCode=38|XSize=1.2mm|YSize=1.3mm|CornerRadius=0.246mm|HoleSize=0mm|Usage=FLASHONLY|Rotation=0.000|XOffset=0mm|YOffset=0mm|HoleType=Round|Shape=RoundedRectangle|*
%AMROUNDEDRECTD38*
21,1,1.2000,0.8080,0,0,0.0*
21,1,0.7080,1.3000,0,0,0.0*
1,1,0.4920,0.3540,-0.4040*
1,1,0.4920,-0.3540,-0.4040*
1,1,0.4920,-0.3540,0.4040*
1,1,0.4920,0.3540,0.4040*
%
%ADD38ROUNDEDRECTD38*%
%ADD39R,1.6000X0.8000*%
%ADD40R,2.3500X2.3000*%
%ADD41R,2.3000X2.3500*%
%ADD42R,1.2000X0.8000*%
G04:AMPARAMS|DCode=43|XSize=1.8mm|YSize=1.3mm|CornerRadius=0.247mm|HoleSize=0mm|Usage=FLASHONLY|Rotation=90.000|XOffset=0mm|YOffset=0mm|HoleType=Round|Shape=RoundedRectangle|*
%AMROUNDEDRECTD43*
21,1,1.8000,0.8060,0,0,90.0*
21,1,1.3060,1.3000,0,0,90.0*
1,1,0.4940,0.4030,0.6530*
1,1,0.4940,0.4030,-0.6530*
1,1,0.4940,-0.4030,-0.6530*
1,1,0.4940,-0.4030,0.6530*
%
%ADD43ROUNDEDRECTD43*%
G04:AMPARAMS|DCode=44|XSize=1.55mm|YSize=0.6mm|CornerRadius=0.015mm|HoleSize=0mm|Usage=FLASHONLY|Rotation=0.000|XOffset=0mm|YOffset=0mm|HoleType=Round|Shape=RoundedRectangle|*
%AMROUNDEDRECTD44*
21,1,1.5500,0.5700,0,0,0.0*
21,1,1.5200,0.6000,0,0,0.0*
1,1,0.0300,0.7600,-0.2850*
1,1,0.0300,-0.7600,-0.2850*
1,1,0.0300,-0.7600,0.2850*
1,1,0.0300,0.7600,0.2850*
%
%ADD44ROUNDEDRECTD44*%
G04:AMPARAMS|DCode=45|XSize=1.2mm|YSize=1.3mm|CornerRadius=0.246mm|HoleSize=0mm|Usage=FLASHONLY|Rotation=90.000|XOffset=0mm|YOffset=0mm|HoleType=Round|Shape=RoundedRectangle|*
%AMROUNDEDRECTD45*
21,1,1.2000,0.8080,0,0,90.0*
21,1,0.7080,1.3000,0,0,90.0*
1,1,0.4920,0.4040,0.3540*
1,1,0.4920,0.4040,-0.3540*
1,1,0.4920,-0.4040,-0.3540*
1,1,0.4920,-0.4040,0.3540*
%
%ADD45ROUNDEDRECTD45*%
%ADD46R,0.8000X1.6000*%
%ADD47O,2.1500X0.6000*%
%ADD48R,1.9812X0.5588*%
G04:AMPARAMS|DCode=49|XSize=1.3mm|YSize=1.1mm|CornerRadius=0.055mm|HoleSize=0mm|Usage=FLASHONLY|Rotation=180.000|XOffset=0mm|YOffset=0mm|HoleType=Round|Shape=RoundedRectangle|*
%AMROUNDEDRECTD49*
21,1,1.3000,0.9900,0,0,180.0*
21,1,1.1900,1.1000,0,0,180.0*
1,1,0.1100,-0.5950,0.4950*
1,1,0.1100,0.5950,0.4950*
1,1,0.1100,0.5950,-0.4950*
1,1,0.1100,-0.5950,-0.4950*
%
%ADD49ROUNDEDRECTD49*%
%ADD50O,2.2000X0.6000*%
%ADD51O,1.4000X0.3500*%
%ADD52R,1.0000X1.0000*%
G04:AMPARAMS|DCode=53|XSize=0.65mm|YSize=0.6mm|CornerRadius=0.15mm|HoleSize=0mm|Usage=FLASHONLY|Rotation=0.000|XOffset=0mm|YOffset=0mm|HoleType=Round|Shape=RoundedRectangle|*
%AMROUNDEDRECTD53*
21,1,0.6500,0.3000,0,0,0.0*
21,1,0.3500,0.6000,0,0,0.0*
1,1,0.3000,0.1750,-0.1500*
1,1,0.3000,-0.1750,-0.1500*
1,1,0.3000,-0.1750,0.1500*
1,1,0.3000,0.1750,0.1500*
%
%ADD53ROUNDEDRECTD53*%
G04:AMPARAMS|DCode=54|XSize=0.95mm|YSize=0.85mm|CornerRadius=0.2125mm|HoleSize=0mm|Usage=FLASHONLY|Rotation=180.000|XOffset=0mm|YOffset=0mm|HoleType=Round|Shape=RoundedRectangle|*
%AMROUNDEDRECTD54*
21,1,0.9500,0.4250,0,0,180.0*
21,1,0.5250,0.8500,0,0,180.0*
1,1,0.4250,-0.2625,0.2125*
1,1,0.4250,0.2625,0.2125*
1,1,0.4250,0.2625,-0.2125*
1,1,0.4250,-0.2625,-0.2125*
%
%ADD54ROUNDEDRECTD54*%
G04:AMPARAMS|DCode=55|XSize=1.55mm|YSize=0.6mm|CornerRadius=0.015mm|HoleSize=0mm|Usage=FLASHONLY|Rotation=90.000|XOffset=0mm|YOffset=0mm|HoleType=Round|Shape=RoundedRectangle|*
%AMROUNDEDRECTD55*
21,1,1.5500,0.5700,0,0,90.0*
21,1,1.5200,0.6000,0,0,90.0*
1,1,0.0300,0.2850,0.7600*
1,1,0.0300,0.2850,-0.7600*
1,1,0.0300,-0.2850,-0.7600*
1,1,0.0300,-0.2850,0.7600*
%
%ADD55ROUNDEDRECTD55*%
G04:AMPARAMS|DCode=56|XSize=0.86mm|YSize=0.32mm|CornerRadius=0.12mm|HoleSize=0mm|Usage=FLASHONLY|Rotation=180.000|XOffset=0mm|YOffset=0mm|HoleType=Round|Shape=RoundedRectangle|*
%AMROUNDEDRECTD56*
21,1,0.8600,0.0800,0,0,180.0*
21,1,0.6200,0.3200,0,0,180.0*
1,1,0.2400,-0.3100,0.0400*
1,1,0.2400,0.3100,0.0400*
1,1,0.2400,0.3100,-0.0400*
1,1,0.2400,-0.3100,-0.0400*
%
%ADD56ROUNDEDRECTD56*%
G04:AMPARAMS|DCode=57|XSize=0.86mm|YSize=0.32mm|CornerRadius=0.12mm|HoleSize=0mm|Usage=FLASHONLY|Rotation=90.000|XOffset=0mm|YOffset=0mm|HoleType=Round|Shape=RoundedRectangle|*
%AMROUNDEDRECTD57*
21,1,0.8600,0.0800,0,0,90.0*
21,1,0.6200,0.3200,0,0,90.0*
1,1,0.2400,0.0400,0.3100*
1,1,0.2400,0.0400,-0.3100*
1,1,0.2400,-0.0400,-0.3100*
1,1,0.2400,-0.0400,0.3100*
%
%ADD57ROUNDEDRECTD57*%
G04:AMPARAMS|DCode=58|XSize=0.6mm|YSize=0.25mm|CornerRadius=0.0463mm|HoleSize=0mm|Usage=FLASHONLY|Rotation=90.000|XOffset=0mm|YOffset=0mm|HoleType=Round|Shape=RoundedRectangle|*
%AMROUNDEDRECTD58*
21,1,0.6000,0.1575,0,0,90.0*
21,1,0.5075,0.2500,0,0,90.0*
1,1,0.0925,0.0788,0.2537*
1,1,0.0925,0.0788,-0.2537*
1,1,0.0925,-0.0788,-0.2537*
1,1,0.0925,-0.0788,0.2537*
%
%ADD58ROUNDEDRECTD58*%
G04:AMPARAMS|DCode=59|XSize=2.2mm|YSize=2.4mm|CornerRadius=0.242mm|HoleSize=0mm|Usage=FLASHONLY|Rotation=0.000|XOffset=0mm|YOffset=0mm|HoleType=Round|Shape=RoundedRectangle|*
%AMROUNDEDRECTD59*
21,1,2.2000,1.9160,0,0,0.0*
21,1,1.7160,2.4000,0,0,0.0*
1,1,0.4840,0.8580,-0.9580*
1,1,0.4840,-0.8580,-0.9580*
1,1,0.4840,-0.8580,0.9580*
1,1,0.4840,0.8580,0.9580*
%
%ADD59ROUNDEDRECTD59*%
%ADD60R,2.4500X2.5000*%
G04:AMPARAMS|DCode=61|XSize=2.2mm|YSize=2.4mm|CornerRadius=0.242mm|HoleSize=0mm|Usage=FLASHONLY|Rotation=90.000|XOffset=0mm|YOffset=0mm|HoleType=Round|Shape=RoundedRectangle|*
%AMROUNDEDRECTD61*
21,1,2.2000,1.9160,0,0,90.0*
21,1,1.7160,2.4000,0,0,90.0*
1,1,0.4840,0.9580,0.8580*
1,1,0.4840,0.9580,-0.8580*
1,1,0.4840,-0.9580,-0.8580*
1,1,0.4840,-0.9580,0.8580*
%
%ADD61ROUNDEDRECTD61*%
%ADD62R,1.4732X0.5080*%
%ADD63R,0.8500X0.9000*%
%ADD64R,1.0000X0.5000*%
%ADD65R,2.0320X5.0800*%
%ADD66R,1.0700X3.2700*%
%ADD67C,1.2700*%
%ADD68C,1.0000*%
G04:AMPARAMS|DCode=69|XSize=1.75mm|YSize=1.25mm|CornerRadius=0.2438mm|HoleSize=0mm|Usage=FLASHONLY|Rotation=90.000|XOffset=0mm|YOffset=0mm|HoleType=Round|Shape=RoundedRectangle|*
%AMROUNDEDRECTD69*
21,1,1.7500,0.7625,0,0,90.0*
21,1,1.2625,1.2500,0,0,90.0*
1,1,0.4875,0.3813,0.6313*
1,1,0.4875,0.3813,-0.6313*
1,1,0.4875,-0.3813,-0.6313*
1,1,0.4875,-0.3813,0.6313*
%
%ADD69ROUNDEDRECTD69*%
%ADD70R,1.0000X0.3500*%
%ADD71R,0.5000X1.0000*%
%ADD72R,0.3500X1.0000*%
G04:AMPARAMS|DCode=74|XSize=0.65mm|YSize=0.6mm|CornerRadius=0.15mm|HoleSize=0mm|Usage=FLASHONLY|Rotation=90.000|XOffset=0mm|YOffset=0mm|HoleType=Round|Shape=RoundedRectangle|*
%AMROUNDEDRECTD74*
21,1,0.6500,0.3000,0,0,90.0*
21,1,0.3500,0.6000,0,0,90.0*
1,1,0.3000,0.1500,0.1750*
1,1,0.3000,0.1500,-0.1750*
1,1,0.3000,-0.1500,-0.1750*
1,1,0.3000,-0.1500,0.1750*
%
%ADD74ROUNDEDRECTD74*%
%ADD128R,2.9500X4.9000*%
%ADD129R,0.2500X1.2000*%
%ADD130R,4.9000X2.9500*%
%ADD131R,2.6000X2.6000*%
G04:AMPARAMS|DCode=132|XSize=0.3mm|YSize=2.4mm|CornerRadius=0.0555mm|HoleSize=0mm|Usage=FLASHONLY|Rotation=90.000|XOffset=0mm|YOffset=0mm|HoleType=Round|Shape=RoundedRectangle|*
%AMROUNDEDRECTD132*
21,1,0.3000,2.2890,0,0,90.0*
21,1,0.1890,2.4000,0,0,90.0*
1,1,0.1110,1.1445,0.0945*
1,1,0.1110,1.1445,-0.0945*
1,1,0.1110,-1.1445,-0.0945*
1,1,0.1110,-1.1445,0.0945*
%
%ADD132ROUNDEDRECTD132*%
G04:AMPARAMS|DCode=133|XSize=0.25mm|YSize=3.4mm|CornerRadius=0.05mm|HoleSize=0mm|Usage=FLASHONLY|Rotation=0.000|XOffset=0mm|YOffset=0mm|HoleType=Round|Shape=RoundedRectangle|*
%AMROUNDEDRECTD133*
21,1,0.2500,3.3000,0,0,0.0*
21,1,0.1500,3.4000,0,0,0.0*
1,1,0.1000,0.0750,-1.6500*
1,1,0.1000,-0.0750,-1.6500*
1,1,0.1000,-0.0750,1.6500*
1,1,0.1000,0.0750,1.6500*
%
%ADD133ROUNDEDRECTD133*%
G04:AMPARAMS|DCode=134|XSize=0.6mm|YSize=0.25mm|CornerRadius=0.05mm|HoleSize=0mm|Usage=FLASHONLY|Rotation=0.000|XOffset=0mm|YOffset=0mm|HoleType=Round|Shape=RoundedRectangle|*
%AMROUNDEDRECTD134*
21,1,0.6000,0.1500,0,0,0.0*
21,1,0.5000,0.2500,0,0,0.0*
1,1,0.1000,0.2500,-0.0750*
1,1,0.1000,-0.2500,-0.0750*
1,1,0.1000,-0.2500,0.0750*
1,1,0.1000,0.2500,0.0750*
%
%ADD134ROUNDEDRECTD134*%
G04:AMPARAMS|DCode=135|XSize=0.25mm|YSize=0.65mm|CornerRadius=0.05mm|HoleSize=0mm|Usage=FLASHONLY|Rotation=0.000|XOffset=0mm|YOffset=0mm|HoleType=Round|Shape=RoundedRectangle|*
%AMROUNDEDRECTD135*
21,1,0.2500,0.5500,0,0,0.0*
21,1,0.1500,0.6500,0,0,0.0*
1,1,0.1000,0.0750,-0.2750*
1,1,0.1000,-0.0750,-0.2750*
1,1,0.1000,-0.0750,0.2750*
1,1,0.1000,0.0750,0.2750*
%
%ADD135ROUNDEDRECTD135*%
G04:AMPARAMS|DCode=136|XSize=0.25mm|YSize=0.6mm|CornerRadius=0.05mm|HoleSize=0mm|Usage=FLASHONLY|Rotation=0.000|XOffset=0mm|YOffset=0mm|HoleType=Round|Shape=RoundedRectangle|*
%AMROUNDEDRECTD136*
21,1,0.2500,0.5000,0,0,0.0*
21,1,0.1500,0.6000,0,0,0.0*
1,1,0.1000,0.0750,-0.2500*
1,1,0.1000,-0.0750,-0.2500*
1,1,0.1000,-0.0750,0.2500*
1,1,0.1000,0.0750,0.2500*
%
%ADD136ROUNDEDRECTD136*%
G04:AMPARAMS|DCode=137|XSize=0.6mm|YSize=0.3mm|CornerRadius=0.0555mm|HoleSize=0mm|Usage=FLASHONLY|Rotation=90.000|XOffset=0mm|YOffset=0mm|HoleType=Round|Shape=RoundedRectangle|*
%AMROUNDEDRECTD137*
21,1,0.6000,0.1890,0,0,90.0*
21,1,0.4890,0.3000,0,0,90.0*
1,1,0.1110,0.0945,0.2445*
1,1,0.1110,0.0945,-0.2445*
1,1,0.1110,-0.0945,-0.2445*
1,1,0.1110,-0.0945,0.2445*
%
%ADD137ROUNDEDRECTD137*%
%ADD138R,1.0160X1.2700*%
%ADD139C,0.3048*%
%ADD140C,0.3810*%
%ADD141C,0.5080*%
%ADD142C,0.6350*%
%ADD143C,0.1778*%
%ADD144R,1.5000X0.5000*%
%ADD145O,1.6000X1.8000*%
G04:AMPARAMS|DCode=146|XSize=1.8mm|YSize=1.6mm|CornerRadius=0.4mm|HoleSize=0mm|Usage=FLASHONLY|Rotation=90.000|XOffset=0mm|YOffset=0mm|HoleType=Round|Shape=RoundedRectangle|*
%AMROUNDEDRECTD146*
21,1,1.8000,0.8000,0,0,90.0*
21,1,1.0000,1.6000,0,0,90.0*
1,1,0.8000,0.4000,0.5000*
1,1,0.8000,0.4000,-0.5000*
1,1,0.8000,-0.4000,-0.5000*
1,1,0.8000,-0.4000,0.5000*
%
%ADD146ROUNDEDRECTD146*%
%ADD147C,6.0000*%
%ADD148C,1.4000*%
%ADD149C,1.5300*%
%ADD150R,1.4000X1.4000*%
%ADD151R,1.5300X1.5300*%
%ADD152C,0.6000*%
%ADD153C,0.4000*%
%ADD154C,0.8000*%
G36*
X256540Y836930D02*
Y816610D01*
X255270Y815340D01*
X232410D01*
Y838200D01*
X255270D01*
X256540Y836930D01*
D02*
G37*
G36*
X317500Y834390D02*
Y807720D01*
X287020D01*
X284480Y810260D01*
Y838200D01*
X313690D01*
X317500Y834390D01*
D02*
G37*
G36*
X523240Y808990D02*
Y801370D01*
X521970Y800100D01*
X501650Y800100D01*
X500380Y801370D01*
Y835660D01*
X523240D01*
Y808990D01*
D02*
G37*
G36*
X577850Y834390D02*
Y820420D01*
X575310Y817880D01*
X566420D01*
X565150Y816610D01*
Y786130D01*
X563880Y784860D01*
X551180D01*
Y836930D01*
X575310D01*
X577850Y834390D01*
D02*
G37*
G36*
X717550Y778510D02*
Y768350D01*
X713740Y764540D01*
X628650D01*
Y783590D01*
X712470D01*
X717550Y778510D01*
D02*
G37*
G36*
X626110Y791210D02*
Y730250D01*
X623570Y727710D01*
X612140D01*
X598170Y741680D01*
Y773430D01*
X608330Y783590D01*
Y791210D01*
X609600Y792480D01*
X624840D01*
X626110Y791210D01*
D02*
G37*
G36*
X279400Y750570D02*
Y746125D01*
X282575Y742950D01*
X295910D01*
X298450Y740410D01*
Y725170D01*
X297180Y723900D01*
X260350D01*
X257810Y726440D01*
Y744220D01*
X255270Y746760D01*
X251460D01*
Y758190D01*
X252730Y759460D01*
X270510D01*
X279400Y750570D01*
D02*
G37*
G36*
X228600Y758190D02*
Y751840D01*
X222250Y745490D01*
Y725170D01*
X220980Y723900D01*
X187960D01*
X186690Y725170D01*
Y744220D01*
X187960Y745490D01*
X201930D01*
X209550Y753110D01*
X209550Y758190D01*
X210820Y759460D01*
X227330D01*
X228600Y758190D01*
D02*
G37*
G36*
X386334Y761746D02*
X387858Y760222D01*
Y719328D01*
X386080Y717550D01*
X365760D01*
X364490Y718820D01*
Y751840D01*
X361950Y754380D01*
Y761746D01*
X386334Y761746D01*
D02*
G37*
G36*
X360211Y753325D02*
X360216Y753318D01*
X360485Y752915D01*
X360485Y752915D01*
X361950Y751450D01*
X361950Y718820D01*
X360680Y717550D01*
X341630D01*
X340360Y718820D01*
Y754380D01*
X359156D01*
X360211Y753325D01*
D02*
G37*
G36*
X570230Y727710D02*
Y702310D01*
X568960Y701040D01*
X538480D01*
X537210Y702310D01*
Y727710D01*
X538480Y728980D01*
X568960D01*
X570230Y727710D01*
D02*
G37*
G36*
X275590Y690880D02*
X275590Y619760D01*
X274320Y618490D01*
X250952D01*
X245364Y612902D01*
Y599440D01*
X235712D01*
Y617982D01*
X246380Y628650D01*
X246380Y690880D01*
X248920Y693420D01*
X273050Y693420D01*
X275590Y690880D01*
D02*
G37*
G36*
X219710Y692150D02*
X222250Y689610D01*
Y628650D01*
X232918Y617982D01*
Y599440D01*
X223520D01*
Y610870D01*
X215900Y618490D01*
X194310D01*
X191770Y621030D01*
Y689610D01*
X194310Y692150D01*
X219710Y692150D01*
D02*
G37*
G36*
X307340Y607060D02*
X295910D01*
X281241Y592392D01*
X274574D01*
Y596900D01*
X277876Y600202D01*
Y618236D01*
X279400Y619760D01*
X307340D01*
Y607060D01*
D02*
G37*
G36*
X275844Y614426D02*
X275844Y600964D01*
X262128Y587248D01*
X252984D01*
Y593090D01*
X258317Y598424D01*
X264160Y604267D01*
X264160Y614680D01*
X265430Y615950D01*
X274320D01*
X275844Y614426D01*
D02*
G37*
G36*
X341630Y617220D02*
X341630Y586740D01*
X340360Y585470D01*
X328930D01*
X325120Y581660D01*
Y575310D01*
X322580Y572770D01*
X312420D01*
X309880Y575310D01*
Y598730D01*
X312420Y601270D01*
Y619760D01*
X339090D01*
X341630Y617220D01*
D02*
G37*
G36*
X151656Y615950D02*
X176004Y615950D01*
X176004Y615950D01*
X176004Y615950D01*
X176004D01*
X177170Y615803D01*
X177269Y615784D01*
X178058Y615457D01*
X178768Y614982D01*
X179070Y614680D01*
X179372Y614378D01*
X179847Y613668D01*
X180173Y612879D01*
X180340Y612041D01*
X180340Y611614D01*
X180340Y543560D01*
X173073D01*
X165100Y551015D01*
Y588010D01*
X152500D01*
X151665Y588176D01*
X150877Y588501D01*
X150168Y588973D01*
X149867Y589273D01*
X149116Y590024D01*
X149116D01*
X148689Y590451D01*
X148018Y591455D01*
X147556Y592571D01*
X147320Y593756D01*
X147320Y594360D01*
Y611614D01*
X147320Y612041D01*
X147486Y612879D01*
X147813Y613668D01*
X148288Y614378D01*
X148590Y614680D01*
X148892Y614982D01*
X149602Y615457D01*
X150391Y615784D01*
X151229Y615950D01*
X151656Y615950D01*
D02*
G37*
G36*
X549910Y556260D02*
Y542290D01*
X551180Y541020D01*
X566420D01*
X567690Y539750D01*
Y527050D01*
X566420Y525780D01*
X515620D01*
Y535940D01*
X519430Y539750D01*
Y556260D01*
X520700Y557530D01*
X548640D01*
X549910Y556260D01*
D02*
G37*
G36*
X494030Y508000D02*
Y483870D01*
X492760Y482600D01*
X454660D01*
X453390Y483870D01*
Y508000D01*
X454660Y509270D01*
X454660D01*
X454660Y509270D01*
X454660Y509270D01*
X492760D01*
X494030Y508000D01*
D02*
G37*
G36*
X812800Y513080D02*
Y492760D01*
X811530Y491490D01*
X793750D01*
Y514350D01*
X811530D01*
X812800Y513080D01*
D02*
G37*
G36*
X170180Y529590D02*
Y483870D01*
X26670D01*
X22860Y487680D01*
X22860Y529590D01*
X25400Y532130D01*
X167640D01*
X170180Y529590D01*
D02*
G37*
G36*
X246068Y558252D02*
X251910Y552410D01*
X260390D01*
X274320Y538480D01*
X280670Y532130D01*
X297434Y532130D01*
X301244Y528320D01*
X317500D01*
Y483870D01*
X314920Y481290D01*
X257817D01*
X255720Y483442D01*
Y520660D01*
X251206Y525174D01*
X251206Y537464D01*
X245110Y543560D01*
X245110Y552450D01*
X243020Y554540D01*
X243020Y594320D01*
X246068D01*
Y558252D01*
D02*
G37*
G36*
X225240Y554950D02*
X222758Y552468D01*
Y542968D01*
X218890Y539100D01*
Y525740D01*
X213810Y520660D01*
Y441140D01*
X212090Y439420D01*
X177800D01*
X173990Y443230D01*
Y533400D01*
X176530Y535940D01*
X201150Y535940D01*
X222235Y557025D01*
X222470Y593812D01*
X225240D01*
X225240Y554950D01*
D02*
G37*
G36*
X170180Y441960D02*
X176530Y435610D01*
X212090D01*
X213360Y434340D01*
Y396810D01*
X136590D01*
X133350Y400050D01*
X133350Y427990D01*
X129540Y431800D01*
X25400D01*
X22860Y434340D01*
X22860Y478790D01*
X25400Y481330D01*
X170180D01*
X170180Y441960D01*
D02*
G37*
G36*
X420526Y529590D02*
X421995Y529137D01*
X424700Y527675D01*
X427067Y525714D01*
X429006Y523329D01*
X429725Y521970D01*
X429725Y450106D01*
X429724Y450106D01*
X429724Y449679D01*
X429558Y448841D01*
X429231Y448052D01*
X428756Y447342D01*
X428455Y447040D01*
X380677Y399263D01*
X380677Y399262D01*
X380079Y398665D01*
X378673Y397725D01*
X377110Y397078D01*
X375452Y396748D01*
X338284D01*
X338284Y405130D01*
X349968Y416814D01*
Y445008D01*
X361399Y456438D01*
Y485507D01*
X367495Y491603D01*
X367495Y529590D01*
X420526D01*
X420526Y529590D01*
D02*
G37*
G36*
X236220Y558800D02*
X243586Y551434D01*
X243586Y542544D01*
X249174Y536956D01*
Y524256D01*
X253746Y519684D01*
Y481584D01*
X256540Y478790D01*
X316230D01*
X319532Y482092D01*
Y487680D01*
X357124D01*
X359410Y485394D01*
Y457327D01*
X347980Y445897D01*
Y417830D01*
X336550Y406400D01*
Y396748D01*
X216662D01*
Y519684D01*
X220980Y524002D01*
Y538260D01*
X224223Y541503D01*
X224666Y542166D01*
X224790Y542290D01*
Y542768D01*
X224830Y542968D01*
X224830Y542968D01*
Y551474D01*
X232156Y558800D01*
Y594099D01*
X236220D01*
Y558800D01*
D02*
G37*
G36*
X848360Y441960D02*
Y397510D01*
X852170Y393700D01*
X871220D01*
X871220Y369570D01*
X828040D01*
Y405130D01*
X825500Y407670D01*
X796290Y407670D01*
X793750Y405130D01*
Y388620D01*
X792480Y387350D01*
X751840D01*
X749300Y389890D01*
Y441960D01*
X751840Y444500D01*
X845820D01*
X848360Y441960D01*
D02*
G37*
G36*
X745490D02*
Y387350D01*
X749300Y383540D01*
X793750D01*
X797560Y387350D01*
X797560Y402590D01*
X800100Y405130D01*
X823486Y405130D01*
X825500Y403116D01*
Y369570D01*
X826085Y368985D01*
X826126Y368777D01*
X826575Y368105D01*
X827247Y367656D01*
X827456Y367615D01*
X828040Y367030D01*
X871220D01*
Y345440D01*
X847090D01*
X844550Y347980D01*
X829310D01*
X826770Y345440D01*
Y224790D01*
X829310Y222250D01*
X843280D01*
X848360Y227330D01*
X872490D01*
Y204470D01*
X848360D01*
X845820Y207010D01*
X831850D01*
X828040Y203200D01*
Y182880D01*
Y143510D01*
X831850Y139700D01*
Y100330D01*
X829310Y97790D01*
X788670Y97790D01*
X786130Y100330D01*
X786130Y236220D01*
X783590Y238760D01*
X783590Y297180D01*
X775970Y304800D01*
X722122Y304800D01*
X699770Y327152D01*
Y441960D01*
X702310Y444500D01*
X742950D01*
X745490Y441960D01*
D02*
G37*
G36*
X73615Y425451D02*
Y360680D01*
X79965Y354330D01*
X124460D01*
X133350Y363220D01*
Y389890D01*
X137160Y393700D01*
X298450D01*
X301244Y390906D01*
Y308356D01*
X298958Y306070D01*
X276860D01*
Y353060D01*
X271780Y358140D01*
X194310Y358140D01*
X185420Y349250D01*
Y265430D01*
X199893Y250957D01*
Y171953D01*
X176530Y148590D01*
Y59690D01*
X173990Y57150D01*
X135890D01*
X133350Y59690D01*
Y323850D01*
X124460Y332740D01*
X25400D01*
X22860Y335280D01*
Y425450D01*
X25400Y427990D01*
X71120D01*
X73615Y425451D01*
D02*
G37*
G36*
X521970Y320040D02*
Y302260D01*
X520700Y300990D01*
X494030D01*
Y311150D01*
X496570Y313690D01*
Y321310D01*
X520700D01*
X521970Y320040D01*
D02*
G37*
G36*
X476250Y406400D02*
Y349250D01*
X462280Y335280D01*
Y299720D01*
X461010Y298450D01*
X448310D01*
X447040Y299720D01*
X447040Y335280D01*
X433070Y349250D01*
X433070Y406400D01*
X439420Y412750D01*
X469900Y412750D01*
X476250Y406400D01*
D02*
G37*
G36*
X845820Y342900D02*
X871220D01*
Y317500D01*
X855980D01*
Y295910D01*
X854710Y294640D01*
X830580D01*
X829310Y295910D01*
Y322580D01*
Y344170D01*
X830580Y345440D01*
X843280D01*
X845820Y342900D01*
D02*
G37*
G36*
X581660Y414020D02*
X584200Y411480D01*
X584200Y354330D01*
X589280Y349250D01*
Y281940D01*
X585470Y278130D01*
X546100D01*
X542290Y281940D01*
Y317500D01*
X539750Y320040D01*
X525780Y320040D01*
X521970Y323850D01*
X496570D01*
Y408940D01*
X501650Y414020D01*
X524510Y414020D01*
X581660Y414020D01*
D02*
G37*
G36*
X539750Y316230D02*
Y281940D01*
X535940Y278130D01*
X491490D01*
Y295910D01*
X494030Y298450D01*
X523240D01*
X524510Y299720D01*
Y316230D01*
X525780Y317500D01*
X538480D01*
X539750Y316230D01*
D02*
G37*
G36*
X853440Y259080D02*
X857250Y255270D01*
X872490D01*
Y229870D01*
X847090D01*
X842010Y224790D01*
X830580D01*
X829310Y226060D01*
Y279400D01*
X853440D01*
Y259080D01*
D02*
G37*
G36*
X487680Y220980D02*
X482600D01*
X480060Y218440D01*
Y203200D01*
X477520Y200660D01*
X387350D01*
X381000Y194310D01*
Y184150D01*
X379984Y183134D01*
X338836D01*
X336042Y185928D01*
X365760D01*
X365760Y199390D01*
X381635Y215265D01*
Y227965D01*
X383540Y229870D01*
X419100D01*
X426720Y222250D01*
X464820D01*
X467360Y224790D01*
Y242570D01*
X487680D01*
Y220980D01*
D02*
G37*
G36*
X518160Y218440D02*
X520700Y215900D01*
X520700Y166878D01*
X519675Y165853D01*
X519430Y165902D01*
X519430Y165902D01*
X495340Y165902D01*
Y179832D01*
X495340Y179832D01*
X495300Y180032D01*
Y180340D01*
X495224Y180416D01*
X495182Y180625D01*
X495182Y180625D01*
Y180625D01*
X495092Y180760D01*
X494733Y181297D01*
X494733Y181297D01*
X493717Y182313D01*
X493717Y182313D01*
X493379Y182539D01*
X493045Y182762D01*
X492836Y182803D01*
X492760Y182880D01*
X492452D01*
X492252Y182920D01*
X492252Y182920D01*
X384770Y182920D01*
X383540Y184150D01*
Y193040D01*
X388620Y198120D01*
X478790Y198120D01*
X482600Y201930D01*
Y217170D01*
X483870Y218440D01*
X518160Y218440D01*
D02*
G37*
G36*
X331470Y240030D02*
Y234950D01*
X331470Y203200D01*
X335280Y199390D01*
Y189230D01*
X292100D01*
Y228600D01*
X304800Y241300D01*
X330200D01*
X331470Y240030D01*
D02*
G37*
G36*
X358600Y194020D02*
X358620D01*
X358650Y194010D01*
X358670D01*
X358700Y194000D01*
X358720Y193990D01*
X358750Y193980D01*
X358770Y193960D01*
X358790Y193950D01*
X358810Y193930D01*
X358830Y193920D01*
X358850Y193900D01*
X358870Y193880D01*
X358890Y193860D01*
X358910Y193840D01*
X358920Y193820D01*
X358940Y193800D01*
X358950Y193780D01*
X358970Y193760D01*
X358980Y193730D01*
X358990Y193710D01*
X359000Y193680D01*
Y193660D01*
X359010Y193630D01*
Y193610D01*
X359020Y193580D01*
Y190530D01*
X362070D01*
X362100Y190520D01*
X362120D01*
X362150Y190510D01*
X362170D01*
X362200Y190500D01*
X362220Y190490D01*
X362250Y190480D01*
X362270Y190460D01*
X362290Y190450D01*
X362310Y190430D01*
X362330Y190420D01*
X362350Y190400D01*
X362370Y190380D01*
X362390Y190360D01*
X362410Y190340D01*
X362420Y190320D01*
X362440Y190300D01*
X362450Y190280D01*
X362470Y190260D01*
X362480Y190230D01*
X362490Y190210D01*
X362500Y190180D01*
Y190160D01*
X362510Y190130D01*
Y190110D01*
X362520Y190080D01*
Y188480D01*
X362510Y188450D01*
Y188430D01*
X362500Y188400D01*
Y188380D01*
X362490Y188350D01*
X362480Y188330D01*
X362470Y188300D01*
X362450Y188280D01*
X362440Y188260D01*
X362420Y188240D01*
X362410Y188220D01*
X362390Y188200D01*
X362370Y188180D01*
X362350Y188160D01*
X362330Y188140D01*
X362310Y188130D01*
X362290Y188110D01*
X362270Y188100D01*
X362250Y188080D01*
X362220Y188070D01*
X362200Y188060D01*
X362170Y188050D01*
X362150D01*
X362120Y188040D01*
X362100D01*
X362070Y188030D01*
X356470D01*
X356440Y188040D01*
X356420D01*
X356390Y188050D01*
X356370D01*
X356340Y188060D01*
X356320Y188070D01*
X356290Y188080D01*
X356270Y188100D01*
X356250Y188110D01*
X356230Y188130D01*
X356210Y188140D01*
X356190Y188160D01*
X356170Y188180D01*
X356150Y188200D01*
X356130Y188220D01*
X356120Y188240D01*
X356100Y188260D01*
X356090Y188280D01*
X356070Y188300D01*
X356060Y188330D01*
X356050Y188350D01*
X356040Y188380D01*
Y188400D01*
X356030Y188430D01*
Y188450D01*
X356020Y188480D01*
Y193580D01*
X356030Y193610D01*
Y193630D01*
X356040Y193660D01*
Y193680D01*
X356050Y193710D01*
X356060Y193730D01*
X356070Y193760D01*
X356090Y193780D01*
X356100Y193800D01*
X356120Y193820D01*
X356130Y193840D01*
X356150Y193860D01*
X356170Y193880D01*
X356190Y193900D01*
X356210Y193920D01*
X356230Y193930D01*
X356250Y193950D01*
X356270Y193960D01*
X356290Y193980D01*
X356320Y193990D01*
X356340Y194000D01*
X356370Y194010D01*
X356390D01*
X356420Y194020D01*
X356440D01*
X356470Y194030D01*
X358570D01*
X358600Y194020D01*
D02*
G37*
G36*
X344600D02*
X344620D01*
X344650Y194010D01*
X344670D01*
X344700Y194000D01*
X344720Y193990D01*
X344750Y193980D01*
X344770Y193960D01*
X344790Y193950D01*
X344810Y193930D01*
X344830Y193920D01*
X344850Y193900D01*
X344870Y193880D01*
X344890Y193860D01*
X344910Y193840D01*
X344920Y193820D01*
X344940Y193800D01*
X344950Y193780D01*
X344970Y193760D01*
X344980Y193730D01*
X344990Y193710D01*
X345000Y193680D01*
Y193660D01*
X345010Y193630D01*
Y193610D01*
X345020Y193580D01*
Y188480D01*
X345010Y188450D01*
Y188430D01*
X345000Y188400D01*
Y188380D01*
X344990Y188350D01*
X344980Y188330D01*
X344970Y188300D01*
X344950Y188280D01*
X344940Y188260D01*
X344920Y188240D01*
X344910Y188220D01*
X344890Y188200D01*
X344870Y188180D01*
X344850Y188160D01*
X344830Y188140D01*
X344810Y188130D01*
X344790Y188110D01*
X344770Y188100D01*
X344750Y188080D01*
X344720Y188070D01*
X344700Y188060D01*
X344670Y188050D01*
X344650D01*
X344620Y188040D01*
X344600D01*
X344570Y188030D01*
X338970D01*
X338940Y188040D01*
X338920D01*
X338890Y188050D01*
X338870D01*
X338840Y188060D01*
X338820Y188070D01*
X338790Y188080D01*
X338770Y188100D01*
X338750Y188110D01*
X338730Y188130D01*
X338710Y188140D01*
X338690Y188160D01*
X338670Y188180D01*
X338650Y188200D01*
X338630Y188220D01*
X338620Y188240D01*
X338600Y188260D01*
X338590Y188280D01*
X338570Y188300D01*
X338560Y188330D01*
X338550Y188350D01*
X338540Y188380D01*
Y188400D01*
X338530Y188430D01*
Y188450D01*
X338520Y188480D01*
Y190080D01*
X338530Y190110D01*
Y190130D01*
X338540Y190160D01*
Y190180D01*
X338550Y190210D01*
X338560Y190230D01*
X338570Y190260D01*
X338590Y190280D01*
X338600Y190300D01*
X338620Y190320D01*
X338630Y190340D01*
X338650Y190360D01*
X338670Y190380D01*
X338690Y190400D01*
X338710Y190420D01*
X338730Y190430D01*
X338750Y190450D01*
X338770Y190460D01*
X338790Y190480D01*
X338820Y190490D01*
X338840Y190500D01*
X338870Y190510D01*
X338890D01*
X338920Y190520D01*
X338940D01*
X338970Y190530D01*
X342020D01*
Y193580D01*
X342030Y193610D01*
Y193630D01*
X342040Y193660D01*
Y193680D01*
X342050Y193710D01*
X342060Y193730D01*
X342070Y193760D01*
X342090Y193780D01*
X342100Y193800D01*
X342120Y193820D01*
X342130Y193840D01*
X342150Y193860D01*
X342170Y193880D01*
X342190Y193900D01*
X342210Y193920D01*
X342230Y193930D01*
X342250Y193950D01*
X342270Y193960D01*
X342290Y193980D01*
X342320Y193990D01*
X342340Y194000D01*
X342370Y194010D01*
X342390D01*
X342420Y194020D01*
X342440D01*
X342470Y194030D01*
X344570D01*
X344600Y194020D01*
D02*
G37*
G36*
X699770Y281940D02*
Y231084D01*
X711144Y219710D01*
X711200D01*
Y185420D01*
X709930Y184150D01*
X675640D01*
X675617Y212057D01*
X668020Y219654D01*
X668020Y283210D01*
X669839Y285029D01*
X696681Y285029D01*
X699770Y281940D01*
D02*
G37*
G36*
X362100Y176020D02*
X362120D01*
X362150Y176010D01*
X362170D01*
X362200Y176000D01*
X362220Y175990D01*
X362250Y175980D01*
X362270Y175960D01*
X362290Y175950D01*
X362310Y175930D01*
X362330Y175920D01*
X362350Y175900D01*
X362370Y175880D01*
X362390Y175860D01*
X362410Y175840D01*
X362420Y175820D01*
X362440Y175800D01*
X362450Y175780D01*
X362470Y175760D01*
X362480Y175730D01*
X362490Y175710D01*
X362500Y175680D01*
Y175660D01*
X362510Y175630D01*
Y175610D01*
X362520Y175580D01*
Y173980D01*
X362510Y173950D01*
Y173930D01*
X362500Y173900D01*
Y173880D01*
X362490Y173850D01*
X362480Y173830D01*
X362470Y173800D01*
X362450Y173780D01*
X362440Y173760D01*
X362420Y173740D01*
X362410Y173720D01*
X362390Y173700D01*
X362370Y173680D01*
X362350Y173660D01*
X362330Y173640D01*
X362310Y173630D01*
X362290Y173610D01*
X362270Y173600D01*
X362250Y173580D01*
X362220Y173570D01*
X362200Y173560D01*
X362170Y173550D01*
X362150D01*
X362120Y173540D01*
X362100D01*
X362070Y173530D01*
X359020D01*
Y170480D01*
X359010Y170450D01*
Y170430D01*
X359000Y170400D01*
Y170380D01*
X358990Y170350D01*
X358980Y170330D01*
X358970Y170300D01*
X358950Y170280D01*
X358940Y170260D01*
X358920Y170240D01*
X358910Y170220D01*
X358890Y170200D01*
X358870Y170180D01*
X358850Y170160D01*
X358830Y170140D01*
X358810Y170130D01*
X358790Y170110D01*
X358770Y170100D01*
X358750Y170080D01*
X358720Y170070D01*
X358700Y170060D01*
X358670Y170050D01*
X358650D01*
X358620Y170040D01*
X358600D01*
X358570Y170030D01*
X356470D01*
X356440Y170040D01*
X356420D01*
X356390Y170050D01*
X356370D01*
X356340Y170060D01*
X356320Y170070D01*
X356290Y170080D01*
X356270Y170100D01*
X356250Y170110D01*
X356230Y170130D01*
X356210Y170140D01*
X356190Y170160D01*
X356170Y170180D01*
X356150Y170200D01*
X356130Y170220D01*
X356120Y170240D01*
X356100Y170260D01*
X356090Y170280D01*
X356070Y170300D01*
X356060Y170330D01*
X356050Y170350D01*
X356040Y170380D01*
Y170400D01*
X356030Y170430D01*
Y170450D01*
X356020Y170480D01*
Y175580D01*
X356030Y175610D01*
Y175630D01*
X356040Y175660D01*
Y175680D01*
X356050Y175710D01*
X356060Y175730D01*
X356070Y175760D01*
X356090Y175780D01*
X356100Y175800D01*
X356120Y175820D01*
X356130Y175840D01*
X356150Y175860D01*
X356170Y175880D01*
X356190Y175900D01*
X356210Y175920D01*
X356230Y175930D01*
X356250Y175950D01*
X356270Y175960D01*
X356290Y175980D01*
X356320Y175990D01*
X356340Y176000D01*
X356370Y176010D01*
X356390D01*
X356420Y176020D01*
X356440D01*
X356470Y176030D01*
X362070D01*
X362100Y176020D01*
D02*
G37*
G36*
X344600D02*
X344620D01*
X344650Y176010D01*
X344670D01*
X344700Y176000D01*
X344720Y175990D01*
X344750Y175980D01*
X344770Y175960D01*
X344790Y175950D01*
X344810Y175930D01*
X344830Y175920D01*
X344850Y175900D01*
X344870Y175880D01*
X344890Y175860D01*
X344910Y175840D01*
X344920Y175820D01*
X344940Y175800D01*
X344950Y175780D01*
X344970Y175760D01*
X344980Y175730D01*
X344990Y175710D01*
X345000Y175680D01*
Y175660D01*
X345010Y175630D01*
Y175610D01*
X345020Y175580D01*
Y170480D01*
X345010Y170450D01*
Y170430D01*
X345000Y170400D01*
Y170380D01*
X344990Y170350D01*
X344980Y170330D01*
X344970Y170300D01*
X344950Y170280D01*
X344940Y170260D01*
X344920Y170240D01*
X344910Y170220D01*
X344890Y170200D01*
X344870Y170180D01*
X344850Y170160D01*
X344830Y170140D01*
X344810Y170130D01*
X344790Y170110D01*
X344770Y170100D01*
X344750Y170080D01*
X344720Y170070D01*
X344700Y170060D01*
X344670Y170050D01*
X344650D01*
X344620Y170040D01*
X344600D01*
X344570Y170030D01*
X342470D01*
X342440Y170040D01*
X342420D01*
X342390Y170050D01*
X342370D01*
X342340Y170060D01*
X342320Y170070D01*
X342290Y170080D01*
X342270Y170100D01*
X342250Y170110D01*
X342230Y170130D01*
X342210Y170140D01*
X342190Y170160D01*
X342170Y170180D01*
X342150Y170200D01*
X342130Y170220D01*
X342120Y170240D01*
X342100Y170260D01*
X342090Y170280D01*
X342070Y170300D01*
X342060Y170330D01*
X342050Y170350D01*
X342040Y170380D01*
Y170400D01*
X342030Y170430D01*
Y170450D01*
X342020Y170480D01*
Y173530D01*
X338970D01*
X338940Y173540D01*
X338920D01*
X338890Y173550D01*
X338870D01*
X338840Y173560D01*
X338820Y173570D01*
X338790Y173580D01*
X338770Y173600D01*
X338750Y173610D01*
X338730Y173630D01*
X338710Y173640D01*
X338690Y173660D01*
X338670Y173680D01*
X338650Y173700D01*
X338630Y173720D01*
X338620Y173740D01*
X338600Y173760D01*
X338590Y173780D01*
X338570Y173800D01*
X338560Y173830D01*
X338550Y173850D01*
X338540Y173880D01*
Y173900D01*
X338530Y173930D01*
Y173950D01*
X338520Y173980D01*
Y175580D01*
X338530Y175610D01*
Y175630D01*
X338540Y175660D01*
Y175680D01*
X338550Y175710D01*
X338560Y175730D01*
X338570Y175760D01*
X338590Y175780D01*
X338600Y175800D01*
X338620Y175820D01*
X338630Y175840D01*
X338650Y175860D01*
X338670Y175880D01*
X338690Y175900D01*
X338710Y175920D01*
X338730Y175930D01*
X338750Y175950D01*
X338770Y175960D01*
X338790Y175980D01*
X338820Y175990D01*
X338840Y176000D01*
X338870Y176010D01*
X338890D01*
X338920Y176020D01*
X338940D01*
X338970Y176030D01*
X344570D01*
X344600Y176020D01*
D02*
G37*
G36*
X622300Y179070D02*
X638810D01*
Y158750D01*
X591820D01*
X588010Y162560D01*
X579120D01*
X575310Y158750D01*
Y124460D01*
X574040Y123190D01*
X558800Y123190D01*
X557530Y124460D01*
Y149352D01*
X554482Y152400D01*
X526796Y152400D01*
Y154940D01*
X554736D01*
X557530Y157734D01*
Y183134D01*
X559816Y185420D01*
X615950D01*
X622300Y179070D01*
D02*
G37*
G36*
X546560Y163080D02*
X546580D01*
X546610Y163070D01*
X546630D01*
X546660Y163060D01*
X546680Y163050D01*
X546710Y163040D01*
X546730Y163020D01*
X546750Y163010D01*
X546770Y162990D01*
X546790Y162980D01*
X546810Y162960D01*
X546830Y162940D01*
X546850Y162920D01*
X546870Y162900D01*
X546880Y162880D01*
X546900Y162860D01*
X546910Y162840D01*
X546930Y162820D01*
X546940Y162790D01*
X546950Y162770D01*
X546960Y162740D01*
Y162720D01*
X546970Y162690D01*
Y162670D01*
X546980Y162640D01*
Y159590D01*
X550030D01*
X550060Y159580D01*
X550080D01*
X550110Y159570D01*
X550130D01*
X550160Y159560D01*
X550180Y159550D01*
X550210Y159540D01*
X550230Y159520D01*
X550250Y159510D01*
X550270Y159490D01*
X550290Y159480D01*
X550310Y159460D01*
X550330Y159440D01*
X550350Y159420D01*
X550370Y159400D01*
X550380Y159380D01*
X550400Y159360D01*
X550410Y159340D01*
X550430Y159320D01*
X550440Y159290D01*
X550450Y159270D01*
X550460Y159240D01*
Y159220D01*
X550470Y159190D01*
Y159170D01*
X550480Y159140D01*
Y157540D01*
X550470Y157510D01*
Y157490D01*
X550460Y157460D01*
Y157440D01*
X550450Y157410D01*
X550440Y157390D01*
X550430Y157360D01*
X550410Y157340D01*
X550400Y157320D01*
X550380Y157300D01*
X550370Y157280D01*
X550350Y157260D01*
X550330Y157240D01*
X550310Y157220D01*
X550290Y157200D01*
X550270Y157190D01*
X550250Y157170D01*
X550230Y157160D01*
X550210Y157140D01*
X550180Y157130D01*
X550160Y157120D01*
X550130Y157110D01*
X550110D01*
X550080Y157100D01*
X550060D01*
X550030Y157090D01*
X544430D01*
X544400Y157100D01*
X544380D01*
X544350Y157110D01*
X544330D01*
X544300Y157120D01*
X544280Y157130D01*
X544250Y157140D01*
X544230Y157160D01*
X544210Y157170D01*
X544190Y157190D01*
X544170Y157200D01*
X544150Y157220D01*
X544130Y157240D01*
X544110Y157260D01*
X544090Y157280D01*
X544080Y157300D01*
X544060Y157320D01*
X544050Y157340D01*
X544030Y157360D01*
X544020Y157390D01*
X544010Y157410D01*
X544000Y157440D01*
Y157460D01*
X543990Y157490D01*
Y157510D01*
X543980Y157540D01*
Y162640D01*
X543990Y162670D01*
Y162690D01*
X544000Y162720D01*
Y162740D01*
X544010Y162770D01*
X544020Y162790D01*
X544030Y162820D01*
X544050Y162840D01*
X544060Y162860D01*
X544080Y162880D01*
X544090Y162900D01*
X544110Y162920D01*
X544130Y162940D01*
X544150Y162960D01*
X544170Y162980D01*
X544190Y162990D01*
X544210Y163010D01*
X544230Y163020D01*
X544250Y163040D01*
X544280Y163050D01*
X544300Y163060D01*
X544330Y163070D01*
X544350D01*
X544380Y163080D01*
X544400D01*
X544430Y163090D01*
X546530D01*
X546560Y163080D01*
D02*
G37*
G36*
X532560D02*
X532580D01*
X532610Y163070D01*
X532630D01*
X532660Y163060D01*
X532680Y163050D01*
X532710Y163040D01*
X532730Y163020D01*
X532750Y163010D01*
X532770Y162990D01*
X532790Y162980D01*
X532810Y162960D01*
X532830Y162940D01*
X532850Y162920D01*
X532870Y162900D01*
X532880Y162880D01*
X532900Y162860D01*
X532910Y162840D01*
X532930Y162820D01*
X532940Y162790D01*
X532950Y162770D01*
X532960Y162740D01*
Y162720D01*
X532970Y162690D01*
Y162670D01*
X532980Y162640D01*
Y157540D01*
X532970Y157510D01*
Y157490D01*
X532960Y157460D01*
Y157440D01*
X532950Y157410D01*
X532940Y157390D01*
X532930Y157360D01*
X532910Y157340D01*
X532900Y157320D01*
X532880Y157300D01*
X532870Y157280D01*
X532850Y157260D01*
X532830Y157240D01*
X532810Y157220D01*
X532790Y157200D01*
X532770Y157190D01*
X532750Y157170D01*
X532730Y157160D01*
X532710Y157140D01*
X532680Y157130D01*
X532660Y157120D01*
X532630Y157110D01*
X532610D01*
X532580Y157100D01*
X532560D01*
X532530Y157090D01*
X526930D01*
X526900Y157100D01*
X526880D01*
X526850Y157110D01*
X526830D01*
X526800Y157120D01*
X526780Y157130D01*
X526750Y157140D01*
X526730Y157160D01*
X526710Y157170D01*
X526690Y157190D01*
X526670Y157200D01*
X526650Y157220D01*
X526630Y157240D01*
X526610Y157260D01*
X526590Y157280D01*
X526580Y157300D01*
X526560Y157320D01*
X526550Y157340D01*
X526530Y157360D01*
X526520Y157390D01*
X526510Y157410D01*
X526500Y157440D01*
Y157460D01*
X526490Y157490D01*
Y157510D01*
X526480Y157540D01*
Y159140D01*
X526490Y159170D01*
Y159190D01*
X526500Y159220D01*
Y159240D01*
X526510Y159270D01*
X526520Y159290D01*
X526530Y159320D01*
X526550Y159340D01*
X526560Y159360D01*
X526580Y159380D01*
X526590Y159400D01*
X526610Y159420D01*
X526630Y159440D01*
X526650Y159460D01*
X526670Y159480D01*
X526690Y159490D01*
X526710Y159510D01*
X526730Y159520D01*
X526750Y159540D01*
X526780Y159550D01*
X526800Y159560D01*
X526830Y159570D01*
X526850D01*
X526880Y159580D01*
X526900D01*
X526930Y159590D01*
X529980D01*
Y162640D01*
X529990Y162670D01*
Y162690D01*
X530000Y162720D01*
Y162740D01*
X530010Y162770D01*
X530020Y162790D01*
X530030Y162820D01*
X530050Y162840D01*
X530060Y162860D01*
X530080Y162880D01*
X530090Y162900D01*
X530110Y162920D01*
X530130Y162940D01*
X530150Y162960D01*
X530170Y162980D01*
X530190Y162990D01*
X530210Y163010D01*
X530230Y163020D01*
X530250Y163040D01*
X530280Y163050D01*
X530300Y163060D01*
X530330Y163070D01*
X530350D01*
X530380Y163080D01*
X530400D01*
X530430Y163090D01*
X532530D01*
X532560Y163080D01*
D02*
G37*
G36*
X550060Y145080D02*
X550080D01*
X550110Y145070D01*
X550130D01*
X550160Y145060D01*
X550180Y145050D01*
X550210Y145040D01*
X550230Y145020D01*
X550250Y145010D01*
X550270Y144990D01*
X550290Y144980D01*
X550310Y144960D01*
X550330Y144940D01*
X550350Y144920D01*
X550370Y144900D01*
X550380Y144880D01*
X550400Y144860D01*
X550410Y144840D01*
X550430Y144820D01*
X550440Y144790D01*
X550450Y144770D01*
X550460Y144740D01*
Y144720D01*
X550470Y144690D01*
Y144670D01*
X550480Y144640D01*
Y143040D01*
X550470Y143010D01*
Y142990D01*
X550460Y142960D01*
Y142940D01*
X550450Y142910D01*
X550440Y142890D01*
X550430Y142860D01*
X550410Y142840D01*
X550400Y142820D01*
X550380Y142800D01*
X550370Y142780D01*
X550350Y142760D01*
X550330Y142740D01*
X550310Y142720D01*
X550290Y142700D01*
X550270Y142690D01*
X550250Y142670D01*
X550230Y142660D01*
X550210Y142640D01*
X550180Y142630D01*
X550160Y142620D01*
X550130Y142610D01*
X550110D01*
X550080Y142600D01*
X550060D01*
X550030Y142590D01*
X546980D01*
Y139540D01*
X546970Y139510D01*
Y139490D01*
X546960Y139460D01*
Y139440D01*
X546950Y139410D01*
X546940Y139390D01*
X546930Y139360D01*
X546910Y139340D01*
X546900Y139320D01*
X546880Y139300D01*
X546870Y139280D01*
X546850Y139260D01*
X546830Y139240D01*
X546810Y139220D01*
X546790Y139200D01*
X546770Y139190D01*
X546750Y139170D01*
X546730Y139160D01*
X546710Y139140D01*
X546680Y139130D01*
X546660Y139120D01*
X546630Y139110D01*
X546610D01*
X546580Y139100D01*
X546560D01*
X546530Y139090D01*
X544430D01*
X544400Y139100D01*
X544380D01*
X544350Y139110D01*
X544330D01*
X544300Y139120D01*
X544280Y139130D01*
X544250Y139140D01*
X544230Y139160D01*
X544210Y139170D01*
X544190Y139190D01*
X544170Y139200D01*
X544150Y139220D01*
X544130Y139240D01*
X544110Y139260D01*
X544090Y139280D01*
X544080Y139300D01*
X544060Y139320D01*
X544050Y139340D01*
X544030Y139360D01*
X544020Y139390D01*
X544010Y139410D01*
X544000Y139440D01*
Y139460D01*
X543990Y139490D01*
Y139510D01*
X543980Y139540D01*
Y144640D01*
X543990Y144670D01*
Y144690D01*
X544000Y144720D01*
Y144740D01*
X544010Y144770D01*
X544020Y144790D01*
X544030Y144820D01*
X544050Y144840D01*
X544060Y144860D01*
X544080Y144880D01*
X544090Y144900D01*
X544110Y144920D01*
X544130Y144940D01*
X544150Y144960D01*
X544170Y144980D01*
X544190Y144990D01*
X544210Y145010D01*
X544230Y145020D01*
X544250Y145040D01*
X544280Y145050D01*
X544300Y145060D01*
X544330Y145070D01*
X544350D01*
X544380Y145080D01*
X544400D01*
X544430Y145090D01*
X550030D01*
X550060Y145080D01*
D02*
G37*
G36*
X532560D02*
X532580D01*
X532610Y145070D01*
X532630D01*
X532660Y145060D01*
X532680Y145050D01*
X532710Y145040D01*
X532730Y145020D01*
X532750Y145010D01*
X532770Y144990D01*
X532790Y144980D01*
X532810Y144960D01*
X532830Y144940D01*
X532850Y144920D01*
X532870Y144900D01*
X532880Y144880D01*
X532900Y144860D01*
X532910Y144840D01*
X532930Y144820D01*
X532940Y144790D01*
X532950Y144770D01*
X532960Y144740D01*
Y144720D01*
X532970Y144690D01*
Y144670D01*
X532980Y144640D01*
Y139540D01*
X532970Y139510D01*
Y139490D01*
X532960Y139460D01*
Y139440D01*
X532950Y139410D01*
X532940Y139390D01*
X532930Y139360D01*
X532910Y139340D01*
X532900Y139320D01*
X532880Y139300D01*
X532870Y139280D01*
X532850Y139260D01*
X532830Y139240D01*
X532810Y139220D01*
X532790Y139200D01*
X532770Y139190D01*
X532750Y139170D01*
X532730Y139160D01*
X532710Y139140D01*
X532680Y139130D01*
X532660Y139120D01*
X532630Y139110D01*
X532610D01*
X532580Y139100D01*
X532560D01*
X532530Y139090D01*
X530430D01*
X530400Y139100D01*
X530380D01*
X530350Y139110D01*
X530330D01*
X530300Y139120D01*
X530280Y139130D01*
X530250Y139140D01*
X530230Y139160D01*
X530210Y139170D01*
X530190Y139190D01*
X530170Y139200D01*
X530150Y139220D01*
X530130Y139240D01*
X530110Y139260D01*
X530090Y139280D01*
X530080Y139300D01*
X530060Y139320D01*
X530050Y139340D01*
X530030Y139360D01*
X530020Y139390D01*
X530010Y139410D01*
X530000Y139440D01*
Y139460D01*
X529990Y139490D01*
Y139510D01*
X529980Y139540D01*
Y142590D01*
X526930D01*
X526900Y142600D01*
X526880D01*
X526850Y142610D01*
X526830D01*
X526800Y142620D01*
X526780Y142630D01*
X526750Y142640D01*
X526730Y142660D01*
X526710Y142670D01*
X526690Y142690D01*
X526670Y142700D01*
X526650Y142720D01*
X526630Y142740D01*
X526610Y142760D01*
X526590Y142780D01*
X526580Y142800D01*
X526560Y142820D01*
X526550Y142840D01*
X526530Y142860D01*
X526520Y142890D01*
X526510Y142910D01*
X526500Y142940D01*
Y142960D01*
X526490Y142990D01*
Y143010D01*
X526480Y143040D01*
Y144640D01*
X526490Y144670D01*
Y144690D01*
X526500Y144720D01*
Y144740D01*
X526510Y144770D01*
X526520Y144790D01*
X526530Y144820D01*
X526550Y144840D01*
X526560Y144860D01*
X526580Y144880D01*
X526590Y144900D01*
X526610Y144920D01*
X526630Y144940D01*
X526650Y144960D01*
X526670Y144980D01*
X526690Y144990D01*
X526710Y145010D01*
X526730Y145020D01*
X526750Y145040D01*
X526780Y145050D01*
X526800Y145060D01*
X526830Y145070D01*
X526850D01*
X526880Y145080D01*
X526900D01*
X526930Y145090D01*
X532530D01*
X532560Y145080D01*
D02*
G37*
G36*
X668020Y414020D02*
X674370Y407670D01*
Y295910D01*
X662940Y284480D01*
Y217170D01*
X671576Y208534D01*
X671576Y100584D01*
X681990Y90170D01*
X708660D01*
X711200Y87630D01*
Y59690D01*
X708660Y57150D01*
X677000D01*
X669290Y64860D01*
Y87630D01*
X664210Y92710D01*
X646430D01*
X641350Y87630D01*
Y60960D01*
X636270Y55880D01*
X560070D01*
X551180Y64770D01*
Y119380D01*
X552450Y120650D01*
X575310D01*
X577850Y123190D01*
Y157480D01*
X580390Y160020D01*
X586740D01*
X590550Y156210D01*
X605790Y156210D01*
Y116840D01*
X608330Y114300D01*
X654050D01*
X656590Y116840D01*
Y144526D01*
X642112D01*
Y181610D01*
X623570D01*
X617220Y187960D01*
X546190D01*
X541020Y193130D01*
X541020Y215900D01*
X546100Y220980D01*
Y255270D01*
X541020Y260350D01*
X508000D01*
X504190Y256540D01*
Y246380D01*
X502920Y245110D01*
X464820D01*
X462280Y242570D01*
Y224790D01*
X429260D01*
X421640Y232410D01*
X377190D01*
X374650Y234950D01*
Y260205D01*
X376065Y261620D01*
X431800D01*
Y273050D01*
X434340Y275590D01*
X589280D01*
X594360Y280670D01*
Y349250D01*
X586740Y356870D01*
Y411480D01*
X589280Y414020D01*
X668020Y414020D01*
D02*
G37*
G36*
X337312Y180848D02*
X492252Y180848D01*
X493268Y179832D01*
Y163830D01*
X519430Y163830D01*
X520700Y162560D01*
Y154940D01*
X525780Y149860D01*
X551180D01*
Y147320D01*
X525780D01*
X518160Y139700D01*
Y100330D01*
X516890Y99060D01*
X501650D01*
X501650Y139700D01*
X504190Y142240D01*
Y154940D01*
X502920Y156210D01*
X486410Y156210D01*
X485140Y154940D01*
X485140Y142240D01*
X478790Y135890D01*
X396240D01*
X392430Y139700D01*
X392430Y161290D01*
X389890Y163830D01*
X370840Y163830D01*
X365760Y168910D01*
X365760Y178308D01*
X337058D01*
X331724Y172974D01*
Y164846D01*
X330708Y163830D01*
X322580D01*
X316230Y163830D01*
X313690Y161290D01*
Y111760D01*
X317500Y107950D01*
Y59690D01*
X314960Y57150D01*
X285750D01*
X283210Y59690D01*
Y186690D01*
X331470D01*
X337312Y180848D01*
D02*
G37*
G36*
X847090Y201930D02*
X872490D01*
Y176530D01*
X859790Y176530D01*
X857250Y173990D01*
Y139700D01*
X861060Y135890D01*
X877570D01*
X880110Y133350D01*
Y100330D01*
X877570Y97790D01*
X836930D01*
X834390Y100330D01*
Y140970D01*
X830580Y144780D01*
Y181610D01*
Y201930D01*
X833120Y204470D01*
X844550D01*
X847090Y201930D01*
D02*
G37*
G36*
X774700Y302260D02*
X781050Y295910D01*
X781050Y237490D01*
X783590Y234950D01*
Y100330D01*
X781050Y97790D01*
X715010D01*
X713740Y99060D01*
X713740Y137160D01*
X715010Y138430D01*
X730250D01*
X732790Y140970D01*
Y217170D01*
X722000Y227960D01*
X722000Y302260D01*
X774700Y302260D01*
D02*
G37*
G36*
X693420Y140970D02*
X695960Y138430D01*
X709930D01*
X711200Y137160D01*
Y99060D01*
X709930Y97790D01*
X678180Y97790D01*
X675640Y100330D01*
Y153670D01*
X693420D01*
Y140970D01*
D02*
G37*
G36*
X274320Y350520D02*
Y59690D01*
X271780Y57150D01*
X181610Y57150D01*
X179070Y59690D01*
Y146050D01*
X203200Y170180D01*
X203200Y252730D01*
X187960Y267970D01*
Y346710D01*
X195580Y354330D01*
X270510D01*
X274320Y350520D01*
D02*
G37*
G36*
X389890Y160020D02*
Y138430D01*
X394970Y133350D01*
X480060D01*
X487680Y140970D01*
Y152400D01*
X488950Y153670D01*
X500380D01*
X501650Y152400D01*
Y143510D01*
X499110Y140970D01*
Y59690D01*
X496570Y57150D01*
X444500Y57150D01*
X441960Y59690D01*
Y88900D01*
X431800Y99060D01*
X391160D01*
X381000Y88900D01*
Y59690D01*
X378460Y57150D01*
X325120D01*
X322580Y59690D01*
X322580Y107950D01*
X372111D01*
X377190Y113029D01*
Y129540D01*
X361950D01*
X344170Y129540D01*
X342900Y130810D01*
Y144780D01*
X344170Y146050D01*
X373380D01*
X375920Y148590D01*
Y161290D01*
X388620D01*
X389890Y160020D01*
D02*
G37*
%LPC*%
G36*
X113074Y528720D02*
X110726D01*
X108457Y528112D01*
X106423Y526938D01*
X104762Y525277D01*
X103588Y523243D01*
X102980Y520974D01*
Y518626D01*
X103588Y516357D01*
X104762Y514323D01*
X106423Y512662D01*
X108457Y511488D01*
X110726Y510880D01*
X113074D01*
X115343Y511488D01*
X117377Y512662D01*
X119038Y514323D01*
X120212Y516357D01*
X120820Y518626D01*
Y520974D01*
X120212Y523243D01*
X119038Y525277D01*
X117377Y526938D01*
X115343Y528112D01*
X113074Y528720D01*
D02*
G37*
G36*
X87674D02*
X85326D01*
X83057Y528112D01*
X81023Y526938D01*
X79362Y525277D01*
X78188Y523243D01*
X77580Y520974D01*
Y518626D01*
X78188Y516357D01*
X79362Y514323D01*
X81023Y512662D01*
X83057Y511488D01*
X85326Y510880D01*
X87674D01*
X89943Y511488D01*
X91977Y512662D01*
X93638Y514323D01*
X94812Y516357D01*
X95420Y518626D01*
Y520974D01*
X94812Y523243D01*
X93638Y525277D01*
X91977Y526938D01*
X89943Y528112D01*
X87674Y528720D01*
D02*
G37*
G36*
X113074Y503320D02*
X110726D01*
X108457Y502712D01*
X106423Y501538D01*
X104762Y499877D01*
X103588Y497843D01*
X102980Y495574D01*
Y493226D01*
X103588Y490957D01*
X104762Y488923D01*
X106423Y487262D01*
X108457Y486088D01*
X110726Y485480D01*
X113074D01*
X115343Y486088D01*
X117377Y487262D01*
X119038Y488923D01*
X120212Y490957D01*
X120820Y493226D01*
Y495574D01*
X120212Y497843D01*
X119038Y499877D01*
X117377Y501538D01*
X115343Y502712D01*
X113074Y503320D01*
D02*
G37*
G36*
X87674D02*
X85326D01*
X83057Y502712D01*
X81023Y501538D01*
X79362Y499877D01*
X78188Y497843D01*
X77580Y495574D01*
Y493226D01*
X78188Y490957D01*
X79362Y488923D01*
X81023Y487262D01*
X83057Y486088D01*
X85326Y485480D01*
X87674D01*
X89943Y486088D01*
X91977Y487262D01*
X93638Y488923D01*
X94812Y490957D01*
X95420Y493226D01*
Y495574D01*
X94812Y497843D01*
X93638Y499877D01*
X91977Y501538D01*
X89943Y502712D01*
X87674Y503320D01*
D02*
G37*
G36*
X113175Y478682D02*
X110625D01*
X108163Y478022D01*
X105955Y476748D01*
X104152Y474945D01*
X102878Y472737D01*
X102218Y470275D01*
Y467725D01*
X102878Y465263D01*
X104152Y463055D01*
X105955Y461253D01*
X108163Y459978D01*
X110625Y459318D01*
X113175D01*
X115637Y459978D01*
X117845Y461253D01*
X119648Y463055D01*
X120922Y465263D01*
X121582Y467725D01*
Y470275D01*
X120922Y472737D01*
X119648Y474945D01*
X117845Y476748D01*
X115637Y478022D01*
X113175Y478682D01*
D02*
G37*
G36*
Y453282D02*
X110625D01*
X108163Y452622D01*
X105955Y451348D01*
X104152Y449545D01*
X102878Y447337D01*
X102218Y444875D01*
Y442325D01*
X102878Y439863D01*
X104152Y437655D01*
X105955Y435853D01*
X108163Y434578D01*
X110625Y433918D01*
X113175D01*
X115637Y434578D01*
X117845Y435853D01*
X119648Y437655D01*
X120922Y439863D01*
X121582Y442325D01*
Y444875D01*
X120922Y447337D01*
X119648Y449545D01*
X117845Y451348D01*
X115637Y452622D01*
X113175Y453282D01*
D02*
G37*
G36*
X87775D02*
X85225D01*
X82763Y452622D01*
X80555Y451348D01*
X78752Y449545D01*
X77478Y447337D01*
X76818Y444875D01*
Y442325D01*
X77478Y439863D01*
X78752Y437655D01*
X80555Y435853D01*
X82763Y434578D01*
X85225Y433918D01*
X87775D01*
X90237Y434578D01*
X92445Y435853D01*
X94248Y437655D01*
X95522Y439863D01*
X96182Y442325D01*
Y444875D01*
X95522Y447337D01*
X94248Y449545D01*
X92445Y451348D01*
X90237Y452622D01*
X87775Y453282D01*
D02*
G37*
%LPD*%
D15*
X717790Y535940D02*
G03*
X718460Y536610I0J670D01*
G01*
X764160Y519050D02*
G03*
X764540Y519430I0J380D01*
G01*
X598722Y490924D02*
G03*
X599010Y490636I289J0D01*
G01*
X667640Y527050D02*
G03*
X666750Y526160I0J-890D01*
G01*
X854710Y734450D02*
X855100Y734060D01*
X735710Y520860D02*
X736960Y522110D01*
X667640Y549910D02*
X668020Y549530D01*
X636460Y491680D02*
X636650Y491490D01*
X706120Y146940D02*
X706310Y147130D01*
X510825Y548865D02*
X511050Y548640D01*
X325310Y814260D02*
X325500Y814070D01*
X295912Y670450D02*
X295967Y670505D01*
X249684Y737870D02*
X249937Y737617D01*
X230123Y737743D02*
X230250Y737870D01*
X172667Y669235D02*
X172722Y669180D01*
X549410Y193420D02*
X549910D01*
X540730Y184740D02*
X549410Y193420D01*
X381000Y291690D02*
Y292100D01*
Y291690D02*
X383840Y288850D01*
X391460D01*
X380110Y256540D02*
X380180Y256610D01*
X352770Y215990D02*
X360244Y223464D01*
X352770Y191030D02*
Y215990D01*
X540730Y160090D02*
Y184740D01*
X363814Y239734D02*
X364110Y240030D01*
X196660Y786320D02*
X196850Y786510D01*
X287020Y778890D02*
X287210Y778700D01*
X561530Y473520D02*
X561720Y473710D01*
X600710Y662560D02*
X600900Y662750D01*
X555660Y826770D02*
X555880Y826550D01*
X433070Y209662D02*
X434342Y208390D01*
X360172Y164084D02*
Y164479D01*
X357750Y166901D02*
X360172Y164479D01*
X357750Y166901D02*
Y172800D01*
X203657Y567838D02*
X204859Y569040D01*
X210130D01*
X205900Y584040D02*
X210130D01*
X203200Y586740D02*
X205900Y584040D01*
X200179Y581660D02*
X202799Y579040D01*
X210130D01*
X194600Y581660D02*
X200179D01*
X199390Y572770D02*
X199785D01*
X201055Y574040D02*
X210130D01*
X199785Y572770D02*
X201055Y574040D01*
X188790Y587470D02*
X194600Y581660D01*
X213710Y591232D02*
X213730Y591212D01*
X210138Y591232D02*
X213710D01*
X195932Y605438D02*
X210138Y591232D01*
X213730Y590290D02*
Y591212D01*
X189962Y605438D02*
X195932D01*
X189610Y605790D02*
X189962Y605438D01*
X188790Y587470D02*
Y587970D01*
X203262Y567838D02*
X203657D01*
X191569Y568681D02*
X197460Y562790D01*
X213730D01*
X190005Y556655D02*
X191710Y554950D01*
X218710Y562520D02*
X218730Y562540D01*
X218710Y559070D02*
Y562520D01*
X213360Y553720D02*
X218710Y559070D01*
X119760Y101600D02*
Y116460D01*
X111900Y124320D02*
X119760Y116460D01*
X111900Y124320D02*
Y138800D01*
X103760Y101600D02*
Y113410D01*
X99060Y118110D02*
Y151360D01*
Y118110D02*
X103760Y113410D01*
X99060Y151360D02*
X111900Y164200D01*
X527940Y658240D02*
Y709930D01*
Y658240D02*
X537210Y648970D01*
X558800D01*
X286983Y762890D02*
X287020D01*
X260404Y770330D02*
X279580D01*
X283540Y766333D02*
X286983Y762890D01*
X283540Y766333D02*
Y766370D01*
X279580Y770330D02*
X283540Y766370D01*
Y753123D02*
X286983Y749680D01*
X272870Y763830D02*
X283540Y753160D01*
Y753123D02*
Y753160D01*
X286983Y749680D02*
X287020D01*
X260404Y763830D02*
X272870D01*
X357520Y173030D02*
X357750Y172800D01*
X348200Y171250D02*
X348250Y171300D01*
X337440Y154940D02*
X339090Y156590D01*
Y163830D02*
X343520Y168260D01*
X348200Y168122D02*
Y171250D01*
Y168122D02*
X352172Y164151D01*
X339090Y156590D02*
Y163830D01*
X343520Y168260D02*
Y173030D01*
X352172Y155430D02*
Y164151D01*
X188720Y553720D02*
X213360D01*
X318770Y603250D02*
X325240D01*
X297180D02*
X318770D01*
X325240D02*
X333630Y594860D01*
X362030Y272420D02*
X362360Y272750D01*
X356870Y264160D02*
X362030Y269320D01*
Y272420D01*
X391460Y295350D02*
X394160D01*
X395505Y296695D01*
X415290Y284720D02*
Y295207D01*
X395505Y296695D02*
X413802D01*
X415290Y295207D01*
X333593Y347980D02*
X345200D01*
X332105Y346492D02*
X333593Y347980D01*
X368860Y311450D02*
Y314150D01*
X332105Y329148D02*
X335733Y325520D01*
X332105Y329148D02*
Y346492D01*
X367515Y315495D02*
Y320122D01*
X362117Y325520D02*
X367515Y320122D01*
X335733Y325520D02*
X362117D01*
X367515Y315495D02*
X368860Y314150D01*
X391460Y301850D02*
X394160D01*
X395505Y300505D01*
X413802D02*
X415290Y301993D01*
X395505Y300505D02*
X413802D01*
X415290Y301993D02*
Y314720D01*
X350060Y295350D02*
X352760D01*
X348572Y296838D02*
X350060Y295350D01*
X306288Y296838D02*
X348572D01*
X304800Y295350D02*
X306288Y296838D01*
X304800Y283450D02*
Y295350D01*
X528320Y492760D02*
X528700Y492380D01*
X390525Y341630D02*
X396395Y347500D01*
X403140D01*
X403620Y347980D01*
X380515Y315495D02*
Y319630D01*
Y315495D02*
X381860Y314150D01*
Y311450D02*
Y314150D01*
X380515Y319630D02*
X390525Y329640D01*
Y341630D01*
X350060Y301850D02*
X352760D01*
X306288Y300648D02*
X348858D01*
X304800Y302136D02*
X306288Y300648D01*
X348858D02*
X350060Y301850D01*
X304800Y302136D02*
Y313450D01*
X374100Y347500D02*
X380845D01*
X373620Y347980D02*
X374100Y347500D01*
X380845D02*
X386715Y341630D01*
X376705Y315495D02*
Y321208D01*
X386715Y331218D02*
Y341630D01*
X375360Y314150D02*
X376705Y315495D01*
X375360Y311450D02*
Y314150D01*
X376705Y321208D02*
X386715Y331218D01*
X315200Y347980D02*
X326807D01*
X328295Y346492D01*
X334155Y321710D02*
X360539D01*
X328295Y327570D02*
Y346492D01*
Y327570D02*
X334155Y321710D01*
X360539D02*
X363705Y318544D01*
Y315495D02*
Y318544D01*
X362360Y314150D02*
X363705Y315495D01*
X362360Y311450D02*
Y314150D01*
X276360Y578620D02*
X301500D01*
X271780Y574040D02*
X276360Y578620D01*
X198830Y770330D02*
X219404D01*
X206800Y763830D02*
X219404D01*
X197350Y754380D02*
X206800Y763830D01*
X349630Y611640D02*
Y612140D01*
X650240Y561340D02*
X678180D01*
X689519Y581928D02*
X689957Y582367D01*
X678180Y561340D02*
X689519Y572679D01*
Y581928D01*
X648970Y561340D02*
X650240D01*
X632460Y542670D02*
Y560070D01*
X650240Y542670D02*
Y560070D01*
X632460D02*
X633730Y561340D01*
X648970D02*
X650240Y560070D01*
X664210Y572770D02*
X669290Y567690D01*
X643890Y572770D02*
X664210D01*
X669290Y567690D02*
X676910D01*
X681829Y572609D01*
X633730Y562610D02*
X643890Y572770D01*
X681829Y572609D02*
Y582367D01*
X333630Y594360D02*
Y594860D01*
X258130Y584040D02*
X265270D01*
X270510Y589280D01*
X317880Y594360D02*
Y594397D01*
X270510Y589280D02*
X283210D01*
X297180Y603250D01*
X263980Y562790D02*
X273555Y553215D01*
X302705Y554545D02*
X303150Y554990D01*
X285750Y554100D02*
X286195Y554545D01*
X254530Y562790D02*
X263980D01*
X273555Y553215D02*
X285755D01*
X212980Y606955D02*
X215654Y604281D01*
X215759D01*
X218730Y590540D02*
Y601310D01*
X215759Y604281D02*
X218730Y601310D01*
X212980Y606955D02*
Y607060D01*
X210820Y655320D02*
X210850Y655350D01*
X228730Y576540D02*
Y606810D01*
X228980Y607060D01*
X188790Y571355D02*
X191464Y568681D01*
X191569D01*
X188790Y571355D02*
Y571460D01*
X239530Y576540D02*
Y606940D01*
X259020Y655380D02*
X259080Y655320D01*
X258130Y574040D02*
X271780D01*
X301500Y578620D02*
X311160Y568960D01*
X333630Y577813D02*
Y577850D01*
X330187Y574370D02*
X333630Y577813D01*
X330150Y574370D02*
X330187D01*
X324740Y568960D02*
X330150Y574370D01*
X311160Y568960D02*
X324740D01*
X258130Y569040D02*
X271700D01*
X276860Y563880D01*
X340740D01*
X349630Y554990D01*
X284917Y538933D02*
X285750Y538100D01*
X302960Y538290D02*
X303150Y538480D01*
X285750Y538100D02*
X285940Y538290D01*
X249550Y559440D02*
Y562520D01*
Y559440D02*
X253724Y555266D01*
X249530Y562540D02*
X249550Y562520D01*
X253724Y555266D02*
X262614D01*
X278947Y538933D01*
X284917D01*
X249530Y590540D02*
Y600423D01*
X255650Y606544D01*
Y607060D01*
X269160Y579040D02*
X274320Y584200D01*
X291720D02*
X301880Y594360D01*
X258130Y579040D02*
X269160D01*
X274320Y584200D02*
X291720D01*
X541845Y107125D02*
X542290Y106680D01*
X536230Y136870D02*
Y142090D01*
Y136870D02*
X540353Y132747D01*
Y126777D02*
Y132747D01*
Y126777D02*
X541400Y125730D01*
X541845Y125285D01*
X535180Y234190D02*
X535560Y234570D01*
X518160Y234190D02*
X518540Y234570D01*
X496570Y233680D02*
X497080Y234190D01*
X545480Y160090D02*
X545527Y160137D01*
Y164527D02*
X549910Y168910D01*
Y177420D01*
X545527Y160137D02*
Y164527D01*
X536230Y160090D02*
Y184630D01*
X528320Y192540D02*
X536230Y184630D01*
X528320Y192540D02*
Y193040D01*
X527430Y168530D02*
X531433Y164527D01*
Y160137D02*
X531480Y160090D01*
X531433Y160137D02*
Y164527D01*
X527430Y168530D02*
Y173990D01*
X526937Y127267D02*
Y132257D01*
X531480Y136800D01*
X525145Y125475D02*
X526937Y127267D01*
X524890Y106680D02*
X525145Y106935D01*
X531480Y136800D02*
Y142090D01*
X357520Y191030D02*
Y198770D01*
X363220Y204470D01*
Y212980D01*
X348270Y191030D02*
Y218030D01*
X339470Y226830D02*
X348270Y218030D01*
X339470Y202820D02*
X343520Y198770D01*
Y191030D02*
Y198770D01*
X339470Y226830D02*
Y227330D01*
Y202820D02*
Y210820D01*
D24*
X920000Y868058D02*
G03*
X898151Y889999I-22000J-58D01*
G01*
X920000Y774959D02*
G03*
X904000Y757071I2000J-17889D01*
G01*
X714287Y874000D02*
G03*
X731782Y889996I-394J17996D01*
G01*
X904000Y147952D02*
G03*
X920000Y130112I18000J48D01*
G01*
X898000Y10000D02*
G03*
X920000Y32000I0J22000D01*
G01*
X731889Y10000D02*
G03*
X714285Y25998I-17889J-2000D01*
G01*
X198005Y889996D02*
G03*
X215608Y873998I17889J2000D01*
G01*
X31627Y889997D02*
G03*
X10000Y868000I373J-21997D01*
G01*
X215606Y25996D02*
G03*
X198111Y10000I394J-17996D01*
G01*
X10000Y32000D02*
G03*
X32000Y10000I22000J0D01*
G01*
X920000Y845297D02*
Y854297D01*
Y868058D01*
Y836297D02*
Y845297D01*
Y827297D02*
Y836297D01*
Y818297D02*
Y827297D01*
X889250Y889996D02*
X897893D01*
X920000Y791297D02*
Y800297D01*
Y809297D01*
Y782297D02*
Y791297D01*
Y809297D02*
Y818297D01*
Y774959D02*
Y782297D01*
X904000Y751978D02*
X904000Y757016D01*
X904000Y742978D02*
X904000Y751978D01*
X904000Y733978D02*
X904000Y742978D01*
X871250Y889996D02*
X880250D01*
X862250D02*
X871250D01*
X880250D02*
X889250D01*
X826250D02*
X835250D01*
X844250D01*
X808250D02*
X817250D01*
X799250D02*
X808250D01*
X817250D02*
X826250D01*
X781250D02*
X790250D01*
X799250D01*
X853250D02*
X862250D01*
X844250D02*
X853250D01*
X904000Y724978D02*
X904000Y733978D01*
X904000Y670978D02*
Y679978D01*
Y715978D02*
X904000Y724978D01*
X904000Y697978D02*
Y706978D01*
Y544979D02*
Y553979D01*
Y562979D01*
Y535979D02*
Y544979D01*
Y571979D02*
Y580979D01*
Y562979D02*
Y571979D01*
Y508979D02*
Y517979D01*
Y499979D02*
Y508979D01*
Y526979D02*
Y535979D01*
Y517979D02*
Y526979D01*
Y634978D02*
Y643978D01*
Y652978D01*
Y625979D02*
Y634978D01*
Y661978D02*
Y670978D01*
Y652978D02*
Y661978D01*
Y589979D02*
Y598979D01*
Y607979D01*
Y580979D02*
Y589979D01*
Y616978D02*
Y625979D01*
Y607979D02*
Y616978D01*
Y706978D02*
Y715978D01*
Y679978D02*
Y688978D01*
Y697978D01*
X763250Y889996D02*
X772250D01*
X754250D02*
X763250D01*
X772250D02*
X781250D01*
X731782D02*
X745250D01*
X754250D01*
X705901Y873996D02*
X713993D01*
X696901D02*
X705901D01*
X687901D02*
X696901D01*
X678901D02*
X687901D01*
X642901D02*
X651901D01*
X633901D02*
X642901D01*
X651901D02*
X660901D01*
X615901D02*
X624902D01*
X633901D01*
X597901D02*
X606902D01*
X588901D02*
X597901D01*
X606902D02*
X615901D01*
X579902D02*
X588901D01*
X669901D02*
X678901D01*
X660901D02*
X669901D01*
X904000Y463979D02*
Y472979D01*
Y274979D02*
Y283979D01*
Y292979D01*
Y265979D02*
Y274979D01*
Y292979D02*
Y301979D01*
Y229979D02*
Y238979D01*
Y220979D02*
Y229979D01*
Y256979D02*
Y265979D01*
Y238979D02*
Y247979D01*
Y427979D02*
Y436979D01*
Y445979D01*
Y418979D02*
Y427979D01*
Y454979D02*
Y463979D01*
Y445979D02*
Y454979D01*
Y382979D02*
Y391979D01*
Y400979D01*
Y373979D02*
Y382979D01*
Y409979D02*
Y418979D01*
Y400979D02*
Y409979D01*
Y481979D02*
Y490979D01*
Y499979D01*
Y472979D02*
Y481979D01*
Y337979D02*
Y346979D01*
Y355979D01*
Y328979D02*
Y337979D01*
Y364979D02*
Y373979D01*
Y355979D02*
Y364979D01*
Y301979D02*
Y310979D01*
Y319979D01*
Y247979D02*
Y256979D01*
Y319979D02*
Y328979D01*
X920000Y119626D02*
Y130112D01*
Y110626D02*
Y119626D01*
Y101626D02*
Y110626D01*
Y74626D02*
Y83626D01*
Y92626D01*
Y65626D02*
Y74626D01*
Y92626D02*
Y101626D01*
Y38626D02*
Y47626D01*
Y32000D02*
Y38626D01*
Y56626D02*
Y65626D01*
Y47626D02*
Y56626D01*
X904000Y184979D02*
Y193979D01*
Y202979D01*
Y175979D02*
Y184979D01*
Y211979D02*
Y220979D01*
Y202979D02*
Y211979D01*
Y157979D02*
Y166979D01*
Y175979D01*
Y148000D02*
Y157979D01*
X875685Y10000D02*
X884685D01*
X857685D02*
X866685D01*
X875685D01*
X884685D02*
X898000D01*
X839685D02*
X848685D01*
X830685D02*
X839685D01*
X848685D02*
X857685D01*
X812685D02*
X821685D01*
X830685D01*
X794685D02*
X803685D01*
X785685D02*
X794685D01*
X803685D02*
X812685D01*
X767685D02*
X776685D01*
X785685D01*
X740685D02*
X749685D01*
X731889D02*
X740685D01*
X749685D02*
X758685D01*
X767685D01*
X702872Y26002D02*
X713994Y26002D01*
X693872Y26002D02*
X702872Y26002D01*
X684872Y26002D02*
X693872Y26002D01*
X675872Y26002D02*
X684872Y26002D01*
X666872Y26002D02*
X675872Y26002D01*
X657872Y26001D02*
X666872Y26002D01*
X648872Y26001D02*
X657872Y26001D01*
X639872Y26001D02*
X648872Y26001D01*
X630872Y26001D02*
X639872Y26001D01*
X621872Y26001D02*
X630872Y26001D01*
X612872Y26001D02*
X621872Y26001D01*
X603872Y26001D02*
X612872Y26001D01*
X594872Y26001D02*
X603872Y26001D01*
X585872Y26001D02*
X594872Y26001D01*
X576872Y26001D02*
X585872Y26001D01*
X534902Y873996D02*
X543902D01*
X525902D02*
X534902D01*
X543902D02*
X552902D01*
X507902D02*
X516902D01*
X525902D01*
X561902D02*
X570902D01*
X552902D02*
X561902D01*
X570902D02*
X579902D01*
X471902D02*
X480902D01*
X462902D02*
X471902D01*
X480902D02*
X489902D01*
X444902D02*
X453902D01*
X462902D01*
X498902D02*
X507902D01*
X489902D02*
X498902D01*
X426902D02*
X435902D01*
X444902D01*
X420147Y873996D02*
X426902Y873996D01*
X408902Y873996D02*
X420147Y873996D01*
X399902Y873996D02*
X408902Y873996D01*
X390902Y873996D02*
X399902Y873996D01*
X381902Y873996D02*
X390902Y873996D01*
X372902Y873996D02*
X381902Y873996D01*
X363902Y873996D02*
X372902Y873996D01*
X354902Y873995D02*
X363902Y873996D01*
X345902Y873995D02*
X354902Y873995D01*
X336902Y873995D02*
X345902Y873995D01*
X327902Y873995D02*
X336902Y873995D01*
X318902Y873995D02*
X327902Y873995D01*
X190023Y889996D02*
X198005D01*
X172023D02*
X181023D01*
X163023D02*
X172023D01*
X181023D02*
X190023D01*
X154023D02*
X163023D01*
X309902Y873995D02*
X318902Y873995D01*
X300902Y873995D02*
X309902Y873995D01*
X291902Y873995D02*
X300902Y873995D01*
X282902Y873995D02*
X291902Y873995D01*
X273902Y873995D02*
X282902Y873995D01*
X264902Y873995D02*
X273902Y873995D01*
X255902Y873995D02*
X264902Y873995D01*
X246902Y873994D02*
X255902Y873995D01*
X237902Y873994D02*
X246902Y873994D01*
X228902Y873994D02*
X237902Y873994D01*
X215899Y873994D02*
X228902Y873994D01*
X64023Y889996D02*
X73023D01*
X46023D02*
X55023D01*
X64023D01*
X31745D02*
X37023D01*
X46023D01*
X91023D02*
X100023D01*
X82023D02*
X91023D01*
X100023D02*
X109023D01*
X73023D02*
X82023D01*
X136023D02*
X145023D01*
X127023D02*
X136023D01*
X145023D02*
X154023D01*
X109023D02*
X118023D01*
X127023D01*
X10000Y862087D02*
Y868000D01*
Y844087D02*
Y853087D01*
Y862087D01*
Y826087D02*
Y835087D01*
Y844087D01*
Y817087D02*
Y826087D01*
X567872Y26000D02*
X576872Y26001D01*
X558872Y26000D02*
X567872Y26000D01*
X549872Y26000D02*
X558872Y26000D01*
X540872Y26000D02*
X549872Y26000D01*
X531872Y26000D02*
X540872Y26000D01*
X522872Y26000D02*
X531872Y26000D01*
X495872Y26000D02*
X509746D01*
X522872Y26000D01*
X477872Y26000D02*
X486872D01*
X468872D02*
X477872D01*
X486872D02*
X495872D01*
X459872D02*
X468872D01*
X423872D02*
X432872D01*
X414872D02*
X423872D01*
X432872D02*
X441872D01*
X405872D02*
X414872D01*
X441872D02*
X450872D01*
X459872D01*
X369872D02*
X378872D01*
X360872D02*
X369872D01*
X378872D02*
X387872D01*
X342872D02*
X351872D01*
X360872D01*
X387872D02*
X396872D01*
X405872D01*
X9999Y58525D02*
Y67525D01*
Y32133D02*
Y40525D01*
Y49525D02*
Y58525D01*
Y40525D02*
Y49525D01*
Y67525D02*
Y76525D01*
Y85525D02*
Y94525D01*
Y76525D02*
Y85525D01*
X261873Y26000D02*
X270873D01*
X243873D02*
X252873D01*
X261873D01*
X279873D02*
X288873D01*
X270873D02*
X279873D01*
X288873D02*
X297873D01*
X225873D02*
X234873D01*
X243873D01*
X324873D02*
X333872D01*
X315872D02*
X324873D01*
X333872D02*
X342872D01*
X297873D02*
X306873D01*
X315872D01*
X215900Y26000D02*
X225873Y26000D01*
X178431Y10000D02*
X187430D01*
X198111D01*
X124431D02*
X133431D01*
X115431D02*
X124431D01*
X133431D02*
X142431D01*
X97431D02*
X106431D01*
X115431D01*
X160431D02*
X169431D01*
X151431D02*
X160431D01*
X169431D02*
X178431D01*
X142431D02*
X151431D01*
X43431D02*
X52431D01*
X32000D02*
X43431D01*
X52431D02*
X61431D01*
X79431D02*
X88431D01*
X97431D01*
X61431D02*
X70431D01*
X79431D01*
D25*
X371730Y821690D02*
D03*
X387730D02*
D03*
X851660Y480060D02*
D03*
X636650Y491490D02*
D03*
X665100Y130810D02*
D03*
X412370Y821690D02*
D03*
X356490Y640080D02*
D03*
X238124Y796290D02*
D03*
X511430Y193040D02*
D03*
X558290Y106680D02*
D03*
X383922Y155430D02*
D03*
X323470Y227330D02*
D03*
X562230Y709930D02*
D03*
X582550Y570230D02*
D03*
Y473710D02*
D03*
X806070Y480060D02*
D03*
X617730Y736600D02*
D03*
X512700Y473710D02*
D03*
X561720D02*
D03*
X543940Y709930D02*
D03*
X667640Y527050D02*
D03*
X323470Y255270D02*
D03*
X856360Y681990D02*
D03*
Y664210D02*
D03*
Y631190D02*
D03*
X856740Y598170D02*
D03*
X681100Y130810D02*
D03*
X719580Y113030D02*
D03*
X840740Y598170D02*
D03*
Y614680D02*
D03*
X856740D02*
D03*
X840360Y631190D02*
D03*
Y664210D02*
D03*
Y681990D02*
D03*
Y647700D02*
D03*
X856360D02*
D03*
X119760Y101600D02*
D03*
X103760D02*
D03*
X303150Y538480D02*
D03*
X319150D02*
D03*
X172790Y587970D02*
D03*
X188790D02*
D03*
X303150Y554990D02*
D03*
X319150D02*
D03*
X172720Y553720D02*
D03*
X188720D02*
D03*
X317880Y594360D02*
D03*
X301880D02*
D03*
X333630Y577850D02*
D03*
X349630D02*
D03*
X339470Y255270D02*
D03*
X683640Y527050D02*
D03*
X527430Y193040D02*
D03*
X508890Y106680D02*
D03*
X524890D02*
D03*
X527940Y709930D02*
D03*
X541400Y125730D02*
D03*
X525400D02*
D03*
X339470Y227330D02*
D03*
X542290Y106680D02*
D03*
X545720Y473710D02*
D03*
X528700D02*
D03*
X340490Y640080D02*
D03*
X633730Y736600D02*
D03*
X822070Y480060D02*
D03*
X835660D02*
D03*
X306072Y155430D02*
D03*
X322072D02*
D03*
X337440Y154940D02*
D03*
X353440D02*
D03*
X367922Y155430D02*
D03*
X428370Y821690D02*
D03*
X755270Y59690D02*
D03*
X771270D02*
D03*
X755270Y78740D02*
D03*
X771270D02*
D03*
X598550Y473710D02*
D03*
X636650D02*
D03*
X620650D02*
D03*
Y491490D02*
D03*
X651890Y791210D02*
D03*
X635890D02*
D03*
X222124Y796290D02*
D03*
X333630Y554990D02*
D03*
X349630D02*
D03*
Y612140D02*
D03*
X333630D02*
D03*
X598550Y570230D02*
D03*
X103760Y83820D02*
D03*
X119760D02*
D03*
X547750Y307340D02*
D03*
X531750D02*
D03*
X629540Y132080D02*
D03*
X645540D02*
D03*
X703580Y113030D02*
D03*
X578230Y709930D02*
D03*
D26*
X460120Y745490D02*
D03*
X444120D02*
D03*
X634490Y772160D02*
D03*
X717930Y561340D02*
D03*
X735710Y505460D02*
D03*
X667640Y549910D02*
D03*
X601090Y648970D02*
D03*
X821310Y234315D02*
D03*
Y198120D02*
D03*
X818770Y377190D02*
D03*
Y337820D02*
D03*
X790320Y247650D02*
D03*
X598722Y490924D02*
D03*
X593470Y361950D02*
D03*
X583310Y153670D02*
D03*
X573150Y806450D02*
D03*
X511050Y548640D02*
D03*
X558290D02*
D03*
X429260Y571500D02*
D03*
X325500Y814070D02*
D03*
X355220Y746760D02*
D03*
Y730250D02*
D03*
X413640Y627380D02*
D03*
X249684Y737870D02*
D03*
X286130Y607060D02*
D03*
X243460Y533400D02*
D03*
X230250Y737870D02*
D03*
X226510Y533360D02*
D03*
X499490Y306070D02*
D03*
X489710Y212090D02*
D03*
X380110Y256540D02*
D03*
Y240030D02*
D03*
X390270Y190500D02*
D03*
X511430Y176530D02*
D03*
X495300Y147320D02*
D03*
X323470Y281940D02*
D03*
Y210820D02*
D03*
X194690Y294640D02*
D03*
X185800Y106680D02*
D03*
X413640Y745490D02*
D03*
X429640D02*
D03*
X309500Y814070D02*
D03*
X364110Y256540D02*
D03*
X542290Y548640D02*
D03*
X527050D02*
D03*
X557150Y806450D02*
D03*
X265684Y737870D02*
D03*
X214250D02*
D03*
X582721Y490924D02*
D03*
X371220Y730250D02*
D03*
X364110Y240030D02*
D03*
X701930Y561340D02*
D03*
X339470Y281940D02*
D03*
X618490Y772160D02*
D03*
X371220Y746760D02*
D03*
X703200Y130810D02*
D03*
X719200D02*
D03*
X774320Y247650D02*
D03*
X473710Y212090D02*
D03*
X210510Y533360D02*
D03*
X374270Y190500D02*
D03*
X270130Y607060D02*
D03*
X172790Y571460D02*
D03*
X188790D02*
D03*
X333630Y594360D02*
D03*
X349630D02*
D03*
X317880Y577850D02*
D03*
X301880D02*
D03*
X259460Y533400D02*
D03*
X683640Y549910D02*
D03*
X719710Y505460D02*
D03*
X429640Y627380D02*
D03*
X413260Y571500D02*
D03*
X585090Y648970D02*
D03*
X339470Y210820D02*
D03*
X511300Y147320D02*
D03*
X567310Y153670D02*
D03*
X527430Y176530D02*
D03*
X212980Y607060D02*
D03*
X228980D02*
D03*
X239650D02*
D03*
X255650D02*
D03*
X178690Y294640D02*
D03*
X169800Y106680D02*
D03*
X173610Y605790D02*
D03*
X189610D02*
D03*
X483490Y306070D02*
D03*
X454280D02*
D03*
X470280D02*
D03*
X547750Y290830D02*
D03*
X531750D02*
D03*
X577470Y361950D02*
D03*
X834770Y377190D02*
D03*
Y337820D02*
D03*
X837310Y234315D02*
D03*
Y198120D02*
D03*
D27*
X430020Y766070D02*
D03*
X372620D02*
D03*
X430020Y779070D02*
D03*
Y785570D02*
D03*
Y792070D02*
D03*
X372620Y759570D02*
D03*
Y772570D02*
D03*
Y779070D02*
D03*
Y785570D02*
D03*
Y792070D02*
D03*
Y798570D02*
D03*
Y805070D02*
D03*
X430020D02*
D03*
Y798570D02*
D03*
Y772570D02*
D03*
Y759570D02*
D03*
D28*
X837320Y789940D02*
D03*
X836930Y772160D02*
D03*
X856860Y699770D02*
D03*
X811140Y59690D02*
D03*
Y78740D02*
D03*
X119380Y64770D02*
D03*
X102380D02*
D03*
X794140Y59690D02*
D03*
Y78740D02*
D03*
X839860Y699770D02*
D03*
X853930Y772160D02*
D03*
X854320Y789940D02*
D03*
D29*
X854710Y734450D02*
D03*
Y751450D02*
D03*
D30*
X792480Y772540D02*
D03*
X882650Y519810D02*
D03*
X866140D02*
D03*
X775970Y772920D02*
D03*
X694690Y771270D02*
D03*
X711200D02*
D03*
X617220Y831470D02*
D03*
X655320Y771270D02*
D03*
X673955Y770925D02*
D03*
X751840Y519050D02*
D03*
X584200Y678560D02*
D03*
X600710D02*
D03*
X632460Y526670D02*
D03*
X650240D02*
D03*
X656590Y489330D02*
D03*
X612140Y194690D02*
D03*
X706120Y146940D02*
D03*
X450850Y816990D02*
D03*
X431610Y671260D02*
D03*
X414020Y671450D02*
D03*
X549910Y193420D02*
D03*
X363220Y226440D02*
D03*
X325120Y195070D02*
D03*
X142240Y490600D02*
D03*
X450850Y786510D02*
D03*
Y770510D02*
D03*
Y800990D02*
D03*
X882650Y503810D02*
D03*
X414020Y687450D02*
D03*
X584200Y662560D02*
D03*
X142240Y474600D02*
D03*
X617220Y847470D02*
D03*
X431610Y687260D02*
D03*
X866140Y503810D02*
D03*
X600710Y662560D02*
D03*
X775970Y756920D02*
D03*
X792480Y756540D02*
D03*
X711200Y755270D02*
D03*
X751840Y535050D02*
D03*
X673955Y754925D02*
D03*
X549910Y177420D02*
D03*
X363220Y210440D02*
D03*
X694690Y755270D02*
D03*
X656590Y473330D02*
D03*
X325120Y179070D02*
D03*
X655320Y755270D02*
D03*
X706120Y174880D02*
D03*
Y190880D02*
D03*
Y162940D02*
D03*
X612140Y178690D02*
D03*
X285750Y554100D02*
D03*
Y538100D02*
D03*
X632460Y542670D02*
D03*
X650240D02*
D03*
D31*
X808990Y502950D02*
D03*
X847090D02*
D03*
Y552450D02*
D03*
X834390D02*
D03*
X821690D02*
D03*
X808990D02*
D03*
X821690Y502950D02*
D03*
X834390D02*
D03*
D32*
X581160Y855770D02*
D03*
X492660D02*
D03*
X314760Y857780D02*
D03*
X226260D02*
D03*
D33*
X598490Y795680D02*
D03*
X350360Y139040D02*
D03*
X618490Y786180D02*
D03*
X330360Y129540D02*
D03*
X350360Y120040D02*
D03*
X618490Y805180D02*
D03*
D34*
X761839Y734767D02*
D03*
X713833Y582367D02*
D03*
X681829Y734767D02*
D03*
X769967D02*
D03*
X705959Y582367D02*
D03*
X777841D02*
D03*
X729835D02*
D03*
X721961D02*
D03*
X689957D02*
D03*
X681829D02*
D03*
X713833Y734767D02*
D03*
X721961D02*
D03*
X777841D02*
D03*
X785969D02*
D03*
X793843Y582367D02*
D03*
X785969D02*
D03*
X769967D02*
D03*
X673955D02*
D03*
X745837Y734767D02*
D03*
X761839Y582367D02*
D03*
X753965Y734767D02*
D03*
X729835D02*
D03*
X737963D02*
D03*
X793843D02*
D03*
X753965Y582367D02*
D03*
X697831Y734767D02*
D03*
X673955D02*
D03*
X705959D02*
D03*
X689957D02*
D03*
X745837Y582367D02*
D03*
X737963D02*
D03*
X697831D02*
D03*
D35*
X718460Y536610D02*
D03*
X736960Y522110D02*
D03*
Y536610D02*
D03*
X718460Y522110D02*
D03*
D36*
X595630Y515620D02*
D03*
X586130D02*
D03*
X605130Y538720D02*
D03*
X595630D02*
D03*
X586130D02*
D03*
X605130Y515620D02*
D03*
D37*
X887730Y413220D02*
D03*
X888282Y272658D02*
D03*
X887730Y299720D02*
D03*
X888282Y159158D02*
D03*
D38*
X817770Y396242D02*
D03*
X819150Y308610D02*
D03*
X819040Y254002D02*
D03*
X820310Y167642D02*
D03*
X791320Y287022D02*
D03*
Y266702D02*
D03*
X594470Y403862D02*
D03*
Y381002D02*
D03*
X585580Y134622D02*
D03*
X245560Y514310D02*
D03*
X223630Y514348D02*
D03*
X491380Y127002D02*
D03*
X245560Y493990D02*
D03*
X223630Y494028D02*
D03*
X195690Y274318D02*
D03*
X186800Y125728D02*
D03*
X773320Y266702D02*
D03*
Y287022D02*
D03*
X205630Y494028D02*
D03*
Y514348D02*
D03*
X884030Y560068D02*
D03*
X866030D02*
D03*
X263560Y493990D02*
D03*
Y514310D02*
D03*
X177690Y274318D02*
D03*
X509380Y127002D02*
D03*
X168800Y125728D02*
D03*
X576470Y381002D02*
D03*
Y403862D02*
D03*
X835770Y396242D02*
D03*
X837150Y308610D02*
D03*
X837040Y254002D02*
D03*
X838310Y167642D02*
D03*
X567580Y134622D02*
D03*
D39*
X858730Y362720D02*
D03*
Y350220D02*
D03*
X859282Y222158D02*
D03*
Y209658D02*
D03*
Y234658D02*
D03*
Y247158D02*
D03*
Y197158D02*
D03*
Y184658D02*
D03*
X858730Y337720D02*
D03*
Y325220D02*
D03*
Y375220D02*
D03*
Y387720D02*
D03*
D40*
X811530Y119380D02*
D03*
X246380Y461010D02*
D03*
X326150Y435610D02*
D03*
X246500Y414020D02*
D03*
X198000D02*
D03*
X197880Y461010D02*
D03*
X860030Y119380D02*
D03*
X374650Y435610D02*
D03*
D41*
X775970Y366790D02*
D03*
Y415290D02*
D03*
D42*
X746200Y472440D02*
D03*
X676200D02*
D03*
D43*
X797590Y204470D02*
D03*
Y226060D02*
D03*
X604550Y340360D02*
D03*
X604550Y312459D02*
D03*
X345410Y469900D02*
D03*
X769590Y204470D02*
D03*
Y226060D02*
D03*
X576550Y340360D02*
D03*
X373410Y469900D02*
D03*
X576550Y312459D02*
D03*
D44*
X629920Y187960D02*
D03*
X683920D02*
D03*
Y175260D02*
D03*
Y162560D02*
D03*
Y149860D02*
D03*
X629920D02*
D03*
Y162560D02*
D03*
Y175260D02*
D03*
D45*
X593088Y195690D02*
D03*
X295912Y670450D02*
D03*
X172722Y669180D02*
D03*
X570232Y195690D02*
D03*
X434342Y190390D02*
D03*
X458470Y190280D02*
D03*
X410208Y190390D02*
D03*
X304802Y196960D02*
D03*
X161292Y491600D02*
D03*
Y473600D02*
D03*
X434342Y208390D02*
D03*
X410208D02*
D03*
X458470Y208280D02*
D03*
X172722Y687180D02*
D03*
X295912Y688450D02*
D03*
X570232Y177690D02*
D03*
X304802Y178960D02*
D03*
X593088Y177690D02*
D03*
D46*
X518160Y826770D02*
D03*
X251760Y828780D02*
D03*
X276760D02*
D03*
X289260D02*
D03*
X555660Y826770D02*
D03*
X264260Y828780D02*
D03*
X543160Y826770D02*
D03*
X530660D02*
D03*
D47*
X465800Y585470D02*
D03*
X558800Y661670D02*
D03*
Y572770D02*
D03*
Y585470D02*
D03*
Y598170D02*
D03*
Y610870D02*
D03*
Y623570D02*
D03*
Y636270D02*
D03*
Y674370D02*
D03*
Y687070D02*
D03*
X465800Y572770D02*
D03*
Y598170D02*
D03*
Y610870D02*
D03*
Y623570D02*
D03*
Y636270D02*
D03*
Y648970D02*
D03*
Y661670D02*
D03*
Y674370D02*
D03*
Y687070D02*
D03*
X558800Y648970D02*
D03*
D48*
X480681Y504122D02*
D03*
Y491422D02*
D03*
X527925Y529522D02*
D03*
Y504122D02*
D03*
Y491422D02*
D03*
Y516822D02*
D03*
X480681D02*
D03*
Y529522D02*
D03*
D49*
X432529Y588988D02*
D03*
X409529Y607988D02*
D03*
X432529D02*
D03*
X409529Y588988D02*
D03*
D50*
X388620Y674370D02*
D03*
Y687070D02*
D03*
X340620Y699770D02*
D03*
Y687070D02*
D03*
Y674370D02*
D03*
Y661670D02*
D03*
X388620Y699770D02*
D03*
Y661670D02*
D03*
D51*
X260404Y776830D02*
D03*
X219404Y757330D02*
D03*
X260404D02*
D03*
X219404Y776830D02*
D03*
X260404Y770330D02*
D03*
Y763830D02*
D03*
X219404Y770330D02*
D03*
Y763830D02*
D03*
D52*
X299880Y613410D02*
D03*
X319880D02*
D03*
D53*
X239290Y546060D02*
D03*
X228890D02*
D03*
X218890D02*
D03*
X588090Y610870D02*
D03*
X598090D02*
D03*
X249290Y546060D02*
D03*
X588090Y598170D02*
D03*
X598090D02*
D03*
X588010Y623570D02*
D03*
X598010D02*
D03*
X588090Y585470D02*
D03*
X598090D02*
D03*
X588090Y636270D02*
D03*
X598090D02*
D03*
D54*
X515620Y306450D02*
D03*
X369570Y137540D02*
D03*
X551180Y532510D02*
D03*
X287020Y778890D02*
D03*
Y733680D02*
D03*
X196850Y786510D02*
D03*
Y738380D02*
D03*
X156210Y552070D02*
D03*
Y596010D02*
D03*
Y580010D02*
D03*
Y568070D02*
D03*
X835660Y735330D02*
D03*
Y751330D02*
D03*
X196850Y754380D02*
D03*
Y770510D02*
D03*
X287020Y749680D02*
D03*
Y762890D02*
D03*
X369570Y121540D02*
D03*
X518160Y250190D02*
D03*
Y234190D02*
D03*
X515620Y290450D02*
D03*
X551180Y516510D02*
D03*
D55*
X458470Y233680D02*
D03*
X471170D02*
D03*
X483870D02*
D03*
X458470Y287680D02*
D03*
X471170D02*
D03*
X483870D02*
D03*
X496570D02*
D03*
Y233680D02*
D03*
D56*
X391460Y288850D02*
D03*
X352760D02*
D03*
Y301850D02*
D03*
Y295350D02*
D03*
X391460D02*
D03*
Y301850D02*
D03*
X352760Y282350D02*
D03*
X391460D02*
D03*
D57*
X375360Y272750D02*
D03*
X368860D02*
D03*
X375360Y311450D02*
D03*
X381860D02*
D03*
X368860D02*
D03*
X362360D02*
D03*
Y272750D02*
D03*
X381860D02*
D03*
D58*
X352770Y191030D02*
D03*
X540730Y160090D02*
D03*
X536230Y142090D02*
D03*
X540730D02*
D03*
X536230Y160090D02*
D03*
X348270Y173030D02*
D03*
Y191030D02*
D03*
X352770Y173030D02*
D03*
D59*
X458470Y113620D02*
D03*
X412750D02*
D03*
Y155620D02*
D03*
X458470D02*
D03*
D60*
X239800Y236220D02*
D03*
Y181610D02*
D03*
X166600D02*
D03*
Y236220D02*
D03*
D61*
X207100Y327660D02*
D03*
X165100D02*
D03*
D62*
X657699Y710637D02*
D03*
Y702509D02*
D03*
X810099Y710637D02*
D03*
X657699Y670505D02*
D03*
Y598623D02*
D03*
X810099Y694635D02*
D03*
Y630627D02*
D03*
Y702509D02*
D03*
Y678633D02*
D03*
Y670505D02*
D03*
Y662631D02*
D03*
Y654503D02*
D03*
Y606497D02*
D03*
Y598623D02*
D03*
X657699Y606497D02*
D03*
X810099Y718511D02*
D03*
X657699Y686507D02*
D03*
Y630627D02*
D03*
Y694635D02*
D03*
Y614625D02*
D03*
Y678633D02*
D03*
Y622499D02*
D03*
X810099Y614625D02*
D03*
X657699Y638501D02*
D03*
X810099Y622499D02*
D03*
Y638501D02*
D03*
Y686507D02*
D03*
X657699Y646629D02*
D03*
Y654503D02*
D03*
Y662631D02*
D03*
Y718511D02*
D03*
X810099Y646629D02*
D03*
D63*
X617860Y755650D02*
D03*
X634360D02*
D03*
D64*
X403620Y353980D02*
D03*
Y341980D02*
D03*
X373620D02*
D03*
Y353980D02*
D03*
X315200D02*
D03*
Y341980D02*
D03*
X345200Y353980D02*
D03*
Y341980D02*
D03*
D65*
X738907Y254519D02*
D03*
X683260Y254000D02*
D03*
X510424Y368559D02*
D03*
X454776Y368041D02*
D03*
X210820Y655320D02*
D03*
X259080D02*
D03*
D66*
X373266Y505460D02*
D03*
X312166D02*
D03*
D67*
X365760Y554990D02*
D03*
D68*
X615950Y132080D02*
D03*
X535560Y234570D02*
D03*
D69*
X259020Y709930D02*
D03*
X287020D02*
D03*
X210850D02*
D03*
X182850D02*
D03*
D70*
X315200Y347980D02*
D03*
X345200D02*
D03*
X373620D02*
D03*
X403620D02*
D03*
D71*
X421290Y284720D02*
D03*
X409290D02*
D03*
Y314720D02*
D03*
X421290D02*
D03*
X310800Y283450D02*
D03*
X298800D02*
D03*
Y313450D02*
D03*
X310800D02*
D03*
D72*
X415290Y314720D02*
D03*
Y284720D02*
D03*
X304800Y313450D02*
D03*
Y283450D02*
D03*
D74*
X730250Y784940D02*
D03*
Y794940D02*
D03*
X741680Y784940D02*
D03*
Y794940D02*
D03*
X753110Y784940D02*
D03*
Y794940D02*
D03*
X764540Y784940D02*
D03*
Y794940D02*
D03*
D128*
X656920Y168910D02*
D03*
D129*
X234130Y576540D02*
D03*
D130*
X477520Y260680D02*
D03*
D131*
X372110Y292100D02*
D03*
D132*
X350520Y184530D02*
D03*
X538480Y153590D02*
D03*
Y148590D02*
D03*
X350520Y179530D02*
D03*
D133*
X223730Y576540D02*
D03*
X228730D02*
D03*
X244530D02*
D03*
X239530D02*
D03*
D134*
X258130Y584040D02*
D03*
X210130Y579040D02*
D03*
Y584040D02*
D03*
X258130Y574040D02*
D03*
Y569040D02*
D03*
Y579040D02*
D03*
X210130Y569040D02*
D03*
Y574040D02*
D03*
D135*
X254530Y562790D02*
D03*
X213730D02*
D03*
X254530Y590290D02*
D03*
X213730D02*
D03*
D136*
X218730Y590540D02*
D03*
Y562540D02*
D03*
X249530D02*
D03*
Y590540D02*
D03*
D137*
X545480Y142090D02*
D03*
X531480D02*
D03*
Y160090D02*
D03*
X545480D02*
D03*
X357520Y173030D02*
D03*
X343520D02*
D03*
X357520Y191030D02*
D03*
X343520D02*
D03*
D138*
X648970Y561340D02*
D03*
X633730D02*
D03*
D139*
X655320Y78740D02*
X658245Y75815D01*
Y65168D02*
Y75815D01*
Y65168D02*
X671343Y52070D01*
X538837Y61873D02*
Y77113D01*
X556260Y44450D02*
X740030D01*
X538837Y61873D02*
X556260Y44450D01*
X537210Y78740D02*
X538837Y77113D01*
X372620Y798570D02*
X383280D01*
X387730Y803020D01*
Y821690D01*
X371138D02*
X371774Y821054D01*
X363220Y821690D02*
X371138D01*
X350520Y784860D02*
X350875Y785215D01*
X308610Y784860D02*
X350520D01*
X350875Y785215D02*
X372265D01*
X299720Y793750D02*
X308610Y784860D01*
X372265Y785215D02*
X372620Y785570D01*
X312830Y792070D02*
X372620D01*
X303530Y801370D02*
X312830Y792070D01*
X356870Y777240D02*
X357669D01*
X359499Y779070D02*
X372620D01*
X357669Y777240D02*
X359499Y779070D01*
X361120Y772570D02*
X372620D01*
X359440Y770890D02*
X361120Y772570D01*
X351790Y770890D02*
X359440D01*
X280670Y793750D02*
X299720D01*
X264260Y810160D02*
X280670Y793750D01*
X285750Y801370D02*
X303530D01*
X276760Y810360D02*
X285750Y801370D01*
X264260Y810160D02*
Y828780D01*
X276760Y810360D02*
Y828780D01*
X353567Y761257D02*
X358379Y766070D01*
X372620D01*
X460120Y745490D02*
X469900D01*
X413640Y769240D02*
X416970Y772570D01*
X413640Y745490D02*
Y769240D01*
X416970Y772570D02*
X430020D01*
X444120Y745490D02*
Y762380D01*
X440430Y766070D02*
X444120Y762380D01*
X430020Y766070D02*
X440430D01*
X403860Y821690D02*
X412370D01*
X451040Y816800D02*
X460820D01*
X450850Y816990D02*
X451040Y816800D01*
X460820D02*
X461010Y816610D01*
X836930Y802640D02*
X837125Y802445D01*
Y789305D02*
X837320Y789110D01*
X804800Y772540D02*
X805180Y772160D01*
X776350Y772540D02*
X792480D01*
X804800D01*
X855100Y734060D02*
X866140D01*
X856860Y699770D02*
X867410D01*
X775970Y772920D02*
Y783590D01*
X792480Y772540D02*
Y783590D01*
X775970Y772920D02*
X776350Y772540D01*
X775728Y772920D02*
X775970D01*
X772994Y769944D02*
Y770186D01*
X775728Y772920D01*
X673955Y770925D02*
X674197D01*
X676931Y768191D01*
X617030Y831660D02*
X617220Y831470D01*
X572960Y796480D02*
Y806260D01*
X573150Y806450D01*
X598490Y795680D02*
X599440Y796630D01*
X572770Y796290D02*
X572960Y796480D01*
X761839Y758789D02*
X772994Y769944D01*
X761839Y734767D02*
Y758789D01*
X739360Y524510D02*
X746380D01*
X736960Y522110D02*
X739360Y524510D01*
X746380D02*
X749158Y521732D01*
X703580Y535940D02*
X717790D01*
X749158Y521490D02*
X751598Y519050D01*
X749158Y521490D02*
Y521732D01*
X764540Y506730D02*
Y519430D01*
X751598Y519050D02*
X751840D01*
X764160D01*
X703580Y520737D02*
X703617Y520700D01*
X735710Y505460D02*
Y520860D01*
X703580Y520737D02*
Y535940D01*
X703617Y490220D02*
Y520700D01*
X681829Y747869D02*
X684530Y750570D01*
Y760350D01*
X681829Y734767D02*
Y747869D01*
X676931Y767949D02*
Y768191D01*
Y767949D02*
X684530Y760350D01*
X667830Y539940D02*
Y549340D01*
Y539940D02*
X668020Y539750D01*
X667830Y549340D02*
X668020Y549530D01*
X584200Y678560D02*
Y688340D01*
X600710Y678560D02*
Y688340D01*
X601090Y648970D02*
X614680D01*
X650240Y516890D02*
Y526670D01*
X636460Y491680D02*
Y501460D01*
X636270Y501650D02*
X636460Y501460D01*
X632460Y516890D02*
Y526670D01*
X599010Y490636D02*
X599074Y490572D01*
X607978D01*
X851660Y480060D02*
X851915Y479805D01*
Y470155D02*
X852170Y469900D01*
X851915Y470155D02*
Y479805D01*
X764540Y490220D02*
Y506730D01*
X718820Y490220D02*
X735330D01*
X703617D02*
X718820D01*
X750570D02*
X764540D01*
X735330D02*
X750570D01*
X656590Y489330D02*
Y499110D01*
X703580Y490220D02*
X703617D01*
X607978Y490572D02*
X608330Y490220D01*
X811140Y59690D02*
X821690D01*
X811140Y78740D02*
X821690D01*
X717360Y147130D02*
X717550Y147320D01*
X706310Y147130D02*
X717360D01*
X447976Y588010D02*
X450516Y585470D01*
X447040Y588010D02*
X447976D01*
X450516Y585470D02*
X465800D01*
X433507Y588010D02*
X447040D01*
X432529Y588988D02*
X433507Y588010D01*
X413830Y637350D02*
X414020Y637540D01*
X413830Y627570D02*
Y637350D01*
X510601Y548640D02*
X510825Y548865D01*
X558290Y548640D02*
X567690D01*
X501650D02*
X510601D01*
X447040Y571500D02*
Y588010D01*
X429260Y558800D02*
Y571500D01*
X447040Y558800D02*
Y571500D01*
X429260Y558800D02*
X447040D01*
X392430Y637540D02*
X414020D01*
X356490Y640080D02*
X367030D01*
X392430Y608330D02*
X409188D01*
X412750Y558800D02*
X429260D01*
X392430D02*
X412750D01*
X392430Y622300D02*
Y637540D01*
Y608330D02*
Y622300D01*
Y571500D02*
Y590550D01*
Y558800D02*
Y571500D01*
Y590550D02*
Y608330D01*
X325120Y825500D02*
X325310Y825310D01*
Y814260D02*
Y825310D01*
X260350Y777039D02*
X260566D01*
X238124Y796290D02*
X250190D01*
X243840Y748030D02*
X244300Y747570D01*
Y743254D02*
Y747570D01*
X235655Y747465D02*
X236220Y748030D01*
X235655Y744033D02*
Y747465D01*
X246950Y740846D02*
X249937Y737859D01*
Y737617D02*
Y737859D01*
X244300Y743254D02*
X246708Y740846D01*
X246950D01*
X230123Y738501D02*
X235655Y744033D01*
X230123Y737743D02*
Y738501D01*
X380249Y256540D02*
X389890D01*
X380180Y256610D02*
X380249Y256540D01*
X375360Y260915D02*
Y272750D01*
Y260915D02*
X380110Y256165D01*
Y240030D02*
X389890D01*
X363220Y226440D02*
X363600Y226060D01*
X362978Y226440D02*
X363220D01*
X363600Y226060D02*
X373380D01*
X360244Y223706D02*
X362978Y226440D01*
X360244Y223464D02*
Y223706D01*
X323470Y273940D02*
Y281940D01*
X320040Y270510D02*
X323470Y273940D01*
X119380Y53340D02*
Y64770D01*
X430020Y779070D02*
X441790D01*
X450350Y770510D02*
X450850D01*
X441790Y779070D02*
X450350Y770510D01*
X430020Y785570D02*
X447882D01*
X450092Y787780D02*
X450850D01*
X447882Y785570D02*
X450092Y787780D01*
X448168Y798550D02*
X450608Y800990D01*
X441945Y792085D02*
X448168Y798308D01*
X430035Y792085D02*
X441945D01*
X448168Y798308D02*
Y798550D01*
X450608Y800990D02*
X450850D01*
X642620Y715010D02*
X643185Y714445D01*
Y713221D02*
X645769Y710637D01*
X657699D01*
X643185Y713221D02*
Y714445D01*
X429640Y745490D02*
Y759190D01*
X430020Y805070D02*
Y816990D01*
X323470Y255307D02*
X331470Y263307D01*
Y273940D01*
X336240Y278710D01*
X336345D01*
X339470Y281835D02*
Y281940D01*
X336345Y278710D02*
X339470Y281835D01*
Y284290D02*
X341062D01*
X345622Y288850D01*
X352760D01*
X363989Y256661D02*
X365574Y258246D01*
X365816D01*
X368860Y261290D01*
Y272750D01*
X403620Y353980D02*
X403860Y354220D01*
X511810Y462280D02*
Y472820D01*
X512700Y473710D01*
X561530Y462470D02*
Y473520D01*
X561340Y462280D02*
X561530Y462470D01*
X582550Y473710D02*
X582654Y473606D01*
X582550Y570230D02*
X582740Y570040D01*
X667830Y515810D02*
X668020Y515620D01*
X666750Y526160D02*
X667830Y525080D01*
Y515810D02*
Y525080D01*
X794218Y479993D02*
X794251Y480027D01*
X806037D02*
X806070Y480060D01*
X865761Y503432D02*
X866140Y503810D01*
X856360Y631190D02*
X867410D01*
X856740Y598170D02*
X867410D01*
X617540Y755330D02*
X617860Y755650D01*
X775970Y756920D02*
X790320D01*
X792480Y756540D02*
X792670Y756730D01*
X804990D02*
X805180Y756920D01*
X856360Y664210D02*
X867030D01*
X856776Y682406D02*
X866320D01*
X856360Y681990D02*
X856776Y682406D01*
X866320D02*
X866736Y682821D01*
X663890Y847090D02*
Y849950D01*
X616840Y847090D02*
X617220Y847470D01*
X631310Y861060D02*
X652780D01*
X617720Y847470D02*
X631310Y861060D01*
X652780D02*
X663890Y849950D01*
X657600Y702409D02*
X657699Y702509D01*
X642620Y702310D02*
X642719Y702409D01*
X657600D01*
X147320Y699770D02*
Y739140D01*
X132080Y684530D02*
X147320Y699770D01*
Y739140D02*
X162560Y754380D01*
X159436Y548844D02*
Y549019D01*
X174920Y533360D02*
X210510D01*
X156385Y552070D02*
X159436Y549019D01*
Y548844D02*
X174920Y533360D01*
X156210Y552070D02*
X156385D01*
X482637Y457962D02*
X491019Y449580D01*
X482600Y457962D02*
X482637D01*
X642176Y670532D02*
X657671D01*
X638339Y674370D02*
X642176Y670532D01*
X637540Y674370D02*
X638339D01*
X635000Y680720D02*
X642620D01*
X644707Y678633D02*
X657699D01*
X642620Y680720D02*
X644707Y678633D01*
X532130Y783590D02*
X635000Y680720D01*
X530660Y796490D02*
X638810Y688340D01*
X652873Y686507D02*
X657699D01*
X651040Y688340D02*
X652873Y686507D01*
X638810Y688340D02*
X651040D01*
X644045Y662785D02*
X657544D01*
X643890Y662940D02*
X644045Y662785D01*
X657544D02*
X657699Y662631D01*
X342900Y509270D02*
X346710Y505460D01*
X373266D01*
X342900Y509270D02*
Y532130D01*
X333630Y541400D02*
Y554990D01*
Y541400D02*
X342900Y532130D01*
X337820Y509270D02*
Y529590D01*
X334010Y505460D02*
X337820Y509270D01*
X312166Y505460D02*
X334010D01*
X328930Y538480D02*
X337820Y529590D01*
X319150Y554990D02*
X332360D01*
X333630Y556260D01*
X373266Y478676D02*
Y505460D01*
X683920Y187960D02*
X695960D01*
X698880Y190880D01*
X707390D01*
X875030Y614680D02*
X887730Y627380D01*
Y782320D01*
X856740Y614680D02*
X875030D01*
X880110Y789940D02*
X887730Y782320D01*
X854320Y789940D02*
X880110D01*
X847090Y520700D02*
X867410Y541020D01*
X836930Y520700D02*
X847090D01*
X867410Y541020D02*
X877570D01*
X884030Y547480D01*
Y560068D01*
X835660Y463550D02*
Y480060D01*
X680720Y450850D02*
X822960D01*
X835660Y463550D01*
X473710Y452120D02*
X485140Y440690D01*
X834390Y518160D02*
X836930Y520700D01*
X834390Y502950D02*
Y518160D01*
Y502950D02*
X835025Y502315D01*
Y480695D02*
Y502315D01*
X670560Y440690D02*
X680720Y450850D01*
X485140Y440690D02*
X670560D01*
X491019Y449580D02*
X665480D01*
X675640Y459740D01*
X816610D01*
X822070Y465200D01*
Y480060D01*
X865742Y557242D02*
X866030Y557530D01*
X865742Y550782D02*
Y557242D01*
X842010Y527050D02*
X865742Y550782D01*
X828040Y527050D02*
X842010D01*
X821690Y520700D02*
X828040Y527050D01*
X821690Y502950D02*
Y520700D01*
X821880Y480250D02*
X822070Y480060D01*
X821880Y480250D02*
Y502760D01*
X821690Y502950D02*
X821880Y502760D01*
X837480Y535940D02*
X847090Y545550D01*
X789940Y535940D02*
X837480D01*
X102380Y64770D02*
X103070Y65460D01*
Y83130D02*
X103760Y83820D01*
X730250Y794940D02*
Y807720D01*
X702620Y820420D02*
X717210D01*
X656590Y834390D02*
X725170D01*
X717550Y820420D02*
X730250Y807720D01*
X753110Y794940D02*
Y835660D01*
X741680Y794940D02*
Y817880D01*
X725170Y834390D02*
X741680Y817880D01*
Y847090D02*
X753110Y835660D01*
X703890Y847090D02*
X741680D01*
X542914Y810810D02*
Y826524D01*
X543160Y826770D01*
X542667Y810563D02*
X542914Y810810D01*
X157480Y715010D02*
X173990Y731520D01*
X157480Y692150D02*
Y715010D01*
X222187Y806387D02*
X222250Y806450D01*
X222187Y796353D02*
Y806387D01*
X221480Y795646D02*
X222187Y796353D01*
X163450Y770510D02*
X196850D01*
X137160Y722630D02*
Y744220D01*
X163450Y770510D01*
X137530Y672200D02*
X157480Y692150D01*
X111900Y672200D02*
X137530D01*
X98830Y684530D02*
X132080D01*
X820116Y710896D02*
X825500Y716280D01*
X810099Y710637D02*
X810358Y710896D01*
X820116D01*
X576580Y528320D02*
X577145Y528885D01*
X586130Y534420D02*
Y538720D01*
X577145Y528885D02*
X580595D01*
X586130Y534420D01*
X542290Y598170D02*
X558800D01*
X545910Y462470D02*
Y473520D01*
X684910Y549910D02*
Y559180D01*
X582550Y648970D02*
X583820Y647700D01*
X743655Y559365D02*
Y565715D01*
X737963Y571407D02*
X743655Y565715D01*
Y559365D02*
X744220Y558800D01*
X746853Y570429D02*
X753815Y563467D01*
Y559365D02*
X754380Y558800D01*
X753815Y559365D02*
Y563467D01*
X729835Y571191D02*
X736960Y564066D01*
Y536610D02*
Y564066D01*
X754512Y571368D02*
Y581820D01*
X753965Y582367D02*
X754512Y581820D01*
Y571368D02*
X789940Y535940D01*
X322580Y674370D02*
X340620D01*
X322580Y687070D02*
X340620D01*
X528320Y462280D02*
X528510Y462470D01*
Y473520D01*
X528700Y473710D01*
Y492380D01*
X393018Y278341D02*
Y282274D01*
X392942Y282350D02*
X393018Y282274D01*
X391460Y282350D02*
X392942D01*
X393018Y278341D02*
X396240Y275119D01*
Y274320D02*
Y275119D01*
X546100Y473710D02*
Y500380D01*
X697831Y572101D02*
Y582367D01*
X684910Y559180D02*
X697831Y572101D01*
X543503Y746195D02*
X543643Y746055D01*
X549345D02*
X549910Y745490D01*
X543643Y746055D02*
X549345D01*
X540455Y746195D02*
X543503D01*
X527940Y709930D02*
Y733680D01*
X540455Y746195D01*
X558800Y648970D02*
X582550D01*
X598170Y462280D02*
X598360Y462470D01*
Y473520D02*
X598550Y473710D01*
X598360Y462470D02*
Y473520D01*
X598550Y473710D02*
X620650D01*
X642620Y820420D02*
X656590Y834390D01*
X764540Y794940D02*
Y802640D01*
X798470Y744220D02*
X803910D01*
X793750Y739500D02*
X798470Y744220D01*
X287020Y762890D02*
X287210Y763080D01*
X296990D02*
X297180Y763270D01*
X287210Y763080D02*
X296990D01*
X162560Y754380D02*
X196850D01*
X125730Y711200D02*
X137160Y722630D01*
X100100Y711200D02*
X125730D01*
X86500Y697600D02*
X100100Y711200D01*
X86500Y672200D02*
X98830Y684530D01*
X287210Y749490D02*
X296990D01*
X297180Y749300D01*
X287020Y749680D02*
X287210Y749490D01*
X657473Y654276D02*
X657699Y654503D01*
X644116Y654276D02*
X657473D01*
X578230Y709930D02*
X594360D01*
X626309Y646629D02*
Y677981D01*
X594360Y709930D02*
X626309Y677981D01*
X657671Y670532D02*
X657699Y670505D01*
X579120Y598170D02*
X588090D01*
X579120Y623570D02*
X588010D01*
X542290D02*
X558800D01*
X595630Y552522D02*
X633619Y590510D01*
X595630Y538720D02*
Y552522D01*
X545720Y473710D02*
X545910Y473520D01*
X736960Y536610D02*
X738520Y535050D01*
X745837Y582367D02*
X746853Y581351D01*
Y570429D02*
Y581351D01*
X839860Y699770D02*
X839915Y699715D01*
X877570Y656590D02*
Y765810D01*
X871220Y772160D02*
X877570Y765810D01*
X853930Y772160D02*
X871220D01*
X856360Y647700D02*
X868680D01*
X877570Y656590D01*
X825971Y627380D02*
X826770D01*
X810166Y630560D02*
X822792D01*
X825971Y627380D01*
X810099Y630627D02*
X810166Y630560D01*
X840740Y588010D02*
Y614680D01*
X840712Y614652D02*
X840740Y614680D01*
X815207Y614652D02*
X840712D01*
X810099Y614625D02*
X810127Y614652D01*
X219404Y776830D02*
Y784892D01*
X221480Y786968D01*
Y795646D01*
X728600Y52070D02*
X755270Y78740D01*
X671343Y52070D02*
X728600D01*
X740030Y44450D02*
X752044Y56464D01*
X752219D02*
X755270Y59515D01*
X752044Y56464D02*
X752219D01*
X755270Y59515D02*
Y59690D01*
X771270Y78740D02*
X794140D01*
X771270Y59690D02*
X794140D01*
X381860Y270050D02*
X384645Y267265D01*
X389325D01*
X381860Y270050D02*
Y272750D01*
X389325Y267265D02*
X389890Y266700D01*
X737963Y571407D02*
Y582367D01*
X527925Y504122D02*
X542358D01*
X546100Y500380D01*
X352760Y277830D02*
Y282350D01*
X339470Y264540D02*
X352760Y277830D01*
X339470Y255270D02*
Y264540D01*
X683920Y162560D02*
X705740D01*
X706120Y162940D01*
X706310Y162750D01*
X545504Y140614D02*
X549910Y136208D01*
Y135890D02*
Y136208D01*
X338150Y119710D02*
X350030D01*
X350360Y120040D01*
X337820Y119380D02*
X338150Y119710D01*
X353440Y154940D02*
X367432D01*
X651890Y791210D02*
X711200D01*
X722630Y766700D02*
Y779780D01*
X711200Y791210D02*
X722630Y779780D01*
X714176Y758246D02*
X722630Y766700D01*
X421290Y284720D02*
X421530Y284480D01*
X314605Y353385D02*
X314960Y353740D01*
X530660Y796490D02*
Y826770D01*
X840305Y682045D02*
X840360Y681990D01*
X626309Y646629D02*
X657699D01*
X615950Y636270D02*
X626309Y646629D01*
X598090Y636270D02*
X615950D01*
X629611Y638501D02*
X657699D01*
X614680Y623570D02*
X629611Y638501D01*
X598010Y623570D02*
X614680D01*
X633167Y630627D02*
X657699D01*
X613410Y610870D02*
X633167Y630627D01*
X598090Y610870D02*
X613410D01*
X612140Y598170D02*
X636469Y622499D01*
X598090Y598170D02*
X612140D01*
X636469Y622499D02*
X657699D01*
X527925Y516822D02*
X549598D01*
X753110Y769620D02*
Y784940D01*
X745490Y762000D02*
X753110Y769620D01*
X745490Y735114D02*
Y762000D01*
X764540Y770890D02*
Y784940D01*
X753965Y760315D02*
X764540Y770890D01*
X753965Y734767D02*
Y760315D01*
X745490Y735114D02*
X745837Y734767D01*
X741680Y767080D02*
Y784940D01*
X737963Y734767D02*
Y763363D01*
X741680Y767080D01*
X730250Y735182D02*
Y784940D01*
X729835Y734767D02*
X730250Y735182D01*
X711200Y755270D02*
X711442D01*
X714176Y758004D01*
Y758246D01*
X705959Y750029D02*
X711200Y755270D01*
X618490Y805180D02*
X631190D01*
X635890Y791210D02*
Y800480D01*
X631190Y805180D02*
X635890Y800480D01*
X690195Y735004D02*
Y744805D01*
X694253Y748864D01*
X689957Y734767D02*
X690195Y735004D01*
X694253Y748864D02*
Y755213D01*
X694690Y755650D01*
X705959Y734767D02*
Y750029D01*
X419711Y598170D02*
X465800D01*
X410530Y588988D02*
X419711Y598170D01*
X413260Y571500D02*
Y585257D01*
X409529Y588988D02*
X413260Y585257D01*
X457905Y687635D02*
X465235D01*
X445770Y699770D02*
X457905Y687635D01*
X388620Y699770D02*
X445770D01*
X465235Y687635D02*
X465800Y687070D01*
X388620Y661670D02*
X444500D01*
X457251Y674370D02*
X474690D01*
X444500Y661670D02*
X455724Y672894D01*
X455775D02*
X457251Y674370D01*
X455724Y672894D02*
X455775D01*
X340620Y638829D02*
Y661670D01*
X465235Y687635D02*
X474125D01*
X620650Y491490D02*
Y509650D01*
X614680Y515620D02*
X620650Y509650D01*
X605130Y515620D02*
X614680D01*
X652873Y598623D02*
X657699D01*
X605130Y550880D02*
X652873Y598623D01*
X605130Y538720D02*
Y550880D01*
X598320Y570460D02*
X598550Y570230D01*
X598320Y570460D02*
Y585240D01*
X598090Y585470D02*
X598320Y585240D01*
X429640Y610877D02*
Y627380D01*
Y610877D02*
X432529Y607988D01*
X434410Y608940D02*
X436340Y610870D01*
X465800D01*
X598090Y585470D02*
X611259D01*
X640414Y614625D01*
X657699D01*
X558800Y585470D02*
X588090D01*
X558800Y610870D02*
X588090D01*
X558800Y636270D02*
X586820D01*
X718460Y522110D02*
X719710Y520860D01*
Y505460D02*
Y520860D01*
X821690Y552450D02*
X834390D01*
X777841Y582367D02*
X778179Y582028D01*
Y572429D02*
X781649Y568960D01*
X816610D01*
X778179Y572429D02*
Y582028D01*
X821036Y553104D02*
X821690Y552450D01*
X821036Y553104D02*
Y564534D01*
X816610Y568960D02*
X821036Y564534D01*
X782320Y552450D02*
X808990D01*
X762259Y572511D02*
X782320Y552450D01*
X761839Y582367D02*
X762259Y581947D01*
Y572511D02*
Y581947D01*
X847090Y545550D02*
Y552450D01*
X738520Y535050D02*
X754380D01*
X729835Y571191D02*
Y582367D01*
X721690Y524840D02*
X727710Y530860D01*
X721961Y571045D02*
X727710Y565296D01*
Y530860D02*
Y565296D01*
X721961Y571045D02*
Y582367D01*
X721690Y524840D02*
Y524840D01*
X719189Y522339D02*
X721690Y524840D01*
X835660Y751330D02*
X854590D01*
X817880Y735330D02*
X835660D01*
X810099Y727549D02*
X817880Y735330D01*
X810099Y718511D02*
Y727549D01*
X483490Y314580D02*
X488950Y320040D01*
X483490Y306070D02*
Y314580D01*
X483870Y287680D02*
Y306070D01*
X319150Y538480D02*
X328930D01*
X683920Y175260D02*
X707010D01*
X456414Y300506D02*
Y303936D01*
X458703Y287913D02*
Y298216D01*
X454280Y306070D02*
X456414Y303936D01*
Y300506D02*
X458703Y298216D01*
X458470Y287680D02*
X458703Y287913D01*
X470280Y306070D02*
X471170Y305180D01*
Y287680D02*
Y305180D01*
D140*
X143812Y83820D02*
X148892Y78740D01*
X165100D01*
X837320Y769620D02*
Y789110D01*
X837125Y789305D02*
Y802445D01*
X882650Y519810D02*
X882840Y519620D01*
X882650Y519810D02*
Y528320D01*
X881182Y519612D02*
X881380Y519810D01*
X882840Y519620D02*
X892620D01*
X873942Y519612D02*
X881182D01*
X892620Y519620D02*
X892810Y519430D01*
X873760D02*
X873942Y519612D01*
X865068D02*
X873578D01*
X873760Y519430D01*
X864965Y519715D02*
X865068Y519612D01*
X605980Y831660D02*
X617030D01*
X599440Y796630D02*
Y805180D01*
X717740Y561150D02*
X717930Y561340D01*
X717020Y562250D02*
Y568220D01*
X713833Y571407D02*
X717020Y568220D01*
Y562250D02*
X717930Y561340D01*
X713833Y571407D02*
Y582367D01*
X717550Y549910D02*
X717740Y550100D01*
Y561150D01*
X595630Y503796D02*
X598722Y500704D01*
X595630Y503796D02*
Y515620D01*
X598722Y490924D02*
Y500704D01*
X746200Y472440D02*
X759460D01*
X442812Y674370D02*
X443230D01*
X439986Y671545D02*
X442812Y674370D01*
X431610Y671260D02*
X431895Y671545D01*
X439986D01*
X431515Y671355D02*
X431610Y671260D01*
X388620Y674370D02*
X403860D01*
X406734Y671497D01*
X414115Y671355D02*
X431515D01*
X414020Y671450D02*
X414115Y671355D01*
X406734Y671497D02*
X413973D01*
X260350Y777039D02*
Y786130D01*
X380110Y240030D02*
Y256165D01*
X383732Y155620D02*
X383922Y155430D01*
X364110Y240030D02*
Y256540D01*
X403620Y341980D02*
X411788D01*
X414020Y344212D01*
Y351748D01*
X403620Y353980D02*
X411788D01*
X403740Y354340D02*
Y364370D01*
X411788Y353980D02*
X414020Y351748D01*
X403740Y354340D02*
X403860Y354220D01*
X403740Y364370D02*
X403860Y364490D01*
X185420Y786130D02*
X185610Y786320D01*
X196660D01*
X444405Y687165D02*
X444500Y687070D01*
X388810Y687260D02*
X431610D01*
X388620Y687070D02*
X388810Y687260D01*
X431705Y687165D02*
X444405D01*
X431610Y687260D02*
X431705Y687165D01*
X373380Y744220D02*
X373760Y744600D01*
X582654Y461680D02*
Y473606D01*
Y461680D02*
X582758Y461576D01*
X582721Y490924D02*
Y500704D01*
Y471874D02*
Y490924D01*
Y500704D02*
X586130Y504113D01*
X582740Y558990D02*
Y570040D01*
Y558990D02*
X582930Y558800D01*
X586130Y504113D02*
Y515620D01*
X794251Y480027D02*
X806037D01*
X847950Y503810D02*
X864870D01*
X847090Y502950D02*
X847950Y503810D01*
X865761Y491835D02*
Y503432D01*
X882650Y491490D02*
Y503810D01*
X864870D02*
X881380D01*
X702310Y549910D02*
Y560960D01*
X701930Y561340D02*
X702310Y560960D01*
X702205Y562885D02*
Y567585D01*
X705959Y571339D01*
Y582367D01*
X583310Y661670D02*
X584200Y662560D01*
X558800Y661670D02*
X583310D01*
X584200Y662560D02*
X600710D01*
X614490Y662750D02*
X614680Y662940D01*
X600900Y662750D02*
X614490D01*
X555880Y805180D02*
Y826550D01*
X769967Y734767D02*
Y750806D01*
X773434Y754272D01*
Y754832D01*
X775521Y756920D01*
X792670Y756730D02*
X804990D01*
X775521Y756920D02*
X775970D01*
X287210Y778700D02*
X298260D01*
X298450Y778510D01*
X605790Y847090D02*
X616840D01*
X730652Y278014D02*
X738907Y269759D01*
X687070Y321310D02*
X730366Y278014D01*
X730652D01*
X738907Y254519D02*
Y269759D01*
X687070Y321310D02*
Y415290D01*
X509338Y378392D02*
X510540Y377190D01*
X485140Y421640D02*
X509338Y397443D01*
X435610Y421640D02*
X485140D01*
X509338Y378392D02*
Y397443D01*
X373620Y353980D02*
Y378446D01*
X364182Y353980D02*
X373620D01*
X361950Y344212D02*
Y351748D01*
X364182Y353980D01*
X361950Y344212D02*
X364182Y341980D01*
X373620D01*
Y378446D02*
X426974Y431800D01*
X670560D01*
X687070Y415290D01*
X103070Y65460D02*
Y83130D01*
X119760Y83820D02*
X143812D01*
X298800Y313450D02*
Y324158D01*
X301032Y326390D02*
X308568D01*
X298800Y324158D02*
X301032Y326390D01*
X310800Y313450D02*
Y324158D01*
X308568Y326390D02*
X310800Y324158D01*
X823159Y702509D02*
X828040Y707390D01*
X810099Y702509D02*
X823159D01*
X518160Y250190D02*
X528320D01*
X656210Y473710D02*
X674930D01*
X146240Y580200D02*
X156020D01*
X156210Y580010D01*
X146050Y580390D02*
X146240Y580200D01*
X636650Y473710D02*
X656210D01*
X674930D02*
X676200Y472440D01*
X656210Y473710D02*
X656590Y473330D01*
X683545Y549815D02*
X683640Y549910D01*
X676200Y494590D02*
X683640Y502030D01*
X683545Y539655D02*
Y549815D01*
X683450Y527240D02*
Y539560D01*
X683545Y539655D01*
X683450Y527240D02*
X683640Y527050D01*
Y502030D02*
Y527050D01*
X676200Y472440D02*
Y494590D01*
X421290Y407320D02*
X435610Y421640D01*
X840979Y681990D02*
Y699770D01*
X826461Y662631D02*
X838781D01*
X840360Y664210D01*
X810099Y662631D02*
X826461D01*
X840360Y631190D02*
Y647700D01*
X839090Y646430D02*
X840360Y647700D01*
X826770Y646430D02*
X839090D01*
X810198Y646529D02*
X826671D01*
X826770Y646430D01*
X156210Y568070D02*
Y580010D01*
X353286Y341856D02*
X355600Y344170D01*
X353368Y353980D02*
X355600Y351748D01*
Y344170D02*
Y351748D01*
X345200Y341980D02*
X345324Y341856D01*
X345200Y353980D02*
X353368D01*
X345324Y341856D02*
X353286D01*
X645160Y131700D02*
X645540Y132080D01*
X645160Y120650D02*
Y131700D01*
X706310Y162750D02*
X717360D01*
X421530Y284480D02*
X421650Y284600D01*
X431680D01*
X431800Y284480D01*
X315080Y353860D02*
Y364370D01*
X314960Y364490D02*
X315080Y364370D01*
X314960Y353740D02*
X315080Y353860D01*
X650240Y736600D02*
X657699Y729141D01*
Y718511D02*
Y729141D01*
X633730Y736600D02*
X650240D01*
X634360Y758190D02*
X636355Y756195D01*
Y754925D02*
X656175D01*
X655320Y755270D02*
X655665Y754925D01*
X673955D01*
Y734767D02*
Y754925D01*
X419058Y274320D02*
X421290Y276552D01*
X409290D02*
X411522Y274320D01*
X419058D01*
X421290Y276552D02*
Y284720D01*
X409290Y276552D02*
Y284720D01*
X365760Y554990D02*
Y594240D01*
X349630Y610370D02*
X365760Y594240D01*
X349630Y554990D02*
X365760D01*
X308302Y353385D02*
X314605D01*
X306070Y351153D02*
X308302Y353385D01*
X306070Y344807D02*
Y351153D01*
X308302Y342575D02*
X314605D01*
X306070Y344807D02*
X308302Y342575D01*
X314605D02*
X315200Y341980D01*
X374400Y435610D02*
X374650D01*
X364805Y425765D02*
Y426015D01*
X345200Y353980D02*
Y406160D01*
X364805Y426015D02*
X374400Y435610D01*
X345200Y406160D02*
X364805Y425765D01*
X286195Y554545D02*
X302705D01*
X285940Y538290D02*
X302960D01*
X350360Y120040D02*
X350414Y120094D01*
X357682D01*
X359618Y122030D01*
X368302D01*
X350010Y577850D02*
Y594360D01*
X421290Y326390D02*
Y407320D01*
Y314720D02*
Y326390D01*
X411522D02*
X421290D01*
X409290Y314720D02*
Y324158D01*
X411522Y326390D01*
X541845Y107125D02*
Y125285D01*
X518540Y234570D02*
X535560D01*
X497080Y234190D02*
X518160D01*
X306072Y155430D02*
Y178070D01*
X310800Y283450D02*
X311006Y283244D01*
Y272742D02*
Y283244D01*
X308774Y270510D02*
X311006Y272742D01*
X298800Y270510D02*
Y283450D01*
Y270510D02*
Y281940D01*
Y270510D02*
X308774D01*
X298800Y245460D02*
Y270510D01*
X307072Y179070D02*
X325120D01*
X306072Y178070D02*
X307072Y179070D01*
X525145Y106935D02*
Y125475D01*
X330522Y129420D02*
Y138108D01*
X322072Y146558D02*
X330522Y138108D01*
X322072Y146558D02*
Y155430D01*
X330522Y138108D02*
X337440Y145027D01*
Y154940D01*
D141*
X296866Y669606D02*
X309564D01*
X311150Y255270D02*
X323470D01*
X351153Y239734D02*
X363814D01*
X181990Y696448D02*
Y709070D01*
X172722Y687180D02*
X173222D01*
X176047Y690505D02*
X181990Y696448D01*
X176047Y690005D02*
Y690505D01*
X173222Y687180D02*
X176047Y690005D01*
X210850Y655350D02*
Y709930D01*
X367432Y154940D02*
X367922Y155430D01*
X259020Y655380D02*
Y709930D01*
X287020Y696842D02*
Y709930D01*
X295412Y688450D02*
X295912D01*
X287020Y696842D02*
X295412Y688450D01*
X615950Y132080D02*
X615950Y132080D01*
X629540D01*
Y134620D02*
X629730Y134810D01*
Y149670D01*
X705740Y175260D02*
X706120Y174880D01*
X629730Y149670D02*
X629920Y149860D01*
X285750Y232410D02*
X298800Y245460D01*
X285750Y184150D02*
X291830Y178070D01*
X285750Y184150D02*
Y232410D01*
X291830Y178070D02*
X306072D01*
D142*
X295967Y670505D02*
X296866Y669606D01*
X158750Y669290D02*
X158805Y669235D01*
X172667D01*
D143*
X430020Y792070D02*
X430035Y792085D01*
X429640Y759190D02*
X430020Y759570D01*
X428370Y821690D02*
X428880Y821180D01*
D144*
X309880Y613410D02*
D03*
D145*
X190500Y78740D02*
D03*
X332740D02*
D03*
X562610D02*
D03*
X680720D02*
D03*
X453390D02*
D03*
D146*
X165100D02*
D03*
X307340D02*
D03*
X537210D02*
D03*
X655320D02*
D03*
X427990D02*
D03*
D147*
X892746Y850000D02*
D03*
X893000Y50000D02*
D03*
X35560Y826770D02*
D03*
X35446Y88000D02*
D03*
D148*
X683890Y847090D02*
D03*
X663890D02*
D03*
X682620Y820420D02*
D03*
X662620D02*
D03*
X642620D02*
D03*
X703890Y847090D02*
D03*
D149*
X61100Y748400D02*
D03*
X35700D02*
D03*
Y519800D02*
D03*
X61100D02*
D03*
X35700Y494400D02*
D03*
X61100D02*
D03*
Y469000D02*
D03*
Y443600D02*
D03*
X35700Y469000D02*
D03*
Y443600D02*
D03*
X86500Y469000D02*
D03*
X111900Y697600D02*
D03*
Y672200D02*
D03*
Y519800D02*
D03*
X86500D02*
D03*
X111900Y545200D02*
D03*
X86500D02*
D03*
X111900Y748400D02*
D03*
X86500D02*
D03*
X111900Y469000D02*
D03*
Y443600D02*
D03*
X86500D02*
D03*
Y291200D02*
D03*
X111900Y316600D02*
D03*
Y291200D02*
D03*
Y265800D02*
D03*
Y240400D02*
D03*
X86500Y189600D02*
D03*
X111900Y392800D02*
D03*
Y418200D02*
D03*
X86500Y316600D02*
D03*
X111900Y367400D02*
D03*
X86500D02*
D03*
Y392800D02*
D03*
Y418200D02*
D03*
X111900Y494400D02*
D03*
X86500D02*
D03*
X111900Y570600D02*
D03*
X86500D02*
D03*
Y621400D02*
D03*
Y646800D02*
D03*
X111900Y723000D02*
D03*
X86500D02*
D03*
X111900Y773800D02*
D03*
X86500D02*
D03*
Y138800D02*
D03*
Y164200D02*
D03*
X111900Y189600D02*
D03*
Y215000D02*
D03*
X86500D02*
D03*
Y265800D02*
D03*
Y240400D02*
D03*
Y672200D02*
D03*
Y697600D02*
D03*
X111900Y621400D02*
D03*
Y646800D02*
D03*
Y164200D02*
D03*
Y342000D02*
D03*
X86500D02*
D03*
Y596000D02*
D03*
X111900D02*
D03*
X35700Y545200D02*
D03*
X61100D02*
D03*
X35700Y672200D02*
D03*
X61100Y646800D02*
D03*
Y672200D02*
D03*
Y697600D02*
D03*
Y621400D02*
D03*
X35700Y697600D02*
D03*
X61100Y164200D02*
D03*
X35700Y291200D02*
D03*
X61100Y316600D02*
D03*
Y291200D02*
D03*
Y265800D02*
D03*
Y240400D02*
D03*
X35700Y189600D02*
D03*
Y316600D02*
D03*
X61100Y570600D02*
D03*
X35700D02*
D03*
Y621400D02*
D03*
Y646800D02*
D03*
X61100Y723000D02*
D03*
X35700D02*
D03*
X61100Y773800D02*
D03*
X35700D02*
D03*
Y138800D02*
D03*
Y164200D02*
D03*
X61100Y189600D02*
D03*
Y215000D02*
D03*
X35700D02*
D03*
Y265800D02*
D03*
Y240400D02*
D03*
X61100Y596000D02*
D03*
X35700D02*
D03*
Y342000D02*
D03*
X61100D02*
D03*
X35700Y367400D02*
D03*
Y392800D02*
D03*
Y418200D02*
D03*
X61100Y392800D02*
D03*
Y418200D02*
D03*
Y367400D02*
D03*
D150*
X702620Y820420D02*
D03*
X643890Y847090D02*
D03*
D151*
X111900Y138800D02*
D03*
X61100D02*
D03*
D152*
X363220Y821690D02*
D03*
X350520Y784860D02*
D03*
Y792480D02*
D03*
X351790Y770890D02*
D03*
X356870Y777240D02*
D03*
X353567Y761257D02*
D03*
X345440Y725170D02*
D03*
X345561Y736411D02*
D03*
Y746571D02*
D03*
X382270Y730250D02*
D03*
Y746760D02*
D03*
X469900Y745490D02*
D03*
X403860Y821690D02*
D03*
X461010Y816610D02*
D03*
X866140Y734060D02*
D03*
X882650Y528320D02*
D03*
X867410Y699770D02*
D03*
X892810Y519430D02*
D03*
X798830Y497840D02*
D03*
Y508000D02*
D03*
X775970Y783590D02*
D03*
X703014Y778471D02*
D03*
X684530Y772160D02*
D03*
X664210Y777240D02*
D03*
X643890Y772160D02*
D03*
X605980Y831660D02*
D03*
X599440Y805180D02*
D03*
X717550Y549910D02*
D03*
X703580Y535940D02*
D03*
X764540Y519430D02*
D03*
Y506730D02*
D03*
X703580Y520700D02*
D03*
Y504190D02*
D03*
X600710Y688340D02*
D03*
X584200D02*
D03*
X614680Y648970D02*
D03*
X668020Y539750D02*
D03*
X650240Y516890D02*
D03*
X656590Y499110D02*
D03*
X636270Y501650D02*
D03*
X632460Y516890D02*
D03*
X852170Y469900D02*
D03*
X844550Y356870D02*
D03*
X821690Y321310D02*
D03*
Y266700D02*
D03*
X844550Y215900D02*
D03*
X821690Y59690D02*
D03*
Y78740D02*
D03*
X803910Y389890D02*
D03*
Y400050D02*
D03*
X764540Y490220D02*
D03*
X807623Y376099D02*
D03*
X796290Y364490D02*
D03*
X807720D02*
D03*
X796290Y375920D02*
D03*
X735330Y490220D02*
D03*
X750570D02*
D03*
X718820D02*
D03*
X759460Y472440D02*
D03*
X812800Y321310D02*
D03*
Y266700D02*
D03*
X808990Y341630D02*
D03*
Y332740D02*
D03*
X811530Y208280D02*
D03*
X810260Y223520D02*
D03*
X811530Y198120D02*
D03*
X810260Y232410D02*
D03*
X807720Y172720D02*
D03*
X803910Y283210D02*
D03*
Y292100D02*
D03*
Y271780D02*
D03*
Y260350D02*
D03*
X800100Y247650D02*
D03*
X608330Y490220D02*
D03*
X703580D02*
D03*
X607060Y377190D02*
D03*
X617220Y345440D02*
D03*
X607060Y407670D02*
D03*
Y398780D02*
D03*
Y386080D02*
D03*
X603250Y365760D02*
D03*
Y355600D02*
D03*
X650073Y185566D02*
D03*
X617220Y317500D02*
D03*
Y308610D02*
D03*
X664043Y175440D02*
D03*
Y185566D02*
D03*
Y164010D02*
D03*
X650073Y175440D02*
D03*
Y164010D02*
D03*
X617220Y336550D02*
D03*
X575310Y208280D02*
D03*
X588010D02*
D03*
X612140Y204470D02*
D03*
X598170Y208280D02*
D03*
X816610Y147320D02*
D03*
X807720Y161290D02*
D03*
X816610Y138430D02*
D03*
X805180Y147320D02*
D03*
Y138430D02*
D03*
X717550Y147320D02*
D03*
X665480Y119380D02*
D03*
X664043Y152614D02*
D03*
X650073D02*
D03*
X598170Y138430D02*
D03*
X593090Y147320D02*
D03*
X597960Y128929D02*
D03*
X517701Y811050D02*
D03*
X572770Y796290D02*
D03*
X506730Y829310D02*
D03*
X506835Y818114D02*
D03*
X447040Y588010D02*
D03*
X443230Y674370D02*
D03*
X567690Y548640D02*
D03*
X501650D02*
D03*
X447040Y571500D02*
D03*
Y558800D02*
D03*
X462280Y504190D02*
D03*
X429260Y558800D02*
D03*
X367030Y640080D02*
D03*
X414020Y637540D02*
D03*
X392430Y590550D02*
D03*
X412750Y558800D02*
D03*
X392430Y571500D02*
D03*
Y558800D02*
D03*
Y622300D02*
D03*
Y637540D02*
D03*
Y608330D02*
D03*
X236220Y748030D02*
D03*
X243840D02*
D03*
X165100Y504190D02*
D03*
X156210D02*
D03*
X142240Y501650D02*
D03*
X516890Y316230D02*
D03*
X509270D02*
D03*
X501650D02*
D03*
X493996Y254000D02*
D03*
X499110Y212090D02*
D03*
X493996Y267970D02*
D03*
X472440D02*
D03*
X462280Y491490D02*
D03*
X483870Y267970D02*
D03*
X461044D02*
D03*
X436880Y257810D02*
D03*
X472440Y254000D02*
D03*
X461044D02*
D03*
X483870D02*
D03*
X448310Y233680D02*
D03*
X565150Y208280D02*
D03*
X549910Y203200D02*
D03*
X490220Y201930D02*
D03*
X501650Y193040D02*
D03*
X381000Y292100D02*
D03*
Y300990D02*
D03*
Y284480D02*
D03*
X372110Y292100D02*
D03*
Y300990D02*
D03*
X363220Y284480D02*
D03*
Y300990D02*
D03*
Y292100D02*
D03*
X372110Y284480D02*
D03*
X389890Y256540D02*
D03*
Y240030D02*
D03*
X373380Y226060D02*
D03*
X570230Y106680D02*
D03*
X501650Y181610D02*
D03*
Y171450D02*
D03*
X478790Y106680D02*
D03*
Y127000D02*
D03*
Y116840D02*
D03*
X440690Y120650D02*
D03*
X430530Y109220D02*
D03*
Y120650D02*
D03*
X440690Y109220D02*
D03*
X383540Y144780D02*
D03*
X331470Y472440D02*
D03*
X320040Y462280D02*
D03*
Y472440D02*
D03*
X331470Y462280D02*
D03*
X320040Y453390D02*
D03*
X331470D02*
D03*
X246380Y480060D02*
D03*
X240030Y441960D02*
D03*
X234950Y480060D02*
D03*
X252730Y441960D02*
D03*
X240030Y433070D02*
D03*
X252730D02*
D03*
X224924Y331175D02*
D03*
Y322285D02*
D03*
X320040Y270510D02*
D03*
X316230Y203200D02*
D03*
X313690Y227330D02*
D03*
Y214630D02*
D03*
X250190Y213360D02*
D03*
X240030D02*
D03*
X304800Y208280D02*
D03*
X229870Y213360D02*
D03*
X250190Y201930D02*
D03*
X240030D02*
D03*
X229870D02*
D03*
X223520Y480060D02*
D03*
X212535Y344600D02*
D03*
X200660Y344170D02*
D03*
X209550Y279400D02*
D03*
X204470Y294640D02*
D03*
X209550Y270510D02*
D03*
X198120Y120650D02*
D03*
Y129540D02*
D03*
X195580Y106680D02*
D03*
X119380Y53340D02*
D03*
X642620Y715010D02*
D03*
X866736Y682821D02*
D03*
X867030Y664210D02*
D03*
X607060Y758190D02*
D03*
X567690Y826770D02*
D03*
X607060Y773430D02*
D03*
X557530Y792480D02*
D03*
X607060Y742950D02*
D03*
X562610Y722630D02*
D03*
X867410Y631190D02*
D03*
Y598170D02*
D03*
X702310Y549910D02*
D03*
X668020Y515620D02*
D03*
X562610Y532130D02*
D03*
X561340Y462280D02*
D03*
X543560Y722630D02*
D03*
X185420Y786130D02*
D03*
X511810Y462280D02*
D03*
X174460Y409628D02*
D03*
Y419788D02*
D03*
X163030Y409628D02*
D03*
Y419788D02*
D03*
X605790Y847090D02*
D03*
X298450Y778510D02*
D03*
X642620Y702310D02*
D03*
X421640Y214630D02*
D03*
X191770Y483870D02*
D03*
X180340D02*
D03*
X191770Y494030D02*
D03*
X180340D02*
D03*
X394970Y209550D02*
D03*
X445770Y215900D02*
D03*
X379730Y203200D02*
D03*
X410210Y219710D02*
D03*
X482600Y457962D02*
D03*
X637540Y674370D02*
D03*
X643890Y662940D02*
D03*
X473710Y452120D02*
D03*
X337820Y119380D02*
D03*
X549910Y135890D02*
D03*
X717550Y162560D02*
D03*
X645160Y120650D02*
D03*
X389890Y266700D02*
D03*
X356870Y264160D02*
D03*
X396240Y274320D02*
D03*
X146050Y580390D02*
D03*
X840740Y588010D02*
D03*
X826770Y627380D02*
D03*
Y646430D02*
D03*
X826461Y662631D02*
D03*
X754380Y558800D02*
D03*
X744220D02*
D03*
X532130Y783590D02*
D03*
X542667Y810563D02*
D03*
X633619Y590510D02*
D03*
X542290Y623570D02*
D03*
Y598170D02*
D03*
X579120Y623570D02*
D03*
Y598170D02*
D03*
X644116Y654276D02*
D03*
X297180Y749300D02*
D03*
Y763270D02*
D03*
X803910Y744220D02*
D03*
X764540Y802640D02*
D03*
X598170Y462280D02*
D03*
X549910Y745490D02*
D03*
X683450Y539560D02*
D03*
X528320Y462280D02*
D03*
X545910Y462470D02*
D03*
X488950Y320040D02*
D03*
X322580Y687070D02*
D03*
X173990Y731520D02*
D03*
X528320Y250190D02*
D03*
X576580Y528320D02*
D03*
X322580Y674370D02*
D03*
X222250Y806450D02*
D03*
X825500Y716280D02*
D03*
X828040Y707390D02*
D03*
D153*
X919829Y827297D02*
D03*
Y836297D02*
D03*
Y818297D02*
D03*
X898250Y889848D02*
D03*
X889250Y889826D02*
D03*
X909253Y886672D02*
D03*
X880250Y889826D02*
D03*
X919829Y854297D02*
D03*
Y863297D02*
D03*
Y845297D02*
D03*
X915867Y880568D02*
D03*
X919391Y872287D02*
D03*
X919829Y782297D02*
D03*
Y791297D02*
D03*
Y800297D02*
D03*
Y809297D02*
D03*
X916575Y773906D02*
D03*
X909184Y768771D02*
D03*
X904767Y760929D02*
D03*
X903829Y751978D02*
D03*
Y742978D02*
D03*
X862250Y889826D02*
D03*
X853250D02*
D03*
X871250D02*
D03*
X844250D02*
D03*
X826250D02*
D03*
X817250D02*
D03*
X835250D02*
D03*
X799250D02*
D03*
X808250D02*
D03*
X903829Y679978D02*
D03*
Y643979D02*
D03*
Y652979D02*
D03*
Y634978D02*
D03*
Y670978D02*
D03*
Y661978D02*
D03*
Y706978D02*
D03*
Y715978D02*
D03*
Y697978D02*
D03*
Y733978D02*
D03*
Y724978D02*
D03*
Y688978D02*
D03*
X903829Y607979D02*
D03*
Y598979D02*
D03*
Y625979D02*
D03*
Y616978D02*
D03*
Y517979D02*
D03*
Y562979D02*
D03*
Y571979D02*
D03*
Y553979D02*
D03*
Y589979D02*
D03*
Y580979D02*
D03*
Y535979D02*
D03*
Y544979D02*
D03*
Y526979D02*
D03*
X903829Y508979D02*
D03*
Y499979D02*
D03*
X873760Y519430D02*
D03*
X781250Y889826D02*
D03*
X772250D02*
D03*
X790250D02*
D03*
X754250D02*
D03*
X763250D02*
D03*
X745250D02*
D03*
X736250D02*
D03*
X729410Y883977D02*
D03*
X723279Y877388D02*
D03*
X714897Y874110D02*
D03*
X696901Y873826D02*
D03*
X705901Y873826D02*
D03*
X678901Y873826D02*
D03*
X687901D02*
D03*
X660901D02*
D03*
X651901D02*
D03*
X669901D02*
D03*
X633901D02*
D03*
X642901D02*
D03*
X579902D02*
D03*
X615901D02*
D03*
X606902D02*
D03*
X624902D02*
D03*
X588901D02*
D03*
X597901D02*
D03*
X903829Y454979D02*
D03*
Y463979D02*
D03*
Y445979D02*
D03*
Y472979D02*
D03*
Y409979D02*
D03*
Y418979D02*
D03*
Y400979D02*
D03*
Y436979D02*
D03*
Y427979D02*
D03*
Y481979D02*
D03*
Y490979D02*
D03*
X903829Y373979D02*
D03*
Y391979D02*
D03*
Y382979D02*
D03*
Y337979D02*
D03*
Y346979D02*
D03*
Y328979D02*
D03*
Y364979D02*
D03*
Y355979D02*
D03*
Y274979D02*
D03*
Y292979D02*
D03*
Y301979D02*
D03*
Y283979D02*
D03*
Y319979D02*
D03*
Y310979D02*
D03*
X903829Y238979D02*
D03*
Y247979D02*
D03*
Y229979D02*
D03*
Y265979D02*
D03*
Y256979D02*
D03*
X919829Y128626D02*
D03*
X912304Y133562D02*
D03*
X919829Y110626D02*
D03*
Y119626D02*
D03*
Y101626D02*
D03*
X903829Y193979D02*
D03*
Y202979D02*
D03*
Y184979D02*
D03*
Y220979D02*
D03*
Y211979D02*
D03*
X903919Y148980D02*
D03*
X903829Y157979D02*
D03*
X906356Y140316D02*
D03*
X903829Y175979D02*
D03*
Y166979D02*
D03*
X919829Y38626D02*
D03*
Y65626D02*
D03*
Y74626D02*
D03*
Y56626D02*
D03*
Y92626D02*
D03*
Y83626D02*
D03*
Y47626D02*
D03*
X919681Y29627D02*
D03*
X916874Y21076D02*
D03*
X910898Y14346D02*
D03*
X902669Y10701D02*
D03*
X848685Y10171D02*
D03*
X857685D02*
D03*
X893685D02*
D03*
X884685D02*
D03*
X875685D02*
D03*
X839685D02*
D03*
X866685D02*
D03*
X821685D02*
D03*
X830685D02*
D03*
X740685D02*
D03*
X727720Y18625D02*
D03*
X720652Y24198D02*
D03*
X731693Y10550D02*
D03*
X711872Y26172D02*
D03*
X702872Y26172D02*
D03*
X803685Y10171D02*
D03*
X794685D02*
D03*
X812685D02*
D03*
X776685D02*
D03*
X785685D02*
D03*
X758685D02*
D03*
X767685D02*
D03*
X749685D02*
D03*
X693872Y26172D02*
D03*
X684872Y26172D02*
D03*
X675872Y26172D02*
D03*
X666872Y26172D02*
D03*
X657872Y26172D02*
D03*
X648872Y26172D02*
D03*
X639872Y26172D02*
D03*
X630872Y26172D02*
D03*
X621872Y26172D02*
D03*
X612872Y26172D02*
D03*
X603872Y26171D02*
D03*
X594872Y26171D02*
D03*
X585872Y26171D02*
D03*
X576872Y26171D02*
D03*
X516902Y873826D02*
D03*
X489902D02*
D03*
X525902D02*
D03*
X561902D02*
D03*
X552902D02*
D03*
X570902D02*
D03*
X534902D02*
D03*
X543902D02*
D03*
X471902D02*
D03*
X462902D02*
D03*
X480902D02*
D03*
X444902D02*
D03*
X453902D02*
D03*
X507902D02*
D03*
X498902D02*
D03*
X426902D02*
D03*
X417902D02*
D03*
X435902D02*
D03*
X408902Y873826D02*
D03*
X399902Y873825D02*
D03*
X390902Y873825D02*
D03*
X381902Y873825D02*
D03*
X372902Y873825D02*
D03*
X363902Y873825D02*
D03*
X354902Y873825D02*
D03*
X345902Y873825D02*
D03*
X336902Y873825D02*
D03*
X327902Y873825D02*
D03*
X318902Y873825D02*
D03*
X210990Y875078D02*
D03*
X309902Y873825D02*
D03*
X203387Y879893D02*
D03*
X300902Y873824D02*
D03*
X291902Y873824D02*
D03*
X282902Y873824D02*
D03*
X273902Y873824D02*
D03*
X264902Y873824D02*
D03*
X154023Y889826D02*
D03*
X190023D02*
D03*
X181023D02*
D03*
X198744Y887603D02*
D03*
X163023Y889826D02*
D03*
X172023D02*
D03*
X255902Y873824D02*
D03*
X246902Y873824D02*
D03*
X237902Y873824D02*
D03*
X228902Y873824D02*
D03*
X219902Y873824D02*
D03*
X91023Y889826D02*
D03*
X82023D02*
D03*
X100023D02*
D03*
X136023D02*
D03*
X127023D02*
D03*
X145023D02*
D03*
X109023D02*
D03*
X118023D02*
D03*
X37023D02*
D03*
X64023D02*
D03*
X55023D02*
D03*
X73023D02*
D03*
X46023D02*
D03*
X28030Y889467D02*
D03*
X19710Y886037D02*
D03*
X13495Y879527D02*
D03*
X10375Y871085D02*
D03*
X10171Y862087D02*
D03*
X280670Y597154D02*
D03*
X10171Y844087D02*
D03*
Y853087D02*
D03*
Y817087D02*
D03*
Y826087D02*
D03*
Y835087D02*
D03*
X234950Y539750D02*
D03*
X233680Y553720D02*
D03*
X234950Y509270D02*
D03*
Y516890D02*
D03*
Y501650D02*
D03*
Y532130D02*
D03*
Y524510D02*
D03*
X446006Y194313D02*
D03*
X421640Y194310D02*
D03*
X469900D02*
D03*
X446006Y186693D02*
D03*
X469900Y186690D02*
D03*
X398780D02*
D03*
X421640D02*
D03*
X398780Y194310D02*
D03*
X567872Y26171D02*
D03*
X558872Y26171D02*
D03*
X549872Y26171D02*
D03*
X540872Y26171D02*
D03*
X531872Y26171D02*
D03*
X491490Y138430D02*
D03*
X522872Y26171D02*
D03*
X513872Y26171D02*
D03*
X459872Y26170D02*
D03*
X495872D02*
D03*
X486872D02*
D03*
X504872D02*
D03*
X468872D02*
D03*
X477872D02*
D03*
X450872D02*
D03*
X387872D02*
D03*
X396872D02*
D03*
X360680Y142240D02*
D03*
X369872Y26170D02*
D03*
X378872D02*
D03*
X360872D02*
D03*
X441872D02*
D03*
X423872D02*
D03*
X432872D02*
D03*
X405872D02*
D03*
X414872D02*
D03*
X234950Y492760D02*
D03*
X10170Y94525D02*
D03*
Y76525D02*
D03*
Y85525D02*
D03*
Y49525D02*
D03*
Y40525D02*
D03*
Y67525D02*
D03*
Y58525D02*
D03*
X297873Y26170D02*
D03*
X288873D02*
D03*
X306873D02*
D03*
X279873D02*
D03*
X342872D02*
D03*
X333872D02*
D03*
X351872D02*
D03*
X315872D02*
D03*
X324873D02*
D03*
X243873D02*
D03*
X225873D02*
D03*
X234873D02*
D03*
X261873D02*
D03*
X252873D02*
D03*
X270873D02*
D03*
X216873Y26071D02*
D03*
X208221Y23593D02*
D03*
X201502Y17606D02*
D03*
X187430Y10171D02*
D03*
X196430D02*
D03*
X178431D02*
D03*
X115431D02*
D03*
X106431D02*
D03*
X124431D02*
D03*
X88431D02*
D03*
X97431D02*
D03*
X160431D02*
D03*
X151431D02*
D03*
X169431D02*
D03*
X133431D02*
D03*
X142431D02*
D03*
X25484Y11144D02*
D03*
X17654Y15583D02*
D03*
X34431Y10171D02*
D03*
X10170Y31525D02*
D03*
X12229Y22764D02*
D03*
X70431Y10171D02*
D03*
X61431D02*
D03*
X79431D02*
D03*
X43431D02*
D03*
X52431D02*
D03*
X360172Y164084D02*
D03*
X203200Y586740D02*
D03*
X199390Y572770D02*
D03*
X203262Y567838D02*
D03*
X334010Y603250D02*
D03*
X318770D02*
D03*
X323850Y586740D02*
D03*
X172720Y596900D02*
D03*
X165100Y603250D02*
D03*
X168910Y562610D02*
D03*
D154*
X836930Y802640D02*
D03*
X792480Y783590D02*
D03*
X805180Y772160D02*
D03*
X325120Y825500D02*
D03*
X250190Y796290D02*
D03*
X260350Y786130D02*
D03*
X238760Y821690D02*
D03*
Y833120D02*
D03*
X309564Y669606D02*
D03*
X158750Y669290D02*
D03*
X302260Y825500D02*
D03*
X805180Y756920D02*
D03*
X614680Y662940D02*
D03*
X882650Y491490D02*
D03*
X865761Y491835D02*
D03*
X794218Y479993D02*
D03*
X582930Y558800D02*
D03*
X534670Y539750D02*
D03*
X444500Y687070D02*
D03*
X274320Y745490D02*
D03*
X215900Y749300D02*
D03*
X403860Y364490D02*
D03*
X350857Y239438D02*
D03*
X311150Y255270D02*
D03*
X582758Y461576D02*
D03*
X314960Y364490D02*
D03*
X431800Y284480D02*
D03*
X835660Y269240D02*
D03*
X847090D02*
D03*
X808990Y435610D02*
D03*
Y420370D02*
D03*
X826770Y435610D02*
D03*
Y420370D02*
D03*
X849630Y303530D02*
D03*
X840740Y323850D02*
D03*
X842010Y182880D02*
D03*
X838200Y152400D02*
D03*
X850900D02*
D03*
X844550Y140970D02*
D03*
M02*
