%FSTAX23Y23*%
%MOIN*%
%SFA1B1*%

%IPPOS*%
%ADD24C,0.039370*%
%LNdal_dpu_paste_bot-1*%
%LPD*%
G54D24*
X00039Y00125D02*
D01*
X00039Y00119*
X0004Y00113*
X00041Y00107*
X00042Y00102*
X00044Y00096*
X00046Y0009*
X00049Y00085*
X00052Y0008*
X00055Y00075*
X00059Y0007*
X00063Y00065*
X00068Y00061*
X00072Y00057*
X00077Y00054*
X00082Y0005*
X00088Y00048*
X00093Y00045*
X00099Y00043*
X00105Y00041*
X0011Y0004*
X00116Y00039*
X00122Y00039*
X00125Y00039*
X00848Y00102D02*
D01*
X00843Y00102*
X00838Y00101*
X00834Y001*
X00829Y00099*
X00824Y00097*
X0082Y00095*
X00815Y00093*
X00811Y0009*
X00807Y00087*
X00803Y00084*
X008Y00081*
X00796Y00077*
X00793Y00073*
X0079Y00069*
X00788Y00065*
X00786Y00061*
X00784Y00056*
X00782Y00051*
X00781Y00047*
X0078Y00042*
X00779Y00039*
X00124Y03503D02*
D01*
X00118Y03503*
X00112Y03502*
X00106Y03501*
X001Y035*
X00094Y03498*
X00089Y03495*
X00084Y03493*
X00078Y03489*
X00073Y03486*
X00069Y03482*
X00064Y03478*
X0006Y03474*
X00056Y03469*
X00053Y03464*
X0005Y03459*
X00047Y03453*
X00045Y03448*
X00043Y03442*
X00041Y03436*
X0004Y0343*
X00039Y03424*
X00039Y03418*
X00039Y03417*
X00779Y03503D02*
D01*
X0078Y03499*
X00781Y03494*
X00782Y03489*
X00784Y03484*
X00786Y0348*
X00788Y03475*
X00791Y03471*
X00794Y03467*
X00797Y03464*
X00801Y0346*
X00804Y03457*
X00808Y03454*
X00812Y03451*
X00817Y03449*
X00821Y03446*
X00826Y03445*
X0083Y03443*
X00835Y03442*
X0084Y03441*
X00845Y03441*
X00848Y0344*
X02881Y00039D02*
D01*
X0288Y00044*
X02879Y00049*
X02878Y00053*
X02876Y00058*
X02874Y00062*
X02872Y00067*
X02869Y00071*
X02866Y00075*
X02863Y00079*
X02859Y00082*
X02856Y00086*
X02852Y00089*
X02848Y00091*
X02843Y00094*
X02839Y00096*
X02834Y00098*
X0283Y00099*
X02825Y001*
X0282Y00101*
X02815Y00102*
X02812Y00102*
X03535Y00039D02*
D01*
X03541Y00039*
X03547Y0004*
X03553Y00041*
X03559Y00042*
X03565Y00044*
X0357Y00046*
X03576Y00049*
X03581Y00052*
X03586Y00055*
X03591Y00059*
X03595Y00063*
X03599Y00068*
X03603Y00072*
X03607Y00077*
X0361Y00082*
X03613Y00088*
X03615Y00093*
X03617Y00099*
X03619Y00105*
X0362Y0011*
X03621Y00116*
X03621Y00122*
X03622Y00125*
X03559Y00582D02*
D01*
X03559Y00577*
X03559Y00572*
X0356Y00567*
X03561Y00562*
X03563Y00558*
X03565Y00553*
X03567Y00549*
X03569Y00544*
X03572Y0054*
X03575Y00536*
X03579Y00533*
X03582Y00529*
X03586Y00526*
X0359Y00523*
X03594Y00521*
X03599Y00518*
X03603Y00516*
X03608Y00515*
X03612Y00513*
X03617Y00512*
X03622Y00512*
X02812Y0344D02*
D01*
X02817Y03441*
X02821Y03441*
X02826Y03442*
X02831Y03444*
X02836Y03445*
X0284Y03447*
X02845Y03449*
X02849Y03452*
X02853Y03455*
X02857Y03458*
X0286Y03461*
X02864Y03465*
X02867Y03469*
X0287Y03473*
X02872Y03477*
X02874Y03482*
X02876Y03486*
X02878Y03491*
X02879Y03496*
X0288Y03501*
X02881Y03503*
X03622Y03051D02*
D01*
X03617Y0305*
X03612Y03049*
X03607Y03047*
X03602Y03046*
X03598Y03044*
X03594Y03041*
X03589Y03039*
X03585Y03036*
X03582Y03032*
X03578Y03029*
X03575Y03025*
X03572Y03021*
X03569Y03017*
X03567Y03013*
X03564Y03008*
X03563Y03004*
X03561Y02999*
X0356Y02994*
X03559Y02989*
X03559Y02985*
X03559Y0298*
X03622Y03417D02*
D01*
X03621Y03423*
X03621Y03429*
X0362Y03435*
X03618Y03441*
X03616Y03447*
X03614Y03452*
X03611Y03458*
X03608Y03463*
X03605Y03468*
X03601Y03473*
X03597Y03477*
X03593Y03481*
X03588Y03485*
X03583Y03489*
X03578Y03492*
X03573Y03495*
X03567Y03497*
X03561Y03499*
X03556Y03501*
X0355Y03502*
X03544Y03503*
X03538Y03503*
X03536Y03503*
X00125Y00039D02*
X0017D01*
X00039Y00126D02*
Y00159D01*
X0085Y00102D02*
X00889D01*
X02006D02*
X02058D01*
X00039Y03216D02*
Y03252D01*
X00124Y03503D02*
X00145D01*
X00849Y0344D02*
X00901D01*
X01654Y0344D02*
X0168D01*
X02881Y00039D02*
X02916D01*
X03622Y00125D02*
Y00152D01*
X03559Y00582D02*
Y00621D01*
X02881Y03503D02*
X02934D01*
X03622Y03051D02*
Y03079D01*
X00039Y00301D02*
Y00336D01*
Y00159D02*
Y00194D01*
X00039Y03252D02*
Y03287D01*
X00358Y03503D02*
X00393D01*
X00145D02*
X00181D01*
X00277Y00039D02*
X00312D01*
X00241D02*
X00277D01*
X00206D02*
X00241D01*
X0017D02*
X00206D01*
X01042Y0344D02*
X01078D01*
X00901Y0344D02*
X00936D01*
X01385Y00102D02*
X0142D01*
X01279D02*
X01314D01*
X01172D02*
X01208D01*
X01137D02*
X01172D01*
X01101D02*
X01137D01*
X0103D02*
X01066D01*
X00995D02*
X0103D01*
X00924D02*
X0096D01*
X00889D02*
X00924D01*
X02176Y0344D02*
X02212D01*
X02141D02*
X02176D01*
X02105D02*
X02141D01*
X0207D02*
X02105D01*
X0168D02*
X01716D01*
X02164Y00102D02*
X022D01*
X02058D02*
X02093D01*
X03465Y03503D02*
X035D01*
X03004D02*
X0304D01*
X02934D02*
X02969D01*
X03483Y00039D02*
X03535D01*
X03305D02*
X03341D01*
X0327D02*
X03305D01*
X03234D02*
X0327D01*
X03199D02*
X03234D01*
X03164D02*
X03199D01*
X03128D02*
X03164D01*
X03093D02*
X03128D01*
X03057D02*
X03093D01*
X03022D02*
X03057D01*
X02951D02*
X02986D01*
X02916D02*
X02951D01*
X03559Y0296D02*
Y0298D01*
Y02889D02*
Y02925D01*
Y02854D02*
Y02889D01*
Y02606D02*
Y02641D01*
Y0257D02*
Y02606D01*
Y01968D02*
Y02003D01*
Y01932D02*
Y01968D01*
Y01862D02*
Y01897D01*
Y01826D02*
Y01862D01*
Y01791D02*
Y01826D01*
Y01401D02*
Y01436D01*
Y01295D02*
Y0133D01*
Y00869D02*
Y00905D01*
Y00657D02*
Y00692D01*
Y00621D02*
Y00657D01*
X03622Y03186D02*
Y03221D01*
Y03079D02*
Y03115D01*
Y00222D02*
Y00258D01*
Y00187D02*
Y00222D01*
Y00152D02*
Y00187D01*
X00039Y00336D02*
Y00372D01*
Y0023D02*
Y00265D01*
Y00194D02*
Y0023D01*
X00039Y03323D02*
Y03358D01*
Y03287D02*
Y03323D01*
X00641Y03503D02*
X00677D01*
X00606D02*
X00641D01*
X005D02*
X00535D01*
X00393D02*
X00429D01*
X00287D02*
X00322D01*
X00252D02*
X00287D01*
X00181D02*
X00216D01*
X00525Y00039D02*
X0056D01*
X00383D02*
X00419D01*
X00348D02*
X00383D01*
X00312D02*
X00348D01*
X01078Y0344D02*
X01113D01*
X00936Y0344D02*
X00972D01*
X01527Y00102D02*
X01562D01*
X01491D02*
X01527D01*
X0142D02*
X01456D01*
X01349D02*
X01385D01*
X01314D02*
X01349D01*
X01243D02*
X01279D01*
X01208D02*
X01243D01*
X01066D02*
X01101D01*
X0096D02*
X00995D01*
X02424Y0344D02*
X0246D01*
X02212D02*
X02247D01*
X01964D02*
X01999D01*
X01893D02*
X01928D01*
X01787D02*
X01822D01*
X01751D02*
X01787D01*
X01716D02*
X01751D01*
X022Y00102D02*
X02235Y00102D01*
X02093Y00102D02*
X02129D01*
X035Y03503D02*
X03535D01*
X03111D02*
X03146D01*
X0304D02*
X03075D01*
X02969D02*
X03004D01*
X03412Y00039D02*
X03447D01*
X03376D02*
X03412D01*
X03341D02*
X03376D01*
X02986D02*
X03022D01*
X03559Y02925D02*
Y0296D01*
Y02641D02*
Y02677D01*
Y0211D02*
Y02145D01*
Y02074D02*
Y0211D01*
Y02003D02*
Y02039D01*
Y01897D02*
Y01932D01*
Y01436D02*
Y01472D01*
Y01366D02*
Y01401D01*
Y0133D02*
Y01366D01*
Y01011D02*
Y01047D01*
Y00905D02*
Y0094D01*
Y00692D02*
Y00728D01*
X03622Y03221D02*
Y03257D01*
Y03115D02*
Y0315D01*
Y00329D02*
Y00364D01*
Y00293D02*
Y00329D01*
Y00258D02*
Y00293D01*
X00039Y00265D02*
Y00301D01*
X00039Y03358D02*
Y03394D01*
X00748Y03503D02*
X00779D01*
X00712D02*
X00748D01*
X00677D02*
X00712D01*
X0057D02*
X00606D01*
X00535D02*
X0057D01*
X00429D02*
X00464D01*
X00322D02*
X00358D01*
X00216D02*
X00252D01*
X0056Y00039D02*
X00596D01*
X00489D02*
X00525D01*
X00419D02*
X00454D01*
X01609Y0344D02*
X01654D01*
X01574D02*
X01609D01*
X01503D02*
X01538D01*
X01113Y0344D02*
X01149D01*
X00972Y0344D02*
X01007Y0344D01*
X01562Y00102D02*
X01597D01*
X01456D02*
X01491D01*
X0246Y0344D02*
X02495D01*
X02353D02*
X02389D01*
X02318D02*
X02353D01*
X02247D02*
X02283D01*
X01999D02*
X02035D01*
X01928D02*
X01964D01*
X01822D02*
X01857D01*
X02235Y00102D02*
X02271D01*
X02129Y00102D02*
X02164D01*
X03146Y03503D02*
X03182D01*
X03075D02*
X03111D01*
X03447Y00039D02*
X03483D01*
X03559Y02747D02*
Y02783D01*
Y02712D02*
Y02747D01*
Y02677D02*
Y02712D01*
Y02251D02*
Y02287D01*
Y02145D02*
Y02181D01*
Y02039D02*
Y02074D01*
Y01507D02*
Y01543D01*
Y01472D02*
Y01507D01*
Y01047D02*
Y01082D01*
Y00976D02*
Y01011D01*
Y0094D02*
Y00976D01*
Y00799D02*
Y00834D01*
Y00728D02*
Y00763D01*
X03622Y03292D02*
Y03327D01*
Y03257D02*
Y03292D01*
Y0315D02*
Y03186D01*
Y00364D02*
Y004D01*
X00039Y03394D02*
Y03417D01*
X00464Y03503D02*
X005D01*
X00631Y00039D02*
X00667D01*
X00596D02*
X00631D01*
X00454D02*
X00489D01*
X01538Y0344D02*
X01574D01*
X01149Y0344D02*
X01184D01*
X01007D02*
X01042D01*
X01597Y00102D02*
X01633D01*
X02495Y0344D02*
X02531D01*
X02389D02*
X02424D01*
X02283D02*
X02318D01*
X02035D02*
X0207D01*
X01857D02*
X01893D01*
X02377Y00102D02*
X02412D01*
X02271D02*
X02306D01*
X03182Y03503D02*
X03217D01*
X03559Y02818D02*
Y02854D01*
Y02783D02*
Y02818D01*
Y02358D02*
Y02393D01*
Y02322D02*
Y02358D01*
Y02287D02*
Y02322D01*
Y02181D02*
Y02216D01*
Y01543D02*
Y01578D01*
Y01224D02*
Y01259D01*
Y01118D02*
Y01153D01*
Y01082D02*
Y01118D01*
Y00834D02*
Y00869D01*
Y00763D02*
Y00799D01*
X03622Y03327D02*
Y03363D01*
Y00435D02*
Y0047D01*
Y004D02*
Y00435D01*
X00737Y00039D02*
X00779D01*
X00702D02*
X00737D01*
X00667D02*
X00702D01*
X01184Y0344D02*
X0122D01*
X01881Y00102D02*
X01916D01*
X01739D02*
X01775D01*
X01633D02*
X01668D01*
X02601Y0344D02*
X02637D01*
X02566D02*
X02601D01*
X02531D02*
X02566D01*
X02412Y00102D02*
X02448D01*
X02306D02*
X02342D01*
X03394Y03503D02*
X0343D01*
X03359D02*
X03394D01*
X03252D02*
X03288D01*
X03217D02*
X03252D01*
X03559Y02429D02*
Y02464D01*
Y02393D02*
Y02429D01*
Y02216D02*
Y02251D01*
Y01684D02*
Y0172D01*
Y01578D02*
Y01614D01*
Y01259D02*
Y01295D01*
Y01188D02*
Y01224D01*
Y01153D02*
Y01188D01*
X03622Y03363D02*
Y03417D01*
Y0047D02*
Y00512D01*
X0122Y0344D02*
X01255D01*
X01952Y00102D02*
X02006D01*
X01916D02*
X01952D01*
X01775D02*
X0181D01*
X01668D02*
X01704D01*
X02708Y0344D02*
X02743D01*
X02672D02*
X02708D01*
X02637D02*
X02672D01*
X02483Y00102D02*
X02519D01*
X02448D02*
X02483D01*
X02342D02*
X02377D01*
X0343Y03503D02*
X03465D01*
X03323D02*
X03359D01*
X03288D02*
X03323D01*
X03559Y02464D02*
Y02499D01*
Y0172D02*
Y01755D01*
Y01649D02*
Y01684D01*
Y01614D02*
Y01649D01*
X01255Y0344D02*
X0129D01*
X01845Y00102D02*
X01881D01*
X0181D02*
X01845D01*
X01704D02*
X01739D01*
X02779Y0344D02*
X0281D01*
X02743D02*
X02779D01*
X02767Y00102D02*
X02811D01*
X02731D02*
X02767D01*
X02519Y00102D02*
X02554D01*
X03559Y02499D02*
Y02535D01*
Y01755D02*
Y01791D01*
X0129Y0344D02*
X01326D01*
X02554Y00102D02*
X0259D01*
X03559Y02535D02*
Y0257D01*
X01326Y0344D02*
X01361D01*
X0259Y00102D02*
X02625Y00102D01*
X01361Y0344D02*
X01397D01*
X02625Y00102D02*
X0266D01*
X01397Y0344D02*
X01432Y0344D01*
X0266Y00102D02*
X02696D01*
X01432Y0344D02*
X01468D01*
X02696Y00102D02*
X02731D01*
X01468Y0344D02*
X01503D01*
M02*