G04*
G04 #@! TF.GenerationSoftware,Altium Limited,Altium Designer,24.1.2 (44)*
G04*
G04 Layer_Color=255*
%FSTAX44Y44*%
%MOMM*%
G71*
G04*
G04 #@! TF.SameCoordinates,C06C466E-F32D-4BEE-90EE-EF79C529164A*
G04*
G04*
G04 #@! TF.FilePolarity,Positive*
G04*
G01*
G75*
G04:AMPARAMS|DCode=24|XSize=0.6mm|YSize=0.25mm|CornerRadius=0.05mm|HoleSize=0mm|Usage=FLASHONLY|Rotation=0.000|XOffset=0mm|YOffset=0mm|HoleType=Round|Shape=RoundedRectangle|*
%AMROUNDEDRECTD24*
21,1,0.6000,0.1500,0,0,0.0*
21,1,0.5000,0.2500,0,0,0.0*
1,1,0.1000,0.2500,-0.0750*
1,1,0.1000,-0.2500,-0.0750*
1,1,0.1000,-0.2500,0.0750*
1,1,0.1000,0.2500,0.0750*
%
%ADD24ROUNDEDRECTD24*%
G04:AMPARAMS|DCode=25|XSize=0.25mm|YSize=0.65mm|CornerRadius=0.05mm|HoleSize=0mm|Usage=FLASHONLY|Rotation=0.000|XOffset=0mm|YOffset=0mm|HoleType=Round|Shape=RoundedRectangle|*
%AMROUNDEDRECTD25*
21,1,0.2500,0.5500,0,0,0.0*
21,1,0.1500,0.6500,0,0,0.0*
1,1,0.1000,0.0750,-0.2750*
1,1,0.1000,-0.0750,-0.2750*
1,1,0.1000,-0.0750,0.2750*
1,1,0.1000,0.0750,0.2750*
%
%ADD25ROUNDEDRECTD25*%
G04:AMPARAMS|DCode=26|XSize=1.55mm|YSize=0.6mm|CornerRadius=0.015mm|HoleSize=0mm|Usage=FLASHONLY|Rotation=0.000|XOffset=0mm|YOffset=0mm|HoleType=Round|Shape=RoundedRectangle|*
%AMROUNDEDRECTD26*
21,1,1.5500,0.5700,0,0,0.0*
21,1,1.5200,0.6000,0,0,0.0*
1,1,0.0300,0.7600,-0.2850*
1,1,0.0300,-0.7600,-0.2850*
1,1,0.0300,-0.7600,0.2850*
1,1,0.0300,0.7600,0.2850*
%
%ADD26ROUNDEDRECTD26*%
G04:AMPARAMS|DCode=27|XSize=0.9mm|YSize=0.8mm|CornerRadius=0.2mm|HoleSize=0mm|Usage=FLASHONLY|Rotation=180.000|XOffset=0mm|YOffset=0mm|HoleType=Round|Shape=RoundedRectangle|*
%AMROUNDEDRECTD27*
21,1,0.9000,0.4000,0,0,180.0*
21,1,0.5000,0.8000,0,0,180.0*
1,1,0.4000,-0.2500,0.2000*
1,1,0.4000,0.2500,0.2000*
1,1,0.4000,0.2500,-0.2000*
1,1,0.4000,-0.2500,-0.2000*
%
%ADD27ROUNDEDRECTD27*%
G04:AMPARAMS|DCode=28|XSize=0.6mm|YSize=0.25mm|CornerRadius=0.0463mm|HoleSize=0mm|Usage=FLASHONLY|Rotation=90.000|XOffset=0mm|YOffset=0mm|HoleType=Round|Shape=RoundedRectangle|*
%AMROUNDEDRECTD28*
21,1,0.6000,0.1575,0,0,90.0*
21,1,0.5075,0.2500,0,0,90.0*
1,1,0.0925,0.0788,0.2537*
1,1,0.0925,0.0788,-0.2537*
1,1,0.0925,-0.0788,-0.2537*
1,1,0.0925,-0.0788,0.2537*
%
%ADD28ROUNDEDRECTD28*%
G04:AMPARAMS|DCode=29|XSize=1.2mm|YSize=1.3mm|CornerRadius=0.246mm|HoleSize=0mm|Usage=FLASHONLY|Rotation=90.000|XOffset=0mm|YOffset=0mm|HoleType=Round|Shape=RoundedRectangle|*
%AMROUNDEDRECTD29*
21,1,1.2000,0.8080,0,0,90.0*
21,1,0.7080,1.3000,0,0,90.0*
1,1,0.4920,0.4040,0.3540*
1,1,0.4920,0.4040,-0.3540*
1,1,0.4920,-0.4040,-0.3540*
1,1,0.4920,-0.4040,0.3540*
%
%ADD29ROUNDEDRECTD29*%
G04:AMPARAMS|DCode=30|XSize=1.65mm|YSize=2.55mm|CornerRadius=0.2475mm|HoleSize=0mm|Usage=FLASHONLY|Rotation=0.000|XOffset=0mm|YOffset=0mm|HoleType=Round|Shape=RoundedRectangle|*
%AMROUNDEDRECTD30*
21,1,1.6500,2.0550,0,0,0.0*
21,1,1.1550,2.5500,0,0,0.0*
1,1,0.4950,0.5775,-1.0275*
1,1,0.4950,-0.5775,-1.0275*
1,1,0.4950,-0.5775,1.0275*
1,1,0.4950,0.5775,1.0275*
%
%ADD30ROUNDEDRECTD30*%
G04:AMPARAMS|DCode=31|XSize=0.95mm|YSize=0.85mm|CornerRadius=0.2125mm|HoleSize=0mm|Usage=FLASHONLY|Rotation=0.000|XOffset=0mm|YOffset=0mm|HoleType=Round|Shape=RoundedRectangle|*
%AMROUNDEDRECTD31*
21,1,0.9500,0.4250,0,0,0.0*
21,1,0.5250,0.8500,0,0,0.0*
1,1,0.4250,0.2625,-0.2125*
1,1,0.4250,-0.2625,-0.2125*
1,1,0.4250,-0.2625,0.2125*
1,1,0.4250,0.2625,0.2125*
%
%ADD31ROUNDEDRECTD31*%
G04:AMPARAMS|DCode=32|XSize=0.95mm|YSize=0.85mm|CornerRadius=0.2125mm|HoleSize=0mm|Usage=FLASHONLY|Rotation=270.000|XOffset=0mm|YOffset=0mm|HoleType=Round|Shape=RoundedRectangle|*
%AMROUNDEDRECTD32*
21,1,0.9500,0.4250,0,0,270.0*
21,1,0.5250,0.8500,0,0,270.0*
1,1,0.4250,-0.2125,-0.2625*
1,1,0.4250,-0.2125,0.2625*
1,1,0.4250,0.2125,0.2625*
1,1,0.4250,0.2125,-0.2625*
%
%ADD32ROUNDEDRECTD32*%
G04:AMPARAMS|DCode=33|XSize=1.97mm|YSize=0.59mm|CornerRadius=0.0738mm|HoleSize=0mm|Usage=FLASHONLY|Rotation=180.000|XOffset=0mm|YOffset=0mm|HoleType=Round|Shape=RoundedRectangle|*
%AMROUNDEDRECTD33*
21,1,1.9700,0.4425,0,0,180.0*
21,1,1.8225,0.5900,0,0,180.0*
1,1,0.1475,-0.9113,0.2213*
1,1,0.1475,0.9113,0.2213*
1,1,0.1475,0.9113,-0.2213*
1,1,0.1475,-0.9113,-0.2213*
%
%ADD33ROUNDEDRECTD33*%
%ADD34O,0.6000X2.1500*%
%ADD35R,2.0320X5.0800*%
G04:AMPARAMS|DCode=36|XSize=2.7mm|YSize=1.3mm|CornerRadius=0.247mm|HoleSize=0mm|Usage=FLASHONLY|Rotation=180.000|XOffset=0mm|YOffset=0mm|HoleType=Round|Shape=RoundedRectangle|*
%AMROUNDEDRECTD36*
21,1,2.7000,0.8060,0,0,180.0*
21,1,2.2060,1.3000,0,0,180.0*
1,1,0.4940,-1.1030,0.4030*
1,1,0.4940,1.1030,0.4030*
1,1,0.4940,1.1030,-0.4030*
1,1,0.4940,-1.1030,-0.4030*
%
%ADD36ROUNDEDRECTD36*%
%ADD37R,1.9812X0.5588*%
G04:AMPARAMS|DCode=38|XSize=0.86mm|YSize=0.32mm|CornerRadius=0.12mm|HoleSize=0mm|Usage=FLASHONLY|Rotation=180.000|XOffset=0mm|YOffset=0mm|HoleType=Round|Shape=RoundedRectangle|*
%AMROUNDEDRECTD38*
21,1,0.8600,0.0800,0,0,180.0*
21,1,0.6200,0.3200,0,0,180.0*
1,1,0.2400,-0.3100,0.0400*
1,1,0.2400,0.3100,0.0400*
1,1,0.2400,0.3100,-0.0400*
1,1,0.2400,-0.3100,-0.0400*
%
%ADD38ROUNDEDRECTD38*%
G04:AMPARAMS|DCode=39|XSize=0.86mm|YSize=0.32mm|CornerRadius=0.12mm|HoleSize=0mm|Usage=FLASHONLY|Rotation=90.000|XOffset=0mm|YOffset=0mm|HoleType=Round|Shape=RoundedRectangle|*
%AMROUNDEDRECTD39*
21,1,0.8600,0.0800,0,0,90.0*
21,1,0.6200,0.3200,0,0,90.0*
1,1,0.2400,0.0400,0.3100*
1,1,0.2400,0.0400,-0.3100*
1,1,0.2400,-0.0400,-0.3100*
1,1,0.2400,-0.0400,0.3100*
%
%ADD39ROUNDEDRECTD39*%
G04:AMPARAMS|DCode=40|XSize=1.65mm|YSize=2.55mm|CornerRadius=0.2475mm|HoleSize=0mm|Usage=FLASHONLY|Rotation=270.000|XOffset=0mm|YOffset=0mm|HoleType=Round|Shape=RoundedRectangle|*
%AMROUNDEDRECTD40*
21,1,1.6500,2.0550,0,0,270.0*
21,1,1.1550,2.5500,0,0,270.0*
1,1,0.4950,-1.0275,-0.5775*
1,1,0.4950,-1.0275,0.5775*
1,1,0.4950,1.0275,0.5775*
1,1,0.4950,1.0275,-0.5775*
%
%ADD40ROUNDEDRECTD40*%
%ADD41R,5.0800X2.0320*%
G04:AMPARAMS|DCode=42|XSize=0.9mm|YSize=0.8mm|CornerRadius=0.2mm|HoleSize=0mm|Usage=FLASHONLY|Rotation=270.000|XOffset=0mm|YOffset=0mm|HoleType=Round|Shape=RoundedRectangle|*
%AMROUNDEDRECTD42*
21,1,0.9000,0.4000,0,0,270.0*
21,1,0.5000,0.8000,0,0,270.0*
1,1,0.4000,-0.2000,-0.2500*
1,1,0.4000,-0.2000,0.2500*
1,1,0.4000,0.2000,0.2500*
1,1,0.4000,0.2000,-0.2500*
%
%ADD42ROUNDEDRECTD42*%
%ADD43R,1.0000X0.6000*%
G04:AMPARAMS|DCode=44|XSize=2.2mm|YSize=2.4mm|CornerRadius=0.242mm|HoleSize=0mm|Usage=FLASHONLY|Rotation=0.000|XOffset=0mm|YOffset=0mm|HoleType=Round|Shape=RoundedRectangle|*
%AMROUNDEDRECTD44*
21,1,2.2000,1.9160,0,0,0.0*
21,1,1.7160,2.4000,0,0,0.0*
1,1,0.4840,0.8580,-0.9580*
1,1,0.4840,-0.8580,-0.9580*
1,1,0.4840,-0.8580,0.9580*
1,1,0.4840,0.8580,0.9580*
%
%ADD44ROUNDEDRECTD44*%
%ADD45R,0.5000X1.0000*%
%ADD46R,0.3500X1.0000*%
G04:AMPARAMS|DCode=47|XSize=2.7mm|YSize=1.3mm|CornerRadius=0.247mm|HoleSize=0mm|Usage=FLASHONLY|Rotation=270.000|XOffset=0mm|YOffset=0mm|HoleType=Round|Shape=RoundedRectangle|*
%AMROUNDEDRECTD47*
21,1,2.7000,0.8060,0,0,270.0*
21,1,2.2060,1.3000,0,0,270.0*
1,1,0.4940,-0.4030,-1.1030*
1,1,0.4940,-0.4030,1.1030*
1,1,0.4940,0.4030,1.1030*
1,1,0.4940,0.4030,-1.1030*
%
%ADD47ROUNDEDRECTD47*%
%ADD48O,2.2000X0.6000*%
G04:AMPARAMS|DCode=49|XSize=1.3mm|YSize=1.1mm|CornerRadius=0.055mm|HoleSize=0mm|Usage=FLASHONLY|Rotation=270.000|XOffset=0mm|YOffset=0mm|HoleType=Round|Shape=RoundedRectangle|*
%AMROUNDEDRECTD49*
21,1,1.3000,0.9900,0,0,270.0*
21,1,1.1900,1.1000,0,0,270.0*
1,1,0.1100,-0.4950,-0.5950*
1,1,0.1100,-0.4950,0.5950*
1,1,0.1100,0.4950,0.5950*
1,1,0.1100,0.4950,-0.5950*
%
%ADD49ROUNDEDRECTD49*%
G04:AMPARAMS|DCode=50|XSize=1.57mm|YSize=0.41mm|CornerRadius=0.0513mm|HoleSize=0mm|Usage=FLASHONLY|Rotation=0.000|XOffset=0mm|YOffset=0mm|HoleType=Round|Shape=RoundedRectangle|*
%AMROUNDEDRECTD50*
21,1,1.5700,0.3075,0,0,0.0*
21,1,1.4675,0.4100,0,0,0.0*
1,1,0.1025,0.7338,-0.1538*
1,1,0.1025,-0.7338,-0.1538*
1,1,0.1025,-0.7338,0.1538*
1,1,0.1025,0.7338,0.1538*
%
%ADD50ROUNDEDRECTD50*%
G04:AMPARAMS|DCode=51|XSize=1.75mm|YSize=1.25mm|CornerRadius=0.2438mm|HoleSize=0mm|Usage=FLASHONLY|Rotation=90.000|XOffset=0mm|YOffset=0mm|HoleType=Round|Shape=RoundedRectangle|*
%AMROUNDEDRECTD51*
21,1,1.7500,0.7625,0,0,90.0*
21,1,1.2625,1.2500,0,0,90.0*
1,1,0.4875,0.3813,0.6313*
1,1,0.4875,0.3813,-0.6313*
1,1,0.4875,-0.3813,-0.6313*
1,1,0.4875,-0.3813,0.6313*
%
%ADD51ROUNDEDRECTD51*%
G04:AMPARAMS|DCode=52|XSize=1.2mm|YSize=1.3mm|CornerRadius=0.246mm|HoleSize=0mm|Usage=FLASHONLY|Rotation=180.000|XOffset=0mm|YOffset=0mm|HoleType=Round|Shape=RoundedRectangle|*
%AMROUNDEDRECTD52*
21,1,1.2000,0.8080,0,0,180.0*
21,1,0.7080,1.3000,0,0,180.0*
1,1,0.4920,-0.3540,0.4040*
1,1,0.4920,0.3540,0.4040*
1,1,0.4920,0.3540,-0.4040*
1,1,0.4920,-0.3540,-0.4040*
%
%ADD52ROUNDEDRECTD52*%
%ADD53O,1.4000X0.3500*%
G04:AMPARAMS|DCode=54|XSize=1.45mm|YSize=0.59mm|CornerRadius=0.0738mm|HoleSize=0mm|Usage=FLASHONLY|Rotation=180.000|XOffset=0mm|YOffset=0mm|HoleType=Round|Shape=RoundedRectangle|*
%AMROUNDEDRECTD54*
21,1,1.4500,0.4425,0,0,180.0*
21,1,1.3025,0.5900,0,0,180.0*
1,1,0.1475,-0.6513,0.2213*
1,1,0.1475,0.6513,0.2213*
1,1,0.1475,0.6513,-0.2213*
1,1,0.1475,-0.6513,-0.2213*
%
%ADD54ROUNDEDRECTD54*%
%ADD55R,0.6000X1.0000*%
G04:AMPARAMS|DCode=57|XSize=0.9mm|YSize=0.8mm|CornerRadius=0.04mm|HoleSize=0mm|Usage=FLASHONLY|Rotation=0.000|XOffset=0mm|YOffset=0mm|HoleType=Round|Shape=RoundedRectangle|*
%AMROUNDEDRECTD57*
21,1,0.9000,0.7200,0,0,0.0*
21,1,0.8200,0.8000,0,0,0.0*
1,1,0.0800,0.4100,-0.3600*
1,1,0.0800,-0.4100,-0.3600*
1,1,0.0800,-0.4100,0.3600*
1,1,0.0800,0.4100,0.3600*
%
%ADD57ROUNDEDRECTD57*%
%ADD58R,0.5080X1.4732*%
%ADD59R,1.4732X0.5080*%
%ADD60R,3.0000X2.1000*%
%ADD61R,1.6000X0.8000*%
%ADD62R,1.2000X0.8000*%
%ADD63R,0.8000X1.6000*%
%ADD64R,2.1000X3.0000*%
%ADD65R,1.0000X1.0000*%
G04:AMPARAMS|DCode=116|XSize=0.25mm|YSize=0.6mm|CornerRadius=0.05mm|HoleSize=0mm|Usage=FLASHONLY|Rotation=0.000|XOffset=0mm|YOffset=0mm|HoleType=Round|Shape=RoundedRectangle|*
%AMROUNDEDRECTD116*
21,1,0.2500,0.5000,0,0,0.0*
21,1,0.1500,0.6000,0,0,0.0*
1,1,0.1000,0.0750,-0.2500*
1,1,0.1000,-0.0750,-0.2500*
1,1,0.1000,-0.0750,0.2500*
1,1,0.1000,0.0750,0.2500*
%
%ADD116ROUNDEDRECTD116*%
G04:AMPARAMS|DCode=117|XSize=0.25mm|YSize=3.4mm|CornerRadius=0.05mm|HoleSize=0mm|Usage=FLASHONLY|Rotation=0.000|XOffset=0mm|YOffset=0mm|HoleType=Round|Shape=RoundedRectangle|*
%AMROUNDEDRECTD117*
21,1,0.2500,3.3000,0,0,0.0*
21,1,0.1500,3.4000,0,0,0.0*
1,1,0.1000,0.0750,-1.6500*
1,1,0.1000,-0.0750,-1.6500*
1,1,0.1000,-0.0750,1.6500*
1,1,0.1000,0.0750,1.6500*
%
%ADD117ROUNDEDRECTD117*%
%ADD118R,0.2500X1.2000*%
%ADD119R,2.9500X4.9000*%
G04:AMPARAMS|DCode=120|XSize=0.6mm|YSize=0.3mm|CornerRadius=0.0555mm|HoleSize=0mm|Usage=FLASHONLY|Rotation=90.000|XOffset=0mm|YOffset=0mm|HoleType=Round|Shape=RoundedRectangle|*
%AMROUNDEDRECTD120*
21,1,0.6000,0.1890,0,0,90.0*
21,1,0.4890,0.3000,0,0,90.0*
1,1,0.1110,0.0945,0.2445*
1,1,0.1110,0.0945,-0.2445*
1,1,0.1110,-0.0945,-0.2445*
1,1,0.1110,-0.0945,0.2445*
%
%ADD120ROUNDEDRECTD120*%
G04:AMPARAMS|DCode=121|XSize=0.3mm|YSize=2.4mm|CornerRadius=0.0555mm|HoleSize=0mm|Usage=FLASHONLY|Rotation=90.000|XOffset=0mm|YOffset=0mm|HoleType=Round|Shape=RoundedRectangle|*
%AMROUNDEDRECTD121*
21,1,0.3000,2.2890,0,0,90.0*
21,1,0.1890,2.4000,0,0,90.0*
1,1,0.1110,1.1445,0.0945*
1,1,0.1110,1.1445,-0.0945*
1,1,0.1110,-1.1445,-0.0945*
1,1,0.1110,-1.1445,0.0945*
%
%ADD121ROUNDEDRECTD121*%
%ADD122R,2.6000X2.6000*%
%ADD123R,1.0160X1.2700*%
%ADD130C,1.4000*%
%ADD131R,1.4000X1.4000*%
%ADD132C,1.5300*%
%ADD133C,6.0000*%
%ADD134R,1.5300X1.5300*%
D24*
X00269868Y00599199D02*
D03*
X00221868Y00614199D02*
D03*
Y00609199D02*
D03*
Y00604199D02*
D03*
Y00599199D02*
D03*
X00269868Y00604199D02*
D03*
Y00609199D02*
D03*
Y00614199D02*
D03*
D25*
X00266268Y00592949D02*
D03*
X00225468D02*
D03*
X00266268Y00620449D02*
D03*
X00225468D02*
D03*
D26*
X0041053Y0025126D02*
D03*
Y0022586D02*
D03*
Y0023856D02*
D03*
X0046453Y0025126D02*
D03*
Y0023856D02*
D03*
Y0022586D02*
D03*
Y0021316D02*
D03*
X0041053D02*
D03*
Y0012292D02*
D03*
X0046453D02*
D03*
Y0011022D02*
D03*
X0041053Y0008482D02*
D03*
Y0009752D02*
D03*
Y0011022D02*
D03*
X0046453Y0008482D02*
D03*
Y0009752D02*
D03*
D27*
X0027243Y0014197D02*
D03*
Y0015797D02*
D03*
X0038292Y001026D02*
D03*
Y001186D02*
D03*
X0023179Y0015797D02*
D03*
Y0014197D02*
D03*
X00231015Y0024603D02*
D03*
Y0023003D02*
D03*
X0083058Y00186618D02*
D03*
Y00202618D02*
D03*
X0083058Y00229198D02*
D03*
Y00245198D02*
D03*
Y0039211D02*
D03*
Y0037611D02*
D03*
X0083058Y0033353D02*
D03*
Y0034953D02*
D03*
X0038292Y0024694D02*
D03*
Y0023094D02*
D03*
X00334658Y0012056D02*
D03*
Y0013656D02*
D03*
Y002649D02*
D03*
Y002489D02*
D03*
X00231015Y0010169D02*
D03*
Y0011769D02*
D03*
X0027243Y0027031D02*
D03*
Y0028631D02*
D03*
X0049341Y0012749D02*
D03*
Y0011149D02*
D03*
Y0009701D02*
D03*
Y0008101D02*
D03*
X0032512Y0032677D02*
D03*
Y0031077D02*
D03*
X0023179Y0027031D02*
D03*
Y0028631D02*
D03*
X00232973Y0030696D02*
D03*
Y0032296D02*
D03*
X0022987Y0041872D02*
D03*
Y0043472D02*
D03*
X00487921Y0045047D02*
D03*
Y0046647D02*
D03*
X00506922Y0045047D02*
D03*
Y0046647D02*
D03*
X0046853Y00518919D02*
D03*
Y00502919D02*
D03*
X00524409Y00502539D02*
D03*
Y00518539D02*
D03*
X0069088Y0022314D02*
D03*
Y0023914D02*
D03*
Y000948D02*
D03*
Y001108D02*
D03*
X00322426Y00814575D02*
D03*
Y00830575D02*
D03*
X003048Y00814575D02*
D03*
Y00830575D02*
D03*
X00648716Y0050381D02*
D03*
Y0051981D02*
D03*
X00630936Y0050381D02*
D03*
Y0051981D02*
D03*
X00765633Y0053632D02*
D03*
Y0052032D02*
D03*
X0077978Y0079413D02*
D03*
Y0077813D02*
D03*
X0068834D02*
D03*
Y0079413D02*
D03*
X006731D02*
D03*
Y0077813D02*
D03*
X0065786Y0079413D02*
D03*
Y0077813D02*
D03*
X0064262Y0079413D02*
D03*
Y0077813D02*
D03*
X0049341Y0022535D02*
D03*
Y0020935D02*
D03*
Y0023983D02*
D03*
Y0025583D02*
D03*
D28*
X0026Y00102713D02*
D03*
X002645D02*
D03*
X0026Y00120713D02*
D03*
X002645D02*
D03*
Y0024899D02*
D03*
X0026Y0023099D02*
D03*
Y0024899D02*
D03*
X002645Y0023099D02*
D03*
D29*
X00334657Y000799D02*
D03*
Y000979D02*
D03*
X00207008Y0024703D02*
D03*
Y0022903D02*
D03*
X00810262Y00203618D02*
D03*
Y00185618D02*
D03*
X00810258Y00246198D02*
D03*
Y00228198D02*
D03*
Y0039311D02*
D03*
Y0037511D02*
D03*
X00810262Y0033253D02*
D03*
Y0035053D02*
D03*
X00358138Y002491D02*
D03*
Y002311D02*
D03*
Y0010276D02*
D03*
Y0012076D02*
D03*
X00334657Y0022624D02*
D03*
Y0020824D02*
D03*
X00207008Y0011869D02*
D03*
Y0010069D02*
D03*
X00204472Y0043572D02*
D03*
Y0041772D02*
D03*
X00601978Y0024014D02*
D03*
Y0022214D02*
D03*
X00624838Y0024014D02*
D03*
Y0022214D02*
D03*
X00647698D02*
D03*
Y0024014D02*
D03*
X00670558D02*
D03*
Y0022214D02*
D03*
Y001118D02*
D03*
Y000938D02*
D03*
X00647698Y001118D02*
D03*
Y000938D02*
D03*
X00624838Y001118D02*
D03*
Y000938D02*
D03*
X00601978Y001118D02*
D03*
Y000938D02*
D03*
X00325442Y0074179D02*
D03*
Y0072379D02*
D03*
X00165422Y0074179D02*
D03*
Y0072379D02*
D03*
X00797562Y0079513D02*
D03*
Y0077713D02*
D03*
D30*
X0030418Y0012856D02*
D03*
Y0008756D02*
D03*
Y002159D02*
D03*
Y002569D02*
D03*
D31*
X00231665Y00075695D02*
D03*
Y00059695D02*
D03*
X0025211Y00075695D02*
D03*
Y00059695D02*
D03*
X00272555Y00075695D02*
D03*
Y00059695D02*
D03*
X00251985Y0014197D02*
D03*
Y0015797D02*
D03*
X00308901Y0055029D02*
D03*
Y0053429D02*
D03*
X0082042Y0012859D02*
D03*
Y0011259D02*
D03*
X00797942Y0012859D02*
D03*
Y0011259D02*
D03*
X00775463D02*
D03*
Y0012859D02*
D03*
X00752985D02*
D03*
Y0011259D02*
D03*
X0048895Y0036284D02*
D03*
Y0037884D02*
D03*
X00511141Y00328892D02*
D03*
Y00344892D02*
D03*
Y0037884D02*
D03*
Y0036284D02*
D03*
X0025211Y00204035D02*
D03*
Y00188035D02*
D03*
X00231665Y00188035D02*
D03*
Y00204035D02*
D03*
X00272555Y00188035D02*
D03*
Y00204035D02*
D03*
X00251985Y0027031D02*
D03*
Y0028631D02*
D03*
X0011176Y0010579D02*
D03*
Y0008979D02*
D03*
X0016256Y0018326D02*
D03*
Y0016726D02*
D03*
X00233099Y0033706D02*
D03*
Y0035306D02*
D03*
X003369Y0053429D02*
D03*
Y0055029D02*
D03*
X00590935Y00358437D02*
D03*
Y00374437D02*
D03*
Y00328847D02*
D03*
Y00344847D02*
D03*
X0056896Y0034379D02*
D03*
Y0035979D02*
D03*
X00156531Y0060363D02*
D03*
Y0058763D02*
D03*
Y0062827D02*
D03*
Y0064427D02*
D03*
X004445Y0068923D02*
D03*
Y0070523D02*
D03*
X0046101Y0068923D02*
D03*
Y0070523D02*
D03*
X0041706Y0077432D02*
D03*
Y0079032D02*
D03*
X0041656Y0075222D02*
D03*
Y0073622D02*
D03*
X0051054Y0068923D02*
D03*
Y0070523D02*
D03*
X0051562Y0075222D02*
D03*
Y0073622D02*
D03*
Y0077432D02*
D03*
Y0079032D02*
D03*
X0083185Y0052032D02*
D03*
Y0053632D02*
D03*
X0081534Y0052032D02*
D03*
Y0053632D02*
D03*
X0079883D02*
D03*
Y0052032D02*
D03*
X0078232Y0053632D02*
D03*
Y0052032D02*
D03*
X007493Y0079413D02*
D03*
Y0077813D02*
D03*
X0076454D02*
D03*
Y0079413D02*
D03*
X0073406Y0077813D02*
D03*
Y0079413D02*
D03*
X0071882D02*
D03*
Y0077813D02*
D03*
X0070358D02*
D03*
Y0079413D02*
D03*
X00775588Y0009696D02*
D03*
Y0008146D02*
D03*
X00798067D02*
D03*
Y0009696D02*
D03*
X00820545D02*
D03*
Y0008146D02*
D03*
X0075311Y0009696D02*
D03*
Y0008146D02*
D03*
D32*
X0084328Y00614625D02*
D03*
X0085928D02*
D03*
X0036538Y0021089D02*
D03*
X0038138D02*
D03*
X0046255Y0006107D02*
D03*
X0047855D02*
D03*
X0044553D02*
D03*
X0042953D02*
D03*
X0036538Y0008255D02*
D03*
X0038138D02*
D03*
X00196281Y00584849D02*
D03*
X0018028D02*
D03*
X0044615Y004191D02*
D03*
X0043015D02*
D03*
X0030696Y00794035D02*
D03*
X0032296D02*
D03*
X00306425Y00777115D02*
D03*
X00322426D02*
D03*
X00345981Y00584849D02*
D03*
X00329981D02*
D03*
X00345981Y00604488D02*
D03*
X00329981D02*
D03*
X00345981Y00643765D02*
D03*
X00329981D02*
D03*
X0047282Y0079121D02*
D03*
X0045682D02*
D03*
X0069634Y004572D02*
D03*
X0068034D02*
D03*
Y0042418D02*
D03*
X0069634D02*
D03*
X0059017D02*
D03*
X0060617D02*
D03*
Y0044069D02*
D03*
X0059017D02*
D03*
Y004572D02*
D03*
X0060617D02*
D03*
X00680846Y0053594D02*
D03*
X00664846D02*
D03*
X0084328Y00646629D02*
D03*
X0085928D02*
D03*
Y00663333D02*
D03*
X0084328D02*
D03*
X0085903Y00679903D02*
D03*
X0084353D02*
D03*
X0084328Y00695905D02*
D03*
X0085928D02*
D03*
X0085903Y00711758D02*
D03*
X0084353D02*
D03*
X00859144Y00727922D02*
D03*
X00843144D02*
D03*
X00858829Y00743981D02*
D03*
X00843329D02*
D03*
X0060617Y0057912D02*
D03*
X0059017D02*
D03*
X0060617Y0059436D02*
D03*
X0059017D02*
D03*
X0060617Y006096D02*
D03*
X0059017D02*
D03*
X0060617Y0062484D02*
D03*
X0059017D02*
D03*
X0060617Y0064008D02*
D03*
X0059017D02*
D03*
X0059017Y0065532D02*
D03*
X0060617D02*
D03*
X0059017Y0067056D02*
D03*
X0060617D02*
D03*
X0059017Y006858D02*
D03*
X0060617D02*
D03*
X0059017Y0070104D02*
D03*
X0060617D02*
D03*
X0059017Y0071628D02*
D03*
X0060617D02*
D03*
X0059017Y0073152D02*
D03*
X0060617D02*
D03*
Y0074676D02*
D03*
X0059017D02*
D03*
X0025616Y0030734D02*
D03*
X0027216D02*
D03*
X0029442Y00622856D02*
D03*
X0031042D02*
D03*
X0044553Y0018941D02*
D03*
X0042953D02*
D03*
X0046255D02*
D03*
X0047855D02*
D03*
X0018028Y00624126D02*
D03*
X00196281D02*
D03*
D33*
X00620175Y00370247D02*
D03*
X00669675Y00332147D02*
D03*
Y00344847D02*
D03*
Y00357547D02*
D03*
Y00370247D02*
D03*
X00620175Y00357547D02*
D03*
Y00344847D02*
D03*
Y00332147D02*
D03*
D34*
X0051054Y0056056D02*
D03*
X0052324Y0065356D02*
D03*
X0051054D02*
D03*
X0049784D02*
D03*
X0048514D02*
D03*
X0047244D02*
D03*
X0045974D02*
D03*
X0042164D02*
D03*
X0040894D02*
D03*
X0052324Y0056056D02*
D03*
X0049784D02*
D03*
X0048514D02*
D03*
X0047244D02*
D03*
X0045974D02*
D03*
X0044704D02*
D03*
X0043434D02*
D03*
X0042164D02*
D03*
X0040894D02*
D03*
X0044704Y0065356D02*
D03*
X0043434D02*
D03*
D35*
X00270052Y00690459D02*
D03*
X00221792D02*
D03*
D36*
X0077978Y0037208D02*
D03*
Y0040008D02*
D03*
X0077978Y0035356D02*
D03*
Y0032556D02*
D03*
X0077978Y00253168D02*
D03*
Y00225168D02*
D03*
X0077978Y00178648D02*
D03*
Y00206648D02*
D03*
X001683Y0043564D02*
D03*
Y0040764D02*
D03*
D37*
X00414018Y00374992D02*
D03*
Y00362292D02*
D03*
X00461262D02*
D03*
X00414018Y00349592D02*
D03*
Y00336892D02*
D03*
X00461262Y00374992D02*
D03*
Y00349592D02*
D03*
Y00336892D02*
D03*
D38*
X0030129Y0034346D02*
D03*
X0026259D02*
D03*
Y0033696D02*
D03*
X0030129D02*
D03*
X0026259Y0034996D02*
D03*
Y0035646D02*
D03*
X0030129Y0034996D02*
D03*
Y0035646D02*
D03*
D39*
X0028519Y0032736D02*
D03*
X0027869D02*
D03*
X0027219D02*
D03*
X0029169D02*
D03*
X0027219Y0036606D02*
D03*
X0027869D02*
D03*
X0029169D02*
D03*
X0028519D02*
D03*
D40*
X0041703Y0028074D02*
D03*
X0045803D02*
D03*
Y001524D02*
D03*
X0041703D02*
D03*
D41*
X00549549Y00204387D02*
D03*
X00549031Y00260033D02*
D03*
Y00131693D02*
D03*
X00549549Y00076047D02*
D03*
D42*
X0039651Y0006107D02*
D03*
X0041251D02*
D03*
X00254126Y00453644D02*
D03*
X00238126D02*
D03*
X00219591Y0056769D02*
D03*
X00235591D02*
D03*
X0029458Y00567069D02*
D03*
X00310581D02*
D03*
X004652Y00394286D02*
D03*
X004492D02*
D03*
X00411152D02*
D03*
X00427152D02*
D03*
X0067221Y0031369D02*
D03*
X0065621D02*
D03*
X0061811D02*
D03*
X0063411D02*
D03*
X001858Y0083174D02*
D03*
X001698D02*
D03*
X001858Y0081534D02*
D03*
X001698D02*
D03*
Y0079416D02*
D03*
X001858D02*
D03*
Y0077724D02*
D03*
X001698D02*
D03*
X00182311Y0049149D02*
D03*
X00166311D02*
D03*
X00345981Y00624251D02*
D03*
X00329981D02*
D03*
X0045758Y0073406D02*
D03*
X0044158D02*
D03*
X004746D02*
D03*
X004906D02*
D03*
X0041364Y0068923D02*
D03*
X0042964D02*
D03*
X0041364Y0070612D02*
D03*
X0042964D02*
D03*
X0069634Y00440565D02*
D03*
X0068034D02*
D03*
X00664846Y005207D02*
D03*
X00680846D02*
D03*
X0073114Y0050381D02*
D03*
X0074714D02*
D03*
X00712596Y0053594D02*
D03*
X00696596D02*
D03*
X0062649Y0077724D02*
D03*
X0061049D02*
D03*
X0062649Y0079502D02*
D03*
X0061049D02*
D03*
X0029045Y00307465D02*
D03*
X0021965Y0054991D02*
D03*
X00235651D02*
D03*
X00233522Y0064389D02*
D03*
X00217522D02*
D03*
X00273751Y0064389D02*
D03*
X0025775D02*
D03*
X00293521Y0064389D02*
D03*
X00309521D02*
D03*
X0039651Y0018941D02*
D03*
X0041251D02*
D03*
X0030645Y00307465D02*
D03*
X00256252Y0056769D02*
D03*
X00272252D02*
D03*
X00256481Y0054991D02*
D03*
X00272481D02*
D03*
X0018028Y00604613D02*
D03*
X00196281D02*
D03*
X0018028Y0064389D02*
D03*
X00196281D02*
D03*
X0031042Y00604363D02*
D03*
X0029442D02*
D03*
D43*
X0018558Y0018476D02*
D03*
X0020558Y0017526D02*
D03*
X0018558Y0016576D02*
D03*
D44*
X0017018Y00130515D02*
D03*
Y00088515D02*
D03*
Y00258855D02*
D03*
Y00216855D02*
D03*
X001683Y0032694D02*
D03*
Y0036894D02*
D03*
D45*
X0023587Y0039981D02*
D03*
X0022387D02*
D03*
Y0036981D02*
D03*
X0023587D02*
D03*
X0032928D02*
D03*
X0034128D02*
D03*
X0032928Y0039981D02*
D03*
X0034128D02*
D03*
X00297357Y004351D02*
D03*
X00309357D02*
D03*
X00297357Y004051D02*
D03*
X00309357D02*
D03*
X00266773Y004351D02*
D03*
X00254773D02*
D03*
X00266773Y004051D02*
D03*
X00254773D02*
D03*
D46*
X0022987Y0036981D02*
D03*
Y0039981D02*
D03*
X0033528Y0036981D02*
D03*
Y0039981D02*
D03*
X00303357Y004051D02*
D03*
Y004351D02*
D03*
X00260773Y004051D02*
D03*
Y004351D02*
D03*
D47*
X00206031Y0048133D02*
D03*
X0023403D02*
D03*
X00258101D02*
D03*
X00286101D02*
D03*
X00187041Y0054356D02*
D03*
X00159041D02*
D03*
X003369Y0048133D02*
D03*
X00308901D02*
D03*
D48*
X0046202Y0043942D02*
D03*
Y0045212D02*
D03*
Y0047752D02*
D03*
X0041402Y0043942D02*
D03*
Y0045212D02*
D03*
Y0046482D02*
D03*
Y0047752D02*
D03*
X0046202Y0046482D02*
D03*
D49*
X00506922Y00498809D02*
D03*
X00487921Y00521809D02*
D03*
X00506922D02*
D03*
X00487921Y00498809D02*
D03*
D50*
X00274821Y0082016D02*
D03*
Y0081366D02*
D03*
Y0080716D02*
D03*
Y0080066D02*
D03*
Y0079416D02*
D03*
Y0078766D02*
D03*
Y0078116D02*
D03*
X00217421D02*
D03*
Y0078766D02*
D03*
Y0079416D02*
D03*
Y0080066D02*
D03*
Y0080716D02*
D03*
Y0081366D02*
D03*
Y0082016D02*
D03*
Y0082666D02*
D03*
X00274821D02*
D03*
D51*
X00194601Y0074041D02*
D03*
X002226D02*
D03*
X003369Y0051308D02*
D03*
X00308901D02*
D03*
X00268261Y0074041D02*
D03*
X00296261D02*
D03*
D52*
X00182041Y00513078D02*
D03*
X00164041D02*
D03*
X00234111Y00509268D02*
D03*
X0021611D02*
D03*
X00234111Y00530858D02*
D03*
X0021611D02*
D03*
X00276021Y0053086D02*
D03*
X0025802D02*
D03*
X00276021Y00509272D02*
D03*
X0025802D02*
D03*
D53*
X0048532Y0077302D02*
D03*
X0044432D02*
D03*
X0048532Y0076652D02*
D03*
Y0076002D02*
D03*
X0044432Y0076652D02*
D03*
Y0076002D02*
D03*
Y0075352D02*
D03*
X0048532D02*
D03*
D54*
X00655952Y00430965D02*
D03*
Y00449965D02*
D03*
X00632852Y00430965D02*
D03*
Y00440465D02*
D03*
Y00449965D02*
D03*
X00655952Y00440465D02*
D03*
D55*
X0057912Y0048276D02*
D03*
X0056962Y0050276D02*
D03*
X0058862D02*
D03*
D57*
X00729636Y0052234D02*
D03*
X00748136Y0053684D02*
D03*
X00729636D02*
D03*
X00748136Y0052234D02*
D03*
D58*
X00676749Y00734767D02*
D03*
X00708753Y00582367D02*
D03*
X00756759Y00734767D02*
D03*
X00772761Y00582367D02*
D03*
X00724755D02*
D03*
X00716881D02*
D03*
X00684877D02*
D03*
X00676749D02*
D03*
X00708753Y00734767D02*
D03*
X00716881D02*
D03*
X00772761D02*
D03*
X00780889D02*
D03*
X00788763Y00582367D02*
D03*
X00780889D02*
D03*
X00764887D02*
D03*
X00668875D02*
D03*
X00740757Y00734767D02*
D03*
X00756759Y00582367D02*
D03*
X00748885Y00734767D02*
D03*
X00724755D02*
D03*
X00732883D02*
D03*
X00788763D02*
D03*
X00748885Y00582367D02*
D03*
X00692751Y00734767D02*
D03*
X00668875D02*
D03*
X00700879D02*
D03*
X00684877D02*
D03*
X00740757Y00582367D02*
D03*
X00732883D02*
D03*
X00692751D02*
D03*
X00700879D02*
D03*
X00764887Y00734767D02*
D03*
D59*
X00805019Y00614625D02*
D03*
X00652619Y00710637D02*
D03*
Y00702509D02*
D03*
X00805019Y00710637D02*
D03*
X00652619Y00670505D02*
D03*
Y00598623D02*
D03*
X00805019Y00694635D02*
D03*
Y00630627D02*
D03*
Y00702509D02*
D03*
Y00678633D02*
D03*
Y00670505D02*
D03*
Y00654503D02*
D03*
Y00606497D02*
D03*
Y00598623D02*
D03*
X00652619Y00606497D02*
D03*
X00805019Y00718511D02*
D03*
X00652619Y00686507D02*
D03*
Y00630627D02*
D03*
Y00694635D02*
D03*
Y00614625D02*
D03*
Y00678633D02*
D03*
Y00622499D02*
D03*
Y00638501D02*
D03*
X00805019Y00622499D02*
D03*
Y00638501D02*
D03*
Y00686507D02*
D03*
X00652619Y00646629D02*
D03*
Y00654503D02*
D03*
Y00662631D02*
D03*
Y00718511D02*
D03*
X00805019Y00646629D02*
D03*
Y00662631D02*
D03*
D60*
X0088773Y0030607D02*
D03*
Y0041957D02*
D03*
X00888282Y00159158D02*
D03*
Y00272658D02*
D03*
D61*
X0085873Y0035657D02*
D03*
Y0036907D02*
D03*
Y0034407D02*
D03*
Y0033157D02*
D03*
Y0038157D02*
D03*
Y0039407D02*
D03*
X00859282Y00209658D02*
D03*
Y00222158D02*
D03*
Y00234658D02*
D03*
Y00247158D02*
D03*
Y00197158D02*
D03*
Y00184658D02*
D03*
D62*
X0076764Y0045974D02*
D03*
X0083764D02*
D03*
D63*
X0048375Y0082677D02*
D03*
X0044625D02*
D03*
X0047125D02*
D03*
X0045875D02*
D03*
D64*
X0042075Y0085577D02*
D03*
X0050925D02*
D03*
D65*
X0033004Y0066548D02*
D03*
X0031004D02*
D03*
D116*
X00230468Y00592699D02*
D03*
X00261268D02*
D03*
Y00620699D02*
D03*
X00230468D02*
D03*
D117*
X00235468Y00606699D02*
D03*
X00240468D02*
D03*
X00251268D02*
D03*
X00256268D02*
D03*
D118*
X00245868D02*
D03*
D119*
X0043753Y0023221D02*
D03*
Y0010387D02*
D03*
D120*
X0025525Y00102713D02*
D03*
X0026925D02*
D03*
X0025525Y00120713D02*
D03*
X0026925D02*
D03*
Y0023099D02*
D03*
X0025525D02*
D03*
X0026925Y0024899D02*
D03*
X0025525D02*
D03*
D121*
X0026225Y00109213D02*
D03*
Y00114213D02*
D03*
Y0024249D02*
D03*
Y0023749D02*
D03*
D122*
X0028194Y0034671D02*
D03*
D123*
X00647446Y0053975D02*
D03*
X00632206D02*
D03*
D130*
X00697863Y00844071D02*
D03*
X00677863D02*
D03*
X00657863D02*
D03*
X0077787D02*
D03*
X0073787D02*
D03*
X0075787D02*
D03*
D131*
X00717863D02*
D03*
X0079787D02*
D03*
D132*
X000611Y00469D02*
D03*
X000865D02*
D03*
X000611Y004436D02*
D03*
X000357Y00469D02*
D03*
Y004436D02*
D03*
X000611Y004944D02*
D03*
X000357D02*
D03*
X000611Y005198D02*
D03*
X000357D02*
D03*
Y007484D02*
D03*
X000611D02*
D03*
X001119Y006976D02*
D03*
Y006722D02*
D03*
Y005198D02*
D03*
X000865D02*
D03*
X001119Y005452D02*
D03*
X000865D02*
D03*
X001119Y007484D02*
D03*
X000865D02*
D03*
X001119Y00469D02*
D03*
Y004436D02*
D03*
X000865D02*
D03*
Y002912D02*
D03*
X001119Y003166D02*
D03*
Y002912D02*
D03*
Y002658D02*
D03*
Y002404D02*
D03*
X000865Y001896D02*
D03*
X001119Y003928D02*
D03*
Y004182D02*
D03*
X000865Y003166D02*
D03*
X001119Y003674D02*
D03*
X000865D02*
D03*
Y003928D02*
D03*
Y004182D02*
D03*
X001119Y004944D02*
D03*
X000865D02*
D03*
X001119Y005706D02*
D03*
X000865D02*
D03*
Y006214D02*
D03*
Y006468D02*
D03*
X001119Y00723D02*
D03*
X000865D02*
D03*
X001119Y007738D02*
D03*
X000865D02*
D03*
Y001388D02*
D03*
Y001642D02*
D03*
X001119Y001896D02*
D03*
Y00215D02*
D03*
X000865D02*
D03*
Y002658D02*
D03*
Y002404D02*
D03*
Y006722D02*
D03*
Y006976D02*
D03*
X001119Y006214D02*
D03*
Y006468D02*
D03*
Y001642D02*
D03*
Y00342D02*
D03*
X000865D02*
D03*
Y00596D02*
D03*
X001119D02*
D03*
X000357Y005452D02*
D03*
X000611D02*
D03*
X000357Y006722D02*
D03*
X000611Y006468D02*
D03*
Y006722D02*
D03*
Y006976D02*
D03*
Y006214D02*
D03*
X000357Y006976D02*
D03*
X000611Y001642D02*
D03*
X000357Y002912D02*
D03*
X000611Y003166D02*
D03*
Y002912D02*
D03*
Y002658D02*
D03*
Y002404D02*
D03*
X000357Y001896D02*
D03*
Y003166D02*
D03*
X000611Y005706D02*
D03*
X000357D02*
D03*
Y006214D02*
D03*
Y006468D02*
D03*
X000611Y00723D02*
D03*
X000357D02*
D03*
X000611Y007738D02*
D03*
X000357D02*
D03*
Y001388D02*
D03*
Y001642D02*
D03*
X000611Y001896D02*
D03*
Y00215D02*
D03*
X000357D02*
D03*
Y002658D02*
D03*
Y002404D02*
D03*
X000611Y00596D02*
D03*
X000357D02*
D03*
Y00342D02*
D03*
X000611D02*
D03*
X000357Y003674D02*
D03*
Y003928D02*
D03*
Y004182D02*
D03*
X000611Y003928D02*
D03*
Y004182D02*
D03*
Y003674D02*
D03*
D133*
X00035446Y00088D02*
D03*
X00892746Y0085D02*
D03*
X0003556Y0082677D02*
D03*
X00893Y0005D02*
D03*
D134*
X001119Y001388D02*
D03*
X000611D02*
D03*
M02*
