%FSTAX23Y23*%
%MOIN*%
%SFA1B1*%

%IPPOS*%
%AMD60*
4,1,8,0.016100,0.015700,-0.016100,0.015700,-0.017700,0.014200,-0.017700,-0.014200,-0.016100,-0.015700,0.016100,-0.015700,0.017700,-0.014200,0.017700,0.014200,0.016100,0.015700,0.0*
1,1,0.003150,0.016100,0.014200*
1,1,0.003150,-0.016100,0.014200*
1,1,0.003150,-0.016100,-0.014200*
1,1,0.003150,0.016100,-0.014200*
%
%AMD77*
4,1,8,0.019700,-0.010300,0.019700,0.010300,0.008400,0.021700,-0.008400,0.021700,-0.019700,0.010300,-0.019700,-0.010300,-0.008400,-0.021700,0.008400,-0.021700,0.019700,-0.010300,0.0*
1,1,0.022732,0.008400,-0.010300*
1,1,0.022732,0.008400,0.010300*
1,1,0.022732,-0.008400,0.010300*
1,1,0.022732,-0.008400,-0.010300*
%
%AMD78*
4,1,8,-0.018700,0.009800,-0.018700,-0.009800,-0.007900,-0.020700,0.007900,-0.020700,0.018700,-0.009800,0.018700,0.009800,0.007900,0.020700,-0.007900,0.020700,-0.018700,0.009800,0.0*
1,1,0.021748,-0.007900,0.009800*
1,1,0.021748,-0.007900,-0.009800*
1,1,0.021748,0.007900,-0.009800*
1,1,0.021748,0.007900,0.009800*
%
%AMD79*
4,1,8,-0.013900,-0.028600,0.013900,-0.028600,0.026600,-0.015900,0.026600,0.015900,0.013900,0.028600,-0.013900,0.028600,-0.026600,0.015900,-0.026600,-0.015900,-0.013900,-0.028600,0.0*
1,1,0.025370,-0.013900,-0.015900*
1,1,0.025370,0.013900,-0.015900*
1,1,0.025370,0.013900,0.015900*
1,1,0.025370,-0.013900,0.015900*
%
%AMD80*
4,1,8,0.009800,0.018700,-0.009800,0.018700,-0.020700,0.007900,-0.020700,-0.007900,-0.009800,-0.018700,0.009800,-0.018700,0.020700,-0.007900,0.020700,0.007900,0.009800,0.018700,0.0*
1,1,0.021748,0.009800,0.007900*
1,1,0.021748,-0.009800,0.007900*
1,1,0.021748,-0.009800,-0.007900*
1,1,0.021748,0.009800,-0.007900*
%
%AMD81*
4,1,8,0.028600,-0.013900,0.028600,0.013900,0.015900,0.026600,-0.015900,0.026600,-0.028600,0.013900,-0.028600,-0.013900,-0.015900,-0.026600,0.015900,-0.026600,0.028600,-0.013900,0.0*
1,1,0.025370,0.015900,-0.013900*
1,1,0.025370,0.015900,0.013900*
1,1,0.025370,-0.015900,0.013900*
1,1,0.025370,-0.015900,-0.013900*
%
%AMD82*
4,1,8,-0.050200,0.033800,-0.050200,-0.033800,-0.037700,-0.046300,0.037700,-0.046300,0.050200,-0.033800,0.050200,0.033800,0.037700,0.046300,-0.037700,0.046300,-0.050200,0.033800,0.0*
1,1,0.025055,-0.037700,0.033800*
1,1,0.025055,-0.037700,-0.033800*
1,1,0.025055,0.037700,-0.033800*
1,1,0.025055,0.037700,0.033800*
%
%AMD84*
4,1,8,-0.028600,0.025700,-0.028600,-0.025700,-0.015900,-0.038400,0.015900,-0.038400,0.028600,-0.025700,0.028600,0.025700,0.015900,0.038400,-0.015900,0.038400,-0.028600,0.025700,0.0*
1,1,0.025449,-0.015900,0.025700*
1,1,0.025449,-0.015900,-0.025700*
1,1,0.025449,0.015900,-0.025700*
1,1,0.025449,0.015900,0.025700*
%
%AMD85*
4,1,8,-0.010300,-0.019700,0.010300,-0.019700,0.021700,-0.008400,0.021700,0.008400,0.010300,0.019700,-0.010300,0.019700,-0.021700,0.008400,-0.021700,-0.008400,-0.010300,-0.019700,0.0*
1,1,0.022732,-0.010300,-0.008400*
1,1,0.022732,0.010300,-0.008400*
1,1,0.022732,0.010300,0.008400*
1,1,0.022732,-0.010300,0.008400*
%
%AMD87*
4,1,8,0.033800,0.050200,-0.033800,0.050200,-0.046300,0.037700,-0.046300,-0.037700,-0.033800,-0.050200,0.033800,-0.050200,0.046300,-0.037700,0.046300,0.037700,0.033800,0.050200,0.0*
1,1,0.025055,0.033800,0.037700*
1,1,0.025055,-0.033800,0.037700*
1,1,0.025055,-0.033800,-0.037700*
1,1,0.025055,0.033800,-0.037700*
%
%AMD88*
4,1,8,-0.009300,0.012200,-0.009300,-0.012200,-0.001600,-0.019900,0.001600,-0.019900,0.009300,-0.012200,0.009300,0.012200,0.001600,0.019900,-0.001600,0.019900,-0.009300,0.012200,0.0*
1,1,0.015449,-0.001600,0.012200*
1,1,0.015449,-0.001600,-0.012200*
1,1,0.015449,0.001600,-0.012200*
1,1,0.015449,0.001600,0.012200*
%
%AMD89*
4,1,8,-0.012200,-0.009300,0.012200,-0.009300,0.019900,-0.001600,0.019900,0.001600,0.012200,0.009300,-0.012200,0.009300,-0.019900,0.001600,-0.019900,-0.001600,-0.012200,-0.009300,0.0*
1,1,0.015449,-0.012200,-0.001600*
1,1,0.015449,0.012200,-0.001600*
1,1,0.015449,0.012200,0.001600*
1,1,0.015449,-0.012200,0.001600*
%
%AMD92*
4,1,8,-0.006900,-0.013800,0.006900,-0.013800,0.014800,-0.005900,0.014800,0.005900,0.006900,0.013800,-0.006900,0.013800,-0.014800,0.005900,-0.014800,-0.005900,-0.006900,-0.013800,0.0*
1,1,0.015748,-0.006900,-0.005900*
1,1,0.015748,0.006900,-0.005900*
1,1,0.015748,0.006900,0.005900*
1,1,0.015748,-0.006900,0.005900*
%
%AMD96*
4,1,8,-0.023400,-0.024700,0.023400,-0.024700,0.028600,-0.019500,0.028600,0.019500,0.023400,0.024700,-0.023400,0.024700,-0.028600,0.019500,-0.028600,-0.019500,-0.023400,-0.024700,0.0*
1,1,0.010331,-0.023400,-0.019500*
1,1,0.010331,0.023400,-0.019500*
1,1,0.010331,0.023400,0.019500*
1,1,0.010331,-0.023400,0.019500*
%
%AMD97*
4,1,8,-0.028900,-0.011100,0.028900,-0.011100,0.033900,-0.006100,0.033900,0.006100,0.028900,0.011100,-0.028900,0.011100,-0.033900,0.006100,-0.033900,-0.006100,-0.028900,-0.011100,0.0*
1,1,0.010039,-0.028900,-0.006100*
1,1,0.010039,0.028900,-0.006100*
1,1,0.010039,0.028900,0.006100*
1,1,0.010039,-0.028900,0.006100*
%
%AMD100*
4,1,8,-0.025700,-0.028600,0.025700,-0.028600,0.038400,-0.015900,0.038400,0.015900,0.025700,0.028600,-0.025700,0.028600,-0.038400,0.015900,-0.038400,-0.015900,-0.025700,-0.028600,0.0*
1,1,0.025449,-0.025700,-0.015900*
1,1,0.025449,0.025700,-0.015900*
1,1,0.025449,0.025700,0.015900*
1,1,0.025449,-0.025700,0.015900*
%
%AMD106*
4,1,8,-0.014600,0.025600,-0.014600,-0.025600,-0.008700,-0.031500,0.008700,-0.031500,0.014600,-0.025600,0.014600,0.025600,0.008700,0.031500,-0.008700,0.031500,-0.014600,0.025600,0.0*
1,1,0.011811,-0.008700,0.025600*
1,1,0.011811,-0.008700,-0.025600*
1,1,0.011811,0.008700,-0.025600*
1,1,0.011811,0.008700,0.025600*
%
%AMD108*
4,1,8,0.015600,-0.035900,0.015600,0.035900,0.008700,0.042800,-0.008700,0.042800,-0.015600,0.035900,-0.015600,-0.035900,-0.008700,-0.042800,0.008700,-0.042800,0.015600,-0.035900,0.0*
1,1,0.013843,0.008700,-0.035900*
1,1,0.013843,0.008700,0.035900*
1,1,0.013843,-0.008700,0.035900*
1,1,0.013843,-0.008700,-0.035900*
%
%AMD118*
4,1,8,-0.027600,0.024900,-0.027600,-0.024900,-0.015000,-0.037400,0.015000,-0.037400,0.027600,-0.024900,0.027600,0.024900,0.015000,0.037400,-0.015000,0.037400,-0.027600,0.024900,0.0*
1,1,0.025197,-0.015000,0.024900*
1,1,0.025197,-0.015000,-0.024900*
1,1,0.025197,0.015000,-0.024900*
1,1,0.025197,0.015000,0.024900*
%
%AMD122*
4,1,8,-0.013800,0.006900,-0.013800,-0.006900,-0.005900,-0.014800,0.005900,-0.014800,0.013800,-0.006900,0.013800,0.006900,0.005900,0.014800,-0.005900,0.014800,-0.013800,0.006900,0.0*
1,1,0.015748,-0.005900,0.006900*
1,1,0.015748,-0.005900,-0.006900*
1,1,0.015748,0.005900,-0.006900*
1,1,0.015748,0.005900,0.006900*
%
%AMD127*
4,1,8,-0.034500,0.019700,-0.034500,-0.019700,-0.015700,-0.038400,0.015700,-0.038400,0.034500,-0.019700,0.034500,0.019700,0.015700,0.038400,-0.015700,0.038400,-0.034500,0.019700,0.0*
1,1,0.037496,-0.015700,0.019700*
1,1,0.037496,-0.015700,-0.019700*
1,1,0.037496,0.015700,-0.019700*
1,1,0.037496,0.015700,0.019700*
%
%ADD24C,0.039370*%
G04~CAMADD=60~8~0.0~0.0~354.3~315.0~15.7~0.0~15~0.0~0.0~0.0~0.0~0~0.0~0.0~0.0~0.0~0~0.0~0.0~0.0~0.0~354.3~315.0*
%ADD60D60*%
%ADD76R,0.037496X0.039464*%
G04~CAMADD=77~8~0.0~0.0~434.0~394.6~113.7~0.0~15~0.0~0.0~0.0~0.0~0~0.0~0.0~0.0~0.0~0~0.0~0.0~0.0~270.0~394.0~434.0*
%ADD77D77*%
G04~CAMADD=78~8~0.0~0.0~414.3~375.0~108.7~0.0~15~0.0~0.0~0.0~0.0~0~0.0~0.0~0.0~0.0~0~0.0~0.0~0.0~90.0~374.0~414.0*
%ADD78D78*%
G04~CAMADD=79~8~0.0~0.0~532.4~571.8~126.9~0.0~15~0.0~0.0~0.0~0.0~0~0.0~0.0~0.0~0.0~0~0.0~0.0~0.0~180.0~532.0~571.0*
%ADD79D79*%
G04~CAMADD=80~8~0.0~0.0~414.3~375.0~108.7~0.0~15~0.0~0.0~0.0~0.0~0~0.0~0.0~0.0~0.0~0~0.0~0.0~0.0~0.0~414.3~375.0*
%ADD80D80*%
G04~CAMADD=81~8~0.0~0.0~532.4~571.8~126.9~0.0~15~0.0~0.0~0.0~0.0~0~0.0~0.0~0.0~0.0~0~0.0~0.0~0.0~270.0~572.0~532.0*
%ADD81D81*%
G04~CAMADD=82~8~0.0~0.0~926.1~1004.9~125.3~0.0~15~0.0~0.0~0.0~0.0~0~0.0~0.0~0.0~0.0~0~0.0~0.0~0.0~90.0~1004.0~926.0*
%ADD82D82*%
%ADD83R,0.102456X0.104425*%
G04~CAMADD=84~8~0.0~0.0~768.7~571.8~127.2~0.0~15~0.0~0.0~0.0~0.0~0~0.0~0.0~0.0~0.0~0~0.0~0.0~0.0~90.0~572.0~769.0*
%ADD84D84*%
G04~CAMADD=85~8~0.0~0.0~434.0~394.6~113.7~0.0~15~0.0~0.0~0.0~0.0~0~0.0~0.0~0.0~0.0~0~0.0~0.0~0.0~180.0~434.0~394.0*
%ADD85D85*%
%ADD86R,0.045370X0.029622*%
G04~CAMADD=87~8~0.0~0.0~926.1~1004.9~125.3~0.0~15~0.0~0.0~0.0~0.0~0~0.0~0.0~0.0~0.0~0~0.0~0.0~0.0~0.0~926.1~1004.9*
%ADD87D87*%
G04~CAMADD=88~8~0.0~0.0~398.6~186.0~77.2~0.0~15~0.0~0.0~0.0~0.0~0~0.0~0.0~0.0~0.0~0~0.0~0.0~0.0~90.0~186.0~399.0*
%ADD88D88*%
G04~CAMADD=89~8~0.0~0.0~398.6~186.0~77.2~0.0~15~0.0~0.0~0.0~0.0~0~0.0~0.0~0.0~0.0~0~0.0~0.0~0.0~180.0~399.0~186.0*
%ADD89D89*%
%ADD90R,0.108362X0.108362*%
%ADD91R,0.086031X0.030031*%
G04~CAMADD=92~8~0.0~0.0~295.3~275.6~78.7~0.0~15~0.0~0.0~0.0~0.0~0~0.0~0.0~0.0~0.0~0~0.0~0.0~0.0~180.0~296.0~276.0*
%ADD92D92*%
%ADD93O,0.059118X0.017779*%
%ADD94R,0.037496X0.068992*%
%ADD95R,0.088677X0.124110*%
G04~CAMADD=96~8~0.0~0.0~571.8~493.1~51.7~0.0~15~0.0~0.0~0.0~0.0~0~0.0~0.0~0.0~0.0~0~0.0~0.0~0.0~180.0~572.0~493.0*
%ADD96D96*%
G04~CAMADD=97~8~0.0~0.0~678.1~221.4~50.2~0.0~15~0.0~0.0~0.0~0.0~0~0.0~0.0~0.0~0.0~0~0.0~0.0~0.0~180.0~678.0~221.0*
%ADD97D97*%
%ADD98O,0.092614X0.029622*%
%ADD99O,0.090645X0.029622*%
G04~CAMADD=100~8~0.0~0.0~768.7~571.8~127.2~0.0~15~0.0~0.0~0.0~0.0~0~0.0~0.0~0.0~0.0~0~0.0~0.0~0.0~180.0~769.0~572.0*
%ADD100D100*%
%ADD101R,0.053244X0.037496*%
%ADD102R,0.096551X0.098519*%
%ADD103R,0.098519X0.096551*%
%ADD104R,0.068992X0.037496*%
%ADD105R,0.124110X0.088677*%
G04~CAMADD=106~8~0.0~0.0~630.9~292.3~59.1~0.0~15~0.0~0.0~0.0~0.0~0~0.0~0.0~0.0~0.0~0~0.0~0.0~0.0~90.0~292.0~630.0*
%ADD106D106*%
%ADD107R,0.026000X0.064000*%
G04~CAMADD=108~8~0.0~0.0~855.9~312.6~69.2~0.0~15~0.0~0.0~0.0~0.0~0~0.0~0.0~0.0~0.0~0~0.0~0.0~0.0~270.0~313.0~856.0*
%ADD108D108*%
%ADD109R,0.039464X0.037496*%
%ADD110R,0.064000X0.026000*%
%ADD111R,0.047244X0.027559*%
%ADD112R,0.039464X0.041433*%
%ADD113R,0.086000X0.206000*%
%ADD114R,0.027559X0.047244*%
%ADD115R,0.048126X0.134740*%
%ADD116C,0.054000*%
%ADD117C,0.043307*%
G04~CAMADD=118~8~0.0~0.0~749.0~552.1~126.0~0.0~15~0.0~0.0~0.0~0.0~0~0.0~0.0~0.0~0.0~0~0.0~0.0~0.0~90.0~552.0~749.0*
%ADD118D118*%
%ADD119R,0.047244X0.021654*%
%ADD120R,0.021654X0.047244*%
%ADD121R,0.046000X0.056000*%
G04~CAMADD=122~8~0.0~0.0~295.3~275.6~78.7~0.0~15~0.0~0.0~0.0~0.0~0~0.0~0.0~0.0~0.0~0~0.0~0.0~0.0~90.0~276.0~296.0*
%ADD122D122*%
%ADD123C,0.242220*%
%ADD124C,0.066236*%
%ADD125C,0.061118*%
%ADD126O,0.068992X0.076866*%
G04~CAMADD=127~8~0.0~0.0~768.7~689.9~187.5~0.0~15~0.0~0.0~0.0~0.0~0~0.0~0.0~0.0~0.0~0~0.0~0.0~0.0~90.0~690.0~768.0*
%ADD127D127*%
%ADD128R,0.061118X0.061118*%
%ADD129R,0.066236X0.066236*%
%LNdal_dpu_soldermask_top-1*%
%LPD*%
G36*
X00985Y02339D02*
X00986D01*
X00986Y02339*
X00986Y02339*
X00986Y02339*
X00987Y02339*
X00987Y02339*
X00987Y02339*
X00987Y02338*
X00987Y02338*
X00988Y02338*
X00988Y02338*
X00988Y02338*
X00988Y02338*
X00988Y02337*
X00989Y02337*
X00989Y02337*
X00989Y02337*
X00989Y02337*
X00989Y02336*
X00989Y02336*
X00989Y02336*
X00989Y02336*
X00989Y02336*
X00989Y02335*
X0099Y02335*
Y02335*
X0099Y02335*
Y02334*
Y02315*
Y02314*
X0099Y02314*
Y02314*
X00989Y02314*
X00989Y02313*
X00989Y02313*
X00989Y02313*
X00989Y02313*
X00989Y02312*
X00989Y02312*
X00989Y02312*
X00989Y02312*
X00989Y02312*
X00988Y02311*
X00988Y02311*
X00988Y02311*
X00988Y02311*
X00988Y02311*
X00987Y02311*
X00987Y02311*
X00987Y0231*
X00987Y0231*
X00987Y0231*
X00986Y0231*
X00986Y0231*
X00986Y0231*
X00986Y0231*
X00985*
X00985Y0231*
X00979*
X00978Y0231*
X00978*
X00978Y0231*
X00978Y0231*
X00977Y0231*
X00977Y0231*
X00977Y0231*
X00977Y0231*
X00977Y02311*
X00976Y02311*
X00976Y02311*
X00976Y02311*
X00976Y02311*
X00976Y02311*
X00975Y02311*
X00975Y02312*
X00975Y02312*
X00975Y02312*
X00975Y02312*
X00975Y02312*
X00975Y02313*
X00975Y02313*
X00974Y02313*
X00974Y02313*
X00974Y02314*
X00974Y02314*
Y02314*
X00974Y02314*
Y02315*
Y02334*
Y02335*
X00974Y02335*
Y02335*
X00974Y02335*
X00974Y02336*
X00974Y02336*
X00975Y02336*
X00975Y02336*
X00975Y02336*
X00975Y02337*
X00975Y02337*
X00975Y02337*
X00975Y02337*
X00975Y02337*
X00976Y02338*
X00976Y02338*
X00976Y02338*
X00976Y02338*
X00976Y02338*
X00977Y02338*
X00977Y02339*
X00977Y02339*
X00977Y02339*
X00977Y02339*
X00978Y02339*
X00978Y02339*
X00978Y02339*
X00978*
X00979Y02339*
X00985*
X00985Y02339*
G37*
G36*
X00864D02*
X00864D01*
X00865Y02339*
X00865Y02339*
X00865Y02339*
X00865Y02339*
X00866Y02339*
X00866Y02339*
X00866Y02338*
X00866Y02338*
X00866Y02338*
X00867Y02338*
X00867Y02338*
X00867Y02338*
X00867Y02337*
X00867Y02337*
X00867Y02337*
X00868Y02337*
X00868Y02337*
X00868Y02336*
X00868Y02336*
X00868Y02336*
X00868Y02336*
X00868Y02336*
X00868Y02335*
X00868Y02335*
Y02335*
X00868Y02335*
Y02334*
Y02315*
Y02314*
X00868Y02314*
Y02314*
X00868Y02314*
X00868Y02313*
X00868Y02313*
X00868Y02313*
X00868Y02313*
X00868Y02312*
X00868Y02312*
X00868Y02312*
X00867Y02312*
X00867Y02312*
X00867Y02311*
X00867Y02311*
X00867Y02311*
X00867Y02311*
X00866Y02311*
X00866Y02311*
X00866Y02311*
X00866Y0231*
X00866Y0231*
X00865Y0231*
X00865Y0231*
X00865Y0231*
X00865Y0231*
X00864Y0231*
X00864*
X00864Y0231*
X00857*
X00857Y0231*
X00857*
X00857Y0231*
X00856Y0231*
X00856Y0231*
X00856Y0231*
X00856Y0231*
X00856Y0231*
X00855Y02311*
X00855Y02311*
X00855Y02311*
X00855Y02311*
X00855Y02311*
X00854Y02311*
X00854Y02311*
X00854Y02312*
X00854Y02312*
X00854Y02312*
X00854Y02312*
X00853Y02312*
X00853Y02313*
X00853Y02313*
X00853Y02313*
X00853Y02313*
X00853Y02314*
X00853Y02314*
Y02314*
X00853Y02314*
Y02315*
Y02334*
Y02335*
X00853Y02335*
Y02335*
X00853Y02335*
X00853Y02336*
X00853Y02336*
X00853Y02336*
X00853Y02336*
X00853Y02336*
X00854Y02337*
X00854Y02337*
X00854Y02337*
X00854Y02337*
X00854Y02337*
X00854Y02338*
X00855Y02338*
X00855Y02338*
X00855Y02338*
X00855Y02338*
X00855Y02338*
X00856Y02339*
X00856Y02339*
X00856Y02339*
X00856Y02339*
X00856Y02339*
X00857Y02339*
X00857Y02339*
X00857*
X00857Y02339*
X00864*
X00864Y02339*
G37*
G36*
X01005D02*
X01005D01*
X01006Y02339*
X01006Y02339*
X01006Y02339*
X01006Y02339*
X01006Y02339*
X01007Y02339*
X01007Y02338*
X01007Y02338*
X01007Y02338*
X01008Y02338*
X01008Y02338*
X01008Y02338*
X01008Y02337*
X01008Y02337*
X01008Y02337*
X01009Y02337*
X01009Y02337*
X01009Y02336*
X01009Y02336*
X01009Y02336*
X01009Y02336*
X01009Y02336*
X01009Y02335*
X01009Y02335*
Y02335*
X01009Y02335*
Y02334*
Y02313*
Y02312*
X01009Y02312*
Y02312*
X01009Y02312*
X01009Y02311*
X01009Y02311*
X01009Y02311*
X01009Y02311*
X01009Y02311*
X01009Y0231*
X01009Y0231*
X01008Y0231*
X01008Y0231*
X01008Y0231*
X01008Y02309*
X01008Y02309*
X01008Y02309*
X01007Y02309*
X01007Y02309*
X01007Y02309*
X01007Y02308*
X01006Y02308*
X01006Y02308*
X01006Y02308*
X01006Y02308*
X01006Y02308*
X01005Y02308*
X01005*
X01005Y02308*
X00998*
X00998Y02308*
X00998*
X00998Y02308*
X00997Y02308*
X00997Y02308*
X00997Y02308*
X00997Y02308*
X00997Y02308*
X00996Y02309*
X00996Y02309*
X00996Y02309*
X00996Y02309*
X00995Y02309*
X00995Y02309*
X00995Y0231*
X00995Y0231*
X00995Y0231*
X00995Y0231*
X00995Y0231*
X00994Y02311*
X00994Y02311*
X00994Y02311*
X00994Y02311*
X00994Y02311*
X00994Y02312*
X00994Y02312*
Y02312*
X00994Y02312*
Y02313*
Y02334*
Y02335*
X00994Y02335*
Y02335*
X00994Y02335*
X00994Y02336*
X00994Y02336*
X00994Y02336*
X00994Y02336*
X00994Y02336*
X00995Y02337*
X00995Y02337*
X00995Y02337*
X00995Y02337*
X00995Y02337*
X00995Y02338*
X00995Y02338*
X00996Y02338*
X00996Y02338*
X00996Y02338*
X00996Y02338*
X00997Y02339*
X00997Y02339*
X00997Y02339*
X00997Y02339*
X00997Y02339*
X00998Y02339*
X00998Y02339*
X00998*
X00998Y02339*
X01005*
X01005Y02339*
G37*
G36*
X00844D02*
X00845D01*
X00845Y02339*
X00845Y02339*
X00845Y02339*
X00846Y02339*
X00846Y02339*
X00846Y02339*
X00846Y02338*
X00846Y02338*
X00847Y02338*
X00847Y02338*
X00847Y02338*
X00847Y02338*
X00847Y02337*
X00848Y02337*
X00848Y02337*
X00848Y02337*
X00848Y02337*
X00848Y02336*
X00848Y02336*
X00848Y02336*
X00848Y02336*
X00848Y02336*
X00849Y02335*
X00849Y02335*
Y02335*
X00849Y02335*
Y02334*
Y02313*
Y02312*
X00849Y02312*
Y02312*
X00849Y02312*
X00848Y02311*
X00848Y02311*
X00848Y02311*
X00848Y02311*
X00848Y02311*
X00848Y0231*
X00848Y0231*
X00848Y0231*
X00848Y0231*
X00847Y0231*
X00847Y02309*
X00847Y02309*
X00847Y02309*
X00847Y02309*
X00846Y02309*
X00846Y02309*
X00846Y02308*
X00846Y02308*
X00846Y02308*
X00845Y02308*
X00845Y02308*
X00845Y02308*
X00845Y02308*
X00844*
X00844Y02308*
X00838*
X00837Y02308*
X00837*
X00837Y02308*
X00837Y02308*
X00837Y02308*
X00836Y02308*
X00836Y02308*
X00836Y02308*
X00836Y02309*
X00835Y02309*
X00835Y02309*
X00835Y02309*
X00835Y02309*
X00835Y02309*
X00835Y0231*
X00834Y0231*
X00834Y0231*
X00834Y0231*
X00834Y0231*
X00834Y02311*
X00834Y02311*
X00834Y02311*
X00834Y02311*
X00833Y02311*
X00833Y02312*
X00833Y02312*
Y02312*
X00833Y02312*
Y02313*
Y02334*
Y02335*
X00833Y02335*
Y02335*
X00833Y02335*
X00833Y02336*
X00834Y02336*
X00834Y02336*
X00834Y02336*
X00834Y02336*
X00834Y02337*
X00834Y02337*
X00834Y02337*
X00834Y02337*
X00835Y02337*
X00835Y02338*
X00835Y02338*
X00835Y02338*
X00835Y02338*
X00835Y02338*
X00836Y02338*
X00836Y02339*
X00836Y02339*
X00836Y02339*
X00837Y02339*
X00837Y02339*
X00837Y02339*
X00837Y02339*
X00837*
X00838Y02339*
X00844*
X00844Y02339*
G37*
G36*
X01026Y02307D02*
X01026D01*
X01027Y02306*
X01027Y02306*
X01027Y02306*
X01027Y02306*
X01028Y02306*
X01028Y02306*
X01028Y02306*
X01028Y02306*
X01028Y02306*
X01029Y02305*
X01029Y02305*
X01029Y02305*
X01029Y02305*
X01029Y02305*
X01029Y02305*
X0103Y02304*
X0103Y02304*
X0103Y02304*
X0103Y02304*
X0103Y02304*
X0103Y02303*
X0103Y02303*
X0103Y02303*
X0103Y02303*
Y02302*
X0103Y02302*
Y02302*
Y02296*
Y02296*
X0103Y02295*
Y02295*
X0103Y02295*
X0103Y02295*
X0103Y02294*
X0103Y02294*
X0103Y02294*
X0103Y02294*
X0103Y02294*
X0103Y02293*
X01029Y02293*
X01029Y02293*
X01029Y02293*
X01029Y02293*
X01029Y02292*
X01029Y02292*
X01028Y02292*
X01028Y02292*
X01028Y02292*
X01028Y02292*
X01028Y02292*
X01027Y02292*
X01027Y02291*
X01027Y02291*
X01027Y02291*
X01026Y02291*
X01026*
X01026Y02291*
X01006*
X01005Y02291*
X01005*
X01005Y02291*
X01005Y02291*
X01004Y02291*
X01004Y02292*
X01004Y02292*
X01004Y02292*
X01004Y02292*
X01003Y02292*
X01003Y02292*
X01003Y02292*
X01003Y02292*
X01003Y02293*
X01002Y02293*
X01002Y02293*
X01002Y02293*
X01002Y02293*
X01002Y02294*
X01002Y02294*
X01002Y02294*
X01002Y02294*
X01001Y02294*
X01001Y02295*
X01001Y02295*
X01001Y02295*
Y02295*
X01001Y02296*
Y02296*
Y02302*
Y02302*
X01001Y02302*
Y02303*
X01001Y02303*
X01001Y02303*
X01001Y02303*
X01002Y02304*
X01002Y02304*
X01002Y02304*
X01002Y02304*
X01002Y02304*
X01002Y02305*
X01002Y02305*
X01002Y02305*
X01003Y02305*
X01003Y02305*
X01003Y02305*
X01003Y02306*
X01003Y02306*
X01004Y02306*
X01004Y02306*
X01004Y02306*
X01004Y02306*
X01004Y02306*
X01005Y02306*
X01005Y02306*
X01005Y02307*
X01005*
X01006Y02307*
X01026*
X01026Y02307*
G37*
G36*
X00837D02*
X00837D01*
X00838Y02306*
X00838Y02306*
X00838Y02306*
X00838Y02306*
X00839Y02306*
X00839Y02306*
X00839Y02306*
X00839Y02306*
X00839Y02306*
X0084Y02305*
X0084Y02305*
X0084Y02305*
X0084Y02305*
X0084Y02305*
X0084Y02305*
X00841Y02304*
X00841Y02304*
X00841Y02304*
X00841Y02304*
X00841Y02304*
X00841Y02303*
X00841Y02303*
X00841Y02303*
X00841Y02303*
Y02302*
X00841Y02302*
Y02302*
Y02296*
Y02296*
X00841Y02295*
Y02295*
X00841Y02295*
X00841Y02295*
X00841Y02294*
X00841Y02294*
X00841Y02294*
X00841Y02294*
X00841Y02294*
X00841Y02293*
X0084Y02293*
X0084Y02293*
X0084Y02293*
X0084Y02293*
X0084Y02292*
X0084Y02292*
X00839Y02292*
X00839Y02292*
X00839Y02292*
X00839Y02292*
X00839Y02292*
X00838Y02292*
X00838Y02291*
X00838Y02291*
X00838Y02291*
X00837Y02291*
X00837*
X00837Y02291*
X00817*
X00816Y02291*
X00816*
X00816Y02291*
X00816Y02291*
X00815Y02291*
X00815Y02292*
X00815Y02292*
X00815Y02292*
X00815Y02292*
X00814Y02292*
X00814Y02292*
X00814Y02292*
X00814Y02292*
X00814Y02293*
X00813Y02293*
X00813Y02293*
X00813Y02293*
X00813Y02293*
X00813Y02294*
X00813Y02294*
X00813Y02294*
X00813Y02294*
X00812Y02294*
X00812Y02295*
X00812Y02295*
X00812Y02295*
Y02295*
X00812Y02296*
Y02296*
Y02302*
Y02302*
X00812Y02302*
Y02303*
X00812Y02303*
X00812Y02303*
X00812Y02303*
X00813Y02304*
X00813Y02304*
X00813Y02304*
X00813Y02304*
X00813Y02304*
X00813Y02305*
X00813Y02305*
X00813Y02305*
X00814Y02305*
X00814Y02305*
X00814Y02305*
X00814Y02306*
X00814Y02306*
X00815Y02306*
X00815Y02306*
X00815Y02306*
X00815Y02306*
X00815Y02306*
X00816Y02306*
X00816Y02306*
X00816Y02307*
X00816*
X00817Y02307*
X00837*
X00837Y02307*
G37*
G36*
X01026Y02287D02*
X01026D01*
X01027Y02287*
X01027Y02287*
X01027Y02287*
X01027Y02287*
X01028Y02286*
X01028Y02286*
X01028Y02286*
X01028Y02286*
X01028Y02286*
X01029Y02286*
X01029Y02286*
X01029Y02285*
X01029Y02285*
X01029Y02285*
X01029Y02285*
X0103Y02285*
X0103Y02285*
X0103Y02284*
X0103Y02284*
X0103Y02284*
X0103Y02284*
X0103Y02283*
X0103Y02283*
X0103Y02283*
Y02283*
X0103Y02282*
Y02282*
Y02276*
Y02276*
X0103Y02276*
Y02275*
X0103Y02275*
X0103Y02275*
X0103Y02275*
X0103Y02275*
X0103Y02274*
X0103Y02274*
X0103Y02274*
X0103Y02274*
X01029Y02273*
X01029Y02273*
X01029Y02273*
X01029Y02273*
X01029Y02273*
X01029Y02273*
X01028Y02272*
X01028Y02272*
X01028Y02272*
X01028Y02272*
X01028Y02272*
X01027Y02272*
X01027Y02272*
X01027Y02272*
X01027Y02272*
X01026Y02272*
X01026*
X01026Y02272*
X01006*
X01005Y02272*
X01005*
X01005Y02272*
X01005Y02272*
X01004Y02272*
X01004Y02272*
X01004Y02272*
X01004Y02272*
X01004Y02272*
X01003Y02272*
X01003Y02272*
X01003Y02273*
X01003Y02273*
X01003Y02273*
X01002Y02273*
X01002Y02273*
X01002Y02273*
X01002Y02274*
X01002Y02274*
X01002Y02274*
X01002Y02274*
X01002Y02275*
X01001Y02275*
X01001Y02275*
X01001Y02275*
X01001Y02275*
Y02276*
X01001Y02276*
Y02276*
Y02282*
Y02282*
X01001Y02283*
Y02283*
X01001Y02283*
X01001Y02283*
X01001Y02284*
X01002Y02284*
X01002Y02284*
X01002Y02284*
X01002Y02285*
X01002Y02285*
X01002Y02285*
X01002Y02285*
X01002Y02285*
X01003Y02285*
X01003Y02286*
X01003Y02286*
X01003Y02286*
X01003Y02286*
X01004Y02286*
X01004Y02286*
X01004Y02286*
X01004Y02287*
X01004Y02287*
X01005Y02287*
X01005Y02287*
X01005Y02287*
X01005*
X01006Y02287*
X01026*
X01026Y02287*
G37*
G36*
X00837D02*
X00837D01*
X00838Y02287*
X00838Y02287*
X00838Y02287*
X00838Y02287*
X00839Y02286*
X00839Y02286*
X00839Y02286*
X00839Y02286*
X00839Y02286*
X0084Y02286*
X0084Y02286*
X0084Y02285*
X0084Y02285*
X0084Y02285*
X0084Y02285*
X00841Y02285*
X00841Y02285*
X00841Y02284*
X00841Y02284*
X00841Y02284*
X00841Y02284*
X00841Y02283*
X00841Y02283*
X00841Y02283*
Y02283*
X00841Y02282*
Y02282*
Y02276*
Y02276*
X00841Y02276*
Y02275*
X00841Y02275*
X00841Y02275*
X00841Y02275*
X00841Y02275*
X00841Y02274*
X00841Y02274*
X00841Y02274*
X00841Y02274*
X0084Y02273*
X0084Y02273*
X0084Y02273*
X0084Y02273*
X0084Y02273*
X0084Y02273*
X00839Y02272*
X00839Y02272*
X00839Y02272*
X00839Y02272*
X00839Y02272*
X00838Y02272*
X00838Y02272*
X00838Y02272*
X00838Y02272*
X00837Y02272*
X00837*
X00837Y02272*
X00817*
X00816Y02272*
X00816*
X00816Y02272*
X00816Y02272*
X00815Y02272*
X00815Y02272*
X00815Y02272*
X00815Y02272*
X00815Y02272*
X00814Y02272*
X00814Y02272*
X00814Y02273*
X00814Y02273*
X00814Y02273*
X00813Y02273*
X00813Y02273*
X00813Y02273*
X00813Y02274*
X00813Y02274*
X00813Y02274*
X00813Y02274*
X00813Y02275*
X00812Y02275*
X00812Y02275*
X00812Y02275*
X00812Y02275*
Y02276*
X00812Y02276*
Y02276*
Y02282*
Y02282*
X00812Y02283*
Y02283*
X00812Y02283*
X00812Y02283*
X00812Y02284*
X00813Y02284*
X00813Y02284*
X00813Y02284*
X00813Y02285*
X00813Y02285*
X00813Y02285*
X00813Y02285*
X00813Y02285*
X00814Y02285*
X00814Y02286*
X00814Y02286*
X00814Y02286*
X00814Y02286*
X00815Y02286*
X00815Y02286*
X00815Y02286*
X00815Y02287*
X00815Y02287*
X00816Y02287*
X00816Y02287*
X00816Y02287*
X00816*
X00817Y02287*
X00837*
X00837Y02287*
G37*
G36*
X01026Y02267D02*
X01026D01*
X01027Y02267*
X01027Y02267*
X01027Y02267*
X01027Y02267*
X01028Y02267*
X01028Y02267*
X01028Y02267*
X01028Y02266*
X01028Y02266*
X01029Y02266*
X01029Y02266*
X01029Y02266*
X01029Y02266*
X01029Y02265*
X01029Y02265*
X0103Y02265*
X0103Y02265*
X0103Y02265*
X0103Y02264*
X0103Y02264*
X0103Y02264*
X0103Y02264*
X0103Y02263*
X0103Y02263*
Y02263*
X0103Y02263*
Y02262*
Y02257*
Y02256*
X0103Y02256*
Y02256*
X0103Y02256*
X0103Y02255*
X0103Y02255*
X0103Y02255*
X0103Y02255*
X0103Y02254*
X0103Y02254*
X0103Y02254*
X01029Y02254*
X01029Y02254*
X01029Y02253*
X01029Y02253*
X01029Y02253*
X01029Y02253*
X01028Y02253*
X01028Y02253*
X01028Y02252*
X01028Y02252*
X01028Y02252*
X01027Y02252*
X01027Y02252*
X01027Y02252*
X01027Y02252*
X01026Y02252*
X01026*
X01026Y02252*
X01006*
X01005Y02252*
X01005*
X01005Y02252*
X01005Y02252*
X01004Y02252*
X01004Y02252*
X01004Y02252*
X01004Y02252*
X01004Y02252*
X01003Y02253*
X01003Y02253*
X01003Y02253*
X01003Y02253*
X01003Y02253*
X01002Y02253*
X01002Y02254*
X01002Y02254*
X01002Y02254*
X01002Y02254*
X01002Y02254*
X01002Y02255*
X01002Y02255*
X01001Y02255*
X01001Y02255*
X01001Y02256*
X01001Y02256*
Y02256*
X01001Y02256*
Y02257*
Y02262*
Y02263*
X01001Y02263*
Y02263*
X01001Y02263*
X01001Y02264*
X01001Y02264*
X01002Y02264*
X01002Y02264*
X01002Y02265*
X01002Y02265*
X01002Y02265*
X01002Y02265*
X01002Y02265*
X01002Y02266*
X01003Y02266*
X01003Y02266*
X01003Y02266*
X01003Y02266*
X01003Y02266*
X01004Y02267*
X01004Y02267*
X01004Y02267*
X01004Y02267*
X01004Y02267*
X01005Y02267*
X01005Y02267*
X01005Y02267*
X01005*
X01006Y02267*
X01026*
X01026Y02267*
G37*
G36*
X00837D02*
X00837D01*
X00838Y02267*
X00838Y02267*
X00838Y02267*
X00838Y02267*
X00839Y02267*
X00839Y02267*
X00839Y02267*
X00839Y02266*
X00839Y02266*
X0084Y02266*
X0084Y02266*
X0084Y02266*
X0084Y02266*
X0084Y02265*
X0084Y02265*
X00841Y02265*
X00841Y02265*
X00841Y02265*
X00841Y02264*
X00841Y02264*
X00841Y02264*
X00841Y02264*
X00841Y02263*
X00841Y02263*
Y02263*
X00841Y02263*
Y02262*
Y02257*
Y02256*
X00841Y02256*
Y02256*
X00841Y02256*
X00841Y02255*
X00841Y02255*
X00841Y02255*
X00841Y02255*
X00841Y02254*
X00841Y02254*
X00841Y02254*
X0084Y02254*
X0084Y02254*
X0084Y02253*
X0084Y02253*
X0084Y02253*
X0084Y02253*
X00839Y02253*
X00839Y02253*
X00839Y02252*
X00839Y02252*
X00839Y02252*
X00838Y02252*
X00838Y02252*
X00838Y02252*
X00838Y02252*
X00837Y02252*
X00837*
X00837Y02252*
X00817*
X00816Y02252*
X00816*
X00816Y02252*
X00816Y02252*
X00815Y02252*
X00815Y02252*
X00815Y02252*
X00815Y02252*
X00815Y02252*
X00814Y02253*
X00814Y02253*
X00814Y02253*
X00814Y02253*
X00814Y02253*
X00813Y02253*
X00813Y02254*
X00813Y02254*
X00813Y02254*
X00813Y02254*
X00813Y02254*
X00813Y02255*
X00813Y02255*
X00812Y02255*
X00812Y02255*
X00812Y02256*
X00812Y02256*
Y02256*
X00812Y02256*
Y02257*
Y02262*
Y02263*
X00812Y02263*
Y02263*
X00812Y02263*
X00812Y02264*
X00812Y02264*
X00813Y02264*
X00813Y02264*
X00813Y02265*
X00813Y02265*
X00813Y02265*
X00813Y02265*
X00813Y02265*
X00813Y02266*
X00814Y02266*
X00814Y02266*
X00814Y02266*
X00814Y02266*
X00814Y02266*
X00815Y02267*
X00815Y02267*
X00815Y02267*
X00815Y02267*
X00815Y02267*
X00816Y02267*
X00816Y02267*
X00816Y02267*
X00816*
X00817Y02267*
X00837*
X00837Y02267*
G37*
G36*
X01026Y02247D02*
X01026D01*
X01027Y02247*
X01027Y02247*
X01027Y02247*
X01027Y02247*
X01028Y02247*
X01028Y02247*
X01028Y02247*
X01028Y02247*
X01028Y02247*
X01029Y02246*
X01029Y02246*
X01029Y02246*
X01029Y02246*
X01029Y02246*
X01029Y02246*
X0103Y02245*
X0103Y02245*
X0103Y02245*
X0103Y02245*
X0103Y02244*
X0103Y02244*
X0103Y02244*
X0103Y02244*
X0103Y02244*
Y02243*
X0103Y02243*
Y02243*
Y02237*
Y02237*
X0103Y02236*
Y02236*
X0103Y02236*
X0103Y02236*
X0103Y02235*
X0103Y02235*
X0103Y02235*
X0103Y02235*
X0103Y02235*
X0103Y02234*
X01029Y02234*
X01029Y02234*
X01029Y02234*
X01029Y02234*
X01029Y02233*
X01029Y02233*
X01028Y02233*
X01028Y02233*
X01028Y02233*
X01028Y02233*
X01028Y02233*
X01027Y02232*
X01027Y02232*
X01027Y02232*
X01027Y02232*
X01026Y02232*
X01026*
X01026Y02232*
X01006*
X01005Y02232*
X01005*
X01005Y02232*
X01005Y02232*
X01004Y02232*
X01004Y02232*
X01004Y02233*
X01004Y02233*
X01004Y02233*
X01003Y02233*
X01003Y02233*
X01003Y02233*
X01003Y02233*
X01003Y02234*
X01002Y02234*
X01002Y02234*
X01002Y02234*
X01002Y02234*
X01002Y02235*
X01002Y02235*
X01002Y02235*
X01002Y02235*
X01001Y02235*
X01001Y02236*
X01001Y02236*
X01001Y02236*
Y02236*
X01001Y02237*
Y02237*
Y02243*
Y02243*
X01001Y02243*
Y02244*
X01001Y02244*
X01001Y02244*
X01001Y02244*
X01002Y02244*
X01002Y02245*
X01002Y02245*
X01002Y02245*
X01002Y02245*
X01002Y02246*
X01002Y02246*
X01002Y02246*
X01003Y02246*
X01003Y02246*
X01003Y02246*
X01003Y02247*
X01003Y02247*
X01004Y02247*
X01004Y02247*
X01004Y02247*
X01004Y02247*
X01004Y02247*
X01005Y02247*
X01005Y02247*
X01005Y02247*
X01005*
X01006Y02247*
X01026*
X01026Y02247*
G37*
G36*
X00837D02*
X00837D01*
X00838Y02247*
X00838Y02247*
X00838Y02247*
X00838Y02247*
X00839Y02247*
X00839Y02247*
X00839Y02247*
X00839Y02247*
X00839Y02247*
X0084Y02246*
X0084Y02246*
X0084Y02246*
X0084Y02246*
X0084Y02246*
X0084Y02246*
X00841Y02245*
X00841Y02245*
X00841Y02245*
X00841Y02245*
X00841Y02244*
X00841Y02244*
X00841Y02244*
X00841Y02244*
X00841Y02244*
Y02243*
X00841Y02243*
Y02243*
Y02237*
Y02237*
X00841Y02236*
Y02236*
X00841Y02236*
X00841Y02236*
X00841Y02235*
X00841Y02235*
X00841Y02235*
X00841Y02235*
X00841Y02235*
X00841Y02234*
X0084Y02234*
X0084Y02234*
X0084Y02234*
X0084Y02234*
X0084Y02233*
X0084Y02233*
X00839Y02233*
X00839Y02233*
X00839Y02233*
X00839Y02233*
X00839Y02233*
X00838Y02232*
X00838Y02232*
X00838Y02232*
X00838Y02232*
X00837Y02232*
X00837*
X00837Y02232*
X00817*
X00816Y02232*
X00816*
X00816Y02232*
X00816Y02232*
X00815Y02232*
X00815Y02232*
X00815Y02233*
X00815Y02233*
X00815Y02233*
X00814Y02233*
X00814Y02233*
X00814Y02233*
X00814Y02233*
X00814Y02234*
X00813Y02234*
X00813Y02234*
X00813Y02234*
X00813Y02234*
X00813Y02235*
X00813Y02235*
X00813Y02235*
X00813Y02235*
X00812Y02235*
X00812Y02236*
X00812Y02236*
X00812Y02236*
Y02236*
X00812Y02237*
Y02237*
Y02243*
Y02243*
X00812Y02243*
Y02244*
X00812Y02244*
X00812Y02244*
X00812Y02244*
X00813Y02244*
X00813Y02245*
X00813Y02245*
X00813Y02245*
X00813Y02245*
X00813Y02246*
X00813Y02246*
X00813Y02246*
X00814Y02246*
X00814Y02246*
X00814Y02246*
X00814Y02247*
X00814Y02247*
X00815Y02247*
X00815Y02247*
X00815Y02247*
X00815Y02247*
X00815Y02247*
X00816Y02247*
X00816Y02247*
X00816Y02247*
X00816*
X00817Y02247*
X00837*
X00837Y02247*
G37*
G36*
X01005Y02231D02*
X01005D01*
X01006Y02231*
X01006Y02231*
X01006Y02231*
X01006Y0223*
X01006Y0223*
X01007Y0223*
X01007Y0223*
X01007Y0223*
X01007Y0223*
X01008Y0223*
X01008Y0223*
X01008Y02229*
X01008Y02229*
X01008Y02229*
X01008Y02229*
X01009Y02229*
X01009Y02228*
X01009Y02228*
X01009Y02228*
X01009Y02228*
X01009Y02227*
X01009Y02227*
X01009Y02227*
X01009Y02227*
Y02227*
X01009Y02226*
Y02226*
Y02204*
Y02204*
X01009Y02204*
Y02204*
X01009Y02203*
X01009Y02203*
X01009Y02203*
X01009Y02203*
X01009Y02202*
X01009Y02202*
X01009Y02202*
X01009Y02202*
X01008Y02202*
X01008Y02201*
X01008Y02201*
X01008Y02201*
X01008Y02201*
X01008Y02201*
X01007Y02201*
X01007Y022*
X01007Y022*
X01007Y022*
X01006Y022*
X01006Y022*
X01006Y022*
X01006Y022*
X01006Y022*
X01005Y022*
X01005*
X01005Y022*
X00998*
X00998Y022*
X00998*
X00998Y022*
X00997Y022*
X00997Y022*
X00997Y022*
X00997Y022*
X00997Y022*
X00996Y022*
X00996Y022*
X00996Y02201*
X00996Y02201*
X00995Y02201*
X00995Y02201*
X00995Y02201*
X00995Y02201*
X00995Y02202*
X00995Y02202*
X00995Y02202*
X00994Y02202*
X00994Y02202*
X00994Y02203*
X00994Y02203*
X00994Y02203*
X00994Y02203*
X00994Y02204*
Y02204*
X00994Y02204*
Y02204*
Y02226*
Y02226*
X00994Y02227*
Y02227*
X00994Y02227*
X00994Y02227*
X00994Y02227*
X00994Y02228*
X00994Y02228*
X00994Y02228*
X00995Y02228*
X00995Y02229*
X00995Y02229*
X00995Y02229*
X00995Y02229*
X00995Y02229*
X00995Y0223*
X00996Y0223*
X00996Y0223*
X00996Y0223*
X00996Y0223*
X00997Y0223*
X00997Y0223*
X00997Y0223*
X00997Y02231*
X00997Y02231*
X00998Y02231*
X00998Y02231*
X00998*
X00998Y02231*
X01005*
X01005Y02231*
G37*
G36*
X00985Y02229D02*
X00986D01*
X00986Y02229*
X00986Y02229*
X00986Y02229*
X00987Y02228*
X00987Y02228*
X00987Y02228*
X00987Y02228*
X00987Y02228*
X00988Y02228*
X00988Y02228*
X00988Y02228*
X00988Y02227*
X00988Y02227*
X00989Y02227*
X00989Y02227*
X00989Y02227*
X00989Y02226*
X00989Y02226*
X00989Y02226*
X00989Y02226*
X00989Y02226*
X00989Y02225*
X00989Y02225*
X0099Y02225*
Y02225*
X0099Y02224*
Y02224*
Y02204*
Y02204*
X0099Y02204*
Y02204*
X00989Y02203*
X00989Y02203*
X00989Y02203*
X00989Y02203*
X00989Y02202*
X00989Y02202*
X00989Y02202*
X00989Y02202*
X00989Y02202*
X00989Y02201*
X00988Y02201*
X00988Y02201*
X00988Y02201*
X00988Y02201*
X00988Y02201*
X00987Y022*
X00987Y022*
X00987Y022*
X00987Y022*
X00987Y022*
X00986Y022*
X00986Y022*
X00986Y022*
X00986Y022*
X00985*
X00985Y022*
X00979*
X00978Y022*
X00978*
X00978Y022*
X00978Y022*
X00977Y022*
X00977Y022*
X00977Y022*
X00977Y022*
X00977Y022*
X00976Y022*
X00976Y02201*
X00976Y02201*
X00976Y02201*
X00976Y02201*
X00975Y02201*
X00975Y02201*
X00975Y02202*
X00975Y02202*
X00975Y02202*
X00975Y02202*
X00975Y02202*
X00975Y02203*
X00974Y02203*
X00974Y02203*
X00974Y02203*
X00974Y02204*
Y02204*
X00974Y02204*
Y02204*
Y02224*
Y02224*
X00974Y02225*
Y02225*
X00974Y02225*
X00974Y02225*
X00974Y02226*
X00975Y02226*
X00975Y02226*
X00975Y02226*
X00975Y02226*
X00975Y02227*
X00975Y02227*
X00975Y02227*
X00975Y02227*
X00976Y02227*
X00976Y02228*
X00976Y02228*
X00976Y02228*
X00976Y02228*
X00977Y02228*
X00977Y02228*
X00977Y02228*
X00977Y02228*
X00977Y02229*
X00978Y02229*
X00978Y02229*
X00978Y02229*
X00978*
X00979Y02229*
X00985*
X00985Y02229*
G37*
G36*
X00966Y02339D02*
X00966D01*
X00966Y02339*
X00966Y02339*
X00967Y02339*
X00967Y02339*
X00967Y02339*
X00967Y02339*
X00968Y02338*
X00968Y02338*
X00968Y02338*
X00968Y02338*
X00968Y02338*
X00969Y02338*
X00969Y02337*
X00969Y02337*
X00969Y02337*
X00969Y02337*
X00969Y02337*
X00969Y02336*
X0097Y02336*
X0097Y02336*
X0097Y02336*
X0097Y02336*
X0097Y02335*
X0097Y02335*
Y02335*
X0097Y02335*
Y02334*
Y02204*
Y02204*
X0097Y02204*
Y02204*
X0097Y02203*
X0097Y02203*
X0097Y02203*
X0097Y02203*
X0097Y02202*
X00969Y02202*
X00969Y02202*
X00969Y02202*
X00969Y02202*
X00969Y02201*
X00969Y02201*
X00969Y02201*
X00968Y02201*
X00968Y02201*
X00968Y02201*
X00968Y022*
X00968Y022*
X00967Y022*
X00967Y022*
X00967Y022*
X00967Y022*
X00966Y022*
X00966Y022*
X00966Y022*
X00966*
X00965Y022*
X00959*
X00959Y022*
X00959*
X00958Y022*
X00958Y022*
X00958Y022*
X00958Y022*
X00957Y022*
X00957Y022*
X00957Y022*
X00957Y022*
X00956Y02201*
X00956Y02201*
X00956Y02201*
X00956Y02201*
X00956Y02201*
X00956Y02201*
X00955Y02202*
X00955Y02202*
X00955Y02202*
X00955Y02202*
X00955Y02202*
X00955Y02203*
X00955Y02203*
X00955Y02203*
X00955Y02203*
X00955Y02204*
Y02204*
X00955Y02204*
Y02204*
Y02334*
Y02335*
X00955Y02335*
Y02335*
X00955Y02335*
X00955Y02336*
X00955Y02336*
X00955Y02336*
X00955Y02336*
X00955Y02336*
X00955Y02337*
X00955Y02337*
X00955Y02337*
X00956Y02337*
X00956Y02337*
X00956Y02338*
X00956Y02338*
X00956Y02338*
X00956Y02338*
X00957Y02338*
X00957Y02338*
X00957Y02339*
X00957Y02339*
X00958Y02339*
X00958Y02339*
X00958Y02339*
X00958Y02339*
X00959Y02339*
X00959*
X00959Y02339*
X00965*
X00966Y02339*
G37*
G36*
X00946D02*
X00946D01*
X00946Y02339*
X00947Y02339*
X00947Y02339*
X00947Y02339*
X00947Y02339*
X00948Y02339*
X00948Y02338*
X00948Y02338*
X00948Y02338*
X00948Y02338*
X00949Y02338*
X00949Y02338*
X00949Y02337*
X00949Y02337*
X00949Y02337*
X00949Y02337*
X0095Y02337*
X0095Y02336*
X0095Y02336*
X0095Y02336*
X0095Y02336*
X0095Y02336*
X0095Y02335*
X0095Y02335*
Y02335*
X0095Y02335*
Y02334*
Y02204*
Y02204*
X0095Y02204*
Y02204*
X0095Y02203*
X0095Y02203*
X0095Y02203*
X0095Y02203*
X0095Y02202*
X0095Y02202*
X0095Y02202*
X00949Y02202*
X00949Y02202*
X00949Y02201*
X00949Y02201*
X00949Y02201*
X00949Y02201*
X00948Y02201*
X00948Y02201*
X00948Y022*
X00948Y022*
X00948Y022*
X00947Y022*
X00947Y022*
X00947Y022*
X00947Y022*
X00946Y022*
X00946Y022*
X00946*
X00946Y022*
X00939*
X00939Y022*
X00939*
X00939Y022*
X00938Y022*
X00938Y022*
X00938Y022*
X00938Y022*
X00937Y022*
X00937Y022*
X00937Y022*
X00937Y02201*
X00937Y02201*
X00936Y02201*
X00936Y02201*
X00936Y02201*
X00936Y02201*
X00936Y02202*
X00936Y02202*
X00935Y02202*
X00935Y02202*
X00935Y02202*
X00935Y02203*
X00935Y02203*
X00935Y02203*
X00935Y02203*
X00935Y02204*
Y02204*
X00935Y02204*
Y02204*
Y02334*
Y02335*
X00935Y02335*
Y02335*
X00935Y02335*
X00935Y02336*
X00935Y02336*
X00935Y02336*
X00935Y02336*
X00935Y02336*
X00935Y02337*
X00936Y02337*
X00936Y02337*
X00936Y02337*
X00936Y02337*
X00936Y02338*
X00936Y02338*
X00937Y02338*
X00937Y02338*
X00937Y02338*
X00937Y02338*
X00937Y02339*
X00938Y02339*
X00938Y02339*
X00938Y02339*
X00938Y02339*
X00939Y02339*
X00939Y02339*
X00939*
X00939Y02339*
X00946*
X00946Y02339*
G37*
G36*
X00925D02*
X00925D01*
X00925Y02339*
X00925Y02339*
X00926Y02339*
X00926Y02339*
X00926Y02339*
X00926Y02339*
X00927Y02338*
X00927Y02338*
X00927Y02338*
X00927Y02338*
X00927Y02338*
X00928Y02338*
X00928Y02337*
X00928Y02337*
X00928Y02337*
X00928Y02337*
X00928Y02337*
X00928Y02336*
X00929Y02336*
X00929Y02336*
X00929Y02336*
X00929Y02336*
X00929Y02335*
X00929Y02335*
Y02335*
X00929Y02335*
Y02334*
Y02318*
X00931*
Y0222*
X00929*
Y02204*
Y02204*
X00929Y02204*
Y02204*
X00929Y02203*
X00929Y02203*
X00929Y02203*
X00929Y02203*
X00929Y02202*
X00928Y02202*
X00928Y02202*
X00928Y02202*
X00928Y02202*
X00928Y02201*
X00928Y02201*
X00928Y02201*
X00927Y02201*
X00927Y02201*
X00927Y02201*
X00927Y022*
X00927Y022*
X00926Y022*
X00926Y022*
X00926Y022*
X00926Y022*
X00925Y022*
X00925Y022*
X00925Y022*
X00925*
X00924Y022*
X00918*
X00918Y022*
X00918*
X00917Y022*
X00917Y022*
X00917Y022*
X00917Y022*
X00916Y022*
X00916Y022*
X00916Y022*
X00916Y022*
X00916Y02201*
X00915Y02201*
X00915Y02201*
X00915Y02201*
X00915Y02201*
X00915Y02201*
X00915Y02202*
X00914Y02202*
X00914Y02202*
X00914Y02202*
X00914Y02202*
X00914Y02203*
X00914Y02203*
X00914Y02203*
X00914Y02203*
X00914Y02204*
Y02204*
X00914Y02204*
Y02204*
Y0222*
X00912*
Y02318*
X00914*
Y02334*
Y02335*
X00914Y02335*
Y02335*
X00914Y02335*
X00914Y02336*
X00914Y02336*
X00914Y02336*
X00914Y02336*
X00914Y02336*
X00914Y02337*
X00914Y02337*
X00915Y02337*
X00915Y02337*
X00915Y02337*
X00915Y02338*
X00915Y02338*
X00915Y02338*
X00916Y02338*
X00916Y02338*
X00916Y02338*
X00916Y02339*
X00916Y02339*
X00917Y02339*
X00917Y02339*
X00917Y02339*
X00917Y02339*
X00918Y02339*
X00918*
X00918Y02339*
X00924*
X00925Y02339*
G37*
G36*
X00903D02*
X00904D01*
X00904Y02339*
X00904Y02339*
X00904Y02339*
X00905Y02339*
X00905Y02339*
X00905Y02339*
X00905Y02338*
X00906Y02338*
X00906Y02338*
X00906Y02338*
X00906Y02338*
X00906Y02338*
X00906Y02337*
X00907Y02337*
X00907Y02337*
X00907Y02337*
X00907Y02337*
X00907Y02336*
X00907Y02336*
X00907Y02336*
X00907Y02336*
X00908Y02336*
X00908Y02335*
X00908Y02335*
Y02335*
X00908Y02335*
Y02334*
Y02204*
Y02204*
X00908Y02204*
Y02204*
X00908Y02203*
X00908Y02203*
X00907Y02203*
X00907Y02203*
X00907Y02202*
X00907Y02202*
X00907Y02202*
X00907Y02202*
X00907Y02202*
X00907Y02201*
X00906Y02201*
X00906Y02201*
X00906Y02201*
X00906Y02201*
X00906Y02201*
X00906Y022*
X00905Y022*
X00905Y022*
X00905Y022*
X00905Y022*
X00904Y022*
X00904Y022*
X00904Y022*
X00904Y022*
X00903*
X00903Y022*
X00897*
X00897Y022*
X00896*
X00896Y022*
X00896Y022*
X00896Y022*
X00895Y022*
X00895Y022*
X00895Y022*
X00895Y022*
X00895Y022*
X00894Y02201*
X00894Y02201*
X00894Y02201*
X00894Y02201*
X00894Y02201*
X00893Y02201*
X00893Y02202*
X00893Y02202*
X00893Y02202*
X00893Y02202*
X00893Y02202*
X00893Y02203*
X00893Y02203*
X00892Y02203*
X00892Y02203*
X00892Y02204*
Y02204*
X00892Y02204*
Y02204*
Y02334*
Y02335*
X00892Y02335*
Y02335*
X00892Y02335*
X00892Y02336*
X00893Y02336*
X00893Y02336*
X00893Y02336*
X00893Y02336*
X00893Y02337*
X00893Y02337*
X00893Y02337*
X00893Y02337*
X00894Y02337*
X00894Y02338*
X00894Y02338*
X00894Y02338*
X00894Y02338*
X00895Y02338*
X00895Y02338*
X00895Y02339*
X00895Y02339*
X00895Y02339*
X00896Y02339*
X00896Y02339*
X00896Y02339*
X00896Y02339*
X00897*
X00897Y02339*
X00903*
X00903Y02339*
G37*
G36*
X00884D02*
X00884D01*
X00884Y02339*
X00885Y02339*
X00885Y02339*
X00885Y02339*
X00885Y02339*
X00885Y02339*
X00886Y02338*
X00886Y02338*
X00886Y02338*
X00886Y02338*
X00886Y02338*
X00887Y02338*
X00887Y02337*
X00887Y02337*
X00887Y02337*
X00887Y02337*
X00887Y02337*
X00887Y02336*
X00888Y02336*
X00888Y02336*
X00888Y02336*
X00888Y02336*
X00888Y02335*
X00888Y02335*
Y02335*
X00888Y02335*
Y02334*
Y02204*
Y02204*
X00888Y02204*
Y02204*
X00888Y02203*
X00888Y02203*
X00888Y02203*
X00888Y02203*
X00888Y02202*
X00887Y02202*
X00887Y02202*
X00887Y02202*
X00887Y02202*
X00887Y02201*
X00887Y02201*
X00887Y02201*
X00886Y02201*
X00886Y02201*
X00886Y02201*
X00886Y022*
X00886Y022*
X00885Y022*
X00885Y022*
X00885Y022*
X00885Y022*
X00885Y022*
X00884Y022*
X00884Y022*
X00884*
X00884Y022*
X00877*
X00877Y022*
X00877*
X00876Y022*
X00876Y022*
X00876Y022*
X00876Y022*
X00875Y022*
X00875Y022*
X00875Y022*
X00875Y022*
X00875Y02201*
X00874Y02201*
X00874Y02201*
X00874Y02201*
X00874Y02201*
X00874Y02201*
X00874Y02202*
X00873Y02202*
X00873Y02202*
X00873Y02202*
X00873Y02202*
X00873Y02203*
X00873Y02203*
X00873Y02203*
X00873Y02203*
X00873Y02204*
Y02204*
X00873Y02204*
Y02204*
Y02334*
Y02335*
X00873Y02335*
Y02335*
X00873Y02335*
X00873Y02336*
X00873Y02336*
X00873Y02336*
X00873Y02336*
X00873Y02336*
X00873Y02337*
X00873Y02337*
X00874Y02337*
X00874Y02337*
X00874Y02337*
X00874Y02338*
X00874Y02338*
X00874Y02338*
X00875Y02338*
X00875Y02338*
X00875Y02338*
X00875Y02339*
X00875Y02339*
X00876Y02339*
X00876Y02339*
X00876Y02339*
X00876Y02339*
X00877Y02339*
X00877*
X00877Y02339*
X00884*
X00884Y02339*
G37*
G36*
X00864Y02229D02*
X00864D01*
X00865Y02229*
X00865Y02229*
X00865Y02229*
X00865Y02228*
X00866Y02228*
X00866Y02228*
X00866Y02228*
X00866Y02228*
X00866Y02228*
X00867Y02228*
X00867Y02228*
X00867Y02227*
X00867Y02227*
X00867Y02227*
X00867Y02227*
X00868Y02227*
X00868Y02226*
X00868Y02226*
X00868Y02226*
X00868Y02226*
X00868Y02226*
X00868Y02225*
X00868Y02225*
X00868Y02225*
Y02225*
X00868Y02224*
Y02224*
Y02204*
Y02204*
X00868Y02204*
Y02204*
X00868Y02203*
X00868Y02203*
X00868Y02203*
X00868Y02203*
X00868Y02202*
X00868Y02202*
X00868Y02202*
X00868Y02202*
X00867Y02202*
X00867Y02201*
X00867Y02201*
X00867Y02201*
X00867Y02201*
X00867Y02201*
X00866Y02201*
X00866Y022*
X00866Y022*
X00866Y022*
X00866Y022*
X00865Y022*
X00865Y022*
X00865Y022*
X00865Y022*
X00864Y022*
X00864*
X00864Y022*
X00857*
X00857Y022*
X00857*
X00857Y022*
X00856Y022*
X00856Y022*
X00856Y022*
X00856Y022*
X00856Y022*
X00855Y022*
X00855Y022*
X00855Y02201*
X00855Y02201*
X00855Y02201*
X00854Y02201*
X00854Y02201*
X00854Y02201*
X00854Y02202*
X00854Y02202*
X00854Y02202*
X00853Y02202*
X00853Y02202*
X00853Y02203*
X00853Y02203*
X00853Y02203*
X00853Y02203*
X00853Y02204*
Y02204*
X00853Y02204*
Y02204*
Y02224*
Y02224*
X00853Y02225*
Y02225*
X00853Y02225*
X00853Y02225*
X00853Y02226*
X00853Y02226*
X00853Y02226*
X00853Y02226*
X00854Y02226*
X00854Y02227*
X00854Y02227*
X00854Y02227*
X00854Y02227*
X00854Y02227*
X00855Y02228*
X00855Y02228*
X00855Y02228*
X00855Y02228*
X00855Y02228*
X00856Y02228*
X00856Y02228*
X00856Y02228*
X00856Y02229*
X00856Y02229*
X00857Y02229*
X00857Y02229*
X00857*
X00857Y02229*
X00864*
X00864Y02229*
G37*
G36*
X00844Y02231D02*
X00845D01*
X00845Y02231*
X00845Y02231*
X00845Y02231*
X00846Y0223*
X00846Y0223*
X00846Y0223*
X00846Y0223*
X00846Y0223*
X00847Y0223*
X00847Y0223*
X00847Y0223*
X00847Y02229*
X00847Y02229*
X00848Y02229*
X00848Y02229*
X00848Y02229*
X00848Y02228*
X00848Y02228*
X00848Y02228*
X00848Y02228*
X00848Y02227*
X00848Y02227*
X00849Y02227*
X00849Y02227*
Y02227*
X00849Y02226*
Y02226*
Y02204*
Y02204*
X00849Y02204*
Y02204*
X00849Y02203*
X00848Y02203*
X00848Y02203*
X00848Y02203*
X00848Y02202*
X00848Y02202*
X00848Y02202*
X00848Y02202*
X00848Y02202*
X00848Y02201*
X00847Y02201*
X00847Y02201*
X00847Y02201*
X00847Y02201*
X00847Y02201*
X00846Y022*
X00846Y022*
X00846Y022*
X00846Y022*
X00846Y022*
X00845Y022*
X00845Y022*
X00845Y022*
X00845Y022*
X00844*
X00844Y022*
X00838*
X00837Y022*
X00837*
X00837Y022*
X00837Y022*
X00837Y022*
X00836Y022*
X00836Y022*
X00836Y022*
X00836Y022*
X00835Y022*
X00835Y02201*
X00835Y02201*
X00835Y02201*
X00835Y02201*
X00835Y02201*
X00834Y02201*
X00834Y02202*
X00834Y02202*
X00834Y02202*
X00834Y02202*
X00834Y02202*
X00834Y02203*
X00834Y02203*
X00833Y02203*
X00833Y02203*
X00833Y02204*
Y02204*
X00833Y02204*
Y02204*
Y02226*
Y02226*
X00833Y02227*
Y02227*
X00833Y02227*
X00833Y02227*
X00834Y02227*
X00834Y02228*
X00834Y02228*
X00834Y02228*
X00834Y02228*
X00834Y02229*
X00834Y02229*
X00834Y02229*
X00835Y02229*
X00835Y02229*
X00835Y0223*
X00835Y0223*
X00835Y0223*
X00835Y0223*
X00836Y0223*
X00836Y0223*
X00836Y0223*
X00836Y0223*
X00837Y02231*
X00837Y02231*
X00837Y02231*
X00837Y02231*
X00837*
X00838Y02231*
X00844*
X00844Y02231*
G37*
G36*
X01967Y01165D02*
X01967D01*
X01968Y01165*
X01968*
X01968Y01165*
X01968Y01165*
X01968Y01165*
X01968Y01165*
X01968Y01165*
X01968Y01165*
X01968Y01165*
X01968Y01165*
X01968Y01165*
X01969Y01165*
X01969Y01165*
X01969Y01165*
X01969Y01164*
X01969Y01164*
X01969Y01164*
X01969Y01164*
X01969Y01164*
X01969Y01164*
Y01164*
X01969Y01164*
Y01164*
X01969Y01164*
Y01101*
X01969Y011*
Y011*
X01969Y011*
Y011*
X01969Y011*
X01969Y011*
X01969Y011*
X01969Y011*
X01969Y011*
X01969Y011*
X01969Y011*
X01969Y011*
X01968Y01099*
X01968Y01099*
X01968Y01099*
X01968Y01099*
X01968Y01099*
X01968Y01099*
X01968Y01099*
X01968Y01099*
X01968Y01099*
X01968Y01099*
X01968*
X01967Y01099*
X01967*
X01967Y01099*
X01942*
X01942Y01099*
X01942*
X01941Y01099*
X01941*
X01941Y01099*
X01941Y01099*
X01941Y01099*
X01941Y01099*
X01941Y01099*
X01941Y01099*
X01941Y01099*
X01941Y01099*
X01941Y01099*
X0194Y011*
X0194Y011*
X0194Y011*
X0194Y011*
X0194Y011*
X0194Y011*
X0194Y011*
X0194Y011*
X0194Y011*
Y011*
X0194Y011*
Y011*
X0194Y01101*
Y01164*
X0194Y01164*
Y01164*
X0194Y01164*
Y01164*
X0194Y01164*
X0194Y01164*
X0194Y01164*
X0194Y01164*
X0194Y01164*
X0194Y01165*
X0194Y01165*
X0194Y01165*
X01941Y01165*
X01941Y01165*
X01941Y01165*
X01941Y01165*
X01941Y01165*
X01941Y01165*
X01941Y01165*
X01941Y01165*
X01941Y01165*
X01941Y01165*
X01941*
X01942Y01165*
X01942*
X01942Y01165*
X01967*
X01967Y01165*
G37*
G36*
X01917D02*
X01917D01*
X01918Y01165*
X01918*
X01918Y01165*
X01918Y01165*
X01918Y01165*
X01918Y01165*
X01918Y01165*
X01918Y01165*
X01918Y01165*
X01918Y01165*
X01918Y01165*
X01919Y01165*
X01919Y01165*
X01919Y01165*
X01919Y01164*
X01919Y01164*
X01919Y01164*
X01919Y01164*
X01919Y01164*
X01919Y01164*
Y01164*
X01919Y01164*
Y01164*
X01919Y01164*
Y01101*
X01919Y011*
Y011*
X01919Y011*
Y011*
X01919Y011*
X01919Y011*
X01919Y011*
X01919Y011*
X01919Y011*
X01919Y011*
X01919Y011*
X01919Y011*
X01918Y01099*
X01918Y01099*
X01918Y01099*
X01918Y01099*
X01918Y01099*
X01918Y01099*
X01918Y01099*
X01918Y01099*
X01918Y01099*
X01918Y01099*
X01918*
X01917Y01099*
X01917*
X01917Y01099*
X01892*
X01892Y01099*
X01892*
X01891Y01099*
X01891*
X01891Y01099*
X01891Y01099*
X01891Y01099*
X01891Y01099*
X01891Y01099*
X01891Y01099*
X01891Y01099*
X01891Y01099*
X01891Y01099*
X0189Y011*
X0189Y011*
X0189Y011*
X0189Y011*
X0189Y011*
X0189Y011*
X0189Y011*
X0189Y011*
X0189Y011*
Y011*
X0189Y011*
Y011*
X0189Y01101*
Y01164*
X0189Y01164*
Y01164*
X0189Y01164*
Y01164*
X0189Y01164*
X0189Y01164*
X0189Y01164*
X0189Y01164*
X0189Y01164*
X0189Y01165*
X0189Y01165*
X0189Y01165*
X01891Y01165*
X01891Y01165*
X01891Y01165*
X01891Y01165*
X01891Y01165*
X01891Y01165*
X01891Y01165*
X01891Y01165*
X01891Y01165*
X01891Y01165*
X01891*
X01892Y01165*
X01892*
X01892Y01165*
X01917*
X01917Y01165*
G37*
G36*
X01867D02*
X01867D01*
X01868Y01165*
X01868*
X01868Y01165*
X01868Y01165*
X01868Y01165*
X01868Y01165*
X01868Y01165*
X01868Y01165*
X01868Y01165*
X01868Y01165*
X01868Y01165*
X01869Y01165*
X01869Y01165*
X01869Y01165*
X01869Y01164*
X01869Y01164*
X01869Y01164*
X01869Y01164*
X01869Y01164*
X01869Y01164*
Y01164*
X01869Y01164*
Y01164*
X01869Y01164*
Y01101*
X01869Y011*
Y011*
X01869Y011*
Y011*
X01869Y011*
X01869Y011*
X01869Y011*
X01869Y011*
X01869Y011*
X01869Y011*
X01869Y011*
X01869Y011*
X01868Y01099*
X01868Y01099*
X01868Y01099*
X01868Y01099*
X01868Y01099*
X01868Y01099*
X01868Y01099*
X01868Y01099*
X01868Y01099*
X01868Y01099*
X01868*
X01867Y01099*
X01867*
X01867Y01099*
X01842*
X01842Y01099*
X01842*
X01841Y01099*
X01841*
X01841Y01099*
X01841Y01099*
X01841Y01099*
X01841Y01099*
X01841Y01099*
X01841Y01099*
X01841Y01099*
X01841Y01099*
X01841Y01099*
X0184Y011*
X0184Y011*
X0184Y011*
X0184Y011*
X0184Y011*
X0184Y011*
X0184Y011*
X0184Y011*
X0184Y011*
Y011*
X0184Y011*
Y011*
X0184Y01101*
Y01164*
X0184Y01164*
Y01164*
X0184Y01164*
Y01164*
X0184Y01164*
X0184Y01164*
X0184Y01164*
X0184Y01164*
X0184Y01164*
X0184Y01165*
X0184Y01165*
X0184Y01165*
X01841Y01165*
X01841Y01165*
X01841Y01165*
X01841Y01165*
X01841Y01165*
X01841Y01165*
X01841Y01165*
X01841Y01165*
X01841Y01165*
X01841Y01165*
X01841*
X01842Y01165*
X01842*
X01842Y01165*
X01867*
X01867Y01165*
G37*
G36*
X01817D02*
X01817D01*
X01818Y01165*
X01818*
X01818Y01165*
X01818Y01165*
X01818Y01165*
X01818Y01165*
X01818Y01165*
X01818Y01165*
X01818Y01165*
X01818Y01165*
X01818Y01165*
X01819Y01165*
X01819Y01165*
X01819Y01165*
X01819Y01164*
X01819Y01164*
X01819Y01164*
X01819Y01164*
X01819Y01164*
X01819Y01164*
Y01164*
X01819Y01164*
Y01164*
X01819Y01164*
Y01101*
X01819Y011*
Y011*
X01819Y011*
Y011*
X01819Y011*
X01819Y011*
X01819Y011*
X01819Y011*
X01819Y011*
X01819Y011*
X01819Y011*
X01819Y011*
X01818Y01099*
X01818Y01099*
X01818Y01099*
X01818Y01099*
X01818Y01099*
X01818Y01099*
X01818Y01099*
X01818Y01099*
X01818Y01099*
X01818Y01099*
X01818*
X01817Y01099*
X01817*
X01817Y01099*
X01792*
X01792Y01099*
X01792*
X01791Y01099*
X01791*
X01791Y01099*
X01791Y01099*
X01791Y01099*
X01791Y01099*
X01791Y01099*
X01791Y01099*
X01791Y01099*
X01791Y01099*
X01791Y01099*
X0179Y011*
X0179Y011*
X0179Y011*
X0179Y011*
X0179Y011*
X0179Y011*
X0179Y011*
X0179Y011*
X0179Y011*
Y011*
X0179Y011*
Y011*
X0179Y01101*
Y01164*
X0179Y01164*
Y01164*
X0179Y01164*
Y01164*
X0179Y01164*
X0179Y01164*
X0179Y01164*
X0179Y01164*
X0179Y01164*
X0179Y01165*
X0179Y01165*
X0179Y01165*
X01791Y01165*
X01791Y01165*
X01791Y01165*
X01791Y01165*
X01791Y01165*
X01791Y01165*
X01791Y01165*
X01791Y01165*
X01791Y01165*
X01791Y01165*
X01791*
X01792Y01165*
X01792*
X01792Y01165*
X01817*
X01817Y01165*
G37*
G36*
X01975Y00972D02*
X01785D01*
Y01079*
X01975*
Y00972*
G37*
G36*
X01967Y00953D02*
X01967D01*
X01968Y00953*
X01968*
X01968Y00953*
X01968Y00953*
X01968Y00953*
X01968Y00952*
X01968Y00952*
X01968Y00952*
X01968Y00952*
X01968Y00952*
X01968Y00952*
X01969Y00952*
X01969Y00952*
X01969Y00952*
X01969Y00952*
X01969Y00952*
X01969Y00952*
X01969Y00952*
X01969Y00952*
X01969Y00951*
Y00951*
X01969Y00951*
Y00951*
X01969Y00951*
Y00888*
X01969Y00888*
Y00888*
X01969Y00888*
Y00888*
X01969Y00887*
X01969Y00887*
X01969Y00887*
X01969Y00887*
X01969Y00887*
X01969Y00887*
X01969Y00887*
X01969Y00887*
X01968Y00887*
X01968Y00887*
X01968Y00887*
X01968Y00887*
X01968Y00887*
X01968Y00887*
X01968Y00886*
X01968Y00886*
X01968Y00886*
X01968Y00886*
X01968*
X01967Y00886*
X01967*
X01967Y00886*
X01942*
X01942Y00886*
X01942*
X01941Y00886*
X01941*
X01941Y00886*
X01941Y00886*
X01941Y00886*
X01941Y00887*
X01941Y00887*
X01941Y00887*
X01941Y00887*
X01941Y00887*
X01941Y00887*
X0194Y00887*
X0194Y00887*
X0194Y00887*
X0194Y00887*
X0194Y00887*
X0194Y00887*
X0194Y00887*
X0194Y00887*
X0194Y00888*
Y00888*
X0194Y00888*
Y00888*
X0194Y00888*
Y00951*
X0194Y00951*
Y00951*
X0194Y00951*
Y00951*
X0194Y00952*
X0194Y00952*
X0194Y00952*
X0194Y00952*
X0194Y00952*
X0194Y00952*
X0194Y00952*
X0194Y00952*
X01941Y00952*
X01941Y00952*
X01941Y00952*
X01941Y00952*
X01941Y00952*
X01941Y00952*
X01941Y00953*
X01941Y00953*
X01941Y00953*
X01941Y00953*
X01941*
X01942Y00953*
X01942*
X01942Y00953*
X01967*
X01967Y00953*
G37*
G36*
X01917D02*
X01917D01*
X01918Y00953*
X01918*
X01918Y00953*
X01918Y00953*
X01918Y00953*
X01918Y00952*
X01918Y00952*
X01918Y00952*
X01918Y00952*
X01918Y00952*
X01918Y00952*
X01919Y00952*
X01919Y00952*
X01919Y00952*
X01919Y00952*
X01919Y00952*
X01919Y00952*
X01919Y00952*
X01919Y00952*
X01919Y00951*
Y00951*
X01919Y00951*
Y00951*
X01919Y00951*
Y00888*
X01919Y00888*
Y00888*
X01919Y00888*
Y00888*
X01919Y00887*
X01919Y00887*
X01919Y00887*
X01919Y00887*
X01919Y00887*
X01919Y00887*
X01919Y00887*
X01919Y00887*
X01918Y00887*
X01918Y00887*
X01918Y00887*
X01918Y00887*
X01918Y00887*
X01918Y00887*
X01918Y00886*
X01918Y00886*
X01918Y00886*
X01918Y00886*
X01918*
X01917Y00886*
X01917*
X01917Y00886*
X01892*
X01892Y00886*
X01892*
X01891Y00886*
X01891*
X01891Y00886*
X01891Y00886*
X01891Y00886*
X01891Y00887*
X01891Y00887*
X01891Y00887*
X01891Y00887*
X01891Y00887*
X01891Y00887*
X0189Y00887*
X0189Y00887*
X0189Y00887*
X0189Y00887*
X0189Y00887*
X0189Y00887*
X0189Y00887*
X0189Y00887*
X0189Y00888*
Y00888*
X0189Y00888*
Y00888*
X0189Y00888*
Y00951*
X0189Y00951*
Y00951*
X0189Y00951*
Y00951*
X0189Y00952*
X0189Y00952*
X0189Y00952*
X0189Y00952*
X0189Y00952*
X0189Y00952*
X0189Y00952*
X0189Y00952*
X01891Y00952*
X01891Y00952*
X01891Y00952*
X01891Y00952*
X01891Y00952*
X01891Y00952*
X01891Y00953*
X01891Y00953*
X01891Y00953*
X01891Y00953*
X01891*
X01892Y00953*
X01892*
X01892Y00953*
X01917*
X01917Y00953*
G37*
G36*
X01867D02*
X01867D01*
X01868Y00953*
X01868*
X01868Y00953*
X01868Y00953*
X01868Y00953*
X01868Y00952*
X01868Y00952*
X01868Y00952*
X01868Y00952*
X01868Y00952*
X01868Y00952*
X01869Y00952*
X01869Y00952*
X01869Y00952*
X01869Y00952*
X01869Y00952*
X01869Y00952*
X01869Y00952*
X01869Y00952*
X01869Y00951*
Y00951*
X01869Y00951*
Y00951*
X01869Y00951*
Y00888*
X01869Y00888*
Y00888*
X01869Y00888*
Y00888*
X01869Y00887*
X01869Y00887*
X01869Y00887*
X01869Y00887*
X01869Y00887*
X01869Y00887*
X01869Y00887*
X01869Y00887*
X01868Y00887*
X01868Y00887*
X01868Y00887*
X01868Y00887*
X01868Y00887*
X01868Y00887*
X01868Y00886*
X01868Y00886*
X01868Y00886*
X01868Y00886*
X01868*
X01867Y00886*
X01867*
X01867Y00886*
X01842*
X01842Y00886*
X01842*
X01841Y00886*
X01841*
X01841Y00886*
X01841Y00886*
X01841Y00886*
X01841Y00887*
X01841Y00887*
X01841Y00887*
X01841Y00887*
X01841Y00887*
X01841Y00887*
X0184Y00887*
X0184Y00887*
X0184Y00887*
X0184Y00887*
X0184Y00887*
X0184Y00887*
X0184Y00887*
X0184Y00887*
X0184Y00888*
Y00888*
X0184Y00888*
Y00888*
X0184Y00888*
Y00951*
X0184Y00951*
Y00951*
X0184Y00951*
Y00951*
X0184Y00952*
X0184Y00952*
X0184Y00952*
X0184Y00952*
X0184Y00952*
X0184Y00952*
X0184Y00952*
X0184Y00952*
X01841Y00952*
X01841Y00952*
X01841Y00952*
X01841Y00952*
X01841Y00952*
X01841Y00952*
X01841Y00953*
X01841Y00953*
X01841Y00953*
X01841Y00953*
X01841*
X01842Y00953*
X01842*
X01842Y00953*
X01867*
X01867Y00953*
G37*
G36*
X01817D02*
X01817D01*
X01818Y00953*
X01818*
X01818Y00953*
X01818Y00953*
X01818Y00953*
X01818Y00952*
X01818Y00952*
X01818Y00952*
X01818Y00952*
X01818Y00952*
X01818Y00952*
X01819Y00952*
X01819Y00952*
X01819Y00952*
X01819Y00952*
X01819Y00952*
X01819Y00952*
X01819Y00952*
X01819Y00952*
X01819Y00951*
Y00951*
X01819Y00951*
Y00951*
X01819Y00951*
Y00888*
X01819Y00888*
Y00888*
X01819Y00888*
Y00888*
X01819Y00887*
X01819Y00887*
X01819Y00887*
X01819Y00887*
X01819Y00887*
X01819Y00887*
X01819Y00887*
X01819Y00887*
X01818Y00887*
X01818Y00887*
X01818Y00887*
X01818Y00887*
X01818Y00887*
X01818Y00887*
X01818Y00886*
X01818Y00886*
X01818Y00886*
X01818Y00886*
X01818*
X01817Y00886*
X01817*
X01817Y00886*
X01792*
X01792Y00886*
X01792*
X01791Y00886*
X01791*
X01791Y00886*
X01791Y00886*
X01791Y00886*
X01791Y00887*
X01791Y00887*
X01791Y00887*
X01791Y00887*
X01791Y00887*
X01791Y00887*
X0179Y00887*
X0179Y00887*
X0179Y00887*
X0179Y00887*
X0179Y00887*
X0179Y00887*
X0179Y00887*
X0179Y00887*
X0179Y00888*
Y00888*
X0179Y00888*
Y00888*
X0179Y00888*
Y00951*
X0179Y00951*
Y00951*
X0179Y00951*
Y00951*
X0179Y00952*
X0179Y00952*
X0179Y00952*
X0179Y00952*
X0179Y00952*
X0179Y00952*
X0179Y00952*
X0179Y00952*
X01791Y00952*
X01791Y00952*
X01791Y00952*
X01791Y00952*
X01791Y00952*
X01791Y00952*
X01791Y00953*
X01791Y00953*
X01791Y00953*
X01791Y00953*
X01791*
X01792Y00953*
X01792*
X01792Y00953*
X01817*
X01817Y00953*
G37*
G36*
X01411Y00765D02*
X01412D01*
X01412Y00765*
X01412Y00765*
X01412Y00765*
X01412Y00765*
X01413Y00765*
X01413Y00765*
X01413Y00765*
X01413Y00765*
X01413Y00765*
X01413Y00765*
X01414Y00764*
X01414Y00764*
X01414Y00764*
X01414Y00764*
X01414Y00764*
X01414Y00764*
X01414Y00763*
X01415Y00763*
X01415Y00763*
X01415Y00763*
X01415Y00763*
X01415Y00762*
X01415Y00762*
X01415Y00762*
Y00762*
X01415Y00762*
Y00752*
X01425*
X01425Y00752*
X01425*
X01426Y00752*
X01426Y00751*
X01426Y00751*
X01426Y00751*
X01426Y00751*
X01427Y00751*
X01427Y00751*
X01427Y00751*
X01427Y00751*
X01427Y00751*
X01427Y00751*
X01428Y0075*
X01428Y0075*
X01428Y0075*
X01428Y0075*
X01428Y0075*
X01428Y0075*
X01428Y00749*
X01428Y00749*
X01428Y00749*
X01429Y00749*
X01429Y00749*
X01429Y00748*
X01429Y00748*
Y00748*
X01429Y00748*
Y00742*
X01429Y00741*
Y00741*
X01429Y00741*
X01429Y00741*
X01429Y00741*
X01428Y0074*
X01428Y0074*
X01428Y0074*
X01428Y0074*
X01428Y0074*
X01428Y00739*
X01428Y00739*
X01428Y00739*
X01428Y00739*
X01427Y00739*
X01427Y00739*
X01427Y00739*
X01427Y00738*
X01427Y00738*
X01427Y00738*
X01426Y00738*
X01426Y00738*
X01426Y00738*
X01426Y00738*
X01426Y00738*
X01425Y00738*
X01425*
X01425Y00738*
X01403*
X01403Y00738*
X01402*
X01402Y00738*
X01402Y00738*
X01402Y00738*
X01402Y00738*
X01402Y00738*
X01401Y00738*
X01401Y00738*
X01401Y00738*
X01401Y00739*
X01401Y00739*
X014Y00739*
X014Y00739*
X014Y00739*
X014Y00739*
X014Y00739*
X014Y0074*
X014Y0074*
X014Y0074*
X014Y0074*
X01399Y0074*
X01399Y00741*
X01399Y00741*
X01399Y00741*
X01399Y00741*
Y00741*
X01399Y00742*
Y00762*
X01399Y00762*
Y00762*
X01399Y00762*
X01399Y00762*
X01399Y00763*
X01399Y00763*
X014Y00763*
X014Y00763*
X014Y00763*
X014Y00764*
X014Y00764*
X014Y00764*
X014Y00764*
X014Y00764*
X014Y00764*
X01401Y00765*
X01401Y00765*
X01401Y00765*
X01401Y00765*
X01401Y00765*
X01402Y00765*
X01402Y00765*
X01402Y00765*
X01402Y00765*
X01402Y00765*
X01402Y00765*
X01403*
X01403Y00765*
X01411*
X01411Y00765*
G37*
G36*
X01392D02*
X01392D01*
X01392Y00765*
X01392Y00765*
X01393Y00765*
X01393Y00765*
X01393Y00765*
X01393Y00765*
X01393Y00765*
X01393Y00765*
X01394Y00765*
X01394Y00765*
X01394Y00764*
X01394Y00764*
X01394Y00764*
X01394Y00764*
X01395Y00764*
X01395Y00764*
X01395Y00763*
X01395Y00763*
X01395Y00763*
X01395Y00763*
X01395Y00763*
X01395Y00762*
X01395Y00762*
X01395Y00762*
Y00762*
X01395Y00762*
Y00742*
X01395Y00741*
Y00741*
X01395Y00741*
X01395Y00741*
X01395Y00741*
X01395Y0074*
X01395Y0074*
X01395Y0074*
X01395Y0074*
X01395Y0074*
X01395Y00739*
X01394Y00739*
X01394Y00739*
X01394Y00739*
X01394Y00739*
X01394Y00739*
X01394Y00739*
X01393Y00738*
X01393Y00738*
X01393Y00738*
X01393Y00738*
X01393Y00738*
X01393Y00738*
X01392Y00738*
X01392Y00738*
X01392Y00738*
X01392*
X01392Y00738*
X01385*
X01385Y00738*
X01385*
X01385Y00738*
X01384Y00738*
X01384Y00738*
X01384Y00738*
X01384Y00738*
X01384Y00738*
X01383Y00738*
X01383Y00738*
X01383Y00739*
X01383Y00739*
X01383Y00739*
X01383Y00739*
X01382Y00739*
X01382Y00739*
X01382Y00739*
X01382Y0074*
X01382Y0074*
X01382Y0074*
X01382Y0074*
X01382Y0074*
X01382Y00741*
X01382Y00741*
X01382Y00741*
X01382Y00741*
Y00741*
X01381Y00742*
Y00762*
X01382Y00762*
Y00762*
X01382Y00762*
X01382Y00762*
X01382Y00763*
X01382Y00763*
X01382Y00763*
X01382Y00763*
X01382Y00763*
X01382Y00764*
X01382Y00764*
X01382Y00764*
X01382Y00764*
X01383Y00764*
X01383Y00764*
X01383Y00765*
X01383Y00765*
X01383Y00765*
X01383Y00765*
X01384Y00765*
X01384Y00765*
X01384Y00765*
X01384Y00765*
X01384Y00765*
X01385Y00765*
X01385Y00765*
X01385*
X01385Y00765*
X01392*
X01392Y00765*
G37*
G36*
X01374D02*
X01374D01*
X01374Y00765*
X01375Y00765*
X01375Y00765*
X01375Y00765*
X01375Y00765*
X01375Y00765*
X01376Y00765*
X01376Y00765*
X01376Y00765*
X01376Y00765*
X01376Y00764*
X01376Y00764*
X01377Y00764*
X01377Y00764*
X01377Y00764*
X01377Y00764*
X01377Y00763*
X01377Y00763*
X01377Y00763*
X01377Y00763*
X01377Y00763*
X01377Y00762*
X01377Y00762*
X01377Y00762*
Y00762*
X01378Y00762*
Y00742*
X01377Y00741*
Y00741*
X01377Y00741*
X01377Y00741*
X01377Y00741*
X01377Y0074*
X01377Y0074*
X01377Y0074*
X01377Y0074*
X01377Y0074*
X01377Y00739*
X01377Y00739*
X01377Y00739*
X01376Y00739*
X01376Y00739*
X01376Y00739*
X01376Y00739*
X01376Y00738*
X01376Y00738*
X01375Y00738*
X01375Y00738*
X01375Y00738*
X01375Y00738*
X01375Y00738*
X01374Y00738*
X01374Y00738*
X01374*
X01374Y00738*
X01367*
X01367Y00738*
X01367*
X01367Y00738*
X01367Y00738*
X01366Y00738*
X01366Y00738*
X01366Y00738*
X01366Y00738*
X01366Y00738*
X01366Y00738*
X01365Y00739*
X01365Y00739*
X01365Y00739*
X01365Y00739*
X01365Y00739*
X01365Y00739*
X01365Y00739*
X01364Y0074*
X01364Y0074*
X01364Y0074*
X01364Y0074*
X01364Y0074*
X01364Y00741*
X01364Y00741*
X01364Y00741*
X01364Y00741*
Y00741*
X01364Y00742*
Y00762*
X01364Y00762*
Y00762*
X01364Y00762*
X01364Y00762*
X01364Y00763*
X01364Y00763*
X01364Y00763*
X01364Y00763*
X01364Y00763*
X01364Y00764*
X01365Y00764*
X01365Y00764*
X01365Y00764*
X01365Y00764*
X01365Y00764*
X01365Y00765*
X01365Y00765*
X01366Y00765*
X01366Y00765*
X01366Y00765*
X01366Y00765*
X01366Y00765*
X01366Y00765*
X01367Y00765*
X01367Y00765*
X01367Y00765*
X01367*
X01367Y00765*
X01374*
X01374Y00765*
G37*
G36*
X01356D02*
X01357D01*
X01357Y00765*
X01357Y00765*
X01357Y00765*
X01357Y00765*
X01357Y00765*
X01358Y00765*
X01358Y00765*
X01358Y00765*
X01358Y00765*
X01358Y00765*
X01359Y00764*
X01359Y00764*
X01359Y00764*
X01359Y00764*
X01359Y00764*
X01359Y00764*
X01359Y00763*
X01359Y00763*
X01359Y00763*
X0136Y00763*
X0136Y00763*
X0136Y00762*
X0136Y00762*
X0136Y00762*
Y00762*
X0136Y00762*
Y00742*
X0136Y00741*
Y00741*
X0136Y00741*
X0136Y00741*
X0136Y00741*
X0136Y0074*
X01359Y0074*
X01359Y0074*
X01359Y0074*
X01359Y0074*
X01359Y00739*
X01359Y00739*
X01359Y00739*
X01359Y00739*
X01359Y00739*
X01358Y00739*
X01358Y00739*
X01358Y00738*
X01358Y00738*
X01358Y00738*
X01357Y00738*
X01357Y00738*
X01357Y00738*
X01357Y00738*
X01357Y00738*
X01357Y00738*
X01356*
X01356Y00738*
X01334*
X01334Y00738*
X01334*
X01333Y00738*
X01333Y00738*
X01333Y00738*
X01333Y00738*
X01333Y00738*
X01332Y00738*
X01332Y00738*
X01332Y00738*
X01332Y00739*
X01332Y00739*
X01332Y00739*
X01331Y00739*
X01331Y00739*
X01331Y00739*
X01331Y00739*
X01331Y0074*
X01331Y0074*
X01331Y0074*
X01331Y0074*
X01331Y0074*
X0133Y00741*
X0133Y00741*
X0133Y00741*
X0133Y00741*
Y00741*
X0133Y00742*
Y00748*
X0133Y00748*
Y00748*
X0133Y00748*
X0133Y00749*
X0133Y00749*
X01331Y00749*
X01331Y00749*
X01331Y00749*
X01331Y0075*
X01331Y0075*
X01331Y0075*
X01331Y0075*
X01331Y0075*
X01331Y0075*
X01332Y00751*
X01332Y00751*
X01332Y00751*
X01332Y00751*
X01332Y00751*
X01332Y00751*
X01333Y00751*
X01333Y00751*
X01333Y00751*
X01333Y00751*
X01333Y00752*
X01334Y00752*
X01334*
X01334Y00752*
X01344*
Y00762*
X01344Y00762*
Y00762*
X01344Y00762*
X01344Y00762*
X01344Y00763*
X01344Y00763*
X01344Y00763*
X01345Y00763*
X01345Y00763*
X01345Y00764*
X01345Y00764*
X01345Y00764*
X01345Y00764*
X01345Y00764*
X01345Y00764*
X01346Y00765*
X01346Y00765*
X01346Y00765*
X01346Y00765*
X01346Y00765*
X01346Y00765*
X01347Y00765*
X01347Y00765*
X01347Y00765*
X01347Y00765*
X01347Y00765*
X01348*
X01348Y00765*
X01356*
X01356Y00765*
G37*
G36*
X02724Y00754D02*
X02724D01*
X02724Y00754*
X02724*
X02724Y00754*
X02724Y00754*
X02724Y00754*
X02724Y00754*
X02724Y00754*
X02725Y00754*
X02725Y00754*
X02725Y00754*
X02725Y00753*
X02725Y00753*
X02725Y00753*
X02725Y00753*
X02725Y00753*
X02725Y00753*
X02725Y00753*
X02725Y00753*
X02725Y00753*
X02725Y00753*
Y00753*
X02725Y00752*
Y00752*
X02725Y00752*
Y00752*
Y00752*
Y00727*
Y00727*
Y00727*
X02725Y00727*
Y00727*
X02725Y00726*
Y00726*
X02725Y00726*
X02725Y00726*
X02725Y00726*
X02725Y00726*
X02725Y00726*
X02725Y00726*
X02725Y00726*
X02725Y00726*
X02725Y00726*
X02725Y00725*
X02725Y00725*
X02725Y00725*
X02724Y00725*
X02724Y00725*
X02724Y00725*
X02724Y00725*
X02724Y00725*
X02724Y00725*
X02724*
X02724Y00725*
X02724*
X02724Y00725*
X02661*
X0266Y00725*
X0266*
X0266Y00725*
X0266*
X0266Y00725*
X0266Y00725*
X0266Y00725*
X0266Y00725*
X0266Y00725*
X0266Y00725*
X0266Y00725*
X0266Y00725*
X02659Y00726*
X02659Y00726*
X02659Y00726*
X02659Y00726*
X02659Y00726*
X02659Y00726*
X02659Y00726*
X02659Y00726*
X02659Y00726*
X02659Y00726*
Y00726*
X02659Y00727*
Y00727*
X02659Y00727*
Y00727*
Y00727*
Y00752*
Y00752*
Y00752*
X02659Y00752*
Y00752*
X02659Y00753*
Y00753*
X02659Y00753*
X02659Y00753*
X02659Y00753*
X02659Y00753*
X02659Y00753*
X02659Y00753*
X02659Y00753*
X02659Y00753*
X02659Y00753*
X0266Y00754*
X0266Y00754*
X0266Y00754*
X0266Y00754*
X0266Y00754*
X0266Y00754*
X0266Y00754*
X0266Y00754*
X0266Y00754*
X0266*
X0266Y00754*
X0266*
X02661Y00754*
X02724*
X02724Y00754*
G37*
G36*
X02511D02*
X02511D01*
X02511Y00754*
X02511*
X02512Y00754*
X02512Y00754*
X02512Y00754*
X02512Y00754*
X02512Y00754*
X02512Y00754*
X02512Y00754*
X02512Y00754*
X02512Y00753*
X02512Y00753*
X02512Y00753*
X02512Y00753*
X02512Y00753*
X02512Y00753*
X02513Y00753*
X02513Y00753*
X02513Y00753*
X02513Y00753*
Y00753*
X02513Y00752*
Y00752*
X02513Y00752*
Y00752*
Y00752*
Y00727*
Y00727*
Y00727*
X02513Y00727*
Y00727*
X02513Y00726*
Y00726*
X02513Y00726*
X02513Y00726*
X02513Y00726*
X02512Y00726*
X02512Y00726*
X02512Y00726*
X02512Y00726*
X02512Y00726*
X02512Y00726*
X02512Y00725*
X02512Y00725*
X02512Y00725*
X02512Y00725*
X02512Y00725*
X02512Y00725*
X02512Y00725*
X02512Y00725*
X02511Y00725*
X02511*
X02511Y00725*
X02511*
X02511Y00725*
X02448*
X02448Y00725*
X02448*
X02448Y00725*
X02448*
X02447Y00725*
X02447Y00725*
X02447Y00725*
X02447Y00725*
X02447Y00725*
X02447Y00725*
X02447Y00725*
X02447Y00725*
X02447Y00726*
X02447Y00726*
X02447Y00726*
X02447Y00726*
X02447Y00726*
X02447Y00726*
X02446Y00726*
X02446Y00726*
X02446Y00726*
X02446Y00726*
Y00726*
X02446Y00727*
Y00727*
X02446Y00727*
Y00727*
Y00727*
Y00752*
Y00752*
Y00752*
X02446Y00752*
Y00752*
X02446Y00753*
Y00753*
X02446Y00753*
X02446Y00753*
X02446Y00753*
X02447Y00753*
X02447Y00753*
X02447Y00753*
X02447Y00753*
X02447Y00753*
X02447Y00753*
X02447Y00754*
X02447Y00754*
X02447Y00754*
X02447Y00754*
X02447Y00754*
X02447Y00754*
X02447Y00754*
X02447Y00754*
X02448Y00754*
X02448*
X02448Y00754*
X02448*
X02448Y00754*
X02511*
X02511Y00754*
G37*
G36*
X01425Y00734D02*
X01425D01*
X01426Y00734*
X01426Y00734*
X01426Y00734*
X01426Y00734*
X01426Y00734*
X01427Y00733*
X01427Y00733*
X01427Y00733*
X01427Y00733*
X01427Y00733*
X01427Y00733*
X01428Y00733*
X01428Y00733*
X01428Y00732*
X01428Y00732*
X01428Y00732*
X01428Y00732*
X01428Y00732*
X01428Y00732*
X01428Y00731*
X01429Y00731*
X01429Y00731*
X01429Y00731*
X01429Y00731*
Y0073*
X01429Y0073*
Y00722*
X01429Y00722*
Y00721*
X01429Y00721*
X01429Y00721*
X01429Y00721*
X01428Y00721*
X01428Y0072*
X01428Y0072*
X01428Y0072*
X01428Y0072*
X01428Y0072*
X01428Y0072*
X01428Y00719*
X01428Y00719*
X01427Y00719*
X01427Y00719*
X01427Y00719*
X01427Y00719*
X01427Y00719*
X01427Y00719*
X01426Y00718*
X01426Y00718*
X01426Y00718*
X01426Y00718*
X01426Y00718*
X01425Y00718*
X01425*
X01425Y00718*
X01334*
X01334Y00718*
X01334*
X01333Y00718*
X01333Y00718*
X01333Y00718*
X01333Y00718*
X01333Y00718*
X01332Y00719*
X01332Y00719*
X01332Y00719*
X01332Y00719*
X01332Y00719*
X01332Y00719*
X01331Y00719*
X01331Y00719*
X01331Y0072*
X01331Y0072*
X01331Y0072*
X01331Y0072*
X01331Y0072*
X01331Y0072*
X01331Y00721*
X0133Y00721*
X0133Y00721*
X0133Y00721*
X0133Y00721*
Y00722*
X0133Y00722*
Y0073*
X0133Y0073*
Y00731*
X0133Y00731*
X0133Y00731*
X0133Y00731*
X01331Y00731*
X01331Y00732*
X01331Y00732*
X01331Y00732*
X01331Y00732*
X01331Y00732*
X01331Y00732*
X01331Y00733*
X01331Y00733*
X01332Y00733*
X01332Y00733*
X01332Y00733*
X01332Y00733*
X01332Y00733*
X01332Y00733*
X01333Y00734*
X01333Y00734*
X01333Y00734*
X01333Y00734*
X01333Y00734*
X01334Y00734*
X01334*
X01334Y00734*
X01425*
X01425Y00734*
G37*
G36*
Y00714D02*
X01425D01*
X01426Y00714*
X01426Y00714*
X01426Y00714*
X01426Y00714*
X01426Y00714*
X01427Y00714*
X01427Y00714*
X01427Y00714*
X01427Y00713*
X01427Y00713*
X01427Y00713*
X01428Y00713*
X01428Y00713*
X01428Y00713*
X01428Y00713*
X01428Y00712*
X01428Y00712*
X01428Y00712*
X01428Y00712*
X01428Y00712*
X01429Y00711*
X01429Y00711*
X01429Y00711*
X01429Y00711*
Y00711*
X01429Y0071*
Y00702*
X01429Y00702*
Y00702*
X01429Y00702*
X01429Y00701*
X01429Y00701*
X01428Y00701*
X01428Y00701*
X01428Y00701*
X01428Y007*
X01428Y007*
X01428Y007*
X01428Y007*
X01428Y007*
X01428Y007*
X01427Y00699*
X01427Y00699*
X01427Y00699*
X01427Y00699*
X01427Y00699*
X01427Y00699*
X01426Y00699*
X01426Y00699*
X01426Y00699*
X01426Y00699*
X01426Y00699*
X01425Y00698*
X01425*
X01425Y00698*
X01334*
X01334Y00698*
X01334*
X01333Y00699*
X01333Y00699*
X01333Y00699*
X01333Y00699*
X01333Y00699*
X01332Y00699*
X01332Y00699*
X01332Y00699*
X01332Y00699*
X01332Y00699*
X01332Y00699*
X01331Y007*
X01331Y007*
X01331Y007*
X01331Y007*
X01331Y007*
X01331Y007*
X01331Y00701*
X01331Y00701*
X01331Y00701*
X0133Y00701*
X0133Y00701*
X0133Y00702*
X0133Y00702*
Y00702*
X0133Y00702*
Y0071*
X0133Y00711*
Y00711*
X0133Y00711*
X0133Y00711*
X0133Y00711*
X01331Y00712*
X01331Y00712*
X01331Y00712*
X01331Y00712*
X01331Y00712*
X01331Y00713*
X01331Y00713*
X01331Y00713*
X01331Y00713*
X01332Y00713*
X01332Y00713*
X01332Y00713*
X01332Y00714*
X01332Y00714*
X01332Y00714*
X01333Y00714*
X01333Y00714*
X01333Y00714*
X01333Y00714*
X01333Y00714*
X01334Y00714*
X01334*
X01334Y00714*
X01425*
X01425Y00714*
G37*
G36*
X02724Y00704D02*
X02724D01*
X02724Y00704*
X02724*
X02724Y00704*
X02724Y00704*
X02724Y00704*
X02724Y00704*
X02724Y00704*
X02725Y00704*
X02725Y00704*
X02725Y00704*
X02725Y00703*
X02725Y00703*
X02725Y00703*
X02725Y00703*
X02725Y00703*
X02725Y00703*
X02725Y00703*
X02725Y00703*
X02725Y00703*
X02725Y00703*
Y00703*
X02725Y00702*
Y00702*
X02725Y00702*
Y00702*
Y00702*
Y00677*
Y00677*
Y00677*
X02725Y00677*
Y00677*
X02725Y00676*
Y00676*
X02725Y00676*
X02725Y00676*
X02725Y00676*
X02725Y00676*
X02725Y00676*
X02725Y00676*
X02725Y00676*
X02725Y00676*
X02725Y00676*
X02725Y00675*
X02725Y00675*
X02725Y00675*
X02724Y00675*
X02724Y00675*
X02724Y00675*
X02724Y00675*
X02724Y00675*
X02724Y00675*
X02724*
X02724Y00675*
X02724*
X02724Y00675*
X02661*
X0266Y00675*
X0266*
X0266Y00675*
X0266*
X0266Y00675*
X0266Y00675*
X0266Y00675*
X0266Y00675*
X0266Y00675*
X0266Y00675*
X0266Y00675*
X0266Y00675*
X02659Y00676*
X02659Y00676*
X02659Y00676*
X02659Y00676*
X02659Y00676*
X02659Y00676*
X02659Y00676*
X02659Y00676*
X02659Y00676*
X02659Y00676*
Y00676*
X02659Y00677*
Y00677*
X02659Y00677*
Y00677*
Y00677*
Y00702*
Y00702*
Y00702*
X02659Y00702*
Y00702*
X02659Y00703*
Y00703*
X02659Y00703*
X02659Y00703*
X02659Y00703*
X02659Y00703*
X02659Y00703*
X02659Y00703*
X02659Y00703*
X02659Y00703*
X02659Y00703*
X0266Y00704*
X0266Y00704*
X0266Y00704*
X0266Y00704*
X0266Y00704*
X0266Y00704*
X0266Y00704*
X0266Y00704*
X0266Y00704*
X0266*
X0266Y00704*
X0266*
X02661Y00704*
X02724*
X02724Y00704*
G37*
G36*
X02511D02*
X02511D01*
X02511Y00704*
X02511*
X02512Y00704*
X02512Y00704*
X02512Y00704*
X02512Y00704*
X02512Y00704*
X02512Y00704*
X02512Y00704*
X02512Y00704*
X02512Y00703*
X02512Y00703*
X02512Y00703*
X02512Y00703*
X02512Y00703*
X02512Y00703*
X02513Y00703*
X02513Y00703*
X02513Y00703*
X02513Y00703*
Y00703*
X02513Y00702*
Y00702*
X02513Y00702*
Y00702*
Y00702*
Y00677*
Y00677*
Y00677*
X02513Y00677*
Y00677*
X02513Y00676*
Y00676*
X02513Y00676*
X02513Y00676*
X02513Y00676*
X02512Y00676*
X02512Y00676*
X02512Y00676*
X02512Y00676*
X02512Y00676*
X02512Y00676*
X02512Y00675*
X02512Y00675*
X02512Y00675*
X02512Y00675*
X02512Y00675*
X02512Y00675*
X02512Y00675*
X02512Y00675*
X02511Y00675*
X02511*
X02511Y00675*
X02511*
X02511Y00675*
X02448*
X02448Y00675*
X02448*
X02448Y00675*
X02448*
X02447Y00675*
X02447Y00675*
X02447Y00675*
X02447Y00675*
X02447Y00675*
X02447Y00675*
X02447Y00675*
X02447Y00675*
X02447Y00676*
X02447Y00676*
X02447Y00676*
X02447Y00676*
X02447Y00676*
X02447Y00676*
X02446Y00676*
X02446Y00676*
X02446Y00676*
X02446Y00676*
Y00676*
X02446Y00677*
Y00677*
X02446Y00677*
Y00677*
Y00677*
Y00702*
Y00702*
Y00702*
X02446Y00702*
Y00702*
X02446Y00703*
Y00703*
X02446Y00703*
X02446Y00703*
X02446Y00703*
X02447Y00703*
X02447Y00703*
X02447Y00703*
X02447Y00703*
X02447Y00703*
X02447Y00703*
X02447Y00704*
X02447Y00704*
X02447Y00704*
X02447Y00704*
X02447Y00704*
X02447Y00704*
X02447Y00704*
X02447Y00704*
X02448Y00704*
X02448*
X02448Y00704*
X02448*
X02448Y00704*
X02511*
X02511Y00704*
G37*
G36*
X01425Y00694D02*
X01425D01*
X01426Y00694*
X01426Y00694*
X01426Y00694*
X01426Y00694*
X01426Y00694*
X01427Y00694*
X01427Y00694*
X01427Y00694*
X01427Y00694*
X01427Y00694*
X01427Y00693*
X01428Y00693*
X01428Y00693*
X01428Y00693*
X01428Y00693*
X01428Y00693*
X01428Y00693*
X01428Y00692*
X01428Y00692*
X01428Y00692*
X01429Y00692*
X01429Y00692*
X01429Y00691*
X01429Y00691*
Y00691*
X01429Y00691*
Y00684*
X01429Y00684*
Y00684*
X01429Y00684*
X01429Y00684*
X01429Y00683*
X01428Y00683*
X01428Y00683*
X01428Y00683*
X01428Y00683*
X01428Y00683*
X01428Y00682*
X01428Y00682*
X01428Y00682*
X01428Y00682*
X01427Y00682*
X01427Y00682*
X01427Y00681*
X01427Y00681*
X01427Y00681*
X01427Y00681*
X01426Y00681*
X01426Y00681*
X01426Y00681*
X01426Y00681*
X01426Y00681*
X01425Y00681*
X01425*
X01425Y00681*
X01415*
Y00671*
X01415Y0067*
Y0067*
X01415Y0067*
X01415Y0067*
X01415Y0067*
X01415Y00669*
X01415Y00669*
X01415Y00669*
X01414Y00669*
X01414Y00669*
X01414Y00669*
X01414Y00668*
X01414Y00668*
X01414Y00668*
X01414Y00668*
X01413Y00668*
X01413Y00668*
X01413Y00668*
X01413Y00667*
X01413Y00667*
X01413Y00667*
X01412Y00667*
X01412Y00667*
X01412Y00667*
X01412Y00667*
X01412Y00667*
X01411*
X01411Y00667*
X01403*
X01403Y00667*
X01402*
X01402Y00667*
X01402Y00667*
X01402Y00667*
X01402Y00667*
X01402Y00667*
X01401Y00667*
X01401Y00667*
X01401Y00668*
X01401Y00668*
X01401Y00668*
X014Y00668*
X014Y00668*
X014Y00668*
X014Y00668*
X014Y00669*
X014Y00669*
X014Y00669*
X014Y00669*
X014Y00669*
X01399Y00669*
X01399Y0067*
X01399Y0067*
X01399Y0067*
X01399Y0067*
Y0067*
X01399Y00671*
Y00691*
X01399Y00691*
Y00691*
X01399Y00691*
X01399Y00692*
X01399Y00692*
X01399Y00692*
X014Y00692*
X014Y00692*
X014Y00693*
X014Y00693*
X014Y00693*
X014Y00693*
X014Y00693*
X014Y00693*
X014Y00693*
X01401Y00694*
X01401Y00694*
X01401Y00694*
X01401Y00694*
X01401Y00694*
X01402Y00694*
X01402Y00694*
X01402Y00694*
X01402Y00694*
X01402Y00694*
X01402Y00694*
X01403*
X01403Y00695*
X01425*
X01425Y00694*
G37*
G36*
X01392D02*
X01392D01*
X01392Y00694*
X01392Y00694*
X01393Y00694*
X01393Y00694*
X01393Y00694*
X01393Y00694*
X01393Y00694*
X01393Y00694*
X01394Y00694*
X01394Y00694*
X01394Y00693*
X01394Y00693*
X01394Y00693*
X01394Y00693*
X01395Y00693*
X01395Y00693*
X01395Y00693*
X01395Y00692*
X01395Y00692*
X01395Y00692*
X01395Y00692*
X01395Y00692*
X01395Y00691*
X01395Y00691*
Y00691*
X01395Y00691*
Y00671*
X01395Y0067*
Y0067*
X01395Y0067*
X01395Y0067*
X01395Y0067*
X01395Y00669*
X01395Y00669*
X01395Y00669*
X01395Y00669*
X01395Y00669*
X01395Y00669*
X01394Y00668*
X01394Y00668*
X01394Y00668*
X01394Y00668*
X01394Y00668*
X01394Y00668*
X01393Y00668*
X01393Y00667*
X01393Y00667*
X01393Y00667*
X01393Y00667*
X01393Y00667*
X01392Y00667*
X01392Y00667*
X01392Y00667*
X01392*
X01392Y00667*
X01385*
X01385Y00667*
X01385*
X01385Y00667*
X01384Y00667*
X01384Y00667*
X01384Y00667*
X01384Y00667*
X01384Y00667*
X01383Y00667*
X01383Y00668*
X01383Y00668*
X01383Y00668*
X01383Y00668*
X01383Y00668*
X01382Y00668*
X01382Y00668*
X01382Y00669*
X01382Y00669*
X01382Y00669*
X01382Y00669*
X01382Y00669*
X01382Y00669*
X01382Y0067*
X01382Y0067*
X01382Y0067*
X01382Y0067*
Y0067*
X01381Y00671*
Y00691*
X01382Y00691*
Y00691*
X01382Y00691*
X01382Y00692*
X01382Y00692*
X01382Y00692*
X01382Y00692*
X01382Y00692*
X01382Y00693*
X01382Y00693*
X01382Y00693*
X01382Y00693*
X01382Y00693*
X01383Y00693*
X01383Y00693*
X01383Y00694*
X01383Y00694*
X01383Y00694*
X01383Y00694*
X01384Y00694*
X01384Y00694*
X01384Y00694*
X01384Y00694*
X01384Y00694*
X01385Y00694*
X01385Y00694*
X01385*
X01385Y00695*
X01392*
X01392Y00694*
G37*
G36*
X01374D02*
X01374D01*
X01374Y00694*
X01375Y00694*
X01375Y00694*
X01375Y00694*
X01375Y00694*
X01375Y00694*
X01376Y00694*
X01376Y00694*
X01376Y00694*
X01376Y00694*
X01376Y00693*
X01376Y00693*
X01377Y00693*
X01377Y00693*
X01377Y00693*
X01377Y00693*
X01377Y00693*
X01377Y00692*
X01377Y00692*
X01377Y00692*
X01377Y00692*
X01377Y00692*
X01377Y00691*
X01377Y00691*
Y00691*
X01378Y00691*
Y00671*
X01377Y0067*
Y0067*
X01377Y0067*
X01377Y0067*
X01377Y0067*
X01377Y00669*
X01377Y00669*
X01377Y00669*
X01377Y00669*
X01377Y00669*
X01377Y00669*
X01377Y00668*
X01377Y00668*
X01376Y00668*
X01376Y00668*
X01376Y00668*
X01376Y00668*
X01376Y00668*
X01376Y00667*
X01375Y00667*
X01375Y00667*
X01375Y00667*
X01375Y00667*
X01375Y00667*
X01374Y00667*
X01374Y00667*
X01374*
X01374Y00667*
X01367*
X01367Y00667*
X01367*
X01367Y00667*
X01367Y00667*
X01366Y00667*
X01366Y00667*
X01366Y00667*
X01366Y00667*
X01366Y00667*
X01366Y00668*
X01365Y00668*
X01365Y00668*
X01365Y00668*
X01365Y00668*
X01365Y00668*
X01365Y00668*
X01365Y00669*
X01364Y00669*
X01364Y00669*
X01364Y00669*
X01364Y00669*
X01364Y00669*
X01364Y0067*
X01364Y0067*
X01364Y0067*
X01364Y0067*
Y0067*
X01364Y00671*
Y00691*
X01364Y00691*
Y00691*
X01364Y00691*
X01364Y00692*
X01364Y00692*
X01364Y00692*
X01364Y00692*
X01364Y00692*
X01364Y00693*
X01364Y00693*
X01365Y00693*
X01365Y00693*
X01365Y00693*
X01365Y00693*
X01365Y00693*
X01365Y00694*
X01365Y00694*
X01366Y00694*
X01366Y00694*
X01366Y00694*
X01366Y00694*
X01366Y00694*
X01366Y00694*
X01367Y00694*
X01367Y00694*
X01367Y00694*
X01367*
X01367Y00695*
X01374*
X01374Y00694*
G37*
G36*
X01356D02*
X01357D01*
X01357Y00694*
X01357Y00694*
X01357Y00694*
X01357Y00694*
X01357Y00694*
X01358Y00694*
X01358Y00694*
X01358Y00694*
X01358Y00694*
X01358Y00694*
X01359Y00693*
X01359Y00693*
X01359Y00693*
X01359Y00693*
X01359Y00693*
X01359Y00693*
X01359Y00693*
X01359Y00692*
X01359Y00692*
X0136Y00692*
X0136Y00692*
X0136Y00692*
X0136Y00691*
X0136Y00691*
Y00691*
X0136Y00691*
Y00671*
X0136Y0067*
Y0067*
X0136Y0067*
X0136Y0067*
X0136Y0067*
X0136Y00669*
X01359Y00669*
X01359Y00669*
X01359Y00669*
X01359Y00669*
X01359Y00669*
X01359Y00668*
X01359Y00668*
X01359Y00668*
X01359Y00668*
X01358Y00668*
X01358Y00668*
X01358Y00668*
X01358Y00667*
X01358Y00667*
X01357Y00667*
X01357Y00667*
X01357Y00667*
X01357Y00667*
X01357Y00667*
X01357Y00667*
X01356*
X01356Y00667*
X01348*
X01348Y00667*
X01347*
X01347Y00667*
X01347Y00667*
X01347Y00667*
X01347Y00667*
X01346Y00667*
X01346Y00667*
X01346Y00667*
X01346Y00668*
X01346Y00668*
X01346Y00668*
X01345Y00668*
X01345Y00668*
X01345Y00668*
X01345Y00668*
X01345Y00669*
X01345Y00669*
X01345Y00669*
X01345Y00669*
X01344Y00669*
X01344Y00669*
X01344Y0067*
X01344Y0067*
X01344Y0067*
X01344Y0067*
Y0067*
X01344Y00671*
Y00681*
X01334*
X01334Y00681*
X01334*
X01333Y00681*
X01333Y00681*
X01333Y00681*
X01333Y00681*
X01333Y00681*
X01332Y00681*
X01332Y00681*
X01332Y00681*
X01332Y00681*
X01332Y00682*
X01332Y00682*
X01331Y00682*
X01331Y00682*
X01331Y00682*
X01331Y00682*
X01331Y00683*
X01331Y00683*
X01331Y00683*
X01331Y00683*
X01331Y00683*
X0133Y00683*
X0133Y00684*
X0133Y00684*
X0133Y00684*
Y00684*
X0133Y00684*
Y00691*
X0133Y00691*
Y00691*
X0133Y00691*
X0133Y00692*
X0133Y00692*
X01331Y00692*
X01331Y00692*
X01331Y00692*
X01331Y00693*
X01331Y00693*
X01331Y00693*
X01331Y00693*
X01331Y00693*
X01331Y00693*
X01332Y00693*
X01332Y00694*
X01332Y00694*
X01332Y00694*
X01332Y00694*
X01332Y00694*
X01333Y00694*
X01333Y00694*
X01333Y00694*
X01333Y00694*
X01333Y00694*
X01334Y00694*
X01334*
X01334Y00695*
X01356*
X01356Y00694*
G37*
G36*
X02724Y00654D02*
X02724D01*
X02724Y00654*
X02724*
X02724Y00654*
X02724Y00654*
X02724Y00654*
X02724Y00654*
X02724Y00654*
X02725Y00654*
X02725Y00654*
X02725Y00654*
X02725Y00653*
X02725Y00653*
X02725Y00653*
X02725Y00653*
X02725Y00653*
X02725Y00653*
X02725Y00653*
X02725Y00653*
X02725Y00653*
X02725Y00653*
Y00653*
X02725Y00652*
Y00652*
X02725Y00652*
Y00652*
Y00652*
Y00627*
Y00627*
Y00627*
X02725Y00627*
Y00627*
X02725Y00626*
Y00626*
X02725Y00626*
X02725Y00626*
X02725Y00626*
X02725Y00626*
X02725Y00626*
X02725Y00626*
X02725Y00626*
X02725Y00626*
X02725Y00626*
X02725Y00625*
X02725Y00625*
X02725Y00625*
X02724Y00625*
X02724Y00625*
X02724Y00625*
X02724Y00625*
X02724Y00625*
X02724Y00625*
X02724*
X02724Y00625*
X02724*
X02724Y00625*
X02661*
X0266Y00625*
X0266*
X0266Y00625*
X0266*
X0266Y00625*
X0266Y00625*
X0266Y00625*
X0266Y00625*
X0266Y00625*
X0266Y00625*
X0266Y00625*
X0266Y00625*
X02659Y00626*
X02659Y00626*
X02659Y00626*
X02659Y00626*
X02659Y00626*
X02659Y00626*
X02659Y00626*
X02659Y00626*
X02659Y00626*
X02659Y00626*
Y00626*
X02659Y00627*
Y00627*
X02659Y00627*
Y00627*
Y00627*
Y00652*
Y00652*
Y00652*
X02659Y00652*
Y00652*
X02659Y00653*
Y00653*
X02659Y00653*
X02659Y00653*
X02659Y00653*
X02659Y00653*
X02659Y00653*
X02659Y00653*
X02659Y00653*
X02659Y00653*
X02659Y00653*
X0266Y00654*
X0266Y00654*
X0266Y00654*
X0266Y00654*
X0266Y00654*
X0266Y00654*
X0266Y00654*
X0266Y00654*
X0266Y00654*
X0266*
X0266Y00654*
X0266*
X02661Y00654*
X02724*
X02724Y00654*
G37*
G36*
X02511D02*
X02511D01*
X02511Y00654*
X02511*
X02512Y00654*
X02512Y00654*
X02512Y00654*
X02512Y00654*
X02512Y00654*
X02512Y00654*
X02512Y00654*
X02512Y00654*
X02512Y00653*
X02512Y00653*
X02512Y00653*
X02512Y00653*
X02512Y00653*
X02512Y00653*
X02513Y00653*
X02513Y00653*
X02513Y00653*
X02513Y00653*
Y00653*
X02513Y00652*
Y00652*
X02513Y00652*
Y00652*
Y00652*
Y00627*
Y00627*
Y00627*
X02513Y00627*
Y00627*
X02513Y00626*
Y00626*
X02513Y00626*
X02513Y00626*
X02513Y00626*
X02512Y00626*
X02512Y00626*
X02512Y00626*
X02512Y00626*
X02512Y00626*
X02512Y00626*
X02512Y00625*
X02512Y00625*
X02512Y00625*
X02512Y00625*
X02512Y00625*
X02512Y00625*
X02512Y00625*
X02512Y00625*
X02511Y00625*
X02511*
X02511Y00625*
X02511*
X02511Y00625*
X02448*
X02448Y00625*
X02448*
X02448Y00625*
X02448*
X02447Y00625*
X02447Y00625*
X02447Y00625*
X02447Y00625*
X02447Y00625*
X02447Y00625*
X02447Y00625*
X02447Y00625*
X02447Y00626*
X02447Y00626*
X02447Y00626*
X02447Y00626*
X02447Y00626*
X02447Y00626*
X02446Y00626*
X02446Y00626*
X02446Y00626*
X02446Y00626*
Y00626*
X02446Y00627*
Y00627*
X02446Y00627*
Y00627*
Y00627*
Y00652*
Y00652*
Y00652*
X02446Y00652*
Y00652*
X02446Y00653*
Y00653*
X02446Y00653*
X02446Y00653*
X02446Y00653*
X02447Y00653*
X02447Y00653*
X02447Y00653*
X02447Y00653*
X02447Y00653*
X02447Y00653*
X02447Y00654*
X02447Y00654*
X02447Y00654*
X02447Y00654*
X02447Y00654*
X02447Y00654*
X02447Y00654*
X02447Y00654*
X02448Y00654*
X02448*
X02448Y00654*
X02448*
X02448Y00654*
X02511*
X02511Y00654*
G37*
G36*
X02151Y00644D02*
X02152D01*
X02152Y00643*
X02152Y00643*
X02152Y00643*
X02152Y00643*
X02153Y00643*
X02153Y00643*
X02153Y00643*
X02153Y00643*
X02153Y00643*
X02153Y00643*
X02154Y00643*
X02154Y00642*
X02154Y00642*
X02154Y00642*
X02154Y00642*
X02154Y00642*
X02154Y00642*
X02155Y00641*
X02155Y00641*
X02155Y00641*
X02155Y00641*
X02155Y00641*
X02155Y0064*
X02155Y0064*
Y0064*
X02155Y0064*
Y0063*
X02165*
X02165Y0063*
X02165*
X02166Y0063*
X02166Y0063*
X02166Y0063*
X02166Y0063*
X02166Y00629*
X02167Y00629*
X02167Y00629*
X02167Y00629*
X02167Y00629*
X02167Y00629*
X02167Y00629*
X02168Y00629*
X02168Y00628*
X02168Y00628*
X02168Y00628*
X02168Y00628*
X02168Y00628*
X02168Y00628*
X02168Y00627*
X02168Y00627*
X02169Y00627*
X02169Y00627*
X02169Y00627*
X02169Y00626*
Y00626*
X02169Y00626*
Y0062*
X02169Y0062*
Y00619*
X02169Y00619*
X02169Y00619*
X02169Y00619*
X02168Y00619*
X02168Y00618*
X02168Y00618*
X02168Y00618*
X02168Y00618*
X02168Y00618*
X02168Y00617*
X02168Y00617*
X02168Y00617*
X02167Y00617*
X02167Y00617*
X02167Y00617*
X02167Y00617*
X02167Y00617*
X02167Y00616*
X02166Y00616*
X02166Y00616*
X02166Y00616*
X02166Y00616*
X02166Y00616*
X02165Y00616*
X02165*
X02165Y00616*
X02143*
X02143Y00616*
X02142*
X02142Y00616*
X02142Y00616*
X02142Y00616*
X02142Y00616*
X02142Y00616*
X02141Y00616*
X02141Y00617*
X02141Y00617*
X02141Y00617*
X02141Y00617*
X0214Y00617*
X0214Y00617*
X0214Y00617*
X0214Y00617*
X0214Y00618*
X0214Y00618*
X0214Y00618*
X0214Y00618*
X0214Y00618*
X02139Y00619*
X02139Y00619*
X02139Y00619*
X02139Y00619*
X02139Y00619*
Y0062*
X02139Y0062*
Y0064*
X02139Y0064*
Y0064*
X02139Y0064*
X02139Y00641*
X02139Y00641*
X02139Y00641*
X0214Y00641*
X0214Y00641*
X0214Y00642*
X0214Y00642*
X0214Y00642*
X0214Y00642*
X0214Y00642*
X0214Y00642*
X0214Y00643*
X02141Y00643*
X02141Y00643*
X02141Y00643*
X02141Y00643*
X02141Y00643*
X02142Y00643*
X02142Y00643*
X02142Y00643*
X02142Y00643*
X02142Y00643*
X02142Y00644*
X02143*
X02143Y00644*
X02151*
X02151Y00644*
G37*
G36*
X02132D02*
X02132D01*
X02132Y00643*
X02132Y00643*
X02133Y00643*
X02133Y00643*
X02133Y00643*
X02133Y00643*
X02133Y00643*
X02133Y00643*
X02134Y00643*
X02134Y00643*
X02134Y00643*
X02134Y00642*
X02134Y00642*
X02134Y00642*
X02135Y00642*
X02135Y00642*
X02135Y00642*
X02135Y00641*
X02135Y00641*
X02135Y00641*
X02135Y00641*
X02135Y00641*
X02135Y0064*
X02135Y0064*
Y0064*
X02135Y0064*
Y0062*
X02135Y0062*
Y00619*
X02135Y00619*
X02135Y00619*
X02135Y00619*
X02135Y00619*
X02135Y00618*
X02135Y00618*
X02135Y00618*
X02135Y00618*
X02135Y00618*
X02134Y00617*
X02134Y00617*
X02134Y00617*
X02134Y00617*
X02134Y00617*
X02134Y00617*
X02133Y00617*
X02133Y00617*
X02133Y00616*
X02133Y00616*
X02133Y00616*
X02133Y00616*
X02132Y00616*
X02132Y00616*
X02132Y00616*
X02132*
X02132Y00616*
X02125*
X02125Y00616*
X02125*
X02125Y00616*
X02124Y00616*
X02124Y00616*
X02124Y00616*
X02124Y00616*
X02124Y00616*
X02123Y00617*
X02123Y00617*
X02123Y00617*
X02123Y00617*
X02123Y00617*
X02123Y00617*
X02122Y00617*
X02122Y00617*
X02122Y00618*
X02122Y00618*
X02122Y00618*
X02122Y00618*
X02122Y00618*
X02122Y00619*
X02122Y00619*
X02122Y00619*
X02122Y00619*
X02122Y00619*
Y0062*
X02121Y0062*
Y0064*
X02122Y0064*
Y0064*
X02122Y0064*
X02122Y00641*
X02122Y00641*
X02122Y00641*
X02122Y00641*
X02122Y00641*
X02122Y00642*
X02122Y00642*
X02122Y00642*
X02122Y00642*
X02122Y00642*
X02123Y00642*
X02123Y00643*
X02123Y00643*
X02123Y00643*
X02123Y00643*
X02123Y00643*
X02124Y00643*
X02124Y00643*
X02124Y00643*
X02124Y00643*
X02124Y00643*
X02125Y00643*
X02125Y00644*
X02125*
X02125Y00644*
X02132*
X02132Y00644*
G37*
G36*
X02114D02*
X02114D01*
X02114Y00643*
X02115Y00643*
X02115Y00643*
X02115Y00643*
X02115Y00643*
X02115Y00643*
X02116Y00643*
X02116Y00643*
X02116Y00643*
X02116Y00643*
X02116Y00643*
X02116Y00642*
X02117Y00642*
X02117Y00642*
X02117Y00642*
X02117Y00642*
X02117Y00642*
X02117Y00641*
X02117Y00641*
X02117Y00641*
X02117Y00641*
X02117Y00641*
X02117Y0064*
X02117Y0064*
Y0064*
X02118Y0064*
Y0062*
X02117Y0062*
Y00619*
X02117Y00619*
X02117Y00619*
X02117Y00619*
X02117Y00619*
X02117Y00618*
X02117Y00618*
X02117Y00618*
X02117Y00618*
X02117Y00618*
X02117Y00617*
X02117Y00617*
X02116Y00617*
X02116Y00617*
X02116Y00617*
X02116Y00617*
X02116Y00617*
X02116Y00617*
X02115Y00616*
X02115Y00616*
X02115Y00616*
X02115Y00616*
X02115Y00616*
X02114Y00616*
X02114Y00616*
X02114*
X02114Y00616*
X02107*
X02107Y00616*
X02107*
X02107Y00616*
X02107Y00616*
X02106Y00616*
X02106Y00616*
X02106Y00616*
X02106Y00616*
X02106Y00617*
X02106Y00617*
X02105Y00617*
X02105Y00617*
X02105Y00617*
X02105Y00617*
X02105Y00617*
X02105Y00617*
X02105Y00618*
X02104Y00618*
X02104Y00618*
X02104Y00618*
X02104Y00618*
X02104Y00619*
X02104Y00619*
X02104Y00619*
X02104Y00619*
X02104Y00619*
Y0062*
X02104Y0062*
Y0064*
X02104Y0064*
Y0064*
X02104Y0064*
X02104Y00641*
X02104Y00641*
X02104Y00641*
X02104Y00641*
X02104Y00641*
X02104Y00642*
X02104Y00642*
X02105Y00642*
X02105Y00642*
X02105Y00642*
X02105Y00642*
X02105Y00643*
X02105Y00643*
X02105Y00643*
X02106Y00643*
X02106Y00643*
X02106Y00643*
X02106Y00643*
X02106Y00643*
X02106Y00643*
X02107Y00643*
X02107Y00643*
X02107Y00644*
X02107*
X02107Y00644*
X02114*
X02114Y00644*
G37*
G36*
X02096D02*
X02097D01*
X02097Y00643*
X02097Y00643*
X02097Y00643*
X02097Y00643*
X02097Y00643*
X02098Y00643*
X02098Y00643*
X02098Y00643*
X02098Y00643*
X02098Y00643*
X02099Y00643*
X02099Y00642*
X02099Y00642*
X02099Y00642*
X02099Y00642*
X02099Y00642*
X02099Y00642*
X02099Y00641*
X02099Y00641*
X021Y00641*
X021Y00641*
X021Y00641*
X021Y0064*
X021Y0064*
Y0064*
X021Y0064*
Y0062*
X021Y0062*
Y00619*
X021Y00619*
X021Y00619*
X021Y00619*
X021Y00619*
X02099Y00618*
X02099Y00618*
X02099Y00618*
X02099Y00618*
X02099Y00618*
X02099Y00617*
X02099Y00617*
X02099Y00617*
X02099Y00617*
X02098Y00617*
X02098Y00617*
X02098Y00617*
X02098Y00617*
X02098Y00616*
X02097Y00616*
X02097Y00616*
X02097Y00616*
X02097Y00616*
X02097Y00616*
X02097Y00616*
X02096*
X02096Y00616*
X02074*
X02074Y00616*
X02074*
X02073Y00616*
X02073Y00616*
X02073Y00616*
X02073Y00616*
X02073Y00616*
X02072Y00616*
X02072Y00617*
X02072Y00617*
X02072Y00617*
X02072Y00617*
X02072Y00617*
X02071Y00617*
X02071Y00617*
X02071Y00617*
X02071Y00618*
X02071Y00618*
X02071Y00618*
X02071Y00618*
X02071Y00618*
X02071Y00619*
X0207Y00619*
X0207Y00619*
X0207Y00619*
X0207Y00619*
Y0062*
X0207Y0062*
Y00626*
X0207Y00626*
Y00626*
X0207Y00627*
X0207Y00627*
X0207Y00627*
X02071Y00627*
X02071Y00627*
X02071Y00628*
X02071Y00628*
X02071Y00628*
X02071Y00628*
X02071Y00628*
X02071Y00628*
X02071Y00629*
X02072Y00629*
X02072Y00629*
X02072Y00629*
X02072Y00629*
X02072Y00629*
X02072Y00629*
X02073Y00629*
X02073Y0063*
X02073Y0063*
X02073Y0063*
X02073Y0063*
X02074Y0063*
X02074*
X02074Y0063*
X02084*
Y0064*
X02084Y0064*
Y0064*
X02084Y0064*
X02084Y00641*
X02084Y00641*
X02084Y00641*
X02084Y00641*
X02085Y00641*
X02085Y00642*
X02085Y00642*
X02085Y00642*
X02085Y00642*
X02085Y00642*
X02085Y00642*
X02085Y00643*
X02086Y00643*
X02086Y00643*
X02086Y00643*
X02086Y00643*
X02086Y00643*
X02086Y00643*
X02087Y00643*
X02087Y00643*
X02087Y00643*
X02087Y00643*
X02087Y00644*
X02088*
X02088Y00644*
X02096*
X02096Y00644*
G37*
G36*
X02165Y00612D02*
X02165D01*
X02166Y00612*
X02166Y00612*
X02166Y00612*
X02166Y00612*
X02166Y00612*
X02167Y00612*
X02167Y00612*
X02167Y00611*
X02167Y00611*
X02167Y00611*
X02167Y00611*
X02168Y00611*
X02168Y00611*
X02168Y00611*
X02168Y0061*
X02168Y0061*
X02168Y0061*
X02168Y0061*
X02168Y0061*
X02168Y0061*
X02169Y00609*
X02169Y00609*
X02169Y00609*
X02169Y00609*
Y00609*
X02169Y00608*
Y006*
X02169Y006*
Y006*
X02169Y00599*
X02169Y00599*
X02169Y00599*
X02168Y00599*
X02168Y00599*
X02168Y00598*
X02168Y00598*
X02168Y00598*
X02168Y00598*
X02168Y00598*
X02168Y00598*
X02168Y00597*
X02167Y00597*
X02167Y00597*
X02167Y00597*
X02167Y00597*
X02167Y00597*
X02167Y00597*
X02166Y00597*
X02166Y00597*
X02166Y00597*
X02166Y00596*
X02166Y00596*
X02165Y00596*
X02165*
X02165Y00596*
X02074*
X02074Y00596*
X02074*
X02073Y00596*
X02073Y00596*
X02073Y00597*
X02073Y00597*
X02073Y00597*
X02072Y00597*
X02072Y00597*
X02072Y00597*
X02072Y00597*
X02072Y00597*
X02072Y00597*
X02071Y00597*
X02071Y00598*
X02071Y00598*
X02071Y00598*
X02071Y00598*
X02071Y00598*
X02071Y00598*
X02071Y00599*
X02071Y00599*
X0207Y00599*
X0207Y00599*
X0207Y00599*
X0207Y006*
Y006*
X0207Y006*
Y00608*
X0207Y00609*
Y00609*
X0207Y00609*
X0207Y00609*
X0207Y00609*
X02071Y0061*
X02071Y0061*
X02071Y0061*
X02071Y0061*
X02071Y0061*
X02071Y0061*
X02071Y00611*
X02071Y00611*
X02071Y00611*
X02072Y00611*
X02072Y00611*
X02072Y00611*
X02072Y00611*
X02072Y00612*
X02072Y00612*
X02073Y00612*
X02073Y00612*
X02073Y00612*
X02073Y00612*
X02073Y00612*
X02074Y00612*
X02074*
X02074Y00612*
X02165*
X02165Y00612*
G37*
G36*
Y00592D02*
X02165D01*
X02166Y00592*
X02166Y00592*
X02166Y00592*
X02166Y00592*
X02166Y00592*
X02167Y00592*
X02167Y00592*
X02167Y00592*
X02167Y00592*
X02167Y00592*
X02167Y00591*
X02168Y00591*
X02168Y00591*
X02168Y00591*
X02168Y00591*
X02168Y00591*
X02168Y0059*
X02168Y0059*
X02168Y0059*
X02168Y0059*
X02169Y0059*
X02169Y00589*
X02169Y00589*
X02169Y00589*
Y00589*
X02169Y00589*
Y0058*
X02169Y0058*
Y0058*
X02169Y0058*
X02169Y0058*
X02169Y00579*
X02168Y00579*
X02168Y00579*
X02168Y00579*
X02168Y00579*
X02168Y00578*
X02168Y00578*
X02168Y00578*
X02168Y00578*
X02168Y00578*
X02167Y00578*
X02167Y00577*
X02167Y00577*
X02167Y00577*
X02167Y00577*
X02167Y00577*
X02166Y00577*
X02166Y00577*
X02166Y00577*
X02166Y00577*
X02166Y00577*
X02165Y00577*
X02165*
X02165Y00577*
X02074*
X02074Y00577*
X02074*
X02073Y00577*
X02073Y00577*
X02073Y00577*
X02073Y00577*
X02073Y00577*
X02072Y00577*
X02072Y00577*
X02072Y00577*
X02072Y00577*
X02072Y00577*
X02072Y00578*
X02071Y00578*
X02071Y00578*
X02071Y00578*
X02071Y00578*
X02071Y00578*
X02071Y00579*
X02071Y00579*
X02071Y00579*
X02071Y00579*
X0207Y00579*
X0207Y0058*
X0207Y0058*
X0207Y0058*
Y0058*
X0207Y0058*
Y00589*
X0207Y00589*
Y00589*
X0207Y00589*
X0207Y00589*
X0207Y0059*
X02071Y0059*
X02071Y0059*
X02071Y0059*
X02071Y0059*
X02071Y00591*
X02071Y00591*
X02071Y00591*
X02071Y00591*
X02071Y00591*
X02072Y00591*
X02072Y00592*
X02072Y00592*
X02072Y00592*
X02072Y00592*
X02072Y00592*
X02073Y00592*
X02073Y00592*
X02073Y00592*
X02073Y00592*
X02073Y00592*
X02074Y00592*
X02074*
X02074Y00592*
X02165*
X02165Y00592*
G37*
G36*
X02724Y00604D02*
X02724D01*
X02724Y00604*
X02724*
X02724Y00604*
X02724Y00604*
X02724Y00604*
X02724Y00604*
X02724Y00604*
X02725Y00604*
X02725Y00604*
X02725Y00604*
X02725Y00603*
X02725Y00603*
X02725Y00603*
X02725Y00603*
X02725Y00603*
X02725Y00603*
X02725Y00603*
X02725Y00603*
X02725Y00603*
X02725Y00603*
Y00603*
X02725Y00602*
Y00602*
X02725Y00602*
Y00602*
Y00602*
Y00577*
Y00577*
Y00577*
X02725Y00577*
Y00577*
X02725Y00576*
Y00576*
X02725Y00576*
X02725Y00576*
X02725Y00576*
X02725Y00576*
X02725Y00576*
X02725Y00576*
X02725Y00576*
X02725Y00576*
X02725Y00576*
X02725Y00575*
X02725Y00575*
X02725Y00575*
X02724Y00575*
X02724Y00575*
X02724Y00575*
X02724Y00575*
X02724Y00575*
X02724Y00575*
X02724*
X02724Y00575*
X02724*
X02724Y00575*
X02661*
X0266Y00575*
X0266*
X0266Y00575*
X0266*
X0266Y00575*
X0266Y00575*
X0266Y00575*
X0266Y00575*
X0266Y00575*
X0266Y00575*
X0266Y00575*
X0266Y00575*
X02659Y00576*
X02659Y00576*
X02659Y00576*
X02659Y00576*
X02659Y00576*
X02659Y00576*
X02659Y00576*
X02659Y00576*
X02659Y00576*
X02659Y00576*
Y00576*
X02659Y00577*
Y00577*
X02659Y00577*
Y00577*
Y00577*
Y00602*
Y00602*
Y00602*
X02659Y00602*
Y00602*
X02659Y00603*
Y00603*
X02659Y00603*
X02659Y00603*
X02659Y00603*
X02659Y00603*
X02659Y00603*
X02659Y00603*
X02659Y00603*
X02659Y00603*
X02659Y00603*
X0266Y00604*
X0266Y00604*
X0266Y00604*
X0266Y00604*
X0266Y00604*
X0266Y00604*
X0266Y00604*
X0266Y00604*
X0266Y00604*
X0266*
X0266Y00604*
X0266*
X02661Y00604*
X02724*
X02724Y00604*
G37*
G36*
X02511D02*
X02511D01*
X02511Y00604*
X02511*
X02512Y00604*
X02512Y00604*
X02512Y00604*
X02512Y00604*
X02512Y00604*
X02512Y00604*
X02512Y00604*
X02512Y00604*
X02512Y00603*
X02512Y00603*
X02512Y00603*
X02512Y00603*
X02512Y00603*
X02512Y00603*
X02513Y00603*
X02513Y00603*
X02513Y00603*
X02513Y00603*
Y00603*
X02513Y00602*
Y00602*
X02513Y00602*
Y00602*
Y00602*
Y00577*
Y00577*
Y00577*
X02513Y00577*
Y00577*
X02513Y00576*
Y00576*
X02513Y00576*
X02513Y00576*
X02513Y00576*
X02512Y00576*
X02512Y00576*
X02512Y00576*
X02512Y00576*
X02512Y00576*
X02512Y00576*
X02512Y00575*
X02512Y00575*
X02512Y00575*
X02512Y00575*
X02512Y00575*
X02512Y00575*
X02512Y00575*
X02512Y00575*
X02511Y00575*
X02511*
X02511Y00575*
X02511*
X02511Y00575*
X02448*
X02448Y00575*
X02448*
X02448Y00575*
X02448*
X02447Y00575*
X02447Y00575*
X02447Y00575*
X02447Y00575*
X02447Y00575*
X02447Y00575*
X02447Y00575*
X02447Y00575*
X02447Y00576*
X02447Y00576*
X02447Y00576*
X02447Y00576*
X02447Y00576*
X02447Y00576*
X02446Y00576*
X02446Y00576*
X02446Y00576*
X02446Y00576*
Y00576*
X02446Y00577*
Y00577*
X02446Y00577*
Y00577*
Y00577*
Y00602*
Y00602*
Y00602*
X02446Y00602*
Y00602*
X02446Y00603*
Y00603*
X02446Y00603*
X02446Y00603*
X02446Y00603*
X02447Y00603*
X02447Y00603*
X02447Y00603*
X02447Y00603*
X02447Y00603*
X02447Y00603*
X02447Y00604*
X02447Y00604*
X02447Y00604*
X02447Y00604*
X02447Y00604*
X02447Y00604*
X02447Y00604*
X02447Y00604*
X02448Y00604*
X02448*
X02448Y00604*
X02448*
X02448Y00604*
X02511*
X02511Y00604*
G37*
G36*
X02639Y0057D02*
X02532D01*
Y0076*
X02639*
Y0057*
G37*
G36*
X02165Y00573D02*
X02165D01*
X02166Y00573*
X02166Y00573*
X02166Y00572*
X02166Y00572*
X02166Y00572*
X02167Y00572*
X02167Y00572*
X02167Y00572*
X02167Y00572*
X02167Y00572*
X02167Y00572*
X02168Y00572*
X02168Y00571*
X02168Y00571*
X02168Y00571*
X02168Y00571*
X02168Y00571*
X02168Y00571*
X02168Y0057*
X02168Y0057*
X02169Y0057*
X02169Y0057*
X02169Y0057*
X02169Y00569*
Y00569*
X02169Y00569*
Y00563*
X02169Y00562*
Y00562*
X02169Y00562*
X02169Y00562*
X02169Y00562*
X02168Y00561*
X02168Y00561*
X02168Y00561*
X02168Y00561*
X02168Y00561*
X02168Y00561*
X02168Y0056*
X02168Y0056*
X02168Y0056*
X02167Y0056*
X02167Y0056*
X02167Y0056*
X02167Y0056*
X02167Y00559*
X02167Y00559*
X02166Y00559*
X02166Y00559*
X02166Y00559*
X02166Y00559*
X02166Y00559*
X02165Y00559*
X02165*
X02165Y00559*
X02155*
Y00549*
X02155Y00549*
Y00548*
X02155Y00548*
X02155Y00548*
X02155Y00548*
X02155Y00548*
X02155Y00547*
X02155Y00547*
X02154Y00547*
X02154Y00547*
X02154Y00547*
X02154Y00547*
X02154Y00546*
X02154Y00546*
X02154Y00546*
X02153Y00546*
X02153Y00546*
X02153Y00546*
X02153Y00546*
X02153Y00546*
X02153Y00545*
X02152Y00545*
X02152Y00545*
X02152Y00545*
X02152Y00545*
X02152Y00545*
X02151*
X02151Y00545*
X02143*
X02143Y00545*
X02142*
X02142Y00545*
X02142Y00545*
X02142Y00545*
X02142Y00545*
X02142Y00545*
X02141Y00546*
X02141Y00546*
X02141Y00546*
X02141Y00546*
X02141Y00546*
X0214Y00546*
X0214Y00546*
X0214Y00546*
X0214Y00547*
X0214Y00547*
X0214Y00547*
X0214Y00547*
X0214Y00547*
X0214Y00547*
X02139Y00548*
X02139Y00548*
X02139Y00548*
X02139Y00548*
X02139Y00548*
Y00549*
X02139Y00549*
Y00569*
X02139Y00569*
Y00569*
X02139Y0057*
X02139Y0057*
X02139Y0057*
X02139Y0057*
X0214Y0057*
X0214Y00571*
X0214Y00571*
X0214Y00571*
X0214Y00571*
X0214Y00571*
X0214Y00571*
X0214Y00572*
X0214Y00572*
X02141Y00572*
X02141Y00572*
X02141Y00572*
X02141Y00572*
X02141Y00572*
X02142Y00572*
X02142Y00572*
X02142Y00572*
X02142Y00573*
X02142Y00573*
X02142Y00573*
X02143*
X02143Y00573*
X02165*
X02165Y00573*
G37*
G36*
X02132D02*
X02132D01*
X02132Y00573*
X02132Y00573*
X02133Y00572*
X02133Y00572*
X02133Y00572*
X02133Y00572*
X02133Y00572*
X02133Y00572*
X02134Y00572*
X02134Y00572*
X02134Y00572*
X02134Y00572*
X02134Y00571*
X02134Y00571*
X02135Y00571*
X02135Y00571*
X02135Y00571*
X02135Y00571*
X02135Y0057*
X02135Y0057*
X02135Y0057*
X02135Y0057*
X02135Y0057*
X02135Y00569*
Y00569*
X02135Y00569*
Y00549*
X02135Y00549*
Y00548*
X02135Y00548*
X02135Y00548*
X02135Y00548*
X02135Y00548*
X02135Y00547*
X02135Y00547*
X02135Y00547*
X02135Y00547*
X02135Y00547*
X02134Y00547*
X02134Y00546*
X02134Y00546*
X02134Y00546*
X02134Y00546*
X02134Y00546*
X02133Y00546*
X02133Y00546*
X02133Y00546*
X02133Y00545*
X02133Y00545*
X02133Y00545*
X02132Y00545*
X02132Y00545*
X02132Y00545*
X02132*
X02132Y00545*
X02125*
X02125Y00545*
X02125*
X02125Y00545*
X02124Y00545*
X02124Y00545*
X02124Y00545*
X02124Y00545*
X02124Y00546*
X02123Y00546*
X02123Y00546*
X02123Y00546*
X02123Y00546*
X02123Y00546*
X02123Y00546*
X02122Y00546*
X02122Y00547*
X02122Y00547*
X02122Y00547*
X02122Y00547*
X02122Y00547*
X02122Y00547*
X02122Y00548*
X02122Y00548*
X02122Y00548*
X02122Y00548*
X02122Y00548*
Y00549*
X02121Y00549*
Y00569*
X02122Y00569*
Y00569*
X02122Y0057*
X02122Y0057*
X02122Y0057*
X02122Y0057*
X02122Y0057*
X02122Y00571*
X02122Y00571*
X02122Y00571*
X02122Y00571*
X02122Y00571*
X02122Y00571*
X02123Y00572*
X02123Y00572*
X02123Y00572*
X02123Y00572*
X02123Y00572*
X02123Y00572*
X02124Y00572*
X02124Y00572*
X02124Y00572*
X02124Y00572*
X02124Y00573*
X02125Y00573*
X02125Y00573*
X02125*
X02125Y00573*
X02132*
X02132Y00573*
G37*
G36*
X02114D02*
X02114D01*
X02114Y00573*
X02115Y00573*
X02115Y00572*
X02115Y00572*
X02115Y00572*
X02115Y00572*
X02116Y00572*
X02116Y00572*
X02116Y00572*
X02116Y00572*
X02116Y00572*
X02116Y00572*
X02117Y00571*
X02117Y00571*
X02117Y00571*
X02117Y00571*
X02117Y00571*
X02117Y00571*
X02117Y0057*
X02117Y0057*
X02117Y0057*
X02117Y0057*
X02117Y0057*
X02117Y00569*
Y00569*
X02118Y00569*
Y00549*
X02117Y00549*
Y00548*
X02117Y00548*
X02117Y00548*
X02117Y00548*
X02117Y00548*
X02117Y00547*
X02117Y00547*
X02117Y00547*
X02117Y00547*
X02117Y00547*
X02117Y00547*
X02117Y00546*
X02116Y00546*
X02116Y00546*
X02116Y00546*
X02116Y00546*
X02116Y00546*
X02116Y00546*
X02115Y00546*
X02115Y00545*
X02115Y00545*
X02115Y00545*
X02115Y00545*
X02114Y00545*
X02114Y00545*
X02114*
X02114Y00545*
X02107*
X02107Y00545*
X02107*
X02107Y00545*
X02107Y00545*
X02106Y00545*
X02106Y00545*
X02106Y00545*
X02106Y00546*
X02106Y00546*
X02106Y00546*
X02105Y00546*
X02105Y00546*
X02105Y00546*
X02105Y00546*
X02105Y00546*
X02105Y00547*
X02105Y00547*
X02104Y00547*
X02104Y00547*
X02104Y00547*
X02104Y00547*
X02104Y00548*
X02104Y00548*
X02104Y00548*
X02104Y00548*
X02104Y00548*
Y00549*
X02104Y00549*
Y00569*
X02104Y00569*
Y00569*
X02104Y0057*
X02104Y0057*
X02104Y0057*
X02104Y0057*
X02104Y0057*
X02104Y00571*
X02104Y00571*
X02104Y00571*
X02105Y00571*
X02105Y00571*
X02105Y00571*
X02105Y00572*
X02105Y00572*
X02105Y00572*
X02105Y00572*
X02106Y00572*
X02106Y00572*
X02106Y00572*
X02106Y00572*
X02106Y00572*
X02106Y00572*
X02107Y00573*
X02107Y00573*
X02107Y00573*
X02107*
X02107Y00573*
X02114*
X02114Y00573*
G37*
G36*
X02096D02*
X02097D01*
X02097Y00573*
X02097Y00573*
X02097Y00572*
X02097Y00572*
X02097Y00572*
X02098Y00572*
X02098Y00572*
X02098Y00572*
X02098Y00572*
X02098Y00572*
X02099Y00572*
X02099Y00572*
X02099Y00571*
X02099Y00571*
X02099Y00571*
X02099Y00571*
X02099Y00571*
X02099Y00571*
X02099Y0057*
X021Y0057*
X021Y0057*
X021Y0057*
X021Y0057*
X021Y00569*
Y00569*
X021Y00569*
Y00549*
X021Y00549*
Y00548*
X021Y00548*
X021Y00548*
X021Y00548*
X021Y00548*
X02099Y00547*
X02099Y00547*
X02099Y00547*
X02099Y00547*
X02099Y00547*
X02099Y00547*
X02099Y00546*
X02099Y00546*
X02099Y00546*
X02098Y00546*
X02098Y00546*
X02098Y00546*
X02098Y00546*
X02098Y00546*
X02097Y00545*
X02097Y00545*
X02097Y00545*
X02097Y00545*
X02097Y00545*
X02097Y00545*
X02096*
X02096Y00545*
X02088*
X02088Y00545*
X02087*
X02087Y00545*
X02087Y00545*
X02087Y00545*
X02087Y00545*
X02086Y00545*
X02086Y00546*
X02086Y00546*
X02086Y00546*
X02086Y00546*
X02086Y00546*
X02085Y00546*
X02085Y00546*
X02085Y00546*
X02085Y00547*
X02085Y00547*
X02085Y00547*
X02085Y00547*
X02085Y00547*
X02084Y00547*
X02084Y00548*
X02084Y00548*
X02084Y00548*
X02084Y00548*
X02084Y00548*
Y00549*
X02084Y00549*
Y00559*
X02074*
X02074Y00559*
X02074*
X02073Y00559*
X02073Y00559*
X02073Y00559*
X02073Y00559*
X02073Y00559*
X02072Y00559*
X02072Y00559*
X02072Y0056*
X02072Y0056*
X02072Y0056*
X02072Y0056*
X02071Y0056*
X02071Y0056*
X02071Y0056*
X02071Y00561*
X02071Y00561*
X02071Y00561*
X02071Y00561*
X02071Y00561*
X02071Y00561*
X0207Y00562*
X0207Y00562*
X0207Y00562*
X0207Y00562*
Y00562*
X0207Y00563*
Y00569*
X0207Y00569*
Y00569*
X0207Y0057*
X0207Y0057*
X0207Y0057*
X02071Y0057*
X02071Y0057*
X02071Y00571*
X02071Y00571*
X02071Y00571*
X02071Y00571*
X02071Y00571*
X02071Y00571*
X02071Y00572*
X02072Y00572*
X02072Y00572*
X02072Y00572*
X02072Y00572*
X02072Y00572*
X02072Y00572*
X02073Y00572*
X02073Y00572*
X02073Y00572*
X02073Y00573*
X02073Y00573*
X02074Y00573*
X02074*
X02074Y00573*
X02096*
X02096Y00573*
G37*
G54D24*
X00039Y00125D02*
D01*
X00039Y00119*
X0004Y00113*
X00041Y00107*
X00042Y00102*
X00044Y00096*
X00046Y0009*
X00049Y00085*
X00052Y0008*
X00055Y00075*
X00059Y0007*
X00063Y00065*
X00068Y00061*
X00072Y00057*
X00077Y00054*
X00082Y0005*
X00088Y00048*
X00093Y00045*
X00099Y00043*
X00105Y00041*
X0011Y0004*
X00116Y00039*
X00122Y00039*
X00125Y00039*
X00848Y00102D02*
D01*
X00843Y00102*
X00838Y00101*
X00834Y001*
X00829Y00099*
X00824Y00097*
X0082Y00095*
X00815Y00093*
X00811Y0009*
X00807Y00087*
X00803Y00084*
X008Y00081*
X00796Y00077*
X00793Y00073*
X0079Y00069*
X00788Y00065*
X00786Y00061*
X00784Y00056*
X00782Y00051*
X00781Y00047*
X0078Y00042*
X00779Y00039*
X00124Y03503D02*
D01*
X00118Y03503*
X00112Y03502*
X00106Y03501*
X001Y035*
X00094Y03498*
X00089Y03495*
X00084Y03493*
X00078Y03489*
X00073Y03486*
X00069Y03482*
X00064Y03478*
X0006Y03474*
X00056Y03469*
X00053Y03464*
X0005Y03459*
X00047Y03453*
X00045Y03448*
X00043Y03442*
X00041Y03436*
X0004Y0343*
X00039Y03424*
X00039Y03418*
X00039Y03417*
X00779Y03503D02*
D01*
X0078Y03499*
X00781Y03494*
X00782Y03489*
X00784Y03484*
X00786Y0348*
X00788Y03475*
X00791Y03471*
X00794Y03467*
X00797Y03464*
X00801Y0346*
X00804Y03457*
X00808Y03454*
X00812Y03451*
X00817Y03449*
X00821Y03446*
X00826Y03445*
X0083Y03443*
X00835Y03442*
X0084Y03441*
X00845Y03441*
X00848Y0344*
X02881Y00039D02*
D01*
X0288Y00044*
X02879Y00049*
X02878Y00053*
X02876Y00058*
X02874Y00062*
X02872Y00067*
X02869Y00071*
X02866Y00075*
X02863Y00079*
X02859Y00082*
X02856Y00086*
X02852Y00089*
X02848Y00091*
X02843Y00094*
X02839Y00096*
X02834Y00098*
X0283Y00099*
X02825Y001*
X0282Y00101*
X02815Y00102*
X02812Y00102*
X03535Y00039D02*
D01*
X03541Y00039*
X03547Y0004*
X03553Y00041*
X03559Y00042*
X03565Y00044*
X0357Y00046*
X03576Y00049*
X03581Y00052*
X03586Y00055*
X03591Y00059*
X03595Y00063*
X03599Y00068*
X03603Y00072*
X03607Y00077*
X0361Y00082*
X03613Y00088*
X03615Y00093*
X03617Y00099*
X03619Y00105*
X0362Y0011*
X03621Y00116*
X03621Y00122*
X03622Y00125*
X03559Y00582D02*
D01*
X03559Y00577*
X03559Y00572*
X0356Y00567*
X03561Y00562*
X03563Y00558*
X03565Y00553*
X03567Y00549*
X03569Y00544*
X03572Y0054*
X03575Y00536*
X03579Y00533*
X03582Y00529*
X03586Y00526*
X0359Y00523*
X03594Y00521*
X03599Y00518*
X03603Y00516*
X03608Y00515*
X03612Y00513*
X03617Y00512*
X03622Y00512*
X02812Y0344D02*
D01*
X02817Y03441*
X02821Y03441*
X02826Y03442*
X02831Y03444*
X02836Y03445*
X0284Y03447*
X02845Y03449*
X02849Y03452*
X02853Y03455*
X02857Y03458*
X0286Y03461*
X02864Y03465*
X02867Y03469*
X0287Y03473*
X02872Y03477*
X02874Y03482*
X02876Y03486*
X02878Y03491*
X02879Y03496*
X0288Y03501*
X02881Y03503*
X03622Y03051D02*
D01*
X03617Y0305*
X03612Y03049*
X03607Y03047*
X03602Y03046*
X03598Y03044*
X03594Y03041*
X03589Y03039*
X03585Y03036*
X03582Y03032*
X03578Y03029*
X03575Y03025*
X03572Y03021*
X03569Y03017*
X03567Y03013*
X03564Y03008*
X03563Y03004*
X03561Y02999*
X0356Y02994*
X03559Y02989*
X03559Y02985*
X03559Y0298*
X03622Y03417D02*
D01*
X03621Y03423*
X03621Y03429*
X0362Y03435*
X03618Y03441*
X03616Y03447*
X03614Y03452*
X03611Y03458*
X03608Y03463*
X03605Y03468*
X03601Y03473*
X03597Y03477*
X03593Y03481*
X03588Y03485*
X03583Y03489*
X03578Y03492*
X03573Y03495*
X03567Y03497*
X03561Y03499*
X03556Y03501*
X0355Y03502*
X03544Y03503*
X03538Y03503*
X03536Y03503*
X00277Y00039D02*
X00312D01*
X00241D02*
X00277D01*
X00348D02*
X00383D01*
X00312D02*
X00348D01*
X00206D02*
X00241D01*
X00125D02*
X0017D01*
X00206*
X0056D02*
X00596D01*
X00667D02*
X00702D01*
X00596D02*
X00631D01*
X00667*
X00419D02*
X00454D01*
X00383D02*
X00419D01*
X00525D02*
X0056D01*
X00454D02*
X00489D01*
X00525*
X00737D02*
X00779D01*
X00702D02*
X00737D01*
X0085Y00102D02*
X00889D01*
X01208D02*
X01243D01*
X01172D02*
X01208D01*
X01314D02*
X01349D01*
X01243D02*
X01279D01*
X01314*
X00924D02*
X0096D01*
X00889D02*
X00924D01*
X01137D02*
X01172D01*
X01066D02*
X01101D01*
X01137*
X00995D02*
X0103D01*
X0096D02*
X00995D01*
X0103D02*
X01066D01*
X00039Y00301D02*
Y00336D01*
Y00372*
Y00265D02*
Y00301D01*
Y00159D02*
Y00194D01*
Y0023*
Y00126D02*
Y00159D01*
Y0023D02*
Y00265D01*
X01562Y00102D02*
X01597D01*
X01527D02*
X01562D01*
X01385D02*
X0142D01*
X01349D02*
X01385D01*
X01491D02*
X01527D01*
X0142D02*
X01456D01*
X01491*
X01775D02*
X0181D01*
X01739D02*
X01775D01*
X01597D02*
X01633D01*
X01704D02*
X01739D01*
X01633D02*
X01668D01*
X01704*
X0181D02*
X01845D01*
X01916D02*
X01952D01*
X01845D02*
X01881D01*
X01916*
X02006D02*
X02058D01*
X01952D02*
X02006D01*
X02058D02*
X02093D01*
X02129*
X02164*
X022*
X02235*
X02271Y00102*
X00039Y03216D02*
Y03252D01*
Y03287D02*
Y03323D01*
Y03252D02*
Y03287D01*
Y03358D02*
Y03394D01*
Y03323D02*
Y03358D01*
Y03394D02*
Y03417D01*
X00464Y03503D02*
X005D01*
X00429D02*
X00464D01*
X0057D02*
X00606D01*
X005D02*
X00535D01*
X0057*
X00287D02*
X00322D01*
X00393D02*
X00429D01*
X00322D02*
X00358D01*
X00393*
X00145D02*
X00181D01*
X00124D02*
X00145D01*
X00216D02*
X00252D01*
X00181D02*
X00216D01*
X00252D02*
X00287D01*
X00849Y0344D02*
X00901D01*
X00936*
X00972*
X01007Y0344*
X01042*
X01078*
X01113*
X01149*
X01184*
X0122*
X01255*
X00606Y03503D02*
X00641D01*
X00712D02*
X00748D01*
X00641D02*
X00677D01*
X00712*
X00748D02*
X00779D01*
X01255Y0344D02*
X0129D01*
X01326*
X01361*
X01397*
X01432Y0344*
X01468*
X01503*
X01538*
X01574*
X01609*
X01654*
X0168*
X01716D02*
X01751D01*
X0168D02*
X01716D01*
X01928D02*
X01964D01*
X01999*
X01787D02*
X01822D01*
X01751D02*
X01787D01*
X01893D02*
X01928D01*
X01822D02*
X01857D01*
X01893*
X02247D02*
X02283D01*
X02176D02*
X02212D01*
X02247*
X02035D02*
X0207D01*
X01999D02*
X02035D01*
X02141D02*
X02176D01*
X0207D02*
X02105D01*
X02141*
X02271Y00102D02*
X02306D01*
X02342*
X02377*
X02412*
X02448*
X02483*
X02519*
X02554*
X0259*
X02625Y00102*
X0266*
X02696*
X02731*
X02767*
X02811*
X02986Y00039D02*
X03022D01*
X02951D02*
X02986D01*
X02881D02*
X02916D01*
X02951*
X03057D02*
X03093D01*
X03022D02*
X03057D01*
X03164D02*
X03199D01*
X03093D02*
X03128D01*
X03164*
X03234D02*
X0327D01*
X03199D02*
X03234D01*
X03341D02*
X03376D01*
X0327D02*
X03305D01*
X03341*
X03483D02*
X03535D01*
X03412D02*
X03447D01*
X03376D02*
X03412D01*
X03447D02*
X03483D01*
X03559Y00582D02*
Y00621D01*
Y00657D02*
Y00692D01*
Y00621D02*
Y00657D01*
Y00799D02*
Y00834D01*
Y00869*
Y00692D02*
Y00728D01*
Y00763D02*
Y00799D01*
Y00728D02*
Y00763D01*
X03622Y00187D02*
Y00222D01*
Y00258*
Y00125D02*
Y00152D01*
Y00187*
Y00364D02*
Y004D01*
Y00258D02*
Y00293D01*
Y00329D02*
Y00364D01*
Y00293D02*
Y00329D01*
Y004D02*
Y00435D01*
Y0047*
Y00512*
X03559Y01259D02*
Y01295D01*
Y00976D02*
Y01011D01*
Y01224D02*
Y01259D01*
Y01188D02*
Y01224D01*
Y01401D02*
Y01436D01*
Y01472*
Y01295D02*
Y0133D01*
Y01366D02*
Y01401D01*
Y0133D02*
Y01366D01*
Y01862D02*
Y01897D01*
Y01932D02*
Y01968D01*
Y01897D02*
Y01932D01*
Y01578D02*
Y01614D01*
Y01649*
Y01472D02*
Y01507D01*
Y01543D02*
Y01578D01*
Y01507D02*
Y01543D01*
Y01755D02*
Y01791D01*
Y01826*
Y01649D02*
Y01684D01*
Y0172D02*
Y01755D01*
Y01684D02*
Y0172D01*
Y0094D02*
Y00976D01*
Y01011D02*
Y01047D01*
Y00869D02*
Y00905D01*
Y0094*
Y01153D02*
Y01188D01*
Y01047D02*
Y01082D01*
Y01118D02*
Y01153D01*
Y01082D02*
Y01118D01*
Y01826D02*
Y01862D01*
X02601Y0344D02*
X02637D01*
X02672*
X02283D02*
X02318D01*
X02389D02*
X02424D01*
X02318D02*
X02353D01*
X02389*
X0246D02*
X02495D01*
X02424D02*
X0246D01*
X02566D02*
X02601D01*
X02495D02*
X02531D01*
X02566*
X02672D02*
X02708D01*
X02743*
X02779*
X0281*
X02934Y03503D02*
X02969D01*
X02881D02*
X02934D01*
X0304D02*
X03075D01*
X02969D02*
X03004D01*
X0304*
X03559Y02712D02*
Y02747D01*
Y02677D02*
Y02712D01*
Y02783D02*
Y02818D01*
Y02393D02*
Y02429D01*
Y02464*
Y02287D02*
Y02322D01*
Y02358D02*
Y02393D01*
Y02322D02*
Y02358D01*
Y0257D02*
Y02606D01*
Y02641*
Y02464D02*
Y02499D01*
Y02535D02*
Y0257D01*
Y02499D02*
Y02535D01*
Y02039D02*
Y02074D01*
Y0211*
Y01968D02*
Y02003D01*
Y02039*
Y02216D02*
Y02251D01*
Y02287*
Y0211D02*
Y02145D01*
Y02181D02*
Y02216D01*
Y02145D02*
Y02181D01*
Y02747D02*
Y02783D01*
Y02818D02*
Y02854D01*
Y02641D02*
Y02677D01*
Y02854D02*
Y02889D01*
X03323Y03503D02*
X03359D01*
X03394*
X03111D02*
X03146D01*
X03075D02*
X03111D01*
X03217D02*
X03252D01*
X03146D02*
X03182D01*
X03217*
X03288D02*
X03323D01*
X03252D02*
X03288D01*
X03465D02*
X035D01*
X03394D02*
X0343D01*
X03465*
X03559Y02889D02*
Y02925D01*
Y0296*
Y0298*
X03622Y03051D02*
Y03079D01*
Y03186D02*
Y03221D01*
Y03079D02*
Y03115D01*
Y0315D02*
Y03186D01*
Y03115D02*
Y0315D01*
X035Y03503D02*
X03535D01*
X03622Y03221D02*
Y03257D01*
Y03292*
Y03327*
Y03363D02*
Y03417D01*
Y03327D02*
Y03363D01*
G54D60*
X02901Y02055D03*
X02828Y02112D03*
X02901D03*
X02828Y02055D03*
G54D76*
X03363Y0303D03*
X03296D03*
X0047Y00255D03*
X03193Y0031D03*
Y00235D03*
X03373Y02755D03*
X03296Y03105D03*
X03363D03*
X00403Y00255D03*
X03126Y00235D03*
Y0031D03*
X03306Y02755D03*
G54D77*
X03371Y02545D03*
X01273Y00895D03*
X01511Y00611D03*
X02197Y0042D03*
X02013Y0076D03*
X00937Y03135D03*
X01403Y0252D03*
X01623Y03235D03*
X02618Y00515D03*
X02506Y01935D03*
X03352Y0189D03*
X01463Y03235D03*
X03371Y0242D03*
X03308D03*
X0331Y02355D03*
X01356Y03085D03*
X01293D03*
X01356Y03145D03*
X01293D03*
X03372Y02355D03*
X03371Y02485D03*
Y02615D03*
Y02685D03*
X01273Y01005D03*
X02628Y02075D03*
X02141Y02795D03*
X02211Y01865D03*
X02018D03*
X02432Y029D03*
X03173Y0189D03*
X02293Y01865D03*
X01943Y02795D03*
X02213D03*
X02156Y0121D03*
X01526Y03235D03*
X02681Y00515D03*
X02832Y00445D03*
X03308Y02545D03*
Y02485D03*
Y02615D03*
Y02685D03*
X00471Y004D03*
X00408D03*
X01193Y0212D03*
X01256D03*
X0068Y02314D03*
X00743D03*
X01193Y02185D03*
X01256D03*
X0068Y0218D03*
X00742D03*
X01251Y0234D03*
X01188D03*
X01313Y02275D03*
X01376D03*
X01336Y01005D03*
X02691Y02075D03*
X02076Y0076D03*
X02003Y0042D03*
X02066D03*
X02078Y02795D03*
X02131Y00495D03*
X02068D03*
X01336Y00895D03*
X02135Y0042D03*
X02148Y01865D03*
X02081D03*
X0134Y0252D03*
X02495Y029D03*
X03236Y0189D03*
X0329D03*
X01205Y00611D03*
X01268D03*
X01328Y0061D03*
X01391D03*
X01448Y00611D03*
X01686Y03235D03*
X02973Y00235D03*
X03036D03*
X02973Y0031D03*
X03036D03*
X02356Y01865D03*
X02506D03*
X02443D03*
Y01935D03*
X02566Y03115D03*
X02503D03*
X00874Y03135D03*
X01313Y02185D03*
X01376D03*
Y0241D03*
X01313D03*
X02006Y02795D03*
X00408Y0033D03*
X00471D03*
X02093Y0121D03*
X02478Y0052D03*
X02541D03*
X0277Y00445D03*
X02276Y02795D03*
G54D78*
X02176Y01435D03*
X00731Y0042D03*
X00766Y0116D03*
X01273Y0083D03*
Y0111D03*
X0195Y0058D03*
X02013Y00695D03*
X01536Y0075D03*
X01496Y00945D03*
Y0101D03*
X01927Y00835D03*
X01966Y01205D03*
X00891Y02099D03*
X00906Y02905D03*
X00958Y021D03*
X01126Y0239D03*
X00983Y02905D03*
X01628Y0247D03*
X01398Y02875D03*
Y0294D03*
X01281Y0324D03*
X0169Y0225D03*
X02197Y0216D03*
X02012D03*
X02256Y03175D03*
X02296Y00605D03*
X02357Y01932D03*
X03086Y0098D03*
X03223Y0133D03*
Y01485D03*
X03233Y0078D03*
Y00922D03*
X02366Y02555D03*
X02628Y02165D03*
X02896Y0199D03*
X02826Y0221D03*
X02497Y0304D03*
X01811Y02935D03*
X01461Y0294D03*
X02435Y0304D03*
X01336Y0111D03*
X02763Y0221D03*
X01433Y00945D03*
X01461Y02875D03*
X02294Y01932D03*
X00843Y02905D03*
X01046D03*
X02193Y03175D03*
X02075Y0216D03*
X02135D03*
X01433Y0101D03*
X01218Y0324D03*
X01473Y0075D03*
X00828Y02099D03*
X01865Y00835D03*
X01788Y01205D03*
X02113Y01435D03*
X02156Y01145D03*
X01748Y02935D03*
X01628D03*
X01691D03*
X02768Y00515D03*
X02831D03*
X03023Y0098D03*
X01063Y0239D03*
X0068Y02249D03*
X00743D03*
X01313Y0234D03*
X01376D03*
X01251Y02275D03*
X01188D03*
X01021Y021D03*
X02691Y02165D03*
X02833Y0199D03*
X01691Y0247D03*
X01627Y0225D03*
X02303Y02555D03*
X01336Y0083D03*
X02012Y0058D03*
X02233Y00605D03*
X02076Y00695D03*
X00838Y0239D03*
X00901D03*
X00943D03*
X01006D03*
X00703Y0116D03*
X00668Y0042D03*
X00683Y02385D03*
X00746D03*
X01903Y01205D03*
X01851D03*
X02093Y01145D03*
X03286Y01485D03*
Y0133D03*
X03296Y00922D03*
Y0078D03*
G54D79*
X00735Y00494D03*
X0077Y01079D03*
X0088Y01944D03*
X00966Y01944D03*
X01934Y005D03*
X0088Y02024D03*
X00966Y02024D03*
X02305Y0053D03*
X0218Y0151D03*
Y0159D03*
X0309Y0105D03*
Y0113D03*
X03229Y0066D03*
X03224Y01D03*
X03225Y01215D03*
X03219Y0156D03*
X00809Y02024D03*
Y01944D03*
X02109Y0159D03*
Y0151D03*
X03019Y0105D03*
Y0113D03*
X0348Y02204D03*
X03409D03*
X01037Y01944D03*
Y02024D03*
X00699Y01079D03*
X02005Y005D03*
X00664Y00494D03*
X0329Y0156D03*
X03295Y01215D03*
X03295Y01D03*
X033Y0066D03*
X02234Y0053D03*
G54D80*
X0056Y01931D03*
X0128Y00767D03*
X0143Y00891D03*
X02165Y00761D03*
X0163Y02643D03*
X01699Y02642D03*
X01775Y03216D03*
X0278Y00578D03*
X0241Y00766D03*
X02585Y01926D03*
X0256Y02073D03*
X0249D03*
X02365Y02671D03*
X023D03*
X0296Y02043D03*
X02653Y03035D03*
X0258Y03036D03*
X0243Y03273D03*
X028Y03036D03*
X02735D03*
X03055Y03042D03*
X0341Y02046D03*
X03475D03*
X0312Y03041D03*
Y02978D03*
X03055Y0298D03*
X02365Y02608D03*
X0341Y01983D03*
X01699Y02705D03*
X0243Y03336D03*
X0056Y01868D03*
X023Y02608D03*
X0163Y02706D03*
X03475Y01983D03*
X01775Y03096D03*
Y03033D03*
Y03153D03*
X028Y02973D03*
X0296Y02106D03*
X02653Y02972D03*
X02165Y00698D03*
X0143Y00828D03*
X02735Y02973D03*
X02585Y01863D03*
X0128Y00705D03*
X0258Y02973D03*
X0278Y00688D03*
Y00751D03*
Y00641D03*
X0241Y00703D03*
X01125Y02181D03*
Y02118D03*
X0249Y02136D03*
X0256D03*
G54D81*
X00635Y01935D03*
X012Y00775D03*
X01614Y00749D03*
X01805Y00749D03*
X0171Y00749D03*
X02245Y0077D03*
X0068Y02634D03*
X01165Y02639D03*
X02334Y0077D03*
X00635Y01864D03*
X01805Y0082D03*
X01614Y0082D03*
X0171D03*
X0068Y02705D03*
X01165Y0271D03*
X02245Y00699D03*
X012Y00704D03*
X02334Y00699D03*
G54D82*
X00815Y0129D03*
X0065D03*
G54D83*
X00944Y00715D03*
Y0093D03*
X0118Y01675D03*
X01469D03*
X00655Y00715D03*
Y0093D03*
G54D84*
X01359Y0185D03*
X0224Y01355D03*
X0312Y00905D03*
Y00815D03*
X02129Y01355D03*
X03009Y00815D03*
Y00905D03*
X0147Y0185D03*
G54D85*
X01455Y00541D03*
X0203Y01206D03*
X02345Y02188D03*
Y02251D03*
X0241D03*
Y02188D03*
X00775Y02907D03*
Y03096D03*
X0113Y03081D03*
Y02908D03*
X0217Y02096D03*
X00615Y02173D03*
Y02346D03*
Y02283D03*
Y02236D03*
X0329Y02895D03*
Y02957D03*
X00775Y0297D03*
Y03033D03*
X0113Y03018D03*
Y02971D03*
X01455Y00478D03*
X0204Y00985D03*
Y00922D03*
X0203Y01143D03*
X0217Y02033D03*
G54D86*
X01379Y00547D03*
X02356Y03132D03*
X02435Y03095D03*
X013Y0051D03*
X01379Y00472D03*
X02435Y0317D03*
G54D87*
X01625Y00447D03*
X01805D03*
X01625Y00612D03*
X01805D03*
G54D88*
X01477Y01073D03*
X01452D03*
X01477Y01226D03*
X01503D03*
X01452D03*
X01426D03*
Y01073D03*
X01503D03*
G54D89*
X01541Y01137D03*
X01388D03*
Y01188D03*
Y01162D03*
X01541D03*
Y01188D03*
X01388Y01111D03*
X01541D03*
G54D90*
X01465Y0115D03*
G54D91*
X01892Y01934D03*
X02078Y02084D03*
X01892Y01984D03*
X02078D03*
Y01934D03*
Y02034D03*
X01892D03*
Y02084D03*
G54D92*
X00901Y02149D03*
X00942D03*
X00861D03*
X02315Y02405D03*
X02354D03*
X00981Y02149D03*
X02315Y02355D03*
X02354D03*
X02315Y02455D03*
X02354D03*
X02315Y02305D03*
X02354D03*
X02315Y02505D03*
X02354D03*
G54D93*
X01025Y03058D03*
Y02981D03*
X00863D03*
Y03058D03*
X01025Y03032D03*
Y03007D03*
X00863Y03032D03*
Y03007D03*
G54D94*
X00991Y03262D03*
X0204Y03255D03*
X02187D03*
X01138Y03262D03*
X01089D03*
X0104D03*
X02138Y03255D03*
X02089D03*
G54D95*
X0089Y03377D03*
X01239D03*
X01939Y03369D03*
X02288D03*
G54D96*
X01612Y02393D03*
X01702Y02318D03*
Y02393D03*
X01612Y02318D03*
G54D97*
X01467Y03016D03*
Y0299D03*
X01692Y03016D03*
Y03067D03*
Y03092D03*
Y03118D03*
X01467Y03041D03*
Y03067D03*
Y03092D03*
Y03118D03*
Y03143D03*
Y03169D03*
X01692D03*
Y03143D03*
Y03041D03*
Y0299D03*
G54D98*
X0153Y02655D03*
Y02705D03*
X01341Y02755D03*
Y02705D03*
Y02655D03*
Y02605D03*
X0153Y02755D03*
Y02605D03*
G54D99*
X01833Y02305D03*
X022Y02605D03*
Y02255D03*
Y02305D03*
Y02355D03*
Y02405D03*
Y02455D03*
Y02505D03*
Y02655D03*
Y02705D03*
X01833Y02255D03*
Y02355D03*
Y02405D03*
Y02455D03*
Y02505D03*
Y02555D03*
Y02605D03*
Y02655D03*
Y02705D03*
X022Y02555D03*
G54D100*
X0224Y01255D03*
Y01145D03*
G54D101*
X02937Y0186D03*
X02662D03*
G54D102*
X03055Y01444D03*
Y01635D03*
G54D103*
X03195Y0047D03*
X0097Y0163D03*
X0097Y01815D03*
X00779D03*
X00779Y0163D03*
X03385Y0047D03*
G54D104*
X03383Y00825D03*
Y00874D03*
X0338Y01378D03*
Y01428D03*
X03383Y00923D03*
Y00973D03*
Y00776D03*
Y00727D03*
X0338Y01329D03*
Y0128D03*
Y01477D03*
Y01526D03*
G54D105*
X03497Y00626D03*
X03495Y0118D03*
X03497Y01073D03*
X03495Y01626D03*
G54D106*
X02345Y0203D03*
X02307D03*
X02382Y0212D03*
X02345D03*
X02307D03*
X02382Y0203D03*
G54D107*
X02684Y02892D03*
X0281Y02292D03*
X02999Y02892D03*
X02779Y02292D03*
X03031Y02892D03*
X03062Y02292D03*
X02873D03*
X02842D03*
X02716D03*
X02684D03*
X0281Y02892D03*
X02842D03*
X03062D03*
X03094D03*
X03125Y02292D03*
X03094D03*
X03031D03*
X02653D03*
X02936Y02892D03*
X02999Y02292D03*
X02968Y02892D03*
X02873D03*
X02905D03*
X03125D03*
X02968Y02292D03*
X02747Y02892D03*
X02653D03*
X02779D03*
X02716D03*
X02936Y02292D03*
X02905D03*
X02747D03*
G54D108*
X03185Y0198D03*
X03335D03*
Y02175D03*
X03285D03*
X03235D03*
X03185D03*
X03235Y0198D03*
X03285D03*
G54D109*
X03365Y02891D03*
Y02958D03*
G54D110*
X03189Y02419D03*
X02589Y02797D03*
Y02765D03*
X03189Y02797D03*
X02589Y02639D03*
Y02356D03*
X03189Y02734D03*
Y02482D03*
Y02765D03*
Y02671D03*
Y02639D03*
Y02608D03*
Y02576D03*
Y02387D03*
Y02356D03*
X02589Y02387D03*
X03189Y02828D03*
X02589Y02702D03*
Y02482D03*
Y02734D03*
Y02419D03*
Y02671D03*
Y0245D03*
Y02513D03*
X03189Y0245D03*
Y02513D03*
Y02702D03*
X02589Y02545D03*
Y02576D03*
Y02608D03*
Y02828D03*
X03189Y02545D03*
G54D111*
X01589Y01346D03*
Y01393D03*
X0147Y01346D03*
Y01393D03*
X0124D03*
Y01346D03*
X01359Y01393D03*
Y01346D03*
G54D112*
X02432Y02975D03*
X02497D03*
G54D113*
X01785Y01472D03*
X02005Y01475D03*
X02909Y01002D03*
X0269Y01D03*
X0083Y0258D03*
X0102D03*
G54D114*
X01658Y01239D03*
X01611D03*
X01658Y0112D03*
X01611D03*
X01223Y01115D03*
X01176D03*
Y01234D03*
X01223D03*
G54D115*
X01469Y0199D03*
X01229D03*
G54D116*
X0144Y02185D03*
G54D117*
X02425Y0052D03*
X02108Y00923D03*
G54D118*
X01019Y02795D03*
X0113D03*
X0083D03*
X00719D03*
G54D119*
X0124Y0137D03*
X01359D03*
X0147D03*
X01589D03*
G54D120*
X01635Y01239D03*
Y0112D03*
X012Y01234D03*
Y01115D03*
G54D121*
X02555Y0221D03*
X02495D03*
G54D122*
X02875Y0309D03*
Y03129D03*
X0292Y0309D03*
Y03129D03*
X02965Y0309D03*
Y03129D03*
X0301Y0309D03*
Y03129D03*
G54D123*
X00139Y00346D03*
X0014Y03255D03*
X03515Y00196D03*
X03514Y03346D03*
G54D124*
X0024Y01946D03*
X0014D03*
X0024Y02046D03*
X0014D03*
Y02946D03*
X0024D03*
X0034Y01846D03*
X0014Y01746D03*
Y01846D03*
X0024Y01746D03*
Y01846D03*
X0044Y02746D03*
Y02646D03*
Y02046D03*
X0034D03*
X0044Y02146D03*
X0034D03*
X0044Y02946D03*
X0034D03*
X0044Y01846D03*
Y01746D03*
X0034D03*
Y01146D03*
X0044Y01246D03*
Y01146D03*
Y01046D03*
Y00946D03*
X0034Y00746D03*
X0044Y01546D03*
Y01646D03*
X0034Y01246D03*
X0044Y01446D03*
X0034D03*
Y01546D03*
Y01646D03*
X0044Y01946D03*
X0034D03*
X0044Y02246D03*
X0034D03*
Y02446D03*
Y02546D03*
X0044Y02846D03*
X0034D03*
X0044Y03046D03*
X0034D03*
Y00546D03*
Y00646D03*
X0044Y00746D03*
Y00846D03*
X0034D03*
Y01046D03*
Y00946D03*
Y02646D03*
Y02746D03*
X0044Y02446D03*
Y02546D03*
Y00646D03*
Y01346D03*
X0034D03*
Y02346D03*
X0044D03*
X0014Y02146D03*
X0024D03*
X0014Y02646D03*
X0024Y02546D03*
Y02646D03*
Y02746D03*
Y02446D03*
X0014Y02746D03*
X0024Y00646D03*
X0014Y01146D03*
X0024Y01246D03*
Y01146D03*
Y01046D03*
Y00946D03*
X0014Y00746D03*
Y01246D03*
X0024Y02246D03*
X0014D03*
Y02446D03*
Y02546D03*
X0024Y02846D03*
X0014D03*
X0024Y03046D03*
X0014D03*
Y00546D03*
Y00646D03*
X0024Y00746D03*
Y00846D03*
X0014D03*
Y01046D03*
Y00946D03*
X0024Y02346D03*
X0014D03*
Y01346D03*
X0024D03*
X0014Y01446D03*
Y01546D03*
Y01646D03*
X0024Y01546D03*
Y01646D03*
Y01446D03*
G54D125*
X02692Y03335D03*
X02613D03*
X02687Y0323D03*
X02608D03*
X0253D03*
X02771Y03335D03*
G54D126*
X01785Y0031D03*
X0268D03*
X02215D03*
X0131D03*
X0075D03*
G54D127*
X01685Y0031D03*
X0065D03*
X0121D03*
X02115D03*
X0258D03*
G54D128*
X02766Y0323D03*
X02535Y03335D03*
G54D129*
X0044Y00546D03*
X0024D03*
M02*