%FSTAX23Y23*%
%MOIN*%
%SFA1B1*%

%IPPOS*%
%ADD15C,0.005000*%
%ADD158C,0.006665*%
%LNdal_dpu_drawing_1-1*%
%LPD*%
G54D15*
X00119Y00326D02*
Y00366D01*
X00159*
Y00326*
X00119*
X00127Y00334D02*
Y00358D01*
X00151*
Y00334*
X00127*
X0022Y01926D02*
Y01966D01*
X0026*
Y01926*
X0022*
X0012D02*
Y01966D01*
X0016*
Y01926*
X0012*
X0022Y02026D02*
Y02066D01*
X0026*
Y02026*
X0022*
X0012D02*
Y02066D01*
X0016*
Y02026*
X0012*
Y02926D02*
Y02966D01*
X0016*
Y02926*
X0012*
X0012Y03235D02*
Y03275D01*
X0016*
Y03235*
X0012*
X00128Y03243D02*
Y03267D01*
X00152*
Y03243*
X00128*
X0022Y02926D02*
Y02966D01*
X0026*
Y02926*
X0022*
X03495Y00176D02*
Y00216D01*
X03535*
Y00176*
X03495*
X03503Y00184D02*
Y00208D01*
X03527*
Y00184*
X03503*
X02672Y03335D02*
X02692Y03355D01*
X02712Y03335*
X02692Y03315*
X02672Y03335*
X03494Y03326D02*
Y03366D01*
X03534*
Y03326*
X03494*
X03502Y03334D02*
Y03358D01*
X03526*
Y03334*
X03502*
X01765Y0029D02*
X01775Y0031D01*
X01765Y0033*
X01785Y0032*
X01805Y0033*
X01795Y0031*
X01805Y0029*
X01785Y003*
X01765Y0029*
X0266D02*
X0267Y0031D01*
X0266Y0033*
X0268Y0032*
X027Y0033*
X0269Y0031*
X027Y0029*
X0268Y003*
X0266Y0029*
X02195D02*
X02205Y0031D01*
X02195Y0033*
X02215Y0032*
X02235Y0033*
X02225Y0031*
X02235Y0029*
X02215Y003*
X02195Y0029*
X0129D02*
X013Y0031D01*
X0129Y0033*
X0131Y0032*
X0133Y0033*
X0132Y0031*
X0133Y0029*
X0131Y003*
X0129Y0029*
X0073D02*
X0074Y0031D01*
X0073Y0033*
X0075Y0032*
X0077Y0033*
X0076Y0031*
X0077Y0029*
X0075Y003*
X0073Y0029*
X0032Y01826D02*
Y01866D01*
X0036*
Y01826*
X0032*
X0012Y01726D02*
Y01766D01*
X0016*
Y01726*
X0012*
Y01826D02*
Y01866D01*
X0016*
Y01826*
X0012*
X0022Y01726D02*
Y01766D01*
X0026*
Y01726*
X0022*
Y01826D02*
Y01866D01*
X0026*
Y01826*
X0022*
X02593Y03335D02*
X02613Y03355D01*
X02633Y03335*
X02613Y03315*
X02593Y03335*
X01665Y0029D02*
X01675Y0031D01*
X01665Y0033*
X01685Y0032*
X01705Y0033*
X01695Y0031*
X01705Y0029*
X01685Y003*
X01665Y0029*
X0063D02*
X0064Y0031D01*
X0063Y0033*
X0065Y0032*
X0067Y0033*
X0066Y0031*
X0067Y0029*
X0065Y003*
X0063Y0029*
X0119D02*
X012Y0031D01*
X0119Y0033*
X0121Y0032*
X0123Y0033*
X0122Y0031*
X0123Y0029*
X0121Y003*
X0119Y0029*
X02095D02*
X02105Y0031D01*
X02095Y0033*
X02115Y0032*
X02135Y0033*
X02125Y0031*
X02135Y0029*
X02115Y003*
X02095Y0029*
X0256D02*
X0257Y0031D01*
X0256Y0033*
X0258Y0032*
X026Y0033*
X0259Y0031*
X026Y0029*
X0258Y003*
X0256Y0029*
X02667Y0323D02*
X02687Y0325D01*
X02707Y0323*
X02687Y0321*
X02667Y0323*
X02746D02*
X02766Y0325D01*
X02786Y0323*
X02766Y0321*
X02746Y0323*
X02588D02*
X02608Y0325D01*
X02628Y0323*
X02608Y0321*
X02588Y0323*
X0251D02*
X0253Y0325D01*
X0255Y0323*
X0253Y0321*
X0251Y0323*
X0042Y02726D02*
Y02766D01*
X0046*
Y02726*
X0042*
Y02626D02*
Y02666D01*
X0046*
Y02626*
X0042*
Y02026D02*
Y02066D01*
X0046*
Y02026*
X0042*
X0032D02*
Y02066D01*
X0036*
Y02026*
X0032*
X0042Y02126D02*
Y02166D01*
X0046*
Y02126*
X0042*
X0032D02*
Y02166D01*
X0036*
Y02126*
X0032*
X0042Y02926D02*
Y02966D01*
X0046*
Y02926*
X0042*
X0032D02*
Y02966D01*
X0036*
Y02926*
X0032*
X0042Y01826D02*
Y01866D01*
X0046*
Y01826*
X0042*
Y01726D02*
Y01766D01*
X0046*
Y01726*
X0042*
X0032D02*
Y01766D01*
X0036*
Y01726*
X0032*
Y01126D02*
Y01166D01*
X0036*
Y01126*
X0032*
X0042Y01226D02*
Y01266D01*
X0046*
Y01226*
X0042*
Y01126D02*
Y01166D01*
X0046*
Y01126*
X0042*
Y01026D02*
Y01066D01*
X0046*
Y01026*
X0042*
Y00926D02*
Y00966D01*
X0046*
Y00926*
X0042*
X0032Y00726D02*
Y00766D01*
X0036*
Y00726*
X0032*
X0042Y01526D02*
Y01566D01*
X0046*
Y01526*
X0042*
Y01626D02*
Y01666D01*
X0046*
Y01626*
X0042*
X0032Y01226D02*
Y01266D01*
X0036*
Y01226*
X0032*
X0042Y01426D02*
Y01466D01*
X0046*
Y01426*
X0042*
X0032D02*
Y01466D01*
X0036*
Y01426*
X0032*
Y01526D02*
Y01566D01*
X0036*
Y01526*
X0032*
Y01626D02*
Y01666D01*
X0036*
Y01626*
X0032*
X0042Y01926D02*
Y01966D01*
X0046*
Y01926*
X0042*
X0032D02*
Y01966D01*
X0036*
Y01926*
X0032*
X0042Y02226D02*
Y02266D01*
X0046*
Y02226*
X0042*
X0032D02*
Y02266D01*
X0036*
Y02226*
X0032*
Y02426D02*
Y02466D01*
X0036*
Y02426*
X0032*
Y02526D02*
Y02566D01*
X0036*
Y02526*
X0032*
X0042Y02826D02*
Y02866D01*
X0046*
Y02826*
X0042*
X0032D02*
Y02866D01*
X0036*
Y02826*
X0032*
X0042Y03026D02*
Y03066D01*
X0046*
Y03026*
X0042*
X0032D02*
Y03066D01*
X0036*
Y03026*
X0032*
Y00526D02*
Y00566D01*
X0036*
Y00526*
X0032*
Y00626D02*
Y00666D01*
X0036*
Y00626*
X0032*
X0042Y00726D02*
Y00766D01*
X0046*
Y00726*
X0042*
Y00826D02*
Y00866D01*
X0046*
Y00826*
X0042*
X0032D02*
Y00866D01*
X0036*
Y00826*
X0032*
Y01026D02*
Y01066D01*
X0036*
Y01026*
X0032*
Y00926D02*
Y00966D01*
X0036*
Y00926*
X0032*
Y02626D02*
Y02666D01*
X0036*
Y02626*
X0032*
Y02726D02*
Y02766D01*
X0036*
Y02726*
X0032*
X0042Y02426D02*
Y02466D01*
X0046*
Y02426*
X0042*
Y02526D02*
Y02566D01*
X0046*
Y02526*
X0042*
Y00526D02*
Y00566D01*
X0046*
Y00526*
X0042*
Y00626D02*
Y00666D01*
X0046*
Y00626*
X0042*
Y01326D02*
Y01366D01*
X0046*
Y01326*
X0042*
X0032D02*
Y01366D01*
X0036*
Y01326*
X0032*
Y02326D02*
Y02366D01*
X0036*
Y02326*
X0032*
X0042D02*
Y02366D01*
X0046*
Y02326*
X0042*
X0012Y02126D02*
Y02166D01*
X0016*
Y02126*
X0012*
X0022D02*
Y02166D01*
X0026*
Y02126*
X0022*
X0012Y02626D02*
Y02666D01*
X0016*
Y02626*
X0012*
X0022Y02526D02*
Y02566D01*
X0026*
Y02526*
X0022*
Y02626D02*
Y02666D01*
X0026*
Y02626*
X0022*
Y02726D02*
Y02766D01*
X0026*
Y02726*
X0022*
Y02426D02*
Y02466D01*
X0026*
Y02426*
X0022*
X0012Y02726D02*
Y02766D01*
X0016*
Y02726*
X0012*
X0022Y00626D02*
Y00666D01*
X0026*
Y00626*
X0022*
Y00526D02*
Y00566D01*
X0026*
Y00526*
X0022*
X0012Y01126D02*
Y01166D01*
X0016*
Y01126*
X0012*
X0022Y01226D02*
Y01266D01*
X0026*
Y01226*
X0022*
Y01126D02*
Y01166D01*
X0026*
Y01126*
X0022*
Y01026D02*
Y01066D01*
X0026*
Y01026*
X0022*
Y00926D02*
Y00966D01*
X0026*
Y00926*
X0022*
X0012Y00726D02*
Y00766D01*
X0016*
Y00726*
X0012*
Y01226D02*
Y01266D01*
X0016*
Y01226*
X0012*
X0022Y02226D02*
Y02266D01*
X0026*
Y02226*
X0022*
X0012D02*
Y02266D01*
X0016*
Y02226*
X0012*
Y02426D02*
Y02466D01*
X0016*
Y02426*
X0012*
Y02526D02*
Y02566D01*
X0016*
Y02526*
X0012*
X0022Y02826D02*
Y02866D01*
X0026*
Y02826*
X0022*
X0012D02*
Y02866D01*
X0016*
Y02826*
X0012*
X0022Y03026D02*
Y03066D01*
X0026*
Y03026*
X0022*
X0012D02*
Y03066D01*
X0016*
Y03026*
X0012*
Y00526D02*
Y00566D01*
X0016*
Y00526*
X0012*
Y00626D02*
Y00666D01*
X0016*
Y00626*
X0012*
X0022Y00726D02*
Y00766D01*
X0026*
Y00726*
X0022*
Y00826D02*
Y00866D01*
X0026*
Y00826*
X0022*
X0012D02*
Y00866D01*
X0016*
Y00826*
X0012*
Y01026D02*
Y01066D01*
X0016*
Y01026*
X0012*
Y00926D02*
Y00966D01*
X0016*
Y00926*
X0012*
X0022Y02326D02*
Y02366D01*
X0026*
Y02326*
X0022*
X0012D02*
Y02366D01*
X0016*
Y02326*
X0012*
Y01326D02*
Y01366D01*
X0016*
Y01326*
X0012*
X0022D02*
Y01366D01*
X0026*
Y01326*
X0022*
X0012Y01426D02*
Y01466D01*
X0016*
Y01426*
X0012*
Y01526D02*
Y01566D01*
X0016*
Y01526*
X0012*
Y01626D02*
Y01666D01*
X0016*
Y01626*
X0012*
X0022Y01526D02*
Y01566D01*
X0026*
Y01526*
X0022*
Y01626D02*
Y01666D01*
X0026*
Y01626*
X0022*
Y01426D02*
Y01466D01*
X0026*
Y01426*
X0022*
X02751Y03335D02*
X02771Y03355D01*
X02791Y03335*
X02771Y03315*
X02751Y03335*
X02515D02*
X02535Y03355D01*
X02555Y03335*
X02535Y03315*
X02515Y03335*
X00206Y0002D02*
X00216Y0003D01*
X00226*
X00216Y0004*
X00226Y0005*
X00216*
X00206Y0006*
X00196Y0005*
X00186*
X00196Y0004*
X00186Y0003*
X00196*
X00206Y0002*
X0017D02*
X0018Y0003D01*
X0019*
X0018Y0004*
X0019Y0005*
X0018*
X0017Y0006*
X0016Y0005*
X0015*
X0016Y0004*
X0015Y0003*
X0016*
X0017Y0002*
X00312D02*
X00322Y0003D01*
X00332*
X00322Y0004*
X00332Y0005*
X00322*
X00312Y0006*
X00302Y0005*
X00292*
X00302Y0004*
X00292Y0003*
X00302*
X00312Y0002*
X00241D02*
X00251Y0003D01*
X00261*
X00251Y0004*
X00261Y0005*
X00251*
X00241Y0006*
X00231Y0005*
X00221*
X00231Y0004*
X00221Y0003*
X00231*
X00241Y0002*
X00277D02*
X00287Y0003D01*
X00297*
X00287Y0004*
X00297Y0005*
X00287*
X00277Y0006*
X00267Y0005*
X00257*
X00267Y0004*
X00257Y0003*
X00267*
X00277Y0002*
X00048Y00069D02*
X00058Y00079D01*
X00068*
X00058Y00089*
X00068Y00099*
X00058*
X00048Y00109*
X00038Y00099*
X00028*
X00038Y00089*
X00028Y00079*
X00038*
X00048Y00069*
X0004Y00104D02*
X0005Y00114D01*
X0006*
X0005Y00124*
X0006Y00134*
X0005*
X0004Y00144*
X0003Y00134*
X0002*
X0003Y00124*
X0002Y00114*
X0003*
X0004Y00104*
X00135Y0002D02*
X00145Y0003D01*
X00155*
X00145Y0004*
X00155Y0005*
X00145*
X00135Y0006*
X00125Y0005*
X00115*
X00125Y0004*
X00115Y0003*
X00125*
X00135Y0002*
X00069Y00041D02*
X00079Y00051D01*
X00089*
X00079Y00061*
X00089Y00071*
X00079*
X00069Y00081*
X00059Y00071*
X00049*
X00059Y00061*
X00049Y00051*
X00059*
X00069Y00041*
X001Y00023D02*
X0011Y00033D01*
X0012*
X0011Y00043*
X0012Y00053*
X0011*
X001Y00063*
X0009Y00053*
X0008*
X0009Y00043*
X0008Y00033*
X0009*
X001Y00023*
X0056Y0002D02*
X0057Y0003D01*
X0058*
X0057Y0004*
X0058Y0005*
X0057*
X0056Y0006*
X0055Y0005*
X0054*
X0055Y0004*
X0054Y0003*
X0055*
X0056Y0002*
X00525D02*
X00535Y0003D01*
X00545*
X00535Y0004*
X00545Y0005*
X00535*
X00525Y0006*
X00515Y0005*
X00505*
X00515Y0004*
X00505Y0003*
X00515*
X00525Y0002*
X00667D02*
X00677Y0003D01*
X00687*
X00677Y0004*
X00687Y0005*
X00677*
X00667Y0006*
X00657Y0005*
X00647*
X00657Y0004*
X00647Y0003*
X00657*
X00667Y0002*
X00596D02*
X00606Y0003D01*
X00616*
X00606Y0004*
X00616Y0005*
X00606*
X00596Y0006*
X00586Y0005*
X00576*
X00586Y0004*
X00576Y0003*
X00586*
X00596Y0002*
X00631D02*
X00641Y0003D01*
X00651*
X00641Y0004*
X00651Y0005*
X00641*
X00631Y0006*
X00621Y0005*
X00611*
X00621Y0004*
X00611Y0003*
X00621*
X00631Y0002*
X00383D02*
X00393Y0003D01*
X00403*
X00393Y0004*
X00403Y0005*
X00393*
X00383Y0006*
X00373Y0005*
X00363*
X00373Y0004*
X00363Y0003*
X00373*
X00383Y0002*
X00348D02*
X00358Y0003D01*
X00368*
X00358Y0004*
X00368Y0005*
X00358*
X00348Y0006*
X00338Y0005*
X00328*
X00338Y0004*
X00328Y0003*
X00338*
X00348Y0002*
X00489D02*
X00499Y0003D01*
X00509*
X00499Y0004*
X00509Y0005*
X00499*
X00489Y0006*
X00479Y0005*
X00469*
X00479Y0004*
X00469Y0003*
X00479*
X00489Y0002*
X00419D02*
X00429Y0003D01*
X00439*
X00429Y0004*
X00439Y0005*
X00429*
X00419Y0006*
X00409Y0005*
X00399*
X00409Y0004*
X00399Y0003*
X00409*
X00419Y0002*
X00454D02*
X00464Y0003D01*
X00474*
X00464Y0004*
X00474Y0005*
X00464*
X00454Y0006*
X00444Y0005*
X00434*
X00444Y0004*
X00434Y0003*
X00444*
X00454Y0002*
X00702D02*
X00712Y0003D01*
X00722*
X00712Y0004*
X00722Y0005*
X00712*
X00702Y0006*
X00692Y0005*
X00682*
X00692Y0004*
X00682Y0003*
X00692*
X00702Y0002*
X00773D02*
X00783Y0003D01*
X00793*
X00783Y0004*
X00793Y0005*
X00783*
X00773Y0006*
X00763Y0005*
X00753*
X00763Y0004*
X00753Y0003*
X00763*
X00773Y0002*
X00737D02*
X00747Y0003D01*
X00757*
X00747Y0004*
X00757Y0005*
X00747*
X00737Y0006*
X00727Y0005*
X00717*
X00727Y0004*
X00717Y0003*
X00727*
X00737Y0002*
X00793Y00049D02*
X00803Y00059D01*
X00813*
X00803Y00069*
X00813Y00079*
X00803*
X00793Y00089*
X00783Y00079*
X00773*
X00783Y00069*
X00773Y00059*
X00783*
X00793Y00049*
X00819Y00072D02*
X00829Y00082D01*
X00839*
X00829Y00092*
X00839Y00102*
X00829*
X00819Y00112*
X00809Y00102*
X00799*
X00809Y00092*
X00799Y00082*
X00809*
X00819Y00072*
X00853Y00082D02*
X00863Y00092D01*
X00873*
X00863Y00102*
X00873Y00112*
X00863*
X00853Y00122*
X00843Y00112*
X00833*
X00843Y00102*
X00833Y00092*
X00843*
X00853Y00082*
X01066Y00083D02*
X01076Y00093D01*
X01086*
X01076Y00103*
X01086Y00113*
X01076*
X01066Y00123*
X01056Y00113*
X01046*
X01056Y00103*
X01046Y00093*
X01056*
X01066Y00083*
X00995D02*
X01005Y00093D01*
X01015*
X01005Y00103*
X01015Y00113*
X01005*
X00995Y00123*
X00985Y00113*
X00975*
X00985Y00103*
X00975Y00093*
X00985*
X00995Y00083*
X0103D02*
X0104Y00093D01*
X0105*
X0104Y00103*
X0105Y00113*
X0104*
X0103Y00123*
X0102Y00113*
X0101*
X0102Y00103*
X0101Y00093*
X0102*
X0103Y00083*
X00924D02*
X00934Y00093D01*
X00944*
X00934Y00103*
X00944Y00113*
X00934*
X00924Y00123*
X00914Y00113*
X00904*
X00914Y00103*
X00904Y00093*
X00914*
X00924Y00083*
X00889D02*
X00899Y00093D01*
X00909*
X00899Y00103*
X00909Y00113*
X00899*
X00889Y00123*
X00879Y00113*
X00869*
X00879Y00103*
X00869Y00093*
X00879*
X00889Y00083*
X0096D02*
X0097Y00093D01*
X0098*
X0097Y00103*
X0098Y00113*
X0097*
X0096Y00123*
X0095Y00113*
X0094*
X0095Y00103*
X0094Y00093*
X0095*
X0096Y00083*
X01279D02*
X01289Y00093D01*
X01299*
X01289Y00103*
X01299Y00113*
X01289*
X01279Y00123*
X01269Y00113*
X01259*
X01269Y00103*
X01259Y00093*
X01269*
X01279Y00083*
X01243D02*
X01253Y00093D01*
X01263*
X01253Y00103*
X01263Y00113*
X01253*
X01243Y00123*
X01233Y00113*
X01223*
X01233Y00103*
X01223Y00093*
X01233*
X01243Y00083*
X01385D02*
X01395Y00093D01*
X01405*
X01395Y00103*
X01405Y00113*
X01395*
X01385Y00123*
X01375Y00113*
X01365*
X01375Y00103*
X01365Y00093*
X01375*
X01385Y00083*
X01314D02*
X01324Y00093D01*
X01334*
X01324Y00103*
X01334Y00113*
X01324*
X01314Y00123*
X01304Y00113*
X01294*
X01304Y00103*
X01294Y00093*
X01304*
X01314Y00083*
X01349D02*
X01359Y00093D01*
X01369*
X01359Y00103*
X01369Y00113*
X01359*
X01349Y00123*
X01339Y00113*
X01329*
X01339Y00103*
X01329Y00093*
X01339*
X01349Y00083*
X01101D02*
X01111Y00093D01*
X01121*
X01111Y00103*
X01121Y00113*
X01111*
X01101Y00123*
X01091Y00113*
X01081*
X01091Y00103*
X01081Y00093*
X01091*
X01101Y00083*
X01208D02*
X01218Y00093D01*
X01228*
X01218Y00103*
X01228Y00113*
X01218*
X01208Y00123*
X01198Y00113*
X01188*
X01198Y00103*
X01188Y00093*
X01198*
X01208Y00083*
X01137D02*
X01147Y00093D01*
X01157*
X01147Y00103*
X01157Y00113*
X01147*
X01137Y00123*
X01127Y00113*
X01117*
X01127Y00103*
X01117Y00093*
X01127*
X01137Y00083*
X01172D02*
X01182Y00093D01*
X01192*
X01182Y00103*
X01192Y00113*
X01182*
X01172Y00123*
X01162Y00113*
X01152*
X01162Y00103*
X01152Y00093*
X01162*
X01172Y00083*
X0004Y0021D02*
X0005Y0022D01*
X0006*
X0005Y0023*
X0006Y0024*
X0005*
X0004Y0025*
X0003Y0024*
X0002*
X0003Y0023*
X0002Y0022*
X0003*
X0004Y0021*
Y00245D02*
X0005Y00255D01*
X0006*
X0005Y00265*
X0006Y00275*
X0005*
X0004Y00285*
X0003Y00275*
X0002*
X0003Y00265*
X0002Y00255*
X0003*
X0004Y00245*
Y00139D02*
X0005Y00149D01*
X0006*
X0005Y00159*
X0006Y00169*
X0005*
X0004Y00179*
X0003Y00169*
X0002*
X0003Y00159*
X0002Y00149*
X0003*
X0004Y00139*
Y00174D02*
X0005Y00184D01*
X0006*
X0005Y00194*
X0006Y00204*
X0005*
X0004Y00214*
X0003Y00204*
X0002*
X0003Y00194*
X0002Y00184*
X0003*
X0004Y00174*
Y00316D02*
X0005Y00326D01*
X0006*
X0005Y00336*
X0006Y00346*
X0005*
X0004Y00356*
X0003Y00346*
X0002*
X0003Y00336*
X0002Y00326*
X0003*
X0004Y00316*
Y00281D02*
X0005Y00291D01*
X0006*
X0005Y00301*
X0006Y00311*
X0005*
X0004Y00321*
X0003Y00311*
X0002*
X0003Y00301*
X0002Y00291*
X0003*
X0004Y00281*
Y00352D02*
X0005Y00362D01*
X0006*
X0005Y00372*
X0006Y00382*
X0005*
X0004Y00392*
X0003Y00382*
X0002*
X0003Y00372*
X0002Y00362*
X0003*
X0004Y00352*
X01633Y00083D02*
X01643Y00093D01*
X01653*
X01643Y00103*
X01653Y00113*
X01643*
X01633Y00123*
X01623Y00113*
X01613*
X01623Y00103*
X01613Y00093*
X01623*
X01633Y00083*
X01597D02*
X01607Y00093D01*
X01617*
X01607Y00103*
X01617Y00113*
X01607*
X01597Y00123*
X01587Y00113*
X01577*
X01587Y00103*
X01577Y00093*
X01587*
X01597Y00083*
X01704D02*
X01714Y00093D01*
X01724*
X01714Y00103*
X01724Y00113*
X01714*
X01704Y00123*
X01694Y00113*
X01684*
X01694Y00103*
X01684Y00093*
X01694*
X01704Y00083*
X01668D02*
X01678Y00093D01*
X01688*
X01678Y00103*
X01688Y00113*
X01678*
X01668Y00123*
X01658Y00113*
X01648*
X01658Y00103*
X01648Y00093*
X01658*
X01668Y00083*
X01739D02*
X01749Y00093D01*
X01759*
X01749Y00103*
X01759Y00113*
X01749*
X01739Y00123*
X01729Y00113*
X01719*
X01729Y00103*
X01719Y00093*
X01729*
X01739Y00083*
X0142D02*
X0143Y00093D01*
X0144*
X0143Y00103*
X0144Y00113*
X0143*
X0142Y00123*
X0141Y00113*
X014*
X0141Y00103*
X014Y00093*
X0141*
X0142Y00083*
X01491D02*
X01501Y00093D01*
X01511*
X01501Y00103*
X01511Y00113*
X01501*
X01491Y00123*
X01481Y00113*
X01471*
X01481Y00103*
X01471Y00093*
X01481*
X01491Y00083*
X01456D02*
X01466Y00093D01*
X01476*
X01466Y00103*
X01476Y00113*
X01466*
X01456Y00123*
X01446Y00113*
X01436*
X01446Y00103*
X01436Y00093*
X01446*
X01456Y00083*
X01562D02*
X01572Y00093D01*
X01582*
X01572Y00103*
X01582Y00113*
X01572*
X01562Y00123*
X01552Y00113*
X01542*
X01552Y00103*
X01542Y00093*
X01552*
X01562Y00083*
X01527D02*
X01537Y00093D01*
X01547*
X01537Y00103*
X01547Y00113*
X01537*
X01527Y00123*
X01517Y00113*
X01507*
X01517Y00103*
X01507Y00093*
X01517*
X01527Y00083*
X01775D02*
X01785Y00093D01*
X01795*
X01785Y00103*
X01795Y00113*
X01785*
X01775Y00123*
X01765Y00113*
X01755*
X01765Y00103*
X01755Y00093*
X01765*
X01775Y00083*
X01881D02*
X01891Y00093D01*
X01901*
X01891Y00103*
X01901Y00113*
X01891*
X01881Y00123*
X01871Y00113*
X01861*
X01871Y00103*
X01861Y00093*
X01871*
X01881Y00083*
X01845D02*
X01855Y00093D01*
X01865*
X01855Y00103*
X01865Y00113*
X01855*
X01845Y00123*
X01835Y00113*
X01825*
X01835Y00103*
X01825Y00093*
X01835*
X01845Y00083*
X01987D02*
X01997Y00093D01*
X02007*
X01997Y00103*
X02007Y00113*
X01997*
X01987Y00123*
X01977Y00113*
X01967*
X01977Y00103*
X01967Y00093*
X01977*
X01987Y00083*
X01916D02*
X01926Y00093D01*
X01936*
X01926Y00103*
X01936Y00113*
X01926*
X01916Y00123*
X01906Y00113*
X01896*
X01906Y00103*
X01896Y00093*
X01906*
X01916Y00083*
X01952D02*
X01962Y00093D01*
X01972*
X01962Y00103*
X01972Y00113*
X01962*
X01952Y00123*
X01942Y00113*
X01932*
X01942Y00103*
X01932Y00093*
X01942*
X01952Y00083*
X0181D02*
X0182Y00093D01*
X0183*
X0182Y00103*
X0183Y00113*
X0182*
X0181Y00123*
X018Y00113*
X0179*
X018Y00103*
X0179Y00093*
X018*
X0181Y00083*
X02023D02*
X02033Y00093D01*
X02043*
X02033Y00103*
X02043Y00113*
X02033*
X02023Y00123*
X02013Y00113*
X02003*
X02013Y00103*
X02003Y00093*
X02013*
X02023Y00083*
X02058D02*
X02068Y00093D01*
X02078*
X02068Y00103*
X02078Y00113*
X02068*
X02058Y00123*
X02048Y00113*
X02038*
X02048Y00103*
X02038Y00093*
X02048*
X02058Y00083*
X02093D02*
X02103Y00093D01*
X02113*
X02103Y00103*
X02113Y00113*
X02103*
X02093Y00123*
X02083Y00113*
X02073*
X02083Y00103*
X02073Y00093*
X02083*
X02093Y00083*
X02129D02*
X02139Y00093D01*
X02149*
X02139Y00103*
X02149Y00113*
X02139*
X02129Y00123*
X02119Y00113*
X02109*
X02119Y00103*
X02109Y00093*
X02119*
X02129Y00083*
X02164D02*
X02174Y00093D01*
X02184*
X02174Y00103*
X02184Y00113*
X02174*
X02164Y00123*
X02154Y00113*
X02144*
X02154Y00103*
X02144Y00093*
X02154*
X02164Y00083*
X022D02*
X0221Y00093D01*
X0222*
X0221Y00103*
X0222Y00113*
X0221*
X022Y00123*
X0219Y00113*
X0218*
X0219Y00103*
X0218Y00093*
X0219*
X022Y00083*
X02235D02*
X02245Y00093D01*
X02255*
X02245Y00103*
X02255Y00113*
X02245*
X02235Y00123*
X02225Y00113*
X02215*
X02225Y00103*
X02215Y00093*
X02225*
X02235Y00083*
X0004Y03267D02*
X0005Y03277D01*
X0006*
X0005Y03287*
X0006Y03297*
X0005*
X0004Y03307*
X0003Y03297*
X0002*
X0003Y03287*
X0002Y03277*
X0003*
X0004Y03267*
Y03232D02*
X0005Y03242D01*
X0006*
X0005Y03252*
X0006Y03262*
X0005*
X0004Y03272*
X0003Y03262*
X0002*
X0003Y03252*
X0002Y03242*
X0003*
X0004Y03232*
Y03196D02*
X0005Y03206D01*
X0006*
X0005Y03216*
X0006Y03226*
X0005*
X0004Y03236*
X0003Y03226*
X0002*
X0003Y03216*
X0002Y03206*
X0003*
X0004Y03196*
Y03338D02*
X0005Y03348D01*
X0006*
X0005Y03358*
X0006Y03368*
X0005*
X0004Y03378*
X0003Y03368*
X0002*
X0003Y03358*
X0002Y03348*
X0003*
X0004Y03338*
Y03303D02*
X0005Y03313D01*
X0006*
X0005Y03323*
X0006Y03333*
X0005*
X0004Y03343*
X0003Y03333*
X0002*
X0003Y03323*
X0002Y03313*
X0003*
X0004Y03303*
Y03374D02*
X0005Y03384D01*
X0006*
X0005Y03394*
X0006Y03404*
X0005*
X0004Y03414*
X0003Y03404*
X0002*
X0003Y03394*
X0002Y03384*
X0003*
X0004Y03374*
X0004Y03409D02*
X0005Y03419D01*
X0006*
X0005Y03429*
X0006Y03439*
X0005*
X0004Y03449*
X0003Y03439*
X0002*
X0003Y03429*
X0002Y03419*
X0003*
X0004Y03409*
X00053Y03442D02*
X00063Y03452D01*
X00073*
X00063Y03462*
X00073Y03472*
X00063*
X00053Y03482*
X00043Y03472*
X00033*
X00043Y03462*
X00033Y03452*
X00043*
X00053Y03442*
X00077Y03468D02*
X00087Y03478D01*
X00097*
X00087Y03488*
X00097Y03498*
X00087*
X00077Y03508*
X00067Y03498*
X00057*
X00067Y03488*
X00057Y03478*
X00067*
X00077Y03468*
X0011Y03481D02*
X0012Y03491D01*
X0013*
X0012Y03501*
X0013Y03511*
X0012*
X0011Y03521*
X001Y03511*
X0009*
X001Y03501*
X0009Y03491*
X001*
X0011Y03481*
X00181Y03483D02*
X00191Y03493D01*
X00201*
X00191Y03503*
X00201Y03513*
X00191*
X00181Y03523*
X00171Y03513*
X00161*
X00171Y03503*
X00161Y03493*
X00171*
X00181Y03483*
X00287D02*
X00297Y03493D01*
X00307*
X00297Y03503*
X00307Y03513*
X00297*
X00287Y03523*
X00277Y03513*
X00267*
X00277Y03503*
X00267Y03493*
X00277*
X00287Y03483*
X00216D02*
X00226Y03493D01*
X00236*
X00226Y03503*
X00236Y03513*
X00226*
X00216Y03523*
X00206Y03513*
X00196*
X00206Y03503*
X00196Y03493*
X00206*
X00216Y03483*
X00252D02*
X00262Y03493D01*
X00272*
X00262Y03503*
X00272Y03513*
X00262*
X00252Y03523*
X00242Y03513*
X00232*
X00242Y03503*
X00232Y03493*
X00242*
X00252Y03483*
X00145D02*
X00155Y03493D01*
X00165*
X00155Y03503*
X00165Y03513*
X00155*
X00145Y03523*
X00135Y03513*
X00125*
X00135Y03503*
X00125Y03493*
X00135*
X00145Y03483*
X00464D02*
X00474Y03493D01*
X00484*
X00474Y03503*
X00484Y03513*
X00474*
X00464Y03523*
X00454Y03513*
X00444*
X00454Y03503*
X00444Y03493*
X00454*
X00464Y03483*
X00429D02*
X00439Y03493D01*
X00449*
X00439Y03503*
X00449Y03513*
X00439*
X00429Y03523*
X00419Y03513*
X00409*
X00419Y03503*
X00409Y03493*
X00419*
X00429Y03483*
X0057D02*
X0058Y03493D01*
X0059*
X0058Y03503*
X0059Y03513*
X0058*
X0057Y03523*
X0056Y03513*
X0055*
X0056Y03503*
X0055Y03493*
X0056*
X0057Y03483*
X005D02*
X0051Y03493D01*
X0052*
X0051Y03503*
X0052Y03513*
X0051*
X005Y03523*
X0049Y03513*
X0048*
X0049Y03503*
X0048Y03493*
X0049*
X005Y03483*
X00535D02*
X00545Y03493D01*
X00555*
X00545Y03503*
X00555Y03513*
X00545*
X00535Y03523*
X00525Y03513*
X00515*
X00525Y03503*
X00515Y03493*
X00525*
X00535Y03483*
X00393D02*
X00403Y03493D01*
X00413*
X00403Y03503*
X00413Y03513*
X00403*
X00393Y03523*
X00383Y03513*
X00373*
X00383Y03503*
X00373Y03493*
X00383*
X00393Y03483*
X00322D02*
X00332Y03493D01*
X00342*
X00332Y03503*
X00342Y03513*
X00332*
X00322Y03523*
X00312Y03513*
X00302*
X00312Y03503*
X00302Y03493*
X00312*
X00322Y03483*
X00358D02*
X00368Y03493D01*
X00378*
X00368Y03503*
X00378Y03513*
X00368*
X00358Y03523*
X00348Y03513*
X00338*
X00348Y03503*
X00338Y03493*
X00348*
X00358Y03483*
X00865Y0342D02*
X00875Y0343D01*
X00885*
X00875Y0344*
X00885Y0345*
X00875*
X00865Y0346*
X00855Y0345*
X00845*
X00855Y0344*
X00845Y0343*
X00855*
X00865Y0342*
X00901D02*
X00911Y0343D01*
X00921*
X00911Y0344*
X00921Y0345*
X00911*
X00901Y0346*
X00891Y0345*
X00881*
X00891Y0344*
X00881Y0343*
X00891*
X00901Y0342*
X00936D02*
X00946Y0343D01*
X00956*
X00946Y0344*
X00956Y0345*
X00946*
X00936Y0346*
X00926Y0345*
X00916*
X00926Y0344*
X00916Y0343*
X00926*
X00936Y0342*
X00972D02*
X00982Y0343D01*
X00992*
X00982Y0344*
X00992Y0345*
X00982*
X00972Y0346*
X00962Y0345*
X00952*
X00962Y0344*
X00952Y0343*
X00962*
X00972Y0342*
X01007D02*
X01017Y0343D01*
X01027*
X01017Y0344*
X01027Y0345*
X01017*
X01007Y0346*
X00997Y0345*
X00987*
X00997Y0344*
X00987Y0343*
X00997*
X01007Y0342*
X00677Y03483D02*
X00687Y03493D01*
X00697*
X00687Y03503*
X00697Y03513*
X00687*
X00677Y03523*
X00667Y03513*
X00657*
X00667Y03503*
X00657Y03493*
X00667*
X00677Y03483*
X00641D02*
X00651Y03493D01*
X00661*
X00651Y03503*
X00661Y03513*
X00651*
X00641Y03523*
X00631Y03513*
X00621*
X00631Y03503*
X00621Y03493*
X00631*
X00641Y03483*
X00782Y03474D02*
X00792Y03484D01*
X00802*
X00792Y03494*
X00802Y03504*
X00792*
X00782Y03514*
X00772Y03504*
X00762*
X00772Y03494*
X00762Y03484*
X00772*
X00782Y03474*
X00712Y03483D02*
X00722Y03493D01*
X00732*
X00722Y03503*
X00732Y03513*
X00722*
X00712Y03523*
X00702Y03513*
X00692*
X00702Y03503*
X00692Y03493*
X00702*
X00712Y03483*
X00748D02*
X00758Y03493D01*
X00768*
X00758Y03503*
X00768Y03513*
X00758*
X00748Y03523*
X00738Y03513*
X00728*
X00738Y03503*
X00728Y03493*
X00738*
X00748Y03483*
X00606D02*
X00616Y03493D01*
X00626*
X00616Y03503*
X00626Y03513*
X00616*
X00606Y03523*
X00596Y03513*
X00586*
X00596Y03503*
X00586Y03493*
X00596*
X00606Y03483*
X01042Y0342D02*
X01052Y0343D01*
X01062*
X01052Y0344*
X01062Y0345*
X01052*
X01042Y0346*
X01032Y0345*
X01022*
X01032Y0344*
X01022Y0343*
X01032*
X01042Y0342*
X01078D02*
X01088Y0343D01*
X01098*
X01088Y0344*
X01098Y0345*
X01088*
X01078Y0346*
X01068Y0345*
X01058*
X01068Y0344*
X01058Y0343*
X01068*
X01078Y0342*
X01113D02*
X01123Y0343D01*
X01133*
X01123Y0344*
X01133Y0345*
X01123*
X01113Y0346*
X01103Y0345*
X01093*
X01103Y0344*
X01093Y0343*
X01103*
X01113Y0342*
X01149D02*
X01159Y0343D01*
X01169*
X01159Y0344*
X01169Y0345*
X01159*
X01149Y0346*
X01139Y0345*
X01129*
X01139Y0344*
X01129Y0343*
X01139*
X01149Y0342*
X01184Y0342D02*
X01194Y0343D01*
X01204*
X01194Y0344*
X01204Y0345*
X01194*
X01184Y0346*
X01174Y0345*
X01164*
X01174Y0344*
X01164Y0343*
X01174*
X01184Y0342*
X008Y03444D02*
X0081Y03454D01*
X0082*
X0081Y03464*
X0082Y03474*
X0081*
X008Y03484*
X0079Y03474*
X0078*
X0079Y03464*
X0078Y03454*
X0079*
X008Y03444*
X0122Y0342D02*
X0123Y0343D01*
X0124*
X0123Y0344*
X0124Y0345*
X0123*
X0122Y0346*
X0121Y0345*
X012*
X0121Y0344*
X012Y0343*
X0121*
X0122Y0342*
X0083Y03425D02*
X0084Y03435D01*
X0085*
X0084Y03445*
X0085Y03455*
X0084*
X0083Y03465*
X0082Y03455*
X0081*
X0082Y03445*
X0081Y03435*
X0082*
X0083Y03425*
X01255Y0342D02*
X01265Y0343D01*
X01275*
X01265Y0344*
X01275Y0345*
X01265*
X01255Y0346*
X01245Y0345*
X01235*
X01245Y0344*
X01235Y0343*
X01245*
X01255Y0342*
X0129D02*
X013Y0343D01*
X0131*
X013Y0344*
X0131Y0345*
X013*
X0129Y0346*
X0128Y0345*
X0127*
X0128Y0344*
X0127Y0343*
X0128*
X0129Y0342*
X01326D02*
X01336Y0343D01*
X01346*
X01336Y0344*
X01346Y0345*
X01336*
X01326Y0346*
X01316Y0345*
X01306*
X01316Y0344*
X01306Y0343*
X01316*
X01326Y0342*
X01361D02*
X01371Y0343D01*
X01381*
X01371Y0344*
X01381Y0345*
X01371*
X01361Y0346*
X01351Y0345*
X01341*
X01351Y0344*
X01341Y0343*
X01351*
X01361Y0342*
X01397D02*
X01407Y0343D01*
X01417*
X01407Y0344*
X01417Y0345*
X01407*
X01397Y0346*
X01387Y0345*
X01377*
X01387Y0344*
X01377Y0343*
X01387*
X01397Y0342*
X01432D02*
X01442Y0343D01*
X01452*
X01442Y0344*
X01452Y0345*
X01442*
X01432Y0346*
X01422Y0345*
X01412*
X01422Y0344*
X01412Y0343*
X01422*
X01432Y0342*
X01468D02*
X01478Y0343D01*
X01488*
X01478Y0344*
X01488Y0345*
X01478*
X01468Y0346*
X01458Y0345*
X01448*
X01458Y0344*
X01448Y0343*
X01458*
X01468Y0342*
X01503D02*
X01513Y0343D01*
X01523*
X01513Y0344*
X01523Y0345*
X01513*
X01503Y0346*
X01493Y0345*
X01483*
X01493Y0344*
X01483Y0343*
X01493*
X01503Y0342*
X01538D02*
X01548Y0343D01*
X01558*
X01548Y0344*
X01558Y0345*
X01548*
X01538Y0346*
X01528Y0345*
X01518*
X01528Y0344*
X01518Y0343*
X01528*
X01538Y0342*
X01574D02*
X01584Y0343D01*
X01594*
X01584Y0344*
X01594Y0345*
X01584*
X01574Y0346*
X01564Y0345*
X01554*
X01564Y0344*
X01554Y0343*
X01564*
X01574Y0342*
X01609D02*
X01619Y0343D01*
X01629*
X01619Y0344*
X01629Y0345*
X01619*
X01609Y0346*
X01599Y0345*
X01589*
X01599Y0344*
X01589Y0343*
X01599*
X01609Y0342*
X01716Y0342D02*
X01726Y0343D01*
X01736*
X01726Y0344*
X01736Y0345*
X01726*
X01716Y0346*
X01706Y0345*
X01696*
X01706Y0344*
X01696Y0343*
X01706*
X01716Y0342*
X01645D02*
X01655Y0343D01*
X01665*
X01655Y0344*
X01665Y0345*
X01655*
X01645Y0346*
X01635Y0345*
X01625*
X01635Y0344*
X01625Y0343*
X01635*
X01645Y0342*
X0168D02*
X0169Y0343D01*
X017*
X0169Y0344*
X017Y0345*
X0169*
X0168Y0346*
X0167Y0345*
X0166*
X0167Y0344*
X0166Y0343*
X0167*
X0168Y0342*
X01964D02*
X01974Y0343D01*
X01984*
X01974Y0344*
X01984Y0345*
X01974*
X01964Y0346*
X01954Y0345*
X01944*
X01954Y0344*
X01944Y0343*
X01954*
X01964Y0342*
X01999D02*
X02009Y0343D01*
X02019*
X02009Y0344*
X02019Y0345*
X02009*
X01999Y0346*
X01989Y0345*
X01979*
X01989Y0344*
X01979Y0343*
X01989*
X01999Y0342*
X01787D02*
X01797Y0343D01*
X01807*
X01797Y0344*
X01807Y0345*
X01797*
X01787Y0346*
X01777Y0345*
X01767*
X01777Y0344*
X01767Y0343*
X01777*
X01787Y0342*
X01751D02*
X01761Y0343D01*
X01771*
X01761Y0344*
X01771Y0345*
X01761*
X01751Y0346*
X01741Y0345*
X01731*
X01741Y0344*
X01731Y0343*
X01741*
X01751Y0342*
X01893D02*
X01903Y0343D01*
X01913*
X01903Y0344*
X01913Y0345*
X01903*
X01893Y0346*
X01883Y0345*
X01873*
X01883Y0344*
X01873Y0343*
X01883*
X01893Y0342*
X01822D02*
X01832Y0343D01*
X01842*
X01832Y0344*
X01842Y0345*
X01832*
X01822Y0346*
X01812Y0345*
X01802*
X01812Y0344*
X01802Y0343*
X01812*
X01822Y0342*
X01857D02*
X01867Y0343D01*
X01877*
X01867Y0344*
X01877Y0345*
X01867*
X01857Y0346*
X01847Y0345*
X01837*
X01847Y0344*
X01837Y0343*
X01847*
X01857Y0342*
X02141D02*
X02151Y0343D01*
X02161*
X02151Y0344*
X02161Y0345*
X02151*
X02141Y0346*
X02131Y0345*
X02121*
X02131Y0344*
X02121Y0343*
X02131*
X02141Y0342*
X02105D02*
X02115Y0343D01*
X02125*
X02115Y0344*
X02125Y0345*
X02115*
X02105Y0346*
X02095Y0345*
X02085*
X02095Y0344*
X02085Y0343*
X02095*
X02105Y0342*
X02247D02*
X02257Y0343D01*
X02267*
X02257Y0344*
X02267Y0345*
X02257*
X02247Y0346*
X02237Y0345*
X02227*
X02237Y0344*
X02227Y0343*
X02237*
X02247Y0342*
X02176D02*
X02186Y0343D01*
X02196*
X02186Y0344*
X02196Y0345*
X02186*
X02176Y0346*
X02166Y0345*
X02156*
X02166Y0344*
X02156Y0343*
X02166*
X02176Y0342*
X02212D02*
X02222Y0343D01*
X02232*
X02222Y0344*
X02232Y0345*
X02222*
X02212Y0346*
X02202Y0345*
X02192*
X02202Y0344*
X02192Y0343*
X02202*
X02212Y0342*
X0207D02*
X0208Y0343D01*
X0209*
X0208Y0344*
X0209Y0345*
X0208*
X0207Y0346*
X0206Y0345*
X0205*
X0206Y0344*
X0205Y0343*
X0206*
X0207Y0342*
X01928D02*
X01938Y0343D01*
X01948*
X01938Y0344*
X01948Y0345*
X01938*
X01928Y0346*
X01918Y0345*
X01908*
X01918Y0344*
X01908Y0343*
X01918*
X01928Y0342*
X02035D02*
X02045Y0343D01*
X02055*
X02045Y0344*
X02055Y0345*
X02045*
X02035Y0346*
X02025Y0345*
X02015*
X02025Y0344*
X02015Y0343*
X02025*
X02035Y0342*
X02271Y00083D02*
X02281Y00093D01*
X02291*
X02281Y00103*
X02291Y00113*
X02281*
X02271Y00123*
X02261Y00113*
X02251*
X02261Y00103*
X02251Y00093*
X02261*
X02271Y00083*
X02306D02*
X02316Y00093D01*
X02326*
X02316Y00103*
X02326Y00113*
X02316*
X02306Y00123*
X02296Y00113*
X02286*
X02296Y00103*
X02286Y00093*
X02296*
X02306Y00083*
X02342D02*
X02352Y00093D01*
X02362*
X02352Y00103*
X02362Y00113*
X02352*
X02342Y00123*
X02332Y00113*
X02322*
X02332Y00103*
X02322Y00093*
X02332*
X02342Y00083*
X02377D02*
X02387Y00093D01*
X02397*
X02387Y00103*
X02397Y00113*
X02387*
X02377Y00123*
X02367Y00113*
X02357*
X02367Y00103*
X02357Y00093*
X02367*
X02377Y00083*
X02412D02*
X02422Y00093D01*
X02432*
X02422Y00103*
X02432Y00113*
X02422*
X02412Y00123*
X02402Y00113*
X02392*
X02402Y00103*
X02392Y00093*
X02402*
X02412Y00083*
X02448Y00083D02*
X02458Y00093D01*
X02468*
X02458Y00103*
X02468Y00113*
X02458*
X02448Y00123*
X02438Y00113*
X02428*
X02438Y00103*
X02428Y00093*
X02438*
X02448Y00083*
X02483D02*
X02493Y00093D01*
X02503*
X02493Y00103*
X02503Y00113*
X02493*
X02483Y00123*
X02473Y00113*
X02463*
X02473Y00103*
X02463Y00093*
X02473*
X02483Y00083*
X02519D02*
X02529Y00093D01*
X02539*
X02529Y00103*
X02539Y00113*
X02529*
X02519Y00123*
X02509Y00113*
X02499*
X02509Y00103*
X02499Y00093*
X02509*
X02519Y00083*
X02554D02*
X02564Y00093D01*
X02574*
X02564Y00103*
X02574Y00113*
X02564*
X02554Y00123*
X02544Y00113*
X02534*
X02544Y00103*
X02534Y00093*
X02544*
X02554Y00083*
X0259D02*
X026Y00093D01*
X0261*
X026Y00103*
X0261Y00113*
X026*
X0259Y00123*
X0258Y00113*
X0257*
X0258Y00103*
X0257Y00093*
X0258*
X0259Y00083*
X02625D02*
X02635Y00093D01*
X02645*
X02635Y00103*
X02645Y00113*
X02635*
X02625Y00123*
X02615Y00113*
X02605*
X02615Y00103*
X02605Y00093*
X02615*
X02625Y00083*
X0266D02*
X0267Y00093D01*
X0268*
X0267Y00103*
X0268Y00113*
X0267*
X0266Y00123*
X0265Y00113*
X0264*
X0265Y00103*
X0264Y00093*
X0265*
X0266Y00083*
X02696D02*
X02706Y00093D01*
X02716*
X02706Y00103*
X02716Y00113*
X02706*
X02696Y00123*
X02686Y00113*
X02676*
X02686Y00103*
X02676Y00093*
X02686*
X02696Y00083*
X02731D02*
X02741Y00093D01*
X02751*
X02741Y00103*
X02751Y00113*
X02741*
X02731Y00123*
X02721Y00113*
X02711*
X02721Y00103*
X02711Y00093*
X02721*
X02731Y00083*
X02951Y0002D02*
X02961Y0003D01*
X02971*
X02961Y0004*
X02971Y0005*
X02961*
X02951Y0006*
X02941Y0005*
X02931*
X02941Y0004*
X02931Y0003*
X02941*
X02951Y0002*
X03022D02*
X03032Y0003D01*
X03042*
X03032Y0004*
X03042Y0005*
X03032*
X03022Y0006*
X03012Y0005*
X03002*
X03012Y0004*
X03002Y0003*
X03012*
X03022Y0002*
X02986D02*
X02996Y0003D01*
X03006*
X02996Y0004*
X03006Y0005*
X02996*
X02986Y0006*
X02976Y0005*
X02966*
X02976Y0004*
X02966Y0003*
X02976*
X02986Y0002*
X03093D02*
X03103Y0003D01*
X03113*
X03103Y0004*
X03113Y0005*
X03103*
X03093Y0006*
X03083Y0005*
X03073*
X03083Y0004*
X03073Y0003*
X03083*
X03093Y0002*
X03057D02*
X03067Y0003D01*
X03077*
X03067Y0004*
X03077Y0005*
X03067*
X03057Y0006*
X03047Y0005*
X03037*
X03047Y0004*
X03037Y0003*
X03047*
X03057Y0002*
X03199D02*
X03209Y0003D01*
X03219*
X03209Y0004*
X03219Y0005*
X03209*
X03199Y0006*
X03189Y0005*
X03179*
X03189Y0004*
X03179Y0003*
X03189*
X03199Y0002*
X03128D02*
X03138Y0003D01*
X03148*
X03138Y0004*
X03148Y0005*
X03138*
X03128Y0006*
X03118Y0005*
X03108*
X03118Y0004*
X03108Y0003*
X03118*
X03128Y0002*
X03164D02*
X03174Y0003D01*
X03184*
X03174Y0004*
X03184Y0005*
X03174*
X03164Y0006*
X03154Y0005*
X03144*
X03154Y0004*
X03144Y0003*
X03154*
X03164Y0002*
X02767Y00083D02*
X02777Y00093D01*
X02787*
X02777Y00103*
X02787Y00113*
X02777*
X02767Y00123*
X02757Y00113*
X02747*
X02757Y00103*
X02747Y00093*
X02757*
X02767Y00083*
X02802Y00083D02*
X02812Y00093D01*
X02822*
X02812Y00103*
X02822Y00113*
X02812*
X02802Y00123*
X02792Y00113*
X02782*
X02792Y00103*
X02782Y00093*
X02792*
X02802Y00083*
X0288Y00021D02*
X0289Y00031D01*
X029*
X0289Y00041*
X029Y00051*
X0289*
X0288Y00061*
X0287Y00051*
X0286*
X0287Y00041*
X0286Y00031*
X0287*
X0288Y00021*
X02837Y00075D02*
X02847Y00085D01*
X02857*
X02847Y00095*
X02857Y00105*
X02847*
X02837Y00115*
X02827Y00105*
X02817*
X02827Y00095*
X02817Y00085*
X02827*
X02837Y00075*
X02865Y00053D02*
X02875Y00063D01*
X02885*
X02875Y00073*
X02885Y00083*
X02875*
X02865Y00093*
X02855Y00083*
X02845*
X02855Y00073*
X02845Y00063*
X02855*
X02865Y00053*
X02916Y0002D02*
X02926Y0003D01*
X02936*
X02926Y0004*
X02936Y0005*
X02926*
X02916Y0006*
X02906Y0005*
X02896*
X02906Y0004*
X02896Y0003*
X02906*
X02916Y0002*
X0327D02*
X0328Y0003D01*
X0329*
X0328Y0004*
X0329Y0005*
X0328*
X0327Y0006*
X0326Y0005*
X0325*
X0326Y0004*
X0325Y0003*
X0326*
X0327Y0002*
X03234D02*
X03244Y0003D01*
X03254*
X03244Y0004*
X03254Y0005*
X03244*
X03234Y0006*
X03224Y0005*
X03214*
X03224Y0004*
X03214Y0003*
X03224*
X03234Y0002*
X03412D02*
X03422Y0003D01*
X03432*
X03422Y0004*
X03432Y0005*
X03422*
X03412Y0006*
X03402Y0005*
X03392*
X03402Y0004*
X03392Y0003*
X03402*
X03412Y0002*
X03305D02*
X03315Y0003D01*
X03325*
X03315Y0004*
X03325Y0005*
X03315*
X03305Y0006*
X03295Y0005*
X03285*
X03295Y0004*
X03285Y0003*
X03295*
X03305Y0002*
X03447D02*
X03457Y0003D01*
X03467*
X03457Y0004*
X03467Y0005*
X03457*
X03447Y0006*
X03437Y0005*
X03427*
X03437Y0004*
X03427Y0003*
X03437*
X03447Y0002*
X03483D02*
X03493Y0003D01*
X03503*
X03493Y0004*
X03503Y0005*
X03493*
X03483Y0006*
X03473Y0005*
X03463*
X03473Y0004*
X03463Y0003*
X03473*
X03483Y0002*
X03518D02*
X03528Y0003D01*
X03538*
X03528Y0004*
X03538Y0005*
X03528*
X03518Y0006*
X03508Y0005*
X03498*
X03508Y0004*
X03498Y0003*
X03508*
X03518Y0002*
X03376D02*
X03386Y0003D01*
X03396*
X03386Y0004*
X03396Y0005*
X03386*
X03376Y0006*
X03366Y0005*
X03356*
X03366Y0004*
X03356Y0003*
X03366*
X03376Y0002*
X03341D02*
X03351Y0003D01*
X03361*
X03351Y0004*
X03361Y0005*
X03351*
X03341Y0006*
X03331Y0005*
X03321*
X03331Y0004*
X03321Y0003*
X03331*
X03341Y0002*
X03553Y00022D02*
X03563Y00032D01*
X03573*
X03563Y00042*
X03573Y00052*
X03563*
X03553Y00062*
X03543Y00052*
X03533*
X03543Y00042*
X03533Y00032*
X03543*
X03553Y00022*
X03586Y00036D02*
X03596Y00046D01*
X03606*
X03596Y00056*
X03606Y00066*
X03596*
X03586Y00076*
X03576Y00066*
X03566*
X03576Y00056*
X03566Y00046*
X03576*
X03586Y00036*
X03609Y00062D02*
X03619Y00072D01*
X03629*
X03619Y00082*
X03629Y00092*
X03619*
X03609Y00102*
X03599Y00092*
X03589*
X03599Y00082*
X03589Y00072*
X03599*
X03609Y00062*
X0362Y00096D02*
X0363Y00106D01*
X0364*
X0363Y00116*
X0364Y00126*
X0363*
X0362Y00136*
X0361Y00126*
X036*
X0361Y00116*
X036Y00106*
X0361*
X0362Y00096*
X03621Y00167D02*
X03631Y00177D01*
X03641*
X03631Y00187*
X03641Y00197*
X03631*
X03621Y00207*
X03611Y00197*
X03601*
X03611Y00187*
X03601Y00177*
X03611*
X03621Y00167*
Y00309D02*
X03631Y00319D01*
X03641*
X03631Y00329*
X03641Y00339*
X03631*
X03621Y00349*
X03611Y00339*
X03601*
X03611Y00329*
X03601Y00319*
X03611*
X03621Y00309*
Y00344D02*
X03631Y00354D01*
X03641*
X03631Y00364*
X03641Y00374*
X03631*
X03621Y00384*
X03611Y00374*
X03601*
X03611Y00364*
X03601Y00354*
X03611*
X03621Y00344*
Y00202D02*
X03631Y00212D01*
X03641*
X03631Y00222*
X03641Y00232*
X03631*
X03621Y00242*
X03611Y00232*
X03601*
X03611Y00222*
X03601Y00212*
X03611*
X03621Y00202*
Y00273D02*
X03631Y00283D01*
X03641*
X03631Y00293*
X03641Y00303*
X03631*
X03621Y00313*
X03611Y00303*
X03601*
X03611Y00293*
X03601Y00283*
X03611*
X03621Y00273*
Y00238D02*
X03631Y00248D01*
X03641*
X03631Y00258*
X03641Y00268*
X03631*
X03621Y00278*
X03611Y00268*
X03601*
X03611Y00258*
X03601Y00248*
X03611*
X03621Y00238*
Y00132D02*
X03631Y00142D01*
X03641*
X03631Y00152*
X03641Y00162*
X03631*
X03621Y00172*
X03611Y00162*
X03601*
X03611Y00152*
X03601Y00142*
X03611*
X03621Y00132*
X03558Y00637D02*
X03568Y00647D01*
X03578*
X03568Y00657*
X03578Y00667*
X03568*
X03558Y00677*
X03548Y00667*
X03538*
X03548Y00657*
X03538Y00647*
X03548*
X03558Y00637*
Y00672D02*
X03568Y00682D01*
X03578*
X03568Y00692*
X03578Y00702*
X03568*
X03558Y00712*
X03548Y00702*
X03538*
X03548Y00692*
X03538Y00682*
X03548*
X03558Y00672*
X03568Y00532D02*
X03578Y00542D01*
X03588*
X03578Y00552*
X03588Y00562*
X03578*
X03568Y00572*
X03558Y00562*
X03548*
X03558Y00552*
X03548Y00542*
X03558*
X03568Y00532*
X03558Y00601D02*
X03568Y00611D01*
X03578*
X03568Y00621*
X03578Y00631*
X03568*
X03558Y00641*
X03548Y00631*
X03538*
X03548Y00621*
X03538Y00611*
X03548*
X03558Y00601*
X03558Y00566D02*
X03568Y00576D01*
X03578*
X03568Y00586*
X03578Y00596*
X03568*
X03558Y00606*
X03548Y00596*
X03538*
X03548Y00586*
X03538Y00576*
X03548*
X03558Y00566*
X03558Y00814D02*
X03568Y00824D01*
X03578*
X03568Y00834*
X03578Y00844*
X03568*
X03558Y00854*
X03548Y00844*
X03538*
X03548Y00834*
X03538Y00824*
X03548*
X03558Y00814*
Y00849D02*
X03568Y00859D01*
X03578*
X03568Y00869*
X03578Y00879*
X03568*
X03558Y00889*
X03548Y00879*
X03538*
X03548Y00869*
X03538Y00859*
X03548*
X03558Y00849*
Y00708D02*
X03568Y00718D01*
X03578*
X03568Y00728*
X03578Y00738*
X03568*
X03558Y00748*
X03548Y00738*
X03538*
X03548Y00728*
X03538Y00718*
X03548*
X03558Y00708*
Y00779D02*
X03568Y00789D01*
X03578*
X03568Y00799*
X03578Y00809*
X03568*
X03558Y00819*
X03548Y00809*
X03538*
X03548Y00799*
X03538Y00789*
X03548*
X03558Y00779*
Y00743D02*
X03568Y00753D01*
X03578*
X03568Y00763*
X03578Y00773*
X03568*
X03558Y00783*
X03548Y00773*
X03538*
X03548Y00763*
X03538Y00753*
X03548*
X03558Y00743*
X03621Y0038D02*
X03631Y0039D01*
X03641*
X03631Y004*
X03641Y0041*
X03631*
X03621Y0042*
X03611Y0041*
X03601*
X03611Y004*
X03601Y0039*
X03611*
X03621Y0038*
Y0045D02*
X03631Y0046D01*
X03641*
X03631Y0047*
X03641Y0048*
X03631*
X03621Y0049*
X03611Y0048*
X03601*
X03611Y0047*
X03601Y0046*
X03611*
X03621Y0045*
Y00415D02*
X03631Y00425D01*
X03641*
X03631Y00435*
X03641Y00445*
X03631*
X03621Y00455*
X03611Y00445*
X03601*
X03611Y00435*
X03601Y00425*
X03611*
X03621Y00415*
X03591Y00505D02*
X03601Y00515D01*
X03611*
X03601Y00525*
X03611Y00535*
X03601*
X03591Y00545*
X03581Y00535*
X03571*
X03581Y00525*
X03571Y00515*
X03581*
X03591Y00505*
X03621Y00486D02*
X03631Y00496D01*
X03641*
X03631Y00506*
X03641Y00516*
X03631*
X03621Y00526*
X03611Y00516*
X03601*
X03611Y00506*
X03601Y00496*
X03611*
X03621Y00486*
X03558Y00991D02*
X03568Y01001D01*
X03578*
X03568Y01011*
X03578Y01021*
X03568*
X03558Y01031*
X03548Y01021*
X03538*
X03548Y01011*
X03538Y01001*
X03548*
X03558Y00991*
Y01027D02*
X03568Y01037D01*
X03578*
X03568Y01047*
X03578Y01057*
X03568*
X03558Y01067*
X03548Y01057*
X03538*
X03548Y01047*
X03538Y01037*
X03548*
X03558Y01027*
Y00885D02*
X03568Y00895D01*
X03578*
X03568Y00905*
X03578Y00915*
X03568*
X03558Y00925*
X03548Y00915*
X03538*
X03548Y00905*
X03538Y00895*
X03548*
X03558Y00885*
Y00956D02*
X03568Y00966D01*
X03578*
X03568Y00976*
X03578Y00986*
X03568*
X03558Y00996*
X03548Y00986*
X03538*
X03548Y00976*
X03538Y00966*
X03548*
X03558Y00956*
Y0092D02*
X03568Y0093D01*
X03578*
X03568Y0094*
X03578Y0095*
X03568*
X03558Y0096*
X03548Y0095*
X03538*
X03548Y0094*
X03538Y0093*
X03548*
X03558Y0092*
Y01204D02*
X03568Y01214D01*
X03578*
X03568Y01224*
X03578Y01234*
X03568*
X03558Y01244*
X03548Y01234*
X03538*
X03548Y01224*
X03538Y01214*
X03548*
X03558Y01204*
Y01239D02*
X03568Y01249D01*
X03578*
X03568Y01259*
X03578Y01269*
X03568*
X03558Y01279*
X03548Y01269*
X03538*
X03548Y01259*
X03538Y01249*
X03548*
X03558Y01239*
Y01098D02*
X03568Y01108D01*
X03578*
X03568Y01118*
X03578Y01128*
X03568*
X03558Y01138*
X03548Y01128*
X03538*
X03548Y01118*
X03538Y01108*
X03548*
X03558Y01098*
Y01168D02*
X03568Y01178D01*
X03578*
X03568Y01188*
X03578Y01198*
X03568*
X03558Y01208*
X03548Y01198*
X03538*
X03548Y01188*
X03538Y01178*
X03548*
X03558Y01168*
Y01133D02*
X03568Y01143D01*
X03578*
X03568Y01153*
X03578Y01163*
X03568*
X03558Y01173*
X03548Y01163*
X03538*
X03548Y01153*
X03538Y01143*
X03548*
X03558Y01133*
Y01062D02*
X03568Y01072D01*
X03578*
X03568Y01082*
X03578Y01092*
X03568*
X03558Y01102*
X03548Y01092*
X03538*
X03548Y01082*
X03538Y01072*
X03548*
X03558Y01062*
Y01381D02*
X03568Y01391D01*
X03578*
X03568Y01401*
X03578Y01411*
X03568*
X03558Y01421*
X03548Y01411*
X03538*
X03548Y01401*
X03538Y01391*
X03548*
X03558Y01381*
Y01416D02*
X03568Y01426D01*
X03578*
X03568Y01436*
X03578Y01446*
X03568*
X03558Y01456*
X03548Y01446*
X03538*
X03548Y01436*
X03538Y01426*
X03548*
X03558Y01416*
Y01275D02*
X03568Y01285D01*
X03578*
X03568Y01295*
X03578Y01305*
X03568*
X03558Y01315*
X03548Y01305*
X03538*
X03548Y01295*
X03538Y01285*
X03548*
X03558Y01275*
Y01346D02*
X03568Y01356D01*
X03578*
X03568Y01366*
X03578Y01376*
X03568*
X03558Y01386*
X03548Y01376*
X03538*
X03548Y01366*
X03538Y01356*
X03548*
X03558Y01346*
Y0131D02*
X03568Y0132D01*
X03578*
X03568Y0133*
X03578Y0134*
X03568*
X03558Y0135*
X03548Y0134*
X03538*
X03548Y0133*
X03538Y0132*
X03548*
X03558Y0131*
Y01487D02*
X03568Y01497D01*
X03578*
X03568Y01507*
X03578Y01517*
X03568*
X03558Y01527*
X03548Y01517*
X03538*
X03548Y01507*
X03538Y01497*
X03548*
X03558Y01487*
Y01523D02*
X03568Y01533D01*
X03578*
X03568Y01543*
X03578Y01553*
X03568*
X03558Y01563*
X03548Y01553*
X03538*
X03548Y01543*
X03538Y01533*
X03548*
X03558Y01523*
Y01452D02*
X03568Y01462D01*
X03578*
X03568Y01472*
X03578Y01482*
X03568*
X03558Y01492*
X03548Y01482*
X03538*
X03548Y01472*
X03538Y01462*
X03548*
X03558Y01452*
Y01912D02*
X03568Y01922D01*
X03578*
X03568Y01932*
X03578Y01942*
X03568*
X03558Y01952*
X03548Y01942*
X03538*
X03548Y01932*
X03538Y01922*
X03548*
X03558Y01912*
Y01877D02*
X03568Y01887D01*
X03578*
X03568Y01897*
X03578Y01907*
X03568*
X03558Y01917*
X03548Y01907*
X03538*
X03548Y01897*
X03538Y01887*
X03548*
X03558Y01877*
Y01664D02*
X03568Y01674D01*
X03578*
X03568Y01684*
X03578Y01694*
X03568*
X03558Y01704*
X03548Y01694*
X03538*
X03548Y01684*
X03538Y01674*
X03548*
X03558Y01664*
Y017D02*
X03568Y0171D01*
X03578*
X03568Y0172*
X03578Y0173*
X03568*
X03558Y0174*
X03548Y0173*
X03538*
X03548Y0172*
X03538Y0171*
X03548*
X03558Y017*
Y01558D02*
X03568Y01568D01*
X03578*
X03568Y01578*
X03578Y01588*
X03568*
X03558Y01598*
X03548Y01588*
X03538*
X03548Y01578*
X03538Y01568*
X03548*
X03558Y01558*
Y01629D02*
X03568Y01639D01*
X03578*
X03568Y01649*
X03578Y01659*
X03568*
X03558Y01669*
X03548Y01659*
X03538*
X03548Y01649*
X03538Y01639*
X03548*
X03558Y01629*
Y01594D02*
X03568Y01604D01*
X03578*
X03568Y01614*
X03578Y01624*
X03568*
X03558Y01634*
X03548Y01624*
X03538*
X03548Y01614*
X03538Y01604*
X03548*
X03558Y01594*
Y01842D02*
X03568Y01852D01*
X03578*
X03568Y01862*
X03578Y01872*
X03568*
X03558Y01882*
X03548Y01872*
X03538*
X03548Y01862*
X03538Y01852*
X03548*
X03558Y01842*
Y01735D02*
X03568Y01745D01*
X03578*
X03568Y01755*
X03578Y01765*
X03568*
X03558Y01775*
X03548Y01765*
X03538*
X03548Y01755*
X03538Y01745*
X03548*
X03558Y01735*
Y01806D02*
X03568Y01816D01*
X03578*
X03568Y01826*
X03578Y01836*
X03568*
X03558Y01846*
X03548Y01836*
X03538*
X03548Y01826*
X03538Y01816*
X03548*
X03558Y01806*
Y01771D02*
X03568Y01781D01*
X03578*
X03568Y01791*
X03578Y01801*
X03568*
X03558Y01811*
X03548Y01801*
X03538*
X03548Y01791*
X03538Y01781*
X03548*
X03558Y01771*
X02353Y0342D02*
X02363Y0343D01*
X02373*
X02363Y0344*
X02373Y0345*
X02363*
X02353Y0346*
X02343Y0345*
X02333*
X02343Y0344*
X02333Y0343*
X02343*
X02353Y0342*
X02318D02*
X02328Y0343D01*
X02338*
X02328Y0344*
X02338Y0345*
X02328*
X02318Y0346*
X02308Y0345*
X02298*
X02308Y0344*
X02298Y0343*
X02308*
X02318Y0342*
X0246D02*
X0247Y0343D01*
X0248*
X0247Y0344*
X0248Y0345*
X0247*
X0246Y0346*
X0245Y0345*
X0244*
X0245Y0344*
X0244Y0343*
X0245*
X0246Y0342*
X02389D02*
X02399Y0343D01*
X02409*
X02399Y0344*
X02409Y0345*
X02399*
X02389Y0346*
X02379Y0345*
X02369*
X02379Y0344*
X02369Y0343*
X02379*
X02389Y0342*
X02424D02*
X02434Y0343D01*
X02444*
X02434Y0344*
X02444Y0345*
X02434*
X02424Y0346*
X02414Y0345*
X02404*
X02414Y0344*
X02404Y0343*
X02414*
X02424Y0342*
X02283D02*
X02293Y0343D01*
X02303*
X02293Y0344*
X02303Y0345*
X02293*
X02283Y0346*
X02273Y0345*
X02263*
X02273Y0344*
X02263Y0343*
X02273*
X02283Y0342*
X02531D02*
X02541Y0343D01*
X02551*
X02541Y0344*
X02551Y0345*
X02541*
X02531Y0346*
X02521Y0345*
X02511*
X02521Y0344*
X02511Y0343*
X02521*
X02531Y0342*
X02495D02*
X02505Y0343D01*
X02515*
X02505Y0344*
X02515Y0345*
X02505*
X02495Y0346*
X02485Y0345*
X02475*
X02485Y0344*
X02475Y0343*
X02485*
X02495Y0342*
X02637D02*
X02647Y0343D01*
X02657*
X02647Y0344*
X02657Y0345*
X02647*
X02637Y0346*
X02627Y0345*
X02617*
X02627Y0344*
X02617Y0343*
X02627*
X02637Y0342*
X02566D02*
X02576Y0343D01*
X02586*
X02576Y0344*
X02586Y0345*
X02576*
X02566Y0346*
X02556Y0345*
X02546*
X02556Y0344*
X02546Y0343*
X02556*
X02566Y0342*
X02601D02*
X02611Y0343D01*
X02621*
X02611Y0344*
X02621Y0345*
X02611*
X02601Y0346*
X02591Y0345*
X02581*
X02591Y0344*
X02581Y0343*
X02591*
X02601Y0342*
X02708D02*
X02718Y0343D01*
X02728*
X02718Y0344*
X02728Y0345*
X02718*
X02708Y0346*
X02698Y0345*
X02688*
X02698Y0344*
X02688Y0343*
X02698*
X02708Y0342*
X02672D02*
X02682Y0343D01*
X02692*
X02682Y0344*
X02692Y0345*
X02682*
X02672Y0346*
X02662Y0345*
X02652*
X02662Y0344*
X02652Y0343*
X02662*
X02672Y0342*
X02779D02*
X02789Y0343D01*
X02799*
X02789Y0344*
X02799Y0345*
X02789*
X02779Y0346*
X02769Y0345*
X02759*
X02769Y0344*
X02759Y0343*
X02769*
X02779Y0342*
X02743D02*
X02753Y0343D01*
X02763*
X02753Y0344*
X02763Y0345*
X02753*
X02743Y0346*
X02733Y0345*
X02723*
X02733Y0344*
X02723Y0343*
X02733*
X02743Y0342*
X02814Y03421D02*
X02824Y03431D01*
X02834*
X02824Y03441*
X02834Y03451*
X02824*
X02814Y03461*
X02804Y03451*
X02794*
X02804Y03441*
X02794Y03431*
X02804*
X02814Y03421*
X02847Y03434D02*
X02857Y03444D01*
X02867*
X02857Y03454*
X02867Y03464*
X02857*
X02847Y03474*
X02837Y03464*
X02827*
X02837Y03454*
X02827Y03444*
X02837*
X02847Y03434*
X02871Y0346D02*
X02881Y0347D01*
X02891*
X02881Y0348*
X02891Y0349*
X02881*
X02871Y035*
X02861Y0349*
X02851*
X02861Y0348*
X02851Y0347*
X02861*
X02871Y0346*
X02898Y03483D02*
X02908Y03493D01*
X02918*
X02908Y03503*
X02918Y03513*
X02908*
X02898Y03523*
X02888Y03513*
X02878*
X02888Y03503*
X02878Y03493*
X02888*
X02898Y03483*
X02934D02*
X02944Y03493D01*
X02954*
X02944Y03503*
X02954Y03513*
X02944*
X02934Y03523*
X02924Y03513*
X02914*
X02924Y03503*
X02914Y03493*
X02924*
X02934Y03483*
X03004D02*
X03014Y03493D01*
X03024*
X03014Y03503*
X03024Y03513*
X03014*
X03004Y03523*
X02994Y03513*
X02984*
X02994Y03503*
X02984Y03493*
X02994*
X03004Y03483*
X02969D02*
X02979Y03493D01*
X02989*
X02979Y03503*
X02989Y03513*
X02979*
X02969Y03523*
X02959Y03513*
X02949*
X02959Y03503*
X02949Y03493*
X02959*
X02969Y03483*
X03111D02*
X03121Y03493D01*
X03131*
X03121Y03503*
X03131Y03513*
X03121*
X03111Y03523*
X03101Y03513*
X03091*
X03101Y03503*
X03091Y03493*
X03101*
X03111Y03483*
X0304D02*
X0305Y03493D01*
X0306*
X0305Y03503*
X0306Y03513*
X0305*
X0304Y03523*
X0303Y03513*
X0302*
X0303Y03503*
X0302Y03493*
X0303*
X0304Y03483*
X03075D02*
X03085Y03493D01*
X03095*
X03085Y03503*
X03095Y03513*
X03085*
X03075Y03523*
X03065Y03513*
X03055*
X03065Y03503*
X03055Y03493*
X03065*
X03075Y03483*
X03558Y01948D02*
X03568Y01958D01*
X03578*
X03568Y01968*
X03578Y01978*
X03568*
X03558Y01988*
X03548Y01978*
X03538*
X03548Y01968*
X03538Y01958*
X03548*
X03558Y01948*
Y01983D02*
X03568Y01993D01*
X03578*
X03568Y02003*
X03578Y02013*
X03568*
X03558Y02023*
X03548Y02013*
X03538*
X03548Y02003*
X03538Y01993*
X03548*
X03558Y01983*
Y02054D02*
X03568Y02064D01*
X03578*
X03568Y02074*
X03578Y02084*
X03568*
X03558Y02094*
X03548Y02084*
X03538*
X03548Y02074*
X03538Y02064*
X03548*
X03558Y02054*
Y02125D02*
X03568Y02135D01*
X03578*
X03568Y02145*
X03578Y02155*
X03568*
X03558Y02165*
X03548Y02155*
X03538*
X03548Y02145*
X03538Y02135*
X03548*
X03558Y02125*
Y0209D02*
X03568Y021D01*
X03578*
X03568Y0211*
X03578Y0212*
X03568*
X03558Y0213*
X03548Y0212*
X03538*
X03548Y0211*
X03538Y021*
X03548*
X03558Y0209*
Y02267D02*
X03568Y02277D01*
X03578*
X03568Y02287*
X03578Y02297*
X03568*
X03558Y02307*
X03548Y02297*
X03538*
X03548Y02287*
X03538Y02277*
X03548*
X03558Y02267*
Y02302D02*
X03568Y02312D01*
X03578*
X03568Y02322*
X03578Y02332*
X03568*
X03558Y02342*
X03548Y02332*
X03538*
X03548Y02322*
X03538Y02312*
X03548*
X03558Y02302*
Y02161D02*
X03568Y02171D01*
X03578*
X03568Y02181*
X03578Y02191*
X03568*
X03558Y02201*
X03548Y02191*
X03538*
X03548Y02181*
X03538Y02171*
X03548*
X03558Y02161*
Y02231D02*
X03568Y02241D01*
X03578*
X03568Y02251*
X03578Y02261*
X03568*
X03558Y02271*
X03548Y02261*
X03538*
X03548Y02251*
X03538Y02241*
X03548*
X03558Y02231*
Y02196D02*
X03568Y02206D01*
X03578*
X03568Y02216*
X03578Y02226*
X03568*
X03558Y02236*
X03548Y02226*
X03538*
X03548Y02216*
X03538Y02206*
X03548*
X03558Y02196*
Y02019D02*
X03568Y02029D01*
X03578*
X03568Y02039*
X03578Y02049*
X03568*
X03558Y02059*
X03548Y02049*
X03538*
X03548Y02039*
X03538Y02029*
X03548*
X03558Y02019*
Y02409D02*
X03568Y02419D01*
X03578*
X03568Y02429*
X03578Y02439*
X03568*
X03558Y02449*
X03548Y02439*
X03538*
X03548Y02429*
X03538Y02419*
X03548*
X03558Y02409*
Y02444D02*
X03568Y02454D01*
X03578*
X03568Y02464*
X03578Y02474*
X03568*
X03558Y02484*
X03548Y02474*
X03538*
X03548Y02464*
X03538Y02454*
X03548*
X03558Y02444*
Y02338D02*
X03568Y02348D01*
X03578*
X03568Y02358*
X03578Y02368*
X03568*
X03558Y02378*
X03548Y02368*
X03538*
X03548Y02358*
X03538Y02348*
X03548*
X03558Y02338*
Y02373D02*
X03568Y02383D01*
X03578*
X03568Y02393*
X03578Y02403*
X03568*
X03558Y02413*
X03548Y02403*
X03538*
X03548Y02393*
X03538Y02383*
X03548*
X03558Y02373*
Y02692D02*
X03568Y02702D01*
X03578*
X03568Y02712*
X03578Y02722*
X03568*
X03558Y02732*
X03548Y02722*
X03538*
X03548Y02712*
X03538Y02702*
X03548*
X03558Y02692*
Y02834D02*
X03568Y02844D01*
X03578*
X03568Y02854*
X03578Y02864*
X03568*
X03558Y02874*
X03548Y02864*
X03538*
X03548Y02854*
X03538Y02844*
X03548*
X03558Y02834*
Y02869D02*
X03568Y02879D01*
X03578*
X03568Y02889*
X03578Y02899*
X03568*
X03558Y02909*
X03548Y02899*
X03538*
X03548Y02889*
X03538Y02879*
X03548*
X03558Y02869*
Y02727D02*
X03568Y02737D01*
X03578*
X03568Y02747*
X03578Y02757*
X03568*
X03558Y02767*
X03548Y02757*
X03538*
X03548Y02747*
X03538Y02737*
X03548*
X03558Y02727*
Y02798D02*
X03568Y02808D01*
X03578*
X03568Y02818*
X03578Y02828*
X03568*
X03558Y02838*
X03548Y02828*
X03538*
X03548Y02818*
X03538Y02808*
X03548*
X03558Y02798*
Y02763D02*
X03568Y02773D01*
X03578*
X03568Y02783*
X03578Y02793*
X03568*
X03558Y02803*
X03548Y02793*
X03538*
X03548Y02783*
X03538Y02773*
X03548*
X03558Y02763*
Y02586D02*
X03568Y02596D01*
X03578*
X03568Y02606*
X03578Y02616*
X03568*
X03558Y02626*
X03548Y02616*
X03538*
X03548Y02606*
X03538Y02596*
X03548*
X03558Y02586*
Y02621D02*
X03568Y02631D01*
X03578*
X03568Y02641*
X03578Y02651*
X03568*
X03558Y02661*
X03548Y02651*
X03538*
X03548Y02641*
X03538Y02631*
X03548*
X03558Y02621*
Y02479D02*
X03568Y02489D01*
X03578*
X03568Y02499*
X03578Y02509*
X03568*
X03558Y02519*
X03548Y02509*
X03538*
X03548Y02499*
X03538Y02489*
X03548*
X03558Y02479*
Y0255D02*
X03568Y0256D01*
X03578*
X03568Y0257*
X03578Y0258*
X03568*
X03558Y0259*
X03548Y0258*
X03538*
X03548Y0257*
X03538Y0256*
X03548*
X03558Y0255*
Y02515D02*
X03568Y02525D01*
X03578*
X03568Y02535*
X03578Y02545*
X03568*
X03558Y02555*
X03548Y02545*
X03538*
X03548Y02535*
X03538Y02525*
X03548*
X03558Y02515*
Y02657D02*
X03568Y02667D01*
X03578*
X03568Y02677*
X03578Y02687*
X03568*
X03558Y02697*
X03548Y02687*
X03538*
X03548Y02677*
X03538Y02667*
X03548*
X03558Y02657*
X03182Y03483D02*
X03192Y03493D01*
X03202*
X03192Y03503*
X03202Y03513*
X03192*
X03182Y03523*
X03172Y03513*
X03162*
X03172Y03503*
X03162Y03493*
X03172*
X03182Y03483*
X03146D02*
X03156Y03493D01*
X03166*
X03156Y03503*
X03166Y03513*
X03156*
X03146Y03523*
X03136Y03513*
X03126*
X03136Y03503*
X03126Y03493*
X03136*
X03146Y03483*
X03288D02*
X03298Y03493D01*
X03308*
X03298Y03503*
X03308Y03513*
X03298*
X03288Y03523*
X03278Y03513*
X03268*
X03278Y03503*
X03268Y03493*
X03278*
X03288Y03483*
X03217D02*
X03227Y03493D01*
X03237*
X03227Y03503*
X03237Y03513*
X03227*
X03217Y03523*
X03207Y03513*
X03197*
X03207Y03503*
X03197Y03493*
X03207*
X03217Y03483*
X03252D02*
X03262Y03493D01*
X03272*
X03262Y03503*
X03272Y03513*
X03262*
X03252Y03523*
X03242Y03513*
X03232*
X03242Y03503*
X03232Y03493*
X03242*
X03252Y03483*
X03323D02*
X03333Y03493D01*
X03343*
X03333Y03503*
X03343Y03513*
X03333*
X03323Y03523*
X03313Y03513*
X03303*
X03313Y03503*
X03303Y03493*
X03313*
X03323Y03483*
X0343D02*
X0344Y03493D01*
X0345*
X0344Y03503*
X0345Y03513*
X0344*
X0343Y03523*
X0342Y03513*
X0341*
X0342Y03503*
X0341Y03493*
X0342*
X0343Y03483*
X03359D02*
X03369Y03493D01*
X03379*
X03369Y03503*
X03379Y03513*
X03369*
X03359Y03523*
X03349Y03513*
X03339*
X03349Y03503*
X03339Y03493*
X03349*
X03359Y03483*
X03394D02*
X03404Y03493D01*
X03414*
X03404Y03503*
X03414Y03513*
X03404*
X03394Y03523*
X03384Y03513*
X03374*
X03384Y03503*
X03374Y03493*
X03384*
X03394Y03483*
X03558Y02905D02*
X03568Y02915D01*
X03578*
X03568Y02925*
X03578Y02935*
X03568*
X03558Y02945*
X03548Y02935*
X03538*
X03548Y02925*
X03538Y02915*
X03548*
X03558Y02905*
Y0294D02*
X03568Y0295D01*
X03578*
X03568Y0296*
X03578Y0297*
X03568*
X03558Y0298*
X03548Y0297*
X03538*
X03548Y0296*
X03538Y0295*
X03548*
X03558Y0294*
X03562Y02975D02*
X03572Y02985D01*
X03582*
X03572Y02995*
X03582Y03005*
X03572*
X03562Y03015*
X03552Y03005*
X03542*
X03552Y02995*
X03542Y02985*
X03552*
X03562Y02975*
X03579Y03006D02*
X03589Y03016D01*
X03599*
X03589Y03026*
X03599Y03036*
X03589*
X03579Y03046*
X03569Y03036*
X03559*
X03569Y03026*
X03559Y03016*
X03569*
X03579Y03006*
X03608Y03026D02*
X03618Y03036D01*
X03628*
X03618Y03046*
X03628Y03056*
X03618*
X03608Y03066*
X03598Y03056*
X03588*
X03598Y03046*
X03588Y03036*
X03598*
X03608Y03026*
X03621Y03166D02*
X03631Y03176D01*
X03641*
X03631Y03186*
X03641Y03196*
X03631*
X03621Y03206*
X03611Y03196*
X03601*
X03611Y03186*
X03601Y03176*
X03611*
X03621Y03166*
Y0313D02*
X03631Y0314D01*
X03641*
X03631Y0315*
X03641Y0316*
X03631*
X03621Y0317*
X03611Y0316*
X03601*
X03611Y0315*
X03601Y0314*
X03611*
X03621Y0313*
Y03095D02*
X03631Y03105D01*
X03641*
X03631Y03115*
X03641Y03125*
X03631*
X03621Y03135*
X03611Y03125*
X03601*
X03611Y03115*
X03601Y03105*
X03611*
X03621Y03095*
Y03059D02*
X03631Y03069D01*
X03641*
X03631Y03079*
X03641Y03089*
X03631*
X03621Y03099*
X03611Y03089*
X03601*
X03611Y03079*
X03601Y03069*
X03611*
X03621Y03059*
X03619Y03414D02*
X03629Y03424D01*
X03639*
X03629Y03434*
X03639Y03444*
X03629*
X03619Y03454*
X03609Y03444*
X03599*
X03609Y03434*
X03599Y03424*
X03609*
X03619Y03414*
X03605Y03446D02*
X03615Y03456D01*
X03625*
X03615Y03466*
X03625Y03476*
X03615*
X03605Y03486*
X03595Y03476*
X03585*
X03595Y03466*
X03585Y03456*
X03595*
X03605Y03446*
X03621Y03307D02*
X03631Y03317D01*
X03641*
X03631Y03327*
X03641Y03337*
X03631*
X03621Y03347*
X03611Y03337*
X03601*
X03611Y03327*
X03601Y03317*
X03611*
X03621Y03307*
Y03378D02*
X03631Y03388D01*
X03641*
X03631Y03398*
X03641Y03408*
X03631*
X03621Y03418*
X03611Y03408*
X03601*
X03611Y03398*
X03601Y03388*
X03611*
X03621Y03378*
Y03343D02*
X03631Y03353D01*
X03641*
X03631Y03363*
X03641Y03373*
X03631*
X03621Y03383*
X03611Y03373*
X03601*
X03611Y03363*
X03601Y03353*
X03611*
X03621Y03343*
X03465Y03483D02*
X03475Y03493D01*
X03485*
X03475Y03503*
X03485Y03513*
X03475*
X03465Y03523*
X03455Y03513*
X03445*
X03455Y03503*
X03445Y03493*
X03455*
X03465Y03483*
X03579Y0347D02*
X03589Y0348D01*
X03599*
X03589Y0349*
X03599Y035*
X03589*
X03579Y0351*
X03569Y035*
X03559*
X03569Y0349*
X03559Y0348*
X03569*
X03579Y0347*
X035Y03483D02*
X0351Y03493D01*
X0352*
X0351Y03503*
X0352Y03513*
X0351*
X035Y03523*
X0349Y03513*
X0348*
X0349Y03503*
X0348Y03493*
X0349*
X035Y03483*
X03536Y03483D02*
X03546Y03493D01*
X03556*
X03546Y03503*
X03556Y03513*
X03546*
X03536Y03523*
X03526Y03513*
X03516*
X03526Y03503*
X03516Y03493*
X03526*
X03536Y03483*
X03621Y03201D02*
X03631Y03211D01*
X03641*
X03631Y03221*
X03641Y03231*
X03631*
X03621Y03241*
X03611Y03231*
X03601*
X03611Y03221*
X03601Y03211*
X03611*
X03621Y03201*
Y03272D02*
X03631Y03282D01*
X03641*
X03631Y03292*
X03641Y03302*
X03631*
X03621Y03312*
X03611Y03302*
X03601*
X03611Y03292*
X03601Y03282*
X03611*
X03621Y03272*
Y03237D02*
X03631Y03247D01*
X03641*
X03631Y03257*
X03641Y03267*
X03631*
X03621Y03277*
X03611Y03267*
X03601*
X03611Y03257*
X03601Y03247*
X03611*
X03621Y03237*
X01418Y00626D02*
X01428Y00636D01*
X01438*
X01428Y00646*
X01438Y00656*
X01428*
X01418Y00666*
X01408Y00656*
X01398*
X01408Y00646*
X01398Y00636*
X01408*
X01418Y00626*
X008Y0229D02*
X0081Y023D01*
X0082*
X0081Y0231*
X0082Y0232*
X0081*
X008Y0233*
X0079Y0232*
X0078*
X0079Y0231*
X0078Y023*
X0079*
X008Y0229*
X00785Y02235D02*
X00795Y02245D01*
X00805*
X00795Y02255*
X00805Y02265*
X00795*
X00785Y02275*
X00775Y02265*
X00765*
X00775Y02255*
X00765Y02245*
X00775*
X00785Y02235*
X008Y02215D02*
X0081Y02225D01*
X0082*
X0081Y02235*
X0082Y02245*
X0081*
X008Y02255*
X0079Y02245*
X0078*
X0079Y02235*
X0078Y02225*
X0079*
X008Y02215*
G54D158*
X01225Y0306D02*
D01*
X01224Y03061*
X01224Y03062*
X01224Y03064*
X01224Y03065*
X01223Y03066*
X01223Y03068*
X01222Y03069*
X01221Y0307*
X01221Y03071*
X0122Y03072*
X01219Y03073*
X01218Y03074*
X01217Y03075*
X01216Y03076*
X01215Y03077*
X01213Y03077*
X01212Y03078*
X01211Y03079*
X01209Y03079*
X01208Y03079*
X01207Y03079*
X01205Y03079*
X01204*
X01202Y03079*
X01201Y03079*
X012Y03079*
X01198Y03079*
X01197Y03078*
X01196Y03077*
X01195Y03077*
X01193Y03076*
X01192Y03075*
X01191Y03074*
X0119Y03073*
X01189Y03072*
X01188Y03071*
X01188Y0307*
X01187Y03069*
X01186Y03068*
X01186Y03066*
X01185Y03065*
X01185Y03064*
X01185Y03062*
X01185Y03061*
X01185Y0306*
X01185Y03058*
X01185Y03057*
X01185Y03055*
X01185Y03054*
X01186Y03053*
X01186Y03051*
X01187Y0305*
X01188Y03049*
X01188Y03048*
X01189Y03047*
X0119Y03046*
X01191Y03045*
X01192Y03044*
X01193Y03043*
X01195Y03042*
X01196Y03042*
X01197Y03041*
X01198Y0304*
X012Y0304*
X01201Y0304*
X01202Y0304*
X01204Y0304*
X01205*
X01207Y0304*
X01208Y0304*
X01209Y0304*
X01211Y0304*
X01212Y03041*
X01213Y03042*
X01215Y03042*
X01216Y03043*
X01217Y03044*
X01218Y03045*
X01219Y03046*
X0122Y03047*
X01221Y03048*
X01221Y03049*
X01222Y0305*
X01223Y03051*
X01223Y03053*
X01224Y03054*
X01224Y03055*
X01224Y03057*
X01224Y03058*
X01225Y0306*
X01205Y03005D02*
D01*
X01204Y03006*
X01204Y03007*
X01204Y03009*
X01204Y0301*
X01203Y03011*
X01203Y03013*
X01202Y03014*
X01201Y03015*
X01201Y03016*
X012Y03017*
X01199Y03018*
X01198Y03019*
X01197Y0302*
X01196Y03021*
X01195Y03022*
X01193Y03022*
X01192Y03023*
X01191Y03024*
X01189Y03024*
X01188Y03024*
X01187Y03024*
X01185Y03024*
X01184*
X01182Y03024*
X01181Y03024*
X0118Y03024*
X01178Y03024*
X01177Y03023*
X01176Y03022*
X01175Y03022*
X01173Y03021*
X01172Y0302*
X01171Y03019*
X0117Y03018*
X01169Y03017*
X01168Y03016*
X01168Y03015*
X01167Y03014*
X01166Y03013*
X01166Y03011*
X01165Y0301*
X01165Y03009*
X01165Y03007*
X01165Y03006*
X01165Y03005*
X01165Y03003*
X01165Y03002*
X01165Y03*
X01165Y02999*
X01166Y02998*
X01166Y02996*
X01167Y02995*
X01168Y02994*
X01168Y02993*
X01169Y02992*
X0117Y02991*
X01171Y0299*
X01172Y02989*
X01173Y02988*
X01175Y02987*
X01176Y02987*
X01177Y02986*
X01178Y02985*
X0118Y02985*
X01181Y02985*
X01182Y02985*
X01184Y02985*
X01185*
X01187Y02985*
X01188Y02985*
X01189Y02985*
X01191Y02985*
X01192Y02986*
X01193Y02987*
X01195Y02987*
X01196Y02988*
X01197Y02989*
X01198Y0299*
X01199Y02991*
X012Y02992*
X01201Y02993*
X01201Y02994*
X01202Y02995*
X01203Y02996*
X01203Y02998*
X01204Y02999*
X01204Y03*
X01204Y03002*
X01204Y03003*
X01205Y03005*
X0127Y03085D02*
D01*
X01269Y03086*
X01269Y03087*
X01269Y03089*
X01269Y0309*
X01268Y03091*
X01268Y03093*
X01267Y03094*
X01266Y03095*
X01266Y03096*
X01265Y03097*
X01264Y03098*
X01263Y03099*
X01262Y031*
X01261Y03101*
X0126Y03102*
X01258Y03102*
X01257Y03103*
X01256Y03104*
X01254Y03104*
X01253Y03104*
X01252Y03104*
X0125Y03104*
X01249*
X01247Y03104*
X01246Y03104*
X01245Y03104*
X01243Y03104*
X01242Y03103*
X01241Y03102*
X0124Y03102*
X01238Y03101*
X01237Y031*
X01236Y03099*
X01235Y03098*
X01234Y03097*
X01233Y03096*
X01233Y03095*
X01232Y03094*
X01231Y03093*
X01231Y03091*
X0123Y0309*
X0123Y03089*
X0123Y03087*
X0123Y03086*
X0123Y03085*
X0123Y03083*
X0123Y03082*
X0123Y0308*
X0123Y03079*
X01231Y03078*
X01231Y03076*
X01232Y03075*
X01233Y03074*
X01233Y03073*
X01234Y03072*
X01235Y03071*
X01236Y0307*
X01237Y03069*
X01238Y03068*
X0124Y03067*
X01241Y03067*
X01242Y03066*
X01243Y03065*
X01245Y03065*
X01246Y03065*
X01247Y03065*
X01249Y03065*
X0125*
X01252Y03065*
X01253Y03065*
X01254Y03065*
X01256Y03065*
X01257Y03066*
X01258Y03067*
X0126Y03067*
X01261Y03068*
X01262Y03069*
X01263Y0307*
X01264Y03071*
X01265Y03072*
X01266Y03073*
X01266Y03074*
X01267Y03075*
X01268Y03076*
X01268Y03078*
X01269Y03079*
X01269Y0308*
X01269Y03082*
X01269Y03083*
X0127Y03085*
X02551Y0242D02*
D01*
X02551Y02421*
X02551Y02423*
X0255Y02424*
X0255Y02425*
X0255Y02427*
X02549Y02428*
X02549Y02429*
X02548Y0243*
X02547Y02431*
X02546Y02433*
X02545Y02434*
X02544Y02435*
X02543Y02436*
X02542Y02436*
X02541Y02437*
X0254Y02438*
X02538Y02438*
X02537Y02439*
X02536Y02439*
X02534Y02439*
X02533Y0244*
X02532Y0244*
X0253*
X02529Y0244*
X02527Y02439*
X02526Y02439*
X02525Y02439*
X02523Y02438*
X02522Y02438*
X02521Y02437*
X0252Y02436*
X02519Y02436*
X02517Y02435*
X02516Y02434*
X02516Y02433*
X02515Y02431*
X02514Y0243*
X02513Y02429*
X02513Y02428*
X02512Y02427*
X02512Y02425*
X02511Y02424*
X02511Y02423*
X02511Y02421*
X02511Y0242*
X02511Y02418*
X02511Y02417*
X02511Y02416*
X02512Y02414*
X02512Y02413*
X02513Y02412*
X02513Y0241*
X02514Y02409*
X02515Y02408*
X02516Y02407*
X02516Y02406*
X02517Y02405*
X02519Y02404*
X0252Y02403*
X02521Y02402*
X02522Y02402*
X02523Y02401*
X02525Y02401*
X02526Y024*
X02527Y024*
X02529Y024*
X0253Y024*
X02532*
X02533Y024*
X02534Y024*
X02536Y024*
X02537Y02401*
X02538Y02401*
X0254Y02402*
X02541Y02402*
X02542Y02403*
X02543Y02404*
X02544Y02405*
X02545Y02406*
X02546Y02407*
X02547Y02408*
X02548Y02409*
X02549Y0241*
X02549Y02412*
X0255Y02413*
X0255Y02414*
X0255Y02416*
X02551Y02417*
X02551Y02418*
X02551Y0242*
X02065Y02905D02*
D01*
X02064Y02906*
X02064Y02907*
X02064Y02909*
X02064Y0291*
X02063Y02911*
X02063Y02913*
X02062Y02914*
X02061Y02915*
X02061Y02916*
X0206Y02917*
X02059Y02918*
X02058Y02919*
X02057Y0292*
X02056Y02921*
X02055Y02922*
X02053Y02922*
X02052Y02923*
X02051Y02924*
X02049Y02924*
X02048Y02924*
X02047Y02924*
X02045Y02924*
X02044*
X02042Y02924*
X02041Y02924*
X0204Y02924*
X02038Y02924*
X02037Y02923*
X02036Y02922*
X02035Y02922*
X02033Y02921*
X02032Y0292*
X02031Y02919*
X0203Y02918*
X02029Y02917*
X02028Y02916*
X02028Y02915*
X02027Y02914*
X02026Y02913*
X02026Y02911*
X02025Y0291*
X02025Y02909*
X02025Y02907*
X02025Y02906*
X02025Y02905*
X02025Y02903*
X02025Y02902*
X02025Y029*
X02025Y02899*
X02026Y02898*
X02026Y02896*
X02027Y02895*
X02028Y02894*
X02028Y02893*
X02029Y02892*
X0203Y02891*
X02031Y0289*
X02032Y02889*
X02033Y02888*
X02035Y02887*
X02036Y02887*
X02037Y02886*
X02038Y02885*
X0204Y02885*
X02041Y02885*
X02042Y02885*
X02044Y02885*
X02045*
X02047Y02885*
X02048Y02885*
X02049Y02885*
X02051Y02885*
X02052Y02886*
X02053Y02887*
X02055Y02887*
X02056Y02888*
X02057Y02889*
X02058Y0289*
X02059Y02891*
X0206Y02892*
X02061Y02893*
X02061Y02894*
X02062Y02895*
X02063Y02896*
X02063Y02898*
X02064Y02899*
X02064Y029*
X02064Y02902*
X02064Y02903*
X02065Y02905*
X0295Y022D02*
D01*
X02949Y02201*
X02949Y02202*
X02949Y02204*
X02949Y02205*
X02948Y02206*
X02948Y02208*
X02947Y02209*
X02946Y0221*
X02946Y02211*
X02945Y02212*
X02944Y02213*
X02943Y02214*
X02942Y02215*
X02941Y02216*
X0294Y02217*
X02938Y02217*
X02937Y02218*
X02936Y02219*
X02934Y02219*
X02933Y02219*
X02932Y02219*
X0293Y02219*
X02929*
X02927Y02219*
X02926Y02219*
X02925Y02219*
X02923Y02219*
X02922Y02218*
X02921Y02217*
X0292Y02217*
X02918Y02216*
X02917Y02215*
X02916Y02214*
X02915Y02213*
X02914Y02212*
X02913Y02211*
X02913Y0221*
X02912Y02209*
X02911Y02208*
X02911Y02206*
X0291Y02205*
X0291Y02204*
X0291Y02202*
X0291Y02201*
X0291Y022*
X0291Y02198*
X0291Y02197*
X0291Y02195*
X0291Y02194*
X02911Y02193*
X02911Y02191*
X02912Y0219*
X02913Y02189*
X02913Y02188*
X02914Y02187*
X02915Y02186*
X02916Y02185*
X02917Y02184*
X02918Y02183*
X0292Y02182*
X02921Y02182*
X02922Y02181*
X02923Y0218*
X02925Y0218*
X02926Y0218*
X02927Y0218*
X02929Y0218*
X0293*
X02932Y0218*
X02933Y0218*
X02934Y0218*
X02936Y0218*
X02937Y02181*
X02938Y02182*
X0294Y02182*
X02941Y02183*
X02942Y02184*
X02943Y02185*
X02944Y02186*
X02945Y02187*
X02946Y02188*
X02946Y02189*
X02947Y0219*
X02948Y02191*
X02948Y02193*
X02949Y02194*
X02949Y02195*
X02949Y02197*
X02949Y02198*
X0295Y022*
X0299D02*
D01*
X02989Y02201*
X02989Y02202*
X02989Y02204*
X02989Y02205*
X02988Y02206*
X02988Y02208*
X02987Y02209*
X02986Y0221*
X02986Y02211*
X02985Y02212*
X02984Y02213*
X02983Y02214*
X02982Y02215*
X02981Y02216*
X0298Y02217*
X02978Y02217*
X02977Y02218*
X02976Y02219*
X02974Y02219*
X02973Y02219*
X02972Y02219*
X0297Y02219*
X02969*
X02967Y02219*
X02966Y02219*
X02965Y02219*
X02963Y02219*
X02962Y02218*
X02961Y02217*
X0296Y02217*
X02958Y02216*
X02957Y02215*
X02956Y02214*
X02955Y02213*
X02954Y02212*
X02953Y02211*
X02953Y0221*
X02952Y02209*
X02951Y02208*
X02951Y02206*
X0295Y02205*
X0295Y02204*
X0295Y02202*
X0295Y02201*
X0295Y022*
X0295Y02198*
X0295Y02197*
X0295Y02195*
X0295Y02194*
X02951Y02193*
X02951Y02191*
X02952Y0219*
X02953Y02189*
X02953Y02188*
X02954Y02187*
X02955Y02186*
X02956Y02185*
X02957Y02184*
X02958Y02183*
X0296Y02182*
X02961Y02182*
X02962Y02181*
X02963Y0218*
X02965Y0218*
X02966Y0218*
X02967Y0218*
X02969Y0218*
X0297*
X02972Y0218*
X02973Y0218*
X02974Y0218*
X02976Y0218*
X02977Y02181*
X02978Y02182*
X0298Y02182*
X02981Y02183*
X02982Y02184*
X02983Y02185*
X02984Y02186*
X02985Y02187*
X02986Y02188*
X02986Y02189*
X02987Y0219*
X02988Y02191*
X02988Y02193*
X02989Y02194*
X02989Y02195*
X02989Y02197*
X02989Y02198*
X0299Y022*
X0229Y0208D02*
D01*
X02289Y02081*
X02289Y02082*
X02289Y02084*
X02289Y02085*
X02288Y02086*
X02288Y02088*
X02287Y02089*
X02286Y0209*
X02286Y02091*
X02285Y02092*
X02284Y02093*
X02283Y02094*
X02282Y02095*
X02281Y02096*
X0228Y02097*
X02278Y02097*
X02277Y02098*
X02276Y02099*
X02274Y02099*
X02273Y02099*
X02272Y02099*
X0227Y02099*
X02269*
X02267Y02099*
X02266Y02099*
X02265Y02099*
X02263Y02099*
X02262Y02098*
X02261Y02097*
X0226Y02097*
X02258Y02096*
X02257Y02095*
X02256Y02094*
X02255Y02093*
X02254Y02092*
X02253Y02091*
X02253Y0209*
X02252Y02089*
X02251Y02088*
X02251Y02086*
X0225Y02085*
X0225Y02084*
X0225Y02082*
X0225Y02081*
X0225Y0208*
X0225Y02078*
X0225Y02077*
X0225Y02075*
X0225Y02074*
X02251Y02073*
X02251Y02071*
X02252Y0207*
X02253Y02069*
X02253Y02068*
X02254Y02067*
X02255Y02066*
X02256Y02065*
X02257Y02064*
X02258Y02063*
X0226Y02062*
X02261Y02062*
X02262Y02061*
X02263Y0206*
X02265Y0206*
X02266Y0206*
X02267Y0206*
X02269Y0206*
X0227*
X02272Y0206*
X02273Y0206*
X02274Y0206*
X02276Y0206*
X02277Y02061*
X02278Y02062*
X0228Y02062*
X02281Y02063*
X02282Y02064*
X02283Y02065*
X02284Y02066*
X02285Y02067*
X02286Y02068*
X02286Y02069*
X02287Y0207*
X02288Y02071*
X02288Y02073*
X02289Y02074*
X02289Y02075*
X02289Y02077*
X02289Y02078*
X0229Y0208*
X02527Y02349D02*
D01*
X02527Y0235*
X02527Y02352*
X02526Y02353*
X02526Y02354*
X02526Y02356*
X02525Y02357*
X02524Y02358*
X02524Y02359*
X02523Y02361*
X02522Y02362*
X02521Y02363*
X0252Y02364*
X02519Y02365*
X02518Y02365*
X02517Y02366*
X02516Y02367*
X02514Y02367*
X02513Y02368*
X02512Y02368*
X0251Y02369*
X02509Y02369*
X02507Y02369*
X02506*
X02505Y02369*
X02503Y02369*
X02502Y02368*
X02501Y02368*
X02499Y02367*
X02498Y02367*
X02497Y02366*
X02496Y02365*
X02494Y02365*
X02493Y02364*
X02492Y02363*
X02491Y02362*
X02491Y02361*
X0249Y02359*
X02489Y02358*
X02488Y02357*
X02488Y02356*
X02488Y02354*
X02487Y02353*
X02487Y02352*
X02487Y0235*
X02487Y02349*
X02487Y02347*
X02487Y02346*
X02487Y02345*
X02488Y02343*
X02488Y02342*
X02488Y02341*
X02489Y02339*
X0249Y02338*
X02491Y02337*
X02491Y02336*
X02492Y02335*
X02493Y02334*
X02494Y02333*
X02496Y02332*
X02497Y02331*
X02498Y02331*
X02499Y0233*
X02501Y0233*
X02502Y02329*
X02503Y02329*
X02505Y02329*
X02506Y02329*
X02507*
X02509Y02329*
X0251Y02329*
X02512Y02329*
X02513Y0233*
X02514Y0233*
X02516Y02331*
X02517Y02331*
X02518Y02332*
X02519Y02333*
X0252Y02334*
X02521Y02335*
X02522Y02336*
X02523Y02337*
X02524Y02338*
X02524Y02339*
X02525Y02341*
X02526Y02342*
X02526Y02343*
X02526Y02345*
X02527Y02346*
X02527Y02347*
X02527Y02349*
X00747Y02967D02*
D01*
X00747Y02968*
X00747Y0297*
X00747Y02971*
X00746Y02973*
X00746Y02974*
X00745Y02975*
X00745Y02976*
X00744Y02978*
X00743Y02979*
X00742Y0298*
X00741Y02981*
X0074Y02982*
X00739Y02983*
X00738Y02984*
X00737Y02984*
X00736Y02985*
X00734Y02986*
X00733Y02986*
X00732Y02986*
X0073Y02987*
X00729Y02987*
X00728Y02987*
X00726*
X00725Y02987*
X00724Y02987*
X00722Y02986*
X00721Y02986*
X0072Y02986*
X00718Y02985*
X00717Y02984*
X00716Y02984*
X00715Y02983*
X00714Y02982*
X00713Y02981*
X00712Y0298*
X00711Y02979*
X0071Y02978*
X00709Y02976*
X00709Y02975*
X00708Y02974*
X00708Y02973*
X00707Y02971*
X00707Y0297*
X00707Y02968*
X00707Y02967*
X00707Y02966*
X00707Y02964*
X00707Y02963*
X00708Y02961*
X00708Y0296*
X00709Y02959*
X00709Y02958*
X0071Y02956*
X00711Y02955*
X00712Y02954*
X00713Y02953*
X00714Y02952*
X00715Y02951*
X00716Y0295*
X00717Y0295*
X00718Y02949*
X0072Y02948*
X00721Y02948*
X00722Y02948*
X00724Y02947*
X00725Y02947*
X00726Y02947*
X00728*
X00729Y02947*
X0073Y02947*
X00732Y02948*
X00733Y02948*
X00734Y02948*
X00736Y02949*
X00737Y0295*
X00738Y0295*
X00739Y02951*
X0074Y02952*
X00741Y02953*
X00742Y02954*
X00743Y02955*
X00744Y02956*
X00745Y02958*
X00745Y02959*
X00746Y0296*
X00746Y02961*
X00747Y02963*
X00747Y02964*
X00747Y02966*
X00747Y02967*
X02185Y02942D02*
D01*
X02184Y02943*
X02184Y02945*
X02184Y02946*
X02184Y02948*
X02183Y02949*
X02183Y0295*
X02182Y02951*
X02181Y02953*
X02181Y02954*
X0218Y02955*
X02179Y02956*
X02178Y02957*
X02177Y02958*
X02176Y02959*
X02175Y02959*
X02173Y0296*
X02172Y02961*
X02171Y02961*
X02169Y02961*
X02168Y02962*
X02167Y02962*
X02165Y02962*
X02164*
X02162Y02962*
X02161Y02962*
X0216Y02961*
X02158Y02961*
X02157Y02961*
X02156Y0296*
X02155Y02959*
X02153Y02959*
X02152Y02958*
X02151Y02957*
X0215Y02956*
X02149Y02955*
X02148Y02954*
X02148Y02953*
X02147Y02951*
X02146Y0295*
X02146Y02949*
X02145Y02948*
X02145Y02946*
X02145Y02945*
X02145Y02943*
X02145Y02942*
X02145Y02941*
X02145Y02939*
X02145Y02938*
X02145Y02936*
X02146Y02935*
X02146Y02934*
X02147Y02933*
X02148Y02931*
X02148Y0293*
X02149Y02929*
X0215Y02928*
X02151Y02927*
X02152Y02926*
X02153Y02925*
X02155Y02925*
X02156Y02924*
X02157Y02923*
X02158Y02923*
X0216Y02923*
X02161Y02922*
X02162Y02922*
X02164Y02922*
X02165*
X02167Y02922*
X02168Y02922*
X02169Y02923*
X02171Y02923*
X02172Y02923*
X02173Y02924*
X02175Y02925*
X02176Y02925*
X02177Y02926*
X02178Y02927*
X02179Y02928*
X0218Y02929*
X02181Y0293*
X02181Y02931*
X02182Y02933*
X02183Y02934*
X02183Y02935*
X02184Y02936*
X02184Y02938*
X02184Y02939*
X02184Y02941*
X02185Y02942*
X0127Y03145D02*
D01*
X01269Y03146*
X01269Y03147*
X01269Y03149*
X01269Y0315*
X01268Y03151*
X01268Y03153*
X01267Y03154*
X01266Y03155*
X01266Y03156*
X01265Y03157*
X01264Y03158*
X01263Y03159*
X01262Y0316*
X01261Y03161*
X0126Y03162*
X01258Y03162*
X01257Y03163*
X01256Y03164*
X01254Y03164*
X01253Y03164*
X01252Y03164*
X0125Y03164*
X01249*
X01247Y03164*
X01246Y03164*
X01245Y03164*
X01243Y03164*
X01242Y03163*
X01241Y03162*
X0124Y03162*
X01238Y03161*
X01237Y0316*
X01236Y03159*
X01235Y03158*
X01234Y03157*
X01233Y03156*
X01233Y03155*
X01232Y03154*
X01231Y03153*
X01231Y03151*
X0123Y0315*
X0123Y03149*
X0123Y03147*
X0123Y03146*
X0123Y03145*
X0123Y03143*
X0123Y03142*
X0123Y0314*
X0123Y03139*
X01231Y03138*
X01231Y03136*
X01232Y03135*
X01233Y03134*
X01233Y03133*
X01234Y03132*
X01235Y03131*
X01236Y0313*
X01237Y03129*
X01238Y03128*
X0124Y03127*
X01241Y03127*
X01242Y03126*
X01243Y03125*
X01245Y03125*
X01246Y03125*
X01247Y03125*
X01249Y03125*
X0125*
X01252Y03125*
X01253Y03125*
X01254Y03125*
X01256Y03125*
X01257Y03126*
X01258Y03127*
X0126Y03127*
X01261Y03128*
X01262Y03129*
X01263Y0313*
X01264Y03131*
X01265Y03132*
X01266Y03133*
X01266Y03134*
X01267Y03135*
X01268Y03136*
X01268Y03138*
X01269Y03139*
X01269Y0314*
X01269Y03142*
X01269Y03143*
X0127Y03145*
X0311Y02945D02*
D01*
X03109Y02946*
X03109Y02947*
X03109Y02949*
X03109Y0295*
X03108Y02951*
X03108Y02953*
X03107Y02954*
X03106Y02955*
X03106Y02956*
X03105Y02957*
X03104Y02958*
X03103Y02959*
X03102Y0296*
X03101Y02961*
X031Y02962*
X03098Y02962*
X03097Y02963*
X03096Y02964*
X03094Y02964*
X03093Y02964*
X03092Y02964*
X0309Y02964*
X03089*
X03087Y02964*
X03086Y02964*
X03085Y02964*
X03083Y02964*
X03082Y02963*
X03081Y02962*
X0308Y02962*
X03078Y02961*
X03077Y0296*
X03076Y02959*
X03075Y02958*
X03074Y02957*
X03073Y02956*
X03073Y02955*
X03072Y02954*
X03071Y02953*
X03071Y02951*
X0307Y0295*
X0307Y02949*
X0307Y02947*
X0307Y02946*
X0307Y02945*
X0307Y02943*
X0307Y02942*
X0307Y0294*
X0307Y02939*
X03071Y02938*
X03071Y02936*
X03072Y02935*
X03073Y02934*
X03073Y02933*
X03074Y02932*
X03075Y02931*
X03076Y0293*
X03077Y02929*
X03078Y02928*
X0308Y02927*
X03081Y02927*
X03082Y02926*
X03083Y02925*
X03085Y02925*
X03086Y02925*
X03087Y02925*
X03089Y02925*
X0309*
X03092Y02925*
X03093Y02925*
X03094Y02925*
X03096Y02925*
X03097Y02926*
X03098Y02927*
X031Y02927*
X03101Y02928*
X03102Y02929*
X03103Y0293*
X03104Y02931*
X03105Y02932*
X03106Y02933*
X03106Y02934*
X03107Y02935*
X03108Y02936*
X03108Y02938*
X03109Y02939*
X03109Y0294*
X03109Y02942*
X03109Y02943*
X0311Y02945*
X0333Y02315D02*
D01*
X03329Y02316*
X03329Y02317*
X03329Y02319*
X03329Y0232*
X03328Y02321*
X03328Y02323*
X03327Y02324*
X03326Y02325*
X03326Y02326*
X03325Y02327*
X03324Y02328*
X03323Y02329*
X03322Y0233*
X03321Y02331*
X0332Y02332*
X03318Y02332*
X03317Y02333*
X03316Y02334*
X03314Y02334*
X03313Y02334*
X03312Y02334*
X0331Y02334*
X03309*
X03307Y02334*
X03306Y02334*
X03305Y02334*
X03303Y02334*
X03302Y02333*
X03301Y02332*
X033Y02332*
X03298Y02331*
X03297Y0233*
X03296Y02329*
X03295Y02328*
X03294Y02327*
X03293Y02326*
X03293Y02325*
X03292Y02324*
X03291Y02323*
X03291Y02321*
X0329Y0232*
X0329Y02319*
X0329Y02317*
X0329Y02316*
X0329Y02315*
X0329Y02313*
X0329Y02312*
X0329Y0231*
X0329Y02309*
X03291Y02308*
X03291Y02306*
X03292Y02305*
X03293Y02304*
X03293Y02303*
X03294Y02302*
X03295Y02301*
X03296Y023*
X03297Y02299*
X03298Y02298*
X033Y02297*
X03301Y02297*
X03302Y02296*
X03303Y02295*
X03305Y02295*
X03306Y02295*
X03307Y02295*
X03309Y02295*
X0331*
X03312Y02295*
X03313Y02295*
X03314Y02295*
X03316Y02295*
X03317Y02296*
X03318Y02297*
X0332Y02297*
X03321Y02298*
X03322Y02299*
X03323Y023*
X03324Y02301*
X03325Y02302*
X03326Y02303*
X03326Y02304*
X03327Y02305*
X03328Y02306*
X03328Y02308*
X03329Y02309*
X03329Y0231*
X03329Y02312*
X03329Y02313*
X0333Y02315*
X02185Y00535D02*
D01*
X02184Y00536*
X02184Y00537*
X02184Y00539*
X02184Y0054*
X02183Y00541*
X02183Y00543*
X02182Y00544*
X02181Y00545*
X02181Y00546*
X0218Y00547*
X02179Y00548*
X02178Y00549*
X02177Y0055*
X02176Y00551*
X02175Y00552*
X02173Y00552*
X02172Y00553*
X02171Y00554*
X02169Y00554*
X02168Y00554*
X02167Y00554*
X02165Y00554*
X02164*
X02162Y00554*
X02161Y00554*
X0216Y00554*
X02158Y00554*
X02157Y00553*
X02156Y00552*
X02155Y00552*
X02153Y00551*
X02152Y0055*
X02151Y00549*
X0215Y00548*
X02149Y00547*
X02148Y00546*
X02148Y00545*
X02147Y00544*
X02146Y00543*
X02146Y00541*
X02145Y0054*
X02145Y00539*
X02145Y00537*
X02145Y00536*
X02145Y00535*
X02145Y00533*
X02145Y00532*
X02145Y0053*
X02145Y00529*
X02146Y00528*
X02146Y00526*
X02147Y00525*
X02148Y00524*
X02148Y00523*
X02149Y00522*
X0215Y00521*
X02151Y0052*
X02152Y00519*
X02153Y00518*
X02155Y00517*
X02156Y00517*
X02157Y00516*
X02158Y00515*
X0216Y00515*
X02161Y00515*
X02162Y00515*
X02164Y00515*
X02165*
X02167Y00515*
X02168Y00515*
X02169Y00515*
X02171Y00515*
X02172Y00516*
X02173Y00517*
X02175Y00517*
X02176Y00518*
X02177Y00519*
X02178Y0052*
X02179Y00521*
X0218Y00522*
X02181Y00523*
X02181Y00524*
X02182Y00525*
X02183Y00526*
X02183Y00528*
X02184Y00529*
X02184Y0053*
X02184Y00532*
X02184Y00533*
X02185Y00535*
X0223Y02035D02*
D01*
X02229Y02036*
X02229Y02037*
X02229Y02039*
X02229Y0204*
X02228Y02041*
X02228Y02043*
X02227Y02044*
X02226Y02045*
X02226Y02046*
X02225Y02047*
X02224Y02048*
X02223Y02049*
X02222Y0205*
X02221Y02051*
X0222Y02052*
X02218Y02052*
X02217Y02053*
X02216Y02054*
X02214Y02054*
X02213Y02054*
X02212Y02054*
X0221Y02054*
X02209*
X02207Y02054*
X02206Y02054*
X02205Y02054*
X02203Y02054*
X02202Y02053*
X02201Y02052*
X022Y02052*
X02198Y02051*
X02197Y0205*
X02196Y02049*
X02195Y02048*
X02194Y02047*
X02193Y02046*
X02193Y02045*
X02192Y02044*
X02191Y02043*
X02191Y02041*
X0219Y0204*
X0219Y02039*
X0219Y02037*
X0219Y02036*
X0219Y02035*
X0219Y02033*
X0219Y02032*
X0219Y0203*
X0219Y02029*
X02191Y02028*
X02191Y02026*
X02192Y02025*
X02193Y02024*
X02193Y02023*
X02194Y02022*
X02195Y02021*
X02196Y0202*
X02197Y02019*
X02198Y02018*
X022Y02017*
X02201Y02017*
X02202Y02016*
X02203Y02015*
X02205Y02015*
X02206Y02015*
X02207Y02015*
X02209Y02015*
X0221*
X02212Y02015*
X02213Y02015*
X02214Y02015*
X02216Y02015*
X02217Y02016*
X02218Y02017*
X0222Y02017*
X02221Y02018*
X02222Y02019*
X02223Y0202*
X02224Y02021*
X02225Y02022*
X02226Y02023*
X02226Y02024*
X02227Y02025*
X02228Y02026*
X02228Y02028*
X02229Y02029*
X02229Y0203*
X02229Y02032*
X02229Y02033*
X0223Y02035*
X0255Y02575D02*
D01*
X02549Y02576*
X02549Y02577*
X02549Y02579*
X02549Y0258*
X02548Y02581*
X02548Y02583*
X02547Y02584*
X02546Y02585*
X02546Y02586*
X02545Y02587*
X02544Y02588*
X02543Y02589*
X02542Y0259*
X02541Y02591*
X0254Y02592*
X02538Y02592*
X02537Y02593*
X02536Y02594*
X02534Y02594*
X02533Y02594*
X02532Y02594*
X0253Y02594*
X02529*
X02527Y02594*
X02526Y02594*
X02525Y02594*
X02523Y02594*
X02522Y02593*
X02521Y02592*
X0252Y02592*
X02518Y02591*
X02517Y0259*
X02516Y02589*
X02515Y02588*
X02514Y02587*
X02513Y02586*
X02513Y02585*
X02512Y02584*
X02511Y02583*
X02511Y02581*
X0251Y0258*
X0251Y02579*
X0251Y02577*
X0251Y02576*
X0251Y02575*
X0251Y02573*
X0251Y02572*
X0251Y0257*
X0251Y02569*
X02511Y02568*
X02511Y02566*
X02512Y02565*
X02513Y02564*
X02513Y02563*
X02514Y02562*
X02515Y02561*
X02516Y0256*
X02517Y02559*
X02518Y02558*
X0252Y02557*
X02521Y02557*
X02522Y02556*
X02523Y02555*
X02525Y02555*
X02526Y02555*
X02527Y02555*
X02529Y02555*
X0253*
X02532Y02555*
X02533Y02555*
X02534Y02555*
X02536Y02555*
X02537Y02556*
X02538Y02557*
X0254Y02557*
X02541Y02558*
X02542Y02559*
X02543Y0256*
X02544Y02561*
X02545Y02562*
X02546Y02563*
X02546Y02564*
X02547Y02565*
X02548Y02566*
X02548Y02568*
X02549Y02569*
X02549Y0257*
X02549Y02572*
X02549Y02573*
X0255Y02575*
Y0261D02*
D01*
X02549Y02611*
X02549Y02612*
X02549Y02614*
X02549Y02615*
X02548Y02616*
X02548Y02618*
X02547Y02619*
X02546Y0262*
X02546Y02621*
X02545Y02622*
X02544Y02623*
X02543Y02624*
X02542Y02625*
X02541Y02626*
X0254Y02627*
X02538Y02627*
X02537Y02628*
X02536Y02629*
X02534Y02629*
X02533Y02629*
X02532Y02629*
X0253Y02629*
X02529*
X02527Y02629*
X02526Y02629*
X02525Y02629*
X02523Y02629*
X02522Y02628*
X02521Y02627*
X0252Y02627*
X02518Y02626*
X02517Y02625*
X02516Y02624*
X02515Y02623*
X02514Y02622*
X02513Y02621*
X02513Y0262*
X02512Y02619*
X02511Y02618*
X02511Y02616*
X0251Y02615*
X0251Y02614*
X0251Y02612*
X0251Y02611*
X0251Y0261*
X0251Y02608*
X0251Y02607*
X0251Y02605*
X0251Y02604*
X02511Y02603*
X02511Y02601*
X02512Y026*
X02513Y02599*
X02513Y02598*
X02514Y02597*
X02515Y02596*
X02516Y02595*
X02517Y02594*
X02518Y02593*
X0252Y02592*
X02521Y02592*
X02522Y02591*
X02523Y0259*
X02525Y0259*
X02526Y0259*
X02527Y0259*
X02529Y0259*
X0253*
X02532Y0259*
X02533Y0259*
X02534Y0259*
X02536Y0259*
X02537Y02591*
X02538Y02592*
X0254Y02592*
X02541Y02593*
X02542Y02594*
X02543Y02595*
X02544Y02596*
X02545Y02597*
X02546Y02598*
X02546Y02599*
X02547Y026*
X02548Y02601*
X02548Y02603*
X02549Y02604*
X02549Y02605*
X02549Y02607*
X02549Y02608*
X0255Y0261*
X012Y0297D02*
D01*
X01199Y02971*
X01199Y02972*
X01199Y02974*
X01199Y02975*
X01198Y02976*
X01198Y02978*
X01197Y02979*
X01196Y0298*
X01196Y02981*
X01195Y02982*
X01194Y02983*
X01193Y02984*
X01192Y02985*
X01191Y02986*
X0119Y02987*
X01188Y02987*
X01187Y02988*
X01186Y02989*
X01184Y02989*
X01183Y02989*
X01182Y02989*
X0118Y02989*
X01179*
X01177Y02989*
X01176Y02989*
X01175Y02989*
X01173Y02989*
X01172Y02988*
X01171Y02987*
X0117Y02987*
X01168Y02986*
X01167Y02985*
X01166Y02984*
X01165Y02983*
X01164Y02982*
X01163Y02981*
X01163Y0298*
X01162Y02979*
X01161Y02978*
X01161Y02976*
X0116Y02975*
X0116Y02974*
X0116Y02972*
X0116Y02971*
X0116Y0297*
X0116Y02968*
X0116Y02967*
X0116Y02965*
X0116Y02964*
X01161Y02963*
X01161Y02961*
X01162Y0296*
X01163Y02959*
X01163Y02958*
X01164Y02957*
X01165Y02956*
X01166Y02955*
X01167Y02954*
X01168Y02953*
X0117Y02952*
X01171Y02952*
X01172Y02951*
X01173Y0295*
X01175Y0295*
X01176Y0295*
X01177Y0295*
X01179Y0295*
X0118*
X01182Y0295*
X01183Y0295*
X01184Y0295*
X01186Y0295*
X01187Y02951*
X01188Y02952*
X0119Y02952*
X01191Y02953*
X01192Y02954*
X01193Y02955*
X01194Y02956*
X01195Y02957*
X01196Y02958*
X01196Y02959*
X01197Y0296*
X01198Y02961*
X01198Y02963*
X01199Y02964*
X01199Y02965*
X01199Y02967*
X01199Y02968*
X012Y0297*
X0143Y03095D02*
D01*
X01429Y03096*
X01429Y03097*
X01429Y03099*
X01429Y031*
X01428Y03101*
X01428Y03103*
X01427Y03104*
X01426Y03105*
X01426Y03106*
X01425Y03107*
X01424Y03108*
X01423Y03109*
X01422Y0311*
X01421Y03111*
X0142Y03112*
X01418Y03112*
X01417Y03113*
X01416Y03114*
X01414Y03114*
X01413Y03114*
X01412Y03114*
X0141Y03114*
X01409*
X01407Y03114*
X01406Y03114*
X01405Y03114*
X01403Y03114*
X01402Y03113*
X01401Y03112*
X014Y03112*
X01398Y03111*
X01397Y0311*
X01396Y03109*
X01395Y03108*
X01394Y03107*
X01393Y03106*
X01393Y03105*
X01392Y03104*
X01391Y03103*
X01391Y03101*
X0139Y031*
X0139Y03099*
X0139Y03097*
X0139Y03096*
X0139Y03095*
X0139Y03093*
X0139Y03092*
X0139Y0309*
X0139Y03089*
X01391Y03088*
X01391Y03086*
X01392Y03085*
X01393Y03084*
X01393Y03083*
X01394Y03082*
X01395Y03081*
X01396Y0308*
X01397Y03079*
X01398Y03078*
X014Y03077*
X01401Y03077*
X01402Y03076*
X01403Y03075*
X01405Y03075*
X01406Y03075*
X01407Y03075*
X01409Y03075*
X0141*
X01412Y03075*
X01413Y03075*
X01414Y03075*
X01416Y03075*
X01417Y03076*
X01418Y03077*
X0142Y03077*
X01421Y03078*
X01422Y03079*
X01423Y0308*
X01424Y03081*
X01425Y03082*
X01426Y03083*
X01426Y03084*
X01427Y03085*
X01428Y03086*
X01428Y03088*
X01429Y03089*
X01429Y0309*
X01429Y03092*
X01429Y03093*
X0143Y03095*
X0255Y02815D02*
D01*
X02549Y02816*
X02549Y02817*
X02549Y02819*
X02549Y0282*
X02548Y02821*
X02548Y02823*
X02547Y02824*
X02546Y02825*
X02546Y02826*
X02545Y02827*
X02544Y02828*
X02543Y02829*
X02542Y0283*
X02541Y02831*
X0254Y02832*
X02538Y02832*
X02537Y02833*
X02536Y02834*
X02534Y02834*
X02533Y02834*
X02532Y02834*
X0253Y02834*
X02529*
X02527Y02834*
X02526Y02834*
X02525Y02834*
X02523Y02834*
X02522Y02833*
X02521Y02832*
X0252Y02832*
X02518Y02831*
X02517Y0283*
X02516Y02829*
X02515Y02828*
X02514Y02827*
X02513Y02826*
X02513Y02825*
X02512Y02824*
X02511Y02823*
X02511Y02821*
X0251Y0282*
X0251Y02819*
X0251Y02817*
X0251Y02816*
X0251Y02815*
X0251Y02813*
X0251Y02812*
X0251Y0281*
X0251Y02809*
X02511Y02808*
X02511Y02806*
X02512Y02805*
X02513Y02804*
X02513Y02803*
X02514Y02802*
X02515Y02801*
X02516Y028*
X02517Y02799*
X02518Y02798*
X0252Y02797*
X02521Y02797*
X02522Y02796*
X02523Y02795*
X02525Y02795*
X02526Y02795*
X02527Y02795*
X02529Y02795*
X0253*
X02532Y02795*
X02533Y02795*
X02534Y02795*
X02536Y02795*
X02537Y02796*
X02538Y02797*
X0254Y02797*
X02541Y02798*
X02542Y02799*
X02543Y028*
X02544Y02801*
X02545Y02802*
X02546Y02803*
X02546Y02804*
X02547Y02805*
X02548Y02806*
X02548Y02808*
X02549Y02809*
X02549Y0281*
X02549Y02812*
X02549Y02813*
X0255Y02815*
Y02765D02*
D01*
X02549Y02766*
X02549Y02767*
X02549Y02769*
X02549Y0277*
X02548Y02771*
X02548Y02773*
X02547Y02774*
X02546Y02775*
X02546Y02776*
X02545Y02777*
X02544Y02778*
X02543Y02779*
X02542Y0278*
X02541Y02781*
X0254Y02782*
X02538Y02782*
X02537Y02783*
X02536Y02784*
X02534Y02784*
X02533Y02784*
X02532Y02784*
X0253Y02784*
X02529*
X02527Y02784*
X02526Y02784*
X02525Y02784*
X02523Y02784*
X02522Y02783*
X02521Y02782*
X0252Y02782*
X02518Y02781*
X02517Y0278*
X02516Y02779*
X02515Y02778*
X02514Y02777*
X02513Y02776*
X02513Y02775*
X02512Y02774*
X02511Y02773*
X02511Y02771*
X0251Y0277*
X0251Y02769*
X0251Y02767*
X0251Y02766*
X0251Y02765*
X0251Y02763*
X0251Y02762*
X0251Y0276*
X0251Y02759*
X02511Y02758*
X02511Y02756*
X02512Y02755*
X02513Y02754*
X02513Y02753*
X02514Y02752*
X02515Y02751*
X02516Y0275*
X02517Y02749*
X02518Y02748*
X0252Y02747*
X02521Y02747*
X02522Y02746*
X02523Y02745*
X02525Y02745*
X02526Y02745*
X02527Y02745*
X02529Y02745*
X0253*
X02532Y02745*
X02533Y02745*
X02534Y02745*
X02536Y02745*
X02537Y02746*
X02538Y02747*
X0254Y02747*
X02541Y02748*
X02542Y02749*
X02543Y0275*
X02544Y02751*
X02545Y02752*
X02546Y02753*
X02546Y02754*
X02547Y02755*
X02548Y02756*
X02548Y02758*
X02549Y02759*
X02549Y0276*
X02549Y02762*
X02549Y02763*
X0255Y02765*
X0192Y01803D02*
D01*
X01919Y01804*
X01919Y01805*
X01919Y01807*
X01919Y01808*
X01918Y01809*
X01918Y01811*
X01917Y01812*
X01916Y01813*
X01916Y01814*
X01915Y01815*
X01914Y01816*
X01913Y01817*
X01912Y01818*
X01911Y01819*
X0191Y0182*
X01908Y0182*
X01907Y01821*
X01906Y01822*
X01904Y01822*
X01903Y01822*
X01902Y01822*
X019Y01822*
X01899*
X01897Y01822*
X01896Y01822*
X01895Y01822*
X01893Y01822*
X01892Y01821*
X01891Y0182*
X0189Y0182*
X01888Y01819*
X01887Y01818*
X01886Y01817*
X01885Y01816*
X01884Y01815*
X01883Y01814*
X01883Y01813*
X01882Y01812*
X01881Y01811*
X01881Y01809*
X0188Y01808*
X0188Y01807*
X0188Y01805*
X0188Y01804*
X0188Y01803*
X0188Y01801*
X0188Y018*
X0188Y01798*
X0188Y01797*
X01881Y01796*
X01881Y01794*
X01882Y01793*
X01883Y01792*
X01883Y01791*
X01884Y0179*
X01885Y01789*
X01886Y01788*
X01887Y01787*
X01888Y01786*
X0189Y01785*
X01891Y01785*
X01892Y01784*
X01893Y01783*
X01895Y01783*
X01896Y01783*
X01897Y01783*
X01899Y01783*
X019*
X01902Y01783*
X01903Y01783*
X01904Y01783*
X01906Y01783*
X01907Y01784*
X01908Y01785*
X0191Y01785*
X01911Y01786*
X01912Y01787*
X01913Y01788*
X01914Y01789*
X01915Y0179*
X01916Y01791*
X01916Y01792*
X01917Y01793*
X01918Y01794*
X01918Y01796*
X01919Y01797*
X01919Y01798*
X01919Y018*
X01919Y01801*
X0192Y01803*
X0253Y02655D02*
D01*
X02529Y02656*
X02529Y02657*
X02529Y02659*
X02529Y0266*
X02528Y02661*
X02528Y02663*
X02527Y02664*
X02526Y02665*
X02526Y02666*
X02525Y02667*
X02524Y02668*
X02523Y02669*
X02522Y0267*
X02521Y02671*
X0252Y02672*
X02518Y02672*
X02517Y02673*
X02516Y02674*
X02514Y02674*
X02513Y02674*
X02512Y02674*
X0251Y02674*
X02509*
X02507Y02674*
X02506Y02674*
X02505Y02674*
X02503Y02674*
X02502Y02673*
X02501Y02672*
X025Y02672*
X02498Y02671*
X02497Y0267*
X02496Y02669*
X02495Y02668*
X02494Y02667*
X02493Y02666*
X02493Y02665*
X02492Y02664*
X02491Y02663*
X02491Y02661*
X0249Y0266*
X0249Y02659*
X0249Y02657*
X0249Y02656*
X0249Y02655*
X0249Y02653*
X0249Y02652*
X0249Y0265*
X0249Y02649*
X02491Y02648*
X02491Y02646*
X02492Y02645*
X02493Y02644*
X02493Y02643*
X02494Y02642*
X02495Y02641*
X02496Y0264*
X02497Y02639*
X02498Y02638*
X025Y02637*
X02501Y02637*
X02502Y02636*
X02503Y02635*
X02505Y02635*
X02506Y02635*
X02507Y02635*
X02509Y02635*
X0251*
X02512Y02635*
X02513Y02635*
X02514Y02635*
X02516Y02635*
X02517Y02636*
X02518Y02637*
X0252Y02637*
X02521Y02638*
X02522Y02639*
X02523Y0264*
X02524Y02641*
X02525Y02642*
X02526Y02643*
X02526Y02644*
X02527Y02645*
X02528Y02646*
X02528Y02648*
X02529Y02649*
X02529Y0265*
X02529Y02652*
X02529Y02653*
X0253Y02655*
X01885Y0178D02*
D01*
X01884Y01781*
X01884Y01782*
X01884Y01784*
X01884Y01785*
X01883Y01786*
X01883Y01788*
X01882Y01789*
X01881Y0179*
X01881Y01791*
X0188Y01792*
X01879Y01793*
X01878Y01794*
X01877Y01795*
X01876Y01796*
X01875Y01797*
X01873Y01797*
X01872Y01798*
X01871Y01799*
X01869Y01799*
X01868Y01799*
X01867Y01799*
X01865Y01799*
X01864*
X01862Y01799*
X01861Y01799*
X0186Y01799*
X01858Y01799*
X01857Y01798*
X01856Y01797*
X01855Y01797*
X01853Y01796*
X01852Y01795*
X01851Y01794*
X0185Y01793*
X01849Y01792*
X01848Y01791*
X01848Y0179*
X01847Y01789*
X01846Y01788*
X01846Y01786*
X01845Y01785*
X01845Y01784*
X01845Y01782*
X01845Y01781*
X01845Y0178*
X01845Y01778*
X01845Y01777*
X01845Y01775*
X01845Y01774*
X01846Y01773*
X01846Y01771*
X01847Y0177*
X01848Y01769*
X01848Y01768*
X01849Y01767*
X0185Y01766*
X01851Y01765*
X01852Y01764*
X01853Y01763*
X01855Y01762*
X01856Y01762*
X01857Y01761*
X01858Y0176*
X0186Y0176*
X01861Y0176*
X01862Y0176*
X01864Y0176*
X01865*
X01867Y0176*
X01868Y0176*
X01869Y0176*
X01871Y0176*
X01872Y01761*
X01873Y01762*
X01875Y01762*
X01876Y01763*
X01877Y01764*
X01878Y01765*
X01879Y01766*
X0188Y01767*
X01881Y01768*
X01881Y01769*
X01882Y0177*
X01883Y01771*
X01883Y01773*
X01884Y01774*
X01884Y01775*
X01884Y01777*
X01884Y01778*
X01885Y0178*
X0135Y0047D02*
D01*
X01349Y00471*
X01349Y00472*
X01349Y00474*
X01349Y00475*
X01348Y00476*
X01348Y00478*
X01347Y00479*
X01346Y0048*
X01346Y00481*
X01345Y00482*
X01344Y00483*
X01343Y00484*
X01342Y00485*
X01341Y00486*
X0134Y00487*
X01338Y00487*
X01337Y00488*
X01336Y00489*
X01334Y00489*
X01333Y00489*
X01332Y00489*
X0133Y00489*
X01329*
X01327Y00489*
X01326Y00489*
X01325Y00489*
X01323Y00489*
X01322Y00488*
X01321Y00487*
X0132Y00487*
X01318Y00486*
X01317Y00485*
X01316Y00484*
X01315Y00483*
X01314Y00482*
X01313Y00481*
X01313Y0048*
X01312Y00479*
X01311Y00478*
X01311Y00476*
X0131Y00475*
X0131Y00474*
X0131Y00472*
X0131Y00471*
X0131Y0047*
X0131Y00468*
X0131Y00467*
X0131Y00465*
X0131Y00464*
X01311Y00463*
X01311Y00461*
X01312Y0046*
X01313Y00459*
X01313Y00458*
X01314Y00457*
X01315Y00456*
X01316Y00455*
X01317Y00454*
X01318Y00453*
X0132Y00452*
X01321Y00452*
X01322Y00451*
X01323Y0045*
X01325Y0045*
X01326Y0045*
X01327Y0045*
X01329Y0045*
X0133*
X01332Y0045*
X01333Y0045*
X01334Y0045*
X01336Y0045*
X01337Y00451*
X01338Y00452*
X0134Y00452*
X01341Y00453*
X01342Y00454*
X01343Y00455*
X01344Y00456*
X01345Y00457*
X01346Y00458*
X01346Y00459*
X01347Y0046*
X01348Y00461*
X01348Y00463*
X01349Y00464*
X01349Y00465*
X01349Y00467*
X01349Y00468*
X0135Y0047*
X02845Y0064D02*
D01*
X02844Y00641*
X02844Y00642*
X02844Y00644*
X02844Y00645*
X02843Y00646*
X02843Y00648*
X02842Y00649*
X02841Y0065*
X02841Y00651*
X0284Y00652*
X02839Y00653*
X02838Y00654*
X02837Y00655*
X02836Y00656*
X02835Y00657*
X02833Y00657*
X02832Y00658*
X02831Y00659*
X02829Y00659*
X02828Y00659*
X02827Y00659*
X02825Y00659*
X02824*
X02822Y00659*
X02821Y00659*
X0282Y00659*
X02818Y00659*
X02817Y00658*
X02816Y00657*
X02815Y00657*
X02813Y00656*
X02812Y00655*
X02811Y00654*
X0281Y00653*
X02809Y00652*
X02808Y00651*
X02808Y0065*
X02807Y00649*
X02806Y00648*
X02806Y00646*
X02805Y00645*
X02805Y00644*
X02805Y00642*
X02805Y00641*
X02805Y0064*
X02805Y00638*
X02805Y00637*
X02805Y00635*
X02805Y00634*
X02806Y00633*
X02806Y00631*
X02807Y0063*
X02808Y00629*
X02808Y00628*
X02809Y00627*
X0281Y00626*
X02811Y00625*
X02812Y00624*
X02813Y00623*
X02815Y00622*
X02816Y00622*
X02817Y00621*
X02818Y0062*
X0282Y0062*
X02821Y0062*
X02822Y0062*
X02824Y0062*
X02825*
X02827Y0062*
X02828Y0062*
X02829Y0062*
X02831Y0062*
X02832Y00621*
X02833Y00622*
X02835Y00622*
X02836Y00623*
X02837Y00624*
X02838Y00625*
X02839Y00626*
X0284Y00627*
X02841Y00628*
X02841Y00629*
X02842Y0063*
X02843Y00631*
X02843Y00633*
X02844Y00634*
X02844Y00635*
X02844Y00637*
X02844Y00638*
X02845Y0064*
X0256Y00475D02*
D01*
X02559Y00476*
X02559Y00477*
X02559Y00479*
X02559Y0048*
X02558Y00481*
X02558Y00483*
X02557Y00484*
X02556Y00485*
X02556Y00486*
X02555Y00487*
X02554Y00488*
X02553Y00489*
X02552Y0049*
X02551Y00491*
X0255Y00492*
X02548Y00492*
X02547Y00493*
X02546Y00494*
X02544Y00494*
X02543Y00494*
X02542Y00494*
X0254Y00494*
X02539*
X02537Y00494*
X02536Y00494*
X02535Y00494*
X02533Y00494*
X02532Y00493*
X02531Y00492*
X0253Y00492*
X02528Y00491*
X02527Y0049*
X02526Y00489*
X02525Y00488*
X02524Y00487*
X02523Y00486*
X02523Y00485*
X02522Y00484*
X02521Y00483*
X02521Y00481*
X0252Y0048*
X0252Y00479*
X0252Y00477*
X0252Y00476*
X0252Y00475*
X0252Y00473*
X0252Y00472*
X0252Y0047*
X0252Y00469*
X02521Y00468*
X02521Y00466*
X02522Y00465*
X02523Y00464*
X02523Y00463*
X02524Y00462*
X02525Y00461*
X02526Y0046*
X02527Y00459*
X02528Y00458*
X0253Y00457*
X02531Y00457*
X02532Y00456*
X02533Y00455*
X02535Y00455*
X02536Y00455*
X02537Y00455*
X02539Y00455*
X0254*
X02542Y00455*
X02543Y00455*
X02544Y00455*
X02546Y00455*
X02547Y00456*
X02548Y00457*
X0255Y00457*
X02551Y00458*
X02552Y00459*
X02553Y0046*
X02554Y00461*
X02555Y00462*
X02556Y00463*
X02556Y00464*
X02557Y00465*
X02558Y00466*
X02558Y00468*
X02559Y00469*
X02559Y0047*
X02559Y00472*
X02559Y00473*
X0256Y00475*
X01555Y0105D02*
D01*
X01554Y01051*
X01554Y01052*
X01554Y01054*
X01554Y01055*
X01553Y01056*
X01553Y01058*
X01552Y01059*
X01551Y0106*
X01551Y01061*
X0155Y01062*
X01549Y01063*
X01548Y01064*
X01547Y01065*
X01546Y01066*
X01545Y01067*
X01543Y01067*
X01542Y01068*
X01541Y01069*
X01539Y01069*
X01538Y01069*
X01537Y01069*
X01535Y01069*
X01534*
X01532Y01069*
X01531Y01069*
X0153Y01069*
X01528Y01069*
X01527Y01068*
X01526Y01067*
X01525Y01067*
X01523Y01066*
X01522Y01065*
X01521Y01064*
X0152Y01063*
X01519Y01062*
X01518Y01061*
X01518Y0106*
X01517Y01059*
X01516Y01058*
X01516Y01056*
X01515Y01055*
X01515Y01054*
X01515Y01052*
X01515Y01051*
X01515Y0105*
X01515Y01048*
X01515Y01047*
X01515Y01045*
X01515Y01044*
X01516Y01043*
X01516Y01041*
X01517Y0104*
X01518Y01039*
X01518Y01038*
X01519Y01037*
X0152Y01036*
X01521Y01035*
X01522Y01034*
X01523Y01033*
X01525Y01032*
X01526Y01032*
X01527Y01031*
X01528Y0103*
X0153Y0103*
X01531Y0103*
X01532Y0103*
X01534Y0103*
X01535*
X01537Y0103*
X01538Y0103*
X01539Y0103*
X01541Y0103*
X01542Y01031*
X01543Y01032*
X01545Y01032*
X01546Y01033*
X01547Y01034*
X01548Y01035*
X01549Y01036*
X0155Y01037*
X01551Y01038*
X01551Y01039*
X01552Y0104*
X01553Y01041*
X01553Y01043*
X01554Y01044*
X01554Y01045*
X01554Y01047*
X01554Y01048*
X01555Y0105*
X01425Y0104D02*
D01*
X01424Y01041*
X01424Y01042*
X01424Y01044*
X01424Y01045*
X01423Y01046*
X01423Y01048*
X01422Y01049*
X01421Y0105*
X01421Y01051*
X0142Y01052*
X01419Y01053*
X01418Y01054*
X01417Y01055*
X01416Y01056*
X01415Y01057*
X01413Y01057*
X01412Y01058*
X01411Y01059*
X01409Y01059*
X01408Y01059*
X01407Y01059*
X01405Y01059*
X01404*
X01402Y01059*
X01401Y01059*
X014Y01059*
X01398Y01059*
X01397Y01058*
X01396Y01057*
X01395Y01057*
X01393Y01056*
X01392Y01055*
X01391Y01054*
X0139Y01053*
X01389Y01052*
X01388Y01051*
X01388Y0105*
X01387Y01049*
X01386Y01048*
X01386Y01046*
X01385Y01045*
X01385Y01044*
X01385Y01042*
X01385Y01041*
X01385Y0104*
X01385Y01038*
X01385Y01037*
X01385Y01035*
X01385Y01034*
X01386Y01033*
X01386Y01031*
X01387Y0103*
X01388Y01029*
X01388Y01028*
X01389Y01027*
X0139Y01026*
X01391Y01025*
X01392Y01024*
X01393Y01023*
X01395Y01022*
X01396Y01022*
X01397Y01021*
X01398Y0102*
X014Y0102*
X01401Y0102*
X01402Y0102*
X01404Y0102*
X01405*
X01407Y0102*
X01408Y0102*
X01409Y0102*
X01411Y0102*
X01412Y01021*
X01413Y01022*
X01415Y01022*
X01416Y01023*
X01417Y01024*
X01418Y01025*
X01419Y01026*
X0142Y01027*
X01421Y01028*
X01421Y01029*
X01422Y0103*
X01423Y01031*
X01423Y01033*
X01424Y01034*
X01424Y01035*
X01424Y01037*
X01424Y01038*
X01425Y0104*
X0158Y0108D02*
D01*
X01579Y01081*
X01579Y01082*
X01579Y01084*
X01579Y01085*
X01578Y01086*
X01578Y01088*
X01577Y01089*
X01576Y0109*
X01576Y01091*
X01575Y01092*
X01574Y01093*
X01573Y01094*
X01572Y01095*
X01571Y01096*
X0157Y01097*
X01568Y01097*
X01567Y01098*
X01566Y01099*
X01564Y01099*
X01563Y01099*
X01562Y01099*
X0156Y01099*
X01559*
X01557Y01099*
X01556Y01099*
X01555Y01099*
X01553Y01099*
X01552Y01098*
X01551Y01097*
X0155Y01097*
X01548Y01096*
X01547Y01095*
X01546Y01094*
X01545Y01093*
X01544Y01092*
X01543Y01091*
X01543Y0109*
X01542Y01089*
X01541Y01088*
X01541Y01086*
X0154Y01085*
X0154Y01084*
X0154Y01082*
X0154Y01081*
X0154Y0108*
X0154Y01078*
X0154Y01077*
X0154Y01075*
X0154Y01074*
X01541Y01073*
X01541Y01071*
X01542Y0107*
X01543Y01069*
X01543Y01068*
X01544Y01067*
X01545Y01066*
X01546Y01065*
X01547Y01064*
X01548Y01063*
X0155Y01062*
X01551Y01062*
X01552Y01061*
X01553Y0106*
X01555Y0106*
X01556Y0106*
X01557Y0106*
X01559Y0106*
X0156*
X01562Y0106*
X01563Y0106*
X01564Y0106*
X01566Y0106*
X01567Y01061*
X01568Y01062*
X0157Y01062*
X01571Y01063*
X01572Y01064*
X01573Y01065*
X01574Y01066*
X01575Y01067*
X01576Y01068*
X01576Y01069*
X01577Y0107*
X01578Y01071*
X01578Y01073*
X01579Y01074*
X01579Y01075*
X01579Y01077*
X01579Y01078*
X0158Y0108*
X00595Y02285D02*
D01*
X00594Y02286*
X00594Y02287*
X00594Y02289*
X00594Y0229*
X00593Y02291*
X00593Y02293*
X00592Y02294*
X00591Y02295*
X00591Y02296*
X0059Y02297*
X00589Y02298*
X00588Y02299*
X00587Y023*
X00586Y02301*
X00585Y02302*
X00583Y02302*
X00582Y02303*
X00581Y02304*
X00579Y02304*
X00578Y02304*
X00577Y02304*
X00575Y02304*
X00574*
X00572Y02304*
X00571Y02304*
X0057Y02304*
X00568Y02304*
X00567Y02303*
X00566Y02302*
X00565Y02302*
X00563Y02301*
X00562Y023*
X00561Y02299*
X0056Y02298*
X00559Y02297*
X00558Y02296*
X00558Y02295*
X00557Y02294*
X00556Y02293*
X00556Y02291*
X00555Y0229*
X00555Y02289*
X00555Y02287*
X00555Y02286*
X00555Y02285*
X00555Y02283*
X00555Y02282*
X00555Y0228*
X00555Y02279*
X00556Y02278*
X00556Y02276*
X00557Y02275*
X00558Y02274*
X00558Y02273*
X00559Y02272*
X0056Y02271*
X00561Y0227*
X00562Y02269*
X00563Y02268*
X00565Y02267*
X00566Y02267*
X00567Y02266*
X00568Y02265*
X0057Y02265*
X00571Y02265*
X00572Y02265*
X00574Y02265*
X00575*
X00577Y02265*
X00578Y02265*
X00579Y02265*
X00581Y02265*
X00582Y02266*
X00583Y02267*
X00585Y02267*
X00586Y02268*
X00587Y02269*
X00588Y0227*
X00589Y02271*
X0059Y02272*
X00591Y02273*
X00591Y02274*
X00592Y02275*
X00593Y02276*
X00593Y02278*
X00594Y02279*
X00594Y0228*
X00594Y02282*
X00594Y02283*
X00595Y02285*
X03275Y0247D02*
D01*
X03274Y02471*
X03274Y02472*
X03274Y02474*
X03274Y02475*
X03273Y02476*
X03273Y02478*
X03272Y02479*
X03271Y0248*
X03271Y02481*
X0327Y02482*
X03269Y02483*
X03268Y02484*
X03267Y02485*
X03266Y02486*
X03265Y02487*
X03263Y02487*
X03262Y02488*
X03261Y02489*
X03259Y02489*
X03258Y02489*
X03257Y02489*
X03255Y02489*
X03254*
X03252Y02489*
X03251Y02489*
X0325Y02489*
X03248Y02489*
X03247Y02488*
X03246Y02487*
X03245Y02487*
X03243Y02486*
X03242Y02485*
X03241Y02484*
X0324Y02483*
X03239Y02482*
X03238Y02481*
X03238Y0248*
X03237Y02479*
X03236Y02478*
X03236Y02476*
X03235Y02475*
X03235Y02474*
X03235Y02472*
X03235Y02471*
X03235Y0247*
X03235Y02468*
X03235Y02467*
X03235Y02465*
X03235Y02464*
X03236Y02463*
X03236Y02461*
X03237Y0246*
X03238Y02459*
X03238Y02458*
X03239Y02457*
X0324Y02456*
X03241Y02455*
X03242Y02454*
X03243Y02453*
X03245Y02452*
X03246Y02452*
X03247Y02451*
X03248Y0245*
X0325Y0245*
X03251Y0245*
X03252Y0245*
X03254Y0245*
X03255*
X03257Y0245*
X03258Y0245*
X03259Y0245*
X03261Y0245*
X03262Y02451*
X03263Y02452*
X03265Y02452*
X03266Y02453*
X03267Y02454*
X03268Y02455*
X03269Y02456*
X0327Y02457*
X03271Y02458*
X03271Y02459*
X03272Y0246*
X03273Y02461*
X03273Y02463*
X03274Y02464*
X03274Y02465*
X03274Y02467*
X03274Y02468*
X03275Y0247*
Y02545D02*
D01*
X03274Y02546*
X03274Y02547*
X03274Y02549*
X03274Y0255*
X03273Y02551*
X03273Y02553*
X03272Y02554*
X03271Y02555*
X03271Y02556*
X0327Y02557*
X03269Y02558*
X03268Y02559*
X03267Y0256*
X03266Y02561*
X03265Y02562*
X03263Y02562*
X03262Y02563*
X03261Y02564*
X03259Y02564*
X03258Y02564*
X03257Y02564*
X03255Y02564*
X03254*
X03252Y02564*
X03251Y02564*
X0325Y02564*
X03248Y02564*
X03247Y02563*
X03246Y02562*
X03245Y02562*
X03243Y02561*
X03242Y0256*
X03241Y02559*
X0324Y02558*
X03239Y02557*
X03238Y02556*
X03238Y02555*
X03237Y02554*
X03236Y02553*
X03236Y02551*
X03235Y0255*
X03235Y02549*
X03235Y02547*
X03235Y02546*
X03235Y02545*
X03235Y02543*
X03235Y02542*
X03235Y0254*
X03235Y02539*
X03236Y02538*
X03236Y02536*
X03237Y02535*
X03238Y02534*
X03238Y02533*
X03239Y02532*
X0324Y02531*
X03241Y0253*
X03242Y02529*
X03243Y02528*
X03245Y02527*
X03246Y02527*
X03247Y02526*
X03248Y02525*
X0325Y02525*
X03251Y02525*
X03252Y02525*
X03254Y02525*
X03255*
X03257Y02525*
X03258Y02525*
X03259Y02525*
X03261Y02525*
X03262Y02526*
X03263Y02527*
X03265Y02527*
X03266Y02528*
X03267Y02529*
X03268Y0253*
X03269Y02531*
X0327Y02532*
X03271Y02533*
X03271Y02534*
X03272Y02535*
X03273Y02536*
X03273Y02538*
X03274Y02539*
X03274Y0254*
X03274Y02542*
X03274Y02543*
X03275Y02545*
X03273Y02608D02*
D01*
X03273Y0261*
X03273Y02611*
X03273Y02612*
X03273Y02614*
X03272Y02615*
X03272Y02616*
X03271Y02618*
X0327Y02619*
X03269Y0262*
X03269Y02621*
X03268Y02622*
X03267Y02623*
X03266Y02624*
X03264Y02625*
X03263Y02626*
X03262Y02626*
X03261Y02627*
X03259Y02627*
X03258Y02628*
X03257Y02628*
X03255Y02628*
X03254Y02628*
X03253*
X03251Y02628*
X0325Y02628*
X03248Y02628*
X03247Y02627*
X03246Y02627*
X03245Y02626*
X03243Y02626*
X03242Y02625*
X03241Y02624*
X0324Y02623*
X03239Y02622*
X03238Y02621*
X03237Y0262*
X03236Y02619*
X03236Y02618*
X03235Y02616*
X03234Y02615*
X03234Y02614*
X03234Y02612*
X03233Y02611*
X03233Y0261*
X03233Y02608*
X03233Y02607*
X03233Y02606*
X03234Y02604*
X03234Y02603*
X03234Y02601*
X03235Y026*
X03236Y02599*
X03236Y02598*
X03237Y02597*
X03238Y02595*
X03239Y02594*
X0324Y02593*
X03241Y02593*
X03242Y02592*
X03243Y02591*
X03245Y0259*
X03246Y0259*
X03247Y02589*
X03248Y02589*
X0325Y02589*
X03251Y02588*
X03253Y02588*
X03254*
X03255Y02588*
X03257Y02589*
X03258Y02589*
X03259Y02589*
X03261Y0259*
X03262Y0259*
X03263Y02591*
X03264Y02592*
X03266Y02593*
X03267Y02593*
X03268Y02594*
X03269Y02595*
X03269Y02597*
X0327Y02598*
X03271Y02599*
X03272Y026*
X03272Y02601*
X03273Y02603*
X03273Y02604*
X03273Y02606*
X03273Y02607*
X03273Y02608*
X02115Y03085D02*
D01*
X02114Y03086*
X02114Y03087*
X02114Y03089*
X02114Y0309*
X02113Y03091*
X02113Y03093*
X02112Y03094*
X02111Y03095*
X02111Y03096*
X0211Y03097*
X02109Y03098*
X02108Y03099*
X02107Y031*
X02106Y03101*
X02105Y03102*
X02103Y03102*
X02102Y03103*
X02101Y03104*
X02099Y03104*
X02098Y03104*
X02097Y03104*
X02095Y03104*
X02094*
X02092Y03104*
X02091Y03104*
X0209Y03104*
X02088Y03104*
X02087Y03103*
X02086Y03102*
X02085Y03102*
X02083Y03101*
X02082Y031*
X02081Y03099*
X0208Y03098*
X02079Y03097*
X02078Y03096*
X02078Y03095*
X02077Y03094*
X02076Y03093*
X02076Y03091*
X02075Y0309*
X02075Y03089*
X02075Y03087*
X02075Y03086*
X02075Y03085*
X02075Y03083*
X02075Y03082*
X02075Y0308*
X02075Y03079*
X02076Y03078*
X02076Y03076*
X02077Y03075*
X02078Y03074*
X02078Y03073*
X02079Y03072*
X0208Y03071*
X02081Y0307*
X02082Y03069*
X02083Y03068*
X02085Y03067*
X02086Y03067*
X02087Y03066*
X02088Y03065*
X0209Y03065*
X02091Y03065*
X02092Y03065*
X02094Y03065*
X02095*
X02097Y03065*
X02098Y03065*
X02099Y03065*
X02101Y03065*
X02102Y03066*
X02103Y03067*
X02105Y03067*
X02106Y03068*
X02107Y03069*
X02108Y0307*
X02109Y03071*
X0211Y03072*
X02111Y03073*
X02111Y03074*
X02112Y03075*
X02113Y03076*
X02113Y03078*
X02114Y03079*
X02114Y0308*
X02114Y03082*
X02114Y03083*
X02115Y03085*
X02156Y03191D02*
D01*
X02156Y03192*
X02156Y03193*
X02156Y03195*
X02155Y03196*
X02155Y03198*
X02154Y03199*
X02154Y032*
X02153Y03201*
X02152Y03202*
X02151Y03204*
X0215Y03205*
X02149Y03206*
X02148Y03206*
X02147Y03207*
X02146Y03208*
X02145Y03209*
X02143Y03209*
X02142Y0321*
X02141Y0321*
X02139Y0321*
X02138Y03211*
X02137Y03211*
X02135*
X02134Y03211*
X02133Y0321*
X02131Y0321*
X0213Y0321*
X02128Y03209*
X02127Y03209*
X02126Y03208*
X02125Y03207*
X02124Y03206*
X02123Y03206*
X02122Y03205*
X02121Y03204*
X0212Y03202*
X02119Y03201*
X02118Y032*
X02118Y03199*
X02117Y03198*
X02117Y03196*
X02116Y03195*
X02116Y03193*
X02116Y03192*
X02116Y03191*
X02116Y03189*
X02116Y03188*
X02116Y03187*
X02117Y03185*
X02117Y03184*
X02118Y03183*
X02118Y03181*
X02119Y0318*
X0212Y03179*
X02121Y03178*
X02122Y03177*
X02123Y03176*
X02124Y03175*
X02125Y03174*
X02126Y03173*
X02127Y03173*
X02128Y03172*
X0213Y03172*
X02131Y03171*
X02133Y03171*
X02134Y03171*
X02135Y03171*
X02137*
X02138Y03171*
X02139Y03171*
X02141Y03171*
X02142Y03172*
X02143Y03172*
X02145Y03173*
X02146Y03173*
X02147Y03174*
X02148Y03175*
X02149Y03176*
X0215Y03177*
X02151Y03178*
X02152Y03179*
X02153Y0318*
X02154Y03181*
X02154Y03183*
X02155Y03184*
X02155Y03185*
X02156Y03187*
X02156Y03188*
X02156Y03189*
X02156Y03191*
X02155Y02455D02*
D01*
X02154Y02456*
X02154Y02457*
X02154Y02459*
X02154Y0246*
X02153Y02461*
X02153Y02463*
X02152Y02464*
X02151Y02465*
X02151Y02466*
X0215Y02467*
X02149Y02468*
X02148Y02469*
X02147Y0247*
X02146Y02471*
X02145Y02472*
X02143Y02472*
X02142Y02473*
X02141Y02474*
X02139Y02474*
X02138Y02474*
X02137Y02474*
X02135Y02474*
X02134*
X02132Y02474*
X02131Y02474*
X0213Y02474*
X02128Y02474*
X02127Y02473*
X02126Y02472*
X02125Y02472*
X02123Y02471*
X02122Y0247*
X02121Y02469*
X0212Y02468*
X02119Y02467*
X02118Y02466*
X02118Y02465*
X02117Y02464*
X02116Y02463*
X02116Y02461*
X02115Y0246*
X02115Y02459*
X02115Y02457*
X02115Y02456*
X02115Y02455*
X02115Y02453*
X02115Y02452*
X02115Y0245*
X02115Y02449*
X02116Y02448*
X02116Y02446*
X02117Y02445*
X02118Y02444*
X02118Y02443*
X02119Y02442*
X0212Y02441*
X02121Y0244*
X02122Y02439*
X02123Y02438*
X02125Y02437*
X02126Y02437*
X02127Y02436*
X02128Y02435*
X0213Y02435*
X02131Y02435*
X02132Y02435*
X02134Y02435*
X02135*
X02137Y02435*
X02138Y02435*
X02139Y02435*
X02141Y02435*
X02142Y02436*
X02143Y02437*
X02145Y02437*
X02146Y02438*
X02147Y02439*
X02148Y0244*
X02149Y02441*
X0215Y02442*
X02151Y02443*
X02151Y02444*
X02152Y02445*
X02153Y02446*
X02153Y02448*
X02154Y02449*
X02154Y0245*
X02154Y02452*
X02154Y02453*
X02155Y02455*
Y02355D02*
D01*
X02154Y02356*
X02154Y02357*
X02154Y02359*
X02154Y0236*
X02153Y02361*
X02153Y02363*
X02152Y02364*
X02151Y02365*
X02151Y02366*
X0215Y02367*
X02149Y02368*
X02148Y02369*
X02147Y0237*
X02146Y02371*
X02145Y02372*
X02143Y02372*
X02142Y02373*
X02141Y02374*
X02139Y02374*
X02138Y02374*
X02137Y02374*
X02135Y02374*
X02134*
X02132Y02374*
X02131Y02374*
X0213Y02374*
X02128Y02374*
X02127Y02373*
X02126Y02372*
X02125Y02372*
X02123Y02371*
X02122Y0237*
X02121Y02369*
X0212Y02368*
X02119Y02367*
X02118Y02366*
X02118Y02365*
X02117Y02364*
X02116Y02363*
X02116Y02361*
X02115Y0236*
X02115Y02359*
X02115Y02357*
X02115Y02356*
X02115Y02355*
X02115Y02353*
X02115Y02352*
X02115Y0235*
X02115Y02349*
X02116Y02348*
X02116Y02346*
X02117Y02345*
X02118Y02344*
X02118Y02343*
X02119Y02342*
X0212Y02341*
X02121Y0234*
X02122Y02339*
X02123Y02338*
X02125Y02337*
X02126Y02337*
X02127Y02336*
X02128Y02335*
X0213Y02335*
X02131Y02335*
X02132Y02335*
X02134Y02335*
X02135*
X02137Y02335*
X02138Y02335*
X02139Y02335*
X02141Y02335*
X02142Y02336*
X02143Y02337*
X02145Y02337*
X02146Y02338*
X02147Y02339*
X02148Y0234*
X02149Y02341*
X0215Y02342*
X02151Y02343*
X02151Y02344*
X02152Y02345*
X02153Y02346*
X02153Y02348*
X02154Y02349*
X02154Y0235*
X02154Y02352*
X02154Y02353*
X02155Y02355*
X023Y02455D02*
D01*
X02299Y02456*
X02299Y02457*
X02299Y02459*
X02299Y0246*
X02298Y02461*
X02298Y02463*
X02297Y02464*
X02296Y02465*
X02296Y02466*
X02295Y02467*
X02294Y02468*
X02293Y02469*
X02292Y0247*
X02291Y02471*
X0229Y02472*
X02288Y02472*
X02287Y02473*
X02286Y02474*
X02284Y02474*
X02283Y02474*
X02282Y02474*
X0228Y02474*
X02279*
X02277Y02474*
X02276Y02474*
X02275Y02474*
X02273Y02474*
X02272Y02473*
X02271Y02472*
X0227Y02472*
X02268Y02471*
X02267Y0247*
X02266Y02469*
X02265Y02468*
X02264Y02467*
X02263Y02466*
X02263Y02465*
X02262Y02464*
X02261Y02463*
X02261Y02461*
X0226Y0246*
X0226Y02459*
X0226Y02457*
X0226Y02456*
X0226Y02455*
X0226Y02453*
X0226Y02452*
X0226Y0245*
X0226Y02449*
X02261Y02448*
X02261Y02446*
X02262Y02445*
X02263Y02444*
X02263Y02443*
X02264Y02442*
X02265Y02441*
X02266Y0244*
X02267Y02439*
X02268Y02438*
X0227Y02437*
X02271Y02437*
X02272Y02436*
X02273Y02435*
X02275Y02435*
X02276Y02435*
X02277Y02435*
X02279Y02435*
X0228*
X02282Y02435*
X02283Y02435*
X02284Y02435*
X02286Y02435*
X02287Y02436*
X02288Y02437*
X0229Y02437*
X02291Y02438*
X02292Y02439*
X02293Y0244*
X02294Y02441*
X02295Y02442*
X02296Y02443*
X02296Y02444*
X02297Y02445*
X02298Y02446*
X02298Y02448*
X02299Y02449*
X02299Y0245*
X02299Y02452*
X02299Y02453*
X023Y02455*
Y02355D02*
D01*
X02299Y02356*
X02299Y02357*
X02299Y02359*
X02299Y0236*
X02298Y02361*
X02298Y02363*
X02297Y02364*
X02296Y02365*
X02296Y02366*
X02295Y02367*
X02294Y02368*
X02293Y02369*
X02292Y0237*
X02291Y02371*
X0229Y02372*
X02288Y02372*
X02287Y02373*
X02286Y02374*
X02284Y02374*
X02283Y02374*
X02282Y02374*
X0228Y02374*
X02279*
X02277Y02374*
X02276Y02374*
X02275Y02374*
X02273Y02374*
X02272Y02373*
X02271Y02372*
X0227Y02372*
X02268Y02371*
X02267Y0237*
X02266Y02369*
X02265Y02368*
X02264Y02367*
X02263Y02366*
X02263Y02365*
X02262Y02364*
X02261Y02363*
X02261Y02361*
X0226Y0236*
X0226Y02359*
X0226Y02357*
X0226Y02356*
X0226Y02355*
X0226Y02353*
X0226Y02352*
X0226Y0235*
X0226Y02349*
X02261Y02348*
X02261Y02346*
X02262Y02345*
X02263Y02344*
X02263Y02343*
X02264Y02342*
X02265Y02341*
X02266Y0234*
X02267Y02339*
X02268Y02338*
X0227Y02337*
X02271Y02337*
X02272Y02336*
X02273Y02335*
X02275Y02335*
X02276Y02335*
X02277Y02335*
X02279Y02335*
X0228*
X02282Y02335*
X02283Y02335*
X02284Y02335*
X02286Y02335*
X02287Y02336*
X02288Y02337*
X0229Y02337*
X02291Y02338*
X02292Y02339*
X02293Y0234*
X02294Y02341*
X02295Y02342*
X02296Y02343*
X02296Y02344*
X02297Y02345*
X02298Y02346*
X02298Y02348*
X02299Y02349*
X02299Y0235*
X02299Y02352*
X02299Y02353*
X023Y02355*
X03185Y0293D02*
D01*
X03184Y02931*
X03184Y02932*
X03184Y02934*
X03184Y02935*
X03183Y02936*
X03183Y02938*
X03182Y02939*
X03181Y0294*
X03181Y02941*
X0318Y02942*
X03179Y02943*
X03178Y02944*
X03177Y02945*
X03176Y02946*
X03175Y02947*
X03173Y02947*
X03172Y02948*
X03171Y02949*
X03169Y02949*
X03168Y02949*
X03167Y02949*
X03165Y02949*
X03164*
X03162Y02949*
X03161Y02949*
X0316Y02949*
X03158Y02949*
X03157Y02948*
X03156Y02947*
X03155Y02947*
X03153Y02946*
X03152Y02945*
X03151Y02944*
X0315Y02943*
X03149Y02942*
X03148Y02941*
X03148Y0294*
X03147Y02939*
X03146Y02938*
X03146Y02936*
X03145Y02935*
X03145Y02934*
X03145Y02932*
X03145Y02931*
X03145Y0293*
X03145Y02928*
X03145Y02927*
X03145Y02925*
X03145Y02924*
X03146Y02923*
X03146Y02921*
X03147Y0292*
X03148Y02919*
X03148Y02918*
X03149Y02917*
X0315Y02916*
X03151Y02915*
X03152Y02914*
X03153Y02913*
X03155Y02912*
X03156Y02912*
X03157Y02911*
X03158Y0291*
X0316Y0291*
X03161Y0291*
X03162Y0291*
X03164Y0291*
X03165*
X03167Y0291*
X03168Y0291*
X03169Y0291*
X03171Y0291*
X03172Y02911*
X03173Y02912*
X03175Y02912*
X03176Y02913*
X03177Y02914*
X03178Y02915*
X03179Y02916*
X0318Y02917*
X03181Y02918*
X03181Y02919*
X03182Y0292*
X03183Y02921*
X03183Y02923*
X03184Y02924*
X03184Y02925*
X03184Y02927*
X03184Y02928*
X03185Y0293*
X0303Y0316D02*
D01*
X03029Y03161*
X03029Y03162*
X03029Y03164*
X03029Y03165*
X03028Y03166*
X03028Y03168*
X03027Y03169*
X03026Y0317*
X03026Y03171*
X03025Y03172*
X03024Y03173*
X03023Y03174*
X03022Y03175*
X03021Y03176*
X0302Y03177*
X03018Y03177*
X03017Y03178*
X03016Y03179*
X03014Y03179*
X03013Y03179*
X03012Y03179*
X0301Y03179*
X03009*
X03007Y03179*
X03006Y03179*
X03005Y03179*
X03003Y03179*
X03002Y03178*
X03001Y03177*
X03Y03177*
X02998Y03176*
X02997Y03175*
X02996Y03174*
X02995Y03173*
X02994Y03172*
X02993Y03171*
X02993Y0317*
X02992Y03169*
X02991Y03168*
X02991Y03166*
X0299Y03165*
X0299Y03164*
X0299Y03162*
X0299Y03161*
X0299Y0316*
X0299Y03158*
X0299Y03157*
X0299Y03155*
X0299Y03154*
X02991Y03153*
X02991Y03151*
X02992Y0315*
X02993Y03149*
X02993Y03148*
X02994Y03147*
X02995Y03146*
X02996Y03145*
X02997Y03144*
X02998Y03143*
X03Y03142*
X03001Y03142*
X03002Y03141*
X03003Y0314*
X03005Y0314*
X03006Y0314*
X03007Y0314*
X03009Y0314*
X0301*
X03012Y0314*
X03013Y0314*
X03014Y0314*
X03016Y0314*
X03017Y03141*
X03018Y03142*
X0302Y03142*
X03021Y03143*
X03022Y03144*
X03023Y03145*
X03024Y03146*
X03025Y03147*
X03026Y03148*
X03026Y03149*
X03027Y0315*
X03028Y03151*
X03028Y03153*
X03029Y03154*
X03029Y03155*
X03029Y03157*
X03029Y03158*
X0303Y0316*
X02375Y0182D02*
D01*
X02374Y01821*
X02374Y01822*
X02374Y01824*
X02374Y01825*
X02373Y01826*
X02373Y01828*
X02372Y01829*
X02371Y0183*
X02371Y01831*
X0237Y01832*
X02369Y01833*
X02368Y01834*
X02367Y01835*
X02366Y01836*
X02365Y01837*
X02363Y01837*
X02362Y01838*
X02361Y01839*
X02359Y01839*
X02358Y01839*
X02357Y01839*
X02355Y01839*
X02354*
X02352Y01839*
X02351Y01839*
X0235Y01839*
X02348Y01839*
X02347Y01838*
X02346Y01837*
X02345Y01837*
X02343Y01836*
X02342Y01835*
X02341Y01834*
X0234Y01833*
X02339Y01832*
X02338Y01831*
X02338Y0183*
X02337Y01829*
X02336Y01828*
X02336Y01826*
X02335Y01825*
X02335Y01824*
X02335Y01822*
X02335Y01821*
X02335Y0182*
X02335Y01818*
X02335Y01817*
X02335Y01815*
X02335Y01814*
X02336Y01813*
X02336Y01811*
X02337Y0181*
X02338Y01809*
X02338Y01808*
X02339Y01807*
X0234Y01806*
X02341Y01805*
X02342Y01804*
X02343Y01803*
X02345Y01802*
X02346Y01802*
X02347Y01801*
X02348Y018*
X0235Y018*
X02351Y018*
X02352Y018*
X02354Y018*
X02355*
X02357Y018*
X02358Y018*
X02359Y018*
X02361Y018*
X02362Y01801*
X02363Y01802*
X02365Y01802*
X02366Y01803*
X02367Y01804*
X02368Y01805*
X02369Y01806*
X0237Y01807*
X02371Y01808*
X02371Y01809*
X02372Y0181*
X02373Y01811*
X02373Y01813*
X02374Y01814*
X02374Y01815*
X02374Y01817*
X02374Y01818*
X02375Y0182*
X0271Y02124D02*
D01*
X0271Y02125*
X0271Y02127*
X0271Y02128*
X02709Y02129*
X02709Y02131*
X02709Y02132*
X02708Y02133*
X02707Y02134*
X02706Y02136*
X02706Y02137*
X02705Y02138*
X02704Y02139*
X02703Y0214*
X02701Y0214*
X027Y02141*
X02699Y02142*
X02698Y02142*
X02696Y02143*
X02695Y02143*
X02694Y02143*
X02692Y02144*
X02691Y02144*
X0269*
X02688Y02144*
X02687Y02143*
X02685Y02143*
X02684Y02143*
X02683Y02142*
X02681Y02142*
X0268Y02141*
X02679Y0214*
X02678Y0214*
X02677Y02139*
X02676Y02138*
X02675Y02137*
X02674Y02136*
X02673Y02134*
X02673Y02133*
X02672Y02132*
X02671Y02131*
X02671Y02129*
X02671Y02128*
X0267Y02127*
X0267Y02125*
X0267Y02124*
X0267Y02122*
X0267Y02121*
X02671Y0212*
X02671Y02118*
X02671Y02117*
X02672Y02116*
X02673Y02114*
X02673Y02113*
X02674Y02112*
X02675Y02111*
X02676Y0211*
X02677Y02109*
X02678Y02108*
X02679Y02107*
X0268Y02106*
X02681Y02106*
X02683Y02105*
X02684Y02105*
X02685Y02104*
X02687Y02104*
X02688Y02104*
X0269Y02104*
X02691*
X02692Y02104*
X02694Y02104*
X02695Y02104*
X02696Y02105*
X02698Y02105*
X02699Y02106*
X027Y02106*
X02701Y02107*
X02703Y02108*
X02704Y02109*
X02705Y0211*
X02706Y02111*
X02706Y02112*
X02707Y02113*
X02708Y02114*
X02709Y02116*
X02709Y02117*
X02709Y02118*
X0271Y0212*
X0271Y02121*
X0271Y02122*
X0271Y02124*
X021Y0182D02*
D01*
X02099Y01821*
X02099Y01822*
X02099Y01824*
X02099Y01825*
X02098Y01826*
X02098Y01828*
X02097Y01829*
X02096Y0183*
X02096Y01831*
X02095Y01832*
X02094Y01833*
X02093Y01834*
X02092Y01835*
X02091Y01836*
X0209Y01837*
X02088Y01837*
X02087Y01838*
X02086Y01839*
X02084Y01839*
X02083Y01839*
X02082Y01839*
X0208Y01839*
X02079*
X02077Y01839*
X02076Y01839*
X02075Y01839*
X02073Y01839*
X02072Y01838*
X02071Y01837*
X0207Y01837*
X02068Y01836*
X02067Y01835*
X02066Y01834*
X02065Y01833*
X02064Y01832*
X02063Y01831*
X02063Y0183*
X02062Y01829*
X02061Y01828*
X02061Y01826*
X0206Y01825*
X0206Y01824*
X0206Y01822*
X0206Y01821*
X0206Y0182*
X0206Y01818*
X0206Y01817*
X0206Y01815*
X0206Y01814*
X02061Y01813*
X02061Y01811*
X02062Y0181*
X02063Y01809*
X02063Y01808*
X02064Y01807*
X02065Y01806*
X02066Y01805*
X02067Y01804*
X02068Y01803*
X0207Y01802*
X02071Y01802*
X02072Y01801*
X02073Y018*
X02075Y018*
X02076Y018*
X02077Y018*
X02079Y018*
X0208*
X02082Y018*
X02083Y018*
X02084Y018*
X02086Y018*
X02087Y01801*
X02088Y01802*
X0209Y01802*
X02091Y01803*
X02092Y01804*
X02093Y01805*
X02094Y01806*
X02095Y01807*
X02096Y01808*
X02096Y01809*
X02097Y0181*
X02098Y01811*
X02098Y01813*
X02099Y01814*
X02099Y01815*
X02099Y01817*
X02099Y01818*
X021Y0182*
X02169Y0182D02*
D01*
X02169Y01822*
X02169Y01823*
X02168Y01824*
X02168Y01826*
X02168Y01827*
X02167Y01828*
X02166Y0183*
X02166Y01831*
X02165Y01832*
X02164Y01833*
X02163Y01834*
X02162Y01835*
X02161Y01836*
X0216Y01837*
X02159Y01838*
X02158Y01838*
X02156Y01839*
X02155Y01839*
X02154Y0184*
X02152Y0184*
X02151Y0184*
X02149Y0184*
X02148*
X02147Y0184*
X02145Y0184*
X02144Y0184*
X02143Y01839*
X02141Y01839*
X0214Y01838*
X02139Y01838*
X02138Y01837*
X02136Y01836*
X02135Y01835*
X02134Y01834*
X02133Y01833*
X02133Y01832*
X02132Y01831*
X02131Y0183*
X0213Y01828*
X0213Y01827*
X0213Y01826*
X02129Y01824*
X02129Y01823*
X02129Y01822*
X02129Y0182*
X02129Y01819*
X02129Y01817*
X02129Y01816*
X0213Y01815*
X0213Y01813*
X0213Y01812*
X02131Y01811*
X02132Y0181*
X02133Y01808*
X02133Y01807*
X02134Y01806*
X02135Y01805*
X02136Y01804*
X02138Y01804*
X02139Y01803*
X0214Y01802*
X02141Y01802*
X02143Y01801*
X02144Y01801*
X02145Y01801*
X02147Y018*
X02148Y018*
X02149*
X02151Y018*
X02152Y01801*
X02154Y01801*
X02155Y01801*
X02156Y01802*
X02158Y01802*
X02159Y01803*
X0216Y01804*
X02161Y01804*
X02162Y01805*
X02163Y01806*
X02164Y01807*
X02165Y01808*
X02166Y0181*
X02166Y01811*
X02167Y01812*
X02168Y01813*
X02168Y01815*
X02168Y01816*
X02169Y01817*
X02169Y01819*
X02169Y0182*
X01945Y0126D02*
D01*
X01944Y01261*
X01944Y01262*
X01944Y01264*
X01944Y01265*
X01943Y01266*
X01943Y01268*
X01942Y01269*
X01941Y0127*
X01941Y01271*
X0194Y01272*
X01939Y01273*
X01938Y01274*
X01937Y01275*
X01936Y01276*
X01935Y01277*
X01933Y01277*
X01932Y01278*
X01931Y01279*
X01929Y01279*
X01928Y01279*
X01927Y01279*
X01925Y01279*
X01924*
X01922Y01279*
X01921Y01279*
X0192Y01279*
X01918Y01279*
X01917Y01278*
X01916Y01277*
X01915Y01277*
X01913Y01276*
X01912Y01275*
X01911Y01274*
X0191Y01273*
X01909Y01272*
X01908Y01271*
X01908Y0127*
X01907Y01269*
X01906Y01268*
X01906Y01266*
X01905Y01265*
X01905Y01264*
X01905Y01262*
X01905Y01261*
X01905Y0126*
X01905Y01258*
X01905Y01257*
X01905Y01255*
X01905Y01254*
X01906Y01253*
X01906Y01251*
X01907Y0125*
X01908Y01249*
X01908Y01248*
X01909Y01247*
X0191Y01246*
X01911Y01245*
X01912Y01244*
X01913Y01243*
X01915Y01242*
X01916Y01242*
X01917Y01241*
X01918Y0124*
X0192Y0124*
X01921Y0124*
X01922Y0124*
X01924Y0124*
X01925*
X01927Y0124*
X01928Y0124*
X01929Y0124*
X01931Y0124*
X01932Y01241*
X01933Y01242*
X01935Y01242*
X01936Y01243*
X01937Y01244*
X01938Y01245*
X01939Y01246*
X0194Y01247*
X01941Y01248*
X01941Y01249*
X01942Y0125*
X01943Y01251*
X01943Y01253*
X01944Y01254*
X01944Y01255*
X01944Y01257*
X01944Y01258*
X01945Y0126*
X0129Y02705D02*
D01*
X01289Y02706*
X01289Y02707*
X01289Y02709*
X01289Y0271*
X01288Y02711*
X01288Y02713*
X01287Y02714*
X01286Y02715*
X01286Y02716*
X01285Y02717*
X01284Y02718*
X01283Y02719*
X01282Y0272*
X01281Y02721*
X0128Y02722*
X01278Y02722*
X01277Y02723*
X01276Y02724*
X01274Y02724*
X01273Y02724*
X01272Y02724*
X0127Y02724*
X01269*
X01267Y02724*
X01266Y02724*
X01265Y02724*
X01263Y02724*
X01262Y02723*
X01261Y02722*
X0126Y02722*
X01258Y02721*
X01257Y0272*
X01256Y02719*
X01255Y02718*
X01254Y02717*
X01253Y02716*
X01253Y02715*
X01252Y02714*
X01251Y02713*
X01251Y02711*
X0125Y0271*
X0125Y02709*
X0125Y02707*
X0125Y02706*
X0125Y02705*
X0125Y02703*
X0125Y02702*
X0125Y027*
X0125Y02699*
X01251Y02698*
X01251Y02696*
X01252Y02695*
X01253Y02694*
X01253Y02693*
X01254Y02692*
X01255Y02691*
X01256Y0269*
X01257Y02689*
X01258Y02688*
X0126Y02687*
X01261Y02687*
X01262Y02686*
X01263Y02685*
X01265Y02685*
X01266Y02685*
X01267Y02685*
X01269Y02685*
X0127*
X01272Y02685*
X01273Y02685*
X01274Y02685*
X01276Y02685*
X01277Y02686*
X01278Y02687*
X0128Y02687*
X01281Y02688*
X01282Y02689*
X01283Y0269*
X01284Y02691*
X01285Y02692*
X01286Y02693*
X01286Y02694*
X01287Y02695*
X01288Y02696*
X01288Y02698*
X01289Y02699*
X01289Y027*
X01289Y02702*
X01289Y02703*
X0129Y02705*
X021Y00985D02*
D01*
X02099Y00986*
X02099Y00987*
X02099Y00989*
X02099Y0099*
X02098Y00991*
X02098Y00993*
X02097Y00994*
X02096Y00995*
X02096Y00996*
X02095Y00997*
X02094Y00998*
X02093Y00999*
X02092Y01*
X02091Y01001*
X0209Y01002*
X02088Y01002*
X02087Y01003*
X02086Y01004*
X02084Y01004*
X02083Y01004*
X02082Y01004*
X0208Y01004*
X02079*
X02077Y01004*
X02076Y01004*
X02075Y01004*
X02073Y01004*
X02072Y01003*
X02071Y01002*
X0207Y01002*
X02068Y01001*
X02067Y01*
X02066Y00999*
X02065Y00998*
X02064Y00997*
X02063Y00996*
X02063Y00995*
X02062Y00994*
X02061Y00993*
X02061Y00991*
X0206Y0099*
X0206Y00989*
X0206Y00987*
X0206Y00986*
X0206Y00985*
X0206Y00983*
X0206Y00982*
X0206Y0098*
X0206Y00979*
X02061Y00978*
X02061Y00976*
X02062Y00975*
X02063Y00974*
X02063Y00973*
X02064Y00972*
X02065Y00971*
X02066Y0097*
X02067Y00969*
X02068Y00968*
X0207Y00967*
X02071Y00967*
X02072Y00966*
X02073Y00965*
X02075Y00965*
X02076Y00965*
X02077Y00965*
X02079Y00965*
X0208*
X02082Y00965*
X02083Y00965*
X02084Y00965*
X02086Y00965*
X02087Y00966*
X02088Y00967*
X0209Y00967*
X02091Y00968*
X02092Y00969*
X02093Y0097*
X02094Y00971*
X02095Y00972*
X02096Y00973*
X02096Y00974*
X02097Y00975*
X02098Y00976*
X02098Y00978*
X02099Y00979*
X02099Y0098*
X02099Y00982*
X02099Y00983*
X021Y00985*
X0129Y02655D02*
D01*
X01289Y02656*
X01289Y02657*
X01289Y02659*
X01289Y0266*
X01288Y02661*
X01288Y02663*
X01287Y02664*
X01286Y02665*
X01286Y02666*
X01285Y02667*
X01284Y02668*
X01283Y02669*
X01282Y0267*
X01281Y02671*
X0128Y02672*
X01278Y02672*
X01277Y02673*
X01276Y02674*
X01274Y02674*
X01273Y02674*
X01272Y02674*
X0127Y02674*
X01269*
X01267Y02674*
X01266Y02674*
X01265Y02674*
X01263Y02674*
X01262Y02673*
X01261Y02672*
X0126Y02672*
X01258Y02671*
X01257Y0267*
X01256Y02669*
X01255Y02668*
X01254Y02667*
X01253Y02666*
X01253Y02665*
X01252Y02664*
X01251Y02663*
X01251Y02661*
X0125Y0266*
X0125Y02659*
X0125Y02657*
X0125Y02656*
X0125Y02655*
X0125Y02653*
X0125Y02652*
X0125Y0265*
X0125Y02649*
X01251Y02648*
X01251Y02646*
X01252Y02645*
X01253Y02644*
X01253Y02643*
X01254Y02642*
X01255Y02641*
X01256Y0264*
X01257Y02639*
X01258Y02638*
X0126Y02637*
X01261Y02637*
X01262Y02636*
X01263Y02635*
X01265Y02635*
X01266Y02635*
X01267Y02635*
X01269Y02635*
X0127*
X01272Y02635*
X01273Y02635*
X01274Y02635*
X01276Y02635*
X01277Y02636*
X01278Y02637*
X0128Y02637*
X01281Y02638*
X01282Y02639*
X01283Y0264*
X01284Y02641*
X01285Y02642*
X01286Y02643*
X01286Y02644*
X01287Y02645*
X01288Y02646*
X01288Y02648*
X01289Y02649*
X01289Y0265*
X01289Y02652*
X01289Y02653*
X0129Y02655*
X00895Y03175D02*
D01*
X00894Y03176*
X00894Y03177*
X00894Y03179*
X00894Y0318*
X00893Y03181*
X00893Y03183*
X00892Y03184*
X00891Y03185*
X00891Y03186*
X0089Y03187*
X00889Y03188*
X00888Y03189*
X00887Y0319*
X00886Y03191*
X00885Y03192*
X00883Y03192*
X00882Y03193*
X00881Y03194*
X00879Y03194*
X00878Y03194*
X00877Y03194*
X00875Y03194*
X00874*
X00872Y03194*
X00871Y03194*
X0087Y03194*
X00868Y03194*
X00867Y03193*
X00866Y03192*
X00865Y03192*
X00863Y03191*
X00862Y0319*
X00861Y03189*
X0086Y03188*
X00859Y03187*
X00858Y03186*
X00858Y03185*
X00857Y03184*
X00856Y03183*
X00856Y03181*
X00855Y0318*
X00855Y03179*
X00855Y03177*
X00855Y03176*
X00855Y03175*
X00855Y03173*
X00855Y03172*
X00855Y0317*
X00855Y03169*
X00856Y03168*
X00856Y03166*
X00857Y03165*
X00858Y03164*
X00858Y03163*
X00859Y03162*
X0086Y03161*
X00861Y0316*
X00862Y03159*
X00863Y03158*
X00865Y03157*
X00866Y03157*
X00867Y03156*
X00868Y03155*
X0087Y03155*
X00871Y03155*
X00872Y03155*
X00874Y03155*
X00875*
X00877Y03155*
X00878Y03155*
X00879Y03155*
X00881Y03155*
X00882Y03156*
X00883Y03157*
X00885Y03157*
X00886Y03158*
X00887Y03159*
X00888Y0316*
X00889Y03161*
X0089Y03162*
X00891Y03163*
X00891Y03164*
X00892Y03165*
X00893Y03166*
X00893Y03168*
X00894Y03169*
X00894Y0317*
X00894Y03172*
X00894Y03173*
X00895Y03175*
X0328Y02785D02*
D01*
X03279Y02786*
X03279Y02787*
X03279Y02789*
X03279Y0279*
X03278Y02791*
X03278Y02793*
X03277Y02794*
X03276Y02795*
X03276Y02796*
X03275Y02797*
X03274Y02798*
X03273Y02799*
X03272Y028*
X03271Y02801*
X0327Y02802*
X03268Y02802*
X03267Y02803*
X03266Y02804*
X03264Y02804*
X03263Y02804*
X03262Y02804*
X0326Y02804*
X03259*
X03257Y02804*
X03256Y02804*
X03255Y02804*
X03253Y02804*
X03252Y02803*
X03251Y02802*
X0325Y02802*
X03248Y02801*
X03247Y028*
X03246Y02799*
X03245Y02798*
X03244Y02797*
X03243Y02796*
X03243Y02795*
X03242Y02794*
X03241Y02793*
X03241Y02791*
X0324Y0279*
X0324Y02789*
X0324Y02787*
X0324Y02786*
X0324Y02785*
X0324Y02783*
X0324Y02782*
X0324Y0278*
X0324Y02779*
X03241Y02778*
X03241Y02776*
X03242Y02775*
X03243Y02774*
X03243Y02773*
X03244Y02772*
X03245Y02771*
X03246Y0277*
X03247Y02769*
X03248Y02768*
X0325Y02767*
X03251Y02767*
X03252Y02766*
X03253Y02765*
X03255Y02765*
X03256Y02765*
X03257Y02765*
X03259Y02765*
X0326*
X03262Y02765*
X03263Y02765*
X03264Y02765*
X03266Y02765*
X03267Y02766*
X03268Y02767*
X0327Y02767*
X03271Y02768*
X03272Y02769*
X03273Y0277*
X03274Y02771*
X03275Y02772*
X03276Y02773*
X03276Y02774*
X03277Y02775*
X03278Y02776*
X03278Y02778*
X03279Y02779*
X03279Y0278*
X03279Y02782*
X03279Y02783*
X0328Y02785*
M02*