G04*
G04 #@! TF.GenerationSoftware,Altium Limited,Altium Designer,25.7.1 (20)*
G04*
G04 Layer_Color=8421504*
%FSLAX44Y44*%
%MOMM*%
G71*
G04*
G04 #@! TF.SameCoordinates,F25161A0-B78C-4874-AF2B-3454E01FF3B2*
G04*
G04*
G04 #@! TF.FilePolarity,Positive*
G04*
G01*
G75*
%ADD24C,1.0000*%
G04:AMPARAMS|DCode=25|XSize=0.95mm|YSize=0.85mm|CornerRadius=0.2125mm|HoleSize=0mm|Usage=FLASHONLY|Rotation=90.000|XOffset=0mm|YOffset=0mm|HoleType=Round|Shape=RoundedRectangle|*
%AMROUNDEDRECTD25*
21,1,0.9500,0.4250,0,0,90.0*
21,1,0.5250,0.8500,0,0,90.0*
1,1,0.4250,0.2125,0.2625*
1,1,0.4250,0.2125,-0.2625*
1,1,0.4250,-0.2125,-0.2625*
1,1,0.4250,-0.2125,0.2625*
%
%ADD25ROUNDEDRECTD25*%
G04:AMPARAMS|DCode=26|XSize=0.9mm|YSize=0.8mm|CornerRadius=0.2mm|HoleSize=0mm|Usage=FLASHONLY|Rotation=270.000|XOffset=0mm|YOffset=0mm|HoleType=Round|Shape=RoundedRectangle|*
%AMROUNDEDRECTD26*
21,1,0.9000,0.4000,0,0,270.0*
21,1,0.5000,0.8000,0,0,270.0*
1,1,0.4000,-0.2000,-0.2500*
1,1,0.4000,-0.2000,0.2500*
1,1,0.4000,0.2000,0.2500*
1,1,0.4000,0.2000,-0.2500*
%
%ADD26ROUNDEDRECTD26*%
G04:AMPARAMS|DCode=27|XSize=1.57mm|YSize=0.41mm|CornerRadius=0.0513mm|HoleSize=0mm|Usage=FLASHONLY|Rotation=180.000|XOffset=0mm|YOffset=0mm|HoleType=Round|Shape=RoundedRectangle|*
%AMROUNDEDRECTD27*
21,1,1.5700,0.3075,0,0,180.0*
21,1,1.4675,0.4100,0,0,180.0*
1,1,0.1025,-0.7338,0.1538*
1,1,0.1025,0.7338,0.1538*
1,1,0.1025,0.7338,-0.1538*
1,1,0.1025,-0.7338,-0.1538*
%
%ADD27ROUNDEDRECTD27*%
%ADD28R,0.8000X0.8500*%
%ADD29R,0.8500X0.8000*%
G04:AMPARAMS|DCode=30|XSize=0.9mm|YSize=0.8mm|CornerRadius=0.2mm|HoleSize=0mm|Usage=FLASHONLY|Rotation=0.000|XOffset=0mm|YOffset=0mm|HoleType=Round|Shape=RoundedRectangle|*
%AMROUNDEDRECTD30*
21,1,0.9000,0.4000,0,0,0.0*
21,1,0.5000,0.8000,0,0,0.0*
1,1,0.4000,0.2500,-0.2000*
1,1,0.4000,-0.2500,-0.2000*
1,1,0.4000,-0.2500,0.2000*
1,1,0.4000,0.2500,0.2000*
%
%ADD30ROUNDEDRECTD30*%
G04:AMPARAMS|DCode=31|XSize=1.97mm|YSize=0.59mm|CornerRadius=0.0738mm|HoleSize=0mm|Usage=FLASHONLY|Rotation=270.000|XOffset=0mm|YOffset=0mm|HoleType=Round|Shape=RoundedRectangle|*
%AMROUNDEDRECTD31*
21,1,1.9700,0.4425,0,0,270.0*
21,1,1.8225,0.5900,0,0,270.0*
1,1,0.1475,-0.2213,-0.9113*
1,1,0.1475,-0.2213,0.9113*
1,1,0.1475,0.2213,0.9113*
1,1,0.1475,0.2213,-0.9113*
%
%ADD31ROUNDEDRECTD31*%
%ADD32R,2.1000X3.0000*%
%ADD33R,1.0000X0.6000*%
%ADD34R,0.5080X1.4732*%
G04:AMPARAMS|DCode=35|XSize=0.9mm|YSize=0.8mm|CornerRadius=0.04mm|HoleSize=0mm|Usage=FLASHONLY|Rotation=0.000|XOffset=0mm|YOffset=0mm|HoleType=Round|Shape=RoundedRectangle|*
%AMROUNDEDRECTD35*
21,1,0.9000,0.7200,0,0,0.0*
21,1,0.8200,0.8000,0,0,0.0*
1,1,0.0800,0.4100,-0.3600*
1,1,0.0800,-0.4100,-0.3600*
1,1,0.0800,-0.4100,0.3600*
1,1,0.0800,0.4100,0.3600*
%
%ADD35ROUNDEDRECTD35*%
G04:AMPARAMS|DCode=36|XSize=1.45mm|YSize=0.59mm|CornerRadius=0.0738mm|HoleSize=0mm|Usage=FLASHONLY|Rotation=90.000|XOffset=0mm|YOffset=0mm|HoleType=Round|Shape=RoundedRectangle|*
%AMROUNDEDRECTD36*
21,1,1.4500,0.4425,0,0,90.0*
21,1,1.3025,0.5900,0,0,90.0*
1,1,0.1475,0.2213,0.6513*
1,1,0.1475,0.2213,-0.6513*
1,1,0.1475,-0.2213,-0.6513*
1,1,0.1475,-0.2213,0.6513*
%
%ADD36ROUNDEDRECTD36*%
%ADD37R,3.0000X2.1000*%
G04:AMPARAMS|DCode=38|XSize=1.2mm|YSize=1.3mm|CornerRadius=0.246mm|HoleSize=0mm|Usage=FLASHONLY|Rotation=0.000|XOffset=0mm|YOffset=0mm|HoleType=Round|Shape=RoundedRectangle|*
%AMROUNDEDRECTD38*
21,1,1.2000,0.8080,0,0,0.0*
21,1,0.7080,1.3000,0,0,0.0*
1,1,0.4920,0.3540,-0.4040*
1,1,0.4920,-0.3540,-0.4040*
1,1,0.4920,-0.3540,0.4040*
1,1,0.4920,0.3540,0.4040*
%
%ADD38ROUNDEDRECTD38*%
%ADD39R,1.6000X0.8000*%
%ADD40R,2.3500X2.3000*%
%ADD41R,2.3000X2.3500*%
%ADD42R,1.2000X0.8000*%
G04:AMPARAMS|DCode=43|XSize=1.8mm|YSize=1.3mm|CornerRadius=0.247mm|HoleSize=0mm|Usage=FLASHONLY|Rotation=90.000|XOffset=0mm|YOffset=0mm|HoleType=Round|Shape=RoundedRectangle|*
%AMROUNDEDRECTD43*
21,1,1.8000,0.8060,0,0,90.0*
21,1,1.3060,1.3000,0,0,90.0*
1,1,0.4940,0.4030,0.6530*
1,1,0.4940,0.4030,-0.6530*
1,1,0.4940,-0.4030,-0.6530*
1,1,0.4940,-0.4030,0.6530*
%
%ADD43ROUNDEDRECTD43*%
G04:AMPARAMS|DCode=44|XSize=1.55mm|YSize=0.6mm|CornerRadius=0.015mm|HoleSize=0mm|Usage=FLASHONLY|Rotation=0.000|XOffset=0mm|YOffset=0mm|HoleType=Round|Shape=RoundedRectangle|*
%AMROUNDEDRECTD44*
21,1,1.5500,0.5700,0,0,0.0*
21,1,1.5200,0.6000,0,0,0.0*
1,1,0.0300,0.7600,-0.2850*
1,1,0.0300,-0.7600,-0.2850*
1,1,0.0300,-0.7600,0.2850*
1,1,0.0300,0.7600,0.2850*
%
%ADD44ROUNDEDRECTD44*%
G04:AMPARAMS|DCode=45|XSize=1.2mm|YSize=1.3mm|CornerRadius=0.246mm|HoleSize=0mm|Usage=FLASHONLY|Rotation=90.000|XOffset=0mm|YOffset=0mm|HoleType=Round|Shape=RoundedRectangle|*
%AMROUNDEDRECTD45*
21,1,1.2000,0.8080,0,0,90.0*
21,1,0.7080,1.3000,0,0,90.0*
1,1,0.4920,0.4040,0.3540*
1,1,0.4920,0.4040,-0.3540*
1,1,0.4920,-0.4040,-0.3540*
1,1,0.4920,-0.4040,0.3540*
%
%ADD45ROUNDEDRECTD45*%
%ADD46R,0.8000X1.6000*%
%ADD47O,2.1500X0.6000*%
%ADD48R,1.9812X0.5588*%
G04:AMPARAMS|DCode=49|XSize=1.3mm|YSize=1.1mm|CornerRadius=0.055mm|HoleSize=0mm|Usage=FLASHONLY|Rotation=180.000|XOffset=0mm|YOffset=0mm|HoleType=Round|Shape=RoundedRectangle|*
%AMROUNDEDRECTD49*
21,1,1.3000,0.9900,0,0,180.0*
21,1,1.1900,1.1000,0,0,180.0*
1,1,0.1100,-0.5950,0.4950*
1,1,0.1100,0.5950,0.4950*
1,1,0.1100,0.5950,-0.4950*
1,1,0.1100,-0.5950,-0.4950*
%
%ADD49ROUNDEDRECTD49*%
%ADD50O,2.2000X0.6000*%
%ADD51O,1.4000X0.3500*%
%ADD52R,1.0000X1.0000*%
G04:AMPARAMS|DCode=53|XSize=0.65mm|YSize=0.6mm|CornerRadius=0.15mm|HoleSize=0mm|Usage=FLASHONLY|Rotation=0.000|XOffset=0mm|YOffset=0mm|HoleType=Round|Shape=RoundedRectangle|*
%AMROUNDEDRECTD53*
21,1,0.6500,0.3000,0,0,0.0*
21,1,0.3500,0.6000,0,0,0.0*
1,1,0.3000,0.1750,-0.1500*
1,1,0.3000,-0.1750,-0.1500*
1,1,0.3000,-0.1750,0.1500*
1,1,0.3000,0.1750,0.1500*
%
%ADD53ROUNDEDRECTD53*%
G04:AMPARAMS|DCode=54|XSize=0.95mm|YSize=0.85mm|CornerRadius=0.2125mm|HoleSize=0mm|Usage=FLASHONLY|Rotation=180.000|XOffset=0mm|YOffset=0mm|HoleType=Round|Shape=RoundedRectangle|*
%AMROUNDEDRECTD54*
21,1,0.9500,0.4250,0,0,180.0*
21,1,0.5250,0.8500,0,0,180.0*
1,1,0.4250,-0.2625,0.2125*
1,1,0.4250,0.2625,0.2125*
1,1,0.4250,0.2625,-0.2125*
1,1,0.4250,-0.2625,-0.2125*
%
%ADD54ROUNDEDRECTD54*%
G04:AMPARAMS|DCode=55|XSize=1.55mm|YSize=0.6mm|CornerRadius=0.015mm|HoleSize=0mm|Usage=FLASHONLY|Rotation=90.000|XOffset=0mm|YOffset=0mm|HoleType=Round|Shape=RoundedRectangle|*
%AMROUNDEDRECTD55*
21,1,1.5500,0.5700,0,0,90.0*
21,1,1.5200,0.6000,0,0,90.0*
1,1,0.0300,0.2850,0.7600*
1,1,0.0300,0.2850,-0.7600*
1,1,0.0300,-0.2850,-0.7600*
1,1,0.0300,-0.2850,0.7600*
%
%ADD55ROUNDEDRECTD55*%
G04:AMPARAMS|DCode=56|XSize=0.86mm|YSize=0.32mm|CornerRadius=0.12mm|HoleSize=0mm|Usage=FLASHONLY|Rotation=180.000|XOffset=0mm|YOffset=0mm|HoleType=Round|Shape=RoundedRectangle|*
%AMROUNDEDRECTD56*
21,1,0.8600,0.0800,0,0,180.0*
21,1,0.6200,0.3200,0,0,180.0*
1,1,0.2400,-0.3100,0.0400*
1,1,0.2400,0.3100,0.0400*
1,1,0.2400,0.3100,-0.0400*
1,1,0.2400,-0.3100,-0.0400*
%
%ADD56ROUNDEDRECTD56*%
G04:AMPARAMS|DCode=57|XSize=0.86mm|YSize=0.32mm|CornerRadius=0.12mm|HoleSize=0mm|Usage=FLASHONLY|Rotation=90.000|XOffset=0mm|YOffset=0mm|HoleType=Round|Shape=RoundedRectangle|*
%AMROUNDEDRECTD57*
21,1,0.8600,0.0800,0,0,90.0*
21,1,0.6200,0.3200,0,0,90.0*
1,1,0.2400,0.0400,0.3100*
1,1,0.2400,0.0400,-0.3100*
1,1,0.2400,-0.0400,-0.3100*
1,1,0.2400,-0.0400,0.3100*
%
%ADD57ROUNDEDRECTD57*%
G04:AMPARAMS|DCode=58|XSize=0.6mm|YSize=0.25mm|CornerRadius=0.0463mm|HoleSize=0mm|Usage=FLASHONLY|Rotation=90.000|XOffset=0mm|YOffset=0mm|HoleType=Round|Shape=RoundedRectangle|*
%AMROUNDEDRECTD58*
21,1,0.6000,0.1575,0,0,90.0*
21,1,0.5075,0.2500,0,0,90.0*
1,1,0.0925,0.0788,0.2537*
1,1,0.0925,0.0788,-0.2537*
1,1,0.0925,-0.0788,-0.2537*
1,1,0.0925,-0.0788,0.2537*
%
%ADD58ROUNDEDRECTD58*%
G04:AMPARAMS|DCode=59|XSize=2.2mm|YSize=2.4mm|CornerRadius=0.242mm|HoleSize=0mm|Usage=FLASHONLY|Rotation=0.000|XOffset=0mm|YOffset=0mm|HoleType=Round|Shape=RoundedRectangle|*
%AMROUNDEDRECTD59*
21,1,2.2000,1.9160,0,0,0.0*
21,1,1.7160,2.4000,0,0,0.0*
1,1,0.4840,0.8580,-0.9580*
1,1,0.4840,-0.8580,-0.9580*
1,1,0.4840,-0.8580,0.9580*
1,1,0.4840,0.8580,0.9580*
%
%ADD59ROUNDEDRECTD59*%
%ADD60R,2.4500X2.5000*%
G04:AMPARAMS|DCode=61|XSize=2.2mm|YSize=2.4mm|CornerRadius=0.242mm|HoleSize=0mm|Usage=FLASHONLY|Rotation=90.000|XOffset=0mm|YOffset=0mm|HoleType=Round|Shape=RoundedRectangle|*
%AMROUNDEDRECTD61*
21,1,2.2000,1.9160,0,0,90.0*
21,1,1.7160,2.4000,0,0,90.0*
1,1,0.4840,0.9580,0.8580*
1,1,0.4840,0.9580,-0.8580*
1,1,0.4840,-0.9580,-0.8580*
1,1,0.4840,-0.9580,0.8580*
%
%ADD61ROUNDEDRECTD61*%
%ADD62R,1.4732X0.5080*%
%ADD63R,0.8500X0.9000*%
%ADD64R,1.0000X0.5000*%
%ADD65R,2.0320X5.0800*%
%ADD66R,1.0700X3.2700*%
%ADD67C,1.2700*%
%ADD68C,1.0000*%
G04:AMPARAMS|DCode=69|XSize=1.75mm|YSize=1.25mm|CornerRadius=0.2438mm|HoleSize=0mm|Usage=FLASHONLY|Rotation=90.000|XOffset=0mm|YOffset=0mm|HoleType=Round|Shape=RoundedRectangle|*
%AMROUNDEDRECTD69*
21,1,1.7500,0.7625,0,0,90.0*
21,1,1.2625,1.2500,0,0,90.0*
1,1,0.4875,0.3813,0.6313*
1,1,0.4875,0.3813,-0.6313*
1,1,0.4875,-0.3813,-0.6313*
1,1,0.4875,-0.3813,0.6313*
%
%ADD69ROUNDEDRECTD69*%
%ADD70R,1.0000X0.3500*%
%ADD71R,0.5000X1.0000*%
%ADD72R,0.3500X1.0000*%
%ADD73R,0.9652X1.2192*%
G04:AMPARAMS|DCode=74|XSize=0.65mm|YSize=0.6mm|CornerRadius=0.15mm|HoleSize=0mm|Usage=FLASHONLY|Rotation=90.000|XOffset=0mm|YOffset=0mm|HoleType=Round|Shape=RoundedRectangle|*
%AMROUNDEDRECTD74*
21,1,0.6500,0.3000,0,0,90.0*
21,1,0.3500,0.6000,0,0,90.0*
1,1,0.3000,0.1500,0.1750*
1,1,0.3000,0.1500,-0.1750*
1,1,0.3000,-0.1500,-0.1750*
1,1,0.3000,-0.1500,0.1750*
%
%ADD74ROUNDEDRECTD74*%
G36*
X250360Y593530D02*
X250380D01*
X250410Y593520D01*
X250430D01*
X250460Y593510D01*
X250480Y593500D01*
X250510Y593490D01*
X250530Y593470D01*
X250550Y593460D01*
X250570Y593440D01*
X250590Y593430D01*
X250610Y593410D01*
X250630Y593390D01*
X250650Y593370D01*
X250670Y593350D01*
X250680Y593330D01*
X250700Y593310D01*
X250710Y593290D01*
X250730Y593270D01*
X250740Y593240D01*
X250750Y593220D01*
X250760Y593190D01*
Y593170D01*
X250770Y593140D01*
Y593120D01*
X250780Y593090D01*
Y593070D01*
Y593040D01*
Y588040D01*
Y588010D01*
Y587990D01*
X250770Y587960D01*
Y587940D01*
X250760Y587910D01*
Y587890D01*
X250750Y587860D01*
X250740Y587840D01*
X250730Y587810D01*
X250710Y587790D01*
X250700Y587770D01*
X250680Y587750D01*
X250670Y587730D01*
X250650Y587710D01*
X250630Y587690D01*
X250610Y587670D01*
X250590Y587650D01*
X250570Y587640D01*
X250550Y587620D01*
X250530Y587610D01*
X250510Y587590D01*
X250480Y587580D01*
X250460Y587570D01*
X250430Y587560D01*
X250410D01*
X250380Y587550D01*
X250360D01*
X250330Y587540D01*
X248730D01*
X248700Y587550D01*
X248680D01*
X248650Y587560D01*
X248630D01*
X248600Y587570D01*
X248580Y587580D01*
X248550Y587590D01*
X248530Y587610D01*
X248510Y587620D01*
X248490Y587640D01*
X248470Y587650D01*
X248450Y587670D01*
X248430Y587690D01*
X248410Y587710D01*
X248390Y587730D01*
X248380Y587750D01*
X248360Y587770D01*
X248350Y587790D01*
X248330Y587810D01*
X248320Y587840D01*
X248310Y587860D01*
X248300Y587890D01*
Y587910D01*
X248290Y587940D01*
Y587960D01*
X248280Y587990D01*
Y588010D01*
Y588040D01*
Y593040D01*
Y593070D01*
Y593090D01*
X248290Y593120D01*
Y593140D01*
X248300Y593170D01*
Y593190D01*
X248310Y593220D01*
X248320Y593240D01*
X248330Y593270D01*
X248350Y593290D01*
X248360Y593310D01*
X248380Y593330D01*
X248390Y593350D01*
X248410Y593370D01*
X248430Y593390D01*
X248450Y593410D01*
X248470Y593430D01*
X248490Y593440D01*
X248510Y593460D01*
X248530Y593470D01*
X248550Y593490D01*
X248580Y593500D01*
X248600Y593510D01*
X248630Y593520D01*
X248650D01*
X248680Y593530D01*
X248700D01*
X248730Y593540D01*
X250330D01*
X250360Y593530D01*
D02*
G37*
G36*
X219560D02*
X219580D01*
X219610Y593520D01*
X219630D01*
X219660Y593510D01*
X219680Y593500D01*
X219710Y593490D01*
X219730Y593470D01*
X219750Y593460D01*
X219770Y593440D01*
X219790Y593430D01*
X219810Y593410D01*
X219830Y593390D01*
X219850Y593370D01*
X219870Y593350D01*
X219880Y593330D01*
X219900Y593310D01*
X219910Y593290D01*
X219930Y593270D01*
X219940Y593240D01*
X219950Y593220D01*
X219960Y593190D01*
Y593170D01*
X219970Y593140D01*
Y593120D01*
X219980Y593090D01*
Y593070D01*
Y593040D01*
Y588040D01*
Y588010D01*
Y587990D01*
X219970Y587960D01*
Y587940D01*
X219960Y587910D01*
Y587890D01*
X219950Y587860D01*
X219940Y587840D01*
X219930Y587810D01*
X219910Y587790D01*
X219900Y587770D01*
X219880Y587750D01*
X219870Y587730D01*
X219850Y587710D01*
X219830Y587690D01*
X219810Y587670D01*
X219790Y587650D01*
X219770Y587640D01*
X219750Y587620D01*
X219730Y587610D01*
X219710Y587590D01*
X219680Y587580D01*
X219660Y587570D01*
X219630Y587560D01*
X219610D01*
X219580Y587550D01*
X219560D01*
X219530Y587540D01*
X217930D01*
X217900Y587550D01*
X217880D01*
X217850Y587560D01*
X217830D01*
X217800Y587570D01*
X217780Y587580D01*
X217750Y587590D01*
X217730Y587610D01*
X217710Y587620D01*
X217690Y587640D01*
X217670Y587650D01*
X217650Y587670D01*
X217630Y587690D01*
X217610Y587710D01*
X217590Y587730D01*
X217580Y587750D01*
X217560Y587770D01*
X217550Y587790D01*
X217530Y587810D01*
X217520Y587840D01*
X217510Y587860D01*
X217500Y587890D01*
Y587910D01*
X217490Y587940D01*
Y587960D01*
X217480Y587990D01*
Y588010D01*
Y588040D01*
Y593040D01*
Y593070D01*
Y593090D01*
X217490Y593120D01*
Y593140D01*
X217500Y593170D01*
Y593190D01*
X217510Y593220D01*
X217520Y593240D01*
X217530Y593270D01*
X217550Y593290D01*
X217560Y593310D01*
X217580Y593330D01*
X217590Y593350D01*
X217610Y593370D01*
X217630Y593390D01*
X217650Y593410D01*
X217670Y593430D01*
X217690Y593440D01*
X217710Y593460D01*
X217730Y593470D01*
X217750Y593490D01*
X217780Y593500D01*
X217800Y593510D01*
X217830Y593520D01*
X217850D01*
X217880Y593530D01*
X217900D01*
X217930Y593540D01*
X219530D01*
X219560Y593530D01*
D02*
G37*
G36*
X255360D02*
X255380D01*
X255410Y593520D01*
X255430D01*
X255460Y593510D01*
X255480Y593500D01*
X255510Y593490D01*
X255530Y593470D01*
X255550Y593460D01*
X255570Y593440D01*
X255590Y593430D01*
X255610Y593410D01*
X255630Y593390D01*
X255650Y593370D01*
X255670Y593350D01*
X255680Y593330D01*
X255700Y593310D01*
X255710Y593290D01*
X255730Y593270D01*
X255740Y593240D01*
X255750Y593220D01*
X255760Y593190D01*
Y593170D01*
X255770Y593140D01*
Y593120D01*
X255780Y593090D01*
Y593070D01*
Y593040D01*
Y587540D01*
Y587510D01*
Y587490D01*
X255770Y587460D01*
Y587440D01*
X255760Y587410D01*
Y587390D01*
X255750Y587360D01*
X255740Y587340D01*
X255730Y587310D01*
X255710Y587290D01*
X255700Y587270D01*
X255680Y587250D01*
X255670Y587230D01*
X255650Y587210D01*
X255630Y587190D01*
X255610Y587170D01*
X255590Y587150D01*
X255570Y587140D01*
X255550Y587120D01*
X255530Y587110D01*
X255510Y587090D01*
X255480Y587080D01*
X255460Y587070D01*
X255430Y587060D01*
X255410D01*
X255380Y587050D01*
X255360D01*
X255330Y587040D01*
X253730D01*
X253700Y587050D01*
X253680D01*
X253650Y587060D01*
X253630D01*
X253600Y587070D01*
X253580Y587080D01*
X253550Y587090D01*
X253530Y587110D01*
X253510Y587120D01*
X253490Y587140D01*
X253470Y587150D01*
X253450Y587170D01*
X253430Y587190D01*
X253410Y587210D01*
X253390Y587230D01*
X253380Y587250D01*
X253360Y587270D01*
X253350Y587290D01*
X253330Y587310D01*
X253320Y587340D01*
X253310Y587360D01*
X253300Y587390D01*
Y587410D01*
X253290Y587440D01*
Y587460D01*
X253280Y587490D01*
Y587510D01*
Y587540D01*
Y593040D01*
Y593070D01*
Y593090D01*
X253290Y593120D01*
Y593140D01*
X253300Y593170D01*
Y593190D01*
X253310Y593220D01*
X253320Y593240D01*
X253330Y593270D01*
X253350Y593290D01*
X253360Y593310D01*
X253380Y593330D01*
X253390Y593350D01*
X253410Y593370D01*
X253430Y593390D01*
X253450Y593410D01*
X253470Y593430D01*
X253490Y593440D01*
X253510Y593460D01*
X253530Y593470D01*
X253550Y593490D01*
X253580Y593500D01*
X253600Y593510D01*
X253630Y593520D01*
X253650D01*
X253680Y593530D01*
X253700D01*
X253730Y593540D01*
X255330D01*
X255360Y593530D01*
D02*
G37*
G36*
X214560D02*
X214580D01*
X214610Y593520D01*
X214630D01*
X214660Y593510D01*
X214680Y593500D01*
X214710Y593490D01*
X214730Y593470D01*
X214750Y593460D01*
X214770Y593440D01*
X214790Y593430D01*
X214810Y593410D01*
X214830Y593390D01*
X214850Y593370D01*
X214870Y593350D01*
X214880Y593330D01*
X214900Y593310D01*
X214910Y593290D01*
X214930Y593270D01*
X214940Y593240D01*
X214950Y593220D01*
X214960Y593190D01*
Y593170D01*
X214970Y593140D01*
Y593120D01*
X214980Y593090D01*
Y593070D01*
Y593040D01*
Y587540D01*
Y587510D01*
Y587490D01*
X214970Y587460D01*
Y587440D01*
X214960Y587410D01*
Y587390D01*
X214950Y587360D01*
X214940Y587340D01*
X214930Y587310D01*
X214910Y587290D01*
X214900Y587270D01*
X214880Y587250D01*
X214870Y587230D01*
X214850Y587210D01*
X214830Y587190D01*
X214810Y587170D01*
X214790Y587150D01*
X214770Y587140D01*
X214750Y587120D01*
X214730Y587110D01*
X214710Y587090D01*
X214680Y587080D01*
X214660Y587070D01*
X214630Y587060D01*
X214610D01*
X214580Y587050D01*
X214560D01*
X214530Y587040D01*
X212930D01*
X212900Y587050D01*
X212880D01*
X212850Y587060D01*
X212830D01*
X212800Y587070D01*
X212780Y587080D01*
X212750Y587090D01*
X212730Y587110D01*
X212710Y587120D01*
X212690Y587140D01*
X212670Y587150D01*
X212650Y587170D01*
X212630Y587190D01*
X212610Y587210D01*
X212590Y587230D01*
X212580Y587250D01*
X212560Y587270D01*
X212550Y587290D01*
X212530Y587310D01*
X212520Y587340D01*
X212510Y587360D01*
X212500Y587390D01*
Y587410D01*
X212490Y587440D01*
Y587460D01*
X212480Y587490D01*
Y587510D01*
Y587540D01*
Y593040D01*
Y593070D01*
Y593090D01*
X212490Y593120D01*
Y593140D01*
X212500Y593170D01*
Y593190D01*
X212510Y593220D01*
X212520Y593240D01*
X212530Y593270D01*
X212550Y593290D01*
X212560Y593310D01*
X212580Y593330D01*
X212590Y593350D01*
X212610Y593370D01*
X212630Y593390D01*
X212650Y593410D01*
X212670Y593430D01*
X212690Y593440D01*
X212710Y593460D01*
X212730Y593470D01*
X212750Y593490D01*
X212780Y593500D01*
X212800Y593510D01*
X212830Y593520D01*
X212850D01*
X212880Y593530D01*
X212900D01*
X212930Y593540D01*
X214530D01*
X214560Y593530D01*
D02*
G37*
G36*
X245360D02*
X245380D01*
X245410Y593520D01*
X245430D01*
X245460Y593510D01*
X245480Y593500D01*
X245510Y593490D01*
X245530Y593470D01*
X245550Y593460D01*
X245570Y593440D01*
X245590Y593430D01*
X245610Y593410D01*
X245630Y593390D01*
X245650Y593370D01*
X245670Y593350D01*
X245680Y593330D01*
X245700Y593310D01*
X245710Y593290D01*
X245730Y593270D01*
X245740Y593240D01*
X245750Y593220D01*
X245760Y593190D01*
Y593170D01*
X245770Y593140D01*
Y593120D01*
X245780Y593090D01*
Y593070D01*
Y593040D01*
Y584040D01*
Y584010D01*
Y583990D01*
X245770Y583960D01*
Y583940D01*
X245760Y583910D01*
Y583890D01*
X245750Y583860D01*
X245740Y583840D01*
X245730Y583810D01*
X245710Y583790D01*
X245700Y583770D01*
X245680Y583750D01*
X245670Y583730D01*
X245650Y583710D01*
X245630Y583690D01*
X245610Y583670D01*
X245590Y583650D01*
X245570Y583640D01*
X245550Y583620D01*
X245530Y583610D01*
X245510Y583590D01*
X245480Y583580D01*
X245460Y583570D01*
X245430Y583560D01*
X245410D01*
X245380Y583550D01*
X245360D01*
X245330Y583540D01*
X243730D01*
X243700Y583550D01*
X243680D01*
X243650Y583560D01*
X243630D01*
X243600Y583570D01*
X243580Y583580D01*
X243550Y583590D01*
X243530Y583610D01*
X243510Y583620D01*
X243490Y583640D01*
X243470Y583650D01*
X243450Y583670D01*
X243430Y583690D01*
X243410Y583710D01*
X243390Y583730D01*
X243380Y583750D01*
X243360Y583770D01*
X243350Y583790D01*
X243330Y583810D01*
X243320Y583840D01*
X243310Y583860D01*
X243300Y583890D01*
Y583910D01*
X243290Y583940D01*
Y583960D01*
X243280Y583990D01*
Y584010D01*
Y584040D01*
Y593040D01*
Y593070D01*
Y593090D01*
X243290Y593120D01*
Y593140D01*
X243300Y593170D01*
Y593190D01*
X243310Y593220D01*
X243320Y593240D01*
X243330Y593270D01*
X243350Y593290D01*
X243360Y593310D01*
X243380Y593330D01*
X243390Y593350D01*
X243410Y593370D01*
X243430Y593390D01*
X243450Y593410D01*
X243470Y593430D01*
X243490Y593440D01*
X243510Y593460D01*
X243530Y593470D01*
X243550Y593490D01*
X243580Y593500D01*
X243600Y593510D01*
X243630Y593520D01*
X243650D01*
X243680Y593530D01*
X243700D01*
X243730Y593540D01*
X245330D01*
X245360Y593530D01*
D02*
G37*
G36*
X240360D02*
X240380D01*
X240410Y593520D01*
X240430D01*
X240460Y593510D01*
X240480Y593500D01*
X240510Y593490D01*
X240530Y593470D01*
X240550Y593460D01*
X240570Y593440D01*
X240590Y593430D01*
X240610Y593410D01*
X240630Y593390D01*
X240650Y593370D01*
X240670Y593350D01*
X240680Y593330D01*
X240700Y593310D01*
X240710Y593290D01*
X240730Y593270D01*
X240740Y593240D01*
X240750Y593220D01*
X240760Y593190D01*
Y593170D01*
X240770Y593140D01*
Y593120D01*
X240780Y593090D01*
Y593070D01*
Y593040D01*
Y584040D01*
Y584010D01*
Y583990D01*
X240770Y583960D01*
Y583940D01*
X240760Y583910D01*
Y583890D01*
X240750Y583860D01*
X240740Y583840D01*
X240730Y583810D01*
X240710Y583790D01*
X240700Y583770D01*
X240680Y583750D01*
X240670Y583730D01*
X240650Y583710D01*
X240630Y583690D01*
X240610Y583670D01*
X240590Y583650D01*
X240570Y583640D01*
X240550Y583620D01*
X240530Y583610D01*
X240510Y583590D01*
X240480Y583580D01*
X240460Y583570D01*
X240430Y583560D01*
X240410D01*
X240380Y583550D01*
X240360D01*
X240330Y583540D01*
X238730D01*
X238700Y583550D01*
X238680D01*
X238650Y583560D01*
X238630D01*
X238600Y583570D01*
X238580Y583580D01*
X238550Y583590D01*
X238530Y583610D01*
X238510Y583620D01*
X238490Y583640D01*
X238470Y583650D01*
X238450Y583670D01*
X238430Y583690D01*
X238410Y583710D01*
X238390Y583730D01*
X238380Y583750D01*
X238360Y583770D01*
X238350Y583790D01*
X238330Y583810D01*
X238320Y583840D01*
X238310Y583860D01*
X238300Y583890D01*
Y583910D01*
X238290Y583940D01*
Y583960D01*
X238280Y583990D01*
Y584010D01*
Y584040D01*
Y593040D01*
Y593070D01*
Y593090D01*
X238290Y593120D01*
Y593140D01*
X238300Y593170D01*
Y593190D01*
X238310Y593220D01*
X238320Y593240D01*
X238330Y593270D01*
X238350Y593290D01*
X238360Y593310D01*
X238380Y593330D01*
X238390Y593350D01*
X238410Y593370D01*
X238430Y593390D01*
X238450Y593410D01*
X238470Y593430D01*
X238490Y593440D01*
X238510Y593460D01*
X238530Y593470D01*
X238550Y593490D01*
X238580Y593500D01*
X238600Y593510D01*
X238630Y593520D01*
X238650D01*
X238680Y593530D01*
X238700D01*
X238730Y593540D01*
X240330D01*
X240360Y593530D01*
D02*
G37*
G36*
X234960D02*
X234980D01*
X235010Y593520D01*
X235030D01*
X235060Y593510D01*
X235080Y593500D01*
X235110Y593490D01*
X235130Y593470D01*
X235150Y593460D01*
X235170Y593440D01*
X235190Y593430D01*
X235210Y593410D01*
X235230Y593390D01*
X235250Y593370D01*
X235270Y593350D01*
X235280Y593330D01*
X235300Y593310D01*
X235310Y593290D01*
X235330Y593270D01*
X235340Y593240D01*
X235350Y593220D01*
X235360Y593190D01*
Y593170D01*
X235370Y593140D01*
Y593120D01*
X235380Y593090D01*
Y593070D01*
Y593040D01*
Y584040D01*
Y584010D01*
Y583990D01*
X235370Y583960D01*
Y583940D01*
X235360Y583910D01*
Y583890D01*
X235350Y583860D01*
X235340Y583840D01*
X235330Y583810D01*
X235310Y583790D01*
X235300Y583770D01*
X235280Y583750D01*
X235270Y583730D01*
X235250Y583710D01*
X235230Y583690D01*
X235210Y583670D01*
X235190Y583650D01*
X235170Y583640D01*
X235150Y583620D01*
X235130Y583610D01*
X235110Y583590D01*
X235080Y583580D01*
X235060Y583570D01*
X235030Y583560D01*
X235010D01*
X234980Y583550D01*
X234960D01*
X234930Y583540D01*
X233330D01*
X233300Y583550D01*
X233280D01*
X233250Y583560D01*
X233230D01*
X233200Y583570D01*
X233180Y583580D01*
X233150Y583590D01*
X233130Y583610D01*
X233110Y583620D01*
X233090Y583640D01*
X233070Y583650D01*
X233050Y583670D01*
X233030Y583690D01*
X233010Y583710D01*
X232990Y583730D01*
X232980Y583750D01*
X232960Y583770D01*
X232950Y583790D01*
X232930Y583810D01*
X232920Y583840D01*
X232910Y583860D01*
X232900Y583890D01*
Y583910D01*
X232890Y583940D01*
Y583960D01*
X232880Y583990D01*
Y584010D01*
Y584040D01*
Y593040D01*
Y593070D01*
Y593090D01*
X232890Y593120D01*
Y593140D01*
X232900Y593170D01*
Y593190D01*
X232910Y593220D01*
X232920Y593240D01*
X232930Y593270D01*
X232950Y593290D01*
X232960Y593310D01*
X232980Y593330D01*
X232990Y593350D01*
X233010Y593370D01*
X233030Y593390D01*
X233050Y593410D01*
X233070Y593430D01*
X233090Y593440D01*
X233110Y593460D01*
X233130Y593470D01*
X233150Y593490D01*
X233180Y593500D01*
X233200Y593510D01*
X233230Y593520D01*
X233250D01*
X233280Y593530D01*
X233300D01*
X233330Y593540D01*
X234930D01*
X234960Y593530D01*
D02*
G37*
G36*
X229560D02*
X229580D01*
X229610Y593520D01*
X229630D01*
X229660Y593510D01*
X229680Y593500D01*
X229710Y593490D01*
X229730Y593470D01*
X229750Y593460D01*
X229770Y593440D01*
X229790Y593430D01*
X229810Y593410D01*
X229830Y593390D01*
X229850Y593370D01*
X229870Y593350D01*
X229880Y593330D01*
X229900Y593310D01*
X229910Y593290D01*
X229930Y593270D01*
X229940Y593240D01*
X229950Y593220D01*
X229960Y593190D01*
Y593170D01*
X229970Y593140D01*
Y593120D01*
X229980Y593090D01*
Y593070D01*
Y593040D01*
Y584040D01*
Y584010D01*
Y583990D01*
X229970Y583960D01*
Y583940D01*
X229960Y583910D01*
Y583890D01*
X229950Y583860D01*
X229940Y583840D01*
X229930Y583810D01*
X229910Y583790D01*
X229900Y583770D01*
X229880Y583750D01*
X229870Y583730D01*
X229850Y583710D01*
X229830Y583690D01*
X229810Y583670D01*
X229790Y583650D01*
X229770Y583640D01*
X229750Y583620D01*
X229730Y583610D01*
X229710Y583590D01*
X229680Y583580D01*
X229660Y583570D01*
X229630Y583560D01*
X229610D01*
X229580Y583550D01*
X229560D01*
X229530Y583540D01*
X227930D01*
X227900Y583550D01*
X227880D01*
X227850Y583560D01*
X227830D01*
X227800Y583570D01*
X227780Y583580D01*
X227750Y583590D01*
X227730Y583610D01*
X227710Y583620D01*
X227690Y583640D01*
X227670Y583650D01*
X227650Y583670D01*
X227630Y583690D01*
X227610Y583710D01*
X227590Y583730D01*
X227580Y583750D01*
X227560Y583770D01*
X227550Y583790D01*
X227530Y583810D01*
X227520Y583840D01*
X227510Y583860D01*
X227500Y583890D01*
Y583910D01*
X227490Y583940D01*
Y583960D01*
X227480Y583990D01*
Y584010D01*
Y584040D01*
Y593040D01*
Y593070D01*
Y593090D01*
X227490Y593120D01*
Y593140D01*
X227500Y593170D01*
Y593190D01*
X227510Y593220D01*
X227520Y593240D01*
X227530Y593270D01*
X227550Y593290D01*
X227560Y593310D01*
X227580Y593330D01*
X227590Y593350D01*
X227610Y593370D01*
X227630Y593390D01*
X227650Y593410D01*
X227670Y593430D01*
X227690Y593440D01*
X227710Y593460D01*
X227730Y593470D01*
X227750Y593490D01*
X227780Y593500D01*
X227800Y593510D01*
X227830Y593520D01*
X227850D01*
X227880Y593530D01*
X227900D01*
X227930Y593540D01*
X229530D01*
X229560Y593530D01*
D02*
G37*
G36*
X224560D02*
X224580D01*
X224610Y593520D01*
X224630D01*
X224660Y593510D01*
X224680Y593500D01*
X224710Y593490D01*
X224730Y593470D01*
X224750Y593460D01*
X224770Y593440D01*
X224790Y593430D01*
X224810Y593410D01*
X224830Y593390D01*
X224850Y593370D01*
X224870Y593350D01*
X224880Y593330D01*
X224900Y593310D01*
X224910Y593290D01*
X224930Y593270D01*
X224940Y593240D01*
X224950Y593220D01*
X224960Y593190D01*
Y593170D01*
X224970Y593140D01*
Y593120D01*
X224980Y593090D01*
Y593070D01*
Y593040D01*
Y584040D01*
Y584010D01*
Y583990D01*
X224970Y583960D01*
Y583940D01*
X224960Y583910D01*
Y583890D01*
X224950Y583860D01*
X224940Y583840D01*
X224930Y583810D01*
X224910Y583790D01*
X224900Y583770D01*
X224880Y583750D01*
X224870Y583730D01*
X224850Y583710D01*
X224830Y583690D01*
X224810Y583670D01*
X224790Y583650D01*
X224770Y583640D01*
X224750Y583620D01*
X224730Y583610D01*
X224710Y583590D01*
X224680Y583580D01*
X224660Y583570D01*
X224630Y583560D01*
X224610D01*
X224580Y583550D01*
X224560D01*
X224530Y583540D01*
X222930D01*
X222900Y583550D01*
X222880D01*
X222850Y583560D01*
X222830D01*
X222800Y583570D01*
X222780Y583580D01*
X222750Y583590D01*
X222730Y583610D01*
X222710Y583620D01*
X222690Y583640D01*
X222670Y583650D01*
X222650Y583670D01*
X222630Y583690D01*
X222610Y583710D01*
X222590Y583730D01*
X222580Y583750D01*
X222560Y583770D01*
X222550Y583790D01*
X222530Y583810D01*
X222520Y583840D01*
X222510Y583860D01*
X222500Y583890D01*
Y583910D01*
X222490Y583940D01*
Y583960D01*
X222480Y583990D01*
Y584010D01*
Y584040D01*
Y593040D01*
Y593070D01*
Y593090D01*
X222490Y593120D01*
Y593140D01*
X222500Y593170D01*
Y593190D01*
X222510Y593220D01*
X222520Y593240D01*
X222530Y593270D01*
X222550Y593290D01*
X222560Y593310D01*
X222580Y593330D01*
X222590Y593350D01*
X222610Y593370D01*
X222630Y593390D01*
X222650Y593410D01*
X222670Y593430D01*
X222690Y593440D01*
X222710Y593460D01*
X222730Y593470D01*
X222750Y593490D01*
X222780Y593500D01*
X222800Y593510D01*
X222830Y593520D01*
X222850D01*
X222880Y593530D01*
X222900D01*
X222930Y593540D01*
X224530D01*
X224560Y593530D01*
D02*
G37*
G36*
X260710Y585280D02*
X260730D01*
X260760Y585270D01*
X260780D01*
X260810Y585260D01*
X260830Y585250D01*
X260860Y585240D01*
X260880Y585220D01*
X260900Y585210D01*
X260920Y585190D01*
X260940Y585180D01*
X260960Y585160D01*
X260980Y585140D01*
X261000Y585120D01*
X261020Y585100D01*
X261030Y585080D01*
X261050Y585060D01*
X261060Y585040D01*
X261080Y585020D01*
X261090Y584990D01*
X261100Y584970D01*
X261110Y584940D01*
Y584920D01*
X261120Y584890D01*
Y584870D01*
X261130Y584840D01*
Y584820D01*
Y584790D01*
Y583290D01*
Y583260D01*
Y583240D01*
X261120Y583210D01*
Y583190D01*
X261110Y583160D01*
Y583140D01*
X261100Y583110D01*
X261090Y583090D01*
X261080Y583060D01*
X261060Y583040D01*
X261050Y583020D01*
X261030Y583000D01*
X261020Y582980D01*
X261000Y582960D01*
X260980Y582940D01*
X260960Y582920D01*
X260940Y582900D01*
X260920Y582890D01*
X260900Y582870D01*
X260880Y582860D01*
X260860Y582840D01*
X260830Y582830D01*
X260810Y582820D01*
X260780Y582810D01*
X260760D01*
X260730Y582800D01*
X260710D01*
X260680Y582790D01*
X255580D01*
X255550Y582800D01*
X255530D01*
X255500Y582810D01*
X255480D01*
X255450Y582820D01*
X255430Y582830D01*
X255400Y582840D01*
X255380Y582860D01*
X255360Y582870D01*
X255340Y582890D01*
X255320Y582900D01*
X255300Y582920D01*
X255280Y582940D01*
X255260Y582960D01*
X255240Y582980D01*
X255230Y583000D01*
X255210Y583020D01*
X255200Y583040D01*
X255180Y583060D01*
X255170Y583090D01*
X255160Y583110D01*
X255150Y583140D01*
Y583160D01*
X255140Y583190D01*
Y583210D01*
X255130Y583240D01*
Y583260D01*
Y583290D01*
Y584790D01*
Y584820D01*
Y584840D01*
X255140Y584870D01*
Y584890D01*
X255150Y584920D01*
Y584940D01*
X255160Y584970D01*
X255170Y584990D01*
X255180Y585020D01*
X255200Y585040D01*
X255210Y585060D01*
X255230Y585080D01*
X255240Y585100D01*
X255260Y585120D01*
X255280Y585140D01*
X255300Y585160D01*
X255320Y585180D01*
X255340Y585190D01*
X255360Y585210D01*
X255380Y585220D01*
X255400Y585240D01*
X255430Y585250D01*
X255450Y585260D01*
X255480Y585270D01*
X255500D01*
X255530Y585280D01*
X255550D01*
X255580Y585290D01*
X260680D01*
X260710Y585280D01*
D02*
G37*
G36*
X212710D02*
X212730D01*
X212760Y585270D01*
X212780D01*
X212810Y585260D01*
X212830Y585250D01*
X212860Y585240D01*
X212880Y585220D01*
X212900Y585210D01*
X212920Y585190D01*
X212940Y585180D01*
X212960Y585160D01*
X212980Y585140D01*
X213000Y585120D01*
X213020Y585100D01*
X213030Y585080D01*
X213050Y585060D01*
X213060Y585040D01*
X213080Y585020D01*
X213090Y584990D01*
X213100Y584970D01*
X213110Y584940D01*
Y584920D01*
X213120Y584890D01*
Y584870D01*
X213130Y584840D01*
Y584820D01*
Y584790D01*
Y583290D01*
Y583260D01*
Y583240D01*
X213120Y583210D01*
Y583190D01*
X213110Y583160D01*
Y583140D01*
X213100Y583110D01*
X213090Y583090D01*
X213080Y583060D01*
X213060Y583040D01*
X213050Y583020D01*
X213030Y583000D01*
X213020Y582980D01*
X213000Y582960D01*
X212980Y582940D01*
X212960Y582920D01*
X212940Y582900D01*
X212920Y582890D01*
X212900Y582870D01*
X212880Y582860D01*
X212860Y582840D01*
X212830Y582830D01*
X212810Y582820D01*
X212780Y582810D01*
X212760D01*
X212730Y582800D01*
X212710D01*
X212680Y582790D01*
X207580D01*
X207550Y582800D01*
X207530D01*
X207500Y582810D01*
X207480D01*
X207450Y582820D01*
X207430Y582830D01*
X207400Y582840D01*
X207380Y582860D01*
X207360Y582870D01*
X207340Y582890D01*
X207320Y582900D01*
X207300Y582920D01*
X207280Y582940D01*
X207260Y582960D01*
X207240Y582980D01*
X207230Y583000D01*
X207210Y583020D01*
X207200Y583040D01*
X207180Y583060D01*
X207170Y583090D01*
X207160Y583110D01*
X207150Y583140D01*
Y583160D01*
X207140Y583190D01*
Y583210D01*
X207130Y583240D01*
Y583260D01*
Y583290D01*
Y584790D01*
Y584820D01*
Y584840D01*
X207140Y584870D01*
Y584890D01*
X207150Y584920D01*
Y584940D01*
X207160Y584970D01*
X207170Y584990D01*
X207180Y585020D01*
X207200Y585040D01*
X207210Y585060D01*
X207230Y585080D01*
X207240Y585100D01*
X207260Y585120D01*
X207280Y585140D01*
X207300Y585160D01*
X207320Y585180D01*
X207340Y585190D01*
X207360Y585210D01*
X207380Y585220D01*
X207400Y585240D01*
X207430Y585250D01*
X207450Y585260D01*
X207480Y585270D01*
X207500D01*
X207530Y585280D01*
X207550D01*
X207580Y585290D01*
X212680D01*
X212710Y585280D01*
D02*
G37*
G36*
X260710Y580280D02*
X260730D01*
X260760Y580270D01*
X260780D01*
X260810Y580260D01*
X260830Y580250D01*
X260860Y580240D01*
X260880Y580220D01*
X260900Y580210D01*
X260920Y580190D01*
X260940Y580180D01*
X260960Y580160D01*
X260980Y580140D01*
X261000Y580120D01*
X261020Y580100D01*
X261030Y580080D01*
X261050Y580060D01*
X261060Y580040D01*
X261080Y580020D01*
X261090Y579990D01*
X261100Y579970D01*
X261110Y579940D01*
Y579920D01*
X261120Y579890D01*
Y579870D01*
X261130Y579840D01*
Y579820D01*
Y579790D01*
Y578290D01*
Y578260D01*
Y578240D01*
X261120Y578210D01*
Y578190D01*
X261110Y578160D01*
Y578140D01*
X261100Y578110D01*
X261090Y578090D01*
X261080Y578060D01*
X261060Y578040D01*
X261050Y578020D01*
X261030Y578000D01*
X261020Y577980D01*
X261000Y577960D01*
X260980Y577940D01*
X260960Y577920D01*
X260940Y577900D01*
X260920Y577890D01*
X260900Y577870D01*
X260880Y577860D01*
X260860Y577840D01*
X260830Y577830D01*
X260810Y577820D01*
X260780Y577810D01*
X260760D01*
X260730Y577800D01*
X260710D01*
X260680Y577790D01*
X255580D01*
X255550Y577800D01*
X255530D01*
X255500Y577810D01*
X255480D01*
X255450Y577820D01*
X255430Y577830D01*
X255400Y577840D01*
X255380Y577860D01*
X255360Y577870D01*
X255340Y577890D01*
X255320Y577900D01*
X255300Y577920D01*
X255280Y577940D01*
X255260Y577960D01*
X255240Y577980D01*
X255230Y578000D01*
X255210Y578020D01*
X255200Y578040D01*
X255180Y578060D01*
X255170Y578090D01*
X255160Y578110D01*
X255150Y578140D01*
Y578160D01*
X255140Y578190D01*
Y578210D01*
X255130Y578240D01*
Y578260D01*
Y578290D01*
Y579790D01*
Y579820D01*
Y579840D01*
X255140Y579870D01*
Y579890D01*
X255150Y579920D01*
Y579940D01*
X255160Y579970D01*
X255170Y579990D01*
X255180Y580020D01*
X255200Y580040D01*
X255210Y580060D01*
X255230Y580080D01*
X255240Y580100D01*
X255260Y580120D01*
X255280Y580140D01*
X255300Y580160D01*
X255320Y580180D01*
X255340Y580190D01*
X255360Y580210D01*
X255380Y580220D01*
X255400Y580240D01*
X255430Y580250D01*
X255450Y580260D01*
X255480Y580270D01*
X255500D01*
X255530Y580280D01*
X255550D01*
X255580Y580290D01*
X260680D01*
X260710Y580280D01*
D02*
G37*
G36*
X212710D02*
X212730D01*
X212760Y580270D01*
X212780D01*
X212810Y580260D01*
X212830Y580250D01*
X212860Y580240D01*
X212880Y580220D01*
X212900Y580210D01*
X212920Y580190D01*
X212940Y580180D01*
X212960Y580160D01*
X212980Y580140D01*
X213000Y580120D01*
X213020Y580100D01*
X213030Y580080D01*
X213050Y580060D01*
X213060Y580040D01*
X213080Y580020D01*
X213090Y579990D01*
X213100Y579970D01*
X213110Y579940D01*
Y579920D01*
X213120Y579890D01*
Y579870D01*
X213130Y579840D01*
Y579820D01*
Y579790D01*
Y578290D01*
Y578260D01*
Y578240D01*
X213120Y578210D01*
Y578190D01*
X213110Y578160D01*
Y578140D01*
X213100Y578110D01*
X213090Y578090D01*
X213080Y578060D01*
X213060Y578040D01*
X213050Y578020D01*
X213030Y578000D01*
X213020Y577980D01*
X213000Y577960D01*
X212980Y577940D01*
X212960Y577920D01*
X212940Y577900D01*
X212920Y577890D01*
X212900Y577870D01*
X212880Y577860D01*
X212860Y577840D01*
X212830Y577830D01*
X212810Y577820D01*
X212780Y577810D01*
X212760D01*
X212730Y577800D01*
X212710D01*
X212680Y577790D01*
X207580D01*
X207550Y577800D01*
X207530D01*
X207500Y577810D01*
X207480D01*
X207450Y577820D01*
X207430Y577830D01*
X207400Y577840D01*
X207380Y577860D01*
X207360Y577870D01*
X207340Y577890D01*
X207320Y577900D01*
X207300Y577920D01*
X207280Y577940D01*
X207260Y577960D01*
X207240Y577980D01*
X207230Y578000D01*
X207210Y578020D01*
X207200Y578040D01*
X207180Y578060D01*
X207170Y578090D01*
X207160Y578110D01*
X207150Y578140D01*
Y578160D01*
X207140Y578190D01*
Y578210D01*
X207130Y578240D01*
Y578260D01*
Y578290D01*
Y579790D01*
Y579820D01*
Y579840D01*
X207140Y579870D01*
Y579890D01*
X207150Y579920D01*
Y579940D01*
X207160Y579970D01*
X207170Y579990D01*
X207180Y580020D01*
X207200Y580040D01*
X207210Y580060D01*
X207230Y580080D01*
X207240Y580100D01*
X207260Y580120D01*
X207280Y580140D01*
X207300Y580160D01*
X207320Y580180D01*
X207340Y580190D01*
X207360Y580210D01*
X207380Y580220D01*
X207400Y580240D01*
X207430Y580250D01*
X207450Y580260D01*
X207480Y580270D01*
X207500D01*
X207530Y580280D01*
X207550D01*
X207580Y580290D01*
X212680D01*
X212710Y580280D01*
D02*
G37*
G36*
X260710Y575280D02*
X260730D01*
X260760Y575270D01*
X260780D01*
X260810Y575260D01*
X260830Y575250D01*
X260860Y575240D01*
X260880Y575220D01*
X260900Y575210D01*
X260920Y575190D01*
X260940Y575180D01*
X260960Y575160D01*
X260980Y575140D01*
X261000Y575120D01*
X261020Y575100D01*
X261030Y575080D01*
X261050Y575060D01*
X261060Y575040D01*
X261080Y575020D01*
X261090Y574990D01*
X261100Y574970D01*
X261110Y574940D01*
Y574920D01*
X261120Y574890D01*
Y574870D01*
X261130Y574840D01*
Y574820D01*
Y574790D01*
Y573290D01*
Y573260D01*
Y573240D01*
X261120Y573210D01*
Y573190D01*
X261110Y573160D01*
Y573140D01*
X261100Y573110D01*
X261090Y573090D01*
X261080Y573060D01*
X261060Y573040D01*
X261050Y573020D01*
X261030Y573000D01*
X261020Y572980D01*
X261000Y572960D01*
X260980Y572940D01*
X260960Y572920D01*
X260940Y572900D01*
X260920Y572890D01*
X260900Y572870D01*
X260880Y572860D01*
X260860Y572840D01*
X260830Y572830D01*
X260810Y572820D01*
X260780Y572810D01*
X260760D01*
X260730Y572800D01*
X260710D01*
X260680Y572790D01*
X255580D01*
X255550Y572800D01*
X255530D01*
X255500Y572810D01*
X255480D01*
X255450Y572820D01*
X255430Y572830D01*
X255400Y572840D01*
X255380Y572860D01*
X255360Y572870D01*
X255340Y572890D01*
X255320Y572900D01*
X255300Y572920D01*
X255280Y572940D01*
X255260Y572960D01*
X255240Y572980D01*
X255230Y573000D01*
X255210Y573020D01*
X255200Y573040D01*
X255180Y573060D01*
X255170Y573090D01*
X255160Y573110D01*
X255150Y573140D01*
Y573160D01*
X255140Y573190D01*
Y573210D01*
X255130Y573240D01*
Y573260D01*
Y573290D01*
Y574790D01*
Y574820D01*
Y574840D01*
X255140Y574870D01*
Y574890D01*
X255150Y574920D01*
Y574940D01*
X255160Y574970D01*
X255170Y574990D01*
X255180Y575020D01*
X255200Y575040D01*
X255210Y575060D01*
X255230Y575080D01*
X255240Y575100D01*
X255260Y575120D01*
X255280Y575140D01*
X255300Y575160D01*
X255320Y575180D01*
X255340Y575190D01*
X255360Y575210D01*
X255380Y575220D01*
X255400Y575240D01*
X255430Y575250D01*
X255450Y575260D01*
X255480Y575270D01*
X255500D01*
X255530Y575280D01*
X255550D01*
X255580Y575290D01*
X260680D01*
X260710Y575280D01*
D02*
G37*
G36*
X212710D02*
X212730D01*
X212760Y575270D01*
X212780D01*
X212810Y575260D01*
X212830Y575250D01*
X212860Y575240D01*
X212880Y575220D01*
X212900Y575210D01*
X212920Y575190D01*
X212940Y575180D01*
X212960Y575160D01*
X212980Y575140D01*
X213000Y575120D01*
X213020Y575100D01*
X213030Y575080D01*
X213050Y575060D01*
X213060Y575040D01*
X213080Y575020D01*
X213090Y574990D01*
X213100Y574970D01*
X213110Y574940D01*
Y574920D01*
X213120Y574890D01*
Y574870D01*
X213130Y574840D01*
Y574820D01*
Y574790D01*
Y573290D01*
Y573260D01*
Y573240D01*
X213120Y573210D01*
Y573190D01*
X213110Y573160D01*
Y573140D01*
X213100Y573110D01*
X213090Y573090D01*
X213080Y573060D01*
X213060Y573040D01*
X213050Y573020D01*
X213030Y573000D01*
X213020Y572980D01*
X213000Y572960D01*
X212980Y572940D01*
X212960Y572920D01*
X212940Y572900D01*
X212920Y572890D01*
X212900Y572870D01*
X212880Y572860D01*
X212860Y572840D01*
X212830Y572830D01*
X212810Y572820D01*
X212780Y572810D01*
X212760D01*
X212730Y572800D01*
X212710D01*
X212680Y572790D01*
X207580D01*
X207550Y572800D01*
X207530D01*
X207500Y572810D01*
X207480D01*
X207450Y572820D01*
X207430Y572830D01*
X207400Y572840D01*
X207380Y572860D01*
X207360Y572870D01*
X207340Y572890D01*
X207320Y572900D01*
X207300Y572920D01*
X207280Y572940D01*
X207260Y572960D01*
X207240Y572980D01*
X207230Y573000D01*
X207210Y573020D01*
X207200Y573040D01*
X207180Y573060D01*
X207170Y573090D01*
X207160Y573110D01*
X207150Y573140D01*
Y573160D01*
X207140Y573190D01*
Y573210D01*
X207130Y573240D01*
Y573260D01*
Y573290D01*
Y574790D01*
Y574820D01*
Y574840D01*
X207140Y574870D01*
Y574890D01*
X207150Y574920D01*
Y574940D01*
X207160Y574970D01*
X207170Y574990D01*
X207180Y575020D01*
X207200Y575040D01*
X207210Y575060D01*
X207230Y575080D01*
X207240Y575100D01*
X207260Y575120D01*
X207280Y575140D01*
X207300Y575160D01*
X207320Y575180D01*
X207340Y575190D01*
X207360Y575210D01*
X207380Y575220D01*
X207400Y575240D01*
X207430Y575250D01*
X207450Y575260D01*
X207480Y575270D01*
X207500D01*
X207530Y575280D01*
X207550D01*
X207580Y575290D01*
X212680D01*
X212710Y575280D01*
D02*
G37*
G36*
X245360Y581530D02*
X245380D01*
X245410Y581520D01*
X245430D01*
X245460Y581510D01*
X245480Y581500D01*
X245510Y581490D01*
X245530Y581470D01*
X245550Y581460D01*
X245570Y581440D01*
X245590Y581430D01*
X245610Y581410D01*
X245630Y581390D01*
X245650Y581370D01*
X245670Y581350D01*
X245680Y581330D01*
X245700Y581310D01*
X245710Y581290D01*
X245730Y581270D01*
X245740Y581240D01*
X245750Y581220D01*
X245760Y581190D01*
Y581170D01*
X245770Y581140D01*
Y581120D01*
X245780Y581090D01*
Y581070D01*
Y581040D01*
Y572040D01*
Y572010D01*
Y571990D01*
X245770Y571960D01*
Y571940D01*
X245760Y571910D01*
Y571890D01*
X245750Y571860D01*
X245740Y571840D01*
X245730Y571810D01*
X245710Y571790D01*
X245700Y571770D01*
X245680Y571750D01*
X245670Y571730D01*
X245650Y571710D01*
X245630Y571690D01*
X245610Y571670D01*
X245590Y571650D01*
X245570Y571640D01*
X245550Y571620D01*
X245530Y571610D01*
X245510Y571590D01*
X245480Y571580D01*
X245460Y571570D01*
X245430Y571560D01*
X245410D01*
X245380Y571550D01*
X245360D01*
X245330Y571540D01*
X243730D01*
X243700Y571550D01*
X243680D01*
X243650Y571560D01*
X243630D01*
X243600Y571570D01*
X243580Y571580D01*
X243550Y571590D01*
X243530Y571610D01*
X243510Y571620D01*
X243490Y571640D01*
X243470Y571650D01*
X243450Y571670D01*
X243430Y571690D01*
X243410Y571710D01*
X243390Y571730D01*
X243380Y571750D01*
X243360Y571770D01*
X243350Y571790D01*
X243330Y571810D01*
X243320Y571840D01*
X243310Y571860D01*
X243300Y571890D01*
Y571910D01*
X243290Y571940D01*
Y571960D01*
X243280Y571990D01*
Y572010D01*
Y572040D01*
Y581040D01*
Y581070D01*
Y581090D01*
X243290Y581120D01*
Y581140D01*
X243300Y581170D01*
Y581190D01*
X243310Y581220D01*
X243320Y581240D01*
X243330Y581270D01*
X243350Y581290D01*
X243360Y581310D01*
X243380Y581330D01*
X243390Y581350D01*
X243410Y581370D01*
X243430Y581390D01*
X243450Y581410D01*
X243470Y581430D01*
X243490Y581440D01*
X243510Y581460D01*
X243530Y581470D01*
X243550Y581490D01*
X243580Y581500D01*
X243600Y581510D01*
X243630Y581520D01*
X243650D01*
X243680Y581530D01*
X243700D01*
X243730Y581540D01*
X245330D01*
X245360Y581530D01*
D02*
G37*
G36*
X240360D02*
X240380D01*
X240410Y581520D01*
X240430D01*
X240460Y581510D01*
X240480Y581500D01*
X240510Y581490D01*
X240530Y581470D01*
X240550Y581460D01*
X240570Y581440D01*
X240590Y581430D01*
X240610Y581410D01*
X240630Y581390D01*
X240650Y581370D01*
X240670Y581350D01*
X240680Y581330D01*
X240700Y581310D01*
X240710Y581290D01*
X240730Y581270D01*
X240740Y581240D01*
X240750Y581220D01*
X240760Y581190D01*
Y581170D01*
X240770Y581140D01*
Y581120D01*
X240780Y581090D01*
Y581070D01*
Y581040D01*
Y572040D01*
Y572010D01*
Y571990D01*
X240770Y571960D01*
Y571940D01*
X240760Y571910D01*
Y571890D01*
X240750Y571860D01*
X240740Y571840D01*
X240730Y571810D01*
X240710Y571790D01*
X240700Y571770D01*
X240680Y571750D01*
X240670Y571730D01*
X240650Y571710D01*
X240630Y571690D01*
X240610Y571670D01*
X240590Y571650D01*
X240570Y571640D01*
X240550Y571620D01*
X240530Y571610D01*
X240510Y571590D01*
X240480Y571580D01*
X240460Y571570D01*
X240430Y571560D01*
X240410D01*
X240380Y571550D01*
X240360D01*
X240330Y571540D01*
X238730D01*
X238700Y571550D01*
X238680D01*
X238650Y571560D01*
X238630D01*
X238600Y571570D01*
X238580Y571580D01*
X238550Y571590D01*
X238530Y571610D01*
X238510Y571620D01*
X238490Y571640D01*
X238470Y571650D01*
X238450Y571670D01*
X238430Y571690D01*
X238410Y571710D01*
X238390Y571730D01*
X238380Y571750D01*
X238360Y571770D01*
X238350Y571790D01*
X238330Y571810D01*
X238320Y571840D01*
X238310Y571860D01*
X238300Y571890D01*
Y571910D01*
X238290Y571940D01*
Y571960D01*
X238280Y571990D01*
Y572010D01*
Y572040D01*
Y581040D01*
Y581070D01*
Y581090D01*
X238290Y581120D01*
Y581140D01*
X238300Y581170D01*
Y581190D01*
X238310Y581220D01*
X238320Y581240D01*
X238330Y581270D01*
X238350Y581290D01*
X238360Y581310D01*
X238380Y581330D01*
X238390Y581350D01*
X238410Y581370D01*
X238430Y581390D01*
X238450Y581410D01*
X238470Y581430D01*
X238490Y581440D01*
X238510Y581460D01*
X238530Y581470D01*
X238550Y581490D01*
X238580Y581500D01*
X238600Y581510D01*
X238630Y581520D01*
X238650D01*
X238680Y581530D01*
X238700D01*
X238730Y581540D01*
X240330D01*
X240360Y581530D01*
D02*
G37*
G36*
X235360D02*
X235380D01*
X235410Y581520D01*
X235430D01*
X235460Y581510D01*
X235480Y581500D01*
X235510Y581490D01*
X235530Y581470D01*
X235550Y581460D01*
X235570Y581440D01*
X235590Y581430D01*
X235610Y581410D01*
X235630Y581390D01*
X235650Y581370D01*
X235670Y581350D01*
X235680Y581330D01*
X235700Y581310D01*
X235710Y581290D01*
X235730Y581270D01*
X235740Y581240D01*
X235750Y581220D01*
X235760Y581190D01*
Y581170D01*
X235770Y581140D01*
Y581120D01*
X235780Y581090D01*
Y581070D01*
Y581040D01*
Y572040D01*
Y572010D01*
Y571990D01*
X235770Y571960D01*
Y571940D01*
X235760Y571910D01*
Y571890D01*
X235750Y571860D01*
X235740Y571840D01*
X235730Y571810D01*
X235710Y571790D01*
X235700Y571770D01*
X235680Y571750D01*
X235670Y571730D01*
X235650Y571710D01*
X235630Y571690D01*
X235610Y571670D01*
X235590Y571650D01*
X235570Y571640D01*
X235550Y571620D01*
X235530Y571610D01*
X235510Y571590D01*
X235480Y571580D01*
X235460Y571570D01*
X235430Y571560D01*
X235410D01*
X235380Y571550D01*
X235360D01*
X235330Y571540D01*
X232930D01*
X232900Y571550D01*
X232880D01*
X232850Y571560D01*
X232830D01*
X232800Y571570D01*
X232780Y571580D01*
X232750Y571590D01*
X232730Y571610D01*
X232710Y571620D01*
X232690Y571640D01*
X232670Y571650D01*
X232650Y571670D01*
X232630Y571690D01*
X232610Y571710D01*
X232590Y571730D01*
X232580Y571750D01*
X232560Y571770D01*
X232550Y571790D01*
X232530Y571810D01*
X232520Y571840D01*
X232510Y571860D01*
X232500Y571890D01*
Y571910D01*
X232490Y571940D01*
Y571960D01*
X232480Y571990D01*
Y572010D01*
Y572040D01*
Y581040D01*
Y581070D01*
Y581090D01*
X232490Y581120D01*
Y581140D01*
X232500Y581170D01*
Y581190D01*
X232510Y581220D01*
X232520Y581240D01*
X232530Y581270D01*
X232550Y581290D01*
X232560Y581310D01*
X232580Y581330D01*
X232590Y581350D01*
X232610Y581370D01*
X232630Y581390D01*
X232650Y581410D01*
X232670Y581430D01*
X232690Y581440D01*
X232710Y581460D01*
X232730Y581470D01*
X232750Y581490D01*
X232780Y581500D01*
X232800Y581510D01*
X232830Y581520D01*
X232850D01*
X232880Y581530D01*
X232900D01*
X232930Y581540D01*
X235330D01*
X235360Y581530D01*
D02*
G37*
G36*
X229560D02*
X229580D01*
X229610Y581520D01*
X229630D01*
X229660Y581510D01*
X229680Y581500D01*
X229710Y581490D01*
X229730Y581470D01*
X229750Y581460D01*
X229770Y581440D01*
X229790Y581430D01*
X229810Y581410D01*
X229830Y581390D01*
X229850Y581370D01*
X229870Y581350D01*
X229880Y581330D01*
X229900Y581310D01*
X229910Y581290D01*
X229930Y581270D01*
X229940Y581240D01*
X229950Y581220D01*
X229960Y581190D01*
Y581170D01*
X229970Y581140D01*
Y581120D01*
X229980Y581090D01*
Y581070D01*
Y581040D01*
Y572040D01*
Y572010D01*
Y571990D01*
X229970Y571960D01*
Y571940D01*
X229960Y571910D01*
Y571890D01*
X229950Y571860D01*
X229940Y571840D01*
X229930Y571810D01*
X229910Y571790D01*
X229900Y571770D01*
X229880Y571750D01*
X229870Y571730D01*
X229850Y571710D01*
X229830Y571690D01*
X229810Y571670D01*
X229790Y571650D01*
X229770Y571640D01*
X229750Y571620D01*
X229730Y571610D01*
X229710Y571590D01*
X229680Y571580D01*
X229660Y571570D01*
X229630Y571560D01*
X229610D01*
X229580Y571550D01*
X229560D01*
X229530Y571540D01*
X227930D01*
X227900Y571550D01*
X227880D01*
X227850Y571560D01*
X227830D01*
X227800Y571570D01*
X227780Y571580D01*
X227750Y571590D01*
X227730Y571610D01*
X227710Y571620D01*
X227690Y571640D01*
X227670Y571650D01*
X227650Y571670D01*
X227630Y571690D01*
X227610Y571710D01*
X227590Y571730D01*
X227580Y571750D01*
X227560Y571770D01*
X227550Y571790D01*
X227530Y571810D01*
X227520Y571840D01*
X227510Y571860D01*
X227500Y571890D01*
Y571910D01*
X227490Y571940D01*
Y571960D01*
X227480Y571990D01*
Y572010D01*
Y572040D01*
Y581040D01*
Y581070D01*
Y581090D01*
X227490Y581120D01*
Y581140D01*
X227500Y581170D01*
Y581190D01*
X227510Y581220D01*
X227520Y581240D01*
X227530Y581270D01*
X227550Y581290D01*
X227560Y581310D01*
X227580Y581330D01*
X227590Y581350D01*
X227610Y581370D01*
X227630Y581390D01*
X227650Y581410D01*
X227670Y581430D01*
X227690Y581440D01*
X227710Y581460D01*
X227730Y581470D01*
X227750Y581490D01*
X227780Y581500D01*
X227800Y581510D01*
X227830Y581520D01*
X227850D01*
X227880Y581530D01*
X227900D01*
X227930Y581540D01*
X229530D01*
X229560Y581530D01*
D02*
G37*
G36*
X224560D02*
X224580D01*
X224610Y581520D01*
X224630D01*
X224660Y581510D01*
X224680Y581500D01*
X224710Y581490D01*
X224730Y581470D01*
X224750Y581460D01*
X224770Y581440D01*
X224790Y581430D01*
X224810Y581410D01*
X224830Y581390D01*
X224850Y581370D01*
X224870Y581350D01*
X224880Y581330D01*
X224900Y581310D01*
X224910Y581290D01*
X224930Y581270D01*
X224940Y581240D01*
X224950Y581220D01*
X224960Y581190D01*
Y581170D01*
X224970Y581140D01*
Y581120D01*
X224980Y581090D01*
Y581070D01*
Y581040D01*
Y572040D01*
Y572010D01*
Y571990D01*
X224970Y571960D01*
Y571940D01*
X224960Y571910D01*
Y571890D01*
X224950Y571860D01*
X224940Y571840D01*
X224930Y571810D01*
X224910Y571790D01*
X224900Y571770D01*
X224880Y571750D01*
X224870Y571730D01*
X224850Y571710D01*
X224830Y571690D01*
X224810Y571670D01*
X224790Y571650D01*
X224770Y571640D01*
X224750Y571620D01*
X224730Y571610D01*
X224710Y571590D01*
X224680Y571580D01*
X224660Y571570D01*
X224630Y571560D01*
X224610D01*
X224580Y571550D01*
X224560D01*
X224530Y571540D01*
X222930D01*
X222900Y571550D01*
X222880D01*
X222850Y571560D01*
X222830D01*
X222800Y571570D01*
X222780Y571580D01*
X222750Y571590D01*
X222730Y571610D01*
X222710Y571620D01*
X222690Y571640D01*
X222670Y571650D01*
X222650Y571670D01*
X222630Y571690D01*
X222610Y571710D01*
X222590Y571730D01*
X222580Y571750D01*
X222560Y571770D01*
X222550Y571790D01*
X222530Y571810D01*
X222520Y571840D01*
X222510Y571860D01*
X222500Y571890D01*
Y571910D01*
X222490Y571940D01*
Y571960D01*
X222480Y571990D01*
Y572010D01*
Y572040D01*
Y581040D01*
Y581070D01*
Y581090D01*
X222490Y581120D01*
Y581140D01*
X222500Y581170D01*
Y581190D01*
X222510Y581220D01*
X222520Y581240D01*
X222530Y581270D01*
X222550Y581290D01*
X222560Y581310D01*
X222580Y581330D01*
X222590Y581350D01*
X222610Y581370D01*
X222630Y581390D01*
X222650Y581410D01*
X222670Y581430D01*
X222690Y581440D01*
X222710Y581460D01*
X222730Y581470D01*
X222750Y581490D01*
X222780Y581500D01*
X222800Y581510D01*
X222830Y581520D01*
X222850D01*
X222880Y581530D01*
X222900D01*
X222930Y581540D01*
X224530D01*
X224560Y581530D01*
D02*
G37*
G36*
X260710Y570280D02*
X260730D01*
X260760Y570270D01*
X260780D01*
X260810Y570260D01*
X260830Y570250D01*
X260860Y570240D01*
X260880Y570220D01*
X260900Y570210D01*
X260920Y570190D01*
X260940Y570180D01*
X260960Y570160D01*
X260980Y570140D01*
X261000Y570120D01*
X261020Y570100D01*
X261030Y570080D01*
X261050Y570060D01*
X261060Y570040D01*
X261080Y570020D01*
X261090Y569990D01*
X261100Y569970D01*
X261110Y569940D01*
Y569920D01*
X261120Y569890D01*
Y569870D01*
X261130Y569840D01*
Y569820D01*
Y569790D01*
Y568290D01*
Y568260D01*
Y568240D01*
X261120Y568210D01*
Y568190D01*
X261110Y568160D01*
Y568140D01*
X261100Y568110D01*
X261090Y568090D01*
X261080Y568060D01*
X261060Y568040D01*
X261050Y568020D01*
X261030Y568000D01*
X261020Y567980D01*
X261000Y567960D01*
X260980Y567940D01*
X260960Y567920D01*
X260940Y567900D01*
X260920Y567890D01*
X260900Y567870D01*
X260880Y567860D01*
X260860Y567840D01*
X260830Y567830D01*
X260810Y567820D01*
X260780Y567810D01*
X260760D01*
X260730Y567800D01*
X260710D01*
X260680Y567790D01*
X255580D01*
X255550Y567800D01*
X255530D01*
X255500Y567810D01*
X255480D01*
X255450Y567820D01*
X255430Y567830D01*
X255400Y567840D01*
X255380Y567860D01*
X255360Y567870D01*
X255340Y567890D01*
X255320Y567900D01*
X255300Y567920D01*
X255280Y567940D01*
X255260Y567960D01*
X255240Y567980D01*
X255230Y568000D01*
X255210Y568020D01*
X255200Y568040D01*
X255180Y568060D01*
X255170Y568090D01*
X255160Y568110D01*
X255150Y568140D01*
Y568160D01*
X255140Y568190D01*
Y568210D01*
X255130Y568240D01*
Y568260D01*
Y568290D01*
Y569790D01*
Y569820D01*
Y569840D01*
X255140Y569870D01*
Y569890D01*
X255150Y569920D01*
Y569940D01*
X255160Y569970D01*
X255170Y569990D01*
X255180Y570020D01*
X255200Y570040D01*
X255210Y570060D01*
X255230Y570080D01*
X255240Y570100D01*
X255260Y570120D01*
X255280Y570140D01*
X255300Y570160D01*
X255320Y570180D01*
X255340Y570190D01*
X255360Y570210D01*
X255380Y570220D01*
X255400Y570240D01*
X255430Y570250D01*
X255450Y570260D01*
X255480Y570270D01*
X255500D01*
X255530Y570280D01*
X255550D01*
X255580Y570290D01*
X260680D01*
X260710Y570280D01*
D02*
G37*
G36*
X212710D02*
X212730D01*
X212760Y570270D01*
X212780D01*
X212810Y570260D01*
X212830Y570250D01*
X212860Y570240D01*
X212880Y570220D01*
X212900Y570210D01*
X212920Y570190D01*
X212940Y570180D01*
X212960Y570160D01*
X212980Y570140D01*
X213000Y570120D01*
X213020Y570100D01*
X213030Y570080D01*
X213050Y570060D01*
X213060Y570040D01*
X213080Y570020D01*
X213090Y569990D01*
X213100Y569970D01*
X213110Y569940D01*
Y569920D01*
X213120Y569890D01*
Y569870D01*
X213130Y569840D01*
Y569820D01*
Y569790D01*
Y568290D01*
Y568260D01*
Y568240D01*
X213120Y568210D01*
Y568190D01*
X213110Y568160D01*
Y568140D01*
X213100Y568110D01*
X213090Y568090D01*
X213080Y568060D01*
X213060Y568040D01*
X213050Y568020D01*
X213030Y568000D01*
X213020Y567980D01*
X213000Y567960D01*
X212980Y567940D01*
X212960Y567920D01*
X212940Y567900D01*
X212920Y567890D01*
X212900Y567870D01*
X212880Y567860D01*
X212860Y567840D01*
X212830Y567830D01*
X212810Y567820D01*
X212780Y567810D01*
X212760D01*
X212730Y567800D01*
X212710D01*
X212680Y567790D01*
X207580D01*
X207550Y567800D01*
X207530D01*
X207500Y567810D01*
X207480D01*
X207450Y567820D01*
X207430Y567830D01*
X207400Y567840D01*
X207380Y567860D01*
X207360Y567870D01*
X207340Y567890D01*
X207320Y567900D01*
X207300Y567920D01*
X207280Y567940D01*
X207260Y567960D01*
X207240Y567980D01*
X207230Y568000D01*
X207210Y568020D01*
X207200Y568040D01*
X207180Y568060D01*
X207170Y568090D01*
X207160Y568110D01*
X207150Y568140D01*
Y568160D01*
X207140Y568190D01*
Y568210D01*
X207130Y568240D01*
Y568260D01*
Y568290D01*
Y569790D01*
Y569820D01*
Y569840D01*
X207140Y569870D01*
Y569890D01*
X207150Y569920D01*
Y569940D01*
X207160Y569970D01*
X207170Y569990D01*
X207180Y570020D01*
X207200Y570040D01*
X207210Y570060D01*
X207230Y570080D01*
X207240Y570100D01*
X207260Y570120D01*
X207280Y570140D01*
X207300Y570160D01*
X207320Y570180D01*
X207340Y570190D01*
X207360Y570210D01*
X207380Y570220D01*
X207400Y570240D01*
X207430Y570250D01*
X207450Y570260D01*
X207480Y570270D01*
X207500D01*
X207530Y570280D01*
X207550D01*
X207580Y570290D01*
X212680D01*
X212710Y570280D01*
D02*
G37*
G36*
X255360Y566030D02*
X255380D01*
X255410Y566020D01*
X255430D01*
X255460Y566010D01*
X255480Y566000D01*
X255510Y565990D01*
X255530Y565970D01*
X255550Y565960D01*
X255570Y565940D01*
X255590Y565930D01*
X255610Y565910D01*
X255630Y565890D01*
X255650Y565870D01*
X255670Y565850D01*
X255680Y565830D01*
X255700Y565810D01*
X255710Y565790D01*
X255730Y565770D01*
X255740Y565740D01*
X255750Y565720D01*
X255760Y565690D01*
Y565670D01*
X255770Y565640D01*
Y565620D01*
X255780Y565590D01*
Y565570D01*
Y565540D01*
Y560040D01*
Y560010D01*
Y559990D01*
X255770Y559960D01*
Y559940D01*
X255760Y559910D01*
Y559890D01*
X255750Y559860D01*
X255740Y559840D01*
X255730Y559810D01*
X255710Y559790D01*
X255700Y559770D01*
X255680Y559750D01*
X255670Y559730D01*
X255650Y559710D01*
X255630Y559690D01*
X255610Y559670D01*
X255590Y559650D01*
X255570Y559640D01*
X255550Y559620D01*
X255530Y559610D01*
X255510Y559590D01*
X255480Y559580D01*
X255460Y559570D01*
X255430Y559560D01*
X255410D01*
X255380Y559550D01*
X255360D01*
X255330Y559540D01*
X253730D01*
X253700Y559550D01*
X253680D01*
X253650Y559560D01*
X253630D01*
X253600Y559570D01*
X253580Y559580D01*
X253550Y559590D01*
X253530Y559610D01*
X253510Y559620D01*
X253490Y559640D01*
X253470Y559650D01*
X253450Y559670D01*
X253430Y559690D01*
X253410Y559710D01*
X253390Y559730D01*
X253380Y559750D01*
X253360Y559770D01*
X253350Y559790D01*
X253330Y559810D01*
X253320Y559840D01*
X253310Y559860D01*
X253300Y559890D01*
Y559910D01*
X253290Y559940D01*
Y559960D01*
X253280Y559990D01*
Y560010D01*
Y560040D01*
Y565540D01*
Y565570D01*
Y565590D01*
X253290Y565620D01*
Y565640D01*
X253300Y565670D01*
Y565690D01*
X253310Y565720D01*
X253320Y565740D01*
X253330Y565770D01*
X253350Y565790D01*
X253360Y565810D01*
X253380Y565830D01*
X253390Y565850D01*
X253410Y565870D01*
X253430Y565890D01*
X253450Y565910D01*
X253470Y565930D01*
X253490Y565940D01*
X253510Y565960D01*
X253530Y565970D01*
X253550Y565990D01*
X253580Y566000D01*
X253600Y566010D01*
X253630Y566020D01*
X253650D01*
X253680Y566030D01*
X253700D01*
X253730Y566040D01*
X255330D01*
X255360Y566030D01*
D02*
G37*
G36*
X250360Y565530D02*
X250380D01*
X250410Y565520D01*
X250430D01*
X250460Y565510D01*
X250480Y565500D01*
X250510Y565490D01*
X250530Y565470D01*
X250550Y565460D01*
X250570Y565440D01*
X250590Y565430D01*
X250610Y565410D01*
X250630Y565390D01*
X250650Y565370D01*
X250670Y565350D01*
X250680Y565330D01*
X250700Y565310D01*
X250710Y565290D01*
X250730Y565270D01*
X250740Y565240D01*
X250750Y565220D01*
X250760Y565190D01*
Y565170D01*
X250770Y565140D01*
Y565120D01*
X250780Y565090D01*
Y565070D01*
Y565040D01*
Y560040D01*
Y560010D01*
Y559990D01*
X250770Y559960D01*
Y559940D01*
X250760Y559910D01*
Y559890D01*
X250750Y559860D01*
X250740Y559840D01*
X250730Y559810D01*
X250710Y559790D01*
X250700Y559770D01*
X250680Y559750D01*
X250670Y559730D01*
X250650Y559710D01*
X250630Y559690D01*
X250610Y559670D01*
X250590Y559650D01*
X250570Y559640D01*
X250550Y559620D01*
X250530Y559610D01*
X250510Y559590D01*
X250480Y559580D01*
X250460Y559570D01*
X250430Y559560D01*
X250410D01*
X250380Y559550D01*
X250360D01*
X250330Y559540D01*
X248730D01*
X248700Y559550D01*
X248680D01*
X248650Y559560D01*
X248630D01*
X248600Y559570D01*
X248580Y559580D01*
X248550Y559590D01*
X248530Y559610D01*
X248510Y559620D01*
X248490Y559640D01*
X248470Y559650D01*
X248450Y559670D01*
X248430Y559690D01*
X248410Y559710D01*
X248390Y559730D01*
X248380Y559750D01*
X248360Y559770D01*
X248350Y559790D01*
X248330Y559810D01*
X248320Y559840D01*
X248310Y559860D01*
X248300Y559890D01*
Y559910D01*
X248290Y559940D01*
Y559960D01*
X248280Y559990D01*
Y560010D01*
Y560040D01*
Y565040D01*
Y565070D01*
Y565090D01*
X248290Y565120D01*
Y565140D01*
X248300Y565170D01*
Y565190D01*
X248310Y565220D01*
X248320Y565240D01*
X248330Y565270D01*
X248350Y565290D01*
X248360Y565310D01*
X248380Y565330D01*
X248390Y565350D01*
X248410Y565370D01*
X248430Y565390D01*
X248450Y565410D01*
X248470Y565430D01*
X248490Y565440D01*
X248510Y565460D01*
X248530Y565470D01*
X248550Y565490D01*
X248580Y565500D01*
X248600Y565510D01*
X248630Y565520D01*
X248650D01*
X248680Y565530D01*
X248700D01*
X248730Y565540D01*
X250330D01*
X250360Y565530D01*
D02*
G37*
G36*
X245360Y569530D02*
X245380D01*
X245410Y569520D01*
X245430D01*
X245460Y569510D01*
X245480Y569500D01*
X245510Y569490D01*
X245530Y569470D01*
X245550Y569460D01*
X245570Y569440D01*
X245590Y569430D01*
X245610Y569410D01*
X245630Y569390D01*
X245650Y569370D01*
X245670Y569350D01*
X245680Y569330D01*
X245700Y569310D01*
X245710Y569290D01*
X245730Y569270D01*
X245740Y569240D01*
X245750Y569220D01*
X245760Y569190D01*
Y569170D01*
X245770Y569140D01*
Y569120D01*
X245780Y569090D01*
Y569070D01*
Y569040D01*
Y560040D01*
Y560010D01*
Y559990D01*
X245770Y559960D01*
Y559940D01*
X245760Y559910D01*
Y559890D01*
X245750Y559860D01*
X245740Y559840D01*
X245730Y559810D01*
X245710Y559790D01*
X245700Y559770D01*
X245680Y559750D01*
X245670Y559730D01*
X245650Y559710D01*
X245630Y559690D01*
X245610Y559670D01*
X245590Y559650D01*
X245570Y559640D01*
X245550Y559620D01*
X245530Y559610D01*
X245510Y559590D01*
X245480Y559580D01*
X245460Y559570D01*
X245430Y559560D01*
X245410D01*
X245380Y559550D01*
X245360D01*
X245330Y559540D01*
X243730D01*
X243700Y559550D01*
X243680D01*
X243650Y559560D01*
X243630D01*
X243600Y559570D01*
X243580Y559580D01*
X243550Y559590D01*
X243530Y559610D01*
X243510Y559620D01*
X243490Y559640D01*
X243470Y559650D01*
X243450Y559670D01*
X243430Y559690D01*
X243410Y559710D01*
X243390Y559730D01*
X243380Y559750D01*
X243360Y559770D01*
X243350Y559790D01*
X243330Y559810D01*
X243320Y559840D01*
X243310Y559860D01*
X243300Y559890D01*
Y559910D01*
X243290Y559940D01*
Y559960D01*
X243280Y559990D01*
Y560010D01*
Y560040D01*
Y569040D01*
Y569070D01*
Y569090D01*
X243290Y569120D01*
Y569140D01*
X243300Y569170D01*
Y569190D01*
X243310Y569220D01*
X243320Y569240D01*
X243330Y569270D01*
X243350Y569290D01*
X243360Y569310D01*
X243380Y569330D01*
X243390Y569350D01*
X243410Y569370D01*
X243430Y569390D01*
X243450Y569410D01*
X243470Y569430D01*
X243490Y569440D01*
X243510Y569460D01*
X243530Y569470D01*
X243550Y569490D01*
X243580Y569500D01*
X243600Y569510D01*
X243630Y569520D01*
X243650D01*
X243680Y569530D01*
X243700D01*
X243730Y569540D01*
X245330D01*
X245360Y569530D01*
D02*
G37*
G36*
X240360D02*
X240380D01*
X240410Y569520D01*
X240430D01*
X240460Y569510D01*
X240480Y569500D01*
X240510Y569490D01*
X240530Y569470D01*
X240550Y569460D01*
X240570Y569440D01*
X240590Y569430D01*
X240610Y569410D01*
X240630Y569390D01*
X240650Y569370D01*
X240670Y569350D01*
X240680Y569330D01*
X240700Y569310D01*
X240710Y569290D01*
X240730Y569270D01*
X240740Y569240D01*
X240750Y569220D01*
X240760Y569190D01*
Y569170D01*
X240770Y569140D01*
Y569120D01*
X240780Y569090D01*
Y569070D01*
Y569040D01*
Y560040D01*
Y560010D01*
Y559990D01*
X240770Y559960D01*
Y559940D01*
X240760Y559910D01*
Y559890D01*
X240750Y559860D01*
X240740Y559840D01*
X240730Y559810D01*
X240710Y559790D01*
X240700Y559770D01*
X240680Y559750D01*
X240670Y559730D01*
X240650Y559710D01*
X240630Y559690D01*
X240610Y559670D01*
X240590Y559650D01*
X240570Y559640D01*
X240550Y559620D01*
X240530Y559610D01*
X240510Y559590D01*
X240480Y559580D01*
X240460Y559570D01*
X240430Y559560D01*
X240410D01*
X240380Y559550D01*
X240360D01*
X240330Y559540D01*
X238730D01*
X238700Y559550D01*
X238680D01*
X238650Y559560D01*
X238630D01*
X238600Y559570D01*
X238580Y559580D01*
X238550Y559590D01*
X238530Y559610D01*
X238510Y559620D01*
X238490Y559640D01*
X238470Y559650D01*
X238450Y559670D01*
X238430Y559690D01*
X238410Y559710D01*
X238390Y559730D01*
X238380Y559750D01*
X238360Y559770D01*
X238350Y559790D01*
X238330Y559810D01*
X238320Y559840D01*
X238310Y559860D01*
X238300Y559890D01*
Y559910D01*
X238290Y559940D01*
Y559960D01*
X238280Y559990D01*
Y560010D01*
Y560040D01*
Y569040D01*
Y569070D01*
Y569090D01*
X238290Y569120D01*
Y569140D01*
X238300Y569170D01*
Y569190D01*
X238310Y569220D01*
X238320Y569240D01*
X238330Y569270D01*
X238350Y569290D01*
X238360Y569310D01*
X238380Y569330D01*
X238390Y569350D01*
X238410Y569370D01*
X238430Y569390D01*
X238450Y569410D01*
X238470Y569430D01*
X238490Y569440D01*
X238510Y569460D01*
X238530Y569470D01*
X238550Y569490D01*
X238580Y569500D01*
X238600Y569510D01*
X238630Y569520D01*
X238650D01*
X238680Y569530D01*
X238700D01*
X238730Y569540D01*
X240330D01*
X240360Y569530D01*
D02*
G37*
G36*
X234960D02*
X234980D01*
X235010Y569520D01*
X235030D01*
X235060Y569510D01*
X235080Y569500D01*
X235110Y569490D01*
X235130Y569470D01*
X235150Y569460D01*
X235170Y569440D01*
X235190Y569430D01*
X235210Y569410D01*
X235230Y569390D01*
X235250Y569370D01*
X235270Y569350D01*
X235280Y569330D01*
X235300Y569310D01*
X235310Y569290D01*
X235330Y569270D01*
X235340Y569240D01*
X235350Y569220D01*
X235360Y569190D01*
Y569170D01*
X235370Y569140D01*
Y569120D01*
X235380Y569090D01*
Y569070D01*
Y569040D01*
Y560040D01*
Y560010D01*
Y559990D01*
X235370Y559960D01*
Y559940D01*
X235360Y559910D01*
Y559890D01*
X235350Y559860D01*
X235340Y559840D01*
X235330Y559810D01*
X235310Y559790D01*
X235300Y559770D01*
X235280Y559750D01*
X235270Y559730D01*
X235250Y559710D01*
X235230Y559690D01*
X235210Y559670D01*
X235190Y559650D01*
X235170Y559640D01*
X235150Y559620D01*
X235130Y559610D01*
X235110Y559590D01*
X235080Y559580D01*
X235060Y559570D01*
X235030Y559560D01*
X235010D01*
X234980Y559550D01*
X234960D01*
X234930Y559540D01*
X233330D01*
X233300Y559550D01*
X233280D01*
X233250Y559560D01*
X233230D01*
X233200Y559570D01*
X233180Y559580D01*
X233150Y559590D01*
X233130Y559610D01*
X233110Y559620D01*
X233090Y559640D01*
X233070Y559650D01*
X233050Y559670D01*
X233030Y559690D01*
X233010Y559710D01*
X232990Y559730D01*
X232980Y559750D01*
X232960Y559770D01*
X232950Y559790D01*
X232930Y559810D01*
X232920Y559840D01*
X232910Y559860D01*
X232900Y559890D01*
Y559910D01*
X232890Y559940D01*
Y559960D01*
X232880Y559990D01*
Y560010D01*
Y560040D01*
Y569040D01*
Y569070D01*
Y569090D01*
X232890Y569120D01*
Y569140D01*
X232900Y569170D01*
Y569190D01*
X232910Y569220D01*
X232920Y569240D01*
X232930Y569270D01*
X232950Y569290D01*
X232960Y569310D01*
X232980Y569330D01*
X232990Y569350D01*
X233010Y569370D01*
X233030Y569390D01*
X233050Y569410D01*
X233070Y569430D01*
X233090Y569440D01*
X233110Y569460D01*
X233130Y569470D01*
X233150Y569490D01*
X233180Y569500D01*
X233200Y569510D01*
X233230Y569520D01*
X233250D01*
X233280Y569530D01*
X233300D01*
X233330Y569540D01*
X234930D01*
X234960Y569530D01*
D02*
G37*
G36*
X229560D02*
X229580D01*
X229610Y569520D01*
X229630D01*
X229660Y569510D01*
X229680Y569500D01*
X229710Y569490D01*
X229730Y569470D01*
X229750Y569460D01*
X229770Y569440D01*
X229790Y569430D01*
X229810Y569410D01*
X229830Y569390D01*
X229850Y569370D01*
X229870Y569350D01*
X229880Y569330D01*
X229900Y569310D01*
X229910Y569290D01*
X229930Y569270D01*
X229940Y569240D01*
X229950Y569220D01*
X229960Y569190D01*
Y569170D01*
X229970Y569140D01*
Y569120D01*
X229980Y569090D01*
Y569070D01*
Y569040D01*
Y560040D01*
Y560010D01*
Y559990D01*
X229970Y559960D01*
Y559940D01*
X229960Y559910D01*
Y559890D01*
X229950Y559860D01*
X229940Y559840D01*
X229930Y559810D01*
X229910Y559790D01*
X229900Y559770D01*
X229880Y559750D01*
X229870Y559730D01*
X229850Y559710D01*
X229830Y559690D01*
X229810Y559670D01*
X229790Y559650D01*
X229770Y559640D01*
X229750Y559620D01*
X229730Y559610D01*
X229710Y559590D01*
X229680Y559580D01*
X229660Y559570D01*
X229630Y559560D01*
X229610D01*
X229580Y559550D01*
X229560D01*
X229530Y559540D01*
X227930D01*
X227900Y559550D01*
X227880D01*
X227850Y559560D01*
X227830D01*
X227800Y559570D01*
X227780Y559580D01*
X227750Y559590D01*
X227730Y559610D01*
X227710Y559620D01*
X227690Y559640D01*
X227670Y559650D01*
X227650Y559670D01*
X227630Y559690D01*
X227610Y559710D01*
X227590Y559730D01*
X227580Y559750D01*
X227560Y559770D01*
X227550Y559790D01*
X227530Y559810D01*
X227520Y559840D01*
X227510Y559860D01*
X227500Y559890D01*
Y559910D01*
X227490Y559940D01*
Y559960D01*
X227480Y559990D01*
Y560010D01*
Y560040D01*
Y569040D01*
Y569070D01*
Y569090D01*
X227490Y569120D01*
Y569140D01*
X227500Y569170D01*
Y569190D01*
X227510Y569220D01*
X227520Y569240D01*
X227530Y569270D01*
X227550Y569290D01*
X227560Y569310D01*
X227580Y569330D01*
X227590Y569350D01*
X227610Y569370D01*
X227630Y569390D01*
X227650Y569410D01*
X227670Y569430D01*
X227690Y569440D01*
X227710Y569460D01*
X227730Y569470D01*
X227750Y569490D01*
X227780Y569500D01*
X227800Y569510D01*
X227830Y569520D01*
X227850D01*
X227880Y569530D01*
X227900D01*
X227930Y569540D01*
X229530D01*
X229560Y569530D01*
D02*
G37*
G36*
X224560D02*
X224580D01*
X224610Y569520D01*
X224630D01*
X224660Y569510D01*
X224680Y569500D01*
X224710Y569490D01*
X224730Y569470D01*
X224750Y569460D01*
X224770Y569440D01*
X224790Y569430D01*
X224810Y569410D01*
X224830Y569390D01*
X224850Y569370D01*
X224870Y569350D01*
X224880Y569330D01*
X224900Y569310D01*
X224910Y569290D01*
X224930Y569270D01*
X224940Y569240D01*
X224950Y569220D01*
X224960Y569190D01*
Y569170D01*
X224970Y569140D01*
Y569120D01*
X224980Y569090D01*
Y569070D01*
Y569040D01*
Y560040D01*
Y560010D01*
Y559990D01*
X224970Y559960D01*
Y559940D01*
X224960Y559910D01*
Y559890D01*
X224950Y559860D01*
X224940Y559840D01*
X224930Y559810D01*
X224910Y559790D01*
X224900Y559770D01*
X224880Y559750D01*
X224870Y559730D01*
X224850Y559710D01*
X224830Y559690D01*
X224810Y559670D01*
X224790Y559650D01*
X224770Y559640D01*
X224750Y559620D01*
X224730Y559610D01*
X224710Y559590D01*
X224680Y559580D01*
X224660Y559570D01*
X224630Y559560D01*
X224610D01*
X224580Y559550D01*
X224560D01*
X224530Y559540D01*
X222930D01*
X222900Y559550D01*
X222880D01*
X222850Y559560D01*
X222830D01*
X222800Y559570D01*
X222780Y559580D01*
X222750Y559590D01*
X222730Y559610D01*
X222710Y559620D01*
X222690Y559640D01*
X222670Y559650D01*
X222650Y559670D01*
X222630Y559690D01*
X222610Y559710D01*
X222590Y559730D01*
X222580Y559750D01*
X222560Y559770D01*
X222550Y559790D01*
X222530Y559810D01*
X222520Y559840D01*
X222510Y559860D01*
X222500Y559890D01*
Y559910D01*
X222490Y559940D01*
Y559960D01*
X222480Y559990D01*
Y560010D01*
Y560040D01*
Y569040D01*
Y569070D01*
Y569090D01*
X222490Y569120D01*
Y569140D01*
X222500Y569170D01*
Y569190D01*
X222510Y569220D01*
X222520Y569240D01*
X222530Y569270D01*
X222550Y569290D01*
X222560Y569310D01*
X222580Y569330D01*
X222590Y569350D01*
X222610Y569370D01*
X222630Y569390D01*
X222650Y569410D01*
X222670Y569430D01*
X222690Y569440D01*
X222710Y569460D01*
X222730Y569470D01*
X222750Y569490D01*
X222780Y569500D01*
X222800Y569510D01*
X222830Y569520D01*
X222850D01*
X222880Y569530D01*
X222900D01*
X222930Y569540D01*
X224530D01*
X224560Y569530D01*
D02*
G37*
G36*
X219560Y565530D02*
X219580D01*
X219610Y565520D01*
X219630D01*
X219660Y565510D01*
X219680Y565500D01*
X219710Y565490D01*
X219730Y565470D01*
X219750Y565460D01*
X219770Y565440D01*
X219790Y565430D01*
X219810Y565410D01*
X219830Y565390D01*
X219850Y565370D01*
X219870Y565350D01*
X219880Y565330D01*
X219900Y565310D01*
X219910Y565290D01*
X219930Y565270D01*
X219940Y565240D01*
X219950Y565220D01*
X219960Y565190D01*
Y565170D01*
X219970Y565140D01*
Y565120D01*
X219980Y565090D01*
Y565070D01*
Y565040D01*
Y560040D01*
Y560010D01*
Y559990D01*
X219970Y559960D01*
Y559940D01*
X219960Y559910D01*
Y559890D01*
X219950Y559860D01*
X219940Y559840D01*
X219930Y559810D01*
X219910Y559790D01*
X219900Y559770D01*
X219880Y559750D01*
X219870Y559730D01*
X219850Y559710D01*
X219830Y559690D01*
X219810Y559670D01*
X219790Y559650D01*
X219770Y559640D01*
X219750Y559620D01*
X219730Y559610D01*
X219710Y559590D01*
X219680Y559580D01*
X219660Y559570D01*
X219630Y559560D01*
X219610D01*
X219580Y559550D01*
X219560D01*
X219530Y559540D01*
X217930D01*
X217900Y559550D01*
X217880D01*
X217850Y559560D01*
X217830D01*
X217800Y559570D01*
X217780Y559580D01*
X217750Y559590D01*
X217730Y559610D01*
X217710Y559620D01*
X217690Y559640D01*
X217670Y559650D01*
X217650Y559670D01*
X217630Y559690D01*
X217610Y559710D01*
X217590Y559730D01*
X217580Y559750D01*
X217560Y559770D01*
X217550Y559790D01*
X217530Y559810D01*
X217520Y559840D01*
X217510Y559860D01*
X217500Y559890D01*
Y559910D01*
X217490Y559940D01*
Y559960D01*
X217480Y559990D01*
Y560010D01*
Y560040D01*
Y565040D01*
Y565070D01*
Y565090D01*
X217490Y565120D01*
Y565140D01*
X217500Y565170D01*
Y565190D01*
X217510Y565220D01*
X217520Y565240D01*
X217530Y565270D01*
X217550Y565290D01*
X217560Y565310D01*
X217580Y565330D01*
X217590Y565350D01*
X217610Y565370D01*
X217630Y565390D01*
X217650Y565410D01*
X217670Y565430D01*
X217690Y565440D01*
X217710Y565460D01*
X217730Y565470D01*
X217750Y565490D01*
X217780Y565500D01*
X217800Y565510D01*
X217830Y565520D01*
X217850D01*
X217880Y565530D01*
X217900D01*
X217930Y565540D01*
X219530D01*
X219560Y565530D01*
D02*
G37*
G36*
X214560Y566030D02*
X214580D01*
X214610Y566020D01*
X214630D01*
X214660Y566010D01*
X214680Y566000D01*
X214710Y565990D01*
X214730Y565970D01*
X214750Y565960D01*
X214770Y565940D01*
X214790Y565930D01*
X214810Y565910D01*
X214830Y565890D01*
X214850Y565870D01*
X214870Y565850D01*
X214880Y565830D01*
X214900Y565810D01*
X214910Y565790D01*
X214930Y565770D01*
X214940Y565740D01*
X214950Y565720D01*
X214960Y565690D01*
Y565670D01*
X214970Y565640D01*
Y565620D01*
X214980Y565590D01*
Y565570D01*
Y565540D01*
Y560040D01*
Y560010D01*
Y559990D01*
X214970Y559960D01*
Y559940D01*
X214960Y559910D01*
Y559890D01*
X214950Y559860D01*
X214940Y559840D01*
X214930Y559810D01*
X214910Y559790D01*
X214900Y559770D01*
X214880Y559750D01*
X214870Y559730D01*
X214850Y559710D01*
X214830Y559690D01*
X214810Y559670D01*
X214790Y559650D01*
X214770Y559640D01*
X214750Y559620D01*
X214730Y559610D01*
X214710Y559590D01*
X214680Y559580D01*
X214660Y559570D01*
X214630Y559560D01*
X214610D01*
X214580Y559550D01*
X214560D01*
X214530Y559540D01*
X212930D01*
X212900Y559550D01*
X212880D01*
X212850Y559560D01*
X212830D01*
X212800Y559570D01*
X212780Y559580D01*
X212750Y559590D01*
X212730Y559610D01*
X212710Y559620D01*
X212690Y559640D01*
X212670Y559650D01*
X212650Y559670D01*
X212630Y559690D01*
X212610Y559710D01*
X212590Y559730D01*
X212580Y559750D01*
X212560Y559770D01*
X212550Y559790D01*
X212530Y559810D01*
X212520Y559840D01*
X212510Y559860D01*
X212500Y559890D01*
Y559910D01*
X212490Y559940D01*
Y559960D01*
X212480Y559990D01*
Y560010D01*
Y560040D01*
Y565540D01*
Y565570D01*
Y565590D01*
X212490Y565620D01*
Y565640D01*
X212500Y565670D01*
Y565690D01*
X212510Y565720D01*
X212520Y565740D01*
X212530Y565770D01*
X212550Y565790D01*
X212560Y565810D01*
X212580Y565830D01*
X212590Y565850D01*
X212610Y565870D01*
X212630Y565890D01*
X212650Y565910D01*
X212670Y565930D01*
X212690Y565940D01*
X212710Y565960D01*
X212730Y565970D01*
X212750Y565990D01*
X212780Y566000D01*
X212800Y566010D01*
X212830Y566020D01*
X212850D01*
X212880Y566030D01*
X212900D01*
X212930Y566040D01*
X214530D01*
X214560Y566030D01*
D02*
G37*
G36*
X370858Y293352D02*
X361660D01*
Y302550D01*
X370858D01*
Y293352D01*
D02*
G37*
G36*
X382562Y293348D02*
X373362D01*
Y302552D01*
X382562D01*
Y293348D01*
D02*
G37*
G36*
X382566Y281644D02*
X373360D01*
Y290850D01*
X382566D01*
Y281644D01*
D02*
G37*
G36*
X370869Y281641D02*
X361648D01*
Y290839D01*
X370869D01*
Y281641D01*
D02*
G37*
G36*
X494520Y247130D02*
X460520D01*
Y274230D01*
X494520D01*
Y247130D01*
D02*
G37*
G36*
X358350Y194020D02*
X358370D01*
X358400Y194010D01*
X358420D01*
X358450Y194000D01*
X358470Y193990D01*
X358500Y193980D01*
X358520Y193960D01*
X358540Y193950D01*
X358560Y193930D01*
X358580Y193920D01*
X358600Y193900D01*
X358620Y193880D01*
X358640Y193860D01*
X358660Y193840D01*
X358670Y193820D01*
X358690Y193800D01*
X358700Y193780D01*
X358720Y193760D01*
X358730Y193730D01*
X358740Y193710D01*
X358750Y193680D01*
Y193660D01*
X358760Y193630D01*
Y193610D01*
X358770Y193580D01*
Y190280D01*
X362070D01*
X362100Y190270D01*
X362120D01*
X362150Y190260D01*
X362170D01*
X362200Y190250D01*
X362220Y190240D01*
X362250Y190230D01*
X362270Y190210D01*
X362290Y190200D01*
X362310Y190180D01*
X362330Y190170D01*
X362350Y190150D01*
X362370Y190130D01*
X362390Y190110D01*
X362410Y190090D01*
X362420Y190070D01*
X362440Y190050D01*
X362450Y190030D01*
X362470Y190010D01*
X362480Y189980D01*
X362490Y189960D01*
X362500Y189930D01*
Y189910D01*
X362510Y189880D01*
Y189860D01*
X362520Y189830D01*
Y188480D01*
X362510Y188450D01*
Y188430D01*
X362500Y188400D01*
Y188380D01*
X362490Y188350D01*
X362480Y188330D01*
X362470Y188300D01*
X362450Y188280D01*
X362440Y188260D01*
X362420Y188240D01*
X362410Y188220D01*
X362390Y188200D01*
X362370Y188180D01*
X362350Y188160D01*
X362330Y188140D01*
X362310Y188130D01*
X362290Y188110D01*
X362270Y188100D01*
X362250Y188080D01*
X362220Y188070D01*
X362200Y188060D01*
X362170Y188050D01*
X362150D01*
X362120Y188040D01*
X362100D01*
X362070Y188030D01*
X356470D01*
X356440Y188040D01*
X356420D01*
X356390Y188050D01*
X356370D01*
X356340Y188060D01*
X356320Y188070D01*
X356290Y188080D01*
X356270Y188100D01*
X356250Y188110D01*
X356230Y188130D01*
X356210Y188140D01*
X356190Y188160D01*
X356170Y188180D01*
X356150Y188200D01*
X356130Y188220D01*
X356120Y188240D01*
X356100Y188260D01*
X356090Y188280D01*
X356070Y188300D01*
X356060Y188330D01*
X356050Y188350D01*
X356040Y188380D01*
Y188400D01*
X356030Y188430D01*
Y188450D01*
X356020Y188480D01*
Y193580D01*
X356030Y193610D01*
Y193630D01*
X356040Y193660D01*
Y193680D01*
X356050Y193710D01*
X356060Y193730D01*
X356070Y193760D01*
X356090Y193780D01*
X356100Y193800D01*
X356120Y193820D01*
X356130Y193840D01*
X356150Y193860D01*
X356170Y193880D01*
X356190Y193900D01*
X356210Y193920D01*
X356230Y193930D01*
X356250Y193950D01*
X356270Y193960D01*
X356290Y193980D01*
X356320Y193990D01*
X356340Y194000D01*
X356370Y194010D01*
X356390D01*
X356420Y194020D01*
X356440D01*
X356470Y194030D01*
X358320D01*
X358350Y194020D01*
D02*
G37*
G36*
X344600D02*
X344620D01*
X344650Y194010D01*
X344670D01*
X344700Y194000D01*
X344720Y193990D01*
X344750Y193980D01*
X344770Y193960D01*
X344790Y193950D01*
X344810Y193930D01*
X344830Y193920D01*
X344850Y193900D01*
X344870Y193880D01*
X344890Y193860D01*
X344910Y193840D01*
X344920Y193820D01*
X344940Y193800D01*
X344950Y193780D01*
X344970Y193760D01*
X344980Y193730D01*
X344990Y193710D01*
X345000Y193680D01*
Y193660D01*
X345010Y193630D01*
Y193610D01*
X345020Y193580D01*
Y188480D01*
X345010Y188450D01*
Y188430D01*
X345000Y188400D01*
Y188380D01*
X344990Y188350D01*
X344980Y188330D01*
X344970Y188300D01*
X344950Y188280D01*
X344940Y188260D01*
X344920Y188240D01*
X344910Y188220D01*
X344890Y188200D01*
X344870Y188180D01*
X344850Y188160D01*
X344830Y188140D01*
X344810Y188130D01*
X344790Y188110D01*
X344770Y188100D01*
X344750Y188080D01*
X344720Y188070D01*
X344700Y188060D01*
X344670Y188050D01*
X344650D01*
X344620Y188040D01*
X344600D01*
X344570Y188030D01*
X338970D01*
X338940Y188040D01*
X338920D01*
X338890Y188050D01*
X338870D01*
X338840Y188060D01*
X338820Y188070D01*
X338790Y188080D01*
X338770Y188100D01*
X338750Y188110D01*
X338730Y188130D01*
X338710Y188140D01*
X338690Y188160D01*
X338670Y188180D01*
X338650Y188200D01*
X338630Y188220D01*
X338620Y188240D01*
X338600Y188260D01*
X338590Y188280D01*
X338570Y188300D01*
X338560Y188330D01*
X338550Y188350D01*
X338540Y188380D01*
Y188400D01*
X338530Y188430D01*
Y188450D01*
X338520Y188480D01*
Y189830D01*
X338530Y189860D01*
Y189880D01*
X338540Y189910D01*
Y189930D01*
X338550Y189960D01*
X338560Y189980D01*
X338570Y190010D01*
X338590Y190030D01*
X338600Y190050D01*
X338620Y190070D01*
X338630Y190090D01*
X338650Y190110D01*
X338670Y190130D01*
X338690Y190150D01*
X338710Y190170D01*
X338730Y190180D01*
X338750Y190200D01*
X338770Y190210D01*
X338790Y190230D01*
X338820Y190240D01*
X338840Y190250D01*
X338870Y190260D01*
X338890D01*
X338920Y190270D01*
X338940D01*
X338970Y190280D01*
X342270D01*
Y193580D01*
X342280Y193610D01*
Y193630D01*
X342290Y193660D01*
Y193680D01*
X342300Y193710D01*
X342310Y193730D01*
X342320Y193760D01*
X342340Y193780D01*
X342350Y193800D01*
X342370Y193820D01*
X342380Y193840D01*
X342400Y193860D01*
X342420Y193880D01*
X342440Y193900D01*
X342460Y193920D01*
X342480Y193930D01*
X342500Y193950D01*
X342520Y193960D01*
X342540Y193980D01*
X342570Y193990D01*
X342590Y194000D01*
X342620Y194010D01*
X342640D01*
X342670Y194020D01*
X342690D01*
X342720Y194030D01*
X344570D01*
X344600Y194020D01*
D02*
G37*
G36*
X361700Y185920D02*
X361720D01*
X361750Y185910D01*
X361770D01*
X361800Y185900D01*
X361820Y185890D01*
X361850Y185880D01*
X361870Y185860D01*
X361890Y185850D01*
X361910Y185830D01*
X361930Y185820D01*
X361950Y185800D01*
X361970Y185780D01*
X361990Y185760D01*
X362010Y185740D01*
X362020Y185720D01*
X362040Y185700D01*
X362050Y185680D01*
X362070Y185660D01*
X362080Y185630D01*
X362090Y185610D01*
X362100Y185580D01*
Y185560D01*
X362110Y185530D01*
Y185510D01*
X362120Y185480D01*
Y183580D01*
X362110Y183550D01*
Y183530D01*
X362100Y183500D01*
Y183480D01*
X362090Y183450D01*
X362080Y183430D01*
X362070Y183400D01*
X362050Y183380D01*
X362040Y183360D01*
X362020Y183340D01*
X362010Y183320D01*
X361990Y183300D01*
X361970Y183280D01*
X361950Y183260D01*
X361930Y183240D01*
X361910Y183230D01*
X361890Y183210D01*
X361870Y183200D01*
X361850Y183180D01*
X361820Y183170D01*
X361800Y183160D01*
X361770Y183150D01*
X361750D01*
X361720Y183140D01*
X361700D01*
X361670Y183130D01*
X351970D01*
X351940Y183140D01*
X351920D01*
X351890Y183150D01*
X351870D01*
X351840Y183160D01*
X351820Y183170D01*
X351790Y183180D01*
X351770Y183200D01*
X351750Y183210D01*
X351730Y183230D01*
X351710Y183240D01*
X351690Y183260D01*
X351670Y183280D01*
X351650Y183300D01*
X351630Y183320D01*
X351620Y183340D01*
X351600Y183360D01*
X351590Y183380D01*
X351570Y183400D01*
X351560Y183430D01*
X351550Y183450D01*
X351540Y183480D01*
Y183500D01*
X351530Y183530D01*
Y183550D01*
X351520Y183580D01*
Y185480D01*
X351530Y185510D01*
Y185530D01*
X351540Y185560D01*
Y185580D01*
X351550Y185610D01*
X351560Y185630D01*
X351570Y185660D01*
X351590Y185680D01*
X351600Y185700D01*
X351620Y185720D01*
X351630Y185740D01*
X351650Y185760D01*
X351670Y185780D01*
X351690Y185800D01*
X351710Y185820D01*
X351730Y185830D01*
X351750Y185850D01*
X351770Y185860D01*
X351790Y185880D01*
X351820Y185890D01*
X351840Y185900D01*
X351870Y185910D01*
X351890D01*
X351920Y185920D01*
X351940D01*
X351970Y185930D01*
X361670D01*
X361700Y185920D01*
D02*
G37*
G36*
X349100D02*
X349120D01*
X349150Y185910D01*
X349170D01*
X349200Y185900D01*
X349220Y185890D01*
X349250Y185880D01*
X349270Y185860D01*
X349290Y185850D01*
X349310Y185830D01*
X349330Y185820D01*
X349350Y185800D01*
X349370Y185780D01*
X349390Y185760D01*
X349410Y185740D01*
X349420Y185720D01*
X349440Y185700D01*
X349450Y185680D01*
X349470Y185660D01*
X349480Y185630D01*
X349490Y185610D01*
X349500Y185580D01*
Y185560D01*
X349510Y185530D01*
Y185510D01*
X349520Y185480D01*
Y183580D01*
X349510Y183550D01*
Y183530D01*
X349500Y183500D01*
Y183480D01*
X349490Y183450D01*
X349480Y183430D01*
X349470Y183400D01*
X349450Y183380D01*
X349440Y183360D01*
X349420Y183340D01*
X349410Y183320D01*
X349390Y183300D01*
X349370Y183280D01*
X349350Y183260D01*
X349330Y183240D01*
X349310Y183230D01*
X349290Y183210D01*
X349270Y183200D01*
X349250Y183180D01*
X349220Y183170D01*
X349200Y183160D01*
X349170Y183150D01*
X349150D01*
X349120Y183140D01*
X349100D01*
X349070Y183130D01*
X339370D01*
X339340Y183140D01*
X339320D01*
X339290Y183150D01*
X339270D01*
X339240Y183160D01*
X339220Y183170D01*
X339190Y183180D01*
X339170Y183200D01*
X339150Y183210D01*
X339130Y183230D01*
X339110Y183240D01*
X339090Y183260D01*
X339070Y183280D01*
X339050Y183300D01*
X339030Y183320D01*
X339020Y183340D01*
X339000Y183360D01*
X338990Y183380D01*
X338970Y183400D01*
X338960Y183430D01*
X338950Y183450D01*
X338940Y183480D01*
Y183500D01*
X338930Y183530D01*
Y183550D01*
X338920Y183580D01*
Y185480D01*
X338930Y185510D01*
Y185530D01*
X338940Y185560D01*
Y185580D01*
X338950Y185610D01*
X338960Y185630D01*
X338970Y185660D01*
X338990Y185680D01*
X339000Y185700D01*
X339020Y185720D01*
X339030Y185740D01*
X339050Y185760D01*
X339070Y185780D01*
X339090Y185800D01*
X339110Y185820D01*
X339130Y185830D01*
X339150Y185850D01*
X339170Y185860D01*
X339190Y185880D01*
X339220Y185890D01*
X339240Y185900D01*
X339270Y185910D01*
X339290D01*
X339320Y185920D01*
X339340D01*
X339370Y185930D01*
X349070D01*
X349100Y185920D01*
D02*
G37*
G36*
X361700Y180920D02*
X361720D01*
X361750Y180910D01*
X361770D01*
X361800Y180900D01*
X361820Y180890D01*
X361850Y180880D01*
X361870Y180860D01*
X361890Y180850D01*
X361910Y180830D01*
X361930Y180820D01*
X361950Y180800D01*
X361970Y180780D01*
X361990Y180760D01*
X362010Y180740D01*
X362020Y180720D01*
X362040Y180700D01*
X362050Y180680D01*
X362070Y180660D01*
X362080Y180630D01*
X362090Y180610D01*
X362100Y180580D01*
Y180560D01*
X362110Y180530D01*
Y180510D01*
X362120Y180480D01*
Y178580D01*
X362110Y178550D01*
Y178530D01*
X362100Y178500D01*
Y178480D01*
X362090Y178450D01*
X362080Y178430D01*
X362070Y178400D01*
X362050Y178380D01*
X362040Y178360D01*
X362020Y178340D01*
X362010Y178320D01*
X361990Y178300D01*
X361970Y178280D01*
X361950Y178260D01*
X361930Y178240D01*
X361910Y178230D01*
X361890Y178210D01*
X361870Y178200D01*
X361850Y178180D01*
X361820Y178170D01*
X361800Y178160D01*
X361770Y178150D01*
X361750D01*
X361720Y178140D01*
X361700D01*
X361670Y178130D01*
X351970D01*
X351940Y178140D01*
X351920D01*
X351890Y178150D01*
X351870D01*
X351840Y178160D01*
X351820Y178170D01*
X351790Y178180D01*
X351770Y178200D01*
X351750Y178210D01*
X351730Y178230D01*
X351710Y178240D01*
X351690Y178260D01*
X351670Y178280D01*
X351650Y178300D01*
X351630Y178320D01*
X351620Y178340D01*
X351600Y178360D01*
X351590Y178380D01*
X351570Y178400D01*
X351560Y178430D01*
X351550Y178450D01*
X351540Y178480D01*
Y178500D01*
X351530Y178530D01*
Y178550D01*
X351520Y178580D01*
Y180480D01*
X351530Y180510D01*
Y180530D01*
X351540Y180560D01*
Y180580D01*
X351550Y180610D01*
X351560Y180630D01*
X351570Y180660D01*
X351590Y180680D01*
X351600Y180700D01*
X351620Y180720D01*
X351630Y180740D01*
X351650Y180760D01*
X351670Y180780D01*
X351690Y180800D01*
X351710Y180820D01*
X351730Y180830D01*
X351750Y180850D01*
X351770Y180860D01*
X351790Y180880D01*
X351820Y180890D01*
X351840Y180900D01*
X351870Y180910D01*
X351890D01*
X351920Y180920D01*
X351940D01*
X351970Y180930D01*
X361670D01*
X361700Y180920D01*
D02*
G37*
G36*
X349100D02*
X349120D01*
X349150Y180910D01*
X349170D01*
X349200Y180900D01*
X349220Y180890D01*
X349250Y180880D01*
X349270Y180860D01*
X349290Y180850D01*
X349310Y180830D01*
X349330Y180820D01*
X349350Y180800D01*
X349370Y180780D01*
X349390Y180760D01*
X349410Y180740D01*
X349420Y180720D01*
X349440Y180700D01*
X349450Y180680D01*
X349470Y180660D01*
X349480Y180630D01*
X349490Y180610D01*
X349500Y180580D01*
Y180560D01*
X349510Y180530D01*
Y180510D01*
X349520Y180480D01*
Y178580D01*
X349510Y178550D01*
Y178530D01*
X349500Y178500D01*
Y178480D01*
X349490Y178450D01*
X349480Y178430D01*
X349470Y178400D01*
X349450Y178380D01*
X349440Y178360D01*
X349420Y178340D01*
X349410Y178320D01*
X349390Y178300D01*
X349370Y178280D01*
X349350Y178260D01*
X349330Y178240D01*
X349310Y178230D01*
X349290Y178210D01*
X349270Y178200D01*
X349250Y178180D01*
X349220Y178170D01*
X349200Y178160D01*
X349170Y178150D01*
X349150D01*
X349120Y178140D01*
X349100D01*
X349070Y178130D01*
X339370D01*
X339340Y178140D01*
X339320D01*
X339290Y178150D01*
X339270D01*
X339240Y178160D01*
X339220Y178170D01*
X339190Y178180D01*
X339170Y178200D01*
X339150Y178210D01*
X339130Y178230D01*
X339110Y178240D01*
X339090Y178260D01*
X339070Y178280D01*
X339050Y178300D01*
X339030Y178320D01*
X339020Y178340D01*
X339000Y178360D01*
X338990Y178380D01*
X338970Y178400D01*
X338960Y178430D01*
X338950Y178450D01*
X338940Y178480D01*
Y178500D01*
X338930Y178530D01*
Y178550D01*
X338920Y178580D01*
Y180480D01*
X338930Y180510D01*
Y180530D01*
X338940Y180560D01*
Y180580D01*
X338950Y180610D01*
X338960Y180630D01*
X338970Y180660D01*
X338990Y180680D01*
X339000Y180700D01*
X339020Y180720D01*
X339030Y180740D01*
X339050Y180760D01*
X339070Y180780D01*
X339090Y180800D01*
X339110Y180820D01*
X339130Y180830D01*
X339150Y180850D01*
X339170Y180860D01*
X339190Y180880D01*
X339220Y180890D01*
X339240Y180900D01*
X339270Y180910D01*
X339290D01*
X339320Y180920D01*
X339340D01*
X339370Y180930D01*
X349070D01*
X349100Y180920D01*
D02*
G37*
G36*
X362100Y176020D02*
X362120D01*
X362150Y176010D01*
X362170D01*
X362200Y176000D01*
X362220Y175990D01*
X362250Y175980D01*
X362270Y175960D01*
X362290Y175950D01*
X362310Y175930D01*
X362330Y175920D01*
X362350Y175900D01*
X362370Y175880D01*
X362390Y175860D01*
X362410Y175840D01*
X362420Y175820D01*
X362440Y175800D01*
X362450Y175780D01*
X362470Y175760D01*
X362480Y175730D01*
X362490Y175710D01*
X362500Y175680D01*
Y175660D01*
X362510Y175630D01*
Y175610D01*
X362520Y175580D01*
Y174230D01*
X362510Y174200D01*
Y174180D01*
X362500Y174150D01*
Y174130D01*
X362490Y174100D01*
X362480Y174080D01*
X362470Y174050D01*
X362450Y174030D01*
X362440Y174010D01*
X362420Y173990D01*
X362410Y173970D01*
X362390Y173950D01*
X362370Y173930D01*
X362350Y173910D01*
X362330Y173890D01*
X362310Y173880D01*
X362290Y173860D01*
X362270Y173850D01*
X362250Y173830D01*
X362220Y173820D01*
X362200Y173810D01*
X362170Y173800D01*
X362150D01*
X362120Y173790D01*
X362100D01*
X362070Y173780D01*
X358770D01*
Y170480D01*
X358760Y170450D01*
Y170430D01*
X358750Y170400D01*
Y170380D01*
X358740Y170350D01*
X358730Y170330D01*
X358720Y170300D01*
X358700Y170280D01*
X358690Y170260D01*
X358670Y170240D01*
X358660Y170220D01*
X358640Y170200D01*
X358620Y170180D01*
X358600Y170160D01*
X358580Y170140D01*
X358560Y170130D01*
X358540Y170110D01*
X358520Y170100D01*
X358500Y170080D01*
X358470Y170070D01*
X358450Y170060D01*
X358420Y170050D01*
X358400D01*
X358370Y170040D01*
X358350D01*
X358320Y170030D01*
X356470D01*
X356440Y170040D01*
X356420D01*
X356390Y170050D01*
X356370D01*
X356340Y170060D01*
X356320Y170070D01*
X356290Y170080D01*
X356270Y170100D01*
X356250Y170110D01*
X356230Y170130D01*
X356210Y170140D01*
X356190Y170160D01*
X356170Y170180D01*
X356150Y170200D01*
X356130Y170220D01*
X356120Y170240D01*
X356100Y170260D01*
X356090Y170280D01*
X356070Y170300D01*
X356060Y170330D01*
X356050Y170350D01*
X356040Y170380D01*
Y170400D01*
X356030Y170430D01*
Y170450D01*
X356020Y170480D01*
Y175580D01*
X356030Y175610D01*
Y175630D01*
X356040Y175660D01*
Y175680D01*
X356050Y175710D01*
X356060Y175730D01*
X356070Y175760D01*
X356090Y175780D01*
X356100Y175800D01*
X356120Y175820D01*
X356130Y175840D01*
X356150Y175860D01*
X356170Y175880D01*
X356190Y175900D01*
X356210Y175920D01*
X356230Y175930D01*
X356250Y175950D01*
X356270Y175960D01*
X356290Y175980D01*
X356320Y175990D01*
X356340Y176000D01*
X356370Y176010D01*
X356390D01*
X356420Y176020D01*
X356440D01*
X356470Y176030D01*
X362070D01*
X362100Y176020D01*
D02*
G37*
G36*
X344600D02*
X344620D01*
X344650Y176010D01*
X344670D01*
X344700Y176000D01*
X344720Y175990D01*
X344750Y175980D01*
X344770Y175960D01*
X344790Y175950D01*
X344810Y175930D01*
X344830Y175920D01*
X344850Y175900D01*
X344870Y175880D01*
X344890Y175860D01*
X344910Y175840D01*
X344920Y175820D01*
X344940Y175800D01*
X344950Y175780D01*
X344970Y175760D01*
X344980Y175730D01*
X344990Y175710D01*
X345000Y175680D01*
Y175660D01*
X345010Y175630D01*
Y175610D01*
X345020Y175580D01*
Y170480D01*
X345010Y170450D01*
Y170430D01*
X345000Y170400D01*
Y170380D01*
X344990Y170350D01*
X344980Y170330D01*
X344970Y170300D01*
X344950Y170280D01*
X344940Y170260D01*
X344920Y170240D01*
X344910Y170220D01*
X344890Y170200D01*
X344870Y170180D01*
X344850Y170160D01*
X344830Y170140D01*
X344810Y170130D01*
X344790Y170110D01*
X344770Y170100D01*
X344750Y170080D01*
X344720Y170070D01*
X344700Y170060D01*
X344670Y170050D01*
X344650D01*
X344620Y170040D01*
X344600D01*
X344570Y170030D01*
X342720D01*
X342690Y170040D01*
X342670D01*
X342640Y170050D01*
X342620D01*
X342590Y170060D01*
X342570Y170070D01*
X342540Y170080D01*
X342520Y170100D01*
X342500Y170110D01*
X342480Y170130D01*
X342460Y170140D01*
X342440Y170160D01*
X342420Y170180D01*
X342400Y170200D01*
X342380Y170220D01*
X342370Y170240D01*
X342350Y170260D01*
X342340Y170280D01*
X342320Y170300D01*
X342310Y170330D01*
X342300Y170350D01*
X342290Y170380D01*
Y170400D01*
X342280Y170430D01*
Y170450D01*
X342270Y170480D01*
Y173780D01*
X338970D01*
X338940Y173790D01*
X338920D01*
X338890Y173800D01*
X338870D01*
X338840Y173810D01*
X338820Y173820D01*
X338790Y173830D01*
X338770Y173850D01*
X338750Y173860D01*
X338730Y173880D01*
X338710Y173890D01*
X338690Y173910D01*
X338670Y173930D01*
X338650Y173950D01*
X338630Y173970D01*
X338620Y173990D01*
X338600Y174010D01*
X338590Y174030D01*
X338570Y174050D01*
X338560Y174080D01*
X338550Y174100D01*
X338540Y174130D01*
Y174150D01*
X338530Y174180D01*
Y174200D01*
X338520Y174230D01*
Y175580D01*
X338530Y175610D01*
Y175630D01*
X338540Y175660D01*
Y175680D01*
X338550Y175710D01*
X338560Y175730D01*
X338570Y175760D01*
X338590Y175780D01*
X338600Y175800D01*
X338620Y175820D01*
X338630Y175840D01*
X338650Y175860D01*
X338670Y175880D01*
X338690Y175900D01*
X338710Y175920D01*
X338730Y175930D01*
X338750Y175950D01*
X338770Y175960D01*
X338790Y175980D01*
X338820Y175990D01*
X338840Y176000D01*
X338870Y176010D01*
X338890D01*
X338920Y176020D01*
X338940D01*
X338970Y176030D01*
X344570D01*
X344600Y176020D01*
D02*
G37*
G36*
X546310Y163080D02*
X546330D01*
X546360Y163070D01*
X546380D01*
X546410Y163060D01*
X546430Y163050D01*
X546460Y163040D01*
X546480Y163020D01*
X546500Y163010D01*
X546520Y162990D01*
X546540Y162980D01*
X546560Y162960D01*
X546580Y162940D01*
X546600Y162920D01*
X546620Y162900D01*
X546630Y162880D01*
X546650Y162860D01*
X546660Y162840D01*
X546680Y162820D01*
X546690Y162790D01*
X546700Y162770D01*
X546710Y162740D01*
Y162720D01*
X546720Y162690D01*
Y162670D01*
X546730Y162640D01*
Y159340D01*
X550030D01*
X550060Y159330D01*
X550080D01*
X550110Y159320D01*
X550130D01*
X550160Y159310D01*
X550180Y159300D01*
X550210Y159290D01*
X550230Y159270D01*
X550250Y159260D01*
X550270Y159240D01*
X550290Y159230D01*
X550310Y159210D01*
X550330Y159190D01*
X550350Y159170D01*
X550370Y159150D01*
X550380Y159130D01*
X550400Y159110D01*
X550410Y159090D01*
X550430Y159070D01*
X550440Y159040D01*
X550450Y159020D01*
X550460Y158990D01*
Y158970D01*
X550470Y158940D01*
Y158920D01*
X550480Y158890D01*
Y157540D01*
X550470Y157510D01*
Y157490D01*
X550460Y157460D01*
Y157440D01*
X550450Y157410D01*
X550440Y157390D01*
X550430Y157360D01*
X550410Y157340D01*
X550400Y157320D01*
X550380Y157300D01*
X550370Y157280D01*
X550350Y157260D01*
X550330Y157240D01*
X550310Y157220D01*
X550290Y157200D01*
X550270Y157190D01*
X550250Y157170D01*
X550230Y157160D01*
X550210Y157140D01*
X550180Y157130D01*
X550160Y157120D01*
X550130Y157110D01*
X550110D01*
X550080Y157100D01*
X550060D01*
X550030Y157090D01*
X544430D01*
X544400Y157100D01*
X544380D01*
X544350Y157110D01*
X544330D01*
X544300Y157120D01*
X544280Y157130D01*
X544250Y157140D01*
X544230Y157160D01*
X544210Y157170D01*
X544190Y157190D01*
X544170Y157200D01*
X544150Y157220D01*
X544130Y157240D01*
X544110Y157260D01*
X544090Y157280D01*
X544080Y157300D01*
X544060Y157320D01*
X544050Y157340D01*
X544030Y157360D01*
X544020Y157390D01*
X544010Y157410D01*
X544000Y157440D01*
Y157460D01*
X543990Y157490D01*
Y157510D01*
X543980Y157540D01*
Y162640D01*
X543990Y162670D01*
Y162690D01*
X544000Y162720D01*
Y162740D01*
X544010Y162770D01*
X544020Y162790D01*
X544030Y162820D01*
X544050Y162840D01*
X544060Y162860D01*
X544080Y162880D01*
X544090Y162900D01*
X544110Y162920D01*
X544130Y162940D01*
X544150Y162960D01*
X544170Y162980D01*
X544190Y162990D01*
X544210Y163010D01*
X544230Y163020D01*
X544250Y163040D01*
X544280Y163050D01*
X544300Y163060D01*
X544330Y163070D01*
X544350D01*
X544380Y163080D01*
X544400D01*
X544430Y163090D01*
X546280D01*
X546310Y163080D01*
D02*
G37*
G36*
X532560D02*
X532580D01*
X532610Y163070D01*
X532630D01*
X532660Y163060D01*
X532680Y163050D01*
X532710Y163040D01*
X532730Y163020D01*
X532750Y163010D01*
X532770Y162990D01*
X532790Y162980D01*
X532810Y162960D01*
X532830Y162940D01*
X532850Y162920D01*
X532870Y162900D01*
X532880Y162880D01*
X532900Y162860D01*
X532910Y162840D01*
X532930Y162820D01*
X532940Y162790D01*
X532950Y162770D01*
X532960Y162740D01*
Y162720D01*
X532970Y162690D01*
Y162670D01*
X532980Y162640D01*
Y157540D01*
X532970Y157510D01*
Y157490D01*
X532960Y157460D01*
Y157440D01*
X532950Y157410D01*
X532940Y157390D01*
X532930Y157360D01*
X532910Y157340D01*
X532900Y157320D01*
X532880Y157300D01*
X532870Y157280D01*
X532850Y157260D01*
X532830Y157240D01*
X532810Y157220D01*
X532790Y157200D01*
X532770Y157190D01*
X532750Y157170D01*
X532730Y157160D01*
X532710Y157140D01*
X532680Y157130D01*
X532660Y157120D01*
X532630Y157110D01*
X532610D01*
X532580Y157100D01*
X532560D01*
X532530Y157090D01*
X526930D01*
X526900Y157100D01*
X526880D01*
X526850Y157110D01*
X526830D01*
X526800Y157120D01*
X526780Y157130D01*
X526750Y157140D01*
X526730Y157160D01*
X526710Y157170D01*
X526690Y157190D01*
X526670Y157200D01*
X526650Y157220D01*
X526630Y157240D01*
X526610Y157260D01*
X526590Y157280D01*
X526580Y157300D01*
X526560Y157320D01*
X526550Y157340D01*
X526530Y157360D01*
X526520Y157390D01*
X526510Y157410D01*
X526500Y157440D01*
Y157460D01*
X526490Y157490D01*
Y157510D01*
X526480Y157540D01*
Y158890D01*
X526490Y158920D01*
Y158940D01*
X526500Y158970D01*
Y158990D01*
X526510Y159020D01*
X526520Y159040D01*
X526530Y159070D01*
X526550Y159090D01*
X526560Y159110D01*
X526580Y159130D01*
X526590Y159150D01*
X526610Y159170D01*
X526630Y159190D01*
X526650Y159210D01*
X526670Y159230D01*
X526690Y159240D01*
X526710Y159260D01*
X526730Y159270D01*
X526750Y159290D01*
X526780Y159300D01*
X526800Y159310D01*
X526830Y159320D01*
X526850D01*
X526880Y159330D01*
X526900D01*
X526930Y159340D01*
X530230D01*
Y162640D01*
X530240Y162670D01*
Y162690D01*
X530250Y162720D01*
Y162740D01*
X530260Y162770D01*
X530270Y162790D01*
X530280Y162820D01*
X530300Y162840D01*
X530310Y162860D01*
X530330Y162880D01*
X530340Y162900D01*
X530360Y162920D01*
X530380Y162940D01*
X530400Y162960D01*
X530420Y162980D01*
X530440Y162990D01*
X530460Y163010D01*
X530480Y163020D01*
X530500Y163040D01*
X530530Y163050D01*
X530550Y163060D01*
X530580Y163070D01*
X530600D01*
X530630Y163080D01*
X530650D01*
X530680Y163090D01*
X532530D01*
X532560Y163080D01*
D02*
G37*
G36*
X549660Y154980D02*
X549680D01*
X549710Y154970D01*
X549730D01*
X549760Y154960D01*
X549780Y154950D01*
X549810Y154940D01*
X549830Y154920D01*
X549850Y154910D01*
X549870Y154890D01*
X549890Y154880D01*
X549910Y154860D01*
X549930Y154840D01*
X549950Y154820D01*
X549970Y154800D01*
X549980Y154780D01*
X550000Y154760D01*
X550010Y154740D01*
X550030Y154720D01*
X550040Y154690D01*
X550050Y154670D01*
X550060Y154640D01*
Y154620D01*
X550070Y154590D01*
Y154570D01*
X550080Y154540D01*
Y152640D01*
X550070Y152610D01*
Y152590D01*
X550060Y152560D01*
Y152540D01*
X550050Y152510D01*
X550040Y152490D01*
X550030Y152460D01*
X550010Y152440D01*
X550000Y152420D01*
X549980Y152400D01*
X549970Y152380D01*
X549950Y152360D01*
X549930Y152340D01*
X549910Y152320D01*
X549890Y152300D01*
X549870Y152290D01*
X549850Y152270D01*
X549830Y152260D01*
X549810Y152240D01*
X549780Y152230D01*
X549760Y152220D01*
X549730Y152210D01*
X549710D01*
X549680Y152200D01*
X549660D01*
X549630Y152190D01*
X539930D01*
X539900Y152200D01*
X539880D01*
X539850Y152210D01*
X539830D01*
X539800Y152220D01*
X539780Y152230D01*
X539750Y152240D01*
X539730Y152260D01*
X539710Y152270D01*
X539690Y152290D01*
X539670Y152300D01*
X539650Y152320D01*
X539630Y152340D01*
X539610Y152360D01*
X539590Y152380D01*
X539580Y152400D01*
X539560Y152420D01*
X539550Y152440D01*
X539530Y152460D01*
X539520Y152490D01*
X539510Y152510D01*
X539500Y152540D01*
Y152560D01*
X539490Y152590D01*
Y152610D01*
X539480Y152640D01*
Y154540D01*
X539490Y154570D01*
Y154590D01*
X539500Y154620D01*
Y154640D01*
X539510Y154670D01*
X539520Y154690D01*
X539530Y154720D01*
X539550Y154740D01*
X539560Y154760D01*
X539580Y154780D01*
X539590Y154800D01*
X539610Y154820D01*
X539630Y154840D01*
X539650Y154860D01*
X539670Y154880D01*
X539690Y154890D01*
X539710Y154910D01*
X539730Y154920D01*
X539750Y154940D01*
X539780Y154950D01*
X539800Y154960D01*
X539830Y154970D01*
X539850D01*
X539880Y154980D01*
X539900D01*
X539930Y154990D01*
X549630D01*
X549660Y154980D01*
D02*
G37*
G36*
X537060D02*
X537080D01*
X537110Y154970D01*
X537130D01*
X537160Y154960D01*
X537180Y154950D01*
X537210Y154940D01*
X537230Y154920D01*
X537250Y154910D01*
X537270Y154890D01*
X537290Y154880D01*
X537310Y154860D01*
X537330Y154840D01*
X537350Y154820D01*
X537370Y154800D01*
X537380Y154780D01*
X537400Y154760D01*
X537410Y154740D01*
X537430Y154720D01*
X537440Y154690D01*
X537450Y154670D01*
X537460Y154640D01*
Y154620D01*
X537470Y154590D01*
Y154570D01*
X537480Y154540D01*
Y152640D01*
X537470Y152610D01*
Y152590D01*
X537460Y152560D01*
Y152540D01*
X537450Y152510D01*
X537440Y152490D01*
X537430Y152460D01*
X537410Y152440D01*
X537400Y152420D01*
X537380Y152400D01*
X537370Y152380D01*
X537350Y152360D01*
X537330Y152340D01*
X537310Y152320D01*
X537290Y152300D01*
X537270Y152290D01*
X537250Y152270D01*
X537230Y152260D01*
X537210Y152240D01*
X537180Y152230D01*
X537160Y152220D01*
X537130Y152210D01*
X537110D01*
X537080Y152200D01*
X537060D01*
X537030Y152190D01*
X527330D01*
X527300Y152200D01*
X527280D01*
X527250Y152210D01*
X527230D01*
X527200Y152220D01*
X527180Y152230D01*
X527150Y152240D01*
X527130Y152260D01*
X527110Y152270D01*
X527090Y152290D01*
X527070Y152300D01*
X527050Y152320D01*
X527030Y152340D01*
X527010Y152360D01*
X526990Y152380D01*
X526980Y152400D01*
X526960Y152420D01*
X526950Y152440D01*
X526930Y152460D01*
X526920Y152490D01*
X526910Y152510D01*
X526900Y152540D01*
Y152560D01*
X526890Y152590D01*
Y152610D01*
X526880Y152640D01*
Y154540D01*
X526890Y154570D01*
Y154590D01*
X526900Y154620D01*
Y154640D01*
X526910Y154670D01*
X526920Y154690D01*
X526930Y154720D01*
X526950Y154740D01*
X526960Y154760D01*
X526980Y154780D01*
X526990Y154800D01*
X527010Y154820D01*
X527030Y154840D01*
X527050Y154860D01*
X527070Y154880D01*
X527090Y154890D01*
X527110Y154910D01*
X527130Y154920D01*
X527150Y154940D01*
X527180Y154950D01*
X527200Y154960D01*
X527230Y154970D01*
X527250D01*
X527280Y154980D01*
X527300D01*
X527330Y154990D01*
X537030D01*
X537060Y154980D01*
D02*
G37*
G36*
X670470Y151910D02*
X643370D01*
Y185910D01*
X670470D01*
Y151910D01*
D02*
G37*
G36*
X549660Y149980D02*
X549680D01*
X549710Y149970D01*
X549730D01*
X549760Y149960D01*
X549780Y149950D01*
X549810Y149940D01*
X549830Y149920D01*
X549850Y149910D01*
X549870Y149890D01*
X549890Y149880D01*
X549910Y149860D01*
X549930Y149840D01*
X549950Y149820D01*
X549970Y149800D01*
X549980Y149780D01*
X550000Y149760D01*
X550010Y149740D01*
X550030Y149720D01*
X550040Y149690D01*
X550050Y149670D01*
X550060Y149640D01*
Y149620D01*
X550070Y149590D01*
Y149570D01*
X550080Y149540D01*
Y147640D01*
X550070Y147610D01*
Y147590D01*
X550060Y147560D01*
Y147540D01*
X550050Y147510D01*
X550040Y147490D01*
X550030Y147460D01*
X550010Y147440D01*
X550000Y147420D01*
X549980Y147400D01*
X549970Y147380D01*
X549950Y147360D01*
X549930Y147340D01*
X549910Y147320D01*
X549890Y147300D01*
X549870Y147290D01*
X549850Y147270D01*
X549830Y147260D01*
X549810Y147240D01*
X549780Y147230D01*
X549760Y147220D01*
X549730Y147210D01*
X549710D01*
X549680Y147200D01*
X549660D01*
X549630Y147190D01*
X539930D01*
X539900Y147200D01*
X539880D01*
X539850Y147210D01*
X539830D01*
X539800Y147220D01*
X539780Y147230D01*
X539750Y147240D01*
X539730Y147260D01*
X539710Y147270D01*
X539690Y147290D01*
X539670Y147300D01*
X539650Y147320D01*
X539630Y147340D01*
X539610Y147360D01*
X539590Y147380D01*
X539580Y147400D01*
X539560Y147420D01*
X539550Y147440D01*
X539530Y147460D01*
X539520Y147490D01*
X539510Y147510D01*
X539500Y147540D01*
Y147560D01*
X539490Y147590D01*
Y147610D01*
X539480Y147640D01*
Y149540D01*
X539490Y149570D01*
Y149590D01*
X539500Y149620D01*
Y149640D01*
X539510Y149670D01*
X539520Y149690D01*
X539530Y149720D01*
X539550Y149740D01*
X539560Y149760D01*
X539580Y149780D01*
X539590Y149800D01*
X539610Y149820D01*
X539630Y149840D01*
X539650Y149860D01*
X539670Y149880D01*
X539690Y149890D01*
X539710Y149910D01*
X539730Y149920D01*
X539750Y149940D01*
X539780Y149950D01*
X539800Y149960D01*
X539830Y149970D01*
X539850D01*
X539880Y149980D01*
X539900D01*
X539930Y149990D01*
X549630D01*
X549660Y149980D01*
D02*
G37*
G36*
X537060D02*
X537080D01*
X537110Y149970D01*
X537130D01*
X537160Y149960D01*
X537180Y149950D01*
X537210Y149940D01*
X537230Y149920D01*
X537250Y149910D01*
X537270Y149890D01*
X537290Y149880D01*
X537310Y149860D01*
X537330Y149840D01*
X537350Y149820D01*
X537370Y149800D01*
X537380Y149780D01*
X537400Y149760D01*
X537410Y149740D01*
X537430Y149720D01*
X537440Y149690D01*
X537450Y149670D01*
X537460Y149640D01*
Y149620D01*
X537470Y149590D01*
Y149570D01*
X537480Y149540D01*
Y147640D01*
X537470Y147610D01*
Y147590D01*
X537460Y147560D01*
Y147540D01*
X537450Y147510D01*
X537440Y147490D01*
X537430Y147460D01*
X537410Y147440D01*
X537400Y147420D01*
X537380Y147400D01*
X537370Y147380D01*
X537350Y147360D01*
X537330Y147340D01*
X537310Y147320D01*
X537290Y147300D01*
X537270Y147290D01*
X537250Y147270D01*
X537230Y147260D01*
X537210Y147240D01*
X537180Y147230D01*
X537160Y147220D01*
X537130Y147210D01*
X537110D01*
X537080Y147200D01*
X537060D01*
X537030Y147190D01*
X527330D01*
X527300Y147200D01*
X527280D01*
X527250Y147210D01*
X527230D01*
X527200Y147220D01*
X527180Y147230D01*
X527150Y147240D01*
X527130Y147260D01*
X527110Y147270D01*
X527090Y147290D01*
X527070Y147300D01*
X527050Y147320D01*
X527030Y147340D01*
X527010Y147360D01*
X526990Y147380D01*
X526980Y147400D01*
X526960Y147420D01*
X526950Y147440D01*
X526930Y147460D01*
X526920Y147490D01*
X526910Y147510D01*
X526900Y147540D01*
Y147560D01*
X526890Y147590D01*
Y147610D01*
X526880Y147640D01*
Y149540D01*
X526890Y149570D01*
Y149590D01*
X526900Y149620D01*
Y149640D01*
X526910Y149670D01*
X526920Y149690D01*
X526930Y149720D01*
X526950Y149740D01*
X526960Y149760D01*
X526980Y149780D01*
X526990Y149800D01*
X527010Y149820D01*
X527030Y149840D01*
X527050Y149860D01*
X527070Y149880D01*
X527090Y149890D01*
X527110Y149910D01*
X527130Y149920D01*
X527150Y149940D01*
X527180Y149950D01*
X527200Y149960D01*
X527230Y149970D01*
X527250D01*
X527280Y149980D01*
X527300D01*
X527330Y149990D01*
X537030D01*
X537060Y149980D01*
D02*
G37*
G36*
X550060Y145080D02*
X550080D01*
X550110Y145070D01*
X550130D01*
X550160Y145060D01*
X550180Y145050D01*
X550210Y145040D01*
X550230Y145020D01*
X550250Y145010D01*
X550270Y144990D01*
X550290Y144980D01*
X550310Y144960D01*
X550330Y144940D01*
X550350Y144920D01*
X550370Y144900D01*
X550380Y144880D01*
X550400Y144860D01*
X550410Y144840D01*
X550430Y144820D01*
X550440Y144790D01*
X550450Y144770D01*
X550460Y144740D01*
Y144720D01*
X550470Y144690D01*
Y144670D01*
X550480Y144640D01*
Y143290D01*
X550470Y143260D01*
Y143240D01*
X550460Y143210D01*
Y143190D01*
X550450Y143160D01*
X550440Y143140D01*
X550430Y143110D01*
X550410Y143090D01*
X550400Y143070D01*
X550380Y143050D01*
X550370Y143030D01*
X550350Y143010D01*
X550330Y142990D01*
X550310Y142970D01*
X550290Y142950D01*
X550270Y142940D01*
X550250Y142920D01*
X550230Y142910D01*
X550210Y142890D01*
X550180Y142880D01*
X550160Y142870D01*
X550130Y142860D01*
X550110D01*
X550080Y142850D01*
X550060D01*
X550030Y142840D01*
X546730D01*
Y139540D01*
X546720Y139510D01*
Y139490D01*
X546710Y139460D01*
Y139440D01*
X546700Y139410D01*
X546690Y139390D01*
X546680Y139360D01*
X546660Y139340D01*
X546650Y139320D01*
X546630Y139300D01*
X546620Y139280D01*
X546600Y139260D01*
X546580Y139240D01*
X546560Y139220D01*
X546540Y139200D01*
X546520Y139190D01*
X546500Y139170D01*
X546480Y139160D01*
X546460Y139140D01*
X546430Y139130D01*
X546410Y139120D01*
X546380Y139110D01*
X546360D01*
X546330Y139100D01*
X546310D01*
X546280Y139090D01*
X544430D01*
X544400Y139100D01*
X544380D01*
X544350Y139110D01*
X544330D01*
X544300Y139120D01*
X544280Y139130D01*
X544250Y139140D01*
X544230Y139160D01*
X544210Y139170D01*
X544190Y139190D01*
X544170Y139200D01*
X544150Y139220D01*
X544130Y139240D01*
X544110Y139260D01*
X544090Y139280D01*
X544080Y139300D01*
X544060Y139320D01*
X544050Y139340D01*
X544030Y139360D01*
X544020Y139390D01*
X544010Y139410D01*
X544000Y139440D01*
Y139460D01*
X543990Y139490D01*
Y139510D01*
X543980Y139540D01*
Y144640D01*
X543990Y144670D01*
Y144690D01*
X544000Y144720D01*
Y144740D01*
X544010Y144770D01*
X544020Y144790D01*
X544030Y144820D01*
X544050Y144840D01*
X544060Y144860D01*
X544080Y144880D01*
X544090Y144900D01*
X544110Y144920D01*
X544130Y144940D01*
X544150Y144960D01*
X544170Y144980D01*
X544190Y144990D01*
X544210Y145010D01*
X544230Y145020D01*
X544250Y145040D01*
X544280Y145050D01*
X544300Y145060D01*
X544330Y145070D01*
X544350D01*
X544380Y145080D01*
X544400D01*
X544430Y145090D01*
X550030D01*
X550060Y145080D01*
D02*
G37*
G36*
X532560D02*
X532580D01*
X532610Y145070D01*
X532630D01*
X532660Y145060D01*
X532680Y145050D01*
X532710Y145040D01*
X532730Y145020D01*
X532750Y145010D01*
X532770Y144990D01*
X532790Y144980D01*
X532810Y144960D01*
X532830Y144940D01*
X532850Y144920D01*
X532870Y144900D01*
X532880Y144880D01*
X532900Y144860D01*
X532910Y144840D01*
X532930Y144820D01*
X532940Y144790D01*
X532950Y144770D01*
X532960Y144740D01*
Y144720D01*
X532970Y144690D01*
Y144670D01*
X532980Y144640D01*
Y139540D01*
X532970Y139510D01*
Y139490D01*
X532960Y139460D01*
Y139440D01*
X532950Y139410D01*
X532940Y139390D01*
X532930Y139360D01*
X532910Y139340D01*
X532900Y139320D01*
X532880Y139300D01*
X532870Y139280D01*
X532850Y139260D01*
X532830Y139240D01*
X532810Y139220D01*
X532790Y139200D01*
X532770Y139190D01*
X532750Y139170D01*
X532730Y139160D01*
X532710Y139140D01*
X532680Y139130D01*
X532660Y139120D01*
X532630Y139110D01*
X532610D01*
X532580Y139100D01*
X532560D01*
X532530Y139090D01*
X530680D01*
X530650Y139100D01*
X530630D01*
X530600Y139110D01*
X530580D01*
X530550Y139120D01*
X530530Y139130D01*
X530500Y139140D01*
X530480Y139160D01*
X530460Y139170D01*
X530440Y139190D01*
X530420Y139200D01*
X530400Y139220D01*
X530380Y139240D01*
X530360Y139260D01*
X530340Y139280D01*
X530330Y139300D01*
X530310Y139320D01*
X530300Y139340D01*
X530280Y139360D01*
X530270Y139390D01*
X530260Y139410D01*
X530250Y139440D01*
Y139460D01*
X530240Y139490D01*
Y139510D01*
X530230Y139540D01*
Y142840D01*
X526930D01*
X526900Y142850D01*
X526880D01*
X526850Y142860D01*
X526830D01*
X526800Y142870D01*
X526780Y142880D01*
X526750Y142890D01*
X526730Y142910D01*
X526710Y142920D01*
X526690Y142940D01*
X526670Y142950D01*
X526650Y142970D01*
X526630Y142990D01*
X526610Y143010D01*
X526590Y143030D01*
X526580Y143050D01*
X526560Y143070D01*
X526550Y143090D01*
X526530Y143110D01*
X526520Y143140D01*
X526510Y143160D01*
X526500Y143190D01*
Y143210D01*
X526490Y143240D01*
Y143260D01*
X526480Y143290D01*
Y144640D01*
X526490Y144670D01*
Y144690D01*
X526500Y144720D01*
Y144740D01*
X526510Y144770D01*
X526520Y144790D01*
X526530Y144820D01*
X526550Y144840D01*
X526560Y144860D01*
X526580Y144880D01*
X526590Y144900D01*
X526610Y144920D01*
X526630Y144940D01*
X526650Y144960D01*
X526670Y144980D01*
X526690Y144990D01*
X526710Y145010D01*
X526730Y145020D01*
X526750Y145040D01*
X526780Y145050D01*
X526800Y145060D01*
X526830Y145070D01*
X526850D01*
X526880Y145080D01*
X526900D01*
X526930Y145090D01*
X532530D01*
X532560Y145080D01*
D02*
G37*
D24*
X920000Y868058D02*
G03*
X898151Y889999I-22000J-58D01*
G01*
X920000Y774959D02*
G03*
X904000Y757071I2000J-17889D01*
G01*
X714287Y874000D02*
G03*
X731782Y889996I-394J17996D01*
G01*
X904000Y147952D02*
G03*
X920000Y130112I18000J48D01*
G01*
X898000Y10000D02*
G03*
X920000Y32000I0J22000D01*
G01*
X731889Y10000D02*
G03*
X714285Y25998I-17889J-2000D01*
G01*
X198005Y889996D02*
G03*
X215608Y873998I17889J2000D01*
G01*
X31627Y889997D02*
G03*
X10000Y868000I373J-21997D01*
G01*
X215606Y25996D02*
G03*
X198111Y10000I394J-17996D01*
G01*
X10000Y32000D02*
G03*
X32000Y10000I22000J0D01*
G01*
X920000Y845297D02*
Y854297D01*
Y868058D01*
Y836297D02*
Y845297D01*
Y827297D02*
Y836297D01*
Y818297D02*
Y827297D01*
X889250Y889996D02*
X897893D01*
X920000Y791297D02*
Y800297D01*
Y809297D01*
Y782297D02*
Y791297D01*
Y809297D02*
Y818297D01*
Y774959D02*
Y782297D01*
X904000Y751978D02*
X904000Y757016D01*
X904000Y742978D02*
X904000Y751978D01*
X904000Y733978D02*
X904000Y742978D01*
X871250Y889996D02*
X880250D01*
X862250D02*
X871250D01*
X880250D02*
X889250D01*
X826250D02*
X835250D01*
X844250D01*
X808250D02*
X817250D01*
X799250D02*
X808250D01*
X817250D02*
X826250D01*
X781250D02*
X790250D01*
X799250D01*
X853250D02*
X862250D01*
X844250D02*
X853250D01*
X904000Y724978D02*
X904000Y733978D01*
X904000Y670978D02*
Y679978D01*
Y715978D02*
X904000Y724978D01*
X904000Y697978D02*
Y706978D01*
Y544979D02*
Y553979D01*
Y562979D01*
Y535979D02*
Y544979D01*
Y571979D02*
Y580979D01*
Y562979D02*
Y571979D01*
Y508979D02*
Y517979D01*
Y499979D02*
Y508979D01*
Y526979D02*
Y535979D01*
Y517979D02*
Y526979D01*
Y634978D02*
Y643978D01*
Y652978D01*
Y625979D02*
Y634978D01*
Y661978D02*
Y670978D01*
Y652978D02*
Y661978D01*
Y589979D02*
Y598979D01*
Y607979D01*
Y580979D02*
Y589979D01*
Y616978D02*
Y625979D01*
Y607979D02*
Y616978D01*
Y706978D02*
Y715978D01*
Y679978D02*
Y688978D01*
Y697978D01*
X763250Y889996D02*
X772250D01*
X754250D02*
X763250D01*
X772250D02*
X781250D01*
X731782D02*
X745250D01*
X754250D01*
X705901Y873996D02*
X713993D01*
X696901D02*
X705901D01*
X687901D02*
X696901D01*
X678901D02*
X687901D01*
X642901D02*
X651901D01*
X633901D02*
X642901D01*
X651901D02*
X660901D01*
X615901D02*
X624902D01*
X633901D01*
X597901D02*
X606902D01*
X588901D02*
X597901D01*
X606902D02*
X615901D01*
X579902D02*
X588901D01*
X669901D02*
X678901D01*
X660901D02*
X669901D01*
X904000Y463979D02*
Y472979D01*
Y274979D02*
Y283979D01*
Y292979D01*
Y265979D02*
Y274979D01*
Y292979D02*
Y301979D01*
Y229979D02*
Y238979D01*
Y220979D02*
Y229979D01*
Y256979D02*
Y265979D01*
Y238979D02*
Y247979D01*
Y427979D02*
Y436979D01*
Y445979D01*
Y418979D02*
Y427979D01*
Y454979D02*
Y463979D01*
Y445979D02*
Y454979D01*
Y382979D02*
Y391979D01*
Y400979D01*
Y373979D02*
Y382979D01*
Y409979D02*
Y418979D01*
Y400979D02*
Y409979D01*
Y481979D02*
Y490979D01*
Y499979D01*
Y472979D02*
Y481979D01*
Y337979D02*
Y346979D01*
Y355979D01*
Y328979D02*
Y337979D01*
Y364979D02*
Y373979D01*
Y355979D02*
Y364979D01*
Y301979D02*
Y310979D01*
Y319979D01*
Y247979D02*
Y256979D01*
Y319979D02*
Y328979D01*
X920000Y119626D02*
Y130112D01*
Y110626D02*
Y119626D01*
Y101626D02*
Y110626D01*
Y74626D02*
Y83626D01*
Y92626D01*
Y65626D02*
Y74626D01*
Y92626D02*
Y101626D01*
Y38626D02*
Y47626D01*
Y32000D02*
Y38626D01*
Y56626D02*
Y65626D01*
Y47626D02*
Y56626D01*
X904000Y184979D02*
Y193979D01*
Y202979D01*
Y175979D02*
Y184979D01*
Y211979D02*
Y220979D01*
Y202979D02*
Y211979D01*
Y157979D02*
Y166979D01*
Y175979D01*
Y148000D02*
Y157979D01*
X875685Y10000D02*
X884685D01*
X857685D02*
X866685D01*
X875685D01*
X884685D02*
X898000D01*
X839685D02*
X848685D01*
X830685D02*
X839685D01*
X848685D02*
X857685D01*
X812685D02*
X821685D01*
X830685D01*
X794685D02*
X803685D01*
X785685D02*
X794685D01*
X803685D02*
X812685D01*
X767685D02*
X776685D01*
X785685D01*
X740685D02*
X749685D01*
X731889D02*
X740685D01*
X749685D02*
X758685D01*
X767685D01*
X702872Y26002D02*
X713994Y26002D01*
X693872Y26002D02*
X702872Y26002D01*
X684872Y26002D02*
X693872Y26002D01*
X675872Y26002D02*
X684872Y26002D01*
X666872Y26002D02*
X675872Y26002D01*
X657872Y26001D02*
X666872Y26002D01*
X648872Y26001D02*
X657872Y26001D01*
X639872Y26001D02*
X648872Y26001D01*
X630872Y26001D02*
X639872Y26001D01*
X621872Y26001D02*
X630872Y26001D01*
X612872Y26001D02*
X621872Y26001D01*
X603872Y26001D02*
X612872Y26001D01*
X594872Y26001D02*
X603872Y26001D01*
X585872Y26001D02*
X594872Y26001D01*
X576872Y26001D02*
X585872Y26001D01*
X534902Y873996D02*
X543902D01*
X525902D02*
X534902D01*
X543902D02*
X552902D01*
X507902D02*
X516902D01*
X525902D01*
X561902D02*
X570902D01*
X552902D02*
X561902D01*
X570902D02*
X579902D01*
X471902D02*
X480902D01*
X462902D02*
X471902D01*
X480902D02*
X489902D01*
X444902D02*
X453902D01*
X462902D01*
X498902D02*
X507902D01*
X489902D02*
X498902D01*
X426902D02*
X435902D01*
X444902D01*
X420147Y873996D02*
X426902Y873996D01*
X408902Y873996D02*
X420147Y873996D01*
X399902Y873996D02*
X408902Y873996D01*
X390902Y873996D02*
X399902Y873996D01*
X381902Y873996D02*
X390902Y873996D01*
X372902Y873996D02*
X381902Y873996D01*
X363902Y873996D02*
X372902Y873996D01*
X354902Y873995D02*
X363902Y873996D01*
X345902Y873995D02*
X354902Y873995D01*
X336902Y873995D02*
X345902Y873995D01*
X327902Y873995D02*
X336902Y873995D01*
X318902Y873995D02*
X327902Y873995D01*
X190023Y889996D02*
X198005D01*
X172023D02*
X181023D01*
X163023D02*
X172023D01*
X181023D02*
X190023D01*
X154023D02*
X163023D01*
X309902Y873995D02*
X318902Y873995D01*
X300902Y873995D02*
X309902Y873995D01*
X291902Y873995D02*
X300902Y873995D01*
X282902Y873995D02*
X291902Y873995D01*
X273902Y873995D02*
X282902Y873995D01*
X264902Y873995D02*
X273902Y873995D01*
X255902Y873995D02*
X264902Y873995D01*
X246902Y873994D02*
X255902Y873995D01*
X237902Y873994D02*
X246902Y873994D01*
X228902Y873994D02*
X237902Y873994D01*
X215899Y873994D02*
X228902Y873994D01*
X64023Y889996D02*
X73023D01*
X46023D02*
X55023D01*
X64023D01*
X31745D02*
X37023D01*
X46023D01*
X91023D02*
X100023D01*
X82023D02*
X91023D01*
X100023D02*
X109023D01*
X73023D02*
X82023D01*
X136023D02*
X145023D01*
X127023D02*
X136023D01*
X145023D02*
X154023D01*
X109023D02*
X118023D01*
X127023D01*
X10000Y862087D02*
Y868000D01*
Y844087D02*
Y853087D01*
Y862087D01*
Y826087D02*
Y835087D01*
Y844087D01*
Y817087D02*
Y826087D01*
X567872Y26000D02*
X576872Y26001D01*
X558872Y26000D02*
X567872Y26000D01*
X549872Y26000D02*
X558872Y26000D01*
X540872Y26000D02*
X549872Y26000D01*
X531872Y26000D02*
X540872Y26000D01*
X522872Y26000D02*
X531872Y26000D01*
X495872Y26000D02*
X509746D01*
X522872Y26000D01*
X477872Y26000D02*
X486872D01*
X468872D02*
X477872D01*
X486872D02*
X495872D01*
X459872D02*
X468872D01*
X423872D02*
X432872D01*
X414872D02*
X423872D01*
X432872D02*
X441872D01*
X405872D02*
X414872D01*
X441872D02*
X450872D01*
X459872D01*
X369872D02*
X378872D01*
X360872D02*
X369872D01*
X378872D02*
X387872D01*
X342872D02*
X351872D01*
X360872D01*
X387872D02*
X396872D01*
X405872D01*
X9999Y58525D02*
Y67525D01*
Y32133D02*
Y40525D01*
Y49525D02*
Y58525D01*
Y40525D02*
Y49525D01*
Y67525D02*
Y76525D01*
Y85525D02*
Y94525D01*
Y76525D02*
Y85525D01*
X261873Y26000D02*
X270873D01*
X243873D02*
X252873D01*
X261873D01*
X279873D02*
X288873D01*
X270873D02*
X279873D01*
X288873D02*
X297873D01*
X225873D02*
X234873D01*
X243873D01*
X324873D02*
X333872D01*
X315872D02*
X324873D01*
X333872D02*
X342872D01*
X297873D02*
X306873D01*
X315872D01*
X215900Y26000D02*
X225873Y26000D01*
X178431Y10000D02*
X187430D01*
X198111D01*
X124431D02*
X133431D01*
X115431D02*
X124431D01*
X133431D02*
X142431D01*
X97431D02*
X106431D01*
X115431D01*
X160431D02*
X169431D01*
X151431D02*
X160431D01*
X169431D02*
X178431D01*
X142431D02*
X151431D01*
X43431D02*
X52431D01*
X32000D02*
X43431D01*
X52431D02*
X61431D01*
X79431D02*
X88431D01*
X97431D01*
X61431D02*
X70431D01*
X79431D01*
D25*
X371730Y821690D02*
D03*
X387730D02*
D03*
X851660Y480060D02*
D03*
X636650Y491490D02*
D03*
X665100Y130810D02*
D03*
X412370Y821690D02*
D03*
X356490Y640080D02*
D03*
X238124Y796290D02*
D03*
X511430Y193040D02*
D03*
X558290Y106680D02*
D03*
X383922Y155430D02*
D03*
X323470Y227330D02*
D03*
X562230Y709930D02*
D03*
X582550Y570230D02*
D03*
Y473710D02*
D03*
X806070Y480060D02*
D03*
X617730Y736600D02*
D03*
X512700Y473710D02*
D03*
X561720D02*
D03*
X543940Y709930D02*
D03*
X667640Y527050D02*
D03*
X323470Y255270D02*
D03*
X856360Y681990D02*
D03*
Y664210D02*
D03*
Y631190D02*
D03*
X856740Y598170D02*
D03*
X681100Y130810D02*
D03*
X719580Y113030D02*
D03*
X840740Y598170D02*
D03*
Y614680D02*
D03*
X856740D02*
D03*
X840360Y631190D02*
D03*
Y664210D02*
D03*
Y681990D02*
D03*
Y647700D02*
D03*
X856360D02*
D03*
X119760Y101600D02*
D03*
X103760D02*
D03*
X303150Y538480D02*
D03*
X319150D02*
D03*
X172790Y587970D02*
D03*
X188790D02*
D03*
X303150Y554990D02*
D03*
X319150D02*
D03*
X172720Y553720D02*
D03*
X188720D02*
D03*
X317880Y594360D02*
D03*
X301880D02*
D03*
X333630Y577850D02*
D03*
X349630D02*
D03*
X339470Y255270D02*
D03*
X683640Y527050D02*
D03*
X527430Y193040D02*
D03*
X508890Y106680D02*
D03*
X524890D02*
D03*
X527940Y709930D02*
D03*
X541400Y125730D02*
D03*
X525400D02*
D03*
X339470Y227330D02*
D03*
X542290Y106680D02*
D03*
X545720Y473710D02*
D03*
X528700D02*
D03*
X340490Y640080D02*
D03*
X633730Y736600D02*
D03*
X822070Y480060D02*
D03*
X835660D02*
D03*
X306072Y155430D02*
D03*
X322072D02*
D03*
X337440Y154940D02*
D03*
X353440D02*
D03*
X367922Y155430D02*
D03*
X428370Y821690D02*
D03*
X755270Y59690D02*
D03*
X771270D02*
D03*
X755270Y78740D02*
D03*
X771270D02*
D03*
X598550Y473710D02*
D03*
X636650D02*
D03*
X620650D02*
D03*
Y491490D02*
D03*
X651890Y791210D02*
D03*
X635890D02*
D03*
X222124Y796290D02*
D03*
X333630Y554990D02*
D03*
X349630D02*
D03*
Y612140D02*
D03*
X333630D02*
D03*
X598550Y570230D02*
D03*
X103760Y83820D02*
D03*
X119760D02*
D03*
X547750Y307340D02*
D03*
X531750D02*
D03*
X629540Y132080D02*
D03*
X645540D02*
D03*
X703580Y113030D02*
D03*
X578230Y709930D02*
D03*
D26*
X460120Y745490D02*
D03*
X444120D02*
D03*
X634490Y772160D02*
D03*
X717930Y561340D02*
D03*
X735710Y505460D02*
D03*
X667640Y549910D02*
D03*
X601090Y648970D02*
D03*
X821310Y234315D02*
D03*
Y198120D02*
D03*
X818770Y377190D02*
D03*
Y337820D02*
D03*
X790320Y247650D02*
D03*
X598722Y490924D02*
D03*
X593470Y361950D02*
D03*
X583310Y153670D02*
D03*
X573150Y806450D02*
D03*
X511050Y548640D02*
D03*
X558290D02*
D03*
X429260Y571500D02*
D03*
X325500Y814070D02*
D03*
X355220Y746760D02*
D03*
Y730250D02*
D03*
X413640Y627380D02*
D03*
X249684Y737870D02*
D03*
X286130Y607060D02*
D03*
X243460Y533400D02*
D03*
X230250Y737870D02*
D03*
X226510Y533360D02*
D03*
X499490Y306070D02*
D03*
X489710Y212090D02*
D03*
X380110Y256540D02*
D03*
Y240030D02*
D03*
X390270Y190500D02*
D03*
X511430Y176530D02*
D03*
X495300Y147320D02*
D03*
X323470Y281940D02*
D03*
Y210820D02*
D03*
X194690Y294640D02*
D03*
X185800Y106680D02*
D03*
X413640Y745490D02*
D03*
X429640D02*
D03*
X309500Y814070D02*
D03*
X364110Y256540D02*
D03*
X542290Y548640D02*
D03*
X527050D02*
D03*
X557150Y806450D02*
D03*
X265684Y737870D02*
D03*
X214250D02*
D03*
X582721Y490924D02*
D03*
X371220Y730250D02*
D03*
X364110Y240030D02*
D03*
X701930Y561340D02*
D03*
X339470Y281940D02*
D03*
X618490Y772160D02*
D03*
X371220Y746760D02*
D03*
X703200Y130810D02*
D03*
X719200D02*
D03*
X774320Y247650D02*
D03*
X473710Y212090D02*
D03*
X210510Y533360D02*
D03*
X374270Y190500D02*
D03*
X270130Y607060D02*
D03*
X172790Y571460D02*
D03*
X188790D02*
D03*
X333630Y594360D02*
D03*
X349630D02*
D03*
X317880Y577850D02*
D03*
X301880D02*
D03*
X259460Y533400D02*
D03*
X683640Y549910D02*
D03*
X719710Y505460D02*
D03*
X429640Y627380D02*
D03*
X413260Y571500D02*
D03*
X585090Y648970D02*
D03*
X339470Y210820D02*
D03*
X511300Y147320D02*
D03*
X567310Y153670D02*
D03*
X527430Y176530D02*
D03*
X212980Y607060D02*
D03*
X228980D02*
D03*
X239650D02*
D03*
X255650D02*
D03*
X178690Y294640D02*
D03*
X169800Y106680D02*
D03*
X173610Y605790D02*
D03*
X189610D02*
D03*
X483490Y306070D02*
D03*
X454280D02*
D03*
X470280D02*
D03*
X547750Y290830D02*
D03*
X531750D02*
D03*
X577470Y361950D02*
D03*
X834770Y377190D02*
D03*
Y337820D02*
D03*
X837310Y234315D02*
D03*
Y198120D02*
D03*
D27*
X430020Y766070D02*
D03*
X372620D02*
D03*
X430020Y779070D02*
D03*
Y785570D02*
D03*
Y792070D02*
D03*
X372620Y759570D02*
D03*
Y772570D02*
D03*
Y779070D02*
D03*
Y785570D02*
D03*
Y792070D02*
D03*
Y798570D02*
D03*
Y805070D02*
D03*
X430020D02*
D03*
Y798570D02*
D03*
Y772570D02*
D03*
Y759570D02*
D03*
D28*
X837320Y789940D02*
D03*
X836930Y772160D02*
D03*
X856860Y699770D02*
D03*
X811140Y59690D02*
D03*
Y78740D02*
D03*
X119380Y64770D02*
D03*
X102380D02*
D03*
X794140Y59690D02*
D03*
Y78740D02*
D03*
X839860Y699770D02*
D03*
X853930Y772160D02*
D03*
X854320Y789940D02*
D03*
D29*
X854710Y734450D02*
D03*
Y751450D02*
D03*
D30*
X792480Y772540D02*
D03*
X882650Y519810D02*
D03*
X866140D02*
D03*
X775970Y772920D02*
D03*
X694690Y771270D02*
D03*
X711200D02*
D03*
X617220Y831470D02*
D03*
X655320Y771270D02*
D03*
X673955Y770925D02*
D03*
X751840Y519050D02*
D03*
X584200Y678560D02*
D03*
X600710D02*
D03*
X632460Y526670D02*
D03*
X650240D02*
D03*
X656590Y489330D02*
D03*
X612140Y194690D02*
D03*
X706120Y146940D02*
D03*
X450850Y816990D02*
D03*
X431610Y671260D02*
D03*
X414020Y671450D02*
D03*
X549910Y193420D02*
D03*
X363220Y226440D02*
D03*
X325120Y195070D02*
D03*
X142240Y490600D02*
D03*
X450850Y786510D02*
D03*
Y770510D02*
D03*
Y800990D02*
D03*
X882650Y503810D02*
D03*
X414020Y687450D02*
D03*
X584200Y662560D02*
D03*
X142240Y474600D02*
D03*
X617220Y847470D02*
D03*
X431610Y687260D02*
D03*
X866140Y503810D02*
D03*
X600710Y662560D02*
D03*
X775970Y756920D02*
D03*
X792480Y756540D02*
D03*
X711200Y755270D02*
D03*
X751840Y535050D02*
D03*
X673955Y754925D02*
D03*
X549910Y177420D02*
D03*
X363220Y210440D02*
D03*
X694690Y755270D02*
D03*
X656590Y473330D02*
D03*
X325120Y179070D02*
D03*
X655320Y755270D02*
D03*
X706120Y174880D02*
D03*
Y190880D02*
D03*
Y162940D02*
D03*
X612140Y178690D02*
D03*
X285750Y554100D02*
D03*
Y538100D02*
D03*
X632460Y542670D02*
D03*
X650240D02*
D03*
D31*
X808990Y502950D02*
D03*
X847090D02*
D03*
Y552450D02*
D03*
X834390D02*
D03*
X821690D02*
D03*
X808990D02*
D03*
X821690Y502950D02*
D03*
X834390D02*
D03*
D32*
X581160Y855770D02*
D03*
X492660D02*
D03*
X314760Y857780D02*
D03*
X226260D02*
D03*
D33*
X598490Y795680D02*
D03*
X350360Y139040D02*
D03*
X618490Y786180D02*
D03*
X330360Y129540D02*
D03*
X350360Y120040D02*
D03*
X618490Y805180D02*
D03*
D34*
X761839Y734767D02*
D03*
X713833Y582367D02*
D03*
X681829Y734767D02*
D03*
X769967D02*
D03*
X705959Y582367D02*
D03*
X777841D02*
D03*
X729835D02*
D03*
X721961D02*
D03*
X689957D02*
D03*
X681829D02*
D03*
X713833Y734767D02*
D03*
X721961D02*
D03*
X777841D02*
D03*
X785969D02*
D03*
X793843Y582367D02*
D03*
X785969D02*
D03*
X769967D02*
D03*
X673955D02*
D03*
X745837Y734767D02*
D03*
X761839Y582367D02*
D03*
X753965Y734767D02*
D03*
X729835D02*
D03*
X737963D02*
D03*
X793843D02*
D03*
X753965Y582367D02*
D03*
X697831Y734767D02*
D03*
X673955D02*
D03*
X705959D02*
D03*
X689957D02*
D03*
X745837Y582367D02*
D03*
X737963D02*
D03*
X697831D02*
D03*
D35*
X718460Y536610D02*
D03*
X736960Y522110D02*
D03*
Y536610D02*
D03*
X718460Y522110D02*
D03*
D36*
X595630Y515620D02*
D03*
X586130D02*
D03*
X605130Y538720D02*
D03*
X595630D02*
D03*
X586130D02*
D03*
X605130Y515620D02*
D03*
D37*
X887730Y413220D02*
D03*
X888282Y272658D02*
D03*
X887730Y299720D02*
D03*
X888282Y159158D02*
D03*
D38*
X817770Y396242D02*
D03*
X819150Y308610D02*
D03*
X819040Y254002D02*
D03*
X820310Y167642D02*
D03*
X791320Y287022D02*
D03*
Y266702D02*
D03*
X594470Y403862D02*
D03*
Y381002D02*
D03*
X585580Y134622D02*
D03*
X245560Y514310D02*
D03*
X223630Y514348D02*
D03*
X491380Y127002D02*
D03*
X245560Y493990D02*
D03*
X223630Y494028D02*
D03*
X195690Y274318D02*
D03*
X186800Y125728D02*
D03*
X773320Y266702D02*
D03*
Y287022D02*
D03*
X205630Y494028D02*
D03*
Y514348D02*
D03*
X884030Y560068D02*
D03*
X866030D02*
D03*
X263560Y493990D02*
D03*
Y514310D02*
D03*
X177690Y274318D02*
D03*
X509380Y127002D02*
D03*
X168800Y125728D02*
D03*
X576470Y381002D02*
D03*
Y403862D02*
D03*
X835770Y396242D02*
D03*
X837150Y308610D02*
D03*
X837040Y254002D02*
D03*
X838310Y167642D02*
D03*
X567580Y134622D02*
D03*
D39*
X858730Y362720D02*
D03*
Y350220D02*
D03*
X859282Y222158D02*
D03*
Y209658D02*
D03*
Y234658D02*
D03*
Y247158D02*
D03*
Y197158D02*
D03*
Y184658D02*
D03*
X858730Y337720D02*
D03*
Y325220D02*
D03*
Y375220D02*
D03*
Y387720D02*
D03*
D40*
X811530Y119380D02*
D03*
X246380Y461010D02*
D03*
X326150Y435610D02*
D03*
X246500Y414020D02*
D03*
X198000D02*
D03*
X197880Y461010D02*
D03*
X860030Y119380D02*
D03*
X374650Y435610D02*
D03*
D41*
X775970Y366790D02*
D03*
Y415290D02*
D03*
D42*
X746200Y472440D02*
D03*
X676200D02*
D03*
D43*
X797590Y204470D02*
D03*
Y226060D02*
D03*
X604550Y340360D02*
D03*
X604550Y312459D02*
D03*
X345410Y469900D02*
D03*
X769590Y204470D02*
D03*
Y226060D02*
D03*
X576550Y340360D02*
D03*
X373410Y469900D02*
D03*
X576550Y312459D02*
D03*
D44*
X629920Y187960D02*
D03*
X683920D02*
D03*
Y175260D02*
D03*
Y162560D02*
D03*
Y149860D02*
D03*
X629920D02*
D03*
Y162560D02*
D03*
Y175260D02*
D03*
D45*
X593088Y195690D02*
D03*
X295912Y670450D02*
D03*
X172722Y669180D02*
D03*
X570232Y195690D02*
D03*
X434342Y190390D02*
D03*
X458470Y190280D02*
D03*
X410208Y190390D02*
D03*
X304802Y196960D02*
D03*
X161292Y491600D02*
D03*
Y473600D02*
D03*
X434342Y208390D02*
D03*
X410208D02*
D03*
X458470Y208280D02*
D03*
X172722Y687180D02*
D03*
X295912Y688450D02*
D03*
X570232Y177690D02*
D03*
X304802Y178960D02*
D03*
X593088Y177690D02*
D03*
D46*
X518160Y826770D02*
D03*
X251760Y828780D02*
D03*
X276760D02*
D03*
X289260D02*
D03*
X555660Y826770D02*
D03*
X264260Y828780D02*
D03*
X543160Y826770D02*
D03*
X530660D02*
D03*
D47*
X465800Y585470D02*
D03*
X558800Y661670D02*
D03*
Y572770D02*
D03*
Y585470D02*
D03*
Y598170D02*
D03*
Y610870D02*
D03*
Y623570D02*
D03*
Y636270D02*
D03*
Y674370D02*
D03*
Y687070D02*
D03*
X465800Y572770D02*
D03*
Y598170D02*
D03*
Y610870D02*
D03*
Y623570D02*
D03*
Y636270D02*
D03*
Y648970D02*
D03*
Y661670D02*
D03*
Y674370D02*
D03*
Y687070D02*
D03*
X558800Y648970D02*
D03*
D48*
X480681Y504122D02*
D03*
Y491422D02*
D03*
X527925Y529522D02*
D03*
Y504122D02*
D03*
Y491422D02*
D03*
Y516822D02*
D03*
X480681D02*
D03*
Y529522D02*
D03*
D49*
X432529Y588988D02*
D03*
X409529Y607988D02*
D03*
X432529D02*
D03*
X409529Y588988D02*
D03*
D50*
X388620Y674370D02*
D03*
Y687070D02*
D03*
X340620Y699770D02*
D03*
Y687070D02*
D03*
Y674370D02*
D03*
Y661670D02*
D03*
X388620Y699770D02*
D03*
Y661670D02*
D03*
D51*
X260404Y776830D02*
D03*
X219404Y757330D02*
D03*
X260404D02*
D03*
X219404Y776830D02*
D03*
X260404Y770330D02*
D03*
Y763830D02*
D03*
X219404Y770330D02*
D03*
Y763830D02*
D03*
D52*
X299880Y613410D02*
D03*
X319880D02*
D03*
D53*
X239290Y546060D02*
D03*
X228890D02*
D03*
X218890D02*
D03*
X588090Y610870D02*
D03*
X598090D02*
D03*
X249290Y546060D02*
D03*
X588090Y598170D02*
D03*
X598090D02*
D03*
X588010Y623570D02*
D03*
X598010D02*
D03*
X588090Y585470D02*
D03*
X598090D02*
D03*
X588090Y636270D02*
D03*
X598090D02*
D03*
D54*
X515620Y306450D02*
D03*
X369570Y137540D02*
D03*
X551180Y532510D02*
D03*
X287020Y778890D02*
D03*
Y733680D02*
D03*
X196850Y786510D02*
D03*
Y738380D02*
D03*
X156210Y552070D02*
D03*
Y596010D02*
D03*
Y580010D02*
D03*
Y568070D02*
D03*
X835660Y735330D02*
D03*
Y751330D02*
D03*
X196850Y754380D02*
D03*
Y770510D02*
D03*
X287020Y749680D02*
D03*
Y762890D02*
D03*
X369570Y121540D02*
D03*
X518160Y250190D02*
D03*
Y234190D02*
D03*
X515620Y290450D02*
D03*
X551180Y516510D02*
D03*
D55*
X458470Y233680D02*
D03*
X471170D02*
D03*
X483870D02*
D03*
X458470Y287680D02*
D03*
X471170D02*
D03*
X483870D02*
D03*
X496570D02*
D03*
Y233680D02*
D03*
D56*
X391460Y288850D02*
D03*
X352760D02*
D03*
Y301850D02*
D03*
Y295350D02*
D03*
X391460D02*
D03*
Y301850D02*
D03*
X352760Y282350D02*
D03*
X391460D02*
D03*
D57*
X375360Y272750D02*
D03*
X368860D02*
D03*
X375360Y311450D02*
D03*
X381860D02*
D03*
X368860D02*
D03*
X362360D02*
D03*
Y272750D02*
D03*
X381860D02*
D03*
D58*
X352770Y191030D02*
D03*
X540730Y160090D02*
D03*
X536230Y142090D02*
D03*
X540730D02*
D03*
X536230Y160090D02*
D03*
X348270Y173030D02*
D03*
Y191030D02*
D03*
X352770Y173030D02*
D03*
D59*
X458470Y113620D02*
D03*
X412750D02*
D03*
Y155620D02*
D03*
X458470D02*
D03*
D60*
X239800Y236220D02*
D03*
Y181610D02*
D03*
X166600D02*
D03*
Y236220D02*
D03*
D61*
X207100Y327660D02*
D03*
X165100D02*
D03*
D62*
X657699Y710637D02*
D03*
Y702509D02*
D03*
X810099Y710637D02*
D03*
X657699Y670505D02*
D03*
Y598623D02*
D03*
X810099Y694635D02*
D03*
Y630627D02*
D03*
Y702509D02*
D03*
Y678633D02*
D03*
Y670505D02*
D03*
Y662631D02*
D03*
Y654503D02*
D03*
Y606497D02*
D03*
Y598623D02*
D03*
X657699Y606497D02*
D03*
X810099Y718511D02*
D03*
X657699Y686507D02*
D03*
Y630627D02*
D03*
Y694635D02*
D03*
Y614625D02*
D03*
Y678633D02*
D03*
Y622499D02*
D03*
X810099Y614625D02*
D03*
X657699Y638501D02*
D03*
X810099Y622499D02*
D03*
Y638501D02*
D03*
Y686507D02*
D03*
X657699Y646629D02*
D03*
Y654503D02*
D03*
Y662631D02*
D03*
Y718511D02*
D03*
X810099Y646629D02*
D03*
D63*
X617860Y755650D02*
D03*
X634360D02*
D03*
D64*
X403620Y353980D02*
D03*
Y341980D02*
D03*
X373620D02*
D03*
Y353980D02*
D03*
X315200D02*
D03*
Y341980D02*
D03*
X345200Y353980D02*
D03*
Y341980D02*
D03*
D65*
X738907Y254519D02*
D03*
X683260Y254000D02*
D03*
X510424Y368559D02*
D03*
X454776Y368041D02*
D03*
X210820Y655320D02*
D03*
X259080D02*
D03*
D66*
X373266Y505460D02*
D03*
X312166D02*
D03*
D67*
X365760Y554990D02*
D03*
D68*
X615950Y132080D02*
D03*
X535560Y234570D02*
D03*
D69*
X259020Y709930D02*
D03*
X287020D02*
D03*
X210850D02*
D03*
X182850D02*
D03*
D70*
X315200Y347980D02*
D03*
X345200D02*
D03*
X373620D02*
D03*
X403620D02*
D03*
D71*
X421290Y284720D02*
D03*
X409290D02*
D03*
Y314720D02*
D03*
X421290D02*
D03*
X310800Y283450D02*
D03*
X298800D02*
D03*
Y313450D02*
D03*
X310800D02*
D03*
D72*
X415290Y314720D02*
D03*
Y284720D02*
D03*
X304800Y313450D02*
D03*
Y283450D02*
D03*
D73*
X648970Y561340D02*
D03*
X633730D02*
D03*
D74*
X730250Y784940D02*
D03*
Y794940D02*
D03*
X741680Y784940D02*
D03*
Y794940D02*
D03*
X753110Y784940D02*
D03*
Y794940D02*
D03*
X764540Y784940D02*
D03*
Y794940D02*
D03*
M02*
