M48
;Layer_Color=0
;FILE_FORMAT=4:2
METRIC,TZ
;TYPE=PLATED
T01F00S00C0.20
T02F00S00C0.90
T03F00S00C1.10
T04F00S00C3.18
%
T01
X177Y156
X255Y111
X344Y102
X434
X524
X614
X704
X794
X884
X974
X1064
X1154
X1244
X1334
X1424
X1514
X1604
X1694
X1784
X1874
X1964
X2015Y176
X2082Y236
X2169Y261
X2259Y262
X2349
X2439
X2529
X2619
X2709
X2799
X2889
X2979
X3069
X3159
X3249
X3339
X3429
X3519
X3609
X3699
X3789
X3879
X3654Y720
X3442Y619
X3347
X3251
X3138
X3042
X2946
X2809Y1025
X2677Y1723
X2577
X2478
X2379
X2136Y1960
X2040
X1944
X1992Y2046
X2088
X2136Y2132
X2040
X1944
X1728Y1842
X1414Y1095
X1944Y848
X2040
X2136
X2088Y763
X1992
X2040Y677
X2136
X1944
X102Y675
Y585
Y495
Y405
X102Y315
X122Y228
X102Y765
Y855
Y945
X1509Y2946
X1619Y2943
X1667Y3051
X1567
X1468
X2170Y2984
X2270
X2369
X2468
X2560Y2983
X2723Y2990
X2815
X2908
X3068
X3251Y3010
X3479Y2962
X3519Y2923
X3535Y2728
X3636Y2728
X3731Y2732
X3827
X3779Y2646
X3683
X3582Y2642
X3487
X3454Y2543
Y2444
Y2345
X3347Y2389
X3238Y2345
Y2444
Y2543
X3244Y1903
X3343
X3442
X3145
X3045
X2946
X2758Y2230
X3654Y2003
X3683Y1534
X3779
X3875
X3827Y1449
X3731
X3636Y1444
X3535Y1445
X3487Y1530
X3582
Y1359
X3487
X3683Y1363
X3779
X3875
Y2646
X3939Y3238
X3787Y3430
X3688
X3588
X3475Y3432
X3737Y3572
X3832
X3785Y3658
X3737Y3743
X3832
X3655Y3953
X3559
X3081Y3916
X2986
X3034Y3831
X2986Y3745
X3081
X2904Y3553
X2808
X2856Y3467
X2904Y3381
X2808
X2552Y3328
X2441Y3334
X2443Y3399
X2421Y3528
X2560Y3745
X2656
X2608Y3831
X2656Y3916
X2560
X3046Y3238
X3124Y3295
X1413Y3800
X4041Y3238
X3973Y2865
Y2769
X4327Y2398
X4423
X4375Y2322
X4327Y2236
X4423
X4214Y1979
X4327Y1124
X4423
X4375Y1039
X4327Y953
X4423
X4214Y696
X4239Y262
X4149
X4059
X3969
X4329
X4419
X4509
X4599
X4689
X4779
X4869
X4959
X5049
X5139Y262
X5229Y262
X5319Y262
X5409Y262
X5499Y262
X5589Y262
X5679Y262
X5769Y262
X5859Y262
X5949Y262
X6039Y262
X6129Y262
X6219Y262
X6309Y262
X6399Y262
X6489Y262
X6579Y262
X6669Y262
X6759Y262
X6849Y262
X6939Y262
X7029Y262
X7119Y262
X7207Y242
X7277Y186
X7317Y105
X7407Y102
X7497
X7587
X7677
X7767
X7857
X7755Y698
X7530Y698
X7530Y1388
X7754
X7604Y1730
X7509
X7557Y1816
X7509Y1901
X7604
X7605Y2076
X7509
X7557Y2162
X7605Y2248
X7509
X7509Y2417
X7604
X7557Y2502
X7509Y2588
X7604
X7604Y3199
X7509
X7557Y3285
X7509Y3371
X7604
X7605Y3546
X7509
X7557Y3631
X7509Y3717
X7605
X7604Y3886
X7509
X6203Y3855
X5908Y3866
X5539Y3552
X5541Y3477
X5220Y3288
X4995Y3626
X4363Y3547
X5909Y3182
X6180Y3029
X6340
X6554Y3035
X6721Y3029
X6756Y2600
X6855
X6657
X6558
X6458
X6359
X6260
X6161
X6062
X5962
X5967Y2044
X6067
X6166
X6265
X6364
X6464
X6563
X6662
X6761
X6861
X6855Y1317
X6756
X6657
X6558
X6458
X6359
X6260
X6161
X6062
X5962
X5967Y760
X6067
X6166
X6265
X6364
X6464
X6563
X6662
X6761
X6861
X5040Y977
Y2260
X7979Y1388
X7980Y698
X8205
X8217Y102
X8127
X8037
X7947
X8307
X8397
X8487
X8577
X8667
X8757
X8847
X8937
X9027Y107
X9109Y143
X9169Y211
X9197Y296
X9198Y386
Y476
Y566
Y656
Y746
Y836
Y926
Y1016
Y1106
Y1196
Y1286
X9123Y1336
X9064Y1403
X9039Y1490
X9038Y1580
Y1670
Y1760
Y1850
Y1940
Y2030
Y2120
Y2210
Y2300
Y2390
Y2480
Y2570
Y2660
X9038Y2750
Y2840
Y2930
Y3020
Y3110
Y3200
Y3290
Y3380
Y3470
Y3560
Y3650
Y3740
Y3830
Y3920
X9038Y4010
Y4100
Y4190
Y4280
Y4370
Y4460
Y4550
Y4640
Y4730
Y4820
Y4910
Y5000
Y5090
X9038Y5180
Y5270
Y5360
Y5450
Y5540
Y5630
Y5720
Y5810
Y5900
Y5990
Y6080
Y6170
Y6260
X9038Y6350
Y6440
Y6530
Y6620
Y6710
Y6800
Y6890
Y6980
Y7070
Y7160
Y7250
Y7340
Y7430
Y7520
X9048Y7609
X9092Y7688
X9166Y7739
X9198Y7823
Y7913
X8108Y7773
X8331Y7439
X8333Y7117
Y6799
X8341Y6624
X8215Y6623
X8267Y6465
X8292Y6311
X8318Y6147
X8695Y6147
Y6467
X8509Y4599
X7696Y4953
X7697Y5035
X7526Y5299
X7312Y5296
X7099Y5207
X6970
X6647Y5095
X6487Y4928
X6309
X5886Y5138
X5596Y5028
X5681Y4828
X5801Y4407
Y4242
X5224Y4520
Y4647
X5355Y5185
X4570Y5028
X4573Y4191
X4653Y4051
X4493
X4273
X4113
X6712Y4140
X6691Y4404
X7074
X7509Y4057
X7604
X7557Y3972
X6811Y5514
X6721Y5434
X5779Y5790
X5410Y6401
X5242Y6324
X4597Y6325
X4576Y7230
X4416
X4299Y7169
X4026Y7061
Y6892
X4060Y7903
X4443Y7912
X4823Y7913
X5224Y7841
X4906Y7230
X4746
X5740Y7087
Y6969
X5791Y7468
X6731Y7630
X6748Y7027
X6852Y7022
X6299Y6705
X7727Y7206
X7658Y7578
X3335Y7771
X3332Y7073
X3246Y7026
X3250Y6916
Y6820
X3165Y6772
Y6868
X2993
Y6772
X2989Y6978
Y7073
X3075Y7026
X3161Y7073
X3336Y6868
Y6772
X1903Y6698
Y6603
X1818Y6651
X1732Y6698
Y6603
X1646Y6651
X1560Y6698
Y6603
Y6978
Y7073
X1646Y7026
X1732Y6978
Y7073
X1600Y7772
X1570Y6142
X1460Y5728
Y5652
X1422Y5476
Y5377
Y5278
Y5179
Y5079
Y4980
X1930Y4954
Y4860
X1967Y4765
X1869
X1918Y4704
X1869Y4643
X1967
X2066
X2165
Y4538
X2066
X1967Y4536
X1869Y4538
X1775
X1675
X2165Y4765
X2461Y4774
Y4873
Y4972
Y5072
Y5171
X2459Y5276
Y5375
Y5474
Y5573
Y5673
X2461Y5773
X2137Y5990
X2074Y6038
X2133Y6142
X2033Y5542
Y5443
X2035Y5344
X1983Y5246
Y5152
Y5052
X3534Y4891
X3629
X3581Y4805
X3534Y4719
X3629
X3418Y4532
X3322
X3370Y4447
X3418Y4361
X3322
X3559Y4124
X3655
X3607Y4039
X3340Y7940
X3335Y8146
Y8306
X3369Y8738
X3459Y8738
X3549Y8738
X3639Y8738
X3729Y8738
X3819Y8738
X3909Y8738
X3279Y8738
X3189Y8738
X3099Y8738
X3009Y8738
X2919Y8738
X2829Y8738
X2739Y8738
X2649Y8738
X2559Y8738
X2469Y8738
X2379Y8738
X2289Y8738
X2199Y8738
X2110Y8751
X2034Y8799
X1987Y8876
X1900Y8898
X1810
X1720
X1630
X1540
X1450
X1360
X1270
X1180
X1090
X1000
X910
X820
X730
X640
X550
X460
X370
X280Y8895
X197Y8860
X135Y8795
X104Y8711
X102Y8621
Y8531
Y8441
Y8351
Y8261
Y8171
X1600Y8317
X2489Y8141
Y8072
X4352Y8268
X4589Y8128
X4712Y8130
X4948Y8268
X4989Y8738
X5079
X5169
X5259
X5349
X5439
X5529
X5619
X5709
X5799
X5889
X5979
X6069
X6159
X6249
X6339
X6429
X6519
X6609
X6699
X6789
X6879
X6969
X7059Y8738
X7149Y8741
X7233Y8774
X7294Y8840
X7363Y8898
X7453
X7543
X7633
X7723
X7813
X7903
X7493Y8077
X7188
X7036
X6883
X6731
X6579
X6426
X6265Y8081
X6105Y8077
X4899Y8738
X4809
X4719
X4629
X4539
X4449
X4359
X4269
X4179
X4089Y8738
X3999Y8738
X7993Y8898
X8082
X8172
X8262
X8352
X8442
X8532
X8622
X8712
X8802
X8892
X8982Y8898
X9093Y8867
X9159Y8806
X9194Y8723
X9198Y8633
Y8543
Y8453
Y8363
Y8273
Y8183
Y8093
Y8003
X8108Y7953
T02
X357Y1388
X611
X865
Y1642
Y1896
X1119
Y2150
Y2404
Y2658
Y2912
X865
Y3166
X1119
Y3420
Y3674
Y3928
X865
Y3674
Y3420
X611
Y3166
Y2912
X357
Y3166
Y3420
Y3674
Y3928
X611
Y3674
Y2658
X865
Y2404
Y2150
X611
Y2404
X357
Y2150
Y1896
Y1642
X611
Y1896
X1119Y1642
Y1388
X357Y2658
Y4182
Y4436
X611
Y4690
X865
X1119
Y4436
X865
Y4182
X1119
X611
X357Y4690
Y4944
X611
Y5198
X357
Y5452
X611
X865
Y5198
X1119
Y5452
Y5706
X865
Y5960
Y6214
Y6468
Y6722
X1119
Y6976
Y7230
Y7484
X865
X611
X357
Y7230
Y6976
Y6722
X611
Y6468
Y6214
X357
Y6468
Y5960
Y5706
X611
Y5960
X1119
Y6214
Y6468
X865Y6976
Y7230
X611
Y6976
Y7738
X865
X1119
X357
X865Y4944
X1119
T03
X6412Y8430
X6666
X6920
X7174
X7428
X7682
X7936
X8190
T04
X354Y880
X8930Y500
X356Y8268
X8927Y8500
M30
