%FSTAX23Y23*%
%MOIN*%
%SFA1B1*%

%IPPOS*%
%ADD11C,0.007874*%
%LNdal_dpu_keep-out-1*%
%LPD*%
G54D11*
X03629Y03012D02*
D01*
X03627Y03012*
X03625Y03011*
X03623Y03011*
X03621Y0301*
X03619Y0301*
X03617Y03009*
X03615Y03008*
X03613Y03007*
X03611Y03006*
X03609Y03004*
X03608Y03003*
X03606Y03001*
X03605Y02999*
X03603Y02998*
X03602Y02996*
X03601Y02994*
X036Y02992*
X03599Y0299*
X03599Y02988*
X03598Y02986*
X03598Y02983*
X03598Y02981*
X03598Y0298*
X0085Y00062D02*
D01*
X00848Y00062*
X00846Y00062*
X00843Y00062*
X00841Y00061*
X00839Y00061*
X00837Y0006*
X00835Y00059*
X00833Y00058*
X00831Y00056*
X0083Y00055*
X00828Y00054*
X00826Y00052*
X00825Y0005*
X00824Y00049*
X00823Y00047*
X00822Y00045*
X00821Y00043*
X0082Y00041*
X00819Y00039*
X00819Y00036*
X00819Y00034*
X00818Y00032*
X00818Y00031*
X03629Y03012D02*
D01*
X03632Y03012*
X03634Y03012*
X03636Y03012*
X03638Y03013*
X0364Y03013*
X03642Y03014*
X03644Y03015*
X03646Y03016*
X03648Y03018*
X0365Y03019*
X03651Y0302*
X03653Y03022*
X03654Y03024*
X03656Y03025*
X03657Y03027*
X03658Y03029*
X03659Y03031*
X03659Y03033*
X0366Y03035*
X0366Y03038*
X03661Y0304*
X03661Y03042*
X03661Y03043*
X00787Y0D02*
D01*
X00789Y0*
X00791Y0*
X00793Y0*
X00796Y00001*
X00798Y00001*
X008Y00002*
X00802Y00003*
X00804Y00004*
X00805Y00006*
X00807Y00007*
X00809Y00008*
X0081Y0001*
X00812Y00012*
X00813Y00013*
X00814Y00015*
X00815Y00017*
X00816Y00019*
X00817Y00021*
X00817Y00023*
X00818Y00026*
X00818Y00028*
X00818Y0003*
X00818Y00031*
X00818Y03511D02*
D01*
X00818Y03513*
X00818Y03516*
X00817Y03518*
X00817Y0352*
X00816Y03522*
X00815Y03524*
X00814Y03526*
X00813Y03528*
X00812Y0353*
X00811Y03532*
X00809Y03533*
X00808Y03535*
X00806Y03536*
X00804Y03537*
X00802Y03539*
X008Y0354*
X00798Y0354*
X00796Y03541*
X00794Y03542*
X00792Y03542*
X0079Y03543*
X00788Y03543*
X00786Y03543*
X02873D02*
D01*
X02871Y03543*
X02869Y03542*
X02867Y03542*
X02864Y03542*
X02862Y03541*
X0286Y0354*
X02858Y03539*
X02856Y03538*
X02855Y03537*
X02853Y03535*
X02851Y03534*
X0285Y03532*
X02848Y03531*
X02847Y03529*
X02846Y03527*
X02845Y03525*
X02844Y03523*
X02843Y03521*
X02843Y03519*
X02842Y03517*
X02842Y03515*
X02842Y03512*
X02842Y03511*
X0Y03108D02*
D01*
X0Y03106*
X0Y03103*
X0Y03101*
X00001Y03099*
X00001Y03097*
X00002Y03095*
X00003Y03093*
X00004Y03091*
X00006Y03089*
X00007Y03088*
X00008Y03086*
X0001Y03084*
X00012Y03083*
X00013Y03082*
X00015Y0308*
X00017Y03079*
X00019Y03079*
X00021Y03078*
X00023Y03077*
X00026Y03077*
X00028Y03076*
X0003Y03076*
X00031Y03076*
X03598Y00582D02*
D01*
X03598Y0058*
X03598Y00578*
X03599Y00576*
X03599Y00573*
X036Y00571*
X03601Y00569*
X03602Y00567*
X03603Y00565*
X03604Y00564*
X03605Y00562*
X03607Y0056*
X03608Y00559*
X0361Y00557*
X03612Y00556*
X03614Y00555*
X03616Y00554*
X03618Y00553*
X0362Y00552*
X03622Y00552*
X03624Y00551*
X03626Y00551*
X03628Y00551*
X03629Y00551*
X03535Y0D02*
D01*
X03544Y0*
X03552Y00001*
X03561Y00002*
X0357Y00004*
X03578Y00007*
X03586Y0001*
X03594Y00014*
X03602Y00019*
X03609Y00024*
X03616Y00029*
X03622Y00035*
X03629Y00041*
X03634Y00048*
X03639Y00055*
X03644Y00062*
X03648Y0007*
X03652Y00078*
X03655Y00087*
X03657Y00095*
X03659Y00104*
X0366Y00112*
X03661Y00121*
X03661Y00125*
X0281Y0348D02*
D01*
X02812Y0348*
X02814Y0348*
X02817Y0348*
X02819Y03481*
X02821Y03482*
X02823Y03483*
X02825Y03483*
X02827Y03485*
X02829Y03486*
X0283Y03487*
X02832Y03489*
X02834Y0349*
X02835Y03492*
X02836Y03494*
X02837Y03496*
X02838Y03497*
X02839Y03499*
X0284Y03502*
X02841Y03504*
X02841Y03506*
X02841Y03508*
X02842Y0351*
X02842Y03511*
X00125Y03543D02*
D01*
X00116Y03542*
X00108Y03542*
X00099Y0354*
X0009Y03538*
X00082Y03535*
X00074Y03532*
X00066Y03528*
X00058Y03524*
X00051Y03519*
X00044Y03513*
X00038Y03507*
X00032Y03501*
X00026Y03494*
X00021Y03487*
X00016Y0348*
X00012Y03472*
X00009Y03464*
X00006Y03455*
X00003Y03447*
X00001Y03438*
X0Y0343*
X0Y03421*
X0Y03417*
X03661Y00519D02*
D01*
X03661Y00521*
X03661Y00524*
X0366Y00526*
X0366Y00528*
X03659Y0053*
X03658Y00532*
X03657Y00534*
X03656Y00536*
X03655Y00538*
X03654Y00539*
X03652Y00541*
X0365Y00543*
X03649Y00544*
X03647Y00545*
X03645Y00546*
X03643Y00547*
X03641Y00548*
X03639Y00549*
X03637Y0055*
X03635Y0055*
X03633Y00551*
X03631Y00551*
X03629Y00551*
X00031Y00516D02*
D01*
X00029Y00516*
X00027Y00516*
X00024Y00516*
X00022Y00515*
X0002Y00515*
X00018Y00514*
X00016Y00513*
X00014Y00512*
X00012Y0051*
X00011Y00509*
X00009Y00508*
X00008Y00506*
X00006Y00504*
X00005Y00503*
X00004Y00501*
X00003Y00499*
X00002Y00497*
X00001Y00495*
X0Y00493*
X0Y0049*
X0Y00488*
X0Y00486*
X0Y00485*
X00039Y00516D02*
D01*
X00041Y00516*
X00043Y00517*
X00045Y00517*
X00048Y00518*
X0005Y00518*
X00052Y00519*
X00054Y0052*
X00056Y00521*
X00057Y00522*
X00059Y00524*
X00061Y00525*
X00062Y00527*
X00064Y00529*
X00065Y0053*
X00066Y00532*
X00067Y00534*
X00068Y00536*
X00069Y00538*
X00069Y0054*
X0007Y00542*
X0007Y00545*
X0007Y00547*
X0007Y00548*
X02842Y00031D02*
D01*
X02842Y00033*
X02842Y00035*
X02841Y00038*
X02841Y0004*
X0284Y00042*
X02839Y00044*
X02838Y00046*
X02837Y00048*
X02836Y0005*
X02835Y00051*
X02833Y00053*
X02832Y00054*
X0283Y00056*
X02828Y00057*
X02826Y00058*
X02824Y00059*
X02822Y0006*
X0282Y00061*
X02818Y00062*
X02816Y00062*
X02814Y00062*
X02812Y00062*
X02811Y00062*
X03661Y03417D02*
D01*
X03661Y03426*
X0366Y03435*
X03658Y03443*
X03656Y03452*
X03653Y0346*
X0365Y03468*
X03646Y03476*
X03642Y03484*
X03637Y03491*
X03631Y03498*
X03625Y03505*
X03619Y03511*
X03612Y03516*
X03605Y03521*
X03598Y03526*
X0359Y0353*
X03582Y03534*
X03574Y03537*
X03565Y03539*
X03557Y03541*
X03548Y03542*
X03539Y03543*
X03535Y03543*
X0007Y03045D02*
D01*
X0007Y03047*
X0007Y03049*
X0007Y03051*
X00069Y03053*
X00068Y03056*
X00068Y03058*
X00067Y0306*
X00066Y03061*
X00064Y03063*
X00063Y03065*
X00062Y03067*
X0006Y03068*
X00058Y0307*
X00056Y03071*
X00055Y03072*
X00053Y03073*
X00051Y03074*
X00049Y03075*
X00046Y03075*
X00044Y03076*
X00042Y03076*
X0004Y03076*
X00039Y03076*
X00818Y03511D02*
D01*
X00818Y03509*
X00818Y03507*
X00819Y03505*
X00819Y03503*
X0082Y03501*
X00821Y03498*
X00822Y03497*
X00823Y03495*
X00824Y03493*
X00825Y03491*
X00827Y03489*
X00828Y03488*
X0083Y03486*
X00832Y03485*
X00834Y03484*
X00836Y03483*
X00838Y03482*
X0084Y03481*
X00842Y03481*
X00844Y0348*
X00846Y0348*
X00848Y0348*
X00849Y0348*
X0Y00125D02*
D01*
X0Y00117*
X00001Y00108*
X00002Y00099*
X00004Y00091*
X00007Y00082*
X0001Y00074*
X00014Y00066*
X00019Y00059*
X00024Y00051*
X00029Y00045*
X00035Y00038*
X00041Y00032*
X00048Y00026*
X00055Y00021*
X00062Y00016*
X0007Y00012*
X00078Y00009*
X00087Y00006*
X00095Y00003*
X00104Y00001*
X00112Y0*
X00121Y0*
X00125Y0*
X02842Y00031D02*
D01*
X02842Y00029*
X02842Y00027*
X02843Y00024*
X02843Y00022*
X02844Y0002*
X02845Y00018*
X02846Y00016*
X02847Y00014*
X02848Y00012*
X02849Y00011*
X02851Y00009*
X02852Y00008*
X02854Y00006*
X02856Y00005*
X02858Y00004*
X0286Y00003*
X02862Y00002*
X02864Y00001*
X02866Y0*
X02868Y0*
X0287Y0*
X02872Y0*
X02874Y0*
X0Y03108D02*
Y03417D01*
X00031Y03076D02*
X00039D01*
X0007Y00548D02*
Y03045D01*
X0007Y00548D02*
X0007Y00548D01*
X00031Y00516D02*
X00039D01*
X00031Y00516D02*
X00031Y00516D01*
X0Y00125D02*
Y00485D01*
Y00125D02*
X0Y00125D01*
X00125Y0D02*
X00787D01*
X0085Y00062D02*
X02811D01*
X02874Y0D02*
X03535D01*
X03661Y00125D02*
Y00519D01*
X03598Y00582D02*
Y0298D01*
D01*
X03661Y03043D02*
Y03417D01*
X02873Y03543D02*
X03535D01*
X02873Y03543D02*
X02873Y03543D01*
X00849Y0348D02*
X0281D01*
X00125Y03543D02*
X00786D01*
X00125Y03543D02*
X00125Y03543D01*
M02*