%FSTAX23Y23*%
%MOIN*%
%SFA1B1*%

%IPPOS*%
%AMD151*
4,1,8,-0.031500,0.019700,-0.031500,-0.019700,-0.015700,-0.035400,0.015700,-0.035400,0.031500,-0.019700,0.031500,0.019700,0.015700,0.035400,-0.015700,0.035400,-0.031500,0.019700,0.0*
1,1,0.031496,-0.015700,0.019700*
1,1,0.031496,-0.015700,-0.019700*
1,1,0.031496,0.015700,-0.019700*
1,1,0.031496,0.015700,0.019700*
%
%ADD141C,0.012000*%
%ADD148C,0.060236*%
%ADD149C,0.055118*%
%ADD150O,0.062992X0.070866*%
G04~CAMADD=151~8~0.0~0.0~708.7~629.9~157.5~0.0~15~0.0~0.0~0.0~0.0~0~0.0~0.0~0.0~0.0~0~0.0~0.0~0.0~90.0~630.0~708.0*
%ADD151D151*%
%ADD152R,0.055118X0.055118*%
%ADD153R,0.060236X0.060236*%
%ADD154C,0.023622*%
%ADD155C,0.031496*%
%ADD156C,0.015748*%
%ADD157C,0.173228*%
%LNdal_dpu_copper_signal_1-1*%
%LPD*%
G36*
X00795Y03532D02*
X00802Y03527D01*
X00807Y0352*
X00808Y03516*
X00809Y03511*
X0081Y03501*
X00814Y03491*
X00821Y03482*
X00829Y03476*
X00839Y03472*
X00849Y03471*
Y03471*
X0281*
Y03471*
X02821Y03472*
X0283Y03476*
X02839Y03482*
X02845Y03491*
X02849Y03501*
X02851Y03511*
X02852Y03516*
X02852Y0352*
X02857Y03527*
X02864Y03532*
X02873Y03534*
X02873Y03534*
X02873Y03534*
X03535*
X03535Y03534*
X03553Y03532*
X03571Y03528*
X03588Y03521*
X03604Y03511*
X03618Y03499*
X0363Y03486*
X03639Y0347*
X03646Y03453*
X0365Y03435*
X03652Y03417*
X03652Y03417*
Y03043*
X03652Y03043*
X0365Y03034*
X03645Y03027*
X03638Y03022*
X03634Y03022*
X03629Y03021*
Y03021*
X03619Y03019*
X03609Y03015*
X03601Y03009*
X03594Y03*
X0359Y02991*
X03589Y0298*
X03589*
Y0298*
Y00582*
X03589*
X0359Y00572*
X03594Y00562*
X03601Y00553*
X03609Y00547*
X03619Y00543*
X03629Y00541*
X03634Y00541*
X03638Y0054*
X03645Y00535*
X0365Y00528*
X03652Y00519*
X03652Y00519*
Y00125*
X03652Y00125*
X0365Y00107*
X03646Y00089*
X03639Y00072*
X0363Y00057*
X03618Y00043*
X03604Y00031*
X03588Y00021*
X03571Y00014*
X03553Y0001*
X03535Y00009*
X03535Y00009*
X02874*
X02873Y00009*
X02865Y0001*
X02858Y00015*
X02853Y00022*
X02852Y00026*
X02851Y00031*
X0285Y00042*
X02846Y00051*
X02839Y0006*
X02831Y00066*
X02821Y0007*
X02811Y00072*
Y00072*
X0085*
Y00072*
X00839Y0007*
X0083Y00066*
X00821Y0006*
X00815Y00051*
X00811Y00042*
X00809Y00031*
X00808Y00026*
X00808Y00022*
X00803Y00015*
X00796Y0001*
X00787Y00009*
X00787Y00009*
X00125*
X00125Y00009*
X00107Y0001*
X00089Y00014*
X00072Y00021*
X00057Y00031*
X00043Y00043*
X00031Y00057*
X00021Y00072*
X00014Y00089*
X0001Y00107*
X00009Y00121*
X00009Y00125*
X00009Y0013*
Y0013*
Y0013*
Y0013*
Y00485*
X00009Y00485*
X0001Y00494*
X00015Y00501*
X00022Y00506*
X00031Y00507*
X00031Y00507*
X00039*
Y00507*
X00049Y00509*
X00059Y00513*
X00068Y00519*
X00074Y00528*
X00078Y00537*
X0008Y00548*
X00079*
Y00548*
Y03045*
X0008*
X00078Y03055*
X00074Y03065*
X00068Y03074*
X00059Y0308*
X00049Y03084*
X00039Y03086*
Y03085*
X00031*
X00031Y03085*
X00022Y03087*
X00015Y03092*
X0001Y03099*
X00009Y03108*
X00009Y03108*
Y03417*
X00009Y03417*
X0001Y03435*
X00014Y03453*
X00021Y0347*
X00031Y03486*
X00043Y03499*
X00057Y03511*
X00072Y03521*
X00089Y03528*
X00107Y03532*
X00125Y03534*
X00125Y03534*
X00786*
X00787Y03534*
X00795Y03532*
G37*
%LNdal_dpu_copper_signal_1-2*%
%LPC*%
G36*
X02388Y03354D02*
X02381D01*
X02373Y03351*
X02368Y03346*
X02365Y03338*
Y03331*
X02368Y03323*
X02373Y03318*
X02381Y03315*
X02388*
X02396Y03318*
X02401Y03323*
X02404Y03331*
Y03338*
X02401Y03346*
X02396Y03351*
X02388Y03354*
G37*
G36*
X02775Y03367D02*
X02766D01*
X02758Y03365*
X02751Y03361*
X02745Y03354*
X0274Y03347*
X02738Y03339*
Y0333*
X0274Y03322*
X02745Y03315*
X02751Y03308*
X02758Y03304*
X02766Y03302*
X02775*
X02783Y03304*
X02791Y03308*
X02797Y03315*
X02801Y03322*
X02803Y0333*
Y03339*
X02801Y03347*
X02797Y03354*
X02791Y03361*
X02783Y03365*
X02775Y03367*
G37*
G36*
X02567D02*
X02502D01*
Y03302*
X02567*
Y03367*
G37*
G36*
X02618Y0337D02*
X02609D01*
X026Y03368*
X02591Y03363*
X02585Y03356*
X0258Y03348*
X02578Y03339*
Y0333*
X0258Y03321*
X02585Y03313*
X02591Y03306*
X026Y03301*
X02609Y03299*
X02618*
X02627Y03301*
X02635Y03306*
X02642Y03313*
X02646Y03321*
X02649Y0333*
Y03339*
X02646Y03348*
X02642Y03356*
X02635Y03363*
X02627Y03368*
X02618Y0337*
G37*
G36*
X02238Y03274D02*
X02231D01*
X02223Y03271*
X02218Y03266*
X02215Y03258*
Y03251*
X02218Y03243*
X02223Y03238*
X02231Y03235*
X02238*
X02246Y03238*
X02251Y03243*
X02254Y03251*
Y03258*
X02251Y03266*
X02246Y03271*
X02238Y03274*
G37*
G36*
X02798Y03262D02*
X02733D01*
Y03197*
X02798*
Y03262*
G37*
G36*
X02691D02*
X02683D01*
X02674Y0326*
X02667Y03256*
X02661Y03249*
X02657Y03242*
X02654Y03234*
Y03225*
X02657Y03217*
X02661Y0321*
X02667Y03203*
X02674Y03199*
X02683Y03197*
X02691*
X027Y03199*
X02707Y03203*
X02713Y0321*
X02717Y03217*
X0272Y03225*
Y03234*
X02717Y03242*
X02713Y03249*
X02707Y03256*
X027Y0326*
X02691Y03262*
G37*
G36*
X02613D02*
X02604D01*
X02596Y0326*
X02588Y03256*
X02582Y03249*
X02578Y03242*
X02576Y03234*
Y03225*
X02578Y03217*
X02582Y0321*
X02588Y03203*
X02596Y03199*
X02604Y03197*
X02613*
X02621Y03199*
X02628Y03203*
X02634Y0321*
X02639Y03217*
X02641Y03225*
Y03234*
X02639Y03242*
X02634Y03249*
X02628Y03256*
X02621Y0326*
X02613Y03262*
G37*
G36*
X02534D02*
X02525D01*
X02517Y0326*
X0251Y03256*
X02503Y03249*
X02499Y03242*
X02497Y03234*
Y03225*
X02499Y03217*
X02503Y0321*
X0251Y03203*
X02517Y03199*
X02525Y03197*
X02534*
X02542Y03199*
X02549Y03203*
X02556Y0321*
X0256Y03217*
X02562Y03225*
Y03234*
X0256Y03242*
X02556Y03249*
X02549Y03256*
X02542Y0326*
X02534Y03262*
G37*
G36*
X01179Y03233D02*
X0117D01*
X01161Y0323*
X01154Y03223*
X01151Y03214*
Y03205*
X01154Y03196*
X01161Y03189*
X0117Y03186*
X01179*
X01188Y03189*
X01195Y03196*
X01198Y03205*
Y03214*
X01195Y03223*
X01188Y0323*
X01179Y03233*
G37*
G36*
X02139Y03208D02*
X02133D01*
X02126Y03205*
X02122Y032*
X02119Y03194*
Y03187*
X02122Y03181*
X02126Y03176*
X02133Y03174*
X02139*
X02146Y03176*
X0215Y03181*
X02153Y03187*
Y03194*
X0215Y032*
X02146Y03205*
X02139Y03208*
G37*
G36*
X00878Y03191D02*
X00871D01*
X00865Y03189*
X0086Y03184*
X00858Y03178*
Y03171*
X0086Y03165*
X00865Y0316*
X00871Y03158*
X00878*
X00884Y0316*
X00889Y03165*
X00891Y03171*
Y03178*
X00889Y03184*
X00884Y03189*
X00878Y03191*
G37*
G36*
X03013Y03176D02*
X03006D01*
X03Y03174*
X02995Y03169*
X02993Y03163*
Y03156*
X02995Y0315*
X03Y03145*
X03006Y03143*
X03013*
X03019Y03145*
X03024Y0315*
X03026Y03156*
Y03163*
X03024Y03169*
X03019Y03174*
X03013Y03176*
G37*
G36*
X01253Y03161D02*
X01246D01*
X0124Y03159*
X01235Y03154*
X01233Y03148*
Y03141*
X01235Y03135*
X0124Y0313*
X01246Y03128*
X01253*
X01259Y0313*
X01264Y03135*
X01266Y03141*
Y03148*
X01264Y03154*
X01259Y03159*
X01253Y03161*
G37*
G36*
X02198Y03139D02*
X02191D01*
X02183Y03136*
X02178Y03131*
X02175Y03123*
Y03116*
X02178Y03108*
X02183Y03103*
X02191Y031*
X02198*
X02206Y03103*
X02211Y03108*
X02214Y03116*
Y03123*
X02211Y03131*
X02206Y03136*
X02198Y03139*
G37*
G36*
X01413Y03111D02*
X01406D01*
X014Y03109*
X01395Y03104*
X01393Y03098*
Y03091*
X01395Y03085*
X014Y0308*
X01406Y03078*
X01413*
X01419Y0308*
X01424Y03085*
X01426Y03091*
Y03098*
X01424Y03104*
X01419Y03109*
X01413Y03111*
G37*
G36*
X00733Y03114D02*
X00726D01*
X00718Y03111*
X00713Y03106*
X0071Y03098*
Y03091*
X00713Y03083*
X00718Y03078*
X00726Y03075*
X00733*
X00741Y03078*
X00746Y03083*
X00749Y03091*
Y03098*
X00746Y03106*
X00741Y03111*
X00733Y03114*
G37*
G36*
X02098Y03101D02*
X02091D01*
X02085Y03099*
X0208Y03094*
X02078Y03088*
Y03081*
X0208Y03075*
X02085Y0307*
X02091Y03068*
X02098*
X02104Y0307*
X02109Y03075*
X02111Y03081*
Y03088*
X02109Y03094*
X02104Y03099*
X02098Y03101*
G37*
G36*
X01253D02*
X01246D01*
X0124Y03099*
X01235Y03094*
X01233Y03088*
Y03081*
X01235Y03075*
X0124Y0307*
X01246Y03068*
X01253*
X01259Y0307*
X01264Y03075*
X01266Y03081*
Y03088*
X01264Y03094*
X01259Y03099*
X01253Y03101*
G37*
G36*
X01175Y03101D02*
X01167D01*
X0116Y03098*
X01154Y03092*
X01151Y03085*
Y03077*
X01154Y0307*
X0116Y03064*
X01167Y03061*
X01175*
X01182Y03064*
X01183Y03065*
X01187Y03063*
X01188Y03063*
Y03056*
X0119Y0305*
X01195Y03045*
X01201Y03043*
X01208*
X01214Y03045*
X01219Y0305*
X01221Y03056*
Y03063*
X01219Y03069*
X01214Y03074*
X01208Y03076*
X01201*
X01195Y03074*
X01195Y03074*
X01191Y03076*
X01191Y03077*
Y03085*
X01188Y03092*
X01182Y03098*
X01175Y03101*
G37*
G36*
X02393Y03064D02*
X02386D01*
X02378Y03061*
X02373Y03056*
X0237Y03048*
Y03041*
X02373Y03033*
X02378Y03028*
X02386Y03025*
X02393*
X02401Y03028*
X02406Y03033*
X02409Y03041*
Y03048*
X02406Y03056*
X02401Y03061*
X02393Y03064*
G37*
G36*
X00445Y03081D02*
X00435D01*
X00426Y03079*
X00418Y03074*
X00412Y03068*
X00407Y0306*
X00405Y03051*
Y03041*
X00407Y03032*
X00412Y03024*
X00418Y03018*
X00426Y03013*
X00435Y03011*
X00445*
X00454Y03013*
X00462Y03018*
X00468Y03024*
X00473Y03032*
X00475Y03041*
Y03051*
X00473Y0306*
X00468Y03068*
X00462Y03074*
X00454Y03079*
X00445Y03081*
G37*
G36*
X00345D02*
X00335D01*
X00326Y03079*
X00318Y03074*
X00312Y03068*
X00307Y0306*
X00305Y03051*
Y03041*
X00307Y03032*
X00312Y03024*
X00318Y03018*
X00326Y03013*
X00335Y03011*
X00345*
X00354Y03013*
X00362Y03018*
X00368Y03024*
X00373Y03032*
X00375Y03041*
Y03051*
X00373Y0306*
X00368Y03068*
X00362Y03074*
X00354Y03079*
X00345Y03081*
G37*
G36*
X00245D02*
X00235D01*
X00226Y03079*
X00218Y03074*
X00212Y03068*
X00207Y0306*
X00205Y03051*
Y03041*
X00207Y03032*
X00212Y03024*
X00218Y03018*
X00226Y03013*
X00235Y03011*
X00245*
X00254Y03013*
X00262Y03018*
X00268Y03024*
X00273Y03032*
X00275Y03041*
Y03051*
X00273Y0306*
X00268Y03068*
X00262Y03074*
X00254Y03079*
X00245Y03081*
G37*
G36*
X00145D02*
X00135D01*
X00126Y03079*
X00118Y03074*
X00112Y03068*
X00107Y0306*
X00105Y03051*
Y03041*
X00107Y03032*
X00112Y03024*
X00118Y03018*
X00126Y03013*
X00135Y03011*
X00145*
X00154Y03013*
X00162Y03018*
X00168Y03024*
X00173Y03032*
X00175Y03041*
Y03051*
X00173Y0306*
X00168Y03068*
X00162Y03074*
X00154Y03079*
X00145Y03081*
G37*
G36*
X02393Y03004D02*
X02386D01*
X02378Y03001*
X02373Y02996*
X0237Y02988*
Y02981*
X02373Y02973*
X02378Y02968*
X02386Y02965*
X02393*
X02401Y02968*
X02406Y02973*
X02409Y02981*
Y02988*
X02406Y02996*
X02401Y03001*
X02393Y03004*
G37*
G36*
X03174Y03003D02*
X03165D01*
X03156Y03*
X03149Y02993*
X03146Y02984*
Y02975*
X03149Y02966*
X03156Y02959*
X03165Y02956*
X03174*
X03183Y02959*
X0319Y02966*
X03193Y02975*
Y02984*
X0319Y02993*
X03183Y03*
X03174Y03003*
G37*
G36*
X01188Y03021D02*
X01181D01*
X01175Y03019*
X0117Y03014*
X01168Y03008*
Y03001*
X0117Y02995*
X01174Y02991*
X01174Y02987*
X01174Y02985*
X0117Y02984*
X01165Y02979*
X01163Y02973*
Y02966*
X01165Y0296*
X0117Y02955*
X01176Y02953*
X01183*
X01189Y02955*
X01194Y0296*
X01196Y02966*
Y02973*
X01194Y02979*
X0119Y02983*
X0119Y02987*
X0119Y02989*
X01194Y0299*
X01199Y02995*
X01201Y03001*
Y03008*
X01199Y03014*
X01194Y03019*
X01188Y03021*
G37*
G36*
X0073Y02984D02*
X00724D01*
X00717Y02981*
X00713Y02977*
X0071Y0297*
Y02964*
X00713Y02957*
X00717Y02953*
X00724Y0295*
X0073*
X00737Y02953*
X00741Y02957*
X00744Y02964*
Y0297*
X00741Y02977*
X00737Y02981*
X0073Y02984*
G37*
G36*
X03093Y02961D02*
X03086D01*
X0308Y02959*
X03075Y02954*
X03073Y02948*
Y02941*
X03075Y02935*
X0308Y0293*
X03086Y02928*
X03093*
X03099Y0293*
X03104Y02935*
X03106Y02941*
Y02948*
X03104Y02954*
X03099Y02959*
X03093Y02961*
G37*
G36*
X00854Y02973D02*
X00845D01*
X00836Y0297*
X00829Y02963*
X00826Y02954*
Y02945*
X00829Y02936*
X00836Y02929*
X00845Y02926*
X00854*
X00863Y02929*
X0087Y02936*
X00873Y02945*
Y02954*
X0087Y02963*
X00863Y0297*
X00854Y02973*
G37*
G36*
X02168Y02959D02*
X02161D01*
X02155Y02956*
X0215Y02952*
X02148Y02945*
Y02939*
X0215Y02932*
X02155Y02928*
X02161Y02925*
X02168*
X02174Y02928*
X02179Y02932*
X02181Y02939*
Y02945*
X02179Y02952*
X02174Y02956*
X02168Y02959*
G37*
G36*
X01508Y02959D02*
X01501D01*
X01493Y02956*
X01488Y02951*
X01485Y02943*
Y02936*
X01488Y02928*
X01493Y02923*
X01501Y0292*
X01508*
X01516Y02923*
X01521Y02928*
X01524Y02936*
Y02943*
X01521Y02951*
X01516Y02956*
X01508Y02959*
G37*
G36*
X03168Y02946D02*
X03161D01*
X03155Y02944*
X0315Y02939*
X03148Y02933*
Y02926*
X0315Y0292*
X03155Y02915*
X03161Y02913*
X03168*
X03174Y02915*
X03179Y0292*
X03181Y02926*
Y02933*
X03179Y02939*
X03174Y02944*
X03168Y02946*
G37*
G36*
X00445Y02981D02*
X00435D01*
X00426Y02979*
X00418Y02974*
X00412Y02968*
X00407Y0296*
X00405Y02951*
Y02941*
X00407Y02932*
X00412Y02924*
X00418Y02918*
X00426Y02913*
X00435Y02911*
X00445*
X00454Y02913*
X00462Y02918*
X00468Y02924*
X00473Y02932*
X00475Y02941*
Y02951*
X00473Y0296*
X00468Y02968*
X00462Y02974*
X00454Y02979*
X00445Y02981*
G37*
G36*
X00345D02*
X00335D01*
X00326Y02979*
X00318Y02974*
X00312Y02968*
X00307Y0296*
X00305Y02951*
Y02941*
X00307Y02932*
X00312Y02924*
X00318Y02918*
X00326Y02913*
X00335Y02911*
X00345*
X00354Y02913*
X00362Y02918*
X00368Y02924*
X00373Y02932*
X00375Y02941*
Y02951*
X00373Y0296*
X00368Y02968*
X00362Y02974*
X00354Y02979*
X00345Y02981*
G37*
G36*
X01084Y02958D02*
X01075D01*
X01066Y02955*
X01059Y02948*
X01056Y02939*
Y0293*
X01059Y02921*
X01066Y02914*
X01075Y02911*
X01084*
X01093Y02914*
X011Y02921*
X01103Y0293*
Y02939*
X011Y02948*
X01093Y02955*
X01084Y02958*
G37*
G36*
X02393Y02944D02*
X02386D01*
X02378Y02941*
X02373Y02936*
X0237Y02928*
Y02921*
X02373Y02913*
X02378Y02908*
X02386Y02905*
X02393*
X02401Y02908*
X02406Y02913*
X02409Y02921*
Y02928*
X02406Y02936*
X02401Y02941*
X02393Y02944*
G37*
G36*
X02048Y02921D02*
X02041D01*
X02035Y02919*
X0203Y02914*
X02028Y02908*
Y02901*
X0203Y02895*
X02035Y0289*
X02041Y02888*
X02048*
X02054Y0289*
X02059Y02895*
X02061Y02901*
Y02908*
X02059Y02914*
X02054Y02919*
X02048Y02921*
G37*
G36*
X01508Y02894D02*
X01501D01*
X01493Y02891*
X01488Y02886*
X01485Y02878*
Y02871*
X01488Y02863*
X01493Y02858*
X01501Y02855*
X01508*
X01516Y02858*
X01521Y02863*
X01524Y02871*
Y02878*
X01521Y02886*
X01516Y02891*
X01508Y02894*
G37*
G36*
X02218Y02864D02*
X02211D01*
X02203Y02861*
X02198Y02856*
X02195Y02848*
Y02841*
X02198Y02833*
X02203Y02828*
X02211Y02825*
X02218*
X02226Y02828*
X02231Y02833*
X02234Y02841*
Y02848*
X02231Y02856*
X02226Y02861*
X02218Y02864*
G37*
G36*
X02143D02*
X02136D01*
X02128Y02861*
X02123Y02856*
X0212Y02848*
Y02841*
X02123Y02833*
X02128Y02828*
X02136Y02825*
X02143*
X02151Y02828*
X02156Y02833*
X02159Y02841*
Y02848*
X02156Y02856*
X02151Y02861*
X02143Y02864*
G37*
G36*
X00445Y02881D02*
X00435D01*
X00426Y02879*
X00418Y02874*
X00412Y02868*
X00407Y0286*
X00405Y02851*
Y02841*
X00407Y02832*
X00412Y02824*
X00418Y02818*
X00426Y02813*
X00435Y02811*
X00445*
X00454Y02813*
X00462Y02818*
X00468Y02824*
X00473Y02832*
X00475Y02841*
Y02851*
X00473Y0286*
X00468Y02868*
X00462Y02874*
X00454Y02879*
X00445Y02881*
G37*
G36*
X00345D02*
X00335D01*
X00326Y02879*
X00318Y02874*
X00312Y02868*
X00307Y0286*
X00305Y02851*
Y02841*
X00307Y02832*
X00312Y02824*
X00318Y02818*
X00326Y02813*
X00335Y02811*
X00345*
X00354Y02813*
X00362Y02818*
X00368Y02824*
X00373Y02832*
X00375Y02841*
Y02851*
X00373Y0286*
X00368Y02868*
X00362Y02874*
X00354Y02879*
X00345Y02881*
G37*
G36*
X00245D02*
X00235D01*
X00226Y02879*
X00218Y02874*
X00212Y02868*
X00207Y0286*
X00205Y02851*
Y02841*
X00207Y02832*
X00212Y02824*
X00218Y02818*
X00226Y02813*
X00235Y02811*
X00245*
X00254Y02813*
X00262Y02818*
X00268Y02824*
X00273Y02832*
X00275Y02841*
Y02851*
X00273Y0286*
X00268Y02868*
X00262Y02874*
X00254Y02879*
X00245Y02881*
G37*
G36*
X00145D02*
X00135D01*
X00126Y02879*
X00118Y02874*
X00112Y02868*
X00107Y0286*
X00105Y02851*
Y02841*
X00107Y02832*
X00112Y02824*
X00118Y02818*
X00126Y02813*
X00135Y02811*
X00145*
X00154Y02813*
X00162Y02818*
X00168Y02824*
X00173Y02832*
X00175Y02841*
Y02851*
X00173Y0286*
X00168Y02868*
X00162Y02874*
X00154Y02879*
X00145Y02881*
G37*
G36*
X02533Y02831D02*
X02526D01*
X0252Y02829*
X02515Y02824*
X02513Y02818*
Y02811*
X02515Y02805*
X0252Y028*
X02526Y02798*
X02533*
X02539Y028*
X02544Y02805*
X02546Y02811*
Y02818*
X02544Y02824*
X02539Y02829*
X02533Y02831*
G37*
G36*
X01903Y02814D02*
X01896D01*
X01888Y02811*
X01883Y02806*
X0188Y02798*
Y02791*
X01883Y02783*
X01888Y02778*
X01896Y02775*
X01903*
X01911Y02778*
X01916Y02783*
X01919Y02791*
Y02798*
X01916Y02806*
X01911Y02811*
X01903Y02814*
G37*
G36*
X03263Y02801D02*
X03256D01*
X0325Y02799*
X03245Y02794*
X03243Y02788*
Y02781*
X03245Y02775*
X0325Y0277*
X03256Y02768*
X03263*
X03269Y0277*
X03274Y02775*
X03276Y02781*
Y02788*
X03274Y02794*
X03269Y02799*
X03263Y02801*
G37*
G36*
X02533Y02781D02*
X02526D01*
X0252Y02779*
X02515Y02774*
X02513Y02768*
Y02761*
X02515Y02755*
X0252Y0275*
X02526Y02748*
X02533*
X02539Y0275*
X02544Y02755*
X02546Y02761*
Y02768*
X02544Y02774*
X02539Y02779*
X02533Y02781*
G37*
G36*
X00445Y02781D02*
X00435D01*
X00426Y02779*
X00418Y02774*
X00412Y02768*
X00407Y0276*
X00405Y02751*
Y02741*
X00407Y02732*
X00412Y02724*
X00418Y02718*
X00426Y02713*
X00435Y02711*
X00445*
X00454Y02713*
X00462Y02718*
X00468Y02724*
X00473Y02732*
X00475Y02741*
Y02751*
X00473Y0276*
X00468Y02768*
X00462Y02774*
X00454Y02779*
X00445Y02781*
G37*
G36*
X00345D02*
X00335D01*
X00326Y02779*
X00318Y02774*
X00312Y02768*
X00307Y0276*
X00305Y02751*
Y02741*
X00307Y02732*
X00312Y02724*
X00318Y02718*
X00326Y02713*
X00335Y02711*
X00345*
X00354Y02713*
X00362Y02718*
X00368Y02724*
X00373Y02732*
X00375Y02741*
Y02751*
X00373Y0276*
X00368Y02768*
X00362Y02774*
X00354Y02779*
X00345Y02781*
G37*
G36*
X00245D02*
X00235D01*
X00226Y02779*
X00218Y02774*
X00212Y02768*
X00207Y0276*
X00205Y02751*
Y02741*
X00207Y02732*
X00212Y02724*
X00218Y02718*
X00226Y02713*
X00235Y02711*
X00245*
X00254Y02713*
X00262Y02718*
X00268Y02724*
X00273Y02732*
X00275Y02741*
Y02751*
X00273Y0276*
X00268Y02768*
X00262Y02774*
X00254Y02779*
X00245Y02781*
G37*
G36*
X00145D02*
X00135D01*
X00126Y02779*
X00118Y02774*
X00112Y02768*
X00107Y0276*
X00105Y02751*
Y02741*
X00107Y02732*
X00112Y02724*
X00118Y02718*
X00126Y02713*
X00135Y02711*
X00145*
X00154Y02713*
X00162Y02718*
X00168Y02724*
X00173Y02732*
X00175Y02741*
Y02751*
X00173Y0276*
X00168Y02768*
X00162Y02774*
X00154Y02779*
X00145Y02781*
G37*
G36*
X01273Y02721D02*
X01266D01*
X0126Y02719*
X01255Y02714*
X01253Y02708*
Y02701*
X01255Y02695*
X0126Y0269*
X01266Y02688*
X01273*
X01279Y0269*
X01284Y02695*
X01286Y02701*
Y02708*
X01284Y02714*
X01279Y02719*
X01273Y02721*
G37*
G36*
X01754Y02728D02*
X01745D01*
X01736Y02725*
X01729Y02718*
X01726Y02709*
Y027*
X01729Y02691*
X01736Y02684*
X01745Y02681*
X01754*
X01763Y02684*
X0177Y02691*
X01773Y027*
Y02709*
X0177Y02718*
X01763Y02725*
X01754Y02728*
G37*
G36*
X03416Y02708D02*
X03408D01*
X03401Y02705*
X03395Y02699*
X03392Y02692*
Y02684*
X03395Y02677*
X03401Y02671*
X03408Y02668*
X03416*
X03423Y02671*
X03429Y02677*
X03432Y02684*
Y02692*
X03429Y02699*
X03423Y02705*
X03416Y02708*
G37*
G36*
X02513Y02671D02*
X02506D01*
X025Y02669*
X02495Y02664*
X02493Y02658*
Y02651*
X02495Y02645*
X025Y0264*
X02506Y02638*
X02513*
X02519Y0264*
X02524Y02645*
X02526Y02651*
Y02658*
X02524Y02664*
X02519Y02669*
X02513Y02671*
G37*
G36*
X01273D02*
X01266D01*
X0126Y02669*
X01255Y02664*
X01253Y02658*
Y02651*
X01255Y02645*
X0126Y0264*
X01266Y02638*
X01273*
X01279Y0264*
X01284Y02645*
X01286Y02651*
Y02658*
X01284Y02664*
X01279Y02669*
X01273Y02671*
G37*
G36*
X00445Y02681D02*
X00435D01*
X00426Y02679*
X00418Y02674*
X00412Y02668*
X00407Y0266*
X00405Y02651*
Y02641*
X00407Y02632*
X00412Y02624*
X00418Y02618*
X00426Y02613*
X00435Y02611*
X00445*
X00454Y02613*
X00462Y02618*
X00468Y02624*
X00473Y02632*
X00475Y02641*
Y02651*
X00473Y0266*
X00468Y02668*
X00462Y02674*
X00454Y02679*
X00445Y02681*
G37*
G36*
X00345D02*
X00335D01*
X00326Y02679*
X00318Y02674*
X00312Y02668*
X00307Y0266*
X00305Y02651*
Y02641*
X00307Y02632*
X00312Y02624*
X00318Y02618*
X00326Y02613*
X00335Y02611*
X00345*
X00354Y02613*
X00362Y02618*
X00368Y02624*
X00373Y02632*
X00375Y02641*
Y02651*
X00373Y0266*
X00368Y02668*
X00362Y02674*
X00354Y02679*
X00345Y02681*
G37*
G36*
X00245D02*
X00235D01*
X00226Y02679*
X00218Y02674*
X00212Y02668*
X00207Y0266*
X00205Y02651*
Y02641*
X00207Y02632*
X00212Y02624*
X00218Y02618*
X00226Y02613*
X00235Y02611*
X00245*
X00254Y02613*
X00262Y02618*
X00268Y02624*
X00273Y02632*
X00275Y02641*
Y02651*
X00273Y0266*
X00268Y02668*
X00262Y02674*
X00254Y02679*
X00245Y02681*
G37*
G36*
X00145D02*
X00135D01*
X00126Y02679*
X00118Y02674*
X00112Y02668*
X00107Y0266*
X00105Y02651*
Y02641*
X00107Y02632*
X00112Y02624*
X00118Y02618*
X00126Y02613*
X00135Y02611*
X00145*
X00154Y02613*
X00162Y02618*
X00168Y02624*
X00173Y02632*
X00175Y02641*
Y02651*
X00173Y0266*
X00168Y02668*
X00162Y02674*
X00154Y02679*
X00145Y02681*
G37*
G36*
X03417Y02634D02*
X03409D01*
X03402Y02631*
X03396Y02626*
X03393Y02618*
Y02611*
X03396Y02603*
X03402Y02598*
X03409Y02595*
X03417*
X03424Y02598*
X0343Y02603*
X03433Y02611*
Y02618*
X0343Y02626*
X03424Y02631*
X03417Y02634*
G37*
G36*
X03257Y02625D02*
X0325D01*
X03244Y02623*
X03239Y02618*
X03236Y02612*
Y02605*
X03239Y02599*
X03244Y02594*
X0325Y02591*
X03257*
X03263Y02594*
X03268Y02599*
X0327Y02605*
Y02612*
X03268Y02618*
X03263Y02623*
X03257Y02625*
G37*
G36*
X02424Y02633D02*
X02415D01*
X02406Y0263*
X02399Y02623*
X02396Y02614*
Y02605*
X02399Y02596*
X02406Y02589*
X02415Y02586*
X02424*
X02433Y02589*
X0244Y02596*
X02443Y02605*
Y02614*
X0244Y02623*
X02433Y0263*
X02424Y02633*
G37*
G36*
X02533Y02626D02*
X02526D01*
X0252Y02624*
X02515Y02619*
X02513Y02613*
Y02606*
X02515Y026*
X0252Y02595*
X02521Y02595*
Y02589*
X0252Y02589*
X02515Y02584*
X02513Y02578*
Y02571*
X02515Y02565*
X0252Y0256*
X02526Y02558*
X02533*
X02539Y0256*
X02544Y02565*
X02546Y02571*
Y02578*
X02544Y02584*
X02539Y02589*
X02538Y02589*
Y02595*
X02539Y02595*
X02544Y026*
X02546Y02606*
Y02613*
X02544Y02619*
X02539Y02624*
X02533Y02626*
G37*
G36*
X03258Y02561D02*
X03251D01*
X03245Y02559*
X0324Y02554*
X03238Y02548*
Y02541*
X0324Y02535*
X03245Y0253*
X03251Y02528*
X03258*
X03264Y0253*
X03269Y02535*
X03271Y02541*
Y02548*
X03269Y02554*
X03264Y02559*
X03258Y02561*
G37*
G36*
X00445Y02581D02*
X00435D01*
X00426Y02579*
X00418Y02574*
X00412Y02568*
X00407Y0256*
X00405Y02551*
Y02541*
X00407Y02532*
X00412Y02524*
X00418Y02518*
X00426Y02513*
X00435Y02511*
X00445*
X00454Y02513*
X00462Y02518*
X00468Y02524*
X00473Y02532*
X00475Y02541*
Y02551*
X00473Y0256*
X00468Y02568*
X00462Y02574*
X00454Y02579*
X00445Y02581*
G37*
G36*
X00345D02*
X00335D01*
X00326Y02579*
X00318Y02574*
X00312Y02568*
X00307Y0256*
X00305Y02551*
Y02541*
X00307Y02532*
X00312Y02524*
X00318Y02518*
X00326Y02513*
X00335Y02511*
X00345*
X00354Y02513*
X00362Y02518*
X00368Y02524*
X00373Y02532*
X00375Y02541*
Y02551*
X00373Y0256*
X00368Y02568*
X00362Y02574*
X00354Y02579*
X00345Y02581*
G37*
G36*
X00245D02*
X00235D01*
X00226Y02579*
X00218Y02574*
X00212Y02568*
X00207Y0256*
X00205Y02551*
Y02541*
X00207Y02532*
X00212Y02524*
X00218Y02518*
X00226Y02513*
X00235Y02511*
X00245*
X00254Y02513*
X00262Y02518*
X00268Y02524*
X00273Y02532*
X00275Y02541*
Y02551*
X00273Y0256*
X00268Y02568*
X00262Y02574*
X00254Y02579*
X00245Y02581*
G37*
G36*
X00145D02*
X00135D01*
X00126Y02579*
X00118Y02574*
X00112Y02568*
X00107Y0256*
X00105Y02551*
Y02541*
X00107Y02532*
X00112Y02524*
X00118Y02518*
X00126Y02513*
X00135Y02511*
X00145*
X00154Y02513*
X00162Y02518*
X00168Y02524*
X00173Y02532*
X00175Y02541*
Y02551*
X00173Y0256*
X00168Y02568*
X00162Y02574*
X00154Y02579*
X00145Y02581*
G37*
G36*
X03418Y02504D02*
X03411D01*
X03403Y02501*
X03398Y02496*
X03395Y02488*
Y02481*
X03398Y02473*
X03403Y02468*
X03411Y02465*
X03418*
X03426Y02468*
X03431Y02473*
X03434Y02481*
Y02488*
X03431Y02496*
X03426Y02501*
X03418Y02504*
G37*
G36*
X03258Y02486D02*
X03251D01*
X03245Y02484*
X0324Y02479*
X03238Y02473*
Y02466*
X0324Y0246*
X03245Y02455*
X03251Y02453*
X03258*
X03264Y02455*
X03269Y0246*
X03271Y02466*
Y02473*
X03269Y02479*
X03264Y02484*
X03258Y02486*
G37*
G36*
X02283Y02471D02*
X02276D01*
X0227Y02469*
X02265Y02464*
X02263Y02458*
Y02451*
X02265Y02445*
X0227Y0244*
X02276Y02438*
X02283*
X02289Y0244*
X02294Y02445*
X02296Y02451*
Y02458*
X02294Y02464*
X02289Y02469*
X02283Y02471*
G37*
G36*
X02138D02*
X02131D01*
X02125Y02469*
X0212Y02464*
X02118Y02458*
Y02451*
X0212Y02445*
X02125Y0244*
X02131Y02438*
X02138*
X02144Y0244*
X02149Y02445*
X02151Y02451*
Y02458*
X02149Y02464*
X02144Y02469*
X02138Y02471*
G37*
G36*
X00445Y02481D02*
X00435D01*
X00426Y02479*
X00418Y02474*
X00412Y02468*
X00407Y0246*
X00405Y02451*
Y02441*
X00407Y02432*
X00412Y02424*
X00418Y02418*
X00426Y02413*
X00435Y02411*
X00445*
X00454Y02413*
X00462Y02418*
X00468Y02424*
X00473Y02432*
X00475Y02441*
Y02451*
X00473Y0246*
X00468Y02468*
X00462Y02474*
X00454Y02479*
X00445Y02481*
G37*
G36*
X00345D02*
X00335D01*
X00326Y02479*
X00318Y02474*
X00312Y02468*
X00307Y0246*
X00305Y02451*
Y02441*
X00307Y02432*
X00312Y02424*
X00318Y02418*
X00326Y02413*
X00335Y02411*
X00345*
X00354Y02413*
X00362Y02418*
X00368Y02424*
X00373Y02432*
X00375Y02441*
Y02451*
X00373Y0246*
X00368Y02468*
X00362Y02474*
X00354Y02479*
X00345Y02481*
G37*
G36*
X00245D02*
X00235D01*
X00226Y02479*
X00218Y02474*
X00212Y02468*
X00207Y0246*
X00205Y02451*
Y02441*
X00207Y02432*
X00212Y02424*
X00218Y02418*
X00226Y02413*
X00235Y02411*
X00245*
X00254Y02413*
X00262Y02418*
X00268Y02424*
X00273Y02432*
X00275Y02441*
Y02451*
X00273Y0246*
X00268Y02468*
X00262Y02474*
X00254Y02479*
X00245Y02481*
G37*
G36*
X00145D02*
X00135D01*
X00126Y02479*
X00118Y02474*
X00112Y02468*
X00107Y0246*
X00105Y02451*
Y02441*
X00107Y02432*
X00112Y02424*
X00118Y02418*
X00126Y02413*
X00135Y02411*
X00145*
X00154Y02413*
X00162Y02418*
X00168Y02424*
X00173Y02432*
X00175Y02441*
Y02451*
X00173Y0246*
X00168Y02468*
X00162Y02474*
X00154Y02479*
X00145Y02481*
G37*
G36*
X02534Y02437D02*
X02528D01*
X02521Y02434*
X02517Y02429*
X02514Y02423*
Y02416*
X02517Y0241*
X02521Y02405*
X02528Y02403*
X02534*
X0254Y02405*
X02545Y0241*
X02548Y02416*
Y02423*
X02545Y02429*
X0254Y02434*
X02534Y02437*
G37*
G36*
X01335Y02445D02*
D01*
X0123*
X01226Y02443*
X01224Y0244*
Y02386*
X00715*
Y02415*
X00715Y02416*
Y02417*
X00713Y02421*
X00712Y02421*
X00712Y02422*
X00709Y02425*
X00708Y02426*
X00707Y02427*
X00703Y02428*
X00702*
X00701Y02429*
X00588*
X00587Y02428*
X00586*
X00583Y02427*
X00582Y02426*
X00581Y02426*
X00578Y02423*
X00578Y02422*
X00577Y02421*
X00576Y02418*
Y02417*
X00575Y02416*
Y02327*
X00576Y02326*
Y02325*
X00578Y0232*
X00579Y02319*
X00579Y02318*
X00583Y02314*
X00584Y02314*
X00585Y02313*
X0059Y02311*
X00591*
X00592Y0231*
X00593*
X00593Y0231*
X00594Y0231*
X00594Y0231*
X00595*
X00596Y02309*
X00596Y02309*
X00644*
Y0214*
X00646Y02136*
X0065Y02134*
X0071*
X00713Y02136*
X00715Y0214*
Y02363*
X01212*
X01215Y02358*
X01214Y02357*
Y02265*
X01216Y02261*
X01226Y02251*
X0123Y02249*
X0127*
X01273Y02251*
X01283Y02261*
X01285Y02265*
Y02287*
X01297Y02299*
X0134*
X01343Y02301*
X01348Y02306*
X0135Y0231*
Y0243*
X01348Y02433*
X01338Y02443*
X01335Y02445*
G37*
G36*
X02283Y02371D02*
X02276D01*
X0227Y02369*
X02265Y02364*
X02263Y02358*
Y02351*
X02265Y02345*
X0227Y0234*
X02276Y02338*
X02283*
X02289Y0234*
X02294Y02345*
X02296Y02351*
Y02358*
X02294Y02364*
X02289Y02369*
X02283Y02371*
G37*
G36*
X02138D02*
X02131D01*
X02125Y02369*
X0212Y02364*
X02118Y02358*
Y02351*
X0212Y02345*
X02125Y0234*
X02131Y02338*
X02138*
X02144Y0234*
X02149Y02345*
X02151Y02351*
Y02358*
X02149Y02364*
X02144Y02369*
X02138Y02371*
G37*
G36*
X03418Y02374D02*
X03411D01*
X03403Y02371*
X03398Y02366*
X03395Y02358*
Y02351*
X03398Y02343*
X03403Y02338*
X03411Y02335*
X03418*
X03426Y02338*
X03431Y02343*
X03434Y02351*
Y02358*
X03431Y02366*
X03426Y02371*
X03418Y02374*
G37*
G36*
X0251Y02366D02*
X02503D01*
X02497Y02363*
X02493Y02358*
X0249Y02352*
Y02345*
X02493Y02339*
X02497Y02335*
X02503Y02332*
X0251*
X02516Y02335*
X02521Y02339*
X02524Y02345*
Y02352*
X02521Y02358*
X02516Y02363*
X0251Y02366*
G37*
G36*
X00445Y02381D02*
X00435D01*
X00426Y02379*
X00418Y02374*
X00412Y02368*
X00407Y0236*
X00405Y02351*
Y02341*
X00407Y02332*
X00412Y02324*
X00418Y02318*
X00426Y02313*
X00435Y02311*
X00445*
X00454Y02313*
X00462Y02318*
X00468Y02324*
X00473Y02332*
X00475Y02341*
Y02351*
X00473Y0236*
X00468Y02368*
X00462Y02374*
X00454Y02379*
X00445Y02381*
G37*
G36*
X00345D02*
X00335D01*
X00326Y02379*
X00318Y02374*
X00312Y02368*
X00307Y0236*
X00305Y02351*
Y02341*
X00307Y02332*
X00312Y02324*
X00318Y02318*
X00326Y02313*
X00335Y02311*
X00345*
X00354Y02313*
X00362Y02318*
X00368Y02324*
X00373Y02332*
X00375Y02341*
Y02351*
X00373Y0236*
X00368Y02368*
X00362Y02374*
X00354Y02379*
X00345Y02381*
G37*
G36*
X00245D02*
X00235D01*
X00226Y02379*
X00218Y02374*
X00212Y02368*
X00207Y0236*
X00205Y02351*
Y02341*
X00207Y02332*
X00212Y02324*
X00218Y02318*
X00226Y02313*
X00235Y02311*
X00245*
X00254Y02313*
X00262Y02318*
X00268Y02324*
X00273Y02332*
X00275Y02341*
Y02351*
X00273Y0236*
X00268Y02368*
X00262Y02374*
X00254Y02379*
X00245Y02381*
G37*
G36*
X00145D02*
X00135D01*
X00126Y02379*
X00118Y02374*
X00112Y02368*
X00107Y0236*
X00105Y02351*
Y02341*
X00107Y02332*
X00112Y02324*
X00118Y02318*
X00126Y02313*
X00135Y02311*
X00145*
X00154Y02313*
X00162Y02318*
X00168Y02324*
X00173Y02332*
X00175Y02341*
Y02351*
X00173Y0236*
X00168Y02368*
X00162Y02374*
X00154Y02379*
X00145Y02381*
G37*
G36*
X03313Y02331D02*
X03306D01*
X033Y02329*
X03295Y02324*
X03293Y02318*
Y02311*
X03295Y02305*
X033Y023*
X03306Y02298*
X03313*
X03319Y023*
X03324Y02305*
X03326Y02311*
Y02318*
X03324Y02324*
X03319Y02329*
X03313Y02331*
G37*
G36*
X00802Y02322D02*
X00797D01*
X00792Y0232*
X00789Y02317*
X00787Y02312*
Y02307*
X00789Y02302*
X00792Y02299*
X00797Y02297*
X00802*
X00807Y02299*
X0081Y02302*
X00812Y02307*
Y02312*
X0081Y02317*
X00807Y0232*
X00802Y02322*
G37*
G36*
X00578Y02301D02*
X00571D01*
X00565Y02299*
X0056Y02294*
X00558Y02288*
Y02281*
X0056Y02275*
X00565Y0227*
X00571Y02268*
X00578*
X00584Y0227*
X00589Y02275*
X00591Y02281*
Y02288*
X00589Y02294*
X00584Y02299*
X00578Y02301*
G37*
G36*
X00787Y02267D02*
X00782D01*
X00777Y02265*
X00774Y02262*
X00772Y02257*
Y02252*
X00774Y02247*
X00777Y02244*
X00782Y02242*
X00783*
X00787Y02238*
Y02233*
X00789Y02228*
X00792Y02224*
X00797Y02222*
X00802*
X00807Y02224*
X00811Y02228*
X00813Y02233*
Y02238*
X00811Y02242*
X00807Y02246*
X00802Y02248*
X00801*
X00797Y02252*
Y02257*
X00795Y02262*
X00792Y02265*
X00787Y02267*
G37*
G36*
X00445Y02281D02*
X00435D01*
X00426Y02279*
X00418Y02274*
X00412Y02268*
X00407Y0226*
X00405Y02251*
Y02241*
X00407Y02232*
X00412Y02224*
X00418Y02218*
X00426Y02213*
X00435Y02211*
X00445*
X00454Y02213*
X00462Y02218*
X00468Y02224*
X00473Y02232*
X00475Y02241*
Y02251*
X00473Y0226*
X00468Y02268*
X00462Y02274*
X00454Y02279*
X00445Y02281*
G37*
G36*
X00345D02*
X00335D01*
X00326Y02279*
X00318Y02274*
X00312Y02268*
X00307Y0226*
X00305Y02251*
Y02241*
X00307Y02232*
X00312Y02224*
X00318Y02218*
X00326Y02213*
X00335Y02211*
X00345*
X00354Y02213*
X00362Y02218*
X00368Y02224*
X00373Y02232*
X00375Y02241*
Y02251*
X00373Y0226*
X00368Y02268*
X00362Y02274*
X00354Y02279*
X00345Y02281*
G37*
G36*
X00245D02*
X00235D01*
X00226Y02279*
X00218Y02274*
X00212Y02268*
X00207Y0226*
X00205Y02251*
Y02241*
X00207Y02232*
X00212Y02224*
X00218Y02218*
X00226Y02213*
X00235Y02211*
X00245*
X00254Y02213*
X00262Y02218*
X00268Y02224*
X00273Y02232*
X00275Y02241*
Y02251*
X00273Y0226*
X00268Y02268*
X00262Y02274*
X00254Y02279*
X00245Y02281*
G37*
G36*
X00145D02*
X00135D01*
X00126Y02279*
X00118Y02274*
X00112Y02268*
X00107Y0226*
X00105Y02251*
Y02241*
X00107Y02232*
X00112Y02224*
X00118Y02218*
X00126Y02213*
X00135Y02211*
X00145*
X00154Y02213*
X00162Y02218*
X00168Y02224*
X00173Y02232*
X00175Y02241*
Y02251*
X00173Y0226*
X00168Y02268*
X00162Y02274*
X00154Y02279*
X00145Y02281*
G37*
G36*
X02973Y02216D02*
X02966D01*
X0296Y02214*
X02955Y02209*
X02953Y02203*
Y02196*
X02955Y0219*
X0296Y02185*
X02966Y02183*
X02973*
X02979Y02185*
X02984Y0219*
X02986Y02196*
Y02203*
X02984Y02209*
X02979Y02214*
X02973Y02216*
G37*
G36*
X02933D02*
X02926D01*
X0292Y02214*
X02915Y02209*
X02913Y02203*
Y02196*
X02915Y0219*
X0292Y02185*
X02926Y02183*
X02933*
X02939Y02185*
X02944Y0219*
X02946Y02196*
Y02203*
X02944Y02209*
X02939Y02214*
X02933Y02216*
G37*
G36*
X02768Y02184D02*
X02761D01*
X02753Y02181*
X02748Y02176*
X02745Y02168*
Y02161*
X02748Y02153*
X02753Y02148*
X02761Y02145*
X02768*
X02776Y02148*
X02781Y02153*
X02784Y02161*
Y02168*
X02781Y02176*
X02776Y02181*
X02768Y02184*
G37*
G36*
X00445Y02181D02*
X00435D01*
X00426Y02179*
X00418Y02174*
X00412Y02168*
X00407Y0216*
X00405Y02151*
Y02141*
X00407Y02132*
X00412Y02124*
X00418Y02118*
X00426Y02113*
X00435Y02111*
X00445*
X00454Y02113*
X00462Y02118*
X00468Y02124*
X00473Y02132*
X00475Y02141*
Y02151*
X00473Y0216*
X00468Y02168*
X00462Y02174*
X00454Y02179*
X00445Y02181*
G37*
G36*
X00345D02*
X00335D01*
X00326Y02179*
X00318Y02174*
X00312Y02168*
X00307Y0216*
X00305Y02151*
Y02141*
X00307Y02132*
X00312Y02124*
X00318Y02118*
X00326Y02113*
X00335Y02111*
X00345*
X00354Y02113*
X00362Y02118*
X00368Y02124*
X00373Y02132*
X00375Y02141*
Y02151*
X00373Y0216*
X00368Y02168*
X00362Y02174*
X00354Y02179*
X00345Y02181*
G37*
G36*
X00245D02*
X00235D01*
X00226Y02179*
X00218Y02174*
X00212Y02168*
X00207Y0216*
X00205Y02151*
Y02141*
X00207Y02132*
X00212Y02124*
X00218Y02118*
X00226Y02113*
X00235Y02111*
X00245*
X00254Y02113*
X00262Y02118*
X00268Y02124*
X00273Y02132*
X00275Y02141*
Y02151*
X00273Y0216*
X00268Y02168*
X00262Y02174*
X00254Y02179*
X00245Y02181*
G37*
G36*
X00145D02*
X00135D01*
X00126Y02179*
X00118Y02174*
X00112Y02168*
X00107Y0216*
X00105Y02151*
Y02141*
X00107Y02132*
X00112Y02124*
X00118Y02118*
X00126Y02113*
X00135Y02111*
X00145*
X00154Y02113*
X00162Y02118*
X00168Y02124*
X00173Y02132*
X00175Y02141*
Y02151*
X00173Y0216*
X00168Y02168*
X00162Y02174*
X00154Y02179*
X00145Y02181*
G37*
G36*
X02694Y02141D02*
X02687D01*
X02681Y02138*
X02676Y02133*
X02673Y02127*
Y0212*
X02676Y02114*
X02681Y0211*
X02687Y02107*
X02694*
X027Y0211*
X02705Y02114*
X02707Y0212*
Y02127*
X02705Y02133*
X027Y02138*
X02694Y02141*
G37*
G36*
X02109Y02148D02*
X021D01*
X02091Y02145*
X02084Y02138*
X02081Y02129*
Y0212*
X02084Y02111*
X02091Y02104*
X021Y02101*
X02109*
X02118Y02104*
X02125Y02111*
X02128Y0212*
Y02129*
X02125Y02138*
X02118Y02145*
X02109Y02148*
G37*
G36*
X02218Y02114D02*
X02211D01*
X02203Y02111*
X02198Y02106*
X02195Y02098*
Y02091*
X02198Y02083*
X02203Y02078*
X02211Y02075*
X02218*
X02226Y02078*
X02231Y02083*
X02234Y02091*
Y02098*
X02231Y02106*
X02226Y02111*
X02218Y02114*
G37*
G36*
X02273Y02096D02*
X02266D01*
X0226Y02094*
X02255Y02089*
X02253Y02083*
Y02076*
X02255Y0207*
X0226Y02065*
X02266Y02063*
X02273*
X02279Y02065*
X02284Y0207*
X02286Y02076*
Y02083*
X02284Y02089*
X02279Y02094*
X02273Y02096*
G37*
G36*
X02213Y02051D02*
X02206D01*
X022Y02049*
X02195Y02044*
X02193Y02038*
Y02031*
X02195Y02025*
X022Y0202*
X02206Y02018*
X02213*
X02219Y0202*
X02224Y02025*
X02226Y02031*
Y02038*
X02224Y02044*
X02219Y02049*
X02213Y02051*
G37*
G36*
X00445Y02081D02*
X00435D01*
X00426Y02079*
X00418Y02074*
X00412Y02068*
X00407Y0206*
X00405Y02051*
Y02041*
X00407Y02032*
X00412Y02024*
X00418Y02018*
X00426Y02013*
X00435Y02011*
X00445*
X00454Y02013*
X00462Y02018*
X00468Y02024*
X00473Y02032*
X00475Y02041*
Y02051*
X00473Y0206*
X00468Y02068*
X00462Y02074*
X00454Y02079*
X00445Y02081*
G37*
G36*
X00345D02*
X00335D01*
X00326Y02079*
X00318Y02074*
X00312Y02068*
X00307Y0206*
X00305Y02051*
Y02041*
X00307Y02032*
X00312Y02024*
X00318Y02018*
X00326Y02013*
X00335Y02011*
X00345*
X00354Y02013*
X00362Y02018*
X00368Y02024*
X00373Y02032*
X00375Y02041*
Y02051*
X00373Y0206*
X00368Y02068*
X00362Y02074*
X00354Y02079*
X00345Y02081*
G37*
G36*
X02633Y02049D02*
X02626D01*
X02618Y02046*
X02613Y02041*
X0261Y02033*
Y02026*
X02613Y02018*
X02618Y02013*
X02626Y0201*
X02633*
X02641Y02013*
X02646Y02018*
X02649Y02026*
Y02033*
X02646Y02041*
X02641Y02046*
X02633Y02049*
G37*
G36*
X03413Y0196D02*
X03403D01*
X03395Y01956*
X03388Y01949*
X03384Y01941*
Y01931*
X03388Y01922*
X03395Y01916*
X03403Y01912*
X03413*
X03421Y01916*
X03428Y01922*
X03432Y01931*
Y01941*
X03428Y01949*
X03421Y01956*
X03413Y0196*
G37*
G36*
X00445Y01981D02*
X00435D01*
X00426Y01979*
X00418Y01974*
X00412Y01968*
X00407Y0196*
X00405Y01951*
Y01941*
X00407Y01932*
X00412Y01924*
X00418Y01918*
X00426Y01913*
X00435Y01911*
X00445*
X00454Y01913*
X00462Y01918*
X00468Y01924*
X00473Y01932*
X00475Y01941*
Y01951*
X00473Y0196*
X00468Y01968*
X00462Y01974*
X00454Y01979*
X00445Y01981*
G37*
G36*
X00345D02*
X00335D01*
X00326Y01979*
X00318Y01974*
X00312Y01968*
X00307Y0196*
X00305Y01951*
Y01941*
X00307Y01932*
X00312Y01924*
X00318Y01918*
X00326Y01913*
X00335Y01911*
X00345*
X00354Y01913*
X00362Y01918*
X00368Y01924*
X00373Y01932*
X00375Y01941*
Y01951*
X00373Y0196*
X00368Y01968*
X00362Y01974*
X00354Y01979*
X00345Y01981*
G37*
G36*
X03479Y01958D02*
X0347D01*
X03461Y01955*
X03454Y01948*
X03451Y01939*
Y0193*
X03454Y01921*
X03461Y01914*
X0347Y01911*
X03479*
X03488Y01914*
X03495Y01921*
X03498Y0193*
Y01939*
X03495Y01948*
X03488Y01955*
X03479Y01958*
G37*
G36*
X00758Y01964D02*
X00751D01*
X00743Y01961*
X00738Y01956*
X00735Y01948*
Y01941*
X00738Y01933*
X00743Y01928*
X00744Y01927*
Y01922*
X00743Y01921*
X00738Y01916*
X00735Y01908*
Y01901*
X00738Y01893*
X00743Y01888*
X00751Y01885*
X00758*
X00766Y01888*
X00771Y01893*
X00774Y01901*
Y01908*
X00771Y01916*
X00766Y01921*
X00765Y01922*
Y01927*
X00766Y01928*
X00771Y01933*
X00774Y01941*
Y01948*
X00771Y01956*
X00766Y01961*
X00758Y01964*
G37*
G36*
X00713D02*
X00706D01*
X00698Y01961*
X00693Y01956*
X0069Y01948*
Y01941*
X00693Y01933*
X00698Y01928*
X00699Y01927*
Y01922*
X00698Y01921*
X00693Y01916*
X0069Y01908*
Y01901*
X00693Y01893*
X00698Y01888*
X00706Y01885*
X00713*
X00721Y01888*
X00726Y01893*
X00729Y01901*
Y01908*
X00726Y01916*
X00721Y01921*
X0072Y01922*
Y01927*
X00721Y01928*
X00726Y01933*
X00729Y01941*
Y01948*
X00726Y01956*
X00721Y01961*
X00713Y01964*
G37*
G36*
X03131Y01913D02*
X03122D01*
X03113Y01909*
X03106Y01903*
X03103Y01894*
Y01885*
X03106Y01876*
X03113Y01869*
X03122Y01865*
X03131*
X0314Y01869*
X03146Y01876*
X0315Y01885*
Y01894*
X03146Y01903*
X0314Y01909*
X03131Y01913*
G37*
G36*
X00445Y01881D02*
X00435D01*
X00426Y01879*
X00418Y01874*
X00412Y01868*
X00407Y0186*
X00405Y01851*
Y01841*
X00407Y01832*
X00412Y01824*
X00418Y01818*
X00426Y01813*
X00435Y01811*
X00445*
X00454Y01813*
X00462Y01818*
X00468Y01824*
X00473Y01832*
X00475Y01841*
Y01851*
X00473Y0186*
X00468Y01868*
X00462Y01874*
X00454Y01879*
X00445Y01881*
G37*
G36*
X00345Y01884D02*
X00335D01*
X00325Y01881*
X00317Y01876*
X0031Y01869*
X00305Y01861*
X00302Y01851*
Y01841*
X00305Y01831*
X0031Y01823*
X00317Y01815*
X00325Y0181*
X00335Y01808*
X00345*
X00355Y0181*
X00363Y01815*
X00371Y01823*
X00376Y01831*
X00378Y01841*
Y01851*
X00376Y01861*
X00371Y01869*
X00363Y01876*
X00355Y01881*
X00345Y01884*
G37*
G36*
X00245D02*
X00235D01*
X00225Y01881*
X00217Y01876*
X0021Y01869*
X00205Y01861*
X00202Y01851*
Y01841*
X00205Y01831*
X0021Y01823*
X00217Y01815*
X00225Y0181*
X00235Y01808*
X00245*
X00255Y0181*
X00263Y01815*
X00271Y01823*
X00276Y01831*
X00278Y01841*
Y01851*
X00276Y01861*
X00271Y01869*
X00263Y01876*
X00255Y01881*
X00245Y01884*
G37*
G36*
X00145D02*
X00135D01*
X00125Y01881*
X00117Y01876*
X0011Y01869*
X00105Y01861*
X00102Y01851*
Y01841*
X00105Y01831*
X0011Y01823*
X00117Y01815*
X00125Y0181*
X00135Y01808*
X00145*
X00155Y0181*
X00163Y01815*
X00171Y01823*
X00176Y01831*
X00178Y01841*
Y01851*
X00176Y01861*
X00171Y01869*
X00163Y01876*
X00155Y01881*
X00145Y01884*
G37*
G36*
X02152Y01837D02*
X02145D01*
X02139Y01835*
X02135Y0183*
X02132Y01824*
Y01817*
X02135Y01811*
X02139Y01806*
X02145Y01803*
X02152*
X02158Y01806*
X02163Y01811*
X02166Y01817*
Y01824*
X02163Y0183*
X02158Y01835*
X02152Y01837*
G37*
G36*
X02358Y01836D02*
X02351D01*
X02345Y01834*
X0234Y01829*
X02338Y01823*
Y01816*
X0234Y0181*
X02345Y01805*
X02351Y01803*
X02358*
X02364Y01805*
X02369Y0181*
X02371Y01816*
Y01823*
X02369Y01829*
X02364Y01834*
X02358Y01836*
G37*
G36*
X02083D02*
X02076D01*
X0207Y01834*
X02065Y01829*
X02063Y01823*
Y01816*
X02065Y0181*
X0207Y01805*
X02076Y01803*
X02083*
X02089Y01805*
X02094Y0181*
X02096Y01816*
Y01823*
X02094Y01829*
X02089Y01834*
X02083Y01836*
G37*
G36*
X02213Y01839D02*
X02206D01*
X02198Y01836*
X02193Y01831*
X0219Y01823*
Y01816*
X02193Y01808*
X02198Y01803*
X02206Y018*
X02213*
X02221Y01803*
X02226Y01808*
X02229Y01816*
Y01823*
X02226Y01831*
X02221Y01836*
X02213Y01839*
G37*
G36*
X02018D02*
X02011D01*
X02003Y01836*
X01998Y01831*
X01995Y01823*
Y01816*
X01998Y01808*
X02003Y01803*
X02011Y018*
X02018*
X02026Y01803*
X02031Y01808*
X02034Y01816*
Y01823*
X02031Y01831*
X02026Y01836*
X02018Y01839*
G37*
G36*
X02299Y0184D02*
X02289D01*
X0228Y01837*
X02274Y0183*
X0227Y01821*
Y01812*
X02274Y01803*
X0228Y01797*
X02289Y01793*
X02299*
X02307Y01797*
X02314Y01803*
X02318Y01812*
Y01821*
X02314Y0183*
X02307Y01837*
X02299Y0184*
G37*
G36*
X01903Y01819D02*
X01896D01*
X0189Y01817*
X01885Y01812*
X01883Y01806*
Y01799*
X01885Y01793*
X0189Y01788*
X01896Y01786*
X01903*
X01909Y01788*
X01914Y01793*
X01916Y01799*
Y01806*
X01914Y01812*
X01909Y01817*
X01903Y01819*
G37*
G36*
X01868Y01796D02*
X01861D01*
X01855Y01794*
X0185Y01789*
X01848Y01783*
Y01776*
X0185Y0177*
X01855Y01765*
X01861Y01763*
X01868*
X01874Y01765*
X01879Y0177*
X01881Y01776*
Y01783*
X01879Y01789*
X01874Y01794*
X01868Y01796*
G37*
G36*
X00445Y01781D02*
X00435D01*
X00426Y01779*
X00418Y01774*
X00412Y01768*
X00407Y0176*
X00405Y01751*
Y01741*
X00407Y01732*
X00412Y01724*
X00418Y01718*
X00426Y01713*
X00435Y01711*
X00445*
X00454Y01713*
X00462Y01718*
X00468Y01724*
X00473Y01732*
X00475Y01741*
Y01751*
X00473Y0176*
X00468Y01768*
X00462Y01774*
X00454Y01779*
X00445Y01781*
G37*
G36*
X00345D02*
X00335D01*
X00326Y01779*
X00318Y01774*
X00312Y01768*
X00307Y0176*
X00305Y01751*
Y01741*
X00307Y01732*
X00312Y01724*
X00318Y01718*
X00326Y01713*
X00335Y01711*
X00345*
X00354Y01713*
X00362Y01718*
X00368Y01724*
X00373Y01732*
X00375Y01741*
Y01751*
X00373Y0176*
X00368Y01768*
X00362Y01774*
X00354Y01779*
X00345Y01781*
G37*
G36*
X00245Y01784D02*
X00235D01*
X00225Y01781*
X00217Y01776*
X0021Y01769*
X00205Y01761*
X00202Y01751*
Y01741*
X00205Y01731*
X0021Y01723*
X00217Y01715*
X00225Y0171*
X00235Y01708*
X00245*
X00255Y0171*
X00263Y01715*
X00271Y01723*
X00276Y01731*
X00278Y01741*
Y01751*
X00276Y01761*
X00271Y01769*
X00263Y01776*
X00255Y01781*
X00245Y01784*
G37*
G36*
X00145D02*
X00135D01*
X00125Y01781*
X00117Y01776*
X0011Y01769*
X00105Y01761*
X00102Y01751*
Y01741*
X00105Y01731*
X0011Y01723*
X00117Y01715*
X00125Y0171*
X00135Y01708*
X00145*
X00155Y0171*
X00163Y01715*
X00171Y01723*
X00176Y01731*
X00178Y01741*
Y01751*
X00176Y01761*
X00171Y01769*
X00163Y01776*
X00155Y01781*
X00145Y01784*
G37*
G36*
X03259Y01738D02*
X0325D01*
X03241Y01735*
X03234Y01728*
X03231Y01719*
Y0171*
X03234Y01701*
X03241Y01694*
X0325Y01691*
X03259*
X03268Y01694*
X03275Y01701*
X03278Y0171*
Y01719*
X03275Y01728*
X03268Y01735*
X03259Y01738*
G37*
G36*
X03189D02*
X0318D01*
X03171Y01735*
X03164Y01728*
X03161Y01719*
Y0171*
X03164Y01701*
X03171Y01694*
X0318Y01691*
X03189*
X03198Y01694*
X03205Y01701*
X03208Y0171*
Y01719*
X03205Y01728*
X03198Y01735*
X03189Y01738*
G37*
G36*
X03259Y01678D02*
X0325D01*
X03241Y01675*
X03234Y01668*
X03231Y01659*
Y0165*
X03234Y01641*
X03241Y01634*
X0325Y01631*
X03259*
X03268Y01634*
X03275Y01641*
X03278Y0165*
Y01659*
X03275Y01668*
X03268Y01675*
X03259Y01678*
G37*
G36*
X03189D02*
X0318D01*
X03171Y01675*
X03164Y01668*
X03161Y01659*
Y0165*
X03164Y01641*
X03171Y01634*
X0318Y01631*
X03189*
X03198Y01634*
X03205Y01641*
X03208Y0165*
Y01659*
X03205Y01668*
X03198Y01675*
X03189Y01678*
G37*
G36*
X00445Y01681D02*
X00435D01*
X00426Y01679*
X00418Y01674*
X00412Y01668*
X00407Y0166*
X00405Y01651*
Y01641*
X00407Y01632*
X00412Y01624*
X00418Y01618*
X00426Y01613*
X00435Y01611*
X00445*
X00454Y01613*
X00462Y01618*
X00468Y01624*
X00473Y01632*
X00475Y01641*
Y01651*
X00473Y0166*
X00468Y01668*
X00462Y01674*
X00454Y01679*
X00445Y01681*
G37*
G36*
X00345D02*
X00335D01*
X00326Y01679*
X00318Y01674*
X00312Y01668*
X00307Y0166*
X00305Y01651*
Y01641*
X00307Y01632*
X00312Y01624*
X00318Y01618*
X00326Y01613*
X00335Y01611*
X00345*
X00354Y01613*
X00362Y01618*
X00368Y01624*
X00373Y01632*
X00375Y01641*
Y01651*
X00373Y0166*
X00368Y01668*
X00362Y01674*
X00354Y01679*
X00345Y01681*
G37*
G36*
X00245Y01684D02*
X00235D01*
X00225Y01681*
X00217Y01676*
X0021Y01669*
X00205Y01661*
X00202Y01651*
Y01641*
X00205Y01631*
X0021Y01623*
X00217Y01615*
X00225Y0161*
X00235Y01608*
X00245*
X00255Y0161*
X00263Y01615*
X00271Y01623*
X00276Y01631*
X00278Y01641*
Y01651*
X00276Y01661*
X00271Y01669*
X00263Y01676*
X00255Y01681*
X00245Y01684*
G37*
G36*
X00145D02*
X00135D01*
X00125Y01681*
X00117Y01676*
X0011Y01669*
X00105Y01661*
X00102Y01651*
Y01641*
X00105Y01631*
X0011Y01623*
X00117Y01615*
X00125Y0161*
X00135Y01608*
X00145*
X00155Y0161*
X00163Y01615*
X00171Y01623*
X00176Y01631*
X00178Y01641*
Y01651*
X00176Y01661*
X00171Y01669*
X00163Y01676*
X00155Y01681*
X00145Y01684*
G37*
G36*
X0069Y01672D02*
X00682D01*
X00675Y01669*
X0067Y01663*
X00667Y01656*
Y01648*
X0067Y01641*
X00675Y01635*
X00676Y01635*
Y0163*
X00675Y01629*
X0067Y01623*
X00667Y01616*
Y01608*
X0067Y01601*
X00675Y01595*
X00682Y01592*
X0069*
X00698Y01595*
X00703Y01601*
X00706Y01608*
Y01616*
X00703Y01623*
X00698Y01629*
X00696Y0163*
Y01635*
X00698Y01635*
X00703Y01641*
X00706Y01648*
Y01656*
X00703Y01663*
X00698Y01669*
X0069Y01672*
G37*
G36*
X00645D02*
X00637D01*
X0063Y01669*
X00625Y01663*
X00622Y01656*
Y01648*
X00625Y01641*
X0063Y01635*
X00631Y01635*
Y0163*
X0063Y01629*
X00625Y01623*
X00622Y01616*
Y01608*
X00625Y01601*
X0063Y01595*
X00637Y01592*
X00645*
X00653Y01595*
X00658Y01601*
X00661Y01608*
Y01616*
X00658Y01623*
X00653Y01629*
X00651Y0163*
Y01635*
X00653Y01635*
X00658Y01641*
X00661Y01648*
Y01656*
X00658Y01663*
X00653Y01669*
X00645Y01672*
G37*
G36*
X00445Y01581D02*
X00435D01*
X00426Y01579*
X00418Y01574*
X00412Y01568*
X00407Y0156*
X00405Y01551*
Y01541*
X00407Y01532*
X00412Y01524*
X00418Y01518*
X00426Y01513*
X00435Y01511*
X00445*
X00454Y01513*
X00462Y01518*
X00468Y01524*
X00473Y01532*
X00475Y01541*
Y01551*
X00473Y0156*
X00468Y01568*
X00462Y01574*
X00454Y01579*
X00445Y01581*
G37*
G36*
X00345D02*
X00335D01*
X00326Y01579*
X00318Y01574*
X00312Y01568*
X00307Y0156*
X00305Y01551*
Y01541*
X00307Y01532*
X00312Y01524*
X00318Y01518*
X00326Y01513*
X00335Y01511*
X00345*
X00354Y01513*
X00362Y01518*
X00368Y01524*
X00373Y01532*
X00375Y01541*
Y01551*
X00373Y0156*
X00368Y01568*
X00362Y01574*
X00354Y01579*
X00345Y01581*
G37*
G36*
X00245Y01584D02*
X00235D01*
X00225Y01581*
X00217Y01576*
X0021Y01569*
X00205Y01561*
X00202Y01551*
Y01541*
X00205Y01531*
X0021Y01523*
X00217Y01515*
X00225Y0151*
X00235Y01508*
X00245*
X00255Y0151*
X00263Y01515*
X00271Y01523*
X00276Y01531*
X00278Y01541*
Y01551*
X00276Y01561*
X00271Y01569*
X00263Y01576*
X00255Y01581*
X00245Y01584*
G37*
G36*
X00145D02*
X00135D01*
X00125Y01581*
X00117Y01576*
X0011Y01569*
X00105Y01561*
X00102Y01551*
Y01541*
X00105Y01531*
X0011Y01523*
X00117Y01515*
X00125Y0151*
X00135Y01508*
X00145*
X00155Y0151*
X00163Y01515*
X00171Y01523*
X00176Y01531*
X00178Y01541*
Y01551*
X00176Y01561*
X00171Y01569*
X00163Y01576*
X00155Y01581*
X00145Y01584*
G37*
G36*
X00445Y01481D02*
X00435D01*
X00426Y01479*
X00418Y01474*
X00412Y01468*
X00407Y0146*
X00405Y01451*
Y01441*
X00407Y01432*
X00412Y01424*
X00418Y01418*
X00426Y01413*
X00435Y01411*
X00445*
X00454Y01413*
X00462Y01418*
X00468Y01424*
X00473Y01432*
X00475Y01441*
Y01451*
X00473Y0146*
X00468Y01468*
X00462Y01474*
X00454Y01479*
X00445Y01481*
G37*
G36*
X00345D02*
X00335D01*
X00326Y01479*
X00318Y01474*
X00312Y01468*
X00307Y0146*
X00305Y01451*
Y01441*
X00307Y01432*
X00312Y01424*
X00318Y01418*
X00326Y01413*
X00335Y01411*
X00345*
X00354Y01413*
X00362Y01418*
X00368Y01424*
X00373Y01432*
X00375Y01441*
Y01451*
X00373Y0146*
X00368Y01468*
X00362Y01474*
X00354Y01479*
X00345Y01481*
G37*
G36*
X01594Y01458D02*
X01585D01*
X01576Y01455*
X01569Y01448*
X01566Y01439*
Y0143*
X01569Y01421*
X01576Y01414*
X01585Y01411*
X01594*
X01603Y01414*
X0161Y01421*
X01613Y0143*
Y01439*
X0161Y01448*
X01603Y01455*
X01594Y01458*
G37*
G36*
X01244D02*
X01235D01*
X01226Y01455*
X01219Y01448*
X01216Y01439*
Y0143*
X01219Y01421*
X01226Y01414*
X01235Y01411*
X01244*
X01253Y01414*
X0126Y01421*
X01263Y0143*
Y01439*
X0126Y01448*
X01253Y01455*
X01244Y01458*
G37*
G36*
X00245Y01484D02*
X00235D01*
X00225Y01481*
X00217Y01476*
X0021Y01469*
X00205Y01461*
X00202Y01451*
Y01441*
X00205Y01431*
X0021Y01423*
X00217Y01415*
X00225Y0141*
X00235Y01408*
X00245*
X00255Y0141*
X00263Y01415*
X00271Y01423*
X00276Y01431*
X00278Y01441*
Y01451*
X00276Y01461*
X00271Y01469*
X00263Y01476*
X00255Y01481*
X00245Y01484*
G37*
G36*
X00145D02*
X00135D01*
X00125Y01481*
X00117Y01476*
X0011Y01469*
X00105Y01461*
X00102Y01451*
Y01441*
X00105Y01431*
X0011Y01423*
X00117Y01415*
X00125Y0141*
X00135Y01408*
X00145*
X00155Y0141*
X00163Y01415*
X00171Y01423*
X00176Y01431*
X00178Y01441*
Y01451*
X00176Y01461*
X00171Y01469*
X00163Y01476*
X00155Y01481*
X00145Y01484*
G37*
G36*
X00445Y01384D02*
X00435D01*
X00425Y01381*
X00417Y01376*
X0041Y01369*
X00405Y01361*
X00402Y01351*
Y01341*
X00405Y01331*
X0041Y01323*
X00417Y01315*
X00425Y0131*
X00435Y01308*
X00445*
X00455Y0131*
X00463Y01315*
X00471Y01323*
X00476Y01331*
X00478Y01341*
Y01351*
X00476Y01361*
X00471Y01369*
X00463Y01376*
X00455Y01381*
X00445Y01384*
G37*
G36*
X00345D02*
X00335D01*
X00325Y01381*
X00317Y01376*
X0031Y01369*
X00305Y01361*
X00302Y01351*
Y01341*
X00305Y01331*
X0031Y01323*
X00317Y01315*
X00325Y0131*
X00335Y01308*
X00345*
X00355Y0131*
X00363Y01315*
X00371Y01323*
X00376Y01331*
X00378Y01341*
Y01351*
X00376Y01361*
X00371Y01369*
X00363Y01376*
X00355Y01381*
X00345Y01384*
G37*
G36*
X00245D02*
X00235D01*
X00225Y01381*
X00217Y01376*
X0021Y01369*
X00205Y01361*
X00202Y01351*
Y01341*
X00205Y01331*
X0021Y01323*
X00217Y01315*
X00225Y0131*
X00235Y01308*
X00245*
X00255Y0131*
X00263Y01315*
X00271Y01323*
X00276Y01331*
X00278Y01341*
Y01351*
X00276Y01361*
X00271Y01369*
X00263Y01376*
X00255Y01381*
X00245Y01384*
G37*
G36*
X00145D02*
X00135D01*
X00125Y01381*
X00117Y01376*
X0011Y01369*
X00105Y01361*
X00102Y01351*
Y01341*
X00105Y01331*
X0011Y01323*
X00117Y01315*
X00125Y0131*
X00135Y01308*
X00145*
X00155Y0131*
X00163Y01315*
X00171Y01323*
X00176Y01331*
X00178Y01341*
Y01351*
X00176Y01361*
X00171Y01369*
X00163Y01376*
X00155Y01381*
X00145Y01384*
G37*
G36*
X03314Y01298D02*
X03305D01*
X03296Y01295*
X03289Y01288*
X03286Y01279*
Y0127*
X03289Y01261*
X03296Y01254*
X03305Y01251*
X03314*
X03323Y01254*
X0333Y01261*
X03333Y0127*
Y01279*
X0333Y01288*
X03323Y01295*
X03314Y01298*
G37*
G36*
X01928Y01276D02*
X01921D01*
X01915Y01274*
X0191Y01269*
X01908Y01263*
Y01256*
X0191Y0125*
X01915Y01245*
X01921Y01243*
X01928*
X01934Y01245*
X01939Y0125*
X01941Y01256*
Y01263*
X01939Y01269*
X01934Y01274*
X01928Y01276*
G37*
G36*
X00445Y01281D02*
X00435D01*
X00426Y01279*
X00418Y01274*
X00412Y01268*
X00407Y0126*
X00405Y01251*
Y01241*
X00407Y01232*
X00412Y01224*
X00418Y01218*
X00426Y01213*
X00435Y01211*
X00445*
X00454Y01213*
X00462Y01218*
X00468Y01224*
X00473Y01232*
X00475Y01241*
Y01251*
X00473Y0126*
X00468Y01268*
X00462Y01274*
X00454Y01279*
X00445Y01281*
G37*
G36*
X00345D02*
X00335D01*
X00326Y01279*
X00318Y01274*
X00312Y01268*
X00307Y0126*
X00305Y01251*
Y01241*
X00307Y01232*
X00312Y01224*
X00318Y01218*
X00326Y01213*
X00335Y01211*
X00345*
X00354Y01213*
X00362Y01218*
X00368Y01224*
X00373Y01232*
X00375Y01241*
Y01251*
X00373Y0126*
X00368Y01268*
X00362Y01274*
X00354Y01279*
X00345Y01281*
G37*
G36*
X00245D02*
X00235D01*
X00226Y01279*
X00218Y01274*
X00212Y01268*
X00207Y0126*
X00205Y01251*
Y01241*
X00207Y01232*
X00212Y01224*
X00218Y01218*
X00226Y01213*
X00235Y01211*
X00245*
X00254Y01213*
X00262Y01218*
X00268Y01224*
X00273Y01232*
X00275Y01241*
Y01251*
X00273Y0126*
X00268Y01268*
X00262Y01274*
X00254Y01279*
X00245Y01281*
G37*
G36*
X00145D02*
X00135D01*
X00126Y01279*
X00118Y01274*
X00112Y01268*
X00107Y0126*
X00105Y01251*
Y01241*
X00107Y01232*
X00112Y01224*
X00118Y01218*
X00126Y01213*
X00135Y01211*
X00145*
X00154Y01213*
X00162Y01218*
X00168Y01224*
X00173Y01232*
X00175Y01241*
Y01251*
X00173Y0126*
X00168Y01268*
X00162Y01274*
X00154Y01279*
X00145Y01281*
G37*
G36*
X03349Y01218D02*
X0334D01*
X03331Y01215*
X03324Y01208*
X03321Y01199*
Y0119*
X03324Y01181*
X03331Y01174*
X0334Y01171*
X03349*
X03358Y01174*
X03365Y01181*
X03368Y0119*
Y01199*
X03365Y01208*
X03358Y01215*
X03349Y01218*
G37*
G36*
X00445Y01181D02*
X00435D01*
X00426Y01179*
X00418Y01174*
X00412Y01168*
X00407Y0116*
X00405Y01151*
Y01141*
X00407Y01132*
X00412Y01124*
X00418Y01118*
X00426Y01113*
X00435Y01111*
X00445*
X00454Y01113*
X00462Y01118*
X00468Y01124*
X00473Y01132*
X00475Y01141*
Y01151*
X00473Y0116*
X00468Y01168*
X00462Y01174*
X00454Y01179*
X00445Y01181*
G37*
G36*
X00345D02*
X00335D01*
X00326Y01179*
X00318Y01174*
X00312Y01168*
X00307Y0116*
X00305Y01151*
Y01141*
X00307Y01132*
X00312Y01124*
X00318Y01118*
X00326Y01113*
X00335Y01111*
X00345*
X00354Y01113*
X00362Y01118*
X00368Y01124*
X00373Y01132*
X00375Y01141*
Y01151*
X00373Y0116*
X00368Y01168*
X00362Y01174*
X00354Y01179*
X00345Y01181*
G37*
G36*
X00245D02*
X00235D01*
X00226Y01179*
X00218Y01174*
X00212Y01168*
X00207Y0116*
X00205Y01151*
Y01141*
X00207Y01132*
X00212Y01124*
X00218Y01118*
X00226Y01113*
X00235Y01111*
X00245*
X00254Y01113*
X00262Y01118*
X00268Y01124*
X00273Y01132*
X00275Y01141*
Y01151*
X00273Y0116*
X00268Y01168*
X00262Y01174*
X00254Y01179*
X00245Y01181*
G37*
G36*
X00145D02*
X00135D01*
X00126Y01179*
X00118Y01174*
X00112Y01168*
X00107Y0116*
X00105Y01151*
Y01141*
X00107Y01132*
X00112Y01124*
X00118Y01118*
X00126Y01113*
X00135Y01111*
X00145*
X00154Y01113*
X00162Y01118*
X00168Y01124*
X00173Y01132*
X00175Y01141*
Y01151*
X00173Y0116*
X00168Y01168*
X00162Y01174*
X00154Y01179*
X00145Y01181*
G37*
G36*
X01704Y01143D02*
X01695D01*
X01686Y0114*
X01679Y01133*
X01676Y01124*
Y01115*
X01679Y01106*
X01686Y01099*
X01695Y01096*
X01704*
X01713Y01099*
X0172Y01106*
X01723Y01115*
Y01124*
X0172Y01133*
X01713Y0114*
X01704Y01143*
G37*
G36*
X03339Y01083D02*
X0333D01*
X03321Y0108*
X03315Y01073*
X03312Y01073*
X03309Y01073*
X03303Y0108*
X03294Y01083*
X03285*
X03276Y0108*
X03269Y01073*
X03266Y01064*
Y01055*
X03269Y01046*
X03276Y01039*
X03285Y01036*
X03294*
X03303Y01039*
X03309Y01046*
X03312Y01046*
X03315Y01046*
X03321Y01039*
X0333Y01036*
X03339*
X03348Y01039*
X03355Y01046*
X03358Y01055*
Y01064*
X03355Y01073*
X03348Y0108*
X03339Y01083*
G37*
G36*
X01563Y01096D02*
X01556D01*
X0155Y01094*
X01545Y01089*
X01543Y01083*
Y01076*
X01545Y0107*
X0155Y01065*
X01556Y01063*
X01563*
X01569Y01065*
X01574Y0107*
X01576Y01076*
Y01083*
X01574Y01089*
X01569Y01094*
X01563Y01096*
G37*
G36*
X01538Y01066D02*
X01531D01*
X01525Y01064*
X0152Y01059*
X01518Y01053*
Y01046*
X0152Y0104*
X01525Y01035*
X01531Y01033*
X01538*
X01544Y01035*
X01549Y0104*
X01551Y01046*
Y01053*
X01549Y01059*
X01544Y01064*
X01538Y01066*
G37*
G36*
X01408Y01056D02*
X01401D01*
X01395Y01054*
X0139Y01049*
X01388Y01043*
Y01036*
X0139Y0103*
X01395Y01025*
X01401Y01023*
X01408*
X01414Y01025*
X01419Y0103*
X01421Y01036*
Y01043*
X01419Y01049*
X01414Y01054*
X01408Y01056*
G37*
G36*
X00445Y01081D02*
X00435D01*
X00426Y01079*
X00418Y01074*
X00412Y01068*
X00407Y0106*
X00405Y01051*
Y01041*
X00407Y01032*
X00412Y01024*
X00418Y01018*
X00426Y01013*
X00435Y01011*
X00445*
X00454Y01013*
X00462Y01018*
X00468Y01024*
X00473Y01032*
X00475Y01041*
Y01051*
X00473Y0106*
X00468Y01068*
X00462Y01074*
X00454Y01079*
X00445Y01081*
G37*
G36*
X00345D02*
X00335D01*
X00326Y01079*
X00318Y01074*
X00312Y01068*
X00307Y0106*
X00305Y01051*
Y01041*
X00307Y01032*
X00312Y01024*
X00318Y01018*
X00326Y01013*
X00335Y01011*
X00345*
X00354Y01013*
X00362Y01018*
X00368Y01024*
X00373Y01032*
X00375Y01041*
Y01051*
X00373Y0106*
X00368Y01068*
X00362Y01074*
X00354Y01079*
X00345Y01081*
G37*
G36*
X00245D02*
X00235D01*
X00226Y01079*
X00218Y01074*
X00212Y01068*
X00207Y0106*
X00205Y01051*
Y01041*
X00207Y01032*
X00212Y01024*
X00218Y01018*
X00226Y01013*
X00235Y01011*
X00245*
X00254Y01013*
X00262Y01018*
X00268Y01024*
X00273Y01032*
X00275Y01041*
Y01051*
X00273Y0106*
X00268Y01068*
X00262Y01074*
X00254Y01079*
X00245Y01081*
G37*
G36*
X00145D02*
X00135D01*
X00126Y01079*
X00118Y01074*
X00112Y01068*
X00107Y0106*
X00105Y01051*
Y01041*
X00107Y01032*
X00112Y01024*
X00118Y01018*
X00126Y01013*
X00135Y01011*
X00145*
X00154Y01013*
X00162Y01018*
X00168Y01024*
X00173Y01032*
X00175Y01041*
Y01051*
X00173Y0106*
X00168Y01068*
X00162Y01074*
X00154Y01079*
X00145Y01081*
G37*
G36*
X01229Y01028D02*
X0122D01*
X01211Y01025*
X01204Y01018*
X01201Y01009*
Y01*
X01204Y00991*
X01211Y00984*
X0122Y00981*
X01229*
X01238Y00984*
X01245Y00991*
X01248Y01*
Y01009*
X01245Y01018*
X01238Y01025*
X01229Y01028*
G37*
G36*
X02083Y01001D02*
X02076D01*
X0207Y00999*
X02065Y00994*
X02063Y00988*
Y00981*
X02065Y00975*
X0207Y0097*
X02076Y00968*
X02083*
X02089Y0097*
X02094Y00975*
X02096Y00981*
Y00988*
X02094Y00994*
X02089Y00999*
X02083Y01001*
G37*
G36*
X01386Y00966D02*
X01376D01*
X01367Y00962*
X01361Y00956*
X01357Y00947*
Y00937*
X01361Y00929*
X01367Y00922*
X01376Y00918*
X01386*
X01394Y00922*
X01401Y00929*
X01405Y00937*
Y00947*
X01401Y00956*
X01394Y00962*
X01386Y00966*
G37*
G36*
X00445Y00981D02*
X00435D01*
X00426Y00979*
X00418Y00974*
X00412Y00968*
X00407Y0096*
X00405Y00951*
Y00941*
X00407Y00932*
X00412Y00924*
X00418Y00918*
X00426Y00913*
X00435Y00911*
X00445*
X00454Y00913*
X00462Y00918*
X00468Y00924*
X00473Y00932*
X00475Y00941*
Y00951*
X00473Y0096*
X00468Y00968*
X00462Y00974*
X00454Y00979*
X00445Y00981*
G37*
G36*
X00345D02*
X00335D01*
X00326Y00979*
X00318Y00974*
X00312Y00968*
X00307Y0096*
X00305Y00951*
Y00941*
X00307Y00932*
X00312Y00924*
X00318Y00918*
X00326Y00913*
X00335Y00911*
X00345*
X00354Y00913*
X00362Y00918*
X00368Y00924*
X00373Y00932*
X00375Y00941*
Y00951*
X00373Y0096*
X00368Y00968*
X00362Y00974*
X00354Y00979*
X00345Y00981*
G37*
G36*
X00245D02*
X00235D01*
X00226Y00979*
X00218Y00974*
X00212Y00968*
X00207Y0096*
X00205Y00951*
Y00941*
X00207Y00932*
X00212Y00924*
X00218Y00918*
X00226Y00913*
X00235Y00911*
X00245*
X00254Y00913*
X00262Y00918*
X00268Y00924*
X00273Y00932*
X00275Y00941*
Y00951*
X00273Y0096*
X00268Y00968*
X00262Y00974*
X00254Y00979*
X00245Y00981*
G37*
G36*
X00145D02*
X00135D01*
X00126Y00979*
X00118Y00974*
X00112Y00968*
X00107Y0096*
X00105Y00951*
Y00941*
X00107Y00932*
X00112Y00924*
X00118Y00918*
X00126Y00913*
X00135Y00911*
X00145*
X00154Y00913*
X00162Y00918*
X00168Y00924*
X00173Y00932*
X00175Y00941*
Y00951*
X00173Y0096*
X00168Y00968*
X00162Y00974*
X00154Y00979*
X00145Y00981*
G37*
G36*
X01618Y00884D02*
X01611D01*
X01603Y00881*
X01598Y00876*
X01595Y00868*
Y00861*
X01598Y00853*
X01603Y00848*
X01611Y00845*
X01618*
X01626Y00848*
X01631Y00853*
X01634Y00861*
Y00868*
X01631Y00876*
X01626Y00881*
X01618Y00884*
G37*
G36*
X01758Y00869D02*
X01751D01*
X01743Y00866*
X01738Y00861*
X01735Y00853*
Y00846*
X01738Y00838*
X01743Y00833*
X01751Y0083*
X01758*
X01766Y00833*
X01771Y00838*
X01774Y00846*
Y00853*
X01771Y00861*
X01766Y00866*
X01758Y00869*
G37*
G36*
X01663Y00864D02*
X01656D01*
X01648Y00861*
X01643Y00856*
X0164Y00848*
Y00841*
X01643Y00833*
X01648Y00828*
X01656Y00825*
X01663*
X01671Y00828*
X01676Y00833*
X01679Y00841*
Y00848*
X01676Y00856*
X01671Y00861*
X01663Y00864*
G37*
G36*
X00445Y00881D02*
X00435D01*
X00426Y00879*
X00418Y00874*
X00412Y00868*
X00407Y0086*
X00405Y00851*
Y00841*
X00407Y00832*
X00412Y00824*
X00418Y00818*
X00426Y00813*
X00435Y00811*
X00445*
X00454Y00813*
X00462Y00818*
X00468Y00824*
X00473Y00832*
X00475Y00841*
Y00851*
X00473Y0086*
X00468Y00868*
X00462Y00874*
X00454Y00879*
X00445Y00881*
G37*
G36*
X00345D02*
X00335D01*
X00326Y00879*
X00318Y00874*
X00312Y00868*
X00307Y0086*
X00305Y00851*
Y00841*
X00307Y00832*
X00312Y00824*
X00318Y00818*
X00326Y00813*
X00335Y00811*
X00345*
X00354Y00813*
X00362Y00818*
X00368Y00824*
X00373Y00832*
X00375Y00841*
Y00851*
X00373Y0086*
X00368Y00868*
X00362Y00874*
X00354Y00879*
X00345Y00881*
G37*
G36*
X00245D02*
X00235D01*
X00226Y00879*
X00218Y00874*
X00212Y00868*
X00207Y0086*
X00205Y00851*
Y00841*
X00207Y00832*
X00212Y00824*
X00218Y00818*
X00226Y00813*
X00235Y00811*
X00245*
X00254Y00813*
X00262Y00818*
X00268Y00824*
X00273Y00832*
X00275Y00841*
Y00851*
X00273Y0086*
X00268Y00868*
X00262Y00874*
X00254Y00879*
X00245Y00881*
G37*
G36*
X00145D02*
X00135D01*
X00126Y00879*
X00118Y00874*
X00112Y00868*
X00107Y0086*
X00105Y00851*
Y00841*
X00107Y00832*
X00112Y00824*
X00118Y00818*
X00126Y00813*
X00135Y00811*
X00145*
X00154Y00813*
X00162Y00818*
X00168Y00824*
X00173Y00832*
X00175Y00841*
Y00851*
X00173Y0086*
X00168Y00868*
X00162Y00874*
X00154Y00879*
X00145Y00881*
G37*
G36*
X01558Y00844D02*
X01551D01*
X01543Y00841*
X01538Y00836*
X01535Y00828*
Y00821*
X01538Y00813*
X01543Y00808*
X01551Y00805*
X01558*
X01566Y00808*
X01571Y00813*
X01574Y00821*
Y00828*
X01571Y00836*
X01566Y00841*
X01558Y00844*
G37*
G36*
X01498Y00819D02*
X01491D01*
X01483Y00816*
X01478Y00811*
X01475Y00803*
Y00796*
X01478Y00788*
X01483Y00783*
X01491Y0078*
X01498*
X01506Y00783*
X01511Y00788*
X01514Y00796*
Y00803*
X01511Y00811*
X01506Y00816*
X01498Y00819*
G37*
G36*
X00445Y00781D02*
X00435D01*
X00426Y00779*
X00418Y00774*
X00412Y00768*
X00407Y0076*
X00405Y00751*
Y00741*
X00407Y00732*
X00412Y00724*
X00418Y00718*
X00426Y00713*
X00435Y00711*
X00445*
X00454Y00713*
X00462Y00718*
X00468Y00724*
X00473Y00732*
X00475Y00741*
Y00751*
X00473Y0076*
X00468Y00768*
X00462Y00774*
X00454Y00779*
X00445Y00781*
G37*
G36*
X00345D02*
X00335D01*
X00326Y00779*
X00318Y00774*
X00312Y00768*
X00307Y0076*
X00305Y00751*
Y00741*
X00307Y00732*
X00312Y00724*
X00318Y00718*
X00326Y00713*
X00335Y00711*
X00345*
X00354Y00713*
X00362Y00718*
X00368Y00724*
X00373Y00732*
X00375Y00741*
Y00751*
X00373Y0076*
X00368Y00768*
X00362Y00774*
X00354Y00779*
X00345Y00781*
G37*
G36*
X00245D02*
X00235D01*
X00226Y00779*
X00218Y00774*
X00212Y00768*
X00207Y0076*
X00205Y00751*
Y00741*
X00207Y00732*
X00212Y00724*
X00218Y00718*
X00226Y00713*
X00235Y00711*
X00245*
X00254Y00713*
X00262Y00718*
X00268Y00724*
X00273Y00732*
X00275Y00741*
Y00751*
X00273Y0076*
X00268Y00768*
X00262Y00774*
X00254Y00779*
X00245Y00781*
G37*
G36*
X00145D02*
X00135D01*
X00126Y00779*
X00118Y00774*
X00112Y00768*
X00107Y0076*
X00105Y00751*
Y00741*
X00107Y00732*
X00112Y00724*
X00118Y00718*
X00126Y00713*
X00135Y00711*
X00145*
X00154Y00713*
X00162Y00718*
X00168Y00724*
X00173Y00732*
X00175Y00741*
Y00751*
X00173Y0076*
X00168Y00768*
X00162Y00774*
X00154Y00779*
X00145Y00781*
G37*
G36*
X03319Y00743D02*
X0331D01*
X03301Y0074*
X03294Y00733*
X03291Y00724*
Y00715*
X03294Y00706*
X03301Y00699*
X0331Y00696*
X03319*
X03328Y00699*
X03335Y00706*
X03338Y00715*
Y00724*
X03335Y00733*
X03328Y0074*
X03319Y00743*
G37*
G36*
X0142Y00658D02*
X01415D01*
X0141Y00656*
X01407Y00653*
X01405Y00648*
Y00643*
X01407Y00638*
X0141Y00635*
X01415Y00633*
X0142*
X01425Y00635*
X01428Y00638*
X0143Y00643*
Y00648*
X01428Y00653*
X01425Y00656*
X0142Y00658*
G37*
G36*
X02828Y00656D02*
X02821D01*
X02815Y00654*
X0281Y00649*
X02808Y00643*
Y00636*
X0281Y0063*
X02815Y00625*
X02821Y00623*
X02828*
X02834Y00625*
X02839Y0063*
X02841Y00636*
Y00643*
X02839Y00649*
X02834Y00654*
X02828Y00656*
G37*
G36*
X00445Y00681D02*
X00435D01*
X00426Y00679*
X00418Y00674*
X00412Y00668*
X00407Y0066*
X00405Y00651*
Y00641*
X00407Y00632*
X00412Y00624*
X00418Y00618*
X00426Y00613*
X00435Y00611*
X00445*
X00454Y00613*
X00462Y00618*
X00468Y00624*
X00473Y00632*
X00475Y00641*
Y00651*
X00473Y0066*
X00468Y00668*
X00462Y00674*
X00454Y00679*
X00445Y00681*
G37*
G36*
X00345D02*
X00335D01*
X00326Y00679*
X00318Y00674*
X00312Y00668*
X00307Y0066*
X00305Y00651*
Y00641*
X00307Y00632*
X00312Y00624*
X00318Y00618*
X00326Y00613*
X00335Y00611*
X00345*
X00354Y00613*
X00362Y00618*
X00368Y00624*
X00373Y00632*
X00375Y00641*
Y00651*
X00373Y0066*
X00368Y00668*
X00362Y00674*
X00354Y00679*
X00345Y00681*
G37*
G36*
X00245D02*
X00235D01*
X00226Y00679*
X00218Y00674*
X00212Y00668*
X00207Y0066*
X00205Y00651*
Y00641*
X00207Y00632*
X00212Y00624*
X00218Y00618*
X00226Y00613*
X00235Y00611*
X00245*
X00254Y00613*
X00262Y00618*
X00268Y00624*
X00273Y00632*
X00275Y00641*
Y00651*
X00273Y0066*
X00268Y00668*
X00262Y00674*
X00254Y00679*
X00245Y00681*
G37*
G36*
X00145D02*
X00135D01*
X00126Y00679*
X00118Y00674*
X00112Y00668*
X00107Y0066*
X00105Y00651*
Y00641*
X00107Y00632*
X00112Y00624*
X00118Y00618*
X00126Y00613*
X00135Y00611*
X00145*
X00154Y00613*
X00162Y00618*
X00168Y00624*
X00173Y00632*
X00175Y00641*
Y00651*
X00173Y0066*
X00168Y00668*
X00162Y00674*
X00154Y00679*
X00145Y00681*
G37*
G36*
X03354Y00623D02*
X03345D01*
X03336Y0062*
X03329Y00613*
X03327Y00608*
X03322*
X0332Y00613*
X03313Y0062*
X03304Y00623*
X03295*
X03286Y0062*
X03279Y00613*
X03276Y00604*
Y00595*
X03279Y00586*
X03286Y00579*
X03295Y00576*
X03304*
X03306Y00576*
X03309Y00572*
X03304Y00568*
X03301Y00559*
Y0055*
X03304Y00541*
X03311Y00534*
X0332Y00531*
X03329*
X03338Y00534*
X03345Y00541*
X03348Y0055*
Y00559*
X03345Y00568*
X0334Y00572*
X03343Y00576*
X03345Y00576*
X03354*
X03363Y00579*
X0337Y00586*
X03373Y00595*
Y00604*
X0337Y00613*
X03363Y0062*
X03354Y00623*
G37*
G36*
X02168Y00551D02*
X02161D01*
X02155Y00549*
X0215Y00544*
X02148Y00538*
Y00531*
X0215Y00525*
X02155Y0052*
X02161Y00518*
X02168*
X02174Y0052*
X02179Y00525*
X02181Y00531*
Y00538*
X02179Y00544*
X02174Y00549*
X02168Y00551*
G37*
G36*
X00475Y00581D02*
X00405D01*
Y00511*
X00475*
Y00581*
G37*
G36*
X00345D02*
X00335D01*
X00326Y00579*
X00318Y00574*
X00312Y00568*
X00307Y0056*
X00305Y00551*
Y00541*
X00307Y00532*
X00312Y00524*
X00318Y00518*
X00326Y00513*
X00335Y00511*
X00345*
X00354Y00513*
X00362Y00518*
X00368Y00524*
X00373Y00532*
X00375Y00541*
Y00551*
X00373Y0056*
X00368Y00568*
X00362Y00574*
X00354Y00579*
X00345Y00581*
G37*
G36*
X00275D02*
X00205D01*
Y00511*
X00275*
Y00581*
G37*
G36*
X00145D02*
X00135D01*
X00126Y00579*
X00118Y00574*
X00112Y00568*
X00107Y0056*
X00105Y00551*
Y00541*
X00107Y00532*
X00112Y00524*
X00118Y00518*
X00126Y00513*
X00135Y00511*
X00145*
X00154Y00513*
X00162Y00518*
X00168Y00524*
X00173Y00532*
X00175Y00541*
Y00551*
X00173Y0056*
X00168Y00568*
X00162Y00574*
X00154Y00579*
X00145Y00581*
G37*
G36*
X02543Y00491D02*
X02536D01*
X0253Y00489*
X02525Y00484*
X02523Y00478*
Y00471*
X02525Y00465*
X0253Y0046*
X02536Y00458*
X02543*
X02549Y0046*
X02554Y00465*
X02556Y00471*
Y00478*
X02554Y00484*
X02549Y00489*
X02543Y00491*
G37*
G36*
X01333Y00486D02*
X01326D01*
X0132Y00484*
X01315Y00479*
X01313Y00473*
Y00466*
X01315Y0046*
X0132Y00455*
X01326Y00453*
X01333*
X01339Y00455*
X01344Y0046*
X01346Y00466*
Y00473*
X01344Y00479*
X01339Y00484*
X01333Y00486*
G37*
G36*
X02595Y00353D02*
X02564D01*
X02554Y00352*
X02547Y00346*
X02541Y00338*
X0254Y00329*
Y0029*
X02541Y00281*
X02547Y00273*
X02554Y00267*
X02564Y00266*
X02595*
X02605Y00267*
X02612Y00273*
X02618Y00281*
X02619Y0029*
Y00329*
X02618Y00338*
X02612Y00346*
X02605Y00352*
X02595Y00353*
G37*
G36*
X0213D02*
X02099D01*
X02089Y00352*
X02082Y00346*
X02076Y00338*
X02075Y00329*
Y0029*
X02076Y00281*
X02082Y00273*
X02089Y00267*
X02099Y00266*
X0213*
X0214Y00267*
X02147Y00273*
X02153Y00281*
X02154Y0029*
Y00329*
X02153Y00338*
X02147Y00346*
X0214Y00352*
X0213Y00353*
G37*
G36*
X017D02*
X01669D01*
X01659Y00352*
X01652Y00346*
X01646Y00338*
X01645Y00329*
Y0029*
X01646Y00281*
X01652Y00273*
X01659Y00267*
X01669Y00266*
X017*
X0171Y00267*
X01717Y00273*
X01723Y00281*
X01724Y0029*
Y00329*
X01723Y00338*
X01717Y00346*
X0171Y00352*
X017Y00353*
G37*
G36*
X01225D02*
X01194D01*
X01184Y00352*
X01177Y00346*
X01171Y00338*
X0117Y00329*
Y0029*
X01171Y00281*
X01177Y00273*
X01184Y00267*
X01194Y00266*
X01225*
X01235Y00267*
X01242Y00273*
X01248Y00281*
X01249Y0029*
Y00329*
X01248Y00338*
X01242Y00346*
X01235Y00352*
X01225Y00353*
G37*
G36*
X00665D02*
X00634D01*
X00624Y00352*
X00617Y00346*
X00611Y00338*
X0061Y00329*
Y0029*
X00611Y00281*
X00617Y00273*
X00624Y00267*
X00634Y00266*
X00665*
X00675Y00267*
X00682Y00273*
X00688Y00281*
X00689Y0029*
Y00329*
X00688Y00338*
X00682Y00346*
X00675Y00352*
X00665Y00353*
G37*
%LNdal_dpu_copper_signal_1-3*%
%LPD*%
G36*
X01345Y0243D02*
Y0231D01*
X0134Y02305*
X01295*
X0128Y0229*
Y02265*
X0127Y02255*
X0123*
X0122Y02265*
Y02357*
X0123Y02367*
Y0244*
X01335*
X01345Y0243*
G37*
G36*
X00705Y02422D02*
X00708Y02419D01*
X0071Y02415*
Y02413*
Y0214*
X0065*
Y02315*
X00596*
X00596Y02315*
X00595Y02315*
X00595Y02316*
Y02316*
X00592*
X00587Y02318*
X00583Y02322*
X00581Y02327*
Y0233*
Y02414*
Y02416*
X00582Y02419*
X00585Y02422*
X00588Y02423*
X00701*
X00705Y02422*
G37*
G54D141*
X0065Y02375D02*
X01255D01*
G54D148*
X0024Y01946D03*
X0014D03*
X0024Y02046D03*
X0014D03*
Y02946D03*
X0024D03*
X0034Y01846D03*
X0014Y01746D03*
Y01846D03*
X0024Y01746D03*
Y01846D03*
X0044Y02746D03*
Y02646D03*
Y02046D03*
X0034D03*
X0044Y02146D03*
X0034D03*
X0044Y02946D03*
X0034D03*
X0044Y01846D03*
Y01746D03*
X0034D03*
Y01146D03*
X0044Y01246D03*
Y01146D03*
Y01046D03*
Y00946D03*
X0034Y00746D03*
X0044Y01546D03*
Y01646D03*
X0034Y01246D03*
X0044Y01446D03*
X0034D03*
Y01546D03*
Y01646D03*
X0044Y01946D03*
X0034D03*
X0044Y02246D03*
X0034D03*
Y02446D03*
Y02546D03*
X0044Y02846D03*
X0034D03*
X0044Y03046D03*
X0034D03*
Y00546D03*
Y00646D03*
X0044Y00746D03*
Y00846D03*
X0034D03*
Y01046D03*
Y00946D03*
Y02646D03*
Y02746D03*
X0044Y02446D03*
Y02546D03*
Y00646D03*
Y01346D03*
X0034D03*
Y02346D03*
X0044D03*
X0014Y02146D03*
X0024D03*
X0014Y02646D03*
X0024Y02546D03*
Y02646D03*
Y02746D03*
Y02446D03*
X0014Y02746D03*
X0024Y00646D03*
X0014Y01146D03*
X0024Y01246D03*
Y01146D03*
Y01046D03*
Y00946D03*
X0014Y00746D03*
Y01246D03*
X0024Y02246D03*
X0014D03*
Y02446D03*
Y02546D03*
X0024Y02846D03*
X0014D03*
X0024Y03046D03*
X0014D03*
Y00546D03*
Y00646D03*
X0024Y00746D03*
Y00846D03*
X0014D03*
Y01046D03*
Y00946D03*
X0024Y02346D03*
X0014D03*
Y01346D03*
X0024D03*
X0014Y01446D03*
Y01546D03*
Y01646D03*
X0024Y01546D03*
Y01646D03*
Y01446D03*
G54D149*
X02692Y03335D03*
X02613D03*
X02687Y0323D03*
X02608D03*
X0253D03*
X02771Y03335D03*
G54D150*
X01785Y0031D03*
X0268D03*
X02215D03*
X0131D03*
X0075D03*
G54D151*
X01685Y0031D03*
X0065D03*
X0121D03*
X02115D03*
X0258D03*
G54D152*
X02766Y0323D03*
X02535Y03335D03*
G54D153*
X0044Y00546D03*
X0024D03*
G54D154*
X0141Y03015D03*
X01205Y0306D03*
X01185Y03005D03*
X0125Y03085D03*
X02531Y0242D03*
X02045Y02905D03*
X019Y02795D03*
X0293Y022D03*
X0297D03*
X0227Y0208D03*
X02507Y02349D03*
X00727Y02967D03*
X02165Y02942D03*
X0125Y03145D03*
X0309Y02945D03*
X00575Y01975D03*
X00805Y0118D03*
X00775Y00395D03*
X00856Y00326D03*
Y00291D03*
X00811Y00326D03*
Y00291D03*
X01896Y00326D03*
Y00291D03*
X01851Y00326D03*
Y00291D03*
X01411Y00326D03*
Y00291D03*
X01366Y00326D03*
Y00291D03*
X02321Y00331D03*
Y00296D03*
X02276Y00331D03*
Y00296D03*
X02776Y00326D03*
Y00291D03*
X02731Y00326D03*
Y00291D03*
X03141Y00746D03*
X03096D03*
X0304Y01356D03*
X03085D03*
X0304Y01301D03*
X03085D03*
X02365Y01446D03*
X0232D03*
X02365Y01501D03*
X0232D03*
X02365Y01556D03*
X0232D03*
X0234Y00915D03*
Y0087D03*
X02285Y00915D03*
Y0087D03*
X0223Y00915D03*
Y0087D03*
Y01575D03*
X0047Y0021D03*
X00775Y0043D03*
X0078Y0051D03*
Y00475D03*
X00825Y01065D03*
X00805Y01145D03*
X00825Y011D03*
X0079Y01355D03*
X00836Y01356D03*
X0088Y0189D03*
X00905Y00795D03*
X00945D03*
X00985D03*
X00905Y0084D03*
X012Y0082D03*
X00945Y0084D03*
X00985D03*
X01235Y00845D03*
Y00895D03*
X01245Y008D03*
X0126Y01065D03*
X00885Y01268D03*
Y01303D03*
X00995Y01705D03*
X00945D03*
X00995Y0174D03*
X00925Y0189D03*
X00945Y0174D03*
X0097Y0189D03*
X01205Y0175D03*
X01155D03*
X01315Y0183D03*
X01105Y01645D03*
Y01685D03*
X01315Y0187D03*
X0151Y0057D03*
X01735Y0043D03*
X01695Y00475D03*
Y0043D03*
X01735Y00475D03*
X01885Y0046D03*
Y005D03*
Y0042D03*
X01975Y00675D03*
Y00715D03*
X02245Y0042D03*
X0147Y0089D03*
X01535Y00945D03*
Y0101D03*
X01465Y0112D03*
X0143Y0115D03*
Y01185D03*
Y0112D03*
X01465Y01185D03*
Y0115D03*
X015Y0112D03*
Y01185D03*
Y0115D03*
X01975Y0076D03*
X0193Y00795D03*
X02165Y008D03*
X02225Y0082D03*
X01765Y009D03*
X01905Y01D03*
X01815D03*
X0186D03*
X01765Y0094D03*
X01815Y01055D03*
X01905D03*
X0182Y01935D03*
X0186Y01055D03*
X01944D03*
X01965Y00835D03*
X01944Y01D03*
X01975Y01245D03*
X02005D03*
X02035D03*
X0054Y01975D03*
X00615Y01985D03*
X0065D03*
X0096Y02945D03*
X0093D03*
X01545Y02395D03*
Y0251D03*
Y0245D03*
Y022D03*
Y0225D03*
X01625Y022D03*
X01545Y02325D03*
X0163Y0251D03*
X01445Y0252D03*
X0169Y022D03*
X0182Y01985D03*
X0176Y022D03*
Y0225D03*
X01975Y0216D03*
X02235D03*
X01745Y02655D03*
X0176Y02315D03*
X01995Y0322D03*
X01995Y03265D03*
X02255Y03135D03*
X02038Y03193D03*
X02354Y00507D03*
X02335Y0058D03*
X02355Y00545D03*
X02559Y006D03*
X02614D03*
X0262Y0047D03*
X02825Y0058D03*
X0317Y00545D03*
Y0058D03*
X03215Y00545D03*
X0318Y00635D03*
X03215Y0058D03*
X02355Y0082D03*
X0241Y00805D03*
X02315Y0082D03*
X02265D03*
X02295Y0134D03*
X02559Y00645D03*
Y0069D03*
X02614Y00645D03*
Y0073D03*
Y0069D03*
X023Y01245D03*
Y01285D03*
X02559Y0073D03*
X0223Y0142D03*
Y01455D03*
Y01615D03*
Y0154D03*
X02295Y0138D03*
X0223Y015D03*
X0277Y0193D03*
X02395D03*
X0315Y00975D03*
X03165Y01025D03*
Y0107D03*
Y0115D03*
Y01115D03*
X0318Y0068D03*
X0319Y00915D03*
X03195Y0078D03*
X0319Y0088D03*
X03195Y0082D03*
X03185Y0131D03*
Y01345D03*
X032Y0105D03*
Y01265D03*
X0299Y0186D03*
X0283Y0193D03*
X02955D03*
X02895D03*
X03135Y0148D03*
X0318Y01435D03*
X03135D03*
X03179Y0148D03*
X0301Y0193D03*
X03165Y01575D03*
Y01535D03*
X03235Y0031D03*
Y00235D03*
X03325Y0085D03*
X03235Y0105D03*
Y01265D03*
X03325Y01405D03*
X03355Y0185D03*
X0249Y02035D03*
X02505Y01975D03*
X02585Y01965D03*
X0256Y02035D03*
X0263Y02125D03*
X0242Y02555D03*
X023Y0271D03*
X02365D03*
X0277Y01985D03*
Y0205D03*
X0301Y01995D03*
Y02045D03*
X0277Y0211D03*
X02825Y02165D03*
X0236Y0317D03*
X02385Y03274D03*
X02535Y0304D03*
X02615Y0306D03*
X02695Y0304D03*
X02767Y03064D03*
X03055Y03085D03*
X03145Y02D03*
Y0196D03*
X03515Y02045D03*
X03415Y02755D03*
X03475Y0208D03*
X0341Y0289D03*
X01815Y03215D03*
X0159Y03235D03*
X0185Y02935D03*
X0136Y02939D03*
Y02899D03*
X0136Y02855D03*
X0143Y03235D03*
X01205Y01785D03*
X01155D03*
X01065Y01645D03*
Y01685D03*
X0331Y02315D03*
X02165Y00535D03*
X0221Y02035D03*
X0253Y02575D03*
Y0261D03*
X01171Y03081D03*
X0118Y0297D03*
X0141Y03095D03*
X02385Y03335D03*
X00641Y01652D03*
Y01612D03*
X00686Y01652D03*
Y01612D03*
X02015Y0182D03*
X0073Y03095D03*
X0214Y02845D03*
X0221Y0182D03*
X02215Y02095D03*
X0263Y0203D03*
X02765Y02165D03*
X03415Y02355D03*
Y02485D03*
X02215Y02845D03*
X0239Y02925D03*
X02195Y0312D03*
X0239Y03045D03*
X02235Y03255D03*
X0239Y02985D03*
X03413Y02615D03*
X03412Y02688D03*
X01505Y0294D03*
Y02875D03*
X01615Y00865D03*
X01495Y008D03*
X01755Y0085D03*
X01555Y00825D03*
X0071Y01945D03*
X00755D03*
X0071Y01905D03*
X00755D03*
X0166Y00845D03*
X0253Y02815D03*
Y02765D03*
X019Y01803D03*
X0251Y02655D03*
X01865Y0178D03*
X0133Y0047D03*
X02825Y0064D03*
X0254Y00475D03*
X01535Y0105D03*
X01405Y0104D03*
X0156Y0108D03*
X00575Y02285D03*
X03255Y0247D03*
Y02545D03*
X03253Y02608D03*
X02095Y03085D03*
X02136Y03191D03*
X02135Y02455D03*
Y02355D03*
X0228Y02455D03*
Y02355D03*
X03165Y0293D03*
X0301Y0316D03*
X02355Y0182D03*
X0269Y02124D03*
X0208Y0182D03*
X02149Y0182D03*
X01925Y0126D03*
X0127Y02705D03*
X0208Y00985D03*
X0127Y02655D03*
X00875Y03175D03*
X0326Y02785D03*
G54D155*
X03295Y0316D03*
X01325Y03245D03*
X00625Y02635D03*
X01218Y02636D03*
X0094Y0328D03*
Y03235D03*
X01025Y03095D03*
X00985Y03135D03*
X0317Y0304D03*
X0312Y03085D03*
X01175Y0321D03*
X02294Y01817D03*
X01225Y01005D03*
X01381Y00942D03*
X0159Y01435D03*
X0085Y0295D03*
X0108Y02935D03*
X0175Y02705D03*
X02105Y02125D03*
X03126Y01889D03*
X03408Y01936D03*
X03475Y01935D03*
X0242Y0261D03*
X0317Y0298D03*
X0124Y01435D03*
X017Y0112D03*
X0329Y0106D03*
X03335D03*
X03185Y01715D03*
Y01655D03*
X03255Y01715D03*
Y01655D03*
X03345Y01195D03*
X0331Y01275D03*
X03315Y0072D03*
X033Y006D03*
X0335D03*
X03325Y00555D03*
G54D156*
X01127Y02425D03*
X00206Y0004D03*
X0017D03*
X00312D03*
X00241D03*
X00277D03*
X00048Y00089D03*
X0004Y00124D03*
X00135Y0004D03*
X00069Y00061D03*
X001Y00043D03*
X0056Y0004D03*
X00525D03*
X00667D03*
X00596D03*
X00631D03*
X00383D03*
X00348D03*
X00489D03*
X00419D03*
X00454D03*
X00702D03*
X00773D03*
X00737D03*
X00793Y00069D03*
X00819Y00092D03*
X00853Y00102D03*
X01066Y00103D03*
X00995D03*
X0103D03*
X00924D03*
X00889D03*
X0096D03*
X01279D03*
X01243D03*
X01385D03*
X01314D03*
X01349D03*
X01101D03*
X01208D03*
X01137D03*
X01172D03*
X0004Y0023D03*
Y00265D03*
Y00159D03*
Y00194D03*
Y00336D03*
Y00301D03*
Y00372D03*
X00925Y0194D03*
X01633Y00103D03*
X01597D03*
X01704D03*
X01668D03*
X01739D03*
X0142D03*
X01491D03*
X01456D03*
X0142Y0056D03*
X01562Y00103D03*
X01527D03*
X01775D03*
X01881D03*
X01845D03*
X01987D03*
X01916D03*
X01952D03*
X0181D03*
X02023Y00103D03*
X02058D03*
X01935Y00545D03*
X02093Y00103D03*
X02129D03*
X02164D03*
X022D03*
X02235D03*
X0157Y00765D03*
X0166Y00735D03*
X0157D03*
X0185D03*
X01755Y00735D03*
X0185Y00765D03*
X0166D03*
X01755Y00765D03*
X00925Y02065D03*
Y02095D03*
Y01975D03*
Y02035D03*
Y02005D03*
X0092Y0218D03*
X00925Y02125D03*
X0004Y03287D03*
Y03252D03*
Y03216D03*
Y03358D03*
Y03323D03*
X01105Y02351D03*
X0004Y03394D03*
X0004Y03429D03*
X00053Y03462D03*
X00077Y03488D03*
X0011Y03501D03*
X00181Y03503D03*
X00287D03*
X00216D03*
X00252D03*
X00145D03*
X00464D03*
X00429D03*
X0057D03*
X005D03*
X00535D03*
X00393D03*
X00322D03*
X00358D03*
X00865Y0344D03*
X00901D03*
X00936D03*
X00972D03*
X01007D03*
X00677Y03503D03*
X00641D03*
X00782Y03494D03*
X00712Y03503D03*
X00748D03*
X00606D03*
X01042Y0344D03*
X01078D03*
X01113D03*
X01149D03*
X01184D03*
X008Y03464D03*
X0122Y0344D03*
X0083Y03445D03*
X01255Y0344D03*
X0129D03*
X01326D03*
X01361D03*
X01397D03*
X01432D03*
X01468D03*
X01503D03*
X01538D03*
X01574D03*
X01609Y0344D03*
X01716D03*
X01645D03*
X0168D03*
X01964D03*
X01999D03*
X01787D03*
X01751D03*
X01893D03*
X01822D03*
X01857D03*
X02141D03*
X02105D03*
X02247D03*
X02176D03*
X02212D03*
X0207D03*
X01928D03*
X02035D03*
X02271Y00103D03*
X02306D03*
X02342D03*
X02377D03*
X02412Y00103D03*
X02448D03*
X02483D03*
X02519D03*
X02554D03*
X0259D03*
X02625D03*
X0266D03*
X02696D03*
X02731D03*
X02951Y0004D03*
X03022D03*
X02986D03*
X03093D03*
X03057D03*
X03199D03*
X03128D03*
X03164D03*
X02767Y00103D03*
X02802D03*
X0288Y00041D03*
X02837Y00095D03*
X02865Y00073D03*
X02916Y0004D03*
X0327D03*
X03234D03*
X03412D03*
X03305D03*
X03447D03*
X03483D03*
X03518D03*
X03376D03*
X03341D03*
X03553Y00042D03*
X03586Y00056D03*
X03609Y00082D03*
X0362Y00116D03*
X03621Y00187D03*
Y00329D03*
Y00364D03*
Y00222D03*
Y00293D03*
Y00258D03*
Y00152D03*
X03558Y00657D03*
Y00692D03*
X03568Y00552D03*
X03558Y00621D03*
X03558Y00586D03*
X03558Y00834D03*
Y00869D03*
Y00728D03*
Y00799D03*
Y00763D03*
X03621Y004D03*
Y0047D03*
Y00435D03*
X03591Y00525D03*
X03621Y00506D03*
X03558Y01011D03*
Y01047D03*
Y00905D03*
Y00976D03*
Y0094D03*
Y01224D03*
Y01259D03*
Y01118D03*
Y01188D03*
Y01153D03*
Y01082D03*
Y01401D03*
Y01436D03*
Y01295D03*
Y01366D03*
Y0133D03*
Y01507D03*
Y01543D03*
Y01472D03*
Y01932D03*
Y01897D03*
Y01684D03*
Y0172D03*
Y01578D03*
Y01649D03*
Y01614D03*
Y01862D03*
Y01755D03*
Y01826D03*
Y01791D03*
X02353Y0344D03*
X02318D03*
X0246D03*
X02389D03*
X02424D03*
X02283D03*
X02531D03*
X02495D03*
X02637D03*
X02566D03*
X02601D03*
X02708D03*
X02672D03*
X02779D03*
X02743D03*
X02814Y03441D03*
X02847Y03454D03*
X02871Y0348D03*
X02898Y03503D03*
X02934D03*
X03004D03*
X02969D03*
X03111D03*
X0304D03*
X03075D03*
X0344Y02045D03*
X03558Y01968D03*
Y02003D03*
Y02074D03*
Y02145D03*
Y0211D03*
Y02287D03*
Y02322D03*
Y02181D03*
Y02251D03*
Y02216D03*
Y02039D03*
Y02429D03*
Y02464D03*
Y02358D03*
Y02393D03*
Y02712D03*
Y02854D03*
Y02889D03*
Y02747D03*
Y02818D03*
Y02783D03*
Y02606D03*
Y02641D03*
Y02499D03*
Y0257D03*
Y02535D03*
Y02677D03*
X03182Y03503D03*
X03146D03*
X03288D03*
X03217D03*
X03252D03*
X03323D03*
X0343D03*
X03359D03*
X03394D03*
X03558Y02925D03*
Y0296D03*
X03562Y02995D03*
X03579Y03026D03*
X03608Y03046D03*
X03621Y03186D03*
Y0315D03*
Y03115D03*
Y03079D03*
X03619Y03434D03*
X03605Y03466D03*
X03621Y03327D03*
Y03398D03*
Y03363D03*
X03465Y03503D03*
X03579Y0349D03*
X035Y03503D03*
X03536Y03503D03*
X03621Y03221D03*
Y03292D03*
Y03257D03*
X01418Y00646D03*
X008Y0231D03*
X00785Y02255D03*
X008Y02235D03*
X01315Y02375D03*
X01255D03*
X01275Y0231D03*
X0068Y0235D03*
X0065Y02375D03*
X00665Y02215D03*
G54D157*
X00139Y00346D03*
X0014Y03255D03*
X03515Y00196D03*
X03514Y03346D03*
M02*