%FSTAX23Y23*%
%MOIN*%
%SFA1B1*%

%IPPOS*%
%AMD26*
4,1,8,0.016700,-0.010300,0.016700,0.010300,0.008400,0.018700,-0.008400,0.018700,-0.016700,0.010300,-0.016700,-0.010300,-0.008400,-0.018700,0.008400,-0.018700,0.016700,-0.010300,0.0*
1,1,0.016732,0.008400,-0.010300*
1,1,0.016732,0.008400,0.010300*
1,1,0.016732,-0.008400,0.010300*
1,1,0.016732,-0.008400,-0.010300*
%
%AMD27*
4,1,8,-0.015700,0.009800,-0.015700,-0.009800,-0.007900,-0.017700,0.007900,-0.017700,0.015700,-0.009800,0.015700,0.009800,0.007900,0.017700,-0.007900,0.017700,-0.015700,0.009800,0.0*
1,1,0.015748,-0.007900,0.009800*
1,1,0.015748,-0.007900,-0.009800*
1,1,0.015748,0.007900,-0.009800*
1,1,0.015748,0.007900,0.009800*
%
%AMD28*
4,1,8,-0.013900,-0.025600,0.013900,-0.025600,0.023600,-0.015900,0.023600,0.015900,0.013900,0.025600,-0.013900,0.025600,-0.023600,0.015900,-0.023600,-0.015900,-0.013900,-0.025600,0.0*
1,1,0.019370,-0.013900,-0.015900*
1,1,0.019370,0.013900,-0.015900*
1,1,0.019370,0.013900,0.015900*
1,1,0.019370,-0.013900,0.015900*
%
%AMD29*
4,1,8,0.009800,0.015700,-0.009800,0.015700,-0.017700,0.007900,-0.017700,-0.007900,-0.009800,-0.015700,0.009800,-0.015700,0.017700,-0.007900,0.017700,0.007900,0.009800,0.015700,0.0*
1,1,0.015748,0.009800,0.007900*
1,1,0.015748,-0.009800,0.007900*
1,1,0.015748,-0.009800,-0.007900*
1,1,0.015748,0.009800,-0.007900*
%
%AMD30*
4,1,8,0.025600,-0.013900,0.025600,0.013900,0.015900,0.023600,-0.015900,0.023600,-0.025600,0.013900,-0.025600,-0.013900,-0.015900,-0.023600,0.015900,-0.023600,0.025600,-0.013900,0.0*
1,1,0.019370,0.015900,-0.013900*
1,1,0.019370,0.015900,0.013900*
1,1,0.019370,-0.015900,0.013900*
1,1,0.019370,-0.015900,-0.013900*
%
%AMD31*
4,1,8,-0.047200,0.033800,-0.047200,-0.033800,-0.037700,-0.043300,0.037700,-0.043300,0.047200,-0.033800,0.047200,0.033800,0.037700,0.043300,-0.037700,0.043300,-0.047200,0.033800,0.0*
1,1,0.019055,-0.037700,0.033800*
1,1,0.019055,-0.037700,-0.033800*
1,1,0.019055,0.037700,-0.033800*
1,1,0.019055,0.037700,0.033800*
%
%AMD33*
4,1,8,-0.025600,0.025700,-0.025600,-0.025700,-0.015900,-0.035400,0.015900,-0.035400,0.025600,-0.025700,0.025600,0.025700,0.015900,0.035400,-0.015900,0.035400,-0.025600,0.025700,0.0*
1,1,0.019449,-0.015900,0.025700*
1,1,0.019449,-0.015900,-0.025700*
1,1,0.019449,0.015900,-0.025700*
1,1,0.019449,0.015900,0.025700*
%
%AMD34*
4,1,8,-0.010300,-0.016700,0.010300,-0.016700,0.018700,-0.008400,0.018700,0.008400,0.010300,0.016700,-0.010300,0.016700,-0.018700,0.008400,-0.018700,-0.008400,-0.010300,-0.016700,0.0*
1,1,0.016732,-0.010300,-0.008400*
1,1,0.016732,0.010300,-0.008400*
1,1,0.016732,0.010300,0.008400*
1,1,0.016732,-0.010300,0.008400*
%
%AMD36*
4,1,8,0.033800,0.047200,-0.033800,0.047200,-0.043300,0.037700,-0.043300,-0.037700,-0.033800,-0.047200,0.033800,-0.047200,0.043300,-0.037700,0.043300,0.037700,0.033800,0.047200,0.0*
1,1,0.019055,0.033800,0.037700*
1,1,0.019055,-0.033800,0.037700*
1,1,0.019055,-0.033800,-0.037700*
1,1,0.019055,0.033800,-0.037700*
%
%AMD37*
4,1,8,-0.004900,0.010000,-0.004900,-0.010000,-0.003100,-0.011800,0.003100,-0.011800,0.004900,-0.010000,0.004900,0.010000,0.003100,0.011800,-0.003100,0.011800,-0.004900,0.010000,0.0*
1,1,0.003646,-0.003100,0.010000*
1,1,0.003646,-0.003100,-0.010000*
1,1,0.003646,0.003100,-0.010000*
1,1,0.003646,0.003100,0.010000*
%
%AMD38*
4,1,8,-0.006300,0.012200,-0.006300,-0.012200,-0.001600,-0.016900,0.001600,-0.016900,0.006300,-0.012200,0.006300,0.012200,0.001600,0.016900,-0.001600,0.016900,-0.006300,0.012200,0.0*
1,1,0.009449,-0.001600,0.012200*
1,1,0.009449,-0.001600,-0.012200*
1,1,0.009449,0.001600,-0.012200*
1,1,0.009449,0.001600,0.012200*
%
%AMD39*
4,1,8,-0.012200,-0.006300,0.012200,-0.006300,0.016900,-0.001600,0.016900,0.001600,0.012200,0.006300,-0.012200,0.006300,-0.016900,0.001600,-0.016900,-0.001600,-0.012200,-0.006300,0.0*
1,1,0.009449,-0.012200,-0.001600*
1,1,0.009449,0.012200,-0.001600*
1,1,0.009449,0.012200,0.001600*
1,1,0.009449,-0.012200,0.001600*
%
%AMD40*
4,1,8,-0.011800,0.029900,-0.011800,-0.029900,-0.011200,-0.030500,0.011200,-0.030500,0.011800,-0.029900,0.011800,0.029900,0.011200,0.030500,-0.011200,0.030500,-0.011800,0.029900,0.0*
1,1,0.001181,-0.011200,0.029900*
1,1,0.001181,-0.011200,-0.029900*
1,1,0.001181,0.011200,-0.029900*
1,1,0.001181,0.011200,0.029900*
%
%AMD42*
4,1,8,-0.006900,-0.011800,0.006900,-0.011800,0.012800,-0.005900,0.012800,0.005900,0.006900,0.011800,-0.006900,0.011800,-0.012800,0.005900,-0.012800,-0.005900,-0.006900,-0.011800,0.0*
1,1,0.011811,-0.006900,-0.005900*
1,1,0.011811,0.006900,-0.005900*
1,1,0.011811,0.006900,0.005900*
1,1,0.011811,-0.006900,0.005900*
%
%AMD47*
4,1,8,-0.023400,-0.021700,0.023400,-0.021700,0.025600,-0.019500,0.025600,0.019500,0.023400,0.021700,-0.023400,0.021700,-0.025600,0.019500,-0.025600,-0.019500,-0.023400,-0.021700,0.0*
1,1,0.004331,-0.023400,-0.019500*
1,1,0.004331,0.023400,-0.019500*
1,1,0.004331,0.023400,0.019500*
1,1,0.004331,-0.023400,0.019500*
%
%AMD48*
4,1,8,-0.028900,-0.008100,0.028900,-0.008100,0.030900,-0.006100,0.030900,0.006100,0.028900,0.008100,-0.028900,0.008100,-0.030900,0.006100,-0.030900,-0.006100,-0.028900,-0.008100,0.0*
1,1,0.004039,-0.028900,-0.006100*
1,1,0.004039,0.028900,-0.006100*
1,1,0.004039,0.028900,0.006100*
1,1,0.004039,-0.028900,0.006100*
%
%AMD51*
4,1,8,-0.025700,-0.025600,0.025700,-0.025600,0.035400,-0.015900,0.035400,0.015900,0.025700,0.025600,-0.025700,0.025600,-0.035400,0.015900,-0.035400,-0.015900,-0.025700,-0.025600,0.0*
1,1,0.019449,-0.025700,-0.015900*
1,1,0.019449,0.025700,-0.015900*
1,1,0.019449,0.025700,0.015900*
1,1,0.019449,-0.025700,0.015900*
%
%AMD52*
4,1,8,0.029900,0.011800,-0.029900,0.011800,-0.030500,0.011200,-0.030500,-0.011200,-0.029900,-0.011800,0.029900,-0.011800,0.030500,-0.011200,0.030500,0.011200,0.029900,0.011800,0.0*
1,1,0.001181,0.029900,0.011200*
1,1,0.001181,-0.029900,0.011200*
1,1,0.001181,-0.029900,-0.011200*
1,1,0.001181,0.029900,-0.011200*
%
%AMD58*
4,1,8,-0.011600,0.025600,-0.011600,-0.025600,-0.008700,-0.028500,0.008700,-0.028500,0.011600,-0.025600,0.011600,0.025600,0.008700,0.028500,-0.008700,0.028500,-0.011600,0.025600,0.0*
1,1,0.005811,-0.008700,0.025600*
1,1,0.005811,-0.008700,-0.025600*
1,1,0.005811,0.008700,-0.025600*
1,1,0.005811,0.008700,0.025600*
%
%AMD60*
4,1,8,0.016100,0.015700,-0.016100,0.015700,-0.017700,0.014200,-0.017700,-0.014200,-0.016100,-0.015700,0.016100,-0.015700,0.017700,-0.014200,0.017700,0.014200,0.016100,0.015700,0.0*
1,1,0.003150,0.016100,0.014200*
1,1,0.003150,-0.016100,0.014200*
1,1,0.003150,-0.016100,-0.014200*
1,1,0.003150,0.016100,-0.014200*
%
%AMD61*
4,1,8,0.011600,-0.035900,0.011600,0.035900,0.008700,0.038800,-0.008700,0.038800,-0.011600,0.035900,-0.011600,-0.035900,-0.008700,-0.038800,0.008700,-0.038800,0.011600,-0.035900,0.0*
1,1,0.005811,0.008700,-0.035900*
1,1,0.005811,0.008700,0.035900*
1,1,0.005811,-0.008700,0.035900*
1,1,0.005811,-0.008700,-0.035900*
%
%AMD71*
4,1,8,-0.024600,0.024900,-0.024600,-0.024900,-0.015000,-0.034400,0.015000,-0.034400,0.024600,-0.024900,0.024600,0.024900,0.015000,0.034400,-0.015000,0.034400,-0.024600,0.024900,0.0*
1,1,0.019197,-0.015000,0.024900*
1,1,0.019197,-0.015000,-0.024900*
1,1,0.019197,0.015000,-0.024900*
1,1,0.019197,0.015000,0.024900*
%
%AMD75*
4,1,8,-0.011800,0.006900,-0.011800,-0.006900,-0.005900,-0.012800,0.005900,-0.012800,0.011800,-0.006900,0.011800,0.006900,0.005900,0.012800,-0.005900,0.012800,-0.011800,0.006900,0.0*
1,1,0.011811,-0.005900,0.006900*
1,1,0.011811,-0.005900,-0.006900*
1,1,0.011811,0.005900,-0.006900*
1,1,0.011811,0.005900,0.006900*
%
%AMD134*
4,1,8,-0.005900,0.009600,-0.005900,-0.009600,-0.003700,-0.011800,0.003700,-0.011800,0.005900,-0.009600,0.005900,0.009600,0.003700,0.011800,-0.003700,0.011800,-0.005900,0.009600,0.0*
1,1,0.004370,-0.003700,0.009600*
1,1,0.004370,-0.003700,-0.009600*
1,1,0.004370,0.003700,-0.009600*
1,1,0.004370,0.003700,0.009600*
%
%AMD135*
4,1,8,0.003000,0.066900,-0.003000,0.066900,-0.004900,0.065000,-0.004900,-0.065000,-0.003000,-0.066900,0.003000,-0.066900,0.004900,-0.065000,0.004900,0.065000,0.003000,0.066900,0.0*
1,1,0.003937,0.003000,0.065000*
1,1,0.003937,-0.003000,0.065000*
1,1,0.003937,-0.003000,-0.065000*
1,1,0.003937,0.003000,-0.065000*
%
%AMD136*
4,1,8,-0.047200,0.003700,-0.047200,-0.003700,-0.045100,-0.005900,0.045100,-0.005900,0.047200,-0.003700,0.047200,0.003700,0.045100,0.005900,-0.045100,0.005900,-0.047200,0.003700,0.0*
1,1,0.004370,-0.045100,0.003700*
1,1,0.004370,-0.045100,-0.003700*
1,1,0.004370,0.045100,-0.003700*
1,1,0.004370,0.045100,0.003700*
%
%AMD137*
4,1,8,0.009800,0.004900,-0.009800,0.004900,-0.011800,0.003000,-0.011800,-0.003000,-0.009800,-0.004900,0.009800,-0.004900,0.011800,-0.003000,0.011800,0.003000,0.009800,0.004900,0.0*
1,1,0.003937,0.009800,0.003000*
1,1,0.003937,-0.009800,0.003000*
1,1,0.003937,-0.009800,-0.003000*
1,1,0.003937,0.009800,-0.003000*
%
%AMD138*
4,1,8,0.003000,0.012800,-0.003000,0.012800,-0.004900,0.010800,-0.004900,-0.010800,-0.003000,-0.012800,0.003000,-0.012800,0.004900,-0.010800,0.004900,0.010800,0.003000,0.012800,0.0*
1,1,0.003937,0.003000,0.010800*
1,1,0.003937,-0.003000,0.010800*
1,1,0.003937,-0.003000,-0.010800*
1,1,0.003937,0.003000,-0.010800*
%
%AMD139*
4,1,8,0.003000,0.011800,-0.003000,0.011800,-0.004900,0.009800,-0.004900,-0.009800,-0.003000,-0.011800,0.003000,-0.011800,0.004900,-0.009800,0.004900,0.009800,0.003000,0.011800,0.0*
1,1,0.003937,0.003000,0.009800*
1,1,0.003937,-0.003000,0.009800*
1,1,0.003937,-0.003000,-0.009800*
1,1,0.003937,0.003000,-0.009800*
%
%AMD151*
4,1,8,-0.031500,0.019700,-0.031500,-0.019700,-0.015700,-0.035400,0.015700,-0.035400,0.031500,-0.019700,0.031500,0.019700,0.015700,0.035400,-0.015700,0.035400,-0.031500,0.019700,0.0*
1,1,0.031496,-0.015700,0.019700*
1,1,0.031496,-0.015700,-0.019700*
1,1,0.031496,0.015700,-0.019700*
1,1,0.031496,0.015700,0.019700*
%
%ADD25R,0.031496X0.033465*%
G04~CAMADD=26~8~0.0~0.0~374.0~334.6~83.7~0.0~15~0.0~0.0~0.0~0.0~0~0.0~0.0~0.0~0.0~0~0.0~0.0~0.0~270.0~334.0~374.0*
%ADD26D26*%
G04~CAMADD=27~8~0.0~0.0~354.3~315.0~78.7~0.0~15~0.0~0.0~0.0~0.0~0~0.0~0.0~0.0~0.0~0~0.0~0.0~0.0~90.0~314.0~354.0*
%ADD27D27*%
G04~CAMADD=28~8~0.0~0.0~472.4~511.8~96.9~0.0~15~0.0~0.0~0.0~0.0~0~0.0~0.0~0.0~0.0~0~0.0~0.0~0.0~180.0~472.0~511.0*
%ADD28D28*%
G04~CAMADD=29~8~0.0~0.0~354.3~315.0~78.7~0.0~15~0.0~0.0~0.0~0.0~0~0.0~0.0~0.0~0.0~0~0.0~0.0~0.0~0.0~354.3~315.0*
%ADD29D29*%
G04~CAMADD=30~8~0.0~0.0~472.4~511.8~96.9~0.0~15~0.0~0.0~0.0~0.0~0~0.0~0.0~0.0~0.0~0~0.0~0.0~0.0~270.0~512.0~472.0*
%ADD30D30*%
G04~CAMADD=31~8~0.0~0.0~866.1~944.9~95.3~0.0~15~0.0~0.0~0.0~0.0~0~0.0~0.0~0.0~0.0~0~0.0~0.0~0.0~90.0~944.0~866.0*
%ADD31D31*%
%ADD32R,0.096457X0.098425*%
G04~CAMADD=33~8~0.0~0.0~708.7~511.8~97.2~0.0~15~0.0~0.0~0.0~0.0~0~0.0~0.0~0.0~0.0~0~0.0~0.0~0.0~90.0~512.0~709.0*
%ADD33D33*%
G04~CAMADD=34~8~0.0~0.0~374.0~334.6~83.7~0.0~15~0.0~0.0~0.0~0.0~0~0.0~0.0~0.0~0.0~0~0.0~0.0~0.0~180.0~374.0~334.0*
%ADD34D34*%
%ADD35R,0.039370X0.023622*%
G04~CAMADD=36~8~0.0~0.0~866.1~944.9~95.3~0.0~15~0.0~0.0~0.0~0.0~0~0.0~0.0~0.0~0.0~0~0.0~0.0~0.0~0.0~866.1~944.9*
%ADD36D36*%
G04~CAMADD=37~8~0.0~0.0~236.2~98.4~18.2~0.0~15~0.0~0.0~0.0~0.0~0~0.0~0.0~0.0~0.0~0~0.0~0.0~0.0~90.0~98.0~236.0*
%ADD37D37*%
G04~CAMADD=38~8~0.0~0.0~338.6~126.0~47.2~0.0~15~0.0~0.0~0.0~0.0~0~0.0~0.0~0.0~0.0~0~0.0~0.0~0.0~90.0~126.0~339.0*
%ADD38D38*%
G04~CAMADD=39~8~0.0~0.0~338.6~126.0~47.2~0.0~15~0.0~0.0~0.0~0.0~0~0.0~0.0~0.0~0.0~0~0.0~0.0~0.0~180.0~339.0~126.0*
%ADD39D39*%
G04~CAMADD=40~8~0.0~0.0~610.2~236.2~5.9~0.0~15~0.0~0.0~0.0~0.0~0~0.0~0.0~0.0~0.0~0~0.0~0.0~0.0~90.0~236.0~610.0*
%ADD40D40*%
%ADD41R,0.078000X0.022000*%
G04~CAMADD=42~8~0.0~0.0~255.9~236.2~59.1~0.0~15~0.0~0.0~0.0~0.0~0~0.0~0.0~0.0~0.0~0~0.0~0.0~0.0~180.0~256.0~236.0*
%ADD42D42*%
%ADD43R,0.039370X0.039370*%
%ADD44O,0.055118X0.013780*%
%ADD45R,0.031496X0.062992*%
%ADD46R,0.082677X0.118110*%
G04~CAMADD=47~8~0.0~0.0~511.8~433.1~21.7~0.0~15~0.0~0.0~0.0~0.0~0~0.0~0.0~0.0~0.0~0~0.0~0.0~0.0~180.0~512.0~433.0*
%ADD47D47*%
G04~CAMADD=48~8~0.0~0.0~618.1~161.4~20.2~0.0~15~0.0~0.0~0.0~0.0~0~0.0~0.0~0.0~0.0~0~0.0~0.0~0.0~180.0~618.0~161.0*
%ADD48D48*%
%ADD49O,0.086614X0.023622*%
%ADD50O,0.084645X0.023622*%
G04~CAMADD=51~8~0.0~0.0~708.7~511.8~97.2~0.0~15~0.0~0.0~0.0~0.0~0~0.0~0.0~0.0~0.0~0~0.0~0.0~0.0~180.0~709.0~512.0*
%ADD51D51*%
G04~CAMADD=52~8~0.0~0.0~610.2~236.2~5.9~0.0~15~0.0~0.0~0.0~0.0~0~0.0~0.0~0.0~0.0~0~0.0~0.0~0.0~0.0~610.2~236.2*
%ADD52D52*%
%ADD53R,0.047244X0.031496*%
%ADD54R,0.090551X0.092520*%
%ADD55R,0.092520X0.090551*%
%ADD56R,0.062992X0.031496*%
%ADD57R,0.118110X0.082677*%
G04~CAMADD=58~8~0.0~0.0~570.9~232.3~29.1~0.0~15~0.0~0.0~0.0~0.0~0~0.0~0.0~0.0~0.0~0~0.0~0.0~0.0~90.0~232.0~570.0*
%ADD58D58*%
%ADD59R,0.020000X0.058000*%
G04~CAMADD=60~8~0.0~0.0~354.3~315.0~15.7~0.0~15~0.0~0.0~0.0~0.0~0~0.0~0.0~0.0~0.0~0~0.0~0.0~0.0~0.0~354.3~315.0*
%ADD60D60*%
G04~CAMADD=61~8~0.0~0.0~775.6~232.3~29.1~0.0~15~0.0~0.0~0.0~0.0~0~0.0~0.0~0.0~0.0~0~0.0~0.0~0.0~270.0~233.0~776.0*
%ADD61D61*%
%ADD62R,0.033465X0.031496*%
%ADD63R,0.058000X0.020000*%
%ADD64R,0.039370X0.019685*%
%ADD65R,0.033465X0.035433*%
%ADD66R,0.080000X0.200000*%
%ADD67R,0.019685X0.039370*%
%ADD68R,0.042126X0.128740*%
%ADD69C,0.050000*%
%ADD70C,0.039370*%
G04~CAMADD=71~8~0.0~0.0~689.0~492.1~96.0~0.0~15~0.0~0.0~0.0~0.0~0~0.0~0.0~0.0~0.0~0~0.0~0.0~0.0~90.0~492.0~689.0*
%ADD71D71*%
%ADD72R,0.039370X0.013780*%
%ADD73R,0.013780X0.039370*%
G04~CAMADD=75~8~0.0~0.0~255.9~236.2~59.1~0.0~15~0.0~0.0~0.0~0.0~0~0.0~0.0~0.0~0.0~0~0.0~0.0~0.0~90.0~236.0~256.0*
%ADD75D75*%
%ADD130R,0.102362X0.102362*%
%ADD131R,0.192913X0.116142*%
%ADD132R,0.009843X0.047244*%
%ADD133R,0.116142X0.192913*%
G04~CAMADD=134~8~0.0~0.0~236.2~118.1~21.9~0.0~15~0.0~0.0~0.0~0.0~0~0.0~0.0~0.0~0.0~0~0.0~0.0~0.0~90.0~118.0~236.0*
%ADD134D134*%
G04~CAMADD=135~8~0.0~0.0~98.4~1338.6~19.7~0.0~15~0.0~0.0~0.0~0.0~0~0.0~0.0~0.0~0.0~0~0.0~0.0~0.0~0.0~98.4~1338.6*
%ADD135D135*%
G04~CAMADD=136~8~0.0~0.0~118.1~944.9~21.9~0.0~15~0.0~0.0~0.0~0.0~0~0.0~0.0~0.0~0.0~0~0.0~0.0~0.0~90.0~945.0~118.0*
%ADD136D136*%
G04~CAMADD=137~8~0.0~0.0~236.2~98.4~19.7~0.0~15~0.0~0.0~0.0~0.0~0~0.0~0.0~0.0~0.0~0~0.0~0.0~0.0~0.0~236.2~98.4*
%ADD137D137*%
G04~CAMADD=138~8~0.0~0.0~98.4~255.9~19.7~0.0~15~0.0~0.0~0.0~0.0~0~0.0~0.0~0.0~0.0~0~0.0~0.0~0.0~0.0~98.4~255.9*
%ADD138D138*%
G04~CAMADD=139~8~0.0~0.0~98.4~236.2~19.7~0.0~15~0.0~0.0~0.0~0.0~0~0.0~0.0~0.0~0.0~0~0.0~0.0~0.0~0.0~98.4~236.2*
%ADD139D139*%
%ADD140R,0.040000X0.050000*%
%ADD147C,0.236220*%
%ADD148C,0.060236*%
%ADD149C,0.055118*%
%ADD150O,0.062992X0.070866*%
G04~CAMADD=151~8~0.0~0.0~708.7~629.9~157.5~0.0~15~0.0~0.0~0.0~0.0~0~0.0~0.0~0.0~0.0~0~0.0~0.0~0.0~90.0~630.0~708.0*
%ADD151D151*%
%ADD152R,0.055118X0.055118*%
%ADD153R,0.060236X0.060236*%
%LNdal_dpu_pads_top-1*%
%LPD*%
G54D25*
X03363Y0303D03*
X03296D03*
X0047Y00255D03*
X03193Y0031D03*
Y00235D03*
X03373Y02755D03*
X03296Y03105D03*
X03363D03*
X00403Y00255D03*
X03126Y00235D03*
Y0031D03*
X03306Y02755D03*
G54D26*
X03371Y02545D03*
X01273Y00895D03*
X01511Y00611D03*
X02197Y0042D03*
X02013Y0076D03*
X00937Y03135D03*
X01403Y0252D03*
X01623Y03235D03*
X02618Y00515D03*
X02506Y01935D03*
X03352Y0189D03*
X01463Y03235D03*
X03371Y0242D03*
X03308D03*
X0331Y02355D03*
X01356Y03085D03*
X01293D03*
X01356Y03145D03*
X01293D03*
X03372Y02355D03*
X03371Y02485D03*
Y02615D03*
Y02685D03*
X01273Y01005D03*
X02628Y02075D03*
X02141Y02795D03*
X02211Y01865D03*
X02018D03*
X02432Y029D03*
X03173Y0189D03*
X02293Y01865D03*
X01943Y02795D03*
X02213D03*
X02156Y0121D03*
X01526Y03235D03*
X02681Y00515D03*
X02832Y00445D03*
X03308Y02545D03*
Y02485D03*
Y02615D03*
Y02685D03*
X00471Y004D03*
X00408D03*
X01193Y0212D03*
X01256D03*
X0068Y02314D03*
X00743D03*
X01193Y02185D03*
X01256D03*
X0068Y0218D03*
X00742D03*
X01251Y0234D03*
X01188D03*
X01313Y02275D03*
X01376D03*
X01336Y01005D03*
X02691Y02075D03*
X02076Y0076D03*
X02003Y0042D03*
X02066D03*
X02078Y02795D03*
X02131Y00495D03*
X02068D03*
X01336Y00895D03*
X02135Y0042D03*
X02148Y01865D03*
X02081D03*
X0134Y0252D03*
X02495Y029D03*
X03236Y0189D03*
X0329D03*
X01205Y00611D03*
X01268D03*
X01328Y0061D03*
X01391D03*
X01448Y00611D03*
X01686Y03235D03*
X02973Y00235D03*
X03036D03*
X02973Y0031D03*
X03036D03*
X02356Y01865D03*
X02506D03*
X02443D03*
Y01935D03*
X02566Y03115D03*
X02503D03*
X00874Y03135D03*
X01313Y02185D03*
X01376D03*
Y0241D03*
X01313D03*
X02006Y02795D03*
X00408Y0033D03*
X00471D03*
X02093Y0121D03*
X02478Y0052D03*
X02541D03*
X0277Y00445D03*
X02276Y02795D03*
G54D27*
X02176Y01435D03*
X00731Y0042D03*
X00766Y0116D03*
X01273Y0083D03*
Y0111D03*
X0195Y0058D03*
X02013Y00695D03*
X01536Y0075D03*
X01496Y00945D03*
Y0101D03*
X01927Y00835D03*
X01966Y01205D03*
X00891Y02099D03*
X00906Y02905D03*
X00958Y021D03*
X01126Y0239D03*
X00983Y02905D03*
X01628Y0247D03*
X01398Y02875D03*
Y0294D03*
X01281Y0324D03*
X0169Y0225D03*
X02197Y0216D03*
X02012D03*
X02256Y03175D03*
X02296Y00605D03*
X02357Y01932D03*
X03086Y0098D03*
X03223Y0133D03*
Y01485D03*
X03233Y0078D03*
Y00922D03*
X02366Y02555D03*
X02628Y02165D03*
X02896Y0199D03*
X02826Y0221D03*
X02497Y0304D03*
X01811Y02935D03*
X01461Y0294D03*
X02435Y0304D03*
X01336Y0111D03*
X02763Y0221D03*
X01433Y00945D03*
X01461Y02875D03*
X02294Y01932D03*
X00843Y02905D03*
X01046D03*
X02193Y03175D03*
X02075Y0216D03*
X02135D03*
X01433Y0101D03*
X01218Y0324D03*
X01473Y0075D03*
X00828Y02099D03*
X01865Y00835D03*
X01788Y01205D03*
X02113Y01435D03*
X02156Y01145D03*
X01748Y02935D03*
X01628D03*
X01691D03*
X02768Y00515D03*
X02831D03*
X03023Y0098D03*
X01063Y0239D03*
X0068Y02249D03*
X00743D03*
X01313Y0234D03*
X01376D03*
X01251Y02275D03*
X01188D03*
X01021Y021D03*
X02691Y02165D03*
X02833Y0199D03*
X01691Y0247D03*
X01627Y0225D03*
X02303Y02555D03*
X01336Y0083D03*
X02012Y0058D03*
X02233Y00605D03*
X02076Y00695D03*
X00838Y0239D03*
X00901D03*
X00943D03*
X01006D03*
X00703Y0116D03*
X00668Y0042D03*
X00683Y02385D03*
X00746D03*
X01903Y01205D03*
X01851D03*
X02093Y01145D03*
X03286Y01485D03*
Y0133D03*
X03296Y00922D03*
Y0078D03*
G54D28*
X00735Y00494D03*
X0077Y01079D03*
X0088Y01944D03*
X00966Y01944D03*
X01934Y005D03*
X0088Y02024D03*
X00966Y02024D03*
X02305Y0053D03*
X0218Y0151D03*
Y0159D03*
X0309Y0105D03*
Y0113D03*
X03229Y0066D03*
X03224Y01D03*
X03225Y01215D03*
X03219Y0156D03*
X00809Y02024D03*
Y01944D03*
X02109Y0159D03*
Y0151D03*
X03019Y0105D03*
Y0113D03*
X0348Y02204D03*
X03409D03*
X01037Y01944D03*
Y02024D03*
X00699Y01079D03*
X02005Y005D03*
X00664Y00494D03*
X0329Y0156D03*
X03295Y01215D03*
X03295Y01D03*
X033Y0066D03*
X02234Y0053D03*
G54D29*
X0056Y01931D03*
X0128Y00767D03*
X0143Y00891D03*
X02165Y00761D03*
X0163Y02643D03*
X01699Y02642D03*
X01775Y03216D03*
X0278Y00578D03*
X0241Y00766D03*
X02585Y01926D03*
X0256Y02073D03*
X0249D03*
X02365Y02671D03*
X023D03*
X0296Y02043D03*
X02653Y03035D03*
X0258Y03036D03*
X0243Y03273D03*
X028Y03036D03*
X02735D03*
X03055Y03042D03*
X0341Y02046D03*
X03475D03*
X0312Y03041D03*
Y02978D03*
X03055Y0298D03*
X02365Y02608D03*
X0341Y01983D03*
X01699Y02705D03*
X0243Y03336D03*
X0056Y01868D03*
X023Y02608D03*
X0163Y02706D03*
X03475Y01983D03*
X01775Y03096D03*
Y03033D03*
Y03153D03*
X028Y02973D03*
X0296Y02106D03*
X02653Y02972D03*
X02165Y00698D03*
X0143Y00828D03*
X02735Y02973D03*
X02585Y01863D03*
X0128Y00705D03*
X0258Y02973D03*
X0278Y00688D03*
Y00751D03*
Y00641D03*
X0241Y00703D03*
X01125Y02181D03*
Y02118D03*
X0249Y02136D03*
X0256D03*
G54D30*
X00635Y01935D03*
X012Y00775D03*
X01614Y00749D03*
X01805Y00749D03*
X0171Y00749D03*
X02245Y0077D03*
X0068Y02634D03*
X01165Y02639D03*
X02334Y0077D03*
X00635Y01864D03*
X01805Y0082D03*
X01614Y0082D03*
X0171D03*
X0068Y02705D03*
X01165Y0271D03*
X02245Y00699D03*
X012Y00704D03*
X02334Y00699D03*
G54D31*
X00815Y0129D03*
X0065D03*
G54D32*
X00944Y00715D03*
Y0093D03*
X0118Y01675D03*
X01469D03*
X00655Y00715D03*
Y0093D03*
G54D33*
X01359Y0185D03*
X0224Y01355D03*
X0312Y00905D03*
Y00815D03*
X02129Y01355D03*
X03009Y00815D03*
Y00905D03*
X0147Y0185D03*
G54D34*
X01455Y00541D03*
X0203Y01206D03*
X02345Y02188D03*
Y02251D03*
X0241D03*
Y02188D03*
X00775Y02907D03*
Y03096D03*
X0113Y03081D03*
Y02908D03*
X0217Y02096D03*
X00615Y02173D03*
Y02346D03*
Y02283D03*
Y02236D03*
X0329Y02895D03*
Y02957D03*
X00775Y0297D03*
Y03033D03*
X0113Y03018D03*
Y02971D03*
X01455Y00478D03*
X0204Y00985D03*
Y00922D03*
X0203Y01143D03*
X0217Y02033D03*
G54D35*
X01379Y00547D03*
X02356Y03132D03*
X02435Y03095D03*
X013Y0051D03*
X01379Y00472D03*
X02435Y0317D03*
G54D36*
X01625Y00447D03*
X01805D03*
X01625Y00612D03*
X01805D03*
G54D37*
X02128Y0063D03*
X01388Y00752D03*
X02111Y00559D03*
X02128D03*
X02111Y0063D03*
X01371Y00681D03*
Y00752D03*
X01388Y00681D03*
G54D38*
X01477Y01073D03*
X01452D03*
X01477Y01226D03*
X01503D03*
X01452D03*
X01426D03*
Y01073D03*
X01503D03*
G54D39*
X01541Y01137D03*
X01388D03*
Y01188D03*
Y01162D03*
X01541D03*
Y01188D03*
X01388Y01111D03*
X01541D03*
G54D40*
X01805Y0092D03*
X01905D03*
X01855D03*
X01805Y01132D03*
X01855D03*
X01905D03*
X01955D03*
Y0092D03*
G54D41*
X01892Y01934D03*
X02078Y02084D03*
X01892Y01984D03*
X02078D03*
Y01934D03*
Y02034D03*
X01892D03*
Y02084D03*
G54D42*
X00901Y02149D03*
X00942D03*
X00861D03*
X02315Y02405D03*
X02354D03*
X00981Y02149D03*
X02315Y02355D03*
X02354D03*
X02315Y02455D03*
X02354D03*
X02315Y02305D03*
X02354D03*
X02315Y02505D03*
X02354D03*
G54D43*
X0118Y02415D03*
X01259D03*
G54D44*
X01025Y03058D03*
Y02981D03*
X00863D03*
Y03058D03*
X01025Y03032D03*
Y03007D03*
X00863Y03032D03*
Y03007D03*
G54D45*
X00991Y03262D03*
X0204Y03255D03*
X02187D03*
X01138Y03262D03*
X01089D03*
X0104D03*
X02138Y03255D03*
X02089D03*
G54D46*
X0089Y03377D03*
X01239D03*
X01939Y03369D03*
X02288D03*
G54D47*
X01612Y02393D03*
X01702Y02318D03*
Y02393D03*
X01612Y02318D03*
G54D48*
X01467Y03016D03*
Y0299D03*
X01692Y03016D03*
Y03067D03*
Y03092D03*
Y03118D03*
X01467Y03041D03*
Y03067D03*
Y03092D03*
Y03118D03*
Y03143D03*
Y03169D03*
X01692D03*
Y03143D03*
Y03041D03*
Y0299D03*
G54D49*
X0153Y02655D03*
Y02705D03*
X01341Y02755D03*
Y02705D03*
Y02655D03*
Y02605D03*
X0153Y02755D03*
Y02605D03*
G54D50*
X01833Y02305D03*
X022Y02605D03*
Y02255D03*
Y02305D03*
Y02355D03*
Y02405D03*
Y02455D03*
Y02505D03*
Y02655D03*
Y02705D03*
X01833Y02255D03*
Y02355D03*
Y02405D03*
Y02455D03*
Y02505D03*
Y02555D03*
Y02605D03*
Y02655D03*
Y02705D03*
X022Y02555D03*
G54D51*
X0224Y01255D03*
Y01145D03*
G54D52*
X0248Y0074D03*
X02692D03*
Y0069D03*
Y0064D03*
Y0059D03*
X0248D03*
Y0064D03*
Y0069D03*
G54D53*
X02937Y0186D03*
X02662D03*
G54D54*
X03055Y01444D03*
Y01635D03*
G54D55*
X03195Y0047D03*
X0097Y0163D03*
X0097Y01815D03*
X00779D03*
X00779Y0163D03*
X03385Y0047D03*
G54D56*
X03383Y00825D03*
Y00874D03*
X0338Y01378D03*
Y01428D03*
X03383Y00923D03*
Y00973D03*
Y00776D03*
Y00727D03*
X0338Y01329D03*
Y0128D03*
Y01477D03*
Y01526D03*
G54D57*
X03497Y00626D03*
X03495Y0118D03*
X03497Y01073D03*
X03495Y01626D03*
G54D58*
X02345Y0203D03*
X02307D03*
X02382Y0212D03*
X02345D03*
X02307D03*
X02382Y0203D03*
G54D59*
X02684Y02892D03*
X0281Y02292D03*
X02999Y02892D03*
X02779Y02292D03*
X03031Y02892D03*
X03062Y02292D03*
X02873D03*
X02842D03*
X02716D03*
X02684D03*
X0281Y02892D03*
X02842D03*
X03062D03*
X03094D03*
X03125Y02292D03*
X03094D03*
X03031D03*
X02653D03*
X02936Y02892D03*
X02999Y02292D03*
X02968Y02892D03*
X02873D03*
X02905D03*
X03125D03*
X02968Y02292D03*
X02747Y02892D03*
X02653D03*
X02779D03*
X02716D03*
X02936Y02292D03*
X02905D03*
X02747D03*
G54D60*
X02901Y02055D03*
X02828Y02112D03*
X02901D03*
X02828Y02055D03*
G54D61*
X03185Y0198D03*
X03335D03*
Y02175D03*
X03285D03*
X03235D03*
X03185D03*
X03235Y0198D03*
X03285D03*
G54D62*
X03365Y02891D03*
Y02958D03*
G54D63*
X03189Y02419D03*
X02589Y02797D03*
Y02765D03*
X03189Y02797D03*
X02589Y02639D03*
Y02356D03*
X03189Y02734D03*
Y02482D03*
Y02765D03*
Y02671D03*
Y02639D03*
Y02608D03*
Y02576D03*
Y02387D03*
Y02356D03*
X02589Y02387D03*
X03189Y02828D03*
X02589Y02702D03*
Y02482D03*
Y02734D03*
Y02419D03*
Y02671D03*
Y0245D03*
Y02513D03*
X03189Y0245D03*
Y02513D03*
Y02702D03*
X02589Y02545D03*
Y02576D03*
Y02608D03*
Y02828D03*
X03189Y02545D03*
G54D64*
X01589Y01346D03*
Y01393D03*
X0147Y01346D03*
Y01393D03*
X0124D03*
Y01346D03*
X01359Y01393D03*
Y01346D03*
G54D65*
X02432Y02975D03*
X02497D03*
G54D66*
X01785Y01472D03*
X02005Y01475D03*
X02909Y01002D03*
X0269Y01D03*
X0083Y0258D03*
X0102D03*
G54D67*
X01658Y01239D03*
X01611D03*
X01658Y0112D03*
X01611D03*
X01223Y01115D03*
X01176D03*
Y01234D03*
X01223D03*
G54D68*
X01469Y0199D03*
X01229D03*
G54D69*
X0144Y02185D03*
G54D70*
X02425Y0052D03*
X02108Y00923D03*
G54D71*
X01019Y02795D03*
X0113D03*
X0083D03*
X00719D03*
G54D72*
X0124Y0137D03*
X01359D03*
X0147D03*
X01589D03*
G54D73*
X01635Y01239D03*
Y0112D03*
X012Y01234D03*
Y01115D03*
G54D75*
X02875Y0309D03*
Y03129D03*
X0292Y0309D03*
Y03129D03*
X02965Y0309D03*
Y03129D03*
X0301Y0309D03*
Y03129D03*
G54D130*
X01465Y0115D03*
G54D131*
X0188Y01026D03*
G54D132*
X00921Y02269D03*
G54D133*
X02586Y00665D03*
G54D134*
X02147Y00559D03*
X02092D03*
Y0063D03*
X02147D03*
X01407Y00681D03*
X01352D03*
X01407Y00752D03*
X01352D03*
G54D135*
X0088Y02269D03*
X009D03*
X00962D03*
X00943D03*
G54D136*
X0138Y00726D03*
X0212Y00604D03*
Y00585D03*
X0138Y00706D03*
G54D137*
X01016Y02299D03*
X00827Y02279D03*
Y02299D03*
X01016Y0226D03*
Y0224D03*
Y02279D03*
X00827Y0224D03*
Y0226D03*
G54D138*
X01002Y02215D03*
X00841D03*
X01002Y02323D03*
X00841D03*
G54D139*
X00861Y02324D03*
Y02214D03*
X00982D03*
Y02324D03*
G54D140*
X02555Y0221D03*
X02495D03*
G54D147*
X00139Y00346D03*
X0014Y03255D03*
X03515Y00196D03*
X03514Y03346D03*
G54D148*
X0024Y01946D03*
X0014D03*
X0024Y02046D03*
X0014D03*
Y02946D03*
X0024D03*
X0034Y01846D03*
X0014Y01746D03*
Y01846D03*
X0024Y01746D03*
Y01846D03*
X0044Y02746D03*
Y02646D03*
Y02046D03*
X0034D03*
X0044Y02146D03*
X0034D03*
X0044Y02946D03*
X0034D03*
X0044Y01846D03*
Y01746D03*
X0034D03*
Y01146D03*
X0044Y01246D03*
Y01146D03*
Y01046D03*
Y00946D03*
X0034Y00746D03*
X0044Y01546D03*
Y01646D03*
X0034Y01246D03*
X0044Y01446D03*
X0034D03*
Y01546D03*
Y01646D03*
X0044Y01946D03*
X0034D03*
X0044Y02246D03*
X0034D03*
Y02446D03*
Y02546D03*
X0044Y02846D03*
X0034D03*
X0044Y03046D03*
X0034D03*
Y00546D03*
Y00646D03*
X0044Y00746D03*
Y00846D03*
X0034D03*
Y01046D03*
Y00946D03*
Y02646D03*
Y02746D03*
X0044Y02446D03*
Y02546D03*
Y00646D03*
Y01346D03*
X0034D03*
Y02346D03*
X0044D03*
X0014Y02146D03*
X0024D03*
X0014Y02646D03*
X0024Y02546D03*
Y02646D03*
Y02746D03*
Y02446D03*
X0014Y02746D03*
X0024Y00646D03*
X0014Y01146D03*
X0024Y01246D03*
Y01146D03*
Y01046D03*
Y00946D03*
X0014Y00746D03*
Y01246D03*
X0024Y02246D03*
X0014D03*
Y02446D03*
Y02546D03*
X0024Y02846D03*
X0014D03*
X0024Y03046D03*
X0014D03*
Y00546D03*
Y00646D03*
X0024Y00746D03*
Y00846D03*
X0014D03*
Y01046D03*
Y00946D03*
X0024Y02346D03*
X0014D03*
Y01346D03*
X0024D03*
X0014Y01446D03*
Y01546D03*
Y01646D03*
X0024Y01546D03*
Y01646D03*
Y01446D03*
G54D149*
X02692Y03335D03*
X02613D03*
X02687Y0323D03*
X02608D03*
X0253D03*
X02771Y03335D03*
G54D150*
X01785Y0031D03*
X0268D03*
X02215D03*
X0131D03*
X0075D03*
G54D151*
X01685Y0031D03*
X0065D03*
X0121D03*
X02115D03*
X0258D03*
G54D152*
X02766Y0323D03*
X02535Y03335D03*
G54D153*
X0044Y00546D03*
X0024D03*
M02*