%FSTAX23Y23*%
%MOIN*%
%SFA1B1*%

%IPPOS*%
%ADD15C,0.005000*%
%ADD158C,0.006665*%
%LNdal_dpu_drawing_3-1*%
%LPD*%
G54D15*
X01175Y0319D02*
X01155Y0323D01*
X01195*
X01175Y0319*
X02294Y01797D02*
X02274Y01837D01*
X02314*
X02294Y01797*
X01225Y00985D02*
X01205Y01025D01*
X01245*
X01225Y00985*
X01381Y00922D02*
X01361Y00962D01*
X01401*
X01381Y00922*
X0159Y01415D02*
X0157Y01455D01*
X0161*
X0159Y01415*
X0085Y0293D02*
X0083Y0297D01*
X0087*
X0085Y0293*
X0108Y02915D02*
X0106Y02955D01*
X011*
X0108Y02915*
X0175Y02685D02*
X0173Y02725D01*
X0177*
X0175Y02685*
X02105Y02105D02*
X02085Y02145D01*
X02125*
X02105Y02105*
X03126Y01869D02*
X03106Y01909D01*
X03146*
X03126Y01869*
X03408Y01916D02*
X03388Y01956D01*
X03428*
X03408Y01916*
X03475Y01915D02*
X03455Y01955D01*
X03495*
X03475Y01915*
X0242Y0259D02*
X024Y0263D01*
X0244*
X0242Y0259*
X0317Y0296D02*
X0315Y03D01*
X0319*
X0317Y0296*
X0124Y01415D02*
X0122Y01455D01*
X0126*
X0124Y01415*
X017Y011D02*
X0168Y0114D01*
X0172*
X017Y011*
X0329Y0104D02*
X0327Y0108D01*
X0331*
X0329Y0104*
X03335D02*
X03315Y0108D01*
X03355*
X03335Y0104*
X03185Y01695D02*
X03165Y01735D01*
X03205*
X03185Y01695*
Y01635D02*
X03165Y01675D01*
X03205*
X03185Y01635*
X03255Y01695D02*
X03235Y01735D01*
X03275*
X03255Y01695*
Y01635D02*
X03235Y01675D01*
X03275*
X03255Y01635*
X03345Y01175D02*
X03325Y01215D01*
X03365*
X03345Y01175*
X0331Y01255D02*
X0329Y01295D01*
X0333*
X0331Y01255*
X03315Y007D02*
X03295Y0074D01*
X03335*
X03315Y007*
X033Y0058D02*
X0328Y0062D01*
X0332*
X033Y0058*
X0335D02*
X0333Y0062D01*
X0337*
X0335Y0058*
X03325Y00535D02*
X03305Y00575D01*
X03345*
X03325Y00535*
G54D158*
X0192Y02795D02*
D01*
X01919Y02796*
X01919Y02797*
X01919Y02799*
X01919Y028*
X01918Y02801*
X01918Y02803*
X01917Y02804*
X01916Y02805*
X01916Y02806*
X01915Y02807*
X01914Y02808*
X01913Y02809*
X01912Y0281*
X01911Y02811*
X0191Y02812*
X01908Y02812*
X01907Y02813*
X01906Y02814*
X01904Y02814*
X01903Y02814*
X01902Y02814*
X019Y02814*
X01899*
X01897Y02814*
X01896Y02814*
X01895Y02814*
X01893Y02814*
X01892Y02813*
X01891Y02812*
X0189Y02812*
X01888Y02811*
X01887Y0281*
X01886Y02809*
X01885Y02808*
X01884Y02807*
X01883Y02806*
X01883Y02805*
X01882Y02804*
X01881Y02803*
X01881Y02801*
X0188Y028*
X0188Y02799*
X0188Y02797*
X0188Y02796*
X0188Y02795*
X0188Y02793*
X0188Y02792*
X0188Y0279*
X0188Y02789*
X01881Y02788*
X01881Y02786*
X01882Y02785*
X01883Y02784*
X01883Y02783*
X01884Y02782*
X01885Y02781*
X01886Y0278*
X01887Y02779*
X01888Y02778*
X0189Y02777*
X01891Y02777*
X01892Y02776*
X01893Y02775*
X01895Y02775*
X01896Y02775*
X01897Y02775*
X01899Y02775*
X019*
X01902Y02775*
X01903Y02775*
X01904Y02775*
X01906Y02775*
X01907Y02776*
X01908Y02777*
X0191Y02777*
X01911Y02778*
X01912Y02779*
X01913Y0278*
X01914Y02781*
X01915Y02782*
X01916Y02783*
X01916Y02784*
X01917Y02785*
X01918Y02786*
X01918Y02788*
X01919Y02789*
X01919Y0279*
X01919Y02792*
X01919Y02793*
X0192Y02795*
X01191Y03081D02*
D01*
X01191Y03082*
X01191Y03084*
X01191Y03085*
X0119Y03087*
X0119Y03088*
X01189Y03089*
X01189Y0309*
X01188Y03092*
X01187Y03093*
X01186Y03094*
X01185Y03095*
X01184Y03096*
X01183Y03097*
X01182Y03098*
X01181Y03098*
X0118Y03099*
X01178Y031*
X01177Y031*
X01176Y031*
X01174Y03101*
X01173Y03101*
X01172Y03101*
X0117*
X01169Y03101*
X01168Y03101*
X01166Y031*
X01165Y031*
X01164Y031*
X01162Y03099*
X01161Y03098*
X0116Y03098*
X01159Y03097*
X01158Y03096*
X01157Y03095*
X01156Y03094*
X01155Y03093*
X01154Y03092*
X01153Y0309*
X01153Y03089*
X01152Y03088*
X01152Y03087*
X01151Y03085*
X01151Y03084*
X01151Y03082*
X01151Y03081*
X01151Y0308*
X01151Y03078*
X01151Y03077*
X01152Y03075*
X01152Y03074*
X01153Y03073*
X01153Y03072*
X01154Y0307*
X01155Y03069*
X01156Y03068*
X01157Y03067*
X01158Y03066*
X01159Y03065*
X0116Y03064*
X01161Y03064*
X01162Y03063*
X01164Y03062*
X01165Y03062*
X01166Y03062*
X01168Y03061*
X01169Y03061*
X0117Y03061*
X01172*
X01173Y03061*
X01174Y03061*
X01176Y03062*
X01177Y03062*
X01178Y03062*
X0118Y03063*
X01181Y03064*
X01182Y03064*
X01183Y03065*
X01184Y03066*
X01185Y03067*
X01186Y03068*
X01187Y03069*
X01188Y0307*
X01189Y03072*
X01189Y03073*
X0119Y03074*
X0119Y03075*
X01191Y03077*
X01191Y03078*
X01191Y0308*
X01191Y03081*
X02405Y03335D02*
D01*
X02404Y03336*
X02404Y03337*
X02404Y03339*
X02404Y0334*
X02403Y03341*
X02403Y03343*
X02402Y03344*
X02401Y03345*
X02401Y03346*
X024Y03347*
X02399Y03348*
X02398Y03349*
X02397Y0335*
X02396Y03351*
X02395Y03352*
X02393Y03352*
X02392Y03353*
X02391Y03354*
X02389Y03354*
X02388Y03354*
X02387Y03354*
X02385Y03354*
X02384*
X02382Y03354*
X02381Y03354*
X0238Y03354*
X02378Y03354*
X02377Y03353*
X02376Y03352*
X02375Y03352*
X02373Y03351*
X02372Y0335*
X02371Y03349*
X0237Y03348*
X02369Y03347*
X02368Y03346*
X02368Y03345*
X02367Y03344*
X02366Y03343*
X02366Y03341*
X02365Y0334*
X02365Y03339*
X02365Y03337*
X02365Y03336*
X02365Y03335*
X02365Y03333*
X02365Y03332*
X02365Y0333*
X02365Y03329*
X02366Y03328*
X02366Y03326*
X02367Y03325*
X02368Y03324*
X02368Y03323*
X02369Y03322*
X0237Y03321*
X02371Y0332*
X02372Y03319*
X02373Y03318*
X02375Y03317*
X02376Y03317*
X02377Y03316*
X02378Y03315*
X0238Y03315*
X02381Y03315*
X02382Y03315*
X02384Y03315*
X02385*
X02387Y03315*
X02388Y03315*
X02389Y03315*
X02391Y03315*
X02392Y03316*
X02393Y03317*
X02395Y03317*
X02396Y03318*
X02397Y03319*
X02398Y0332*
X02399Y03321*
X024Y03322*
X02401Y03323*
X02401Y03324*
X02402Y03325*
X02403Y03326*
X02403Y03328*
X02404Y03329*
X02404Y0333*
X02404Y03332*
X02404Y03333*
X02405Y03335*
X00661Y01652D02*
D01*
X00661Y01654*
X00661Y01655*
X00661Y01656*
X00661Y01658*
X0066Y01659*
X0066Y0166*
X00659Y01662*
X00658Y01663*
X00658Y01664*
X00657Y01665*
X00656Y01666*
X00655Y01667*
X00654Y01668*
X00653Y01669*
X00651Y0167*
X0065Y0167*
X00649Y01671*
X00648Y01671*
X00646Y01672*
X00645Y01672*
X00643Y01672*
X00642Y01672*
X00641*
X00639Y01672*
X00638Y01672*
X00637Y01672*
X00635Y01671*
X00634Y01671*
X00633Y0167*
X00631Y0167*
X0063Y01669*
X00629Y01668*
X00628Y01667*
X00627Y01666*
X00626Y01665*
X00625Y01664*
X00624Y01663*
X00624Y01662*
X00623Y0166*
X00623Y01659*
X00622Y01658*
X00622Y01656*
X00622Y01655*
X00621Y01654*
X00621Y01652*
X00621Y01651*
X00622Y01649*
X00622Y01648*
X00622Y01647*
X00623Y01645*
X00623Y01644*
X00624Y01643*
X00624Y01642*
X00625Y0164*
X00626Y01639*
X00627Y01638*
X00628Y01637*
X00629Y01636*
X0063Y01636*
X00631Y01635*
X00633Y01634*
X00634Y01634*
X00635Y01633*
X00637Y01633*
X00638Y01633*
X00639Y01632*
X00641Y01632*
X00642*
X00643Y01632*
X00645Y01633*
X00646Y01633*
X00648Y01633*
X00649Y01634*
X0065Y01634*
X00651Y01635*
X00653Y01636*
X00654Y01636*
X00655Y01637*
X00656Y01638*
X00657Y01639*
X00658Y0164*
X00658Y01642*
X00659Y01643*
X0066Y01644*
X0066Y01645*
X00661Y01647*
X00661Y01648*
X00661Y01649*
X00661Y01651*
X00661Y01652*
Y01612D02*
D01*
X00661Y01614*
X00661Y01615*
X00661Y01616*
X00661Y01618*
X0066Y01619*
X0066Y0162*
X00659Y01622*
X00658Y01623*
X00658Y01624*
X00657Y01625*
X00656Y01626*
X00655Y01627*
X00654Y01628*
X00653Y01629*
X00651Y0163*
X0065Y0163*
X00649Y01631*
X00648Y01631*
X00646Y01632*
X00645Y01632*
X00643Y01632*
X00642Y01632*
X00641*
X00639Y01632*
X00638Y01632*
X00637Y01632*
X00635Y01631*
X00634Y01631*
X00633Y0163*
X00631Y0163*
X0063Y01629*
X00629Y01628*
X00628Y01627*
X00627Y01626*
X00626Y01625*
X00625Y01624*
X00624Y01623*
X00624Y01622*
X00623Y0162*
X00623Y01619*
X00622Y01618*
X00622Y01616*
X00622Y01615*
X00621Y01614*
X00621Y01612*
X00621Y01611*
X00622Y01609*
X00622Y01608*
X00622Y01607*
X00623Y01605*
X00623Y01604*
X00624Y01603*
X00624Y01602*
X00625Y016*
X00626Y01599*
X00627Y01598*
X00628Y01597*
X00629Y01596*
X0063Y01596*
X00631Y01595*
X00633Y01594*
X00634Y01594*
X00635Y01593*
X00637Y01593*
X00638Y01593*
X00639Y01592*
X00641Y01592*
X00642*
X00643Y01592*
X00645Y01593*
X00646Y01593*
X00648Y01593*
X00649Y01594*
X0065Y01594*
X00651Y01595*
X00653Y01596*
X00654Y01596*
X00655Y01597*
X00656Y01598*
X00657Y01599*
X00658Y016*
X00658Y01602*
X00659Y01603*
X0066Y01604*
X0066Y01605*
X00661Y01607*
X00661Y01608*
X00661Y01609*
X00661Y01611*
X00661Y01612*
X00706Y01652D02*
D01*
X00706Y01654*
X00706Y01655*
X00706Y01656*
X00706Y01658*
X00705Y01659*
X00705Y0166*
X00704Y01662*
X00703Y01663*
X00703Y01664*
X00702Y01665*
X00701Y01666*
X007Y01667*
X00699Y01668*
X00698Y01669*
X00696Y0167*
X00695Y0167*
X00694Y01671*
X00693Y01671*
X00691Y01672*
X0069Y01672*
X00688Y01672*
X00687Y01672*
X00686*
X00684Y01672*
X00683Y01672*
X00682Y01672*
X0068Y01671*
X00679Y01671*
X00678Y0167*
X00676Y0167*
X00675Y01669*
X00674Y01668*
X00673Y01667*
X00672Y01666*
X00671Y01665*
X0067Y01664*
X00669Y01663*
X00669Y01662*
X00668Y0166*
X00668Y01659*
X00667Y01658*
X00667Y01656*
X00667Y01655*
X00666Y01654*
X00666Y01652*
X00666Y01651*
X00667Y01649*
X00667Y01648*
X00667Y01647*
X00668Y01645*
X00668Y01644*
X00669Y01643*
X00669Y01642*
X0067Y0164*
X00671Y01639*
X00672Y01638*
X00673Y01637*
X00674Y01636*
X00675Y01636*
X00676Y01635*
X00678Y01634*
X00679Y01634*
X0068Y01633*
X00682Y01633*
X00683Y01633*
X00684Y01632*
X00686Y01632*
X00687*
X00688Y01632*
X0069Y01633*
X00691Y01633*
X00693Y01633*
X00694Y01634*
X00695Y01634*
X00696Y01635*
X00698Y01636*
X00699Y01636*
X007Y01637*
X00701Y01638*
X00702Y01639*
X00703Y0164*
X00703Y01642*
X00704Y01643*
X00705Y01644*
X00705Y01645*
X00706Y01647*
X00706Y01648*
X00706Y01649*
X00706Y01651*
X00706Y01652*
Y01612D02*
D01*
X00706Y01614*
X00706Y01615*
X00706Y01616*
X00706Y01618*
X00705Y01619*
X00705Y0162*
X00704Y01622*
X00703Y01623*
X00703Y01624*
X00702Y01625*
X00701Y01626*
X007Y01627*
X00699Y01628*
X00698Y01629*
X00696Y0163*
X00695Y0163*
X00694Y01631*
X00693Y01631*
X00691Y01632*
X0069Y01632*
X00688Y01632*
X00687Y01632*
X00686*
X00684Y01632*
X00683Y01632*
X00682Y01632*
X0068Y01631*
X00679Y01631*
X00678Y0163*
X00676Y0163*
X00675Y01629*
X00674Y01628*
X00673Y01627*
X00672Y01626*
X00671Y01625*
X0067Y01624*
X00669Y01623*
X00669Y01622*
X00668Y0162*
X00668Y01619*
X00667Y01618*
X00667Y01616*
X00667Y01615*
X00666Y01614*
X00666Y01612*
X00666Y01611*
X00667Y01609*
X00667Y01608*
X00667Y01607*
X00668Y01605*
X00668Y01604*
X00669Y01603*
X00669Y01602*
X0067Y016*
X00671Y01599*
X00672Y01598*
X00673Y01597*
X00674Y01596*
X00675Y01596*
X00676Y01595*
X00678Y01594*
X00679Y01594*
X0068Y01593*
X00682Y01593*
X00683Y01593*
X00684Y01592*
X00686Y01592*
X00687*
X00688Y01592*
X0069Y01593*
X00691Y01593*
X00693Y01593*
X00694Y01594*
X00695Y01594*
X00696Y01595*
X00698Y01596*
X00699Y01596*
X007Y01597*
X00701Y01598*
X00702Y01599*
X00703Y016*
X00703Y01602*
X00704Y01603*
X00705Y01604*
X00705Y01605*
X00706Y01607*
X00706Y01608*
X00706Y01609*
X00706Y01611*
X00706Y01612*
X02035Y0182D02*
D01*
X02034Y01821*
X02034Y01822*
X02034Y01824*
X02034Y01825*
X02033Y01826*
X02033Y01828*
X02032Y01829*
X02031Y0183*
X02031Y01831*
X0203Y01832*
X02029Y01833*
X02028Y01834*
X02027Y01835*
X02026Y01836*
X02025Y01837*
X02023Y01837*
X02022Y01838*
X02021Y01839*
X02019Y01839*
X02018Y01839*
X02017Y01839*
X02015Y01839*
X02014*
X02012Y01839*
X02011Y01839*
X0201Y01839*
X02008Y01839*
X02007Y01838*
X02006Y01837*
X02005Y01837*
X02003Y01836*
X02002Y01835*
X02001Y01834*
X02Y01833*
X01999Y01832*
X01998Y01831*
X01998Y0183*
X01997Y01829*
X01996Y01828*
X01996Y01826*
X01995Y01825*
X01995Y01824*
X01995Y01822*
X01995Y01821*
X01995Y0182*
X01995Y01818*
X01995Y01817*
X01995Y01815*
X01995Y01814*
X01996Y01813*
X01996Y01811*
X01997Y0181*
X01998Y01809*
X01998Y01808*
X01999Y01807*
X02Y01806*
X02001Y01805*
X02002Y01804*
X02003Y01803*
X02005Y01802*
X02006Y01802*
X02007Y01801*
X02008Y018*
X0201Y018*
X02011Y018*
X02012Y018*
X02014Y018*
X02015*
X02017Y018*
X02018Y018*
X02019Y018*
X02021Y018*
X02022Y01801*
X02023Y01802*
X02025Y01802*
X02026Y01803*
X02027Y01804*
X02028Y01805*
X02029Y01806*
X0203Y01807*
X02031Y01808*
X02031Y01809*
X02032Y0181*
X02033Y01811*
X02033Y01813*
X02034Y01814*
X02034Y01815*
X02034Y01817*
X02034Y01818*
X02035Y0182*
X0075Y03095D02*
D01*
X00749Y03096*
X00749Y03097*
X00749Y03099*
X00749Y031*
X00748Y03101*
X00748Y03103*
X00747Y03104*
X00746Y03105*
X00746Y03106*
X00745Y03107*
X00744Y03108*
X00743Y03109*
X00742Y0311*
X00741Y03111*
X0074Y03112*
X00738Y03112*
X00737Y03113*
X00736Y03114*
X00734Y03114*
X00733Y03114*
X00732Y03114*
X0073Y03114*
X00729*
X00727Y03114*
X00726Y03114*
X00725Y03114*
X00723Y03114*
X00722Y03113*
X00721Y03112*
X0072Y03112*
X00718Y03111*
X00717Y0311*
X00716Y03109*
X00715Y03108*
X00714Y03107*
X00713Y03106*
X00713Y03105*
X00712Y03104*
X00711Y03103*
X00711Y03101*
X0071Y031*
X0071Y03099*
X0071Y03097*
X0071Y03096*
X0071Y03095*
X0071Y03093*
X0071Y03092*
X0071Y0309*
X0071Y03089*
X00711Y03088*
X00711Y03086*
X00712Y03085*
X00713Y03084*
X00713Y03083*
X00714Y03082*
X00715Y03081*
X00716Y0308*
X00717Y03079*
X00718Y03078*
X0072Y03077*
X00721Y03077*
X00722Y03076*
X00723Y03075*
X00725Y03075*
X00726Y03075*
X00727Y03075*
X00729Y03075*
X0073*
X00732Y03075*
X00733Y03075*
X00734Y03075*
X00736Y03075*
X00737Y03076*
X00738Y03077*
X0074Y03077*
X00741Y03078*
X00742Y03079*
X00743Y0308*
X00744Y03081*
X00745Y03082*
X00746Y03083*
X00746Y03084*
X00747Y03085*
X00748Y03086*
X00748Y03088*
X00749Y03089*
X00749Y0309*
X00749Y03092*
X00749Y03093*
X0075Y03095*
X0216Y02845D02*
D01*
X02159Y02846*
X02159Y02847*
X02159Y02849*
X02159Y0285*
X02158Y02851*
X02158Y02853*
X02157Y02854*
X02156Y02855*
X02156Y02856*
X02155Y02857*
X02154Y02858*
X02153Y02859*
X02152Y0286*
X02151Y02861*
X0215Y02862*
X02148Y02862*
X02147Y02863*
X02146Y02864*
X02144Y02864*
X02143Y02864*
X02142Y02864*
X0214Y02864*
X02139*
X02137Y02864*
X02136Y02864*
X02135Y02864*
X02133Y02864*
X02132Y02863*
X02131Y02862*
X0213Y02862*
X02128Y02861*
X02127Y0286*
X02126Y02859*
X02125Y02858*
X02124Y02857*
X02123Y02856*
X02123Y02855*
X02122Y02854*
X02121Y02853*
X02121Y02851*
X0212Y0285*
X0212Y02849*
X0212Y02847*
X0212Y02846*
X0212Y02845*
X0212Y02843*
X0212Y02842*
X0212Y0284*
X0212Y02839*
X02121Y02838*
X02121Y02836*
X02122Y02835*
X02123Y02834*
X02123Y02833*
X02124Y02832*
X02125Y02831*
X02126Y0283*
X02127Y02829*
X02128Y02828*
X0213Y02827*
X02131Y02827*
X02132Y02826*
X02133Y02825*
X02135Y02825*
X02136Y02825*
X02137Y02825*
X02139Y02825*
X0214*
X02142Y02825*
X02143Y02825*
X02144Y02825*
X02146Y02825*
X02147Y02826*
X02148Y02827*
X0215Y02827*
X02151Y02828*
X02152Y02829*
X02153Y0283*
X02154Y02831*
X02155Y02832*
X02156Y02833*
X02156Y02834*
X02157Y02835*
X02158Y02836*
X02158Y02838*
X02159Y02839*
X02159Y0284*
X02159Y02842*
X02159Y02843*
X0216Y02845*
X0223Y0182D02*
D01*
X02229Y01821*
X02229Y01822*
X02229Y01824*
X02229Y01825*
X02228Y01826*
X02228Y01828*
X02227Y01829*
X02226Y0183*
X02226Y01831*
X02225Y01832*
X02224Y01833*
X02223Y01834*
X02222Y01835*
X02221Y01836*
X0222Y01837*
X02218Y01837*
X02217Y01838*
X02216Y01839*
X02214Y01839*
X02213Y01839*
X02212Y01839*
X0221Y01839*
X02209*
X02207Y01839*
X02206Y01839*
X02205Y01839*
X02203Y01839*
X02202Y01838*
X02201Y01837*
X022Y01837*
X02198Y01836*
X02197Y01835*
X02196Y01834*
X02195Y01833*
X02194Y01832*
X02193Y01831*
X02193Y0183*
X02192Y01829*
X02191Y01828*
X02191Y01826*
X0219Y01825*
X0219Y01824*
X0219Y01822*
X0219Y01821*
X0219Y0182*
X0219Y01818*
X0219Y01817*
X0219Y01815*
X0219Y01814*
X02191Y01813*
X02191Y01811*
X02192Y0181*
X02193Y01809*
X02193Y01808*
X02194Y01807*
X02195Y01806*
X02196Y01805*
X02197Y01804*
X02198Y01803*
X022Y01802*
X02201Y01802*
X02202Y01801*
X02203Y018*
X02205Y018*
X02206Y018*
X02207Y018*
X02209Y018*
X0221*
X02212Y018*
X02213Y018*
X02214Y018*
X02216Y018*
X02217Y01801*
X02218Y01802*
X0222Y01802*
X02221Y01803*
X02222Y01804*
X02223Y01805*
X02224Y01806*
X02225Y01807*
X02226Y01808*
X02226Y01809*
X02227Y0181*
X02228Y01811*
X02228Y01813*
X02229Y01814*
X02229Y01815*
X02229Y01817*
X02229Y01818*
X0223Y0182*
X02235Y02095D02*
D01*
X02234Y02096*
X02234Y02097*
X02234Y02099*
X02234Y021*
X02233Y02101*
X02233Y02103*
X02232Y02104*
X02231Y02105*
X02231Y02106*
X0223Y02107*
X02229Y02108*
X02228Y02109*
X02227Y0211*
X02226Y02111*
X02225Y02112*
X02223Y02112*
X02222Y02113*
X02221Y02114*
X02219Y02114*
X02218Y02114*
X02217Y02114*
X02215Y02114*
X02214*
X02212Y02114*
X02211Y02114*
X0221Y02114*
X02208Y02114*
X02207Y02113*
X02206Y02112*
X02205Y02112*
X02203Y02111*
X02202Y0211*
X02201Y02109*
X022Y02108*
X02199Y02107*
X02198Y02106*
X02198Y02105*
X02197Y02104*
X02196Y02103*
X02196Y02101*
X02195Y021*
X02195Y02099*
X02195Y02097*
X02195Y02096*
X02195Y02095*
X02195Y02093*
X02195Y02092*
X02195Y0209*
X02195Y02089*
X02196Y02088*
X02196Y02086*
X02197Y02085*
X02198Y02084*
X02198Y02083*
X02199Y02082*
X022Y02081*
X02201Y0208*
X02202Y02079*
X02203Y02078*
X02205Y02077*
X02206Y02077*
X02207Y02076*
X02208Y02075*
X0221Y02075*
X02211Y02075*
X02212Y02075*
X02214Y02075*
X02215*
X02217Y02075*
X02218Y02075*
X02219Y02075*
X02221Y02075*
X02222Y02076*
X02223Y02077*
X02225Y02077*
X02226Y02078*
X02227Y02079*
X02228Y0208*
X02229Y02081*
X0223Y02082*
X02231Y02083*
X02231Y02084*
X02232Y02085*
X02233Y02086*
X02233Y02088*
X02234Y02089*
X02234Y0209*
X02234Y02092*
X02234Y02093*
X02235Y02095*
X0265Y0203D02*
D01*
X02649Y02031*
X02649Y02032*
X02649Y02034*
X02649Y02035*
X02648Y02036*
X02648Y02038*
X02647Y02039*
X02646Y0204*
X02646Y02041*
X02645Y02042*
X02644Y02043*
X02643Y02044*
X02642Y02045*
X02641Y02046*
X0264Y02047*
X02638Y02047*
X02637Y02048*
X02636Y02049*
X02634Y02049*
X02633Y02049*
X02632Y02049*
X0263Y02049*
X02629*
X02627Y02049*
X02626Y02049*
X02625Y02049*
X02623Y02049*
X02622Y02048*
X02621Y02047*
X0262Y02047*
X02618Y02046*
X02617Y02045*
X02616Y02044*
X02615Y02043*
X02614Y02042*
X02613Y02041*
X02613Y0204*
X02612Y02039*
X02611Y02038*
X02611Y02036*
X0261Y02035*
X0261Y02034*
X0261Y02032*
X0261Y02031*
X0261Y0203*
X0261Y02028*
X0261Y02027*
X0261Y02025*
X0261Y02024*
X02611Y02023*
X02611Y02021*
X02612Y0202*
X02613Y02019*
X02613Y02018*
X02614Y02017*
X02615Y02016*
X02616Y02015*
X02617Y02014*
X02618Y02013*
X0262Y02012*
X02621Y02012*
X02622Y02011*
X02623Y0201*
X02625Y0201*
X02626Y0201*
X02627Y0201*
X02629Y0201*
X0263*
X02632Y0201*
X02633Y0201*
X02634Y0201*
X02636Y0201*
X02637Y02011*
X02638Y02012*
X0264Y02012*
X02641Y02013*
X02642Y02014*
X02643Y02015*
X02644Y02016*
X02645Y02017*
X02646Y02018*
X02646Y02019*
X02647Y0202*
X02648Y02021*
X02648Y02023*
X02649Y02024*
X02649Y02025*
X02649Y02027*
X02649Y02028*
X0265Y0203*
X02785Y02165D02*
D01*
X02784Y02166*
X02784Y02167*
X02784Y02169*
X02784Y0217*
X02783Y02171*
X02783Y02173*
X02782Y02174*
X02781Y02175*
X02781Y02176*
X0278Y02177*
X02779Y02178*
X02778Y02179*
X02777Y0218*
X02776Y02181*
X02775Y02182*
X02773Y02182*
X02772Y02183*
X02771Y02184*
X02769Y02184*
X02768Y02184*
X02767Y02184*
X02765Y02184*
X02764*
X02762Y02184*
X02761Y02184*
X0276Y02184*
X02758Y02184*
X02757Y02183*
X02756Y02182*
X02755Y02182*
X02753Y02181*
X02752Y0218*
X02751Y02179*
X0275Y02178*
X02749Y02177*
X02748Y02176*
X02748Y02175*
X02747Y02174*
X02746Y02173*
X02746Y02171*
X02745Y0217*
X02745Y02169*
X02745Y02167*
X02745Y02166*
X02745Y02165*
X02745Y02163*
X02745Y02162*
X02745Y0216*
X02745Y02159*
X02746Y02158*
X02746Y02156*
X02747Y02155*
X02748Y02154*
X02748Y02153*
X02749Y02152*
X0275Y02151*
X02751Y0215*
X02752Y02149*
X02753Y02148*
X02755Y02147*
X02756Y02147*
X02757Y02146*
X02758Y02145*
X0276Y02145*
X02761Y02145*
X02762Y02145*
X02764Y02145*
X02765*
X02767Y02145*
X02768Y02145*
X02769Y02145*
X02771Y02145*
X02772Y02146*
X02773Y02147*
X02775Y02147*
X02776Y02148*
X02777Y02149*
X02778Y0215*
X02779Y02151*
X0278Y02152*
X02781Y02153*
X02781Y02154*
X02782Y02155*
X02783Y02156*
X02783Y02158*
X02784Y02159*
X02784Y0216*
X02784Y02162*
X02784Y02163*
X02785Y02165*
X03435Y02355D02*
D01*
X03434Y02356*
X03434Y02357*
X03434Y02359*
X03434Y0236*
X03433Y02361*
X03433Y02363*
X03432Y02364*
X03431Y02365*
X03431Y02366*
X0343Y02367*
X03429Y02368*
X03428Y02369*
X03427Y0237*
X03426Y02371*
X03425Y02372*
X03423Y02372*
X03422Y02373*
X03421Y02374*
X03419Y02374*
X03418Y02374*
X03417Y02374*
X03415Y02374*
X03414*
X03412Y02374*
X03411Y02374*
X0341Y02374*
X03408Y02374*
X03407Y02373*
X03406Y02372*
X03405Y02372*
X03403Y02371*
X03402Y0237*
X03401Y02369*
X034Y02368*
X03399Y02367*
X03398Y02366*
X03398Y02365*
X03397Y02364*
X03396Y02363*
X03396Y02361*
X03395Y0236*
X03395Y02359*
X03395Y02357*
X03395Y02356*
X03395Y02355*
X03395Y02353*
X03395Y02352*
X03395Y0235*
X03395Y02349*
X03396Y02348*
X03396Y02346*
X03397Y02345*
X03398Y02344*
X03398Y02343*
X03399Y02342*
X034Y02341*
X03401Y0234*
X03402Y02339*
X03403Y02338*
X03405Y02337*
X03406Y02337*
X03407Y02336*
X03408Y02335*
X0341Y02335*
X03411Y02335*
X03412Y02335*
X03414Y02335*
X03415*
X03417Y02335*
X03418Y02335*
X03419Y02335*
X03421Y02335*
X03422Y02336*
X03423Y02337*
X03425Y02337*
X03426Y02338*
X03427Y02339*
X03428Y0234*
X03429Y02341*
X0343Y02342*
X03431Y02343*
X03431Y02344*
X03432Y02345*
X03433Y02346*
X03433Y02348*
X03434Y02349*
X03434Y0235*
X03434Y02352*
X03434Y02353*
X03435Y02355*
Y02485D02*
D01*
X03434Y02486*
X03434Y02487*
X03434Y02489*
X03434Y0249*
X03433Y02491*
X03433Y02493*
X03432Y02494*
X03431Y02495*
X03431Y02496*
X0343Y02497*
X03429Y02498*
X03428Y02499*
X03427Y025*
X03426Y02501*
X03425Y02502*
X03423Y02502*
X03422Y02503*
X03421Y02504*
X03419Y02504*
X03418Y02504*
X03417Y02504*
X03415Y02504*
X03414*
X03412Y02504*
X03411Y02504*
X0341Y02504*
X03408Y02504*
X03407Y02503*
X03406Y02502*
X03405Y02502*
X03403Y02501*
X03402Y025*
X03401Y02499*
X034Y02498*
X03399Y02497*
X03398Y02496*
X03398Y02495*
X03397Y02494*
X03396Y02493*
X03396Y02491*
X03395Y0249*
X03395Y02489*
X03395Y02487*
X03395Y02486*
X03395Y02485*
X03395Y02483*
X03395Y02482*
X03395Y0248*
X03395Y02479*
X03396Y02478*
X03396Y02476*
X03397Y02475*
X03398Y02474*
X03398Y02473*
X03399Y02472*
X034Y02471*
X03401Y0247*
X03402Y02469*
X03403Y02468*
X03405Y02467*
X03406Y02467*
X03407Y02466*
X03408Y02465*
X0341Y02465*
X03411Y02465*
X03412Y02465*
X03414Y02465*
X03415*
X03417Y02465*
X03418Y02465*
X03419Y02465*
X03421Y02465*
X03422Y02466*
X03423Y02467*
X03425Y02467*
X03426Y02468*
X03427Y02469*
X03428Y0247*
X03429Y02471*
X0343Y02472*
X03431Y02473*
X03431Y02474*
X03432Y02475*
X03433Y02476*
X03433Y02478*
X03434Y02479*
X03434Y0248*
X03434Y02482*
X03434Y02483*
X03435Y02485*
X02235Y02845D02*
D01*
X02234Y02846*
X02234Y02847*
X02234Y02849*
X02234Y0285*
X02233Y02851*
X02233Y02853*
X02232Y02854*
X02231Y02855*
X02231Y02856*
X0223Y02857*
X02229Y02858*
X02228Y02859*
X02227Y0286*
X02226Y02861*
X02225Y02862*
X02223Y02862*
X02222Y02863*
X02221Y02864*
X02219Y02864*
X02218Y02864*
X02217Y02864*
X02215Y02864*
X02214*
X02212Y02864*
X02211Y02864*
X0221Y02864*
X02208Y02864*
X02207Y02863*
X02206Y02862*
X02205Y02862*
X02203Y02861*
X02202Y0286*
X02201Y02859*
X022Y02858*
X02199Y02857*
X02198Y02856*
X02198Y02855*
X02197Y02854*
X02196Y02853*
X02196Y02851*
X02195Y0285*
X02195Y02849*
X02195Y02847*
X02195Y02846*
X02195Y02845*
X02195Y02843*
X02195Y02842*
X02195Y0284*
X02195Y02839*
X02196Y02838*
X02196Y02836*
X02197Y02835*
X02198Y02834*
X02198Y02833*
X02199Y02832*
X022Y02831*
X02201Y0283*
X02202Y02829*
X02203Y02828*
X02205Y02827*
X02206Y02827*
X02207Y02826*
X02208Y02825*
X0221Y02825*
X02211Y02825*
X02212Y02825*
X02214Y02825*
X02215*
X02217Y02825*
X02218Y02825*
X02219Y02825*
X02221Y02825*
X02222Y02826*
X02223Y02827*
X02225Y02827*
X02226Y02828*
X02227Y02829*
X02228Y0283*
X02229Y02831*
X0223Y02832*
X02231Y02833*
X02231Y02834*
X02232Y02835*
X02233Y02836*
X02233Y02838*
X02234Y02839*
X02234Y0284*
X02234Y02842*
X02234Y02843*
X02235Y02845*
X0241Y02925D02*
D01*
X02409Y02926*
X02409Y02927*
X02409Y02929*
X02409Y0293*
X02408Y02931*
X02408Y02933*
X02407Y02934*
X02406Y02935*
X02406Y02936*
X02405Y02937*
X02404Y02938*
X02403Y02939*
X02402Y0294*
X02401Y02941*
X024Y02942*
X02398Y02942*
X02397Y02943*
X02396Y02944*
X02394Y02944*
X02393Y02944*
X02392Y02944*
X0239Y02944*
X02389*
X02387Y02944*
X02386Y02944*
X02385Y02944*
X02383Y02944*
X02382Y02943*
X02381Y02942*
X0238Y02942*
X02378Y02941*
X02377Y0294*
X02376Y02939*
X02375Y02938*
X02374Y02937*
X02373Y02936*
X02373Y02935*
X02372Y02934*
X02371Y02933*
X02371Y02931*
X0237Y0293*
X0237Y02929*
X0237Y02927*
X0237Y02926*
X0237Y02925*
X0237Y02923*
X0237Y02922*
X0237Y0292*
X0237Y02919*
X02371Y02918*
X02371Y02916*
X02372Y02915*
X02373Y02914*
X02373Y02913*
X02374Y02912*
X02375Y02911*
X02376Y0291*
X02377Y02909*
X02378Y02908*
X0238Y02907*
X02381Y02907*
X02382Y02906*
X02383Y02905*
X02385Y02905*
X02386Y02905*
X02387Y02905*
X02389Y02905*
X0239*
X02392Y02905*
X02393Y02905*
X02394Y02905*
X02396Y02905*
X02397Y02906*
X02398Y02907*
X024Y02907*
X02401Y02908*
X02402Y02909*
X02403Y0291*
X02404Y02911*
X02405Y02912*
X02406Y02913*
X02406Y02914*
X02407Y02915*
X02408Y02916*
X02408Y02918*
X02409Y02919*
X02409Y0292*
X02409Y02922*
X02409Y02923*
X0241Y02925*
X02215Y0312D02*
D01*
X02214Y03121*
X02214Y03122*
X02214Y03124*
X02214Y03125*
X02213Y03126*
X02213Y03128*
X02212Y03129*
X02211Y0313*
X02211Y03131*
X0221Y03132*
X02209Y03133*
X02208Y03134*
X02207Y03135*
X02206Y03136*
X02205Y03137*
X02203Y03137*
X02202Y03138*
X02201Y03139*
X02199Y03139*
X02198Y03139*
X02197Y03139*
X02195Y03139*
X02194*
X02192Y03139*
X02191Y03139*
X0219Y03139*
X02188Y03139*
X02187Y03138*
X02186Y03137*
X02185Y03137*
X02183Y03136*
X02182Y03135*
X02181Y03134*
X0218Y03133*
X02179Y03132*
X02178Y03131*
X02178Y0313*
X02177Y03129*
X02176Y03128*
X02176Y03126*
X02175Y03125*
X02175Y03124*
X02175Y03122*
X02175Y03121*
X02175Y0312*
X02175Y03118*
X02175Y03117*
X02175Y03115*
X02175Y03114*
X02176Y03113*
X02176Y03111*
X02177Y0311*
X02178Y03109*
X02178Y03108*
X02179Y03107*
X0218Y03106*
X02181Y03105*
X02182Y03104*
X02183Y03103*
X02185Y03102*
X02186Y03102*
X02187Y03101*
X02188Y031*
X0219Y031*
X02191Y031*
X02192Y031*
X02194Y031*
X02195*
X02197Y031*
X02198Y031*
X02199Y031*
X02201Y031*
X02202Y03101*
X02203Y03102*
X02205Y03102*
X02206Y03103*
X02207Y03104*
X02208Y03105*
X02209Y03106*
X0221Y03107*
X02211Y03108*
X02211Y03109*
X02212Y0311*
X02213Y03111*
X02213Y03113*
X02214Y03114*
X02214Y03115*
X02214Y03117*
X02214Y03118*
X02215Y0312*
X0241Y03045D02*
D01*
X02409Y03046*
X02409Y03047*
X02409Y03049*
X02409Y0305*
X02408Y03051*
X02408Y03053*
X02407Y03054*
X02406Y03055*
X02406Y03056*
X02405Y03057*
X02404Y03058*
X02403Y03059*
X02402Y0306*
X02401Y03061*
X024Y03062*
X02398Y03062*
X02397Y03063*
X02396Y03064*
X02394Y03064*
X02393Y03064*
X02392Y03064*
X0239Y03064*
X02389*
X02387Y03064*
X02386Y03064*
X02385Y03064*
X02383Y03064*
X02382Y03063*
X02381Y03062*
X0238Y03062*
X02378Y03061*
X02377Y0306*
X02376Y03059*
X02375Y03058*
X02374Y03057*
X02373Y03056*
X02373Y03055*
X02372Y03054*
X02371Y03053*
X02371Y03051*
X0237Y0305*
X0237Y03049*
X0237Y03047*
X0237Y03046*
X0237Y03045*
X0237Y03043*
X0237Y03042*
X0237Y0304*
X0237Y03039*
X02371Y03038*
X02371Y03036*
X02372Y03035*
X02373Y03034*
X02373Y03033*
X02374Y03032*
X02375Y03031*
X02376Y0303*
X02377Y03029*
X02378Y03028*
X0238Y03027*
X02381Y03027*
X02382Y03026*
X02383Y03025*
X02385Y03025*
X02386Y03025*
X02387Y03025*
X02389Y03025*
X0239*
X02392Y03025*
X02393Y03025*
X02394Y03025*
X02396Y03025*
X02397Y03026*
X02398Y03027*
X024Y03027*
X02401Y03028*
X02402Y03029*
X02403Y0303*
X02404Y03031*
X02405Y03032*
X02406Y03033*
X02406Y03034*
X02407Y03035*
X02408Y03036*
X02408Y03038*
X02409Y03039*
X02409Y0304*
X02409Y03042*
X02409Y03043*
X0241Y03045*
X02255Y03255D02*
D01*
X02254Y03256*
X02254Y03257*
X02254Y03259*
X02254Y0326*
X02253Y03261*
X02253Y03263*
X02252Y03264*
X02251Y03265*
X02251Y03266*
X0225Y03267*
X02249Y03268*
X02248Y03269*
X02247Y0327*
X02246Y03271*
X02245Y03272*
X02243Y03272*
X02242Y03273*
X02241Y03274*
X02239Y03274*
X02238Y03274*
X02237Y03274*
X02235Y03274*
X02234*
X02232Y03274*
X02231Y03274*
X0223Y03274*
X02228Y03274*
X02227Y03273*
X02226Y03272*
X02225Y03272*
X02223Y03271*
X02222Y0327*
X02221Y03269*
X0222Y03268*
X02219Y03267*
X02218Y03266*
X02218Y03265*
X02217Y03264*
X02216Y03263*
X02216Y03261*
X02215Y0326*
X02215Y03259*
X02215Y03257*
X02215Y03256*
X02215Y03255*
X02215Y03253*
X02215Y03252*
X02215Y0325*
X02215Y03249*
X02216Y03248*
X02216Y03246*
X02217Y03245*
X02218Y03244*
X02218Y03243*
X02219Y03242*
X0222Y03241*
X02221Y0324*
X02222Y03239*
X02223Y03238*
X02225Y03237*
X02226Y03237*
X02227Y03236*
X02228Y03235*
X0223Y03235*
X02231Y03235*
X02232Y03235*
X02234Y03235*
X02235*
X02237Y03235*
X02238Y03235*
X02239Y03235*
X02241Y03235*
X02242Y03236*
X02243Y03237*
X02245Y03237*
X02246Y03238*
X02247Y03239*
X02248Y0324*
X02249Y03241*
X0225Y03242*
X02251Y03243*
X02251Y03244*
X02252Y03245*
X02253Y03246*
X02253Y03248*
X02254Y03249*
X02254Y0325*
X02254Y03252*
X02254Y03253*
X02255Y03255*
X0241Y02985D02*
D01*
X02409Y02986*
X02409Y02987*
X02409Y02989*
X02409Y0299*
X02408Y02991*
X02408Y02993*
X02407Y02994*
X02406Y02995*
X02406Y02996*
X02405Y02997*
X02404Y02998*
X02403Y02999*
X02402Y03*
X02401Y03001*
X024Y03002*
X02398Y03002*
X02397Y03003*
X02396Y03004*
X02394Y03004*
X02393Y03004*
X02392Y03004*
X0239Y03004*
X02389*
X02387Y03004*
X02386Y03004*
X02385Y03004*
X02383Y03004*
X02382Y03003*
X02381Y03002*
X0238Y03002*
X02378Y03001*
X02377Y03*
X02376Y02999*
X02375Y02998*
X02374Y02997*
X02373Y02996*
X02373Y02995*
X02372Y02994*
X02371Y02993*
X02371Y02991*
X0237Y0299*
X0237Y02989*
X0237Y02987*
X0237Y02986*
X0237Y02985*
X0237Y02983*
X0237Y02982*
X0237Y0298*
X0237Y02979*
X02371Y02978*
X02371Y02976*
X02372Y02975*
X02373Y02974*
X02373Y02973*
X02374Y02972*
X02375Y02971*
X02376Y0297*
X02377Y02969*
X02378Y02968*
X0238Y02967*
X02381Y02967*
X02382Y02966*
X02383Y02965*
X02385Y02965*
X02386Y02965*
X02387Y02965*
X02389Y02965*
X0239*
X02392Y02965*
X02393Y02965*
X02394Y02965*
X02396Y02965*
X02397Y02966*
X02398Y02967*
X024Y02967*
X02401Y02968*
X02402Y02969*
X02403Y0297*
X02404Y02971*
X02405Y02972*
X02406Y02973*
X02406Y02974*
X02407Y02975*
X02408Y02976*
X02408Y02978*
X02409Y02979*
X02409Y0298*
X02409Y02982*
X02409Y02983*
X0241Y02985*
X03433Y02615D02*
D01*
X03433Y02616*
X03433Y02617*
X03433Y02619*
X03432Y0262*
X03432Y02621*
X03431Y02623*
X03431Y02624*
X0343Y02625*
X03429Y02626*
X03428Y02627*
X03427Y02628*
X03426Y02629*
X03425Y0263*
X03424Y02631*
X03423Y02632*
X03422Y02632*
X0342Y02633*
X03419Y02634*
X03418Y02634*
X03416Y02634*
X03415Y02634*
X03414Y02634*
X03412*
X03411Y02634*
X0341Y02634*
X03408Y02634*
X03407Y02634*
X03406Y02633*
X03404Y02632*
X03403Y02632*
X03402Y02631*
X03401Y0263*
X034Y02629*
X03399Y02628*
X03398Y02627*
X03397Y02626*
X03396Y02625*
X03395Y02624*
X03395Y02623*
X03394Y02621*
X03394Y0262*
X03393Y02619*
X03393Y02617*
X03393Y02616*
X03393Y02615*
X03393Y02613*
X03393Y02612*
X03393Y0261*
X03394Y02609*
X03394Y02608*
X03395Y02606*
X03395Y02605*
X03396Y02604*
X03397Y02603*
X03398Y02602*
X03399Y02601*
X034Y026*
X03401Y02599*
X03402Y02598*
X03403Y02597*
X03404Y02597*
X03406Y02596*
X03407Y02595*
X03408Y02595*
X0341Y02595*
X03411Y02595*
X03412Y02595*
X03414*
X03415Y02595*
X03416Y02595*
X03418Y02595*
X03419Y02595*
X0342Y02596*
X03422Y02597*
X03423Y02597*
X03424Y02598*
X03425Y02599*
X03426Y026*
X03427Y02601*
X03428Y02602*
X03429Y02603*
X0343Y02604*
X03431Y02605*
X03431Y02606*
X03432Y02608*
X03432Y02609*
X03433Y0261*
X03433Y02612*
X03433Y02613*
X03433Y02615*
X03432Y02688D02*
D01*
X03432Y02689*
X03432Y02691*
X03431Y02692*
X03431Y02693*
X03431Y02695*
X0343Y02696*
X0343Y02697*
X03429Y02698*
X03428Y027*
X03427Y02701*
X03426Y02702*
X03425Y02703*
X03424Y02704*
X03423Y02704*
X03422Y02705*
X03421Y02706*
X03419Y02706*
X03418Y02707*
X03417Y02707*
X03415Y02707*
X03414Y02708*
X03413Y02708*
X03411*
X0341Y02708*
X03408Y02707*
X03407Y02707*
X03406Y02707*
X03404Y02706*
X03403Y02706*
X03402Y02705*
X03401Y02704*
X034Y02704*
X03398Y02703*
X03397Y02702*
X03397Y02701*
X03396Y027*
X03395Y02698*
X03394Y02697*
X03394Y02696*
X03393Y02695*
X03393Y02693*
X03392Y02692*
X03392Y02691*
X03392Y02689*
X03392Y02688*
X03392Y02686*
X03392Y02685*
X03392Y02684*
X03393Y02682*
X03393Y02681*
X03394Y0268*
X03394Y02678*
X03395Y02677*
X03396Y02676*
X03397Y02675*
X03397Y02674*
X03398Y02673*
X034Y02672*
X03401Y02671*
X03402Y0267*
X03403Y0267*
X03404Y02669*
X03406Y02669*
X03407Y02668*
X03408Y02668*
X0341Y02668*
X03411Y02668*
X03413*
X03414Y02668*
X03415Y02668*
X03417Y02668*
X03418Y02669*
X03419Y02669*
X03421Y0267*
X03422Y0267*
X03423Y02671*
X03424Y02672*
X03425Y02673*
X03426Y02674*
X03427Y02675*
X03428Y02676*
X03429Y02677*
X0343Y02678*
X0343Y0268*
X03431Y02681*
X03431Y02682*
X03431Y02684*
X03432Y02685*
X03432Y02686*
X03432Y02688*
X01525Y0294D02*
D01*
X01524Y02941*
X01524Y02942*
X01524Y02944*
X01524Y02945*
X01523Y02946*
X01523Y02948*
X01522Y02949*
X01521Y0295*
X01521Y02951*
X0152Y02952*
X01519Y02953*
X01518Y02954*
X01517Y02955*
X01516Y02956*
X01515Y02957*
X01513Y02957*
X01512Y02958*
X01511Y02959*
X01509Y02959*
X01508Y02959*
X01507Y02959*
X01505Y02959*
X01504*
X01502Y02959*
X01501Y02959*
X015Y02959*
X01498Y02959*
X01497Y02958*
X01496Y02957*
X01495Y02957*
X01493Y02956*
X01492Y02955*
X01491Y02954*
X0149Y02953*
X01489Y02952*
X01488Y02951*
X01488Y0295*
X01487Y02949*
X01486Y02948*
X01486Y02946*
X01485Y02945*
X01485Y02944*
X01485Y02942*
X01485Y02941*
X01485Y0294*
X01485Y02938*
X01485Y02937*
X01485Y02935*
X01485Y02934*
X01486Y02933*
X01486Y02931*
X01487Y0293*
X01488Y02929*
X01488Y02928*
X01489Y02927*
X0149Y02926*
X01491Y02925*
X01492Y02924*
X01493Y02923*
X01495Y02922*
X01496Y02922*
X01497Y02921*
X01498Y0292*
X015Y0292*
X01501Y0292*
X01502Y0292*
X01504Y0292*
X01505*
X01507Y0292*
X01508Y0292*
X01509Y0292*
X01511Y0292*
X01512Y02921*
X01513Y02922*
X01515Y02922*
X01516Y02923*
X01517Y02924*
X01518Y02925*
X01519Y02926*
X0152Y02927*
X01521Y02928*
X01521Y02929*
X01522Y0293*
X01523Y02931*
X01523Y02933*
X01524Y02934*
X01524Y02935*
X01524Y02937*
X01524Y02938*
X01525Y0294*
Y02875D02*
D01*
X01524Y02876*
X01524Y02877*
X01524Y02879*
X01524Y0288*
X01523Y02881*
X01523Y02883*
X01522Y02884*
X01521Y02885*
X01521Y02886*
X0152Y02887*
X01519Y02888*
X01518Y02889*
X01517Y0289*
X01516Y02891*
X01515Y02892*
X01513Y02892*
X01512Y02893*
X01511Y02894*
X01509Y02894*
X01508Y02894*
X01507Y02894*
X01505Y02894*
X01504*
X01502Y02894*
X01501Y02894*
X015Y02894*
X01498Y02894*
X01497Y02893*
X01496Y02892*
X01495Y02892*
X01493Y02891*
X01492Y0289*
X01491Y02889*
X0149Y02888*
X01489Y02887*
X01488Y02886*
X01488Y02885*
X01487Y02884*
X01486Y02883*
X01486Y02881*
X01485Y0288*
X01485Y02879*
X01485Y02877*
X01485Y02876*
X01485Y02875*
X01485Y02873*
X01485Y02872*
X01485Y0287*
X01485Y02869*
X01486Y02868*
X01486Y02866*
X01487Y02865*
X01488Y02864*
X01488Y02863*
X01489Y02862*
X0149Y02861*
X01491Y0286*
X01492Y02859*
X01493Y02858*
X01495Y02857*
X01496Y02857*
X01497Y02856*
X01498Y02855*
X015Y02855*
X01501Y02855*
X01502Y02855*
X01504Y02855*
X01505*
X01507Y02855*
X01508Y02855*
X01509Y02855*
X01511Y02855*
X01512Y02856*
X01513Y02857*
X01515Y02857*
X01516Y02858*
X01517Y02859*
X01518Y0286*
X01519Y02861*
X0152Y02862*
X01521Y02863*
X01521Y02864*
X01522Y02865*
X01523Y02866*
X01523Y02868*
X01524Y02869*
X01524Y0287*
X01524Y02872*
X01524Y02873*
X01525Y02875*
X01635Y00865D02*
D01*
X01634Y00866*
X01634Y00867*
X01634Y00869*
X01634Y0087*
X01633Y00871*
X01633Y00873*
X01632Y00874*
X01631Y00875*
X01631Y00876*
X0163Y00877*
X01629Y00878*
X01628Y00879*
X01627Y0088*
X01626Y00881*
X01625Y00882*
X01623Y00882*
X01622Y00883*
X01621Y00884*
X01619Y00884*
X01618Y00884*
X01617Y00884*
X01615Y00884*
X01614*
X01612Y00884*
X01611Y00884*
X0161Y00884*
X01608Y00884*
X01607Y00883*
X01606Y00882*
X01605Y00882*
X01603Y00881*
X01602Y0088*
X01601Y00879*
X016Y00878*
X01599Y00877*
X01598Y00876*
X01598Y00875*
X01597Y00874*
X01596Y00873*
X01596Y00871*
X01595Y0087*
X01595Y00869*
X01595Y00867*
X01595Y00866*
X01595Y00865*
X01595Y00863*
X01595Y00862*
X01595Y0086*
X01595Y00859*
X01596Y00858*
X01596Y00856*
X01597Y00855*
X01598Y00854*
X01598Y00853*
X01599Y00852*
X016Y00851*
X01601Y0085*
X01602Y00849*
X01603Y00848*
X01605Y00847*
X01606Y00847*
X01607Y00846*
X01608Y00845*
X0161Y00845*
X01611Y00845*
X01612Y00845*
X01614Y00845*
X01615*
X01617Y00845*
X01618Y00845*
X01619Y00845*
X01621Y00845*
X01622Y00846*
X01623Y00847*
X01625Y00847*
X01626Y00848*
X01627Y00849*
X01628Y0085*
X01629Y00851*
X0163Y00852*
X01631Y00853*
X01631Y00854*
X01632Y00855*
X01633Y00856*
X01633Y00858*
X01634Y00859*
X01634Y0086*
X01634Y00862*
X01634Y00863*
X01635Y00865*
X01515Y008D02*
D01*
X01514Y00801*
X01514Y00802*
X01514Y00804*
X01514Y00805*
X01513Y00806*
X01513Y00808*
X01512Y00809*
X01511Y0081*
X01511Y00811*
X0151Y00812*
X01509Y00813*
X01508Y00814*
X01507Y00815*
X01506Y00816*
X01505Y00817*
X01503Y00817*
X01502Y00818*
X01501Y00819*
X01499Y00819*
X01498Y00819*
X01497Y00819*
X01495Y00819*
X01494*
X01492Y00819*
X01491Y00819*
X0149Y00819*
X01488Y00819*
X01487Y00818*
X01486Y00817*
X01485Y00817*
X01483Y00816*
X01482Y00815*
X01481Y00814*
X0148Y00813*
X01479Y00812*
X01478Y00811*
X01478Y0081*
X01477Y00809*
X01476Y00808*
X01476Y00806*
X01475Y00805*
X01475Y00804*
X01475Y00802*
X01475Y00801*
X01475Y008*
X01475Y00798*
X01475Y00797*
X01475Y00795*
X01475Y00794*
X01476Y00793*
X01476Y00791*
X01477Y0079*
X01478Y00789*
X01478Y00788*
X01479Y00787*
X0148Y00786*
X01481Y00785*
X01482Y00784*
X01483Y00783*
X01485Y00782*
X01486Y00782*
X01487Y00781*
X01488Y0078*
X0149Y0078*
X01491Y0078*
X01492Y0078*
X01494Y0078*
X01495*
X01497Y0078*
X01498Y0078*
X01499Y0078*
X01501Y0078*
X01502Y00781*
X01503Y00782*
X01505Y00782*
X01506Y00783*
X01507Y00784*
X01508Y00785*
X01509Y00786*
X0151Y00787*
X01511Y00788*
X01511Y00789*
X01512Y0079*
X01513Y00791*
X01513Y00793*
X01514Y00794*
X01514Y00795*
X01514Y00797*
X01514Y00798*
X01515Y008*
X01775Y0085D02*
D01*
X01774Y00851*
X01774Y00852*
X01774Y00854*
X01774Y00855*
X01773Y00856*
X01773Y00858*
X01772Y00859*
X01771Y0086*
X01771Y00861*
X0177Y00862*
X01769Y00863*
X01768Y00864*
X01767Y00865*
X01766Y00866*
X01765Y00867*
X01763Y00867*
X01762Y00868*
X01761Y00869*
X01759Y00869*
X01758Y00869*
X01757Y00869*
X01755Y00869*
X01754*
X01752Y00869*
X01751Y00869*
X0175Y00869*
X01748Y00869*
X01747Y00868*
X01746Y00867*
X01745Y00867*
X01743Y00866*
X01742Y00865*
X01741Y00864*
X0174Y00863*
X01739Y00862*
X01738Y00861*
X01738Y0086*
X01737Y00859*
X01736Y00858*
X01736Y00856*
X01735Y00855*
X01735Y00854*
X01735Y00852*
X01735Y00851*
X01735Y0085*
X01735Y00848*
X01735Y00847*
X01735Y00845*
X01735Y00844*
X01736Y00843*
X01736Y00841*
X01737Y0084*
X01738Y00839*
X01738Y00838*
X01739Y00837*
X0174Y00836*
X01741Y00835*
X01742Y00834*
X01743Y00833*
X01745Y00832*
X01746Y00832*
X01747Y00831*
X01748Y0083*
X0175Y0083*
X01751Y0083*
X01752Y0083*
X01754Y0083*
X01755*
X01757Y0083*
X01758Y0083*
X01759Y0083*
X01761Y0083*
X01762Y00831*
X01763Y00832*
X01765Y00832*
X01766Y00833*
X01767Y00834*
X01768Y00835*
X01769Y00836*
X0177Y00837*
X01771Y00838*
X01771Y00839*
X01772Y0084*
X01773Y00841*
X01773Y00843*
X01774Y00844*
X01774Y00845*
X01774Y00847*
X01774Y00848*
X01775Y0085*
X01575Y00825D02*
D01*
X01574Y00826*
X01574Y00827*
X01574Y00829*
X01574Y0083*
X01573Y00831*
X01573Y00833*
X01572Y00834*
X01571Y00835*
X01571Y00836*
X0157Y00837*
X01569Y00838*
X01568Y00839*
X01567Y0084*
X01566Y00841*
X01565Y00842*
X01563Y00842*
X01562Y00843*
X01561Y00844*
X01559Y00844*
X01558Y00844*
X01557Y00844*
X01555Y00844*
X01554*
X01552Y00844*
X01551Y00844*
X0155Y00844*
X01548Y00844*
X01547Y00843*
X01546Y00842*
X01545Y00842*
X01543Y00841*
X01542Y0084*
X01541Y00839*
X0154Y00838*
X01539Y00837*
X01538Y00836*
X01538Y00835*
X01537Y00834*
X01536Y00833*
X01536Y00831*
X01535Y0083*
X01535Y00829*
X01535Y00827*
X01535Y00826*
X01535Y00825*
X01535Y00823*
X01535Y00822*
X01535Y0082*
X01535Y00819*
X01536Y00818*
X01536Y00816*
X01537Y00815*
X01538Y00814*
X01538Y00813*
X01539Y00812*
X0154Y00811*
X01541Y0081*
X01542Y00809*
X01543Y00808*
X01545Y00807*
X01546Y00807*
X01547Y00806*
X01548Y00805*
X0155Y00805*
X01551Y00805*
X01552Y00805*
X01554Y00805*
X01555*
X01557Y00805*
X01558Y00805*
X01559Y00805*
X01561Y00805*
X01562Y00806*
X01563Y00807*
X01565Y00807*
X01566Y00808*
X01567Y00809*
X01568Y0081*
X01569Y00811*
X0157Y00812*
X01571Y00813*
X01571Y00814*
X01572Y00815*
X01573Y00816*
X01573Y00818*
X01574Y00819*
X01574Y0082*
X01574Y00822*
X01574Y00823*
X01575Y00825*
X0073Y01945D02*
D01*
X00729Y01946*
X00729Y01947*
X00729Y01949*
X00729Y0195*
X00728Y01951*
X00728Y01953*
X00727Y01954*
X00726Y01955*
X00726Y01956*
X00725Y01957*
X00724Y01958*
X00723Y01959*
X00722Y0196*
X00721Y01961*
X0072Y01962*
X00718Y01962*
X00717Y01963*
X00716Y01964*
X00714Y01964*
X00713Y01964*
X00712Y01964*
X0071Y01964*
X00709*
X00707Y01964*
X00706Y01964*
X00705Y01964*
X00703Y01964*
X00702Y01963*
X00701Y01962*
X007Y01962*
X00698Y01961*
X00697Y0196*
X00696Y01959*
X00695Y01958*
X00694Y01957*
X00693Y01956*
X00693Y01955*
X00692Y01954*
X00691Y01953*
X00691Y01951*
X0069Y0195*
X0069Y01949*
X0069Y01947*
X0069Y01946*
X0069Y01945*
X0069Y01943*
X0069Y01942*
X0069Y0194*
X0069Y01939*
X00691Y01938*
X00691Y01936*
X00692Y01935*
X00693Y01934*
X00693Y01933*
X00694Y01932*
X00695Y01931*
X00696Y0193*
X00697Y01929*
X00698Y01928*
X007Y01927*
X00701Y01927*
X00702Y01926*
X00703Y01925*
X00705Y01925*
X00706Y01925*
X00707Y01925*
X00709Y01925*
X0071*
X00712Y01925*
X00713Y01925*
X00714Y01925*
X00716Y01925*
X00717Y01926*
X00718Y01927*
X0072Y01927*
X00721Y01928*
X00722Y01929*
X00723Y0193*
X00724Y01931*
X00725Y01932*
X00726Y01933*
X00726Y01934*
X00727Y01935*
X00728Y01936*
X00728Y01938*
X00729Y01939*
X00729Y0194*
X00729Y01942*
X00729Y01943*
X0073Y01945*
X00775D02*
D01*
X00774Y01946*
X00774Y01947*
X00774Y01949*
X00774Y0195*
X00773Y01951*
X00773Y01953*
X00772Y01954*
X00771Y01955*
X00771Y01956*
X0077Y01957*
X00769Y01958*
X00768Y01959*
X00767Y0196*
X00766Y01961*
X00765Y01962*
X00763Y01962*
X00762Y01963*
X00761Y01964*
X00759Y01964*
X00758Y01964*
X00757Y01964*
X00755Y01964*
X00754*
X00752Y01964*
X00751Y01964*
X0075Y01964*
X00748Y01964*
X00747Y01963*
X00746Y01962*
X00745Y01962*
X00743Y01961*
X00742Y0196*
X00741Y01959*
X0074Y01958*
X00739Y01957*
X00738Y01956*
X00738Y01955*
X00737Y01954*
X00736Y01953*
X00736Y01951*
X00735Y0195*
X00735Y01949*
X00735Y01947*
X00735Y01946*
X00735Y01945*
X00735Y01943*
X00735Y01942*
X00735Y0194*
X00735Y01939*
X00736Y01938*
X00736Y01936*
X00737Y01935*
X00738Y01934*
X00738Y01933*
X00739Y01932*
X0074Y01931*
X00741Y0193*
X00742Y01929*
X00743Y01928*
X00745Y01927*
X00746Y01927*
X00747Y01926*
X00748Y01925*
X0075Y01925*
X00751Y01925*
X00752Y01925*
X00754Y01925*
X00755*
X00757Y01925*
X00758Y01925*
X00759Y01925*
X00761Y01925*
X00762Y01926*
X00763Y01927*
X00765Y01927*
X00766Y01928*
X00767Y01929*
X00768Y0193*
X00769Y01931*
X0077Y01932*
X00771Y01933*
X00771Y01934*
X00772Y01935*
X00773Y01936*
X00773Y01938*
X00774Y01939*
X00774Y0194*
X00774Y01942*
X00774Y01943*
X00775Y01945*
X0073Y01905D02*
D01*
X00729Y01906*
X00729Y01907*
X00729Y01909*
X00729Y0191*
X00728Y01911*
X00728Y01913*
X00727Y01914*
X00726Y01915*
X00726Y01916*
X00725Y01917*
X00724Y01918*
X00723Y01919*
X00722Y0192*
X00721Y01921*
X0072Y01922*
X00718Y01922*
X00717Y01923*
X00716Y01924*
X00714Y01924*
X00713Y01924*
X00712Y01924*
X0071Y01924*
X00709*
X00707Y01924*
X00706Y01924*
X00705Y01924*
X00703Y01924*
X00702Y01923*
X00701Y01922*
X007Y01922*
X00698Y01921*
X00697Y0192*
X00696Y01919*
X00695Y01918*
X00694Y01917*
X00693Y01916*
X00693Y01915*
X00692Y01914*
X00691Y01913*
X00691Y01911*
X0069Y0191*
X0069Y01909*
X0069Y01907*
X0069Y01906*
X0069Y01905*
X0069Y01903*
X0069Y01902*
X0069Y019*
X0069Y01899*
X00691Y01898*
X00691Y01896*
X00692Y01895*
X00693Y01894*
X00693Y01893*
X00694Y01892*
X00695Y01891*
X00696Y0189*
X00697Y01889*
X00698Y01888*
X007Y01887*
X00701Y01887*
X00702Y01886*
X00703Y01885*
X00705Y01885*
X00706Y01885*
X00707Y01885*
X00709Y01885*
X0071*
X00712Y01885*
X00713Y01885*
X00714Y01885*
X00716Y01885*
X00717Y01886*
X00718Y01887*
X0072Y01887*
X00721Y01888*
X00722Y01889*
X00723Y0189*
X00724Y01891*
X00725Y01892*
X00726Y01893*
X00726Y01894*
X00727Y01895*
X00728Y01896*
X00728Y01898*
X00729Y01899*
X00729Y019*
X00729Y01902*
X00729Y01903*
X0073Y01905*
X00775D02*
D01*
X00774Y01906*
X00774Y01907*
X00774Y01909*
X00774Y0191*
X00773Y01911*
X00773Y01913*
X00772Y01914*
X00771Y01915*
X00771Y01916*
X0077Y01917*
X00769Y01918*
X00768Y01919*
X00767Y0192*
X00766Y01921*
X00765Y01922*
X00763Y01922*
X00762Y01923*
X00761Y01924*
X00759Y01924*
X00758Y01924*
X00757Y01924*
X00755Y01924*
X00754*
X00752Y01924*
X00751Y01924*
X0075Y01924*
X00748Y01924*
X00747Y01923*
X00746Y01922*
X00745Y01922*
X00743Y01921*
X00742Y0192*
X00741Y01919*
X0074Y01918*
X00739Y01917*
X00738Y01916*
X00738Y01915*
X00737Y01914*
X00736Y01913*
X00736Y01911*
X00735Y0191*
X00735Y01909*
X00735Y01907*
X00735Y01906*
X00735Y01905*
X00735Y01903*
X00735Y01902*
X00735Y019*
X00735Y01899*
X00736Y01898*
X00736Y01896*
X00737Y01895*
X00738Y01894*
X00738Y01893*
X00739Y01892*
X0074Y01891*
X00741Y0189*
X00742Y01889*
X00743Y01888*
X00745Y01887*
X00746Y01887*
X00747Y01886*
X00748Y01885*
X0075Y01885*
X00751Y01885*
X00752Y01885*
X00754Y01885*
X00755*
X00757Y01885*
X00758Y01885*
X00759Y01885*
X00761Y01885*
X00762Y01886*
X00763Y01887*
X00765Y01887*
X00766Y01888*
X00767Y01889*
X00768Y0189*
X00769Y01891*
X0077Y01892*
X00771Y01893*
X00771Y01894*
X00772Y01895*
X00773Y01896*
X00773Y01898*
X00774Y01899*
X00774Y019*
X00774Y01902*
X00774Y01903*
X00775Y01905*
X0168Y00845D02*
D01*
X01679Y00846*
X01679Y00847*
X01679Y00849*
X01679Y0085*
X01678Y00851*
X01678Y00853*
X01677Y00854*
X01676Y00855*
X01676Y00856*
X01675Y00857*
X01674Y00858*
X01673Y00859*
X01672Y0086*
X01671Y00861*
X0167Y00862*
X01668Y00862*
X01667Y00863*
X01666Y00864*
X01664Y00864*
X01663Y00864*
X01662Y00864*
X0166Y00864*
X01659*
X01657Y00864*
X01656Y00864*
X01655Y00864*
X01653Y00864*
X01652Y00863*
X01651Y00862*
X0165Y00862*
X01648Y00861*
X01647Y0086*
X01646Y00859*
X01645Y00858*
X01644Y00857*
X01643Y00856*
X01643Y00855*
X01642Y00854*
X01641Y00853*
X01641Y00851*
X0164Y0085*
X0164Y00849*
X0164Y00847*
X0164Y00846*
X0164Y00845*
X0164Y00843*
X0164Y00842*
X0164Y0084*
X0164Y00839*
X01641Y00838*
X01641Y00836*
X01642Y00835*
X01643Y00834*
X01643Y00833*
X01644Y00832*
X01645Y00831*
X01646Y0083*
X01647Y00829*
X01648Y00828*
X0165Y00827*
X01651Y00827*
X01652Y00826*
X01653Y00825*
X01655Y00825*
X01656Y00825*
X01657Y00825*
X01659Y00825*
X0166*
X01662Y00825*
X01663Y00825*
X01664Y00825*
X01666Y00825*
X01667Y00826*
X01668Y00827*
X0167Y00827*
X01671Y00828*
X01672Y00829*
X01673Y0083*
X01674Y00831*
X01675Y00832*
X01676Y00833*
X01676Y00834*
X01677Y00835*
X01678Y00836*
X01678Y00838*
X01679Y00839*
X01679Y0084*
X01679Y00842*
X01679Y00843*
X0168Y00845*
M02*