M48
;Layer_Color=0
;FILE_FORMAT=4:2
METRIC,TZ
;TYPE=PLATED
T01F00S00C0.20
T02F00S00C0.80
T03F00S00C0.90
T04F00S00C3.18
%
T01
X177Y156
X255Y111
X344Y102
X434
X524
X614
X704
X794
X884
X974
X1064
X1154
X1244
X1334
X1424
X1514
X1604
X1694
X1784
X1874
X1964
X2015Y176
X2082Y236
X2169Y261
X2259Y262
X2349
X2439
X2529
X2619
X2709
X2799
X2889
X2979
X3069
X3159
X3249
X3339
X3429
X3519
X3609
X3699
X3789
X3879
X3750Y600
X3654Y720
X3600Y900
X3442Y619
X3347
X3251
X3138
X3042
X2946
X2850Y600
X2809Y1025
X3000Y1500
X3300
X3487Y1530
X3582
X3683Y1534
X3779
X3875
X3827Y1449
X3731
X3636Y1444
X3535Y1445
X3487Y1359
X3582
X3683Y1363
X3779
X3875
X3750Y1800
X3654Y2003
X3442Y1903
X3343
X3244
X3145
X3045
X2946
X2850Y1800
X2677Y1723
X2577
X2478
X2379
X2400Y1500
X2100
X2136Y1960
X2040
X1944
X1992Y2046
X2088
X2136Y2132
X2040
X1944
X2400Y2100
X2550Y1800
X3150
X3450
X3454Y2345
Y2444
Y2543
X3487Y2642
X3582
X3683Y2646
X3779
X3875
X3827Y2732
X3731
X3636Y2728
X3535Y2728
X3519Y2923
X3479Y2962
X3251Y3010
X3068Y2990
X2908
X2815
X2723
X2560Y2983
X2468Y2984
X2369
X2270
X2170
X1667Y3051
X1567
X1468
X1509Y2946
X1619Y2943
X1350Y3000
X1050
X750
X450
X600Y3300
X900
X1200
X1500
X1350Y3600
X1413Y3800
X750Y3600
X450
X300Y3300
X750Y2400
Y1800
X450
X600Y1500
X900
X1050Y1200
X750
X900Y900
X1200
X1500
X1414Y1095
X1350Y600
X1650
X1944Y677
X2040
X2136
X2088Y763
X1992
X2040Y848
X2136
X1944
X1800Y300
X1500
X1200
X900
X600
X300
X102Y315
X102Y405
Y495
Y585
Y675
Y765
Y855
Y945
X122Y228
X750Y600
X1050
X300Y1500
X1728Y1842
X1650Y2400
X2758Y2230
X3238Y2345
Y2444
Y2543
X3347Y2389
X3124Y3295
X3046Y3238
X2904Y3381
X2808
X2856Y3467
X2904Y3553
X2808
X2656Y3745
X2560
X2608Y3831
X2656Y3916
X2560
X2986Y3916
X3081
X3034Y3831
X2986Y3745
X3081
X3737Y3743
X3832
X3785Y3658
X3737Y3572
X3832
X3787Y3430
X3688
X3588
X3475Y3432
X3559Y3953
X3655
X3939Y3238
X2552Y3328
X2441Y3334
X2443Y3399
X2421Y3528
X3450Y1200
X4327Y1124
X4423
X4375Y1039
X4327Y953
X4423
X4214Y696
X4239Y262
X4149
X4059
X3969
X4329
X4419
X4509
X4599
X4689
X4779
X4869
X4959
X5049
X5139Y262
X5229Y262
X5319Y262
X5409Y262
X5499Y262
X5589Y262
X5679Y262
X5769Y262
X5859Y262
X5949Y262
X6039Y262
X6129Y262
X6219Y262
X6309Y262
X6399Y262
X6489Y262
X6579Y262
X6669Y262
X6759Y262
X6849Y262
X6939Y262
X7029Y262
X7119Y262
X7207Y242
X7277Y186
X7317Y105
X7407Y102
X7497
X7587
X7677
X7767
X7857
X7800Y300
X7500
X7530Y698
X7650Y600
X7755Y698
X7650Y1200
X7754Y1388
X7800Y1500
X7500
X7530Y1388
X7509Y1730
X7604
X7557Y1816
X7509Y1901
X7604
X7605Y2076
X7509
X7557Y2162
X7605Y2248
X7509
X7509Y2417
X7604
X7557Y2502
X7509Y2588
X7604
X7500Y2700
X7800
X7650Y3000
X7604Y3199
X7509
X7557Y3285
X7509Y3371
X7604
X7605Y3546
X7509
X7557Y3631
X7509Y3717
X7605
X7604Y3886
X7509
X7350Y3600
Y3000
X6721Y3029
X6554Y3035
X6450Y3000
X6340Y3029
X6180
X5850Y3000
X5550
X5250
X5220Y3288
X5400Y3300
X5700
X5805Y3290
X5541Y3477
X5539Y3552
X5700Y3900
X5908Y3866
X6000Y3900
X6203Y3855
X6300Y3900
X6600
Y2700
X6558Y2600
X6657
X6756
X6855
X6458
X6359
X6260
X6161
X6062
X5962
X6000Y2700
X6300
X6265Y2044
X6166
X6067
X5967
X5850Y1800
X6150
X6450
X6464Y2044
X6563
X6662
X6761
X6861
X6750Y1800
X6756Y1317
X6855
X6657
X6558
X6458
X6359
X6260
X6161
X6062
X5962
X5850Y1200
X5967Y760
X6067
X6166
X6265
X6364
X6464
X6563
X6662
X6761
X6861
X7050Y1200
X6364Y2044
X5850Y2400
X5550
X5250
X5040Y2260
X4950Y1800
X5250
X5550
X5040Y977
X4214Y1979
X4327Y2236
X4423
X4375Y2322
X4327Y2398
X4423
X4363Y3547
X4041Y3238
X4995Y3626
X5100Y3900
X4800
X8250Y3600
X8850
X9038Y3560
Y3650
Y3740
Y3830
Y3920
Y3470
Y3380
Y3290
Y3200
Y3110
Y3020
Y2930
Y2840
Y2750
X9038Y2660
Y2570
Y2480
Y2390
Y2300
Y2210
Y2120
Y2030
Y1940
Y1850
Y1760
Y1670
Y1580
X9039Y1490
X9064Y1403
X9123Y1336
X9198Y1286
Y1196
Y1106
Y1016
Y926
Y836
Y746
Y656
Y566
Y476
Y386
X9197Y296
X9169Y211
X9109Y143
X9027Y107
X8937Y102
X8847
X8757
X8667
X8577
X8487
X8397
X8307
X8217
X8127
X8037
X7947
X8100Y300
X8400
X8550Y600
X8250
X8205Y698
X7980
X7950Y600
X8100Y900
X8400
X8700
X9000
X8850Y1200
X8550
X8250
X8400Y1500
X8100
X7979Y1388
X8400Y2100
Y2700
X8550Y3000
X8850Y2400
Y1800
X9038Y4010
Y4100
Y4190
Y4280
Y4370
Y4460
Y4550
Y4640
Y4730
Y4820
Y4910
Y5000
Y5090
X9038Y5180
Y5270
Y5360
Y5450
Y5540
Y5630
Y5720
Y5810
Y5900
Y5990
Y6080
Y6170
Y6260
X9038Y6350
Y6440
Y6530
Y6620
Y6710
Y6800
Y6890
Y6980
Y7070
Y7160
Y7250
Y7340
Y7430
Y7520
X9048Y7609
X9092Y7688
X9166Y7739
X9198Y7823
Y7913
X8850Y7800
X8550
X8250
X8108Y7773
X8100Y7500
X8331Y7439
X8333Y7117
X8550Y7200
X8850
X8700Y7500
Y6900
X8695Y6467
X8700Y6300
X8695Y6147
X8550Y6000
X8850
X8700Y5700
X8400
X8550Y5400
X8850
X8700Y5100
X8850Y4800
X8550
X8509Y4599
X8700Y4500
X8550Y4200
X8250
X7950
X8318Y6147
X8292Y6311
X8267Y6465
X8215Y6623
X8341Y6624
X8333Y6799
X8850Y6600
X7650
X7350
X7050
X6750
X6748Y7027
X6852Y7022
X6900Y6900
X7200
X7500
X7800
X7727Y7206
X7650Y7200
X7350
X7200Y7500
X6900
X6731Y7630
X6600Y7500
X6750Y7200
X6299Y6705
X5740Y6969
Y7087
X5791Y7468
X5700Y7500
X5250Y7200
X4906Y7230
X4746
X4650Y7200
X4576Y7230
X4416
X4299Y7169
X4050Y7200
X4026Y7061
Y6892
X4200Y6300
X4500
X4597Y6325
X4650Y6000
X4950
X5250
X5242Y6324
X5400Y6300
X5410Y6401
X5550Y6600
X5700Y6300
X5779Y5790
X5700Y5700
X6000
X6150Y5400
X5850
X5886Y5138
X5596Y5028
X5400Y5100
X5355Y5185
X5250Y5400
X5550
X5400Y5700
X5550Y4800
X5681Y4828
X5700Y4500
X5801Y4407
Y4242
X5550Y4200
X5250
X4950
X4573Y4191
X4653Y4051
X4493
X4273
X4113
X4050Y4200
X4570Y5028
X4500Y5100
X4650Y5400
X4350
Y6000
X4050
X4800Y6900
X5400
X5224Y7841
X4950Y7800
X4823Y7913
X4650Y7800
X4350
X4443Y7912
X4060Y7903
X4050Y7800
X7658Y7578
X7800Y7500
Y6300
X7500
X7200
X6900
X7050Y6000
X7350
X7650
X6750
X6600Y5700
X6721Y5434
X6811Y5514
X6970Y5207
X7126
X7200Y5100
X6900
X6647Y5095
X6487Y4928
X6450Y4800
X6309Y4928
X6150Y4800
X6000Y4500
X6150Y4200
X6712Y4140
X6691Y4404
X7074
X7200Y4500
X7350Y4800
X7473Y4905
X7658Y5070
X7604Y4057
X7509
X7557Y3972
X6750Y4800
X5250
X5224Y4647
Y4520
X5400Y4500
X4950Y4800
X3750
X3581Y4805
X3534Y4891
X3629
Y4719
X3534
X3600Y4500
X3418Y4532
X3322
X3370Y4447
X3418Y4361
X3322
X3559Y4124
X3655
X3607Y4039
X2850Y4200
X2550
X2461Y4774
Y4873
Y4972
Y5072
Y5171
X2459Y5276
Y5375
Y5474
Y5573
Y5673
X2461Y5773
X2137Y5990
X2074Y6038
X2133Y6142
X1570Y6142
X1650Y6000
X1460Y5728
Y5652
X1422Y5476
Y5377
Y5278
Y5179
Y5079
Y4980
X1200Y5100
X750Y5400
Y6000
Y6600
X1050
X1200Y6900
X1500
X1560Y6978
Y7073
X1646Y7026
X1732Y6978
Y7073
X1800Y6900
X1818Y6651
X1903Y6698
Y6603
X1732
Y6698
X1646Y6651
X1560Y6698
Y6603
X1200Y6300
X450Y6600
X750Y7200
Y7800
X450
X1600Y7772
X1500Y7500
X2100
X2400
X2550Y7800
Y7200
X2850
X2989Y7073
Y6978
X2993Y6868
Y6772
X3165
Y6868
X3250Y6916
Y6820
X3336Y6772
Y6868
X3332Y7073
X3246Y7026
X3161Y7073
X3075Y7026
X3450Y7200
X3750
X3900Y7500
X3600
X3750Y7800
X3450
X3335Y7771
X3600Y6900
X3900
X3750Y6600
X3450
X3900Y6300
X3750Y6000
X3900Y5700
X3600
X3300
X3750Y5400
X3900Y5100
X3600
X2850Y5400
X2033Y5443
Y5542
X2035Y5344
X1983Y5246
Y5152
Y5052
X1930Y4954
Y4860
X1967Y4765
X1869
X1918Y4704
X1869Y4643
X1967
X2066
X2165
Y4538
X2066
X1967Y4536
X1869Y4538
X1775
X1675
X2165Y4765
X2400Y6900
X1950Y7200
Y7800
X2489Y8072
Y8141
X2550Y8400
X2850
X3150
X3335Y8306
Y8146
X3340Y7940
X3450Y8400
X3750
X3729Y8738
X3819Y8738
X3909Y8738
X3639Y8738
X3549Y8738
X3459Y8738
X3369Y8738
X3279Y8738
X3189Y8738
X3099Y8738
X3009Y8738
X2919Y8738
X2829Y8738
X2739Y8738
X2649Y8738
X2559Y8738
X2469Y8738
X2379Y8738
X2289Y8738
X2199Y8738
X2110Y8751
X2034Y8799
X1987Y8876
X1900Y8898
X1810
X1720
X1630
X1540
X1450
X1360
X1270
X1180
X1090
X1000
X910
X820
X730
X640
X550
X460
X370
X280Y8895
X197Y8860
X135Y8795
X104Y8711
X102Y8621
Y8531
Y8441
Y8351
Y8261
Y8171
X300Y8700
X600
X900
X1200
X1500
X1800
X1600Y8317
X1350Y8400
X1050
X750
X900Y8100
X1200
X2250Y8400
X3999Y8738
X4089Y8738
X4179Y8738
X4269
X4359
X4449
X4539
X4629
X4719
X4809
X4899
X4989
X5079
X5169
X5259
X5349
X5439
X5529
X5619
X5709
X5799
X5889
X5979
X6069
X6159
X6249
X6339
X6429
X6519
X6609
X6699
X6789
X6879
X6969
X7059Y8738
X7149Y8741
X7233Y8774
X7294Y8840
X7363Y8898
X7453
X7543
X7633
X7723
X7813
X7903
X7800Y8700
X7500
X7493Y8077
X7188
X7036
X6883
X6731
X6579
X6426
X6265Y8081
X6105Y8077
X6000Y8100
X6150Y8400
X6450
X5850
X5550
X5400Y8100
X4948Y8268
X4712Y8130
X4589Y8128
X4650Y8400
X4352Y8268
X7800Y8100
X8100
X8108Y7953
X8400Y8100
X8700
X9000
X9198Y8093
Y8003
Y8183
Y8273
Y8363
Y8453
Y8543
Y8633
X9194Y8723
X9159Y8806
X9093Y8867
X8982Y8898
X8892Y8898
X8802
X8712
X8622
X8532
X8442
X8352
X8262
X8172
X8082
X7993
X8100Y8700
X8400
X8550Y8400
X8250
T02
X6579Y8441
X6779
X6979
X7179
X7379
X7579
X7779
X7979
T03
X357Y1388
X611
X865
Y1642
Y1896
X1119
Y2150
Y2404
Y2658
Y2912
X865
Y3166
X1119
Y3420
Y3674
Y3928
X865
Y3674
Y3420
X611
Y3166
Y2912
X357
Y3166
Y3420
Y3674
Y3928
X611
Y3674
Y2658
X865
Y2404
Y2150
X611
Y2404
X357
Y2150
Y1896
Y1642
X611
Y1896
X1119Y1642
Y1388
X357Y2658
Y4182
Y4436
X611
Y4690
X865
X1119
Y4436
X865
Y4182
X1119
X611
X357Y4690
Y4944
X611
Y5198
X357
Y5452
X611
X865
Y5198
X1119
Y5452
Y5706
X865
Y5960
Y6214
Y6468
Y6722
X1119
Y6976
Y7230
Y7484
X865
X611
X357
Y7230
Y6976
Y6722
X611
Y6468
Y6214
X357
Y6468
Y5960
Y5706
X611
Y5960
X1119
Y6214
Y6468
X865Y6976
Y7230
X611
Y6976
Y7738
X865
X1119
X357
X865Y4944
X1119
T04
X354Y880
X8930Y500
X356Y8268
X8927Y8500
M30
