G04*
G04 #@! TF.GenerationSoftware,Altium Limited,Altium Designer,25.8.1 (18)*
G04*
G04 Layer_Physical_Order=3*
G04 Layer_Color=16440176*
%FSTAX44Y44*%
%MOMM*%
G71*
G04*
G04 #@! TF.SameCoordinates,CD8A6794-82D1-42B1-A0BA-2BE9AD7E379D*
G04*
G04*
G04 #@! TF.FilePolarity,Positive*
G04*
G01*
G75*
%ADD142C,0.3810*%
%ADD144C,0.5080*%
%ADD148C,1.5300*%
%ADD149C,1.4000*%
%ADD150O,1.6000X1.8000*%
G04:AMPARAMS|DCode=151|XSize=1.8mm|YSize=1.6mm|CornerRadius=0.4mm|HoleSize=0mm|Usage=FLASHONLY|Rotation=90.000|XOffset=0mm|YOffset=0mm|HoleType=Round|Shape=RoundedRectangle|*
%AMROUNDEDRECTD151*
21,1,1.8000,0.8000,0,0,90.0*
21,1,1.0000,1.6000,0,0,90.0*
1,1,0.8000,0.4000,0.5000*
1,1,0.8000,0.4000,-0.5000*
1,1,0.8000,-0.4000,-0.5000*
1,1,0.8000,-0.4000,0.5000*
%
%ADD151ROUNDEDRECTD151*%
%ADD152R,1.4000X1.4000*%
%ADD153R,1.5300X1.5300*%
%ADD154C,0.6000*%
%ADD155C,0.4000*%
%ADD156C,0.8000*%
%ADD157C,4.4000*%
G36*
X0084582Y00837291D02*
X00845942Y00834801D01*
X00846914Y00829918D01*
X00848819Y00825318D01*
X00851585Y00821177D01*
X0085326Y00819331D01*
X0085979Y008128D01*
Y008128D01*
X00861051Y00811657D01*
X00863878Y00809768D01*
X00867019Y00808467D01*
X00870354Y00807803D01*
X00872054Y0080772D01*
X00889D01*
Y0044958D01*
X0088392Y004445D01*
X0021844D01*
Y0050165D01*
X0021463Y0050546D01*
X0017272D01*
X0016891Y0050165D01*
Y0043434D01*
X0017907Y0042418D01*
Y001905D01*
X0018415Y0018542D01*
X0043942D01*
X004445Y0018034D01*
Y00084492D01*
X00443616Y00082359D01*
X00443271Y0007974D01*
Y0007774D01*
X00443616Y00075121D01*
X004445Y00072988D01*
Y0006096D01*
X0044069Y0005715D01*
X0040513D01*
X0040132Y0006096D01*
X0040132Y0011811D01*
X0038608Y0013335D01*
X0014605D01*
X0013716Y0014224D01*
Y008636D01*
X0084582D01*
Y00837291D01*
D02*
G37*
G36*
X0021463Y0049911D02*
Y0023368D01*
X0021971Y002286D01*
X0047625D01*
X0048006Y0022479D01*
X0048006Y0019177D01*
X0047752Y0018923D01*
X0018542D01*
X0018288Y0019177D01*
Y0042672D01*
X0017272Y0043688D01*
Y0049911D01*
X0017526Y0050165D01*
X0021209D01*
X0021463Y0049911D01*
D02*
G37*
G36*
X0084836Y0043815D02*
Y0040894D01*
X0084709Y0040767D01*
X0081661D01*
X0080645Y0039751D01*
Y00293439D01*
X00817949Y0028194D01*
X0085217Y0028194D01*
X0085471Y002794D01*
Y0025908D01*
X0085217Y0025654D01*
X0067691Y0025654D01*
X006731Y0025273D01*
X006731Y00086289D01*
X00671957Y00084799D01*
X00670946Y00082359D01*
X00670602Y0007974D01*
Y0007774D01*
X00670946Y00075121D01*
X00671957Y00072681D01*
X006731Y00071191D01*
Y0006477D01*
X0066548Y0005715D01*
X0062865Y0005715D01*
X0062357Y0006223D01*
X0062357Y002667D01*
X0061976Y0027051D01*
X0042672D01*
X0042418Y0027305D01*
X0042418Y0029083D01*
X0042672Y0029337D01*
X0073787D01*
X0075057Y0030607D01*
Y0043561D01*
X0075692Y0044196D01*
X0084455D01*
X0084836Y0043815D01*
D02*
G37*
G36*
X003937Y003683D02*
Y0036068D01*
X0041783Y0033655D01*
Y00269239D01*
X00422909Y0026416D01*
X0061214D01*
X0061595Y0026035D01*
Y0006096D01*
X0062484Y0005207D01*
X0067056D01*
X0068326Y0006477D01*
Y00067956D01*
X00683339Y00067966D01*
X00685779Y00068977D01*
X00687875Y00070585D01*
X00689483Y00072681D01*
X00690494Y00075121D01*
X00690839Y0007774D01*
Y0007974D01*
X00690494Y00082359D01*
X00689483Y00084799D01*
X00687875Y00086895D01*
X00685779Y00088503D01*
X00683339Y00089514D01*
X0068326Y00089524D01*
X0068326Y0024384D01*
X0068834Y0024892D01*
X0085217D01*
X0085979Y0025654D01*
Y0028067D01*
X0085471Y0028575D01*
X0082042D01*
X0081153Y0029464D01*
Y0033147D01*
X0088519D01*
X0088773Y0032893D01*
X0088773Y00122281D01*
X0088773Y00119779D01*
X00886754Y00114872D01*
X00884839Y0011025D01*
X00882059Y00106089D01*
X00880291Y0010432D01*
X00858339Y00082369D01*
X00856665Y00080522D01*
X00853899Y00076382D01*
X00851994Y00071782D01*
X00851022Y00066899D01*
X008509Y00064409D01*
Y000381D01*
X0052324D01*
X0050927Y0005207D01*
Y0023114D01*
X0050419Y0023622D01*
X0037465D01*
X0036195Y0024892D01*
X0033655D01*
X003048Y0028067D01*
Y0036703D01*
X0031242Y0037465D01*
X0038735D01*
X003937Y003683D01*
D02*
G37*
%LPC*%
G36*
X00705079Y00856122D02*
X00702701D01*
X00700404Y00855507D01*
X00698344Y00854317D01*
X00696663Y00852636D01*
X00695473Y00850576D01*
X00694858Y00848279D01*
X00692922D01*
X00692307Y00850576D01*
X00691117Y00852636D01*
X00689436Y00854317D01*
X00687376Y00855507D01*
X00685079Y00856122D01*
X00682701D01*
X00680404Y00855507D01*
X00678344Y00854317D01*
X00676663Y00852636D01*
X00675473Y00850576D01*
X00674858Y00848279D01*
Y00845901D01*
X00675473Y00843604D01*
X00676663Y00841544D01*
X00678344Y00839863D01*
X00680404Y00838673D01*
X00682701Y00838058D01*
X00685079D01*
X00687376Y00838673D01*
X00689436Y00839863D01*
X00691117Y00841544D01*
X00692307Y00843604D01*
X00692922Y00845901D01*
X00694858D01*
X00695473Y00843604D01*
X00696663Y00841544D01*
X00698344Y00839863D01*
X00700404Y00838673D01*
X00702701Y00838058D01*
X00705079D01*
X00707376Y00838673D01*
X00709436Y00839863D01*
X00711117Y00841544D01*
X00712307Y00843604D01*
X00712922Y00845901D01*
Y00848279D01*
X00712307Y00850576D01*
X00711117Y00852636D01*
X00709436Y00854317D01*
X00707376Y00855507D01*
X00705079Y00856122D01*
D02*
G37*
G36*
X00652922D02*
X00634858D01*
Y00838058D01*
X00652922D01*
Y00856122D01*
D02*
G37*
G36*
X00711652Y00829452D02*
X00693588D01*
Y00822235D01*
X00691556Y00821967D01*
X00691037Y00823906D01*
X00689847Y00825966D01*
X00688166Y00827647D01*
X00686106Y00828837D01*
X00683809Y00829452D01*
X00681431D01*
X00679134Y00828837D01*
X00677074Y00827647D01*
X00675393Y00825966D01*
X00674203Y00823906D01*
X00673588Y00821609D01*
X00671652D01*
X00671037Y00823906D01*
X00669847Y00825966D01*
X00668166Y00827647D01*
X00666106Y00828837D01*
X00663809Y00829452D01*
X00661431D01*
X00659134Y00828837D01*
X00657074Y00827647D01*
X00655393Y00825966D01*
X00654203Y00823906D01*
X00653588Y00821609D01*
X00651652D01*
X00651037Y00823906D01*
X00649847Y00825966D01*
X00648166Y00827647D01*
X00646106Y00828837D01*
X00643809Y00829452D01*
X00641431D01*
X00639134Y00828837D01*
X00637074Y00827647D01*
X00635393Y00825966D01*
X00634203Y00823906D01*
X00633588Y00821609D01*
Y00819231D01*
X00634203Y00816934D01*
X00635393Y00814874D01*
X00637074Y00813193D01*
X00639134Y00812003D01*
X00641431Y00811388D01*
X00643809D01*
X00646106Y00812003D01*
X00648166Y00813193D01*
X00649847Y00814874D01*
X00651037Y00816934D01*
X00651652Y00819231D01*
X00653588D01*
X00654203Y00816934D01*
X00655393Y00814874D01*
X00657074Y00813193D01*
X00659134Y00812003D01*
X00661431Y00811388D01*
X00663809D01*
X00666106Y00812003D01*
X00668166Y00813193D01*
X00669847Y00814874D01*
X00671037Y00816934D01*
X00671652Y00819231D01*
X00673588D01*
X00674203Y00816934D01*
X00675393Y00814874D01*
X00677074Y00813193D01*
X00679134Y00812003D01*
X00681431Y00811388D01*
X00683809D01*
X00686106Y00812003D01*
X00688166Y00813193D01*
X00689847Y00814874D01*
X00691037Y00816934D01*
X00691556Y00818873D01*
X00693588Y00818605D01*
Y00811388D01*
X00711652D01*
Y00829452D01*
D02*
G37*
G36*
X00543668Y00815595D02*
X00541666D01*
X00539817Y00814829D01*
X00538401Y00813413D01*
X00537635Y00811564D01*
Y00809562D01*
X00538401Y00807713D01*
X00539817Y00806297D01*
X00541666Y00805531D01*
X00543668D01*
X00545517Y00806297D01*
X00546933Y00807713D01*
X00547699Y00809562D01*
Y00811564D01*
X00546933Y00813413D01*
X00545517Y00814829D01*
X00543668Y00815595D01*
D02*
G37*
G36*
X00223251Y00811482D02*
X00221249D01*
X002194Y00810716D01*
X00217984Y008093D01*
X00217218Y00807451D01*
Y00805449D01*
X00217984Y008036D01*
X002194Y00802184D01*
X00221249Y00801418D01*
X00223251D01*
X002251Y00802184D01*
X00226516Y008036D01*
X00227282Y00805449D01*
Y00807451D01*
X00226516Y008093D01*
X002251Y00810716D01*
X00223251Y00811482D01*
D02*
G37*
G36*
X00765541Y00807672D02*
X00763539D01*
X0076169Y00806906D01*
X00760274Y0080549D01*
X00759508Y00803641D01*
Y00801639D01*
X00760274Y0079979D01*
X0076169Y00798374D01*
X00763539Y00797608D01*
X00765541D01*
X0076739Y00798374D01*
X00768806Y0079979D01*
X00769572Y00801639D01*
Y00803641D01*
X00768806Y0080549D01*
X0076739Y00806906D01*
X00765541Y00807672D01*
D02*
G37*
G36*
X00533131Y00788622D02*
X00531129D01*
X0052928Y00787856D01*
X00527864Y0078644D01*
X00527098Y00784591D01*
Y00782589D01*
X00527864Y0078074D01*
X0052928Y00779324D01*
X00531129Y00778558D01*
X00533131D01*
X0053498Y00779324D01*
X00536396Y0078074D01*
X00537162Y00782589D01*
Y00784591D01*
X00536396Y0078644D01*
X0053498Y00787856D01*
X00533131Y00788622D01*
D02*
G37*
G36*
X00351521Y00797512D02*
X00349519D01*
X0034767Y00796746D01*
X00346254Y0079533D01*
X00345488Y00793481D01*
Y00791479D01*
X00346254Y0078963D01*
X00347214Y0078867D01*
X00346254Y0078771D01*
X00345488Y00785861D01*
Y00783859D01*
X00346254Y0078201D01*
X0034767Y00780594D01*
X00349519Y00779828D01*
X00350296D01*
X00351779Y00778302D01*
X00351838Y00777951D01*
Y00776239D01*
X00351626Y00775922D01*
X00350789D01*
X0034894Y00775156D01*
X00347524Y0077374D01*
X00346758Y00771891D01*
Y00769889D01*
X00347524Y0076804D01*
X0034894Y00766624D01*
X00350789Y00765858D01*
X00352791D01*
X0035464Y00766624D01*
X00356056Y0076804D01*
X00356822Y00769889D01*
Y00771891D01*
X00357034Y00772208D01*
X00357871D01*
X0035972Y00772974D01*
X00361136Y0077439D01*
X00361902Y00776239D01*
Y00778241D01*
X00361136Y0078009D01*
X0035972Y00781506D01*
X00357871Y00782272D01*
X00357094D01*
X00355611Y00783798D01*
X00355552Y00784149D01*
Y00785861D01*
X00354786Y0078771D01*
X00353826Y0078867D01*
X00354786Y0078963D01*
X00355552Y00791479D01*
Y00793481D01*
X00354786Y0079533D01*
X0035337Y00796746D01*
X00351521Y00797512D01*
D02*
G37*
G36*
X00298181Y00768302D02*
X00296179D01*
X0029433Y00767536D01*
X00292914Y0076612D01*
X00292148Y00764271D01*
Y00762269D01*
X00292914Y0076042D01*
X0029433Y00759004D01*
X00296179Y00758238D01*
X00298181D01*
X0030003Y00759004D01*
X00301446Y0076042D01*
X00302212Y00762269D01*
Y00764271D01*
X00301446Y0076612D01*
X0030003Y00767536D01*
X00298181Y00768302D01*
D02*
G37*
G36*
Y00754332D02*
X00296179D01*
X0029433Y00753566D01*
X00292914Y0075215D01*
X00292148Y00750301D01*
Y00748299D01*
X00292914Y0074645D01*
X0029433Y00745034D01*
X00296179Y00744268D01*
X00298181D01*
X0030003Y00745034D01*
X00301446Y0074645D01*
X00302212Y00748299D01*
Y00750301D01*
X00301446Y0075215D01*
X0030003Y00753566D01*
X00298181Y00754332D01*
D02*
G37*
G36*
X00550911Y00750522D02*
X00548909D01*
X0054706Y00749756D01*
X00545644Y0074834D01*
X00544878Y00746491D01*
Y00744489D01*
X00545644Y0074264D01*
X0054706Y00741224D01*
X00548909Y00740458D01*
X00550911D01*
X0055276Y00741224D01*
X00554176Y0074264D01*
X00554942Y00744489D01*
Y00746491D01*
X00554176Y0074834D01*
X0055276Y00749756D01*
X00550911Y00750522D01*
D02*
G37*
G36*
X00804911Y00749252D02*
X00802909D01*
X0080106Y00748486D01*
X00799644Y0074707D01*
X00798878Y00745221D01*
Y00743219D01*
X00799644Y0074137D01*
X0080106Y00739954D01*
X00802909Y00739188D01*
X00804911D01*
X0080676Y00739954D01*
X00808176Y0074137D01*
X00808942Y00743219D01*
Y00745221D01*
X00808176Y0074707D01*
X0080676Y00748486D01*
X00804911Y00749252D01*
D02*
G37*
G36*
X00174991Y00736552D02*
X00172989D01*
X0017114Y00735786D01*
X00169724Y0073437D01*
X00168958Y00732521D01*
Y00730519D01*
X00169724Y0072867D01*
X0017114Y00727254D01*
X00172989Y00726488D01*
X00174991D01*
X0017684Y00727254D01*
X00178256Y0072867D01*
X00179022Y00730519D01*
Y00732521D01*
X00178256Y0073437D01*
X0017684Y00735786D01*
X00174991Y00736552D01*
D02*
G37*
G36*
X00643621Y00720042D02*
X00641619D01*
X0063977Y00719276D01*
X00638354Y0071786D01*
X00637588Y00716011D01*
Y00714009D01*
X00638354Y0071216D01*
X0063977Y00710744D01*
X00641619Y00709978D01*
X00643621D01*
X0064547Y00710744D01*
X00646886Y0071216D01*
X00647652Y00714009D01*
Y00716011D01*
X00646886Y0071786D01*
X0064547Y00719276D01*
X00643621Y00720042D01*
D02*
G37*
G36*
X00826501Y00721312D02*
X00824499D01*
X0082265Y00720546D01*
X00821234Y0071913D01*
X00820468Y00717281D01*
Y00715279D01*
X00821234Y0071343D01*
X0082265Y00712014D01*
X00822667Y00712007D01*
X00823774Y0071024D01*
X00823008Y00708391D01*
Y00706389D01*
X00823774Y0070454D01*
X0082519Y00703124D01*
X00827039Y00702358D01*
X00829041D01*
X0083089Y00703124D01*
X00832306Y0070454D01*
X00833072Y00706389D01*
Y00708391D01*
X00832306Y0071024D01*
X0083089Y00711656D01*
X00830873Y00711663D01*
X00829766Y0071343D01*
X00830532Y00715279D01*
Y00717281D01*
X00829766Y0071913D01*
X0082835Y00720546D01*
X00826501Y00721312D01*
D02*
G37*
G36*
X00643621Y00707342D02*
X00641619D01*
X0063977Y00706576D01*
X00638354Y0070516D01*
X00637588Y00703311D01*
Y00701309D01*
X00638354Y0069946D01*
X0063977Y00698044D01*
X00641619Y00697278D01*
X00643621D01*
X0064547Y00698044D01*
X00646886Y0069946D01*
X00647652Y00701309D01*
Y00703311D01*
X00646886Y0070516D01*
X0064547Y00706576D01*
X00643621Y00707342D01*
D02*
G37*
G36*
X00323429Y0069134D02*
X00321731D01*
X00320161Y0069069D01*
X0031896Y00689489D01*
X0031831Y00687919D01*
Y00686221D01*
X0031896Y00684651D01*
X00320161Y0068345D01*
X00321731Y006828D01*
X00323429D01*
X00324999Y0068345D01*
X003262Y00684651D01*
X0032685Y00686221D01*
Y00687919D01*
X003262Y00689489D01*
X00324999Y0069069D01*
X00323429Y0069134D01*
D02*
G37*
G36*
Y0067864D02*
X00321731D01*
X00320161Y0067799D01*
X0031896Y00676789D01*
X0031831Y00675219D01*
Y00673521D01*
X0031896Y00671951D01*
X00320161Y0067075D01*
X00321731Y006701D01*
X00323429D01*
X00324999Y0067075D01*
X003262Y00671951D01*
X0032685Y00673521D01*
Y00675219D01*
X003262Y00676789D01*
X00324999Y0067799D01*
X00323429Y0067864D01*
D02*
G37*
G36*
X00638541Y00679402D02*
X00636539D01*
X0063469Y00678636D01*
X00633274Y0067722D01*
X00632508Y00675371D01*
Y00673369D01*
X00633274Y0067152D01*
X0063469Y00670104D01*
X00636539Y00669338D01*
X00638541D01*
X0064039Y00670104D01*
X00641806Y0067152D01*
X00642572Y00673369D01*
Y00675371D01*
X00641806Y0067722D01*
X0064039Y00678636D01*
X00638541Y00679402D01*
D02*
G37*
G36*
X00827462Y00667663D02*
X0082546D01*
X0082361Y00666897D01*
X00822195Y00665481D01*
X00821429Y00663632D01*
Y0066163D01*
X00822195Y0065978D01*
X0082361Y00658365D01*
X0082546Y00657599D01*
X00827462D01*
X00829311Y00658365D01*
X00830727Y0065978D01*
X00831493Y0066163D01*
Y00663632D01*
X00830727Y00665481D01*
X00829311Y00666897D01*
X00827462Y00667663D01*
D02*
G37*
G36*
X00644891Y00667972D02*
X00642889D01*
X0064104Y00667206D01*
X00639624Y0066579D01*
X00638858Y00663941D01*
Y00661939D01*
X00639624Y0066009D01*
X0064104Y00658674D01*
X00639891Y00657168D01*
X00639851Y00657127D01*
X00639084Y00655277D01*
Y00653276D01*
X00639851Y00651426D01*
X00641266Y00650011D01*
X00643115Y00649244D01*
X00645117D01*
X00646967Y00650011D01*
X00648382Y00651426D01*
X00649148Y00653276D01*
Y00655277D01*
X00648382Y00657127D01*
X00646967Y00658542D01*
X00648115Y00660049D01*
X00648156Y0066009D01*
X00648922Y00661939D01*
Y00663941D01*
X00648156Y0066579D01*
X0064674Y00667206D01*
X00644891Y00667972D01*
D02*
G37*
G36*
X00827771Y00651462D02*
X00825769D01*
X0082392Y00650696D01*
X00822504Y0064928D01*
X00821738Y00647431D01*
Y00645429D01*
X00822504Y0064358D01*
X0082392Y00642164D01*
X00825769Y00641398D01*
X00827771D01*
X0082962Y00642164D01*
X00831036Y0064358D01*
X00831802Y00645429D01*
Y00647431D01*
X00831036Y0064928D01*
X0082962Y00650696D01*
X00827771Y00651462D01*
D02*
G37*
G36*
Y00632412D02*
X00825769D01*
X0082392Y00631646D01*
X00822504Y0063023D01*
X00821738Y00628381D01*
Y00626379D01*
X00822504Y0062453D01*
X0082392Y00623114D01*
X00825769Y00622348D01*
X00827771D01*
X0082962Y00623114D01*
X00831036Y0062453D01*
X00831802Y00626379D01*
Y00628381D01*
X00831036Y0063023D01*
X0082962Y00631646D01*
X00827771Y00632412D01*
D02*
G37*
G36*
X00580121Y00628602D02*
X00578119D01*
X0057627Y00627836D01*
X00574854Y0062642D01*
X00574088Y00624571D01*
Y00622569D01*
X00574854Y0062072D01*
X0057627Y00619304D01*
X00578119Y00618538D01*
X00580121D01*
X0058197Y00619304D01*
X00583386Y0062072D01*
X00584152Y00622569D01*
Y00624571D01*
X00583386Y0062642D01*
X0058197Y00627836D01*
X00580121Y00628602D01*
D02*
G37*
G36*
X00543291D02*
X00541289D01*
X0053944Y00627836D01*
X00538024Y0062642D01*
X00537258Y00624571D01*
Y00622569D01*
X00538024Y0062072D01*
X0053944Y00619304D01*
X00541289Y00618538D01*
X00543291D01*
X0054514Y00619304D01*
X00546556Y0062072D01*
X00547322Y00622569D01*
Y00624571D01*
X00546556Y0062642D01*
X0054514Y00627836D01*
X00543291Y00628602D01*
D02*
G37*
G36*
X00580121Y00603202D02*
X00578119D01*
X0057627Y00602436D01*
X00574854Y0060102D01*
X00574088Y00599171D01*
Y00597169D01*
X00574854Y0059532D01*
X0057627Y00593904D01*
X00578119Y00593138D01*
X00580121D01*
X0058197Y00593904D01*
X00583386Y0059532D01*
X00584152Y00597169D01*
Y00599171D01*
X00583386Y0060102D01*
X0058197Y00602436D01*
X00580121Y00603202D01*
D02*
G37*
G36*
X00543291D02*
X00541289D01*
X0053944Y00602436D01*
X00538024Y0060102D01*
X00537258Y00599171D01*
Y00597169D01*
X00538024Y0059532D01*
X0053944Y00593904D01*
X00541289Y00593138D01*
X00543291D01*
X0054514Y00593904D01*
X00546556Y0059532D01*
X00547322Y00597169D01*
Y00599171D01*
X00546556Y0060102D01*
X0054514Y00602436D01*
X00543291Y00603202D01*
D02*
G37*
G36*
X0063462Y00595542D02*
X00632618D01*
X00630769Y00594776D01*
X00629353Y00593361D01*
X00628587Y00591511D01*
Y0058951D01*
X00629353Y0058766D01*
X00630769Y00586245D01*
X00632618Y00585479D01*
X0063462D01*
X00636469Y00586245D01*
X00637885Y0058766D01*
X00638651Y0058951D01*
Y00591511D01*
X00637885Y00593361D01*
X00636469Y00594776D01*
X0063462Y00595542D01*
D02*
G37*
G36*
X00841741Y00593042D02*
X00839739D01*
X0083789Y00592276D01*
X00836474Y0059086D01*
X00835708Y00589011D01*
Y00587009D01*
X00836474Y0058516D01*
X0083789Y00583744D01*
X00839739Y00582978D01*
X00841741D01*
X0084359Y00583744D01*
X00845006Y0058516D01*
X00845772Y00587009D01*
Y00589011D01*
X00845006Y0059086D01*
X0084359Y00592276D01*
X00841741Y00593042D01*
D02*
G37*
G36*
X00204002Y00590772D02*
X00202398D01*
X00200916Y00590158D01*
X00199782Y00589024D01*
X00199168Y00587542D01*
Y00585938D01*
X00199782Y00584456D01*
X00200916Y00583322D01*
X00202398Y00582708D01*
X00204002D01*
X00205484Y00583322D01*
X00206618Y00584456D01*
X00207232Y00585938D01*
Y00587542D01*
X00206618Y00589024D01*
X00205484Y00590158D01*
X00204002Y00590772D01*
D02*
G37*
G36*
X00147051Y00585422D02*
X00145049D01*
X001432Y00584656D01*
X00141784Y0058324D01*
X00141018Y00581391D01*
Y00579389D01*
X00141784Y0057754D01*
X001432Y00576124D01*
X00145049Y00575358D01*
X00147051D01*
X001489Y00576124D01*
X00150316Y0057754D01*
X00151082Y00579389D01*
Y00581391D01*
X00150316Y0058324D01*
X001489Y00584656D01*
X00147051Y00585422D01*
D02*
G37*
G36*
X00200192Y00576802D02*
X00198588D01*
X00197106Y00576188D01*
X00195972Y00575054D01*
X00195358Y00573572D01*
Y00571968D01*
X00195972Y00570486D01*
X00197106Y00569352D01*
X00198588Y00568738D01*
X00199165D01*
X0019923Y0056864D01*
Y00567036D01*
X00199844Y00565554D01*
X00200978Y0056442D01*
X0020246Y00563806D01*
X00204064D01*
X00205546Y0056442D01*
X0020668Y00565554D01*
X00207294Y00567036D01*
Y0056864D01*
X0020668Y00570122D01*
X00205546Y00571256D01*
X00204064Y0057187D01*
X00203487D01*
X00203422Y00571968D01*
Y00573572D01*
X00202808Y00575054D01*
X00201674Y00576188D01*
X00200192Y00576802D01*
D02*
G37*
G36*
X00755381Y00563832D02*
X00753379D01*
X0075153Y00563066D01*
X00750518Y00562054D01*
X007493Y00561812D01*
X00748082Y00562054D01*
X0074707Y00563066D01*
X00745221Y00563832D01*
X00743219D01*
X0074137Y00563066D01*
X00739954Y0056165D01*
X00739188Y00559801D01*
Y00557799D01*
X00739954Y0055595D01*
X0074137Y00554534D01*
X00743219Y00553768D01*
X00745221D01*
X0074707Y00554534D01*
X00748082Y00555546D01*
X007493Y00555788D01*
X00750518Y00555546D01*
X0075153Y00554534D01*
X00753379Y00553768D01*
X00755381D01*
X0075723Y00554534D01*
X00758646Y0055595D01*
X00759412Y00557799D01*
Y00559801D01*
X00758646Y0056165D01*
X0075723Y00563066D01*
X00755381Y00563832D01*
D02*
G37*
G36*
X00684451Y00544592D02*
X00682449D01*
X006806Y00543826D01*
X00679184Y0054241D01*
X00678418Y00540561D01*
Y00538559D01*
X00679184Y0053671D01*
X006806Y00535294D01*
X00682449Y00534528D01*
X00684451D01*
X006863Y00535294D01*
X00687716Y0053671D01*
X00688482Y00538559D01*
Y00540561D01*
X00687716Y0054241D01*
X006863Y00543826D01*
X00684451Y00544592D01*
D02*
G37*
G36*
X00577581Y00533352D02*
X00575579D01*
X0057373Y00532586D01*
X00572314Y0053117D01*
X00571548Y00529321D01*
Y00527319D01*
X00572314Y0052547D01*
X0057373Y00524054D01*
X00575579Y00523288D01*
X00577581D01*
X0057943Y00524054D01*
X00580846Y0052547D01*
X00581612Y00527319D01*
Y00529321D01*
X00580846Y0053117D01*
X0057943Y00532586D01*
X00577581Y00533352D01*
D02*
G37*
G36*
X00546911Y00467502D02*
X00544909D01*
X0054306Y00466736D01*
X00541644Y0046532D01*
X00540878Y00463471D01*
Y00461469D01*
X00541644Y0045962D01*
X0054306Y00458204D01*
X00544909Y00457438D01*
X00546911D01*
X0054876Y00458204D01*
X00550176Y0045962D01*
X00550942Y00461469D01*
Y00463471D01*
X00550176Y0046532D01*
X0054876Y00466736D01*
X00546911Y00467502D01*
D02*
G37*
G36*
X00599171Y00467312D02*
X00597169D01*
X0059532Y00466546D01*
X00593904Y0046513D01*
X00593138Y00463281D01*
Y00461279D01*
X00593904Y0045943D01*
X0059532Y00458014D01*
X00597169Y00457248D01*
X00599171D01*
X0060102Y00458014D01*
X00602436Y0045943D01*
X00603202Y00461279D01*
Y00463281D01*
X00602436Y0046513D01*
X0060102Y00466546D01*
X00599171Y00467312D01*
D02*
G37*
G36*
X00529321D02*
X00527319D01*
X0052547Y00466546D01*
X00524054Y0046513D01*
X00523288Y00463281D01*
Y00461279D01*
X00524054Y0045943D01*
X0052547Y00458014D01*
X00527319Y00457248D01*
X00529321D01*
X0053117Y00458014D01*
X00532586Y0045943D01*
X00533352Y00461279D01*
Y00463281D01*
X00532586Y0046513D01*
X0053117Y00466546D01*
X00529321Y00467312D01*
D02*
G37*
G36*
X00483601Y00462994D02*
X00481599D01*
X0047975Y00462228D01*
X00478334Y00460812D01*
X00477568Y00458963D01*
Y00458033D01*
X00475611Y00456779D01*
X00474711Y00457152D01*
X00472709D01*
X0047086Y00456386D01*
X00469444Y0045497D01*
X00468678Y00453121D01*
Y00451119D01*
X00469444Y0044927D01*
X0047086Y00447854D01*
X00472709Y00447088D01*
X00474711D01*
X0047656Y00447854D01*
X00477976Y0044927D01*
X00478742Y00451119D01*
Y00452049D01*
X00480699Y00453303D01*
X00481599Y0045293D01*
X00483601D01*
X0048545Y00453696D01*
X00486866Y00455112D01*
X00487632Y00456961D01*
Y00458963D01*
X00486866Y00460812D01*
X0048545Y00462228D01*
X00483601Y00462994D01*
D02*
G37*
G36*
X00360974Y00168116D02*
X0035937D01*
X00357888Y00167502D01*
X00356754Y00166368D01*
X0035614Y00164886D01*
Y00163282D01*
X00356754Y001618D01*
X00357888Y00160666D01*
X0035937Y00160052D01*
X00360974D01*
X00362456Y00160666D01*
X0036359Y001618D01*
X00364204Y00163282D01*
Y00164886D01*
X0036359Y00166368D01*
X00362456Y00167502D01*
X00360974Y00168116D01*
D02*
G37*
G36*
X00646161Y00125682D02*
X00644159D01*
X0064231Y00124916D01*
X00640894Y001235D01*
X00640128Y00121651D01*
Y00119649D01*
X00640894Y001178D01*
X0064231Y00116384D01*
X00644159Y00115618D01*
X00646161D01*
X0064801Y00116384D01*
X00649426Y001178D01*
X00650192Y00119649D01*
Y00121651D01*
X00649426Y001235D01*
X0064801Y00124916D01*
X00646161Y00125682D01*
D02*
G37*
G36*
X00397241Y00279352D02*
X00395239D01*
X0039339Y00278586D01*
X00391974Y0027717D01*
X00391208Y00275321D01*
Y00273609D01*
X00391149Y00273258D01*
X00389666Y00271732D01*
X00388889D01*
X0038704Y00270966D01*
X00385624Y0026955D01*
X00384858Y00267701D01*
Y00265699D01*
X00385624Y0026385D01*
X0038704Y00262434D01*
X00388889Y00261668D01*
X00390891D01*
X0039274Y00262434D01*
X00394156Y0026385D01*
X00394922Y00265699D01*
Y00267411D01*
X00394981Y00267762D01*
X00396464Y00269288D01*
X00397241D01*
X0039909Y00270054D01*
X00400506Y0027147D01*
X00401272Y00273319D01*
Y00275321D01*
X00400506Y0027717D01*
X0039909Y00278586D01*
X00397241Y00279352D01*
D02*
G37*
G36*
X00357871Y00269192D02*
X00355869D01*
X0035402Y00268426D01*
X00352604Y0026701D01*
X00351838Y00265161D01*
Y00263159D01*
X00352604Y0026131D01*
X0035402Y00259894D01*
X00355869Y00259128D01*
X00357871D01*
X0035972Y00259894D01*
X00361136Y0026131D01*
X00361902Y00263159D01*
Y00265161D01*
X00361136Y0026701D01*
X0035972Y00268426D01*
X00357871Y00269192D01*
D02*
G37*
G36*
X00529321Y00255222D02*
X00527319D01*
X0052547Y00254456D01*
X00524054Y0025304D01*
X00523288Y00251191D01*
Y00249189D01*
X00524054Y0024734D01*
X0052547Y00245924D01*
X00527319Y00245158D01*
X00529321D01*
X0053117Y00245924D01*
X00532586Y0024734D01*
X00533352Y00249189D01*
Y00251191D01*
X00532586Y0025304D01*
X0053117Y00254456D01*
X00529321Y00255222D01*
D02*
G37*
G36*
X00718551Y00167592D02*
X00716549D01*
X007147Y00166826D01*
X00713284Y0016541D01*
X00712518Y00163561D01*
Y00161559D01*
X00713284Y0015971D01*
X007147Y00158294D01*
X00716549Y00157528D01*
X00718551D01*
X007204Y00158294D01*
X00721816Y0015971D01*
X00722582Y00161559D01*
Y00163561D01*
X00721816Y0016541D01*
X007204Y00166826D01*
X00718551Y00167592D01*
D02*
G37*
G36*
X00550911Y00140922D02*
X00548909D01*
X0054706Y00140156D01*
X00545644Y0013874D01*
X00544878Y00136891D01*
Y00134889D01*
X00545644Y0013304D01*
X0054706Y00131624D01*
X00548909Y00130858D01*
X00550911D01*
X0055276Y00131624D01*
X00554176Y0013304D01*
X00554942Y00134889D01*
Y00136891D01*
X00554176Y0013874D01*
X0055276Y00140156D01*
X00550911Y00140922D01*
D02*
G37*
G36*
X0056261Y00089859D02*
X00559991Y00089514D01*
X00557551Y00088503D01*
X00555455Y00086895D01*
X00553847Y00084799D01*
X00552836Y00082359D01*
X00552491Y0007974D01*
Y0007774D01*
X00552836Y00075121D01*
X00553847Y00072681D01*
X00555455Y00070585D01*
X00557551Y00068977D01*
X00559991Y00067966D01*
X0056261Y00067621D01*
X00565229Y00067966D01*
X00567669Y00068977D01*
X00569765Y00070585D01*
X00571373Y00072681D01*
X00572384Y00075121D01*
X00572729Y0007774D01*
Y0007974D01*
X00572384Y00082359D01*
X00571373Y00084799D01*
X00569765Y00086895D01*
X00567669Y00088503D01*
X00565229Y00089514D01*
X0056261Y00089859D01*
D02*
G37*
%LPD*%
D142*
X00326982Y00239438D02*
X00350857D01*
X0031115Y0025527D02*
X00326982Y00239438D01*
X002921Y0027432D02*
X0031115Y0025527D01*
X002921Y0027432D02*
Y0037338D01*
X0030226Y0038354D01*
X003937D02*
X0040386Y0037338D01*
Y0036449D02*
Y0037338D01*
X0030226Y0038354D02*
X003937D01*
X003937D01*
D144*
Y0044323D01*
X00486409Y00465534D02*
X00489664Y0046228D01*
X0051181D01*
X00416004Y00465534D02*
X00486409D01*
X003937Y0044323D02*
X00416004Y00465534D01*
D148*
X000611Y004944D02*
D03*
X000357D02*
D03*
X000611Y005198D02*
D03*
X000357D02*
D03*
Y007484D02*
D03*
X000611D02*
D03*
Y00469D02*
D03*
Y004436D02*
D03*
X000357Y00469D02*
D03*
Y004436D02*
D03*
X000865Y00469D02*
D03*
X001119Y006976D02*
D03*
Y006722D02*
D03*
Y005198D02*
D03*
X000865D02*
D03*
X001119Y005452D02*
D03*
X000865D02*
D03*
X001119Y007484D02*
D03*
X000865D02*
D03*
X001119Y00469D02*
D03*
Y004436D02*
D03*
X000865D02*
D03*
Y002912D02*
D03*
X001119Y003166D02*
D03*
Y002912D02*
D03*
Y002658D02*
D03*
Y002404D02*
D03*
X000865Y001896D02*
D03*
X001119Y003928D02*
D03*
Y004182D02*
D03*
X000865Y003166D02*
D03*
X001119Y003674D02*
D03*
X000865D02*
D03*
Y003928D02*
D03*
Y004182D02*
D03*
X001119Y004944D02*
D03*
X000865D02*
D03*
X001119Y005706D02*
D03*
X000865D02*
D03*
Y006214D02*
D03*
Y006468D02*
D03*
X001119Y00723D02*
D03*
X000865D02*
D03*
X001119Y007738D02*
D03*
X000865D02*
D03*
Y001388D02*
D03*
Y001642D02*
D03*
X001119Y001896D02*
D03*
Y00215D02*
D03*
X000865D02*
D03*
Y002658D02*
D03*
Y002404D02*
D03*
Y006722D02*
D03*
Y006976D02*
D03*
X001119Y006214D02*
D03*
Y006468D02*
D03*
Y001642D02*
D03*
Y00342D02*
D03*
X000865D02*
D03*
Y00596D02*
D03*
X001119D02*
D03*
X000357Y005452D02*
D03*
X000611D02*
D03*
X000357Y006722D02*
D03*
X000611Y006468D02*
D03*
Y006722D02*
D03*
Y006976D02*
D03*
Y006214D02*
D03*
X000357Y006976D02*
D03*
X000611Y001642D02*
D03*
X000357Y002912D02*
D03*
X000611Y003166D02*
D03*
Y002912D02*
D03*
Y002658D02*
D03*
Y002404D02*
D03*
X000357Y001896D02*
D03*
Y003166D02*
D03*
X000611Y005706D02*
D03*
X000357D02*
D03*
Y006214D02*
D03*
Y006468D02*
D03*
X000611Y00723D02*
D03*
X000357D02*
D03*
X000611Y007738D02*
D03*
X000357D02*
D03*
Y001388D02*
D03*
Y001642D02*
D03*
X000611Y001896D02*
D03*
Y00215D02*
D03*
X000357D02*
D03*
Y002658D02*
D03*
Y002404D02*
D03*
X000611Y00596D02*
D03*
X000357D02*
D03*
Y00342D02*
D03*
X000611D02*
D03*
X000357Y003674D02*
D03*
Y003928D02*
D03*
Y004182D02*
D03*
X000611Y003928D02*
D03*
Y004182D02*
D03*
Y003674D02*
D03*
D149*
X0068389Y0084709D02*
D03*
X0066389D02*
D03*
X0068262Y0082042D02*
D03*
X0066262D02*
D03*
X0064262D02*
D03*
X0070389Y0084709D02*
D03*
D150*
X0045339Y0007874D02*
D03*
X0068072D02*
D03*
X0056261D02*
D03*
X0033274D02*
D03*
X001905D02*
D03*
D151*
X001651D02*
D03*
X0030734D02*
D03*
X0053721D02*
D03*
X0065532D02*
D03*
X0042799D02*
D03*
D152*
X0070262Y0082042D02*
D03*
X0064389Y0084709D02*
D03*
D153*
X001119Y001388D02*
D03*
X000611D02*
D03*
D154*
X0035052Y0078486D02*
D03*
Y0079248D02*
D03*
X0035179Y0077089D02*
D03*
X0035687Y0077724D02*
D03*
X0038227Y0073025D02*
D03*
Y0074676D02*
D03*
X0064262Y0071501D02*
D03*
X00866736Y00682821D02*
D03*
X0086703Y0066421D02*
D03*
X0060706Y0075819D02*
D03*
X0056769Y0082677D02*
D03*
X0060706Y0077343D02*
D03*
X0055753Y0079248D02*
D03*
X0060706Y0074295D02*
D03*
X0056261Y0072263D02*
D03*
X0086741Y0063119D02*
D03*
Y0059817D02*
D03*
X0070231Y0054991D02*
D03*
X0066802Y0051562D02*
D03*
X0056261Y0053213D02*
D03*
X0056134Y0046228D02*
D03*
X0054356Y0072263D02*
D03*
X0018542Y0078613D02*
D03*
X0051181Y0046228D02*
D03*
X0017446Y00409628D02*
D03*
Y00419788D02*
D03*
X0016303Y00409628D02*
D03*
Y00419788D02*
D03*
X0060579Y0084709D02*
D03*
X0029845Y0077851D02*
D03*
X0064262Y0070231D02*
D03*
X0042164Y0021463D02*
D03*
X0019177Y0048387D02*
D03*
X0018034D02*
D03*
X0019177Y0049403D02*
D03*
X0018034D02*
D03*
X0039497Y0020955D02*
D03*
X0044577Y002159D02*
D03*
X0037973Y002032D02*
D03*
X0041021Y0021971D02*
D03*
X004826Y00457962D02*
D03*
X0063754Y0067437D02*
D03*
X0064389Y0066294D02*
D03*
X0047371Y0045212D02*
D03*
X0033782Y0011938D02*
D03*
X0054991Y0013589D02*
D03*
X0071755Y0016256D02*
D03*
X0064516Y0012065D02*
D03*
X0038989Y002667D02*
D03*
X0035687Y0026416D02*
D03*
X0039624Y0027432D02*
D03*
X0014605Y0058039D02*
D03*
X0084074Y0058801D02*
D03*
X0082677Y0062738D02*
D03*
Y0064643D02*
D03*
X00826461Y00662631D02*
D03*
X0075438Y005588D02*
D03*
X0074422D02*
D03*
X0053213Y0078359D02*
D03*
X00542667Y00810563D02*
D03*
X00633619Y0059051D02*
D03*
X0054229Y0062357D02*
D03*
Y0059817D02*
D03*
X0057912Y0062357D02*
D03*
Y0059817D02*
D03*
X00644116Y00654276D02*
D03*
X0029718Y007493D02*
D03*
Y0076327D02*
D03*
X0080391Y0074422D02*
D03*
X0076454Y0080264D02*
D03*
X0059817Y0046228D02*
D03*
X0054991Y0074549D02*
D03*
X0068345Y0053956D02*
D03*
X0052832Y0046228D02*
D03*
X0054591Y0046247D02*
D03*
X0048895Y0032004D02*
D03*
X0032258Y0068707D02*
D03*
X0017399Y0073152D02*
D03*
X0052832Y0025019D02*
D03*
X0057658Y0052832D02*
D03*
X0032258Y0067437D02*
D03*
X0022225Y0080645D02*
D03*
X008255Y0071628D02*
D03*
X0082804Y0070739D02*
D03*
D155*
X00052431Y00010171D02*
D03*
X00043431D02*
D03*
X00079431D02*
D03*
X00061431D02*
D03*
X00070431D02*
D03*
X00012229Y00022764D02*
D03*
X0001017Y00031525D02*
D03*
X00034431Y00010171D02*
D03*
X00017654Y00015583D02*
D03*
X00025484Y00011144D02*
D03*
X00142431Y00010171D02*
D03*
X00133431D02*
D03*
X00169431D02*
D03*
X00151431D02*
D03*
X00160431D02*
D03*
X00097431D02*
D03*
X00088431D02*
D03*
X00124431D02*
D03*
X00106431D02*
D03*
X00115431D02*
D03*
X00178431D02*
D03*
X0019643D02*
D03*
X0018743D02*
D03*
X00201502Y00017606D02*
D03*
X00208221Y00023593D02*
D03*
X00216873Y00026071D02*
D03*
X00270873Y0002617D02*
D03*
X00252873D02*
D03*
X00261873D02*
D03*
X00234873D02*
D03*
X00225873D02*
D03*
X00243873D02*
D03*
X00324873D02*
D03*
X00315872D02*
D03*
X00351872D02*
D03*
X00333872D02*
D03*
X00342872D02*
D03*
X00279873D02*
D03*
X00306873D02*
D03*
X00288873D02*
D03*
X00297873D02*
D03*
X0001017Y00058525D02*
D03*
Y00067525D02*
D03*
Y00040525D02*
D03*
Y00049525D02*
D03*
Y00085525D02*
D03*
Y00076525D02*
D03*
Y00094525D02*
D03*
X00414872Y0002617D02*
D03*
X00405872D02*
D03*
X00432872D02*
D03*
X00423872D02*
D03*
X00441872D02*
D03*
X00360872D02*
D03*
X00378872D02*
D03*
X00369872D02*
D03*
X00396872D02*
D03*
X00387872D02*
D03*
X00450872D02*
D03*
X00477872D02*
D03*
X00468872D02*
D03*
X00504872D02*
D03*
X00486872D02*
D03*
X00495872D02*
D03*
X00459872D02*
D03*
X00513872Y00026171D02*
D03*
X00522872Y00026171D02*
D03*
X00531872Y00026171D02*
D03*
X00540872Y00026171D02*
D03*
X00549872Y00026171D02*
D03*
X00558872Y00026171D02*
D03*
X00567872Y00026171D02*
D03*
X00010171Y00835087D02*
D03*
Y00826087D02*
D03*
Y00817087D02*
D03*
Y00853087D02*
D03*
Y00844087D02*
D03*
Y00862087D02*
D03*
X00010375Y00871085D02*
D03*
X00013495Y00879527D02*
D03*
X0001971Y00886037D02*
D03*
X0002803Y00889467D02*
D03*
X00046023Y00889826D02*
D03*
X00073023D02*
D03*
X00055023D02*
D03*
X00064023D02*
D03*
X00037023D02*
D03*
X00118023D02*
D03*
X00109023D02*
D03*
X00145023D02*
D03*
X00127023D02*
D03*
X00136023D02*
D03*
X00100023D02*
D03*
X00082023D02*
D03*
X00091023D02*
D03*
X00219902Y00873824D02*
D03*
X00228902Y00873824D02*
D03*
X00237902Y00873824D02*
D03*
X00246902Y00873824D02*
D03*
X00255902Y00873824D02*
D03*
X00172023Y00889826D02*
D03*
X00163023D02*
D03*
X00198744Y00887603D02*
D03*
X00181023Y00889826D02*
D03*
X00190023D02*
D03*
X00154023D02*
D03*
X00264902Y00873824D02*
D03*
X00273902Y00873824D02*
D03*
X00282902Y00873824D02*
D03*
X00291902Y00873824D02*
D03*
X00300902Y00873824D02*
D03*
X00203387Y00879893D02*
D03*
X00309902Y00873825D02*
D03*
X0021099Y00875078D02*
D03*
X00318902Y00873825D02*
D03*
X00327902Y00873825D02*
D03*
X00336902Y00873825D02*
D03*
X00345902Y00873825D02*
D03*
X00354902Y00873825D02*
D03*
X00363902Y00873825D02*
D03*
X00372902Y00873825D02*
D03*
X00381902Y00873825D02*
D03*
X00390902Y00873825D02*
D03*
X00399902Y00873825D02*
D03*
X00408902Y00873826D02*
D03*
X00435902Y00873826D02*
D03*
X00417902D02*
D03*
X00426902D02*
D03*
X00498902D02*
D03*
X00507902D02*
D03*
X00453902D02*
D03*
X00444902D02*
D03*
X00480902D02*
D03*
X00462902D02*
D03*
X00471902D02*
D03*
X00543902D02*
D03*
X00534902D02*
D03*
X00570902D02*
D03*
X00552902D02*
D03*
X00561902D02*
D03*
X00525902D02*
D03*
X00489902D02*
D03*
X00516902D02*
D03*
X00576872Y00026171D02*
D03*
X00585872Y00026171D02*
D03*
X00594872Y00026171D02*
D03*
X00603872Y00026171D02*
D03*
X00612872Y00026172D02*
D03*
X00621872Y00026172D02*
D03*
X00630872Y00026172D02*
D03*
X00639872Y00026172D02*
D03*
X00648872Y00026172D02*
D03*
X00657872Y00026172D02*
D03*
X00666872Y00026172D02*
D03*
X00675872Y00026172D02*
D03*
X00684872Y00026172D02*
D03*
X00693872Y00026172D02*
D03*
X00749685Y00010171D02*
D03*
X00767685D02*
D03*
X00758685D02*
D03*
X00785685D02*
D03*
X00776685D02*
D03*
X00812685D02*
D03*
X00794685D02*
D03*
X00803685D02*
D03*
X00702872Y00026172D02*
D03*
X00711872Y00026172D02*
D03*
X00731693Y0001055D02*
D03*
X00720652Y00024198D02*
D03*
X0072772Y00018625D02*
D03*
X00740685Y00010171D02*
D03*
X00830685D02*
D03*
X00821685D02*
D03*
X00866685D02*
D03*
X00839685D02*
D03*
X00875685D02*
D03*
X00884685D02*
D03*
X00893685D02*
D03*
X00857685D02*
D03*
X00848685D02*
D03*
X00902669Y00010701D02*
D03*
X00910898Y00014346D02*
D03*
X00916874Y00021076D02*
D03*
X00919681Y00029627D02*
D03*
X00919829Y00047626D02*
D03*
Y00083626D02*
D03*
Y00092626D02*
D03*
Y00056626D02*
D03*
Y00074626D02*
D03*
Y00065626D02*
D03*
Y00038626D02*
D03*
X00903829Y00166979D02*
D03*
Y00175979D02*
D03*
X00906356Y00140316D02*
D03*
X00903829Y00157979D02*
D03*
X00903919Y0014898D02*
D03*
X00903829Y00211979D02*
D03*
Y00220979D02*
D03*
Y00184979D02*
D03*
Y00202979D02*
D03*
Y00193979D02*
D03*
X00919829Y00101626D02*
D03*
Y00119626D02*
D03*
Y00110626D02*
D03*
X00912304Y00133562D02*
D03*
X00919829Y00128626D02*
D03*
X00903829Y00256979D02*
D03*
Y00265979D02*
D03*
Y00229979D02*
D03*
Y00247979D02*
D03*
Y00238979D02*
D03*
X00903829Y00310979D02*
D03*
Y00319979D02*
D03*
Y00283979D02*
D03*
Y00301979D02*
D03*
Y00292979D02*
D03*
Y00274979D02*
D03*
Y00355979D02*
D03*
Y00364979D02*
D03*
Y00328979D02*
D03*
Y00346979D02*
D03*
Y00337979D02*
D03*
Y00382979D02*
D03*
Y00391979D02*
D03*
Y00373979D02*
D03*
X00903829Y00490979D02*
D03*
Y00481979D02*
D03*
Y00427979D02*
D03*
Y00436979D02*
D03*
Y00400979D02*
D03*
Y00418979D02*
D03*
Y00409979D02*
D03*
Y00472979D02*
D03*
Y00445979D02*
D03*
Y00463979D02*
D03*
Y00454979D02*
D03*
X00597901Y00873826D02*
D03*
X00588901D02*
D03*
X00624902D02*
D03*
X00606902D02*
D03*
X00615901D02*
D03*
X00579902D02*
D03*
X00642901D02*
D03*
X00633901D02*
D03*
X00669901D02*
D03*
X00651901D02*
D03*
X00660901D02*
D03*
X00687901D02*
D03*
X00678901D02*
D03*
X00705901Y00873826D02*
D03*
X00696901Y00873826D02*
D03*
X00714897Y0087411D02*
D03*
X00723279Y00877388D02*
D03*
X0072941Y00883977D02*
D03*
X0073625Y00889826D02*
D03*
X0074525D02*
D03*
X0076325D02*
D03*
X0075425D02*
D03*
X0079025D02*
D03*
X0077225D02*
D03*
X0078125D02*
D03*
X00903829Y00499979D02*
D03*
Y00508979D02*
D03*
X00903829Y00526979D02*
D03*
Y00544979D02*
D03*
Y00535979D02*
D03*
Y00580979D02*
D03*
Y00589979D02*
D03*
Y00553979D02*
D03*
Y00571979D02*
D03*
Y00562979D02*
D03*
Y00517979D02*
D03*
Y00616978D02*
D03*
Y00625979D02*
D03*
Y00598979D02*
D03*
Y00607979D02*
D03*
X00903829Y00688978D02*
D03*
Y00724978D02*
D03*
Y00733978D02*
D03*
Y00697978D02*
D03*
Y00715978D02*
D03*
Y00706978D02*
D03*
Y00661978D02*
D03*
Y00670978D02*
D03*
Y00634978D02*
D03*
Y00652979D02*
D03*
Y00643979D02*
D03*
Y00679978D02*
D03*
X0080825Y00889826D02*
D03*
X0079925D02*
D03*
X0083525D02*
D03*
X0081725D02*
D03*
X0082625D02*
D03*
X0084425D02*
D03*
X0087125D02*
D03*
X0085325D02*
D03*
X0086225D02*
D03*
X00903829Y00742978D02*
D03*
Y00751978D02*
D03*
X00904767Y00760929D02*
D03*
X00909184Y00768771D02*
D03*
X00916575Y00773906D02*
D03*
X00919829Y00809297D02*
D03*
Y00800297D02*
D03*
Y00791297D02*
D03*
Y00782297D02*
D03*
X00919391Y00872287D02*
D03*
X00915867Y00880568D02*
D03*
X00919829Y00845297D02*
D03*
Y00863297D02*
D03*
Y00854297D02*
D03*
X0088025Y00889826D02*
D03*
X00909253Y00886672D02*
D03*
X0088925Y00889826D02*
D03*
X0089825Y00889848D02*
D03*
X00919829Y00818297D02*
D03*
Y00836297D02*
D03*
Y00827297D02*
D03*
X00360172Y00164084D02*
D03*
X002032Y0058674D02*
D03*
X0019939Y0057277D02*
D03*
X00203262Y00567838D02*
D03*
D156*
X0030226Y008255D02*
D03*
X0080518Y0075692D02*
D03*
X0061468Y0066294D02*
D03*
X0088265Y0049149D02*
D03*
X00865761Y00491835D02*
D03*
X00794218Y00479993D02*
D03*
X0058293Y005588D02*
D03*
X0053467Y0053975D02*
D03*
X004445Y0068707D02*
D03*
X0027432Y0074549D02*
D03*
X002159Y007493D02*
D03*
X0040386Y0036449D02*
D03*
X00350857Y00239438D02*
D03*
X0031115Y0025527D02*
D03*
X00582758Y00461576D02*
D03*
X0031496Y0036449D02*
D03*
X004318Y0028448D02*
D03*
X0083566Y0026924D02*
D03*
X0084709D02*
D03*
X0080899Y0043561D02*
D03*
Y0042037D02*
D03*
X0082677Y0043561D02*
D03*
Y0042037D02*
D03*
X0084963Y0030353D02*
D03*
X0084074Y0032385D02*
D03*
X0084201Y0018288D02*
D03*
X008382Y001524D02*
D03*
X008509D02*
D03*
X0084455Y0014097D02*
D03*
D157*
X00035446Y00088D02*
D03*
X0003556Y0082677D02*
D03*
X00893Y0005D02*
D03*
X00892746Y0085D02*
D03*
M02*
