G04*
G04 #@! TF.GenerationSoftware,Altium Limited,Altium Designer,24.1.2 (44)*
G04*
G04 Layer_Color=255*
%FSTAX44Y44*%
%MOMM*%
G71*
G04*
G04 #@! TF.SameCoordinates,C06C466E-F32D-4BEE-90EE-EF79C529164A*
G04*
G04*
G04 #@! TF.FilePolarity,Positive*
G04*
G01*
G75*
%ADD130C,1.4000*%
%ADD131R,1.4000X1.4000*%
%ADD132C,1.5300*%
%ADD133C,6.0000*%
%ADD134R,1.5300X1.5300*%
D130*
X00697863Y00844071D02*
D03*
X00677863D02*
D03*
X00657863D02*
D03*
X0077787D02*
D03*
X0073787D02*
D03*
X0075787D02*
D03*
D131*
X00717863D02*
D03*
X0079787D02*
D03*
D132*
X000611Y00469D02*
D03*
X000865D02*
D03*
X000611Y004436D02*
D03*
X000357Y00469D02*
D03*
Y004436D02*
D03*
X000611Y004944D02*
D03*
X000357D02*
D03*
X000611Y005198D02*
D03*
X000357D02*
D03*
Y007484D02*
D03*
X000611D02*
D03*
X001119Y006976D02*
D03*
Y006722D02*
D03*
Y005198D02*
D03*
X000865D02*
D03*
X001119Y005452D02*
D03*
X000865D02*
D03*
X001119Y007484D02*
D03*
X000865D02*
D03*
X001119Y00469D02*
D03*
Y004436D02*
D03*
X000865D02*
D03*
Y002912D02*
D03*
X001119Y003166D02*
D03*
Y002912D02*
D03*
Y002658D02*
D03*
Y002404D02*
D03*
X000865Y001896D02*
D03*
X001119Y003928D02*
D03*
Y004182D02*
D03*
X000865Y003166D02*
D03*
X001119Y003674D02*
D03*
X000865D02*
D03*
Y003928D02*
D03*
Y004182D02*
D03*
X001119Y004944D02*
D03*
X000865D02*
D03*
X001119Y005706D02*
D03*
X000865D02*
D03*
Y006214D02*
D03*
Y006468D02*
D03*
X001119Y00723D02*
D03*
X000865D02*
D03*
X001119Y007738D02*
D03*
X000865D02*
D03*
Y001388D02*
D03*
Y001642D02*
D03*
X001119Y001896D02*
D03*
Y00215D02*
D03*
X000865D02*
D03*
Y002658D02*
D03*
Y002404D02*
D03*
Y006722D02*
D03*
Y006976D02*
D03*
X001119Y006214D02*
D03*
Y006468D02*
D03*
Y001642D02*
D03*
Y00342D02*
D03*
X000865D02*
D03*
Y00596D02*
D03*
X001119D02*
D03*
X000357Y005452D02*
D03*
X000611D02*
D03*
X000357Y006722D02*
D03*
X000611Y006468D02*
D03*
Y006722D02*
D03*
Y006976D02*
D03*
Y006214D02*
D03*
X000357Y006976D02*
D03*
X000611Y001642D02*
D03*
X000357Y002912D02*
D03*
X000611Y003166D02*
D03*
Y002912D02*
D03*
Y002658D02*
D03*
Y002404D02*
D03*
X000357Y001896D02*
D03*
Y003166D02*
D03*
X000611Y005706D02*
D03*
X000357D02*
D03*
Y006214D02*
D03*
Y006468D02*
D03*
X000611Y00723D02*
D03*
X000357D02*
D03*
X000611Y007738D02*
D03*
X000357D02*
D03*
Y001388D02*
D03*
Y001642D02*
D03*
X000611Y001896D02*
D03*
Y00215D02*
D03*
X000357D02*
D03*
Y002658D02*
D03*
Y002404D02*
D03*
X000611Y00596D02*
D03*
X000357D02*
D03*
Y00342D02*
D03*
X000611D02*
D03*
X000357Y003674D02*
D03*
Y003928D02*
D03*
Y004182D02*
D03*
X000611Y003928D02*
D03*
Y004182D02*
D03*
Y003674D02*
D03*
D133*
X00035446Y00088D02*
D03*
X00892746Y0085D02*
D03*
X0003556Y0082677D02*
D03*
X00893Y0005D02*
D03*
D134*
X001119Y001388D02*
D03*
X000611D02*
D03*
M02*
